<svg width="1534" height="1396" viewBox="0 0 1534 1396" fill="none" xmlns="http://www.w3.org/2000/svg"><path d="M535.407 4.75964C534.287 7.58031 523.463 35.4344 511.333 66.9906C479.235 150.553 383.687 398.243 345.803 496.261C327.888 542.802 293.55 631.653 269.663 693.708C208.079 853.605 146.682 1012.8 86.7774 1167.93C6.53162 1375.96 0 1393.06 0 1394.64C0 1395.53 140.897 1396.05 337.219 1395.88L674.437 1395.35L677.05 1384.77C702.803 1279.53 746.099 1183.62 804.324 1102.71C839.594 1054.05 900.432 992.17 949.886 954.796C1029.2 895.21 1122.13 849.021 1230.75 815.702C1267.14 804.419 1283.93 800.188 1312.86 795.252C1383.96 782.912 1446.66 786.261 1508.25 805.83C1520.56 809.708 1531.2 812.353 1532.32 811.824C1533.25 811.119 1534 801.07 1534 789.258C1534 765.106 1530.45 749.416 1521.12 731.787C1504.33 700.407 1470.18 677.489 1423.9 666.383L1411.77 663.562L1408.03 649.459C1396.46 607.149 1363.8 574.359 1314.91 556.201C1277.21 542.274 1234.1 536.985 1156.1 536.985C1116.72 536.985 1094.51 537.866 1074.55 539.982C980.118 550.559 906.03 571.185 827.651 608.912C766.813 638.176 713.254 674.492 668.466 717.155C643.459 740.954 641.966 741.66 647.938 726.322C648.871 723.854 660.628 689.83 674.064 650.517C687.314 611.204 702.803 566.073 708.215 550.03C713.627 533.988 722.398 508.778 727.437 493.97C732.476 479.161 736.954 466.821 737.514 466.292C737.888 465.763 747.032 490.973 757.669 522.353C768.306 553.556 777.451 579.824 778.197 580.529C778.944 581.234 784.915 578.942 791.447 575.416C881.21 527.289 990.942 499.082 1112.43 492.559C1131.84 491.501 1134.64 490.973 1133.7 488.505C1129.79 479.337 970.973 67.3433 951.192 15.3372L945.22 -0.000244141H741.247H537.46L535.407 4.75964ZM1283.19 648.93C1304.27 659.684 1321.07 669.027 1320.51 669.38C1318.64 671.319 1297.55 675.198 1289.53 675.198C1270.5 675.198 1255.94 666.559 1248.85 650.869C1245.3 642.584 1242.32 629.362 1244 629.362C1244.56 629.362 1262.28 638.176 1283.19 648.93Z" fill="#CE1126"/><path d="M1332.45 829.277C1171.59 882.517 1068.2 1009.09 1040.58 1186.44C1030.88 1248.85 1034.42 1327.83 1049.17 1380.37L1053.46 1395.35L1267.7 1395.88C1446.1 1396.23 1481.75 1395.88 1481.75 1393.94C1481.75 1392.53 1461.03 1338.06 1435.84 1272.65C1410.65 1207.25 1375.37 1115.4 1357.27 1068.33C1339.17 1021.26 1323.68 982.122 1322.94 981.241C1319.2 977.186 1291.58 999.751 1276.09 1019.5C1258.18 1042.41 1245.86 1065.51 1234.48 1098.12C1231.68 1105.88 1229.07 1112.4 1228.51 1112.4C1225.89 1112.4 1231.31 1058.63 1236.53 1031.48C1250.15 961.32 1291.4 885.338 1343.09 835.095C1349.81 828.572 1354.1 823.283 1352.79 823.283C1351.3 823.283 1342.16 825.927 1332.45 829.277Z" fill="#CE1126"/></svg>