<?xml version="1.0" encoding="utf-8"?>
<!-- Generator: Adobe Illustrator 24.0.1, SVG Export Plug-In . SVG Version: 6.00 Build 0)  -->
<svg version="1.1" id="Layer_1" xmlns="http://www.w3.org/2000/svg" xmlns:xlink="http://www.w3.org/1999/xlink" x="0px" y="0px"
	 viewBox="0 0 100 60" style="enable-background:new 0 0 100 60;" xml:space="preserve">
<style type="text/css">
	.st0{fill:#000066;}
	.st1{fill:#8FC5FF;stroke:#FFFFFF;stroke-width:0.5375;}
	.st2{fill:#366CC9;stroke:#000000;stroke-width:0.5375;}
	.st3{fill:#5D3100;stroke:#000000;stroke-width:5.000000e-02;}
	.st4{fill:#FFFF00;stroke:#FFFFFF;stroke-width:0.5375;}
	.st5{fill:#CF6200;}
	.st6{fill:#00B800;}
	.st7{fill:#5D3100;}
	.st8{fill:#00D860;}
	.st9{fill:#FFFF00;stroke:#000000;stroke-width:5.000000e-02;}
	.st10{fill:#FFFFFF;stroke:#000000;stroke-width:5.000000e-02;}
	.st11{stroke:#000000;stroke-width:5.000000e-02;}
	.st12{fill:none;stroke:#000000;stroke-width:5.000000e-02;}
	.st13{fill:#EF072D;stroke:#000000;stroke-width:5.000000e-02;}
	.st14{fill:#FFFF00;}
	.st15{fill:#FFFFFF;}
	.st16{fill:none;stroke:#000000;stroke-width:0.15;}
	.st17{fill:#012169;}
	.st18{fill:#C8102E;}
</style>
<path id="path1430" class="st0" d="M100,60V0H0v60H100z"/>
<g>
	<path id="path1438" class="st1" d="M86.6,25c0,8-1.3,16.6-11.6,20.7C64.7,41.5,63.4,32.9,63.4,25H86.6z"/>
	<path id="path1440" class="st2" d="M75,45.6c3.9-1.4,7.2-4.2,9.2-7.8h-1c-0.3,0-9.9-1-11.1-1.5c-1-0.3-4.8,0.3-6.5,1
		C67.5,41.2,70.9,44.1,75,45.6L75,45.6z"/>
	<path id="path1442" class="st3" d="M67.8,40.7h0.6c0.1,0,0.1,0,0.2-0.2c0-0.2,0.2-0.1,0.3,0c0.1,0,0.3,0,0.4-0.1
		c0.1-0.1,0.1-0.1,0.2,0c0.1,0.1,0.1,0,0.2,0c0,0,0.2-0.1,0.3-0.2c0-0.1,0.2-0.2,0.2-0.1c0,0.1,0.1,0.1,0.2,0.1c0.1,0,0.1,0,0.1,0.2
		c0,0.1,0,0.2,0.2,0c0.2,0.2,0.2,0.1,0.2-0.1c0-0.2,0-1-0.1-1c-0.1,0-0.2-0.4-0.2-0.6c0-0.5,0-0.5-0.5-0.8c0-0.1-0.1-0.2-0.5-0.2
		c0.1,0,0-0.2-0.1-0.2c-0.1,0-0.1-0.1,0-0.3c0.1,0,0.3,0,0.3-0.2c0.1-0.1,0.4-0.1,0.6,0c0.2,0.1,0.4,0.1,0.7,0l0.6-0.3
		c0.2-0.2,0.3-0.2,0.3-0.4c0-0.5-0.1-1-0.2-1.2c-0.1-0.2-0.1-0.5-0.3-0.9c-0.2-0.4-0.2-0.5-0.4-0.7c-0.1-0.1-0.2-0.2-0.2-0.3
		c0-0.2-0.1-0.4-0.2-0.5c-0.4-0.3-0.5-1.5-0.7-2.3c-0.1-0.5,0-1.6-0.2-1.8c-0.3-0.2-0.5-0.2-0.8-0.3c-0.2-0.2-0.2-0.7-0.4-1.1
		c-0.2,0-0.4,0.3-0.5,0.4c-0.2,0.1-0.2,0.1-0.2,0.4c0,0.2-0.2,0.5-0.3,0.9c-0.2,0.4-0.6,0.2-1,0.8c-0.7-0.8-0.7-1.1-0.7-1.3
		c0-0.2-0.2-0.3-0.5-0.6v-0.8c-0.3-0.2-0.5-0.2-0.7,0c-0.2,0.1-0.2,0.4-0.5,0.5c-0.1,0.2-0.5,0.6-0.8,1.1
		C63.8,32.8,64.8,37.2,67.8,40.7L67.8,40.7z"/>
	<path id="path1444" class="st4" d="M86.6,25c0-3-0.2-6-0.1-8.5c-3.7-1.4-7.6-2.1-11.5-2.1c-2.6,0-7.7,0.4-11.5,2.1
		c0.1,2.5-0.1,5.5-0.1,8.5L86.6,25z"/>
	<path id="path1446" class="st5" d="M64,28.4c0.1,0.2,0.4,0.5,0.4,0.8c0.1-0.2,0.2-0.3,0.2-0.4c0-0.1,0.2-0.3,0.1-0.5
		c0-0.1-0.1-0.2,0.1-0.1c0.1,0.1,0.1,0.2,0.1,0.5c-0.1,0.6-0.3,0.8-0.4,1.2c0.4,0.9,0.1,1.2,0.5,2.1c0.1,0,0.2,0,0.3,0
		c0.2-0.1,0.4-0.1,0.7,0c0.3,0.1,0.5,0.3,0.5,0.5s0,0.2,0.1,0.3c0.1,0.1,0.2,0.3,0.2,0.4c0,0.1,0,0.2,0.1,0.2c0,0.1,0,0.2,0,0.3
		c0,0.1,0,0.2,0.1,0.4s0.5,1,0.5,1.5c0,0.5,0,0.7,0.2,0.8c0.2,0.1,0.2,0.2,0.2,0.4c0,0.2,0.1,1.2,0.1,1.4c0,0.2,0.1,0.1,0.2,0.2
		c0.1,0.1,0.1,0.2,0.4,0.2c0.3,0,0.5,0,0.7,0c0.2,0.3,0.4,0.8,0.4,1c0.1,0.3,0,0.6,0.1,0.6c0.1,0,0.2,0,0.2-0.3
		c0-0.3-0.1-0.4-0.2-0.5c-0.1-0.2-0.2-0.2-0.1-0.3c0.1-0.1,0.1-0.2,0.1-0.4c0-0.1-0.1-0.3,0.2-0.1l0.3,0.4c0.1,0.1,0.1,0.2,0.1,0.4
		c0,0.2,0,0.2,0.1,0.1c0.1-0.1,0.2,0.1,0.1,0.2c0,0.2,0,0.3,0.2,0.3c0.2,0,0.2,0.1,0.2,0.2c0,0.1,0.2,0.2,0.2-0.1
		c0-0.3-0.1-0.6-0.2-0.9c-0.1-0.2-0.1-0.5-0.1-0.7c0-0.2-0.1-0.2-0.1-0.3c-0.1,0-0.2-0.1-0.2-0.2c0-0.1-0.1-0.1-0.1-0.1
		c-0.1,0-0.1,0-0.2-0.1c0-0.1-0.1-0.1-0.1-0.1c-0.1,0-0.2,0-0.2-0.1c0-0.1-0.1-0.2-0.1-0.3s-0.1-0.1-0.1-0.4c0-0.3,0-0.3-0.1-0.4
		s-0.2-0.4-0.3-0.5c-0.1-0.1-0.1-0.2-0.1,0c0,0.2,0,0.4,0.2,0.5c0.2,0.1,0.2,0.1,0.1,0.2c-0.1,0.1,0,0.2,0,0.3c0,0.1,0.1,0.2,0,0.2
		c-0.1,0.1-0.2,0.1-0.1-0.1c0-0.1,0-0.3-0.1-0.4c-0.1-0.1-0.1-0.2-0.2-0.1c-0.1,0-0.1,0-0.1-0.1c0.1,0,0-0.1,0-0.1
		c0,0-0.1-0.1,0-0.2s0.1-0.1,0-0.3s-0.3-1.1-0.4-1.3c-0.1-0.2-0.1-0.3,0-0.2c0.2,0.2,0.3,0.4,0.3,0.5c0,0.2,0,0.3,0.1,0.3
		c0.1,0.1,0.1,0,0.1-0.1c0-0.1,0.1-0.1,0-0.3c-0.2-0.3-0.5-0.7-0.7-1.5C68,32.7,68,32.2,67.9,32c-0.1-0.2-0.2-0.3-0.2-0.5
		c0-0.2,0-0.4-0.1-0.6s-0.2-0.2-0.2,0c0,0.2,0,0.8,0.1,0.8c0.1,0.1,0,0.3,0,0.4c0,0.1-0.2,0.3,0.2,0.5c0.2,0.1,0.1,0.2,0.1,0.3
		c0,0.1-0.1,0.1-0.2,0s-0.2-0.3-0.3-0.3s-0.1-0.1-0.1-0.3s0-0.3,0-0.4c-0.1,0-0.1,0-0.1,0.1c0,0.1,0,0.4-0.1,0.5
		c-0.1,0.1-0.1,0-0.1-0.1c-0.1-0.2,0-0.4,0.1-0.7c0.1-0.3,0.2-0.6,0.1-1c-0.1-0.4,0-0.5-0.3-0.8c-0.3-0.3-0.6-0.6-0.8-1
		c-0.2-0.4-0.2-0.8-0.3-0.9c-0.1-0.2-0.3-0.3-0.5-0.5V27c0-0.1-0.1-0.2-0.2-0.2s-0.3,0.2-0.4,0.4c-0.1,0.2-0.2,0.1-0.3,0.4
		S64,28.1,64,28.4L64,28.4z"/>
	<path id="path1448" class="st5" d="M64.9,32.1c0.1,0.1,0.2,0.1,0.4,0c0.1-0.1,0.3-0.3,0.5-0.1c0.2,0.2,0.3,0.5,0.3,0.8
		c0,0.3,0,0.8,0.3,1.1c0.3,0.3,0.5,0.6,0.5,1c0,0.4,0.1,0.8,0.2,1.1c0,0.2,0.1,0.3,0.2,0.4c0.1,0.1,0.2,0.4,0.2,0.7
		c0,0.3,0,0.5,0,0.7c0.1,0.2,0,0.3-0.1,0.2c-0.1-0.1-0.2-0.1-0.2-0.2s-0.1-0.1-0.1,0.1s0.2,0.4,0.4,0.4s0.2,0,0.3,0.1
		c0.1,0.1,0.1,0.2,0.3,0.2c0.2,0,0.2,0,0.4,0c0.2,0,0.2,0,0.2,0c0.1,0,0.2,0,0.2,0.2c0.1,0.2,0.2,0.6,0.2,0.8s0,0.2,0.1,0.4
		c0.1,0.1,0.1,0.2,0,0.2c-0.1-0.1-0.1-0.1-0.2,0c-0.1,0-0.1,0-0.2-0.1c-0.1,0,0,0-0.1-0.2c-0.1-0.2-0.2-0.2-0.2-0.1s0,0.2-0.1,0.2
		c-0.1-0.1-0.1-0.1-0.2,0c-0.1,0.1-0.1,0.1-0.2,0c-0.1-0.1-0.2-0.1-0.2-0.2c-0.1,0-0.1,0-0.1-0.1c0-0.1-0.2-0.2-0.2-0.2
		c-0.1,0-0.2,0-0.2-0.1c0-0.1-0.1-0.1-0.1-0.2c-0.1,0,0-0.1,0-0.2c0-0.1-0.1-0.1-0.1-0.1c-0.1,0-0.1,0-0.1-0.2
		c0-0.1-0.1-0.2-0.1-0.2c-0.1-0.1,0-0.2,0-0.3c0-0.1,0-0.2-0.1-0.2c-0.1-0.1,0-0.2-0.2-0.4c-0.2-0.2-0.3,0-0.4-0.4
		c0-0.5-0.1-1-0.3-1.4c-0.1-0.1-0.2-0.2-0.3-0.3s-0.2,0-0.2-0.2c0-0.2-0.1-0.5-0.2-0.7L65,34.3c-0.1,0-0.1-0.2,0-0.4
		c0.1-0.2,0.1-0.5,0-0.7c0-0.1,0-0.3,0-0.5c0-0.2,0-0.3,0-0.4C64.9,32.3,64.9,32.2,64.9,32.1L64.9,32.1z M68,28.5
		c-0.2,0.2-0.4,0.4-0.6,0.6c-0.2,0.2-0.5,0.3-0.4,0.6c0.2,0.3,0.3,0.3,0.3,0.5c0,0.2,0.1,0.4,0.2,0.5c0.2,0,0.2,0,0.2,0.4
		c0,0.3,0,0.5,0.2,0.6s0.1,0.3,0.2,0.6c0.1,0.3,0.1,1,0.3,1.5c0.2,0.5,0.7,1.4,0.6,1.5c-0.1,0.2-0.1,0.3,0.1,0.5
		c0.2,0.2,0.3,0.5,0.4,0.7c0,0.2,0,0.2,0.2,0.2c0.1,0,0.3-0.1,0.4-0.2c0.1-0.1,0.2-0.1,0.4,0c0.2,0.1,0.5,0.2,0.7,0.1
		c0.2-0.1,0.2-0.3,0.4-0.3c0.2-0.2,0.3-0.5,0.4-0.6c0-0.1,0-0.1-0.1-0.2c-0.1-0.1-0.1-0.3-0.1-0.4c0-0.2-0.1-0.4-0.3-0.8
		c-0.2-0.4-0.3-0.8-0.5-0.9c-0.1-0.1-0.2-0.4-0.2-0.5c0-0.1-0.2-0.2-0.3-0.3c-0.1-0.1-0.2-0.2-0.3-0.9c-0.1-0.6-0.2-1-0.2-1.1
		c0-0.1,0-0.1-0.1-0.1c-0.1,0-0.2-0.2-0.1-0.3c0-0.1-0.1-0.2-0.1-0.3c0-0.1,0-0.3,0.1-0.4c0.1-0.1,0.1-0.4,0-0.6
		c-0.1-0.2-0.1-0.4-0.4-0.5c-0.3,0-0.3-0.1-0.4-0.3c-0.1-0.2-0.2-0.6-0.2-0.7s-0.1-0.1-0.3,0.1c-0.2,0.2-0.3,0.2-0.3,0.5
		c0,0.2,0,0.3,0.1,0.4c0.1,0.1,0.1,0.2,0.1,0.5c0.1,0.3,0.3,0.8,0,1.1c-0.4,0.3-0.3,0.4-0.3,0.5c0,0.2-0.1,0.3-0.2,0.1
		c-0.1-0.3,0-0.5,0.2-0.6c0.2-0.1,0.4-0.3,0.2-0.5c-0.1-0.3-0.2-0.5-0.2-0.8C68.1,28.4,68.1,28.4,68,28.5L68,28.5z"/>
	<path id="path1450" class="st6" d="M65,32.8l0,0.4c0,0.1,0.1,0.4-0.1,0.7c-0.1,0.2-0.1,0.3,0,0.4h0c0.2-0.1,0.2-0.3,0.2-0.4
		c-0.1-0.1,0-0.3,0-0.4c0.1-0.1,0.1-0.2,0-0.3s-0.1-0.1,0-0.3C65.2,32.7,65.1,32.7,65,32.8L65,32.8z M67.1,36.1
		c0-0.2-0.2-0.8-0.2-1.1c0-0.4-0.2-0.7-0.5-1c-0.2-0.2-0.3-0.6-0.3-0.9c-0.2-0.1-0.2-0.1-0.2,0.2c0,0.2,0.2,0.3,0.2,0.7
		c0,0.3,0,0.2,0.1,0.4c0.1,0.2,0.2,0.3,0.1,0.4c-0.1,0.1-0.1,0.2,0,0.2c0.1,0,0.1,0.2,0.1,0.3c0,0.1,0.1,0.1,0.2,0.2
		c0.1,0.1,0.1,0.3,0,0.4c0,0.1-0.1,0.3,0.1,0.2c0.1-0.1,0.2,0,0.3,0.2c0.1,0.1,0.2,0.1,0.2,0.1C67.2,36.3,67.2,36.2,67.1,36.1
		L67.1,36.1z M68.8,39.1c-0.1,0.2-0.1,0.1-0.2,0c-0.1-0.1-0.2-0.1-0.1-0.2c0-0.1,0-0.2-0.1-0.2l0,0h-0.1c-0.2,0-0.2,0-0.3-0.2
		c0,0,0,0-0.1,0v0.1c0,0.1,0,0.1-0.1,0.2c-0.1,0-0.1-0.1-0.2-0.2c0,0,0-0.1,0-0.1c-0.2,0-0.3-0.2-0.4-0.4c-0.1-0.2,0-0.2,0.1-0.1
		c0.1,0.1,0.1,0.2,0.2,0.2c0.1,0.1,0.2-0.1,0.1-0.2c0-0.1,0-0.1,0-0.2c0-0.1-0.1-0.1-0.1-0.1c-0.2-0.1-0.2-0.1-0.2-0.3
		c0-0.2,0-0.2-0.2-0.1C67,37.4,67,37.3,67,37c0-0.2-0.2-0.2-0.2-0.1c0,0.2-0.1,0.1-0.2-0.2s-0.2-0.3-0.2-0.1c0,0.2-0.1,0.2-0.2,0.2
		l0.1,0.4c0.1,0.4,0.2,0.2,0.4,0.4c0.2,0.2,0.1,0.3,0.2,0.4c0.1,0.1,0.1,0.2,0.1,0.2c0,0.1-0.1,0.2,0,0.3c0,0.1,0.1,0.1,0.1,0.3
		c0,0.1,0,0.1,0.1,0.2h0.1l0.1-0.1c0.2-0.2,0.4,0,0.5,0.2c0.1,0.2,0.2,0.2,0.3,0.1c0.1-0.2,0.1-0.1,0.2,0c0.1,0.2,0.2,0.1,0.2,0.1
		s0.1,0,0.2,0c0.1,0.1,0.1,0.1,0.3-0.2C69.1,38.9,68.9,38.9,68.8,39.1L68.8,39.1z M69.2,32.1c0-0.4,0-0.7,0.2-0.9
		c0.2-0.1,0.3-0.4,0.3,0.2c0,0.6-0.1,0.5-0.2,0.7c-0.1,0.1-0.2,0.2-0.1,0.4c0.1,0.2,0.2,0.2,0.1,0.6c0,0.3,0,0.5,0.1,0.7
		c0.1,0.2,0.2,0.2,0.2,0.4c0,0.2,0.1,0.4,0.3,0.6c0.2,0.2,0.3,0.5,0.3,0.8c0,0.3,0.2,0.3,0.5,0.5c0.2,0.2,0,0.3-0.2,0.2
		c-0.2-0.1-0.1,0-0.2,0.1c-0.1,0.1-0.1,0.1-0.2-0.1c-0.1-0.2-0.4-0.3-0.5-0.4c-0.1,0-0.2-0.3-0.4-0.5c-0.1-0.2-0.3-0.3-0.5-0.3
		c0.1,0.1,0.1,0.2,0.1,0.3c0,0.2-0.1,0.3,0.1,0.5c0.2,0.2,0.3,0.5,0.4,0.7c0,0.2,0,0.2,0.2,0.2c0.1,0,0.3-0.1,0.4-0.2
		c0.1-0.1,0.2-0.1,0.4,0c0.2,0.1,0.5,0.2,0.7,0.1c0.2-0.1,0.2-0.2,0.4-0.2c0.2-0.2,0.3-0.5,0.4-0.6c0.1-0.1,0-0.1-0.1-0.2
		c-0.1-0.1,0-0.3-0.1-0.4c0-0.2-0.1-0.4-0.3-0.8c-0.2-0.4-0.3-0.8-0.5-0.9c-0.1-0.1-0.2-0.4-0.2-0.5c0-0.1-0.2-0.2-0.3-0.4
		c-0.1-0.1-0.2-0.2-0.3-0.8c-0.1-0.5-0.2-0.8-0.2-1c-0.1,0.2-0.2,0.2-0.2,0.1c-0.1-0.1-0.1-0.2-0.2-0.1c-0.1,0.1-0.1-0.1-0.1-0.2
		s0-0.1-0.1-0.1c-0.1,0,0-0.1,0-0.4c0-0.2-0.1-0.3-0.1,0c0,0.3-0.2,0.5-0.1,0.5c0.1,0.1,0,0.2,0,0.4c-0.1,0.1-0.1,0.3,0,0.5
		c0,0.1,0,0.4-0.1,0.6C69,32.3,69.2,32.5,69.2,32.1L69.2,32.1z M66.1,29.1c-0.1,0-0.2,0.1-0.1,0.5c0.1,0.2-0.1,0.2-0.2,0.1
		c-0.1-0.1-0.1-0.4-0.2-0.6c-0.1-0.2-0.1,0.1-0.1,0.4c0,0.2,0.1,0.2,0.2,0.4c0.1,0.2,0,0.2-0.1,0.2s-0.1,0.3-0.1,0.5
		c0,0.2,0,0.2-0.1,0.1c-0.1-0.2,0-0.4,0-0.7c0-0.3,0-0.2-0.2-0.3c-0.2-0.1-0.2-0.1-0.1-0.3c0.1-0.2,0.1-0.2,0-0.3
		c-0.1-0.1-0.1-0.1,0.1-0.1c0.1,0,0.1-0.1,0.2-0.1c0.1,0,0.2,0,0.2-0.2c0-0.2,0.1-0.3,0.2-0.2C66,28.5,66.1,29,66.1,29.1L66.1,29.1z
		 M67.9,31.1c0,0.4,0,0.5,0.2,0.6s0.1,0.3,0.2,0.6c0.1,0.3,0.1,1,0.3,1.5l0.2,0.5c0.1-0.1,0.2-0.2,0.2-0.3c0-0.1-0.1-0.3-0.2-0.5
		c-0.1-0.2,0-0.3,0.1-0.5c0.1-0.2,0-0.2-0.2-0.3c-0.2-0.1-0.2-0.2-0.3-0.5c-0.1-0.3-0.1-0.4,0-0.5c0.1-0.1,0-0.3-0.1-0.3
		c-0.1,0-0.1-0.1,0-0.3c0-0.2,0.1-0.2-0.1-0.2c-0.2,0-0.2,0.1-0.2,0.1L67.9,31.1z"/>
	<path id="path1452" class="st7" d="M69.8,31.8c0,0.2,0,0.3-0.1,0.4c0,0.1,0,0.2,0,0.3c0.1,0.1,0.1,0.2,0,0.4c0,0.2,0,0.3,0.1,0.4
		s0.2,0,0.1,0.2c0,0.2,0.1,0.4,0.2,0.6c0.1,0.1,0.2,0.3,0.2,0.4c0,0.1,0.1,0.2,0.2,0.2c0.1,0,0.1,0.1,0.1,0.1s0.1,0.1,0.2,0.1
		s0.2,0.1,0.4,0.3c0.2,0.2,0.4,0.3,0.3,0.1c0-0.2,0-0.3-0.2-0.4c-0.2-0.1-0.4-0.6-0.4-0.9c-0.1-0.3-0.3-0.6-0.5-0.9
		c0-0.2,0-0.4-0.2-0.5c-0.1-0.1-0.2-0.2-0.2-0.4c0-0.1-0.1-0.2-0.2-0.3c-0.1,0-0.1-0.1-0.1-0.2C69.9,31.6,69.8,31.6,69.8,31.8
		L69.8,31.8z"/>
	<path id="path1454" class="st8" d="M68.9,40.9c0.4-0.1,0.8-0.2,1.2-0.3c0.2,0.1,0.6,0.3,0.7,0.3c-0.3,0.1-0.5,0-0.5,0
		c0,0.1,0.1,0.2,0.2,0.2c-0.3,0-0.6-0.1-0.7-0.2C69.5,41,69.1,41,68.9,40.9L68.9,40.9z M69.4,41.2c0.1,0,0.7,0.1,0.7,0.1
		c-0.2,0.2,0,0.3,0.3,0.3c-0.1,0-0.3,0.1-0.2,0.1c0.4,0,0.8-0.1,1.1-0.2C71.1,41.8,69.9,42.1,69.4,41.2z M69.9,42
		c0.2-0.1,0.5,0,0.7,0C70.4,42.1,70,42.1,69.9,42L69.9,42z"/>
	<path id="path1456" d="M70.5,42c0.2,0,1,0.1,1.2,0c-0.1,0.2-0.5,0.3-0.7,0.2c-0.2,0-0.3-0.1-0.4-0.1C70.7,42.1,70.6,42.1,70.5,42
		L70.5,42z"/>
	<path id="path1458" class="st8" d="M70.7,42.4c0.4,0,0.8,0,1.1-0.1c0.2,0.1,0.7,0.2,0.8,0.2c-0.2,0.1-0.6,0-0.8,0
		C71.5,42.6,71.1,42.6,70.7,42.4z"/>
	<path id="path1460" class="st8" d="M71.1,42.5c0.3,0.1,0.5,0,0.8-0.1c0.1,0,0.3,0.1,0.5,0.1c0.1,0.1,0.3,0.2,0.5,0.2
		c-0.3,0-0.6,0-0.9-0.1c-0.3,0-0.7,0.1-1,0.2C70.9,42.7,71,42.6,71.1,42.5L71.1,42.5z"/>
	<path id="path1462" d="M70.7,41.1c0.2,0.1,1,0,1.4-0.2c0.2-0.1,0.3,0,0.1,0.1C71.6,41.3,71.1,41.3,70.7,41.1
		C70.5,41.1,70.5,41,70.7,41.1L70.7,41.1z"/>
	<path id="path1464" class="st8" d="M74.6,40c-1,0.5-1.6,0.6-3,0.2c-0.1,0-0.2,0-0.1,0.1c0.3,0.1,0.7,0.3,1.1,0.3
		c0.2,0,0.1,0.1,0,0.1c-0.1,0-0.1,0.1,0,0c0.1-0.1,1-0.1,1.3,0.1c0.1,0.1,0.2,0.1,0.2,0c0,0,0.1-0.1,0.2-0.1c0.1,0,0.2,0,0.1-0.1
		c-0.1,0-0.1-0.1,0-0.1c0.1,0,0.1-0.1,0-0.1c-0.1,0-0.2,0-0.1-0.1c0.1,0,0.2-0.1,0.3-0.1C74.6,40.2,74.6,40,74.6,40L74.6,40z"/>
	<path id="path1466" d="M73,40.1c0.8,0,1.5-0.3,2.1-0.8c0.2,0.1,0.5,0.2,0.6,0.3c0.1,0,0.2,0.2,0,0.2s-0.5-0.1-0.7-0.2
		C74.5,40,73.8,40.2,73,40.1C72.9,40.2,72.8,40.1,73,40.1L73,40.1z"/>
	<path id="path1468" class="st8" d="M71.4,37c0.2,0.1,0.5,0.4,1,0.3c0.2,0.2,0.5,0.3,0.7,0.4c-0.3,0.1-0.6,0.2-0.7,0.3
		c-0.1-0.1-0.3-0.1-0.3-0.2c-0.1,0.1-0.1,0.2,0,0.2c0.3,0.1,0.6,0.1,0.9,0.1c0.2,0,0.2,0.1,0.1,0.1c-0.3,0.1-1,0-1.2-0.4
		c-0.2-0.4-0.4-0.5-1.1-0.2c-0.1-0.2-0.1-0.2-0.2-0.2s-0.3-0.2-0.2-0.2C70.4,37.4,70.9,37.3,71.4,37L71.4,37z"/>
	<path id="path1470" class="st8" d="M71.5,37.9c-0.1,0-0.4,0.2-0.5,0.2c-0.1,0-0.3,0.2-0.1,0.2c0.2,0,0.5-0.2,0.6-0.2
		S71.6,37.8,71.5,37.9L71.5,37.9z M72.1,38.5c-0.1,0-0.4,0.1-0.5,0.1s-0.2,0-0.2,0.1c0,0.1,0,0.1-0.1,0.1c-0.1,0-0.2,0-0.3,0.1
		c0,0-0.1,0.1,0.1,0.1c0.1,0,0.2,0,0.4,0c0.2-0.1,0.3-0.2,0.5-0.2C72.1,38.7,72.3,38.5,72.1,38.5L72.1,38.5z"/>
	<path id="path1472" d="M71.7,38.9c0.1,0.1,0.8,0.3,1.1,0.3c0.2,0,0.2,0.1,0,0.1c-0.4,0.1-0.9-0.1-1.2-0.3
		C71.4,38.9,71.6,38.8,71.7,38.9L71.7,38.9z"/>
	<path id="path1474" class="st8" d="M74.9,39.2c-0.4,0.1-0.9,0.1-1.3,0c-0.2-0.1-0.4-0.1-0.2,0.1c0.1,0.1,0.6,0.2,0.9,0.2
		c-0.9,0.2-1.2,0.2-1.4,0.2c-0.3,0-0.6,0-0.9,0c-0.1,0-0.3,0-0.4,0c-0.1-0.1-0.1-0.1,0.1-0.1c0.2,0,0.3,0,0.1-0.1
		c-0.2,0-0.5,0-0.2,0.2c0.3,0.2,0.9,0,1.3,0.1C73.6,40,74.4,39.8,74.9,39.2C75,39.3,75.1,39.2,74.9,39.2L74.9,39.2z M72.3,38.5
		c0,0.1,0,0.1,0,0.2s0,0.1,0.1,0c0.1-0.1,0.1-0.2,0.2-0.1c0.1,0,0.3,0,0.4,0c0.1,0,0.1,0,0-0.1c-0.1,0-0.2-0.1-0.4-0.1
		C72.6,38.5,72.5,38.5,72.3,38.5C72.3,38.4,72.3,38.4,72.3,38.5z"/>
	<path id="path1476" class="st8" d="M73.7,38.7c-0.1,0-0.3-0.1-0.4-0.1c-0.1,0-0.2,0-0.2,0.1c0.1,0.2,0.6,0.2,0.8,0.2
		c0.2-0.1,0.1-0.2,0.2,0c0.2,0.1,0.3,0.2,0.5,0.2s0.2,0,0-0.1s-0.2-0.1-0.2-0.2c0-0.1,0-0.1,0.1-0.1c0.1,0,0.2,0.1,0.3,0
		s0.3-0.2,0.4-0.2l0-0.1c-0.2,0-0.4,0.1-0.4,0.1c0,0-0.2,0-0.3,0s-0.3,0-0.3-0.1c-0.1,0,0-0.1,0.1-0.1c0.1,0,0.1-0.1,0-0.1
		c-0.1,0-0.5,0-0.7,0c-0.2-0.1-0.3-0.1-0.3,0c-0.1,0-0.1,0.1,0,0.1c0.1,0,0.4,0,0.5,0.1c0.1,0.1,0.1,0.1,0,0
		C73.7,38.5,73.5,38.6,73.7,38.7L73.7,38.7z"/>
	<path id="path1478" class="st8" d="M75.4,38.5L75.4,38.5c0.2,0.1,0.8,0.1,1,0.3c0.2-0.1,0.1-0.2,0.2-0.2c0.1,0,0.3,0.1,0.4,0
		c0.1,0,0.1,0,0.2,0c0.1,0,0.2,0,0.3-0.1c0.1-0.1,0.3-0.1,0.4-0.1c0.1,0,0.2,0,0-0.1c-0.2,0-0.5,0-0.6,0.1c-0.1,0-0.4,0.1-0.6,0.1
		s-0.4,0.1-0.7,0C75.8,38.4,75.5,38.5,75.4,38.5L75.4,38.5z"/>
	<path id="path1480" d="M78.3,38.4c-0.4,0.3-0.8,0.3-1.4,0.4c-0.2,0-0.1,0,0,0.1C77.5,38.9,78.2,38.7,78.3,38.4
		C78.5,38.4,78.4,38.3,78.3,38.4L78.3,38.4z"/>
	<path id="path1482" class="st8" d="M75.7,39c0.3,0,0.6,0.1,0.9,0.2c0.2,0,0.2,0,0.2-0.1c0,0-0.1-0.1,0.2-0.1h0.9
		c0.1,0,0.3-0.2,0.4-0.2c-0.2,0-1.2,0-1.3,0c-0.1,0-0.2,0-0.3,0c-0.1,0-0.1,0.1-0.2,0c-0.1,0-0.3-0.1-0.4,0C76.1,39,75.9,39,75.7,39
		L75.7,39z"/>
	<path id="path1484" class="st8" d="M77.9,39c0.1,0,0.3-0.2,0.4-0.2c0.2,0,0.3,0,0.4,0.1c0.1,0,0.2,0,0.1-0.1
		c-0.1-0.1,0-0.2,0.2-0.2c0.3,0,0.4,0.1,0.7,0s0.4,0.2,0.8,0c0,0.2,0.1,0.2,0.2,0.2c0.1,0,0.2,0,0.3,0.1c0.2,0.1,1.1,0.1,1.3,0.1
		c0.2,0,0.3,0.1,0.2,0.1s-0.2,0.1-0.2,0.2c0,0,0.1,0.1-0.1,0.1c-0.2,0-0.2,0-0.3,0.1c-0.1,0.1-0.1,0.1-0.4,0.1c-0.3,0-0.3,0-0.5,0
		c-0.2,0-0.2,0-0.3,0c-0.2-0.1-0.5-0.1-0.7,0c-0.2,0.1-0.3,0.1-0.5,0.1c-0.2,0-0.2,0-0.1-0.1c0.1-0.1,0.1-0.1,0.3-0.1
		c0.2,0,0.4-0.1,0.2-0.2c-0.2-0.1-0.2-0.1-0.4,0c-0.2,0.1-0.3,0.2-0.5,0c-0.2-0.1-0.3-0.1-0.5-0.1C78.4,39.2,78.1,39.1,77.9,39
		L77.9,39z M78.7,39.4c-0.3,0-0.4-0.1-0.7-0.1c-0.1,0-0.3,0.2,0,0.1c0.2,0,0.5,0.1,0.7,0.1S78.8,39.4,78.7,39.4L78.7,39.4z
		 M78.4,39.6c0.1,0,0.4,0.1,0.6,0c0.1,0,0.2,0,0.1,0.1C78.9,39.8,78.6,39.7,78.4,39.6C78.3,39.8,78.1,39.7,78.4,39.6L78.4,39.6z
		 M75.3,40.5c0.2,0,1,0,1.3-0.7c0,0,0-0.1,0.1,0c0.1,0.1,0.5,0.3,1.1,0.3c0.2,0,0.4,0.1,0,0.1c-0.4,0-1-0.1-1.1-0.2
		C76.4,40.5,75.8,40.6,75.3,40.5C75.1,40.5,75.1,40.5,75.3,40.5L75.3,40.5z"/>
	<path id="path1486" class="st8" d="M77,39.6c-0.1,0.1-0.5,0.4-0.6,0.4c-0.2,0-0.7,0-0.8-0.1c-0.1,0-0.3,0-0.1,0.1
		c0.2,0.1,0.5,0.2,0.8,0.2c0.2,0,0.4-0.1,0.5,0c0.1,0.1,0.4,0.2,0.5,0.2c0.2,0,0.4,0,0.5,0c0.1,0,0.3,0.2,0,0.1
		c-0.2-0.1-0.5,0-0.6-0.1c0.1,0.2,0.4,0.5,0.7,0.5c0.1,0,0.1,0.1,0,0.2c0.1,0,0.4,0.1,0.5,0c-0.1,0.1,0,0.1,0,0.1
		c0.1,0,0.1,0.1,0,0.1c-0.1,0-0.4,0-0.5,0c0.2,0.2,0.9,0.4,1.5,0.3c0.1,0,0.2-0.1,0-0.1c-0.4,0-0.5,0-0.5,0c-0.1,0-0.1-0.1,0.1-0.1
		c0.2,0,0.4-0.1,0.5-0.1c0.1,0,0.3,0,0,0c-0.2,0-0.6,0-0.7,0c-0.1,0-0.2-0.1-0.1-0.2c0.1-0.1,0.3-0.1,0.3-0.1
		c-0.4,0-0.9-0.2-0.7-0.5c0.1,0,0.1,0,0-0.1c-0.2,0-0.4-0.1-0.6-0.2C77.8,40,77.9,40,78,39.9C77.8,40,77.3,39.8,77,39.6L77,39.6z
		 M80.7,39.6c-0.2,0.2-0.7,0.2-0.8,0.2c-0.2,0-0.2,0-0.1,0.1s0.3,0,0.4,0s0.1,0,0.2,0c0.2,0.1,0.3,0.1,0.5,0c0.2,0,0.5-0.1,0.6-0.1
		c0.1,0,0.2,0,0,0c-0.2-0.1-0.6,0-0.7,0c-0.1,0-0.3,0-0.2,0c0.1,0,0.2-0.1,0.3-0.2L80.7,39.6L80.7,39.6z M80.6,40.1
		c-0.2,0.2-0.5,0.3-0.8,0.3c0.2,0.1,0.5,0.4,0.7,0.3c-0.1,0.1-0.2,0.1-0.3,0.2c0.2,0,0.5,0,0.7-0.1c0.4,0.1,0.9,0,1-0.1
		c-0.2,0-0.5-0.1-0.7-0.2c0.1,0,0.2-0.1,0.3-0.1C81.2,40.3,80.7,40.2,80.6,40.1L80.6,40.1z"/>
	<path id="path1488" class="st8" d="M80.2,40.9c0.1,0,0.2-0.1,0.3-0.1c-0.5,0-1-0.1-1.4-0.3c-0.3-0.2-0.3,0-0.1,0.1
		C79.3,40.8,79.7,41,80.2,40.9L80.2,40.9z M80.8,41.5c-0.1,0.1-0.7,0.1-0.8,0.1c-0.2,0-0.2,0-0.2,0.1c0,0.1,0.1,0.1-0.1,0.1
		c-0.2,0-0.3,0-0.5,0.1c-0.1,0-0.2,0.1,0,0.1c0.2,0,0.4-0.1,0.6,0c0.2,0,0.8,0,0.9,0c0.1,0,0.1,0,0,0c-0.1,0-0.1,0,0-0.1
		C80.8,41.6,80.8,41.6,80.8,41.5z M75.5,40.7c-0.4,0.1-0.8,0.2-1.2,0.3c-0.2,0.1-0.5,0.2-0.6,0.2c0.1,0.1,0.4,0.2,0.6,0.1
		c-0.1,0.1-0.2,0.2-0.3,0.2c0.2,0,0.4,0,0.6,0c-0.3,0.1-0.5,0.2-0.8,0.2c0.1,0.1,0.2,0.2,0.3,0.2c-0.2,0.1-0.5,0.1-0.7,0
		c0.1,0.1,0.1,0.2,0.2,0.2c-0.2,0-0.5,0-0.7-0.1c0.2,0.2,0.5,0.3,1.1,0.2c0.5-0.1,1-0.3,1.1-0.4c-0.2,0-0.5,0-0.7,0
		c0.4-0.1,0.7-0.3,1.1-0.5c-0.1,0-0.2,0-0.3-0.1c0.3,0,0.7,0,1-0.1c-0.2,0-0.3-0.1-0.4-0.3c0.7,0.2,1.4,0.2,2.1,0.1
		c0.1,0,0.1-0.2-0.1-0.1c-0.3,0-1-0.1-1.2-0.2c0.1,0.1,0.3,0.2,0.5,0.2C76.7,41,76.2,41.1,75.5,40.7L75.5,40.7z"/>
	<path id="path1490" class="st8" d="M74,41.5c0.1,0,0.2-0.1,0.3-0.2c-0.1,0-0.5,0-0.6-0.1c0.1,0,0.3,0,0.6-0.2c-0.4,0-0.8,0-0.9-0.1
		c-0.2-0.1-0.5,0-0.6,0c-0.1,0-0.1,0.2,0.4,0.2c-0.3,0.1-0.6,0.2-0.9,0.1c0,0.2,0.1,0.3,0,0.4c0.3,0.2,1,0.3,1.3,0.3
		c-0.3-0.1-0.5-0.2-0.2-0.3C73.7,41.6,73.8,41.6,74,41.5L74,41.5z"/>
	<path id="path1492" d="M73.2,42.4c0.6,0,1.4-0.1,2.1-0.6c0.2-0.1,0.3-0.1,0.1,0.1c-0.6,0.4-1.3,0.7-2,0.8
		C73.1,42.6,72.9,42.4,73.2,42.4L73.2,42.4z"/>
	<path id="path1494" class="st8" d="M77.8,41.4c-0.2,0.1-0.5,0.1-0.7,0.1c-0.1,0-0.3,0-0.4,0c-0.1,0.1-0.1,0.1,0,0.1l0.4,0
		c-0.1,0-0.2,0.1-0.2,0.2c0.2,0,0.6,0,0.7,0.1c-0.1,0-0.2,0-0.2,0c0.3,0.4,1.4,0.4,1.5,0.3c-0.1,0.1-0.2,0.1-0.2,0.1
		c0.3,0.1,0.6,0,0.9-0.1l-0.5,0c0.1-0.1,0.2-0.1,0.2-0.2c-0.1,0-0.5,0-0.6,0c0-0.1,0.1-0.2,0.2-0.2c-0.5,0-1.1,0-1.3-0.1
		c0.3,0,0.7-0.2,0.9-0.2C78.2,41.5,77.9,41.5,77.8,41.4L77.8,41.4z M76.5,41.6c-0.2,0.1-0.6,0.2-0.7,0.2c-0.1,0.1-0.2,0.1,0,0.1
		c0,0,0,0,0.1,0c-0.1,0-0.2,0,0-0.1C76,41.8,76.2,41.7,76.5,41.6L76.5,41.6z M76,42.2c0.1,0,0.5,0,0.6-0.1c0.2,0.1,0.5,0.3,0.7,0.3
		c0.2,0,0.2,0,0,0.1c-0.2,0-0.5-0.1-0.7-0.2C76.4,42.3,76.2,42.3,76,42.2L76,42.2z M73.1,44c0.4,0.2,0.9,0.2,1.3,0.1
		c0.2,0.2,0.7,0.2,0.9,0.2c0.2,0,0.5-0.1,0.7,0c0.2,0.1,0.8,0.1,1,0.2l-0.5,0c-0.1,0,0,0.1,0.1,0.1c-0.5,0-1,0.1-1.4,0.4
		c0.1-0.3,0.4-0.5,0.8-0.5c-0.2-0.1-1-0.1-1.2,0.1c-0.1-0.1-0.1-0.2-0.2-0.2C74.1,44.5,73.4,44.2,73.1,44L73.1,44z M72.1,43.2
		c0.3,0,0.6-0.1,0.9-0.3c0.1,0.1,0.4,0.2,0.8,0c-0.1,0-0.1,0.2-0.1,0.2c-0.3,0-0.6,0.1-0.9,0.2c-0.2,0.1-0.6,0.1-0.8,0
		C71.9,43.3,71.9,43.2,72.1,43.2L72.1,43.2z"/>
	<path id="path1496" class="st8" d="M73.7,43.1c-0.3,0-0.6,0.1-0.9,0.2l0.1,0.2c0.6-0.2,1.3-0.2,1.9-0.2c-0.2,0-0.6,0.2-0.8,0.2
		c0.5,0,1,0.1,1.1,0.1c0.1,0,0.2,0.1,0.1,0.2C75.1,44,75.1,44,75.3,44c0.2,0,0.6,0,0.8-0.2c-0.1-0.1-0.3,0-0.3-0.1
		c0.1,0,0.2-0.1,0.3-0.2c-0.2,0-0.4,0-0.6,0c-0.1,0-0.2-0.1,0-0.1c0.1,0,0.2-0.1,0.2-0.2c-0.2,0.1-0.6,0.1-1-0.1c0.1,0,0.4,0,0.5,0
		c-0.1-0.1-0.2-0.1-0.3-0.1c0.2-0.1,0.8-0.2,1.4,0c0.3,0,0.6,0,0.9,0c0.1-0.1,0.3-0.3,0.4-0.4c-0.8,0-2.1-0.1-2.1-0.5
		c-0.2,0.3-0.8,0.5-1.1,0.5c0,0.1,0.1,0.2,0.2,0.3c-0.2,0-0.7,0.1-0.9,0c0.1,0.1,0.3,0.2,0.4,0.2C74.1,43.1,73.9,43.2,73.7,43.1
		L73.7,43.1z"/>
	<path id="path1498" class="st8" d="M75.3,44c0.2,0,0.6,0,0.8-0.2c-0.1-0.1-0.3,0-0.3-0.1c0.1,0,0.2-0.1,0.3-0.2c0.5,0,1,0,1.2-0.1
		c0.2-0.1,0.8,0,0.9-0.1c-0.5,0.1-0.6,0.1-0.6,0.2c0,0.1,0.2,0.1,0.3,0.1c-0.2,0-0.5,0.2-0.5,0.3c-0.3-0.2-0.4,0-0.5,0.1
		c-0.1,0-0.6,0-0.8,0.2c-0.3-0.1-0.5-0.1-0.8-0.1C75.6,44.2,75.5,44,75.3,44L75.3,44z M77.7,42.5c0.2,0,0.6,0,0.7,0
		c-0.1,0-0.2,0.1-0.2,0.2c0.4,0,1-0.1,1.2,0c-0.2,0-0.4,0.1-0.6,0.2c-0.1,0.1,0,0.1,0.1,0.1c0.2,0,0.3,0.1,0.1,0.1
		c-0.2,0-0.8,0-0.9,0c-0.1,0-0.2,0,0-0.1c0.1,0,0.3-0.1,0.4-0.1c-0.2,0-0.4,0-0.5,0s-0.1-0.1,0-0.1c0.1,0,0,0-0.1,0
		c-0.1,0-0.4,0.1-0.5,0.3C77.5,42.8,77.6,42.6,77.7,42.5L77.7,42.5z"/>
	<path id="path1500" d="M75.8,42.8c0.2,0.2,0.5,0.4,0.8,0.4c0.1,0,0.2,0.1,0,0.1c-0.5,0-0.8-0.1-1-0.5
		C75.6,42.8,75.7,42.7,75.8,42.8z M79,38.4c0.3,0.1,0.8,0.2,1.3,0.2c0.1,0,0.2,0.1,0,0.1C79.8,38.8,79.4,38.7,79,38.4
		C78.8,38.4,78.9,38.3,79,38.4z"/>
	<path id="path1502" class="st8" d="M79.3,38.4c0.4,0,0.8,0,0.9,0.1c0.2-0.1,0.7-0.1,0.8-0.1c0.1,0,0.2,0,0-0.1
		c-0.2,0-0.8-0.1-0.9,0c-0.2,0-0.7,0-0.9,0C79.2,38.3,79.2,38.3,79.3,38.4L79.3,38.4z M80.9,38.5c0.2-0.1,0.8,0,1-0.1
		c-0.1,0.2,0.4,0.2,0.9,0c-0.2,0.1-0.6,0.1-0.7,0.2s-0.2,0-0.4,0C81.4,38.6,81.2,38.5,80.9,38.5L80.9,38.5z"/>
	<path id="path1504" class="st8" d="M82.8,38.5c-0.5,0.1-1,0.1-0.9,0c-0.2,0.1-0.8,0-1,0.1c0.2-0.1,0.4,0,0.5-0.3
		c0.1,0,0.3,0,0.4-0.1c0.1,0,0.4,0.1,0.4,0.2c0.1,0.1,0.2,0,0.1-0.1c0.2-0.1,0.1,0.1,0.6,0c0.1,0,0.3-0.1,0.4-0.1
		C83.2,38.3,83,38.4,82.8,38.5L82.8,38.5z"/>
	<path id="path1506" class="st9" d="M73.8,36.4l-0.1-10.9c0-0.5-0.2-0.4-0.2,0v10.7L73.8,36.4z M77.3,25l0.4,11.4l0,0.1h-0.2
		L77.1,25L77.3,25z M80.6,34.6l-0.2-9.3c0-0.3-0.2-0.2-0.2,0l0.2,9.2H80.6z"/>
	<path id="path1508" class="st10" d="M75.3,26.9l-3.4,0c-0.2,0.7,0.7,0.6,1,0.5c0.4,0.2,0.7,0.2,0.9,0c0.3,0.2,0.7,0.2,0.8,0
		C75,27.6,75.4,27.3,75.3,26.9L75.3,26.9z M75.6,28.5h-3.4c-0.6,0.6,0.2,0.9,0.8,0.5c0.1,0.2,0.5,0.3,0.8,0.1c0.3,0.2,0.7,0,0.9-0.1
		C75,29.2,75.4,29.2,75.6,28.5L75.6,28.5z M75.5,30.7h-3.3c0,0.5,0.6,0.5,0.9,0.3c0.2,0.4,0.8,0.3,1,0c0.3,0.2,0.6,0.2,0.8,0
		C75.2,31.4,75.5,31,75.5,30.7L75.5,30.7z M75.7,32.9l-3.8,0c-0.2,0.6,0.4,0.7,0.6,0.6c0.1,0.3,0.6,0.2,0.8,0c0.2,0.2,0.4,0,0.5-0.1
		c0,0.3,0.5,0.4,0.8,0.1C75.4,33.9,76,33.3,75.7,32.9L75.7,32.9z M79,32h-3.1c0.1,0.6,0.4,0.7,0.9,0.4c0.4,0.4,1,0.2,1.1,0.1
		C78.6,33,79,32.3,79,32L79,32z M78.7,29.9l-3-0.1c0,0.8,0.8,0.7,1.2,0.4c0.2,0.3,0.7,0.2,1,0C78.1,30.6,78.8,30.3,78.7,29.9
		L78.7,29.9z M79.1,27.5h-3.2c0,0.5,0.7,0.8,1.3,0.3c0.2,0.6,0.7,0.4,1,0.2C78.4,28.5,79.3,27.9,79.1,27.5L79.1,27.5z M78.9,25.8
		l-2.9,0.1c0,0.5,0.7,0.7,0.9,0.3c0.2,0.2,0.6,0.2,0.8,0c0.2,0.4,0.5,0.1,0.6,0C78.6,26.4,78.9,26.3,78.9,25.8L78.9,25.8z
		 M82.2,26.9l-3.5,0c0,0.3,0.3,0.5,0.6,0.3c0,0.4,0.5,0.5,0.8,0.2c0.2,0.3,0.8,0.4,1.1,0C81.7,27.8,82.3,27.5,82.2,26.9L82.2,26.9z
		 M82.2,29.8h-3.4c0,0.5,0.5,0.6,0.9,0.4c0.1,0.4,0.5,0.4,0.8,0.2c0.3,0.3,0.8,0.4,1.1,0C81.9,30.5,82.2,30.2,82.2,29.8L82.2,29.8z
		 M82,32.4h-2.7c0,0.5,0.6,0.5,0.8,0.2c0.3,0.3,0.7,0.3,0.9,0.1C81.4,33,81.9,32.9,82,32.4z"/>
	<path id="path1510" class="st11" d="M77.6,36.5c-1.5,0-3,0-4-0.1c-1-0.1-1.3-0.3-2-0.7L68.8,34c-0.2-0.1-0.5,0-0.1,0.2l2.7,1.8
		c0.6,0.4,1.2,0.9,1.7,1.5c0.6,0.6,1,0.6,1.3,0.5c0.3-0.1,0.7-0.2,1.1-0.1c0.4,0.1,1,0.1,1.3,0.1c0.2,0.2,0.9,0.2,1.2,0.1
		c0.3-0.1,0.6-0.1,0.8,0h0.8c0.2,0,0.9-0.1,1.3-0.1c0.5,0.1,0.9,0,1.2,0c0.3-0.1,0.6-0.1,1,0c0.3-0.2,0.4-0.5,0.5-0.7
		c0.3,0,0.4-0.1,0.4-0.2l0.3-0.8h0.1v-0.3l-0.2-0.3l0.1-0.5l0.2-0.1l-0.1-0.5l-4.3,0.1c-0.2,0.1-0.3,0.3-0.3,0.5l-1.3,0.2
		c-0.1,0-0.3,0-0.4,0.2L77.6,36.5z"/>
	<path id="path1512" class="st11" d="M82.8,34.6l0.6-2.4c0.1-0.2-0.1-0.3-0.2,0l-0.6,2.4H82.8z"/>
	<path id="path1514" class="st10" d="M85.3,31.9c-0.5,0.3-0.8,0.4-1.1,0.3s-0.5-0.2-0.7,0c0,0,0,0,0,0c-0.2,0.6-0.4,1.2-0.5,1.9
		c0.4,0.2,1.1,0.2,1.2,0c0.2-0.2,0.6-0.2,0.9-0.2c0.2-0.2,0.2-0.4,0.2-0.5c-0.1-0.1,0-0.3,0-0.5C85.2,32.7,85.4,32.2,85.3,31.9
		L85.3,31.9z"/>
	<path id="path1516" class="st12" d="M72.9,27.3c-0.9,2.5-2.3,4.8-3.9,6.8 M70,34.7c2.2-1.7,4.1-3.8,5.6-6.2 M72.2,30.7
		c-0.1,1.3-0.5,3.7-0.7,4.9 M72.7,33.6c-0.5,0.5-1.1,1.3-1.7,1.7 M77.2,31c-0.4,0.4-0.8,0.9-1.3,1 M77.5,31.1
		c0.4,0.4,0.8,0.7,1.3,0.9 M77.2,29c-0.4,0.4-0.9,0.7-1.5,0.8 M77.4,29c0.3,0.3,0.6,0.6,1.1,0.8 M75.9,27.4c0.5-0.1,0.9-0.4,1.3-0.7
		 M77.3,26.7c0.4,0.3,0.8,0.6,1.3,0.8 M76,25.9c0.5-0.1,0.9-0.3,1.2-0.7 M77.3,25.1c0.3,0.3,1,0.7,1.3,0.7 M80.2,26.2
		c-0.2,0.2-0.7,0.6-1.1,0.6 M80.4,26.2c0.2,0.2,0.5,0.6,0.8,0.6 M78.9,29.8c0.5-0.2,1-0.5,1.4-0.9 M80.5,28.9
		c0.2,0.4,0.5,0.7,0.9,0.9 M79.4,32.3c0.2,0,0.7-0.3,0.9-0.6 M80.6,31.5c0.3,0.3,0.6,0.6,1,0.8 M72.4,32.8c0.6-0.2,1.9-1,2.5-1.7
		 M73.7,32c0.5,0.3,1.1,0.8,1.6,0.8 M72.3,30.7c0.4-0.2,0.8-0.4,1.2-0.7 M73.7,29.9c0.1,0.2,1.2,0.8,1.6,0.8 M73.4,27.8
		c-0.4,0.3-0.8,0.5-1.2,0.7 M73.7,27.8c0.3,0.2,1.1,0.7,1.5,0.7 M73.4,25.9c-0.3,0.3-0.8,0.8-1.2,0.9 M73.7,25.9
		c0.2,0.3,0.8,0.8,1.2,0.9 M78.8,28.1c0.9,1.6,2.6,3.6,4.2,4.7 M76.1,26.3c1.4,2,4,6.2,6.5,7.8 M83.2,32.4c-0.7,0.9-1.5,1.7-2.4,2.2
		 M83,32.9c-0.8-1.4-1.3-3.1-1.9-5.4 M74.2,33.6l1,2.9 M74,33.5l0.9,2.9 M73.7,33.4l0.9,3 M73.6,33.5l0.7,3 M74.3,36.3h0.8 M75.1,36
		h-0.8 M75,35.8h-0.8 M74.9,35.5h-0.8 M74.7,35.3h-0.6 M74,35h0.6 M74,34.8h0.6 M73.9,34.6h0.6 M73.9,34.4h0.5 M73.8,34.1h0.5
		 M73.8,33.9h0.5 M73.7,33.8h0.5 M73.7,33.6h0.4 M72.9,33.6L72.3,36 M73,33.6l-0.5,2.5 M73.2,33.5l-0.4,2.7 M73.4,33.4l-0.3,2.8
		 M73.4,36.1h-1 M73.4,35.8h-1.1 M73.4,35.5h-1 M73.4,35.3h-0.9 M73.4,35h-0.9 M73.4,34.8h-0.8 M73.4,34.5h-0.8 M73.4,34.3h-0.7
		 M73.4,34h-0.6 M73.4,33.8h-0.6 M73.4,33.6h-0.5 M73.3,36.3v-2.9 M76.5,32.5l-1.9,4 M76.7,32.4l-1.7,4 M76.8,32.4l-1.3,4.1
		 M76.9,32.5l-1.1,4 M75.9,36.3h-1.2 M76,35.9h-1.2 M76,35.7h-1 M76.2,35.4h-1 M76.3,35.1h-0.9 M76.4,34.8h-0.9 M76.5,34.4h-0.8
		 M76.5,34.2h-0.7 M76.6,33.9h-0.7 M76.7,33.7H76 M76.7,33.5H76 M76.7,33.3h-0.5 M76.7,33.2h-0.4 M76.7,33h-0.4 M76.8,32.8h-0.4
		 M76.8,32.6h-0.3 M78.1,32.6l0.8,2.8 M78.3,32.6l1,2.7 M78.4,32.6l1.2,2.6 M79.9,35l-1.4-2.4 M79.9,35h-1 M79.8,34.6h-1 M79.7,34.3
		h-0.9 M79.5,34h-0.8 M79.3,33.7h-0.7 M79.1,33.4h-0.6 M79,33h-0.6 M78.8,32.7h-0.5 M79.8,32.8L79,35.3 M80.1,32.7l-0.8,2.6
		 M79.6,35.2l0.6-2.5 M80.4,32.9l-0.5,2.3 M79.1,35h0.8 M79.2,34.7H80 M79.2,34.4H80 M79.4,34.1h0.7 M79.5,33.7h0.7 M79.6,33.5h0.6
		 M79.7,33.1h0.6 M79.8,32.8h0.5 M80.8,32.9l0.4,1.8 M80.9,32.8l0.5,1.8 M81.1,32.8l0.6,1.8 M81.3,32.9l0.6,1.7 M81.9,34.4h-0.8
		 M81.8,34.2h-0.8 M81.7,33.9H81 M81.6,33.6h-0.7 M81.5,33.4h-0.7 M81.4,33.2h-0.6 M81.3,32.9h-0.6"/>
	<path id="path1518" class="st6" d="M73.3,37.4c0.4-0.2,1.1-0.2,1.4,0c0.4-0.2,1.2-0.2,1.5,0.2c0.5-0.4,1-0.4,1.5-0.1
		c0.5-0.3,1-0.3,1.5,0c0.5-0.2,1-0.4,1.4,0.1c-0.4-0.3-1-0.3-1.4,0.1c-0.4-0.4-1.2-0.3-1.5,0c-0.4-0.4-1-0.4-1.4-0.1
		c0,0-0.1,0.1-0.1,0.1c-0.5-0.4-1.1-0.4-1.5-0.1C74.3,37.3,73.8,37.3,73.3,37.4L73.3,37.4z"/>
	<path id="path1520" class="st5" d="M80.2,36.8c-2,0.3-6.4,0.1-7.4-0.1c-0.3-0.1-0.2-0.2,0-0.1c1.1,0.2,3.5,0.2,4.8,0.2l0.8-1.1
		c0.1-0.2,0.2-0.2,0.4-0.2l1.1-0.2v0.2c0,0-0.1,0.1-0.1,0.1c0,0.2,0.1,0.9,0.1,1.1l0.1,0C80.2,36.6,80.3,36.8,80.2,36.8z"/>
	<path id="path1522" class="st5" d="M83.5,37h0.3c0.1,0,0.2-0.1,0.2-0.2l0.3-0.8l-0.2-0.3l0.1-0.7l0.2-0.1c0,0,0-0.2-0.1-0.2
		l-3.9,0.1c-0.1,0-0.2,0-0.2,0.2c-0.2,1.1,0.1,2.2,1,2.9c0.1,0,0.2,0,0-0.1c-0.2-0.2-0.4-0.5-0.5-0.7h0.7c0.1,0.2,0.2,0.7,0.2,0.7
		c0,0.1,0.1,0.1,0.1,0c-0.1-0.2-0.1-0.6-0.2-0.7h0.7l0.1,0.7c0,0.1,0.1,0.1,0.1,0V37l0.6,0l-0.1,0.7c0,0.1,0,0.2,0.1,0L83,37
		L83.5,37c-0.1,0.1-0.2,0.5-0.3,0.6c0,0.1,0,0.1,0.1,0C83.4,37.4,83.5,37.2,83.5,37L83.5,37z"/>
	<path id="path1524" d="M80.6,36.8c-0.1-0.1-0.3-0.6-0.3-1h0.9c0,0.3,0.1,0.8,0.2,1L80.6,36.8z M81.4,35.8c0,0.2,0.1,0.9,0.2,1h0.7
		l-0.1-1L81.4,35.8z M80.4,34.9c0,0.2,0,0.5,0,0.8l0.8,0l-0.1-0.7L80.4,34.9z M81.3,34.9l0.1,0.8l0.8,0l0-0.8L81.3,34.9z M82.3,34.9
		l0,0.8l0.7,0c0-0.2,0-0.7,0-0.8L82.3,34.9z M83.2,34.9l0,0.8l0.8,0c0-0.2,0.1-0.6,0.1-0.8L83.2,34.9z M84,35.8l-0.8,0l-0.1,1l0.8,0
		c0.1-0.2,0.2-0.5,0.3-0.8C84.1,35.9,84,35.8,84,35.8z M82.3,35.8l0,1l0.6,0l0.1-1L82.3,35.8z M78.9,35.6l-0.3,0
		c-0.3,0.4-0.5,0.7-0.8,1.1l1.2,0L78.9,35.6L78.9,35.6z M79.1,35.6l0.1,1.2l0.7,0l-0.1-1.2L79.1,35.6z"/>
	<path id="path1526" class="st11" d="M75.7,32.9h-3.8v-0.1L75.7,32.9L75.7,32.9z M78.6,29.9C78.7,29.9,78.7,29.9,78.6,29.9l-2.9,0
		c-0.1,0-0.1,0,0,0L78.6,29.9L78.6,29.9z M75.5,30.7C75.5,30.7,75.5,30.7,75.5,30.7l-3.3,0c0,0,0,0,0,0H75.5z M75.6,28.5
		C75.6,28.5,75.6,28.6,75.6,28.5l-3.5,0c-0.1,0-0.1,0,0,0H75.6z M75.3,26.8C75.4,26.8,75.4,26.9,75.3,26.8l-3.4,0c0,0,0-0.1,0-0.1
		L75.3,26.8L75.3,26.8z"/>
	<path id="path1528" class="st10" d="M78.9,25.8l-2.9,0L78.9,25.8z"/>
	<path id="path1530" class="st11" d="M79,27.5C79.1,27.5,79.1,27.5,79,27.5h-3.2c0,0,0,0,0,0H79z M82.2,29.8L82.2,29.8l-3.4,0
		c-0.1,0-0.1,0,0,0L82.2,29.8L82.2,29.8z M82.2,26.9C82.3,26.9,82.3,26.9,82.2,26.9l-3.5,0c0,0,0,0,0,0H82.2L82.2,26.9z M78.9,32
		C79,32,79,32,78.9,32l-3.1,0v0H78.9z M82,32.4C82,32.4,82,32.4,82,32.4h-2.7H82z"/>
	<path id="path1532" class="st13" d="M84.5,32.9c0.1-0.2,0.1-0.5,0-0.7c-0.1,0-0.2,0-0.3,0c0,0-0.1-0.1-0.2-0.1
		c0,0.3-0.1,0.6-0.2,0.9c-0.2,0-0.5,0-0.6-0.1l-0.2,0.5c0.2,0.1,0.5,0.1,0.7,0c0,0.3-0.1,0.5-0.2,0.7c0.2,0,0.5,0,0.5-0.2
		c0.2-0.2,0.2-0.5,0.2-0.6l0.2,0l0.2-0.1l0.3,0v-0.3l0.1-0.2L84.5,32.9L84.5,32.9z"/>
	<path id="path1534" class="st11" d="M72.4,16.4c-0.4,0-1.3,0-1.5,0.1c-0.2,0.1-0.2,0.1,0.1,0.2c0.3,0,0.8,0.2,1.1,0.4
		c0.3,0.2,0.5,0.5,0.5,1c-0.2,1.2,0.4,2.5,1.5,3.1c0,0,0.1,0.1,0,0.3L74,21.9c0,0.1,0,0.2,0.1,0.1c-0.2,0.3-0.3,0.5-0.5,0.8
		c-0.8-0.1-1.4,0-1.4,0.9c0,0.1,0,0.2,0.1,0c0.2-0.2,0.3-0.4,0.6-0.5c-0.2,0.3-0.3,0.6-0.2,0.8c0,0.1,0.1,0.2,0.2,0
		c0-0.2,0.2-0.4,0.4-0.5c0.1,0,0.1,0,0,0.1c0,0.2,0,0.4,0.2,0.5c0.1,0.1,0.2,0,0.1-0.1c0-0.2,0-0.5,0.2-0.6c0.3-0.2,0.6-0.1,0.7,0.1
		c0.2,0.2,0.2,0,0.1-0.2c-0.2-0.2-0.3-0.4-0.5-0.4l0.5-0.8c0-0.1,0.1-0.1,0.2-0.1c0,0,0.1,0,0.1-0.1l0.3-0.7l0.3-0.1l0.5,0.7v0.3
		c0,0.2-0.2,0.6-0.2,0.8c-0.6,0-0.9,0-1.1,0.4c-0.1,0.1,0,0.2,0.2,0.1c0.2-0.1,0.3-0.1,0.5-0.1c0.1,0,0.1,0.1,0,0.1
		c-0.3,0.1-0.6,0.4-0.6,0.7c0,0.1,0.1,0.1,0.1,0c0.1-0.2,0.4-0.4,0.6-0.5c0,0.2,0,0.6,0.2,0.8c0.1,0.1,0.1,0,0.1-0.1
		c-0.1-0.2,0-0.5,0.1-0.6c0.2-0.3,0.8,0.1,1,0.2c0.1,0.1,0.2,0.1,0.1-0.1c-0.1-0.3-0.5-0.5-1-0.6l0.6-2c0.2,0.1,0.5-0.2,0.9-0.1
		c0.7,0.3,1.3,0.7,1.9,1.1c0.2,0.1,0.2,0.1,0.3,0c0.1,0,0.2,0,0.4,0c0.1,0,0.2,0.1,0.1-0.2c-0.3-0.5-0.7-0.9-1.2-1.3
		c0.4,0,0.9,0,0.9-0.1s-0.6-0.3-0.8-0.3c0.3-0.1,0.6-0.2,0.8-0.4c0.1-0.1,0-0.2-0.4-0.2c-1,0-1.6,0-2.1-0.3
		c-0.9-0.5-1.4-1.1-1.9-1.3c-0.2-0.1-0.3-0.4-0.5-0.7c-0.2-0.8-0.2-1.1-0.9-1.4C73.5,15.7,72.7,16,72.4,16.4L72.4,16.4z"/>
	<path id="path1536" class="st10" d="M72.4,16.5h-0.8c0,0-0.1,0,0,0l0.7,0.2c0.2,0,0.1,0.1,0,0.1c-0.1,0-0.2,0-0.1,0.1
		c0.5,0.4,0.6,0.5,0.5,1.8l0.2,0.2c0.1,0,0.1,0.1,0,0c0,0-0.2,0-0.1,0.1s0.2,0.1,0.1,0.1s-0.3,0.1,0,0c0.2,0,0.4,0.1,0,0.1
		c-0.3,0-0.2,0.1,0,0.1c0.3,0,0.2,0.1,0.2,0.1s-0.2,0.1,0.1,0.1h0.3c0.1,0,0.1,0,0,0c-0.1,0-0.1,0.1,0.1,0.1s0.2,0,0.1,0
		c-0.1,0-0.2,0,0,0.1c0.3,0,0.4,0.1,0.3,0.1c-0.1,0-0.2,0,0,0s0.3,0,0.2,0.1c-0.1,0-0.2,0.1,0,0.1s0.2,0.1,0.2,0.1s-0.2,0.1,0,0.1
		c0.1,0,0.2,0,0.1,0.1c-0.1,0.1-0.1,0.1-0.2,0c0-0.1-0.1-0.1-0.1,0l-0.1-0.1c-0.1-0.1-0.2-0.1-0.2,0c0,0.1-0.1,0-0.2,0
		c0.5,0.6,1.3,0.7,1.9,0.4c0.1,0,0.1,0,0.2,0.2l0.3,0.5c0.1,0.1,0.2,0,0.2-0.1l0.3-0.8c0-0.1,0.2-0.2,0.1,0.1c0.2-0.1,0.7-0.1,1.2,0
		c0.5,0.2,0.9,0.4,1.3,0.7c0.1,0.1,0.2,0.1,0.2,0c0.1,0,0.2,0-0.1-0.2s-0.1-0.3,0-0.2c0.2,0.1,0.2,0,0.1-0.1l-0.5-0.4
		c-0.1,0-0.1-0.1-0.3-0.1h-0.8c-0.1,0-0.2,0,0.1,0.1c0.3,0.1,0.8,0.5,1,0.6c0.2,0.1,0.2,0.3-0.1,0.1c-0.6-0.4-1.1-0.7-1.8-1
		c-1.3,0.1-2.4,0.3-3.2-0.5c-0.4-0.4-0.4-1.4,0.2-1.8c-0.1-0.1-0.1-0.2,0-0.2v-0.3c-0.1,0-0.2-0.1-0.2-0.2c-0.2,0-0.2-0.2-0.5-0.1
		c-0.2,0.1-0.3,0-0.4,0C73,17,73,17,72.8,17s-0.2,0-0.2-0.1c0-0.1,0.1-0.1,0.3,0c0.3,0.1,0.6,0.2,0.9-0.1c0.2-0.3-0.1-0.5-0.5-0.6
		C72.8,16.1,72.6,16.4,72.4,16.5L72.4,16.5z"/>
	<path id="path1538" class="st10" d="M74.6,16.4c-0.1-0.1-0.3-0.2-0.5-0.3c-0.1,0-0.1,0.1-0.1,0.1v0.3c0.1,0,0.2,0.1,0,0.1
		c-0.1,0.1,0,0.4,0.2,0.3h0.1c0,0,0,0.1,0.1,0.1c0.1,0,0,0.1,0,0.1h0.1c0.1,0,0,0.2-0.1,0.2c0.2,0,0.2,0,0.2,0.1
		c0,0.1,0.2,0.1,0.2,0.3c0,0.1,0,0.1-0.2,0.1c-0.2,0-0.2,0-0.2,0.1c0,0.1-0.1,0.1,0,0.1c0.1,0,0.2,0,0,0.1c-0.1,0-0.3,0-0.3,0.1
		c0,0.1,0,0.2,0.1,0.1l0.3-0.2l0.2,0c0.1,0,0,0.2-0.1,0.1s-0.2,0-0.2,0l-0.2,0.1c-0.1,0-0.2,0-0.1,0.2c0,0.7,0.5,1.2,1.5,1.2h1.6
		c-0.3-0.2-0.5-0.3-0.7-0.3h-0.1c0.1,0,0-0.1,0-0.1c-0.1,0-0.2-0.1-0.2,0l-0.5,0.2c-0.1,0-0.2,0-0.1-0.1l0.5-0.2c0.1,0,0-0.1,0-0.1
		s0-0.1,0.2-0.1c0.3,0.2,0.7,0.5,0.9,0.5c0.2,0,0.2-0.1,0.1-0.1c-0.1,0-0.1-0.1-0.1-0.2c0,0,0.1-0.1,0.2,0c0.2,0.1,0.5,0.2,0.6,0.3
		s0.2,0,0-0.1L76.7,19c-0.2-0.1-0.2,0-0.1,0.1s-0.1,0.1-0.2,0c-0.1-0.1-0.1-0.1,0-0.2c0.2,0,0.1-0.1,0-0.2c-0.2-0.1-0.2-0.1-0.2,0
		c0,0.2,0,0.2-0.1,0.2c-0.1,0-0.3-0.1-0.1-0.2c0.1-0.1,0.2-0.1,0-0.3c-0.2-0.1-0.1,0-0.2,0.1c0,0.1-0.2,0.1-0.2,0
		c0-0.1-0.1-0.1-0.1-0.2c0,0,0-0.1,0.1,0c0.1,0.1,0.2,0,0-0.1s-0.2-0.1-0.2,0c0.1,0.1-0.1,0.2-0.3,0c-0.1,0-0.1-0.1,0-0.2
		c0.1,0,0.1,0,0-0.1C74.8,17.3,74.9,16.8,74.6,16.4L74.6,16.4z"/>
	<path id="path1540" class="st5" d="M74.6,16.5C74.5,16.5,74.5,16.5,74.6,16.5c-0.2,0.1-0.2,0.3-0.1,0.3c0.1,0,0.1,0,0.2-0.1
		C74.7,16.6,74.6,16.6,74.6,16.5L74.6,16.5z M74.2,16.2c-0.1,0.1-0.1,0.1-0.1,0.1c0.1,0,0,0,0,0.1c-0.1,0.1,0.1,0.1,0.1,0
		c0.1,0,0.1-0.1,0.1,0c0,0.1,0.1,0,0.2,0C74.4,16.3,74.3,16.2,74.2,16.2L74.2,16.2z M74,16.7c-0.1,0.1-0.1,0.4,0.1,0.3
		c0.1,0,0.1,0,0.1,0v0.1c0.1,0,0.2-0.1,0.2-0.1c0.1-0.1,0-0.1-0.2-0.1c-0.2,0-0.2,0-0.1-0.1c0.2-0.1,0-0.1-0.2-0.1
		C74.1,16.6,74.1,16.7,74,16.7L74,16.7z M74.7,17.5c-0.1-0.1,0-0.1,0.1-0.2c0,0,0,0,0,0l-0.1-0.3c0,0-0.1,0.1-0.1,0.2
		c0,0.1,0,0.1-0.1,0.1c-0.1,0-0.2,0-0.2,0.1h0.1c0,0,0,0.1,0,0.1c0.2,0,0.3,0.1,0.3,0.2c0,0.1,0.1,0.1,0.1,0
		C74.9,17.7,74.8,17.6,74.7,17.5z"/>
	<path id="path1542" class="st14" d="M74.8,18.8c-0.1,0.1-0.1,0.1-0.2,0.1c-0.1,0-0.3,0-0.4,0.1c0,0-0.3,0.1-0.3,0.2
		c0,0.1,0,0.2,0.1,0.2c0.1,0,0.1,0,0.1,0.1c-0.1,0.1-0.1,0.2,0.1,0.2c0.2,0,0.3,0,0.3,0c0,0.1,0,0.3,0,0.3c0,0.1,0.2,0.1,0.3,0.1
		c0.1,0,0.6,0.1,0.8,0c0.1,0,0.1-0.1-0.1-0.1c-0.2,0-0.2,0-0.3-0.1c0-0.1-0.1-0.2,0-0.2c0.1-0.1,0.2-0.2,0.1-0.3
		c0-0.1-0.1-0.3-0.3-0.4s-0.1-0.3-0.3-0.3C74.9,18.8,74.8,18.8,74.8,18.8z"/>
	<path id="path1544" class="st5" d="M74,20.2c0.2,0,0.3,0.1,0.2,0.1c-0.1,0-0.2,0.1,0,0.1c0.2,0,0.3,0.1,0.2,0.1
		c-0.1,0-0.1,0.1,0,0.1c0.1,0,0.2,0,0.1,0.1c-0.1,0-0.2,0.1-0.2,0c-0.1-0.1-0.1-0.1-0.1-0.1c0,0.1-0.1,0-0.1-0.1
		c0-0.1-0.2-0.1-0.1-0.1c0,0.1-0.1,0.1-0.2,0.1c0.1,0.1,0.2,0.2,0.4,0.3c0.2,0,0.3,0,0.4,0c0.1,0,0.3,0,0.4,0.1c0.1,0,0.2,0,0.1-0.2
		c0-0.1,0-0.1-0.1,0c-0.1,0-0.1,0-0.1-0.2c0-0.1-0.1-0.1-0.1,0c0,0.1-0.1,0-0.1-0.1c0-0.1,0-0.1-0.1-0.1c-0.1,0-0.1,0-0.1-0.1
		c0-0.1-0.1-0.1-0.1-0.1c0,0-0.1,0-0.2-0.1C74.1,20.1,74,20.1,74,20.2L74,20.2z"/>
	<path id="path1546" class="st14" d="M75.5,21c-0.7,0.3-1.2,0.1-1.6-0.1c0.2,0,0.3,0,0.4,0s0.3,0,0.4,0.1c0.1,0,0.2,0,0.1-0.2
		c0.1,0.1,0.2,0.2,0.3,0.2L75.5,21L75.5,21z M74,17.8c0-0.1-0.1-0.2-0.2-0.2c-0.1,0-0.1,0-0.2,0c-0.1,0-0.2,0-0.2,0.2
		c0,0.2-0.1,0.2-0.2,0.3c-0.1,0.1-0.2,0.2-0.2,0.3c0,0.1,0,0.2-0.1,0.3l-0.1,0.2l0.2,0.1c0.1,0,0.1,0.1,0,0.1s-0.2,0,0,0
		c0.2,0,0.2,0.1,0.1,0.1c-0.2,0-0.3,0.1,0,0.1c0.3,0,0.4,0.1,0.1,0.1c-0.3,0-0.2,0.1,0,0.1c0.3,0,0.2,0.1,0.1,0.1
		c-0.1,0-0.1,0.1,0.1,0.1l0.1-0.1c0-0.1,0.1-0.4,0.2-0.5c0.1-0.1,0.2-0.2,0.2-0.3s0.2-0.5,0.3-0.5C74,18.1,74.1,17.9,74,17.8
		L74,17.8z"/>
	<path id="path1548" class="st5" d="M73.8,17.8c-0.1-0.1-0.2,0-0.2,0.1c0,0.1-0.1,0.2-0.2,0.2c-0.1,0.1-0.2,0.2-0.2,0.3
		c0,0.1,0,0.2,0,0.3C73,18.8,73,18.9,73.1,19c0.1,0,0.1,0,0.1,0.1c0,0.1,0.2,0,0.2-0.1s0-0.1,0.1-0.1c0.1,0,0.2-0.3,0.2-0.4
		c0-0.1-0.1-0.1,0-0.2c0.1-0.1,0.2-0.1,0.2-0.2c0-0.1,0-0.1,0.1-0.2S73.9,17.8,73.8,17.8L73.8,17.8z"/>
	<path id="path1550" d="M73.8,17.6c-0.1,0-0.1,0.1,0,0.2C73.9,17.8,73.9,17.7,73.8,17.6L73.8,17.6z M73.8,17.9
		c-0.1,0-0.2,0.1-0.1,0.1C73.9,18,73.9,17.9,73.8,17.9L73.8,17.9z M73.6,18.1C73.5,18.1,73.5,18.2,73.6,18.1
		C73.8,18.1,73.8,18,73.6,18.1z M73.5,18.2C73.4,18.3,73.4,18.4,73.5,18.2C73.7,18.2,73.7,18.1,73.5,18.2z"/>
	<path id="path1552" d="M73.3,18.3C73.2,18.4,73.3,18.5,73.3,18.3C73.5,18.3,73.5,18.2,73.3,18.3z M73.4,18.4
		C73.3,18.5,73.4,18.6,73.4,18.4C73.6,18.5,73.6,18.3,73.4,18.4L73.4,18.4z"/>
	<path id="path1554" d="M73.2,18.5c-0.1,0,0,0.1,0.1,0.1C73.5,18.5,73.5,18.4,73.2,18.5z M73.4,18.6C73.3,18.6,73.3,18.8,73.4,18.6
		C73.6,18.6,73.6,18.5,73.4,18.6L73.4,18.6z"/>
	<path id="path1556" d="M73.2,18.7c-0.1,0,0,0.1,0.1,0.1C73.4,18.7,73.4,18.6,73.2,18.7L73.2,18.7z"/>
	<path id="path1558" d="M73.2,18.8c-0.1,0,0,0.2,0.1,0.1C73.4,18.8,73.4,18.7,73.2,18.8z"/>
	<path id="path1560" class="st5" d="M73.1,19.9c-0.1,0-0.2,0.1,0,0.2c0.1,0,0.1,0,0.1,0.1c0,0.1,0,0.2,0.2,0.2
		c0.1,0,0.2-0.1,0.1-0.2c-0.1,0-0.2-0.1-0.2-0.2C73.3,19.9,73.2,19.9,73.1,19.9L73.1,19.9z"/>
	<path id="path1562" class="st14" d="M76.3,19.1L76.3,19.1c0.2,0.1,0.3,0.1,0.3,0c0,0-0.1-0.2,0.1-0.1l1.2,0.8
		c0.2,0.2,0.1,0.2,0,0.1l-0.6-0.3c-0.2-0.1-0.2-0.1-0.2,0c0,0,0,0.1,0.1,0.2c-0.1,0-0.3,0-0.3-0.1c-0.1-0.1-0.2-0.3-0.3-0.5
		C76.3,19.2,76.3,19.2,76.3,19.1L76.3,19.1z"/>
	<path id="path1564" class="st8" d="M82.6,39.9c-0.2,0.1-0.4,0.3-0.2,0.6l0.1,0c0.6-0.7,1.1-1.5,1.6-2.4V38
		c-0.2,0.1-0.4,0.3-0.6,0.3c0.1,0.2-0.3,0.5-0.5,0.5c0.1,0.1,0.1,0.3-0.1,0.4c0,0.1-0.1,0.1-0.2,0.2c-0.1,0.1-0.2,0.1-0.3,0.2
		c0.1,0,0.2-0.1,0.2-0.1s0.1,0.1,0,0.1c-0.1,0-0.2,0.1-0.2,0.1C82.5,39.8,82.7,39.8,82.6,39.9L82.6,39.9z"/>
	<path id="path1566" class="st11" d="M75,18.9c-0.2-0.1-0.2,0-0.2,0c0,0,0,0.2-0.1,0.2h-0.5c-0.1,0-0.2,0.2,0,0.1l0.8-0.1
		C75.1,19.1,75.2,19,75,18.9L75,18.9z M75.4,19.2c-0.1-0.1-0.2-0.1-0.1,0c0,0.1-0.1,0.1-0.2,0.1l-0.7,0.2c-0.2,0-0.2,0.1,0,0.1
		c0.2,0,0.7-0.2,0.8-0.2c0.1,0,0.1-0.1,0.1-0.1C75.4,19.4,75.5,19.3,75.4,19.2L75.4,19.2z M75.5,19.6L75,19.8c-0.2,0-0.2,0.1,0,0.1
		s0.5-0.2,0.6-0.3l0.2-0.1c0,0,0.2,0,0-0.2c-0.2-0.1-0.4,0-0.3,0C75.6,19.5,75.5,19.6,75.5,19.6L75.5,19.6z"/>
	<path id="path1568" d="M73.5,16.4c-0.3-0.2-0.7,0.2-0.3,0.5C73.5,17.1,73.8,16.6,73.5,16.4L73.5,16.4z"/>
	<path id="path1570" class="st15" d="M73.1,16.6L73.1,16.6c0.1,0.1,0.2,0.2,0.3,0.2C73.3,16.9,73.1,16.8,73.1,16.6z M74.3,21.2
		c0.1,0,0.4,0.1,0.6,0.1l-0.2,0.3c0,0.1-0.1,0.1-0.1,0c0-0.1-0.1-0.2-0.1-0.1l-0.1,0.2c0,0-0.1,0.1-0.1-0.1
		C74.4,21.5,74.4,21.3,74.3,21.2L74.3,21.2z"/>
	<path id="path1572" class="st16" d="M86.6,25c0,8-1.3,16.6-11.6,20.7C64.7,41.5,63.4,32.9,63.4,25H86.6z M86.6,25
		c0-3-0.2-6-0.1-8.5c-3.7-1.4-7.6-2.1-11.5-2.1c-2.6,0-7.7,0.4-11.5,2.1c0.1,2.5-0.1,5.5-0.1,8.5L86.6,25z"/>
</g>
<path id="path2010" class="st17" d="M0,0h50v30H0V0z"/>
<path id="path2012" class="st15" d="M5.9,0l19.1,11.3L43.9,0H50v3.9L31.2,15.1L50,26.2V30h-6.2L25,18.8L6.3,30H0v-3.8l18.7-11.1L0,4
	V0H5.9z"/>
<path id="path2014" class="st18" d="M33.1,17.6L50,27.5V30L28.8,17.6H33.1z M18.8,18.8l0.5,2.2l-15,9H0L18.8,18.8z M50,0v0.2
	L30.5,11.9l0.2-2.8L46.1,0H50z M0,0l18.7,11H14L0,2.6V0z"/>
<path id="path2016" class="st15" d="M18.8,0v30h12.5V0H18.8z M0,10v10h50V10H0z"/>
<path id="path2018" class="st18" d="M0,12.1v6h50v-6H0z M21.3,0v30h7.5V0H21.3z"/>
</svg>
