<?xml version="1.0" encoding="utf-8"?>
<!-- Generator: Adobe Illustrator 24.0.1, SVG Export Plug-In . SVG Version: 6.00 Build 0)  -->
<svg version="1.1" id="Layer_1" xmlns="http://www.w3.org/2000/svg" xmlns:xlink="http://www.w3.org/1999/xlink" x="0px" y="0px"
	 viewBox="0 0 800 480" style="enable-background:new 0 0 800 480;" xml:space="preserve">
<style type="text/css">
	.st0{fill:#D0103A;}
	.st1{fill:#FEDF00;}
	.st2{fill:#0018A8;}
	.st3{fill:#C7B37F;}
	.st4{fill:none;stroke:#703D29;stroke-width:0.7;stroke-linejoin:round;}
	.st5{fill:none;stroke:#703D29;stroke-width:0.7;stroke-linecap:round;}
	.st6{fill:none;stroke:#703D29;stroke-width:0.8;}
	.st7{fill:none;stroke:#703D29;stroke-width:0.7;}
	.st8{fill:none;stroke:#703D29;stroke-width:0.9;}
	.st9{fill:none;stroke:#703D29;stroke-width:0.6;}
	.st10{fill:none;stroke:#703D29;stroke-width:0.6;stroke-linecap:round;}
	.st11{fill:none;stroke:#703D29;stroke-width:0.6;stroke-linecap:square;}
	.st12{fill:#C7B37F;stroke:#C7B37F;stroke-width:0.3;}
	.st13{fill:none;stroke:#C7B37F;stroke-width:0.6;stroke-linecap:round;}
	.st14{fill:none;stroke:#C7B37F;stroke-width:0.6;}
	.st15{fill:#703D29;stroke:#703D29;stroke-width:0.2;}
	.st16{fill:#703D29;}
	.st17{fill:#D52B1E;}
	.st18{fill:#FFFFFF;}
	.st19{fill:#D52B1E;stroke:#D52B1E;stroke-width:0.3;}
	.st20{fill:none;stroke:#FEDF00;stroke-width:0.64;stroke-linecap:round;stroke-miterlimit:2.56;}
	.st21{fill:#FCD900;stroke:#FEDF00;stroke-width:0.32;stroke-miterlimit:2.56;}
	.st22{fill:none;stroke:#FEDF00;stroke-width:0.64;stroke-miterlimit:2.56;}
	.st23{fill:#0065BD;}
	.st24{fill:none;stroke:#703D29;stroke-width:0.5;}
</style>
<path class="st0" d="M0,0h800v480H0V0z"/>
<path class="st1" d="M0,0h544v480H0V0z"/>
<path class="st2" d="M0,0h256v480H0V0z"/>
<path class="st3" d="M380.4,136.6c7.7,0,10.9,6.6,18.6,6.6c4.7,0,7.5-1.5,11.7-3.9c2.9-1.6,4.7-2.5,8-2.5c3.4,0,5.5,1,7.3,4
	c1,1.6,1.8,4.9,1.3,6.7c-0.6,2.9-1.5,5.6-2.7,8.3c-0.7,1.6-1.3,2.5-1.3,4.2c0,4.1,5.6,5.5,9.4,5.6c0.8,0,7.7,0,12-4.2
	c-2.3-0.1-4.9-2-4.9-4.3c0-2.6,1.8-4.3,4.3-5.1c0.5-0.1,1.3,0.3,1.7,0c0.7-0.3,0.4-1,1-1.4c1.2-1,2-1.6,3.6-1.6c1,0,1.6,0.1,2.5,0.7
	c0.4,0.4,0.6,0.8,1,0.8c1.2,0,1.8-0.8,3-0.8c0.8,0,1.6,0.2,2.3,0.6c0.6,0.3,0.6,1.5,1.4,1.5c0.4,0,2.4-0.9,3.5-0.9
	c2.2,0,3.4,0.8,4.8,2.5c0.4,0.5,0.6,1.4,1,1.4c2,0.2,3.8,1.3,4.8,3c0.3,0.4,0.7,1.4,1.1,1.5c0.6,0.3,1,0.2,1.7,0.7
	c1.7,1,2.7,2.8,2.8,4.8c0,0.7-0.3,1.6-0.5,2.2c-1.8,6.5-6.3,8.6-10.8,14.3c-2,2.4-3.5,4.3-3.5,7.4c0,0.7,1,2.1,1.3,2.7
	c-0.2-1.4,0.5-3.2,2-3.3c2.1,0,3.8,1.5,4,3.6c0,0.6-0.1,1.2-0.3,1.8c1.2-0.8,2.6-1.2,4-1.4h1.9c3.3,0,7,1.9,9.3,3.8
	c4.9,4.2,7.6,10.4,7.3,16.8c-0.8,5.2-0.3,14.8-13.8,18.6c2.5,1,4.2,3,4.2,5.2c0.1,2.5-1.8,4.6-4.3,4.7c0,0-0.1,0-0.1,0
	c-1.3,0.1-2.6-0.4-3.5-1.4c-2.8,2.8-3.3,5.7-3.3,9.7c0,2.4,0.4,3.8,1.4,6c1,2.2,1.8,3.5,3.7,5.1c1-1.5,2.1-2.6,4-2.6
	c1.7,0,3.2,0.6,3.9,2.2c0.2,0.5,0,0.9,0.3,1.4c0.3,0.6,0.8,0.7,1.1,1.3c0.5,1,0,1.8,0.5,2.7c0.3,0.7,0.9,0.8,1.2,1.4
	c0.4,1,0.5,1.6,0.5,2.7c0,3-2.7,5.2-5.7,5.2c-1,0-1.4-0.4-2.3-0.3c1.7,1.7,3,2.5,4.3,4.5c2,3,3.1,6.6,3,10.3
	c0.1,3.9-0.9,7.8-2.8,11.2c-1.5,3.4-3.9,6.4-7,8.5c-4.7,3.4-10.2,5.6-16,6.4c-3.6,0.7-7.3,1.2-11,1.4l-14.1,0.8
	c-7.2,0.4-12.2,1.5-17.3,6.6c2.4,1.7,4,3.5,4,6.4c0,3-1.8,5.3-4.7,6.2c-0.7,0.2-1.2,0-1.9,0.4s-0.7,1.3-1.4,1.7
	c-1.1,0.7-2.5,1.1-3.8,1c-2.4,0.2-4.8-0.7-6.4-2.5c-2.2,1.8-3,3.4-5.5,4.9c-0.8,0.4-1.2,1-2.1,1c-1.5,0-2.2-1-3.4-1.8
	c-1.6-1.1-3.1-2.5-4.4-4c-2.3,1.3-3.6,2.4-6.3,2.4c-1.4,0.1-2.8-0.3-4-1c-0.6-0.5-0.8-1.2-1.5-1.6c-0.7-0.5-1.3-0.3-2.1-0.7
	c-3-1.3-5-3.5-5-6.8c0-2.9,1.8-4.7,4.4-6c-5-5-10-5.8-17-6.2l-14-0.8c-4.4-0.3-6.8-0.7-11-1.4c-3.3-0.5-5.2-0.7-8.2-2.1
	c-10.2-4.8-16.8-11.3-18-22.5c-0.2-1-0.2-1.5-0.2-2.5c0-5.8,2.3-9.4,6.4-13.5c-1-0.3-1.7,0-2.8-0.3c-2.5-1-4.4-2.7-4.4-5.5
	c0-1,0-1.7,0.5-2.6c0.4-0.6,1-0.7,1.2-1.4c0.2-1,0-1.6,0.4-2.5c0.3-0.5,0.8-0.6,1-1.2c1-1.9,2-3.4,4.1-3.4c1.8,0,3,1,3.8,2.5
	c1.8-0.8,2.2-2.1,3.2-3.7c2.5-4,3-8.9,1.4-13.3c-0.4-1.5-0.6-2.5-1.8-3.7c-1,1-2,1.4-3.4,1.4c-2.9,0-5-2.5-5-5.3
	c-0.1-2,1.1-3.8,3-4.6c-1.6-1.4-3-1.5-4.7-2.6c-2.6-1.6-3.5-3.4-5.2-6c-1.2-1.6-1.5-2.8-2-4.7c-0.9-2.5-1.2-5.2-1-7.8
	c0.6-5,1.5-8,4.6-11.9c1.8-2.3,3-3.7,5.8-4.9c2.3-1,3.7-1.7,6.2-1.7l2,0.1c1,0.1,1.9,0.3,2.8,0.8c0.4,0.2,1.1,0.9,1.1,0.4
	s-0.3-0.8-0.3-1.3c0-2,1.5-4,3.6-4c1.5,0,2.1,1.4,2.9,2.7c0.4-0.8,0.7-1.4,0.7-2.3c0-3.4-1.9-5.2-4-7.9c-4.7-5.8-10.5-8.5-10.5-16
	c0-2.2,1-3.7,3-4.9c0.5-0.3,1.3,0,1.8-0.3s0.4-1,0.7-1.4c0.5-0.7,1-1,1.6-1.6c1-1,2-0.6,3.1-1.5c0.6-0.4,0.8-1,1.2-1.4
	c1.3-1.6,2.5-2.4,4.6-2.4c1,0,1.6,0,2.5,0.4l1,0.5c0.3-0.2,0.8-0.8,1.5-1.1c0.7-0.4,1.4-0.6,2.2-0.6c1.1,0,1.8,0.6,3,0.6
	c0.3,0,0.4-0.4,0.8-0.6c1-0.7,1.5-1,2.7-1s1.8,0.3,2.8,1c1,0.5,1,1.3,2,1.8c0.5,0.3,1,0.2,1.5,0.4c2.6,0.9,4.5,2.6,4.5,5.3
	c0,1.5-0.3,2.5-1.4,3.5c-0.9,0.7-1.7,0.6-2.8,1c3.2,2.6,7.2,3.8,11.3,3.5c4.2,0,9.3-1.7,9.3-5.9c0-2-1-3-1.8-4.8
	c-1.4-2.6-2.1-5.5-2.1-8.5c0-2.8,0.3-4.5,1.9-6.7C375.5,137.2,377.5,136.6,380.4,136.6L380.4,136.6z"/>
<g>
	<path class="st4" d="M352.4,159c0.3,1.2,1.2,2.1,2.4,2.4c0.8,0.3,2.7,0.2,3.8-1.4c1-1.2,1-2.8,0.6-4c-0.3-0.9-0.9-1.7-1.7-2.2
		L352.4,159L352.4,159z"/>
	<path class="st5" d="M481,236.1c-1.2-2.9-4.3-1.6-4.4,0c-0.5,3.7,2.7,4.8,5,4.2c1.1-0.3,2-1,2.5-2c0.6-1,0.8-2.4,0.4-3.7
		c-0.2-0.6-0.4-1.1-0.8-1.6c-0.4-0.5-0.8-0.9-1.3-1.2c-0.9-0.6-1.9-0.6-3.4-0.6c-5.5,0-10.4,6.5-12,13.4c-0.6,2.2-1.3,7.3-0.3,12
		c0.8,4.3,2.9,8.2,5.9,11.3c2.8,2.7,6.2,4.6,9.9,5.8c1.3,0.4,2.7,0.4,4,0.1c3.2-0.7,4.7-3.8,3-7c-1.3-2.5-5.3-4-7.2-0.6
		c-0.1,0.3-0.4,0.9-0.4,1.5c0,0.9,0.4,2,1,2.4c1.5,0.9,3.8,0.6,3.7-2"/>
	<path class="st6" d="M463.8,274c1.7-2,4-3.3,6.6-3.7c3-0.4,5.6,0.5,8.2,2c6.6,3,10.9,9.7,10.8,17c0,3.6-1,7.5-2,9.4
		c-0.8,1.7-3,9-15.3,14c-7.1,3-18,3.6-25.7,4c-10.4,0.3-20,0.7-25.5,7.6"/>
	<g>
		<path class="st7" d="M466.4,285.7c-0.3-1,0-2.1,0.8-3.3c1.2-1.6,3.7-2.1,6-1c1,0.5,1.8,1.3,2.5,2.2l1.1,1.6c0.7,1.1,1,2,1,2.5
			c2.5,7-1.4,14.5-6.5,17.6c-4,2.4-8.7,3.4-14.4,4c-2.5,0.4-4,0.3-6.5,0.5h-9.6c-2.4-0.1-4.8-0.1-7.2,0c-2.9,0.3-5,0.4-7.6,0.8
			c-1.6,0.2-3.4,0.5-5.4,1c-0.6,0-1.2,0.2-1.8,0.4l-1.2,0.3c-3.6,1.1-7,2.4-9.8,4.2c-0.8,0.5-1.8,1-2.5,1.7l-1.3,1.2
			c-2,2-3.9,4-4.4,6.7v1.6c0,1.8,1.4,4.3,5.4,5 M410.5,162.7c0.8,1.4,1.3,2.3,0.8,3.9c-0.6,1.7-1.8,2.8-3.6,2.8
			c-4,0-6.3-4.8-4.5-7.8c3.2-5.3,9.3-2.3,15,0.3c-0.3-1.3-0.8-1.8-0.7-3.5c0.1-4.2,3.2-6,4.5-10c0.7-2.3,1-4.3-0.7-6
			c-1.5-1.3-3.2-1.3-5.1-0.6c-3.8,1.5-8.5,5.9-16.6,6c-8.2-0.1-12.8-4.5-16.7-6c-2-0.7-3.6-0.7-5.1,0.7c-1.7,1.6-1.4,3.6-0.7,6
			c1.3,3.8,4.4,5.7,4.5,10c0,1.6-0.4,2-0.7,3.4c5.7-2.6,12-5.9,15-0.3c1.7,3.2-0.5,7.7-4.5,7.7c-1.8,0-3-1-3.6-2.7
			c-0.4-1.5,0-2.8,0.8-4"/>
		<path class="st5" d="M394.6,159.9c1.7,1.1,2.6,3,2.4,5c-0.2,2.5-0.8,3.1-2.8,4.5 M396.6,165.6c-0.1,1.5-0.7,2.5-2.3,3.1"/>
	</g>
	<path class="st3" d="M356.7,153.3l0.7,0.5l0.8,0.8l0.5,1l0.2,0.8v1.9l-0.2,0.8l-0.5,0.6l-0.6,0.6l-0.9,0.5l-1,0.2l-1,0.2l-1-0.5
		l-0.9-0.6l-0.5-0.8l-0.4-1v-0.4L356.7,153.3z"/>
	<path class="st5" d="M355.2,157.2c-0.3-1.7-2.2-2-3-1c-1.1,1.5-0.3,4,2,4.7c1.5,0.3,3-0.2,3.9-1.4c1-1.3,0.9-2.8,0.5-4
		c-0.3-0.9-0.9-1.7-1.7-2.2c-2.7-2-7.1-1.6-8.6,2c-1.8,4.4,2.2,7.8,6,10.3c4.6,3.2,10,3.8,14,3.8c9.2-0.1,16.2-4.5,20.7-7
		c1-0.6,2.1-0.5,2.7,0.2c0.6,0.8,0.5,2-0.3,2.7"/>
	<path class="st7" d="M328,281.2l-2,0.7l-2,1.6l-1,1.3l-1.1,2l-0.5,1.5l-0.4,1.8l-0.2,1.4 M339.8,281.4l-0.1,1.8l-0.3,1.2l-1,2.2
		l-1.3,1.8l-1.5,1.2l-1.1,0.5l-1.6,0.4"/>
	<path class="st6" d="M399.7,329.1c-0.3,1.7-1.9,3.6-5.3,4.2l-0.6,0.2"/>
	<path class="st8" d="M484.2,276.2c3.7,3.5,5.7,8.4,5.6,13.5c0,3.6-1,7.5-2,9.4c-0.8,1.7-3,9-15.3,14c-8.3,2.6-16.9,4-25.6,4
		c-10.3,0.3-19.8,0.7-25.4,7.3"/>
	<path class="st9" d="M467.5,282.9c0.8-1,3.5-2.4,5.8-1.1c0.9,0.5,1.7,1.2,2.3,2"/>
	<path class="st8" d="M481.6,273.8l1.4,0.5c1.3,0.4,2.7,0.4,4,0c2.8-0.8,4.6-3.4,3.2-6.9c-0.4-0.8-1-1.5-1.8-2.1"/>
	<path class="st5" d="M320.3,199.8c-2,1.1-3.3,1.4-4.8,3.1c-1.2,2.1-2,4.4-2.6,6.8 M358.9,158c0,1.8-1.2,2.8-3,3.2"/>
	<path class="st9" d="M477.1,192c10.5,0.2,18.8,8.9,18.6,19.4c0,0.1,0,0.3,0,0.4c0,16-9.9,18.5-13.8,19.6"/>
	<path class="st7" d="M478.4,192c8.1-0.3,16.5,5.7,16.9,20.7c0.3,11.7-8,17-12,18"/>
	<path class="st9" d="M473.8,248.4l0.1-1.6l0.6-2.5l0.7-2l0.9-1.6l1-1.3 M484.9,236v1.5l-0.5,1l-0.7,1.1l-0.8,0.6l-1.2,0.5h-1.1
		l-0.8-0.1 M465.5,187.8l0.3-1.7l0.8-1.6l1-1.5l1.6-2.2l1.4-1.4l2-2.2l2-1.9l1.1-1.3l1.5-1.9l1.4-2l0.8-1.7l0.5-2.2l0.1-2.7
		l-0.2-0.8 M467.5,290.9l1.6-0.4l1.2-0.6l0.7-0.7l0.5-0.8l0.3-1.2v-0.9 M313.6,274.2h2.7l1.6-0.6 M322.9,237.1l-0.2,1.4l-0.4,0.6
		l-0.4,0.6l-0.7,0.5l-0.7,0.3l-1,0.1h-0.6 M328.8,225.1l-0.3,2.1l-0.5,1l-0.8,1.2l-1.2,0.9l-1.2,0.6l-2.3,0.5 M337.8,191.7l-0.5,1.3
		l-0.5,1l-0.8,1l-1,1l-1.2,0.5l-1.1,0.3l-0.6-0.1 M332.4,190.5v1"/>
	<g>
		<path class="st10" d="M334.3,224c-0.6,0.6-1.3,1.1-2.1,1.4 M482.7,270.2l0.5,0.2c1.4,0.8,4.2-0.2,3.4-2.4"/>
		<path class="st9" d="M477.8,239.6c1,1.3,2.9,1.7,4.4,1.3c1.1-0.3,2-1,2.5-2c0.6-1,0.8-2.4,0.4-3.7c-0.2-0.6-0.5-1.1-0.9-1.6
			c-0.4-0.6-0.8-1.1-1.3-1.5l-0.4-0.2 M488.9,265.9c0.1-0.2,0.1-0.5,0.1-0.7c0-1.1-0.5-2.2-1.3-3l-0.8-0.8 M487.3,261.9
			c0-1.8-1.5-3.2-3.4-3.5 M479.7,261.2l-1.3-1c-2.7-2.9-4.3-6.7-4.3-10.7c0-4.2,1.6-8.4,3.6-10 M421.2,324l1.8-1.6l1.2-1l2.3-1.4
			l2.2-1l1.6-0.5l3-0.6l3.6-0.6 M407.4,336.7c-1.9,2.7-4.5,4.9-7.6,6.1c-3.1-1.3-5.7-3.4-7.6-6.1"/>
		<path class="st10" d="M394.4,332.6c-0.4,1.6-1.1,3-2.2,4.2"/>
		<path class="st9" d="M394.7,330.5l-0.4,2.2 M392,337l-1,1l-1.7,0.9l-2,0.6 M381.7,161.7c0.3-0.8,0.5-1.4,0.5-2.6
			c-0.1-4.2-3.2-6.1-4.5-10c-0.7-2.3-1-4.3,0.7-6c1.4-1.4,3.2-1.4,5-0.6c4,1.5,8.6,5.8,16.7,6c-8.1-0.2-12.8-4.5-16.6-6
			c-2-0.8-3.8-1-5.3,0.5c-1.7,1.6-1.2,3.8-0.5,6.1c1.3,3.9,4.2,5.8,4.3,10c0,1.2-0.3,1.8-0.5,2.6 M400,148c8-0.4,14.9-5.8,17.1-6.3
			c2-0.4,3-0.2,4.5,1.1c-1.4-1.3-3-1.2-5-0.5c-3.8,1.5-8.4,5.8-16.6,6 M479.6,261.2c-3.9-2.9-6.2-7.5-6.2-12.4c0-4.1,1.7-8.4,3.6-10
			 M407,336.4c-1.3,2-4.3,5-7.6,6.2c-3.1-1.3-5.7-3.5-7.6-6.2"/>
		<path class="st10" d="M386.7,163.7l2.3-1.3c1-0.6,2.3-0.5,2.9,0.2s0.7,2-0.2,2.8"/>
		<path class="st9" d="M374.7,169.3c5.5-1.2,10-3.6,13.4-5.5 M420.3,328c0.5,0.3,0.8,1,0.8,1c0.1,0.2,0.3,0.5,0.3,0.8
			c0.3,1.5-0.7,2.4-2,2.6c-1.7,0.2-3-0.8-3.5-2 M374.4,169c5.5-1.1,10-3.6,13.4-5.5 M485.4,270.4c-1,0.4-1.6,0.3-3-0.2l-1.8-1
			c-3.6-2.1-6.6-5.2-8.4-9c-0.8-1.5-1.3-3-1.7-4.6c-0.3-1.1-0.5-2.2-0.5-3.3c-0.1-5.5,1.5-10.8,4.7-15.3c1.1-1.6,2.1-2.5,4.2-2.6
			 M335.2,195.1c1.7,1.4,2.7,3.5,2.7,5.7c0,3.1-2.6,8.2-9,10c-2.1,0.6-4.4,0.3-6.3-0.8"/>
		<path class="st9" d="M336.3,205.6c1.1,0.8,1.6,1.7,1.6,3.3c0,1-0.7,2.4-1.9,3.7c-2.3,2.5-5.4,3.9-8.8,4c-2,0-4-0.4-6-1.7
			c-1.9-1.3-3.3-3.2-3.8-5.4"/>
		<path class="st9" d="M336.2,212.3c1.3,1.2,1.7,2.7,1.7,4.6c0,2.7-1.1,4.8-3.7,7c-0.6,0.6-1.2,1-2,1.5 M461.7,203.3v3.5
			 M461.4,202.4v5 M461.7,191.6v6.6 M461.4,190.2v8.9 M459.5,281.1c-1,2.1-2.5,4-4.2,5.6c-1.7,1.7-3.6,3.1-5.8,4.1
			c-2.1,1-4.3,1.8-6.6,2.2c-2.2,0.5-4.5,0.8-6.8,0.9c-2.5,0-3.9,0-6.4-0.2c-2.6-0.2-4-0.6-6.7-0.8c-2.2-0.2-3.4-0.4-5.6-0.3
			c-3.7-0.1-7.5,0.5-11,1.8c-2.6,1-5.7,3-6.3,3.8c-1.9-1.6-4.1-2.9-6.4-3.8c-1.6-0.7-3.3-1.1-5.1-1.4c-2.3-0.4-3.5-0.4-5.8-0.4
			c-2.2,0-3.4,0.1-5.6,0.3c-2.6,0.3-4,0.6-6.7,0.8c-2.5,0.2-3.9,0.3-6.4,0.2c-4.6,0-9.2-1.1-13.4-3c-2.4-1.1-4.6-2.8-6.4-4.8
			 M386.4,339.5l1.8-0.2 M418.5,336.9l1.8-0.1l1.7-0.7l1.2-0.8l1.7-2l0.3-0.6l0.3-1.7v-0.8 M472.5,193.5c0.7-2.6-0.2-5.4-2.8-5.3
			 M337.7,234.7c-0.5,1.9-1.8,3.6-3.5,4.7 M337.8,192.7c-0.6,1.8-1.9,3.2-3.6,4c-1.9,0.8-4,0-5.2-0.8"/>
		<path class="st10" d="M323.8,202.4c1.5,0.8,3.1-0.4,2.8-2.4c-0.3-1.2-1.3-2.1-2.5-2.2"/>
		<path class="st9" d="M330.2,286.6c0.3,0.3,0.4,0.7,0.8,0.8c0.7,0.2,1.2,0.4,1.9-0.5c0.8-1.1,0.3-2.8-0.5-3.9c-1.5-1.6-3.9-2-5.8-1
			c-0.8,0.5-1.7,1-2.6,2.2l-1.1,1.6c-0.7,1.1-1,2-1.1,2.4c-2,5.9,0.4,12,4.1,15.7"/>
		<path class="st10" d="M420.2,327.8l0.7,0.8l0.2,0.9c0.3,1.5-0.7,2.4-2,2.6c-1.6,0.2-2.8-0.8-3.3-2"/>
		<path class="st9" d="M469.4,154.8c3.5,0.5,6.1,3.5,6.3,7c0,4.4-1.5,6-3.8,9.2c-2.5,3.4-10.7,9.6-10.7,16.7c0,4.3,1.2,7,4.3,8.4
			c2,1,4.3,0,5.4-1c2.6-2.4,1.5-6.5-1.2-7c-3.2-0.6-3.9,4.6-0.7,4.3 M486.9,261.4c-0.3-1.7-1.8-3-3.6-3c-2,0-3.7,1.7-3.7,3.7v0
			c0,1,0.4,2,1,2.6"/>
		<path class="st9" d="M463.9,195.1c-1.7,1.4-2.7,3.5-2.7,5.7c0,3.1,2.6,8.2,9,10c2.4,0.7,4.8,0.6,6.2-0.3 M320.4,200.2
			c-1.9,0.6-3.6,1.8-4.8,3.5c-2.4,3.8-3.2,8.3-2.2,12.7c0.4,2,1.2,3.9,2.3,5.6c0.3,0.4,0.6,0.8,1,1.2l1.2,1 M381.9,316.2
			c4.9,2.1,8.4,3.7,11.4,8.5c0.8,1.5,1.2,3.2,1.2,4.9c0,2.7-1,5.7-3.3,7.6c-1.8,1.6-4.3,2.4-6.7,2c-1.9-0.2-3.7-1.6-4-2.6
			 M334,224.1c2.7,2.2,3.9,4.2,3.9,7.5c0.1,3-1.4,5.9-4,7.5"/>
		<path class="st10" d="M331.5,236.4c4,5.1,6.3,8.1,6.4,14.1c0.1,5.7-1.7,9.6-5,13.7"/>
		<path class="st9" d="M409.8,169.3c0.7-0.5,1.3-1.3,1.5-2.2c0.5-1.5,0.5-2.8-0.2-4c1,1.4,1,2.5,0.7,4c-0.1,1-0.8,1.5-1.6,2.3
			 M461.7,255.5v16.2l-0.1,2.5c-0.1,0.6-0.2,1.1-0.3,1.7"/>
		<path class="st9" d="M461.4,254v19.9l-0.5,2.6 M461.4,233.5v14.6 M461.7,234.7v11.8 M461.7,219.7v8.8 M461.4,218.6v11
			 M461.7,210.6v3.5 M461.4,209.9v5 M459.6,280.1l-0.4,0.7c-1,2.1-2.4,4.1-4.1,5.7c-1.7,1.7-3.7,3-5.9,4c-2.1,1-4.2,1.8-6.5,2.2
			c-2.7,0.6-4.2,0.8-6.9,0.9c-2.5,0-3.9,0-6.3-0.2c-2.7-0.2-4.1-0.5-6.8-0.8c-2.2-0.2-3.4-0.3-5.6-0.3s-3.5,0-5.7,0.4
			c-1.8,0.3-3.5,0.7-5.2,1.4c-2.7,1.1-5.7,3-6.4,3.8c-0.6-0.8-3.7-2.7-6.3-3.8c-1.7-0.7-3.4-1.1-5.2-1.4c-2.2-0.4-3.5-0.4-5.8-0.4
			c-2.2,0-3.4,0.1-5.6,0.3c-2.6,0.3-4,0.6-6.7,0.8c-2.5,0.2-3.9,0.3-6.3,0.2c-4.7,0-9.3-1.1-13.5-3c-2.2-1-4.1-2.4-5.8-4.1
			c-0.9-0.9-1.7-1.8-2.5-2.8 M340.1,280.5c0.3,2.8-0.5,5.6-2.3,7.7c-0.8,0.9-2.6,2.6-5,2.6c-3.7,0-4.8-2.5-5-3.2"/>
		<path class="st9" d="M335.6,278.9c0.7,0.7,1.3,1.5,1.9,2.5c1,1.8,0.6,4.8-0.1,6.2c-0.1,0.1-0.2,0.3-0.3,0.4 M316.8,306
			c2.3,2.4,5.7,5,10.9,7.1c7.1,3,18.1,3.6,25.7,4c10,0.3,19.3,0.7,25,7 M395.7,320.1c1.8,1.4,3.2,3.3,4,5.5 M392.4,337.1
			c-0.2,0.2-0.5,0.5-0.7,0.7c-1.8,1.6-4.2,2.3-6.6,2c-2-0.2-3.8-1.6-4.3-2.6 M375.4,334.3l0.3,0.4c1.3,1.4,3.2,2.3,5.1,2.4
			 M407.8,337.1c-2,2.7-4.6,4.8-7.7,6.1c-3.1-1.3-5.7-3.4-7.6-6.1l-0.3-0.5 M407.8,337l0.7,0.7c1.8,1.6,4.3,2.4,6.7,2
			c1.6-0.2,3.1-1.1,4-2.5l0.5-0.7"/>
		<path class="st9" d="M419,336.6l-0.7,1.2l-1.1,1l-1.7,0.7h-1.6"/>
		<path class="st9" d="M423,325.3c1,0.8,1.9,1.7,2.4,2.9c0.3,0.7,0.4,1.5,0.5,2.3c0.1,1.5-0.5,3.1-1.5,4.2c-1.4,1.5-3.3,2.4-5.4,2.4
			c-0.1,0-0.3,0-0.4,0 M418.8,336.9c-2,0.1-3.9-0.7-5.2-2.2 M477.3,266.8c-1.9-1.8-3.6-4-4.8-6.4c-0.8-1.4-1.3-2.9-1.7-4.5
			c-0.3-1.1-0.5-2.2-0.5-3.3c-0.1-5.5,1.5-10.8,4.6-15.3c0.7-0.8,1.4-1.8,2.1-2.2 M475.7,159.2c2.5,0.2,4.8,3,4.8,5.7
			c0,3.8-1.3,5.5-4.4,9.3c-2.6,3.2-10.6,9-10.3,14.5c0,1,0.5,2,1.1,2.8 M463.7,195c0.6,0.6,1.3,1.1,2,1.4c1.4,0.6,3,0.4,4.3-0.3
			 M449,153c1,0.6,1.7,1.5,2.2,2.6c1.8,4.5-2.2,7.9-6,10.4c-2.5,1.7-5.3,2.8-8.3,3.3"/>
		<path class="st9" d="M444.6,161.6c-1.2,0-2.3-0.6-3.1-1.5c-0.3-0.3-0.5-0.6-0.7-1 M425.8,164c-0.5-0.3-0.9-0.6-1.2-1
			c-1-1-1.5-2.3-0.8-4.4c0.6-1.9,3.7-7.2,3.8-10.9c0.2-5.6-2-9-5.3-10.2"/>
		<path class="st10" d="M427.3,146.5l-0.1,2l-0.6,2.2l-1,3l-1,1.9l-0.8,1.9l-0.4,1.3l-0.2,1l0.1,0.9 M461.3,287l0.6,0.8
			c0.7,1,3.2,3,5.5,3c3.7,0,4.6-2.6,4.7-3.2c0.5-2.9-0.5-3.6-2-4.5c0,0-0.8-0.4-1.9-0.2"/>
		<path class="st9" d="M317,274.4c-1.2,0.3-2.5,0.3-3.7,0c-2.9-0.9-5.2-3.6-4-7 M322.7,235.6c0.3,0.3,0.4,0.7,0.4,1
			c0.4,3.8-2.8,4.8-5,4.2c-1.2-0.4-2.3-1.2-3-2.3c-0.4-0.7-0.7-1.5-0.7-2.3 M336.4,212.6c0.6,0.5,1,1,1.3,1.7 M336.6,205.8
			c0.5,0.4,0.9,0.9,1.1,1.3"/>
		<path class="st10" d="M337.9,210.5c-0.4,0.9-0.9,1.7-1.6,2.4c-2.3,2.5-5.4,3.9-8.8,4c-2,0-4-0.4-6-1.7c-2-1.3-3.4-3.3-4-5.6"/>
		<path class="st9" d="M335.4,195.3c1.1,0.9,1.9,2.1,2.4,3.4"/>
		<path class="st10" d="M337.8,203.2c-0.9,3-3.5,6.6-8.6,7.9c-2.4,0.6-5.6-0.2-6.6-1"/>
		<path class="st9" d="M320,202.6c0.3,2.6,2,4.6,5.4,4.6c4.7,0.1,7.6-6.7,3.4-11.5"/>
		<path class="st10" d="M309.4,225.5c0.7,0.9,1.5,1.7,2.4,2.4c1.8,1.5,3.8,2.6,6,3.3 M323,231.7c4.2-0.5,6.6-3.7,6-7.3
			c-0.3-2.8-2.8-5-4.6-5.1"/>
		<path class="st9" d="M329.8,188.1c1.9,0,3,1.6,2.9,3"/>
		<path class="st10" d="M329.4,163c0.9,2.5,2.7,4.6,5,5.9 M478.6,199.9c1.7,2.3,0.6,7-4,7c-1.8,0-3.5-0.9-4.5-2.5"/>
		<path class="st9" d="M461.7,169.1V185"/>
		<path class="st10" d="M323.8,202.3c1.4,1,3.3-0.7,2.5-2.6c-0.5-1.2-2.2-2.6-4.7-0.9c-2.8,1.9-2,7.8,3.2,7.9
			c4.7,0,7.6-6.8,3.4-11.6c-4-4.6-11.3-3.6-16,0.2c-3.6,3-6.2,7.1-7.2,11.7c-0.6,3-0.6,6.2,0,9.2c0.5,2.7,1.5,5.2,3,7.5l1.3,1.7
			c0.8,0.8,1,1.2,2,2c2.9,2.5,6.6,3.8,10.4,3.7c4.6-0.2,7.3-3.4,6.8-7.3c-0.4-3.8-4.2-5.7-6.7-3.9c-1.7,1.2-2.3,4.9,0.7,5.8
			c1.6,0.5,3.1-1.7,2-3 M454,150.9c2.7-1.4,4.8-1.2,6.3,1c1.4,2.1,2,4.7,1.6,7.2c-0.4,2.3-1.6,4.4-3.5,5.8"/>
		<path class="st10" d="M460.5,152c3.1-2,6.5-1.1,8.3,1.6c1.3,2,1.7,3.6,1.6,6.1c-0.2,3.8-2.3,7.3-5.7,9.2"/>
		<path class="st9" d="M475,159.2c2.6,0.2,4.6,2.5,4.6,5.1c0,3.8-1,5.5-4,9.3c-2.7,3.3-10.6,9-10.4,14.6c0,2.1,1.8,4,3.3,4.2"/>
		<path class="st10" d="M475.4,202.3c-1.5,1-3.3-0.6-2.5-2.4c0.5-1.2,2.2-2.8,4.7-1.1c2.7,1.9,2,7.8-3.3,7.9c-4.7,0-8-6.6-3.4-11.6
			c4-4.6,11.7-3.7,16.5,0.1c2,1.6,6.1,6,7,12c1,7,0.9,15.6-6.4,21c-3,2.1-7,3.1-10.6,3c-4.6-0.2-7.3-3.5-6.8-7.4
			c0.5-3.8,4-5.4,6.7-3.9c2.8,1.5,2.3,5.4-0.7,5.8c-1.7,0.2-3.1-1.7-2-3"/>
		<path class="st9" d="M472.9,199.9c0.8-3.5,3.7-3.8,6.2-3.8c6.5,0.1,11.1,8,11.2,15.5c0,9.5-4,15.2-11,15.5c-1.9,0-5-0.8-5-3"/>
		<path class="st11" d="M477,198.3c6.9,1.6,9.3,7.8,9.3,13.8c0,4.9-0.5,11.6-10,13.9"/>
		<path class="st9" d="M488.4,265.3c0.3-2.1-1.1-4.1-3.2-4.5c-2.1-0.3-4.1,1.1-4.5,3.2c-0.2,1.4,0.3,2.8,1.4,3.7"/>
		<path class="st10" d="M474.4,259.4c1.4,2,3,4.1,6.3,6 M479.4,275.9c-3.2-2.2-9.5-5-15-2.2c-2,0.8-3.6,2.4-4.4,4.4
			c-1.1,3.3-0.4,6.9,1.8,9.5c0.9,1,2.7,2.6,5,2.7c3.8,0,4.7-2.6,4.8-3.2c0.4-2.8-1.2-3.9-2-4.1c-0.7-0.3-2.8-0.2-3.2,1.3
			c-0.2,0.5-0.2,1.3,0.2,2"/>
		<path class="st10" d="M420.5,328.4c1,2.2-0.2,3.2-1.6,3.4c-2.2,0.3-3.3-1.4-3.4-3c-0.2-2.4,1.7-4.5,4.1-4.7c0.1,0,0.1,0,0.2,0
			c2.3,0,4.1,1.5,5,3.5c0.3,0.7,0.5,1.5,0.5,2.4c0.1,1.5-0.4,3-1.4,4.1c-1.4,1.5-3.3,2.4-5.4,2.5c-4.2,0.1-7.5-3.8-7.5-7.8
			c0-7.7,11.4-12,16-13c5.9-1.4,11.9-2.2,17.9-2.4c3.5-0.1,6.2,0,10.1-0.5c3.5-0.3,5.4-0.5,9-1.3c4.7-1,9-3.2,12.6-6.4
			c2.9-2.7,4.5-4.5,5.9-8.2c1.6-4.6,1.1-9.7-1.3-13.9c-2.2-3.7-6-6.2-10.3-6.8c-3.7-0.5-7,1.1-9,4.8c-1,1.8-0.6,4.8,0.1,6.2
			c1,1.7,2.8,2.9,4.8,3c3.8,0,4.7-2.6,4.8-3.2c0.4-2.8-1.2-3.9-2-4.2c-0.7-0.2-2.8-0.1-3.2,1.4c-0.2,0.5-0.2,1.3,0.2,2"/>
		<path class="st10" d="M417.2,316.2c-4.8,2.1-8.4,3.7-11.4,8.5c-0.8,1.5-1.2,3.2-1.2,4.9c0,2.7,1.1,5.7,3.3,7.6
			c1.8,1.6,4.3,2.4,6.7,2c2-0.2,3.7-1.6,4-2.6"/>
		<path class="st9" d="M465.1,224.1c-2.3,0.8-3.9,4.2-3.9,7.5c-0.1,3,1.4,5.9,4,7.5"/>
		<path class="st10" d="M467.6,236.4c-4,5.1-6.3,8.1-6.4,14.1c0,5.7,1.7,9.6,5.1,13.7"/>
		<path class="st9" d="M445.9,152l0.3-0.5c1.7-2.4,4.7-3.1,6.9-1.5c2.6,2,3.3,5.4,2.6,9c-0.5,2.2-2,4.1-4,5.5"/>
		<path class="st10" d="M345.1,150.8c-2.6-1.2-4.7-1-6.3,1c-1.6,2-2.2,4.7-1.6,7.2c0.6,2.7,1.4,3.8,3.5,5.8"/>
		<path class="st9" d="M338.6,152c-2.6-1.9-6.2-1.3-8.1,1.3c-0.1,0.1-0.1,0.2-0.2,0.3c-1.2,1.8-1.8,3.9-1.6,6.1
			c0.2,4.2,2.8,7.6,5.8,9.2"/>
		<path class="st9" d="M329.7,154.8c-3.4,0.4-5.9,3.2-6,6.6c0,4.5,1,6.3,3.5,9.6c2.5,3.4,10.7,9.6,10.7,16.7c0,4.3-1.2,7-4.3,8.4
			c-2,1-4.3,0-5.4-1c-2.6-2.4-1.5-6.5,1.2-7c3.3-0.6,3.9,4.6,0.7,4.3"/>
		<path class="st9" d="M324,159.2c-2.5,0.2-5,2.3-5,5c0,3.8,1.5,5.6,4.6,9.4c2.6,3.3,10.1,9,9.9,14.5c0,2-1.5,4.6-2.9,4.3"/>
		<path class="st10" d="M318,236.1c1.3-2.9,4.4-1.6,4.6,0c0.4,3.7-2.8,4.8-5.1,4.2c-1.1-0.3-2-1-2.5-2c-0.6-1.1-0.8-2.5-0.4-3.7
			c0.2-0.6,0.5-1.1,0.9-1.6c0.3-0.5,0.7-0.9,1.2-1.2c1-0.6,1.9-0.6,3.4-0.6c5.5,0,10.4,6.5,12,13.4c0.6,2.2,1.3,7.3,0.3,12
			c-0.8,4.2-2.8,8.2-5.8,11.3c-2.9,2.7-6.3,4.6-10,5.8c-1.3,0.4-2.6,0.4-3.9,0.1c-2.8-0.9-4.6-3.5-3.2-7c1.2-2.6,5.4-4,7.3-0.6
			c0.2,0.3,0.4,0.9,0.4,1.5c0,0.9-0.4,2-1,2.4c-1.4,0.9-3.7,0.6-3.6-2"/>
		<path class="st9" d="M313.8,270.4c1,0.4,1.6,0.3,2.9-0.2l1.8-1c2.6-1.5,5.6-3.8,8.4-9.1c0.8-1.4,1.3-2.9,1.7-4.5
			c0.3-1,0.5-2.2,0.6-3.3c0.1-5.5-1.6-10.8-4.8-15.3c-1.1-1.6-2-2.5-4.2-2.6 M310.7,265.4c-0.4-2.1,1-4.2,3.1-4.6
			c2.1-0.4,4.2,1,4.6,3.1c0.3,1.4-0.3,2.8-1.4,3.7"/>
		<path class="st9" d="M312.2,261.4c0.3-1.8,1.9-3,3.7-3c2,0.1,3.6,1.7,3.6,3.7c0,1-0.3,1.9-1,2.6"/>
		<path class="st9" d="M319.4,261.3c3.9-2.9,6.2-7.5,6.2-12.4c0-4.1-1.6-8.4-3.6-10"/>
		<path class="st10" d="M324.7,259.4c-1.5,2.5-3.7,4.6-6.3,6"/>
		<path class="st9" d="M334.6,273.7c-1-2.2-2.8-3.2-5.8-3.5s-5.5,0.5-8.2,1.9c-6.6,3.1-10.8,9.7-10.8,17c0,3.3,0.7,6.5,2,9.5
			c0.9,1.6,3,9,15.3,14c8.3,2.6,17,3.9,25.7,3.9c10.4,0.4,20,0.8,25.6,7.6"/>
		<path class="st10" d="M319.7,275.9c3.3-2.2,9.5-5,15.1-2.2c2,0.8,3.5,2.4,4.3,4.4c1.1,3.3,0.4,6.9-1.8,9.5c-0.9,1-2.7,2.6-5,2.7
			c-3.8,0-4.7-2.6-4.8-3.2c-0.4-2.8,1.2-3.9,2-4.2c0.7-0.2,2.8-0.1,3.2,1.4c0.2,0.5,0.2,1.3-0.2,2"/>
		<path class="st9" d="M332.7,285.7c0.3-1,0.2-2.2-0.8-3.3c-1.6-1.6-4-2-6-1c-0.7,0.5-1.6,1-2.4,2.2c-0.4,0.4-1,1.1-1.2,1.6
			c-0.7,1.1-1,2-1,2.5c-2.5,7,1.5,14.4,6.5,17.6c4.4,2.8,8.8,3.6,14.4,4c2.5,0.3,4,0.3,6.5,0.5h9.6c2.4-0.1,4.8-0.1,7.2,0
			c3,0.3,5.1,0.4,7.6,0.8c1.6,0.2,3.5,0.5,5.4,1c0.6,0,1.2,0.2,1.8,0.4l1.2,0.3c3.6,1.1,7,2.4,9.8,4.2c0.8,0.5,1.8,1,2.5,1.7
			l1.3,1.2c2,2,4,4,4.4,6.7v1.6c0,1.8-1.4,4.3-5.3,5"/>
		<path class="st9" d="M378.6,328.4c-1,2.2,0.2,3.2,1.6,3.4c2.2,0.3,3.3-1.4,3.5-3c0.2-2.4-1.7-4.5-4.1-4.7c-0.1,0-0.2,0-0.3,0
			c-2.2,0.1-4.2,1.4-5,3.5c-0.3,0.8-0.5,1.6-0.5,2.4c-0.1,1.5,0.4,3,1.4,4.1c1.4,1.5,3.3,2.4,5.4,2.5c4.2,0.1,7.5-3.8,7.5-7.8
			c0-7.7-11.4-12-16-13c-5.9-1.4-11.9-2.2-17.9-2.4c-3.5-0.1-6.2,0-10.1-0.5c-3.5-0.3-5.4-0.5-9-1.3c-4.7-1-9-3.2-12.5-6.4
			c-6.9-5.1-8.9-14.5-4.7-22c2.2-3.7,6-6.3,10.3-6.9c3.8-0.5,7,1.1,9,4.8c1,1.8,0.6,4.8-0.1,6.2c-1,1.7-2.8,2.9-4.8,3
			c-3.8,0-4.7-2.6-4.8-3.2c-0.4-2.8,1.2-3.9,2-4.2c0.7-0.2,2.8-0.1,3.2,1.4c0.2,0.5,0.2,1.3-0.2,2"/>
		<path class="st10" d="M353.3,152l-0.4-0.5c-1.7-2.4-4.7-3.1-6.9-1.5c-2.6,2-3.3,5.4-2.5,9c0.6,2.3,2,4.3,4,5.5"/>
		<path class="st9" d="M446.8,159.6c-4,4.4-8.1,5.8-14.1,6c-2,0-5.5-0.6-7.6-2.1c-1.3-1-2.8-2.6-1.9-5.5c0.6-1.9,3.7-7.2,3.8-10.9
			c0.3-5.6-1.9-8.7-5.3-9.9c-6.2-2.2-13,4-17,5.4c-2.1,0.7-3.2,0.8-5.1,0.8c-2,0-3-0.1-5.2-0.8c-4-1.4-10.7-7.6-17-5.4
			c-3.4,1.2-5.5,4.3-5.3,10c0.1,3.6,3.2,9,3.8,10.8c1,2.9-0.5,4.5-1.9,5.5c-2,1.5-5.7,2.1-7.5,2c-6-0.1-10.1-1.5-14.1-5.9"/>
		<path class="st10" d="M377.3,314.4c0.8,0.3,0.2-0.2,5.3,2c4.7,1.6,8.6,4.8,11.3,8.9c1.2,2.2,1.5,4.8,0.9,7.3"/>
		<path class="st9" d="M377.7,336c1,0.5,2.1,0.8,3.2,0.9c4.2,0.1,7.5-3.8,7.5-7.8c0-2.8-1.5-5.2-3.6-7"/>
		<path class="st10" d="M378.6,328.4c-1,2.3,0.4,3.5,1.8,3.7c2.2,0.2,3.4-1.4,3.6-3c0.1-1.7-0.7-3.3-2.2-4.2"/>
		<path class="st9" d="M470.1,154.8c3.2,0,6,3.6,6,7.2c0,4.3-2.2,6.9-3.9,8.8c-1.3,1.6-2.7,3-4.4,4.7"/>
		<path class="st10" d="M466.3,151.4c1.1,0.6,2,1.4,2.8,2.4c1.3,2,1.7,3.7,1.6,6.2c-0.2,4.2-3.2,7.1-6,9 M460,151.4l0.6,0.7
			c1.9,2.2,2,5.4,1.6,7.2c-0.5,2.3-1.8,4.2-3.8,5.4 M453.4,150.3c2.6,2,3.4,5.4,2.5,9c-0.6,2.5-2.2,4-4.2,5.2 M462.8,205.6
			c0.3,1,0.9,1.3,1.5,2c1.7,1.7,3.9,2.9,6.2,3.5c2.4,0.7,4.6,0.2,6.3-0.9 M313.8,264.2c1.2,0,2.5,0.9,3.3,2.3
			c0.1,0.2,0.4,0.8,0.4,1.5c0,0.9-0.4,1.8-1,2.2c-1.5,1-4,0.5-4-2"/>
		<path class="st9" d="M321.5,231.3c5,1,9.7,6.9,11.2,13.3c0.6,2.3,1.3,7.3,0.3,12c-0.8,4.3-2.9,8.3-6,11.4
			c-0.6,0.7-1.3,1.3-2.1,1.9l-1,0.7 M315.9,258.5c2,0,3.8,1.9,3.8,4c0,1-0.3,1.9-1,2.6"/>
		<path class="st9" d="M314.6,260.7c2.1,0,4.1,2,4.1,4.2c0,1.2-0.5,2.3-1.4,3"/>
		<path class="st10" d="M334,239.5c1.9,2.2,3.2,4.9,3.8,7.7 M337.8,255.7c-0.3,1.4-0.8,2.7-1.5,4c-0.9,1.8-2.1,3.3-3.6,4.7"/>
		<path class="st9" d="M334.3,224.3c1.8,1.5,3,3,3.5,4.8"/>
		<path class="st10" d="M337.9,219.5c-0.7,1.8-1.8,3.4-3.4,4.6 M325.3,206.9l2.2-0.6l1.3-1l0.8-1.1l0.7-1.8l0.3-1.5"/>
		<path class="st9" d="M321,199.3c-0.7,0.2-1.6,0.4-2.5,0.8c-1.4,0.7-2.6,1.7-3.5,3c-2.4,3.8-3.2,8.3-2.2,12.7
			c0.4,2,1.2,3.9,2.3,5.6l1,1.4c1.4,1.3,2.6,2,4.6,1.7"/>
		<path class="st10" d="M333,189.8c-0.3,1.3-1,2.9-3,2.7"/>
		<path class="st9" d="M325.7,198.5c-2-1.9-6-2.4-10.1,0.2L314,200c-0.5,0.5-1,1-1.4,1.6c-1.1,1.5-1.9,3.2-2.4,5
			c-0.7,3-0.7,5.6-0.6,6.3c0,1,0.2,1.9,0.3,2.7c0.6,2.8,1.4,4.8,2.3,6.2c0.9,1.5,3,5,7.7,5.4c1.8,0.1,4.8-0.7,5-3"/>
		<path class="st10" d="M443.8,157c0.3-1.6,2.3-1.9,3-1c1.2,1.6,0.4,4.2-2,4.9c-1.4,0.3-2.9-0.3-3.8-1.4c-1-1.3-0.9-2.8-0.5-4
			c0.2-0.8,0.9-1.5,1.7-2.2c2.7-2,7.1-1.6,8.6,2c1.8,4.4-2.2,7.8-6,10.3c-4.6,3.2-10,3.8-14,3.7c-9.2,0-16.1-4.4-20.7-7
			c-1-0.5-2.1-0.4-2.7,0.3c-0.6,0.8-0.5,2,0.3,2.7"/>
		<path class="st10" d="M445.6,155.5c1,0,1.2,0.4,1.5,0.8c1.2,1.5,0.3,4.1-2,4.9 M462.9,212.7c-3.5,3.8-0.2,10.3,2.4,11.8
			c0.9,0.7,1.3,0.3,2,0.7"/>
		<path class="st9" d="M463.1,205.4c-1.1,0.8-1.5,1.7-1.6,3.3c-0.1,1.5,0.4,2.9,1.4,4c2.5,2.3,5.8,3.7,9.3,3.7c2,0,4-0.4,6-1.7
			c1.9-1.3,3.3-3.2,3.8-5.4 M461.2,271.1l-0.2,2.5c-0.2,2.4-0.9,4.8-2,7c-1,2.1-2.5,4-4.2,5.6c-1.7,1.7-3.7,3-5.9,4
			c-2,1.1-4.2,1.8-6.5,2.3c-4.3,0.9-8.8,1.1-13.2,0.6c-2.7-0.2-4.1-0.5-6.8-0.8c-2.2-0.1-3.4-0.3-5.6-0.3c-3.7-0.1-7.4,0.6-10.9,1.9
			c-2.7,1-5.7,3-6.4,3.8c-0.6-0.9-3.7-2.8-6.3-3.8c-1.7-0.7-3.4-1.2-5.2-1.5c-2.2-0.4-3.5-0.4-5.8-0.4c-2.2,0-3.4,0.2-5.6,0.4
			c-2.6,0.2-4,0.6-6.7,0.7c-2.5,0.2-3.9,0.3-6.3,0.2c-2.4,0-4.7-0.3-7-0.8c-2.3-0.4-4.4-1.2-6.5-2.2c-2.2-1-4.1-2.4-5.8-4.1
			c-1.8-1.6-3.2-3.5-4.2-5.7c-1.1-2.2-1.8-4.5-2-6.9c-0.2-1-0.2-2.5-0.2-2.5V169.3h123.2v101.8H461.2z"/>
	</g>
	<g>
		<path class="st12" d="M328,285.6c0-1.4,1.1-2.5,2.5-2.5s2.5,1.1,2.5,2.5s-1.1,2.5-2.5,2.5S328,287,328,285.6z M312.5,268
			c0-1.3,0.8-2.3,1.8-2.3s1.7,1,1.7,2.3c0,1.2-0.8,2.2-1.7,2.2C313.3,270.2,312.5,269.2,312.5,268z"/>
		<path class="st3" d="M321.3,223.6c0-1,0.8-1.8,1.7-1.8c1,0,1.7,0.8,1.7,1.8s-0.7,1.8-1.7,1.8S321.3,224.6,321.3,223.6z M352,158
			c0-1,0.5-2,1.4-2c0.9-0.1,1.7,0.6,1.8,1.6c0,1-0.5,2-1.4,2C352.9,159.7,352.2,159,352,158z"/>
	</g>
	<g>
		<path class="st13" d="M319.3,234c-0.4,0.1-0.6,0.2-0.8,0.5c-0.3,0.3-0.4,0.4-0.6,0.9l-0.2,1.2 M322.4,263.3l1-1l0.6-1l0.5-1
			l0.7-1.3 M323.9,273l-1.5,0.7l-1.1,0.6c-0.4,0.2-0.9,0.5-1.3,0.8l-1.2,1 M333.8,238.2l-0.8-0.8l-1-0.8l-0.9-0.8"/>
		<path class="st14" d="M334.2,225l-1.2,0.5c-0.5,0.2-1,0.3-1.5,0.3"/>
		<path class="st13" d="M317.4,208.4c0.2,0.6,0.2,1,0.5,1.5c0.2,0.7,0.5,1.1,0.9,1.7c0.6,1.1,1.5,2,2.6,2.7l1.5,0.8 M321.9,209.3
			l1.3,0.6c0.9,0.4,2,0.6,3,0.6l1.8-0.1 M335.2,169.7l-2-1.2c-0.9-0.5-1.3-0.9-2-1.5c-0.4-0.4-0.8-0.8-1.1-1.3l-0.8-1.3
			 M336.8,159.8l0.6,1.7c0.4,0.7,0.8,1.4,1.4,2c1,1,1.7,1.3,2.8,2.2 M343,159.7c0.3,0.7,0.3,1,0.7,1.6c0.2,0.5,0.4,0.8,0.8,1.2
			l1.3,1.3c0.7,0.6,1.2,0.7,2,1.1"/>
	</g>
	<path class="st15" d="M413.3,151.6c0-1.7-1.7-1.8-2.4-1.8c-1.8,0-2.3,1.1-4.6,2.3c-2,1.3-4.3,2-6.7,2c-2.4,0-4.7-0.7-6.7-2
		c-2.3-1.2-2.7-2.3-4.6-2.3c-1.3,0.1-2.3,1.1-2.2,2.4c0,0,0,0,0,0v0.9l0.3,0.2c0-0.8,0.1-1.2,0.5-1.7c0.4-0.5,1-0.8,1.6-0.8
		c1.8,0,2.5,1.2,4.8,2.4c3,1.6,4.2,1.9,6.7,2c2.4,0,4.8-0.7,6.8-2c2.3-1.2,3-2.5,4.8-2.5c0.6,0,1,0.4,1.3,1v0.9l0.2,0.1
		C413.1,152.4,413.3,152.3,413.3,151.6L413.3,151.6z"/>
</g>
<g>
	<path class="st16" d="M344.4,294c0.5-0.5,0.9-0.3,1-0.6c0-0.2,0-0.2-0.3-0.3l-0.9-0.2l-0.8-0.4c-0.1,0-0.4-0.2-0.5,0
		c-0.1,0.4,1,0.4,0.6,1.4c-0.2,0.4-0.5,0.9-0.8,1.2l-2.6,3l-0.2,0.1v-4.3l0.1-1.8c0.2-0.4,0.8,0,0.9-0.4c0-0.1,0-0.2-0.3-0.3
		c-0.2,0-0.5,0-1.1-0.3l-1-0.5c-0.2,0-0.5-0.2-0.6,0l0.1,0.3c0.4,0.2,0.5,0.4,0.5,1v7.4c0,0.5,0.1,0.6,0.2,0.7c0.1,0,0.2,0,0.4-0.3
		L344.4,294L344.4,294z"/>
	<path class="st16" d="M347.5,295.2c0.3-1.1,1-0.4,1-0.8c0.1-0.2,0-0.2-0.2-0.3l-1.3-0.4c-0.4,0-0.8-0.3-1.2-0.4c0,0-0.3-0.1-0.4,0
		c-0.1,0.5,1.1,0.5,0.8,1.5l-1.7,5.5c-0.3,1-1,0.6-1.1,1v0.1l1.2,0.4l1.6,0.5h0.3c0.2-0.4-1.2-0.3-0.7-1.7L347.5,295.2L347.5,295.2z
		 M351.2,296.2c0.2-0.6,0.5-0.5,0.9-0.4c1,0.3,1.4,1.3,1,2.5c-0.2,0.6-0.4,1.2-2,0.8c-0.3-0.1-0.7-0.2-0.6-0.5l0.7-2.3V296.2z
		 M348.4,301.2c-0.5,1.4-1.2,0.8-1.3,1.2c0,0.2,0.2,0.2,0.3,0.3l1.6,0.4l0.8,0.3h0.4c0.1-0.5-1-0.3-0.7-1.5l0.6-2
		c0.1-0.4,0.1-0.5,0.6-0.3c0.6,0.1,0.7,0.3,0.8,0.8l0.3,2c0.2,0.9,0.3,1.7,1,2c0.5,0,1.2,0,1.4-0.4l-0.2-0.2h-0.3c0,0-0.3,0-0.3-0.3
		l-0.7-3.6c0-0.2,0.4-0.2,0.8-0.3c0.5-0.3,0.9-0.7,1-1.3c0.1-0.5,0.4-2.2-1.8-2.9l-2.1-0.5l-1.2-0.4h-0.3c-0.1,0.5,1.1,0.4,0.7,1.7
		l-1.5,5L348.4,301.2z M356.8,303.7c-0.4,1.4-1.4,0.5-1.5,1c0,0.2,0.1,0.3,0.3,0.3l1.5,0.3l1.4,0.4c0.3,0,0.5,0.2,0.6-0.1
		c0-0.3-1.3-0.3-1-1.8l1.3-5.2c0-0.6,0.2-0.6,0.6-0.5l1,0.2c1.1,0.3,0.5,1.5,1,1.6c0.2,0,0.2-0.4,0.2-0.6l0.1-1v-0.4l-3.3-0.7
		l-3.2-0.8c-0.1,0-0.2,0-0.2,0.2l-0.5,1.5c-0.1,0.1-0.2,0.4,0,0.4c0.5,0.1,0.5-1.5,1.7-1.2l0.9,0.2c0.4,0.1,0.5,0.2,0.4,0.8
		L356.8,303.7L356.8,303.7z M369.5,300.4c0.4-0.6,0.8-0.5,0.9-0.7c0-0.2-0.2-0.2-0.4-0.3h-0.9l-0.9-0.3c-0.1,0-0.4-0.1-0.4,0.1
		c-0.1,0.4,1,0.2,0.8,1.3c0,0.2-0.1,0.6-0.6,1.3l-2,3.3l-0.3,0.2v-0.2l-0.7-4c-0.1-0.6-0.2-1.2-0.1-1.8c0-0.5,0.7-0.2,0.7-0.5
		c0-0.2,0-0.2-0.4-0.3l-1.1-0.1c-0.4,0-0.7-0.2-1-0.3c-0.2,0-0.5-0.1-0.6,0.1l0.1,0.2c0.5,0.2,0.6,0.4,0.7,0.9l1.3,7.3
		c0.1,0.5,0.2,0.7,0.3,0.7c0.1,0,0.2,0,0.4-0.3L369.5,300.4L369.5,300.4z M370.1,307.2c0,0.3,0,0.3,0.2,0.5c0.6,0.2,1,0.6,1.7,0.7
		c1.4,0.2,2.6-0.7,2.8-2.2c0.3-1.5-0.3-2.1-1.4-2.9c-1.3-0.9-1.8-1.1-1.7-2c0.1-0.7,0.7-1,1.4-1c1.8,0.3,1.6,2.6,1.8,2.6
		c0.3,0,0.3-0.1,0.3-0.4l0.2-1.6v-0.4h-0.6c-0.4,0-0.7-0.5-1.6-0.7c-1.2-0.2-2.3,0.7-2.5,2c-0.2,1.2,0.4,1.8,1.2,2.4
		c1.6,1.1,2.2,1.4,2,2.4c-0.1,1-0.9,1.4-1.7,1.3c-1.2-0.2-1.6-1.4-1.8-2.6c0-0.2,0-0.3-0.2-0.3s-0.2,0.3-0.2,0.5v1.7H370.1z
		 M385.9,302.7c0.3-0.7,0.8-0.6,0.8-0.9c0-0.2-0.1-0.1-0.4-0.2h-0.9l-0.9-0.1c-0.1,0-0.4,0-0.4,0.2c0,0.4,1,0,1,1.1
		c0,0.2-0.1,0.6-0.5,1.4l-1.8,3.5l-0.1,0.3l-0.1-0.3l-1.1-4c-0.2-0.5-0.3-1.1-0.3-1.6c0-0.5,0.7-0.3,0.7-0.6c0-0.2,0-0.2-0.4-0.2
		h-1.2l-1-0.2c-0.2,0-0.5-0.1-0.6,0.1l0.2,0.2c0.4,0.2,0.6,0.3,0.7,0.8l2.1,7.1l0.4,0.7c0.1,0,0.2,0,0.3-0.4l3.5-7L385.9,302.7z"/>
	<path class="st16" d="M387.6,308.5c0,1.2-1,1-1,1.5c0,0.2,0.1,0.1,0.3,0.1h2.2l0.4-0.1c0-0.6-1.4,0.2-1.4-2v-4.2l0.1-0.1l0.2,0.1
		l5.1,6.3l0.3,0.1l0.2-0.3v-6.7c0-1.3,1-1,1-1.3c0,0,0-0.2-0.3-0.2h-2.3c-0.2,0-0.2,0.1-0.2,0.2c0,0.4,1.3,0.2,1.3,1.3v4l-0.1,0.4
		l-0.4-0.3l-4.2-5.3c-0.2-0.3-0.1-0.3-0.4-0.3h-1.8l-0.2,0.1c0,0.6,1.2-0.2,1.2,2.1L387.6,308.5L387.6,308.5z M398,303
		c0-1.1,0.8-0.7,0.8-1.1c0-0.1,0-0.2-0.4-0.2h-2.6c0,0-0.3,0-0.3,0.2c0,0.4,1.1,0,1.1,1.2v5.7c0,1.1-0.8,0.8-0.8,1.2
		c0,0,0,0.2,0.2,0.2h2.8c0.2,0,0.3,0,0.3-0.2c0-0.4-1.2,0.2-1.2-1.3L398,303L398,303z M402.5,308.5c0,1.5-1.2,1-1.2,1.4
		c0,0.2,0.2,0.2,0.4,0.2h3c0.3,0,0.5,0,0.5-0.3s-1.4,0-1.4-1.4V303c0-0.6,0-0.6,0.5-0.6h1c1.2-0.1,0.8,1.2,1.3,1.2
		c0.2,0,0.1-0.4,0.1-0.6l-0.1-1c0-0.2,0-0.4-0.2-0.4l-3.3,0.1h-3.3l-0.2,0.3l-0.1,1.6l0.1,0.4c0.5,0,0.2-1.6,1.4-1.6h0.9
		c0.4,0,0.5,0,0.6,0.6v5.6L402.5,308.5z M408.8,306.3h-0.4l0.1-0.5l0.7-2.2v-0.2l0.2,0.1l1,2.1l0.2,0.4c0,0.2-0.2,0.2-0.4,0.2h-1.4
		L408.8,306.3z M410.6,306.8c0.3,0,0.3,0,0.8,1l0.2,0.8c0,0.7-0.7,0.6-0.7,1c0,0.1,0.2,0.1,0.4,0h1.2l1.3-0.1c0.3,0,0.4,0,0.4-0.2
		c0-0.4-0.6,0-1-0.7l-3.4-7l-0.3-0.4c-0.2,0-0.2,0.2-0.3,0.4L407,309c-0.2,0.7-0.8,0.7-0.7,1h2.3c0.2-0.1,0.5,0,0.5-0.3
		s-1.2,0-1.3-0.9l0.2-1c0.2-0.8,0.4-0.8,0.6-0.8l2.1-0.2L410.6,306.8z M418.9,301.8c-0.1-0.8,0-0.8,1.2-1c2-0.2,1.4,1.3,2,1.2
		c0.2,0,0-0.4,0-0.6l-0.1-1.1c0-0.1-0.1-0.2-0.3-0.2c-1,0-1.7,0.2-2.4,0.3l-2.8,0.4c-0.2,0-0.3,0-0.3,0.2c0.1,0.5,1.3,0,1.4,1
		l0.7,5.5c0.2,1.5-0.7,1-0.6,1.5c0,0,0,0.1,0.2,0l1.4-0.1l1.2-0.1c0.3,0,0.5,0,0.5-0.3s-1.2,0.1-1.4-1.2l-0.2-1.7
		c-0.1-0.7-0.1-0.9,0.3-1h0.8c1.1-0.2,1,1.1,1.3,1c0.3,0,0.2-0.4,0.1-0.5l-0.3-2.1c0-0.3-0.2-0.3-0.2-0.3c-0.3,0-0.1,1.1-1,1.2
		l-0.7,0.1c-0.5,0.1-0.5,0-0.6-0.5L418.9,301.8L418.9,301.8z M422.9,304.6c0.4,2.3,2.1,3.7,4.2,3.3c3.4-0.7,3.5-3.6,3.2-5.3
		c-0.5-2.5-2.3-3.7-4.4-3.3C423.4,299.8,422.4,302,422.9,304.6L422.9,304.6z M424,303.6c-0.3-1.6,0-3.4,1.7-3.7
		c1.4-0.3,3,0.8,3.4,3.4c0.3,2,0,3.6-1.8,4C425.4,307.7,424.3,305.3,424,303.6L424,303.6z M432.3,299.5c-0.1-0.7,0.2-0.8,0.6-0.9
		c1-0.2,1.8,0.5,2.1,1.6c0.2,0.7,0.3,1.4-1.3,1.8c-0.3,0-0.7,0.1-0.8-0.2l-0.5-2.3H432.3z M432.3,305.2c0.4,1.4-0.5,1.3-0.5,1.6
		c0.1,0.3,0.3,0.2,0.4,0.1c0.6,0,1-0.3,1.6-0.4l1-0.2c0.2,0,0.2-0.1,0.2-0.2c0-0.4-1,0.3-1.3-1l-0.5-2c0-0.4-0.2-0.4,0.4-0.5
		c0.5-0.2,0.7-0.1,1.1,0.3l1.3,1.6c0.5,0.6,1,1.3,1.8,1.1c0.5-0.1,1-0.5,1-0.9l-0.2-0.1l-0.3,0.1c0,0-0.3,0.1-0.4,0l-2.4-2.9
		l0.5-0.6c0.2-0.4,0.4-0.9,0.2-1.6c-0.1-0.5-0.7-2.1-3-1.6l-2.1,0.6l-1.2,0.2c-0.2,0-0.3,0.1-0.2,0.2c0,0.5,1.1-0.2,1.4,1
		L432.3,305.2L432.3,305.2z M441,303.2c0.3,1.4-1,1.2-0.9,1.6c0,0.3,0.3,0.2,0.5,0.2l1.4-0.5l1.5-0.3c0.3,0,0.5,0,0.4-0.4
		c0-0.3-1.3,0.4-1.7-1l-1.3-5.3c-0.2-0.5,0-0.6,0.3-0.7l1-0.2c1.1-0.4,1.1,1,1.5,0.9c0.3,0,0-0.5,0-0.7l-0.4-1c0,0,0-0.3-0.2-0.2
		l-3.2,0.9l-3.2,0.7v0.3l0.1,1.6c0,0.2,0,0.4,0.3,0.4c0.5-0.1-0.3-1.6,1-1.9l0.8-0.2c0.4-0.1,0.6,0,0.7,0.5L441,303.2L441,303.2z
		 M446.5,295.9c-0.3-1,0.6-0.9,0.4-1.3h-0.3l-1.4,0.4l-1.2,0.3c0,0-0.3,0-0.3,0.2c0.1,0.4,1.2-0.2,1.5,0.8l1.6,5.6
		c0.2,1-0.6,1-0.5,1.3c0,0.1,0,0.2,0.2,0.1l1.1-0.3l1.6-0.4c0.3,0,0.3-0.1,0.3-0.3c-0.1-0.3-1.1,0.5-1.5-0.9L446.5,295.9
		L446.5,295.9z M448.8,298.6c0.7,2.3,2.6,3.4,4.7,2.7c3.2-1.1,3-4.1,2.4-5.7c-0.8-2.4-2.8-3.3-4.8-2.7
		C448.7,293.8,447.9,296.1,448.8,298.6L448.8,298.6z M449.8,297.6c-0.6-1.7-0.6-3.5,1.1-4c1.3-0.5,3,0.4,3.9,2.9
		c0.6,1.8,0.5,3.6-1.2,4.2c-1.8,0.6-3.2-1.5-3.8-3.2V297.6z M457.4,292.1c-0.2-0.7,0-0.8,0.4-1c1-0.3,2,0.3,2.4,1.4
		c0.2,0.6,0.4,1.3-1.1,1.9c-0.3,0-0.7,0.2-0.8,0L457.4,292.1z M458.2,297.7c0.6,1.4-0.4,1.4-0.2,1.7c0,0.3,0.2,0.1,0.4,0.1l1.5-0.7
		l0.9-0.2c0.2-0.1,0.2-0.2,0.2-0.3c-0.2-0.4-1,0.4-1.4-0.8l-0.8-1.9c-0.2-0.4-0.2-0.5,0.3-0.7s0.7-0.1,1.1,0.3l1.6,1.4
		c0.5,0.5,1.1,1.1,2,0.8c0.3-0.2,0.9-0.7,0.7-1l-0.2-0.1l-0.2,0.2h-0.5l-2.8-2.5l0.4-0.7c0.2-0.5,0.2-1.1,0-1.6
		c-0.1-0.6-1-2-3.1-1.2l-2,0.9l-1.2,0.4l-0.2,0.2c0.2,0.4,1.1-0.4,1.6,0.8L458.2,297.7L458.2,297.7z"/>
</g>
<g transform="matrix(.64 0 0 .64 0 16)">
	<path class="st17" d="M537.7,249.3h82.1v82h-82.1V249.3z"/>
	<path id="a" class="st18" d="M576.2,313.8c0,0,0,3-0.8,5.3c-1,2.7-1,2.7-1.9,4c-1,1.6-2.3,2.9-3.8,4c-2,1.2-4,1.8-6,1.6
		c-5.4-0.4-8-6.4-9.2-11.2c-1.3-5.1-5-8-7.5-6c-1.4,1-1.4,2.8-0.3,4.6c1.1,1.3,2.5,2.3,4.1,2.8l-2.9,3.7c0,0-6.3-0.8-7.5-7.4
		c-0.5-2.5,0.7-7.1,4.9-8.5c5.3-1.8,8.6,2,10.3,5.2c2.2,4.4,3.2,12.4,9.4,11.2c3.4-0.7,5-5.6,5-7.9l2.4-2.6L576.2,313.8L576.2,313.8
		L576.2,313.8z"/>
	<g transform="matrix(-1 0 0 1 907.5 0)">
		<path id="a_1_" class="st18" d="M581.3,313.8c0,0,0,3,0.8,5.3c1,2.7,1,2.7,1.9,4c1,1.6,2.3,2.9,3.8,4c2,1.2,4,1.8,6,1.6
			c5.4-0.4,8-6.4,9.2-11.2c1.3-5.1,5-8,7.5-6c1.4,1,1.4,2.8,0.3,4.6c-1.1,1.3-2.5,2.3-4.1,2.8l2.9,3.7c0,0,6.3-0.8,7.5-7.4
			c0.5-2.5-0.7-7.1-4.9-8.5c-5.3-1.8-8.6,2-10.3,5.2c-2.2,4.4-3.2,12.4-9.4,11.2c-3.4-0.7-5-5.6-5-7.9l-2.4-2.6L581.3,313.8
			L581.3,313.8L581.3,313.8z"/>
	</g>
	<path class="st1" d="M586.1,279l10.8-11.7c0,0,1.6-1.3,1.6-3.4l-2.2,0.4l-0.5-1.2l-0.1-1.1l3-0.7V260l0.3-1.3l-3.2,0.2l0.3-1.4
		l0.5-1l1.9-0.4h1.9c1.8-3.4,9.2-6.4,14.4-1c3.8,4,3,11.2-2,13.2c-2.3,1-5,0.6-6.8-1.1l2-4c2.7,1.7,5-0.3,4.8-2.4
		c-0.2-2.7-2-4.3-4.3-4.5s-4,1-5,3c-0.6,1.3-0.3,2.2-0.5,3.6c-0.2,1.5,0,2.3-0.5,3.8c-0.5,1.4-1.3,2.6-2.4,3.6l-11,12l-43,46.4
		l-3.2-3L586.1,279L586.1,279z"/>
	<path class="st18" d="M554.5,283c0,0,2.7,13.4,11.9,33.5c4.7-1.7,7.4-2.8,12.4-2.8c4.9,0,7.6,1,12.3,2.8c5.1-10.7,9.1-22,11.9-33.5
		l-24.2-31l-24.4,31H554.5z"/>
	<path class="st1" d="M581.1,262.4l16.8,21.7c0,0-2.2,10.5-9,26.3c-2.7-0.6-5-1.1-7.8-1.3V262.4z M576.4,262.4l-16.8,21.7
		c0,0,2.2,10.5,9,26.3c2.7-0.6,5-1.1,7.8-1.3V262.4z"/>
</g>
<g>
	<path class="st1" d="M402.3,175.5h52.6V228h-52.6V175.5z"/>
	<path class="st17" d="M409.7,175.5h7.8V228h-7.8V175.5z M424.7,175.5h7.8V228h-7.8V175.5z M439.7,175.5h7.9V228h-7.9V175.5z"/>
</g>
<g>
	<path class="st1" d="M344.3,273.5c0.1,1,0.5,2.6,1.4,4.3c1,1.5,0.6,1.4,2.7,3.8c1.2,1.2,2.5,2.2,4,2.9c4.7,2,9.9,2.9,15,2.6
		c2.7-0.1,4.8-0.4,6.6-0.7c3.6-0.5,7.3-0.7,11-0.6c1.5,0,3,0.3,4.7,0.6c3.5,0.7,7,2,7,2v-54.7h-52.6V271l0.2,2.4L344.3,273.5z"/>
	<path class="st19" d="M350.4,283.1l2.5,1.5l3.4,1.2v-52.2h-5.9V283.1z M379.6,285.5v-51.9h-5.8v52.8l5.8-0.7V285.5z M391.3,233.6
		h-5.8v52.1c1.9,0.2,3.8,0.6,5.8,1v-53V233.6z M367.9,233.6V287c0,0-3.8,0.2-5.8,0v-53.4H367.9z"/>
</g>
<g transform="matrix(.64 0 0 .64 0 16)">
	<path class="st1" d="M710.5,402.4c-0.4,2.3-1.1,4.5-2.2,6.6c-1.5,2.3-1,2.3-4.3,6c-3.6,3.5-8.1,6-13,7c-5.4,1.4-11,2-16.6,1.6
		c-4.3-0.2-7.5-0.7-10.3-1c-3.8-0.6-6.7-0.9-11-1c-2.1-0.1-4.1-0.1-6.2,0c-6.2,0.7-12.4,2.1-18.3,4.2V340h82.2v58.5l-0.3,3.8
		L710.5,402.4z"/>
	<g id="b">
		<path class="st17" d="M649.6,347l-0.6,0.2l-0.8,0.8c-0.4,0.4-0.7,0.5-1.2,0.8l-0.6,0.5c-0.3,0.3,0,0.6-0.3,1
			c-0.1,0.4-0.3,0.6-0.6,1c-0.4,0.4-0.7,0.5-1,1l-1.2,1l-0.3,0.1h-0.6c-0.4,0.2-0.5,0.6-0.8,0.8l0.3,0.6l0.8,1.4
			c0.2,0.3,0.2,0.7,0.5,0.8c0.5,0.2,0.9,0.2,1.3,0.1c0.8,0.2,1.3,0.2,2,0.5l1.5,0.8c0.5,0.3,0.8,0.4,1.3,0.5h1.8v0.3l2,1
			c0,0.1-0.1,0.3-0.1,0.4c-0.1,0.3-0.2,0.7-0.1,0.8c0.6,1.9,1.2,3,1.5,3.2c0.6,0.2,0.8,0.9,1.1,1.5l-0.3,0.3c-0.6,0.6-1.2,1-1.7,1.8
			c-0.7,1.2-1.2,1.2-0.3,2.8l1.5,2.4c0.4,0.7,0.6,1.2,0.8,2c0.2,0.7,0.3,1.2,0.3,2l1,0.3l0.7-0.6l0.6-1.2v-1
			c-0.2-0.1-0.3-0.4-0.2-0.7c0-0.4,0.5-0.3,0.7-0.6c0.3-0.5-0.4-0.8-0.7-1.1c-0.6-0.7-1.4-0.9-1.6-1.9c0-0.2,0-0.4,0.4-0.7l2-1.8
			c0.2,0.1,0.6,0.2,1,0.1l1.3,0.4c0.6,0.2,0.9,0,1.2,0h0.4l0.1,0.6c0.1,1-0.1,3,0.2,3.5l0.3,0.6l0.2,0.6v2l-0.2,1.7
			c0,0.4-0.2,0.7-0.5,1c-0.2,0.4-0.6,0.4-1,0.7v1l1.1,0.5l1.3,0.3l0.7-0.3l0.1-0.6l0.5-0.5c0.4-0.2,0.8,0,0.9-0.1
			c0.2-0.3,0-0.4,0-0.8c0-0.6-0.2-1-0.3-1.6c-0.1-0.9-0.2-1.9-0.1-2.8c0-0.6,0-1,0.2-1.5c0.1-1,0.4-1.4,0.6-2.2
			c0.3-1,0.3-1.6,0.4-2.5c3.4,0.5,6.8,0.3,10.1-0.6c0.8,0.7,1.7,1.2,2.7,1.6v1c0,0.3,0,0.4,0.2,0.7l0.3,0.3c0.3,0,0.5,0,0.7-0.2
			s0.2-0.4,0.2-0.7v-0.7h1.8v1.1c0.1,0.3,0.3,0.4,0.5,0.4c0.2,0.1,0.4,0.1,0.6,0c0.3-0.2,0.2-0.6,0.3-1v-0.7l1-0.4
			c0,0.3,0,0.6,0,0.9l-0.3,0.9c-0.2,0.6-0.5,0.8-0.8,1.4c-0.4,0.6-0.5,1-1,1.5l-0.6,0.7l-0.6,0.9l-0.9,1c-0.7,0.6-1.2,0.2-2,0.9
			l-0.3,1l1.4,0.6l1.3,0.2l0.4-0.2c0-0.3,0-0.6,0.3-0.8c0.2-0.3,0.4-0.3,0.7-0.4c0.4,0,0.8,0,1-0.2c0.4-0.3,0.4-1,0.7-1.5
			c0.7-1.5,1.8-2.8,3-3.9l1.7-1.4c0.2-0.4,0.5-0.5,0.5-1l-0.2-0.6l-0.2-1c1.5,0.7,1,0.7,1.2,1.4c0.3,0.6,0,1,0.1,1.7
			c0.1,0.8,0.5,1.1,0.5,1.9c0.1,0.9-0.1,1.4-0.3,2.3c-0.1,0.8-0.1,1.3-0.5,2c-0.2,0.6-0.6,1.1-1.1,1.5l-0.6,0.5l-0.1,1l1.1,0.4
			l1.6,0.4l0.4-0.3c0.2-0.7,0-1.7,0.4-1.7c0.4-0.1,0.7,0,0.8-0.3v-0.7l0.7-4.5l0.4-1.9l0.4-1.7c0.7-2-0.2-2.3-1-3.6
			c-0.5-0.7-0.7-1-0.7-1.5V362c0-0.9,0-1.9,0-2.8l0.4-0.2c1.2-0.7,1.7-0.9,2.4-2.5c0.2-0.5,0.3-1,0.3-1.5v-1l-0.4-1
			c-0.2-0.3-0.4-0.6-0.6-0.8c-0.7-1-1.7-1.1-2.7-1.5c-1.5-0.5-2.5-0.4-4-0.5c-1.8-0.2-2.7-0.2-4.4,0c-2,0-3.1,0.4-5.1,0.7l-4.9,0.4
			c-2.3,0-4.4-0.5-5.8-0.4c-2.4,0.2-2.5,0.8-6.2,1.1c-1.3,0.1-2.5,0.2-3.8,0.2l-2.2-0.7c0.9-0.3,1.1-0.5,1.5-1
			c0.3-0.4,0.2-0.7,0.6-1.1l0.7-1c-0.3-0.2-0.6-0.3-0.9-0.4h-1c-0.4,0-0.8,0.1-1.2,0.3l-0.8,0.6l-2.2-1.2c-0.9-0.5-2-0.8-3-0.9
			L649.6,347z"/>
		<g>
			<path class="st20" d="M693.8,359.5l-0.8,0.3c-0.9,0.4-1.6,0.4-2.6,0.5c-2.6,0.2-4.3-1.1-7-0.9c-1.4,0.1-2,1.2-3.5,1.6
				c-0.6,0.1-1.1,0.2-1.7,0.2l0.5-1c0,0-1.2,0.3-2,0.3c-0.5,0-1.1-0.1-1.6-0.2l1-1l-1.3-0.2c-0.4-0.2-0.7-0.4-1-0.7
				c0.6-0.1,1.1-0.2,1.7-0.3c1.5-0.4,2-1.2,3.9-1.4c1.1,0,3,0,7.6,0.8c3,0.5,4.4,0.2,5.5-0.3c0.8-0.3,1-1,1.1-1.8s-0.4-1.4-0.8-1.8
				c-0.1,0-0.5-0.3-1.1-0.4"/>
			<path class="st21" d="M649.8,350.6c-0.5,0-0.9,0-1.3,0.3c-0.5,0.3-0.6,0.7-1,1.1c0.5,0.1,0.8,0.4,1.2,0.3c0.4,0,0.5-0.2,0.8-0.5
				c0.3-0.4,0.4-0.7,0.4-1.2L649.8,350.6L649.8,350.6z"/>
			<path class="st20" d="M661,363.8c0.3,0.8,0.6,1.6,1,2.3c0.2,0.8,0,1.2,0.2,2v1.6 M669,362.7l-0.3,1.3l-1,3.5v0.7 M656.7,364.2
				c0.9,0.2,0.6,3.3,1.9,4"/>
			<path class="st22" d="M685.1,369.8l0.4-0.3c1-0.4,1.9-1,2.7-1.8"/>
			<path class="st20" d="M677.4,368c3.5-0.9,5.9-2.6,7.6-2.9 M681,363.6h0.8c1.5-0.3,1.7,0.6,2.7,1.2c1.9,1,2.1,2.3,4.3,3.4l0.4,0.1
				l0.8,0.4"/>
			<path class="st21" d="M642.7,354.5h0.7l0.8-0.2c0.3,0,0.5,0,0.7,0.2c0.2,0,0.2,0.1,0.3,0.3c0,0.2,0.2,0.3,0.1,0.5
				c0,0.2-0.3,0.4-0.6,0.4c-0.2,0-0.4,0-0.5-0.3c-0.1-0.1-0.1-0.3,0-0.4c-0.3,0.1-0.6,0.1-0.9,0C643,354.9,642.8,354.7,642.7,354.5z
				"/>
		</g>
		<path class="st23" d="M650.1,364.2l-2-0.9c0.4-0.2,0.7-0.2,1-0.5c0.3-0.4,0.3-0.8,0.5-1.3s0.2-1,0.7-1.4c0.3-0.2,0.8-0.2,1.1-0.1
			c0.4,0,0.8,0.4,0.9,0.7c0,0.6-0.2,1-0.3,1.5c0,0.6-0.3,0.9-0.2,1.4c0,0.4,0.2,0.6,0.4,1l-2-0.4L650.1,364.2z M649.1,365.2
			c0-0.3,0.2-0.6,0.5-0.7s0.6,0.2,0.7,0.5c0,0.3-0.2,0.6-0.5,0.7C649.5,365.8,649.2,365.5,649.1,365.2c0,0,0-0.1,0-0.1V365.2z
			 M647.4,348.6h-0.2c-0.4-0.4-0.4-0.8-0.6-1.2c-0.2-0.4-0.3-0.8-0.3-1.2v-2c0-0.3,0-0.6-0.2-0.9c0-0.2-0.4-0.3-0.3-0.4
			c0-0.1,0.3,0,0.4,0c0.4,0,0.6,0.1,1,0.4c0.3,0.3,0.5,0.6,0.6,1l0.4,1.5l0.3,0.8l0.5,0.6l-0.7,0.8L647.4,348.6L647.4,348.6z
			 M651,359.2l2.2,1c1.5-0.9,2.7-2.2,3.5-3.8c0.9-1.8,1-2.7,1.4-4.4l-1.8-0.5h-0.4c-0.5,1.8-0.7,2.7-1.6,4.2c-0.8,1.3-1.7,2.3-2.6,3
			L651,359.2L651,359.2z M656,377.4l0.8-1.3l1.4-1.1h0.4c0,1-0.2,1.9-0.5,2.8l-0.4,1l-0.5,0.5c-0.5-0.8-1.3-1.3-1.3-2L656,377.4z
			 M689,379.2l1.4,0.6l1.5,0.9v0.5l-1.5,0.2c-0.4,0-0.9,0-1.3,0h-1l-0.6-0.4C688,380.3,688.3,379.4,689,379.2L689,379.2z
			 M679.2,377.2l1.4,0.5l1.5,1c0,0.1,0.1,0.3,0,0.4c-0.9,0.2-1.8,0.3-2.7,0.3l-1-0.1l-0.7-0.3C678.3,378.3,678.6,377.3,679.2,377.2z
			 M661.8,379.3l1.5,0.5l1.5,1v0.5c-0.9,0.2-1.9,0.3-2.8,0.2h-1l-0.6-0.4C660.9,380.4,661.2,379.5,661.8,379.3L661.8,379.3z
			 M652.8,349.5c-0.6-0.3-1-1-0.6-1.6c0.1-0.2,0.4-0.2,0.6-0.4c0.2-0.3,0.1-0.5,0-0.8l-0.1-1l-0.2-1c0-0.6,0-1,0.4-1.6
			c0.2-0.3,0.7-0.6,0.8-0.6c0.2,0.1,0,0.5,0,0.8c0,0.5,0.1,0.7,0.3,1.2l0.7,1.3c0.2,0.6,0.4,0.8,0.4,1.4c0,0.5,0,0.7-0.2,1.2
			c-0.1,0.3-0.3,0.6-0.6,0.8c-0.2,0.2-0.5,0.3-0.8,0.4c-0.2,0.1-0.4,0.1-0.6,0L652.8,349.5z"/>
	</g>
	<g>
		<g id="b_1_">
			<path class="st17" d="M649.6,383.6l-0.6,0.2l-0.8,0.8c-0.4,0.4-0.7,0.5-1.2,0.8l-0.6,0.5c-0.3,0.3,0,0.6-0.3,1
				c-0.1,0.4-0.3,0.6-0.6,1c-0.4,0.4-0.7,0.5-1,1l-1.2,1L643,390h-0.6c-0.4,0.2-0.5,0.6-0.8,0.8l0.3,0.6l0.8,1.4
				c0.2,0.3,0.2,0.7,0.5,0.8c0.5,0.2,0.9,0.2,1.3,0.1c0.8,0.2,1.3,0.2,2,0.5l1.5,0.8c0.5,0.3,0.8,0.4,1.3,0.5h1.8v0.3l2,1
				c0,0.1-0.1,0.3-0.1,0.4c-0.1,0.3-0.2,0.7-0.1,0.8c0.6,1.9,1.2,3,1.5,3.2c0.6,0.2,0.8,0.9,1.1,1.5l-0.3,0.3
				c-0.6,0.6-1.2,1-1.7,1.8c-0.7,1.2-1.2,1.2-0.3,2.8l1.5,2.4c0.4,0.7,0.6,1.2,0.8,2c0.2,0.7,0.3,1.2,0.3,2l1,0.3l0.7-0.6l0.6-1.2
				v-1c-0.2-0.1-0.3-0.4-0.2-0.7c0-0.4,0.5-0.3,0.7-0.6c0.3-0.5-0.4-0.8-0.7-1.1c-0.6-0.7-1.4-0.9-1.6-1.9c0-0.2,0-0.4,0.4-0.7
				l2-1.8c0.2,0.1,0.6,0.2,1,0.1l1.3,0.4c0.6,0.2,0.9,0,1.2,0h0.4l0.1,0.6c0.1,1-0.1,3,0.2,3.5l0.3,0.6l0.2,0.6v2l-0.2,1.7
				c0,0.4-0.2,0.7-0.5,1c-0.2,0.4-0.6,0.4-1,0.7v1l1.1,0.5l1.3,0.3l0.7-0.3l0.1-0.6l0.5-0.5c0.4-0.2,0.8,0,0.9-0.1
				c0.2-0.3,0-0.4,0-0.8c0-0.6-0.2-1-0.3-1.6c-0.1-0.9-0.2-1.9-0.1-2.8c0-0.6,0-1,0.2-1.5c0.1-1,0.4-1.4,0.6-2.2
				c0.3-1,0.3-1.6,0.4-2.5c3.4,0.5,6.8,0.3,10.1-0.6c0.8,0.7,1.7,1.2,2.7,1.6v1c0,0.3,0,0.4,0.2,0.7l0.3,0.3c0.3,0,0.5,0,0.7-0.2
				s0.2-0.4,0.2-0.7v-0.7h1.8v1.1c0.1,0.3,0.3,0.4,0.5,0.4c0.2,0.1,0.4,0.1,0.6,0c0.3-0.2,0.2-0.6,0.3-1V406l1-0.4
				c0,0.3,0,0.6,0,0.9l-0.3,0.9c-0.2,0.6-0.5,0.8-0.8,1.4c-0.4,0.6-0.5,1-1,1.5l-0.6,0.7l-0.6,0.9l-0.9,1c-0.7,0.6-1.2,0.2-2,0.9
				l-0.3,1l1.4,0.6l1.3,0.2l0.4-0.2c0-0.3,0-0.6,0.3-0.8c0.2-0.3,0.4-0.3,0.7-0.4c0.4,0,0.8,0,1-0.2c0.4-0.3,0.4-1,0.7-1.5
				c0.7-1.5,1.8-2.8,3-3.9l1.7-1.4c0.2-0.4,0.5-0.5,0.5-1l-0.2-0.6l-0.2-1c1.5,0.7,1,0.7,1.2,1.4c0.3,0.6,0,1,0.1,1.7
				c0.1,0.8,0.5,1.1,0.5,1.9c0.1,0.9-0.1,1.4-0.3,2.3c-0.1,0.8-0.1,1.3-0.5,2c-0.2,0.6-0.6,1.1-1.1,1.5l-0.6,0.5l-0.1,1l1.1,0.4
				l1.6,0.4l0.4-0.3c0.2-0.7,0-1.7,0.4-1.7c0.4-0.1,0.7,0,0.8-0.3v-0.7l0.7-4.5l0.4-1.9l0.4-1.7c0.7-2-0.2-2.3-1-3.6
				c-0.5-0.7-0.7-1-0.7-1.5v-2.9c0-0.9,0-1.9,0-2.8l0.4-0.2c1.2-0.7,1.7-0.9,2.4-2.5c0.2-0.5,0.3-1,0.3-1.5v-1l-0.4-1
				c-0.2-0.3-0.4-0.6-0.6-0.8c-0.7-1-1.7-1.1-2.7-1.5c-1.5-0.5-2.5-0.4-4-0.5c-1.8-0.2-2.7-0.2-4.4,0c-2,0-3.1,0.4-5.1,0.7l-4.9,0.4
				c-2.3,0-4.4-0.5-5.8-0.4c-2.4,0.2-2.5,0.8-6.2,1.1c-1.3,0.1-2.5,0.2-3.8,0.2l-2.2-0.7c0.9-0.3,1.1-0.5,1.5-1
				c0.3-0.4,0.2-0.7,0.6-1.1l0.7-1c-0.3-0.2-0.6-0.3-0.9-0.4h-1c-0.4,0-0.8,0.1-1.2,0.3l-0.8,0.6l-2.2-1.2c-0.9-0.5-2-0.8-3-0.9
				L649.6,383.6z"/>
			<g>
				<path class="st20" d="M693.8,396.1l-0.8,0.3c-0.9,0.4-1.6,0.4-2.6,0.5c-2.6,0.2-4.3-1.1-7-0.9c-1.4,0.1-2,1.2-3.5,1.6
					c-0.6,0.1-1.1,0.2-1.7,0.2l0.5-1c0,0-1.2,0.3-2,0.3c-0.5,0-1.1-0.1-1.6-0.2l1-1l-1.3-0.2c-0.4-0.2-0.7-0.4-1-0.7
					c0.6-0.1,1.1-0.2,1.7-0.3c1.5-0.4,2-1.2,3.9-1.4c1.1,0,3,0,7.6,0.8c3,0.5,4.4,0.2,5.5-0.3c0.8-0.3,1-1,1.1-1.8s-0.4-1.4-0.8-1.8
					c-0.1,0-0.5-0.3-1.1-0.4"/>
				<path class="st21" d="M649.8,387.2c-0.5,0-0.9,0-1.3,0.3c-0.5,0.3-0.6,0.7-1,1.1c0.5,0.1,0.8,0.4,1.2,0.3c0.4,0,0.5-0.2,0.8-0.5
					c0.3-0.4,0.4-0.7,0.4-1.2L649.8,387.2L649.8,387.2z"/>
				<path class="st20" d="M661,400.4c0.3,0.8,0.6,1.6,1,2.3c0.2,0.8,0,1.2,0.2,2v1.6 M669,399.3l-0.3,1.3l-1,3.5v0.7 M656.7,400.8
					c0.9,0.2,0.6,3.3,1.9,4"/>
				<path class="st22" d="M685.1,406.4l0.4-0.3c1-0.4,1.9-1,2.7-1.8"/>
				<path class="st20" d="M677.4,404.6c3.5-0.9,5.9-2.6,7.6-2.9 M681,400.2h0.8c1.5-0.3,1.7,0.6,2.7,1.2c1.9,1,2.1,2.3,4.3,3.4
					l0.4,0.1l0.8,0.4"/>
				<path class="st21" d="M642.7,391.1h0.7l0.8-0.2c0.3,0,0.5,0,0.7,0.2c0.2,0,0.2,0.1,0.3,0.3c0,0.2,0.2,0.3,0.1,0.5
					c0,0.2-0.3,0.4-0.6,0.4c-0.2,0-0.4,0-0.5-0.3c-0.1-0.1-0.1-0.3,0-0.4c-0.3,0.1-0.6,0.1-0.9,0C643,391.5,642.8,391.3,642.7,391.1
					z"/>
			</g>
			<path class="st23" d="M650.1,400.8l-2-0.9c0.4-0.2,0.7-0.2,1-0.5c0.3-0.4,0.3-0.8,0.5-1.3s0.2-1,0.7-1.4c0.3-0.2,0.8-0.2,1.1-0.1
				c0.4,0,0.8,0.4,0.9,0.7c0,0.6-0.2,1-0.3,1.5c0,0.6-0.3,0.9-0.2,1.4c0,0.4,0.2,0.6,0.4,1l-2-0.4L650.1,400.8z M649.1,401.8
				c0-0.3,0.2-0.6,0.5-0.7s0.6,0.2,0.7,0.5c0,0.3-0.2,0.6-0.5,0.7C649.5,402.4,649.2,402.1,649.1,401.8c0,0,0-0.1,0-0.1V401.8z
				 M647.4,385.2h-0.2c-0.4-0.4-0.4-0.8-0.6-1.2c-0.2-0.4-0.3-0.8-0.3-1.2v-2c0-0.3,0-0.6-0.2-0.9c0-0.2-0.4-0.3-0.3-0.4
				c0-0.1,0.3,0,0.4,0c0.4,0,0.6,0.1,1,0.4c0.3,0.3,0.5,0.6,0.6,1l0.4,1.5l0.3,0.8l0.5,0.6l-0.7,0.8L647.4,385.2L647.4,385.2z
				 M651,395.8l2.2,1c1.5-0.9,2.7-2.2,3.5-3.8c0.9-1.8,1-2.7,1.4-4.4l-1.8-0.5h-0.4c-0.5,1.8-0.7,2.7-1.6,4.2
				c-0.8,1.3-1.7,2.3-2.6,3L651,395.8L651,395.8z M656,414l0.8-1.3l1.4-1.1h0.4c0,1-0.2,1.9-0.5,2.8l-0.4,1l-0.5,0.5
				c-0.5-0.8-1.3-1.3-1.3-2L656,414z M689,415.8l1.4,0.6l1.5,0.9v0.5l-1.5,0.2c-0.4,0-0.9,0-1.3,0h-1l-0.6-0.4
				C688,416.9,688.3,416,689,415.8L689,415.8z M679.2,413.8l1.4,0.5l1.5,1c0,0.1,0.1,0.3,0,0.4c-0.9,0.2-1.8,0.3-2.7,0.3l-1-0.1
				l-0.7-0.3C678.3,414.9,678.6,413.9,679.2,413.8z M661.8,415.9l1.5,0.5l1.5,1v0.5c-0.9,0.2-1.9,0.3-2.8,0.2h-1l-0.6-0.4
				C660.9,417,661.2,416.1,661.8,415.9L661.8,415.9z M652.8,386.1c-0.6-0.3-1-1-0.6-1.6c0.1-0.2,0.4-0.2,0.6-0.4
				c0.2-0.3,0.1-0.5,0-0.8l-0.1-1l-0.2-1c0-0.6,0-1,0.4-1.6c0.2-0.3,0.7-0.6,0.8-0.6c0.2,0.1,0,0.5,0,0.8c0,0.5,0.1,0.7,0.3,1.2
				l0.7,1.3c0.2,0.6,0.4,0.8,0.4,1.4c0,0.5,0,0.7-0.2,1.2c-0.1,0.3-0.3,0.6-0.6,0.8c-0.2,0.2-0.5,0.3-0.8,0.4
				c-0.2,0.1-0.4,0.1-0.6,0L652.8,386.1z"/>
		</g>
	</g>
</g>
<path class="st24" d="M344.1,175.5h52.6V228h-52.6V175.5z M402.3,175.5h52.6V228h-52.6V175.5z M344.3,273.5c0.1,1,0.5,2.6,1.4,4.3
	c1,1.5,0.6,1.4,2.7,3.8c1.2,1.2,2.5,2.2,4,2.9c4.7,2,9.9,2.9,15,2.6c2.7-0.1,4.8-0.4,6.6-0.7c3.6-0.5,7.3-0.7,11-0.6
	c1.5,0,3,0.3,4.7,0.6c3.5,0.7,7,2,7,2v-54.7h-52.6V271l0.2,2.4L344.3,273.5z M454.7,273.5c-0.2,1.5-0.7,3-1.4,4.3
	c-1,1.5-0.6,1.4-2.7,3.8c-1.2,1.2-2.5,2.2-4,2.9c-1.3,0.7-2.3,1-4.4,1.6c-3.5,0.9-7,1.2-10.6,1c-2.7-0.1-4.8-0.5-6.5-0.7
	c-2.4-0.3-4.8-0.5-7.2-0.6c-1.3-0.1-2.6-0.1-3.9,0c-1.5,0-3,0.3-4.7,0.6c-3.5,0.7-7,2-7,2v-54.8H455v37.5L454.7,273.5L454.7,273.5z"
	/>
</svg>
