<?xml version="1.0" encoding="utf-8"?>
<!-- Generator: Adobe Illustrator 24.0.1, SVG Export Plug-In . SVG Version: 6.00 Build 0)  -->
<svg version="1.1" id="flag-icons-af" xmlns="http://www.w3.org/2000/svg" xmlns:xlink="http://www.w3.org/1999/xlink" x="0px"
	 y="0px" viewBox="0 0 800 480" style="enable-background:new 0 0 800 480;" xml:space="preserve">
<style type="text/css">
	.st0{fill-rule:evenodd;clip-rule:evenodd;}
	.st1{fill-rule:evenodd;clip-rule:evenodd;fill:#009900;}
	.st2{fill-rule:evenodd;clip-rule:evenodd;fill:#BF0000;}
	.st3{fill-rule:evenodd;clip-rule:evenodd;fill:#FFFFFF;stroke:#BD6B00;stroke-width:0.5317;stroke-miterlimit:4.2538;}
	.st4{fill-rule:evenodd;clip-rule:evenodd;fill:#FFFFFF;}
	.st5{fill:none;stroke:#BD6B00;stroke-width:0.5317;stroke-miterlimit:4.2538;}
	.st6{fill-rule:evenodd;clip-rule:evenodd;fill:#BF0000;stroke:#BD6B00;stroke-width:0.5317;stroke-miterlimit:4.2538;}
	.st7{fill-rule:evenodd;clip-rule:evenodd;fill:#BD6B00;}
	.st8{fill:#FFFFFF;}
	.st9{fill:#BF0000;}
</style>
<g>
	<path class="st0" d="M0,0h800v480H0V0z"/>
	<path class="st1" d="M533.4,0H800v480H533.4V0z"/>
	<path class="st2" d="M266.6,0h266.8v480H266.6V0z"/>
</g>
<g transform="translate(1 27.3) scale(1.06346)">
	<path class="st3" d="M394.7,225.8h8.3c0,3.2,2,6.6,4.5,8.5h-16C394,232.1,394.7,229.3,394.7,225.8z"/>
	<path class="st4" d="M341.9,178.5l4.6,5l57,0.2l4.6-5l-14.6-0.3l-7-5h-23l-6.6,5.1H341.9z"/>
	<path class="st3" d="M365.2,172.7h19.7c2.6-1.4,3.5-5.9,3.5-8.4c0-7.4-5.3-11-10.5-11.2c-0.8,0-1.7-0.6-1.9-1.3
		c-0.5-1.6-0.4-2.7-1-2.6c-0.4,0-0.3,1-0.7,2.4c-0.3,0.8-1.1,1.5-2,1.6c-6.4,0.3-10.6,5-10.5,11.1
		C361.9,168.3,362.4,170.7,365.2,172.7z"/>
	<path class="st4" d="M332.9,242.8h84.3l-7.5-6.1h-69.4l-7.5,6.1H332.9z"/>
	<path class="st3" d="M371.6,219.7l1.5,4.6h3.5l-2.8-4.6H371.6z M369.6,224.3l1,4.6h4l-1.5-4.6H369.6z M376.6,224.3l2.8,4.6h5.9
		l-4.6-4.6H376.6L376.6,224.3z M342.1,234.7c3.1-2.9,5.1-5.3,5.1-8.8h7.6c0,2,0.7,3.1,1.8,3h7.7v-4.5h-5.6v-24.7
		c-0.2-8.8,10.6-13.8,15-13.8h-26.3v-0.8h55.3v0.8h-26.5c7.9,0,15.5,7.5,15.6,13.8v7h-1l-0.1-6.9c0-6.9-8.7-13.3-15.7-13.1
		c-6,0.1-15.4,5.9-15.3,13v2.2L374,202l-0.1,2.5l2.2,1.4l4.5,1.4v3.8l3.2,0.9v3.7l3.8,1.7v3.8l2.5,1.5l-0.1,3.9l3.3,2.3h-7.8
		l4.9,5.5h-7.3l-3.6-5.5h-4.7l2.1,5.4h-5l-1.3-5.4h-6.2v5.8h-22.2L342.1,234.7z M364.3,219.7v4.6h5.3l-1-4.6h-4.4H364.3z"/>
	<path class="st5" d="M364.6,211.7h3.3v7.6h-3.3V211.7z"/>
	<path class="st5" d="M359.9,219.8h3.2v-5.6c0-2.4,2.2-4.9,3.2-5c1.2,0,2.9,2.3,3,4.8v5.8h3.4v-14.4h-12.8L359.9,219.8L359.9,219.8z
		 M385.5,223.1h4v3.2h-4V223.1z M383.1,217.8h4v3.1h-4V217.8z M379.2,212.4h4v3.1h-4V212.4z M375.9,207.9h4v3.1h-4V207.9z"/>
	<path class="st5" d="M373.2,219.8l4.2,0.2l7.3,6.4v-3.8l-2.5-1.8v-3l-3.6-2v-3.3l-3.5-1.2V207l-1.7-1.5L373.2,219.8L373.2,219.8z"
		/>
	<path class="st3" d="M390.6,210.3h1v7.1h-1V210.3z"/>
	<g id="a">
		<path class="st3" d="M332.5,186.5c-1.2-2-2.7,2.8-7.8,6.3c-2.3,1.6-4,5.9-4,8.7c0,2,0.2,3.9,0,5.8c-0.1,1.1-1.4,3.8-0.5,4.5
			c2.2,1.6,5.1,5.4,6.4,6.7c1.2,1,2.2-5.3,3-8c1-3,0.6-6.7,3.2-9.4c1.8-2,6.4-3.8,6-4.6L332.5,186.5z"/>
		<path class="st6" d="M332.2,201.9c-0.4-0.9-0.9-1.8-1.6-2.6c-0.6-0.8-1.5-1.4-2.4-1.8c-0.9-0.3-1.8-0.8-2.4-1.5
			c-0.4-0.4-0.7-0.9-0.8-1.5c-0.1-0.7-0.1-1.3,0-2l-0.3,0.3c-2.3,1.6-4,5.9-4,8.7c0,0.8,0,1.5,0,2.3c0.2,0.5,0.3,1,0.6,1.3l1.1,0.8
			l2.7,0.7c1,0.5,1.9,1.1,2.6,2c0.7,0.8,1.3,1.6,1.8,2.6l0.2-0.8c0.8-2.7,0.7-5.9,2.6-8.5H332.2z"/>
		<path class="st5" d="M325,192.4c-0.5,3.3,1.4,4.5,3.2,5.1c1.8,0.7,3.3,2.6,4,4.4 M320.5,203.4c0.8,3,2.8,2.6,4.6,3.2
			c1.8,0.7,3.7,3,4.5,4.8"/>
		<path class="st3" d="M330.8,184.5l1-0.6l17.7,29.9l-1,0.6l-17.7-30L330.8,184.5z"/>
		<path class="st3" d="M332.7,183.3c0,1.1-0.9,2-2,2c-1.1,0-2-0.9-2-2s0.9-2,2-2C331.8,181.3,332.7,182.2,332.7,183.3z M347.9,159.3
			h7.2v1.6h-7.2V159.3z M347.9,162.4h7.2v13.8h-7.2V162.4z M347.5,157.4h8c0.2-2.7-2.5-5.6-4-5.6
			C349.9,151.9,347.4,154.8,347.5,157.4z"/>
		<path class="st7" d="M367.8,155.8c-1.5,0.6-2.7,2.3-3.4,4.3c-0.7,2-1,4.3-0.6,6.1c0,0.7,0.3,1.1,0.5,1.5c0.2,0.3,0.4,0.5,0.6,0.5
			c0.3,0,0.6,0,0.7-0.3l0.2-0.8c-0.1-2-0.1-3.8,0.3-5.4c0.4-1.8,1.5-3.3,3-4.4c0.3-0.2,0.4-0.5,0.5-0.7c0-0.3-0.1-0.5-0.3-0.7
			C368.9,155.6,368.3,155.5,367.8,155.8L367.8,155.8z M368,156.2c0.4-0.2,0.8,0,1,0.1l0.1,0.2c0,0.1,0,0.2-0.3,0.4
			c-1.5,1.1-2.6,2.8-3.1,4.6c-0.4,1.8-0.5,3.7-0.3,5.6c0,0.2-0.1,0.4-0.2,0.6c0,0,0,0.1-0.2,0c0,0-0.2,0-0.4-0.3
			c-0.2-0.4-0.3-0.8-0.4-1.2c-0.3-1.8,0-4,0.7-6C365.6,158.4,366.7,156.8,368,156.2L368,156.2z"/>
		<path class="st7" d="M370.4,157.7c-1.5,0.7-2.5,2.3-3,4.2c-0.5,1.9-0.6,3.9-0.3,5.9c0.2,1.3,1,2,1.6,2c0.3,0.1,0.6,0,0.8-0.3
			c0.2-0.3,0.3-0.6,0.2-1c-0.4-1.6-0.5-3.4-0.3-5.1c0.3-1.7,1-3.2,2.2-4.1c0.3-0.3,0.5-0.5,0.5-0.8c0-0.2-0.1-0.4-0.2-0.6
			C371.5,157.6,370.9,157.5,370.4,157.7L370.4,157.7z M370.6,158.2c0.4-0.2,0.8-0.1,1,0l0.1,0.3l-0.3,0.4c-1.4,1.1-2.2,2.7-2.4,4.4
			c-0.3,1.8-0.1,3.7,0.2,5.2c0.1,0.4,0,0.6,0,0.8l-0.5,0.1c-0.3,0-1-0.5-1.2-1.7c-0.3-1.7-0.2-3.9,0.3-5.7S369.3,158.7,370.6,158.2z
			"/>
		<path class="st3" d="M347.5,187.4h8v11h-8V187.4z M348,204.8h7.7v2.4H348V204.8z M347.8,208.9h8v8.7h-8V208.9z M347.2,219.4h8.7
			v4.9h-8.7L347.2,219.4z M348.3,202.8h7l1.4-2.4h-9.6L348.3,202.8z M357.7,194.2l0.1-6h4.8C360.6,189.8,358.9,191.9,357.7,194.2z"
			/>
		<path class="st5" d="M348.8,196.7c0,1.3,1.5,0.8,1.5,0.1v-5.6c0-1,2.4-0.8,2.4-0.1v6c0,1,1.7,0.9,1.6,0v-7c0-2.2-5.5-2.1-5.5-0.1
			V196.7L348.8,196.7z M348.8,210h5.7v7h-5.7V210z"/>
		<path class="st3" d="M352.4,213h2v1h-2V213z M348.9,213h2v1h-2V213z M350.9,210h1.5v3h-1.5V210z M350.9,214h1.5v3.1h-1.5V214z
			 M319.2,139c0.4,5.5-1.4,8.6-4.3,8.1C314.1,144.1,315.9,142,319.2,139z M312.7,151.3c-2.6-1.3-0.7-11.5,0.3-15.8
			C313.7,141,315,148.8,312.7,151.3z"/>
		<path class="st3" d="M313.6,151.8c4.4,1.5,8-3.2,9.1-8.7c-3.6,5-9.5,5-9,8.7H313.6z M310.3,156.9c-3.4-0.9-1.4-11.7-0.7-16
			C310.3,145.4,312.7,155.4,310.3,156.9z M311.5,156.6c0.2-3.7,3.9-2.7,6.5-4.7C317.5,153.9,316,157.1,311.5,156.6z M307.3,161.6
			c-3.4-1-1.4-12.6-1.6-17.4C306.7,148.4,309.9,160.5,307.3,161.6z M308.9,161.1c2.8,0.9,6.5-1,6.8-4.3
			C313.2,158.5,309.4,157.2,308.9,161.1z"/>
		<path class="st3" d="M304.7,166.7c-3.2,0.3-1.8-9.6-1.8-18.8C304.1,156.5,307.4,164.4,304.7,166.7z"/>
		<path class="st3" d="M305.9,166.3c2.2,1,6.1-0.7,7.2-4.4C309.1,163.6,306.5,161.9,305.9,166.3z M331.5,144.1
			c-0.6,4.9-2.6,7.7-5.5,7.2C325.2,148.3,327.6,146.3,331.5,144.1z M323.7,156.5c4.9,0.7,6.6-3,10-7.9c-4.7,3.4-10.2,4-10,8V156.5z"
			/>
		<path class="st3" d="M322.2,156c-2.6-3.2,0-7.3,2-10.7C323.8,150.4,325.5,153.3,322.2,156z M321.2,161.3c-0.4-3.2,5-3.9,7.4-5.6
			c-0.9,1.8-2,6.7-7.5,5.6H321.2z"/>
		<path class="st3" d="M320,161.3c-3.7-0.4-2.2-6.7,0.5-10.1C319.4,156,322.5,159.3,320,161.3z"/>
		<path class="st3" d="M317.2,166.6c-4.2-2-1.5-7.2,0-10.3c-0.6,4.1,2.8,7.2,0,10.2V166.6z"/>
		<path class="st3" d="M318,166c2.2,3,6.5-0.8,7.4-5.2c-3.7,3.1-6.5,2.6-7.4,5.3V166z M308.4,186.3c-0.4-4.3,2.8-12,0.5-16.2
			c-0.3-0.6,0.7-2.1,1.4-1.2c1,1.5,2,5.7,2.5,4.1c0.4-1.7,0.5-4.6,2-5.2c1-0.3,2.3-0.6,1.9,1c-0.4,1.4-1.2,3.4-0.3,3.5
			c0.5,0,2-2,3.3-3c1-0.8,2.6,0.6,1,1.8C315.9,175.1,311.2,177,308.4,186.3L308.4,186.3z M299.7,250.8c-0.6,0-1.3-0.3-0.6,0.6
			c5.7,7,7.3,9,15.6,8c8.3-1.1,10.3-3.4,16.2-6.7c3.5-1.8,7.5-2.2,11.2-1c1.6,0.5,2.6,0.5,1.4-0.7c-1.2-1.1-2.5-2.7-4-3.8
			c-3.7-2.5-8.3-3.5-12.7-2.7c-6,1-11.1,4.9-17.2,6.4c-3.3,0.7-6.6,0.7-9.9,0V250.8z M347.5,263.3c1,0.2,1.7,2.2,2.3,0.9
			c0.8-2.3,0.2-4-0.8-3.9C347.8,260.6,345.9,263.3,347.5,263.3z"/>
		<path class="st4" d="M295.8,183c-1.2-1.4-0.9-1.8,1-1.9c1.4,0,4.2,1,5.3,0.1c1-0.7,0.5-3.7,1-5c0.2-0.9,0.7-2,2-0.2
			c3.6,5.8,8,12.8,10,19.6c1,3.8,0,9.8-3.4,13.8c0-3.4-1.2-5.7-2.7-8.6C307,197.1,299.9,186.8,295.8,183L295.8,183z"/>
		<path class="st3" d="M310.7,213.4c4,0,4.7-5.3,4.7-6.8C313.4,207,310,210.3,310.7,213.4z M345.2,265.3c2.8,0.6,2.7-6.2-0.2-9.1
			c1.3,4.4-2,8.4,0.1,9L345.2,265.3z M344,265.2c0.2,3.2-8-0.4-10-3C338.8,264.3,343.8,262.6,344,265.2z M340.5,260.6
			c0.3,3.1-7,0.3-9.3-2.1c4.9,1.6,9-0.5,9.3,2V260.6z M341.8,261c2.9,0.7,2.4-6.4-0.4-8.8C342.8,256.9,339.6,260.3,341.8,261z
			 M338.8,256.7c2.9,0.7,1.2-5.4-0.9-7.8c0.4,4.4-1,7.5,1,7.8H338.8z M337.3,256.7c0.3,3.2-5.4,0.8-7.6-2.3
			C334.5,255.9,337,254.1,337.3,256.7z M335.8,254.2c1.8-1.3-0.1-4.8-3.7-4.6C332.5,251.7,333.7,255.5,335.8,254.2z M349.8,268.9
			c0.1,3.2-8,1.6-10.6-1.8c5.2,1,10.3-0.8,10.5,1.8H349.8z M317.4,263.1c0.3,3.2-8.6-0.4-10.8-3.4
			C311.3,261.3,317.1,260.5,317.4,263.1z M322.8,264.4c1.9-1.3-1.9-4.7-5-5.5c0.4,2.1,3,6.8,5,5.6V264.4z M323.4,266.7
			c0.2,2.9-9.5,1.3-12-1.4C319.7,266.8,323.1,264.2,323.4,266.7z"/>
		<path class="st3" d="M328,268.6c1,2.7-8.3,2-11.6,0.5C321.7,269.1,327.2,266.7,328,268.6z"/>
		<path class="st3" d="M332.3,270.6c1,2.4-7.6,2.4-11.8,1C326.1,271.6,331.3,268.2,332.3,270.6z M338.6,271.9
			c1.6,2.9-7.6,3.1-10.5,1.7C333.3,272.9,337.3,269.6,338.6,271.9z M327.9,267c-2.9,1.8-2.7-3.6-5-7.3
			C326.5,263,329.9,265.3,327.9,267z"/>
		<path class="st3" d="M333.1,269c-2.4,2.1-4.4-5.3-6.6-9.5c3.6,4,8.8,7.7,6.6,9.4V269z M339.9,271c-2,2.4-8-7-10.2-12
			C333,262.9,341.5,269,339.9,271z M334.1,278.2c-1,3.6-16.2-3.4-18-7.1c8.8,4.6,18.2,3.6,18,7V278.2z M285.4,204.4
			c-0.4-0.5-1.4,0-1.2,1.1c0.3,1.5,2.5,9.2,6.3,11.8c2.7,2,17,5.1,23.4,6.5c3.6,0.7,6.5,2.5,8.9,5.3c-0.8-3.3-1.8-6.6-3-9.8
			c-1.2-3-4.4-6.2-7.8-6.3c-6.1-0.3-14.1-0.8-20-3.3c-2.7-1.1-5-3-6.7-5.3H285.4z"/>
		<path class="st3" d="M320.7,234.9c2,1.4,4.1-3.7,1.7-8.6C322.3,231,318.6,232.6,320.7,234.9z"/>
		<path class="st3" d="M322.6,239.6c2.7,0.8,3.5-4,1.8-7.8C324.7,235.9,320.1,238.4,322.6,239.6z"/>
		<path class="st3" d="M324.7,243.4c2.6,1.3,3.5-3.6,1.7-7.1c0.2,4.5-3.7,5.9-1.7,7V243.4z"/>
		<path class="st3" d="M323.6,243.7c-1,3-7-2.7-8-5.8c3.7,3.7,8.7,3.2,8,5.7V243.7z"/>
		<path class="st3" d="M320.9,239c-1.2,3-8.7-5-10.4-8.7C314.2,234,321.7,236.8,320.9,239L320.9,239z"/>
		<path class="st3" d="M319.4,234.3c-1.2,3.5-9.3-5.8-11.7-9.1C311.7,228.8,320.3,231.8,319.4,234.3z M319.1,230.9
			c3-0.6-0.1-3-3.7-6.9C315.3,228.1,315.9,231,319.1,230.9z"/>
		<path class="st3" d="M314.2,228.5c1.3-1.3-1.1-1.9-4.1-5.3c-0.5,2.3,2.8,6.5,4.2,5.3H314.2z M328.2,243.7c1.6,1,2.6-2.3,0.7-5.2
			C328.4,241.7,326.8,242.5,328.2,243.7z M294,223.4c-3.3,2-8.6-6-10-9.3C286.9,217.9,294.6,221.3,294,223.4z"/>
		<path class="st3" d="M296.9,228c-1.9,2-7.7-3.5-9.7-6.3C290.2,224.4,297.7,224.7,296.9,228z"/>
		<path class="st3" d="M300,232.2c-0.6,2.8-9-3.5-11-6.5C292.6,229.2,300.6,228.9,300,232.2z"/>
		<path class="st3" d="M298.7,235.3c-1.3,2.5-8.2-3.8-9.9-7c4.3,3.6,11,4.5,10,7H298.7z M295.2,223c2.1-2.3,1.2-3.4-0.4-7
			C294,219.7,292.7,221.2,295.2,223z M298.1,227.3c4,0.2,0-4.6-1-8.7C297.5,223.2,296.1,226.9,298.1,227.3z"/>
		<path class="st3" d="M300.6,231.1c2.7-0.6,2-4.5-0.2-9.2C300.9,227,298.1,229.9,300.6,231.1z M299.6,238.8c-1,3-8.8-4-10-6.8
			C293.6,235.4,300.3,236.5,299.6,238.8z"/>
		<path class="st3" d="M304.3,243.6c-1.1,3-9.3-3.2-11.8-6.6C297.4,241,304.9,240.6,304.3,243.6z"/>
		<path class="st3" d="M309.1,248.5c-1.3,4.3-9.9-2.6-12.4-6C302.1,246.7,309.7,245.5,309.1,248.5z M301.1,237.5
			c2.3,1.1,3.2-5.4,1.9-10.1c0,5-4.7,8.8-2,10L301.1,237.5z"/>
		<path class="st3" d="M305,242.7c2.8,0.8,2-6.3-0.5-11C304.2,236.4,302.2,240.7,305,242.7z M310,247.6c3,0.1,1-6.1-1.6-9.6
			C308.8,242.5,307.4,247,310,247.6z M304.5,250.2c-1,1.6-3.2-1.3-7-3.5C300.9,247.7,304.9,248.7,304.5,250.2z M302.7,197.5
			c3-2.2,0.7-6.2,0-10C301.7,191.1,299.3,195.9,302.7,197.5z M302.7,202.8c-4.5-0.5-3.8-6.1-4-9.7c1.4,4.9,5,5.7,4,9.8V202.8z
			 M303.3,202.1c3.7-0.2,3.5-4.4,3.7-8.6C305.1,197.4,303,198,303.3,202.1z"/>
		<path class="st3" d="M303.2,207.3c-3,0.3-4.4-2.6-5-7C300.9,204.4,303.3,203.1,303.2,207.3z M304.2,207c3.7,0.5,3-3.8,3-7
			C306,203,303,204,304.2,207z"/>
		<path class="st3" d="M298.4,205.2c0.3,2.8,2.1,7.6,5,6.5C304.5,208.3,300.8,207.6,298.4,205.2z"/>
		<path class="st3" d="M304.2,212c-1.2-2.4,3-3.7,3.8-6.9c0.5,4.6,0.1,7.6-3.8,7V212z M292.3,182.8c2.3-2.4,0.3-6.4-0.4-10.2
			C290.9,176.2,289.4,181,292.3,182.8z M292.3,187.4c-4,0.5-5-7.7-5.5-11.3C288.2,181,292.8,183.1,292.3,187.4L292.3,187.4z
			 M293.1,187.4c2.8-1.5,2.2-4.7,3-7C294.3,183.3,292.5,183.7,293.1,187.4z"/>
		<path class="st3" d="M292.2,192.8c-4.1,0.3-6.6-8.8-6.8-12.4c1.3,4.9,7.4,7.5,6.9,12.4H292.2z M293.1,192.6c4-0.9,3.5-3.5,2.9-7.6
			C294.7,189.2,292.5,188.3,293.1,192.6z"/>
		<path class="st3" d="M292.2,198c-4.6,0.8-4.3-6.6-8-11.9C287.4,190.1,293.2,195.1,292.2,198z M293.2,197.7c3.6,0.2,4-5.1,3.8-7.3
			c-0.9,2.2-5,4.2-3.7,7.4L293.2,197.7z"/>
		<path class="st3" d="M285,192.3c1.7,5.7,4.2,11.4,7.2,11C293.7,200,289.3,199.6,285,192.3z"/>
		<path class="st3" d="M293.3,202.4c-1.2-2.5,3-3.7,3.8-6.9C297.6,200.1,297.2,203.1,293.3,202.4z M286.2,198.8
			c2.5,5.1,3.6,11,7,10.1C294.5,204.9,289.4,204.1,286.2,198.8z"/>
		<path class="st3" d="M293.9,208c-1.5-2.8,2.7-3.7,3.8-7.4C298.2,205.4,297.7,208.9,293.9,208L293.9,208z M301.1,173.5
			c2.4,0.6,5-2.1,4.1-6.2C302.4,167.9,301.2,170.5,301.1,173.5z M293.2,171.4c0.2,1.2,1.7,1.3,1.2-0.4c-0.4-1.1-0.4-2.3,0-3.4
			c0.5-1.5,0.5-3.1,0-4.6c-0.4-1-1.8-0.4-1.2,0.4c0.6,0.9,0.7,2.8,0.2,3.7C292.8,168.4,293,170.1,293.2,171.4z M316.1,187.4
			c-1,1.3-2.9,0.4-1.4-1.5c1.2-1.5,3-2.8,3-4.4c0.2-2,1.3-5,2.4-6.1c1.1-1.1,2.4,0.4,1.2,1.2c-1.3,0.8-2.2,4.4-2.1,5.8
			C319.1,184.4,317.2,185.9,316.1,187.4L316.1,187.4z M313.1,185.1c-1,1.4-2.4,0.5-1.6-1.7c0.7-1.5,0.8-3.5,1.6-4.6
			c1.2-1.7,3-3.1,4.1-4.2c1.2-1,2,0,1,1c-1.2,1.2-2.3,2.6-3.3,4C313.5,181.8,314.1,183.6,313.1,185.1z M297.4,177.9
			c-0.1,2,1.5,2.4,1.4-0.4c0-3-2.2-5.8-1-10.3c0.8-2.2,0.8-6.3,0.4-8.4c-0.4-2.2-2-0.8-1.3,0.9c0.6,2-0.1,5.6-0.6,7.5
			c-1.5,5.4,1.2,8,1,10.7H297.4z M301.7,166.9c-0.2,1.9-1.8,2-1.3-0.5c0.4-2,0.4-3.6,0-5.3c-0.6-2.1-0.4-5.7,0-7.2
			c0.5-1.6,2-0.7,1.4,0.5c-0.7,1.9-0.8,3.9-0.3,5.9C302.1,162.3,302,165.1,301.7,166.9L301.7,166.9z M286.1,204c0.8,0.9,2,0.3,1-1
			c-1-1-0.7-1.2-1.3-2.4c-0.6-1.4-0.5-2.1-1.2-3c-0.7-1-1.6,0-1,0.7c0.8,1,0.6,1.6,1,2.5C285.6,202.3,285.3,203.1,286.1,204z
			 M306.5,228.6c2.5,1.4,4.1,3.9,4.4,6.7c0.1,2.5,0.8,4.9,2,7.1c-2-0.5-3-3.7-3.3-6.8c-0.3-3.2-2-4.5-3-7H306.5z M311.6,234.5
			c1.7,3.1,4,4.3,4.2,6.6c0.2,2.7,0.4,2.8,1.1,5.4c-2-0.5-2.5-0.7-3-4.7C313.6,239,311.3,237.1,311.6,234.5z"/>
		<path class="st4" d="M364.2,263.3c1,1.8,2,4.5,4,4C368.2,266,366.1,265,364.2,263.3z M367.2,263.9c3.7,1.6,7,1.2,7.5,3.6
			c-3.6,0.4-5-1-7.6-3.6H367.2z M351.1,251.2c2.5,1.9,4.2,4.6,5,7.7c0.8,2.8,2,5.4,3.6,7.8c-2.6-1.7-4.5-4.4-5.3-7.4
			C353.7,256.3,352.8,254,351.1,251.2L351.1,251.2z M354.2,251.2c2.8,2.2,5.4,4.8,6.2,7.9c0.8,2.9,1.3,5.1,3.2,8
			c-3-1.9-4.1-4.7-5-7.8c-0.7-3-2.5-5.2-4.4-8L354.2,251.2z M363.4,258.5c-0.1-0.5,0.2-1,0.7-1.2c0.9-0.3,1.7-0.6,2.6-0.8
			c1-0.3,1.6,0.4,1.6,0.9v2c0,0.7-0.2,0.8-0.7,0.9c-0.7,0.1-1.7,0.2-2.4,0.7c-0.6,0.4-1.2,0.1-1.5-0.5L363.4,258.5L363.4,258.5z
			 M374,258.5c0-0.6-0.2-1.1-0.6-1.2c-0.8-0.3-1.6-0.5-2.4-0.4c-1,0-1.1,0.2-1.1,0.6v2.1c0,0.8,0,0.8,0.4,1c0.7,0,1.8,0,2.5,0.6
			c0.5,0.3,1,0,1.1-0.6L374,258.5z"/>
	</g>
	<g transform="scale(-1 1)">
		<g id="a_1_">
			<path class="st3" d="M417.9,186.5c1.2-2,2.7,2.8,7.8,6.3c2.3,1.6,4,5.9,4,8.7c0,2-0.2,3.9,0,5.8c0.1,1.1,1.4,3.8,0.5,4.5
				c-2.2,1.6-5.1,5.4-6.4,6.7c-1.2,1-2.2-5.3-3-8c-1-3-0.6-6.7-3.2-9.4c-1.8-2-6.4-3.8-6-4.6L417.9,186.5z"/>
			<path class="st6" d="M418.2,201.9c0.4-0.9,0.9-1.8,1.6-2.6c0.6-0.8,1.5-1.4,2.4-1.8c0.9-0.3,1.8-0.8,2.4-1.5
				c0.4-0.4,0.7-0.9,0.8-1.5c0.1-0.7,0.1-1.3,0-2l0.3,0.3c2.3,1.6,4,5.9,4,8.7c0,0.8,0,1.5,0,2.3c-0.2,0.5-0.3,1-0.6,1.3l-1.1,0.8
				l-2.7,0.7c-1,0.5-1.9,1.1-2.6,2c-0.7,0.8-1.3,1.6-1.8,2.6l-0.2-0.8c-0.8-2.7-0.7-5.9-2.6-8.5H418.2z"/>
			<path class="st5" d="M425.4,192.4c0.5,3.3-1.4,4.5-3.2,5.1c-1.8,0.7-3.3,2.6-4,4.4 M429.9,203.4c-0.8,3-2.8,2.6-4.6,3.2
				c-1.8,0.7-3.7,3-4.5,4.8"/>
			<path class="st3" d="M419.6,184.5l-1-0.6l-17.7,29.9l1,0.6l17.7-30V184.5z"/>
			<path class="st3" d="M417.7,183.3c0,1.1,0.9,2,2,2s2-0.9,2-2s-0.9-2-2-2S417.7,182.2,417.7,183.3z M402.5,159.3h-7.2v1.6h7.2
				V159.3z M402.5,162.4h-7.2v13.8h7.2V162.4z M402.9,157.4h-8c-0.2-2.7,2.5-5.6,4-5.6C400.5,151.9,403,154.8,402.9,157.4z"/>
			<path class="st7" d="M382.6,155.8c1.5,0.6,2.7,2.3,3.4,4.3c0.7,2,1,4.3,0.6,6.1c0,0.7-0.3,1.1-0.5,1.5c-0.2,0.3-0.4,0.5-0.6,0.5
				c-0.3,0-0.6,0-0.7-0.3l-0.2-0.8c0.1-2,0.1-3.8-0.3-5.4c-0.4-1.8-1.5-3.3-3-4.4c-0.3-0.2-0.4-0.5-0.5-0.7c0-0.3,0.1-0.5,0.3-0.7
				C381.5,155.6,382.1,155.5,382.6,155.8L382.6,155.8z M382.4,156.2c-0.4-0.2-0.8,0-1,0.1l-0.1,0.2c0,0.1,0,0.2,0.3,0.4
				c1.5,1.1,2.6,2.8,3.1,4.6c0.4,1.8,0.5,3.7,0.3,5.6c0,0.2,0.1,0.4,0.2,0.6c0,0,0,0.1,0.2,0c0,0,0.2,0,0.4-0.3
				c0.2-0.4,0.3-0.8,0.4-1.2c0.3-1.8,0-4-0.7-6C384.8,158.4,383.7,156.8,382.4,156.2L382.4,156.2z"/>
			<path class="st7" d="M380,157.7c1.5,0.7,2.5,2.3,3,4.2c0.5,1.9,0.6,3.9,0.3,5.9c-0.2,1.3-1,2-1.6,2c-0.3,0.1-0.6,0-0.8-0.3
				c-0.2-0.3-0.3-0.6-0.2-1c0.4-1.6,0.5-3.4,0.3-5.1c-0.3-1.7-1-3.2-2.2-4.1c-0.3-0.3-0.5-0.5-0.5-0.8c0-0.2,0.1-0.4,0.2-0.6
				C378.9,157.6,379.5,157.5,380,157.7L380,157.7z M379.8,158.2c-0.4-0.2-0.8-0.1-1,0l-0.1,0.3l0.3,0.4c1.4,1.1,2.2,2.7,2.4,4.4
				c0.3,1.8,0.1,3.7-0.2,5.2c-0.1,0.4,0,0.6,0,0.8l0.5,0.1c0.3,0,1-0.5,1.2-1.7c0.3-1.7,0.2-3.9-0.3-5.7S381.1,158.7,379.8,158.2z"
				/>
			<path class="st3" d="M402.9,187.4h-8v11h8V187.4z M402.4,204.8h-7.7v2.4h7.7V204.8z M402.6,208.9h-8v8.7h8V208.9z M403.2,219.4
				h-8.7v4.9h8.7L403.2,219.4z M402.1,202.8h-7l-1.4-2.4h9.6L402.1,202.8z M392.7,194.2l-0.1-6h-4.8
				C389.9,189.8,391.6,191.9,392.7,194.2z"/>
			<path class="st5" d="M401.6,196.7c0,1.3-1.5,0.8-1.5,0.1v-5.6c0-1-2.4-0.8-2.4-0.1v6c0,1-1.7,0.9-1.6,0v-7c0-2.2,5.5-2.1,5.5-0.1
				V196.7L401.6,196.7z M401.6,210h-5.7v7h5.7V210z"/>
			<path class="st3" d="M398,213h-2v1h2V213z M401.5,213h-2v1h2V213z M399.5,210H398v3h1.5V210z M399.5,214H398v3.1h1.5V214z
				 M431.2,139c-0.4,5.5,1.4,8.6,4.3,8.1C436.3,144.1,434.5,142,431.2,139z M437.7,151.3c2.6-1.3,0.7-11.5-0.3-15.8
				C436.7,141,435.4,148.8,437.7,151.3z"/>
			<path class="st3" d="M436.8,151.8c-4.4,1.5-8-3.2-9.1-8.7c3.6,5,9.5,5,9,8.7H436.8z M440.1,156.9c3.4-0.9,1.4-11.7,0.7-16
				C440.1,145.4,437.7,155.4,440.1,156.9z M438.9,156.6c-0.2-3.7-3.9-2.7-6.5-4.7C432.9,153.9,434.4,157.1,438.9,156.6z
				 M443.1,161.6c3.4-1,1.4-12.6,1.6-17.4C443.7,148.4,440.5,160.5,443.1,161.6z M441.5,161.1c-2.8,0.9-6.5-1-6.8-4.3
				C437.2,158.5,441,157.2,441.5,161.1z"/>
			<path class="st3" d="M445.7,166.7c3.2,0.3,1.8-9.6,1.8-18.8C446.3,156.5,443,164.4,445.7,166.7z"/>
			<path class="st3" d="M444.5,166.3c-2.2,1-6.1-0.7-7.2-4.4C441.3,163.6,443.9,161.9,444.5,166.3z M418.9,144.1
				c0.6,4.9,2.6,7.7,5.5,7.2C425.2,148.3,422.8,146.3,418.9,144.1z M426.7,156.5c-4.9,0.7-6.6-3-10-7.9c4.7,3.4,10.2,4,10,8
				L426.7,156.5z"/>
			<path class="st3" d="M428.2,156c2.6-3.2,0-7.3-2-10.7C426.6,150.4,424.9,153.3,428.2,156z M429.2,161.3c0.4-3.2-5-3.9-7.4-5.6
				c0.9,1.8,2,6.7,7.5,5.6H429.2z"/>
			<path class="st3" d="M430.4,161.3c3.7-0.4,2.2-6.7-0.5-10.1C431,156,427.9,159.3,430.4,161.3z"/>
			<path class="st3" d="M433.2,166.6c4.2-2,1.5-7.2,0-10.3c0.6,4.1-2.8,7.2,0,10.2V166.6z"/>
			<path class="st3" d="M432.4,166c-2.2,3-6.5-0.8-7.4-5.2c3.7,3.1,6.5,2.6,7.4,5.3V166z M442,186.3c0.4-4.3-2.8-12-0.5-16.2
				c0.3-0.6-0.7-2.1-1.4-1.2c-1,1.5-2,5.7-2.5,4.1c-0.4-1.7-0.5-4.6-2-5.2c-1-0.3-2.3-0.6-1.9,1c0.4,1.4,1.2,3.4,0.3,3.5
				c-0.5,0-2-2-3.3-3c-1-0.8-2.6,0.6-1,1.8C434.5,175.1,439.2,177,442,186.3L442,186.3z M450.7,250.8c0.6,0,1.3-0.3,0.6,0.6
				c-5.7,7-7.3,9-15.6,8c-8.3-1.1-10.3-3.4-16.2-6.7c-3.5-1.8-7.5-2.2-11.2-1c-1.6,0.5-2.6,0.5-1.4-0.7c1.2-1.1,2.5-2.7,4-3.8
				c3.7-2.5,8.3-3.5,12.7-2.7c6,1,11.1,4.9,17.2,6.4c3.3,0.7,6.6,0.7,9.9,0V250.8z M402.9,263.3c-1,0.2-1.7,2.2-2.3,0.9
				c-0.8-2.3-0.2-4,0.8-3.9C402.6,260.6,404.5,263.3,402.9,263.3z"/>
			<path class="st4" d="M454.6,183c1.2-1.4,0.9-1.8-1-1.9c-1.4,0-4.2,1-5.3,0.1c-1-0.7-0.5-3.7-1-5c-0.2-0.9-0.7-2-2-0.2
				c-3.6,5.8-8,12.8-10,19.6c-1,3.8,0,9.8,3.4,13.8c0-3.4,1.2-5.7,2.7-8.6C443.4,197.1,450.5,186.8,454.6,183L454.6,183z"/>
			<path class="st3" d="M439.7,213.4c-4,0-4.7-5.3-4.7-6.8C437,207,440.4,210.3,439.7,213.4z M405.2,265.3c-2.8,0.6-2.7-6.2,0.2-9.1
				c-1.3,4.4,2,8.4-0.1,9L405.2,265.3z M406.4,265.2c-0.2,3.2,8-0.4,10-3C411.6,264.3,406.6,262.6,406.4,265.2z M409.9,260.6
				c-0.3,3.1,7,0.3,9.3-2.1c-4.9,1.6-9-0.5-9.3,2V260.6z M408.6,261c-2.9,0.7-2.4-6.4,0.4-8.8C407.6,256.9,410.8,260.3,408.6,261z
				 M411.6,256.7c-2.9,0.7-1.2-5.4,0.9-7.8c-0.4,4.4,1,7.5-1,7.8H411.6z M413.1,256.7c-0.3,3.2,5.4,0.8,7.6-2.3
				C415.9,255.9,413.4,254.1,413.1,256.7z M414.6,254.2c-1.8-1.3,0.1-4.8,3.7-4.6C417.9,251.7,416.7,255.5,414.6,254.2z
				 M400.6,268.9c-0.1,3.2,8,1.6,10.6-1.8c-5.2,1-10.3-0.8-10.5,1.8H400.6z M433,263.1c-0.3,3.2,8.6-0.4,10.8-3.4
				C439.1,261.3,433.3,260.5,433,263.1z M427.6,264.4c-1.9-1.3,1.9-4.7,5-5.5c-0.4,2.1-3,6.8-5,5.6V264.4z M427,266.7
				c-0.2,2.9,9.5,1.3,12-1.4C430.7,266.8,427.3,264.2,427,266.7z"/>
			<path class="st3" d="M422.4,268.6c-1,2.7,8.3,2,11.6,0.5C428.7,269.1,423.2,266.7,422.4,268.6z"/>
			<path class="st3" d="M418.1,270.6c-1,2.4,7.6,2.4,11.8,1C424.3,271.6,419.1,268.2,418.1,270.6z M411.8,271.9
				c-1.6,2.9,7.6,3.1,10.5,1.7C417.1,272.9,413.1,269.6,411.8,271.9z M422.5,267c2.9,1.8,2.7-3.6,5-7.3
				C423.9,263,420.5,265.3,422.5,267z"/>
			<path class="st3" d="M417.3,269c2.4,2.1,4.4-5.3,6.6-9.5c-3.6,4-8.8,7.7-6.6,9.4V269z M410.5,271c2,2.4,8-7,10.2-12
				C417.4,262.9,408.9,269,410.5,271z M416.3,278.2c1,3.6,16.2-3.4,18-7.1c-8.8,4.6-18.2,3.6-18,7V278.2z M465,204.4
				c0.4-0.5,1.4,0,1.2,1.1c-0.3,1.5-2.5,9.2-6.3,11.8c-2.7,2-17,5.1-23.4,6.5c-3.6,0.7-6.5,2.5-8.9,5.3c0.8-3.3,1.8-6.6,3-9.8
				c1.2-3,4.4-6.2,7.8-6.3c6.1-0.3,14.1-0.8,20-3.3c2.7-1.1,5-3,6.7-5.3H465z"/>
			<path class="st3" d="M429.7,234.9c-2,1.4-4.1-3.7-1.7-8.6C428.1,231,431.8,232.6,429.7,234.9z"/>
			<path class="st3" d="M427.8,239.6c-2.7,0.8-3.5-4-1.8-7.8C425.7,235.9,430.3,238.4,427.8,239.6z"/>
			<path class="st3" d="M425.7,243.4c-2.6,1.3-3.5-3.6-1.7-7.1c-0.2,4.5,3.7,5.9,1.7,7V243.4z"/>
			<path class="st3" d="M426.8,243.7c1,3,7-2.7,8-5.8c-3.7,3.7-8.7,3.2-8,5.7V243.7z"/>
			<path class="st3" d="M429.5,239c1.2,3,8.7-5,10.4-8.7C436.2,234,428.7,236.8,429.5,239L429.5,239z"/>
			<path class="st3" d="M431,234.3c1.2,3.5,9.3-5.8,11.7-9.1C438.7,228.8,430.1,231.8,431,234.3z M431.3,230.9c-3-0.6,0.1-3,3.7-6.9
				C435.1,228.1,434.5,231,431.3,230.9z"/>
			<path class="st3" d="M436.2,228.5c-1.3-1.3,1.1-1.9,4.1-5.3C440.8,225.5,437.5,229.7,436.2,228.5L436.2,228.5z M422.2,243.7
				c-1.6,1-2.6-2.3-0.7-5.2C422,241.7,423.6,242.5,422.2,243.7z M456.4,223.4c3.3,2,8.6-6,10-9.3
				C463.5,217.9,455.8,221.3,456.4,223.4z"/>
			<path class="st3" d="M453.5,228c1.9,2,7.7-3.5,9.7-6.3C460.2,224.4,452.7,224.7,453.5,228z"/>
			<path class="st3" d="M450.4,232.2c0.6,2.8,9-3.5,11-6.5C457.8,229.2,449.8,228.9,450.4,232.2z"/>
			<path class="st3" d="M451.7,235.3c1.3,2.5,8.2-3.8,9.9-7c-4.3,3.6-11,4.5-10,7H451.7z M455.2,223c-2.1-2.3-1.2-3.4,0.4-7
				C456.4,219.7,457.7,221.2,455.2,223z M452.3,227.3c-4,0.2,0-4.6,1-8.7C452.9,223.2,454.3,226.9,452.3,227.3z"/>
			<path class="st3" d="M449.8,231.1c-2.7-0.6-2-4.5,0.2-9.2C449.5,227,452.3,229.9,449.8,231.1z M450.8,238.8c1,3,8.8-4,10-6.8
				C456.8,235.4,450.1,236.5,450.8,238.8z"/>
			<path class="st3" d="M446.1,243.6c1.1,3,9.3-3.2,11.8-6.6C453,241,445.5,240.6,446.1,243.6z"/>
			<path class="st3" d="M441.3,248.5c1.3,4.3,9.9-2.6,12.4-6C448.3,246.7,440.7,245.5,441.3,248.5z M449.3,237.5
				c-2.3,1.1-3.2-5.4-1.9-10.1c0,5,4.7,8.8,2,10L449.3,237.5z"/>
			<path class="st3" d="M445.4,242.7c-2.8,0.8-2-6.3,0.5-11C446.2,236.4,448.2,240.7,445.4,242.7z M440.4,247.6
				c-3,0.1-1-6.1,1.6-9.6C441.6,242.5,443,247,440.4,247.6z M445.9,250.2c1,1.6,3.2-1.3,7-3.5C449.5,247.7,445.5,248.7,445.9,250.2z
				 M447.7,197.5c-3-2.2-0.7-6.2,0-10C448.7,191.1,451.1,195.9,447.7,197.5z M447.7,202.8c4.5-0.5,3.8-6.1,4-9.7
				c-1.4,4.9-5,5.7-4,9.8V202.8z M447.1,202.1c-3.7-0.2-3.5-4.4-3.7-8.6C445.3,197.4,447.4,198,447.1,202.1z"/>
			<path class="st3" d="M447.2,207.3c3,0.3,4.4-2.6,5-7C449.5,204.4,447.1,203.1,447.2,207.3z M446.2,207c-3.7,0.5-3-3.8-3-7
				C444.4,203,447.4,204,446.2,207z"/>
			<path class="st3" d="M452,205.2c-0.3,2.8-2.1,7.6-5,6.5C445.9,208.3,449.6,207.6,452,205.2z"/>
			<path class="st3" d="M446.2,212c1.2-2.4-3-3.7-3.8-6.9c-0.5,4.6-0.1,7.6,3.8,7V212z M458.1,182.8c-2.3-2.4-0.3-6.4,0.4-10.2
				C459.5,176.2,461,181,458.1,182.8z M458.1,187.4c4,0.5,5-7.7,5.5-11.3C462.2,181,457.6,183.1,458.1,187.4L458.1,187.4z
				 M457.3,187.4c-2.8-1.5-2.2-4.7-3-7C456.1,183.3,457.9,183.7,457.3,187.4z"/>
			<path class="st3" d="M458.2,192.8c4.1,0.3,6.6-8.8,6.8-12.4C463.7,185.3,457.6,187.9,458.2,192.8L458.2,192.8z M457.3,192.6
				c-4-0.9-3.5-3.5-2.9-7.6C455.7,189.2,457.9,188.3,457.3,192.6z"/>
			<path class="st3" d="M458.2,198c4.6,0.8,4.3-6.6,8-11.9C463,190.1,457.2,195.1,458.2,198z M457.2,197.7c-3.6,0.2-4-5.1-3.8-7.3
				c0.9,2.2,5,4.2,3.7,7.4L457.2,197.7z"/>
			<path class="st3" d="M465.4,192.3c-1.7,5.7-4.2,11.4-7.2,11C456.7,200,461.1,199.6,465.4,192.3z"/>
			<path class="st3" d="M457.1,202.4c1.2-2.5-3-3.7-3.8-6.9C452.8,200.1,453.2,203.1,457.1,202.4z M464.2,198.8
				c-2.5,5.1-3.6,11-7,10.1C455.9,204.9,461,204.1,464.2,198.8z"/>
			<path class="st3" d="M456.5,208c1.5-2.8-2.7-3.7-3.8-7.4C452.2,205.4,452.7,208.9,456.5,208L456.5,208z M449.3,173.5
				c-2.4,0.6-5-2.1-4.1-6.2C448,167.9,449.2,170.5,449.3,173.5z M457.2,171.4c-0.2,1.2-1.7,1.3-1.2-0.4c0.4-1.1,0.4-2.3,0-3.4
				c-0.5-1.5-0.5-3.1,0-4.6c0.4-1,1.8-0.4,1.2,0.4c-0.6,0.9-0.7,2.8-0.2,3.7C457.6,168.4,457.4,170.1,457.2,171.4z M434.3,187.4
				c1,1.3,2.9,0.4,1.4-1.5c-1.2-1.5-3-2.8-3-4.4c-0.2-2-1.3-5-2.4-6.1s-2.4,0.4-1.2,1.2c1.3,0.8,2.2,4.4,2.1,5.8
				C431.3,184.4,433.2,185.9,434.3,187.4L434.3,187.4z M437.3,185.1c1,1.4,2.4,0.5,1.6-1.7c-0.7-1.5-0.8-3.5-1.6-4.6
				c-1.2-1.7-3-3.1-4.1-4.2c-1.2-1-2,0-1,1c1.2,1.2,2.3,2.6,3.3,4C436.9,181.8,436.3,183.6,437.3,185.1z M453,177.9
				c0.1,2-1.5,2.4-1.4-0.4c0-3,2.2-5.8,1-10.3c-0.8-2.2-0.8-6.3-0.4-8.4c0.4-2.2,2-0.8,1.3,0.9c-0.6,2,0.1,5.6,0.6,7.5
				c1.5,5.4-1.2,8-1,10.7H453z M448.7,166.9c0.2,1.9,1.8,2,1.3-0.5c-0.4-2-0.4-3.6,0-5.3c0.6-2.1,0.4-5.7,0-7.2
				c-0.5-1.6-2-0.7-1.4,0.5c0.7,1.9,0.8,3.9,0.3,5.9C448.3,162.3,448.4,165.1,448.7,166.9L448.7,166.9z M464.3,204
				c-0.8,0.9-2,0.3-1-1c1-1,0.7-1.2,1.3-2.4c0.6-1.4,0.5-2.1,1.2-3c0.7-1,1.6,0,1,0.7c-0.8,1-0.6,1.6-1,2.5
				C464.8,202.3,465.1,203.1,464.3,204z M443.9,228.6c-2.5,1.4-4.1,3.9-4.4,6.7c-0.1,2.5-0.8,4.9-2,7.1c2-0.5,3-3.7,3.3-6.8
				C441.1,232.4,442.8,231.1,443.9,228.6L443.9,228.6z M438.8,234.5c-1.7,3.1-4,4.3-4.2,6.6c-0.2,2.7-0.4,2.8-1.1,5.4
				c2-0.5,2.5-0.7,3-4.7C436.8,239,439.1,237.1,438.8,234.5z"/>
			<path class="st4" d="M386.2,263.3c-1,1.8-2,4.5-4,4C382.2,266,384.3,265,386.2,263.3z M383.2,263.9c-3.7,1.6-7,1.2-7.5,3.6
				c3.6,0.4,5-1,7.6-3.6H383.2z M399.3,251.2c-2.5,1.9-4.2,4.6-5,7.7c-0.8,2.8-2,5.4-3.6,7.8c2.6-1.7,4.5-4.4,5.3-7.4
				C396.7,256.3,397.6,254,399.3,251.2L399.3,251.2z M396.2,251.2c-2.8,2.2-5.4,4.8-6.2,7.9c-0.8,2.9-1.3,5.1-3.2,8
				c3-1.9,4.1-4.7,5-7.8c0.7-3,2.5-5.2,4.4-8L396.2,251.2z M387,258.5c0.1-0.5-0.2-1-0.7-1.2c-0.9-0.3-1.7-0.6-2.6-0.8
				c-1-0.3-1.6,0.4-1.6,0.9v2c0,0.7,0.2,0.8,0.7,0.9c0.7,0.1,1.7,0.2,2.4,0.7c0.6,0.4,1.2,0.1,1.5-0.5L387,258.5L387,258.5z
				 M376.4,258.5c0-0.6,0.2-1.1,0.6-1.2c0.8-0.3,1.6-0.5,2.4-0.4c1,0,1.1,0.2,1.1,0.6v2.1c0,0.8,0,0.8-0.4,1c-0.7,0-1.8,0-2.5,0.6
				c-0.5,0.3-1,0-1.1-0.6L376.4,258.5z"/>
		</g>
	</g>
	<g>
		<path class="st4" d="M403.7,286.6c0,1.2,0.2,2.2,1,3.1c-4.6-1.4-9.5-1-13.8,1.1c-1.8,0.8-4-1-1.9-2.7
			C392,285.8,398.7,287.1,403.7,286.6L403.7,286.6z M346.2,286.6c0.1,1,0,2-0.4,3c4.4-1.7,9.1-0.2,13.6,1.6c3,1.3,3.3-1,2.8-1.7
			c-1.1-1.7-3-2.8-5-2.9H346.2z M350,264.9c-1.3-0.5-2.7,0-4,1.4c-4.3,4.2-9.4,8.3-13.5,11.6c-1.5,1.3-3,3.7,3.4,6c0.3,0.2,5,2,8,2
			c1.3,0,1.3,1.8,1,2.3c-0.5,1-0.1,1.4-1.1,2.3c-1.1,1,0,2.1,1,1.3c3.6-3.2,9.6-1.1,15.3,0.7c1.4,0.4,3.8,0.3,3.8-1.6
			c0-2,1.5-3.4,2.4-3.5c2.4,0.4,14,0.5,17.5,0.1c2-0.3,2.2,2.9,3.3,4c0.8,0.9,3.7,1.1,5.8,0.2c4-1.8,10-1.8,12.5,0
			c1,0.7,1.9,0,1.3-0.7c-0.8-1-0.7-1.6-1.1-2.4c-1-2-0.2-2.4,0.8-2.5c11-1.5,14.6-5.2,11.2-8.3c-4.4-3.8-9.2-7.7-13.4-12.2
			c-1.2-1.2-2-1.7-4.3-0.7c-8,3.6-16.6,5.6-25.3,5.9C366.2,270.3,357.8,268.3,350,264.9L350,264.9z"/>
		<path class="st7" d="M401.8,265.5l-1.6,0.4c-9,3.2-17.2,5.4-25.7,5.4c-8.3,0-17-2.4-24.9-5.6c-0.5-0.2-1-0.2-1.5,0
			c-0.5,0.1-1,0.4-1.3,0.7c-3.7,3.7-7.6,7.1-11.8,10.3c-0.7,0.5-0.6,1.8,0.5,2.2c8.3,3,16.4,8.5,39.6,8.3
			c23.5-0.2,31.8-5.6,39.2-8.1c0.5-0.2,1-0.5,1.3-1c0.1-0.2,0.2-0.5,0.1-0.8c-0.1-0.3-0.3-0.6-0.6-0.8c-4.3-3.5-8.8-6.3-11.8-10.4
			c-0.3-0.5-0.9-0.6-1.5-0.5L401.8,265.5z M401.8,266c0.5,0,1,0,1.1,0.3c3,4.3,7.7,7,11.9,10.5l0.4,0.7c0.1,0.1,0.1,0.3,0,0.4
			c-0.1,0.3-0.6,0.6-1,0.7c-7.6,2.6-15.7,8-39,8.2c-23.2,0.2-31.2-5.3-39.5-8.3c-0.8-0.4-0.7-1.2-0.4-1.4c4.2-3.2,8.2-6.8,11.8-10.4
			c0.3-0.3,0.7-0.5,1.1-0.6h1.2c7.9,3.4,16.4,5.3,25,5.6c8.7,0,17-2.2,26-5.3c0.5-0.2,1-0.3,1.5-0.4L401.8,266z"/>
		<path class="st4" d="M344.9,114.6c0-1.4,2-1.5,1.8,0.4c-0.3,2.3,4.5,8.3,4.9,12c0.3,2.5-1.5,4.6-3.2,6c-2,1.4-4.6,1.6-6.8,0.5
			c-0.9-0.8-1.7-3.3-1-4.3c0.2-0.3,1.3,3.7,3.7,3.7c3.3,0,6-2.5,6-4.7C350.5,124.4,345,118.4,344.9,114.6z M354.4,124
			c0.6-0.4,1.4,1.3,0.8,1.7c-0.5,0.3-1.5-1.3-0.8-1.8V124z M355.9,120.5c-0.3,0.2-0.8,0-0.7-0.2c1-1.3,2.2-2.5,3.6-3.3
			c0.4-0.2,1,0.4,0.8,0.7C358.6,118.9,357.3,119.8,355.9,120.5L355.9,120.5z M368.5,110.5c0.3-0.6,2.1-1.3,2.6-1.7
			c0.4-0.5,0.6,0.4,0.4,0.7c-0.3,0.7-1.9,1.7-2.6,1.8c-0.3,0-0.6-0.4-0.4-0.7V110.5z M372.8,110.8c0.5-1.3,1.4-2.5,2.5-3.4
			c0.5-0.3,1.3,0,1.1,0.4c-0.7,1.3-1.7,2.5-2.9,3.3C373.2,111.4,372.7,111.1,372.8,110.8z M369.1,113.5c-0.3,0.2-0.1,0.7,0.1,0.8
			c0.6,0.2,1.5,0.2,2,0c0.6-0.4,0.3-2.9-0.5-1.6C370.1,113.5,369.7,113.3,369.1,113.5z M361.8,119.1c-1.3-1,0.4-2.4,1.7-1.4
			c2.7,2-4,9.8-7.6,13.4c-0.7,0.7-1.3-1-0.4-1.9c2.6-2.2,4.9-4.7,6.7-7.6C362.6,121.1,362.9,120,361.8,119.1L361.8,119.1z
			 M377.1,112.5c0.1-1-1.6,0-1.6-1.3c0-0.7,1.9-1.2,2.7-0.4c1.3,1.4,0.3,3.7-2,3.9c-1.8,0-5,2.7-4.5,3.2c0.5,0.7,5.4,1.1,8.3,0.7
			c1.8-0.3,1.4,1.3-0.4,1.5s-3.2,0-4.8,0.6c-2,0.5-2.8,3-3.9,4c-0.2,0.2-0.8-0.8-0.6-1.2c0.8-1.2,2-3,3.4-3.6
			c0.8-0.3-2.4-0.4-3.4-0.7c-0.8-0.2-0.6-1.3-0.3-1.9c0.4-0.8,3.4-3.9,4.7-3.8C375.8,113.5,377,113.2,377.1,112.5L377.1,112.5z
			 M382.1,112.7c0.6-0.5,1-1.3,1.5-1.8c0.3-0.3,0.9,0,0.8,0.8c-0.1,0.7-1,1.2-1.5,1.7C382.4,113.7,381.9,113,382.1,112.7
			L382.1,112.7z M388.6,110.4c0.9,0,1,1.6,0.2,1.8C388.2,112.4,387.8,110.5,388.6,110.4z M386.5,115.4c0,1.5,0.7,1.4,2,1.3
			c1.3,0,2.4,0,2.4-1.2c0-1.3-0.7-2.5-1-1.6c-0.1,0.8-0.3,2.2-0.8,1.6c-0.4-0.5-0.2-0.6-1,0.2c-0.5,0.5-0.5-0.2-0.8-0.6
			c-0.2-0.3-0.8,0.2-0.8,0.4L386.5,115.4z M377.3,122.6c-0.3,1.9,0,4.5,0.9,4.5c1.2,0,3.6-4,4.8-6.2c0.7-1.2,1.8-1.4,1.3-0.1
			c-0.7,1.9-0.6,6,0,7.2c0.4,0.6,3-0.6,3.4-1.5c0.8-1.7,0.1-4.8,0.4-6.7c0.1-1.2,1.3-1.5,1.2-0.3c-0.2,2.5-0.2,5-0.1,7.5
			c0,1,2.9,2.4,3.3-0.6c0.2-1.8,1.2-3.7,0-5.7c-0.8-1.3,1.1-1.2,2.1,0.6c0.7,1.2-0.6,3.2-0.5,4.7c0,2.4-1.8,3.8-3.1,3.8
			c-1.2,0-2-1.5-3-1.5s-2.2,1.7-3,1.6c-3.6-0.2-1.7-5.3-2.8-5.4c-1.2,0-2.5,5-4,4.9c-1.4-0.2-3-4.2-2.3-5.8
			C376.4,122,377.4,121.6,377.3,122.6L377.3,122.6z M394.2,114.6c-1.7-1,0-3.7,0.9-2.8c1.6,2,3.2,6.5,4.4,6.9c0.7,0.2,0.6-3.4,1.1-5
			c0.4-1.3,1.8-0.9,1.6,0.7c-0.1,0.5-2,6.4-1.8,6.6c1.3,2.5,2.4,5.1,3.3,7.8c0.3,1.2-1.1,0.4-1.3,0.2c-0.9-1.4-2.4-6.5-2.4-6.2
			l-1.7,7.7c-0.2,1-1.7,0.8-1.3-1c0.3-1.4,2.3-8.3,2.2-8.6C398.1,118.4,396.4,116.3,394.2,114.6L394.2,114.6z"/>
		<path class="st4" d="M397.2,131.2c-0.4,0-1.2,1,1.2,1.5c3.1,0.6,6.6-0.5,7.6-3.6c1.3-3.7,2-7.2,2.7-8.5c0.8-1.5,1.8-1.4,1-3.6
			c-0.5-1.7-1.5-1.2-1.7-0.3c-0.5,2.3-2.6,10-3.3,11.3C403.5,130.6,401,131.6,397.2,131.2L397.2,131.2z"/>
		<path class="st4" d="M403.6,119c-0.4-0.7-1.2,0-1,0.7c0.1,0.6,0.6,1,1.2,1c0.7,0,2.2,0.1,2.2-1c0-0.8-0.7-1.5-1.1-0.6
			C404.4,119.9,403.9,119.8,403.6,119L403.6,119z M404.3,116c-0.2,0.2,0,1.1,0.3,1c1.1,0,2.3-0.3,3.3-0.8c0.2-0.2,0.1-0.7-0.2-0.7
			C406.7,115.5,405.1,115.5,404.3,116L404.3,116z M413.1,118.3c0.8-1.2,2.8-1.3,2,0.4c-2.1,4.1-4.2,8.2-6.3,12.3
			c-0.8,1.4-1.4,0.7-0.8-0.4C408.7,129.2,412.9,118.6,413.1,118.3L413.1,118.3z"/>
		<path class="st4" d="M405.4,133c-0.2-0.8-1.5-2-1.3,0.2c0.2,3.8,5.5,2.6,7,1.3s0.3,4.3,2.2,4.9c1,0.3,3-1.1,4-2.4
			c2.7-3.5,4.5-8.6,7-12c1-1.4-0.5-2.4-1-1.3c-2.4,3.8-5.2,11.6-8.3,13.6c-2.5,1.6-1.7-2-1.8-3.2c-0.1-0.8-1.1-2-2.4-0.9
			c-1,0.8-2.4,1.3-3.7,1.2C406.4,134.4,405.7,134.4,405.4,133L405.4,133z"/>
		<path class="st4" d="M414.8,126c0-0.3-1.1-0.4-1,0.7c0,0.8,1,1,1.1,1c1.5-1.2-0.3-0.6-0.1-1.8V126z M412.5,130.4
			c-0.3,0-0.6,1,0.2,1.1l3.9-0.2c0.4,0,0.6-0.9-0.4-0.8c-1.2,0-2.7-0.3-3.7,0V130.4z M350.5,113.8c0.5,0,1.6,1.4,1.5,1.9
			c0,0.2-1.2,0-1.5-0.3S350.3,113.8,350.5,113.8z M345.2,124.2c-1,0.6,0.2,1.7,1,1.2c2.8-1.9,7-3.8,8-7.5c0.3-1.2,1.4-3.1,2.5-3.5
			c1-0.5,2.6,1.9,3.6,0c0.6-1,2.7,0.7,3.2-0.4c0.6-1.3,0.3-2,0.3-3.4c0-0.8-0.7-1-1.2,0.3c-0.2,0.6,0,1.2-0.1,1.6
			c-0.2,0.2-0.6,0.4-1,0.2c-0.2-0.2,0-0.7-0.6-1c-0.2,0-0.6-0.1-0.8,0.2c-0.7,1.3-1,2.5-2.1,1c-0.9-1-1.4-3.1-2-0.3
			c-0.2,1-1.7,2.4-2.6,2.4c-1.1,0-0.8-3-3.2-2.5c-1.3,0.3-1.2,2.7-1,3.5c0.3,1.3,4,0.4,3.7,1.2C352.3,119.9,348.5,122.6,345.2,124.2
			L345.2,124.2z M322.5,137.4c-0.1,0.5,0.5,1.7,1.1,1.8c0.6,0,1-1.3,0.8-1.8C324.2,137.1,322.6,137.1,322.5,137.4L322.5,137.4z
			 M325.8,142.3c-0.4-0.4-1.6,0.7-0.6,1.5c0.5,0.5,2.5,1.1,3,0.2c0.8-1.2-0.7-5.5,0-6c0.5-0.5,2.8,2.8,4,3c2.7,0.4,2-4.6,5-4.2
			c1.9,0.2,2.1-2.2,1.8-3.8c-0.2-1.5-2.6-3.6-3.7-4.6c-1.4-1.2-2.1,1-1.2,1.6c1.2,1,3.3,2.9,3.6,4.1c0.1,0.6-1.4,1.8-2,1.5
			c-1.4-0.8-2.6-4-3.8-4.7c-0.4-0.2-1.4,0.3-1,1.3c0.6,1.1,3,2.7,3.1,3.9c0.1,1-1,3.2-1.8,3.2c-0.9,0-3-2.7-3.7-4
			c-0.4-0.5-1.5-0.5-1.7,0.4c-0.1,1.8,0.1,3.7,0.5,5.5C327.5,142.8,326.4,142.9,325.8,142.3z M321.8,133.7c-0.4,0.4,0.8,1.2,1,1
			c0.4-0.4,2.1-2.3,1.8-3c-0.3-0.6-2.6-2-3-1.3c-0.7,1.1,2.2,1.7,1.7,2C322.8,132.8,322.3,133.2,321.8,133.7z M325.9,125.3
			c0,0,0.8,2.5,1.4,1.4C327.7,126,325.9,125.3,325.9,125.3z M327.1,129.3c-0.2,0-1,0.7-0.5,1c0.8,0.4,2.9,0.8,2.4-0.7
			c-0.3-0.9,3.2,0,2.3-2.4c-0.4-0.7-1-1.3-1.7-1.7c-0.4,0-1.5,0.5-0.8,0.9c0.5,0.2,2,1.1,1.5,1.7c-0.7,0.6-1.1-0.3-1.9-0.1
			c-0.4,0-0.1,1.2-0.4,1.5C328,129.7,327.3,129.1,327.1,129.3L327.1,129.3z M332.6,119.8c-0.6,0.5-1,1.2-1.2,2
			c0,0.2,0.3,0.6,0.5,0.5c0.6-0.5,1-1.1,1.2-1.9C333.1,120.1,332.9,119.6,332.6,119.8z M335.4,119.5c-0.8-1,1-2.6,1.7-0.5
			c0.5,1.3,5.5,7.9,6.5,10.1c0.8,1.5,0,2.1-0.9,1C340.2,126.9,338.1,122.9,335.4,119.5L335.4,119.5z M340.6,119.6c0.9-1,2.7-3,2.2-4
			c-0.4-1-1.5-1-1.7-0.7c-1,1.3,0.8,1,0.5,1.4c-0.5,1-1,1.6-1.3,2.6C340.2,119.2,340.4,119.8,340.6,119.6z M418.4,122.8
			c-0.7-0.5,0.6-3,1.5-2c2.3,2.7,3.4,11.6,4.1,18.3c0,0-1,0.9-1,0.7C423,136.3,421.5,125.4,418.4,122.8z M365.3,114.2
			c-0.8-1.8,1.1-2.4,1.4-1.2c1.3,5.8,4.5,10.2,7,14.1c0.7,1.2,0,2-1.7,0.8c-1.2-0.8-2.5-3.9-3-4c-1.2-0.2-3.8,5-9.1,3.5
			c-1.4-0.4-1.3-4.5-1.4-6.3c0-0.9,1-1,1,0c0,1.7,0,5.2,2.1,5.4c1.8,0,5.6-2.4,6.4-4.4S366.1,116.2,365.3,114.2L365.3,114.2z"/>
		<path class="st4" d="M419.8,138.4c0.4-1.2,6.1-10.8,6.9-12.9c0.4-1,2,1.8,0.4,3.3c-1.4,1.2-5.5,8-6.3,10.4
			C420.4,140.2,419.4,139.7,419.8,138.4L419.8,138.4z"/>
		<path class="st4" d="M429.5,129.3c1-4,3.6,0.6,1.3,2.8c-3.4,3.4-4.5,9.9-10,10.9c-1.4,0.3-4-0.7-4.8-1.3c-0.3-0.2,0.2-1.6,1.1-0.9
			c1.3,1,4.1,1.3,5.6,0.1C426,137.7,428.3,133.7,429.5,129.3z M372.5,142c-0.3,0.3-1,0.3-1.1,0.7c-0.3,1.4,0,2.2-0.3,3.6
			s-1.3,1.4-1.2,0.3c0-1.4,1.3-3.5,0.4-3.6c-0.6-0.1-1-0.9-0.4-1.3c1.1-0.7,1.7-0.6,2.4-0.4C372.6,141.4,372.7,141.8,372.5,142z"/>
		<path class="st4" d="M371.7,140c-1.4,1.4-2.8,1.9-4.1,3.5c-0.6,0.6-0.5,1.5-0.9,2.4c-0.3,0.9-1.4,1-1.7,0.9c-0.5-0.4-0.4-2-1-1.2
			c-0.6,0.9-0.9,2-1.7,2c-0.7,0-2-1.5-1.3-1.5c2.3-0.3,2.2-2,3-2.2c1-0.1,1,1.5,1.7,1.2c0.4-0.2,0.7-2.1,1.2-2.6
			c1.5-1.6,2.7-2.4,4.3-3.6C371.9,138.3,372.5,139.4,371.7,140L371.7,140z M377,145c-1.2,0.2-1,1.7-0.6,1.8c0.5,0.3,1.4,0.4,1.7-1.3
			c0.2-0.7,0.3,3.5,1.8,1.9c1-1,3.1,0.2,4-1c0.7-0.9,1-1.5,0.4-2.7c-0.2-0.3-1-0.2-1,0.7c0,0.8-0.5,1.7-1.3,1.6
			c-0.4-0.1,0.2-1.9-0.2-2.4c-0.2-0.2-0.5-0.2-0.7,0c-0.3,0.4,0.3,2.2-0.6,2.4c-1.2,0.2-0.6-1.2-1-1.4
			C377.8,143.8,377.7,144.8,377,145L377,145z M386,142c0.9-0.2,0.6-0.2,2-1.3c0.5-0.4,0.6,0.8,0.5,1.3c0,0.7-1,0.2-1.3,0.9
			c-0.4,0.9-0.2,3-0.4,3.8c0,0.4-0.8,0.4-0.8,0c-0.2-1,0.1-2,0-3.3C386,143,385.5,142.3,386,142L386,142z M381,139.5
			c-0.2,0.9-0.2,1.6-0.2,2.3c0,0.5,1,0.2,1,0.1c0-0.8,0.2-2,0-2.3C381.6,139.5,381.1,139.3,381,139.5z"/>
		<path class="st4" d="M374.7,130.2l-1.4,5.6l-2-3.8v3.9l-4.4-5.2l1.5,5.6l-4-3.4l2.2,3.8l-7-4.5l4.4,5.2l-5.6-2.8l4,3.4l-9-3.4
			l8.7,4.3c4-1.8,8.3-2.7,12.6-2.6c4.9,0,9.3,1,12.5,2.6l8.8-4.3l-9,3.4l4-3.4l-5.5,2.8l4.3-5.2l-7,4.5l2.2-3.8l-4,3.3l1.5-5.5
			l-4.3,5.2V132l-2,3.8L374.7,130.2L374.7,130.2z"/>
	</g>
</g>
<path class="st8" d="M391.3,295l-0.3,2.6h-0.4l-0.1-1.8c-0.1-0.5-0.3-1.1-0.5-1.6c-0.1-0.4-0.3-0.9-0.5-1.3l-1-1.4l0.8-2.2
	c0.7,0.7,1.2,1.5,1.5,2.4C391.2,292.7,391.3,293.8,391.3,295 M398.3,290.7c0,0.7-0.2,1.2-0.5,1.5c-0.2,0.3-0.6,0.6-1.3,0.7l0.4,1.5
	c0.1,0.7,0.1,1.3,0,2c0,0.4-0.1,0.9-0.1,1.3h-0.4c0-0.4,0-0.9-0.1-1.3c0-0.3-0.1-0.7-0.2-1l-0.4-1c-0.2-0.5-0.4-1-0.7-1.4l-1-1.7
	l0.6-2l1,1c0.3,0.2,0.6,0.3,1,0.3c0.8,0,1.2-0.4,1.2-1.3h0.4v1.4 M404.6,295.5l-0.5,2.1c-0.4,0-0.6-0.3-0.8-0.7l-0.4-1.3
	c-0.1-0.6-0.1-1.1-0.1-1.7c-0.3,0.1-0.7,0.2-1,0.2c-0.5,0-0.9-0.1-1.3-0.4c-0.3-0.2-0.5-0.6-0.5-1c0-0.9,0.3-1.7,0.7-2.3
	c0.5-0.7,1-1,1.5-1.1c0.5,0,0.8,0.1,1,0.4c0.2,0.3,0.3,0.6,0.3,0.9v2c0,0.9,0.1,1.5,0.3,1.9C403.8,294.8,404.1,295.1,404.6,295.5
	 M402.6,292c0-0.6-0.3-0.8-0.8-0.8c-0.2,0-0.4,0-0.6,0.1c-0.2,0.1-0.2,0.2-0.2,0.3c0,0.3,0.3,0.5,1,0.5L402.6,292 M411.3,295
	l-0.3,2.6c-0.5-0.4-1-1-1.4-2c-0.5-1.3-1-2.7-1.3-4.1c-0.5,1.9-1.1,3.7-1.8,5.5c-0.2,0.3-0.5,0.5-0.8,0.7v-2.5
	c0.6-0.7,0.9-1.1,1-1.5c0.3-0.5,0.6-1.1,0.8-1.7l0.5-2.7h0.4l0.9,2.7c0.2,0.6,0.5,1.2,0.9,1.6L411.3,295"/>
<path class="st9" d="M430.8,319.4c0.4,0.4,0.6,0.8,0.7,1.2l0.4,1.6l-0.8,0.1c-0.3-0.5-0.6-1-1-1.5c-0.3-0.4-0.7-0.8-1.1-1.2
	c-0.6-0.5-1.1-1-1.7-1.5c-0.6-0.6-1.3-1.2-2-1.7c-0.4-0.2-0.6-0.4-0.6-0.5c-0.2-0.2-0.3-0.5-0.3-0.8c-0.1-0.5-0.2-1.1-0.2-1.6
	l2.7,2.2c0.9,0.7,1.7,1.4,2.5,2.2L430.8,319.4 M421.3,313.6l-0.2,2H418l0.3-2H421.3 M429.7,322.5l-7.6,2.3l-1.3-2l6.5-2l-0.7-0.8
	c-0.3-0.3-0.6-0.5-0.9-0.6c0,0.4-0.1,0.7-0.4,1c-0.3,0.3-0.6,0.5-1,0.6c-0.6,0.2-1.2,0.2-1.8,0c-0.5-0.1-1-0.3-1.3-0.7
	c-0.4-0.6-0.7-1.4-0.7-2.2c0-1,0.3-1.6,0.9-1.8c0.7-0.2,1.8,0,3,0.7c1.2,0.5,2.2,1.4,3,2.4L429.7,322.5 M423.9,318.5
	c-0.3-0.1-0.5-0.2-0.8-0.3c-0.2-0.1-0.4-0.1-0.6,0c-0.2,0-0.4,0.1-0.5,0.3c-0.1,0.2-0.1,0.4,0,0.6l0.5,0.2h0.6l0.4-0.3L423.9,318.5
	 M415.9,316.9l-0.5,2l-3.2-0.3l0.5-2l3.1,0.3 M423.3,324.6l-1.7,0.4c-0.6,0.1-1.1,0.1-1.7,0c-0.5,0-1-0.2-1.5-0.4
	c-0.3,0.5-0.8,1-1.5,1.2c-0.5,0.3-1,0.5-1.6,0.6l-1.2,0.3l-1-2l1.1-0.3c0.4-0.1,0.9-0.2,1.3-0.4l0.9-0.5l-1-0.5h-0.7
	c-0.1,0-0.1,0-0.2,0c-0.1,0.1-0.2,0.2-0.2,0.3h-0.5c-0.5-0.8-0.6-1.5-0.3-2s0.9-0.8,2-1c0.8-0.2,1.7-0.3,2.6-0.2
	c0.8,0.1,1.3,0.4,1.5,0.9c0.2,0.2,0.2,0.5,0.2,0.7l-0.4,1.2h0.5c0.2,0,0.4,0,0.6,0l1.7-0.3l1,2 M415.2,326.4l-1.6,0.3
	c-0.8,0.2-1.5,0-2.2-0.4c-0.8-0.7-1.4-1.6-1.7-2.6l-0.8-2.2c-0.1-0.4-0.4-0.8-0.8-1c-0.3-0.2-0.6-0.4-0.9-0.5l0.6-2.1
	c0.6,0.3,1,0.6,1.4,1l1,1.7l0.5,1.5l1.1,2.2c0.3,0.3,0.7,0.4,1,0.3l1.7-0.2L415.2,326.4 M408.2,318.9l-1,1.9l-3-0.7l1-1.9
	L408.2,318.9 M410,327.3l-7.5,0.7l-0.4-2l6.2-0.7c-0.1-0.3-0.3-0.6-0.6-0.8c-0.3-0.2-0.7-0.4-1-0.6l0.5-2c0.7,0.4,1.2,0.9,1.6,1.3
	c0.3,0.5,0.6,1.2,0.8,2.1L410,327.3 M404,328.3c-0.7,0-1.5-0.1-2.2-0.2c-0.6-0.1-1.1-0.3-1.7-0.5c-0.4,0.2-0.9,0.3-1.3,0.4
	c-0.6,0-1.1,0-1.7,0h-2c-0.4,0-0.8-0.1-1.2-0.3c-0.3-0.2-0.5-0.5-0.8-1c-0.4,0.4-0.9,0.8-1.5,1l-1.7,0.1h-1.7l0.2-2.1h1.7
	c0.8,0,1.5,0,2.1-0.4c0.8-0.3,1.3-1,1.3-1.8l0.7,0.1c0,0.4-0.1,0.9-0.1,1.3c0,0.3,0,0.5,0.3,0.7s0.6,0.3,1,0.3h1.5c1,0,1.6,0,2-0.2
	c0.6-0.2,0.9-0.5,1-1.1l0.1-0.4c0,0,0.3,0,0.5-0.2l0.5-0.2v0.4c0,0.1,0,0.2,0,0.3l-0.3,1.1c0.7,0.2,1.3,0.4,2,0.5
	c0.1-0.2,0-0.4-0.1-0.7l-0.3-0.6c0-0.1,0-0.2,0.1-0.3l0.3-0.2l1-0.9l0.5,1v1L404,328.3 M392.7,319.6l-2,1.3l-1.3-0.9l-1.4,1l-1.9-1
	l1.8-1.3l1.5,0.8l1.5-1l1.8,1 M389.7,327.7l-7.3-1.2l0.8-2l6.2,1c0-0.4,0-0.7-0.2-1c-0.1-0.3-0.3-0.5-0.5-0.8l1.6-1.7
	c0.4,0.6,0.6,1,0.7,1.6c0,0.5-0.2,1.2-0.5,2.1L389.7,327.7 M383.6,326.7l-1.6-0.3c-0.9-0.2-1.4-0.6-1.5-1.2
	c-0.2-0.6,0.1-1.5,0.8-2.8l1.2-2c0.3-0.5,0.4-0.9,0.3-1.2c-0.1-0.2-0.2-0.5-0.3-0.7l2.2-1.6c0.3,0.5,0.3,1,0.3,1.4
	c0,0.5-0.3,1.1-0.7,1.8l-0.8,1.4c-0.4,0.7-0.8,1.4-0.9,2.2c0,0.4,0.2,0.6,0.5,0.7l1.6,0.4L383.6,326.7 M379.8,318.8l-2.5,1.1
	l-1.8-1.7l2.6-1l1.7,1.7 M378.8,325.5c-0.5,0.5-1,1-1.6,1.4c-0.5,0.3-1.1,0.5-1.7,0.6l-2.4-0.1c-1-0.1-1.9-0.4-2.8-0.7
	c-1.3-0.4-2.5-1-3.4-2c-0.6-0.8-0.6-1.5,0-2.2c0.6-0.7,1.2-1.2,2-1.6c0.8-0.5,2-1,3.8-1.6l0.4,0.5l-2.8,1.2c-0.5,0.3-1,0.6-1.3,1
	c-0.4,0.4-0.3,1,0.2,1.6c1.8,1.4,4,2.2,6.3,2.2c1.2,0,2-0.3,2.3-0.7c0.3-0.3,0.4-0.6,0.5-1l0.2-1.6l2.5-1.5c0,0.5,0,1-0.1,1.5
	c-0.2,0.6-0.6,1.1-1,1.6l-1.2,1.4"/>
</svg>
