<?xml version="1.0" encoding="utf-8"?>
<!-- Generator: Adobe Illustrator 24.0.1, SVG Export Plug-In . SVG Version: 6.00 Build 0)  -->
<svg version="1.1" id="flag-icons-ag" xmlns="http://www.w3.org/2000/svg" xmlns:xlink="http://www.w3.org/1999/xlink" x="0px"
	 y="0px" viewBox="0 0 800 480" style="enable-background:new 0 0 800 480;" xml:space="preserve">
<style type="text/css">
	.st0{fill:none;}
	.st1{fill-rule:evenodd;clip-rule:evenodd;fill:#FFFFFF;}
	.st2{fill-rule:evenodd;clip-rule:evenodd;}
	.st3{fill-rule:evenodd;clip-rule:evenodd;fill:#0061FF;}
	.st4{fill:#E20000;}
	.st5{fill-rule:evenodd;clip-rule:evenodd;fill:#FFD600;}
</style>
<rect x="0" class="st0" width="800" height="480"/>
<path class="st1" d="M0,0h800v479.5H0V0z"/>
<path class="st2" d="M0.1,0.6h801v202.6H0L0.1,0.6z"/>
<path class="st3" d="M118.3,190.5h591.8v106.7H118.3L118.3,190.5z"/>
<g>
	<polygon class="st4" points="800,51.6 400.8,479.5 800,479.5 	"/>
	<polygon class="st4" points="0,50.6 0,479.5 400,479.5 	"/>
</g>
<path class="st5" d="M567.6,190.6L496,172.5l60.8-45.9l-74.7,10.7l38.4-65.2l-66.3,38.4l12-75.8l-44.9,59.8l-18.1-69.4l-20.3,71.5
	l-44.8-60.9l12.8,78l-66.4-40.6l38.4,65.2l-72.6-11.7l59.8,44.8l-74.9,19.2H567.6L567.6,190.6z"/>
</svg>
