<?xml version="1.0" encoding="utf-8"?>
<!-- Generator: Adobe Illustrator 24.0.1, SVG Export Plug-In . SVG Version: 6.00 Build 0)  -->
<svg version="1.1" id="flag-icons-ai" xmlns="http://www.w3.org/2000/svg" xmlns:xlink="http://www.w3.org/1999/xlink" x="0px"
	 y="0px" viewBox="0 0 800 480" style="enable-background:new 0 0 800 480;" xml:space="preserve">
<style type="text/css">
	.st0{fill:#012169;}
	.st1{fill:#49497D;}
	.st2{fill:#0E0E6E;}
	.st3{fill:#262678;}
	.st4{fill:#808067;}
	.st5{fill:#58587B;}
	.st6{fill:#1B1B74;}
	.st7{fill:#6E6C70;}
	.st8{fill:#CCCC33;}
	.st9{fill:#99994E;}
	.st10{fill:#A4A43D;}
	.st11{fill:#3A3A7C;}
	.st12{fill:#D0D045;}
	.st13{fill:#8D8D5B;}
	.st14{fill:#53527C;}
	.st15{fill:#737370;}
	.st16{fill:#E5E59D;}
	.st17{fill:#FFFFFF;}
	.st18{fill:#F2F1D7;}
	.st19{fill:#D9D868;}
	.st20{fill:#666677;}
	.st21{fill:#FBFAF2;}
	.st22{fill:#F2F1D2;}
	.st23{fill:#32327B;}
	.st24{fill:#DDDC7A;}
	.st25{fill:#E0DEA1;}
	.st26{fill:#E5E3AF;}
	.st27{fill:#F6F6E4;}
	.st28{fill:#E1E18C;}
	.st29{fill:#D4D456;}
	.st30{fill:#EEEDC1;}
	.st31{fill:#FEF8F1;}
	.st32{fill:#FBBE66;}
	.st33{fill:#FBC477;}
	.st34{fill:#FCB144;}
	.st35{fill:#FE9F11;}
	.st36{fill:#FEA522;}
	.st37{fill:#FAE3C9;}
	.st38{fill:#FBEAD6;}
	.st39{fill:#F9D6AA;}
	.st40{fill:#F9D099;}
	.st41{fill:#FDAB33;}
	.st42{fill:#FCF1E4;}
	.st43{fill:#FCB755;}
	.st44{fill:#FACA88;}
	.st45{fill:#F8DCBB;}
	.st46{fill:#FF9900;}
	.st47{fill:#D3D079;}
	.st48{fill:#8CBF84;}
	.st49{fill:#00CCFF;}
	.st50{fill:#ADB333;}
	.st51{fill:#1AC5B5;}
	.st52{fill:#68B070;}
	.st53{fill:#7FB15C;}
	.st54{fill:#27C2AA;}
	.st55{fill:#34BE9E;}
	.st56{fill:#96B247;}
	.st57{fill:#A2B23D;}
	.st58{fill:#0DC9C1;}
	.st59{fill:#5BB47C;}
	.st60{fill:#74B166;}
	.st61{fill:#42BB92;}
	.st62{fill:#8BB252;}
	.st63{fill-rule:evenodd;clip-rule:evenodd;fill:#FFFFFF;}
	.st64{fill:#C8102E;}
</style>
<path id="rect4120" class="st0" d="M0,0h800v480H0V0z"/>
<g>
	<path id="path1855" class="st1" d="M599,180.4l2,2L599,180.4z"/>
	<path id="path1857" class="st2" d="M601,180.4l2,2L601,180.4z"/>
	<path id="path1859" class="st3" d="M595,182.4l2,2L595,182.4z"/>
	<path id="path1861" class="st4" d="M597,182.4l2,2L597,182.4z"/>
	<path id="path1863" class="st5" d="M603,182.4l2,2L603,182.4z"/>
	<path id="path1865" class="st2" d="M528,184.5l2,2L528,184.5z"/>
	<path id="path1867" class="st6" d="M591,184.5l2,2L591,184.5z"/>
	<path id="path1869" class="st7" d="M593,184.5l2,2L593,184.5z"/>
	<path id="path1871" class="st8" d="M531.5,188c0,52.6-6,111.7,33,152.8c8,8.4,23.4,27.7,36.5,27c13.7-0.8,31.4-21.1,39.2-31
		c34-44.8,28.7-98.2,29.8-150.2c-15.3,6.9-23,9.2-36.4,9c-10,1-25.3-5.5-34.5-10c-6,4-14.7,8.9-30.4,9.4
		C550.8,195.8,544.9,192.7,531.5,188L531.5,188z"/>
	<path id="path1873" class="st9" d="M605.2,184.5l2,2L605.2,184.5z"/>
	<path id="path1875" class="st1" d="M607.2,184.5l2,2L607.2,184.5z"/>
	<path id="path1877" class="st2" d="M670,184.5l2,2L670,184.5z"/>
	<path id="path1879" class="st10" d="M530,186.5l2,2L530,186.5z"/>
	<path id="path1881" class="st7" d="M532,186.5l2,2L532,186.5z"/>
	<path id="path1883" class="st11" d="M534,186.5l2,2L534,186.5z"/>
	<path id="path1885" class="st6" d="M586.8,186.5l2,2L586.8,186.5z"/>
	<path id="path1887" class="st7" d="M588.8,186.5l2,2L588.8,186.5z"/>
	<path id="path1889" class="st10" d="M591,186.5l2,2L591,186.5z"/>
	<path id="path1891" class="st12" d="M599,186.5l2,2L599,186.5z"/>
	<path id="path1893" class="st10" d="M607.2,186.5l2,2L607.2,186.5z"/>
	<path id="path1895" class="st13" d="M609.2,186.5l2,2L609.2,186.5z"/>
	<path id="path1897" class="st11" d="M611.2,186.5l2,2L611.2,186.5z"/>
	<path id="path1899" class="st3" d="M664,186.5l2,2L664,186.5z"/>
	<path id="path1901" class="st14" d="M666,186.5l2,2L666,186.5z"/>
	<path id="path1903" class="st13" d="M668,186.5l2,2L668,186.5z"/>
	<path id="path1905" class="st15" d="M538.2,188.6l2,2L538.2,188.6z"/>
	<path id="path1907" class="st14" d="M540.2,188.6l2,2L540.2,188.6z"/>
	<path id="path1909" class="st6" d="M542.2,188.6l2,2L542.2,188.6z"/>
	<path id="path1911" class="st3" d="M582.8,188.6l2,2L582.8,188.6z"/>
	<path id="path1913" class="st7" d="M584.8,188.6l2,2L584.8,188.6z"/>
	<path id="path1915" class="st10" d="M586.8,188.6l2,2L586.8,188.6z"/>
	<path id="path1917" class="st16" d="M597,188.6l2,2L597,188.6z"/>
	<path id="path1919" class="st17" d="M535.7,193.8c-1,27.6-0.2,58.6,4,88c4.9,15.5,4.2,24,11.3,33.2l99-0.8c6-9.7,10.5-24.4,11-30.3
		c5.6-29.7,5.7-62.6,5.9-92c-10.9,6-23.3,8.6-35.7,7.4c-10.7-0.6-21.2-3.8-30.5-9.2c-9.5,5.6-12.8,8.2-28.4,8.9
		C560,199.6,550.2,200.6,535.7,193.8L535.7,193.8z"/>
	<path id="path1921" class="st18" d="M601,188.6l2,2L601,188.6z"/>
	<path id="path1923" class="st19" d="M603,188.6l2,2L603,188.6z"/>
	<path id="path1925" class="st10" d="M611.2,188.6l2,2L611.2,188.6z"/>
	<path id="path1927" class="st9" d="M613.2,188.6l2,2L613.2,188.6z"/>
	<path id="path1929" class="st1" d="M615.2,188.6l2,2L615.2,188.6z"/>
	<path id="path1931" class="st2" d="M617.2,188.6l2,2L617.2,188.6z"/>
	<path id="path1933" class="st11" d="M658,188.6l2,2L658,188.6z"/>
	<path id="path1935" class="st20" d="M660,188.6l2,2L660,188.6z"/>
	<path id="path1937" class="st9" d="M662,188.6l2,2L662,188.6z"/>
	<path id="path1939" class="st10" d="M664,188.6l2,2L664,188.6 M542.2,190.6l2,2L542.2,190.6z"/>
	<path id="path1941" class="st9" d="M544.2,190.6l2,2L544.2,190.6z"/>
	<path id="path1943" class="st7" d="M546.2,190.6l2,2L546.2,190.6z"/>
	<path id="path1945" class="st1" d="M548.2,190.6l2,2L548.2,190.6z"/>
	<path id="path1947" class="st6" d="M550.2,190.6l2,2L550.2,190.6 M576.7,190.6l2,2L576.7,190.6z"/>
	<path id="path1949" class="st14" d="M578.7,190.6l2,2L578.7,190.6z"/>
	<path id="path1951" class="st13" d="M580.8,190.6l2,2L580.8,190.6z"/>
	<path id="path1953" class="st10" d="M582.8,190.6l2,2L582.8,190.6z"/>
	<path id="path1955" class="st16" d="M593,190.6l2,2L593,190.6z"/>
	<path id="path1957" class="st21" d="M595,190.6l2,2L595,190.6z"/>
	<path id="path1959" class="st22" d="M605.2,190.6l2,2L605.2,190.6z"/>
	<path id="path1961" class="st19" d="M607.2,190.6l2,2L607.2,190.6z"/>
	<path id="path1963" class="st10" d="M617.2,190.6l2,2L617.2,190.6z"/>
	<path id="path1965" class="st7" d="M619.3,190.6l2,2L619.3,190.6z"/>
	<path id="path1967" class="st11" d="M621.3,190.6l2,2L621.3,190.6z"/>
	<path id="path1969" class="st2" d="M647.8,190.6l2,2L647.8,190.6z"/>
	<path id="path1971" class="st23" d="M649.8,190.6l2,2L649.8,190.6z"/>
	<path id="path1973" class="st5" d="M651.8,190.6l2,2L651.8,190.6z"/>
	<path id="path1975" class="st4" d="M653.8,190.6l2,2L653.8,190.6z"/>
	<path id="path1977" class="st10" d="M657.2,191.2l1.3,0.7L657.2,191.2z"/>
	<path id="path1979" class="st24" d="M534,192.6l2,2L534,192.6z"/>
	<path id="path1981" class="st12" d="M536,192.6l2,2L536,192.6z"/>
	<path id="path1983" class="st10" d="M551.7,193.2l1.4,0.7L551.7,193.2z"/>
	<path id="path1985" class="st4" d="M554.3,192.6l2,2L554.3,192.6z"/>
	<path id="path1987" class="st20" d="M556.3,192.6l2,2L556.3,192.6z"/>
	<path id="path1989" class="st5" d="M558.5,192.6l2,2L558.5,192.6z"/>
	<path id="path1991" class="st1" d="M560.5,192.6l2,2L560.5,192.6z"/>
	<path id="path1993" class="st15" d="M572.7,192.6l2,2L572.7,192.6z"/>
	<path id="path1995" class="st9" d="M574.7,192.6l2,2L574.7,192.6z"/>
	<path id="path1997" class="st10" d="M576.7,192.6l2,2L576.7,192.6z"/>
	<path id="path1999" class="st16" d="M588.8,192.6l2,2L588.8,192.6z"/>
	<path id="path2001" class="st21" d="M591,192.6l2,2L591,192.6z"/>
	<path id="path2003" class="st22" d="M609.2,192.6l2,2L609.2,192.6z"/>
	<path id="path2005" class="st19" d="M611.2,192.6l2,2L611.2,192.6z"/>
	<path id="path2007" class="st10" d="M622.7,193.2l1.4,0.7L622.7,193.2L622.7,193.2z"/>
	<path id="path2009" class="st4" d="M625.5,192.6l2,2L625.5,192.6z"/>
	<path id="path2011" class="st20" d="M627.5,192.6l2,2L627.5,192.6z"/>
	<path id="path2013" class="st5" d="M629.5,192.6l2,2L629.5,192.6z"/>
	<path id="path2015" class="st11" d="M631.5,192.6l2,2L631.5,192.6z"/>
	<path id="path2017" class="st5" d="M641,193.2l1.4,0.7L641,193.2z"/>
	<path id="path2019" class="st15" d="M643.7,192.6l2,2L643.7,192.6z"/>
	<path id="path2021" class="st9" d="M645.7,192.6l2,2L645.7,192.6z"/>
	<path id="path2023" class="st10" d="M647.8,192.6l2,2L647.8,192.6z"/>
	<path id="path2025" class="st24" d="M664,192.6l2,2L664,192.6z"/>
	<path id="path2027" class="st12" d="M666,192.6l2,2L666,192.6z"/>
	<path id="path2029" class="st18" d="M538.2,194.6l2,2L538.2,194.6z"/>
	<path id="path2031" class="st25" d="M540.2,194.6l2,2L540.2,194.6z"/>
	<path id="path2033" class="st24" d="M542.2,194.6l2,2L542.2,194.6z"/>
	<path id="path2035" class="st19" d="M582.8,194.6l2,2L582.8,194.6z"/>
	<path id="path2037" class="st26" d="M584.8,194.6l2,2L584.8,194.6z"/>
	<path id="path2039" class="st27" d="M613.2,194.6l2,2L613.2,194.6z"/>
	<path id="path2041" class="st28" d="M615.2,194.6l2,2L615.2,194.6z"/>
	<path id="path2043" class="st29" d="M655.8,194.6l2,2L655.8,194.6z"/>
	<path id="path2045" class="st28" d="M658,194.6l2,2L658,194.6z"/>
	<path id="path2047" class="st30" d="M660,194.6l2,2L660,194.6z"/>
	<path id="path2049" class="st22" d="M546.2,196.6l2,2L546.2,196.6z"/>
	<path id="path2051" class="st25" d="M548.2,196.6l2,2L548.2,196.6z"/>
	<path id="path2053" class="st24" d="M550.2,196.6l2,2L550.2,196.6z"/>
	<path id="path2055" class="st12" d="M552.3,196.6l2,2L552.3,196.6z"/>
	<path id="path2057" class="st24" d="M576.7,196.6l2,2L576.7,196.6z"/>
	<path id="path2059" class="st26" d="M578.7,196.6l2,2L578.7,196.6z"/>
	<path id="path2061" class="st27" d="M580.8,196.6l2,2L580.8,196.6z"/>
	<path id="path2063" class="st30" d="M619.3,196.6l2,2L619.3,196.6z"/>
	<path id="path2065" class="st28" d="M621.3,196.6l2,2L621.3,196.6z"/>
	<path id="path2067" class="st29" d="M623.3,196.6l2,2L623.3,196.6z"/>
	<path id="path2069" class="st19" d="M647.8,196.6l2,2L647.8,196.6z"/>
	<path id="path2071" class="st28" d="M649.8,196.6l2,2L649.8,196.6z"/>
	<path id="path2073" class="st30" d="M651.8,196.6l2,2L651.8,196.6z"/>
	<path id="path2075" class="st27" d="M653.8,196.6l2,2L653.8,196.6z"/>
	<path id="path2077" class="st18" d="M556.3,198.6l2,2L556.3,198.6z"/>
	<path id="path2079" class="st22" d="M558.5,198.6l2,2L558.5,198.6z"/>
	<path id="path2081" class="st30" d="M560.5,198.6l2,2L560.5,198.6z"/>
	<path id="path2083" class="st22" d="M570,199.3l1.3,0.7L570,199.3z"/>
	<path id="path2085" class="st21" d="M572.7,198.6l2,2L572.7,198.6z"/>
	<path id="path2087" class="st31" d="M582.8,198.6l4,4v-4H582.8z"/>
	<path id="path2089" class="st18" d="M627.5,198.6l2,2L627.5,198.6z"/>
	<path id="path2091" class="st22" d="M629.5,198.6l2,2L629.5,198.6z"/>
	<path id="path2093" class="st26" d="M631.5,198.6l2,2L631.5,198.6z"/>
	<path id="path2095" class="st16" d="M635,199.3l1.3,0.7l-1.4-0.7H635z"/>
	<path id="path2097" class="st25" d="M637.7,198.6l2,2L637.7,198.6z"/>
	<path id="path2099" class="st22" d="M641,199.3l1.4,0.7L641,199.3z"/>
	<path id="path2101" class="st21" d="M643.7,198.6l2,2L643.7,198.6z"/>
	<path id="path2103" class="st31" d="M578.7,200.7l2,2L578.7,200.7z"/>
	<path id="path2105" class="st32" d="M580.8,200.7l2,2L580.8,200.7z"/>
	<path id="path2107" class="st33" d="M578.7,202.7l2,2L578.7,202.7z"/>
	<path id="path2109" class="st34" d="M582.8,202.7l2,2L582.8,202.7z"/>
	<path id="path2111" class="st35" d="M578.7,204.8l2,2L578.7,204.8z"/>
	<path id="path2113" class="st36" d="M582.8,204.8l2,2L582.8,204.8z"/>
	<path id="path2115" class="st37" d="M576.7,206.8l2,2L576.7,206.8 M584.8,206.8l2,2L584.8,206.8z"/>
	<path id="path2117" class="st38" d="M595,206.8l2,2L595,206.8z"/>
	<path id="path2119" class="st39" d="M597,206.8l2,2L597,206.8z"/>
	<path id="path2121" class="st37" d="M605.2,206.8l2,2L605.2,206.8z"/>
	<path id="path2123" class="st31" d="M607.2,206.8l2,2L607.2,206.8z"/>
	<path id="path2125" class="st40" d="M576.7,208.8l2,2L576.7,208.8z"/>
	<path id="path2127" class="st41" d="M584.8,208.8l2,2L584.8,208.8z"/>
	<path id="path2129" class="st42" d="M588.8,208.8l2,2L588.8,208.8z"/>
	<path id="path2131" class="st33" d="M591,208.8l2,2L591,208.8z"/>
	<path id="path2133" class="st36" d="M593,208.8l2,2L593,208.8z"/>
	<path id="path2135" class="st43" d="M609.2,208.8l2,2L609.2,208.8z"/>
	<path id="path2137" class="st39" d="M611.2,208.8l2,2L611.2,208.8z"/>
	<path id="path2139" class="st44" d="M576.7,210.9l2,2L576.7,210.9z"/>
	<path id="path2141" class="st36" d="M586.8,210.9l2,2L586.8,210.9 M613.2,210.9l2,2L613.2,210.9z"/>
	<path id="path2143" class="st45" d="M615.2,210.9l2,2L615.2,210.9z"/>
	<path id="path2145" class="st27" d="M534,212.9l2,2L534,212.9z"/>
	<path id="path2147" class="st33" d="M576.7,212.9l2,2L576.7,212.9z"/>
	<path id="path2149" class="st32" d="M617.2,212.9l2,2L617.2,212.9z"/>
	<path id="path2151" class="st45" d="M619.3,212.9l2,2L619.3,212.9z"/>
	<path id="path2153" class="st44" d="M576.7,214.9l2,2L576.7,214.9z"/>
	<path id="path2155" class="st43" d="M623.3,214.9l2,2L623.3,214.9z"/>
	<path id="path2157" class="st45" d="M625.5,214.9l2,2L625.5,214.9z"/>
	<path id="path2159" class="st31" d="M574.7,217l2,2L574.7,217z"/>
	<path id="path2161" class="st35" d="M576.7,217l2,2L576.7,217z"/>
	<path id="path2163" class="st41" d="M633.5,217l2,2L633.5,217z"/>
	<path id="path2165" class="st34" d="M635.7,217l2,2L635.7,217z"/>
	<path id="path2167" class="st33" d="M637.7,217l2,2L637.7,217z"/>
	<path id="path2169" class="st39" d="M639.7,217l4,4L639.7,217z"/>
	<path id="path2171" class="st31" d="M641.7,217l2,2L641.7,217z"/>
	<path id="path2173" class="st34" d="M574.7,219l2,2L574.7,219z"/>
	<path id="path2175" class="st41" d="M603,219l2,2L603,219z"/>
	<path id="path2177" class="st33" d="M605.2,219l2,2L605.2,219z M613.2,219l2,2L613.2,219z"/>
	<path id="path2179" class="st36" d="M615.2,219l2,2L615.2,219z"/>
	<path id="path2181" class="st37" d="M572.7,221l2,2L572.7,221z"/>
	<path id="path2183" class="st34" d="M599,221l2,2L599,221z"/>
	<path id="path2185" class="st37" d="M601,221l2,2L601,221z"/>
	<path id="path2187" class="st45" d="M617.2,221l2,2L617.2,221z"/>
	<path id="path2189" class="st41" d="M619.3,221l2,2L619.3,221z"/>
	<path id="path2191" class="st35" d="M631.5,221l2,2L631.5,221z"/>
	<path id="path2193" class="st43" d="M633.5,221l2,2L633.5,221z"/>
	<path id="path2195" class="st40" d="M635.7,221l2,2L635.7,221z"/>
	<path id="path2197" class="st38" d="M637.7,221l2,2L637.7,221z"/>
	<path id="path2199" class="st34" d="M572.7,223l2,2L572.7,223z"/>
	<path id="path2201" class="st32" d="M597,223l2,2L597,223z"/>
	<path id="path2203" class="st40" d="M621.3,223l2,2L621.3,223z"/>
	<path id="path2205" class="st38" d="M629.5,223l2,2L629.5,223z"/>
	<path id="path2207" class="st42" d="M570.7,225l2,2L570.7,225z"/>
	<path id="path2209" class="st32" d="M595,225l2,2L595,225z"/>
	<path id="path2211" class="st40" d="M623.3,225l2,2L623.3,225z"/>
	<path id="path2213" class="st37" d="M629.5,225l2,2L629.5,225z"/>
	<path id="path2215" class="st33" d="M570.7,227l2,2L570.7,227z"/>
	<path id="path2217" class="st34" d="M593,227l2,2L593,227 M625.5,227l2,2L625.5,227z"/>
	<path id="path2219" class="st32" d="M629.5,227l2,2L629.5,227z"/>
	<path id="path2221" class="st27" d="M534,229l2,2L534,229z"/>
	<path id="path2223" class="st36" d="M570.7,229l2,2L570.7,229z"/>
	<path id="path2225" class="st38" d="M593,229l2,2L593,229z"/>
	<path id="path2227" class="st42" d="M625.5,229l2,2L625.5,229z"/>
	<path id="path2229" class="st31" d="M631.5,229l2,2L631.5,229z"/>
	<path id="path2231" class="st42" d="M568.7,231.2l2,2L568.7,231.2z"/>
	<path id="path2233" class="st32" d="M591,231.2l2,2L591,231.2z"/>
	<path id="path2235" class="st44" d="M627.5,231.2l2,2L627.5,231.2z"/>
	<path id="path2237" class="st40" d="M631.5,231.2l2,2L631.5,231.2z"/>
	<path id="path2239" class="st39" d="M568.7,233.2l2,2L568.7,233.2z"/>
	<path id="path2241" class="st42" d="M591,233.2l2,2L591,233.2z"/>
	<path id="path2243" class="st37" d="M601,233.2l2,2L601,233.2z"/>
	<path id="path2245" class="st36" d="M603,233.2l2,2L603,233.2z"/>
	<path id="path2247" class="st34" d="M605.2,233.2l2,2L605.2,233.2z"/>
	<path id="path2249" class="st39" d="M607.2,233.2l2,2L607.2,233.2z"/>
	<path id="path2251" class="st31" d="M627.5,233.2l2,2L627.5,233.2z"/>
	<path id="path2253" class="st36" d="M629.5,233.2l2,2L629.5,233.2z"/>
	<path id="path2255" class="st41" d="M631.5,233.2l2,2L631.5,233.2z"/>
	<path id="path2257" class="st44" d="M568.7,235.2l-2.1,6l2-6H568.7z"/>
	<path id="path2259" class="st36" d="M588.8,235.2l2,2L588.8,235.2z"/>
	<path id="path2261" class="st31" d="M591,235.2l2,2L591,235.2z"/>
	<path id="path2263" class="st40" d="M601,235.2l2,2L601,235.2z"/>
	<path id="path2265" class="st41" d="M609.2,235.2l2,2L609.2,235.2z"/>
	<path id="path2267" class="st37" d="M611.2,235.2l2,2L611.2,235.2z"/>
	<path id="path2269" class="st45" d="M629.5,235.2l2,2L629.5,235.2z"/>
	<path id="path2271" class="st46" d="M631.5,235.2l2,2L631.5,235.2z"/>
	<path id="path2273" class="st38" d="M634.2,236.6l0.6,1.3L634.2,236.6z"/>
	<path id="path2275" class="st36" d="M593,237.2l2,2L593,237.2z"/>
	<path id="path2277" class="st32" d="M595,237.2l2,2L595,237.2z"/>
	<path id="path2279" class="st44" d="M597,237.2l2,2L597,237.2z"/>
	<path id="path2281" class="st34" d="M599,237.2l2,2L599,237.2z"/>
	<path id="path2283" class="st37" d="M601,237.2l2,2L601,237.2z"/>
	<path id="path2285" class="st35" d="M603,237.2l2,2L603,237.2z"/>
	<path id="path2287" class="st41" d="M613.2,237.2l2,2L613.2,237.2z"/>
	<path id="path2289" class="st33" d="M615.2,237.2l2,2L615.2,237.2z"/>
	<path id="path2291" class="st44" d="M617.2,237.2l2,2L617.2,237.2z"/>
	<path id="path2293" class="st39" d="M619.3,237.2l2,2L619.3,237.2z"/>
	<path id="path2295" class="st37" d="M622.7,237.9l1.4,0.7L622.7,237.9L622.7,237.9z"/>
	<path id="path2297" class="st31" d="M625.5,237.2l2,2L625.5,237.2z"/>
	<path id="path2299" class="st33" d="M631.5,237.2l2,2L631.5,237.2z"/>
	<path id="path2301" class="st31" d="M544.2,239.3l2,2L544.2,239.3z"/>
	<path id="path2303" class="st42" d="M546.2,239.3l2,2L546.2,239.3z"/>
	<path id="path2305" class="st43" d="M599,239.3l2,2L599,239.3z"/>
	<path id="path2307" class="st38" d="M603,239.3l2,2L603,239.3z"/>
	<path id="path2309" class="st36" d="M605.2,239.3l2,2L605.2,239.3z"/>
	<path id="path2311" class="st35" d="M621.3,239.3l2,2L621.3,239.3z"/>
	<path id="path2313" class="st34" d="M623.3,239.3l-2,4L623.3,239.3z"/>
	<path id="path2315" class="st35" d="M627.5,239.3l2,2L627.5,239.3z"/>
	<path id="path2317" class="st32" d="M629.5,239.3l2,2L629.5,239.3z"/>
	<path id="path2319" class="st42" d="M631.5,239.3l2,2L631.5,239.3z"/>
	<path id="path2321" class="st37" d="M544.2,241.3l2,2L544.2,241.3z"/>
	<path id="path2323" class="st35" d="M546.2,241.3l4,4L546.2,241.3z"/>
	<path id="path2325" class="st38" d="M548.2,241.3l2,2L548.2,241.3z M566.5,241.3l2,2L566.5,241.3z"/>
	<path id="path2327" class="st37" d="M568.7,241.3l2,2L568.7,241.3z"/>
	<path id="path2329" class="st35" d="M586.8,241.3l2,2L586.8,241.3z"/>
	<path id="path2331" class="st33" d="M588.8,241.3l2,2L588.8,241.3z"/>
	<path id="path2333" class="st36" d="M591,241.3l2,2L591,241.3z"/>
	<path id="path2335" class="st33" d="M597,241.3l2,2L597,241.3z"/>
	<path id="path2337" class="st31" d="M599,241.3l2,2L599,241.3z"/>
	<path id="path2339" class="st33" d="M607.2,241.3l2,2L607.2,241.3z"/>
	<path id="path2341" class="st17" d="M623.3,241.3l2,2L623.3,241.3z"/>
	<path id="path2343" class="st41" d="M625.5,241.3l2,2L625.5,241.3z"/>
	<path id="path2345" class="st33" d="M633.5,241.3l2,2L633.5,241.3z"/>
	<path id="path2347" class="st31" d="M544.2,243.3l2,2L544.2,243.3z"/>
	<path id="path2349" class="st38" d="M550.2,243.3l2,2L550.2,243.3z"/>
	<path id="path2351" class="st39" d="M560.5,243.3l2,2L560.5,243.3z"/>
	<path id="path2353" class="st35" d="M570.7,243.3l2,2L570.7,243.3z"/>
	<path id="path2355" class="st39" d="M574,244l1.4,0.7L574,244z"/>
	<path id="path2357" class="st45" d="M586.8,243.3l2,2L586.8,243.3z"/>
	<path id="path2359" class="st42" d="M593,243.3l2,2L593,243.3z"/>
	<path id="path2361" class="st39" d="M609.2,243.3l2,2L609.2,243.3z"/>
	<path id="path2363" class="st41" d="M623.3,243.3l2,2L623.3,243.3z"/>
	<path id="path2365" class="st43" d="M635.7,243.3l2,2L635.7,243.3z"/>
	<path id="path2367" class="st31" d="M637.7,243.3l2,2L637.7,243.3z"/>
	<path id="path2369" class="st14" d="M528,245.4l2,2L528,245.4z"/>
	<path id="path2371" class="st43" d="M546.2,245.4l2,2L546.2,245.4z"/>
	<path id="path2373" class="st36" d="M550.2,245.4l2,2L550.2,245.4z"/>
	<path id="path2375" class="st38" d="M558.5,245.4l2,2L558.5,245.4z"/>
	<path id="path2377" class="st35" d="M562.5,245.4l2,2L562.5,245.4z"/>
	<path id="path2379" class="st42" d="M564.5,245.4l2,2L564.5,245.4z"/>
	<path id="path2381" class="st32" d="M570.7,245.4l2,2L570.7,245.4z"/>
	<path id="path2383" class="st33" d="M572.7,245.4l2,2L572.7,245.4z"/>
	<path id="path2385" class="st32" d="M574.7,245.4l2,2L574.7,245.4z"/>
	<path id="path2387" class="st36" d="M584.8,245.4l2,2L584.8,245.4z"/>
	<path id="path2389" class="st39" d="M611.2,245.4l2,2L611.2,245.4z"/>
	<path id="path2391" class="st34" d="M637.7,245.4l2,2L637.7,245.4z"/>
	<path id="path2393" class="st13" d="M670,245.4l2,2L670,245.4z"/>
	<path id="path2395" class="st26" d="M534,247.4l2,2L534,247.4z"/>
	<path id="path2397" class="st45" d="M546.2,247.4l2,2L546.2,247.4z"/>
	<path id="path2399" class="st41" d="M552.3,247.4l2,2L552.3,247.4z"/>
	<path id="path2401" class="st35" d="M558.5,247.4l2,2L558.5,247.4z"/>
	<path id="path2403" class="st44" d="M562.5,247.4l2,2L562.5,247.4z"/>
	<path id="path2405" class="st42" d="M570.7,247.4l2,2L570.7,247.4z"/>
	<path id="path2407" class="st40" d="M584.8,247.4l2,2L584.8,247.4 M613.2,247.4l2,2L613.2,247.4z"/>
	<path id="path2409" class="st32" d="M639.7,247.4l2,2L639.7,247.4z"/>
	<path id="path2411" class="st36" d="M548.2,249.4l2,2L548.2,249.4z"/>
	<path id="path2413" class="st41" d="M554.3,249.4l2,2L554.3,249.4z"/>
	<path id="path2415" class="st36" d="M556.3,249.4l2,2L556.3,249.4z"/>
	<path id="path2417" class="st35" d="M560.5,249.4l2,2L560.5,249.4z"/>
	<path id="path2419" class="st31" d="M562.5,249.4l2,2L562.5,249.4z"/>
	<path id="path2421" class="st32" d="M572.7,249.4l2,2L572.7,249.4z"/>
	<path id="path2423" class="st31" d="M584.8,249.4l2,2L584.8,249.4z"/>
	<path id="path2425" class="st32" d="M615.2,249.4l2,2L615.2,249.4z"/>
	<path id="path2427" class="st40" d="M641.7,249.4l2,2L641.7,249.4z"/>
	<path id="path2429" class="st39" d="M548.2,251.5l2,2L548.2,251.5z"/>
	<path id="path2431" class="st40" d="M560.5,251.5l2,2L560.5,251.5z"/>
	<path id="path2433" class="st42" d="M572.7,251.5l2,2L572.7,251.5z"/>
	<path id="path2435" class="st41" d="M582.8,251.5l2,2L582.8,251.5 M617.2,251.5l2,2L617.2,251.5z"/>
	<path id="path2437" class="st38" d="M643.7,251.5l2,2L643.7,251.5z"/>
	<path id="path2439" class="st36" d="M550.2,253.5l2,2L550.2,253.5z"/>
	<path id="path2441" class="st35" d="M558.5,253.5l2,2L558.5,253.5z"/>
	<path id="path2443" class="st34" d="M574.7,253.5l2,2L574.7,253.5z"/>
	<path id="path2445" class="st44" d="M582.8,253.5l2,2L582.8,253.5z"/>
	<path id="path2447" class="st45" d="M617.2,253.5l2,2L617.2,253.5z"/>
	<path id="path2449" class="st34" d="M643.7,253.5l2,2L643.7,253.5z"/>
	<path id="path2451" class="st47" d="M534,255.6l2,2L534,255.6z"/>
	<path id="path2453" class="st44" d="M550.2,255.6l2,2L550.2,255.6z M574.7,255.6l2,2L574.7,255.6z"/>
	<path id="path2455" class="st37" d="M582.8,255.6l2,2L582.8,255.6 M617.2,255.6l2,2L617.2,255.6z"/>
	<path id="path2457" class="st45" d="M645.7,255.6l2,2L645.7,255.6z"/>
	<path id="path2459" class="st18" d="M664,255.6l2,2L664,255.6z"/>
	<path id="path2461" class="st5" d="M670.8,256.9l0.7,1.3L670.8,256.9z"/>
	<path id="path2463" class="st19" d="M534.7,258.9l0.8,1.4L534.7,258.9L534.7,258.9z"/>
	<path id="path2465" class="st45" d="M550.2,257.6l2,2L550.2,257.6z"/>
	<path id="path2467" class="st39" d="M615.2,257.6l2,2L615.2,257.6z"/>
	<path id="path2469" class="st35" d="M617.2,257.6l2,2L617.2,257.6z"/>
	<path id="path2471" class="st34" d="M645.7,257.6l2,2L645.7,257.6z"/>
	<path id="path2473" class="st22" d="M664.7,258.9l0.7,1.4L664.7,258.9z"/>
	<path id="path2475" class="st42" d="M550.2,259.6l2,2L550.2,259.6z"/>
	<path id="path2477" class="st31" d="M613.2,259.6l2,2L613.2,259.6z"/>
	<path id="path2479" class="st35" d="M615.2,259.6l2,2L615.2,259.6z"/>
	<path id="path2481" class="st41" d="M621.3,259.6l-2,4L621.3,259.6z"/>
	<path id="path2483" class="st43" d="M623.3,259.6l2,2L623.3,259.6z"/>
	<path id="path2485" class="st36" d="M647.8,259.6l2,2L647.8,259.6z"/>
	<path id="path2487" class="st40" d="M649.8,259.6l2,2L649.8,259.6z"/>
	<path id="path2489" class="st14" d="M670,259.6l2,2L670,259.6z"/>
	<path id="path2491" class="st4" d="M530.7,263l0.7,1.3L530.7,263z"/>
	<path id="path2493" class="st36" d="M552.3,261.6l2,2L552.3,261.6 M558.3,261.6l2,2L558.3,261.6z"/>
	<path id="path2495" class="st35" d="M580.8,261.6l2,2L580.8,261.6z"/>
	<path id="path2497" class="st37" d="M613.2,261.6l2,2L613.2,261.6z"/>
	<path id="path2499" class="st31" d="M621.3,261.6l2,2L621.3,261.6z"/>
	<path id="path2501" class="st34" d="M625.5,261.6l2,2L625.5,261.6z"/>
	<path id="path2503" class="st43" d="M651.8,261.6l2,2L651.8,261.6z"/>
	<path id="path2505" class="st31" d="M653.8,261.6l4,4L653.8,261.6z"/>
	<path id="path2507" class="st16" d="M664.7,263l0.7,1.3L664.7,263z"/>
	<path id="path2509" class="st23" d="M670.8,263l0.7,1.3L670.8,263z"/>
	<path id="path2511" class="st43" d="M553,265l0.6,1.4L553,265z"/>
	<path id="path2513" class="st31" d="M560.5,263.6l2,2L560.5,263.6z"/>
	<path id="path2515" class="st32" d="M580.8,263.6l2,2L580.8,263.6z"/>
	<path id="path2517" class="st38" d="M613.2,263.6l2,2L613.2,263.6z"/>
	<path id="path2519" class="st35" d="M617.2,263.6l2,2L617.2,263.6z"/>
	<path id="path2521" class="st42" d="M619.3,263.6l2,2L619.3,263.6z"/>
	<path id="path2523" class="st38" d="M625.5,263.6l2,2L625.5,263.6z"/>
	<path id="path2525" class="st41" d="M653.8,263.6l2,2L653.8,263.6z"/>
	<path id="path2527" class="st20" d="M530,265.6l2,2L530,265.6z"/>
	<path id="path2529" class="st27" d="M536,265.6l2,2L536,265.6z"/>
	<path id="path2531" class="st39" d="M560.5,265.6l2,2L560.5,265.6z"/>
	<path id="path2533" class="st41" d="M576.7,265.6l2,2L576.7,265.6z"/>
	<path id="path2535" class="st35" d="M578.7,265.6l2,2L578.7,265.6z"/>
	<path id="path2537" class="st42" d="M580.8,265.6l2,2L580.8,265.6z"/>
	<path id="path2539" class="st36" d="M615.2,265.6l2,2L615.2,265.6z"/>
	<path id="path2541" class="st44" d="M617.2,265.6l2,2L617.2,265.6 M627.5,265.6l2,2L627.5,265.6z"/>
	<path id="path2543" class="st34" d="M655.8,265.6l2,2L655.8,265.6z"/>
	<path id="path2545" class="st24" d="M664,265.6l2,2L664,265.6z"/>
	<path id="path2547" class="st5" d="M530,267.7l2,2L530,267.7z"/>
	<path id="path2549" class="st22" d="M536,267.7l2,2L536,267.7z"/>
	<path id="path2551" class="st34" d="M553,269l0.6,1.4L553,269z"/>
	<path id="path2553" class="st36" d="M560.5,267.7l2,2L560.5,267.7z"/>
	<path id="path2555" class="st31" d="M580.8,267.7l2,2L580.8,267.7z"/>
	<path id="path2557" class="st36" d="M582.8,267.7l2,2L582.8,267.7z"/>
	<path id="path2559" class="st34" d="M586.8,267.7l2,2L586.8,267.7z"/>
	<path id="path2561" class="st38" d="M588.8,267.7l2,2L588.8,267.7z"/>
	<path id="path2563" class="st45" d="M615.2,267.7l2,2L615.2,267.7z"/>
	<path id="path2565" class="st42" d="M617.2,267.7l2,2L617.2,267.7z"/>
	<path id="path2567" class="st31" d="M627.5,267.7l2,2L627.5,267.7z"/>
	<path id="path2569" class="st35" d="M629.5,267.7l2,2L629.5,267.7z"/>
	<path id="path2571" class="st38" d="M658,267.7l2,2L658,267.7z"/>
	<path id="path2573" class="st19" d="M664,267.7l2,2L664,267.7z"/>
	<path id="path2575" class="st11" d="M530,269.7l2,2L530,269.7z"/>
	<path id="path2577" class="st26" d="M536,269.7l2,2L536,269.7z"/>
	<path id="path2579" class="st44" d="M562.5,269.7l2,2L562.5,269.7z"/>
	<path id="path2581" class="st38" d="M582.8,269.7l2,2L582.8,269.7z"/>
	<path id="path2583" class="st35" d="M588.8,269.7l2,2L588.8,269.7z"/>
	<path id="path2585" class="st42" d="M591,269.7l2,2L591,269.7z"/>
	<path id="path2587" class="st38" d="M613.2,269.7l2,2L613.2,269.7z"/>
	<path id="path2589" class="st37" d="M615.2,269.7l2,2L615.2,269.7z"/>
	<path id="path2591" class="st38" d="M617.2,269.7l2,2L617.2,269.7z"/>
	<path id="path2593" class="st32" d="M629.5,269.7l2,2L629.5,269.7 M645.8,269.7l2,2L645.8,269.7z"/>
	<path id="path2595" class="st42" d="M647.8,269.7l2,2L647.8,269.7z"/>
	<path id="path2597" class="st31" d="M649.8,269.7l2,2L649.8,269.7z"/>
	<path id="path2599" class="st45" d="M651.8,269.7l2,2L651.8,269.7z"/>
	<path id="path2601" class="st43" d="M653.8,269.7l2,2L653.8,269.7z"/>
	<path id="path2603" class="st37" d="M658,269.7l2,2L658,269.7z"/>
	<path id="path2605" class="st4" d="M668,269.7l2,2L668,269.7z"/>
	<path id="path2607" class="st23" d="M530,271.8l2,2L530,271.8z"/>
	<path id="path2609" class="st10" d="M532.7,273l0.7,1.5l-0.6-1.4L532.7,273z"/>
	<path id="path2611" class="st16" d="M536,271.8l2,2L536,271.8z"/>
	<path id="path2613" class="st33" d="M552.3,271.8l2,2L552.3,271.8z"/>
	<path id="path2615" class="st39" d="M564.5,271.8l2,2L564.5,271.8z"/>
	<path id="path2617" class="st32" d="M584.8,271.8l2,2L584.8,271.8z"/>
	<path id="path2619" class="st40" d="M591,271.8l2,2L591,271.8z"/>
	<path id="path2621" class="st37" d="M609.2,271.8l2,2L609.2,271.8z"/>
	<path id="path2623" class="st34" d="M611.2,271.8l2,2L611.2,271.8z"/>
	<path id="path2625" class="st37" d="M619.3,271.8l2,2L619.3,271.8z"/>
	<path id="path2627" class="st45" d="M629.5,271.8l2,2L629.5,271.8z"/>
	<path id="path2629" class="st40" d="M645.7,271.8l2,2L645.7,271.8z"/>
	<path id="path2631" class="st33" d="M655.8,271.8l2,2L655.8,271.8z"/>
	<path id="path2633" class="st38" d="M658,271.8l2,2L658,271.8z"/>
	<path id="path2635" class="st15" d="M668,271.8l2,2L668,271.8z"/>
	<path id="path2637" class="st19" d="M536,273.8l2,2L536,273.8z"/>
	<path id="path2639" class="st40" d="M552.3,273.8l2,2L552.3,273.8z"/>
	<path id="path2641" class="st39" d="M566.5,273.8l2,2L566.5,273.8 M584.8,273.8l2,2L584.8,273.8z"/>
	<path id="path2643" class="st33" d="M591,273.8l2,2L591,273.8z"/>
	<path id="path2645" class="st31" d="M601,273.8l2,2L601,273.8z"/>
	<path id="path2647" class="st45" d="M603,273.8l2,2L603,273.8z"/>
	<path id="path2649" class="st33" d="M605.2,273.8l2,2L605.2,273.8z"/>
	<path id="path2651" class="st36" d="M607.2,273.8l2,2L607.2,273.8z"/>
	<path id="path2653" class="st38" d="M619.3,273.8l2,2L619.3,273.8z"/>
	<path id="path2655" class="st22" d="M662,273.8l2,2L662,273.8z"/>
	<path id="path2657" class="st5" d="M668,273.8l2,2L668,273.8z"/>
	<path id="path2659" class="st9" d="M532,275.8l2,2L532,275.8z"/>
	<path id="path2661" class="st12" d="M536,275.8l2,2L536,275.8z"/>
	<path id="path2663" class="st34" d="M568.7,275.8l2,2L568.7,275.8z"/>
	<path id="path2665" class="st37" d="M570.7,275.8l2,2L570.7,275.8z"/>
	<path id="path2667" class="st31" d="M584.8,275.8l2,2L584.8,275.8z"/>
	<path id="path2669" class="st43" d="M593,275.8l2,2L593,275.8z"/>
	<path id="path2671" class="st33" d="M595,275.8l2,2L595,275.8z"/>
	<path id="path2673" class="st34" d="M597,275.8l2,2L597,275.8z"/>
	<path id="path2675" class="st36" d="M599,275.8l2,2L599,275.8z"/>
	<path id="path2677" class="st35" d="M615.2,275.8l2,2L615.2,275.8z"/>
	<path id="path2679" class="st39" d="M617.2,275.8l2,2L617.2,275.8z"/>
	<path id="path2681" class="st31" d="M645.7,275.8l2,2L645.7,275.8z"/>
	<path id="path2683" class="st25" d="M662,275.8l2,2L662,275.8z"/>
	<path id="path2685" class="st11" d="M668,275.8l2,2L668,275.8z"/>
	<path id="path2687" class="st15" d="M532,277.9l2,2L532,277.9z"/>
	<path id="path2689" class="st21" d="M538.2,277.9l2,2L538.2,277.9z"/>
	<path id="path2691" class="st36" d="M554.3,277.9l2,2L554.3,277.9z"/>
	<path id="path2693" class="st35" d="M572.7,277.9l2,2L572.7,277.9z"/>
	<path id="path2695" class="st34" d="M574.7,277.9l2,2L574.7,277.9z"/>
	<path id="path2697" class="st33" d="M576.7,277.9l2,2L576.7,277.9z"/>
	<path id="path2699" class="st44" d="M578.7,277.9l2,2L578.7,277.9z"/>
	<path id="path2701" class="st33" d="M580.8,277.9l2,2L580.8,277.9z"/>
	<path id="path2703" class="st34" d="M582.8,277.9l2,2L582.8,277.9z"/>
	<path id="path2705" class="st41" d="M584.8,277.9l2,2L584.8,277.9z"/>
	<path id="path2707" class="st33" d="M613.2,277.9l2,2L613.2,277.9z"/>
	<path id="path2709" class="st31" d="M615.2,277.9l2,2L615.2,277.9z"/>
	<path id="path2711" class="st41" d="M643.7,277.9l2,2L643.7,277.9z"/>
	<path id="path2713" class="st28" d="M662,277.9l2,2L662,277.9z"/>
	<path id="path2715" class="st10" d="M666.7,279.2l0.7,1.4L666.7,279.2z"/>
	<path id="path2717" class="st3" d="M668,277.9l2,2L668,277.9z"/>
	<path id="path2719" class="st5" d="M532,279.9l2,2L532,279.9z"/>
	<path id="path2721" class="st22" d="M538.2,279.9l2,2L538.2,279.9z"/>
	<path id="path2723" class="st44" d="M554.3,279.9l2,2L554.3,279.9z"/>
	<path id="path2725" class="st35" d="M609.2,279.9l2,2L609.2,279.9z"/>
	<path id="path2727" class="st38" d="M611.2,279.9l2,2L611.2,279.9z"/>
	<path id="path2729" class="st33" d="M629.5,279.9l2,2L629.5,279.9z"/>
	<path id="path2731" class="st44" d="M643.7,279.9l2,2L643.7,279.9z"/>
	<path id="path2733" class="st29" d="M662,279.9l2,2L662,279.9z"/>
	<path id="path2735" class="st23" d="M532,281.9l2,2L532,281.9z"/>
	<path id="path2737" class="st16" d="M538.2,281.9l2,2L538.2,281.9z"/>
	<path id="path2739" class="st31" d="M554.3,281.9l2,2L554.3,281.9z"/>
	<path id="path2741" class="st35" d="M556.3,281.9l2,2L556.3,281.9z"/>
	<path id="path2743" class="st38" d="M609.2,281.9l2,2L609.2,281.9z"/>
	<path id="path2745" class="st36" d="M629.5,281.9l2,2L629.5,281.9z"/>
	<path id="path2747" class="st42" d="M643.7,281.9l2,2L643.7,281.9z"/>
	<path id="path2749" class="st4" d="M666,281.9l2,2L666,281.9z"/>
	<path id="path2751" class="st2" d="M532,283.9l2,2L532,283.9z"/>
	<path id="path2753" class="st10" d="M534,283.9l2,2L534,283.9z"/>
	<path id="path2755" class="st19" d="M538.2,283.9l2,2L538.2,283.9z"/>
	<path id="path2757" class="st45" d="M556.3,283.9l2,2L556.3,283.9z"/>
	<path id="path2759" class="st39" d="M627.5,283.9l2,2L627.5,283.9z"/>
	<path id="path2761" class="st44" d="M641.7,283.9l2,2L641.7,283.9z"/>
	<path id="path2763" class="st22" d="M660,283.9l2,2L660,283.9z"/>
	<path id="path2765" class="st5" d="M666,283.9l2,2L666,283.9z"/>
	<path id="path2767" class="st13" d="M534,286l2,2L534,286z"/>
	<path id="path2769" class="st39" d="M558.5,286l2,2L558.5,286z"/>
	<path id="path2771" class="st41" d="M599,286l2,2L599,286z"/>
	<path id="path2773" class="st17" d="M601,286l2,2L601,286z"/>
	<path id="path2775" class="st34" d="M604.5,286.6l1.4,0.7L604.5,286.6z"/>
	<path id="path2777" class="st31" d="M625.5,286l-2,4L625.5,286z"/>
	<path id="path2779" class="st35" d="M627.5,286l2,2L627.5,286z"/>
	<path id="path2781" class="st41" d="M639.7,286l-2,4L639.7,286z"/>
	<path id="path2783" class="st16" d="M660,286l2,2L660,286z"/>
	<path id="path2785" class="st11" d="M666,286l2,2L666,286z"/>
	<path id="path2787" class="st20" d="M534,288l2,2L534,288z"/>
	<path id="path2789" class="st22" d="M540.2,288l2,2L540.2,288z"/>
	<path id="path2791" class="st39" d="M560.5,288l2,2L560.5,288z"/>
	<path id="path2793" class="st35" d="M599,288l2,2L599,288z"/>
	<path id="path2795" class="st44" d="M601,288l2,2L601,288z"/>
	<path id="path2797" class="st36" d="M603,288l2,2L603,288z"/>
	<path id="path2799" class="st42" d="M605.2,288l2,2L605.2,288z"/>
	<path id="path2801" class="st41" d="M625.5,288l2,2L625.5,288z"/>
	<path id="path2803" class="st31" d="M639.7,288l2,2L639.7,288z"/>
	<path id="path2805" class="st19" d="M660,288l2,2L660,288z"/>
	<path id="path2807" class="st10" d="M664,288l2,2L664,288z"/>
	<path id="path2809" class="st2" d="M666,288l2,2L666,288z"/>
	<path id="path2811" class="st11" d="M534,290l2,2L534,290z"/>
	<path id="path2813" class="st16" d="M540.2,290l2,2L540.2,290z"/>
	<path id="path2815" class="st37" d="M562.5,290l4,4L562.5,290z"/>
	<path id="path2817" class="st35" d="M564.5,290l2,2L564.5,290z"/>
	<path id="path2819" class="st45" d="M603,290l2,2L603,290z"/>
	<path id="path2821" class="st42" d="M621.3,290l2,2L621.3,290z"/>
	<path id="path2823" class="st41" d="M623.3,290l2,2L623.3,290z"/>
	<path id="path2825" class="st34" d="M635.7,290l2,2L635.7,290z"/>
	<path id="path2827" class="st31" d="M637.7,290l2,2L637.7,290z"/>
	<path id="path2829" class="st21" d="M658,290l2,2L658,290z"/>
	<path id="path2831" class="st13" d="M664,290l2,2L664,290z"/>
	<path id="path2833" class="st2" d="M534,292l2,2L534,292z"/>
	<path id="path2835" class="st10" d="M536,292l2,2L536,292z"/>
	<path id="path2837" class="st29" d="M540.2,292l2,2L540.2,292z"/>
	<path id="path2839" class="st39" d="M601,292l2,2L601,292z"/>
	<path id="path2841" class="st40" d="M619.3,292l2,2L619.3,292z"/>
	<path id="path2843" class="st35" d="M621.3,292l2,2L621.3,292z"/>
	<path id="path2845" class="st44" d="M633.5,292l2,2L633.5,292z"/>
	<path id="path2847" class="st30" d="M658,292l2,2L658,292z"/>
	<path id="path2849" class="st5" d="M664,292l2,2L664,292z"/>
	<path id="path2851" class="st15" d="M536,294l2,2L536,294z"/>
	<path id="path2853" class="st27" d="M542.2,294l2,2L542.2,294z"/>
	<path id="path2855" class="st32" d="M564.5,294l2,2L564.5,294z"/>
	<path id="path2857" class="st34" d="M597,294l2,2L597,294z"/>
	<path id="path2859" class="st45" d="M599.7,295.5l0.7,1.3L599.7,295.5z"/>
	<path id="path2861" class="st32" d="M615.2,294l2,2L615.2,294z"/>
	<path id="path2863" class="st35" d="M617.2,294l2,2L617.2,294z"/>
	<path id="path2865" class="st33" d="M629.5,294l2,2L629.5,294z"/>
	<path id="path2867" class="st42" d="M631.5,294l2,2L631.5,294z"/>
	<path id="path2869" class="st47" d="M658,294l2,2L658,294z"/>
	<path id="path2871" class="st10" d="M662,294l2,2L662,294z"/>
	<path id="path2873" class="st3" d="M664,294l2,2L664,294z"/>
	<path id="path2875" class="st1" d="M536,296l2,2L536,296z"/>
	<path id="path2877" class="st25" d="M542.2,296l2,2L542.2,296z"/>
	<path id="path2879" class="st37" d="M562.5,296l2,2L562.5,296z"/>
	<path id="path2881" class="st41" d="M591,296l2,2L591,296z"/>
	<path id="path2883" class="st33" d="M593,296l2,2L593,296z"/>
	<path id="path2885" class="st38" d="M595,296l2,2L595,296z"/>
	<path id="path2887" class="st34" d="M601,296l2,2L601,296z"/>
	<path id="path2889" class="st39" d="M627.5,296l2,2L627.5,296z"/>
	<path id="path2891" class="st9" d="M662,296l2,2L662,296z"/>
	<path id="path2893" class="st2" d="M536,298.2l2,2L536,298.2z"/>
	<path id="path2895" class="st10" d="M538.2,298.2l2,2L538.2,298.2z"/>
	<path id="path2897" class="st29" d="M542.2,298.2l2,2L542.2,298.2z"/>
	<path id="path2899" class="st40" d="M560.5,298.2l2,2L560.5,298.2z"/>
	<path id="path2901" class="st35" d="M562.5,298.2l2,2L562.5,298.2 M572.7,298.2l2,2L572.7,298.2z"/>
	<path id="path2903" class="st39" d="M574.7,298.2l2,2L574.7,298.2z"/>
	<path id="path2905" class="st40" d="M576.7,298.2l2,2L576.7,298.2z"/>
	<path id="path2907" class="st39" d="M584.8,298.2l2,2L584.8,298.2z"/>
	<path id="path2909" class="st37" d="M586.8,298.2l2,2L586.8,298.2z"/>
	<path id="path2911" class="st31" d="M588.8,298.2l2,2L588.8,298.2z"/>
	<path id="path2913" class="st38" d="M605.2,298.2l2,2L605.2,298.2z"/>
	<path id="path2915" class="st37" d="M607.2,298.2l2,2L607.2,298.2z"/>
	<path id="path2917" class="st44" d="M609.2,298.2l2,2L609.2,298.2z"/>
	<path id="path2919" class="st33" d="M611.2,298.2l2,2L611.2,298.2z"/>
	<path id="path2921" class="st41" d="M613.2,298.2l2,2L613.2,298.2z"/>
	<path id="path2923" class="st35" d="M623.3,298.2l2,2L623.3,298.2z"/>
	<path id="path2925" class="st39" d="M625.5,298.2l2,2L625.5,298.2z"/>
	<path id="path2927" class="st26" d="M655.8,298.2l2,2L655.8,298.2z"/>
	<path id="path2929" class="st20" d="M662,298.2l2,2L662,298.2z"/>
	<path id="path2931" class="st15" d="M538.2,300.2l2,2L538.2,300.2z"/>
	<path id="path2933" class="st18" d="M544.2,300.2l2,2L544.2,300.2z"/>
	<path id="path2935" class="st36" d="M558.5,300.2l2,2L558.5,300.2z"/>
	<path id="path2937" class="st35" d="M568.7,300.2l2,2L568.7,300.2z"/>
	<path id="path2939" class="st32" d="M570.7,300.2l2,2L570.7,300.2z"/>
	<path id="path2941" class="st42" d="M572.7,300.2l2,2L572.7,300.2z"/>
	<path id="path2943" class="st36" d="M621.3,300.2l2,2L621.3,300.2z"/>
	<path id="path2945" class="st38" d="M623.3,300.2l2,2L623.3,300.2z"/>
	<path id="path2947" class="st24" d="M655.8,300.2l2,2L655.8,300.2z"/>
	<path id="path2949" class="st10" d="M660,300.2l2,2L660,300.2z"/>
	<path id="path2951" class="st3" d="M662,300.2l2,2L662,300.2z"/>
	<path id="path2953" class="st1" d="M538.2,302.2l2,2L538.2,302.2z"/>
	<path id="path2955" class="st10" d="M540.8,303.6l0.8,1.3L540.8,303.6z"/>
	<path id="path2957" class="st47" d="M544.2,302.2l2,2L544.2,302.2z"/>
	<path id="path2959" class="st40" d="M560.5,302.2l2,2L560.5,302.2z"/>
	<path id="path2961" class="st34" d="M562.5,302.2l2,2L562.5,302.2z"/>
	<path id="path2963" class="st44" d="M564.5,302.2l2,2L564.5,302.2z"/>
	<path id="path2965" class="st45" d="M566.5,302.2l2,2L566.5,302.2z"/>
	<path id="path2967" class="st31" d="M568.7,302.2l2,2L568.7,302.2z"/>
	<path id="path2969" class="st45" d="M613.2,302.2l2,2L613.2,302.2z"/>
	<path id="path2971" class="st42" d="M621.3,302.2l2,2L621.3,302.2z"/>
	<path id="path2973" class="st27" d="M653.8,302.2l2,2L653.8,302.2z"/>
	<path id="path2975" class="st13" d="M660,302.2l2,2L660,302.2z"/>
	<path id="path2977" class="st21" d="M546.2,304.2l2,2L546.2,304.2z"/>
	<path id="path2979" class="st32" d="M613.2,304.2l2,2L613.2,304.2z"/>
	<path id="path2981" class="st44" d="M619.3,304.2l2,2L619.3,304.2z"/>
	<path id="path2983" class="st28" d="M653.8,304.2l2,2L653.8,304.2z"/>
	<path id="path2985" class="st1" d="M660,304.2l2,2L660,304.2z"/>
	<path id="path2987" class="st5" d="M540.2,306.3l2,2L540.2,306.3z"/>
	<path id="path2989" class="st16" d="M546.2,306.3l2,2L546.2,306.3z"/>
	<path id="path2991" class="st35" d="M613.2,306.3l2,2L613.2,306.3z"/>
	<path id="path2993" class="st41" d="M617.2,306.3l2,2L617.2,306.3z"/>
	<path id="path2995" class="st21" d="M651.8,306.3l2,2L651.8,306.3z"/>
	<path id="path2997" class="st10" d="M658,306.3l2,2L658,306.3z"/>
	<path id="path2999" class="st2" d="M660,306.3l2,2L660,306.3z"/>
	<path id="path3001" class="st6" d="M540.2,308.3l2,2L540.2,308.3z"/>
	<path id="path3003" class="st10" d="M542.2,308.3l2,2L542.2,308.3z"/>
	<path id="path3005" class="st12" d="M546.2,308.3l2,2L546.2,308.3z"/>
	<path id="path3007" class="st38" d="M611.2,308.3l2,2L611.2,308.3z"/>
	<path id="path3009" class="st35" d="M615.2,308.3l2,2L615.2,308.3z"/>
	<path id="path3011" class="st38" d="M617.2,308.3l2,2L617.2,308.3z"/>
	<path id="path3013" class="st16" d="M651.8,308.3l2,2L651.8,308.3z"/>
	<path id="path3015" class="st20" d="M658,308.3l2,2L658,308.3z"/>
	<path id="path3017" class="st7" d="M542.2,310.3l2,2L542.2,310.3z"/>
	<path id="path3019" class="st26" d="M548.2,310.3l2,2L548.2,310.3z"/>
	<path id="path3021" class="st44" d="M611.8,311.7l0.8,1.4L611.8,311.7z"/>
	<path id="path3023" class="st37" d="M615.2,310.3l2,2L615.2,310.3z"/>
	<path id="path3025" class="st21" d="M649.8,310.3l2,2L649.8,310.3z"/>
	<path id="path3027" class="st10" d="M655.8,310.3l2,2L655.8,310.3z"/>
	<path id="path3029" class="st6" d="M658,310.3l2,2L658,310.3 M542.2,312.3l2,2L542.2,312.3z"/>
	<path id="path3031" class="st10" d="M544.2,312.4l2,2L544.2,312.4z"/>
	<path id="path3033" class="st12" d="M548.2,312.4l2,2L548.2,312.4z"/>
	<path id="path3035" class="st21" d="M550.2,312.4l2,2L550.2,312.4z"/>
	<path id="path3037" class="st39" d="M613.2,312.4l2,2L613.2,312.4z"/>
	<path id="path3039" class="st16" d="M649.8,312.4l2,2L649.8,312.4z"/>
	<path id="path3041" class="st7" d="M655.8,312.4l2,2L655.8,312.4 M544.2,314.4l2,2L544.2,314.4z"/>
	<path id="path3043" class="st48" d="M550.2,314.4l2,2L550.2,314.4z"/>
	<path id="path3045" class="st49" d="M551.2,314.4c7,14.8,32,49.8,51,49.2c18.6-0.7,39.5-35,47.6-49.2H551.2z"/>
	<path id="path3047" class="st10" d="M653.8,314.4l2,2L653.8,314.4z"/>
	<path id="path3049" class="st6" d="M655.8,314.4l2,2L655.8,314.4 M544.2,316.4l2,2L544.2,316.4z"/>
	<path id="path3051" class="st10" d="M546.2,316.4l2,2L546.2,316.4z"/>
	<path id="path3053" class="st50" d="M550.2,316.4l2,2L550.2,316.4z"/>
	<path id="path3055" class="st51" d="M552.3,316.4l2,2L552.3,316.4z"/>
	<path id="path3057" class="st52" d="M647.8,316.4l2,2L647.8,316.4z"/>
	<path id="path3059" class="st20" d="M653.8,316.4l2,2L653.8,316.4z"/>
	<path id="path3061" class="st5" d="M546.2,318.5l2,2L546.2,318.5z"/>
	<path id="path3063" class="st53" d="M552.3,318.5l2,2L552.3,318.5z"/>
	<path id="path3065" class="st54" d="M645.7,318.5l2,2L645.7,318.5z"/>
	<path id="path3067" class="st10" d="M651.8,318.5l-2,4L651.8,318.5z"/>
	<path id="path3069" class="st2" d="M653.8,318.5l2,2L653.8,318.5 M546.2,320.5l2,2L546.2,320.5z"/>
	<path id="path3071" class="st10" d="M548.2,320.5l4,4L548.2,320.5z"/>
	<path id="path3073" class="st55" d="M554.3,320.5l2,2L554.3,320.5z"/>
	<path id="path3075" class="st56" d="M645.7,320.5l2,2L645.7,320.5z"/>
	<path id="path3077" class="st14" d="M651.8,320.5l2,2L651.8,320.5z"/>
	<path id="path3079" class="st11" d="M548.2,322.6l2,2L548.2,322.6z"/>
	<path id="path3081" class="st57" d="M554.3,322.6l2,2L554.3,322.6z"/>
	<path id="path3083" class="st58" d="M556.3,322.6l2,2L556.3,322.6z"/>
	<path id="path3085" class="st59" d="M643.7,322.6l2,2L643.7,322.6z"/>
	<path id="path3087" class="st13" d="M649.8,322.6l2,2L649.8,322.6z"/>
	<path id="path3089" class="st15" d="M550.2,324.6l2,2L550.2,324.6z"/>
	<path id="path3091" class="st60" d="M556.3,324.6l2,2L556.3,324.6z"/>
	<path id="path3093" class="st54" d="M641.7,324.6l2,2L641.7,324.6z"/>
	<path id="path3095" class="st10" d="M647.8,324.6l-2,4L647.8,324.6z"/>
	<path id="path3097" class="st3" d="M649.8,324.6l2,2L649.8,324.6z"/>
	<path id="path3099" class="st2" d="M550.2,326.6l2,2L550.2,326.6z"/>
	<path id="path3101" class="st10" d="M552.3,326.6l4,4L552.3,326.6z"/>
	<path id="path3103" class="st61" d="M558.5,326.6l2,2L558.5,326.6z"/>
	<path id="path3105" class="st58" d="M639.7,326.6l2,2L639.7,326.6z"/>
	<path id="path3107" class="st56" d="M641.7,326.6l2,2L641.7,326.6z"/>
	<path id="path3109" class="st5" d="M647.8,326.6l2,2L647.8,326.6z"/>
	<path id="path3111" class="st11" d="M552.3,328.6l2,2L552.3,328.6z"/>
	<path id="path3113" class="st50" d="M558.5,328.6l2,2L558.5,328.6z"/>
	<path id="path3115" class="st54" d="M560.5,328.6l2,2L560.5,328.6z"/>
	<path id="path3117" class="st60" d="M639.7,328.6l2,2L639.7,328.6z"/>
	<path id="path3119" class="st13" d="M645.7,328.6l2,2L645.7,328.6z"/>
	<path id="path3121" class="st7" d="M554.3,330.6l2,2L554.3,330.6z"/>
	<path id="path3123" class="st56" d="M560.5,330.6l2,2L560.5,330.6z"/>
	<path id="path3125" class="st58" d="M562.5,330.6l2,2L562.5,330.6z"/>
	<path id="path3127" class="st61" d="M637.7,330.6l2,2L637.7,330.6z"/>
	<path id="path3129" class="st10" d="M643.7,330.6l-4,6L643.7,330.6z"/>
	<path id="path3131" class="st6" d="M645.7,330.6l2,2L645.7,330.6z"/>
	<path id="path3133" class="st2" d="M554.3,332.6l2,2L554.3,332.6z"/>
	<path id="path3135" class="st13" d="M556.3,332.6l2,2L556.3,332.6z"/>
	<path id="path3137" class="st53" d="M562.5,332.6l2,2L562.5,332.6z"/>
	<path id="path3139" class="st55" d="M635.7,332.6l2,2L635.7,332.6z"/>
	<path id="path3141" class="st11" d="M643.7,332.6l2,2L643.7,332.6z"/>
	<path id="path3143" class="st6" d="M556.3,334.7l2,2L556.3,334.7z"/>
	<path id="path3145" class="st10" d="M558.5,334.7l22.3,22.3L558.5,334.7z"/>
	<path id="path3147" class="st60" d="M564.5,334.7l2,2L564.5,334.7z"/>
	<path id="path3149" class="st54" d="M633.5,334.7l2,2L633.5,334.7z"/>
	<path id="path3151" class="st50" d="M635.7,334.7l2,2L635.7,334.7z"/>
	<path id="path3153" class="st20" d="M641.7,334.7l2,2L641.7,334.7z"/>
	<path id="path3155" class="st23" d="M558.5,336.7l2,2L558.5,336.7z"/>
	<path id="path3157" class="st61" d="M566.5,336.7l2,2L566.5,336.7z"/>
	<path id="path3159" class="st58" d="M631.5,336.7l-8.2,10.2L631.5,336.7L631.5,336.7z"/>
	<path id="path3161" class="st50" d="M633.5,336.7l2,2L633.5,336.7z"/>
	<path id="path3163" class="st15" d="M639.7,336.7l2,2L639.7,336.7z"/>
	<path id="path3165" class="st1" d="M560.5,338.8l2,2L560.5,338.8z"/>
	<path id="path3167" class="st61" d="M568.7,338.8l2,2L568.7,338.8z"/>
	<path id="path3169" class="st56" d="M631.5,338.8l2,2L631.5,338.8z"/>
	<path id="path3171" class="st13" d="M637.7,338.8l-2,4L637.7,338.8z"/>
	<path id="path3173" class="st2" d="M639.7,338.8l2,2L639.7,338.8z"/>
	<path id="path3175" class="st14" d="M562.5,340.8l2,2L562.5,340.8z"/>
	<path id="path3177" class="st61" d="M570.7,340.8l2,2L570.7,340.8z"/>
	<path id="path3179" class="st56" d="M629.5,340.8l2,2L629.5,340.8z"/>
	<path id="path3181" class="st2" d="M637.7,340.8l2,2L637.7,340.8z"/>
	<path id="path3183" class="st7" d="M564.5,342.8l2,2L564.5,342.8z"/>
	<path id="path3185" class="st61" d="M572.7,342.8l2,2L572.7,342.8z"/>
	<path id="path3187" class="st56" d="M627.5,342.8l2,2L627.5,342.8z"/>
	<path id="path3189" class="st10" d="M633.5,342.8l-4,6L633.5,342.8z"/>
	<path id="path3191" class="st3" d="M635.7,342.8l2,2L635.7,342.8z"/>
	<path id="path3193" class="st7" d="M566.5,344.9l2,2L566.5,344.9z"/>
	<path id="path3195" class="st61" d="M574.7,344.9l2,2L574.7,344.9z"/>
	<path id="path3197" class="st56" d="M625.5,344.9l2,2L625.5,344.9z"/>
	<path id="path3199" class="st3" d="M633.5,344.9l2,2L633.5,344.9z"/>
	<path id="path3201" class="st7" d="M568.7,346.9l2,2L568.7,346.9z"/>
	<path id="path3203" class="st52" d="M576.7,346.9l2,2L576.7,346.9z"/>
	<path id="path3205" class="st54" d="M621.3,346.9l2,2L621.3,346.9z"/>
	<path id="path3207" class="st50" d="M623.3,346.9l2,2L623.3,346.9z"/>
	<path id="path3209" class="st3" d="M631.5,346.9l2,2L631.5,346.9z"/>
	<path id="path3211" class="st20" d="M570.7,348.9l2,2L570.7,348.9z"/>
	<path id="path3213" class="st60" d="M578.7,348.9l2,2L578.7,348.9z"/>
	<path id="path3215" class="st55" d="M619.3,348.9l2,2L619.3,348.9z"/>
	<path id="path3217" class="st50" d="M621.3,348.9l2,2L621.3,348.9z"/>
	<path id="path3219" class="st13" d="M627.5,348.9l-2,4L627.5,348.9z"/>
	<path id="path3221" class="st3" d="M629.5,348.9l2,2L629.5,348.9z"/>
	<path id="path3223" class="st1" d="M572.7,350.9l2,2L572.7,350.9z"/>
	<path id="path3225" class="st56" d="M580.8,350.9l2,2L580.8,350.9z"/>
	<path id="path3227" class="st58" d="M582.8,350.9l2,2L582.8,350.9z"/>
	<path id="path3229" class="st61" d="M617.2,350.9l2,2L617.2,350.9z"/>
	<path id="path3231" class="st2" d="M627.5,350.9l2,2L627.5,350.9z"/>
	<path id="path3233" class="st1" d="M574.7,353l2,2L574.7,353z"/>
	<path id="path3235" class="st57" d="M582.8,353l2,2L582.8,353z"/>
	<path id="path3237" class="st54" d="M584.8,353l2,2L584.8,353z"/>
	<path id="path3239" class="st60" d="M615.2,353l2,2L615.2,353z"/>
	<path id="path3241" class="st10" d="M621.3,353l-6,8L621.3,353z"/>
	<path id="path3243" class="st4" d="M623.3,353l2,2L623.3,353z"/>
	<path id="path3245" class="st2" d="M625.5,353l2,2L625.5,353z"/>
	<path id="path3247" class="st3" d="M576.7,355l2,2L576.7,355z"/>
	<path id="path3249" class="st50" d="M584.8,355l2,2L584.8,355z"/>
	<path id="path3251" class="st61" d="M586.8,355l2,2L586.8,355z"/>
	<path id="path3253" class="st58" d="M611.2,355l2,2L611.2,355z"/>
	<path id="path3255" class="st56" d="M613.2,355l2,2L613.2,355z"/>
	<path id="path3257" class="st7" d="M621.3,355l2,2L621.3,355z"/>
	<path id="path3259" class="st6" d="M578.7,357l2,2L578.7,357z"/>
	<path id="path3261" class="st13" d="M580.8,357l2,2L580.8,357z"/>
	<path id="path3263" class="st60" d="M588.8,357l2,2L588.8,357z"/>
	<path id="path3265" class="st58" d="M591,357l2,2L591,357z"/>
	<path id="path3267" class="st55" d="M609.2,357l2,2L609.2,357z"/>
	<path id="path3269" class="st50" d="M611.2,357l2,2L611.2,357z"/>
	<path id="path3271" class="st1" d="M619.3,357l2,2L619.3,357z"/>
	<path id="path3273" class="st2" d="M580.8,359l2,2L580.8,359z"/>
	<path id="path3275" class="st7" d="M582.8,359l2,2L582.8,359z"/>
	<path id="path3277" class="st10" d="M584.8,359l4,4L584.8,359z"/>
	<path id="path3279" class="st56" d="M591,359l2,2L591,359z"/>
	<path id="path3281" class="st54" d="M593,359l2,2L593,359z"/>
	<path id="path3283" class="st52" d="M607.2,359l2,2L607.2,359z"/>
	<path id="path3285" class="st23" d="M617.2,359l2,2L617.2,359z"/>
	<path id="path3287" class="st1" d="M584.8,361l2,2L584.8,361z"/>
	<path id="path3289" class="st59" d="M595,361l2,2L595,361z"/>
	<path id="path3291" class="st54" d="M603,361l2,2L603,361z"/>
	<path id="path3293" class="st56" d="M605.2,361l2,2L605.2,361z"/>
	<path id="path3295" class="st10" d="M611.2,361l-2,4L611.2,361z"/>
	<path id="path3297" class="st4" d="M613.2,361l2,2L613.2,361z"/>
	<path id="path3299" class="st2" d="M615.2,361l2,2L615.2,361z"/>
	<path id="path3301" class="st3" d="M586.8,363l2,2L586.8,363z"/>
	<path id="path3303" class="st13" d="M588.8,363l2,2L588.8,363z"/>
	<path id="path3305" class="st62" d="M597,363l2,2L597,363z"/>
	<path id="path3307" class="st51" d="M599,363l2,2L599,363z"/>
	<path id="path3309" class="st59" d="M601,363l2,2L601,363z"/>
	<path id="path3311" class="st5" d="M611.2,363l2,2L611.2,363z"/>
	<path id="path3313" class="st2" d="M588.8,365.2l2,2L588.8,365.2z"/>
	<path id="path3315" class="st20" d="M591,365.2l2,2L591,365.2z"/>
	<path id="path3317" class="st10" d="M593,365.2l2,2L593,365.2z"/>
	<path id="path3319" class="st9" d="M607.2,365.2l2,2L607.2,365.2z"/>
	<path id="path3321" class="st23" d="M609.2,365.2l2,2L609.2,365.2 M592.9,367.2l2,2L592.9,367.2z"/>
	<path id="path3323" class="st9" d="M595,367.2l2,2L595,367.2z"/>
	<path id="path3325" class="st10" d="M603,367.2l2,2L603,367.2z"/>
	<path id="path3327" class="st20" d="M605.2,367.2l2,2L605.2,367.2z"/>
	<path id="path3329" class="st2" d="M607.2,367.2l2,2L607.2,367.2 M594.9,369.2l2,2L594.9,369.2z"/>
	<path id="path3331" class="st20" d="M597,369.2l2,2L597,369.2z"/>
	<path id="path3333" class="st10" d="M599,369.2l2,2L599,369.2z"/>
	<path id="path3335" class="st9" d="M601,369.2l2,2L601,369.2z"/>
	<path id="path3337" class="st23" d="M603,369.2l2,2L603,369.2z"/>
	<path id="path3339" class="st3" d="M599,371.2l2,2L599,371.2z"/>
	<path id="path3341" class="st2" d="M601,371.2l2,2L601,371.2z"/>
	<path id="path3343" class="st46" d="M603,235.2c3.2,7.4,13.2,15.5,16,19.5c-3.5,4-4.2,3.6-3.8,11c6-6.4,6.2-7,10.2-6.1
		c8.6,8.6,1.5,27-5.6,31c-7.1,4.3-5.8-0.1-16.5,5.2c4.9,4.2,10.6-0.6,15.2,0.7c2.5,3-1.2,8.4,0.7,13.6c4-0.4,3.6-8.7,4.6-11.7
		c3-11,21-18.6,21.9-28.7c3.8-1.7,7.5-0.5,12,2c-2.2-9.4-9.7-9.3-11.8-12.2c-4.8-7.4-9.1-15.8-19.4-18c-8-1.7-7.3,0.5-12.3-3
		C611.1,236.1,601.6,231.5,603,235.2L603,235.2z"/>
	<path id="path3345" class="st63" d="M625.7,243.6c0,0.9-0.7,1.6-1.7,1.6s-1.7-0.7-1.7-1.6s0.7-1.6,1.7-1.6S625.7,242.7,625.7,243.6
		L625.7,243.6z"/>
	<path id="path3347" class="st46" d="M578,266.5c5-6.2,7.6-19,9.8-23.2c5.2,1.2,5,2,11.5-1.8c-8.5-2.4-9.2-2.2-10.2-6.1
		c3.6-11.7,23.2-14,30-9.6c7.2,4.3,2.7,5.2,12.4,12c1.4-6.2-5.5-9-6.5-13.6c1.5-3.7,8-3,11.6-7c-2.2-3.5-9.3,0.8-12.4,1.4
		c-11,2.5-26.3-9.8-35.6-6c-3.3-2.5-4-6.4-4-11.7c-7.1,6.5-3.5,13-5.2,16.3c-4.2,7.7-9.7,15.5-6.8,25.6c2.2,7.8,3.8,6.2,3.2,12.3
		C575,259,575.3,269.6,578,266.5z"/>
	<path id="path3349" class="st63" d="M574.8,242.6c0.9-0.4,1.9-0.1,2.3,0.7c0.4,0.8,0.1,1.8-0.7,2.1s-1.8,0.1-2.1-0.7
		C573.8,243.9,574.1,243,574.8,242.6L574.8,242.6z"/>
	<path id="path3351" class="st46" d="M619,270.8c-8-1-20.1,3.3-25,3.7c-1.5-5.1-0.8-5.5-7.4-9c2.3,8.6,2.8,9,0,12
		c-11.8,2.9-24-12.7-23.8-20.8c0-8.3,3.2-5,4-17c-6,2-4.8,9.5-8.3,12.8c-4,0.6-6.6-5.3-12-6.3c-1.8,3.7,5.5,7.5,7.6,9.9
		c7.9,8.2,5.2,27.5,13.3,33.5c-0.4,4.2-3.4,6.8-8,9.4c9.3,2.9,13-3.7,16.7-4c8.8-0.2,18.3,0.4,25.5-7.3c5.4-6,3.3-6.5,8.8-9
		C614.2,277.3,623.1,271.5,619,270.8L619,270.8z"/>
	<path id="path3353" class="st63" d="M600.2,285.9c-0.8-0.5-1-1.5-0.5-2.2s1.5-1,2.2-0.5s1,1.5,0.5,2.2S601,286.4,600.2,285.9
		L600.2,285.9z"/>
</g>
<path id="path5288" class="st0" d="M0,0h400v240H0V0z"/>
<path id="path5290" class="st17" d="M46.9,0l152.5,90.5L351.2,0H400v31l-150,89.5l150,89V240h-50l-150-89.5L50.6,240H0v-30l149.4-89
	L0,32V0H46.9z"/>
<path id="path5292" class="st64" d="M265,140.5L400,220v20l-169.4-99.5H265z M150,150.5l3.8,17.5l-120,72H0L150,150.5z M400,0v1.5
	l-155.6,94l1.2-22L368.8,0H400z M0,0l149.4,88h-37.5L0,21V0z"/>
<path id="path5294" class="st17" d="M150.6,0v240h100V0H150.6z M0,80v80h400V80H0z"/>
<path id="path5296" class="st64" d="M0,96.5v48h400v-48H0z M170.6,0v240h60V0H170.6z"/>
</svg>
