<?xml version="1.0" encoding="utf-8"?>
<!-- Generator: Adobe Illustrator 24.0.1, SVG Export Plug-In . SVG Version: 6.00 Build 0)  -->
<svg version="1.1" id="flag-icons-al" xmlns="http://www.w3.org/2000/svg" xmlns:xlink="http://www.w3.org/1999/xlink" x="0px"
	 y="0px" viewBox="0 0 800 480" style="enable-background:new 0 0 800 480;" xml:space="preserve">
<style type="text/css">
	.st0{fill:#E41E20;}
</style>
<path class="st0" d="M0,0h800v480H0V0z"/>
<path id="a" d="M352,93.3c-4.6,0-12.3,1.5-12.2,5c-13-2.1-14.3,3.2-13.5,8c1.2-1.9,2.7-3,3.9-3.1c1.7-0.3,3.5,0.3,5.4,1.4
	c1.8,1.1,3.4,2.5,4.8,4.1c-4.6,1.1-8.2,0.4-11.8-0.2c-2-0.4-4-1.2-5.7-2.4c-1.5-1-2-2-4.3-4.3c-2.7-2.8-5.6-2-4.7,2.3
	c2.1,4,5.6,5.8,10,6.6c2.1,0.3,5.3,1,8.9,1s7.6-0.5,9.8,0c-1.3,0.8-2.8,2.3-5.8,2.8c-3,0.6-7.5-1.8-10.3-2.4
	c0.3,2.3,3.3,4.5,9.1,5.7c9.6,2,17.5,3.6,22.8,6.5c4.2,2.3,7.9,5.5,10.9,9.2c4.7,5.5,5,9.8,5.2,10.8c1,8.8-2.1,13.8-7.9,15.4
	c-2.8,0.7-8-0.7-9.8-2.9c-2-2.2-3.7-6-3.2-12c0.5-2.2,3.1-8.3,0.9-9.5c-10.4-5.7-21.2-10.8-32.3-15.1c-2.5-1-4.5,2.4-5.3,3.8
	c-15-2.1-28.2-10.8-36-23.7c-4.2-7.6-11.3,0-10.1,7.3c1.9,8,8,13.8,15.4,18c7.5,4.1,17,8.2,26.5,8c5.2,1,5.1,7.6-1,8.9
	c-12.1,0-21.8-0.2-30.9-9c-6.9-6.3-10.7,1.2-8.8,5.4c3.4,13.1,22.1,16.8,41,12.6c7.4-1.2,3,6.6,1,6.7c-8,5.7-22.1,11.2-34.6,0
	c-5.7-4.4-9.6-0.8-7.4,5.5c5.5,16.5,26.7,13,41.2,5c3.7-2.1,7.1,2.7,2.6,6.4c-18.1,12.6-27.1,12.8-35.3,8c-10.2-4.1-11,7.2-5,11
	c6.7,4,23.8,1,36.4-7c5.4-4,5.6,2.3,2.2,4.8c-14.9,12.9-20.8,16.3-36.3,14.2c-7.7-0.6-7.6,8.9-1.6,12.6c8.3,5.1,24.5-3.3,37-13.8
	c5.3-2.8,6.2,1.8,3.6,7.3c-5.5,7.8-13.1,14-21.8,18c-7,2.7-13.6,2.3-18.3,0.7c-5.8-2-6.5,4-3.3,9.4c1.9,3.3,9.8,4.3,18.4,1.3
	c8.6-3,17.8-10.2,24.1-18.5c5.5-4.9,4.9,1.6,2.3,6.2c-12.6,20-24.2,27.4-39.5,26.2c-6.7-1.2-8.3,4-4,9c7.6,6.2,17,6,25.4-0.2
	c7.3-7,21.4-22.4,28.8-30.6c5.2-4.1,6.9,0,5.3,8.4c-1.4,4.8-4.8,10-14.3,13.6c-6.5,3.7-1.6,8.8,3.2,9c2.7,0,8.1-3.2,12.3-7.8
	c5.4-6.2,5.8-10.3,8.8-19.9c2.8-4.6,7.9-2.4,7.9,2.4c-2.5,9.6-4.5,11.3-9.5,15.2c-4.7,4.5,3.3,6,6,4.1c7.8-5.2,10.6-12,13.2-18.2
	c2-4.4,7.4-2.3,4.8,5c-6,17.4-16,24.2-33.3,27.8c-1.7,0.3-2.8,1.3-2.2,3.3l7,7c-10.7,3.2-19.4,5-30.2,8l-14.8-9.8
	c-1.3-3.2-2-8.2-9.8-4.7c-5.2-2.4-7.7-1.5-10.6,1c4.2,0,6,1.2,7.7,3.1c2.2,5.7,7.2,6.3,12.3,4.7c3.3,2.7,5,4.9,8.4,7.7l-16.7-0.5
	c-6-6.3-10.6-6-14.8-1c-3.3,0.5-4.6,0.5-6.8,4.4c3.4-1.4,5.6-1.8,7.1-0.3c6.3,3.7,10.4,2.9,13.5,0l17.5,1.1c-2.2,2-5.2,3-7.5,4.8
	c-9-2.6-13.8,1-15.4,8.3c-1.3,2.9-1.7,6.1-1.2,9.3c0.8-3,2.3-5.5,4.9-7c8,2,11-1.3,11.5-6.1c4-3.2,9.8-3.9,13.7-7.1
	c4.6,1.4,6.8,2.3,11.4,3.8c1.6,5,5.3,6.9,11.3,5.6c7,0.2,5.8,3.2,6.4,5.5c2-3.3,1.9-6.6-2.5-9.6c-1.6-4.3-5.2-6.3-9.8-3.8
	c-4.4-1.2-5.5-3-9.9-4.3c11-3.5,18.8-4.3,29.8-7.8l7.7,6.8c1.5,0.9,2.9,1.1,3.8,0c6.9-10,10-18.7,16.3-25.3c2.5-2.8,5.6-6.4,9-7.3
	c1.7-0.5,3.8-0.2,5.2,1.3c1.3,1.4,2.4,4.1,2,8.2c-0.7,5.7-2.1,7.6-3.7,11c-1.7,3.5-3.6,5.6-5.7,8.3c-4,5.3-9.4,8.4-12.6,10.5
	c-6.4,4.1-9,2.3-14,2c-6.4,0.7-8,3.8-2.8,8.1c4.8,2.6,9.2,2.9,12.8,2.2c3-0.6,6.6-4.5,9.2-6.6c2.8-3.3,7.6,0.6,4.3,4.5
	c-5.9,7-11.7,11.6-19,11.5c-7.7,1-6.2,5.3-1.2,7.4c9.2,3.7,17.4-3.3,21.6-8c3.2-3.5,5.5-3.6,5,1.9c-3.3,9.9-7.6,13.7-14.8,14.2
	c-5.8-0.6-5.9,4-1.6,7c9.6,6.6,16.6-4.8,19.9-11.6c2.3-6.2,5.9-3.3,6.3,1.8c0,6.9-3,12.4-11.3,19.4c6.3,10.1,13.7,20.4,20,30.5
	l19.2-214L400,139c-2-1.8-8.8-9.8-10.5-11c-0.7-0.6-1-1-0.1-1.4s3-0.8,4.5-1c-4-4.1-7.6-5.4-15.3-7.6c1.9-0.8,3.7-0.4,9.3-0.6
	c-3.4-4.6-8.1-8.2-13.5-10.2c4.2-3,5-3.2,9.2-6.7c-6.6-0.5-13.2-1.8-19.5-3.8c-3.8-1.8-7.8-2.9-12-3.4H352z M352.8,101.7
	c3.8,0,6.1,1.3,6.1,2.9s-2.3,2.9-6.1,2.9s-6.2-1.5-6.2-3C346.6,102.9,349,101.7,352.8,101.7z"/>
<g transform="matrix(-1 0 0 1 640 0)">
	<path id="a_1_" d="M448,93.3c4.6,0,12.3,1.5,12.2,5c13-2.1,14.3,3.2,13.5,8c-1.2-1.9-2.7-3-3.9-3.1c-1.7-0.3-3.5,0.3-5.4,1.4
		c-1.8,1.1-3.4,2.5-4.8,4.1c4.6,1.1,8.2,0.4,11.8-0.2c2-0.4,4-1.2,5.7-2.4c1.5-1,2-2,4.3-4.3c2.7-2.8,5.6-2,4.7,2.3
		c-2.1,4-5.6,5.8-10,6.6c-2.1,0.3-5.3,1-8.9,1s-7.6-0.5-9.8,0c1.3,0.8,2.8,2.3,5.8,2.8c3,0.6,7.5-1.8,10.3-2.4
		c-0.3,2.3-3.3,4.5-9.1,5.7c-9.6,2-17.5,3.6-22.8,6.5c-4.2,2.3-7.9,5.5-10.9,9.2c-4.7,5.5-5,9.8-5.2,10.8c-1,8.8,2.1,13.8,7.9,15.4
		c2.8,0.7,8-0.7,9.8-2.9c2-2.2,3.7-6,3.2-12c-0.5-2.2-3.1-8.3-0.9-9.5c10.4-5.7,21.2-10.8,32.3-15.1c2.5-1,4.5,2.4,5.3,3.8
		c15-2.1,28.2-10.8,36-23.7c4.2-7.6,11.3,0,10.1,7.3c-1.9,8-8,13.8-15.4,18c-7.5,4.1-17,8.2-26.5,8c-5.2,1-5.1,7.6,1,8.9
		c12.1,0,21.8-0.2,30.9-9c6.9-6.3,10.7,1.2,8.8,5.4c-3.4,13.1-22.1,16.8-41,12.6c-7.4-1.2-3,6.6-1,6.7c8,5.7,22.1,11.2,34.6,0
		c5.7-4.4,9.6-0.8,7.4,5.5c-5.5,16.5-26.7,13-41.2,5c-3.7-2.1-7.1,2.7-2.6,6.4c18.1,12.6,27.1,12.8,35.3,8c10.2-4.1,11,7.2,5,11
		c-6.7,4-23.8,1-36.4-7c-5.4-4-5.6,2.3-2.2,4.8c14.9,12.9,20.8,16.3,36.3,14.2c7.7-0.6,7.6,8.9,1.6,12.6c-8.3,5.1-24.5-3.3-37-13.8
		c-5.3-2.8-6.2,1.8-3.6,7.3c5.5,7.8,13.1,14,21.8,18c7,2.7,13.6,2.3,18.3,0.7c5.8-2,6.5,4,3.3,9.4c-1.9,3.3-9.8,4.3-18.4,1.3
		c-8.6-3-17.8-10.2-24.1-18.5c-5.5-4.9-4.9,1.6-2.3,6.2c12.6,20,24.2,27.4,39.5,26.2c6.7-1.2,8.3,4,4,9c-7.6,6.2-17,6-25.4-0.2
		c-7.3-7-21.4-22.4-28.8-30.6c-5.2-4.1-6.9,0-5.3,8.4c1.4,4.8,4.8,10,14.3,13.6c6.5,3.7,1.6,8.8-3.2,9c-2.7,0-8.1-3.2-12.3-7.8
		c-5.4-6.2-5.8-10.3-8.8-19.9c-2.8-4.6-7.9-2.4-7.9,2.4c2.5,9.6,4.5,11.3,9.5,15.2c4.7,4.5-3.3,6-6,4.1c-7.8-5.2-10.6-12-13.2-18.2
		c-2-4.4-7.4-2.3-4.8,5c6,17.4,16,24.2,33.3,27.8c1.7,0.3,2.8,1.3,2.2,3.3l-7,7c10.7,3.2,19.4,5,30.2,8l14.8-9.8
		c1.3-3.2,2-8.2,9.8-4.7c5.2-2.4,7.7-1.5,10.6,1c-4.2,0-6,1.2-7.7,3.1c-2.2,5.7-7.2,6.3-12.3,4.7c-3.3,2.7-5,4.9-8.4,7.7l16.7-0.5
		c6-6.3,10.6-6,14.8-1c3.3,0.5,4.6,0.5,6.8,4.4c-3.4-1.4-5.6-1.8-7.1-0.3c-6.3,3.7-10.4,2.9-13.5,0l-17.5,1.1c2.2,2,5.2,3,7.5,4.8
		c9-2.6,13.8,1,15.4,8.3c1.3,2.9,1.7,6.1,1.2,9.3c-0.8-3-2.3-5.5-4.9-7c-8,2-11-1.3-11.5-6.1c-4-3.2-9.8-3.9-13.7-7.1
		c-4.6,1.4-6.8,2.3-11.4,3.8c-1.6,5-5.3,6.9-11.3,5.6c-7,0.2-5.8,3.2-6.4,5.5c-2-3.3-1.9-6.6,2.5-9.6c1.6-4.3,5.2-6.3,9.8-3.8
		c4.4-1.2,5.5-3,9.9-4.3c-11-3.5-18.8-4.3-29.8-7.8l-7.7,6.8c-1.5,0.9-2.9,1.1-3.8,0c-6.9-10-10-18.7-16.3-25.3
		c-2.5-2.8-5.6-6.4-9-7.3c-1.7-0.5-3.8-0.2-5.2,1.3c-1.3,1.4-2.4,4.1-2,8.2c0.7,5.7,2.1,7.6,3.7,11c1.7,3.5,3.6,5.6,5.7,8.3
		c4,5.3,9.4,8.4,12.6,10.5c6.4,4.1,9,2.3,14,2c6.4,0.7,8,3.8,2.8,8.1c-4.8,2.6-9.2,2.9-12.8,2.2c-3-0.6-6.6-4.5-9.2-6.6
		c-2.8-3.3-7.6,0.6-4.3,4.5c5.9,7,11.7,11.6,19,11.5c7.7,1,6.2,5.3,1.2,7.4c-9.2,3.7-17.4-3.3-21.6-8c-3.2-3.5-5.5-3.6-5,1.9
		c3.3,9.9,7.6,13.7,14.8,14.2c5.8-0.6,5.9,4,1.6,7c-9.6,6.6-16.6-4.8-19.9-11.6c-2.3-6.2-5.9-3.3-6.3,1.8c0,6.9,3,12.4,11.3,19.4
		c-6.3,10.1-13.7,20.4-20,30.5l-19.2-214L400,139c2-1.8,8.8-9.8,10.5-11c0.7-0.6,1-1,0.1-1.4s-3-0.8-4.5-1c4-4.1,7.6-5.4,15.3-7.6
		c-1.9-0.8-3.7-0.4-9.3-0.6c3.4-4.6,8.1-8.2,13.5-10.2c-4.2-3-5-3.2-9.2-6.7c6.6-0.5,13.2-1.8,19.5-3.8c3.8-1.8,7.8-2.9,12-3.4H448z
		 M447.2,101.7c-3.8,0-6.1,1.3-6.1,2.9s2.3,2.9,6.1,2.9s6.2-1.5,6.2-3C453.4,102.9,451,101.7,447.2,101.7z"/>
</g>
</svg>
