<?xml version="1.0" encoding="utf-8"?>
<!-- Generator: Adobe Illustrator 24.0.1, SVG Export Plug-In . SVG Version: 6.00 Build 0)  -->
<svg version="1.1" id="flag-icons-ao" xmlns="http://www.w3.org/2000/svg" xmlns:xlink="http://www.w3.org/1999/xlink" x="0px"
	 y="0px" viewBox="0 0 800 480" style="enable-background:new 0 0 800 480;" xml:space="preserve">
<style type="text/css">
	.st0{fill-rule:evenodd;clip-rule:evenodd;fill:#FF0000;}
	.st1{fill-rule:evenodd;clip-rule:evenodd;}
	.st2{fill-rule:evenodd;clip-rule:evenodd;fill:#FFEC00;}
	.st3{fill-rule:evenodd;clip-rule:evenodd;fill:#FFEE00;}
	.st4{fill:none;stroke:#000000;stroke-width:3;}
</style>
<g>
	<path class="st0" d="M0,0h800v243.6H0V0z"/>
	<path class="st1" d="M0,236.4h800V480H0V236.4z"/>
</g>
<g>
	<path class="st2" d="M294.1,148.2c165.2,43.3,59,255.6-71.3,167.2L214,329c76.7,54.6,152.6,10.6,174-46.4
		c22.2-58.8-7.6-141.5-92.6-150L294.1,148.2L294.1,148.2z"/>
	<path class="st2" d="M235.4,330.8l21.7,10.1l-10.2,21.8l-21.7-10.2L235.4,330.8z M384.4,231.3h24v24h-24V231.3z M372.7,192.4
		l22.3-8.6l8.7,22.3l-22.3,8.7L372.7,192.4z M346.7,163.3l17.1-16.9l16.9,17l-17,16.9L346.7,163.3z M320.5,123.5l22.4,8.4l-8.5,22.4
		l-22.4-8.4L320.5,123.5z M381.4,270l22.3,8.9l-9,22.2l-22.2-8.9L381.4,270z M311.5,340l22-9.3l9.5,22l-22,9.4L311.5,340z
		 M272,342.8h24v24h-24V342.8z M313.3,226.8l-20.3-15l-20.3,14.6l8-23l-20.3-15h24.5l8.5-22.6l7.8,22.7l24.7-0.3l-19.6,15.3
		L313.3,226.8L313.3,226.8z"/>
	<path class="st3" d="M401.4,346.4c-1.2,0.4-6.2,12.4-9.7,18.2l3.7,1c13.6,4.8,20.4,9.2,26.2,17.5c2.8,2.7,7.1,3,10.2,0.7
		c0,0,2.8-1,6.4-5c3-4.5,2.2-8-1.4-11.1C425.8,359.7,413.9,353.7,401.4,346.4L401.4,346.4z"/>
	<path class="st1" d="M430.7,372.8c0,2.4-1.9,4.4-4.4,4.4s-4.4-1.9-4.4-4.4c0-2.4,1.9-4.3,4.3-4.3c2.4,0,4.3,1.9,4.3,4.3H430.7z
		 M409.3,359.2c0,2.4-1.9,4.4-4.4,4.4s-4.4-1.9-4.4-4.4s1.9-4.4,4.4-4.4S409.3,356.8,409.3,359.2L409.3,359.2z M420.2,366.2
		c0,2.4-1.9,4.4-4.4,4.4s-4.4-1.9-4.4-4.4s1.9-4.4,4.4-4.4S420.2,363.8,420.2,366.2L420.2,366.2z"/>
	<path class="st3" d="M389.9,363.7c-42.6-24.3-87.3-50.5-130-74.8c-18.7-11.7-19.6-33.4-7-49.9c1.2-2.3,2.8-1.8,3.4-0.5
		c1.5,8,6,16.3,11.4,21.5c44.3,27.9,88.2,56.4,131.7,85.6c-3.4,5.8-6,12.3-9.5,18V363.7z"/>
	<path class="st2" d="M362.6,305.5l17.8,16l-16,17.8l-17.8-16L362.6,305.5z"/>
	<path class="st4" d="M396.9,348.8l-125-75.5 M381.5,331.4l-42.1-27.3 M357.6,346.8L314.7,322"/>
</g>
</svg>
