<?xml version="1.0" encoding="utf-8"?>
<!-- Generator: Adobe Illustrator 24.0.1, SVG Export Plug-In . SVG Version: 6.00 Build 0)  -->
<svg version="1.1" id="flag-icons-aq" xmlns="http://www.w3.org/2000/svg" xmlns:xlink="http://www.w3.org/1999/xlink" x="0px"
	 y="0px" viewBox="0 0 800 480" style="enable-background:new 0 0 800 480;" xml:space="preserve">
<style type="text/css">
	.st0{fill:#3A7DCE;}
	.st1{fill:#FFFFFF;}
	.st2{fill:none;stroke:#FFFFFF;stroke-width:2.5;stroke-linejoin:round;}
</style>
<path class="st0" d="M0,0h800v480H0V0z"/>
<path class="st1" d="M237.7,230.8c-3.5-7.8-3.5-7.8-3.5-15.6c-1.8,0-2,0.3-3,0c-1.1-0.3-1.5,7.2-4.8,5.8c-0.5-0.8,2.4-6.2-0.7-8.5
	c-1-0.7,0.2-5.2-0.2-7.2c0,0-4,2.4-7-5.8c-1.5-2.2-3.5,2-3.5,2s0.9,2.4-0.7,3c-2.2-1.8-3.9-0.8-6.7-3.4c-2.8-2.5,0.6-5.4-4.8-7.5
	c3.5-9.8,3.5-7.9,12.2-11.8c-5.2-4-5.2-4-8.7-9.8c-5.2-2-7-4-12.2-7.8c-7-9.9-10.5-29.5-10.5-43.2c4.4-4.6,10.5,15.7,19.2,21.6
	l12.2,5.9c7,3.9,8.7,7.8,14,11.7l15.6,6c7,5.8,10.5,13.6,15.7,15.6c5.7,0,6.8-3.7,8.6-3.9c10.3-0.6,15.5-2,17.5-5.5
	c2.1-2.8,7,1.6,21-4.3l-1.7-7.9c0,0,3.7-3.4,8.7-2c-0.1-3.5-0.5-13,4.5-17.4c-3-3.5,1.8-9,2-10.7c-1.4-8.6,1.4-8.7,2-11.3
	c0.6-2.5-2.4-1.7-1.6-5.2c0.9-3.5,6-4.3,6.6-7.2c0.7-2.9-1.1-14.3-1.3-16.8c9.4-2.8,12.4-11.4,15.7-7.8C344,70,345.8,66,356.3,66
	c1.4-3.6-3.9-6.7-1.8-7.9c3.5-0.5,6.1-0.2,10.2,5.7c1.3,2,1.6-2.7,2.9-3.2s4.4-0.5,4.9-2.8c0.5-2.4,1.2-5.6,3-9.5
	c1.4-3.2,2.5,1.3,3.8,7.5c7.4,0.3,24,2.1,31,4.3c5.2,1.5,8.7-1.5,13.7-2.2c3.7,4.2,7.2,1,9.2,10c2.7,4.8,7.3,0.4,8.3,1.8
	c5.8,18.1,25.8,5.9,27.4,6.2c2.5,0,5.6,8,7.7,7.9c3.2-0.6,2.3-3.1,5.2-2.1c-0.8,6.8,5.6,14.6,5.6,19.7c0,0,1.5,0.9,3-0.6
	c1.4-1.6,2.7-5.4,4-5.3c3,0.5,22,6,25.8,7.9c1.7,3.5,3.3,5.3,6.8,4.7c2.8,2.1,0.8,5,2.4,5.1c3.5-2,4.7-4,8.2-2.1
	c3.5,2,7,5.9,8.7,9.8c0,2-1.8,9.8,0,21.6c0.9,3.9,9.7,32.3,9.7,35.2c0,4-2.7,6-4.5,9.9c7,5.9,0,15.7-3.5,21.6
	c26.2,5.9,14,17.6,34.9,11.7c-5.2,13.8-3.4,12.7,1.8,26.4c-10.4,7.8-0.2,10.2-7.1,20c-0.5,0.7,4.1,8.6,10.5,8.6
	c-1.7,15.6-7,9.8-5.2,33.3c-13.7-0.3-8.2,17.6-17.4,15.7c0.5,11.2,5.2,12.2,3.4,23.5c-7,2-7,2-10.4,7.9l-5.2-2
	c-1.8,9.8-5.3,11.8,0,21.6c0,0-6.8,0.2-8.8,0c-0.1,3.4,3,4.3,3.5,7.8c-0.2,1.4-9.9,7.6-17.4,7.9c-2,4.8,5.2,10,4.8,12.4
	c-8.2,1.8-11.8,13-11.8,13s4.2,2,3.5,4c-2.2-1.8-3.5-2-7-2c-1.7,0.5-6,0-10,7.7c-4.5,1.6-6.6,1-10,6c-1.5-4.7-3.7,0.1-6.3,2
	c-2.7,1.8-6.2,6.5-6.7,6.3c0.1-1.4,1.6-6.3,1.6-6.3L479,437c-0.7,0.1-0.5-5.7-2.2-5.5s-6.4,7.3-8,7.5s-2.1-2.2-3.5-2s-4,7.5-5,7.7
	c-1,0.1-5-4.5-8.3-3.8c-17.1,6.8-19.9-13.4-22.5-2c-3.6-2.2-3-1-6.7,0.1c-2.3,0.7-2.5-3.4-4.6-3.4c-4.1,0.2-4,4.6-6.2,3.3
	c-1.8-9.2-13-7.6-14-11.5c-1-4,4.8-4,6.6-6.8c1.4-4-1.5-5.6,4.3-9.4c7.5-5.7,6.8-19.8,4.9-25.3c0,0-5.9-17.7-7-17.7
	c-3.5-1-3.5,6.5-8.6,8.6c-10.5,4-29-9.9-32.2-9.9c-2.9,0-16.5,3.6-16-4c-2,7.4-9.5,1.7-10,1.7c-7,0-4.3,6.1-9,5.9
	c-2.1-0.8-23.6-2.3-23.6-2.3v4l-26.1-11.8c-10.5-4-5.3-13.7-22.7-7.8v-11.8h-8.7c3.5-23.6,0-11.8-1.8-33.4l-7,2
	c-7-10.6,9.8-8.6-5.2-15.7c0,0,0.3-11.7-3.5-7.8c-0.7,0.5,1.8,5.8,1.8,5.8c-14-2-17.4-5.8-17.4-21.5c0,0,11.4,1.8,10.4,0
	c-1.6-3-3.7-22-3.4-23.4c-0.1-2.6,10.7-9,8.6-15.2c1.4-0.6,5.3-0.7,5.3-0.7"/>
<path class="st2" d="M592.3,288c-0.5,1.3-0.4,2.5,0.1,3.5C593.3,289.8,592.5,289.2,592.3,288L592.3,288z M182.8,143.4
	c0,0-2.6-0.4-2.1,2.2C181.6,143.7,182.7,143.5,182.8,143.4z M182.5,137.2c-1.5,0-3.3-0.2-2.6,2.4
	C180.8,137.6,182.5,137.3,182.5,137.2z M193.5,172.4c0,0,2.2-0.2,1.7,2.4C194.3,172.8,193.5,172.5,193.5,172.4z"/>
</svg>
