<?xml version="1.0" encoding="utf-8"?>
<!-- Generator: Adobe Illustrator 24.0.1, SVG Export Plug-In . SVG Version: 6.00 Build 0)  -->
<svg version="1.1" id="flag-icons-ar" xmlns="http://www.w3.org/2000/svg" xmlns:xlink="http://www.w3.org/1999/xlink" x="0px"
	 y="0px" viewBox="0 0 800 480" style="enable-background:new 0 0 800 480;" xml:space="preserve">
<style type="text/css">
	.st0{fill:#74ACDF;}
	.st1{fill:#FFFFFF;}
	.st2{fill:#F6B40E;stroke:#85340A;stroke-width:0.7244;stroke-miterlimit:3.6864;}
	.st3{fill:#85340A;}
	.st4{fill:#F6B40E;stroke:#85340A;stroke-width:1.4;}
	.st5{fill:#843511;}
</style>
<path class="st0" d="M0,0h800v480H0V0z"/>
<path class="st1" d="M0,160h800v160H0V160z"/>
<g>
	<g>
		<path class="st2" d="M397.6,265.8l2.1,46.8c0,0,0,0.9,0.6,0.9c0.6,0,0.6-0.9,0.6-0.9l1.5-46.8"/>
		<path class="st2" d="M393.7,265.8c-2.7,5.9-0.3,10.7-3,15.8c-2.7,5.2-1,9.4-1.1,11.8c-0.2,2.4-2.2,3-1.7,3.5s2.4-0.6,3.3-3.7
			c0.7-3.1-1.1-4.9,2-11.2c3.2-6.3,0.6-9.2,3.8-14.8"/>
		<path class="st3" d="M394.5,265.8c-2,5.8,0.2,9.7-2.6,14.7c3.1-3.6,1-8.2,3.7-14.2"/>
		<polyline class="st3" points="398.8,265.8 400.2,297.9 401.2,265.8 		"/>
	</g>
	<g>
		<path class="st2" d="M402.4,214.2l-2.1-46.8c0,0,0-0.9-0.6-0.9c-0.6,0-0.6,0.9-0.6,0.9l-1.5,46.8"/>
		<path class="st2" d="M406.3,214.2c2.7-5.9,0.3-10.7,3-15.8c2.7-5.2,1-9.4,1.1-11.8c0.2-2.4,2.2-3,1.7-3.5
			c-0.5-0.6-2.4,0.6-3.3,3.7c-0.7,3.1,1.1,4.9-2,11.2c-3.2,6.3-0.6,9.2-3.8,14.8"/>
		<path class="st3" d="M405.5,214.2c2-5.8-0.2-9.7,2.6-14.7c-3.1,3.6-1,8.2-3.7,14.2"/>
		<polyline class="st3" points="401.2,214.2 399.8,182.1 398.8,214.2 		"/>
	</g>
</g>
<g>
	<g>
		<path class="st2" d="M406.6,265l18,43.2c0,0,0.3,0.8,0.9,0.6c0.6-0.3,0.2-1,0.2-1l-14.6-44.5"/>
		<path class="st2" d="M402.9,266.4c-0.5,6.4,3.3,10.1,2.6,15.9c-0.8,5.8,2.3,9.1,3,11.4c0.6,2.3-1,3.5-0.3,3.9
			c0.7,0.4,2.1-1.4,1.8-4.6c-0.4-3.2-2.7-4.2-1.9-11.3c0.8-7-2.6-8.8-1.5-15.2"/>
		<path class="st3" d="M403.7,266.1c0.1,6.2,3.5,9.1,2.6,14.7c1.7-4.4-1.8-8-1.4-14.6"/>
		<polyline class="st3" points="407.7,264.6 420,294.3 409.9,263.8 		"/>
	</g>
	<g>
		<path class="st2" d="M393.4,215l-18-43.2c0,0-0.3-0.8-0.9-0.6c-0.6,0.3-0.2,1-0.2,1l14.6,44.5"/>
		<path class="st2" d="M397.1,213.6c0.5-6.4-3.3-10.1-2.6-15.9c0.8-5.8-2.3-9.1-3-11.4c-0.6-2.3,1-3.5,0.3-3.9
			c-0.7-0.4-2.1,1.4-1.8,4.6c0.4,3.2,2.7,4.2,1.9,11.3c-0.8,7,2.6,8.8,1.5,15.2"/>
		<path class="st3" d="M396.3,213.9c-0.1-6.2-3.5-9.1-2.6-14.7c-1.7,4.4,1.8,8,1.4,14.6"/>
		<polyline class="st3" points="392.3,215.4 380,185.7 390.1,216.2 		"/>
	</g>
</g>
<g>
	<g>
		<path class="st2" d="M414.8,261.3l31.7,34.5c0,0,0.6,0.7,1,0.3c0.4-0.4-0.1-1-0.1-1l-29-36.8"/>
		<path class="st2" d="M411.8,263.8c1.7,6.2,6.6,8.4,7.9,14c1.3,5.7,5.3,7.8,6.7,9.7c1.3,1.9,0.2,3.7,1,3.8c0.8,0.1,1.5-2,0.1-4.9
			c-1.4-2.9-4-3-5.7-9.9s-5.4-7.4-6.6-13.7"/>
		<path class="st3" d="M412.4,263.3c2.2,5.8,6.4,7.3,7.5,12.9c0.1-4.7-4.5-6.9-6.3-13.2"/>
		<polyline class="st3" points="415.7,260.5 437.4,284.2 417.5,259 		"/>
	</g>
	<g>
		<path class="st2" d="M385.2,218.7l-31.7-34.5c0,0-0.6-0.7-1-0.3c-0.4,0.4,0.1,1,0.1,1l29,36.8"/>
		<path class="st2" d="M388.2,216.2c-1.7-6.2-6.6-8.4-7.9-14c-1.3-5.7-5.3-7.8-6.7-9.7c-1.3-1.9-0.2-3.7-1-3.8
			c-0.8-0.1-1.5,2-0.1,4.9c1.4,2.9,4,3,5.7,9.9c1.6,6.9,5.4,7.4,6.6,13.7"/>
		<path class="st3" d="M387.6,216.7c-2.2-5.8-6.4-7.3-7.5-12.9c-0.1,4.7,4.5,6.9,6.3,13.2"/>
		<polyline class="st3" points="384.3,219.5 362.6,195.8 382.5,221 		"/>
	</g>
</g>
<g>
	<g>
		<path class="st2" d="M421.1,254.9l41.5,21.6c0,0,0.8,0.4,1.1-0.1c0.3-0.6-0.5-0.9-0.5-0.9l-39.8-24.7"/>
		<path class="st2" d="M419.2,258.3c3.7,5.3,9.1,5.6,12.2,10.5c3.1,4.9,7.6,5.5,9.7,6.8c1.9,1.4,1.5,3.4,2.2,3.2
			c0.8-0.2,0.7-2.4-1.6-4.7c-2.3-2.2-4.8-1.5-8.7-7.4c-3.9-5.9-7.6-5.1-10.9-10.6"/>
		<path class="st3" d="M419.6,257.6c4.1,4.7,8.5,4.7,11.5,9.6c-1.5-4.4-6.6-5-10.4-10.3"/>
		<polyline class="st3" points="421.7,253.9 450.2,268.8 422.9,251.9 		"/>
	</g>
	<g>
		<path class="st2" d="M378.9,225.1l-41.5-21.6c0,0-0.8-0.4-1.1,0.1c-0.3,0.6,0.5,0.9,0.5,0.9l39.8,24.7"/>
		<path class="st2" d="M380.8,221.7c-3.7-5.3-9.1-5.6-12.2-10.5c-3.1-4.9-7.6-5.5-9.7-6.8c-1.9-1.4-1.5-3.4-2.2-3.2
			c-0.8,0.2-0.7,2.4,1.6,4.7c2.3,2.2,4.8,1.5,8.7,7.4c3.9,5.9,7.6,5.1,10.9,10.6"/>
		<path class="st3" d="M380.4,222.4c-4.1-4.7-8.5-4.7-11.5-9.6c1.5,4.4,6.6,5,10.4,10.3"/>
		<polyline class="st3" points="378.3,226.1 349.8,211.2 377.1,228.1 		"/>
	</g>
</g>
<g>
	<g>
		<path class="st2" d="M425,246.8l46.4,6c0,0,0.9,0.1,1-0.4c0.1-0.6-0.8-0.7-0.8-0.7l-45.8-9.6"/>
		<path class="st2" d="M424.3,250.7c5.3,3.7,10.5,2.2,15.1,5.7c4.6,3.6,9.1,2.6,11.4,3.1c2.3,0.6,2.5,2.7,3.2,2.3
			c0.7-0.4-0.1-2.5-3.1-3.9c-2.9-1.3-5,0.3-10.7-4c-5.7-4.2-8.9-2.2-13.9-6.3"/>
		<path class="st3" d="M424.4,249.9c5.4,3,9.6,1.5,14.1,5.1c-3-3.6-7.9-2.4-13.3-6.1"/>
		<polyline class="st3" points="425.2,245.6 457,249.8 425.6,243.3 		"/>
	</g>
	<g>
		<path class="st2" d="M375,233.2l-46.4-6c0,0-0.9-0.1-1,0.4c-0.1,0.6,0.8,0.7,0.8,0.7l45.8,9.6"/>
		<path class="st2" d="M375.7,229.3c-5.3-3.7-10.5-2.2-15.1-5.7c-4.6-3.6-9.1-2.6-11.4-3.1c-2.3-0.6-2.5-2.7-3.2-2.3
			c-0.7,0.4,0.1,2.5,3.1,3.9c2.9,1.3,5-0.3,10.7,4c5.7,4.2,8.9,2.2,13.9,6.3"/>
		<path class="st3" d="M375.6,230.1c-5.4-3-9.6-1.5-14.1-5.1c3,3.6,7.9,2.4,13.3,6.1"/>
		<polyline class="st3" points="374.8,234.4 343,230.2 374.4,236.7 		"/>
	</g>
</g>
<g>
	<g>
		<path class="st2" d="M425.8,237.8l45.7-10.2c0,0,0.9-0.2,0.8-0.7c-0.2-0.6-1-0.4-1-0.4l-46.3,6.7"/>
		<path class="st2" d="M426.5,241.7c6.2,1.6,10.6-1.5,16.1,0.2c5.6,1.8,9.4-0.6,11.8-1c2.4-0.2,3.3,1.6,3.8,1s-1-2.3-4.2-2.6
			c-3.2-0.2-4.6,2-11.4-0.1c-6.8-2-9.1,1-15.2-1.2"/>
		<path class="st3" d="M426.3,240.9c6.1,1,9.5-1.9,14.9,0c-4-2.4-8.2,0.4-14.6-1.2"/>
		<polyline class="st3" points="425.6,236.7 457,229.7 425.2,234.4 		"/>
	</g>
	<g>
		<path class="st2" d="M374.2,242.2l-45.7,10.2c0,0-0.9,0.2-0.8,0.7c0.2,0.6,1,0.4,1,0.4l46.3-6.7"/>
		<path class="st2" d="M373.5,238.3c-6.2-1.6-10.6,1.5-16.1-0.2c-5.6-1.8-9.4,0.6-11.8,1c-2.4,0.2-3.3-1.6-3.8-1s1,2.3,4.2,2.6
			c3.2,0.2,4.6-2,11.4,0.1c6.8,2,9.1-1,15.2,1.2"/>
		<path class="st3" d="M373.7,239.1c-6.1-1-9.5,1.9-14.9,0c4,2.4,8.2-0.4,14.6,1.2"/>
		<polyline class="st3" points="374.4,243.3 343,250.3 374.8,245.6 		"/>
	</g>
</g>
<g>
	<g>
		<path class="st2" d="M423.5,229.1l39.4-25.2c0,0,0.8-0.5,0.5-1c-0.3-0.5-1-0.1-1-0.1L421.1,225"/>
		<path class="st2" d="M425.5,232.6c6.4-0.6,9.4-5,15.2-5.4c5.9-0.3,8.6-3.8,10.7-5c2.1-1,3.7,0.4,3.9-0.3c0.2-0.7-1.7-1.8-4.8-1
			c-3.1,0.9-3.7,3.4-10.8,3.8c-7.1,0.4-8.2,4-14.7,4.1"/>
		<path class="st3" d="M425.1,231.9c6.1-1.2,8.3-5,14-5.1c-4.6-0.9-7.6,3.2-14.1,3.9"/>
		<polyline class="st3" points="422.9,228.1 450,210.9 421.7,226.1 		"/>
	</g>
	<g>
		<path class="st2" d="M376.5,250.9l-39.4,25.2c0,0-0.8,0.5-0.5,1c0.3,0.5,1,0.1,1,0.1l41.3-22.1"/>
		<path class="st2" d="M374.5,247.4c-6.4,0.6-9.4,5-15.2,5.4c-5.9,0.3-8.6,3.8-10.7,5c-2.1,1-3.7-0.4-3.9,0.3s1.7,1.8,4.8,1
			c3.1-0.9,3.7-3.4,10.8-3.8c7.1-0.4,8.2-4,14.7-4.1"/>
		<path class="st3" d="M374.9,248.1c-6.1,1.2-8.3,5-14,5.1c4.6,0.9,7.6-3.2,14.1-3.9"/>
		<polyline class="st3" points="377.1,251.9 350,269.1 378.3,253.9 		"/>
	</g>
</g>
<g>
	<g>
		<path class="st2" d="M418.4,221.8l28.4-37.2c0,0,0.6-0.7,0.1-1.1c-0.5-0.4-1,0.3-1,0.3l-31.2,34.9"/>
		<path class="st2" d="M421.4,224.3c5.8-2.8,7.1-8,12.4-10.2c5.4-2.2,6.8-6.5,8.4-8.3c1.7-1.7,3.6-0.9,3.6-1.6s-2.2-1.1-4.9,0.7
			c-2.6,1.9-2.3,4.5-8.8,7.3s-6.4,6.6-12.4,8.9"/>
		<path class="st3" d="M420.8,223.8c5.3-3.2,6.1-7.6,11.4-9.6c-4.6,0.8-6,5.6-12,8.5"/>
		<polyline class="st3" points="417.5,221 437.1,195.5 415.7,219.5 		"/>
	</g>
	<g>
		<path class="st2" d="M381.6,258.2l-28.4,37.2c0,0-0.6,0.7-0.1,1.1c0.5,0.4,1-0.3,1-0.3l31.2-34.9"/>
		<path class="st2" d="M378.6,255.7c-5.8,2.8-7.1,8-12.4,10.2c-5.4,2.2-6.8,6.5-8.4,8.3c-1.7,1.7-3.6,0.9-3.6,1.6
			c0,0.8,2.2,1.1,4.9-0.7c2.6-1.9,2.3-4.5,8.8-7.3s6.4-6.6,12.4-8.9"/>
		<path class="st3" d="M379.2,256.2c-5.3,3.2-6.1,7.6-11.4,9.6c4.6-0.8,6-5.6,12-8.5"/>
		<polyline class="st3" points="382.5,259 362.9,284.5 384.3,260.5 		"/>
	</g>
</g>
<g>
	<g>
		<path class="st2" d="M411,216.6l14-44.7c0,0,0.3-0.8-0.2-1.1c-0.6-0.2-0.8,0.6-0.8,0.6L406.6,215"/>
		<path class="st2" d="M414.7,217.9c4.5-4.6,4-9.9,8.2-13.9c4.3-4,4.1-8.5,5-10.7c1-2.1,3.1-2,2.8-2.8c-0.3-0.7-2.5-0.3-4.3,2.4
			c-1.8,2.7-0.6,5-5.8,9.9c-5.1,4.9-3.7,8.4-8.6,12.6"/>
		<path class="st3" d="M414,217.6c3.9-4.8,3.1-9.2,7.5-13c-4.1,2.3-3.8,7.3-8.3,12.1"/>
		<polyline class="st3" points="409.9,216.2 419.6,185.5 407.7,215.4 		"/>
	</g>
	<g>
		<path class="st2" d="M389,263.4l-14,44.7c0,0-0.3,0.8,0.2,1.1c0.6,0.2,0.8-0.6,0.8-0.6l17.4-43.5"/>
		<path class="st2" d="M385.3,262.1c-4.5,4.6-4,9.9-8.2,13.9c-4.3,4-4.1,8.5-5,10.7c-1,2.1-3.1,2-2.8,2.8c0.3,0.7,2.5,0.3,4.3-2.4
			c1.8-2.7,0.6-5,5.8-9.9c5.1-4.9,3.7-8.4,8.6-12.6"/>
		<path class="st3" d="M386,262.4c-3.9,4.8-3.1,9.2-7.5,13c4.1-2.3,3.8-7.3,8.3-12.1"/>
		<polyline class="st3" points="390.1,263.8 380.4,294.5 392.3,264.6 		"/>
	</g>
</g>
<circle class="st4" cx="400" cy="240" r="26.7"/>
<path id="h" class="st5" d="M409.1,234.3c-1.8,0-3.6,0.8-4.6,2.4c2,1.9,6.6,2,9.7-0.2C412.9,235.1,411,234.3,409.1,234.3z
	 M409.1,234.7c1.7,0,3.4,0.8,3.6,1.6c-2,2.3-5.3,2-7.4,0.4C406.1,235.4,407.6,234.6,409.1,234.7z"/>
<g transform="matrix(-1 0 0 1 640.2 0)">
	<path id="d" class="st3" d="M224.4,236.5c0.5,0.2,2.5-2.8,6.2-2.8c1.2,0,2.5,0,3.7,1s2,1.4,2.5,1.6c0.3,0.2,0.6-0.4,0.3-0.6
		c-0.1-0.2-0.8,0-2-1s-1.8-1.7-4.5-1.7C226.5,233,224.1,236.3,224.4,236.5z"/>
</g>
<g transform="matrix(-1 0 0 1 640.2 0)">
	<path id="e" class="st3" d="M223.2,234.2c4.5-6,10.7-5.7,15.2-2c0.3,0.7,0.5,1.5,0.6,2.3c0.5,3.2,0,6.5-1.6,9.4l-0.8-0.4
		c1.8-2.6,2.5-5.1,2.1-7.4c-0.2-1.3-0.7-2.5-1.5-3.5c-3.3-3.1-9.3-2.4-14,1.7L223.2,234.2z"/>
</g>
<g transform="translate(18.1)">
	<circle id="f" class="st3" cx="390.9" cy="236.3" r="1.9"/>
</g>
<g transform="matrix(-1 0 0 1 640.2 0)">
	<path id="g" class="st3" d="M225.7,237.5c4.1,1.7,6.5,1.7,8.2,0.9c1.6-0.9,2-1.3,2.4-1.3s0.4,0.4-1.6,1.7
		C232.7,240,229.2,240.2,225.7,237.5L225.7,237.5z"/>
</g>
<path class="st3" d="M396,243.7c-1,0.1-1.8,1-1.7,2.1c0.1,1,1,1.8,2.1,1.7c0.6-0.1,1.1-0.4,1.4-0.9c0.7,0.4,1.4,0.6,2.2,0.6h0.2
	c0.8,0,1.6-0.2,2.3-0.6c0.6,0.8,1.8,1,2.7,0.4c0.8-0.6,1-1.8,0.4-2.7c-0.3-0.4-0.8-0.7-1.3-0.8c0.5,0.3,0.8,0.7,0.8,1.3
	s-0.5,1.2-1.2,1.2s-1.2-0.5-1.2-1.2l0,0c-0.5,1-1.5,1.7-2.6,1.7c-1.1-0.1-2-0.7-2.5-1.7c0,0.7-0.5,1.2-1.2,1.2h-0.1
	c-0.6,0-1.2-0.6-1.2-1.2s0.3-1,0.8-1.2L396,243.7L396,243.7z M398,249.2c-2.1,0-3,1.8-4.8,3c1-0.4,1.9-1.2,3.3-2s2.7,0.2,3.5,0.2
	s2-1,3.5-0.2c1.4,0.8,2.3,1.6,3.3,2c-1.9-1.2-2.7-3-4.8-3c-0.7,0.1-1.4,0.3-2,0.6C399.4,249.4,398.7,249.2,398,249.2L398,249.2z"/>
<path class="st3" d="M397.2,251.6c-0.8,0-1.8,0.2-3.4,0.6c3.7-0.8,4.5,0.5,6.2,0.5c1.6,0,2.4-1.3,6.1-0.5c-4-1.2-4.9-0.4-6.1-0.4
	C399.2,251.8,398.6,251.5,397.2,251.6L397.2,251.6z"/>
<path class="st3" d="M394,252.2h-0.8c4.3,0.5,2.3,3,6.8,3s2.5-2.5,6.8-3c-4.5-0.4-3.1,2.3-6.8,2.3
	C396.5,254.5,397.6,252.2,394,252.2z M403.7,258.9c0-2-1.7-3.7-3.7-3.7s-3.7,1.7-3.7,3.7c0.5-2,2.5-3.3,4.6-2.8
	C402.3,256.4,403.4,257.5,403.7,258.9z"/>
<path id="e_1_" class="st3" d="M383.4,234.3c4.7-4.1,10.7-4.8,14-1.7c0.8,1,1.3,2.2,1.5,3.5c0.4,2.3-0.3,4.8-2.1,7.4l0.8,0.4
	c1.6-2.9,2.1-6.2,1.6-9.4c-0.1-0.8-0.3-1.6-0.6-2.3c-4.5-3.7-10.7-4-15.2,2L383.4,234.3z"/>
<path id="d_1_" class="st3" d="M390.8,233c2.7,0,3.3,0.7,4.5,1.7s1.9,0.8,2,1c0.3,0.2,0,0.8-0.3,0.6c-0.5-0.2-1.3-0.6-2.5-1.6
	s-2.5-1-3.7-1c-3.7,0-5.7,3-6.2,2.8C384.3,236.3,386.7,233,390.8,233z"/>
<g transform="translate(-18.4)">
	<path id="h_1_" class="st5" d="M409.3,234.3c-1.8,0-3.6,0.8-4.6,2.4c2,1.9,6.6,2,9.7-0.2C413.1,235.1,411.2,234.3,409.3,234.3z
		 M409.3,234.7c1.7,0,3.4,0.8,3.6,1.6c-2,2.3-5.3,2-7.4,0.4C406.3,235.4,407.8,234.6,409.3,234.7z"/>
</g>
<circle id="f_1_" class="st3" cx="390.9" cy="236.3" r="1.9"/>
<path id="g_1_" class="st3" d="M385.9,237.5c3.5,2.7,7,2.5,9,1.3c2-1.3,2-1.7,1.6-1.7s-0.8,0.4-2.4,1.3
	C392.4,239.2,390,239.2,385.9,237.5L385.9,237.5z"/>
</svg>
