<?xml version="1.0" encoding="utf-8"?>
<!-- Generator: Adobe Illustrator 24.0.1, SVG Export Plug-In . SVG Version: 6.00 Build 0)  -->
<svg version="1.1" id="flag-icons-as" xmlns="http://www.w3.org/2000/svg" xmlns:xlink="http://www.w3.org/1999/xlink" x="0px"
	 y="0px" viewBox="0 0 800 480" style="enable-background:new 0 0 800 480;" xml:space="preserve">
<style type="text/css">
	.st0{fill:#000066;}
	.st1{fill:#BD1021;}
	.st2{fill:#FFFFFF;}
	.st3{fill:#FFC221;}
	.st4{fill:#5A3719;}
	.st5{fill:#7B3C20;}
	.st6{fill:#AA5323;}
	.st7{fill:#999999;}
</style>
<path id="path430" class="st0" d="M0.8,0h801.4v480H0.8V0z"/>
<path id="path432" class="st1" d="M0,240L801.4,0v480L0,240z"/>
<path id="path434" class="st2" d="M75.5,240L801.8,25.7v428.6"/>
<g id="g572" transform="matrix(.7659 0 0 .7659 -113 57.5)">
	<path id="path436" d="M931.5,264.6c7.6,0.5,7.4,8.1,7.4,8.1l27.3,0.7c3.5-9.6,7.2-8.4,13.7-3.7c4.1,2.8,8.5,4.9,13.2,6.4
		c2.7-13.6,21.9-10.9,21.9-10.9c8.3-19.6,9-19.4,4-21.9c-2.9-1.5-5.4-3.8-6.9-6.7c-4.6-5.7-7-13.7-7.6-18.7c-0.6-5-6.4,2.4-7.4,0.9
		c-1-1.6-9.6-0.7-9.6-0.7c2.1,2.3-5.1,0.9-5.1,0.9c0.7,0.6,0,2.7,0,2.7c-0.7-0.9-6.2-1.8-6.2-1.8c-0.5,1.2-1.7,2.4-1.7,2.4
		c-3-1.2-8.9-1-8.9-1c-5.8-0.2-11.5,1.2-16.5,4.2c-2.4,1.4-11.2,5.8-18.5,12.8c-7.2,6.9-11.2,6.1-11.2,6.1
		c-2.1,7.9-19.3,17.3-19.3,17.3c-2.8,2.4-11.4,3.6-15.8,0c-4.4-3.7,0-10.4,0-10.4c1.7-3,3.2-2.9,3.5-13.5
		c0.1-7.2,7.5-12.9,15.1-21.3c9.4-10.3,22.4-27.1,22.4-27.1c0,5.2,2.9,6,2.9,6c2.5-5.2,6.2-9.5,6.2-9.5c0.2,0.5,0.8,0.7,0.8,0.7
		c2.9-3.9,4.6-5.4,4.6-5.4c-0.9-0.5-9.1,0-16.6,6.6c-7.6,6.6-12.7,4.4-12.7,4.4c-5.3-1.7-5.8-5.8-5.8-5.8
		c-3.8-16.5,11.2-28.3,11.2-28.3c-20.2-4.9-5.7-30.6,19.5-41.6c25.1-10.9,24.8-15.8,24.8-15.8c1.5,1.7,2.7,4.6,2.7,4.6
		c0.2-0.1,2.1-2.9,16.6-9.2c14.4-6.5,21.4-12,21.4-12c1.8,3.6,1.5,6.1,1.5,6.1c39.6-13.9,78.5-45.7,78.5-45.7
		c1.2,2.7,0.6,6.7,0.6,6.7c6.5-6,29.8-19.9,29.8-19.9c0.3,8.9-6.9,12.2-6.9,12.2c0.8,1.3,1.2,3.6,1.2,3.6
		c7.4-4.6,14.6-9.5,21.7-14.4c6.6,5.7,0.7,14.8,0.7,14.8c2.3-0.3,3.9-2.3,3.9-2.3c1.7,9.6-8.9,18-8.9,18c1.8,0,5-1.8,5-1.8
		c-2.1,10.4-21.8,21.9-21.8,21.9c2.9,2.7,0.1,6-2.3,7.6c-2.3,1.5-6.5,4.9-5.2,6.2s10-4.9,10-4.9c1.5,4.4-9.7,13.1-9.7,13.1
		c7.9,1,29.6-8.9,29.6-8.9c-1.7,8.4-9.9,15-20.1,18.8c-10.2,3.8-9.6,4.4-9.6,4.4c1.7,1.4,15.7-2.7,15.7-2.7
		c-4.2,9.4-18.7,15.8-18.7,15.8c3.9,3.5,9.5-0.6,14.9-4.3c6.6-4.2,13.7-7.4,21.1-9.7c8.1-2.8,14-0.7,14-0.7
		c6.9-2.2,12.7,0.9,12.7,0.9c13.1,1,14.4,5.8,14.4,5.8c1.4,0.3,2.5,0.9,5.9,3.5c3.3,2.4,3.1,10,3,13.9c-0.1,3.7-1.2,3.7-1.8,4.6
		c-0.6,1.2-0.7,2.3-0.7,3.7c0,1.5-3.3,10.4-23.7,10.4H1125c-1.7,0-3.7,1-3.7,1c-8.5,4.3-4-2.9-14.2,5.4c-10.2,8.4-15.4,6.9-15.4,6.9
		c-5.7,5.9-11.9,11.2-18.5,15.9c-6,3.9-5,3.5,0.3,5.8c5.3,2.3,13.3,0,13.3,0c-5.1,3.5-1.5,5.1-1.5,5.1c6.7-4.2,10.9-2.7,10.9-2.7
		c2.1,5.9-5.7,15.2-5.7,15.2c3,0.3,8.7,0,8.7,0c-1.4,3.9-6.9,8.3-11.1,9.6c-4.2,1.4-3.5,2-2.2,4.4c1.2,2.5,0.2,5.1,0.2,5.1
		c-7.3-5-7.5-0.6-7.5-0.6c-0.8,5.9-0.7,14.4-0.7,14.4c-5.1-2.5-5.3,0.8-5.3,0.8c-1.4,5.4-7.6,11.6-7.6,11.6
		c-0.2-3.2-3.3-4.2-3.3-4.2c-3.2,6.2-9.2,10-9.2,10c-0.7,5.3,0.8,12.9,0.8,12.9c-3.9-0.8-5.3-0.8-5.9,0.1c-0.6,0.9,0.8,1.4,0.8,1.4
		l50.4,1.3c0.7,0,3.7,0.5,3.7,5.8c0.1,5.5-4.4,5.8-4.4,5.8l-55-1.3c0,0,0.2,1.5-2.7,3c-2.9,1.5-1.8-1.7-2.7,5.1
		c-0.8,6.7-11.8-0.6-11.8-0.6c-1.7,2.7-6,6.1-6,6.1c-2.5-7.5-5.1-9.8-9-3.3c-3.9,6.5,7.2,5.3,7.2,5.3s64.6-9.5,68.2-9.8
		c3.5-0.3,7.3-0.1,8.9,4.7c1.5,5-7.9,5.8-7.9,5.8l-66.3,7.2c-1.4,3.9-6.9,3.7-6.9,3.7c0.5,3.7-3.5,6.1-5.4,7.4
		c-2.1,1.4-8.4,0.8-8.4,0.8c-7.6,5.2-11.4,1.2-11.4,1.2c-5,2.1-8.1,1.2-12.2-0.6c-4.2-1.8-3.8-6.8-3.8-6.8l-41.8,4.4
		c-1.2,0.4-2.4,1.1-3.3,2c1.5,2-3,6.4-3,6.4c1.3,0.8,3.7,3.2,4,8.4c0.3,5.5-6.8,6.5-3.2,10.4c3.5,3.8,10,0.6,17.3-2.9
		c7.2-3.5,14.3-3,17.3-3c3.1,0,11.8,2.3,17.1,4.2c5.4,1.8,7.3,0.7,7.6-2.1c0.3-2.7,2.8-3.5,2.8-3.5c-0.7,2.7,0.8,3.9,0.8,3.9
		c2.1,0,5.7-2,5.7-2c-0.3,2.1-3,3.3-3,3.3c-5.2,3.5,2,2.2,2,2.2c14.4-3,19.6-2.7,23.3-2.3c7.3,2.2,14.5,4.9,21.5,8
		c0.6-1.8,0.2-6.2,0.2-6.2c4.5,1.3,6.4,3.9,6.4,3.9c1.7-1.8,0.6-5.1,0.6-5.1c14.6,8.2-3,11.9-7.7,13.5c-4.6,1.5-4.6,3.5-4.6,3.5
		c3.9-1.2,6.6-1.7,9.8-2s2.1,0,9.8-1.5c7.7-1.6,11.7,1.7,11.7,1.7c-6.5,0.3-8.3,2.3-8.3,2.3c4,2.7,0.1,5.1,0.1,5.1
		c-5.8-7.4-10.9,0.2-10.9,0.2c3.3,0,6.6,0.7,9.6,2.1c1.3,0.8,4.4,2.3,8.1,4c5.4,2.4,4.4,0.9,8.5,2.4c4.2,1.6,2.5,5.5,2.5,5.5
		c-1.7-3.2-5.5-4.4-5.5-4.4c-0.3,4.4-4.7,5.2-4.7,5.2c5.4-6-6.2-8.7-11.8-8.5c-5.4,0-9.5,3.6-9.5,3.6c11,10.4,18.6,6.9,18.6,6.9
		c-1.4,3.8-10.4,2.3-10.4,2.3c4.2,3.2,3.7,5.4,3.7,5.4c-2.3-2.2-5.9-1.2-13.9-6.1c-7.9-5.2-14.9-3.5-14.9-3.5
		c7.7,8.1-2.8,13.1-2.8,13.1c-3.9,2.3,1.6,5.2,1.6,5.2c-4.9,0.9-5.5-3.9-5.5-3.9c-2.5-0.6-6.2,2.5-6.2,2.5c0.2-5,6.8-2.4,6.9-7.7
		c0.2-5.2-6-9.2-24.6-6.7c-18.7,2.7-24.1-3.3-24.1-3.3c-1.6,0-1.8,1.6-1.8,1.6c3,3,4.4,4.2,3.9,6.2c-0.6,2.1,0.9,2.8,0.9,2.8
		c-3.5-0.2-3.7-4.3-3.7-4.3c0,1.7-0.7,1.8-1.8,3.6s0,4,0,4c-1.5-1.3-4.2-2.8-1.6-6.5c1.8-2.8-4-6.4-4-6.4c-2.3-2.3-8.4-0.1-8.4-0.1
		c-12.7,2.4-20.1-5.5-20.1-5.5c-1.5,0-4.3-0.8-4.3-0.8c-13.4,6-25.2-6.9-25.2-6.9c-10.2,1.8-14.8-3-17.8-7.9c-1.7-3.3-4.5-6-7.9-7.6
		c-4-2.3-7.9-9.4-4-13.1c3.2-3.2,2.3-3.9,2.3-3.9c-5.3-8.9,9.2-11.7,9.6-13.9c0.3-3,3.5-5,6.7-5.2c3.3-0.2,3.3,0,5.5-2.1
		c2.1-2.3,6.2,0.5,6.2,0.5c0.9-0.6,8.1-6.2,14.6-3.3c6.5,2.9,11.8,0.9,11.8,0.9c4.6-1,42.3-6.1,42.3-6.1c2.3-3.7,4.2-8.1,14.6-10.4
		c10.4-2.3,18.1-9,18.1-9c-1.8-2-5-1.8-6.5-2.1c-1.6-0.1-4.9-3-4.9-3c-2,0.9-2.9,0.5-16.5,8.8c-12.2,7.4-12.6-7.3-12.6-7.3H939
		c-0.5,5.7-4.6,7.9-4.6,7.9l-9.8,0.5c-5.3-2.8-5.4-12.4-5.4-12.4c-29.2,0.5-45.4,10.9-45.4,10.9c-33.2-16.9-59-20.8-59-20.8
		c40.2-4.3,61.5-15.5,61.5-15.5c13,7.9,27.8,12.6,43,13.6c0.8-8.1,6.2-10,6.2-10L931.5,264.6z"/>
	<path id="path438" class="st3" d="M883.6,331.2c-8.3,4.9-6.8,7.6-6,9.1c0.7,1.5,0.8,3-1.5,5.3c-2.3,2.3-2.1,3.1-2.1,3.1
		c0.3,8.1,6.1,9.8,8.5,11.9c2.1,1.6,5.4,6.9,5.4,6.9c4.4,6.1,8.9,6.2,12.2,6.2c3.5,0,3.1-0.3,1.4-1.8l-5-4.2
		c3.3,1.5,6.3,3.6,8.8,6.2c8.5,9.4,16.4,8.1,19.9,7.7c3.5-0.5,2.9-2.5,2.9-2.5c-0.2-0.3-3.5-0.6-3.5-0.6
		c-12.9-1.2-16.7-9.6-16.7-9.6c6.5,5.7,14.9,8.9,23.6,9c3.7-0.2,3.5,0.9,2.7,1.2c-0.8,0.1-1.8,0-3.6-0.2c-1.7,0-1.7,0.3-1.4,1.2
		c0.5,0.6,2.1,0.7,4,0.6c2.1,0,0.5,0.2,5.8,4.3c5.3,4.2,18.5,0.8,18.5,0.8c-8.5-2.1-9.7-6-9.7-6c-11.6,1.4-16.3-5.5-16.3-5.5
		c-2.1-2.1-8.3-5.3-8.3-5.3c-6.5-2.8-7.5-8.7-7.5-8.7c1.8,2.7,5.4,5.7,9.9,6.9c4.6,1.2,5.8,1.8,5.8,1.8c-1.2,0.2-2.4,0.1-3.5-0.3
		c-4.5-1.4-2,0.5-2,0.5c5.1,4,6.5,3.7,6.5,3.7c13.1,1.4,6.6-3.9,6.6-3.9c9.2,2.3,10.9-1.2,10.9-1.2c2,4,9,2.5,9,2.5
		c-9.4,4.6-2.3,3.2-2.3,3.2c9.6-1.7,11.6,0.7,11.6,0.7c2.4,2.3,5.1,2.1,5.1,2.1s1.7,0,5.3,0.7c3.6,0.7,9.2,3.8,14.4,3.2
		c5.2-0.7,6.1,0.9,6.1,0.9c-1-0.3-3.3-0.7-7.4,1.2c-4,1.8-11.1,2.3-21.4,0c-10.3-2.3-11.1-2.1-11.1-2.1c2.4,1.7,4.6,4.4,5.1,6.1
		c0.5,1.7,2.3,1.8,2.3,1.8c0.7-2.3,3.7-3.2,3.7-3.2c2.1,1.8,7.5,4.3,7.5,4.3c0.6-1.2,0-2.1,0-2.1c3.9,3.8,8.5,2.7,8.5,2.7
		c1.2-0.8,0.8-3,0.8-3c1.6,0,1.8,0.9,3,1.7c1.2,0.7,4.6,0.2,4.6,0.2c-1.3-0.6-2.3-2.5-2.3-2.5c5.3-3.6,16.5-2.1,16.5-2.1
		c8.1,1.5,7.2,6.8,7.2,6.8c1.6,0.7,3.8,3.2,3.8,3.2c0.7-1.8,0-3.8,0-3.8c3.8,1.7,4.6,6.1,4.6,6.1c4.3-5-4.2-10.4-4.2-10.4
		c4-0.6,8.5-0.2,11.3,0.1c2.8,0.5,6.6,1.8,9.8,4.6c3.2,2.5,8.9,3.8,8.9,3.8c-0.1-1.2-3.2-3-3.9-3.3c-0.7-0.3-0.9-1.4-0.9-1.4
		c2.8,0.6,4.6,0.2,4.6,0.2c-9.7-6-12.2-8.8-12.2-8.8c3.7,0.5,5.8-1.8,5.8-1.8c-7.7,0.1-8.1-1.8-8.1-1.8c1,0.2,4.6,1.2,9.2,0.2
		c4.6-0.9,11,0,11,0c-3.3-5.4-16.3-4.5-20.4-4.3c-4.2,0.2-5.8-0.3-5.8-0.3c0.7-0.2,1.4-0.9,4.6-1c3.2,0,6.5,0.3,10.2-2.3
		c3.6-2.4,8.7-1.6,8.7-1.6c-1.2-2.4-7-3.3-12.1,0c-5.2,3.2-9.8,2.3-9.8,2.3c8.1-1.2,10.4-4,10.4-4c-2.3-0.7-3.7,0.1-8.7,1.2
		c-4.9,0.9-6.1-0.8-6.1-0.8c5.3-3.1,9.1-4.4,9.1-4.4c-4.6-1-8.8-3-8.8-3c-4.7,4.5-8.4,6.9-17.6,2.3c-9.1-4.9-13.9-4.3-13.9-4.3
		c8.1-4.6,16.2-2.7,22.2,0.9c6,3.5,7.7,0.7,7.7,0.7c-2-1.2-1.6-2.3-1.6-2.3c14.4,7.4,20.8,2.9,23.9,0.7c3.2-2.2-1.5-5.1-1.5-5.1
		c-0.2,4.6-6.1,6.9-10.9,5.3c-4.6-1.6-8.9-3.6-15.6-6.5c-6.7-2.8-15-1.3-22.9,0.3c-7.9,1.6-8.8,0.8-9.6,0.2c-0.7-0.6-1-2.5-5.1-0.9
		c-3.9,1.7-13.3-2.7-19.1-4c-5.8-1.4-15.2-0.7-23.4,3.8c-8.1,4.6-12.2,3.5-14.7,2.3c-2.4-1.2-4-4.2-1.4-6.9c2.7-2.8,2.9-3.5,2.7-7.5
		c-0.2-3.9-4.2-6.4-4.2-6.4c3.6-3.7,4.5-4.6,3.2-6.1c-1.2-1.6,0.7-1.6,2.8-2.5c2.1-0.9,1.2-1,0.7-2.3c-0.5-1.2-1.7-0.9-1.7-0.9
		c-4.7,0.2-7.4-1.2-7.4-1.2c-7.9-3.6-15.2,3.5-15.2,3.5c-4.5-3.5-5.5-1.2-6.4-0.3c-0.7,0.8-2.3,1.4-4.4,1.6c-2,0.2-4.9,0.9-5.8,2.8
		c0,0-0.9,1.4,0.1,3c0,0,1.2,1.8-0.9,4c-2.3,2.3-3.1,2.8-2.3,5c0.6,2.1,0.5,3.7-0.5,5.1c0,0-1-1.2-0.7-2.7c0.2-1.4,0.2-2.3-0.1-3
		c0,0-2.2,2.1-2.5,3.7c0,0-0.9-2.4,2.3-5.7c3.1-3.1,4.6-4.7,3.7-6c-0.7-0.9-3,0.6-3.6,0.9H883.6z"/>
	<path id="path440" d="M892.8,366.5c0,0-4-3-3.6-7.3c0.5-4.2,0.5-4.6,0-5.7c0,0-0.8,0.5-0.7,2.1c0,1.6-0.2,3.2-0.3,3.5
		c0,0-2.1-3.5-3-4.2c0,0,0.8-3.7-0.3-5.2c-1.2-1.6-2.3-1.7-3.6-1.2c-1.8,0.6-3.2,2.3,2.9,7.3c0,0,2.3,1.8,3.8,5.8
		c1.6,4,4.3,4.6,4.7,4.9H892.8z M912.5,354.8c0,0-0.2-2.3,2-6.6c1.5-2.6,1.6-5.7,0.3-8.4c-0.5-1.2-0.8-0.7,1.4-2.5
		c2.7-2.3-1-5.1,3.5-9c0,0,2.8-2.4,3.5-3.5c0,0-4.6,2.4-7.7,3.7c-3,1.3-14.6,6.9-12,10.7c2.5,3.8,2.3,4,1.8,5.7c0,0-6.9-3.7-4.4-9.6
		c0,0,1-2.3,3.9-5.1c2.7-2.4,1.2,0.6,6.5-2.5c0,0,4.2-2.5,6.5-5.9c0,0-2.9,1.7-3.8,2.1c0,0-6.2,1.2-8.8,3.7c-2.4,2.7-7.7,7.2-6,12.2
		c0,0-6.1-0.7-7.5-7.2c0,0-11.6,14.1,12.6,20.8c0,0,4.4,1.2,8.4,1.4H912.5z"/>
	<path id="path442" class="st3" d="M1018.3,307.6c9-1.3,61-9.2,65.8-9.7c5.1-0.5,7-1.2,8.8,3c2,4.6-7.2,4.7-7.2,4.7l-62,7
		c-3,0.3-3.7-0.8-3.7-0.8l-2.3-3.1C1017.7,308.7,1016.9,307.8,1018.3,307.6L1018.3,307.6z"/>
	<path id="path444" class="st4" d="M891.2,335.9c0,0-6.7,14.1,19.6,17.6c0,0,0.1-1.5,1.2-3.8c1.2-2.2,3.5-6.7,1.2-9.6
		c-2.1-2.9,1.8-1.4,2.3-5.2c0.7-3.7-0.3-3.2,1.5-5.7c0,0-8.2,3-11.4,6.7c-3.1,3.6,4.3,6.4,0,10.4c0,0-3.8-1.4-6-5.4
		C899.5,340.8,894.4,340.9,891.2,335.9L891.2,335.9z"/>
	<path id="path446" d="M917.1,353.2c0,0,6.5,5.7,14.2,5.4c7.7-0.3,11.1-2.3,13.1-5.4c0,0,1.5,2.3,1.5,3.9c0,0,6.7-5.5,18.3-0.7
		c11.6,4.9,8.1,3.5,10.6,3.8c0,0-5-0.8-16.2,4.3c-11.6,5.3-41.8,3.5-41.6-11.3H917.1z"/>
	<path id="path448" class="st4" d="M906.2,328.2c0,0,2.9,0.5,5.8-2.9C912,325.3,908.1,326.2,906.2,328.2z M884,354.5
		c0,0-5.4-4.3-2-5.1C882.1,349.4,884.6,348.9,884,354.5z"/>
	<path id="path450" d="M1002.5,381.3c0,0,3-5.2,11.3-5.2c8.3,0,9.2,3.9,19.9,4.6c0,0-12.7,3.5-21.5,0.3
		C1007.6,379.3,1003.5,380.7,1002.5,381.3z"/>
	<path id="path452" class="st4" d="M919.8,357c0,0,12.6,7.5,23.7-0.7c0,0,0.9,0.9,1.7,2.9c0,0,8.4-8.1,23.4,0.7c0,0-1.8-0.2-8.9,2.8
		c-9.2,4-32.3,6.7-40-5.8V357z"/>
	<path id="path454" d="M968.1,364.6c0,0,12,1.4,22.1,0.8c6.2-0.3,13.1-1.5,9.7,0.6c-3.5,2.1-1.7,2.3,12.6,1
		c14.3-1.4-0.1,2.7,9.7,3.9C1022.2,371,998.3,383.2,968.1,364.6L968.1,364.6z"/>
	<path id="path456" class="st4" d="M999.5,357c0,0,7-2.5,13.6,0.5c6.5,3.1,5.4,3.3,9.8,3.8c0,0-3,4.3-10.2,0.8
		C1005.7,358.6,1003.7,357.9,999.5,357z M1007.4,378.6c0,0,6.9-3.5,14.6,0.1c0.9,0.5,3,1.4,5,1.7c0,0-5.8,1.8-11.8,0
		C1012.6,379.6,1010.6,379.1,1007.4,378.6L1007.4,378.6z M973.2,366.2c0,0,15.5,1.4,23.8-0.2c0,0-9.7,4.6,14.7,2.5
		c0,0,5.3-0.6,4.6,0.2c-0.6,0.8-1,1.5,1.6,2.3C1017.9,371.1,999.9,379.2,973.2,366.2z"/>
	<path id="path458" d="M896.3,353.2c0,0,0.2,1.2,3.6,2.7c3.5,1.6,5.3,4.3,6,5.8c1.1,2.2,3,3.7,5.3,4.4c0,0-12.1,2.5-17.4-3.8
		c0,0-4.2-4.5,2.4-9"/>
	<path id="path460" class="st4" d="M991.3,381c0,0-4.7-0.3-11.3-2.5c-6.5-2.3-8.2-0.3-11.9-3.1c-3.7-2.8-11.1-1-12.5-0.8
		c-1.4,0.1-5.3,0-0.5-3.2c0,0-3.9,0-5.4-2.1c0,0-1.7,1.7-8.4,1.2c0,0,3,4.6-8.9,3.2c4.1,4.8,10.7,6.6,16.6,4.6
		c0,0.1-0.8,3.7,4.6,5.1c5.7,1.4,6.7,2.4,9.6,3.6c0,0,0.3-2.3-6.9-7.6c0,0,3.9-0.2,9.6,1.2C971.6,381.8,984.4,385.1,991.3,381
		L991.3,381z M994.3,386.6c0,0,1.2,2.8,4.9,2.1c3.6-0.6,9.6-1.6,15.4,1.3c0,0,1-4.9-10.6-5.2C1003.9,384.7,996.7,385.1,994.3,386.6z
		 M895.9,354.9c0,0-4.5,3.7-0.5,7.5c3.7,3.5,9.5,3.2,12.2,3.1c0,0-1.7-0.9-3.1-3.1c-1.5-2.2-1.5-3.7-4.6-5.1
		C896.9,356,896.5,355.6,895.9,354.9L895.9,354.9z M891.3,335.9c0,0-6.8,14.1,19.6,17.6c0,0,0-1.5,1.2-3.8c0.9-2.2,3.2-6.7,1.2-9.6
		c-2.3-2.9,1.7-1.4,2.3-5.2c0.6-3.7-0.5-3.2,1.4-5.7c0,0-8.2,3-11.4,6.7c-3.1,3.6,4.3,6.4,0,10.4c0,0-3.8-1.4-6-5.3
		c0,0-5.1,0-8.3-5.1L891.3,335.9z"/>
	<path id="path462" d="M960.5,368.4c0,0,5.5-0.9,19.6,4.4c14.1,5.2,20,3.9,22.1,3.8c0,0-8,4.2-20.2-1.3
		C971.1,370.5,970.4,372.4,960.5,368.4L960.5,368.4z"/>
	<path id="path464" class="st3" d="M1048.8,365.3c0,0,3.1-0.1,5.1,0.7c0,0,1.2-1,4.2-1.4C1058,364.6,1056,362.8,1048.8,365.3z
		 M1039.1,357.5c0,0,3.2-0.1,4.3-1.7c0,0-1.7-2-4.2-3c0,0,0.5,2.3,0,4.7H1039.1z M930.9,321.5c0,0-0.7-1.6,2.8-2.1l47.1-6.8
		c0,0,2.3,0,2.7,1.5c0.3,1.7-0.2,2.9-10.9,4.2c-10.5,1.2-38.6,4.7-38.6,4.7S931.2,323.5,930.9,321.5L930.9,321.5z"/>
	<path id="path466" class="st3" d="M973.7,319.6c0,0,0,6.2,6.4,7.2c6.1,0.9,8.2-0.3,9.8-3.6c0.5-0.9,2.3-7.4-0.3-7.9
		c-1.2-0.2-3,0-4.4,0.5c-2.1,0.9-4,2-3.5,3c1.6,2.3,1.8,2.9,1.4,3c-1.6,0.5-2.7-0.9-3-1.8c-0.3-1.2,0.8-1.8-3.2-1.2
		C975.1,318.9,973.7,318.9,973.7,319.6L973.7,319.6z"/>
	<path id="path468" class="st3" d="M1000,314.8c3.1,0.3,2.9,7.2-0.9,10.3c-4.2,3.3-8.1,2.1-8.1,2.1c-2.2-0.8-1.8-0.6-0.2-3
		c1.5-2.3,2.3-5.4,1.4-7.6c-0.2-0.7,0.5-1.3,1.5-1.5C993.7,315.1,996.7,314.5,1000,314.8L1000,314.8z"/>
	<path id="path470" class="st3" d="M1002.8,315.4c0,0,2.3,2.9-0.6,8.2c0,0-1.3,1.6,1.6,1.4c2.8-0.2,9.2-3.2,8.5-7.2
		c0,0-0.2-0.9-2-0.9c-1.6,0.1-0.2-0.8,0.5-1.2c0.7,0,2.9-0.9-2.8-4.6c0,0-0.9-0.8-2.1-0.5c-0.8,0.3-3.8,1.5-3.8,3.3
		C1002.2,314.7,1002.8,315.4,1002.8,315.4L1002.8,315.4z"/>
	<path id="path472" class="st3" d="M1008.9,310.6c0,0,4.6,3.2,4.5,4.2c0,0.9-0.5,2.3,0.8,2.1c1.2,0,6-1.2,4.6-4.3
		c-1.3-3.2-2.7-4.4-4.9-5.2c-2.3-0.8-2.9,0.2-4.9,1.7C1009.1,309.1,1007.7,310,1008.9,310.6L1008.9,310.6z M984.6,315.1
		c0,0,0.7-2.3-3.3-3.2c0,0,1.7-1.5,5.2-0.7c3.3,0.7,3,3,3,3.2C989.5,314.4,986.8,314.4,984.6,315.1L984.6,315.1z M993.4,314.5
		c0,0,4.6-0.8,6.7-0.6c0,0-2.3-5.1-8.5-3.5C991.6,310.4,993.9,313.1,993.4,314.5L993.4,314.5z M1001.4,313.3c0,0,0-1.7,3.9-3.2
		c0,0-1.8-1.8-4.6-1.6c-3,0.1-3.7,1.2-3.7,1.2s3.5,1.3,4.4,3.6V313.3z M1002.9,307.8c0,0,2.5,0.7,4,2c0,0,2.3-2.5,4.3-3
		c0,0-3.8-2.1-8.3,1.2V307.8z"/>
	<path id="path474" class="st4" d="M873.8,295.4c0,0,10.9-9.2,17-8.1c6,1.2,3,0.3,9.6-0.7c6.7-1,13.5-1.7,16.3-1.4
		c0,0-8.1-5.8-22.4-5.7c0,0-10,3.5-17.1,8.1c0,0-13.4-7.4-27.3-3C849.8,284.7,864.9,290.2,873.8,295.4L873.8,295.4z"/>
	<path id="path476" class="st3" d="M989,311.4l1.8-0.3c0,0,3,3.8,0.8,3.8c-1.7,0-1.2-0.5-1.4-1.6C990.1,312.5,989.7,311.8,989,311.4
		z M975.4,311.6c0,0-1.2,1.4,0.9,1.2c2.5-0.5,2.1,0,4.7-1.8c0,0,1.7-1.7,4.9-0.7c0,0,2.7,0.9,4.7-0.1c2.2-1.2,2.7-1,3.8-0.9
		c1.2,0.1,1.2,0.3,2.5-0.8c1.6-1.2,4.3-0.2,5.9-1.6c1.7-1.4,3.8-0.2,0-2.9c0,0-0.8-0.8-0.7-1.5c0,0,1.5,0.5,2.7,1.5
		c1.2,1,3,0.7,3.3,0.5c0,0,0.2-3.3,3.5-6.5c3.5-3.1,3.5-3.3,1.5-3.3c-2,0-5.3-0.8-6.5,0s-10.9,7.3-16.6,8.3
		C984.3,304,979.1,305.6,975.4,311.6L975.4,311.6z M822.7,276.4c0,0,17.6,4.5,21.5,6.4c0,0,0.9-2.9-7-5.2c0,0,19.4-0.6,39.9,8.8
		c0,0,9.9-8.5,41.8-5.9c0,0,0-2.8,0.2-5c0,0-22.3-0.7-42.9-13.2C876.2,262.3,857.7,271.4,822.7,276.4L822.7,276.4z M920.3,284.8
		c-1.2-17.9,5.7-19.6,5.7-19.6s3.2,0.1,6.7,0.7c0,0-5.4,6.5-3.9,19.3c0,0,0.6,2.1-4,2.1c-4.6,0-4.4-2.3-4.4-2.3V284.8z"/>
	<path id="path478" class="st4" d="M925,296.7c0,0-3.5-3.5-3.7-7.4c0,0-0.1-0.9,3.2-0.9c3.5,0.1,3.8-0.2,4.6,1.7
		c0.8,1.8,3,5.9,3.5,6.4L925,296.7z"/>
	<path id="path480" class="st3" d="M932.2,287.7c-0.3-2.3-0.4-4.5-0.3-6.8c0.2-9.9,1.8-9.1,2.5-7.9h3.5c0,0-2.5-11.2-5.5-4.6
		c-2.3,5-3.1,10.4-2.3,15.8c0.2,3,0.6,4.9,0.9,5.9L932.2,287.7z"/>
	<path id="path482" class="st4" d="M970.9,287.7c0,0,6.6,1.2-3.5,3.5c0,0,0.5,12.2,12.4,3.7c0,0,7.2-4.5,12-6.4c0,0,2.4-0.8,2.2-2.7
		c0,0,0.2-2.3-2.3-1.7c0,0-2.1,0-3.5-0.5c0,0-1.4-1.7-2.3-1.2c-0.9,0.7-3.2,0.3-1.4,2.5c1.7,2.1,2.3,1.5,3.1,0.9
		c0.8-0.6,4.6-2.1,1.2,1s-6.2-1.7-7.4-2.7L970.9,287.7z M937.7,289.2h-2.9c0,0-1.6,2.3-2.7-1.5l-1.2,2.4
		C931,290.1,934.5,303.3,937.7,289.2L937.7,289.2z"/>
	<path id="path484" class="st3" d="M933.6,273.9c0,0-1.5,8.7,0.5,13.9l31.8,0.7c0,0-0.3-6.1,0-14.6h-4.4c0,0-0.7,6.9,0,11.2h-0.8
		c0,0-0.6-5.9,0-11.2h-3.7c0,0-0.6,6.5-0.1,11.3h-0.7c0,0-0.6-5.7,0-11.3h-3.6c0,0-0.7,5.8,0,11.2h-0.9c0,0-0.7-5.8,0-11.2h-4
		c0,0-0.9,5.4,0,11.3h-0.8c0,0-0.9-5.5,0-11.3h-4c0,0-0.9,6.2,0,11.3h-0.9c0,0-0.6-6,0.2-11.3h-3.8c0,0-1,5.2-0.1,11.3h-0.9
		c0,0-0.6-4.6,0.2-11.3H933.6L933.6,273.9z M967.2,289.7c0,0-0.8-15.5,2.1-19.6c3-3.9,3.7-3.1,8.8,0c5.1,3.3,11.6,6.8,12.7,7.2
		c1,0.5,2.5,0.8,2.5,3.7c0,2.8,0.5,3.6-3.9,0c-0.6-0.5-2.7-2.3-4.2-2.8c-3.9-1.3,0.9,0.8,2.3,2.9c1.2,1.6,2.2,1.5-0.9,2.3
		C980.1,285.2,973.6,287.3,967.2,289.7L967.2,289.7z"/>
	<path id="path486" d="M978.3,278.4c0,0-2.3-2.8,0.7-3.5c2.9-0.7,3.1,4.6,3.7,7.7c0.5,3.2-3.7-3.2-4.3-4.2L978.3,278.4z
		 M974.1,292.1c0,0-3.5,1.3-1.2,2.3c2.2,1.2,8.4-4,6.4-3.7C977,291,974.1,292.1,974.1,292.1z M978.8,287.3c0,0,3-0.3,2.3,0.9
		c-0.5,1.4-1.6,0.6-2.1,0.2C978.5,288.3,976.4,287.5,978.8,287.3z"/>
	<path id="path488" class="st3" d="M994.8,283.2c0,0,0.8,6,5.9,7.5c0,0,3,0.7,2.3-1.8c0,0-0.5-2.3-0.8-3.1c-0.5-0.9-2.5-1.5-2.8-1.6
		c-0.2,0-0.5-0.7,0.9-0.2c1.4,0.5,1.6,0.6,1.5-0.5c0-1-0.9-0.6-2.2-1.2c-0.5-0.3,0-0.7,0.6-0.6c0.6,0.1,1.8,0.6,1.8-1.5
		c0,0,0.2-1.2-1.3-1.2c-1.7-0.1-1.6-0.9-1.2-1c0.6,0,2.3,1.2,2.9-0.9c0.5-2-2.4-0.8-2.1-1.8c0.5-1.2,2.5,0.6,2.7-0.7
		c0.2-1.2,1.8-1.7-1-2.2c-1.3-0.1,0-0.8,1.5-0.6c1.6,0.2,2.5-1.7,3.5-2.4c1-0.7,6.4-3.8-0.8-2.8c-7,1-9.2,4.5-9.6,5.2
		c-1.8,3.6-2.4,7.6-1.8,11.6L994.8,283.2z"/>
	<path id="path490" class="st3" d="M1011.4,287.8c0.9-0.1,1.7,0,2.1,0.7c1.2,2.4-1.5,1.6-3,3.3c-1.5,1.7-1.6,1.4-3.7,0.8
		c-2.1-0.7-2.9-3.8-2.9-3.8c-0.2-1,0.7-1.2,1.7-0.9c0,0,3.5,0.3,5.8,0V287.8z M1003.7,286.7c0,0,0.1,0.6,1.4,0.7
		c1.2,0.1,4.6,0.5,6.8-0.2c0,0,0.7-0.1,0.3-1.5c0,0,0-0.9-1.8-0.6c-2,0.3-4.6,0-5.5-0.1c-0.9-0.2-1.6,0-1.2,1.6L1003.7,286.7z
		 M1003.5,282.3c0,0-0.1,1.8,1.7,2.1c2,0.2,4.3,0.2,5.2,0c0.8,0,2.2-0.3,2.3-1.5c0-1.2,0.3-1.8-2-1.3c-2.3,0.6-5.1,0.1-5.4,0
		C1005.1,281.6,1003.5,281.1,1003.5,282.3z M1004.3,278.4c0,0-0.5,0.9-0.3,1.7c0,0.8,1.4,1.2,3.8,1.2s4.6-0.3,4.9-1.2
		c0.1-0.9,0.7-1.8-1.2-1.5c-2,0.2-4.4,0.3-5.4,0C1005.1,278.2,1004.4,278.1,1004.3,278.4z"/>
	<path id="path492" class="st4" d="M1094.5,288c0,0,0,1.6,1.3,3.3l-68.2-2c0,0,0.9-0.6,1.2-3.2L1094.5,288z"/>
	<path id="path494" class="st3" d="M1004.9,275.7c0,0-0.6,1.7,0.6,2.1c1.2,0.3,3.3,0.7,6.1,0.2c0,0,1.4,0,1.8-1.4
		c0.6-1.5,0.5-0.7-3.5-1.4c0,0-1.2-0.5,2.3-0.5c0,0,2.1,0,2.3-0.2c0.3-0.3,3-2.5-0.5-2.3c-3.5,0-1.7-0.7,0-0.7
		c1.8,0,2.3,0.5,2.9-0.1c0.6-0.6,0-0.2-0.9-1.2c-0.9-0.9-0.2-0.7,0.5-0.1c0.7,0.5,1.2,0.7,1.8,0c0.8-0.7-0.6-1.7,0-1.6
		c0.6,0.1,0.9,1.3,3.1,0.2c2.3-1.2,5.3-0.6,6.1,0c0.8,0.7,3.1,1.5,4.6,0c1.4-1.4-1.7-2.7-0.5-2.8c1.4-0.2,2.3,0.2,2.8-0.8
		c0.6-1.2-2.1-2.1,0.5-2.8c2.4-0.7,0.3-7.6-0.5-8.2c0,0-2.8,1.6-5.8,6.5c-3.1,5-4.9,7.9-9,6.4c-5.8-2.3-8.9,0.9-9.8,1.5
		c-1.4,0.8,3,1.2,0.3,1.3c-2.5,0-2.5,0.3-2.8,0.7c-0.2,0.3,0,0.7,0.5,0.8c0.5,0,1.4,0.9-0.1,0.9c-1.6,0-2.8-0.3-2.3,1.4
		c0,0,0,0.3,0.9,0.5c0.9,0,1.3,1.2-0.5,1.2C1004.9,275.2,1004.9,275.6,1004.9,275.7L1004.9,275.7z M1011.1,292.8
		c0,0-1.2,0.8,0.5,0.9c1.7,0,2.5,0.5,3.1-0.5c0.6-0.9,2.8-0.6,1.3-1.8C1014.4,290.2,1013.4,290.9,1011.1,292.8z"/>
	<path id="path496" class="st3" d="M1018.1,272.2c0,0,5.8-5.3,10.4-1.7c4.9,3.7,5.2,4.2,5.3,4.3c0,0,0.6,0.5-0.7,1.6s0,1.2,1.4,0.3
		c1.4-0.7,1.5,0,2.2,0.8c0.7,0.7,1.6,1.2-0.6,1.2h-6.9c0,0-3.1,0.3-1.5-1c1.5-1.3,1.3-2.8,0.5-2.9c-0.8-0.1,0,0.8-0.5,1.4
		c-0.6,0.6-1.6,1.2-2.8,1.2c-1.2,0-2.1,0.8-0.3,1.4c1.7,0.7-0.2,1.2-1.2,1.2s-5.3,0.2-0.8,0.8c4.5,0.6-0.5,0.5,2.9,2.3
		c3.7,2.1,1,6.5-0.3,6.9c0,0-1.5,0.8,0.3,0.6c2-0.2,3-0.5,1.6,0.6c-1.3,1-4,4.4-7.7,1.8c0,0-1.7-0.8,1.3-1c3.1-0.1-2.4-0.8-3.5-1.4
		c-0.8-0.6-4.4-4.2-2.2-3.8c2.3,0.5,1.5-0.8,0.1-1.3c-1.3-0.5-1.5-2.4,0-2.1c1.4,0.5,3.1,1.3,4.4,1.2c1.2,0,0.8-0.5-1.7-1.2
		c-2.5-0.9-3.6-1-3-3.1c0.6-2.2,3.5,0.8,2.8-0.8c-0.7-1.6-3.1-0.8-1.8-2.9c1.3-2.1,1.6-1.2,2.2-0.9c0.6,0.2,1.5,0-0.1-1.2
		C1016.6,273.6,1017.8,272.4,1018.1,272.2L1018.1,272.2z"/>
	<path id="path498" d="M1022.2,273.7c0,0,0-0.7,1.2-0.6c0.9,0,0.7-0.3,0.9-0.6c0.3,0,2.9,0.8,0.5,1.6c-0.8,0.3-2.3,0.1-2.4-0.5
		H1022.2z"/>
	<path id="path500" class="st3" d="M1027.7,279.7c0,0-2,1-0.2,3c1.5,1.7,1.5,2.3,1.4,3.5s65.6,1.8,65.6,1.8s-0.1-4.3,2.7-6.7
		L1027.7,279.7L1027.7,279.7z"/>
	<path id="path502" class="st4" d="M1095.5,286.9c0,0,0.3-3.6,2.3-4.7c1.2-0.7,2.5-0.3,3.1,2.5c0.9,4-2.5,7.6-4.2,6
		c-1.5-1.5-1.2-3.8-1.2-3.8L1095.5,286.9z"/>
	<path id="path504" class="st5" d="M1020.2,302.2c0,0,4.4-3.8,5.1-5.4c0,0,11.8,8.4,11.1,0.7c0,0,0-2.1,0.3-4c0,0,4.3,0.5,5-3
		l-11.1-0.3c0,0-1.2-0.2-2.9,1.6c-1.6,1.8-5.2,3.8-8.4,2.1c0,0-1.4-1.2-2.8-0.1c-1.5,0.9-1.5,1.2-0.3,2.3
		C1017.3,297.2,1019.8,300.4,1020.2,302.2L1020.2,302.2z M1045.6,279l-6.5-0.2c0,0-2.3-3.3-6.9-6.9c0,0-1.4-0.7,1.2-2.8
		c2.7-2.1,3.5-4.3,3.5-5.3c0.1-0.9,0-2.5,0.9-1.4c0.9,1.2,7.6,7.3,8.7,5.5c0.9-1.8,1.2-2.7,1.2-3.2c0.2-0.6,0.5-2.2,1.4-0.5
		c1,1.7,1.6,1.3,1.7,5.8c0,0,0.1,4.6,0.8,6.1c0,0-8.4-2.7-5.8,2.9L1045.6,279z M1017.6,265.2c0,0,5,2.9,7.4-0.9c2.3-3.7,4-4.3,2.2-8
		c-1.8-3.5,0-5.2,1.4-6.7c1.5-1.5,2.7-1.2,2.8-6.9c0.2-5.8,4.2-7.6,6-9.5c1.7-1.7,6.2-4.4-0.6-5.5c-6.7-1.2-20.2-4.6-23.7-9.8
		c-3.5-5.3-5.1-2.2-5.1-2s-1.2,4,2.3,11s6.4,11.4,9.8,13.6c3.3,2.3,6.4,3.5,4.6,8.1c-1.7,4.6-4.6,12.9-7.2,16.7L1017.6,265.2z"/>
	<path id="path506" class="st4" d="M1035.8,250.5c0,0,0.8,11.9,9.5,16.2c0,0,2-4.6,1.2-9.2c0,0,2.9,0.2,3.7,1.5c0,0,0-3.5-3.9-4.7
		c-4.2-1.2-2.2-9-0.7-9.8c1.4-0.9,0.9-2.5,0-3.9c-1-1.4-1.2-3.5,2.2-2.5c3.5,0.8,2.9-0.9,0.8-2.7c-2.1-1.6-2-3.7,0.9-3.7
		s7.7-2.9,4.9-3.7c-2.9-0.9-3.8-1.8,0-3c4-1.2,6-2.5,3-2.9c-3-0.3-5-1.4-2.1-1.8c2.9-0.6-0.5-3.5-3.8-3.6c-3.5-0.2-10.6,1.2-5-3.5
		c5.8-4.5-8.1-1.2-2.4-4.2c5.8-3-2-1.7-3-1.7c-1,0-1,0-0.6-1.5c0.3-1.5-0.8-2.3-2.5-1.3c-1.6,0.9-1.6,0.9-1.5-1.2c0-2.2-2-0.6-3.2,0
		c-1.3,0.5-4.4,2.9-5.8,1.6c-1.2-1.4-1.8-2.7-5.8-0.3s-3,0.3-2.9-0.7c0-1.2,1.5-5.2-3.8-0.8c-5.3,4.4-1-4.6-5.2-1.6
		c-4.2,3.1-4.6,3.7-5.3,2.3c-0.7-1.4-1.5-2.5-6.1,0.5c-4.6,2.9-1.2-1.8-0.6-2.9c0.7-1,2.7-7.7-1.4-2.4c0,0-2,3.6-6.4-2.9
		c0,0-4.6,6.5-5.9,3.6c-1.2-2.9-2.3-3.1-3.9-1.3c-1.5,1.8-0.3-0.1-1-1.7c-0.7-1.5-1-4.4-8.8,1.2c-7.7,5.8,2.7,1.6-3.2,4.2
		c-5.9,2.5-20.2,10.6-7.2,8.8c13.2-1.8-6.4,5.1-1.8,6.4c4.6,1.3,3.1,5.3,20.2,0.6c17-4.6,14.2-0.7,23-4.5c8.7-3.7-2.1,1.3,9.6,1.2
		c11.7-0.3,2,0,4.3,2.3c2.3,2.4,12.1,8.1,21.3,9.1c9.2,0.9,11.6-2.5,8.9,1.5c-2.7,3.9-3.6,5.4-5.2,6.9c-1.5,1.3-5.9,4.5-6,9.9
		c0,5.5-7.2,6.5-4.6,12.6L1035.8,250.5L1035.8,250.5z"/>
	<path id="path508" class="st4" d="M1050.9,263.8c0,0-2.1-1.5-2.1-4.2c0,0,1.5,0.2,2.1,1.2c0,0,5.3-5.9-1.2-8.1
		c-6.2-2.2-3.1-8-0.9-8c2.2,0,2.5-0.6,0.7-3c-1.8-2.3-1.6-2.5,2-3.1c3.5-0.6,3.1-1.4,1.5-2.3c-1.1-0.6-2.1-1.4-2.9-2.3
		c0,0,10.2-4.4,6.9-6.5c-3.3-2,0-1.5,2.9-3.6c3-2.1,3.5-2.5,3.8-3.3c0,0-2.9,0.3-5.1,0c0,0,2.5-1.4,0-3.5s-3.5-3.9-7.6-3
		c-4,1-2.7-0.3-1.2-2c1.6-1.7,0.9-2.7-2-3.1c0,0,0.3-1.7,2.5-3.8c0,0-5.5,0.3-7.4-0.6c0,0,2.3-1.5,2.3-3.3c0,0-3,1-6.8,0.7
		c0,0,2.3-2,2.3-3.7c0,0-6.7,1.5-9.7,3.8c0,0-0.7-0.1-1.2-0.8c-0.6-0.7-0.9-1.5-8.3,0.8c0,0,0.8-3.2,2.7-4.6
		c1.7-1.2,1.5-3.8-9.9,3.3c0,0-1.5-0.9-2.8-4.4c0,0-2.5,3.5-4.4,4.6c0,0-1.6,0.7-1.4-1.5c0.2-2.3-1.2-0.7-2.3,0
		c-1.2,0.6-2,2.2-1.4-2.3c0.6-4.5-1.6-5.4-1.6-5.4s-3.5,5.1-5.5,5.7c0,0-3.7-3.7-5.1-6.1c-1.3-2.3-1.3-3.2-2.7,0.9
		c-1.3,4.2-2.9,4.5-2.9,4.5s-2.3-2-2.5-3c0,0-0.3,1.2-1.2,1.6c0,0-2-2.3-1.8-5.7c0,0-12.2,6.8-13.9,10.9c0,0-11.6-0.7-16.3,0.2
		c0,0,1.2-3.7,4.2-5.7c0,0-3-0.3-3.1-3.5c0,0,2.4,0.3,3.9,0c1.5-0.3-2.1-4.7,1.7-4.9s6.2,1.8,4.6-3.2c-1.7-5.1-1-5.1-1-5.1
		s6.7,3.9,7.7,2.9c1.2-0.9-0.8-3,5.1-2.1c5.9,1,4.3-2.3,6.6-2.5c2.3-0.1,3.5,1.5,2.1-9.2c-1.4-10.7,7.2,5.3,1.3-10.9c0,0-1.4-5-5-7
		c0,0-0.8,3.5-4.7,0.5c-4-3.1-11.8-4.3-8.5-6.7c3.3-2.5,4.9-5.8,3.9-7.9c0,0-3.9,4-10.6,1.2c-5.3-2.3-6.5,1.8-11.9,0.7
		c0,0,0-1.4,4.6-5.1c4.6-3.6-2.7,1.2-5.4,1.8c-2.9,0.7-3.7,0.1,2.3-4.6c6-4.6,18-12.8,16.4-19.6c0,0,2.8,3.6,10.3,0.9
		c7.4-2.5,12.9-3.5,15.1-7.4c2.3-3.8,8.1-7.6,9.6-8.5c1.6-0.8,3.6-1.4,1.3,2.3c-2.3,3.6-6,9.8-16.3,14.1
		c-10.3,4.3-14.2,7.3-16.1,9.6c-1.8,2.2-11.2,7.2-5.1,6.4c6-0.9,16.5,0,11.6-1.4c-4.9-1.4-10.4,0.9-5.9-3.2c4.5-4,5.3-5.4,11.9-8.2
		c6.6-2.8,13.9-9.1,13.2-2.3c-0.8,6.6-13.1,13.7-16.1,15.9c-3,2.2-1.8,1.8-1.8,2.7c0,0.9-0.5,2.8-1.7,3.5c-1.2,0.9-0.8,1.8-0.5,3.7
		c0.3,2-0.3,2.7,0.6,3c0.9,0.2,1.8,0.3,2.1,1.7c0.3,1.4,1,1.5,2.8,1.4c1.7-0.2,2.9,0,3,1s1.8,2.4,2-0.7c0.2-3.2,1.4-3.8-1.8-2.3
		c-3.2,1.4-3.9,0.9-3.8-0.6c0-1.5-0.3-1.2-1.6-1.3c-1.4-0.1-1.8-2.1,0.6-3.3c2.3-1.2,2.3,0,5.3-2.4c3-2.5,3-3.1,3.5-4.4
		c0.5-1.2-4.3,3.5-6.6,4.5c-2.3,1-1.6-0.8-1.2-3.3c0.3-2.5,6-6,8.5-6c2.7,0,8.4,1.5,6,5.1c-2.5,3.5-9.7,7.7-6.7,8.1
		c3.1,0.2,3.6-0.9,5.4,0.6c1.7,1.6,0,4.9-0.7,6.6c-0.8,1.6-2,3-3.3,4.2c0,0-3.2-5.8-3.1-1.2c0,4.6-0.7,6.2,0,6.4
		c0.7,0.2,4.3,2.7,5.4,2.7c1.2,0-6.2,3.5-3.1,3.7s8.1-1.4,9.7-4.6c0,0-6.4-1.5-8.8-3.8c0,0,7.3-1.7,5.2-8.8c0,0,7.4,2,4.2,5.3
		c-3.1,3.2-5.1,2.8-2.3,3.7c2.8,0.9,4,1.7,4,1.7s2,0.9,0.8,2.4c-1.2,1.6-1.2,3.9-0.1,3.8c0.8,0,3.9-1.5,1.4-3
		c-2.7-1.6,2.9-1.3,0.6-2.7c-2.3-1.4-3-1.6-3.6-2.3c-0.7-0.6,29.7-18.5,14.3-11.8c0,0,3.2-6.9,7.7-6.9c4.4,0,4.7,3.5,2.3,6.2
		c-2.7,2.7-4.3,6.9-10.2,7.9c0,0,8.4,4.2-1.6,11c0,0-2.2,1-1.4,1.7c0.8,0.8,6.8-2.5,7.6-4.5c0.8-1.8,2.1-3.5,4.4-4.5
		c2.3-1.2,13.5-8.8,16.9-14.6c3.5-5.8,4.3-5.9,10.9-11.2c6.6-5.3,5.4-4.3,6.4-5.5c0.8-1.3,1.2-3.5,4.2-5.1c3-1.7,14.8-8.2,18.5-10.9
		c3.7-2.7,11.2-7.6,14.4-11.8c3.2-4,12-9.4,14.2-8.4c2.2,1-0.2,4.2-5.3,8.1c-5.2,3.8-17.9,14.1-20,15.7c-5.1,4.1-10.8,7.5-16.9,9.9
		c-4,0.6-3.6,2-6,4.6c-2.4,2.7-8.1,8.1-9.9,9.6c-1.8,1.6-6.4,4.6-6.6,6.8c-0.2,2.2,0.8,2.4-2.8,5.8c-3.6,3.5-14.1,11.1-18,12.2
		c0,0,6.8,2.3,2.8,6.9c-4,4.5-3.8,3.8-4,4.2c0,0,10.2-1.6,3,6.5c0,0-1.5,2.3,1.7-0.1c3.5-2.7,2.1-6.1,1.6-6.6c0,0,5.4-3.5,11.8-3.5
		c6.2-0.1,6-0.6,0.3-2.2c0,0,4-4.9,7.4-2.4c3.5,2.3,2.3,3.8-1.2,5.8c-3.7,1.8-8.9,2.5-12.8,4.7c0,0,7.4,1.5,11.4-1.6
		c3.9-3,4.2-1.5,4.6-0.9c0.6,0.6,1,1.5-0.7,4c-1.8,2.5-2,2.7-1.8,3.2c0,0.6-0.2,2.3-3.8,2.9c-3.5,0.6-5.2,2.1-3.9,3.8
		c1.2,1.7,1.2,5.9-1.8,5.5c-3-0.5-2.3-2.9-3.5-3.8c-1.2-0.9-2.8-2.3-8.1,0.3c-5.4,2.8-5.8-0.5-5.5-2.3c0,0-3.5,3.1-6.4,0.3
		c-2.9-2.9-0.3-3.9,1.4-5.3c1.6-1.4,8.4-4.4,4.4-3.8c-4.2,0.5-10.2,0.7-11.6-2.3c-1.5-3.2,3-2.9,3.7-2.5c0.7,0.2,3.5,2.5,3.7-0.5
		c0-3.1,4.6-3.5,3-4c-1.5-0.6-3.7,1.4-4.3,2.1c0,0-3.1-4.4-8.2-3c-5.1,1.5,1.6,0.9,2.9,1.2c1.4,0.2,0.6,2.8-3.9,6.9
		c-4.6,4-2.5,2.8,0.8,2.8c3.5,0,11.8,0,6.9,3.9c-4.9,4-6.8,6-9.2,5.3c-2.5-0.7,0.2-2.3,1.4-3.1c1.2-0.7,1.7-1.8-0.7-0.9
		c-2.3,0.8-3.1,1-5.1-2.3c-1.8-3.5-1.2-2.3-0.2-4.6c0.8-2.2,2.7-4.5,0.5-3.7c-2.3,0.8-2.1,0.9-1.8-1.6c0.1-2.5-2.5-3.1-2.5-3.1
		s1.2,2.5,0.1,4.2c-0.9,1.6-1,2.2,0.6,2.5c1.6,0.5,3.1,1.8,0.9,3.3c-2.2,1.4-1.8,1.2-0.6,2.1c1.4,0.9,3.5,2,1.3,4
		c-2.1,2.1-0.3,1.4,0.7,1.4c1.2,0,3.5,0.9,3.5,3c0,2-0.1,2.4,3.3,0.6c3.5-2,10.2-1.7,10.2,0.9c-0.1,2.7-0.9,3.5,2.8,1.2
		c3.6-2.3,5.2,2.1,7.7,0c2.4-2.2,4-4.3,6.9-0.6c2.9,3.6,2,4.6-1.5,7.3c-3.5,2.5,1.7,0.6,4.4-0.8c2.7-1.4,10.2-2.3,14.4-0.3
		c4.3,1.8,5.5,1.5,8.7,0.1c3.2-1.3,4.9-1.6,9.6,1.6c4.9,3.2,8.5,3.8,11.1,3.7c0,0-5.3,2.1-11.3,2.4c-6,0.5-9,1.5-10.2,2.4
		c0,0,3.6,2.3,4.3,4.9c0,0,3.9-0.5,5.8,0.2c0,0-0.9,2.9,1.5,4.4c2.4,1.5,4,2.1,2.3,4.2c-1.8,2.1,2.8,1.2,0.1,4
		c-2.5,3-3.2,4.4-3.3,6.8c0,2.3,0.6,2.7-1.7,2.9c-2.3,0.2,0.3,2.9-0.7,6c-1,3-7.5,2.7-7.3,11c0,0,1.8-4,5.8-7.6
		c3.8-3.5,3.9-3.8,3.8-6c0-2.1-0.2-1.6,1.8-3.2c2-1.6-0.9-3.1,1.2-5.4c2-2.3,0.2-1.8,2.7-4.2c2.3-2.3-2.2-2.5,0.3-5
		c2.3-2.3-6-5.2-3.5-6.7c2.3-1.5,6.5-3.7-7.5-3.5c0,0,3.3-5.5,15.1-4.4c0,0-3,2.3-3.3,4.4c0,0,1.4,0.7,2.3,0.9c0,0-0.6,1.6-2.8,3.5
		c0,0,6.2,3.5,7.3,5.7c0,0-3.8,1.2-4.9,2.8c0,0,1.7,2,2.3,4.4c0,0-4.3-0.5-4.9,2.7c-0.6,3.2-1.8,1-1.8,2.9c0,1.8,0.1,2.7-1.4,3
		c-1.5,0.2-0.2,1.8,0,2.9s0.8,3.5,0.6,4.2c0,0-2.2,0-3.2,0.3c0,0,0.7,4.6-1.8,5.2c-2.5,0.7,1.4,1.6-1.4,2.1
		c-2.7,0.5-2.3,0.7-5.7,6.7c0,0,2.9-1.6,5.8-3.6c3-2-0.2-1.4,4.6-6.1c4.9-4.9,4-5.2,3.6-7.6c-0.3-2.4-0.5-4.4,1.3-6.7
		c1.8-2.3,2.3-5,8.7-4.6c0,0-1.8-4.2-4.2-5.2c0,0,3-2.1,6.1-2.3c0,0-2.8-3.5-8.4-6.6c0,0,4.6-4,5.8-5.9c0,0-2.2,0.3-3.9,0
		c0,0,0.8-2,5.1-4.7c0,0,2.3,2.2,2.1,4.4c0,0,7.3-4,11.3-3.6c0,0,2.1,5.1-8,14.9c0,0,6.2,0.6,8.9,0.2c0,0-1.5,4.7-9,7.5
		c-7.5,2.9,1.6,6.2-6.1,5.7c-7.6-0.6-5.3,2-5.1,5.9c0.2,3.9,0.5,8,0.3,9c0,0-6.1-2-6,3.9c0.1,6-3.2,7.3-3.8,7.7c0,0-1.8-1.5-4.5-2.5
		C1060.9,252.2,1057.1,259.5,1050.9,263.8L1050.9,263.8z"/>
	<path id="path510" class="st5" d="M1042.2,189.3c0,0,2.1-0.3,5.7,1.8c3.5,2.3,6.9-2.3,3.1-3.5c-4-1.2,0-2.7,3.5,0.2
		c3.7,2.9,5.1,1.4,6.4,0.5c1.3-1,2.9-1.6,0.5-3.2c-2.4-1.7,1.6-0.9,3.5,0.3c1.8,1.2,1.2,2.3,0.9,2.7c-0.3,0.3-0.5,4.3,3.1,0.7
		c3.6-3.7,5.4-7.3,5.3-9c0,0,2,1.2,2.3,3.5c0.2,2.3,3-1.2,3.9-2.4c0.9-1.2,2.4-4.4,2.3-6.7c0,0,2.3,3.8,6,0c3.6-3.7,2.1-1.4,6.4-2.5
		c4.4-1.2,9.8-4.3,12.7-7.9c3-3.7,3.2-1.2,7-2.1c3.8-0.9,11.6-6.2,12.2-9.2c0.7-2.8,0.6-4.6-0.5-3.6c-1.2,0.9-0.7,0.1-2.3-0.8
		c-1.7-1.2-4.2,1.3-4.2,1.3s2.4,1.8,0.6,2.7c-1.8,0.8-3.5,3.5-7,2.3c-3.5-0.9-7.2,3.3-7.2,3.3s3.1,2.4-1,4c-4,1.6-3.5,2.1-5.9,0.3
		c0,0-4.4,5.5-6.9,6.7c0,0-1.2,0-1.8-1.2c0,0-2.9,3.2-4.3,3.8c0,0-1.8-1.6-3.5-2.3c0,0-3.5,4.4-6.4,5.7c0,0-0.8-1.6-2.7-2.7
		c0,0-0.9,5.5-6.9,8.8c0,0,0.3-1.4-2.7-3.5c0,0-7.5,6.5-10.4,7.2c-3,0.6-0.3-1.4,0-2.3c0.5-0.8,2.3-3.5-1.3-4.6
		c-3.6-1.2-3,0.8-3.8,1.2s-0.8-0.7-3.3-0.3c-2.3,0.3-2,1.4-3,1.8c-1.2,0.3-5.3-0.7-5.1,2.1c0.2,2.8,2.2,4.7-1.5,6.4
		C1032.2,190.3,1037.3,190,1042.2,189.3L1042.2,189.3z"/>
	<path id="path512" class="st4" d="M1057.3,181.4c0,0,0.9-3.7-2.2-5.3c0,0,19.9-3.1,4.9-10.7c0,0,17.9-3.6,13.6-9.2
		c-4.2-5.8-8.3-4.6-8.9-4.4c-0.6,0,3.8-3.3,5-2.9s15.5,5.9,11.8,1.2c-3.6-4.6-3.3-4.4-3.9-5.8c0,0,4.7,0,11.9,6.9
		c0,0,1.5-1.5,1.4-4.4c0,0,5.1,1.5,6.7,3c0,0,0.8-1.7,0.5-2.8c0,0,4.5,2.3,6,4.9c0,0,2-1.7,2.3-3.8c0,0,4.4,1.8,5.5,3.2
		c0,0,1.5-2,0.9-4.6c0,0,7.3,2.1,8.3-2.3c0,0,7.3,1.5,2.5,4.4c-6.1,3.7-0.6-0.9-6.9,3.5c-4.9,3.5-7.6,7.4-9.9,6.6
		c-1.7-0.7-3.8,4.4-6.1,2c-2.3-2.5-2.3-1.4-4,1.2c-1.6,2.5-4.3,5.2-4.3,5.2s-1.2-0.7-2.3-1.7c0,0-1.3,2.3-3.1,4.2c0,0-1.5-2-3.8-3.1
		c0,0-3.6,4.2-5.8,5.7c0,0-2.2-2.1-4.4-2.8c0,0-0.3,5.7-4.7,8.5c0,0-0.9-1.8-3.8-3c0,0-2.2,3.5-6.9,6.5L1057.3,181.4z"/>
	<path id="path514" class="st4" d="M1046.9,172.6c0,0-2.4,1.8-0.9,3.8c1.6,2.1,1.7-0.3,3.7-0.5c2-0.2,26.3-4.4,4.3-11
		c0,0,0.9-0.9,4.6-1.2c3.9-0.5,17.8-4.2,11.3-9.1c-6.5-4.9-11.9,1.7-6.5-4.2c4.4-4.7,0.9-7,0.9-7s-12.8,8.5-15.7,10.2
		c-2.8,1.5-6.9,4.6-2.1,6.1c4.9,1.5,8.1-5.2,8.5-3.7c0.5,1.5-9.7,7.2-8.2,9.7c1.4,2.7,1.2,4.9,3.6,4.3c2.5-0.5,9.2,1.3,3.8,1.2
		C1048.8,171,1046.9,172.6,1046.9,172.6L1046.9,172.6z"/>
	<path id="path516" d="M1055.7,160.4c0,0-2.3,1.6,0.7,0.8c3-0.8,8.9-2.1,7.9-3.6C1063.1,156,1059.1,157.9,1055.7,160.4L1055.7,160.4
		z"/>
	<path id="path518" class="st5" d="M1094.8,135c0,0,11.3-0.3,15.9,2.9c4.6,3.1,6.9,5.2,8.3,5.7c0,0-0.2,4.3-7.5,1.2
		c0,0,0.5,2.1-0.3,4.2c0,0-2.7-1.8-5.8-2.5c0,0-0.6,1.6-1.5,2.5c0,0-3.2-3.2-6.9-4.3c0,0-0.7,1.6-1.3,2.3c0,0-3.9-2.3-6.9-2.3
		c0,0,0.6,2.4,0,3.5c0,0-8.1-6.6-15.5-5.8c0,0,3.5,5.2,5.8,7.7c0,0-14.8-1.2-12.2-9.1c2.3-8-0.2-6,9.5-5.9H1094.8L1094.8,135z"/>
	<path id="path520" class="st4" d="M1025.4,157c0,0-1.7,1.4,0,2.5c1.6,1.2,7.5-3,8.3-3.6c0.8-0.7,2.9-0.6,0,1.6
		c-2.9,2.2-5.8,4.6-7.7,6.9c0,0,9.8-2.7,16.2-8.2c6.5-5.5-0.2-2,10.6-7.2c10.9-5.3,16.6-13.7,10.7-12.8c-5.8,0.9-11.1,7.6-15.7,10.2
		c-4.5,2.5-7,2.9-6.4,1.4c0.7-1.5,4-0.9,10.4-5.9c6.2-5.1,4.9-4.6,4.9-6.5c0-1.7-2.3-6.1,7-11.1c9.5-5,38.7-21.9,41.2-28
		c0,0-8.5,0.9-19.9,9.2c-6.2,5.2-13,9.6-20.2,13.3c-3.1,1.2-2.8,0.3-4.7,2.8c-2.1,2.4-13.2,13.2-15.2,14.8c-2,1.5-2.7,2.5-2.8,5.8
		c0,1.5-12.7,11.1-16.6,14.7H1025.4z"/>
	<path id="path522" class="st4" d="M1064.1,134.8c0,0-2.3,0.9-4.4,0c-2.1-1.2-1.4-5.5,3.7-8.3c6-3.3,12.3-5.7,18.9-7.3
		c0,0-0.7,5.8-15.2,10.7C1067.1,129.9,1068,132.9,1064.1,134.8L1064.1,134.8z"/>
	<path id="path524" class="st6" d="M1069.2,130.9c0,0,0.5,1.4,0,2.7c0,0,27,2.7,41-13.9c0,0-19.2,1.8-26.8,6.5c0,0,4.9-6,19.2-11
		c14.3-5,20.2-11.2,21.5-14.6c0,0-18.3,6.4-26.8,6.4c0,0-1.7,0-3.5,0.8c-1.6,1-13.2,9.4-16.2,10.9c0,0,6.5-0.6,8.8-2.7
		C1086.4,116,1081.8,128.2,1069.2,130.9L1069.2,130.9z"/>
	<path id="path526" class="st4" d="M1017.4,146.3c0,0-3.5,2.5-2.1,3.7c1.5,1.3,3.9,1.5,9.2-2.9c5.3-4.5,18.1-15.5,10-15.9
		c0,0-10.4-0.6-10,5.8C1025,143.3,1017.9,146,1017.4,146.3z M993.4,142.6c0,0,6.9,4,4.3,7.3c0,0,21-17.8,15-21.7
		c-5.8-3.8-10.4,3.5-9,4.2c1.4,0.8,4.5-0.6,3.5,0.8C1006,134.5,994.8,142,993.4,142.6z M988,136.8c0,0,4.6,1.4,4.9,3.5
		c0.1,1.8,13.9-9.7,10.3-14.7c-1.7-2.2-9.2-3.1-9.7,1.3c-0.3,4.4,6.9-0.5,4.4,2.7C994.6,133.7,989,136.1,988,136.8L988,136.8z
		 M1037.2,127.1c0,0-2.9,2.1-0.2,3.5c2.7,1.2,4.3-0.8,5.7-2c1.3-1.2,7.9-6,9.2-9c1.6-3.1,3.8-4,6.2-5.5c2.3-1.6,19.1-9.9,29.3-19.2
		s6-6.8,16.6-12.7c10.6-5.9,17.7-11.3,19.9-17.8c0,0-5,1.6-9.2,4.5c-4.4,2.8-14.2,8.9-16.2,9.8c-2,0.8-4.6,0.9-6.1,2.4
		c-1.5,1.6-1.4,3.5-6.5,7.6c-5.2,4.3-31.7,23-34.9,25.6C1047.8,117.1,1037.2,127.1,1037.2,127.1L1037.2,127.1z"/>
	<path id="path528" class="st6" d="M1015.9,133.4c0,0,2.9-1.6,8.3-1.2c5.4,0.2,26.9-20.6,33.2-24.7c6.2-4.3,25.8-18.3,28.3-20.8
		c2.7-2.7,3.1-5.4,5.4-6.9s4.4-1.3,9.6-4.3c5.3-3,30.6-18.1,29.1-26.9c0,0-37.7,22.5-46.3,29.9c-12,9.4-24.4,18.3-37.2,26.7
		c-4.3,2.8-7.6,7.4-14.9,13.3C1024.3,124.2,1017.1,129.2,1015.9,133.4z"/>
	<path id="path530" class="st6" d="M1008,125.3c0,0,6.9-0.7,8,2.8c0,0,14.9-10.3,18.3-14.4c3.5-4.3-1.2-1.8,7.4-7.4
		c13.9-9.2,27.5-18.9,40.8-28.9c4-3.5,11.8-8.2,17.9-12.4s30-15.9,27.4-25.5l-21.5,14.3c-4,2.7-5.8,1.2-9.7,4.3
		c-4,3.2-12.9,9.5-14.4,11.6c-1.6,1.8-15.1,12.2-21.7,16.6c-6.6,4.4-21.3,12.9-28.4,19.2C1024.7,111.5,1011.1,123,1008,125.3
		L1008,125.3z"/>
	<path id="path532" class="st6" d="M986.4,123.3c0,0,3.5,0,4.6,1.4c0,0,6.5-5.8,13.4,0c0,0,25.4-17.3,28-21.6s6.7-4.4,16.5-11.6
		c9.9-7.3,16.2-10.4,22.8-15.4c6.6-5.2,12.1-11,16.9-14c4.6-3.1,16.6-11,14.7-17.7c0,0-9.7,5.4-15.9,12.4c-6.4,6.9-5.8,1-12.2,6.8
		c-7.5,6.9-15.7,12.8-24.6,17.7c-8.2,4-3.2,3.6-9.2,7.4c-5.9,3.8-5.4,3.2-7.6,3.8c-2.3,0.5-5.5,2.1-7.7,4.6c-2.3,2.5-8.1,6-14.4,9.7
		c-8.8,4.7-17.2,10.2-25.1,16.4L986.4,123.3z"/>
	<path id="path534" class="st6" d="M994,110.2c0,0-1.4-2.9,1-5c2.4-2,6.9-7.3,7.6-10.6c0.7-3.5,0.1-2.8,7.2-5.8
		c20.4-8.6,39.8-19.5,57.6-32.6c2.8-2.2,9.7-6.9,12.5-9.2c0,0,1.3,3.7-1.7,6.4c-10.4,8.1-21.2,15.6-32.5,22.4
		c-3.3,1.7-11.6,5.9-14.4,8.3c-2.9,2.4-2.4,3.1-15.4,9.5c-12.9,6.2-13.5,6.9-13.2,7.4c0.5,0.6,6.2-2,9-3.6c2.8-1.6,13.3-6.5,16.5-9
		c3.1-2.5,8.4-6.5,10.7-7.7c2.3-1.2,21.4-12.7,26.9-16.7c5.4-4,6.9-5.3,8.1-4.6s3.1,0.7,0.7,3c-2.4,2.3-10.2,9.2-13.2,11.1
		c-3,2-12.2,7.5-14.8,8.8c-2.5,1.4-3.6,3.8-5.1,4.9c-1.4,1.2-5.7,4-10.7,5.2s-6,5.1-9.4,7.3c-3.5,2.1-27.3,15-28,15.6
		C993.7,115,995,113.5,994,110.2L994,110.2z"/>
	<path id="path536" class="st6" d="M1076.6,56.4c0,0-1.3,1.2-0.6,1.8c0.9,0.9,4.3,3.2,8.4-0.9c5.9-5.5,12.3-10.6,18.9-15.1
		c3.5-2.2,5.3-4.2,5.2-7C1108.6,35.2,1091.4,44.3,1076.6,56.4z M1100.2,54.9c0,0,2.7-4.4,9.1-8.5s16.2-10.2,17.3-11.6
		c0,0,2.3,2.5-2.7,5.8c-5.5,3.4-10.9,7-16.2,10.6C1106.6,52.2,1104.7,53.5,1100.2,54.9L1100.2,54.9z"/>
	<path id="path538" class="st5" d="M969.1,102.6c0,0-7.2,3.8-4.6,6.2c2.5,2.3,6.4,1.6,8.1,0.9c1.5-0.6,4.5-1.4,5-1.5
		c0.5-0.1,6.7-2,8.3-4.9c1.5-2.9,5.8-6.2,9.1-8.7c3.3-2.3,4.6-4.9,4-6.6C999,88.2,970.8,101.6,969.1,102.6z M926.3,135.8
		c0,0,5.1-3,12-1.2c0,0-0.3-1.6-1.4-2.5c0,0,8.4-2.2,10.3-5.9c1.8-3.8,2.3-3,3.8-4c1.7-1.2,13.1-10.3,11.8-12.2
		c-1.4-2-1.6-4.6-2.5-5.5c0,0-2.3,3.2-13.5,8.5c-11,5.4-23.3,9.5-32.3,21.5c-8.9,12.1-8,19.1,3,22.2c0,0,7.6-4.9,26.5-3.2
		c18.7,1.7,25.1,8.8,26.3,10c1.2,1.3,5,5.9,1.3,13.7c0,0,3.8,1.6,4-2c0.3-3.6,0.6-2.8,1.4-2.3c0.9,0.6,2,0.7,1.5-2.1
		c-0.3-2.8-1.6-8.9-3.5-11c-1.6-2.2,0.3-1.2,1.4-0.8c1.2,0.5,5.1,3.7,2.8-2.3c-2.3-5.8-3-2.9-3.1-2.7c0,0.3-0.5,1.8-5.7-2.1
		c-4-3-8.5-5.3-13.3-6.7c-3.5-0.9-1-0.9,1-1.6c2.1-0.8,4.7-1.2,5.8-3.5c0,0-2.1,0.5-5.8-0.9c-5.9-1.7-12.4-0.6-17.3,3.1
		c0,0,1.8-6.9-3.7-6.6c-5.5,0.3-9.4,0.2-15.2,4.9c0,0-0.3-7,5.2-10.7c5.5-3.6,4.9-1.4,7.9-2.3c3.1-0.9,3.5-4,2.1-5.1
		c0,0,7.3,1.3,19.4-8.8c0,0-6.6,8.5-14.4,10.3c0,0-1.3,4.6-8.5,5.5c-7.2,1-6.9,5.2-6.9,6.2L926.3,135.8z"/>
	<path id="path540" class="st4" d="M905.6,177.5c0,0,3.5-21.3,23.4-22.8c17.3-1.4,22.9,0.8,26.3,2c3.5,1.2,12,3.6,8.7,6.4
		c-3.2,2.7-5.2,2.2-5.2,2.2s3.8-4.3,0.3-5s-3.7,1.4-4.2,3.1c-0.6,1.8-0.7,3.9-2.4,5.3c0,0-1.7-2-4.3-0.2s-0.3,1.8,0.7,1.5
		c0.9-0.2,2.3-0.8,2,0.8c-0.2,1.5-1.6,4.2-5.8,6.4c-4,2.1-3.9,2-8.8,2.8c-5,0.8-9.5,2.8-15.7,8.1c-6.4,5.4-13.2,3.6-14.6-2.3
		c-1.2-5.2-0.6-8.1-0.6-8.1L905.6,177.5z"/>
	<path id="path542" d="M928.4,176.8c0,0,1.8-4.2-1.5-6.1c0,0-10.4,1.8-13.6-1.3c0,0,11.4-0.7,18.5-3.5c6.9-2.7,5-4.6,2.5-5.1
		s-6.9,0.7-7.4,2.9c0,0-1.4-2.3,0.3-3.9c1.8-1.6,4.6-1.8,7-1.2c2.5,0.7,4.7,1.8,12.9-2.4c0,0,4.7,1.2,5,4.3c0,3.2-0.3,4.5-0.8,5
		c-0.3,0.6-0.9,1.5-2,1.4c-0.9-0.1-2.3-0.3-3.5,1.8c-1.2,2.3-2,4.2-4,5.7c0,0,2.3-6.9-3.7-8.5c0,0-5,2.9-8.8,3.1
		c0,0,4.9,4.5-1.2,7.9H928.4z"/>
	<path id="path544" class="st4" d="M939.4,164.1c0,0-2.3-2.4,0.7-2.8c3-0.2,6.9,2,6.2,3.9C945.5,167.1,941.9,167,939.4,164.1z"/>
	<path id="path546" class="st2" d="M1110.3,130.6c0,0-5.5,1.5-0.3,5c5.1,3.5,7.6,6.4,11.3,7.3c3.8,1,7.6,2.3,7.6,6.1
		c0,3.7-0.8,5.2-2.9,7.7c-2.1,2.7,1.2,3.7,3.8,2.3c2.8-1.5,5-2.3,6.8-3.3c1.7-1,4.6-0.9,2.1,0.5c-2.8,1.4-5.5,2.3-2.1,2.3
		c3.5,0.1,24.5,0.6,28.9-0.9c4.4-1.4,10.2-1.8,10.6-7.5c0,0,0.2-2.5,1.8-3.7c1.6-1,2.8-3.5,0.3-1.8c-2.3,1.7-4.2,2.5-4.6,2.1
		c-0.5-0.6-0.7-0.9,1.2-1.7c1.7-0.8,2.7,0,4.3-2.3c1.6-2.4,1.5-2.1,0.6-3c-0.8-0.9-2.7-1.5-1.7-2.7c0.9-1.2,1.7-4.6-2.1-2.7
		c-3.8,2.1-11.4,7.3-15,8.1c-3.5,0.8-6.1,1.8-10.9,2.8c-4.6,1-7.6,2.1-12.7,4.9c-5.1,2.8-4.6-1.6-3.8-2.2c0,0,2,3.5,7-1
		c5.1-4.4,3.5-0.2,16.1-4.4c12.5-4,9.5-4.7,14.3-7.3c5-2.5,9.6-2.7,6.1-6.1c-3.5-3.5-3.8-3.7-8.2,0c-7,5.3-15.3,8.6-24,9.8
		c0,0,28.3-12.1,25.4-13.9c-2.5-1.6-5.1-2.9-8-3.8c-2-0.5-2.5-0.9-7,1.2c-4.6,2-5.3,2.4-6.6,2.5c-1.4,0.1-5.2,0.9-10.6,3.7
		c-5.3,2.8-8.2,3.9-11.9,6.1c0,0,2.5-5.1,13.7-8.4c11.1-3.3,16.7-6.4,15.6-6.9s-4-1.2-6.1-0.7c-2.1,0.3-1.5-0.2-8.3,2.5
		c-6.8,2.7-3.9,2.1-9.4,3.2c-5.5,1.2-7.7,2.3-10.4,3.5c0,0,1.2-1.4,4.7-2.8c2-0.7-2.1-1.4,3.2-1.6h1.5c4.6-1,9-2.6,13.1-4.9
		c-1.2-0.2-7.7-0.9-14.4,2.3c-6.7,3-3.7,2-6,2.3c-2.3,0.6-7.4,3.7-9,5.1c-1.7,1.4-4,2.3-4,2.3V130.6z"/>
	<path id="path548" class="st4" d="M944.6,161.1c0,0,2.7,0.8,3.3,2.7c0.7,1.8,2.3-0.8,2.3-1.6c-0.1-0.8-1.7-4.6-4.6-2.8
		C942.7,161,944.2,161,944.6,161.1L944.6,161.1z"/>
	<path id="path550" class="st5" d="M937.3,197.6c0,0,5.5-2.7,10.4-2.3c0,0-2-6.6,1.4-5.5c3.2,1.2,2.3,0.7,3,0.7c0,0,0.2-4.4-0.7-6.1
		c0,0,3.5,0.8,6.8,0.8c0,0-3.2-6.2,0.3-10.6c0,0,2,4.2,6.4,5.2v-3.6c0,0,2.5-0.3,4.6,0.7c2.1,1.2,3.7-11.4-2.3-14.1
		c0,0-1.5,2.3-7.2,3.5c-5.7,1.2-5.5,2.3-7.9,6.6c-2.3,4.3-4.4,4.3-9.2,7.4c-4.6,3-7.5,9.2-7.7,9.8C935.2,190,937.6,193,937.3,197.6z
		"/>
	<path id="path552" class="st7" d="M1126.1,124.9c2-0.3-2.2-1.4,3.1-1.6h1.5c4.6-1,9-2.6,13.1-4.9c-1.2-0.2-7.7-0.9-14.4,2.2
		c-6.7,3.1-3.7,2.1-6,2.5c-2.3,0.5-7.4,3.6-9,5c-1.7,1.4-4,2.3-4,2.3s-5.5,1.6-0.3,5.1c5.1,3.5,7.6,6.4,11.3,7.3
		c3.8,1,7.6,2.3,7.6,6.1c-0.1,3.7-0.8,5.2-2.9,7.7c-2.1,2.7,1.2,3.7,3.8,2.3c2.8-1.5,5-2.3,6.8-3.3c1.7-1,4.6-0.9,2,0.5
		c-2.7,1.4-5.4,2.3-2,2.3c3.5,0.1,24.5,0.6,28.9-0.9c4.4-1.4,10.2-1.8,10.6-7.5c0,0,0.2-2.5,1.8-3.7c1.6-1,2.8-3.5,0.3-1.8
		c-2.3,1.7-4.3,2.5-4.6,2.1c-0.5-0.6-0.7-0.9,1.2-1.7c1.7-0.8,2.7,0,4.3-2.3c1.6-2.4,1.5-2.1,0.6-3c-0.5-0.5-1.2-0.8-1.5-1.3
		c0,0-1.3-1.2-2.8-0.2c-1.5,1-8,3.7-10.5,4c-2.5,0.2-5.3,1.4-9.9,3.7c-4.6,2.3-12.4,6.9-13.6,2.5c0,0-3.3,1.2-4,1.6
		c-5.2,2.7-4.7-1.2-3.8-2.2c0,0-2.8,3.1-2.7,0.3s1.8-2.3,5-3.2c3-0.9,7.7-2.9,5.8-4.5c-2-1.6-4,1.6-6.2,2.7c-2.2,1-6.6,1.8-7.3-1.3
		c-0.7-3.2-0.7-5.4-6.6-5.8c-5.9-0.3-5.8-4-4.2-5.7c1.7-1.6,3.1-4.3,8.7-5.3L1126.1,124.9z"/>
	<path id="path554" d="M1145,153.7c0,0,9.2-4.2,17.7-6.2c8.5-2,1.8,0.3,0.5,0.7c-1.5,0.5-14.7,4.9-17.8,6.4
		c-3.1,1.4-2.5,0.2-0.3-0.7V153.7z M1147.1,155.7c0,0,10.4-3.5,12.4-2.1c2,1.5,0.3,0.8-2,1.2c-2.3,0.2-8.5,1.3-10.2,1.3
		C1145.6,156,1147.1,155.7,1147.1,155.7z M1163.8,152c0,0,2-0.3,2.2,0.5c0.1,0.7-0.9,0.8-2.1,0.7
		C1162.9,152.9,1162,152.3,1163.8,152L1163.8,152z"/>
	<path id="path556" class="st2" d="M889.1,242.6c0,0-0.3-9.2,4.3-13.9c4.6-4.6,26.9-27.8,30.4-34.3c0,0,2.9,2,3,5.7
		c0,0,3.8-6.5,6.7-8.9c0,0,2.7,2.7,2.3,8.1c0,0,5.3-2.9,13.6-2.9c0,0-3.1,3.6-3.2,5.8c0,0,11.6-1.4,17.7-0.3c0,0-15.9,8.9-11.6,9.7
		c4.6,0.8,9.2,0,9.2,0s-5.1,5.1-13.2,6.1c0,0,10.3-0.1,12.4,2.2c0,0-10,1.5-18,7.6c0,0-0.8-0.3-0.8-2.7c0,0-0.3,2.1-2.7,4
		c-2.3,1.8-7.7,6-9.8,8.1c-2.1,2-5.8,6.1-9.9,5.9c0,0,0.9-3.1-2.1-4.2c-3.2-1.1-6.7-0.2-9,2.3c0,0-10.7,0.2-14.2,0.7
		c0,0,2.4-3.9,4.6-3.8c2.3,0,11.3,1.4,12.1-4.9c0.8-6.1-5.8-4.5-3.3-8.1c2.5-3.7,2-3.5,2.1-3.9c0,0-2.1,1.2-3.2,4.4
		c-1.2,3.2-2.1,5.8-6.4,9c-3,1.9-5.5,4.5-7.3,7.5C892.8,241.9,890.8,242.2,889.1,242.6z"/>
	<path id="path558" class="st2" d="M899.5,237.1c0,0,0.3-1.2,3.5-1.7c3.2-0.6,3.5-2.1,3-2.8c-0.5-0.6-2.3-0.6,0.7-4.2
		c0,0,1.2,0.3,1.8,1.2C909.3,230.5,912.8,237.9,899.5,237.1L899.5,237.1z"/>
	<path id="path560" class="st7" d="M892,230.6c0.1,6.1,8.1,3.8,8.1,3.8c-2.1,1.5-4.1,3.3-5.8,5.3c0.6-3-4.5-3.7-4.5-3.7
		C890.3,234.2,891,232.2,892,230.6z M921.2,198.2c1.2-1.5,2.1-2.8,2.5-3.7c0,0,2.9,2,3,5.7c0,0,3.8-6.5,6.7-8.9c0,0,2.7,2.7,2.3,8.1
		c0,0,5.3-2.9,13.6-2.9c0,0-3.1,3.6-3.2,5.8c0,0,11.6-1.4,17.7-0.3c0,0-15.9,8.9-11.6,9.7c4.6,0.8,9.2,0,9.2,0s-5.1,5.1-13.2,6.1
		c0,0,10.3-0.1,12.4,2.2c0,0-3,0.5-6.9,1.8c0,0-2.9-2.8-11.6-2.3c0,0,6.7-3.8,12-5.1c0,0-2.3-3-6-0.2c0,0-7.3-5-1.2-9.2
		c0,0-4.3-0.8-7,1.2c0,0,0-3.5,3.1-5c0,0-8.1-1.4-10,4.6c0,0-1.6-2.4-0.8-5.2c0,0-5,2.8-7.2,6C925.2,206.5,924.3,200.4,921.2,198.2
		 M905.5,236.8c-1.4,0.3-3.5,0.5-6,0.3c0,0,0.2-0.8,2-1.4C901.5,235.7,901.9,236.8,905.5,236.8"/>
	<path id="path562" d="M920.3,213.8c0,0,3.7,2.9,5,4.6c0,0,3.5-2.3,4.6-4.3c0,0,2.7,1.7,3.5,4.3c0,0,2-1.2,2.3-3
		c0,0,4.6,0.9,6.2,2.4c0,0,0.7-4.4,0-7.3c0,0,3.2,0.3,5.2,1.2c0,0-1.8-3,7.5-6.8c0,0-7,1.6-9.8,4.6c0,0-3,0.2-4.3-0.7v6.7
		c0,0-1.8-0.8-5.3-1.6c0,0-0.9,1.5-1.5,1.8c0,0-2.3-1.8-3.2-4c0,0-3.5,3.1-4.6,4.4C925.8,216.1,922.5,213.8,920.3,213.8L920.3,213.8
		z"/>
	<path id="path564" class="st3" d="M899.1,259.9c0,0,1.5,0.7,5-2.1c3.5-2.8,13.1-8.9,13.9-13.9c1-5-3-5.2-6.1-3.8
		c-3.2,1.5-1.8,4.2-1.7,5.1s0.2,4.4-5,9.1L899.1,259.9z"/>
	<path id="path566" class="st3" d="M898,261.4c0,0-7.7-3.2-0.8-6.7c6.9-3.5,10-4.4,10.9-7.4c0.8-2.9,0.3-2.3-2.3-1.2
		c-2.5,1.2-12.4,5.8-13.9,1.5c0,0,4,1.6,9.1-0.8c5.1-2.5,9.2-3.2,6-4.3c-3.2-1-14.9,0.2-16.7,0.8c-2,0.6-1.5,0.5-1.8,2.3
		c-0.3,2-2.4,6-3.2,7.2c-0.8,1.2-2.8,6.1,0.8,8.3C889.5,263.3,895.2,263.1,898,261.4L898,261.4z"/>
	<path id="path568" d="M895,244.5c0,0-1.8,0.2-1.5,0.9c0.3,0.7,0.8,0.6,1.5,0.6c0.6,0,1.6-0.3,1.7-0.7
		C896.9,244.8,895.6,244.3,895,244.5L895,244.5z"/>
	<path id="path570" class="st2" d="M897.4,259.6c0,0-3.6-1.7,0.6-3.9c4.2-2.3,8.5-4.5,9.2-5.4c0,0-2.1,2.8-9.7,9.4H897.4z"/>
</g>
</svg>
