<?xml version="1.0" encoding="utf-8"?>
<!-- Generator: Adobe Illustrator 24.0.1, SVG Export Plug-In . SVG Version: 6.00 Build 0)  -->
<svg version="1.1" id="flag-icons-au" xmlns="http://www.w3.org/2000/svg" xmlns:xlink="http://www.w3.org/1999/xlink" x="0px"
	 y="0px" viewBox="0 0 800 480" style="enable-background:new 0 0 800 480;" xml:space="preserve">
<style type="text/css">
	.st0{fill:#000066;}
	.st1{fill-rule:evenodd;clip-rule:evenodd;fill:#FFFFFF;}
	.st2{fill:#FFFFFF;}
	.st3{fill:#C8102E;}
</style>
<path id="path617" class="st0" d="M0,0h800v480H0V0z"/>
<polyline class="st1" points="357.8,392.5 314.1,396.3 320.1,439.7 290,408 259.9,439.7 265.9,396.3 222.2,392.5 259.9,370.2 
	235.6,333.7 276.6,349.2 290,307.5 303.5,349.2 344.5,333.7 320.2,370.2 "/>
<polyline class="st1" points="611.5,432.5 600.9,416.7 618.7,423.4 624.5,405.3 630.3,423.4 648.1,416.7 637.6,432.5 654,442.2 
	635,443.9 637.6,462.8 624.6,448.9 611.4,462.8 614,443.9 595,442.3 "/>
<polyline class="st1" points="611.4,150.4 600.9,134.6 618.7,141.3 624.5,123.2 630.3,141.3 648.1,134.6 637.6,150.4 654,160.2 
	635,161.8 637.6,180.7 624.6,166.9 611.4,180.6 614,161.8 595,160.2 "/>
<polyline class="st1" points="479.3,265 468.8,249.2 486.6,255.9 492.4,237.8 498.3,255.9 516.1,249.2 505.5,265 521.9,274.7 
	502.9,276.4 505.6,295.3 492.4,281.4 479.4,295.3 481.9,276.4 462.9,274.8 "/>
<polyline class="st1" points="729.1,236.8 718.4,221 736.2,227.7 742,209.6 747.9,227.7 765.7,221 755.2,236.8 771.5,246.5 
	752.5,248.2 755.1,267 742.1,253.2 728.9,267 731.5,248.2 712.5,246.5 "/>
<polyline class="st1" points="677.5,320 667.2,326.5 670.1,314.6 660.8,306.8 672.9,305.8 677.5,294.6 682.2,305.9 694.3,306.8 
	685,314.6 687.9,326.5 "/>
<path id="path969" class="st0" d="M0,0h400v240H0V0z"/>
<path id="path971" class="st2" d="M46.9,0l152.5,90.5L351.2,0H400v31l-150,89.5l150,89V240h-50l-150-89.5L50.6,240H0v-30l149.4-89
	L0,32V0H46.9z"/>
<path id="path973" class="st3" d="M265,140.5L400,220v20l-169.4-99.5H265z M150,150.5l3.8,17.5l-120,72H0L150,150.5z M400,0v1.5
	l-155.6,94l1.2-22L368.8,0H400z M0,0l149.4,88h-37.5L0,21V0z"/>
<path id="path975" class="st2" d="M150.6,0v240h100V0H150.6z M0,80v80h400V80H0z"/>
<path id="path977" class="st3" d="M0,96.5v48h400v-48H0z M170.6,0v240h60V0H170.6z"/>
</svg>
