<?xml version="1.0" encoding="utf-8"?>
<!-- Generator: Adobe Illustrator 24.0.1, SVG Export Plug-In . SVG Version: 6.00 Build 0)  -->
<svg version="1.1" id="flag-icons-az" xmlns="http://www.w3.org/2000/svg" xmlns:xlink="http://www.w3.org/1999/xlink" x="0px"
	 y="0px" viewBox="0 0 800 480" style="enable-background:new 0 0 800 480;" xml:space="preserve">
<style type="text/css">
	.st0{fill:#3F9C35;}
	.st1{fill:#ED2939;}
	.st2{fill:#00B9E4;}
	.st3{fill:#FFFFFF;}
</style>
<path class="st0" d="M0,0h800.2v480H0V0z"/>
<path class="st1" d="M0,0h800.2v320H0V0z"/>
<path class="st2" d="M0,0h800.2v160H0V0z"/>
<circle class="st3" cx="384" cy="240" r="72"/>
<circle class="st1" cx="400" cy="240" r="60"/>
<path class="st3" d="M464,200l7.7,21.5l20.6-9.8l-9.8,20.7L504,240l-21.5,7.7l9.8,20.6l-20.6-9.8L464,280l-7.7-21.5l-20.6,9.8
	l9.8-20.6L424,240l21.5-7.7l-9.8-20.6l20.6,9.8L464,200z"/>
</svg>
