<?xml version="1.0" encoding="utf-8"?>
<!-- Generator: Adobe Illustrator 24.0.1, SVG Export Plug-In . SVG Version: 6.00 Build 0)  -->
<svg version="1.1" id="flag-icons-ba" xmlns="http://www.w3.org/2000/svg" xmlns:xlink="http://www.w3.org/1999/xlink" x="0px"
	 y="0px" viewBox="0 0 800 480" style="enable-background:new 0 0 800 480;" xml:space="preserve">
<style type="text/css">
	.st0{fill-rule:evenodd;clip-rule:evenodd;fill:#000099;}
	.st1{fill-rule:evenodd;clip-rule:evenodd;fill:#FFCC00;}
	.st2{fill-rule:evenodd;clip-rule:evenodd;fill:#FFFFFF;}
</style>
<path class="st0" d="M0,0h800v480H0V0z"/>
<path class="st1" d="M166.2,0l598.9,480.3V0.3L166.2,0z"/>
<polygon class="st2" points="616.8,451.5 590.7,432.4 563.8,451.4 574,420.2 547.5,401 580.3,401 590.5,369.9 600.5,401.1 
	633.3,401.1 607.1,420.5 616.8,451.5 "/>
<polygon class="st2" points="533.7,360.7 560,341.3 527.2,341.2 517.1,310.1 507,341.2 474.2,341.1 500.6,360.3 490.5,391.5 
	517.3,372.5 543.6,391.6 533.7,360.7 "/>
<polygon class="st2" points="460.4,300.2 486.6,280.9 453.8,280.8 443.8,249.6 433.6,280.7 400.8,280.7 427.3,300 417.2,331.1 
	444,312.1 470.1,331.2 "/>
<polygon class="st2" points="387,240.6 413.2,221.2 380.4,221.2 370.5,189.9 360.4,221 327.5,221 354,240.1 343.9,271.4 
	370.7,252.3 396.9,271.5 387.1,240.5 "/>
<polygon class="st2" points="313.7,180.3 339.9,161 307.1,160.9 297.1,129.7 286.9,160.8 254.1,160.8 280.7,180 270.6,211.2 
	297.4,192.2 323.5,211.3 313.8,180.3 "/>
<polygon class="st2" points="240.4,120.4 266.6,101 233.8,101 223.8,69.7 213.6,100.9 180.8,100.9 207.4,120 197.2,151.2 224,132.2 
	250.1,151.4 "/>
<polygon class="st2" points="167.1,60.4 193.2,41 160.4,41 150.5,9.7 140.3,40.9 107.5,40.9 134.1,60 123.8,91.3 150.7,72.2 
	176.7,91.4 167.1,60.4 "/>
<polygon class="st2" points="94.2,0.1 60.7,0.1 50.6,31.2 77.4,12.2 103.4,31.4 93.8,0.4 "/>
<polygon class="st2" points="681.1,480 706.7,461.2 673.8,461.1 663.8,429.9 653.7,461 620.9,461 647,480 "/>
</svg>
