<?xml version="1.0" encoding="utf-8"?>
<!-- Generator: Adobe Illustrator 24.0.1, SVG Export Plug-In . SVG Version: 6.00 Build 0)  -->
<svg version="1.1" id="flag-icons-bb" xmlns="http://www.w3.org/2000/svg" xmlns:xlink="http://www.w3.org/1999/xlink" x="0px"
	 y="0px" viewBox="0 0 800 480" style="enable-background:new 0 0 800 480;" xml:space="preserve">
<style type="text/css">
	.st0{fill:#00267F;}
	.st1{fill:#FFC726;}
</style>
<path class="st0" d="M0,0h800v480H0V0z"/>
<path class="st1" d="M266.6,0h266.8v480H266.6V0z"/>
<path d="M489.5,165.1c-17.6,2.9-33.8,11.3-46.4,24c-1.3,1.7,7.4-1.9,8.2-1.9c6.6-2-1.9,9.1-2.4,12c-6.8,21.5-12.6,42.3-14.8,67
	c0,1.7-0.2,3-1,3l-22.4-3.3v-79.5c5.2-0.2,13.5,1.2,18.2,2.8c-15.1-15-22.1-34.5-29.1-53.4l0-0.3c0,0,0,0.1,0,0.1c0,0,0-0.1,0-0.1
	l0,0.3c-7,18.9-14,38.4-29.1,53.4c4.7-1.6,13-3,18.2-2.8v79.5l-22.4,3.3c-0.8,0-1-1.3-1-3c-2.2-24.7-8-45.5-14.8-67
	c-0.5-2.9-9-14-2.4-12c0.8,0,9.5,3.6,8.2,1.9c-12.6-12.7-28.8-21.1-46.4-24c-1.5-0.3-2.4,0.5-1,2.2c22.4,34.6,41.3,75.5,41.1,124
	c8.8,0,30-5.2,38.7-5.2v56.1h21.9v-56.1c8.7,0,29.9,5.2,38.7,5.2c-0.2-48.5,18.7-89.4,41.1-124C491.9,165.6,491,164.8,489.5,165.1z"
	/>
</svg>
