<?xml version="1.0" encoding="utf-8"?>
<!-- Generator: Adobe Illustrator 24.0.1, SVG Export Plug-In . SVG Version: 6.00 Build 0)  -->
<svg version="1.1" id="flag-icons-bn" xmlns="http://www.w3.org/2000/svg" xmlns:xlink="http://www.w3.org/1999/xlink" x="0px"
	 y="0px" viewBox="0 0 800 480" style="enable-background:new 0 0 800 480;" xml:space="preserve">
<style type="text/css">
	.st0{fill:#F7E017;}
	.st1{fill:#FFFFFF;}
	.st2{fill:#CF1126;}
</style>
<path class="st0" d="M0,0h800v480H0V0z"/>
<path class="st1" d="M0,33.3v213.4l800,100V233.3L0,33.3z"/>
<path d="M0,146.7v100l800,200v-100L0,146.7z"/>
<g transform="translate(-160) scale(.66667)">
	<path class="st2" d="M815.7,569.7c-17.6-1.9-34.4-7.8-49.4-17.2c-2.4-1.6-4.6-3-5-3s-0.6,1.9-0.6,4.1c0,6.4-2.6,9.6-9,11.3
		c-6.2,1.6-15.6-1.6-23.2-8c-7.2-6.2-15.6-10.8-24.7-13.5c-9.5-2.3-19.4-1-28,3.6c-0.8,0.6-1.8,1-2.8,1.3c-1.1,0-1-6.9,0.2-9
		c1.5-3,5.1-5.8,9.4-7.3c2.2-0.8,4-1.8,4-2.3c0-0.4-0.8-2-1.7-3.6c-2.9-5.1-1.7-10,3.4-13.9c5.2-4,14-4.6,21.7-1.7
		c1.3,0.6,2.6,1,4,1.4c1,0,0.4-1.5-2.4-5.6c-3.2-4.7-3.9-7-3.5-12.7c0.6-7.2,6.3-12.9,13.5-13.5c5.8-0.4,9.4,1.6,18,9.7
		c23.1,23.2,53.4,37.9,86,41.6c8.3,1,24.8,0.5,34.5-1c30.7-5.1,59.2-19.3,81.8-40.8c6.4-6,9.4-7.6,14.7-7.6c4.5,0,7.7,1.4,11,5
		c3,3.3,4,6.4,3.6,11.5c-0.2,3.2-0.7,4.7-2.6,7.9c-2.8,4.5-2.3,5,3.2,2.8c7.6-3,16.9-1.6,21.9,3.2c4.4,4.2,4.8,8.4,1.4,14
		c-1.3,2.1-2.3,4-2.3,4.4c0,0.6,1,0.8,5.5,1.6c6,1,9.5,5.4,9.5,12.2c0,2-0.3,3.7-0.6,3.7s-2.6-0.9-5-1.9c-7-2.9-11-3.6-19.2-3.5
		c-6.2,0-8.3,0.3-12.6,1.7c-7.2,2.5-13.8,6.4-19.5,11.5c-6.4,5.7-10.4,7.5-16.6,7.4c-5.8,0-9.7-1.7-11.8-5c-1.1-1.8-1.3-2.8-1-6.8
		c0.2-2.6,0.1-4.7,0-4.7c-0.3,0-2.5,1.4-5,3.1c-5.7,4.1-11.9,7.4-18.5,9.9C871.7,569.5,843.5,572.9,815.7,569.7z"/>
	<path class="st2" d="M826.3,525.2c-39.1-3.6-74.8-23.9-97.9-55.7c-24.4-33.2-32-77.1-24.6-117.2c4-18.3,12-36.6,25.5-49.6
		c-11.1,23.1-14.2,49.3-8.7,74.3c9,49.8,51,91.9,101.3,99.2c20,5.7,40.5-0.4,59.5-6.5c42-14.8,74-54.6,77.8-99.1
		c3.3-24-0.3-49.1-11.2-71c6.2,3.3,14,16.2,18.6,24.8c16,31,16.7,68.1,7.3,101.2c-12.8,42.1-45,79-87.5,92.4
		C867,524.1,846.7,526.5,826.3,525.2L826.3,525.2z"/>
	<g id="a">
		<path class="st2" d="M632,469.9c-2.5-0.4-5.3,2.1-4.3,4.7c1.8,2.6,5,4,7.8,5.2c7.4,2.9,15.3,4.1,23.2,3.6c5.8,0,11.6-1,17-3
			c3-1,6.8-2,8-5.4c1.3-2.1-1-4.3-3.1-3.9c-3,0.7-6,2-9,2.9c-6.6,1.9-13.5,2.5-20.3,2c-5-0.7-9.8-2.1-14.4-4.2
			C635.3,471.1,633.8,470.1,632,469.9L632,469.9z"/>
		<path class="st2" d="M634.8,459.5c-2.5-0.4-4.7,2.6-3.7,5c2,2.8,5.3,4.3,8.4,5.6c5.4,2.1,11.2,3.1,17,2.9h1.5
			c4.9,0,9.8-0.9,14.4-2.8c2.7-1.1,6.1-2.2,7.3-5.2c0.9-1.7,0.2-4.1-2-4.3c-1.8,0-3.5,1.2-5.3,1.7c-6.5,2.7-13.6,3.8-20.6,3.2
			c-4.4-0.5-8.5-2.1-12.5-4c-1.5-0.7-2.8-1.8-4.5-2L634.8,459.5z"/>
		<path class="st2" d="M638.3,449.6c-2.2-0.3-3.7,2.2-3.3,4.1c0.3,1.8,1.8,3,3.1,4c5.4,3.8,12,5.6,18.6,5.3h1.6c4.2,0,8.3-1,12-2.8
			c2.5-1,5.4-2.3,6.3-5.2c0.4-1.3,0.6-3.2-0.9-4c-1.6-0.8-3.1,0.5-4.5,1c-4.8,2.5-10.1,3.9-15.5,3.9c-4.6-0.2-9.1-1.6-13.1-4
			C641.1,451.2,639.9,449.9,638.3,449.6L638.3,449.6z"/>
		<path class="st2" d="M601.5,302.7c-3.2,3.3-0.7,9.3-1,13.5c1.8,13.2,3.9,26.5,8.8,39c6,12,18.8,18.5,26.5,29.2
			c2.8,5.1,1.8,11.3,2.4,17c0.4,15.3,0.3,30.7,0,46c7,3.6,14.5,7,22.5,5.7c4.7-1.1,13.5-1.8,14.5-6.5l-1-79.5
			c-2.7-8.1-11-12.3-17.1-17.5c-5.1-5-9.8-10.4-14.2-16.1c-2.6-4.5-12.9-6-9.2,1.6c2.2,6.7,7.7,11.6,9.1,18.6c0.3,3.9,5,11,1,13.2
			c-2.5-4.3-6.2-7.8-10.7-10c-4.4-3.3-11.7-4.7-13.3-10.5c-1.4-8.2-5.3-15.9-11-22c1.5-7.4,0-16.7-6.4-21.5L601.5,302.7L601.5,302.7
			z"/>
		<path class="st2" d="M611.4,304.2c-3,0.5-2.8,4.2-1.5,6.2c1.5,4.3,1.9,8.9,1.1,13.4c5.5,6.1,9.2,13.6,10.6,21.7c0,3,3.2,4,5.3,5.5
			c4.9,3.1,10.3,5.4,14.7,9.3c0.9,1,1.6,2,1,0c-0.7-2.6-1-5.4-3-7.3c-2.8-3-6.2-5.6-10.2-6.4c-0.3-4.2-2.3-8-4.1-11.6
			c-2-3.5-4.1-7.2-7.5-9.4c0-6.1,0-12.5-2.6-18.2C614.4,306,613.2,304.3,611.4,304.2L611.4,304.2z"/>
		<path class="st2" d="M619.7,306.6c-2,0.6-1.6,3.2-1,4.7c0.9,4.3,1.2,8.8,1,13.2c3.9,3,6.2,7.4,8.4,11.6c1.4,2.8,2.6,5.8,3.1,8.9
			c3.1,1,5.8,3,8.2,5c-1-2.8-3-5-4.5-7.7s-3-5.6-3.7-8.7c-3-3.1-4.6-7.6-4-12c0.2-4.7-1.3-9.6-4.5-13.2
			C621.9,307.6,620.9,306.7,619.7,306.6z"/>
		<path class="st2" d="M629.2,308c-1.2,0.2-1.8,1.2-2.4,2.1c-0.3,0.9,0.8,1.8,1,2.8c1.3,3.3,1.8,6.9,1.4,10.4c-0.1,2.5,0.8,5,2,7
			c0.5-1.6,1.9-2.7,3.5-2.8c0.5,0,1.4,0.2,1-0.7c-0.4-4.8-1.1-9.6-2.8-14c-0.5-1.7-1.5-3.3-2.8-4.5
			C629.9,308.1,629.5,307.9,629.2,308L629.2,308z"/>
	</g>
	<g transform="matrix(-1 0 0 1 1440 0)">
		<g id="a_1_">
			<path class="st2" d="M1048,469.9c2.5-0.4,5.3,2.1,4.3,4.7c-1.8,2.6-5,4-7.8,5.2c-7.4,2.9-15.3,4.1-23.2,3.6c-5.8,0-11.6-1-17-3
				c-3-1-6.8-2-8-5.4c-1.3-2.1,1-4.3,3.1-3.9c3,0.7,6,2,9,2.9c6.6,1.9,13.5,2.5,20.3,2c5-0.7,9.8-2.1,14.4-4.2
				C1044.7,471.1,1046.2,470.1,1048,469.9L1048,469.9z"/>
			<path class="st2" d="M1045.2,459.5c2.5-0.4,4.7,2.6,3.7,5c-2,2.8-5.3,4.3-8.4,5.6c-5.4,2.1-11.2,3.1-17,2.9h-1.5
				c-4.9,0-9.8-0.9-14.4-2.8c-2.7-1.1-6.1-2.2-7.3-5.2c-0.9-1.7-0.2-4.1,2-4.3c1.8,0,3.5,1.2,5.3,1.7c6.5,2.7,13.6,3.8,20.6,3.2
				c4.4-0.5,8.5-2.1,12.5-4c1.5-0.7,2.8-1.8,4.5-2L1045.2,459.5z"/>
			<path class="st2" d="M1041.7,449.6c2.2-0.3,3.7,2.2,3.3,4.1c-0.3,1.8-1.8,3-3.1,4c-5.4,3.8-12,5.6-18.6,5.3h-1.6
				c-4.2,0-8.3-1-12-2.8c-2.5-1-5.4-2.3-6.3-5.2c-0.4-1.3-0.6-3.2,0.9-4c1.6-0.8,3.1,0.5,4.5,1c4.8,2.5,10.1,3.9,15.5,3.9
				c4.6-0.2,9.1-1.6,13.1-4C1038.9,451.2,1040.1,449.9,1041.7,449.6L1041.7,449.6z"/>
			<path class="st2" d="M1078.5,302.7c3.2,3.3,0.7,9.3,1,13.5c-1.8,13.2-3.9,26.5-8.8,39c-6,12-18.8,18.5-26.5,29.2
				c-2.8,5.1-1.8,11.3-2.4,17c-0.4,15.3-0.3,30.7,0,46c-7,3.6-14.5,7-22.5,5.7c-4.7-1.1-13.5-1.8-14.5-6.5l1-79.5
				c2.7-8.1,11-12.3,17.1-17.5c5.1-5,9.8-10.4,14.2-16.1c2.6-4.5,12.9-6,9.2,1.6c-2.2,6.7-7.7,11.6-9.1,18.6c-0.3,3.9-5,11-1,13.2
				c2.5-4.3,6.2-7.8,10.7-10c4.4-3.3,11.7-4.7,13.3-10.5c1.4-8.2,5.3-15.9,11-22c-1.5-7.4,0-16.7,6.4-21.5L1078.5,302.7
				L1078.5,302.7z"/>
			<path class="st2" d="M1068.6,304.2c3,0.5,2.8,4.2,1.5,6.2c-1.5,4.3-1.9,8.9-1.1,13.4c-5.5,6.1-9.2,13.6-10.6,21.7
				c0,3-3.2,4-5.3,5.5c-4.9,3.1-10.3,5.4-14.7,9.3c-0.9,1-1.6,2-1,0c0.7-2.6,1-5.4,3-7.3c2.8-3,6.2-5.6,10.2-6.4
				c0.3-4.2,2.3-8,4.1-11.6c2-3.5,4.1-7.2,7.5-9.4c0-6.1,0-12.5,2.6-18.2C1065.6,306,1066.8,304.3,1068.6,304.2L1068.6,304.2z"/>
			<path class="st2" d="M1060.3,306.6c2,0.6,1.6,3.2,1,4.7c-0.9,4.3-1.2,8.8-1,13.2c-3.9,3-6.2,7.4-8.4,11.6
				c-1.4,2.8-2.6,5.8-3.1,8.9c-3.1,1-5.8,3-8.2,5c1-2.8,3-5,4.5-7.7s3-5.6,3.7-8.7c3-3.1,4.6-7.6,4-12c-0.2-4.7,1.3-9.6,4.5-13.2
				C1058.1,307.6,1059.1,306.7,1060.3,306.6z"/>
			<path class="st2" d="M1050.8,308c1.2,0.2,1.8,1.2,2.4,2.1c0.3,0.9-0.8,1.8-1,2.8c-1.3,3.3-1.8,6.9-1.4,10.4c0.1,2.5-0.8,5-2,7
				c-0.5-1.6-1.9-2.7-3.5-2.8c-0.5,0-1.4,0.2-1-0.7c0.4-4.8,1.1-9.6,2.8-14c0.5-1.7,1.5-3.3,2.8-4.5
				C1050.1,308.1,1050.5,307.9,1050.8,308L1050.8,308z"/>
		</g>
	</g>
	<path class="st2" d="M835.7,476c-13.8-1.5-25.5-10.9-29.9-24c0.3-2.2,3,1.2,4.3,1.5c2.4,1.5,5.2,2.3,8,2.6c3.5,1.5,5.7,5,9.1,6.9
		c1.6,1.2,7.2,3.6,6.1-0.3c-1.3-2-2.2-4.6-1-7c1.8-4.1,4.7-7.7,7.7-11.2c2.1-0.7,3.6,3.6,5.1,5c2.1,3.3,4.7,7.3,3.4,11.3
		c-1.2,1.5-2,6,1.3,4.6c4-1.8,7.3-4.8,10.6-7.6c3-2,6.7-2.1,9.7-4c1.5-0.3,4.4-3.1,5-1.6c-1.8,4.5-4.3,8.6-7.4,12.3
		c-4.8,5.7-11.5,9.6-18.8,10.9C844.5,476.2,840.1,476.4,835.7,476L835.7,476z"/>
	<path class="st2" d="M851.5,460.2c0.3-2.7-0.3-5.4-1.7-8c-2.1-4.2-5-8-8-11.9c-2.8-1.6-4.3,3.7-6.1,5.2c-2.9,4.3-6.5,8.7-6.7,14
		c-1.6,2.5-4.6-2-5.9-3.5c-2.7-3.4-4.1-7.7-4-12c-0.2-7,1-14.1,3.6-20.6c2-5.6,5.1-11,4.8-17c0.2-4.7-0.7-9.7-4.4-12.8
		c-3.6-2.8,2.3-3.4,4.1-2c3.2,0.3,4.9,5.5,7.8,4.2c1.1-2.7,1.4-6,3.8-8.1c2.3-3.2,4.7,1.3,5.5,3.5c1.7,1.8,0,6.5,2.6,6.6
		c3.2-2.3,5.5-6,9.6-6.9c1.7-1,4.5,0,2.3,1.8c-3,2.9-5.6,6.4-6.2,10.7c-0.9,5.3,0.4,10.7,2.7,15.4c4.5,9.4,8,20,5.7,30.5
		c-1,4.6-4.2,8.6-8,11.3C852.5,460.9,851.7,460.9,851.5,460.2L851.5,460.2z"/>
	<path class="st2" d="M846.7,389.6c-1.3-2.7-3.3-5.1-5.6-7c-2.4,0-3.9,3-5.5,4.6c-1.1,2.1-2.5,5.6-5.3,2.9c-4.5-2.6-5.2-8.3-5.2-13
		c-0.3-7.6,2.8-14.7,5.5-21.6c1.7-4.3,1.3-9.2,0.2-13.6c-1.3-5-5.4-8.6-8.5-12.6c0.2-1.5,4.2-0.7,5.7-0.4c3.4,0.9,5.4,3.8,7.9,6
		c1.8-0.6,1-4.2,1.9-5.9c0-2.4,3.2-5.5,4.5-2.1c2,2.2,0,6.5,2.5,7.8c2.4-0.9,3.6-3.5,5.8-4.7c2.3-1.5,5.3-1.7,7.8-0.5
		c0.9,2.2-2.6,4-3.6,6c-4.1,5.1-5.5,11.7-3.8,18c1.4,5,3.8,9.5,4.7,14.5c1.1,5.7,0.9,11.6-0.5,17.2c-0.9,3.4-3.8,5.6-6.8,7
		C847.6,391.5,847.2,390.5,846.7,389.6L846.7,389.6z"/>
	<path class="st2" d="M831.6,326.9c-3.4-2.5-4.5-4.8-4.5-9.5c0-2.3,0.5-3.6,2-5.8c2.4-3.2,2-4.2-1.3-3.3c-5.3,1.5-7.8,0.2-8-4.3
		c0-2.2,0.4-3.1,3.3-6.7c2.4-2.8,3.3-4.3,2.8-4.8c-0.5-0.4-3.3,2-9,7.8c-3.6,3.8-7.4,7.3-11.4,10.6c-9.8,6.6-19.2,7.6-23.5,2.5
		c-2.2-2.6-2.1-4,0.4-5.6c1.6-1.1,3.1-2.3,4.4-3.7c4.9-4.5,10.3-8.4,16.1-11.6c3.6-1.8,4.4-3,2.1-3c-3,0-12.5,6.2-19.8,12.8
		c-2.1,2-5.2,4.2-6.8,5c-4.4,1.6-9.3,2-13.9,1c-2.2-0.7-6.3-4.5-6.3-5.9c0-0.3,1-1.1,2-1.8c1.6-0.9,3.2-2,4.6-3.2
		c5.8-5,16.8-10.3,25.5-12.2c2.8-0.5,1.7-2-1.4-1.8c-9.2,1.8-17.8,5.8-25,11.7c-8.3,6.9-20.8,6.2-24.8-1.3c-0.7-1.3-1.2-2.5-1-2.7
		c7.1-1.8,13.9-4.4,20.4-7.8c5.6-3.3,11.7-5.5,18.1-6.5c2.8-0.5,3-1.9,0.3-2.2c-3.6-0.4-9,1.4-18.5,6c-12.3,6.1-15.8,7.2-22.2,6.8
		c-6-0.4-9.3-1.9-14-6.4c-3.2-3-7.6-10.5-6.8-11.4c5.2,1.1,10.5,1.5,15.8,1.3c8.3,0,10.6-0.2,15-1.5c8.6-2.7,16.7-6.8,24-12.1
		c10.3-8.7,23.3-13.5,36.8-13.6c12.4,0,20.2,2.8,27.2,9.9c2.4,2.4,4.4,3.9,4.7,3.6s0.6-4.5,0.7-9.3c0,0,3.7-0.4,4.5,0.7
		c0,7.7,0,8.4,1.2,8.4c0.7,0,1.5-0.8,2-2c1-2.5,5-6,9.2-8.2c9-4.5,24.7-4.7,37.3-0.3c6,2.3,11.7,5.5,16.7,9.5
		c7.4,5.2,15.4,9.2,24,12c6.8,2,19,2.5,25.1,1c1.8-0.4,3.6-0.7,5.4-1c2.3,0-1.6,7.6-6.2,12.1c-8.4,8.2-19.3,8.1-34.6-0.1
		c-9.6-5.2-21-8-21-5.2c0,0.6,0.6,1,1.5,1c3.3,0,9.7,2.2,18.7,6.5c5.7,3.3,11.9,5.5,18.3,6.5c2.3,0,2.4,1.5,0.2,4.7
		c-2.3,3.4-6.2,5-11.7,5c-5.3,0-8.3-1.1-13-5c-8-6.6-27.6-14-26.9-10c0.2,0.7,1.1,1.2,3.2,1.5c8.4,1.8,16.4,5.6,23.1,11l5.9,4.3
		c1.1,0.6,1.1,0.8,0.2,2.5c-1.4,2.8-5.2,4.9-9.2,5.3c-5.2,0.6-9.8-1-14.5-5c-10-8.3-19.3-14.3-22.3-14.3c-2.5,0-1.4,1.4,3,3.7
		c5.7,3,11,6.7,15.8,11c2,1.9,4.3,3.7,5,4.1c1.9,1,1.8,2.4-0.2,5s-5.4,3.8-9.7,3.3c-8.6-0.9-15.4-5-26-16c-2.5-2.8-5.3-5.4-8.2-7.8
		c-1.4,0-0.5,1.9,2.2,5c3.4,3.7,4,5.8,2.7,9c-1.1,2.6-3,3.3-6.8,2.2c-4-1-4.6,0-2,3.1c3.8,4.9,3.3,10.7-1.5,14.8
		c-1,1-2.1,1.7-3.4,2.3c-0.4,0-1.4-1-2.3-2.4c-3-4.6-5.7-4.6-8.7,0c-0.6,1-1.3,2-2,3C833.6,328.4,832.6,327.6,831.6,326.9
		L831.6,326.9z"/>
	<path class="st2" d="M846.7,233l-5.2,4l-4.6-3.4v27.8h9.8V233z"/>
	<path class="st2" d="M814.9,204.3c-0.9,11.2-4,22.2-9,32.3l11.1-10.3l7.7,9.2l8.4-9.4l8.5,8l8.2-8.3l8.5,10l7.4-8.2l12.6,9
		c-4.6-10-10.7-18.6-10-32.8c-12.1,9-41,10.6-53.4,0.4V204.3z"/>
	<path class="st2" d="M837,197.6c-4.5,0-9.2,0.1-13.4,1c-2.8,0.4-5.4,1.5-7.8,3c0.3,8.6,41,12.1,51.9,0.2c-2.5-1.7-5.3-2.8-8.2-3.3
		c-4-0.8-8.6-0.8-12.9-1v7.1H837V197.6z"/>
	<path class="st2" d="M844.9,154h-6.3v49.4h6.4L844.9,154z"/>
	<path class="st2" d="M844.9,155.2l-2.4,23.7l24.3,11.9l-12.3-16.5l16.8-5.5L844.9,155.2z M842.2,149.1c-3.7,0-6.4,1.4-6.4,3
		s2.7,3,6.4,3s6.4-1.4,6.4-3S845.9,149.1,842.2,149.1z"/>
</g>
<g>
	<path class="st0" d="M394,375.9c2.7-0.9,4.2-2.5,5.3-5.6c0.5-1.6,0.9-3.2,0.8-3.6c-0.2-1-1.4-1-2.6,0.1c-0.9,0.7-1,1.1-0.8,2.6
		c0.7,3.7-0.7,4.7-7.7,5.4c-0.7,0-2.8,0-4.5-0.3c-3.4-0.4-4.6,0-3.4,1c0.6,0.4,1.4,0.7,2.1,0.9C385.1,376.9,392,376.6,394,375.9
		L394,375.9z M408.7,375.3c0.4-0.4,1.7-1,3-1.5c1.7-0.5,2.6-1,3.3-2.2c2.1-3,1.7-5.7-1.3-9.3c-1.7-2-2.4-1.9-3.7,0.3
		c-1.2,1.8-1.1,2,0.5,2.4c0.9,0.2,1.7,0.8,2.1,1.6c1.8,3.1,1.3,5-1.4,5c-2.4,0-3,0.4-3.7,2l-0.6,1.9
		C406.9,376.1,407.9,376,408.7,375.3L408.7,375.3z M403.9,371.8c0.4-1.3,0.6-3.5,0.5-8c0.1-2.1,0-4.3-0.3-6.4
		c-0.4-0.4-2.3,0.8-2.6,1.7c-0.1,0.7,0.1,1.5,0.5,2.1c0.6,1.2,0.7,2.4,0.5,7C402.2,374.2,402.6,375.2,403.9,371.8L403.9,371.8z"/>
	<path class="st0" d="M392.6,369l0.7-5c0.1-1.7,0.5-3.8,0.7-4.7c0.7-2.3,0-2.9-1.8-1.6l-1.3,1l0.2,3.3c0.3,3-0.2,8.5-0.9,10.7
		c-0.2,0.6,0.1,0.4,0.9-0.5c0.6-0.7,1.3-2.2,1.5-3.3L392.6,369z M382.6,370.6c2.4-2,2.1-5.6,2.7-8.4c0-1.9,1.2-4.1,0.4-5.8
		c-2.3,0.4-3.7,2.6-2.5,4.7c0,2.5,0,5.2-1.3,7.4c-1,1.5-4.4,1.1-4.2-1c0.8-3-2.9-1.5-4.3-0.7c-1.1,0.8-3.5,0.9-2.6-1
		c-0.6-2.7-3.9-1-5.7-1c-1.7,0-0.1-3.5-2.6-3c-4.5-0.3-9.5,0.1-13.5-2.6c-2.3-1.1-2-3.9-0.7-5.7c1.4-2.4,1.8-5.5,4-7.4
		c2.3-2.1-2-1.2-3-0.5c-2.2,1.2-0.2,4.3-2,6c-1,1.8-2.4,4.2-4.8,3.9c-3.5-0.7-5.5-4-8-6c-2.2-0.5-1,3.4,0.2,4.2
		c2.2,1.7,4.7,2.9,7.4,3.6c2.6-0.5,2.7,3,5,3.5c4,2,8.6,2.5,13.1,2.8c1.8,0.1,0.8,3.3,3.1,2.6c1.3,0.4,4.3-0.5,4.4,1
		c-2,2.4,1.9,2.3,3.3,2c1.9-0.4,4.2-1,4.7,1.4c1.5,1.7,4.3,1.4,6.2,0.5L382.6,370.6L382.6,370.6z"/>
	<path class="st0" d="M342.8,350.4c0.9-1.3,1.7-2.7,2.4-4.2c0.5-1.3,1.2-2.5,2-3.6c1.2-1.2,0.5-2-1.4-1.6c-1,0.2-1.4,0.6-1.5,1.5
		c-0.4,2.5-1.3,4.8-2.5,7c-1.7,2.5-1.7,2.6-1,2.6C341.1,352.1,342,351.3,342.8,350.4L342.8,350.4z M317.8,334.7
		c-1.9,0-2,1.2-0.2,1.8c1,0.3,1.7,1,2.3,2.3c1.7,3.5,2.8,4.2,7.5,4.6l3,0.2l0.2,1.9c0,1,0.3,1.8,0.5,1.8l2.6-1
		c2.2-1.2,4.3-3.8,4.3-5.5c0-1-1.8-2.2-3.4-2.2c-0.7,0-2,0.6-3.1,1.4c-3.4,2.4-7,2-9-1.2C321,336.2,319.3,334.8,317.8,334.7
		L317.8,334.7z M334.1,341.2c0.9,0,1,0.7,0.6,2c-0.2,0.5-0.7,0.7-1.1,0.6c-0.3-0.1-0.5-0.3-0.6-0.6
		C332.6,342.2,333.1,341.2,334.1,341.2L334.1,341.2z M460.6,337.2c-1.3,0-1.6,0.2-2.4,1.4c-1.3,1.9-1.4,6-0.2,7.4
		c0.7,0.9,0.8,0.9,2.3,0.2c2.2-0.9,2.6-0.8,2.5,0.3c0,3-4.2,8.7-8.6,11.7c-0.9,0.5-1.7,1.2-2.4,2c-0.3,0.8,1.3,0.7,3.3-0.4
		c3.3-1.9,6-4.7,7.9-8c1.1-2.3,1.3-3,1.5-7c0-3.8,0-5-0.6-6.2c-0.8-1.4-1-1.5-2.8-1.5h-0.5L460.6,337.2z M460.7,339.7
		c1,0,1,0.2,1.2,1.6c0,1-0.1,1.7-0.7,2.3c-0.8,0.7-1,0.7-1.6-0.4C458.6,341.6,459.2,339.7,460.7,339.7z M440.5,368.2
		c3.9-2,6.2-4.1,7.6-7.2c0.5-1,1-2,1.3-3.1c0-0.6-1.9-1.5-3-1.5s-1.4-0.8-1-3c0.5-2.1,0-4.8-1-4.8c-0.3,0-1,0.5-1.3,1.1
		c-0.6,1-0.7,1.4-0.2,2.7c0.7,2,0.1,3.6-1.7,4.9c-0.9,0.6-1.3,1.3-1.3,2l0.1,1l2.1-1l2-1.2l1.1,1c0.7,0.4,1.2,1.2,1.2,1.7
		c0,2.4-6.8,6.4-11.4,6.8c-2.5,0.2-3,0-3.8-0.8c-0.7-0.7-0.9-1.3-0.7-2l0.5-2.6c0.4-2.1-0.4-1.8-2,0.6c-1.2,2-1.6,4.1-0.9,5.2
		c0.6,1,4.4,1.8,7.2,1.6C437,369.6,438.7,369.1,440.5,368.2L440.5,368.2z M466.5,353.7c2.4-2.5,3.5-5.5,3.5-10v-3.5l2-1
		c2.7-1.2,5.2-3.7,5.2-5.1s-0.7-1.4-1.8,0.2c-0.9,1.1-2,1.8-6,3.7c-1,0.4-1.1,0.7-1.4,5c-0.2,5-1,6.8-3.7,10.2
		c-1.7,2-1.8,2.4-0.6,2.4C464.2,355.6,465.5,354.7,466.5,353.7L466.5,353.7z M439.8,350.9c0.2-0.7-1.2-1.2-1.7-0.6
		c-0.3,0.2-0.4,0.6-0.2,0.9C438.3,351.8,439.5,351.6,439.8,350.9L439.8,350.9z M476.6,341.4c0.3-0.8-1.1-1.3-1.7-0.7
		c-0.2,0.3-0.3,0.7-0.1,1C475.2,342.3,476.4,342.1,476.6,341.4L476.6,341.4z M432.3,315.5c-1,0.5-1.5,1.5-2.1,2.3
		c-0.5,0.3-0.1,0.6,0.1,1c1.7,1.7,2.4,4.2,3.2,6.5c0.8,2.7,1.8,5.6,1,8.4c-0.3,1-1.2,2.1-2.4,1.8c-2-0.1-4-0.7-6-0.7
		c-1.9,0.1-3.3,1.8-5.1,1.6c-1.2,0-1.2-2.4-2.2-1.7c-0.6,1.3-0.3,2.7-0.4,4c0.2,0.3,0.8,0.1,1.1,0.2h3.7c0.2,1.2,0.2,2.7,1,3.7
		c1.3,0.4,2.8,0,4-0.5c1.2-0.6,1.4-2.1,1.8-3.3c0.4-1.3,2-1,3-1.5c2.5-0.8,4.1-3.1,4-5.7c-0.2-3.9-1.6-7.4-2.8-11
		c-0.5-1.6-0.9-3.3-1.5-4.9L432.3,315.5L432.3,315.5z M426.3,337.3c1.3,0,1.9,1.6,1.6,2.7c-0.5,1.5-2.4,0.6-2.7-0.5
		c-0.7-1-0.3-2.3,1-2.2H426.3z"/>
	<path class="st0" d="M376,324.8c-0.6,0-1.3,0.2-2,0.7c-3.5,2.5-4.5,5.4-2,6.6c1.7,0.8,1.3,1.8-1.5,3.2c-4,2-7.5,1.7-14.2-1
		c-1.6-0.7-2-0.4-1.7,1c0.4,1.5,1.8,2.3,5.1,3c3.6,1,8,0.7,10.8-0.5c1.6-0.8,3.1-2,4.3-3.4l2.2-2.3l2.5,0.3c3.1,0.4,3.2,0.4,3.2,1.9
		c0,1.2,0,1.2,2.9,1.5l4.7,0.2c1.3,0,2,0.3,2.4,0.9c0.6,0.7,0.9,0.8,5.6,0.4c4.4-0.4,5.2-0.4,7.2,0.3c1.4,0.4,3,0.6,4.1,0.5
		c3.4-0.4,8-3.1,8.7-5.1c0-0.3,1.3-0.7,2.7-1c3.4-0.7,3.5-1.4,0.4-1.8c-1.6-0.2-3.1-0.6-4.6-1.1c-1.1-0.5-2.3-0.8-3.5-0.9
		c-1.7,0-3.3,1-3.3,2.2c0,0.7,0.2,0.8,2.3,0.6c1.8-0.2,2.4-0.1,3.4,0.7c0.7,0.5,1.1,1.1,1,1.3c-0.5,0.8-4.5,2.6-6.2,2.9
		c-1,0.2-2.1,0-3-0.5c-1.6-0.8-3.8-0.9-4.3-0.2c-0.2,0.3-0.6,0.1-1.3-0.5l-1-1l-2.4,1c-2.4,1-3.3,1-3.3-0.2c0-0.5-0.7-0.6-4.2-0.3
		c-3.9,0.2-4.3,0.1-5-0.7c-0.7-0.7-0.7-1-0.2-1.7c0.4-0.8,0.4-1,0-1.5c-0.4-0.4-1-0.4-2.5,0c-3.9,1-5,0.5-5-2.5
		C378.3,325.9,377.3,324.8,376,324.8L376,324.8z M375,327.6c0.2,0,0.4,0.1,0.7,0.4c0.3,0.3,0.5,1,0.3,1.3c-0.3,0.9-2,0.9-2.3,0
		c-0.2-0.5,0-1,0.5-1.3L375,327.6z"/>
	<path class="st0" d="M368,330.4c2.4-1.5,2.4-1.4,2.7-5.5c0.2-3,0.2-3.2-0.6-3.2c-1.2,0-1.8,1.3-1.8,3.7c0,1.6-0.2,2.3-1,3
		c-2,2-6.8,1.1-7.5-1.3c-0.2-0.8,0.1-1.6,1.1-3c2.1-3,1.7-3.8-1-1.5c-1.7,1.6-2,1.6-1.7,0.3c0.3-1.3-0.3-1.8-1.8-1.4
		c-0.7,0.2-1.2,0.6-1.3,1.6c-0.2,0.8-0.6,1.3-1.3,1.5c-1.2,0.3-3.2-0.8-3.2-1.8c0-0.7,3-4.4,6.9-8.4c1.4-1.5,2.6-3,2.6-3.1
		c0-0.2-0.8-0.4-1.7-0.4c-1.4,0-1.8,0.2-1.8,0.8c0,0.4-1.9,3-4.3,5.7c-5,5.6-5.4,6.7-3,8.2c2,1.3,4.6,1.2,6.6-0.2l1.6-1.1v2
		c0,2.5,0.5,3.5,2.5,4.5C362.5,332.1,365.6,332,368,330.4L368,330.4z M472.4,295.8c-1.8,1.1-0.4,3.4,0,5c-0.8,2-3.5,2.6-5.5,3
		c-2.8,0.5-4.8,2.8-5.8,5.3c-0.6,1.6-2,4-3.5,1.6c-1.3-1.3-3.7-2.4-5.2-0.8c-1.2,1.1-1.5,2.7-2,4.2c-0.7-1.1-1-2.8-2.4-3.2
		c-2.4,0.3-1.5,3.3-0.4,4.5c1,1.5,2,3.3,1,5c-1,2-4,3.4-5.7,1.7c-1.6-0.9-0.5-4-2.2-4.2c-0.8,0.6-0.8,3.9-2.1,2.1
		c-1-1.5-0.4-3.6-1.6-4.9c-1.3,0.2-2.4,2.5-2,3.7c1.8,2.4,2.6,5.4,3.3,8.3c0.4,1.2-0.1,3.5,1,4c0.7-1.9,0-4,0.6-5.9
		c1.8-0.2,3.7,0.6,5.5,0.2c2.7-0.3,4.7-2.6,5.6-4.9c0.3-1.8,0-3.6-0.1-5.4c2,0.4,4.2,0.4,6.2,1c1,1.5-0.3,3.7-0.6,5.3
		c-1,3.4-3.7,5.8-6.2,8c-1.1,0.7-1.2,2.4,0.3,1.5c3.4-1.6,6.1-4.5,7.5-8c1.1-2.6,0.2-5.5,1-8.1c1-2,3.5-1.6,5.4-1.6s3.5-2.3,2.9-4.2
		c-0.6-2.2,1.7-3.2,3.2-4c2.1-1,3.7-3.1,3.5-5.5C474.1,298.2,474.1,295.9,472.4,295.8L472.4,295.8z M465.1,308.3
		c2.2,0.6-0.4,4.8-1.6,2.1C463.1,309.4,464,308.3,465.1,308.3z M454.8,311.3c2.9-0.1,1.8,4-0.6,2.2
		C452.9,312.8,453.3,311.3,454.8,311.3z M350,327.6c0-0.4-0.2-0.7-0.6-0.7c-0.7,0-1.2,0.7-0.9,1.3
		C348.9,328.9,349.8,328.5,350,327.6L350,327.6z M384,324c0-0.7-0.3-0.9-0.8-0.8c-1.1,0.2-1.3,1.7-0.1,1.7
		C383.7,324.9,384,324.6,384,324L384,324z M342,303.6c-1.3-0.3-2.2,0.9-2.7,2c-1,1.7-2.2,3.4-4,4.3c-1.3,0.4-2.7-0.1-3.9-0.8
		c-1.3-0.7-1-2.3-1.6-3.4c-1-0.8-2.7,0.3-2.6,1.5c-0.1,1.6,1.3,2.5,2.6,3.1c1,0.7,2.6,1,3,2.3c0,1.1,0.4,2.4,1.7,2
		c1.5,0,2,1.8,1.3,2.9c-0.7,1.2-0.9,2.6-0.7,4c0.7,0.7,1.4-1,2-1.4l1-1.4c2.7,0.1,5.3,0.5,8,0.4c2,0,3.5-1.2,4.7-2.6
		c1.8-1.8,3.2-3.9,5.1-5.4c1.4-0.4,0.7-3-0.8-2.2c-1.3,0.5-1.7,2-2.6,2.9c-1.5,1.9-3.1,3.7-5,5.2c-1.5,0.6-3.1,0.3-4.6,0
		c-0.6-0.5,1.2-1,1.5-1.6c0.8-0.8,1.8-1.6,2.3-2.7c-0.5-1-1.9-1-2.9-1c-2.4,0.2-4.3,2.3-6.8,2.5c-1.9,0-0.9-2,0-2.7
		c1.6-2,3.4-3.8,5.1-5.7c0.5-0.6,2.3-1.2,1.2-2C342.9,303.6,342.4,303.6,342,303.6L342,303.6z M343.2,313.6c1.3,0.7-0.8,1.8-1.6,1.7
		c-1.1,0.3-1.2-0.8-0.2-1C342,313.9,342.6,313.6,343.2,313.6L343.2,313.6z M339.4,316.2c0.7,0,2.2,0.7,0.8,1.1
		C339.2,318.1,338.2,316.5,339.4,316.2z"/>
	<path class="st0" d="M369.4,317.8c0-1-1.6-0.8-1.8,0.2c-0.2,0.6,0,0.7,0.8,0.6C369,318.6,369.4,318.2,369.4,317.8L369.4,317.8z
		 M444.1,311.2c0.2-0.9-1-1.5-1.7-0.8c-0.7,0.6,0,1.9,0.8,1.7C443.6,312.1,444,311.6,444.1,311.2L444.1,311.2z M328,302.1
		c1.1-1,1.2-1.1,0.7-3.3c-0.8-3.1-0.7-3.5,0.5-3.8c1.5-0.3,5.3,1.7,6,3.3c0.8,1.3,0.7,1.4-0.4,2.4c-1.2,1.1-1.2,2.4,0,2.4
		c1,0,3.7-2.6,3.7-3.5c0-1.3-3-4.4-5.4-5.5c-1.4-0.7-3-1-4.6-1c-3.1,0-3.5,0.7-2.7,4.2c1,4.2-0.3,4.8-3.7,1.6
		c-2.5-2.2-3.7-5.3-3.5-8.6c0-4,1.6-6.1,5.1-6.6c2.4-0.3,2.3-0.9,0-1.2c-3.6-0.6-6.6,1.8-7.7,6c-1.3,4.7,1.6,10.4,6.7,13.3
		C325.4,303.3,326.4,303.4,328,302.1L328,302.1z M467.2,296.9c0.3-0.2,0.5-0.9,0.5-1.4s0.5-1.6,1.1-2.4s1-1.6,1-1.8
		c0-0.8-1.3-0.8-2.3,0c-1.1,0.9-2,1-2,0l1.2-0.9c1.6-0.7,1.7-1.5,0.4-2.1c-1.7-0.8-3.5,0.6-3.6,3c-0.1,1.6,0,1.8,1.2,2.5
		c1.1,0.7,1.3,1,1.1,2C465.5,297.4,466.2,298,467.2,296.9L467.2,296.9z M480.2,295.5c1-1,1.8-1.9,1.8-2.2c0-0.3,0.9-1.2,1.9-2
		c2.8-2,3.5-4,2.2-7.3c-0.5-1.3-2-3-5.5-6c-1.6-1.7-3.4-3.2-5.4-4.4c-0.9,0-0.7,3.4,0.2,3.7c1.7,0.6,2.8,1.3,5.4,3.7
		c3.2,2.8,4.6,5.5,3.8,7c-0.7,1.4-1.7,1-4.5-2c-0.9-1.1-2-2.1-3.2-2.9c-0.3,0-0.5,0.6-0.5,1.4c0,1,0.5,2,2,3.5
		c2.3,2.6,2.5,4.1,0.7,5.5c-0.4,0.4-0.9,0.8-1.4,1c-2.3-3.9-5.3-7.3-9-10c-0.3,0-0.5,0.4-0.5,1.4c0,1.3,0.2,1.7,1.2,2.2
		c2.6,2,5,4.4,7,7l1.8,2C478.9,296.6,479.6,296.1,480.2,295.5L480.2,295.5z M486.2,278.7c-0.5-1.2-8.4-9.4-9.3-9.4
		c-0.4,0-0.5,0.5-0.4,1.8c0,1.6,0.3,1.8,1.4,2.1c1.7,1,3.3,2.2,4.6,3.7c1.1,1.2,2.3,2.2,3.7,3L486.2,278.7L486.2,278.7z
		 M438.4,371.3c0.2,0.5-0.2,1.1-0.8,1.2s-1.3-0.1-1.5-0.7c-0.1-0.2-0.1-0.4,0-0.6c-0.2-0.5,0.2-1.1,0.8-1.2s1.3,0.1,1.5,0.7
		C438.5,370.9,438.5,371.1,438.4,371.3z M442.6,369.9c0,0.6-0.5,1-1.2,1c-0.7,0-1.2-0.4-1.2-1c0,0,0,0,0,0c0-0.6,0.5-1,1.2-1
		C442.1,368.9,442.6,369.3,442.6,369.9C442.6,369.9,442.6,369.9,442.6,369.9z"/>
</g>
</svg>
