<?xml version="1.0" encoding="utf-8"?>
<!-- Generator: Adobe Illustrator 24.0.1, SVG Export Plug-In . SVG Version: 6.00 Build 0)  -->
<svg version="1.1" id="flag-icons-br" xmlns="http://www.w3.org/2000/svg" xmlns:xlink="http://www.w3.org/1999/xlink" x="0px"
	 y="0px" viewBox="0 0 800 480" style="enable-background:new 0 0 800 480;" xml:space="preserve">
<style type="text/css">
	.st0{fill-rule:evenodd;clip-rule:evenodd;fill:#229E45;}
	.st1{fill-rule:evenodd;clip-rule:evenodd;fill:#F8E509;}
	.st2{fill-rule:evenodd;clip-rule:evenodd;fill:#2B49A3;}
	.st3{fill-rule:evenodd;clip-rule:evenodd;fill:#FFFFEF;}
	.st4{fill-rule:evenodd;clip-rule:evenodd;fill:#FFFFFF;}
	.st5{fill:#309E3A;}
	.st6{fill:#F7FFFF;}
	.st7{fill:#FFFFFF;}
</style>
<path class="st0" d="M0,0h800v480H0V0z"/>
<path class="st1" d="M401.8,436l376.9-195.7L399.5,44L21.4,240.7L401.8,436z"/>
<g>
	<path class="st2" d="M545.3,240c0,77.2-62.7,139.8-140.1,139.8c-77.3-0.1-139.8-62.9-139.7-140.1c0.1-77.3,62.9-139.8,140.1-139.7
		C482.8,100.1,545.4,162.8,545.3,240z"/>
	<path class="st3" d="M359.2,323.8l-4.4-2.5l-4.4,2.2l1-4.9l-3.5-3.7l4.9-0.5l2.4-4.4l2.1,4.6l4.8,0.9l-3.6,3.3 M452.9,347.5
		l-4.3-2.5l-4.4,2.2l0.9-4.9l-3.4-3.6l4.9-0.5l2.3-4.5l2.2,4.6l4.8,0.9l-3.7,3.4 M412.5,309.5l-3.7-2.2l-3.8,2l0.9-4.3l-3.1-3.2
		l4.4-0.4l2-4l1.8,4.1l4.3,0.8l-3.3,3 M507.4,295.9l-3.7-2.2l-3.8,2l0.9-4.3l-3-3.1l4.3-0.4l2-3.8l1.8,4l4.2,0.8l-3.2,2.9
		 M410.9,267.5l-4.4-2.4l-4.4,2.2l0.9-5.1l-3.4-3.6l4.9-0.5l2.3-4.5l2.2,4.6l4.8,0.9l-3.7,3.5 M295.3,224.1l-4.4-2.4l-4.4,2.2
		l1.1-5.1l-3.6-3.6l5.1-0.5l2.2-4.5l2.2,4.6l4.8,0.9l-3.6,3.4 M309.2,281.8l-4.4-2.5l-4.4,2.2l1-4.9l-3.5-3.6l4.9-0.7l2.3-4.4
		l2.2,4.6l4.8,0.9l-3.6,3.4 M453.5,202.9l-4-2.2l-4,2l0.9-4.4l-3.1-3.3l4.4-0.5l2.1-4l1.9,4.2l4.4,0.8l-3.3,3 M445.5,240.4l-3-1.8
		l-3.2,1.5l0.7-3.5l-2.4-2.5l3.5-0.4l1.6-3.1l1.4,3.3l3.3,0.5l-2.4,2.4 M288.9,292.3l-3-1.6l-3,1.4l0.7-3.3l-2.3-2.4l3.3-0.4l1.5-3
		l1.4,3.1l3.3,0.7l-2.5,2.2 M508.2,305.7l-2.4-1.2l-2.4,1.1l0.5-2.5l-1.9-1.8l2.6-0.3l1.3-2.2l1.1,2.2l2.7,0.5l-2.1,1.6"/>
	<path class="st3" d="M288.9,292.3l-3-1.6l-3,1.4l0.7-3.3l-2.3-2.4l3.3-0.4l1.5-3l1.4,3.1l3.3,0.7l-2.5,2.2"/>
	<path class="st3" d="M288.9,292.3l-3-1.6l-3,1.4l0.7-3.3l-2.3-2.4l3.3-0.4l1.5-3l1.4,3.1l3.3,0.7l-2.5,2.2 M334.8,292.2l-2.9-1.5
		l-3,1.4l0.7-3.3l-2.3-2.4l3.3-0.4l1.5-3l1.4,3.1l3.3,0.5l-2.5,2.3 M329.1,307.5l-2.9-1.6l-3,1.5l0.7-3.3l-2.3-2.5l3.3-0.4l1.5-3
		l1.4,3.1l3.3,0.7l-2.5,2.2 M424.6,279.8l-2.9-1.8l-3.1,1.5l0.7-3.3l-2.2-2.5l3.3-0.3l1.5-3l1.3,3.1l3.3,0.5l-2.4,2.3 M396.6,279.7
		l-3-1.6l-3,1.5l0.7-3.3l-2.2-2.5l3.3-0.3l1.5-3.1l1.3,3.2l3.3,0.5l-2.4,2.3 M320.6,270l-1.9-1.1l-1.9,0.9l0.4-2.1l-1.4-1.5l2.1-0.2
		l0.9-1.9l0.9,2l2.1,0.3l-1.5,1.4 M504.6,317.6l-2.9-1.6l-3,1.5l0.7-3.3l-2.3-2.5l3.3-0.4l1.5-3l1.4,3.1l3.3,0.7l-2.5,2.2
		 M481.3,320.8l-2.4-1.5l-2.5,1.3l0.5-2.9l-1.9-2l2.7-0.3l1.3-2.5l1.1,2.6l2.7,0.4l-2.1,2 M492.3,320.5l-2.2-1.3l-2.3,1.1l0.4-2.5
		l-1.8-1.9l2.5-0.3l1.2-2.2l1.1,2.2l2.5,0.5l-1.9,1.8 M523.9,292.8l-2.2-1.1l-2.2,1.1l0.5-2.5l-1.8-1.9l2.5-0.3l1.1-2.2l1.1,2.3
		l2.3,0.4l-1.8,1.8 M481,336.3l-2.7-1.5l-3,1.3l0.7-3.1l-2.2-2.2l3.3-0.3l1.4-2.7l1.3,2.9l3.3,0.5l-2.5,2.1 M481.2,348.8l-2.6-1.5
		l-2.6,1.4l0.7-3.1l-2.1-2.2l3-0.4l1.3-2.7l1.2,2.9l3,0.5l-2.2,2.2 M459.9,320.5l-2.1-1.3l-2.2,1.1l0.4-2.4l-1.6-1.9l2.4-0.2
		l1.1-2.2l1.1,2.2l2.4,0.4l-1.8,1.8 M440.1,320.5l-2.2-1.3l-2.2,1.1l0.5-2.4l-1.8-1.9l2.5-0.2l1.1-2.2l1.1,2.2l2.3,0.4l-1.8,1.8
		 M406.4,291l-2.2-1.2l-2.2,1.1l0.5-2.5l-1.8-1.8l2.4-0.3l1.1-2.2l1.1,2.2l2.4,0.5l-1.8,1.6 M410.1,351l-1.8-1l-2,1l0.4-2.2
		l-1.4-1.5l2.1-0.2l1-1.9l0.9,2l2.1,0.3l-1.5,1.4 M359.2,253.8l-4.4-2.5l-4.4,2.2l1-4.9l-3.5-3.6l4.9-0.7l2.4-4.4l2.1,4.6l4.8,0.9
		l-3.6,3.4"/>
	<path class="st4" d="M536.1,290.3c2.7-7.1,4.9-14.3,6.4-21.7c-74.5-65.3-157.4-98.8-262.1-91.9c-3.8,7.4-6.9,15-9.3,23
		C395.1,187.7,486.2,242.6,536.1,290.3L536.1,290.3z"/>
	<path class="st5" d="M502.7,253.6l2.5,1.4c-0.4,0.7-0.5,1.6-0.3,2.4c0.3,0.8,0.8,1.5,1.5,1.9c0.8,0.5,1.5,0.9,2.2,0.8
		c0.7,0,1.1-0.3,1.4-0.8c0.2-0.3,0.3-0.6,0.2-1c-0.1-0.4-0.3-0.8-0.5-1.1c-0.2-0.3-0.8-1.1-1.6-2c-0.9-0.9-1.6-2.1-2-3.3
		c-0.6-1.9,0.4-4,2.2-4.8c0.8-0.3,1.7-0.4,2.5-0.2c1,0.2,2,0.7,2.9,1.3c1.5,1.1,2.5,2.2,2.9,3.5c0.3,1.2,0.1,2.6-0.7,3.6l-2.6-1.6
		c0.3-0.7,0.4-1.3,0.2-1.9c-0.1-0.5-0.5-1.1-1.3-1.5c-0.6-0.5-1.3-0.7-2-0.8c-0.4,0-0.8,0.2-1,0.5c-0.2,0.3-0.2,0.7-0.1,1.1
		c0.1,0.4,0.7,1.3,1.8,2.4c1.1,1.1,1.8,2.1,2.2,2.7c0.8,1.5,0.7,3.3-0.3,4.6c-0.5,0.7-1.2,1.3-2.1,1.6c-0.8,0.4-1.7,0.5-2.6,0.3
		c-1-0.2-2-0.7-3.1-1.4c-1.6-1.1-2.6-2.3-3-3.6c-0.4-1.5-0.1-3.1,0.7-4.4L502.7,253.6z M490,245.3l2.7,1.4c-0.3,0.8-0.4,1.6-0.2,2.4
		c0.3,0.8,0.8,1.4,1.5,1.8c0.9,0.5,1.5,0.8,2.2,0.7c0.7,0,1.1-0.3,1.4-0.9c0.2-0.3,0.2-0.6,0.2-0.9c0-0.3-0.2-0.8-0.5-1.1
		c-0.6-0.7-1.1-1.3-1.8-2c-1.2-1.2-2-2.2-2.2-3.1c-0.4-1.1-0.2-2.4,0.4-3.4c0.4-0.7,1-1.2,1.8-1.5c0.8-0.3,1.6-0.5,2.4-0.3
		c1,0.2,2,0.5,2.9,1.1c1.6,1.1,2.6,2.2,3,3.4c0.4,1.2,0.2,2.6-0.4,3.7l-2.7-1.5c0.3-0.8,0.4-1.3,0.2-1.9s-0.7-1.1-1.4-1.5
		c-0.6-0.4-1.3-0.7-2.1-0.7c-0.4,0-0.7,0.2-0.9,0.5c-0.2,0.3-0.2,0.7-0.1,1.1s0.8,1.3,1.9,2.4c1.1,1.1,1.9,2,2.2,2.6
		c0.9,1.4,0.9,3.2,0,4.6c-0.5,0.8-1.2,1.4-2,1.8c-0.8,0.4-1.7,0.5-2.6,0.3c-1.1-0.2-2.2-0.6-3.2-1.2c-1.4-0.8-2.5-2-3.1-3.5
		C489.1,248.2,489.2,246.6,490,245.3L490,245.3z M474.4,241.1l8-13.2l9.7,6l-1.3,2.2l-7-4.4l-1.8,3l6.6,4.1l-1.4,2.2l-6.6-4.1
		l-2.2,3.6l7.4,4.4l-1.3,2.2l-9.9-6H474.4z M451.6,222.4l1.2-2.2l5.9,3l-2.7,5.5c-0.9,0.2-2,0.3-3.3,0.2c-1.3-0.1-2.5-0.5-3.6-1.1
		c-1.3-0.6-2.5-1.6-3.3-2.9c-0.8-1.1-1.1-2.5-1.1-3.8c0.1-1.4,0.4-2.8,1.1-4.1c0.7-1.3,1.6-2.5,2.9-3.3c1.2-0.8,2.5-1.2,4-1.2
		c1.1,0,2.2,0.3,3.5,1.1c1.8,0.8,2.9,1.9,3.4,3.1c0.6,1.2,0.7,2.6,0.3,3.8l-3-0.9c0.2-0.7,0.1-1.5-0.2-2.2c-0.3-0.7-0.9-1.1-1.8-1.5
		c-1-0.6-2.3-0.7-3.4-0.3c-1.1,0.3-2.1,1.3-2.9,2.9s-1.1,3-0.8,4.2c0.3,1.2,1.1,2.1,2.2,2.6c0.5,0.3,1.2,0.5,1.9,0.5
		c0.7,0.1,1.3,0.1,2,0l0.9-1.8L451.6,222.4L451.6,222.4z M352.6,198l2.2-15.4l4.6,0.8l1.2,10.8l4.3-9.9l4.6,0.7l-2.2,15.2l-3-0.4
		l1.9-12l-4.8,11.5l-3-0.4l-1.2-12.4l-1.8,12.1L352.6,198L352.6,198z M337.1,196.1l1.4-15.4l11.3,1.1l-0.2,2.6l-8.2-0.8l-0.3,3.3
		l7.7,0.8l-0.3,2.6l-7.7-0.8l-0.3,4.2l8.6,0.8l-0.2,2.6L337.1,196.1L337.1,196.1z"/>
	<g>
		<path class="st5" d="M285.8,186.5c0-1.6,0.3-2.9,0.8-4c0.4-0.8,0.9-1.5,1.5-2.1c0.6-0.6,1.2-1,2-1.3c1.1-0.3,2.2-0.5,3.3-0.5
			c2.3,0,4.1,0.9,5.5,2.2c1.4,1.7,2,3.9,1.8,6c0,2.4-0.8,4.4-2.2,5.8c-1.5,1.4-3.5,2-5.5,1.9c-2,0-3.9-0.8-5.3-2.2
			C286.3,190.7,285.6,188.6,285.8,186.5z"/>
		<path class="st6" d="M289,186.5c0,1.6,0.3,3,1.1,4c0.8,0.9,1.8,1.4,3.1,1.4c1.2,0.1,2.3-0.4,3.1-1.2c0.8-0.9,1.1-2.2,1.2-4.1
			c0-1.8-0.2-3.1-1.1-4c-0.7-0.9-1.8-1.4-3-1.4c-1.2,0-2.3,0.4-3.1,1.3C289.4,183.5,289.1,184.8,289,186.5L289,186.5z"/>
	</g>
	<g>
		<path class="st5" d="M303.9,194.4l0.2-15.4h6.6c1.6,0,2.7,0.2,3.5,0.5c0.8,0.2,1.3,0.8,1.8,1.4c0.4,0.7,0.7,1.5,0.7,2.5
			c0,1.1-0.4,2.1-1.1,2.9c-0.8,0.8-1.9,1.2-3,1.3l1.6,1.3c0.4,0.4,1,1.3,1.6,2.5l1.9,3.1H314l-2.2-3.5l-1.5-2.2
			c-0.3-0.3-0.6-0.5-1-0.7c-0.5-0.1-1-0.2-1.5-0.2h-0.7v6.4L303.9,194.4L303.9,194.4z"/>
		<path class="st7" d="M307.2,185.7h2.2c1.5,0,2.5,0,2.9-0.2c0.3,0,0.7-0.3,0.9-0.5c0.2-0.2,0.3-0.8,0.3-1.1c0-0.7-0.1-1.1-0.4-1.3
			c-0.2-0.3-0.7-0.5-1.1-0.7h-2.2l-2.5-0.1v3.8L307.2,185.7z"/>
	</g>
	<g>
		<path class="st5" d="M321.5,179.8l5.7,0.3c1.2,0,2.2,0.1,2.9,0.3c0.9,0.3,1.6,0.8,2.2,1.5c0.6,0.8,1.1,1.7,1.3,2.6
			c0.3,1,0.4,2.2,0.3,3.6c0,1.1-0.2,2.2-0.5,3.3c-0.4,1.1-1.1,2-1.9,2.6c-0.6,0.5-1.4,0.9-2.2,1.1c-0.7,0.2-1.6,0.2-2.7,0.2
			l-5.8-0.3L321.5,179.8L321.5,179.8z"/>
		<path class="st7" d="M324.5,182.6l-0.5,10.2h4.2c0.5,0,1-0.2,1.3-0.5s0.7-0.8,0.9-1.4c0.2-0.7,0.4-1.6,0.4-2.9l-0.1-2.7
			c-0.2-0.6-0.5-1.1-0.9-1.5c-0.4-0.4-0.8-0.6-1.3-0.8c-0.8-0.2-1.7-0.3-2.5-0.3H324.5z"/>
	</g>
	<g>
		<path class="st5" d="M396.8,207.3l3.6-14.9l4.8,1.1l3.5,1.1c0.8,0.4,1.4,1.1,1.8,2.1c0.4,0.9,0.4,1.9,0.2,3.1
			c-0.2,0.9-0.5,1.6-1.1,2.2c-0.8,1-2,1.5-3.3,1.5c-0.8,0-1.9-0.2-3.3-0.5l-1.9-0.5l-1.3,5.7L396.8,207.3L396.8,207.3z"/>
		<path class="st7" d="M402.8,195.6l-0.9,4.2l1.6,0.4c1.1,0.2,2,0.4,2.4,0.3c0.9-0.1,1.6-0.8,1.8-1.6c0-0.5,0-1-0.2-1.4
			c-0.2-0.4-0.6-0.8-1.1-1l-2.1-0.5l-1.4-0.3H402.8z"/>
	</g>
	<g>
		<path class="st5" d="M411.1,211.6l5.2-14.5l6,2.2c1.6,0.5,2.6,1.1,3.3,1.5c0.5,0.5,1,1.1,1.1,2c0.1,0.9,0.2,1.6,0,2.5
			c-0.4,1.1-1.1,1.9-2,2.4c-0.9,0.4-2,0.5-3.3,0.3c0.4,0.5,0.9,1.1,1.1,1.8l0.9,3l0.7,3.4l-3.4-1.2l-1.1-4c-0.2-0.9-0.5-1.8-0.8-2.6
			c-0.1-0.3-0.4-0.6-0.7-0.9c-0.2-0.3-0.7-0.5-1.4-0.8l-0.5-0.2l-2.2,6.1L411.1,211.6L411.1,211.6z"/>
		<path class="st7" d="M417,204.2l2.1,0.8c1.4,0.5,2.3,0.8,2.7,0.8c0.3,0,0.7,0,1-0.3c0.3-0.2,0.5-0.5,0.7-1c0.2-0.4,0.2-0.9,0-1.3
			c-0.2-0.4-0.5-0.8-0.9-1l-2.2-0.8l-2.2-0.8l-1.3,3.6L417,204.2z"/>
	</g>
	<g>
		<path class="st5" d="M429.1,211c0.4-1.3,1-2.5,1.9-3.5c0.6-0.7,1.2-1.2,2-1.6c0.7-0.4,1.4-0.6,2.2-0.8c1.1,0,2.2,0,3.4,0.4
			c2,0.5,3.7,1.8,4.6,3.6c0.9,1.8,0.9,3.8,0.2,6.3c-0.5,2.1-1.9,3.9-3.7,4.9c-1.6,1-3.6,1.1-5.7,0.4c-2-0.5-3.7-1.8-4.6-3.6
			C428.5,215.2,428.4,213,429.1,211L429.1,211z"/>
		<path class="st7" d="M432.2,211.9c-0.4,1.6-0.5,3.1,0,4.2c0.5,1.1,1.3,1.8,2.5,2.2c1.1,0.3,2.2,0.2,3.3-0.4
			c1.1-0.5,1.8-1.8,2.3-3.5c0.5-1.6,0.5-3,0-4.1c-0.4-1.1-1.3-1.9-2.4-2.2c-1.1-0.4-2.3-0.3-3.3,0.3
			C433.5,209,432.7,210.1,432.2,211.9L432.2,211.9z"/>
	</g>
	<g>
		<path class="st5" d="M459.1,232.4l7-13.6l5.8,3c1.1,0.5,2.1,1.2,3,2.1c0.5,0.5,0.9,1.2,0.9,2.1s0,1.6-0.4,2.4
			c-0.4,1-1.2,1.8-2.2,2.2c-1.1,0.2-2.2,0.2-3.4-0.2c0.4,0.7,0.7,1.3,0.9,1.9c0.2,0.7,0.3,1.6,0.4,3.1l0.2,3.5l-3.3-1.6l-0.4-4.1
			c-0.1-0.9-0.2-1.8-0.3-2.7c-0.1-0.4-0.3-0.8-0.5-1.1l-1.3-0.8l-0.5-0.3l-3,5.7L459.1,232.4L459.1,232.4z"/>
		<path class="st7" d="M465.9,226l2.1,1.1c1.3,0.7,2.2,1.1,2.5,1.1c0.3,0,0.8,0,1.1-0.2c0.3-0.1,0.5-0.4,0.8-0.9
			c0.2-0.4,0.3-0.9,0.2-1.3c-0.1-0.4-0.4-0.8-0.8-1.1c-0.6-0.4-1.3-0.8-2-1.1l-2.2-1.1L465.9,226z"/>
	</g>
	<g>
		<path class="st5" d="M516,260.5c0.7-1.1,1.6-2.1,2.7-2.9c0.7-0.5,1.6-0.8,2.4-1c0.8-0.2,1.6-0.2,2.4,0c1.1,0.2,2.1,0.7,3.1,1.3
			c1.7,1.1,2.9,2.8,3.3,4.8c0.3,1.9-0.2,4-1.5,6c-1.1,1.8-2.9,3.1-4.9,3.6c-2,0.4-4.1,0-5.7-1.2c-1.7-1.1-2.9-2.8-3.3-4.8
			C514.1,264.5,514.7,262.5,516,260.5z"/>
		<path class="st7" d="M518.7,262.3c-1.1,1.4-1.4,2.7-1.2,4c0.2,1.1,0.8,2.1,1.8,2.7c1.1,0.8,2.2,1,3.3,0.7c1.1-0.3,2.2-1.1,3.2-2.6
			s1.4-2.9,1.2-4c-0.1-1.1-0.8-2.1-1.8-2.9c-1-0.8-2.2-0.9-3.3-0.5c-1.1,0.2-2.2,1.1-3.3,2.6H518.7z"/>
	</g>
	<path class="st5" d="M379.5,201l2.5-10.8l7.9,1.9l-0.3,1.8l-5.8-1.3l-0.5,2.4l5.4,1.2l-0.4,1.9l-5.4-1.3l-0.7,3l6,1.4l-0.4,1.8
		L379.5,201L379.5,201z"/>
</g>
</svg>
