<?xml version="1.0" encoding="utf-8"?>
<!-- Generator: Adobe Illustrator 24.0.1, SVG Export Plug-In . SVG Version: 6.00 Build 0)  -->
<svg version="1.1" id="flag-icons-bt" xmlns="http://www.w3.org/2000/svg" xmlns:xlink="http://www.w3.org/1999/xlink" x="0px"
	 y="0px" viewBox="0 0 800 480" style="enable-background:new 0 0 800 480;" xml:space="preserve">
<style type="text/css">
	.st0{fill:#FFD520;}
	.st1{fill:#FF4E12;}
	.st2{fill:#FFFFFF;stroke:#000000;stroke-width:0.4;}
	.st3{fill:none;stroke:#000000;stroke-width:0.4;}
	.st4{fill:none;stroke:#000000;stroke-width:0.4;stroke-linecap:round;}
	.st5{fill:none;stroke:#000000;stroke-width:0.4;stroke-linecap:round;stroke-linejoin:round;}
	.st6{fill:#FFFFFF;stroke:#000000;stroke-width:0.4;stroke-linecap:round;}
</style>
<path class="st0" d="M0.3,0H800v480H0.3V0z"/>
<path class="st1" d="M0.3,480H800V0L0.3,480z"/>
<g>
	<g>
		<path class="st2" d="M425.4,150c-4-1.3-6.6,0.7-6.4,5.9c0,5.1,2.8,8,6.8,6.1L425.4,150z"/>
		<path class="st2" d="M428.9,140.4c-3.3-2.6-6.4-1.5-8,3.4c-1.5,5,0.1,8.6,4.5,8L428.9,140.4z"/>
		<path class="st2" d="M434.4,131c-2.8-3-6-2.4-8.4,2.2c-2.3,4.6-1.3,8.5,3.2,8.7L434.4,131L434.4,131z M430.8,176.5
			c-4.9,1.8-5.4,8.5-2.3,12.6c3,4.1,8.7,4.9,11.8,0L430.8,176.5z"/>
		<path class="st2" d="M425.1,162.3c-4.6-1.5-8.8,4.7-9.5,10.3c-0.9,7-11,9.4-5.4,20.1c1.2-6.8,5.7-10.6,9.3-10.8
			c3.6-0.3,9-1,11.3-5.4L425.1,162.3L425.1,162.3z M439.8,189.9c-5.4,1.3-6.2,8.5-2.3,13.6c3.3,4.4,13.7,3.4,13.4-1l-11-12.6H439.8z
			 M455.1,233.3c0.3-4.7-7.2-6.5-10.8-5.6c-3.6,1-10.5-0.1-12-4c-1.4,3.1,0.5,6.5,5.7,8.2c4,1.2,3.9,4,2.7,5.4
			C443.7,237.8,452.4,237.8,455.1,233.3L455.1,233.3z"/>
		<path class="st2" d="M450.9,203.7c-5.3-2.4-8.4,1.2-10.4,4.6c-3,5-12.1-1.4-15.2,5.3c4.2-1.8,8.4,2,10.4,3.3
			c5.7,3.7,16.6,2.6,18.2-6.2L450.9,203.7L450.9,203.7z"/>
		<path class="st2" d="M454,209.8c-5.3,4-7.4,8.8-7.2,12c0.1,3.2,4.6,10.3,9.5,10.7C459.1,226.7,460.6,214.5,454,209.8z M432,234.7
			c0-2,2.8-2.7,4.8-2c1.9,0.6,4.9,2.5,3.8,4.6L432,234.7L432,234.7z M403,224c-0.5-2.3,3.2-6.3,8.2-4.1s5.7,6.4,3.6,8.1L403,224
			L403,224z"/>
		<path class="st2" d="M415.2,228.4c-0.4-1.3,3.3-3.9,9.4-2.4c6.2,1.6,7.7,5.6,7.5,8.7L415.2,228.4z M402.3,224.1
			c3.3-2.4,2-7-0.9-8.5c-5.2-2.6-3.3-9.2-6.7-10.5c-3.3-1.3-6.5-3.6-6.7-6c-1.6,3.3-0.6,6.2,1.7,8.3c2.3,2-1.8,10.4,1.2,12.6
			L402.3,224.1L402.3,224.1z M333.3,222.3c-2.7-4.2-9.1-3.5-11.8-0.5c-2.7,3-2.3,7.3,0.2,9.3L333.3,222.3z M348.8,216
			c-1-5.7-7.9-6.3-11.6-4.9c-3.8,1.4-6.3,7.1-3.9,11.2L348.8,216z"/>
		<path class="st2" d="M359,215.2c2.5-4.7-2.3-11.8-7.7-12.8c-4.5-1-9.8-0.9-11.6-5.3c-1,3.8,1.8,6.3,5.2,8.5
			c3.3,2.2-0.6,7.8,4.8,11L359,215.2L359,215.2z"/>
		<path class="st2" d="M358.6,215.4c-1.2-3.4,1.1-8,5.7-7.6c4.7,0.3,7.3,3.6,5.3,7.9L358.6,215.4L358.6,215.4z"/>
		<path class="st2" d="M368.9,215.7c-0.7-3.6,2.2-7.8,6.8-6.8c4.5,1,6.6,4.7,4,8.5l-10.8-1.8V215.7z"/>
		<path class="st2" d="M379,217.3c-0.4-3.6,2.7-7.6,7.2-6.4c4.5,1.2,6.4,5,3.6,8.7l-10.7-2.3H379z M301.4,276.3c-8.7,0-10.8,2-12,11
			C287.8,298.3,302.9,299.6,301.4,276.3z"/>
		<path class="st2" d="M305.2,264.7c-13.2-5-20.4,16-33.6,12.2c4.7,7.5,16.1,0,20.4,0.8C299.2,279,314.8,276.3,305.2,264.7z
			 M296.6,293.4c-6.6-3-13.6,7-12.4,11.5C285.9,310.4,300.9,305.9,296.6,293.4z M266,336.7c3.6,1,8,3,7.2,10c-0.8,7-14,21.1-25.8,22
			c-11.8,0.7-16,15-26.3,11c9.6-1.8,9.6-12.6,17-16c-5.4-2-8.2,10.3-15.2,10.3s-10.3,11.1-18.8,10.3c-8.5-0.7-9.3,13.5-26.4,13.7
			c-13,0.1-29,15.3-34.9,8.7c12.7-1.8,17.8-8.8,25.3-16.5c12-12.3,25.7-6.8,30.4-17.7c-5.4,3.6-11.8,5.5-18.3,5.4
			c-8-0.2-16.6,12.6-25.5,7c5.1-0.7,8.5-2.9,13.9-8.6c5.5-5.8,13.7-2,20.1-8c10-9.2,18.7-1.5,28.3-13c-2.7-1.4-8.5-0.5-13.9,2.4
			c-5.4,2.8-12.3-2-18.5,1.4c0.7-7.6,15.2-3.3,24.2-8.5c10.2-6,18.6-4.2,26.6-3.5c-11.2,0-15.5-10.7-31-7.6
			c-6.7,1.4-12.1-9.3-18.8-3.9c0.2-4,7.2-7.2,14.4-3.3c7.2,3.9,10.1-3.4,24.5,5.7c6,3.7,16.1-2.4,22.5,1.6c-0.8-2.4-4.5-4-8.8-3.6
			C240.9,330.4,258.4,331.1,266,336.7z"/>
		<path class="st2" d="M277.4,328.3c-5.6-4.4-13.5,0.9-19-1.2c0,3.6,1.9,9,7.8,11.1C268,336.9,276.2,329.8,277.4,328.3z"/>
		<path class="st2" d="M286.3,315.8c-8.9-4.5-10.4,6.7-17.4,4.4c0.3,3.2,2.9,7.2,8.5,8.1l9-12.5H286.3z"/>
		<path class="st2" d="M291.6,305.6c-13.1-5.1-14.8,7.5-22.5,5c1.8,4.4,12.8,6.8,18.5,5.2L291.6,305.6z M309.6,250.4
			c-3.5-5-10.8-1-12,4.9c-1.1,5.8,1.7,13.9,6.6,12l5.4-17V250.4z"/>
		<path class="st2" d="M318.5,235c-6-1.5-13-0.8-12.2,5c-2.4,1.1-3,8.7,3.3,10.4l8.9-15.5V235z"/>
		<path class="st2" d="M322.5,231c-6-7-12.5-6.9-16.2-4c-6.9,5.5-13.5,2.4-13.7,7.8c4.1-3.2,7.8,0.6,11-0.5
			c3.4-1.2,5.9,5.3,15.2,2.6L322.5,231L322.5,231z M308.2,334.9c0.9,1.7,6.4,2.4,9.1-0.4c3.6-3.8-0.3-14.2-6-15
			C305.6,318.8,305.1,331.3,308.2,334.9z"/>
		<path class="st2" d="M301.8,335.1c8,3,11.5-3.7,7.2-8C306.8,329.9,304.4,332.6,301.8,335.1z"/>
		<path class="st2" d="M271.4,346.2c-1.6,4.7-9.6,5.4-18.6,19.8c-9,14.5-17.6,8.4-19.8,18.3c10.8-8.7,19.3-3,25.8-11.6
			c9.7-13.1,17.8-11.2,21.6-20c5.4-12.7,29-12.4,30.4-32.3C302.8,318.9,277.5,340.3,271.4,346.2L271.4,346.2z M474.6,151.5
			c10.3,3.4,10.5,16.7,22.4,21.1c11.8,4.4,13,15,22.7,12.4c-9-2.5-8.4-12.9-17.8-15.5c-11-3-15.2-19.8-24-22.4 M521.9,221.4
			c1.8,4.2,1.5,11.5-5,13.4c3.5,2.2,8.7,0.2,11.5-4.6c-4.2,9.4-1.4,17.9,5.3,19.6c-3.2-6.6,4-9.7,1.7-14c4.2,1.9,8,7.7,7.8,11.3
			c5.6-6.2-4-14.5-2.3-20.3L521.9,221.4z M455,287.6c-6.3-5.5-9,1.5-12-1c-3-2.2-6.8-2.5-8.3-0.3c5.4,0.2,2.8,4.4,13.3,5.4
			c-10.5,0.7-8.6,12.5-15.6,11.9c7.4,7,11.3-6.3,17.4-4.1c-1.8,0.5,2.8,4.7-0.4,10.4c5.2-0.1,7.3-7.3,8-11L455,287.6z M316,347.8
			c-2.2-2-9-2.9-11.5-1.3c-2.6,1.5-1.7,2,1.4,2.2s7,5.2,0.4,5.5c-3.1,0.1-2,7.6-8.5,8.1c2.6,3.2,10.2,1.1,12.9-2.4
			c-0.5,2.9,3.3,5.5,1.8,9c4.7,0.5,2-9.7,9.5-9.2c-3,0.4-1.8,7.4,3.6,5.6c-3.2,1.5-1.5,5.3,2,4.4c-2.2,0.7-3,3.7,0.2,5.4
			C330.9,370.8,327.4,355.6,316,347.8L316,347.8z M596.6,205.7c9.9,0.7,18.4-6.7,19.2-16.5c0.7-9.9-6.7-18.4-16.5-19.2
			c-0.9-0.1-1.8-0.1-2.7,0c-9.9,0.7-17.3,9.3-16.5,19.2C580.7,198,587.8,205,596.6,205.7z"/>
		<path class="st2" d="M503.4,227.2c5.5-5.1,13.7-7.7,19.4-3.8c5.6,3.8,24.4,8.4,33.7,2c9.3-6.4,13.7-9.8,17.8-9
			c3,4.6,6.8,6.8,11.4,7.2c1.4,1.6,6.5,2.8,9.3,2.5c4.1,1,9.1-0.3,13.1-4.7c6.2,1,12-3.7,14.2-10.7c6.6-0.7,7-8,2.8-13
			c-3.8-0.7-0.9-13.8-14.9-11.2c6,3.6,1.4,10.8,6.3,14.2c-3.3,0-7.7,1.4-8.7,6.4c1.3-3.4-0.2-5.8-1-6.5c0-3-6.5-10.3-12.7-7.6
			c4.4,1,2,8,5.2,10.8c-2.5,0.1-4.7,1.3-6.2,3.3c-1.7-3-7.6-6-11.2-6.3c0-1-0.2-3-0.7-4.1c-1.6-3.1-3-6.8-2.3-11.5
			c-2.9,3.4-5.3,7.3-7.2,11.4c-4.9-3.4-17,1.5-22.7,2.8c-5.6,1.3-24.7-1.8-29-6.4c-6.1-4.9-13.3-8.3-21-9.8
			c-11-3.2-11-15.2-23.1-23.5C475.6,174.7,498.3,222.1,503.4,227.2L503.4,227.2z M377.2,341.1c9.6,0,17.3-7.7,17.3-17.3
			c0-9.6-7.7-17.3-17.3-17.3s-17.3,7.7-17.3,17.3C359.9,333.4,367.6,341.1,377.2,341.1z"/>
		<path class="st2" d="M336,327.8c3.5,4.5,9.4,4.2,11.9,3.9c2,5.4,8.6,5.2,11.4,8.2c2.9,3,12.5,2.7,15.3,1c-2.5-0.2-5.9-1.8-9-4.5
			c-4-3.2-2.2-9.8-5.2-12c1.9-2.4,2.7-5.6,2.2-8.6c2.4-1.4,4.2-3.7,4.4-4.9c3.6-0.2,7-1.6,9.6-4.1c2.2,2,7.7-0.6,10.7,2.8
			c0.6-8.5-7.5-13-13-10.1c-2.1-1.2-7.9-0.4-9,1.1c-1.7-0.8-6.8,1.8-9,3.5c2.5-1.4,2.9-5.7,1.9-7.2c2.2-1,4.6-3.9,4.9-6
			c3,0.5,7.7-1.6,9.7-1.1c-3.3-4.4-8.8-6-14.5-5.5c-5.9,0.3-8.4,4.4-9.2,8.8c-3.4,2.1-4.6,9-3.3,11.5c-2,0-3.9,1.9-4.6,3
			c-3-1.2-6.2-1.9-9.4-2 M333.1,298.6c-1.2-3.4,0.3-6.4,1.1-9c2-6.8,0.8-8.6-5.3-7.7C329.3,287.7,330.7,293.3,333.1,298.6z"/>
		<path class="st2" d="M328.6,282.3c1.6,1.6,7,2.3,7.6-2.6c0.7-5.6-1.6-7.8-6.5-5.6c-0.4,1.3-0.8,6.5-1,8.2H328.6z"/>
		<path class="st2" d="M329.8,273.9c2,0.8,6.5,2.5,9-2.3c2-4-0.7-7-5-6.8C332.8,266,330.8,270.1,329.8,273.9L329.8,273.9z"/>
		<path class="st2" d="M333.6,264.4c0.5,1.6,5.8,6.7,9.6,3c3.9-3.7,3.9-9.3-1.9-11.3C339.8,256.3,335.1,261.7,333.6,264.4
			L333.6,264.4z"/>
		<path class="st2" d="M341.3,256c1.1,3.3,4.8,8.8,11.5,6.3c6.7-2.6,3.8-11,0.7-12.7C349,250.9,344.9,253.1,341.3,256L341.3,256z"/>
		<path class="st2" d="M353.5,249.6c-0.5,2.9,0,10.6,9.2,10.5c9.1-0.2,6.6-10.9,4.2-12.4c-3.7,0-10,0.1-13.4,2L353.5,249.6z"/>
		<path class="st2" d="M367.3,248c-1,2.3-3.3,16.7,14.6,12.7c2.3-0.5,8.3-13.8-14.6-12.6V248z"/>
		<path class="st2" d="M377.1,249.4c-1.8,1.8,2.8,16.3,15,13.9c12-2.5,1.9-16.3-15-14V249.4z"/>
		<path class="st2" d="M387.4,251.6c-2,4,1,15.8,15.9,15.8C416.8,267.4,402.6,251.8,387.4,251.6L387.4,251.6z"/>
		<path class="st2" d="M399.1,255c-1,2.3-2.1,14.8,15.5,15.9C427.3,271.7,424.2,253.6,399.1,255z"/>
		<path class="st2" d="M418,260.3c-2.1,3.9-4.4,13.5,14.9,14.3c12.3,0.5,4.7-14-14.8-14.3H418z"/>
		<path class="st2" d="M434.1,263.3c-2.8,3.8-0.7,11.4,6.5,12.8c9,1.8,10.3-6.7,4.1-10.8C438.5,261.3,434.1,263.3,434.1,263.3z"/>
		<path class="st2" d="M443,265c-2.1,3.7-0.9,12.4,12.8,12.4c2.8,0,13.6-11-12.9-12.3L443,265z M337.1,433c11,0,20-9,20-20
			s-9-20-20-20s-20,9-20,20S326.1,433,337.1,433z"/>
		<path class="st2" d="M484.1,141.7c-2.2,2.4-4,5.1-5.4,8c-6.7,20,11.2,35,21.6,56.7c8.7,19.8,6.6,42.8-5.6,60.7
			c-4.4,5.8-3.1,7.5-8.8,13.4c-2.2,2.3-4.6,5.2-3.8,13.4c3.6-1.3,8.7,2,9.7,5c2.6-1.4,6.2-0.9,7.5,0.7c4.4-2,8-1,11.9,3
			c3.3-0.4,7,0,10.3,3.7c1.8-3.6,5.4-5,8-4.1c-0.3-4.7,4.3-8,8.4-6.2c-1-4.1,1.5-8.2,5.6-9.2c1.4-0.3,2.9-0.3,4.2,0.2
			c4.7-3.6,14-3.9,18.6,1.5c-8.3-2.3-8,6.5-15,5.7c1.8,5.1-2.8,8.1-7.4,9.8c3-1.4,6.2-3.1,7.2-1.3c2.6-2.3,7.7-1.4,9-0.3
			c3.4-1,6.7-0.2,8.2,3.9c4.7,2.8,7.8,10,4.4,15.4c-1-5.6-4.9-5.4-6.4-7.7c-3.6,1.3-7.2,1.3-8.3-1c-2,2-9,3.9-12,0.8
			c-1.2,4.6-5.2,8.5-9.9,8.5c1.3,3.6-2.3,9.7-5.1,12.8c4.4,2.3,3,7.5,2,10.6c6.8,1,1,7,12.7,10.8c-5.7,1.8-16.8,0-18.3-7
			c-5.7-0.2-9.5-5.9-9.3-11.8c-4.4-4.1-5-10,1-14.2c-5.1,1.6-8-6.7-15.4-3.3c-3.7,1.7-13.5-1.2-13.4-4.6c-1.5,2.5-11,1.5-12.2-2.9
			c-3.1,1.7-10.3-1.1-10.2-5.4c-4,1.8-9.4-1.4-9.1-5.5c-3.8-0.5-4.2-3.9-4-6.7c-3.3-1.6-2.4-4.8-1-8.6c-2.4-2.6-1.4-6.2,0.4-9.6
			c-2.5-2.6-2-5.6-1.3-9.3c-12.3-1-27.8-4-63.3-14.9c-53.6-16.5-68,22.2-56.2,46.4c13.7,28-1.5,34,3.1,54.8c5,1,7.5,5.2,7.2,9.6
			c3,0.1,5,2.8,4,8c2.8-0.5,5.6,0.4,7.6,2.3c1.8-3.4,7.8-4.2,10.8-0.3c6.7-0.5,10.1,5,9.8,11.6c3.3,6.2,2.7,13.7-1.5,19.3
			c0.4-2.7,0-6.5-0.1-8.9c-0.3-4.2-6.2-5.1-5.6-8.6c-3,0.3-6-1.4-7-3.7c-1.8,1.6-4.3,2.1-6.6,1.3c3.4,1.5,6.2,7.7,5.1,11.8
			c1.8,3.1,1.4,8.8-0.7,11.2c-1,5-5,6.8-10,4.6c2.9-1.8,3.9-5,3.8-7.7c-1.7-1.7-2.7-3.9-2.9-6.3c-5,0.8-12-3.5-13.2-5.2
			c-11,0-20,9-20,20c0,0,0,0.1,0,0.1c-0.6-4.1-5.8-8.2-5.1-11.7c-3.1-9.5,1.3-18.4,13.9-20.2c-1.6-3.6,3.8-7.3,1.8-11.4
			c-4-7.3-9-14.1-14.7-20.1c4.4-7.5,3-17.5,0.5-23.7c-3.7-8.9-7.2-6.7-20.3,7.7c-21.4,23.5-50,17-75.2,32.5c-6.7,4-13.4,5.6-6.2-1.6
			s26.2-14.4,38.6-20.6c23.2-11.6,42.8-30.9,50.5-68.5c18.1-88.4,85-59.2,127.2-42.8c39.7,15.5,32.5-19.5,12.4-40.7
			c-24.2-25.3-19.3-45.3-8-61.3C452.9,127.8,492,134.9,484.1,141.7L484.1,141.7z"/>
		<path class="st2" d="M555.9,358.8c12.2,0,22-9.9,22-22c0-12.2-9.9-22.1-22-22.1l0,0c-12.2,0-22,9.8-22,22s9.8,22,22,22l0,0V358.8z
			"/>
	</g>
	<g>
		<path class="st3" d="M471.8,142.7c-5,21.7-0.8,31.5,6.4,41c14.9,19.7,26.8,64.6,9.8,94"/>
		<g>
			<path class="st4" d="M497.5,252.3c2-0.7,6-3.2,6.8-7.4 M499.1,242.9c0.6-3.7,6.4-5.3,6.5-9.3 M499.2,228.4
				c-0.4-3.9,5.8-7.4,4.9-11.2 M495.8,214.5c-0.5-2.2,5.2-6.3,3.6-9.8 M491.6,200.9c-1.2-2.4,2.7-5.2,1-7.8 M485.4,190.1
				c-0.4-1.6,2-5.3,0.7-7.5 M479.2,177.4c0.5-0.7,2.6-2.2,1.8-4.1 M475,168c0.8-0.4,3.3-1.2,3-3"/>
			<path class="st5" d="M346,410.9c-5-1.8-11.5,0.7-12.8,5.1 M337.1,420c0.6-4.4,7.3-6.3,9.3-4.3c-4.2-2.3-6.3,6-2.5,6.2
				 M378.5,318.1c-3,1.6-4,7.2,0,11.5 M383.1,319.4c-2.1,1.8-2,7.2,1.2,8.5c-2.7-2,0-5.3,2-5.4c1.9-0.1,3.2,2.2,0.8,4.5
				 M564.1,332.2c-7.2-2-13,6.4-6.4,13.9c-0.2-7.2,5-12,11.3-10.7 M566,340.4c-1.5,0-2.7,1.2-2.7,2.7v0c0,1.4,1.2,2.8,3.2,2.8
				c1.3,0,2.4-1.5,2.4-2.7 M591.5,182.2c1.2,4.4,7.2,6.3,12,5.2 M603.5,184.6c-3.7,0.1-6.8-3.4-6.6-6.3c0,2.2,5,3.2,6.6,1.8"/>
			<path class="st4" d="M347.9,331.7c-1-2.6,3-5.2,3.2-7.6c0.1-2.5,4.6-4.4,9.3,0.2 M358.2,296.9l-2.5,1.2 M367.1,310.9
				c-1.1,0-3.4,0-4.6-0.9 M362.5,315.8c-0.8,0.5-2.8,1.2-4,1.5 M318.4,393.6c-0.2,2.3,2.2,5.7,3.4,6.7 M328.4,388.1
				c-1.4,2.3-1.9,5-1.3,7.6 M347.6,395.7c-2.3-1.5-0.8-5.4-1-8c-0.3-2.6,2.7-6.7,8.5-3.2 M326,381c2.3-0.4,4.7-0.3,6.3,0.4
				 M355.3,373.7c-0.8,1.2-1.3,2.6-1.4,4 M366.2,373.4c-1.8,0-3.4,1.3-4.2,2.6 M341.2,307.5c2,0.7,7.4,4,7.6,7.4 M363.1,290.7
				c-6.3-0.1-8.8-6.5-4-6.5 M374.4,299.4c-2.4,1-1.3,5.2,2.2,7.3 M359.3,339.8c-1.2-1.6,0.4-6,4.4-4.7 M368.7,386.8
				c0.3-4,5.2-6.2,7.2-1.8 M350.4,398c-0.3-4.3,2-5.7,3.8-6c2-0.2,4.7,1.4,6,4.2 M312.1,401.2c0.2-2.6,2.4-5.3,4.7-4.9 M547.8,286.9
				c-1.7,1.2-2.8,6.7,3.5,7.2 M538,296c0,0.6,0.8,1.5,1.3,2 M568.3,306.3c-1.6-1.3-6,4-2,7.7 M527.3,349.6c-0.9-3.7,2.5-4.7,5.8-3.9
				 M519.1,323.5c2-1.2,4-2.7,6.4-3.3 M518.1,337.7c0-3,1.6-5.7,3-6.4 M529.5,302.2c-0.2,3.2,0.7,6.4,2.4,9.2 M560.1,302.4
				c-1.9,0.6-3.5,1.3-4.2,2.9 M558,313c1-0.8,2-1.7,2.4-2.3 M606.7,200.5c0,3.6-4.5,5.6-7.5,3.3 M616.5,200.7c2,1.5,8.9,0,7.3-4
				 M608,221.4c-1.9-0.5-3.6-1.6-4.9-3 M622.2,210.7c-2.3,0.5-3.9,0-5-0.5 M585.6,223.6c2.3-0.1,4.5-0.6,6.5-1.6 M582,200.8
				c-1.7-0.2-3,0.1-3.9,0.8 M607.9,207.1c-0.5,2-1.5,3.8-3,5.2"/>
			<path class="st5" d="M577.5,212.8c3.2-1.4,7.2,9.5,15,5.7 M593.1,207.1c-1.1,1.7-1.7,3.6-1.8,5.6"/>
		</g>
		<path class="st3" d="M439,190.4c1-0.2,2.9-0.5,3.3-1.8 M306.5,310.3c3.9,2.2,6.6,5.9,5,11.4 M483.6,178.5c1.2,0.8,5.5,0.8,8,0
			 M494.6,181.1c0,1.8,0.5,8.6-3,10 M492.9,190.3c3.2,1,9.6,0.6,11.7-5.3 M500.1,190c1.7,2.6,2.2,7.6-2.8,10.3 M501.3,194.3
			c3.8,1.2,12.4,1.4,11.5-6 M509.8,194.3c2.7,3.5,14,7.8,12.2,0.3 M499.5,204.6c4.3,1.1,10.5-1.9,8-9.6 M519.8,198.9
			c0.6,3,15,6,13.1-0.7 M530.2,202.1c2.7,6.2,17,5.7,12.5-2.6 M540.4,206c2.8,3.4,15.5,1.4,10.4-7 M550.7,205.8c7.9,6,17-2.5,7-8.7
			 M562.3,203.9c7,5.5,15.5-4.5,9.4-7.3 M507.3,201.6c2.2,0.6,6.8,0.4,7.9-3.6 M513.4,200.7c-0.2,5.8,9.6,8,12.1,1.3 M522.2,205.7
			c1.8,3.9,10.5,5.4,11.9-0.1 M532.7,208.2c1.4,3.8,8.9,3.4,11-0.6 M540.9,210.2c2.3,5,11.9,5,14-2.3 M553.3,211.1
			c3.7,2.3,11.7,1.4,11-5.8 M562.8,210.5c5.6,4.5,13.4,0.1,9.5-7.5 M572,216.4c3-0.5,4.5-6.4,1.4-8 M503.4,217.4c6-3.3,7.3-9,3-14.5
			 M508.6,211.8c3.9,2.3,11.2-0.2,12.5-5.8 M513.9,212.4c2.2,2.8,2.6,6.3-0.3,9.5 M515.6,216c6.9-4.2,15.4,3.6,9,8.4 M523.6,215.6
			c1.5-0.4,4.2-3.2,4.4-6.4 M526.6,218.6c2.9-3,22.2,3,10,9.3 M535.6,210.5c3.8,1.4,5.7,6.7,0,8.5 M540.6,223.4
			c4-4.3,17-1.6,12.3,3.8 M549.8,221.7c2.3-7.9,16.1-3,11.6,0.2 M547,213.9c0.4,1.5,0.5,5.3-2,7.4 M558.6,212.3
			c0.6,1.8,0.3,3.8-0.8,5.3 M567.3,212.4c0.8,1.4,2,4.1-0.8,6.3 M457.1,153.2c0.1,7.3,2.7,12.2,12.6,7.6 M460.2,161.9
			c-5,6.6,0.6,13.7,10.3,6.6 M445,165c6.7,7.2,18.7,2,11-9 M464,171.2c-1.2,7.1,4.6,8.5,9.3,5.3 M439.1,166.2
			c1.2,7.1,8.5,12.7,15.6,8.4 M447.8,176c0,10.2,14,11.3,17.3,0.8 M460.1,183.2c4.5,9.3,14.3,5.5,17.5-0.1 M450.2,168.4
			c1.8,4.5,5.4,9.5,13.7,5.8 M424.4,166.2c1.2,3.7,7.9,8.2,15.6,3 M429.2,171c-4.2,6,4,11.7,14,2.7 M434.1,178.4
			c1.6,8.5,5,15.4,17,4.4 M445.1,187.2c4.4,5.4,11.1,8.7,17.4-0.4"/>
		<path class="st3" d="M467.3,188.8c-0.4,6.5,0.8,9.7,5.9,9.4c4-0.2,7.7-3.3,9.9-6.7 M472.3,198.2c-0.2,7.4,5.6,13.2,16.5,5.7
			 M476.8,206.9c-2,5.5,4.1,14.5,16.2,9.9 M451.1,192.2c-0.7,7,5.8,11.8,16.4,2.7 M456.3,200c0.4,5.8,7,12.8,16.6,2.7 M460.9,207.4
			c-0.7,9.9,8.4,12.7,16.1,5.1 M447.2,200c2,0.2,3.7-1.6,4.7-3 M451.5,207.2c1.8,0.4,5-1.2,6-3.3 M456.1,218.9c2,2.3,9,0.7,9.9-2.3
			 M463.8,218.8c3.8,9,14.1,8.7,18.4-1.5 M480.2,220.9c2,5.3,6.9,8.6,14.9,6.8 M484.1,226.3c-4.5,7.3,1.4,16,11.5,7.5 M486.6,237.3
			c-0.5,4.6,3.7,9.9,9.5,10.5 M467.5,223.8c-1.5,10.4,6,15.4,15.3,9.8 M456.6,228.8c2.4,1.9,6.8,2.1,11,0.6 M472.6,235.4
			c-2.4,8.8,6.6,15.1,14.3,5.3 M460,230.2c0.2,4.5,4.5,9.4,12.1,8 M493.4,247.2c-5.2,3.4-6.2,9.6,1,13.6 M480.8,245.4
			c0.2,5.2,2.7,8.2,8.5,8.7 M473.2,242.7c-7.8,7-0.2,15.3,9,8.3 M478.6,253.2c-2.6,8.1,7,13,12.2,4.8 M462.6,236
			c-2.8,8,0.8,13.2,7.4,12.7 M452.4,234.4c0.4,4.8,4.5,6.5,9.2,5.4 M455.4,239.4c-3.5,6.7,1.8,10.3,8.8,7.8 M485.2,262.2
			c-1,4.2-0.4,7.2,5.9,8.7 M485.7,268.2c-7.6,3.4-8.3,10.8-2.4,15.5 M479.5,260c-3.2,2.8-3.5,7.6-0.7,10.7c0.5,0.6,1.2,1.2,1.9,1.6
			 M445.7,236.5c-4.3,4.3-0.2,16.2,9.5,9.7 M470.9,251.5c-6,5-3.3,13.8,6.5,11.4 M461.1,247.9c-3.1,8.7-0.2,11.8,6.8,11.9"/>
		<path class="st3" d="M439.3,236.1c-3.7,2.6-4.7,7.7-2.1,11.4c0.2,0.3,0.4,0.5,0.6,0.8c2.3,2.6,6.7,1.4,8-1.9 M428.2,232.6
			c-5.9,7.6,0,16.6,8.4,14 M459.9,255.2c-6,2.1-10.7,7.6-7,12.5c2.3,2.8,11.8,3.2,14.5-7.8 M449,248.1c-3.5,5-2.4,9.8,4,12.2
			 M448.6,257.5c-3.8,2-6.2,4.5-5.3,9 M440.2,249.6c-1.4,6,0.3,9.8,4,11.6 M440.1,256.8c-5.8-0.4-8.8,2-6.8,7.8 M433.8,258.2
			c-5.7-2-6.6-7-4.1-12 M428.9,253.8c-6.2,0.2-9,3.3-9,7.5"/>
		<path class="st3" d="M420.5,229.7c-4.5,1.9-6,8-4.3,11.3s7,3.6,10.2,1.4 M408,224.9c-4.1,4.6,0.6,13.7,8,11.5 M397.4,221.3
			c-3.8,5.4,0.4,14.4,10.3,11.8 M408.2,258.2c-1-6.4,5.7-10.6,14-2.3 M418.2,242.9c-2.4,2.1-3.6,5.3-3.3,8.5 M386.9,218.2
			c-4.3,7.2,0.9,13.8,10,11.2 M410.7,236.1c-6,6-4,12.1,0.5,15.6 M406.8,243.2c-9.1,0.1-9.6,10.7-2.2,14 M399.9,232.6
			c-3.8,2.6-5,9.7,1.5,12.5 M399.6,248.5c-3.9-1.8-8.5,0.4-8.1,4.9 M393.8,248.6c-3.5-8.2-13.6-6.8-12.7,1.7 M396.6,238.4
			c-2.1,0.4-6.5,1.7-8.2,5 M389,229.1c-2.7,2.8-2.6,7.2,0.2,9.9c0.7,0.7,1.5,1.2,2.3,1.5 M376.7,216c-0.8,5.6,1.4,8.3,8.4,7.8
			 M379.1,223.1c-2.6,6.7,1,9.7,8,9.3 M380.7,231.4c-4.1,4.9-1.3,10.1,2.7,12.3 M378.8,237.6c-7.4-1-8.5,7.6-6,11.5"/>
		<path class="st3" d="M372.9,215.5c-4.5,2-7.1,7.6-4.7,11c2.5,3.5,7.4,2.4,10,0.6 M369.8,228.1c-3.8,5.7-0.4,10,3.6,11.6"/>
		<path class="st3" d="M355.3,214.8c-3,3.1-1.1,9.4,6,9.6c5.9,0,8.8-5.4,7-9.3 M360.3,224.4c-2.3,5.1-0.8,10.7,8,9.8 M371.9,242.2
			c-5.3-2.4-12.6,0-9.5,6.5 M361.7,233.1c-2.2,3.1-1.5,7.5,1,10.2 M361.3,241.3c-3.6,0.7-7.1,2.6-5,8.3 M355.8,245
			c-4.6-1.4-10.5,2-7,6.7 M348.1,247.2c-4-0.7-8.7,3.6-4.9,7.8 M341.7,251.5c-3.6,1-7.9,5-4.1,8.3 M359.9,231.3
			c-5.2,2.3-5.7,8.1-3.3,12.4 M354.4,220.7c-7.7,3-7.6,13.2,1,16.4 M351.7,234.8c-4.6,2.7-5.5,7.9-2.4,11.2 M343.6,216.8
			c-3,1-2.8,10.5,5.4,10.3 M335.1,220c-6.2,4.1,1.3,14.5,11.3,7 M340.9,229.7c-0.9,4.2,0.3,8.8,7.1,9.4 M341.3,235.3
			c-4.9,1.8-5.8,11.9,3,12.7 M325.7,226.2c-6.3,5.8,5.2,10.8,9.4,2.4 M317,235.8c-3.1,3.8,7.7,13.6,12.5-2.8 M330.6,232.7
			c0.3,4,2.6,6.2,7.3,6.5 M337.9,242.9c-7.7,1.2-10.1,10.7-1.6,12.8 M323.8,241.7c-0.3,3.5,3.5,6.5,7.7,5.9 M335.4,255.4
			c-7,1.6-7.9,10.6-1.7,10 M330.5,273.8c-5.8-1.7-6-8.6-0.8-11.2"/>
		<path class="st3" d="M325.7,267.8c-4.9,3-3,10-0.4,11c2.6,1,4.7-0.2,5-2.4 M329.8,286.4c0.6,3.3-11.9,2-5.5-8.4 M324.3,286.9
			c-4.2,6.6,2.6,12,6.9,6.3 M324.8,294.8c-1.7,5.3,4.7,9.1,8.8,5 M311,245.4c-2.3,4.7,9.3,6.5,10-3.3 M307.8,252.4
			c-2.3,9.3,15.2,7.4,10.7-4.6 M318.9,254c4.1,1.9,9,0.2,10.9-3.9c0.3-0.7,0.6-1.5,0.7-2.4 M325.2,254.3c0.6,2.7,2.3,4.9,4.7,6.3
			 M316.8,256.7c-0.8,5,4.3,9.2,10,8.8 M317.7,261.6c-2.8,3.9-3.7,11.3,5.2,11.8 M304,263c-1.4,4,7,8.1,11.8,1.5 M301.4,273.2
			c-0.7,3,6.8,7,11-5.8 M309.1,273.9c1.8,3.2,7.9,5.8,11.6-0.5 M314.7,277.3c-1.6,4.5,2.7,8.7,7.8,7.5 M305,276.3
			c-1,6.4,6.5,10.1,11,6.8 M300.1,279.1c-2.2,8.2,8.4,11.3,12.4,5.1 M309.8,286.7c0.4,4.6,7.6,8.6,13.2,4.8 M296.9,290.5
			c-0.5,2.1,8.1,4.2,9.4-3 M301.9,292.4c2,5.2,9,6.5,13,0 M312.6,295c1,5,7.2,7.7,12.8,4.3 M327.7,301.3c-1.4,6.5,5.4,11.8,9.6,8.2
			 M316.7,300.1c-2,7.2,7,11.3,12,7.3 M305.9,296.4c-0.5,6.8,4.8,10.8,10.8,7.8 M294.4,297.2c-1.8,4.3,7.8,7.9,12.3,4.2
			 M288.5,309.1c2.5,2.8,11,0,11.7-6.3 M297.9,307.4c3.1,3.6,10.5,5.6,13.4-2.2 M308.7,309.2c0,5.6,9.8,9.6,13-0.6 M333.4,310.6
			c-1,2.7,1.2,7,5.7,7.5 M325.2,308.9c-0.6,3,3.9,7.4,8.7,5.7 M334.8,315.9c-1.3,3.3-0.2,8.1,4.3,8 M335.2,322.1
			c-3.4,2.8-2,7.9,2.9,8 M333.5,326.9c-4.8,3.2-3.1,10.3,3.2,9.9 M319,313c0,7,8.7,8,10.3,1.6 M326,318.6c-1.3,4.2,2,8.2,7.3,7
			 M327,368.4c1.2,1.7,6-1.2,4.7-4c-1.3-2.8-6.4-1.3-5.8,1.7 M330.5,363.2c0.6-5.6-6-6.5-7.7-1.6 M325.2,358.7
			c1.7-2.8-4-6.7-6.3-2.5 M320.9,354.5c1.6-4.1-4.8-6-5.3-2.2 M314.1,346.9c0.8-2,8-0.8,5,3.5 M324.6,355.5c2.8-2.6-2-7.8-5-6
			 M343.6,363.4c-2.2,0.2-4.5,1.7-2.9,6.5c1.2,3.3,6.1,3.4,6.9,1.5"/>
		<path class="st3" d="M340.5,365.9c-2.2-1.5-7,1-4.8,5.6c1.6,3.5,5.8,2,6.4,0.2 M328.1,372.5c1.2,2,6.6,1,7.6-1 M331.9,366.1
			c1.2-0.8,3.3,0.2,3.7,1.2 M331.6,334.3c-3.8,2.5-1.5,10,4.3,8 M330.3,340.4c-3,2.3-0.2,9.6,5.3,6.8 M331.3,347.2
			c-2.1,2.1-0.1,7.8,5.2,6.7 M330.5,350.1c-1.2-0.5-4.2-0.2-5.5,1.8 M327.1,323.9c-2.8,2.8-1.4,8.3,3.8,8.8 M326.1,329.7
			c-4,2-4,10,4,10.3 M325.8,338.7c-2.3,1.8-1.2,8.8,4.6,7.9 M327.6,346.3c-0.8,0.9-1,3-0.2,3.9 M325.1,343.7c-2,0-4.8,1.5-5.5,3.7
			 M315.9,339.9c0.7-2,7.1-2,7.6,4.1 M324.1,336.8c-0.9,0.2-2.6,1-3,2.8 M321.3,317.9c-2.7,2.6-4,10.5,4.3,12 M315.7,334.3
			c0-2.1,5.8-4,7.8-0.8 M312,322.8c0.8,1.6,4.8,3.8,7.2,2 M291.2,310.2c-0.1,3.5,2.6,6.4,6,6.6c0.4,0,0.8,0,1.2-0.1
			c4.3-0.5,5.2-4.2,3.9-6.7 M299.1,316.9c-2.9,3.4,0.6,8.3,3.8,6.9 M302.3,314.4c1.7-0.6,7.2-1.4,8.9,1.2 M284.4,315.4
			c-1.3,2,6.7,3.9,9.4,0.2 M291.1,317.5c-0.3,2.6,1,7,7.6,5.1"/>
		<path class="st3" d="M299.8,326.6c1-2.2-3.8-5.8-7.6-1.8c-3.7,4,0.6,8.5,2.9,7 M282.7,318c-2,3.4,5.5,9.5,9.8,3.8"/>
		<path class="st3" d="M277.7,323.8c-2.7,2.8,0.7,7.9,4.7,6.3c4.1-1.5,3.7-5.8,2.7-6.9"/>
		<path class="st3" d="M272.5,329c-2.2,2,0,6.6,3,6.6s4.9-2.3,4.3-5.4 M284.8,328.6c-0.4,3,4,5,6.9,2.2 M291.7,325.4
			c0.5-0.6,0.2-1.7-0.5-2.3 M267.8,332.9c-2.5,2,3,7.6,6.3,2.5 M287.2,331.9c-1.6,1.5,1,5.5,3.6,4.3 M278.4,334.7
			c0.4,2.7,5.8,4.8,9.2,0.6 M281.3,337.4c-0.8,1.8,0.9,4.5,3,4.2 M332.6,353.4c-2,3.9,4.4,8.5,9,3.7 M337.2,359.2
			c-1,2.1,0.2,5.1,2,6.2 M331.2,363.7c0.4-2,3.2-3.8,5.7-2.9 M327.9,358.6c0.3-1.8,2.6-3.5,4.4-3 M479.5,278.2
			c-9.2,0.1-5.3,14.8,2.6,11.9 M476.5,289.1c-1.8,2.9,1.7,7.6,5.6,4.8 M481.1,294.5c-2.8,4.5,6.9,11.4,10.8,4.3 M488.8,301.5
			c0,4.3,12.5,7,10.7-1.5 M498.3,304.6c3,5,14,5.5,12.9-2 M508.7,307.8c2.3,3.4,13.2,5.4,12.8-1.5 M464.8,265.5
			c1.5,4,6.8,5.4,12.6,3 M461.4,268.3c3.7,2.3-1.6,12.9-7.1,8.6 M461.5,274.9c4,1.9,8.9,0.5,10.3-5.2 M469.3,274.1
			c0.4,3,4.7,5.3,10.2,4.1 M459.4,277.2c5.2,4.4-2.3,13.4-5.7,9.3 M461.3,280.5c2.5,1.8,8.8,0.8,9.4-4 M467.9,280.5
			c0.5,3.1,3,4.3,6.4,4.4 M459.9,284.8c2.6,3.6,9,4.6,11.9-0.1 M468.9,287.4c-0.2,3.4,3.6,6.3,7.6,5.5 M455,295c3.3,1.7,7-4.7,4.1-9
			 M458.9,301.7c4,0.2,4.5-5.8,0.7-9.2 M468,307.2c3.4-0.8,2.3-8.1-5.8-8.7 M478.2,312.6c3.2-0.9,0.6-9-8.3-8.5 M490.4,315.5
			c2.2-3.4-5-9-11-6 M496.4,320.1c4,1.2,6.8-9.4-5.9-7.7 M503.8,320.1c3.5-1,6-7.2-4.2-5.2 M511.6,320.6c3,1.6,4.4-7.5-5-5
			 M459.6,292.6c3.9,2.1,10-0.4,9.4-5.3 M467.5,291.5c1.3,2.3,0.8,6.8-1.7,8 M467.8,296.9c2.6,1,6.1,0.1,8.2-4 M472.4,296.9
			c0.7,1.8,1,5.4-0.7,7.2 M473,300c2.9,1.6,6.2-0.5,7.6-3.5 M478.8,299.1c2,1.3,3.9,7.3,0.4,9.8 M481.2,306.1c2.4,0,6,0,8.3-3
			 M487.8,304.8c2.2,0.6,4.8,4.2,3.9,7.4 M491.8,311.1c2.5-0.3,6.7-2,7.9-5 M498.5,308.1c2.3,1.3,3.5,3.9,3.2,6.5 M501.7,312.5
			c2.5-0.1,4.7-1.4,5.3-4.1 M506.4,310.2c1.8,0.6,4,2.7,4.1,5.1 M510.2,313.8c1.8-0.3,3.1-1.4,4.3-3.2 M519.4,310.3
			c2.3,2.3-0.8,10-5.6,8.6 M469.9,154.2c-4.7,2.9-18.3,2-11.6-9.2 M471.3,146.6c-9.5,3.8-21-3.5-9-11.3 M459.1,132.7
			c-7.8,0-13.1,12.6-2.6,17 M428.6,138c-2,4,5.3,8.4,10.3,4.4c3.9-3.1,3.6-11.5,1.3-14.7 M424.6,147.5c-2.6,8.5,16.4,9,13.4-4.5
			 M423.6,160.2c0.6,6.4,18.1,4.3,12.5-8.7 M438.1,147.9c1.4,2,5.3,5.3,11.9,4.6 M441,139c0.6,2.3,4.5,4,9.5,2.3 M265.4,334.8
			c-4.5,3.1,2.4,8.1,4.9,2.6 M261.9,337.2c-4.4,3.2,2.4,8.2,4.9,2.7 M258.2,339.6c-4.4,3.2,2.4,8.1,5,2.7 M254.4,341.8
			c-4.3,2.3,0.7,7.8,5,3 M250.2,343.9c-4.3,2.3,0.7,7.8,5,3 M271.8,337.3c-0.1,3.3,6.1,4.6,8.4-0.3 M275.7,340.3
			c-2,2.5,1.6,5.5,3.5,4.4 M267.4,339.9c-0.2,2.8,5.2,4.4,7.8,1.3 M270.3,342.8c-1.7,2.2,1.7,5.3,4,4.4 M263.8,342.4
			c0.2,2.2,3.3,4.7,6.6,3.3 M265.8,345.4c-1.3,1.1-0.7,3.8,1.1,4.7 M259.1,345.1c-0.5,2,2.9,5.6,6.4,3.3 M259.8,347.4
			c-2,1.7-1.8,4.1,0.8,4.5 M254.8,347.2c-0.2,1.4,1.5,3.6,3.7,3.3 M243.8,347.1c-2,1.1,3.2,6.7,6.5,1.5 M238.7,349.4
			c-2.6,1.2,3.8,7.4,6.7,1.1 M255.4,349.2c-2,0.4-3.3,3.3-1.6,4.5 M248.8,350.2c-0.2,1.2,2.3,3,4.3,2.4 M247.2,350.7
			c-2,1.2-0.9,4.6,1.4,4.1 M240.3,353c-1.8,1.3-0.5,4,2,3.4 M243.6,352.8c0,0.7,1.7,1.8,3,1.3 M234.1,351.6c-2.3,1-2.1,6.6,5.5,3.6
			 M229,353.9c-3.2,1.5-2.1,5.8,4.8,1.7 M234.3,355.9c-0.8,0.7-1.7,3.5,1.5,2.4 M228.6,357.3c-1.3,1.1-0.5,3.5,2.3,2.6 M221.9,357.7
			c-2.3,1.3,2.8,3.1,6.2-0.5 M223.5,359.3c-1,1-1,4.1,1.6,3 M216.9,360.6c-1.5,1.1,1,2.7,6,0.5 M218.9,362.2c-1.9,1.5-1.7,3.4,1,2.8
			 M213.5,363c-2,1.9,0.9,3.1,4.4,1.6 M213.5,365.1c-3.4,1.5-1.9,4.4,0.2,3.3 M327.5,374.9c-0.8,1.7,1.8,3.1,4.3,2.7
			c2.3-0.3,4.6-2.3,2.8-5 M334.7,376c2.4,1.8,6.5-0.3,6.5-3"/>
	</g>
	<g>
		<path class="st2" d="M476.8,103c-10.3-5-31.7-14.6-37.8-6.9c5.6-2.3,21.8,0.1,35.2,12.5L476.8,103L476.8,103z"/>
		<path class="st2" d="M483,102.5c-11.9-13.9-19-10.8-27.5-15.5c-8-4.5-20.8-5.4-23.3,1.7c11.7-5.7,22.5,3,29.2,4.2
			c9,1.4,14.2,8.5,16.9,11.7L483,102.5L483,102.5z M527.9,100.7c-6.2-14.1-19.4-10.4-25.2-16.4c-8.5-8.8-30-17-39-10.9
			c19.6-1,28,13.5,38.4,18.6C509.6,95.6,517.6,103.3,527.9,100.7L527.9,100.7z"/>
		<path class="st2" d="M504.7,99.2c-10.5-13.1-26.8-24.7-34.2-20.4c9.8,0.6,12.9,7.4,19.8,11.8C497.3,94.9,494.2,101.3,504.7,99.2
			L504.7,99.2z M454.5,122.4c-11-4.1-32.7-6.2-42.8,6.4C428.5,131.7,453.7,130.1,454.5,122.4z"/>
		<path class="st2" d="M452.4,127.3c-11-5.2-19.7,2-30.1,1c-19.8-2-34-0.8-35.8,8.8c11.3-10.2,30.4-1.8,38.1-3.9
			c7.7-2,36.3-0.3,45.3,3.6C465.3,131.1,458.1,129.6,452.4,127.3L452.4,127.3z M487.2,97.8c-2.6-8.5-2.4-17.5,10.3-16.9
			c-3.2-4-15-6-17,8.9c-14-10.3-29.4-12.1-32.2-3.2c7.2-6.2,18.4-1.7,31.8,13.5C482.3,99,484.7,98.2,487.2,97.8L487.2,97.8z"/>
		<path class="st2" d="M467.9,109.5c-8-5.2-18.8-13.5,0.1-16.9c-8-4.3-20-2.4-18.7,12.5c-21.6-8.7-37.1-5.8-40.4,2.9
			c-3.6,9.5,9.8,14.8,12.1,8.7c-2.4,1-10.8-1.8-6.4-7.2s26.8-1.3,48.1,9.8C468.7,122.3,489,121.9,467.9,109.5L467.9,109.5z"/>
		<path class="st2" d="M462.2,123.7c-6.1-12.6-26.1-1.2-30.1-13.4C426.5,128.2,460.5,118.3,462.2,123.7z M589.3,137.3
			c4.2,2.1,7.8-1.2,1.4-3.7c4.2,2,7.9-1.1,1.5-3.7c4.2,2,7.8-1.1,1.4-3.7C591.9,127.9,589.5,134.2,589.3,137.3L589.3,137.3z
			 M591.5,113.1c9.3-9.8-0.7-13.1,10.6-23.2c9.3-8.2,1.8-13.7,10.5-20c2.9-2.1,9-6.2,9.6-10.4c3.7,9.3-11.6,10.6-10.6,25.5
			c0.7,9.5-5.8,8.7-8.2,24.8C602.9,113.1,600.5,120.6,591.5,113.1z"/>
		<path class="st2" d="M595.6,117.5c5.2-11,11.1-10.9,14-15.2c5.4-8.3,16.8,1.4,26.5-6c-1.7,10.5-14.7,6.8-20.4,13.5
			C610.1,116.5,605.4,119.5,595.6,117.5L595.6,117.5z"/>
		<path class="st2" d="M597,121.1c9-7.2,15.6-2.4,21.8-6.2c15.7-9.5,22,2,36-2.6c-3.6,9-24.4,1.3-33.4,8s-40.7,13.2-24.5,0.8
			L597,121.1z M570.7,172.5c-0.2-4.1-4-9.4-9.4-10c-5.4-0.7-7.8-6.4-11.9-6.6c-4.1-0.3-6.8-8.5-12.5-8.4c-5.6,0.1-8,7.5,5.3,14.2
			S570.2,176.1,570.7,172.5z M553.9,176c-5.6,0.2-6.4,8.5-11.8,8.7c7.4,4,12.9-1.8,16.7-7L553.9,176L553.9,176z"/>
		<path class="st2" d="M558.6,177c-5,4.1-6.4,12.7,0.7,15.2c-4.2-5.9,7.5-8.5,3.9-14L558.6,177z"/>
		<path class="st2" d="M563.4,177.3c-3.8,7.4,6.1,8.3,3.5,14c5.7-1.3,6.6-12,1.4-14.8l-4.9,0.7V177.3z"/>
		<path class="st2" d="M525.6,161.3c9.3-0.5,17.7,4.5,23.4,12.6c3.6,5.1,15.7,7.2,19.9,3c4-4,1.8-12.8-8.5-10
			c-2.6-4.3-10-2.8-13.7-6.4C543.1,156.9,529.2,146.6,525.6,161.3L525.6,161.3z"/>
		<path class="st6" d="M560.4,167c-2.5,0.5-3.3,4.7-1.7,6.9 M565.7,169.5c0.7,1.3,0.2,3.1-0.2,4 M540.3,161.7
			c4.7,0.2,5.6,3.7,10.8,5"/>
		<path class="st2" d="M537.1,150c13,2.5,25.6,6.7,37.6,12.3c8.1,4.6,20.7,6,31.6,2.8c11-3,32.2-5.9,31.1,7.8
			c5.8-6.9-1.5-14.2-16.2-15.5c0.3-6.7-6.9-12.7-12-8.7c4.7-0.7,8.8,8.2-0.6,11.8c1.2-4.5-1.4-9.1-5.9-10.3c-1.9-0.5-4-0.3-5.8,0.5
			c4.4,1.3,9,8.8-1,11.6c-6.3,1.8-15.4-0.5-22.2-4.6C566.9,153.6,528.7,138.7,537.1,150L537.1,150z"/>
		<path class="st2" d="M578.6,143.3c-5.1,2.3-1.8,7.7-9.7,10.8c-8,3-13.6,10.1-11.8,16.2c5.4-11.9,15-11.3,18.3-16
			C578.8,149.7,583.7,142.9,578.6,143.3z"/>
		<path class="st2" d="M580,144c-0.2,9.4-7.6,6-4.7,19.2c0.9,4.1,2.6,10.8-0.3,17.5c8.3-6,3-18.7,6.7-23.5c1.8-2.4,4.2-6,5-9
			c-1.9,5.3-1.7,15.4,3.5,18c-4.2-10,11.5-18.3,0.7-30c-1.6,3-6.5,8-10.8,7.8H580z M553.8,134.6c1.3,2,2.6,6.8,1.4,9.6
			c2.6-1.6,6.3-5.6,7.5-8.3c5.3,0.8,7.3,7.3,2.3,10.2c3,0,8.4,0,11.3-3.5C572.7,138.6,561.5,132.4,553.8,134.6L553.8,134.6z"/>
		<path class="st2" d="M473.7,116.1c-1.4-1.1-3.1-1.8-4.8-2c-7.8-1.6-3.7-8.6,2.9-8.5c14.2-15.5,22.1-3.6,39.4-8.4
			c6-1.8,10.2-1.3,13.4,0.2c7.8-5.2,16.8-3.8,23.4,2.3c0.7-1.1,1.7-2,3-2.4c6.1-1.7,11,3.4,12.7,10.1c4.7-0.8,10.1,1.5,13.7,4.7
			c4.9-2.5,8.2-2.6,9.5,0c4.4-2,10-3.4,12.9,3.6s-6.7,4.9-8.3,19.6c-1,9-11,12.6-19,7.2c-12.8-8.7-25.3-10-31.5,3
			c-6.1,13.2-11,20.8-26,16.5c-6.4-1.4-13,1.1-16.7,6.5c-4.4,6-11,0.4-19,1c10-1.5,6.1-4,14.9-4.6c8-0.5,5.9-8,11-9
			c-20,5.1-19.3-2.4-35.8,2.8c7.2-9.3,18.6-4.1,24.2-9.5c-14.9-0.3-21.6-10-28.3-6c-10.5,6.5-6,24.8-33.5,23.2
			c-13.4-0.7-21.9,1-29.8,9c13.9-28.8,32.8-13,42-22.1c4.8-4.3,8.9-9.2,12.3-14.7c0.8-1.6,2.3-2.8,4-3.2
			C437.4,128.2,451.3,116.9,473.7,116.1L473.7,116.1z"/>
		<path class="st6" d="M586.9,112c0.3,0.8,0.5,1.8,0.5,3c0,5.6-8.5,5.8-9,14.2c-0.3,4.4-0.8,6.8-3.7,6.3c-3-0.5-5.6-5.1-2.8-10.5"/>
		<path class="st2" d="M478,107.7c-1.8-1.3-4-2.1-6.2-2.1 M524.6,97.3c6.8,3,10.1,10,20,10.4c9.6,0.3,15.5,14.2,31.5,5.1
			c0.4-0.2,0.8-0.4,1.2-0.6 M548,99.7c-1.4,2.5-1.9,5.4-1.4,8.2 M516.8,128.9c-12,0-15.2,6.1-15.2,12c0,6,5.7,13.7,15.7,13.7
			c10,0,15.5-6.2,15.5-12.9S526.6,128.8,516.8,128.9L516.8,128.9z"/>
		<path class="st2" d="M519,154.3c-0.2-3.3-6.3-2.8-6-5.4c0.2-2.6,3.3-3.6,3.3-7.2s5.4-3.9,7.2-1c1.8,2.8,7.2,8.3,8.4,5.5
			 M523.5,140.7c-3.4,3.6-3.6,9.3-0.4,13.1 M527.4,145c-1,2-1.2,5-0.1,6.8"/>
		<path class="st3" d="M575.5,135.6c9.5,0.8,11-9.7,4-10.3 M563.8,107.5c-3.2-4.2-10.8-5.6-11,3.2"/>
		<path class="st2" d="M552,120.8c-3.2-8-11.5-9.1-15.8-5.1c-3.7,3.3-3.8,12,4,13.8C543,126.2,548.2,122,552,120.8z M548.5,115.8
			c-4.7-4.1-11.5,3.7-5.3,10.8 M460.2,135.3c3.2-0.7,7.7,0.8,14.7,4c4.3,2.1,17.5,6.5,25.7,2.1c-8.5,3.1-15-9.7-21.4-8.2
			c-6.4,1.6-18.2,4-23.1-0.8c12,0.8,18.5-8.8,32.4-0.5c3.9,2.4,8.5,3.7,13.1,3.6c-11.3-13.6-26.2-4.9-27.8-16
			c6.8,7.4,23.5-1.6,32,12.1 M476.3,121.6c-1.6-2-1-4-2.6-5.5"/>
	</g>
	<path d="M563.8,107.5c-2.8-3-9-0.7-7.2,5.4C557.9,110,560.6,107.9,563.8,107.5L563.8,107.5z M546.3,124c1.7-1.4,3.6-2.4,5.7-3.2
		c-0.8-2-2.1-3.8-3.8-5.2C546.7,114.6,542.5,120.3,546.3,124L546.3,124z"/>
	<path class="st4" d="M538.7,113.5c-4.6-3.1-8.9-2.8-10.3-0.3c-3.3,0-6.1,2.4-6.2,7.2 M529.3,122.5c-5.5-3.8-13.1-2.4-12.6,6.1
		 M513.3,133.5c2.7-2.2,6.6-3.8,9.6,0 M554.7,125.1c-1,1.4-1.8,3.6-0.1,7c-2-2.8-7.2-2.8-12.8,4.4 M566.9,124.7
		c-6.7,0.8-6.5,5.2-1.1,7 M519.3,108.3c-5.7-1.1-9.8,2.2-2,5 M530.1,104.5c-8-2-11.2,0.1-7.6,2 M507,136.5c-0.2,2.9,1.3,6.6,6,2.4
		 M508.6,145c0,0.8-0.1,1.7-0.7,2.4 M490,107.4c-4.9-1.5-5.8-6,0-5.6 M488.4,117.8c-5.4-1.9-5.4-7.1-1-6.6 M498.4,115
		c-6.3-1.5-6.5-5.9-1.8-5.2 M499.2,101.6c-3.4-0.2-8.5,3.5,0.1,5.7 M508.6,109.1c-7.9-1.1-7.7,2-3.1,4.1 M514.5,101.6
		c-6-1.1-8.1,2.5-4,4 M495.5,123.9c-1.5-1.2-2.7-7,4.3-5.3 M510.1,122.1c-4.7-1.3-9.2,3.4-4.9,6 M516.4,116.6c-5-1-9.2,0.5-6.5,2.3"
		/>
	<path class="st2" d="M563.6,107.5c-3.1,0.6-5.7,2.6-7,5.4"/>
</g>
</svg>
