<?xml version="1.0" encoding="utf-8"?>
<!-- Generator: Adobe Illustrator 24.0.1, SVG Export Plug-In . SVG Version: 6.00 Build 0)  -->
<svg version="1.1" id="flag-icons-by" xmlns="http://www.w3.org/2000/svg" xmlns:xlink="http://www.w3.org/1999/xlink" x="0px"
	 y="0px" viewBox="0 0 800 480" style="enable-background:new 0 0 800 480;" xml:space="preserve">
<style type="text/css">
	.st0{clip-path:url(#SVGID_2_);}
	.st1{fill-rule:evenodd;clip-rule:evenodd;fill:#B20000;}
	.st2{fill-rule:evenodd;clip-rule:evenodd;fill:#429F00;}
	.st3{fill-rule:evenodd;clip-rule:evenodd;fill:#FFFFFF;}
</style>
<g>
	<defs>
		<rect id="SVGID_1_" x="0" width="800" height="480"/>
	</defs>
	<clipPath id="SVGID_2_">
		<use xlink:href="#SVGID_1_"  style="overflow:visible;"/>
	</clipPath>
	<g transform="scale(.9376 .9375)" class="st0">
		<path class="st1" d="M0,0h1280v340.1H0V0z"/>
		<path class="st2" d="M0,340.1h1280V512H0V340.1z"/>
		<path class="st3" d="M0,0h141.7v512H0V0z"/>
		<g>
			<path class="st1" d="M6.8,8.7h6.7v8.7H6.8V8.7z M27,8.7h20.2v8.7H27V8.7z M33.8,0h6.7v8.7h-6.7V0z M67.5,0h6.7v8.7h-6.7V0z
				 M94.5,8.7h20.2v8.7H94.5V8.7z M101.3,0h6.7v8.7h-6.7V0z M20.3,17.4h13.5V26H20.3V17.4z M40.5,17.4H54V26H40.5V17.4z M87.8,17.4
				h13.5V26H87.8V17.4z M108,17.4h13.5V26H108L108,17.4z M13.5,26H27v8.7H13.5V26z M47.3,26h13.5v8.7H47.3V26z M81,26h13.5v8.7H81
				V26z M114.8,26h13.5v8.7h-13.5V26z M128.3,8.7h6.7v8.7h-6.7V8.7z M6.8,34.7h13.5v8.7H6.8L6.8,34.7z M54,34.7h13.5v8.7H54L54,34.7
				z M121.5,34.7H135v8.7h-13.5L121.5,34.7z M13.5,60.7H27v8.7H13.5L13.5,60.7z M20.3,69.4h13.5v8.7H20.3L20.3,69.4z M47.3,60.8
				h13.5v8.6H47.3L47.3,60.8z M40.5,69.4H54v8.7H40.5L40.5,69.4z M27,78.1h20.2v8.7H27L27,78.1z"/>
			<path class="st1" d="M33.8,86.8h6.7v8.7h-6.7V86.8z M81,60.8h13.5v8.6H81V60.8z M87.8,69.4h13.5v8.7H87.8L87.8,69.4z M114.8,60.8
				h13.5v8.6h-13.5V60.8z M108,69.4h13.5v8.7H108V69.4z M94.5,78.1h20.2v8.7H94.5V78.1z M101.3,86.8h6.7v8.7h-6.7V86.8z M67.5,78
				h6.7v8.7h-6.7V78z M0,78h6.7v8.7H0V78z M135,78h6.7v8.7H135V78z M33.8,121.4h6.7v8.7h-6.7V121.4z M27,130.2h20.2v8.6H27V130.2z
				 M20.3,138.8H54v8.7H20.3V138.8z M101.3,121.5h6.7v8.7h-6.7V121.5z M94.5,130.2h20.2v8.6H94.5V130.2z M87.8,138.8h33.7v8.7H87.8
				V138.8z M94.5,182.2h33.7v8.7H94.5V182.2z M81,147.5h47.2v8.7H81L81,147.5z M13.5,147.5h47.2v8.7H13.5L13.5,147.5z M20.3,190.9
				h20.2v8.7H20.3L20.3,190.9z M13.5,182.2h33.7v8.7H13.5V182.2z M108,165h33.7v8.7H108V165z M101.3,191h20.2v8.7h-20.2V191z"/>
			<path class="st1" d="M27,199.6h6.7v8.7H27V199.6z M108,199.6h6.7v8.7H108V199.6z M0,164.9h33.7v8.7H0V164.9z M60.8,182.2H81v8.7
				H60.8V182.2z M67.5,191h6.7v8.7h-6.7V191z M47.3,165h47.2v8.7H47.3V165z M74.3,34.7h13.5v8.7H74.3V34.7z M60.8,43.4H81v8.7H60.8
				L60.8,43.4z M54,52.1h13.5v8.6H54V52.1z M74.3,52.1h13.5v8.6H74.3V52.1z M0,43.4h13.5v8.7H0V43.4z M6.8,52.1h13.5v8.6H6.8V52.1z
				 M128.3,43.4h13.5V52h-13.5V43.4z M121.5,52H135v8.6h-13.5V52z M0,130h6.7v8.7H0V130z M135,130h6.7v8.7H135V130z M60.8,199.5H81
				v8.7H60.8V199.5z M54,208.2h13.5v8.6H54L54,208.2z M74.3,208.2h13.5v8.6H74.3L74.3,208.2z M47.3,216.8h13.5v8.7H47.3L47.3,216.8z
				 M81,216.8h13.5v8.7H81L81,216.8z M40.5,225.5H54v8.7H40.5L40.5,225.5z M87.8,225.5h13.5v8.7H87.8V225.5z M33.8,234.3h13.5v8.7
				H33.8V234.3z M94.5,234.3H108v8.7H94.5V234.3z M20.3,243h20.2v8.7H20.3V243z M101.3,243h20.2v8.7h-20.2V243z M114.8,234.3h13.5
				v8.7h-13.5V234.3z M121.5,225.6H135v8.7h-13.5L121.5,225.6z M128.3,216.9h13.5v8.7h-13.5V216.9z M13.5,234.3H27v8.7H13.5
				L13.5,234.3z M6.8,225.6h13.5v8.7H6.8L6.8,225.6z M0,217h13.5v8.7H0V217z M27,251.8h6.7v8.6H27V251.8z M108,251.8h6.7v8.6H108
				V251.8z M67.5,225.8h6.7v8.6h-6.7V225.8z M47.3,251.8H54v8.6h-6.7V251.8z M87.8,251.8h6.7v8.6h-6.7V251.8z M67.5,251.8h6.7v8.6
				h-6.7L67.5,251.8z M0,251.8h6.7v8.6H0L0,251.8z M135,251.8h6.7v8.6H135V251.8z M67.5,130.2h6.7v8.6h-6.7V130.2z M33.8,43.4h6.7
				v8.7h-6.7V43.4z M101.3,43.4h6.7v8.7h-6.7V43.4z M60.8,104.1H81v8.7H60.8V104.1z M47.3,112.8h20.2v8.7H47.3V112.8z M54,121.5h6.7
				v8.7H54V121.5z M40.5,104.1H54v8.7H40.5V104.1z M47.3,95.5h20.2v8.6H47.3L47.3,95.5z M54,86.8h6.7v8.7H54V86.8z M74.3,95.5h20.2
				v8.6H74.3V95.5z M81,86.8h6.7v8.7H81V86.8z M87.8,104.1h13.5v8.7H87.8L87.8,104.1z M74.3,112.8h20.2v8.7H74.3V112.8z M81,121.5
				h6.7v8.7H81V121.5z M108,104.1h13.5v8.7H108V104.1z M114.8,95.5H135v8.6h-20.2V95.5z M128.3,104.1h13.5v8.7h-13.5V104.1z
				 M114.8,112.8H135v8.7h-20.2V112.8z M121.5,121.5h6.7v8.7h-6.7V121.5z M121.5,86.8h6.7v8.7h-6.7V86.8z M0,104h13.5v8.7H0V104z
				 M6.8,95.4H27v8.6H6.8V95.4z M20.3,104h13.5v8.7H20.3V104z M6.8,112.7H27v8.7H6.8L6.8,112.7z"/>
			<path class="st1" d="M13.5,121.5h6.7v8.7h-6.7L13.5,121.5z M13.5,86.8h6.7v8.7h-6.7L13.5,86.8z M6.8,156.2h27v8.7h-27V156.2z
				 M40.5,156.2h27v8.7h-27V156.2z M74.3,156.2h27v8.7h-27V156.2z M108,156.2h27v8.7h-27V156.2z M54,173.6h33.7v8.6H54L54,173.6z
				 M6.8,173.6h33.7v8.6H6.8V173.6z M101.3,173.6H135v8.6h-33.7V173.6z M135,208.3h6.7v8.6H135V208.3z M0,208.3h6.7v8.6H0V208.3z
				 M6.8,503.3h6.7v-8.6H6.8V503.3z M27,503.3h20.2v-8.6H27V503.3z M33.8,512h6.7v-8.7h-6.7V512z M67.5,512h6.7v-8.7h-6.7V512z
				 M94.5,503.3h20.2v-8.7H94.5V503.3z M101.3,512h6.7v-8.7h-6.7V512z M20.3,494.6h13.5V486H20.3L20.3,494.6z M40.5,494.6H54V486
				H40.5L40.5,494.6z M87.8,494.6h13.5V486H87.8V494.6z M108,494.6h13.5V486H108L108,494.6z M47.3,486h13.5v-8.7H47.3V486z M81,486
				h13.5v-8.7H81V486z M114.8,486h13.5v-8.7h-13.5V486z M128.3,503.3h6.7v-8.7h-6.7V503.3z M6.8,477.3h13.5v-8.7H6.8L6.8,477.3z
				 M54,477.3h13.5v-8.7H54L54,477.3z M121.5,477.3H135v-8.7h-13.5L121.5,477.3z M13.5,451.3H27v-8.7H13.5L13.5,451.3z M20.3,442.6
				h13.5v-8.7H20.3L20.3,442.6z M47.3,451.3h13.5v-8.7H47.3L47.3,451.3z M40.5,442.6H54v-8.7H40.5L40.5,442.6z M27,433.9h20.2v-8.7
				H27L27,433.9z M33.8,425.2h6.7v-8.6h-6.7L33.8,425.2z M81,451.2h13.5v-8.6H81L81,451.2z M87.8,442.6h13.5v-8.7H87.8L87.8,442.6z
				 M114.8,451.3h13.5v-8.7h-13.5L114.8,451.3z M108,442.6h13.5v-8.7H108L108,442.6z M94.5,433.9h20.2v-8.7H94.5L94.5,433.9z
				 M101.3,425.2h6.7v-8.6h-6.7L101.3,425.2z M67.5,434h6.7v-8.7h-6.7V434z M0,434h6.7v-8.7H0V434z M135,434h6.7v-8.7H135V434z
				 M33.8,390.6h6.7v-8.7h-6.7V390.6z M27,381.8h20.2v-8.6H27V381.8z M20.3,373.2H54v-8.7H20.3V373.2z M101.3,390.5h6.7v-8.7h-6.7
				V390.5z"/>
			<path class="st1" d="M94.5,381.8h20.2v-8.6H94.5V381.8z M87.8,373.2h33.7v-8.7H87.8V373.2z M94.5,329.8h33.7V321H94.5V329.8z
				 M81,364.5h47.2v-8.7H81L81,364.5z M13.5,364.5h47.2v-8.7H13.5L13.5,364.5z M20.3,321.1h20.2v-8.7H20.3L20.3,321.1z M13.5,329.8
				h33.7V321H13.5V329.8z M108,347h33.7v-8.7H108V347z M101.3,321h20.2v-8.7h-20.2V321z M0,347h33.7v-8.7H0V347z M60.8,329.7H81V321
				H60.8V329.7z M67.5,321h6.7v-8.7h-6.7V321z M47.3,347h47.2v-8.7H47.3V347z M74.3,477.2h13.5v-8.7H74.3V477.2z M60.8,468.5H81V460
				H60.8L60.8,468.5z M54,459.8h13.5v-8.7H54V459.8z M74.3,459.8h13.5v-8.7H74.3V459.8z M0,468.6h13.5V460H0V468.6z M6.8,459.9h13.5
				v-8.6H6.8V459.9z M128.3,468.6h13.5V460h-13.5V468.6z M121.5,459.9H135v-8.6h-13.5V459.9z M0,382h6.7v-8.7H0V382z M135,382h6.7
				v-8.7H135V382z M54,303.8h13.5v-8.6H54L54,303.8z M74.3,303.8h13.5v-8.6H74.3L74.3,303.8z M47.3,295.2h13.5v-8.7H47.3L47.3,295.2
				z M81,295.2h13.5v-8.7H81L81,295.2z M40.5,286.5H54v-8.7H40.5L40.5,286.5z M87.8,286.5h13.5v-8.7H87.8V286.5z M33.8,277.7h13.5
				V269H33.8V277.7z M94.5,277.7H108V269H94.5V277.7z M20.3,269h20.2v-8.7H20.3V269z M101.3,269h20.2v-8.7h-20.2V269z M114.8,277.7
				h13.5V269h-13.5V277.7z M121.5,286.4H135v-8.7h-13.5L121.5,286.4z M128.3,295.1h13.5v-8.7h-13.5V295.1z M13.5,277.7H27V269H13.5
				L13.5,277.7z M6.8,286.4h13.5v-8.7H6.8L6.8,286.4z M0,295h13.5v-8.7H0V295z M27,260.2h6.7v-8.6H27V260.2z M67.5,286.2h6.7v-8.6
				h-6.7V286.2z M67.5,381.7h6.7v-8.6h-6.7V381.7z M33.8,468.5h6.7V460h-6.7V468.5z M101.3,468.5h6.7V460h-6.7V468.5z M60.8,408H81
				v-8.7H60.8V408z M47.3,399.3h20.2v-8.7H47.3V399.3z M54,390.6h6.7v-8.7H54V390.6z M40.5,408H54v-8.7H40.5V408z M47.3,416.5h20.2
				V408H47.3L47.3,416.5z M54,425.2h6.7v-8.6H54V425.2z M74.3,416.5h20.2V408H74.3V416.5z M81,425.2h6.7v-8.6H81V425.2z M87.8,407.9
				h13.5v-8.7H87.8L87.8,407.9z M74.3,399.2h20.2v-8.7H74.3V399.2z M81,390.5h6.7v-8.7H81V390.5z M108,408h13.5v-8.7H108V408z
				 M114.8,416.5H135V408h-20.2V416.5z M128.3,407.9h13.5v-8.7h-13.5V407.9z M114.8,399.2H135v-8.7h-20.2V399.2z M121.5,390.5h6.7
				v-8.7h-6.7V390.5z M121.5,425.2h6.7v-8.6h-6.7V425.2z M0,408h13.5v-8.7H0V408z M6.8,416.5H27V408H6.8V416.5z"/>
			<path class="st1" d="M20.3,407.9h13.5v-8.7H20.3V407.9z M6.8,399.2H27v-8.7H6.8L6.8,399.2z M13.5,390.5h6.7v-8.7h-6.7V390.5z
				 M13.5,425.2h6.7v-8.6h-6.7V425.2z M6.8,355.8h27v-8.7h-27L6.8,355.8z M40.5,355.8h27v-8.7h-27V355.8z M74.3,355.8h27v-8.7h-27
				V355.8z M108,355.8h27v-8.7h-27V355.8z M54,338.4h33.7v-8.6H54L54,338.4z M6.8,338.4h33.7v-8.6H6.8V338.4z M101.3,338.4H135v-8.6
				h-33.7V338.4z M135,303.8h6.7V295H135V303.8z M0,303.8h6.7V295H0V303.8z M60.8,260.3h6.7v8.7h-6.7V260.3z M74.3,260.3H81v8.7
				h-6.7L74.3,260.3z M74.3,243H81v8.7h-6.7L74.3,243z M60.8,243h6.7v8.7h-6.7V243z M13.5,477.3H27v8.7H13.5V477.3z M108,312.4h6.7
				v-8.7H108V312.4z M27,312.4h6.7v-8.7H27L27,312.4z M60.8,303.7H81v8.7H60.8V303.7z"/>
		</g>
	</g>
</g>
</svg>
