<?xml version="1.0" encoding="utf-8"?>
<!-- Generator: Adobe Illustrator 24.0.1, SVG Export Plug-In . SVG Version: 6.00 Build 0)  -->
<svg version="1.1" id="flag-icons-bz" xmlns="http://www.w3.org/2000/svg" xmlns:xlink="http://www.w3.org/1999/xlink" x="0px"
	 y="0px" viewBox="0 0 800 480" style="enable-background:new 0 0 800 480;" xml:space="preserve">
<style type="text/css">
	.st0{fill:#CE1126;}
	.st1{fill:#003F87;}
	.st2{fill:#FFFFFF;}
	.st3{fill:none;stroke:#552300;stroke-width:3.9;}
	.st4{fill:#007F00;}
	.st5{fill:#005800;}
	.st6{fill:#730000;stroke:#000000;stroke-width:0.5;}
	.st7{fill:#289400;stroke:#003300;stroke-width:0.5;}
	.st8{fill:none;stroke:#004B00;stroke-width:0.5;}
	.st9{fill:#9DD7FF;}
	.st10{fill:#FFFFFF;stroke:#000000;stroke-width:0.7;}
	.st11{fill:#FFD83C;stroke:#000000;stroke-width:0.7;}
	.st12{fill:none;stroke:#000000;stroke-width:0.5;}
	.st13{fill:#FF0018;stroke:#000000;stroke-width:0.5;}
	.st14{fill:#FFFFFF;stroke:#000000;stroke-width:0.5;}
	.st15{fill:#006AC8;}
	.st16{fill:#5AC800;stroke:#000000;stroke-width:0.6;}
	.st17{fill:#FFD800;stroke:#000000;stroke-width:0.6;}
	.st18{fill:#B34B00;stroke:#000000;stroke-width:0.5;}
	.st19{fill:#FFFFFF;stroke:#000000;stroke-width:0.6;}
	.st20{fill:#CCB8C8;}
	.st21{fill:none;stroke:#000000;stroke-width:0.4;}
	.st22{fill:#782121;stroke:#000000;stroke-width:0.5;}
	.st23{fill:#7E4B7E;}
	.st24{fill:none;stroke:#7E4B7E;stroke-width:0.9;}
	.st25{fill:none;stroke:#7E4B7E;stroke-width:0.9;stroke-linecap:square;}
	.st26{fill:#289400;stroke:#006600;stroke-width:0.5;}
	.st27{fill:none;stroke:#7E4B7E;stroke-width:0.8;}
	.st28{fill:url(#SVGID_1_);stroke:#000000;stroke-width:0.48;stroke-miterlimit:3.84;}
	.st29{fill:url(#SVGID_2_);stroke:#000000;stroke-width:0.48;stroke-miterlimit:3.84;}
	.st30{stroke:#000000;stroke-width:0.48;stroke-miterlimit:3.84;}
	.st31{fill:#FFFFFF;stroke:#FFFFFF;stroke-width:0.48;stroke-miterlimit:3.84;}
	.st32{fill:none;stroke:#000000;stroke-width:0.48;stroke-miterlimit:3.84;}
	.st33{fill:#FFFFFF;stroke:#000000;stroke-width:0.288;stroke-miterlimit:3.84;}
	.st34{stroke:#000000;stroke-width:0.288;stroke-miterlimit:3.84;}
	.st35{fill:#FFFFFF;stroke:#000000;stroke-width:0.48;stroke-miterlimit:3.84;}
	.st36{fill:#9B5F00;stroke:#000000;stroke-width:0.48;stroke-miterlimit:3.84;}
	.st37{fill:#FFA54B;stroke:#000000;stroke-width:0.48;stroke-miterlimit:3.84;}
	.st38{fill:#FFB366;stroke:#000000;stroke-width:0.48;stroke-miterlimit:3.84;}
	.st39{fill:url(#SVGID_3_);stroke:#000000;stroke-width:0.48;stroke-miterlimit:3.84;}
	.st40{fill:url(#SVGID_4_);stroke:#000000;stroke-width:0.48;stroke-miterlimit:3.84;}
	.st41{fill:#730000;stroke:#000000;stroke-width:0.48;stroke-miterlimit:3.84;}
	.st42{fill:#730000;}
	.st43{fill:#5AC800;}
	.st44{fill:none;stroke:#006600;stroke-width:0.5;}
	.st45{fill:#6699FF;}
	.st46{fill:none;stroke:#000000;stroke-width:0.7;}
	.st47{fill:none;stroke:#FFFFFF;stroke-width:0.7;}
	.st48{stroke:#000000;stroke-width:0.7;}
	.st49{fill:none;stroke:#000000;}
</style>
<path class="st0" d="M0,0h800v480H0V0z"/>
<path class="st1" d="M0,34.3h800v411.4H0V34.3z"/>
<circle class="st2" cx="400" cy="240" r="188.6"/>
<circle class="st3" cx="400" cy="239" r="156.3"/>
<path class="st4" d="M382,73.2c14-15.2,26.9,2.3,26.5,10.6C408.2,92,394,110,381,95.5c13.4,3.4,17.4-11.5,24.1-11.7
	c-6.7,0.2-9.5-14.6-23.2-10.6L382,73.2z M234.8,192.2c-7.4-19.4,14-23,21.3-19c7.3,3.9,17.3,24.6-1.6,29.6c9-10.4-2.7-20.5,0.2-26.6
	C251.8,182.2,237.2,178.2,234.8,192.2z M551.9,173c19.4,7.6,7.6,25.8-0.2,28.4c-7.9,2.7-30-4-21-21.2c1.6,13.6,17,12,19.7,18.1
	C547.8,192.1,560.7,184.3,551.9,173z M298.8,377.4c-20.7-2-14.3-22.7-7.5-27.4c6.8-4.7,30-4.3,26,14.7c-5.3-12.6-19.7-6.8-24-12
	C297.6,357.9,287.3,369,298.8,377.4L298.8,377.4z M508.1,362.4c0.3,20.7-21.1,16.8-26.6,10.6c-5.4-6.2-7.7-29,11.8-27.3
	c-12,6.6-4.6,20.2-9.4,25c4.8-4.8,17.1,4,24.2-8.2V362.4z M250,153c-1.9-20.6,19.8-18.3,25.7-12.6c6,5.8,10,28.4-9.6,28.2
	c11.5-7.6,3-20.5,7.4-25.6C269.1,148,256.2,140.2,250,153L250,153z M272.2,346c-20.5-3.5-12.7-23.7-5.6-27.9c7-4.2,30.1-2.3,25,16.4
	c-4.5-13-19.3-8-23.1-13.6c3.8,5.5-7.2,16,3.7,25L272.2,346z M434.3,74c18.6-9.2,24.3,11.7,21,19.3c-3.2,7.5-23,19.4-29.8,1.3
	c11.2,7.9,20.3-4.7,26.7-2.4C445.8,89.9,448.5,75.2,434.3,74L434.3,74z M474,388.3c-9.3,18.5-26.5,5.3-28.5-2.7s6.5-29.3,23-19
	c-13.8,0.5-13.4,16-19.8,18C455.1,382.6,462,396,474,388.3z M564.5,209.6c15.6,13.7-1.7,26.8-10,26.7c-8.2-0.1-26.8-13.8-12.5-27
	c-3,13.4,12,17,12.4,23.6C554.1,226.2,568.9,223.1,564.5,209.6L564.5,209.6z M301.5,100.8c4.7-20,24.5-11.2,28.4-3.9
	c3.8,7.3,0.5,30-18,23.8c13.3-3.7,9.3-18.6,15-22C321.2,102.1,311.4,90.7,301.5,100.8z M239.9,273.3c-18.2-10-4.2-26.5,4-28.1
	c8-1.7,29.2,7.7,18,23.7c0.2-13.7-15.4-14-17.2-20.5c1.8,6.5-12,12.7-4.8,25V273.3z M503.5,113.7c20.6-3,19.4,18.7,14,24.8
	c-5.5,6.2-28,11.4-28.9-8c8.2,11,20.8,1.9,26.2,6C509.4,132.4,516.7,119.2,503.5,113.7L503.5,113.7z M386.3,408.1
	c-19,8.4-23.8-12.7-20.3-20c3.6-7.5,23.9-18.6,30-0.1c-11-8.4-20.5,3.8-26.8,1.3C375.5,391.8,372.2,406.5,386.3,408.1L386.3,408.1z
	 M556.8,293c8.6,18.8-12.6,23.7-20.1,20.2s-18.8-23.6-0.2-29.7c-8.4,10.9,4,20.3,1.4,26.6C540.4,303.8,555.2,307.1,556.8,293
	L556.8,293z M231.7,232.4c-12-17,8-25.7,16-23.6c8,2,22.8,19.8,5.7,29.2c6.2-12.3-7.6-19.3-6.3-25.9c-1.3,6.6-16.5,6.1-15.4,20.2
	V232.4z M344,395.6c-19.6,7.1-23-14.2-18.9-21.4c4-7.2,25-16.9,29.9,2c-10.3-9.1-20.7,2.4-26.8-0.5C334.2,378.6,330,393,344,395.6z
	 M338.3,81.6c11.6-17.2,27-2,28,6.3c0.9,8.1-10.3,28.2-25.4,15.8c13.8,1.3,15.4-14,22-15.2C356.3,89.7,351.2,75.5,338.3,81.6
	L338.3,81.6z M538.5,333.7c1.3,20.6-20.3,17.7-26,11.7c-5.8-5.9-9.1-28.6,10.4-27.8c-11.7,7.2-3.6,20.4-8.2,25.4
	C519.3,338,532,346.3,538.5,333.7L538.5,333.7z M533.2,139.3c20.4,4,12,24,4.7,28c-7.2,4-30.2,1.3-24.4-17.2
	c4,13.1,19,8.7,22.6,14.4C532.5,158.8,543.8,148.8,533.2,139.3L533.2,139.3z M274.8,124.7c0.2-20.6,21.5-16.2,26.8-9.9
	c5.3,6.3,7,29.3-12.4,27c12.2-6.3,5-20,10-24.7C294.2,121.8,282.2,112.6,274.8,124.7L274.8,124.7z M249,311
	c-18.6-9.4-5.1-26.4,2.9-28.3c8-2,29.5,6.7,19,23c-0.4-13.7-16-13.4-18-19.8c2,6.4-11.6,13.1-4,25L249,311z M472,91
	c19.5-7.3,23,14,19,21.2s-24.9,17.1-29.9-1.7c10.4,9,20.7-2.6,26.9,0.3C481.8,107.9,486,93.5,472,91z M430.7,405.8
	c-15.2,14.2-26.7-4.1-25.8-12.3c0.9-8.2,16.3-25.3,28.2-9.9c-13-4.3-18,10.4-24.9,10C415,394,416.7,408.9,430.7,405.8L430.7,405.8z
	 M563.4,247.8c14.2,15.1-4.4,26.5-12.6,25.5c-8.2-0.9-25.4-16.3-9.8-28c-4.4,13,10.3,18,10,24.7
	C551.3,263.3,566.4,261.6,563.4,247.8L563.4,247.8z"/>
<path class="st5" d="M381,95.5c13.4,3.4,16.7-11.3,23.5-11.5C400.5,88.7,390.3,100.7,381,95.5z M382,73.2
	c14-15.2,26.9,2.3,26.5,10.6c-11.5-20-15-17-26.6-10.6H382z M254.4,202.8c9-10.4-2.8-19.9,0-26C257,182.4,263.3,196.9,254.4,202.8z
	 M234.7,192.1c-7.4-19.3,14-22.9,21.3-19C232.9,174.5,234,179.1,234.7,192.1z M530.6,180.3c1.6,13.5,16.7,11.3,19.3,17.5
	c-5.9-2-21-7.1-19.3-17.6V180.3z M551.8,173c19.4,7.6,7.6,25.8-0.3,28.4C566.2,183.6,562,181.4,551.8,173z M317.3,364.7
	c-5.3-12.6-19.2-6.4-23.4-11.7C300.1,353.3,315.9,354.2,317.3,364.7z M298.8,377.4c-20.7-2-14.3-22.7-7.5-27.4
	C282.1,371.1,286.7,372.1,298.8,377.4z M493.3,345.7c-12,6.6-4.2,19.6-9,24.3C483.9,364,483,348.2,493.3,345.7z M508.1,362.4
	c0.3,20.7-21.1,16.8-26.6,10.6C503.8,379.6,504.2,375,508.1,362.4z M266,168.4c11.5-7.5,2.7-19.8,7-25
	C274,149.5,276,165.2,266,168.4z M249.9,153c-1.9-20.6,19.8-18.3,25.7-12.6C252.9,135.5,252.8,140.2,249.9,153z M291.4,334.5
	c-4.4-13-18.7-7.6-22.5-13.2C275,322,290.8,324,291.4,334.5z M272.1,346c-20.5-3.5-12.7-23.7-5.6-27.9
	C255.9,338.6,260.5,339.9,272.1,346z M425.4,94.6c11.3,7.9,19.7-4.7,26.1-2.5c-5.4,3-19.3,10.6-26,2.5H425.4z M434.3,74
	c18.6-9.2,24.3,11.7,21,19.3C451.8,70.5,447.3,72.2,434.3,74z M468.5,366.6c-13.8,0.5-12.8,15.6-19.3,17.6c2.5-5.6,9-20,19.3-17.5
	V366.6z M474,388.3c-9.3,18.5-26.5,5.3-28.5-2.7C462.2,401.6,464.7,397.6,474,388.3z M542,209.3c-3.1,13.4,11.9,16.3,12.2,23
	C549.3,228.5,537,218.6,542,209.3z M564.5,209.6c15.6,13.7-1.7,26.8-10,26.7C574.4,224.3,571.2,220.9,564.5,209.6z M311.9,120.6
	c13.3-3.6,8.8-18,14.6-21.5C325.5,105.1,322.5,120.6,311.9,120.6L311.9,120.6z M301.5,100.8c4.7-20,24.5-11.2,28.4-3.9
	C309.9,85.2,308.3,89.7,301.5,100.8L301.5,100.8z M262,268.8c0.1-13.6-15.2-13.3-17-19.8c5.6,2.7,19.9,9.7,17,19.9V268.8z
	 M240,273.3c-18.3-10-4.3-26.5,3.9-28.1c-16.8,15.9-13,18.6-4,28.1H240z M488.6,130.5c8.2,11,20.2,1.6,25.6,5.7
	C508.1,137.4,492.5,140.3,488.6,130.5z M503.5,113.7c20.6-3,19.4,18.7,14,24.8C521.2,115.8,516.5,116,503.5,113.7z M396,388
	c-11-8.4-19.9,3.9-26.1,1.4c5.5-2.8,19.7-9.8,26-1.4H396z M386.3,408.1c-19,8.4-23.8-12.7-20.3-20
	C368.7,410.9,373.2,409.5,386.3,408.1z M536.5,283.4c-8.4,10.9,4,19.7,1.5,25.9c-2.8-5.4-10-19.5-1.5-26V283.4z M556.8,292.9
	c8.6,18.8-12.6,23.7-20.1,20.2C559.7,310.3,558.3,305.9,556.8,292.9z M253.5,237.9c6.2-12.3-7.7-18.6-6.4-25.2
	C250.9,217.5,260.6,230,253.5,237.9z M231.7,232.2c-12-16.9,8-25.5,16-23.5c-22.1,7-19.8,11-16,23.6V232.2z M355,376.2
	c-10.3-9.1-20,2.5-26.2-0.4c5.7-2.4,20.4-8.5,26.2,0.3V376.2z M344,395.6c-19.6,7.1-23-14.2-18.9-21.4
	C326.2,397.2,330.8,396.1,344,395.6z M341,103.7c13.7,1.3,14.7-13.8,21.3-15c-3.1,5.3-11.4,18.8-21.4,15H341z M338.3,81.5
	c11.6-17.1,27-1.8,28,6.3C351.8,69.8,348.7,73.5,338.3,81.5z M523,317.6c-11.7,7.2-3.3,19.8-7.9,24.8
	C514.4,336.3,512.8,320.6,523,317.6L523,317.6z M538.6,333.7c1.3,20.6-20.3,17.7-26,11.7C535,351.1,535.3,346.4,538.6,333.7z
	 M513.6,150.1c4,13.1,18.5,8.3,22.1,14c-6-1-21.8-3.5-22-14H513.6z M533.3,139.3c20.4,4,12,24,4.7,28
	C549.3,147.2,544.8,145.7,533.3,139.3z M289.3,141.9c12.2-6.4,4.7-19.6,9.6-24.2C299.2,123.8,299.7,139.6,289.3,141.9z M274.9,124.7
	c0.2-20.6,21.5-16.2,26.8-9.9C279.7,107.7,279.1,112.4,274.9,124.7L274.9,124.7z M270.9,305.7c-0.3-13.7-15.6-12.8-17.6-19.2
	C259,288.9,273.5,295.5,270.9,305.7z M249,311c-18.5-9.4-5-26.4,3-28.3C235.8,299.1,239.7,301.7,249,311z M461.2,110.6
	c10.4,9,20-2.8,26.2,0C481.7,113.2,467.1,119.3,461.2,110.6z M472,91c19.5-7.3,23,14,19,21.3C489.8,89.3,485.2,90.4,472,91z
	 M433.1,383.6c-13-4.3-17.4,10.2-24.2,10C413.2,389.1,424.3,377.8,433.1,383.6z M430.7,405.8c-15.2,14.2-26.7-4.1-25.8-12.3
	C414.9,414.2,418.7,411.4,430.7,405.8z M541,245.3c-4.4,13,10.2,17.3,9.9,24C546.4,265.1,535.1,254,541,245.3L541,245.3z
	 M563.4,247.8c14.2,15.1-4.4,26.5-12.6,25.5C571.8,263.4,568.9,259.7,563.4,247.8L563.4,247.8z"/>
<g>
	<path class="st6" d="M429,120.3c0,0,0.6-1.3,1.7-0.6c1,0.8,1.3,4.2,1.3,4.2l-1.6,0.8c0,0,0.9-1.3-1.3-4.4H429z M420.2,151
		c0,0,0.8-1-0.3-3.4l1.5-0.5c0,0,0.6,1.8-0.2,3.9H420.2 M447.2,145.6l-3.7,2.3l1.9,0.8l4.5-2.6L447.2,145.6 M397.5,160.2
		c-1,0.8-1,2.1-1.7,3c-0.4,0.7-2,1.8-2,3c-0.2,1.1-0.3,1.9,0.2,3.5c0.6,1.5,3,8.5,2,13.7c-1,5.3-0.6,7.5-0.3,8.3
		c0.4,0.8,1.6,3,2.3,3c1.6-0.2,0.9-0.7,1.5-1.7c1.4-2.5,0-22.2-0.7-27.6c-0.5-4.2-2.5-8-2.7-8.4l-0.8-2.6c-1.5-3.5-3.3-6.5-3.3-13.9
		c0,0-4.7,1.1-8.8-8.2c-2.2-4.7-5.3-4.2-9-5.7l1.6-1.1c0,0,3.2,1.6,4.7,1.6c1.6,0,1-3.2,1-3.2l1.7-1.5v6.8c0,3.1,4.3,7.4,6.8,8.7
		c1.6,0.8,3.6-2.4,3.1-5.6c-0.5-3,0-7.3,0-7.3l2.2,1.3c0,0-0.8,1.3-0.6,2.1c0.3,0.8,1.3-0.7,2.1-1.5c0,0,0.2,0.2,1,0.2l-2.3,4
		c-0.8,1.2-0.8,6.2-0.8,8c0,2,0.7,6.2,0.7,7.6c0,1,1.8,5,3.3,7.4l1.6,3.5c1.2,1.9,1.3,3.2,2,4.7c0.4,0.8,1,3,1.6,7l0.7,7
		c0.2,2.4,2.2,0.6,4.5-1c2.4-1.8,2.4-6,2.4-6s1.8-1.6,1.5-0.7c-0.2,1,1,2,1,2c-1.4,3.3-0.6,2.9,0.9,2.8c1.5-0.2,6.5-4,6.5-4
		c0.7-0.2,3.8-0.2,3.3,0c-0.6,0.3-1.4,1.7-1.4,1.7l3.3-0.4c-1.1,0.9-5.5,3.4-6.5,4c-2.8,1.5-5.7,2.9-8.6,4.1c-2.3,1-6.7,3.2-6.9,5.4
		c0,2.3,0.3,8.3,0,10.3l-1,10.6h-10.4c0,0,2-7.6,0-9.7c-2.1-2.1-7-8.4-10-10.5c-3.2-2,2-0.5,2-0.5v-2.1l4.8,5.7c0,0,8.3-7.3,0-17.3
		c-2.6-3.1-5.3-7.9-7.3-8.4c-2.2-0.6-3.3-1-6.9,0c-3.7,1.1-12.6,1.1-16.3-4.8l3.1-0.5l2.7-1c0,0-1.1,3.7,6.3,3.7s8.4,0,7.8-6.8
		l2.2-1.1l1.6,1.5c0,0-1.1,3.8-0.5,5.3c0.5,1.6,3,2.7,5.1,4.2c1,0.7,1.6,0.8,2.2,0.8c0.9-0.1,1-0.1,2.2-1.3c1.8-2,1.4-1.8,3.2-3.4
		l1-1.6L397.5,160.2L397.5,160.2z"/>
	<path class="st6" d="M399,155c0.5-0.4,1.2-1.9,2-3.1c1.1-2,2.5-3.2,4-5.6c1.5-2.2,2-5.6,1.5-7.9l1.4,0.8v3.7l2.7-2l0.8,0.4
		c0,0-5.9,6-11.3,15.9l-1-2.2L399,155z M347.7,134.7c0.8,1.4,1.6,4,3.9,6l1.6-0.4c0,0-3.6-4.2-3.6-6L347.7,134.7 M356.9,132.3
		c0,0,0.5,5-0.8,6.9l1.6-0.8c0,0,1-3.4,0.7-5.3L356.9,132.3L356.9,132.3z M408.3,116.6c0,0-0.3,7,1.1,11.3l1.9-0.5
		c0,0-0.3-1.3,1.2-1.9c1.6-0.5,5.3-2,7.2-3.6l-0.6-1.6c0,0-2.8,2.3-4.2,2.9c-1.3,0.5-2,1-3.1,0.7s-2.4-2-1.6-6L408.3,116.6
		 M429,149.4c0,0-0.4,5-0.2,7.2l1.7,0.4c0,0-0.4-6,0.7-6.5L429,149.4 M436.5,153.2c0,0-1.9,3.2-4,3.5l3.4-0.7c0,0,1-0.5,2.4-2
		L436.5,153.2"/>
</g>
<g>
	<path class="st7" d="M406.6,138.4l1.3,0.8l1.3,0.2l3.2,2.6c1.2,1,1.2-0.2,1.2-0.2l0.8,3.1h1l-0.2,3.2l1.8-1.6l2.2,1.9
		c0,0,1.5-1.4,2.3-1.4s1.1-0.8,1.1-0.8h0.1c-5.2-2.4-7.4-5-5.9-7.6c2.6-4.4,6.8-1.6,8.1-1l19,10.2c0,0,1.3-0.8,0.4-1.6
		c-1-0.8-1.4-2.7-1-3.5c0.2-0.8,2.4,2.4,3.4,2.7l3.5,0.7v-1c0,0,3,2.2,3,3.3c0,0,2.3-1.2,1.5-1.9c-0.7-0.7,3.5,1.7,3.7,3l1-1
		c-0.2,0,0.2-3.2,1.3-4.6c0.5-0.8,1.2-1.5,2-1.9c0,0,1-1.7,2-1.7c0,0-1-0.6-1.4-1.4c-0.5-0.8-1.6-1.2-1.6-1.2s1.4-1,1.8-1.5
		c0.4-0.6,0.8-0.7,0.8-0.7s-2.2-1.9-3.8-2.2c0,0-0.1-2.5-2-2.7h0.8c0,0-1.4-2.8-2.8-2.8c0,0,0.9-1,1.6-1.1c0,0-1.6-2.2-3.9-1.4
		l1.5-0.6c0,0-1-1.1-4.4-0.6c0,0,0.3-1.3-1.2-2.4c0,0-1.2,0-1.2,1c0,0-1.2-1-2.7-1c-1.4,0,0.5,1.6,0.5,1.6s-2-1.3-3.1-1
		c0,0,0.5-2.2-0.8-3.3c0,0-1.4,0.7-1.8,1.7l-0.4-1c0,0-2,2.4-2.4,1.7c-0.3-0.4-0.6-2-0.6-2l-1.1,1.7l0.2-2.4c0,0-1.4,0.8-2.5,3.3
		c0,0-1.3,1.3-1.3,2.4c0,0-1.1-1.2-2,0c-1,1.4,0,1.1,0,1.1s-0.5,0.5-1.5,0.7l0.2,0.8c0,0-1.2-0.7-2.2-0.4l0.5,1.2c0,0-2.6,0.2-2.7-2
		c0,0-2.1-1-2.4,0.2l-1.6,1c0,0-0.5-1-1.3-1.2c-1-0.3-0.2,1.3-0.2,1.3s-0.3-1.2-1.5-1.8c-1.2-0.5-0.2,1-0.2,1s-1.5-1.2-0.8-2.2
		c0,0-1.4,1.4-0.7,2.7l-1,0.7c0,0-0.5-0.5-0.4-1c0-0.3-1.7,1.3-1.7,1.3s-1-2.6,0-2.6c0.1,0-1.8,0-2.1,2.2c0,0-1.3,0-2.5,0.4
		c-1.2,0.4,1,1.3,1,1.3s-2-0.4-3,0.2l0.7,0.9c0,0-0.7-0.7-2.4-0.1c-1.7,0.5,0.4,0.8,0.4,0.8s-1.7-0.4-2.6,0s0.3,1,0.3,1
		s-3.2-1-3.7-0.6c-0.5,0.3,1,1.8,1,1.8s-2,0.5-2.3,2l1.8,0.7c0,0-0.8,0.4-1.2,1.1c-0.4,0.8,1.2,0.4,1.2,0.4s-2.2,1.6-2.2,2.8
		c0,0,1.6,0.5,2.7-0.7c1.2-1.2,0.4-0.8,0.4-0.8l0.1,0.8c0,0,2.3-1,2.3-1.6c0-0.5-0.4,0.8-0.4,0.8l2.2-1.2L406.6,138.4L406.6,138.4z"
		/>
	<path class="st7" d="M404.7,108l-0.5-2.2l5,0.6l0.9-2c0,0,2.4,1,3.1,1.8c0,0,4.6-1.2,6-0.7l-0.6,2.1c0,0,4.2,0.3,5.6,0.8
		c1.2,0.5-0.6,1.6-0.6,1.6s4.8,0.6,6.8,1.8c2.2,1.3,2.2,2.4,1.1,2.7l2.6,4.2c0,0-4.2,0.5-5,1.5c-0.7,1.1-1.5-1-1.5-1l-0.8,2.9
		c0,0-2.6-1.4-3.7-2.4c0,0-1.3,1.6-0.5,2.4l-4.8-3.1c0,0-2-0.3-2,1.5l-3-3.4l-2.6,0.8c0,0-0.8-1-1.7-1.4c-1.1-0.2-0.3,1.4-0.3,1.4
		l-1.6-1.9l-1.6-1.8c0,0-1.3,1.8-2.4,1.8c-1,0-1-1.2-0.8-2.1c0.3-0.8-3.1-1-3.4,0c0,0-1-4,2.6-5L404.7,108L404.7,108z M385.7,121.3
		l-1.6,1.6l-1-0.5l-1.9,2.1l-0.4-1.1l-1,1.7l-1.7-0.6l-0.8,1.3l-1.5-0.3c0,0-1.2,1.2-2,1.5c-0.8,0.2,0-1.8,0-1.8s-1.2,2-2,2
		c-0.9,0-0.6-1-0.6-1s-0.5,1.4-1.4,1.6c-0.9,0-0.5-1-0.5-1l-1.6,1.2v-1l-0.7-0.3c0,0,0.4-1.8,1.1-2.2c0.7-0.4-0.7-1.5-0.7-1.5
		l0.7-0.8c0,0-2-0.5-2-0.1c0,0,1-2.6,2.4-3.1l0.1-3c0,0,1.4-1.1,2.6-1.2c1.4-0.2-0.4-2.3-0.4-2.3l3.2-1.8l0.4-2.3l4.7,0.4l1-2l3.8,1
		l3.3-1.7l2.3,2.7l3.5,0.3v3.1c0,0,4.1,1.3,4.6,1.7c0,0-0.8,2.5-0.8,3c0,0,3-0.8,3.8-0.6l0.4,3.4c0,0,5,1.6,5.3,2.5
		c0,0-1,0.7-1.7,1.6c0,0,0.6,3,0.6,4l-0.4,0.5c0,0-1.4-1.3-2.6-1.5l-1,2.1l-1.7-1.1h-1.1c0,0-0.9-1-1.6-1v-1l-1.4,0.9
		c0,0-2.2-1.1-2.2-1.8l0.1-1.5l-2.2,1.5c0,0-0.5-1.1-0.4-1.6c0-0.5-0.9,1.1-0.9,1.1s-1.2-2-1-2.4l-0.4,1.7
		C388.4,123.7,386.1,122.9,385.7,121.3L385.7,121.3z"/>
	<path class="st7" d="M354.5,130.9c0,0,4.1,2,4.1,3c0,0,1.1-2.1,0.5-3l1.6,1.1c0,0,0.5-1.9-0.1-2.5c-0.5-0.5,3.5-2.1,4.4,0.5
		c0,0,2.4-2.5-2.3-4.7c0,0-0.4-1.6,2.5-1.2c0,0-0.2-1-0.9-1.3h2.7c0,0-1.6-1.4-4-1.8s-1-0.7-1-1.2c-0.2-0.5,0-2.2,0-2.2
		s-1.4-0.5-2.5,0l0.4-0.4c0,0-2.5-0.7-3.5-0.1c0,0-1.5-0.6-1.3-2.1c0,0-1.5-0.1-2.1,1.4c0,0-1.4,1.6-3.3,1.6c-0.3,0-1.7-0.8-1.7-0.8
		l-1.2,2.7H345l0.5,1c0,0-2.8-0.8-3.7,0c0,0,1.1,1.7,0.8,2.8c0,0-2.2,0.4-2.7,0.8c-0.6,0.4,0.8,0.7,0.8,0.7s-2.6,0.8-3.2,1.6l1,0.7
		l-1.2,1.6l1,0.2l-2.5,0.8c-0.9,0.3,1.5,0.5,1.5,0.5l-1.1,1l1.8,0.3c0,0-1.4,4-1.5,5.8c0,0,2.2-2.7,2.8-3l-1.8,3c0,0,3.4-1,3.7-1.6
		l0.5-1l0.1,1.6c0,0,1.3-1.7,1.5-2.4c0.1-0.7,2,0.7,2,0.7v-1l2.4,0.7c0.7,0,0.8-0.3,0.8-0.3l1.6-0.2l-0.3,1.4c0,0,1.2-0.8,1.5-1.6
		c0.2-0.8,0.8,0,0.8,0l0.8-3.1H354.5L354.5,130.9z M341.1,144.7l1.6,3.3c-1.3,0-3.1,1.5-3.1,1.5c0.3,5.4-1,5.1-1,5.1
		c0.3,1-0.3,2.8-0.3,2.8l7.7-4.6l0.1-0.5l9.2-4.3l0.3,0.5l2.6-1.5l1.9,4.9l-1.9,1c0.1,1.7,2.1,4.6,2.1,4.6l2.4-0.6l2.7-1v1
		c0-0.3,2.9-1.3,2.9-1.3l1.3,1.3c1-0.1,2.7-2.5,2.7-2.5l2,0.8c0,0,0.7-1.2,0.7-2s2.6-0.8,2.6-0.8l1.7,1.2l2.3-1.8
		c0,0,0.7,1.3,1.6,1.5c1,0.1,3.4,2,3.4,1.6s1-2.5,1-2.5l4.1,1.6c-0.5-1.8-2-4-2-4s2-1.6,1.7-2c-0.4-0.4-1.6,0-1.6,0l1.2-2.4h-1.6
		l0.5-0.6l-2.5-1l1.3-2.8c-0.6-0.7-7.3-2-7.3-2l1.6-1.5c0,0-0.8-1.2-1.6-1.2s-4.9,0.1-5-0.3l-1.8-1.8l-2.6,1.9l-1.3-0.4l-2.2,0.8
		c0,0,0,1.3-0.3,0.4c-0.3-0.8-2.3-2.8-2.3-2.8c-0.4,0.7-3,3.8-3,3.8s-0.5,1.7-1.3,0.5c-1-1.2-3-2.4-3.4-1.5c-0.2,1.1-2.1,2-2.5,1.8
		c-0.4-0.3-2.5-0.1-2.7,0.5c-0.1,0.7-2.5,2.4-2.5,2.4c-1.4-0.7-3.8-0.3-3.8-0.3s-0.7,1.1-0.8,2l-4.7,1.2L341.1,144.7z M385.3,184.3
		v-2l2.3,1.5l1.4-1.5l1.8,1.7l1-1.7v2.8l2.7-2.3l1.5,0.6v-2.2c0,0,1.9-3.1,1.1-3.7l1.6-0.5c0,0-2.7-2.6-3.4-3.1
		c-0.8-0.6-1.9-0.6-1.9-0.6s-2-2-3.4-2.7c-1.3-0.5-2,0.6-2,0.6s-0.8-1.5-2.2-1.8c-1.3-0.3-1.3,1-1.3,1s-1-1-2.2-1.4
		c-1.3-0.6-0.4,1.2-0.4,1.2l-4.5-1.4l0.6,1.4l-4.2-1.1l0.5,1.5l-3-0.5l-0.2,1.3l-4.2,0.8l0.8,1.4l-2.6-1.1v1.9l-3,1l1.1,1l-4.7,2.4
		c-0.7,0.5,1.6,1.6,1.6,1.6l-4.2-0.6l1.6,1.4l-3.7,3.4l2.6,1.9l-1.6,2.3l4,0.8l1.5,2.6l3.2-0.6v3l4.7-3.7c0,0,3.4,3,3.7,2.1
		c0.2-0.8,0.2-3.4,0.2-3.4h1.7V187l1.2,1l2.2-3.1l2.8,3.9l2.2-5L385.3,184.3L385.3,184.3z M404.4,172.5L404,168l-1.4,1.4l0.6-4.2
		l-2.2-0.4l0.8-4.1l-1.6-0.8l0.4-2l1.6-1.1l2.8-2.8l6.6,0.1l0.7-2.1l4.7,0.8c0.8,0.8,3.3-1.8,3.3-1.8h1l1,2c0,0,3.4-0.4,5,0.6
		l-1.9,2.6l3.5,0.3l2.3,0.5l2.4-0.8l3.2-0.2l0.7,1.3h3l-1,1.1l3.8,1.8l-0.8,0.8c0,0,2.2,0.8,3.7,0.8h0.8c0,0,0.8,1.8-0.3,2.6
		c0,0,1.1,2.6,3.4,3.1c2.4,0.5,2.4,0.5,2.7,1c0.3,0.6,0,3.2-2.7,3.2v2.7c0,0-2,1.8-2.3,2.6l-1.6-1c0,0-1.3,1.5-1.3,2.5
		c0,0-3.5-4.5-4.7-4.7c-1.4-0.2-1,2.6-1,2.6l-3.8-3.1l-0.5,2.1l-3.1-2.6l-1.9,1.3l-3.3-3.5l-3.2,0.4l1.2-1.6h-3.9L420,166l-0.6,2.8
		l-2.4-1.6l-3,3.3c0,0-0.4-0.4-0.9-2c-0.5-1.5-1.8,2-1.8,2l-1.1-2.5l-1.3,2.4c0,0-1-1.8-2.1-2.4C405.8,167.5,404.8,171,404.4,172.5
		L404.4,172.5z M405,182.8l0.2-1.6l5.6-2.2l4.7-1.7l2.3-1.1l1.1,1.9l1.4-2.7l2.1,2.8l1.2-1.5l1.8,1.4h1.6l0.3,2c0,0,3.9,0.3,4.2-0.5
		c0.3-0.8,0.8,2.7,0.8,2.7l3.7,0.5l0.8,4.2c0,0,1.8,3.9,1.2,5.4c-0.5,1.7-2-2-2-2s-0.3,2.9-0.6,3.7c-0.2,0.8-5-0.8-5-0.8l-2,3.9
		c0,0-2.2-3.1-3.2-3.1s-1,3.1-1,3.1l-4.5-5.3c-1.3-1.5-1.6,1.6-1.6,1.6s-2-3.4-2-4.4s-1.9-2.2-1.9-2.2s-3.2,3.7-5.6,4.7
		c0,0,0.3-2.3-0.5-3c-0.7-0.9-3,1.5-3,1.5s-1.7-3.6,0-7.4L405,182.8z"/>
</g>
<g>
	<path class="st8" d="M430.8,124.5l0.5,2c0,0,1.8-0.4,3-0.3l-0.7,2.2c0,0,2.3-0.4,3.4,0.3l-0.5,1.2l2.7,1.2l-2.5,2
		c0,0,4,1.5,4.9,2.7c0,0-2.7,1.8-3,1.7c-0.5-0.2-0.2,0.8,0.5,1.7l-2.2-0.1c0,0,0.9,2,0.8,2.8c-0.2,0.8-3.8,0.6-3.8,0.6 M448,137.2
		c0,0,0.7-3.9-0.4-4.9c0,0,2.5,2.2,4.2,2.3c1.8,0,0-3.2,0-3.2s2.3,1.2,3.5,1.5c1.2,0.2-0.9-2.4-0.9-2.4s0.7-1.3,2.7-0.1
		 M411.7,114.9c0,0,0-1-0.3-1.4c-2.4-3.2,2.4,2.4,3.4,2.6 M419.3,116.1c0,0,1.6,1.2,2.3,1.2c0.8,0-0.5-3.1-0.9-3.5
		c-0.3-0.4,2.9,1.3,4,1.4c1.2,0.3,1.4-2,1.4-2s3.6,0.7,4.4,1.2 M405.5,113.7l-0.5-3 M380.8,123.4c-0.2-0.3,1-2,0.5-2.9
		c0,0,0.7,0.6,1.4,0.7c0.6,0.1,0.4-2.2,0.4-2.2l0.7,0.3c0,0,2-1,1.7-1.8c-0.4-0.8,1.4,1.2,1.4,1.2s1.1-1.2,1.1-1.7s1.4,1.2,1.4,1.2
		s1.5-0.3,1.5-1.2c0-0.9,1.8,0.3,1.8,0.3s0.8-1,0.7-1.8 M373.7,125.3c0,0,0.9-2-0.1-3.4 M350,131.7c0-1,0.5-3.6,0-4
		c-0.4-0.4,1,0.4,2.2,0.7 M361.5,128c-1.2-1.1-1.9-1.7-3.7-1.7 M341.6,134.6c0.3-0.7,0.8-2.4,0.5-3.3 M367.1,183l1.3-2.6l1.6,3.7
		l1-2.3l0.4,0.7l2.4-2.5l2.5,3.8 M417,167.3l1.7-3.3l2.3,1.2l1-3.3l2.4,1.5l1.3-3l2.7,0.7l0.2-2.2c0,0,1.8,1,2.3,1.9
		c0.6,0.7,0-2.7,0-2.7l2.2,1c0,0,1.5-1.6-0.6-2.4"/>
	<path class="st8" d="M423.6,163.1l2.3,3.4l2-2.2l1.7,3.8l2.3-1.4l3.2,1.9l1.5-1.2l3.5,2.5l1.4-3l3.2,1l2-3.5 M362.3,155.2
		c0,0,1.4-2.3,1-3.4c-0.7-1,2.8,1.8,2.8,1.8s0.7-2.3,0.3-3.4c-0.6-1,3.9,3.2,3.9,3.2s0.7-3.7,0-4.4c-0.8-0.8,4.3,1,4.3,1
		s2-0.6,1.2-1.6c-0.8-1.1,3.4,1.5,3.4,1.5s1-2.6,0-3.6s3.2,1.3,3.2,1.3l-1.6-2.8l3.4,0.2l-0.3-3.2 M414.2,186.9l2.2-1l2,2l2.2-3.5
		l2.6,2.5l0.4-2.5l2.8,1.2l0.6-1.6l3.1,1.7l0.3-2.4l1.6,0.5l0.3-1.5"/>
</g>
<path class="st9" d="M363.1,298.1c-2.4-4.1-4.5-8.5-6-13l42.4-37.2l42.3,37.1c-1.6,4.7-3.6,9.1-6.2,13.3l-0.3,0.5l-3.2-1.2
	c0,0-1.4,1.3-2.5,1.4c-1.4,0.2-2.7-1.3-2.7-1.3s-1.8,1.6-3.7,1.3c-1.9-0.2-2.6-1.4-2.6-1.4s-2,1.6-3.4,1.3c-1.2-0.3-2.1-1.2-2.1-1.2
	s-1.2,1.5-2.8,1.2c-1.6-0.3-3-1.2-3-1.2s-2.5,1-4,1.3c-1.6,0.3-3-1.4-3-1.4s-2,1.4-2.8,1.4s-3.7-1.4-3.7-1.4s-3,1-4.1,1
	c-1,0-4-1.3-4-1.3s-2.9,0.8-4.1,0.8c-1.4,0-3.4-0.8-3.4-0.8s-2.3,1.1-3.6,0.8c-1.4-0.3-2.4-0.8-2.4-0.8s-2.6,1.1-4.2,0.8
	c-1.6-0.3-3.4-1.4-3.4-1.4S366.3,297.5,363.1,298.1"/>
<path class="st10" d="M399.5,205.1V248l-42.3,37.4c-2.9-8.7-4.4-17.9-4.4-27.1V205h46.7"/>
<path class="st11" d="M399.5,205.1V248l42.2,37.4c2.9-8.7,4.4-17.9,4.3-27.1V205h-46.5"/>
<g>
	<path class="st6" d="M372.2,289.2c3.2,1.7,2,1.2,8.7,3.5c6.7,2.1,13.7,3,20.7,2.8c8,0,12.4-0.7,15-1.4c2.5-0.7,3.1-1.8,3.1-1.8
		l-6.5,6.7c0,0-26.3,1.4-31-1.7c-2-1-6-4.2-10-8L372.2,289.2z"/>
	<path class="st12" d="M410.8,276.8c0,0,8.4,4.8,0,14 M373,289.8l12-11.6l-1.3,15.4 M390,295v-25.8 M410.8,295v-27.4 M400.3,295.5
		V266"/>
	<path class="st13" d="M390,270.6l-5.4,1.7l5.4,0.6V270.6 M400.3,266.6l-5.8,2.1l5.8,0.2V266.6 M410.8,268.1l-5.8,2.2l5.8,0.3V268
		V268.1z M414.2,280.5c-0.3-1.1,3.4-1,3.4-1s1,3.9,0,6.3l-3.1-0.6C414.5,285.2,414.8,282.6,414.2,280.5L414.2,280.5z"/>
	<g>
		<path class="st14" d="M374.8,288.1l10.3-10l-0.5,6c0,0-5.3,3.5-5.3,5.9L374.8,288.1 M380.3,290.2c0,0,1-3.1,4-4.7l-0.3,6.3
			L380.3,290.2L380.3,290.2z M395,272.9c0,0,4.2-0.6,7.4,0c0,0-0.5,4.2,0,5c0,0-5.8-1.4-8.1,0.8C394.3,278.7,393.5,274.7,395,272.9z
			 M386.1,273.9c0,0,4.2-0.5,7.4,0c0,0-0.8,4.8-0.3,5.5c0,0-4.7-2.6-7-0.4c0,0-1.6-3.3,0-5L386.1,273.9z"/>
		<path class="st14" d="M385.9,279.4c0,0,4.2-0.4,7.3,0c0,0-0.5,4.3,0,5c0,0-5.5-1.2-7.8,0.8C385.4,285.2,384.3,281.3,385.9,279.4z
			 M394.3,278.7c0,0,6-0.8,9.1-0.3c0,0-1.2,3.4,0.3,5.7c0,0-6.5-1.7-9,0.3C394.7,284.4,392.7,280.5,394.3,278.7z M385.3,285.2
			l8.2,0.6c0,0-0.8,6-0.3,6.7c0,0-6.6-1.5-7.8,0.6c0,0-2.2-5.4,0-7.9L385.3,285.2z M394.5,285.2c0,0,7-0.5,10.3,0
			c0,0-1.9,4.5,0.2,8.4c0,0-9.2-2.6-10.5-0.5C394.5,293.1,392.4,287.7,394.5,285.2z M405.3,272.9c0,0,4.2-0.6,7.3,0c0,0-0.5,4.2,0,5
			c0,0-5.8-1.4-8,0.8C404.6,278.7,403.7,274.7,405.3,272.9z M405.3,278.7c0,0,4.2-0.5,7.3,0c0,0-0.5,4.2,0,5c0,0-5.8-1.3-8,0.7
			C404.6,284.4,403.7,280.5,405.3,278.7z M405.8,284.7c0,0,4.2-0.6,7.4,0c0,0-1,6.6-0.6,7.4c0,0-4.8-2.3-7-0.3c0,0-1.4-5.2,0.2-7
			V284.7z"/>
		<path class="st14" d="M414.5,285.2c0,0,1.3,5,3,5.6l-2.2,2.8c0,0-2.9-2-3.2-4.4C412.1,289.2,414,287.1,414.5,285.2L414.5,285.2z"
			/>
	</g>
</g>
<g>
	<path class="st15" d="M435.4,298.7c-8.3,13.4-21,23.4-36,28.3c-15.1-5-28-15.2-36.3-28.8h0.1c3-0.7,3.4-1.5,3.4-1.5
		s1.8,1.1,3.4,1.4s4.2-0.8,4.2-0.8s1,0.5,2.4,0.8c1.3,0.3,3.6-0.8,3.6-0.8s2,0.8,3.3,0.8s4.1-0.8,4.1-0.8s3,1.3,4,1.3
		c1.1,0,4.2-1,4.2-1s2.9,1.4,3.7,1.4c0.7,0,2.8-1.4,2.8-1.4s1.4,1.7,3,1.4c1.5-0.2,4-1.3,4-1.3s1.4,0.9,3,1.2
		c1.6,0.3,2.8-1.2,2.8-1.2s0.9,0.9,2.1,1.2c1.4,0.3,3.3-1.3,3.3-1.3s0.8,1.2,2.7,1.4c1.8,0.3,3.7-1.3,3.7-1.3s1.3,1.5,2.7,1.3
		c1.1-0.1,2.5-1.4,2.5-1.4L435.4,298.7"/>
	<path class="st12" d="M433.7,301.2c-1.4,0.1-1.6-0.8-1.6-0.8s-2,1.6-3.8,1.3c-2-0.3-2.9-1.5-2.9-1.5s-2,1.6-3.4,1.3
		c-0.8-0.2-1.6-0.5-2.3-1.1c0,0-1.3,1.4-3,1.1c-1.6-0.2-3-1.1-3-1.1s-2.7,1-4.4,1.3c-1.6,0.3-3-1.5-3-1.5s-3.8,1.2-4.6,1.2
		c-0.9,0-3.6-1.2-3.6-1.2s-1.9,1.1-3,1.1s-4.2-1.3-4.2-1.3s-3,0.8-4.3,0.8c-1.4,0-3.5-0.8-3.5-0.8s-2.5,1-3.9,0.8l-2.4-0.8
		c0,0-2.7,1-4.4,0.8c-1.6-0.4-3.6-1.4-3.6-1.4s-0.3,0.7-3.5,1.4h-0.1"/>
	<path class="st16" d="M373.1,305.2c0,0-0.3,0.7-2.8,1.2l-0.7,0.2l0.6-0.2l-0.7,0.3c3.2,4.4,7.2,8.1,11.7,11c4.5,3,9.6,6.6,18.4,9.2
		c6.3-2.1,12.3-5.2,17.8-9c6-4.5,9.2-7.2,12.6-11.7c-2.7,1.5-2.3,1.5-3.7,1.3c-1.3-0.3-2.3-1.3-2.3-1.3s-1.3,1.5-3,1.3
		c-1.6-0.3-3-1.3-3-1.3s-2.2,1.5-4.4,1.4c-1.6-0.1-3-1.6-3-1.6s-3.8,1.3-4.6,1.3c-0.9,0-3.6-1.3-3.6-1.3s-1.9,1.2-3,1.2
		s-4.2-1.4-4.2-1.4s-3,0.8-4.3,0.8s-3.4-0.8-3.4-0.8s-2.5,1-4,0.8c-1.3-0.3-2.4-0.8-2.4-0.8s-2.7,1-4.4,0.8
		C375.1,306.3,373.1,305.2,373.1,305.2z"/>
	<path class="st17" d="M399.6,326.9c6-2.2,11.7-5.1,17.1-8.6c-1,0-4-1-2.9-1.2c0,0-1.2,1-2.3,1c-1.1,0-4.2-1.3-4.2-1.3
		s-3,0.7-4.3,0.7c-1.4,0-3.4-0.7-3.4-0.7s-2.6,1-4,0.7l-2.4-0.7c0,0-2.8,1-4.4,0.7s-3.6-1.3-3.6-1.3s-2.4,1.3-4,1.4
		C386.7,321.8,392.9,325,399.6,326.9L399.6,326.9z"/>
</g>
<g>
	<path class="st18" d="M393.2,249c1.9-1.6,3-3,2.3-4.2c-0.7-1-1.8,0.6-3,0.2c0,0-2-1.1-2.5-2c-1-1.2-2.5-2.3-3.3-3.4
		c-0.9-1-4.2-5.3-9.1-10.3c-1.5-0.9-1.1-4.4-2.2-5.5c0-0.8-10-10.6-13.4-14c-1.5-1.1-2.2-1.8-4.7,0.5c-2,1.7-2.7,3.6-0.1,5.8
		l12.8,11.7c1.9,1.8,4.5,2.1,5.6,3l13,13.4c1.7,1.4,2.5,2.4,1.5,3.6c-1,2,0.1,2.3,0.3,2.3c0.2,0.1,1.1,0.1,1.7-0.4l1-0.7L393.2,249z
		"/>
	<path class="st12" d="M360.7,214l13.4,13.2"/>
	<path class="st19" d="M378.8,220l1.1-2.5c0.2-0.4,3.8-6.2,5.6-6.3l11.3,8.2c0,0.5-5,7.8-5.3,7.2C391.5,226.6,378.3,221.1,378.8,220
		L378.8,220z"/>
	<path class="st20" d="M386,222c-1.6-1.2-4.1-2.4-6.2-3.8l-0.9,2c0.7,0.8,10,5.1,11.6,6c0,0-1.8-2-4.6-4.2H386z"/>
	<path class="st21" d="M379.8,218c1.6,1.1,3.3,2.1,5,3.1c2.7,2,4.4,4,6.4,5.2"/>
	<path class="st22" d="M357.1,253l25.5-31.7c0.5-0.4,2.9-0.4,3.2,2l-24.2,33c0,0-2.7-0.3-4.5-3.4V253z"/>
	<path class="st6" d="M442.7,253.3c-1,0.7-2.4,0.8-2.4,0.8c-1.7-1.9-3-4-5.4-6.5l-25.5-31.3l2.7-2.6l23,26.9
		c0.6,0.7,4.6,4.9,8.4,9.8C443.5,250.4,443.8,252.4,442.7,253.3L442.7,253.3z"/>
	<path class="st14" d="M418.1,220.3l-4-5c0,0-3.2,0.5-3.8,2.1c0,0-2.2,3.7-8.2,4.1c0,0,1.7,7,8.6,10.7c0,0,2.5-7.2,5-8.4
		C415.7,223.8,418.2,221.9,418.1,220.3L418.1,220.3z"/>
	<path class="st6" d="M407.9,242c-0.6-0.3-1.2,0-2,0.4c-0.9,0.5-1.8,0.3-1.7-0.7c0-0.8,0-0.7,1-1.4c1.5-0.9,3.3-1,5-0.5L407.9,242
		 M435.7,214.2c-0.2-0.7-0.4-1.4,0.3-2.2c0.7-0.8,0.7-2.2-1-1.5s-2.2,2.5-0.9,5.4L435.7,214.2z"/>
	<path class="st14" d="M407.3,242.5l28.9-28.7l7.1,7.6c0,0-1.5-0.6-2-0.2c-0.5,0.4,0.5,1.9,0.5,1.9s-1.3-0.5-1.9-0.1
		c-0.7,0.4,0,2,0,2s-1.2-0.8-1.8-0.5c-0.5,0.4,0,2.3,0,2.3s-1.5-0.5-2-0.1c-0.3,0.4,0,2,0,2s-1.5-0.7-2.3,0s0.4,1.9,0.4,1.9
		s-2-0.8-2.7,0.4c-0.8,1.2,0.1,2.2,0.1,2.2s-1.6-0.7-2-0.4c-0.4,0.4,0,2.3,0,2.3s-1.3-0.8-2.2,0.2c-0.9,1,0.1,2,0.1,2
		s-1.3-0.8-2-0.4c-0.6,0.4,0.2,2.2,0.2,2.2s-1.2-0.9-2.1,0c-0.9,1,0,2,0,2s-1-1-2.2,0c-1,1,0,2.1,0,2.1s-1.5-0.8-2.1,0
		c-0.7,0.8,0.2,1.9,0.2,1.9s-1.2-0.7-2-0.3c-0.7,0.4,0,2.1,0,2.1s-1.1-1.3-1.6-0.6c-0.6,0.7,0,2.4,0,2.4s-1-1.3-1.6-0.6
		c-0.7,0.6,0.4,2,0.4,2s-2-0.8-1.5-0.8L407.3,242.5z"/>
	<path class="st23" d="M434.5,216.2l-2.2,2.2l0.5,7.7c0,0,0.5-2.2,1.1-0.7c0,0,0.2-1.8,0.7-1.5c-0.4-0.2,0-7.8,0-7.8 M430.3,220.4
		l-1.6,1.5l0.6,7.7c0,0,0.4-2.9,1.1-0.6v-8.6 M412.8,237.6l-1.5,1.7l0.4,4.7c0,0,0.5-3,1.1-0.7l-0.2-2.6L412.8,237.6"/>
	<g>
		<path class="st24" d="M410.9,218.3c1,1,4,5,4,5 M412.3,220.4c-0.2,0.6-0.6,2.3-1.5,3.2 M412.8,220.8c-0.2,0.4-0.2,1.7-1.5,3
			 M413.3,221.4c-0.3,0.7-0.4,1.2-0.8,1.7 M413.5,222.1c0,0.4-0.3,0.5-0.4,0.8 M409.9,220.2c-1.5,1.1-3.1,2-4.8,2.8 M409.1,221.2
			c-0.9,0.9-2,1.6-3.1,2.2 M408.8,222.4c-0.5,0.4-1.5,1.4-2.3,1.7 M408.3,223.6c-0.4,0.5-1,0.8-1.5,1.1"/>
		<path class="st25" d="M391.3,224.7c0.3-0.6,0.9-1.8,1.6-2.8c1-1.4,1.3-1.6,1.8-2"/>
	</g>
</g>
<path class="st26" d="M297,303.4c1.5,0.7,0-4.8,0.5-6.8c0.6-2.2,4.8,5.2,6.8,6.2c2.2,1,15.3-5.2,15.3-5.2l3.1-5.8l1.7,4.8
	c0,0,3.6-4.2,4.6-5.8c1.1-1.6,0,3.1-1,4.7c-1.1,1.5,3.1,2.1,2.6,5.3c-0.5,3,4.2-2.2,4.2-2.2l12.1,1c0,0,2-7.3,5.3-11.5l1,4.8l5-5.1
	c7.1,18.6,22.3,33.1,41.3,39.2c18-5.9,32.6-19.2,40.2-36.6l6.7,7c0,0,5.3-1.6,6.3-2.2c5.4,1.3,10.6,3.1,15.5,5.6
	c1,0.7,0.3-3.5,0.3-3.5s5.8,1.1,5.3,4.2c0,0,1.2-2.9,2.3-3.4c1.1-0.5,3.6,2.7,4.2,3.7c0.5,1,13,2.6,14.7,3.6c0,0,1.3,1.6,1.3,2.7
	c0,0,2.7-0.3,4.7-0.3c0,0-1.5,0.8-1.5,2.4s-0.8,2.9-2.4,3.6c-1.5,0.8,0,1.4,2,1.6c2.2,0.3,0,3-4.1,4.5c0,0-1,2.3,0.8,3.1
	c0,0-3.7,0.3-4.2-0.8c0,0-1.3,2.5-1.3,3.8c0,0-4-1.3-5-1.9c0,0-1.6,1.6-0.5,2.3c0,0-7.1-0.7-8.5-3.4c0,0-2.5,0.8-2,1.7
	c0,0-5-3.4-6.6-3.4l-1,1.7c0,0-3.5-2-4.5-2s-0.2,1.5-0.2,1.5l-4.8-2.9l-1.9,3l-5-2.7c-1-0.8-1.2,1.6-2,1.9c0,0-1.6-2.2-3.7-1.9
	c0,0-0.8,2.6-0.5,3.4l-7.1-1.5c-1.1-0.3-0.5,1.2,0,2.3c0,0-4.5-1.3-5.5-2l-0.3,2c0,0-3.7-0.3-4.5-1l-2.3,3.1h-3.5l-0.7,2.9
	c0,0-6.6-1.9-7.2-0.8c-0.5,1,0.3,2.6,0.3,2.6l-5.7-0.7l-0.5,2.3c0,0-6.7-2-8.2-1c0,0-2,2-3.4,2.6c-1.3,0.5,0-0.8,0-0.8l-2-2.9
	c0,0-2.4,1.3-3.8,0.8c-1.3-0.6-5.5,2-6.8,1.3c0,0,0-1.9-1.1-2.4c-1-0.4-2.8-0.4-3.6,0.8l-2.2-3c-1.2-2.2-3.1,0.1-3.1,0.1l-0.3-2.5
	l-3.6-0.3c-2.2-0.3-2.6-2.2-2.6-2.2s-5.6,0.6-6.4,0.3l1.4-1.3c0,0-7.6,1.6-9.2,1c-1.7-0.5,1.8-2.6,1.8-2.6l-8.4-2
	c-1.3-0.4-9,1.2-10,1.2s-1.6-1.8-1.6-1.8s-1.8,1.6-3.4,2.1c0,0-1.3-3.1-0.5-3.4c0,0-5,1.3-5.3,2.6c0,0-1.2-2-1-3
	c0,0-2.4,3.8-3.5,4.6c-1,0.8-0.2-1.9-0.2-1.9s-2.9,3.7-4,4v-2.6c0,0-8.4,4.5-10.7,3.9c0,0,0-1.9,0.8-2.4l-5.3-0.2
	c-1.3-0.2-2.8-0.8-4.2-1.1c-1.3-0.2,1.9-1.6,4-1c0,0-5.8-2.1-7.6-1c0,0-0.8-2.2,2.3-3c0,0-4-3.9-6.3-3.6c0,0,2.6-1.6,4.8-0.8
	c0,0-2.5-6.6-4-7.4C289.9,303.6,295.4,302.6,297,303.4L297,303.4z"/>
<path class="st6" d="M288.9,188.8L360,152c0.3-2-0.7-3.4-1.9-5c-20.3,10-38.8,22.2-61.4,29.5c-1.3,0.5-12.5,5.2-18.3,12.1
	c-1.1,1.2-1.8,2.8-2,4.5c0,0,0.2,3.1,0.9,4c0,0,0.1,0.8,1.2,1.5c0,0,0.7,0.3,1.1,0.2c0.5,0,1.4,0,2.6-2
	C284.2,193.9,286.4,191.2,288.9,188.8L288.9,188.8z"/>
<path class="st14" d="M346.1,152.4l9.2-4.4c0,0,3.1,2.3,2.8,5c0,0,0.7,6,8.2,10.2c0,0-6.3,8-17.4,8.6c0,0,1.2-10.4-1.1-13.5
	c0,0-0.4,0.4-0.2-0.1c0.3-1-0.2-4.5-1.7-5.3L346.1,152.4z"/>
<path class="st27" d="M356.9,153.6c-2,0.8-8.3,4.1-8.3,4.1 M353.8,155.6c0,1-0.6,3.3,0,5 M353,155.9c0,0.5-0.8,2.2,0,4.6 M352,156.4
	c-0.2,1-0.4,1.5,0,2.6 M351.2,157c-0.2,0.5,0,0.8,0,1.2 M357,156.7c0.3,0.7,2.9,4.8,4.5,6.5 M357.4,158.5c0.3,0.8,1.7,3.6,2.8,4.7
	 M357.2,160.2c0.4,1,1.1,2.7,2,3.7 M357.2,162.1c0.2,0.9,0.6,1.7,1.1,2.5"/>
<g>
	<path class="st18" d="M422.3,148.3l26.1,12.8c5.2,2.5,7.1,0.2,10,1.5l51.6,26.2c4.5,2,7,2.5,6.3,4.8c-0.1,3.7,1.7,3.7,2.2,3.8
		c0.4,0,2.1-0.2,2.8-1.2l0.6-0.6c0.6-0.6,0.5-0.7,0.7-1c2.1-3,3.3-5.8,1-7.5c-2.5-1.3-2.8,1.5-5.6,1.2c0,0-4.8-1.8-6.6-3.1
		c-3.2-1.8-7.8-3.9-8.8-5c-3.3-0.6-28-14.6-42.1-21.6c-1.5-1.2-2.3-5.9-5.3-7.4c-0.8-1.3-19.8-10-29.8-15c-3.6-1.3-5.7-2.2-8.3,2.3
		C414.8,142.9,415.3,145.3,422.3,148.3L422.3,148.3z"/>
	<path class="st12" d="M424.5,142.8l29.2,14.6"/>
</g>
<g transform="translate(-40) scale(.96)">
	
		<radialGradient id="SVGID_1_" cx="430.2564" cy="316.7712" r="35.9811" gradientTransform="matrix(1.1772 0 0 -0.7829 -120.1103 442.3275)" gradientUnits="userSpaceOnUse">
		<stop  offset="0" style="stop-color:#FFEF5D"/>
		<stop  offset="1" style="stop-color:#EA5700"/>
	</radialGradient>
	<path class="st28" d="M393,165.1c-0.2,0.6-0.7,0.2-0.7,0.4c-0.4,2.2-0.3,3.3-0.8,4.5c-0.8,1.1-1.8,2.1-3.1,2.6
		c-2,0.7-4.5,3.1-8.5,0.9l-0.6-0.5c0,0,1.1,4.1-3,6.2l-15.7,8.2c0,0-1.5,2.8-0.5,6.5c0,0.6,0.3,1.1-0.3,1.5c-1,0.7-2.7,2.8-3.7,6
		c0,0-3-1.3-3-3.2c0-2,1.2-3,1.5-4.4c0.3-1.3,1-4.7,0.7-5.7c-0.4-1.1-2.3-1.5-3-2c-0.6-0.3-1.4,0.5-1.3,1.4c0.1,1,0.8,0.8,1.6,1
		c0,0-0.9,2-0.8,3.4l-9.2,4.8l1.6,2.3c0.4,0.7,1.3,10.2,4,14.7s3.7,3.2,4.3,3.8l2,2c0.8,0.5,4,0.8,4.5-1c0.6-1.7,1.8-3.1,3.2-4.1
		c2-1.6,6-5.4,6-7.2c0,0,2.3,6.8,2,12.4c0,0,8.5,1.7,16.1,1.9c7.6,0,11.5-1.5,11.5-1.5s1-6.4,0.6-7.7c0,0,1.2,4.2,2.2,5.6
		c1,1.8,2.1,5.3,4.3,5.5c2.2,0.1,4-2.1,4.2-3v-6.8h8.7c0,0,3.8,1.5,5,1.3c1.3-0.1,2-1.3,0.8-1.7l-0.4-0.3c1.2,0,2.6,0.7,2.6,0.7h4.3
		l-0.1-0.5c-0.3-1.2-2.6-2.2-4.2-3c-1.6-0.5-3.5-1.2-4.7-1.3c-2.1-0.2-4.2-0.1-6.2,0.4c-0.8,0-3.9,0.4-5.8,1.3c-0.5,0.3-1,0.4-0.8-1
		c0.3-1.3,0.2-7.8-1.3-10.5c-1.2-2-1-3.6-0.9-5.2c0.1-2.9,0.1-5.9,0-8.8c-0.3-1.7-2.5-4-6.6-4.4c-3.8-0.5-7-3.7-7.3-6.2
		C391.9,171.8,392.6,167.2,393,165.1"/>
	<g>
		
			<radialGradient id="SVGID_2_" cx="424.6067" cy="334.9053" r="10.6" gradientTransform="matrix(0.8987 0 0 -1.0255 3.1779 506.7686)" gradientUnits="userSpaceOnUse">
			<stop  offset="0" style="stop-color:#FFEF5D"/>
			<stop  offset="1" style="stop-color:#EA5700"/>
		</radialGradient>
		<path class="st29" d="M375.7,153.6c-0.7,3.3-0.7,6.1-0.6,9.3c0.1,2.1,1.1,4.6,2,6.7c0.6,1.5,1.6,2.8,2.8,3.9c3.6,2.3,7-0.2,8.9-1
			c1.1-0.6,2.1-1.4,2.7-2.5c0.5-1.2,0.3-2.1,0.8-4.5l0.7-0.4c1-1.5,0.7-2,1.2-3c0.6-1-0.5-2.2-1.8-2c0.6-1.9,1-4,0.4-5.9
			c-0.2-0.6,0.5-2.2-0.6-1.8c-4.6,1.8-10,1.4-14.8,1.4c-0.4,0-0.8-0.8-1.4-0.7L375.7,153.6"/>
		<path class="st30" d="M375.3,155.3c-0.5-0.4-0.6-1.3,0-3.2c0.7-2,0-2,1.1-3.2s0.9-1.6,1.6-1.9c0.7-0.2,2.8-0.2,3.5-0.5
			c2.8-1.4,6.1-1.5,9-0.3c1.5,0.8,2.5,2.8,3.4,3.6c1,0.7,1.7,3.6,1.5,7.9c-0.3,4.3-1.2,3.5-1.2,3.5s-1.2-2-2.2-0.3c0,0,0-1.7,0.2-3
			c0.1-1.1-0.6-3.4,0.1-4.9c0,0-5.8,1.8-8.7,1.7c-3-0.2-7.4-0.9-7.6-1.6L375.3,155.3"/>
		<path class="st31" d="M378.3,151.8c-0.3-0.6-1.8-2.9-0.6-3.6c1-0.6,0.4,2.8,2,3.5C379.7,151.7,379.1,153.2,378.3,151.8z"/>
		<path class="st32" d="M381.6,160.1l-0.9,3.2 M391.3,164.9c0.2,0.6,0.4,0.3,1,0.4 M392.6,161.3c0.5-0.5,1.2-0.2,0.8,1.3
			 M375.7,157.7l2.8,1c1.5,0.6,0.6,2.9,0.2,4.3c-0.2,0.7-1,2-0.6,2.5c0.5,0.8,1.1,0.3,2,0.4c0-0.3,0.6-0.5,0.8-0.5
			c0.7,0,1.1,0.5,1.7,0.3c0.6-0.3,0.5-1.2,0.3-1.7 M382.8,159.5c0-0.4,1-0.8,1.5-0.9c2.1-0.4,3.6-0.7,5.4,0.5 M384,170.2
			c-1.8,0.4-3.6,0.7-5.2-0.2 M378.8,169.2c0.8-0.4,1.1-0.8,2.1-0.3c0.3-0.2,0.7-0.3,1.1-0.4c0.8,0,1.4,0.3,2.2,0.8 M378.7,169.6
			c1-0.3,3.3-0.3,5.4,0.1"/>
		<path class="st33" d="M375.6,160.1c0.7,0,1.6-0.9,3.2,0.3c1.1,0.8-1.8,1.5-1.3,1.4c-1.4,0.2-1.8-0.5-1.9-1.2
			C375.6,160.5,375.4,160.1,375.6,160.1L375.6,160.1z M384,160.9c0.7-1.4,1.8-1,2.8-0.8c1,0.3,0.7,0.1,1.7,0.7
			c-1.2,0.1-0.9,0.2-1.7,0.6c-0.9,0.5-1.7,0.7-2.3,0.3c-0.2-0.2-0.7-0.5-0.7-1c0,0.2,0,0.3,0.2,0.3V160.9z"/>
		<path class="st34" d="M377.1,161.4c0.4,0,0.7-0.4,0.7-0.8c0-0.6-0.3-1-0.7-1c-0.5,0-0.9,0.4-0.9,1
			C376.2,161,376.6,161.4,377.1,161.4z M385.7,161.6c0.4,0,0.7-0.4,0.7-1c0-0.4-0.4-0.8-0.8-0.8c-0.4,0-0.7,0.3-0.7,0.8
			C384.9,161.2,385.3,161.6,385.7,161.6z"/>
	</g>
	<g id="g">
		<g>
			<path class="st32" d="M429.2,213.7c-0.5-0.7-1.1-1.1-1.9-1.4l-2-1c-0.7-0.4-1.7-0.5-2.4-0.9 M423.4,213l-0.9-0.5
				c-0.3,0-0.7,0-1-0.2c0,0,0-0.2-0.2-0.2c-0.9-0.1-1.8-0.6-2.4-1.3 M356.1,201.5c1,0.7,3.2,2.2,3.4,5.1c0.2,1,0.5,2.1,1,3
				 M347.3,202c0.5,1.7,0.6,7.4,6,13.4 M348.3,194c-0.4,1.1-1,2.2,0.2,3 M362.9,207.7c1.1-2.6,4.6-2.4,4.6-4.8"/>
			<path class="st32" d="M368.1,207.3c-0.3-2.9-1-4.5-0.4-8.7c0.2-1.2,0.4-5.9,0-8.1c0,0,1.6,7.8-3.7,9.3 M398.4,212.3
				c0-4,1-6.2,1-6.2c1.2-5.6-1.2-7.7-0.3-9.1c0.9-1.2,2-3.8,0.5-8.9c0,0,2.8,10.5-4.5,10.5c-7.5,0-7.2-2.7-7.2-2.7"/>
			<path class="st32" d="M367.7,190.5c0,2,0,8.4,9,8.4c2.8,0,5.8-2,7.4-3.3 M386.3,192.9c-0.3-2-0.3-4.4-0.3-7 M372.4,182.5
				c2.4-0.3,4.4-0.6,9-0.6 M381.6,175.6c0.5,2.2-0.3,5.8,4,6.3 M389.9,174.8c-0.6,1.6-0.6,3.3-0.8,4.4 M389.3,181.9
				c1.7,0,5-1.1,9-0.3 M399.7,204.4c0.9,1.6,1,3.8,3.6,6.2 M371.6,199.2c0.2,1.3-1.8,5.7-0.3,9.3c1.4,3.6,0.9,7.7-1.2,11
				 M376.8,200.5c-0.9,1.7-2.3,3.3-2.6,4.7 M380.8,203.6c0,1-2.7,8.7-4.7,10.9c0,0,3.6,1.4,3,6.6 M386.5,200.1c0,1.2-0.2,1.6,1,2.4
				 M389.9,202.5c1.3,1.6,5.5,6.5,4.6,9.2 M387.1,205.2c0.3,1,0.3,6.3-0.6,9 M384.4,214c-1.1,0-2.8,0.8-3,2.7 M390.1,213.7
				c1.1-0.3,3.3,1.6,3.3,7 M409.1,210.5c-2.1,0.6-3,1.7-2.4,1.1c-1.1,1-2.2,1.6-2.2,1.6"/>
		</g>
		<path class="st34" d="M373.1,198c0.6,0,1.1-0.4,1.1-1c0-0.3-0.5-0.7-1.1-0.7c-0.5,0-1,0.4-1,0.8C372.1,197.6,372.6,198,373.1,198z
			 M396.1,198.3c0.6,0,1.1-0.4,1.1-1c0-0.4-0.5-0.7-1-0.7c-0.6,0-1.1,0.3-1.1,0.8S395.6,198.3,396.1,198.3z"/>
		<path class="st35" d="M363.8,239.8c1.3-8,5-14.5,5.1-15.2c0,0,3.9,0.9,10.6,1.5c6.6,0.7,8.4,0.4,11.5,0.2l6.8-0.8
			c0,0,1.2,2.4,1.3,4.8c0.3,5.2,2.3,27.7,2.5,33.7c0,0,0.8,3.6,0.8,12.3c0,9.6,2.6,29,2.6,39.4l-2.6,0.5c0,0-14.5,1.1-14.5-0.8
			c0-2.1-0.8-27,1.4-42.1c0,0-0.5-3-1.4-5.5c-0.8-2.5-4.3-10-4.3-11.7c0,0-5.7,16-6,18.8c-0.3,2.6-1.2,38.4-1.7,41.3
			c0,0-8.2,6.3-9.3,7c-1.1,0.4-9-3.4-9.3-4.4c0.7-11.2,2.2-22.3,4.6-33.2c1.4-7.1,0.6-8.4,0.6-10.4S362.6,247.7,363.8,239.8
			L363.8,239.8z"/>
		<path class="st32" d="M377.6,275c-0.6,2.2-1.7,4.3-3.6,5.7 M371.3,227.1c-0.3,1.3-2.3,7.3-7.2,10.9 M378.4,228.2
			c-1.1,3.6-5.5,22.7-6.3,45.4 M371.8,280.7l-1.7,20.8 M369.3,304.5c-1.7,6.1-2.6,12.4-2.7,18.7 M398.8,287.2c-0.2,2-1,15.7,3.6,28
			 M383.9,229.2c-0.3,2.3-0.8,16.7-0.8,17.8c0,1.2,1.6,2.8,2.4,3c0,0-1.6,0.6-2,6 M379.5,243.2c-0.3,1.7-2,8.5-3,11.3 M389.5,229
			c0,0,5,1,5.3,0c0,0,1.6,29.5,3.8,46 M387.4,232.8l-0.6,16.5 M389.3,251.4c0,0,1.9,2.8,1.4,4 M372.9,227.4l3,0.8 M381.1,229.8
			c-0.3,0.9-0.6,4.6-0.6,4.6 M389.3,273.3c0.6,0.8,1.4,2,0.8,4.4"/>
		<path class="st36" d="M368.3,224.4c0,0,0-3.2,1.1-4.8c0,0,3.5,0.7,8.4,1.2c5,0.5,9,0.9,12.6,0.5c3.7-0.4,7.4-1.3,7.4-1.3
			s1,4.8,0.5,5.5c0,0-4,0.8-8.3,1c-4.8,0.1-9.7-0.1-14.5-0.8C373.1,225.4,370.6,225,368.3,224.4L368.3,224.4z"/>
		<path class="st35" d="M371.3,224.8l0.7-4.8h1l-0.2,5.1l-1.4-0.2 M393.4,220.8l0.1,5.5l1.3-0.2l-0.1-5.6L393.4,220.8 M377.8,220.8
			l-0.4,5.3h0.7l0.7-5.3H377.8"/>
		<path class="st37" d="M360.1,320.8c-0.3,1.3-0.8,3.2-1,5.5c0,0.5-0.6,3.3,1,3.4c1,0,1.4-2.9,1.4-2.9s-1,3.3,0.3,3.7
			c1.8,0.4,2-3.6,2-3.6c-0.2,1.1-1.4,4,0.3,4.3c1.9,0.3,2.4-3.9,2.4-3.9s-1.6,4.2,0.3,4.3c1.7,0,1.7-4,1.7-4s-0.9,5,1.5,4.5
			c1.4-0.2,1.7-2,2-3c0.4-1.5,1.3-3.4,0.2-6.6c-0.8-2.3-0.5-3-0.5-3s-2.9,2.2-5.1,3.6C365.6,323.7,360.1,320.8,360.1,320.8
			L360.1,320.8z M389.8,316.4c-0.5-0.3-0.4,1.9-0.6,2.9c-0.1,1,0.2,3.2,3.6,3c3.4-0.3,6.7-1,8.9-0.5c2.1,0.6,5.3,0.7,7,0.7
			s2.8-0.2,3.7-0.5c0.7-0.3,2.2,0.4,3,0.4s1.7-1,1.6-1.8c0-1.3-1.3-1.3-3-1.4c-1.7-0.1-3.4-0.5-5-1c-1.1-0.3-3.1-1.5-5.7-2l-5.9,0.2
			C396.4,316.4,390.4,316.7,389.8,316.4L389.8,316.4z"/>
	</g>
	<g>
		<path class="st38" d="M339,189.8c-0.5,0.3-1.1-2,0.4-2.9c0,0,0.4-2,2-2.1c0,0,1.4-1.9,3.3-1.7c0,0,2.2-1.5,3-1.3
			c0.9,0.1,3,2.1,3,2.9c0.2,0.7,0,1.9-0.5,2.4c-0.6,0.6-1-0.1-1.1-1c0,0,0.4,1.6-0.8,2.2c-1.2,0.7-1.1,0.2-1.2-0.6
			c0,0-0.4,1.6-1.2,1.9c-0.8,0.3-1.3-0.5-2-0.5c0,0,1.1,0.9,0.4,1.5c-0.7,0.5-1.5,0.3-2-0.1C341.8,190,341.1,188.6,339,189.8
			L339,189.8z"/>
		<path class="st32" d="M349,186c-0.5-1.5-2.2-3-4-2.8 M347.2,187.6c-0.3-0.4-0.4-0.8-0.8-1.2c-0.9-1.5-2.8-1.4-4.4-1.8
			 M344.4,189.1c-0.6-0.4-0.8-1.2-1.4-1.5c-1-0.4-2-0.9-3.3-0.7"/>
	</g>
</g>
<g transform="translate(-40) scale(.96)">
	
		<radialGradient id="SVGID_3_" cx="551.701" cy="316.8289" r="36.005" gradientTransform="matrix(1.1752 0 0 -0.7842 -119.2433 442.6743)" gradientUnits="userSpaceOnUse">
		<stop  offset="0" style="stop-color:#952D1A"/>
		<stop  offset="1" style="stop-color:#570A00"/>
	</radialGradient>
	<path class="st39" d="M522.4,165.1c0.7-0.3,0.5,0.6,0.6,1c0.4,1.3,0.4,2.7,0.9,3.9c0.6,1.1,0.8,1.5,1.8,2c1.6,1,6.4,3.6,9.8,1.5
		c0.3-0.1,0.5-0.3,0.7-0.5c0,0-1.3,4.1,3,6.2l15.6,8.2c0,0,1.5,2.7,0.6,6.5c-0.2,0.6-0.4,1.1,0.2,1.5c1,0.7,2.6,2.8,3.8,6
		c0,0,3-1.3,3-3.2c0-2-1.3-3-1.6-4.4c-0.2-1.3-1-4.7-0.6-5.7c0.4-1.1,2.1-1.5,2.8-2c0.7-0.3,1.6,0.5,1.3,1.4c0,1-0.8,0.8-1.6,1
		c0,0,1,2,0.8,3.4l9.4,4.8l-1.6,2.3c-0.5,0.7-1.5,10.2-4.2,14.6c-2.8,4.5-3.7,3.3-4.2,4l-2.1,1.8c-0.6,0.5-3.8,0.9-4.5-0.9
		c-0.6-1.6-1.7-3.1-3.1-4.1c-2-1.6-6-5.4-6-7.2c0,0-2.3,6.8-2,12.4c0,0-8.4,1.7-16.2,1.9c-7.6,0-11.5-1.5-11.5-1.5s-1-6.4-0.6-7.7
		c0,0-1.2,4.2-2,5.6c-1.1,1.8-2.2,5.3-4.4,5.5c-2.2,0.1-4-2.1-4.2-3v-6.8h-8.7c0,0-3.8,1.5-5,1.3c-1.3-0.1-1.9-1.3-0.9-1.7l0.4-0.3
		c-0.9,0.1-1.7,0.3-2.5,0.7h-4.3l0.1-0.5c0.3-1.2,2.6-2.2,4.3-3c1.6-0.5,3.3-1.2,4.6-1.3c1.9-0.2,3.2-0.1,6.2,0.4
		c0.8,0,4,0.4,5.8,1.3c0.5,0.3,1,0.4,0.8-1c-0.3-1.3-1.2-5.5,0.3-8.3c1-1.9,0.9-3.5,0.8-5.2c-0.2-1.7-1.1-5.6-1.1-7.3
		c0-5.7,4.4-8,8.2-9.2c4.3-1.4,7.1-2.8,7-5.3C522.1,171.5,522.8,167.2,522.4,165.1"/>
	<g>
		
			<radialGradient id="SVGID_4_" cx="584.12" cy="336.4093" r="10.7" gradientTransform="matrix(0.9177 0 0 -1.0042 -5.2413 501.1228)" gradientUnits="userSpaceOnUse">
			<stop  offset="0" style="stop-color:#952D1A"/>
			<stop  offset="1" style="stop-color:#570A00"/>
		</radialGradient>
		<path class="st40" d="M539.6,153.6c0.6,1.7,1,3.5,1.2,5.3c0,1.2-0.5,1.4-0.1,2.8c0.7,2.4-0.8,5-2.5,8c-0.8,1.2-1.4,3-2.7,3.8
			c-3.4,2.1-7.5-0.4-9.6-1.3c-0.9-0.4-1.7-1.2-2-2.2c-0.4-1.2-0.5-2.3-0.8-4c0-0.3,0-1.2-0.6-0.9c-1.3-1.4-1-2-1.6-3
			c-0.5-1,1-2.2,2-2c-0.7-1.9-0.7-4-0.2-5.9c0.2-0.6-0.6-2.2,0.5-1.8c4.5,1.8,10,1.4,14.8,1.4c0.4,0,0.7-0.8,1.3-0.7L539.6,153.6"/>
		<path class="st30" d="M540.1,155.3c0.4-0.4,0.1-2.3-0.4-4.3c-0.1-1-1-1.5-2-2.6s-1.6-1-2.3-1.4c-0.6-0.2-2-0.2-2.8-0.5
			c-0.6-0.3-2.2-0.1-3.7,0.1c-2,0.3-3.2,0.2-4.7,1s-2.8,1.8-3.3,3.3c-0.4,1-1,2.5-0.8,6.8s1,3.5,1,3.5s1.1-1.7,1.9-0.6l-0.3-3.6
			c-0.1-1.2,0-2.8,0.5-4.6c0,0,4.6,1.7,9,1.7c3,0,7-0.3,7.1-1L540.1,155.3L540.1,155.3z"/>
		<path class="st32" d="M533.7,160.1c0.7,1.8,0.1,1.3,0.4,2.4 M523.9,164.5c0,0.8-0.6,0.6-1,0.6"/>
		<path class="st32" d="M540.2,158.8c-1-0.7-2.7-0.2-3.5,0.1c-1.5,0.7-0.7,2.3-0.2,3.7c0.2,0.7,1,1.7,0.5,2.4
			c-0.4,0.8-0.7,0.4-1.6,0.5c0-0.3-0.8,0-1.1,0c-0.6,0-1,0.4-1.5,0.2c-0.6-0.3-0.5-1.2-0.3-1.7 M532.6,159.5c0-0.4-1.3-0.8-2.7-0.9
			c-2.3,0-2.5,0.1-4.2,1.3 M537.2,168.9c-0.4-0.6-1-1-2.1-0.4c0-0.2-1.6-0.4-1.6-0.4c-0.8,0-1.3,0.3-2.1,0.7 M537,169.4
			c-1-0.6-3.3-0.2-5.6-0.2 M531.6,170c1.7,0.5,3.5,0.8,5.2,0"/>
		<path class="st33" d="M539.7,160.1c-0.7,0-1-0.9-3.1,0.3c-1.1,0.7,1.8,1.5,1.4,1.4c1.2,0.2,1.6-0.5,1.7-1.2
			C539.7,160.5,539.9,160.1,539.7,160.1z M531.4,160.9c0-0.8-1.8-1-2.9-0.8c-1,0.3-0.5,0.1-1.5,0.7c1,0.1,0.7,0.2,1.6,0.6
			c0.9,0.5,1,0.9,2.3,0.3c0.3-0.1,0.7-0.5,0.8-1c0,0.2-0.2,0.3-0.3,0.3V160.9z"/>
		<path class="st34" d="M538.4,161.4c-0.4,0-0.8-0.4-0.8-0.8c0-0.6,0.3-1,0.8-1c0.4,0,0.7,0.4,0.7,1
			C539.1,161,538.8,161.4,538.4,161.4z M529.7,161.6c-0.4,0-0.7-0.4-0.7-1c0-0.5,0.4-0.8,0.8-0.8c0.4,0,0.7,0.3,0.7,0.8
			C530.5,161.2,530.2,161.6,529.7,161.6z"/>
	</g>
	<g transform="matrix(-1 0 0 1 748.8 0)">
		<g id="g_1_">
			<g>
				<path class="st32" d="M486.2,213.7c0.5-0.7,1.1-1.1,1.9-1.4l2-1c0.7-0.4,1.7-0.5,2.4-0.9 M492,213l0.9-0.5c0.3,0,0.7,0,1-0.2
					c0,0,0-0.2,0.2-0.2c0.9-0.1,1.8-0.6,2.4-1.3 M559.3,201.5c-1,0.7-3.2,2.2-3.4,5.1c-0.2,1-0.5,2.1-1,3 M568.1,202
					c-0.5,1.7-0.6,7.4-6,13.4 M567.1,194c0.4,1.1,1,2.2-0.2,3 M552.5,207.7c-1.1-2.6-4.6-2.4-4.6-4.8"/>
				<path class="st32" d="M547.3,207.3c0.3-2.9,1-4.5,0.4-8.7c-0.2-1.2-0.4-5.9,0-8.1c0,0-1.6,7.8,3.7,9.3 M517,212.3
					c0-4-1-6.2-1-6.2c-1.2-5.6,1.2-7.7,0.3-9.1c-0.9-1.2-2-3.8-0.5-8.9c0,0-2.8,10.5,4.5,10.5c7.5,0,7.2-2.7,7.2-2.7"/>
				<path class="st32" d="M547.7,190.5c0,2,0,8.4-9,8.4c-2.8,0-5.8-2-7.4-3.3 M529.1,192.9c0.3-2,0.3-4.4,0.3-7 M543,182.5
					c-2.4-0.3-4.4-0.6-9-0.6 M533.8,175.6c-0.5,2.2,0.3,5.8-4,6.3 M525.5,174.8c0.6,1.6,0.6,3.3,0.8,4.4 M526.1,181.9
					c-1.7,0-5-1.1-9-0.3 M515.7,204.4c-0.9,1.6-1,3.8-3.6,6.2 M543.8,199.2c-0.2,1.3,1.8,5.7,0.3,9.3c-1.4,3.6-0.9,7.7,1.2,11
					 M538.6,200.5c0.9,1.7,2.3,3.3,2.6,4.7 M534.6,203.6c0,1,2.7,8.7,4.7,10.9c0,0-3.6,1.4-3,6.6 M528.9,200.1c0,1.2,0.2,1.6-1,2.4
					 M525.5,202.5c-1.3,1.6-5.5,6.5-4.6,9.2 M528.3,205.2c-0.3,1-0.3,6.3,0.6,9 M531,214c1.1,0,2.8,0.8,3,2.7 M525.3,213.7
					c-1.1-0.3-3.3,1.6-3.3,7 M506.3,210.5c2.1,0.6,3,1.7,2.4,1.1c1.1,1,2.2,1.6,2.2,1.6"/>
			</g>
			<path class="st34" d="M542.3,198c-0.6,0-1.1-0.4-1.1-1c0-0.3,0.5-0.7,1.1-0.7c0.5,0,1,0.4,1,0.8C543.3,197.6,542.8,198,542.3,198
				z M519.3,198.3c-0.6,0-1.1-0.4-1.1-1c0-0.4,0.5-0.7,1-0.7c0.6,0,1.1,0.3,1.1,0.8S519.8,198.3,519.3,198.3z"/>
			<path class="st35" d="M551.6,239.8c-1.3-8-5-14.5-5.1-15.2c0,0-3.9,0.9-10.6,1.5c-6.6,0.7-8.4,0.4-11.5,0.2l-6.8-0.8
				c0,0-1.2,2.4-1.3,4.8c-0.3,5.2-2.3,27.7-2.5,33.7c0,0-0.8,3.6-0.8,12.3c0,9.6-2.6,29-2.6,39.4l2.6,0.5c0,0,14.5,1.1,14.5-0.8
				c0-2.1,0.8-27-1.4-42.1c0,0,0.5-3,1.4-5.5c0.8-2.5,4.3-10,4.3-11.7c0,0,5.7,16,6,18.8c0.3,2.6,1.2,38.4,1.7,41.3
				c0,0,8.2,6.3,9.3,7c1.1,0.4,9-3.4,9.3-4.4c-0.7-11.2-2.2-22.3-4.6-33.2c-1.4-7.1-0.6-8.4-0.6-10.4S552.8,247.7,551.6,239.8
				L551.6,239.8z"/>
			<path class="st32" d="M537.8,275c0.6,2.2,1.7,4.3,3.6,5.7 M544.1,227.1c0.3,1.3,2.3,7.3,7.2,10.9 M537,228.2
				c1.1,3.6,5.5,22.7,6.3,45.4 M543.6,280.7l1.7,20.8 M546.1,304.5c1.7,6.1,2.6,12.4,2.7,18.7 M516.6,287.2c0.2,2,1,15.7-3.6,28
				 M531.5,229.2c0.3,2.3,0.8,16.7,0.8,17.8c0,1.2-1.6,2.8-2.4,3c0,0,1.6,0.6,2,6 M535.9,243.2c0.3,1.7,2,8.5,3,11.3 M525.9,229
				c0,0-5,1-5.3,0c0,0-1.6,29.5-3.8,46 M528,232.8l0.6,16.5 M526.1,251.4c0,0-1.9,2.8-1.4,4 M542.5,227.4l-3,0.8 M534.3,229.8
				c0.3,0.9,0.6,4.6,0.6,4.6 M526.1,273.3c-0.6,0.8-1.4,2-0.8,4.4"/>
			<path class="st36" d="M547.1,224.4c0,0,0-3.2-1.1-4.8c0,0-3.5,0.7-8.4,1.2c-5,0.5-9,0.9-12.6,0.5c-3.7-0.4-7.4-1.3-7.4-1.3
				s-1,4.8-0.5,5.5c0,0,4,0.8,8.3,1c4.8,0.1,9.7-0.1,14.5-0.8C542.4,225.4,544.8,225,547.1,224.4L547.1,224.4z"/>
			<path class="st35" d="M544.1,224.8l-0.7-4.8h-1l0.2,5.1l1.4-0.2 M522,220.8l-0.1,5.5l-1.3-0.2l0.1-5.6L522,220.8 M537.6,220.8
				l0.4,5.3h-0.7l-0.7-5.3H537.6"/>
			<path class="st41" d="M555.3,320.8c0.3,1.3,0.8,3.2,1,5.5c0,0.5,0.6,3.3-1,3.4c-1,0-1.4-2.9-1.4-2.9s1,3.3-0.3,3.7
				c-1.8,0.4-2-3.6-2-3.6c0.2,1.1,1.4,4-0.3,4.3c-1.9,0.3-2.4-3.9-2.4-3.9s1.6,4.2-0.3,4.3c-1.7,0-1.7-4-1.7-4s0.9,5-1.5,4.5
				c-1.4-0.2-1.7-2-2-3c-0.4-1.5-1.3-3.4-0.2-6.6c0.8-2.3,0.5-3,0.5-3s2.9,2.2,5.1,3.6C549.8,323.7,555.3,320.8,555.3,320.8
				L555.3,320.8z M525.6,316.4c0.5-0.3,0.4,1.9,0.6,2.9c0.1,1-0.2,3.2-3.6,3c-3.4-0.3-6.7-1-8.9-0.5c-2.1,0.6-5.3,0.7-7,0.7
				s-2.8-0.2-3.7-0.5c-0.7-0.3-2.2,0.4-3,0.4s-1.7-1-1.6-1.8c0-1.3,1.3-1.3,3-1.4c1.7-0.1,3.4-0.5,5-1c1.1-0.3,3.1-1.5,5.7-2
				l5.9,0.2C519,316.4,525,316.7,525.6,316.4L525.6,316.4z"/>
		</g>
	</g>
	<g>
		<path class="st41" d="M574.9,193.5c0.5,0.2,2-2,0.5-3c0,0-0.5-2-2-2c0,0-1.4-2-3.4-1.7c0,0-2-1.5-2.9-1.4c-1,0.2-3,2.2-3,3
			c-0.2,0.5,0,1.8,0.5,2.4c0.6,0.5,1-0.1,1-1c0,0-0.3,1.5,0.9,2.2c1.2,0.7,1.1,0,1.2-0.7c0,0,0.3,1.6,1.1,2c0.9,0.2,1.4-0.5,2-0.5
			c0,0-1,0.8-0.3,1.3c0.7,0.6,1.5,0.3,2,0C573.1,193.6,572.8,192.3,574.9,193.5L574.9,193.5z"/>
		<path class="st32" d="M565.8,189.8c0.5-1.8,2.2-3.2,4-2.9 M567.8,191.3c0.1-0.4,0.2-0.8,0.5-1.2c1-1.6,3-1.6,4.6-1.9 M570.4,192.7
			c0.6-0.4,0.8-1.1,1.4-1.4c1-0.6,2.1-0.8,3.2-0.7"/>
		<path class="st42" d="M565.6,186.8c-0.9,0.7-1.8,1.8-1.9,2.2c0,0.7,0,1.9,0.5,2.5c0.6,0.5,1,0,1.1-0.8c0,0.5,0,1.5,0.8,2
			c1.3,0.7,1.2,0.1,1.3-0.7c0,0,0.3,1.6,1,2c0.9,0.2,1.4-0.5,2-0.5c0,0-1,0.8-0.3,1.3c0.7,0.6,1.5,0.3,2,0c0.6-0.5,0.3-1.8,2.5-0.6
			c0.2,0.2,0.8-0.4,1-1.1l-7.7-5.5L565.6,186.8L565.6,186.8z"/>
		<path class="st32" d="M564,188.2c-1.5,2.6,0.5,4.1,1.1,2.6c-0.1,2.4,1.7,2.3,2.3,1.5c0.7,2.5,1.9,1.4,3,1.2c-1.3,2.3,1.4,1.6,2,1
			c1-1.3,1.4-0.2,2-0.3l1.3-1.3 M567.7,187.2c-1.7,1-2.5,2.2-2.6,3.7 M570.1,188.7c-1.8,1-2.6,2.2-2.6,3.7 M572.9,190.7
			c-1.7,0.9-1.8,1.7-2.5,2.8"/>
	</g>
</g>
<path class="st43" d="M318.5,310.7l-0.2-4.5l1.9,1.6l0.4-3.4c0.8-0.2,2.1,1.3,2.1,1.3l-0.2-3.4l2.8,3.1c0,0-0.2-2.6,0.8-4.2
	c0,0,2.2,1.9,2.2,4c0,1.9,1.8-2.6,1.8-2.6c0.5,1.7,1.1,3.3,1.6,5l1.3-1.9l1,4l2.4-3.5l1.8,4l4.2-0.3l0.5,2.4l1.9-2l2.4,1.5
	c0,0,2-0.6,3.1-0.6s2.4,1.4,2.4,1.4s0.8-1.4,1.5-1.9s1.9,0.8,2.2,1.6l1.6-2.9c0,0,2,2,2.3,2.9c0,0,0.3-2.4,0.8-3.2
	c0.5-0.7,1.2,0.3,1.8,1.3l1.3-4.2c0,0,1.4,0.3,2.3,1.9c1.1,1.5,1.1-2.4,1.1-2.4s2.4,3.2,3,5.3c0,0-16.2,5.6-27.6,4
	C334.8,313.9,326.6,312.5,318.5,310.7 M429.4,310.2c0,0,0.7-2.1,1.8-3.2c0,0,2,2.4,2,3.2l1.7-1l1.6,1.5l1.8-1.3l1.8,1.6l3.2-1.4
	l1.3,1.4l5-0.6l1.8,0.8l1.8-2.3l1.6,1.8l2.7-2.6c0,0,1.3,1,1.5,1.8c0,0,2.2-1,2.7-1.8c0,0,2-0.8,2.3,0.5c0,0,1.3-1,1.2-2
	c-0.1-1.2,1.5-0.4,2,1c0,0,0.5-2.2,2-2.4c0,0,1.2,1.3,0.9,3.7c0,0,2.3-1.9,3.4-2.1c0,0,0.5,2.6-0.3,5c0,0,2.4-4,3-2.7
	c0.1,0.8,0.7,3.5,0.1,5.3l2.2-1.3l0.8,2.6l2.3-0.5c0,0-13.9,2.1-27,0.9c-13-1.3-25.3-5.9-25.3-5.9 M419.7,319.9
	c0.6-0.4-4.4,10.3-16.5,10.9c-16.9,0.8-31.3-7.7-31.3-7.7s1.8-2.9,2.9-3.7c0,0,2.3,1.9,3,4.2c0,0,0.4-1.5,1.2-2.9
	c0,0,2.9,1.4,3.4,3.2c0,0,1-1.8,1.8-2.3c0.8-0.6,1.6,2,1.6,3.6c0,0,1.9-2,3-2c0,0,2,1,2.6,4.3c0,0,2-1.8,2.6-1.5
	c0,0,2.3,1.5,1.8,3.7c-0.3,1.2,2.3-1.4,5.5-2.2l2.9,2.2l3.4-4.7c0,0,2.1,0.8,2.1,2c0,0,1-3.7,1.8-4c0.8-0.5,1.8,1.1,1.8,2.2
	c0,0,0.3-2.8,1.9-3.4c0,0,1.6,1,1.6,2.1C416.8,323.9,418.4,320.7,419.7,319.9L419.7,319.9z"/>
<path class="st44" d="M318.5,310.7l-0.2-4.5l1.9,1.6l0.4-3.4c0.8-0.2,2.1,1.3,2.1,1.3l-0.2-3.4l2.8,3.1c0,0-0.2-2.6,0.8-4.2
	c0,0,2.2,1.9,2.2,4c0,1.9,1.8-2.6,1.8-2.6l1.6,5l1.3-1.9l1,4l2.4-3.5l1.8,4l4.2-0.3l0.5,2.4l1.9-2l2.4,1.5c0,0,2-0.6,3.1-0.6
	s2.4,1.4,2.4,1.4s0.8-1.4,1.5-1.9c0.8-0.5,1.9,0.8,2.2,1.6l1.6-2.9c0,0,2,2.1,2.3,2.9c0,0,0.3-2.4,0.8-3.2c0.5-0.7,1.2,0.3,1.8,1.3
	l1.3-4.2c0,0,1.4,0.3,2.3,1.9c1.1,1.5,1.1-2.4,1.1-2.4s2.4,3.2,3,5.3 M429.3,310.2c0,0,0.8-2.1,1.9-3.2c0,0,2,2.4,2,3.2l1.7-1
	l1.6,1.5l1.8-1.3l1.8,1.6l3.2-1.4l1.3,1.4l5-0.6l1.8,0.8l1.8-2.2l1.6,1.7l2.7-2.6c0,0,1.2,1,1.5,1.8c0,0,2.2-1,2.7-1.8
	c0,0,2-0.8,2.3,0.5c0,0,1.3-1,1.2-2c-0.1-1.2,1.5-0.4,2,1c0,0,0.5-2.2,2-2.4c0,0,1.2,1.3,0.9,3.7c0,0,2.3-1.9,3.4-2
	c0,0,0.5,2.5-0.3,4.9c0,0,2.4-4,3-2.7c0.1,0.8,0.7,3.5,0.1,5.3l2.2-1.3l0.8,2.6l2.3-0.5 M371.8,323.2c0,0,1.8-3,2.9-3.7
	c0,0,2.3,1.8,3.1,4.2c0,0,0.3-1.6,1-3c0,0,3,1.4,3.5,3.2c0,0,1-1.8,1.9-2.3c0.7-0.6,1.5,2,1.5,3.6c0,0,1.9-2,3-2c0,0,2,1,2.6,4.4
	c0,0,2-1.9,2.6-1.6c0,0,2.4,1.6,1.8,3.7c-0.3,1.2,2.3-1.4,5.5-2.1l2.9,2.1l3.4-4.7c0,0,2.1,0.8,2.1,2c0,0,1-3.6,1.8-4
	c0.8-0.5,1.9,1.1,1.9,2.2c0,0,0.3-2.8,1.8-3.4c0,0,1.6,1,1.6,2.1c0,0,1.6-3.2,3-4"/>
<g>
	<path class="st2" d="M399.5,361.9c22,0.2,35-7.8,42-12.6c16.8-11.2,20.3-11.6,23-11.4c3.1,0.3,7.7,1.3,8,4
		c0.2,4.3-6.6,6.1-10.5,6.1c-4,0-14.5-2.6-14.5-2.6l-2.7,1.9c1.8,0.8,23.2,8,27.3,1.2c4.2-6.8,8.4-17.9,8.4-17.9s-4.7-8.4-15.1-8.4
		c-10.6,0-20.8,6.7-27.6,11.7c-6.9,5-15.5,11.8-38.3,11.8c-22.9,0-31.6-6.8-38.4-11.8c-6.9-5-17.1-11.7-27.6-11.7
		c-6.2,0-11.9,3.2-15.2,8.4c0,0,4.2,11,8.4,18c4.1,6.7,25.5-0.5,27.3-1.4l-2.6-1.8c0,0-10.4,2.6-14.4,2.6s-10.9-1.8-10.6-6
		c0.2-2.8,4.8-3.8,8-4.1c2.7-0.2,6.2,0.2,22.9,11.4C369.7,357.8,384.5,362.2,399.5,361.9"/>
	<path class="st2" d="M364.1,336c0,0,0-1.9-0.3-4.6c-0.4-3.5-2.4-4.4-4-3.9c-1.2,0.4-3.3,3-3.3,3v0.1c-1-0.7-2-1.3-3-1.8
		c1.8-1.6,4-2.8,6.3-3.6c1,0,14.5,5.4,18.8,9.1c1,1,1.8,7,1.2,9c-5.6-1.4-11-3.8-15.7-7.2 M357.6,349.7c0,0-2.9,3-3,8.3
		c0,6.3,4.5,6.6,7.5,6.5c3.7,0,6.6-2.1,6.5-8.9c0,0-6-2.5-11-6 M434.7,336l0.4-4.6c0.4-3.5,2.4-4.4,4-3.9c1,0.4,3.2,3,3.2,3v0.1
		l3-1.8c-0.7-1-5.2-3.6-6.2-3.6s-14.5,5.4-18.8,9.1c-1,1-1.8,7-1.3,9c5.6-1.4,11-3.8,15.7-7.2L434.7,336 M441.2,349.7
		c0,0,2.9,3,3,8.3c0.2,6.3-4.5,6.6-7.5,6.5c-3.6,0-6.5-2.1-6.5-8.9c0,0,6-2.5,11-6"/>
</g>
<path class="st45" d="M351.3,345.4c0,0-10.4,2.6-14.3,2.6c-4,0-10.9-1.8-10.6-6c0.2-2.8,4.8-3.8,8-4.1c2.3-0.2,5.3,0,17,7.5
	 M447.5,345.4c0,0,10.5,2.6,14.5,2.6c3.9,0,10.7-1.8,10.4-6c-0.2-2.8-4.8-3.8-7.9-4.1C462.2,337.7,459.1,337.9,447.5,345.4
	 M364.1,336.1c-1-0.7-2.1-1.5-3.1-2.3c-1.5-1.1-3-2-4.5-3.2c0,0,2.1-2.7,3.2-3c1.7-0.6,3.7,0.3,4.1,3.8
	C364.1,334.1,364.1,336.1,364.1,336.1 M357,363.7c1.8,1,3.9,1,5.1,0.8c3.7,0,6.6-2.1,6.5-8.9c0,0,4.5,2.3,11.8,4
	c0,0,1.2,1.5,1.4,4.4c0.3,2.5-1.4,5.1-3.3,5c0,0-10.3-2-16.5-3C358.3,365.3,357,363.7,357,363.7 M434.7,336.1l3.2-2.3l4.4-3.2
	c0,0-2.1-2.7-3.2-3c-1.6-0.6-3.6,0.3-4,3.8L434.7,336.1 M441.8,363.7c-1.8,1-3.9,1-5.1,0.8c-3.6,0-6.5-2.1-6.5-8.9
	c0,0-4.5,2.3-11.7,4c0,0-1.3,1.5-1.5,4.4c-0.2,2.5,1.5,5.1,3.4,5c0,0,10.3-2,16.5-3C440.5,365.3,441.9,363.7,441.8,363.7"/>
<g>
	<path class="st46" d="M399.5,361.9c22,0.2,35-7.8,42-12.6c16.8-11.2,20.3-11.6,23-11.4c3.1,0.3,7.7,1.3,8,4
		c0.2,4.3-6.6,6.1-10.5,6.1c-4,0-14.5-2.6-14.5-2.6l-2.7,1.9c1.8,0.8,23.2,8,27.3,1.2c4.2-6.8,8.4-17.9,8.4-17.9s-4.7-8.4-15.1-8.4
		c-10.6,0-20.8,6.7-27.7,11.7c-6.8,5-15.4,11.8-38.2,11.8s-31.6-6.8-38.4-11.8c-6.9-5-17.1-11.7-27.6-11.7s-15.2,8.4-15.2,8.4
		s4.2,11,8.4,18c4.1,6.7,25.5-0.5,27.4-1.4l-2.7-1.8c0,0-10.4,2.6-14.4,2.6s-10.9-1.8-10.6-6c0.2-2.8,4.8-3.8,8-4.1
		c2.7-0.2,6.2,0.2,22.9,11.4C369.7,357.8,384.5,362.2,399.5,361.9z"/>
	<path class="st46" d="M351.3,345.4c0,0-10.4,2.6-14.3,2.6c-4,0-10.9-1.8-10.6-6c0.2-2.8,4.8-3.8,8-4.1c2.3-0.2,5.3,0,17,7.5H351.3z
		 M447.5,345.4c0,0,10.5,2.6,14.5,2.6c3.9,0,10.7-1.8,10.4-6c-0.2-2.8-4.8-3.8-7.9-4.1C462.2,337.7,459.1,337.9,447.5,345.4z
		 M364.1,336.1c-1-0.7-2.1-1.5-3.1-2.3c-1.5-1.1-3-2-4.5-3.2c0,0,2.1-2.7,3.2-3c1.7-0.6,3.7,0.3,4.1,3.8
		C364.1,334.2,364.1,336.1,364.1,336.1z"/>
	<path class="st46" d="M364.1,336c0,0,0-1.9-0.3-4.6c-0.4-3.5-2.4-4.4-4-3.9c-1.2,0.4-3.3,3-3.3,3v0.1c-1-0.7-2-1.3-3-1.8
		c1.8-1.6,4-2.8,6.3-3.6c1,0,14.5,5.4,18.8,9.1c1,1,1.8,7,1.2,9c-5.6-1.4-11-3.8-15.7-7.2 M357.6,349.7c0,0-2.9,3-3,8.3
		c0,6.3,4.5,6.6,7.5,6.5c3.7,0,6.6-2.1,6.5-8.9c0,0-6-2.5-11-6V349.7z"/>
	<path class="st46" d="M360.1,351.1c0,0-2.3,2.5-2.7,6.5c-0.2,3.1,1.8,4.9,4.5,4.7c3.7-0.2,5.1-5.3,3.4-8.1l-5.2-3"/>
	<path class="st46" d="M357,363.7c1.8,1,3.9,1,5.2,0.8c3.6,0,6.5-2.1,6.4-8.9c0,0,4.5,2.3,11.8,4c0,0,1.2,1.5,1.4,4.5
		c0.3,2.4-1.4,5-3.3,4.8L362,366C358.3,365.3,357,363.7,357,363.7z M434.7,336.1l3.3-2.3c1.3-1.1,2.8-2,4.4-3.2c0,0-2.2-2.7-3.3-3
		c-1.6-0.6-3.6,0.3-4,3.8L434.7,336.1z"/>
	<path class="st46" d="M434.7,336l0.4-4.6c0.4-3.5,2.4-4.4,4-3.9c1,0.4,3.2,3,3.2,3v0.1c1-0.7,2-1.3,3-1.8c-0.7-0.9-5.2-3.6-6.2-3.6
		s-14.5,5.4-18.8,9.1c-1,1-1.8,7-1.3,9c5.6-1.4,11-3.8,15.7-7.2 M441.2,349.7c0,0,2.9,3,3,8.3c0.2,6.3-4.5,6.6-7.5,6.5
		c-3.6,0-6.5-2.1-6.5-8.9c0,0,6-2.5,11-6V349.7z"/>
	<path class="st46" d="M438.7,351.1c0,0,2.4,2.5,2.8,6.5c0.3,3.1-1.9,4.9-4.5,4.7c-3.7-0.2-5.1-5.3-3.4-8.1l5.1-3"/>
	<path class="st46" d="M441.9,363.7c-2,1-4,1-5.2,0.8c-3.6,0-6.5-2.1-6.5-8.9c0,0-4.5,2.3-11.7,4c0,0-1.3,1.5-1.5,4.5
		c-0.2,2.4,1.5,5,3.4,4.8l16.5-2.9C440.5,365.3,441.9,363.7,441.9,363.7L441.9,363.7z"/>
</g>
<path class="st47" d="M379.6,361.4c0,0,3.3,2.4-0.7,5.3 M369.9,359.9l10,4.3 M371.6,362.1l7.2,3.1 M374.2,360.2l5.4,2.5
	 M419.3,361.4c0,0-3.3,2.4,0.6,5.3 M428.9,359.9l-10,4.3 M427.3,362.1l-7.2,3.1 M424.7,360.2l-5.4,2.5"/>
<path class="st48" d="M341,331.4c0.2,0.2,0.2,0.4,0.3,0.7c0,0.3,0,0.5,0,0.8c-0.1,0.7-0.6,1.3-1.2,1.6c-0.7,0.4-1.4,0.6-2.2,0.4
	c-0.4-0.1-0.7-0.2-1-0.4c-0.4-0.2-0.7-0.4-1-0.6l-0.3,0.4l-0.4-0.1l0.4-2.9l0.5,0.1c0,0.4,0,0.7,0.2,1l0.3,1l0.7,0.6
	c0.2,0.2,0.5,0.3,0.9,0.4h0.7c0.4,0,0.7-0.3,0.9-0.6c0.1-0.2,0.2-0.4,0.2-0.6c0.1-0.3,0-0.7-0.1-1c-0.2-0.3-0.4-0.5-0.7-0.7
	c-0.3-0.2-0.5-0.3-0.8-0.5l-0.8-0.6c-0.5-0.3-0.8-0.6-1-1s-0.2-0.8-0.1-1.4c0-0.3,0.2-0.6,0.4-0.8c0.4-0.5,0.9-0.9,1.5-1
	c0.3-0.1,0.7-0.1,1,0l1,0.4l0.8,0.6l0.3-0.4l0.5,0.1l-0.5,2.8l-0.5-0.1c0-0.3,0-0.7,0-1c-0.1-0.3-0.2-0.6-0.4-0.8
	c-0.1-0.3-0.3-0.5-0.5-0.7c-0.2-0.2-0.5-0.3-0.8-0.4c-0.3-0.1-0.7,0-1,0.2c-0.4,0.2-0.6,0.5-0.6,0.8v1l0.7,0.7l0.8,0.5
	c0.5,0.3,0.9,0.6,1.3,1C340.7,330.9,340.9,331.2,341,331.4 M353,333l-0.5-0.1c-0.2-0.1-0.3-0.1-0.5-0.1c-0.2,0-0.4,0.1-0.5,0.3
	c-0.2,0.3-0.4,0.6-0.6,1l-1.8,3.1c-0.4,0.7-1.1,1.2-1.9,1.3h-1.1c-0.4-0.1-0.7-0.3-1-0.5c-0.4-0.2-0.7-0.5-1-0.8
	c-0.3-0.3-0.5-0.6-0.7-1c-0.1-0.3-0.1-0.7-0.1-1c0-0.3,0.1-0.6,0.2-0.8l2.4-4.3c0.1-0.1,0.1-0.3,0.1-0.4v-0.3
	c-0.1-0.1-0.2-0.2-0.3-0.3l-0.4-0.3l0.2-0.3l3.1,1.7l-0.2,0.3l-0.3-0.1c-0.1,0-0.3-0.1-0.4-0.1h-0.4c-0.1,0.1-0.2,0.2-0.2,0.3
	l-2.2,4c-0.1,0.2-0.2,0.5-0.3,0.7c-0.1,0.3-0.1,0.5,0,0.8c0,0.2,0,0.5,0.2,0.7l0.9,0.8l1,0.3c0.5,0.1,1.1-0.1,1.5-0.5l0.5-0.6l1.6-3
	l0.5-1v-0.6c0-0.2-0.2-0.3-0.4-0.5c-0.1-0.1-0.3-0.2-0.4-0.3l0.2-0.4l3,1.7C353.1,332.8,353.1,332.9,353,333 M357.3,340.5
	c0.3,0.6,0.3,1.2,0,1.8c-0.2,0.3-0.5,0.6-0.8,0.8c-0.3,0.2-0.6,0.3-1,0.3l-1-0.1c-0.3-0.1-0.6-0.2-0.9-0.4l-3.5-2l0.2-0.4
	c0.3,0.1,0.5,0.2,0.8,0.3c0.1,0,0.2,0,0.3,0c0.1-0.1,0.2-0.2,0.3-0.3l3-5.3c0-0.1,0.1-0.2,0.1-0.3c0-0.1,0-0.3-0.1-0.4
	c-0.1-0.1-0.2-0.2-0.3-0.3l-0.3-0.2l0.2-0.4l3.4,2l0.7,0.5l0.6,0.7c0.3,0.5,0.3,1.1,0,1.6c-0.1,0.2-0.4,0.5-0.6,0.6l-0.7,0.3
	c-0.2,0-0.5,0-0.7,0c-0.3,0-0.5-0.1-0.8-0.2v0.1c0.2,0.2,0.4,0.4,0.6,0.6L357.3,340.5L357.3,340.5z M356.7,338.7
	c0.2,0,0.4-0.2,0.5-0.3c0.2-0.2,0.4-0.4,0.5-0.6c0.2-0.4,0.3-0.8,0.2-1.2c-0.1-0.3-0.4-0.6-0.9-0.9l-0.4-0.2l-0.4-0.3l-1.6,2.8
	l0.6,0.4l0.8,0.3L356.7,338.7L356.7,338.7z M356.1,341.4c0.2-0.4,0.3-0.8,0.1-1.3c0-0.4-0.4-0.8-1-1.1c-0.2-0.1-0.3-0.3-0.5-0.4
	l-0.4-0.1l-1.5,2.5c-0.2,0.2-0.2,0.5,0,0.7c0.1,0.2,0.4,0.4,0.7,0.5c0.5,0.3,1,0.4,1.4,0.3c0.5-0.2,0.8-0.5,1.2-1L356.1,341.4z
	 M375,345.7c-0.2,0-0.3,0-0.5,0c-0.2-0.1-0.4-0.1-0.6-0.1c-0.1,0-0.3,0.1-0.4,0.4c-0.2,0.3-0.4,0.7-0.5,1l-1.5,3.3
	c-0.1,0.4-0.4,0.7-0.7,1c-0.3,0.2-0.6,0.3-1,0.4c-0.4,0.1-0.7,0.1-1.1,0c-0.8-0.1-1.6-0.5-2.2-1c-0.3-0.2-0.5-0.5-0.7-0.8
	c-0.2-0.3-0.3-0.6-0.3-1c0-0.3,0.1-0.6,0.2-0.9l2-4.5c0-0.1,0-0.3,0-0.4c0-0.1,0-0.2-0.1-0.3c-0.1-0.1-0.2-0.2-0.3-0.3l-0.4-0.2
	l0.2-0.4l3.3,1.4l-0.2,0.4c-0.1,0-0.3-0.1-0.4-0.1c-0.1,0-0.3,0-0.4,0h-0.3c-0.1,0.1-0.2,0.2-0.2,0.3l-1.9,4.3l-0.2,0.7
	c-0.1,0.5,0.1,1,0.4,1.4c0.2,0.3,0.5,0.5,1,0.7l1,0.2c0.6,0,1.1-0.2,1.5-0.7c0.2-0.2,0.3-0.4,0.4-0.6l1.3-3.1l0.3-1v-0.7l-0.4-0.4
	c-0.2-0.1-0.3-0.2-0.5-0.3l0.2-0.4l3.1,1.4L375,345.7 M384.2,356.5l-3.6-1v-0.4c0.2,0,0.4,0,0.6,0l0.4,0.1c0.1,0,0.3-0.1,0.4-0.2
	c0.1-0.1,0.2-0.2,0.2-0.3l1.7-5.8c0,0-0.1,0-0.1,0l-4.8,6h-0.3l-0.6-7.9l-1.5,4.8l-0.2,1.1l0.1,0.6l0.5,0.4c0.2,0.1,0.3,0.2,0.5,0.3
	l-0.2,0.4l-3.2-1v-0.4h0.6c0.2,0,0.3,0,0.5,0c0.2,0,0.3-0.2,0.5-0.4l0.3-1l1.2-4.2c0.1-0.2,0.1-0.4,0.1-0.6c0-0.1,0-0.3-0.1-0.4
	c-0.1-0.2-0.2-0.3-0.4-0.4c-0.2-0.1-0.3-0.2-0.5-0.2l0.1-0.4l2.8,0.8l0.6,6.7l3.5-4.5l0.3-0.5c0.1-0.1,0.1-0.3,0.2-0.4l2.7,0.8
	l-0.1,0.4c-0.2,0-0.3,0-0.5,0c-0.1,0-0.3-0.1-0.4-0.1c-0.1,0-0.2,0-0.3,0.1c-0.1,0.1-0.1,0.3-0.1,0.4l-1.7,5.8c0,0.1,0,0.2,0,0.3
	l0.1,0.3c0.2,0.2,0.5,0.3,0.8,0.4L384.2,356.5 M392.9,353.9c0.5,0.4,0.8,1.1,0.7,1.7l-0.4,1c-0.2,0.3-0.5,0.4-0.8,0.6
	s-0.6,0.2-1,0.3h-1l-4-0.5v-0.4h0.5c0.1,0,0.3,0,0.4,0c0.1,0,0.2-0.1,0.3-0.2c0.1-0.1,0.1-0.3,0.1-0.4l0.8-6c0-0.1,0-0.2,0-0.3
	c-0.1-0.1-0.2-0.2-0.3-0.3c-0.1-0.1-0.3-0.2-0.4-0.2h-0.3v-0.5l3.9,0.5c0.3,0,0.6,0,0.9,0.2l0.7,0.4c0.5,0.4,0.7,0.9,0.6,1.5
	l-0.2,0.8c-0.2,0.2-0.4,0.4-0.6,0.5c-0.2,0.1-0.4,0.2-0.6,0.3c-0.3,0.1-0.5,0.2-0.8,0.2l0.8,0.3L392.9,353.9L392.9,353.9z
	 M391.6,352.4l0.4-0.5l0.2-0.7c0-0.4-0.1-0.8-0.3-1.1c-0.2-0.3-0.6-0.5-1.1-0.5c-0.3,0-0.7-0.1-1-0.1l-0.4,3.2h0.8
	c0.3,0.1,0.6,0,0.8,0C391.2,352.7,391.4,352.6,391.6,352.4z M392.1,355.2c0-0.5,0-1-0.3-1.3s-0.8-0.5-1.4-0.6l-0.7-0.1h-0.4
	l-0.3,2.9c-0.1,0.2,0,0.5,0.2,0.6l0.8,0.3c0.6,0,1,0,1.5-0.4C391.8,356.3,392,355.9,392.1,355.2L392.1,355.2z M403.5,357.8h-2.2
	c-0.4-0.7-0.9-1.3-1.4-2l-1.3-1.8h-1v2.7l0.1,0.4l0.3,0.2h0.4l0.5,0.1v0.4h-3.6v-0.4h0.4l0.4-0.1c0.1,0,0.2-0.1,0.2-0.2
	c0.1-0.1,0.1-0.3,0.1-0.4v-6.4l-0.3-0.3c-0.1,0-0.3,0-0.4,0l-0.4-0.1v-0.4h4.9c0.3,0.1,0.6,0.2,0.9,0.4l0.6,0.6
	c0.2,0.6,0.2,1.2,0,1.8c-0.1,0.3-0.2,0.5-0.4,0.7c-0.2,0.2-0.4,0.3-0.7,0.4c-0.3,0.1-0.5,0.2-0.8,0.3l1,1.4c0.3,0.4,0.7,0.8,1,1.4
	c0.3,0.3,0.6,0.6,1,0.8c0.3,0.1,0.5,0.1,0.8,0.1v0.4H403.5z M400.4,351.6c0-0.5-0.2-1-0.4-1.2c-0.3-0.3-0.8-0.5-1.3-0.5h-1v3.6h0.8
	c0.5,0,1-0.1,1.3-0.5C400.2,352.7,400.4,352.2,400.4,351.6z M413.4,357.2l-3.6,0.3v-0.4l0.7-0.2c0.2,0,0.3-0.2,0.3-0.2v-0.2
	c0,0,0-0.1,0-0.1l-0.9-1.8l-3,0.2c-0.1,0.2-0.1,0.5-0.2,0.7l-0.1,0.6c0,0.1-0.1,0.3-0.1,0.4v0.3c0,0.2,0.1,0.3,0.4,0.3l0.9,0.1v0.4
	l-3.2,0.3v-0.4c0.1,0,0.3-0.1,0.4-0.1c0.3-0.1,0.5-0.3,0.7-0.6l0.2-0.5l1.1-3.6l1.1-3.6h0.5l3.4,7l0.2,0.3c0.2,0.2,0.4,0.4,0.7,0.4
	h0.4v0.4L413.4,357.2z M409.7,354.1l-1.6-3.2l-1,3.4L409.7,354.1L409.7,354.1z M425.4,347.4c-0.1,0.1-0.3,0.1-0.4,0.2
	c-0.2-0.3-0.5-0.7-0.8-0.9c-0.4-0.2-0.7-0.4-1-0.3c-0.1,0-0.2,0-0.3,0l-0.6,0.2l-1.4,0.4l0.9,3.2l1-0.2l0.6-0.3l0.3-0.4l0.1-0.4
	v-0.6l0.4-0.2l0.9,3.2l-0.4,0.1c-0.1-0.2-0.2-0.3-0.3-0.5l-0.4-0.4c-0.1-0.1-0.3-0.2-0.5-0.2c-0.2,0-0.4,0-0.6,0.1l-1,0.3l0.8,2.8
	c0,0,0,0.2,0.2,0.3c0.1,0.1,0.2,0.2,0.3,0.2h0.4l0.4-0.1l0.1,0.4l-3.5,1l-0.1-0.4c0.1-0.1,0.3-0.1,0.4-0.2l0.4-0.2
	c0.1-0.1,0.2-0.2,0.2-0.3c0-0.1,0-0.2,0-0.3l-1.6-5.9c0-0.1-0.1-0.2-0.2-0.3l-0.3-0.2c-0.1,0-0.3,0-0.4,0c-0.2,0-0.3,0-0.5,0
	l-0.1-0.3l6.4-1.8L425.4,347.4 M434.8,346.7l1,2.4l-6,2.8l-0.2-0.3l0.4-0.3c0.1-0.1,0.2-0.1,0.3-0.2c0.1-0.1,0.1-0.2,0.1-0.3
	c0-0.1,0-0.3,0-0.4l-2.7-5.4c0-0.1-0.1-0.2-0.2-0.3c-0.1-0.1-0.3-0.1-0.4,0h-0.4c-0.1,0-0.3,0-0.4,0l-0.2-0.3l3.3-1.6l0.2,0.4
	c-0.1,0.1-0.3,0.1-0.4,0.2c-0.1,0.1-0.2,0.2-0.3,0.3c-0.1,0.1-0.2,0.2-0.2,0.3c0,0.1,0,0.3,0.1,0.4l2.5,5c0,0.3,0.2,0.5,0.3,0.6
	l0.3,0.2h0.4l0.7-0.3l0.4-0.2l0.4-0.3l0.3-0.2c0.1-0.1,0.2-0.2,0.2-0.3c0.2-0.7,0.2-1.3,0.2-2L434.8,346.7 M439.3,338.4
	c0.5,0.2,1.1,0.4,1.5,0.8l1.2,1.4c0.3,0.5,0.5,1.1,0.6,1.7c0.1,0.5,0.1,1.1,0,1.6c-0.1,0.5-0.4,1.1-0.7,1.5c-0.3,0.4-0.7,0.7-1.2,1
	c-1,0.6-2.1,0.7-3.2,0.4c-0.5-0.1-1-0.4-1.4-0.7c-0.5-0.4-0.9-0.9-1.2-1.4c-0.3-0.5-0.5-1.1-0.6-1.7c-0.1-0.6-0.1-1.1,0-1.7
	c0.3-1,1-1.9,2-2.4c0.5-0.3,1-0.5,1.5-0.6C438.3,338.2,438.8,338.3,439.3,338.4L439.3,338.4z M441.6,344c0-0.4-0.1-0.9-0.2-1.3
	c-0.2-0.5-0.4-1-0.7-1.4c-0.3-0.5-0.6-0.9-1-1.3c-0.3-0.3-0.6-0.6-1-0.8c-0.3-0.1-0.7-0.2-1-0.2c-0.5,0-0.8,0.1-1.2,0.3
	c-0.4,0.3-0.7,0.6-0.9,1c-0.2,0.3-0.3,0.6-0.3,1c0,0.5,0.1,0.9,0.3,1.3c0.3,1,0.8,1.8,1.5,2.6c0.3,0.4,0.7,0.6,1,0.8
	c0.4,0.2,0.8,0.3,1.2,0.3c0.3,0,0.7,0,1.1-0.3C441.1,345.6,441.6,344.8,441.6,344z M452.1,338.3l-1.9,1.3l-2.3-0.9l-2-0.6l-0.8,0.5
	l1.6,2.1l0.2,0.3h0.4c0.1,0,0.2-0.1,0.3-0.1l0.4-0.3l0.3,0.4l-3,2l-0.2-0.3c0.2-0.2,0.4-0.3,0.6-0.5c0.1-0.1,0.1-0.3,0-0.4
	c0-0.1,0-0.2,0-0.3l-3.6-5c-0.1-0.1-0.1-0.1-0.2-0.2c-0.1-0.1-0.3-0.1-0.4,0c-0.2,0.1-0.5,0.2-0.7,0.3l-0.3-0.4l3.2-2.2
	c0.3-0.2,0.6-0.4,0.9-0.5c0.3-0.1,0.6-0.2,0.9-0.2l0.8,0.1c0.5,0.3,0.9,0.8,1.1,1.4v0.8c0,0.2-0.1,0.5-0.2,0.7
	c-0.1,0.3-0.3,0.6-0.5,0.8l1.6,0.5l1.6,0.5c0.4,0.1,0.8,0.2,1.2,0.1h0.4c0.1-0.1,0.3-0.2,0.4-0.3L452.1,338.3L452.1,338.3z
	 M445.9,335c-0.3-0.4-0.6-0.6-1-0.7s-0.9,0-1.3,0.3l-0.8,0.6l2,3l0.7-0.5c0.4-0.3,0.7-0.7,0.8-1.2C446.3,336,446.3,335.5,445.9,335
	L445.9,335z M459.1,333l0.7,2.4l-6.6,2.4l-0.2-0.4c0.3-0.1,0.5-0.2,0.8-0.4c0.1-0.1,0.2-0.2,0.2-0.3c0-0.1,0-0.3,0-0.4l-2.2-5.6
	c0-0.1-0.1-0.2-0.1-0.3l-0.4-0.1h-0.4c-0.2,0-0.3,0-0.5,0l-0.1-0.3l6.1-2.3l0.7,1.9l-0.4,0.1c-0.2-0.3-0.5-0.5-0.8-0.7l-0.9-0.3
	c-0.1,0.1-0.3,0.1-0.4,0.2l-0.6,0.2l-1.2,0.4l1.1,3.1l1-0.3c0.2,0,0.4-0.2,0.5-0.3c0.1-0.1,0.2-0.2,0.3-0.4v-1.1l0.4-0.1l1.1,3
	l-0.4,0.2c-0.1-0.2-0.2-0.3-0.3-0.5c-0.1-0.1-0.3-0.2-0.4-0.3c-0.1-0.1-0.3-0.2-0.5-0.2c-0.2,0-0.4,0-0.6,0.2l-0.9,0.3l0.9,2.4
	l0.2,0.5c0.1,0.1,0.2,0.2,0.3,0.3h0.5l0.7-0.3l0.5-0.2c0.4-0.1,0.7-0.2,1-0.4l0.2-0.3l0.2-1v-1L459.1,333 M466.2,327.2
	c0.4,0.3,0.8,0.7,1,1.3c0.3,0.5,0.5,1,0.6,1.7c0.1,0.6,0.1,1.2,0,1.8c-0.2,0.6-0.4,1.1-0.8,1.5c-0.6,0.9-1.6,1.5-2.7,1.6
	c-1.1,0.1-2.2-0.2-3-0.9c-0.4-0.3-0.7-0.7-1-1.2c-0.3-0.5-0.5-1.1-0.6-1.7c-0.1-0.6-0.1-1.3,0-1.9l0.8-1.5c0.7-0.8,1.6-1.4,2.7-1.5
	c0.5-0.1,1.1-0.1,1.6,0L466.2,327.2L466.2,327.2z M466.1,333.2c0.2-0.4,0.3-0.8,0.3-1.3v-1.5c-0.1-0.5-0.2-1-0.4-1.5
	c-0.2-0.4-0.4-0.8-0.7-1.2c-0.2-0.3-0.5-0.5-0.9-0.7c-0.4-0.1-0.7-0.2-1.1-0.1c-0.5,0-1,0.2-1.2,0.5c-0.3,0.2-0.6,0.6-0.7,1
	c-0.2,0.4-0.3,0.8-0.3,1.2c-0.1,1,0,2,0.4,3l0.7,1.1c0.2,0.4,0.5,0.6,0.9,0.7c0.3,0.2,0.7,0.2,1.2,0.2c0.4-0.1,0.7-0.3,1-0.5
	C465.7,333.8,465.9,333.5,466.1,333.2L466.1,333.2z"/>
<path class="st49" d="M446,205.1v53c0,10.6-1.4,52.6-46.5,69c-45.3-16.4-46.7-58.4-46.7-69v-53H446"/>
</svg>
