<?xml version="1.0" encoding="utf-8"?>
<!-- Generator: Adobe Illustrator 24.0.1, SVG Export Plug-In . SVG Version: 6.00 Build 0)  -->
<svg version="1.1" id="flag-icons-ca" xmlns="http://www.w3.org/2000/svg" xmlns:xlink="http://www.w3.org/1999/xlink" x="0px"
	 y="0px" viewBox="0 0 800 480" style="enable-background:new 0 0 800 480;" xml:space="preserve">
<style type="text/css">
	.st0{fill:#FFFFFF;}
	.st1{fill:#D52B1E;}
</style>
<path class="st0" d="M200,0h400v480H200V0z"/>
<path class="st1" d="M0,0h200v480H0V0z M600,0h200v480H600.1L600,0z M281,231.9l-13.3,4.5l61.4,53.9c4.7,13.8-1.6,17.8-5.6,25.1
	l66.6-8.4l-1.6,67l13.9-0.4l-3.1-66.6l66.8,8c-4.1-8.7-7.8-13.3-4-27.2l61.3-51.1l-10.7-3.9c-8.8-6.8,3.8-32.5,5.6-48.8
	c0,0-35.7,12.3-38.1,5.8l-9.2-17.5l-32.5,35.8c-3.6,0.8-5.1-0.6-5.9-3.6l15-74.8l-23.8,13.4c-2,0.9-3.9,0.2-5.2-2.2l-23-45.9
	l-23.6,47.7c-1.8,1.7-3.6,1.9-5.1,0.8l-22.7-12.8l13.7,74.2c-1.1,3-3.8,3.8-6.8,2.2l-31.2-35.3c-4,6.6-6.8,17.2-12.2,19.6
	c-5.3,2.2-23.4-4.5-35.5-7.1C276.3,199.1,289.2,223.9,281,231.9L281,231.9z"/>
</svg>
