<?xml version="1.0" encoding="utf-8"?>
<!-- Generator: Adobe Illustrator 24.0.1, SVG Export Plug-In . SVG Version: 6.00 Build 0)  -->
<svg version="1.1" id="flag-icons-cc" xmlns="http://www.w3.org/2000/svg" xmlns:xlink="http://www.w3.org/1999/xlink" x="0px"
	 y="0px" viewBox="0 0 800 480" style="enable-background:new 0 0 800 480;" xml:space="preserve">
<style type="text/css">
	.st0{fill:#008000;}
	.st1{fill:#FFE000;}
	.st2{fill:#802000;stroke:#7B3100;stroke-width:1.5;}
</style>
<path class="st0" d="M0,0h800v480H0V0z"/>
<g>
	<circle class="st1" cx="137.2" cy="173.3" r="69.8"/>
	<path class="st2" d="M132.4,226h17.5c0,0,0.7-1.6-0.2-2.4c-1-0.8-4.7-1-3.7-3.8c2-5.8,2.4-4,3.7-17.8c1-11.8,1.6-23.7,2-35.5h-2.6
		c0,0,0.5,6.7-1,15.5c-1.4,8.8-1.9,9.5-3.5,16.3c-0.8,3.8-1.9,7.6-3.3,11.2c-1.4,4-1.6,4.1-3.8,7.8c-2.3,3.6-1.5,2.2-2.7,4.4
		c-0.7,1.1-1.4,0.8-1.9,1.6C132.6,224.1,132.4,226,132.4,226z"/>
	<path class="st0" d="M145.8,122.5c0.2,3.1-0.2,6.2-1.2,9.2c-1.4,3.1-2.2,6.4-2.3,9.8c-1.8,0.6-3.7-3.9-5.5-1.2
		c1.3,3.7,4.4,6.6,6.4,9.9c0.4,1,3.4,3.7,1.6,4.3c-4.3-1.5-5.4-7-8-10.3c-3.1-5.8-9-9.6-15.5-10c-2.5,0.1-10.4-0.5-8.4,3.7
		c3,2,6.8,3.4,9.8,5.7c2.3,0.2,6.3,4,6.1,5.4c-4-1.6-5.8-3.5-10-5.2c-5.8-2.2-13.7-0.9-17,4.8c-0.5,1.5-1.4,5.8,0.5,6.3
		c2.2-3.4,5.3-7.3,9.9-6.2c3.6,0.3-4,6.7-1.1,5.4c1-0.4,3-1.8,4.6-2c1.5,0,2.3,1,3.4,1.2c2.3,0.3,3,1.2,2.7,1.8
		c-0.2,0.6-1,0-3.3,0.8c-1.1,0.4-1.7,1.4-3,1.9c-1.4,0.4-4.2,0.5-5.2,0c-3.7-1.5-9.7-1.3-10.8,3.3c0,2-1.8-0.2-2.6,0.7
		c-0.7,2.2-0.8,4.4-4,4.2c-2,2-4,4.2-6.6,5.7c1.5,3.4,7.3-3.4,7-0.5c-2.5,3.5,1.4,4.2,3,1.5c2.9-3,6.5-6.7,10.7-3.6
		c2,1.9,3.2-1,4.7-1c1,2.5,2.1,0.2,3.2-0.5c1.7-0.2,1.2,2.2,3.2,0.7c4.1-2.7,9.1-0.4,13.1-3c4.3-2,0.6,1.5-0.5,2.9
		c-1.9,3.6-0.3,8.4-4.3,10.6c-1.7,4.3,1.9,10-1.7,13.2c-0.5,2,4.6,1.8,6,2.6c2.6,0,0-5.8,2.5-6.6c3.4,2,3.2-3.8,2.5-5.6
		c0.4-4,0.6-8.6,2.6-12.3c2.2-4.5,4.2,1.9,1.8,3.7c-1.4,4.1-3.4,9.4-0.3,13.3c1,0.2,1.7,2.4,2.8,3c1.2,0.7,2.8-0.1,3-2.1
		c1.6-6,0.8-12.4,3-18.3c1.5-1.8,3.6-0.3,4.5,1.4c3,3.5,5.1,7.8,8.7,10.7c3.4,1.4,6.2,4,7.8,7.3c0,2.6,7.4,3,5.2,0
		c-2.1-2.7-0.7-5.6,1.4-7.5c1.2,0.3,0.9-1.8,0-1c-1.5-0.3-1.6-3,0.4-1.7c3.5,1.1-0.2-2.5-1.5-2.6c-2.9-1.8-6.2-3.8-7.6-7
		c3.8,0,7.7,2.1,11.5,0.9c3.1-1.6,6.2,0,7.3,2.8c2.4-0.4,1.4-2.8,0-3.6c1.7-0.7,3-2.2,0.8-3.5c-1-1.4,1.5-4-1.7-3.8
		c0.1-2.5-0.8-4.7-3.5-5.6c-2.7-2.2-10.6,3.4-10.3-1.7c-0.8-2.8,3.2-0.4,4.3-1.8c1.1-3-5.5-2.6-3.3-5c1.4-0.8,8.1-2.1,2.9-3.1
		c-2.4,0.7-4.9,0.3-7-1.1c-1.9,3.1-7.2-1.8-6.3,3.8c-0.7,2.1-5.5,7.6-6.8,3.4c1-3.3,6.8-4.3,5-8.8c-0.3-2.7-2.6,0.5-3.6,0.3
		c-0.6-1.7,1.6-3.8,3.2-4.2c3,2.4,3-3,6-2.5c2.1-0.5-0.7-1.4-1.3-1.8c0.6-1.5,3.9-2.3,0.7-3.7c-2.9-2-5,2.1-7.3,2.3
		c-2.2-2.5,2-3.7,3.2-5c0.1-1-2.4-0.3-1.7-1.2c0.7-1.1,5.2-1.2,3-3c-3.4-1-7-0.8-10.2,0.6c-2,0.6-2.5,5-4.2,4.8
		C147.4,126.8,148.4,123,145.8,122.5L145.8,122.5z M160.8,164.8c2.4-0.4,0,3.7-1,3.6c0-1.4-3.6-1.3-1.3-2.6
		C159.2,165.3,159.9,165,160.8,164.8z"/>
</g>
<g>
	<path id="a_7_" class="st1" d="M600.1,323.8l4.4,13.7l13.5-5.1l-8,12l12.4,7.3L608,353l2,14.3l-9.9-10.4l-9.9,10.4l2-14.3
		l-14.3-1.3l12.4-7.3l-8-12l13.5,5.1L600.1,323.8z"/>
</g>
<g>
	<path id="a_6_" class="st1" d="M500.1,197.2l4.4,13.7l13.5-5.1l-8,12l12.4,7.3l-14.4,1.3l2,14.3l-9.9-10.4l-9.9,10.4l2-14.3
		l-14.3-1.3l12.4-7.3l-8-12l13.5,5.1L500.1,197.2z"/>
</g>
<g>
	<path id="a_5_" class="st1" d="M600.1,110.5l4.4,13.7l13.5-5.1l-8,12l12.4,7.3l-14.4,1.3l2,14.3l-9.9-10.4l-9.9,10.4l2-14.3
		l-14.3-1.3l12.4-7.3l-8-12l13.5,5.1L600.1,110.5z"/>
</g>
<g>
	<path id="a_4_" class="st1" d="M689,175.8l4.4,13.7l13.5-5.1l-8,12l12.4,7.3l-14.4,1.3l2,14.3l-9.9-10.4l-9.9,10.4l2-14.3
		l-14.3-1.3l12.4-7.3l-8-12l13.5,5.1L689,175.8z"/>
</g>
<g>
	<path id="b_1_" class="st1" d="M640.1,240l3.5,8.5l9.2,0.7l-7,6l2.2,9l-7.8-4.9l-7.8,4.9l2.2-9l-7-6l9.2-0.7L640.1,240z"/>
</g>
<path class="st1" d="M418.1,294.9c-30.3,0-54.9-24.6-54.9-54.9s24.6-54.9,54.9-54.9c8.6,0,16.8,2,24.1,5.6
	c-11.8-10.8-27.6-17.4-44.9-17.4c-36.8,0-66.7,29.9-66.7,66.7s29.9,66.7,66.7,66.7c17.3,0,33-6.6,44.9-17.4
	C434.9,292.9,426.7,294.9,418.1,294.9z"/>
</svg>
