<?xml version="1.0" encoding="utf-8"?>
<!-- Generator: Adobe Illustrator 24.0.1, SVG Export Plug-In . SVG Version: 6.00 Build 0)  -->
<svg version="1.1" id="flag-icons-cm" xmlns="http://www.w3.org/2000/svg" xmlns:xlink="http://www.w3.org/1999/xlink" x="0px"
	 y="0px" viewBox="0 0 800 480" style="enable-background:new 0 0 800 480;" xml:space="preserve">
<style type="text/css">
	.st0{fill:#DE2910;}
	.st1{fill:#FFDE00;}
</style>
<path class="st0" d="M0,0h800v480H0V0z"/>
<polygon class="st1" points="166.2,149.2 219.8,112.4 153.9,112.4 133.9,52.3 113.8,112.4 48,112.4 101.6,149.2 82.4,206.9 
	133.9,171.4 185.4,206.9 "/>
<polygon class="st1" points="286.1,59.6 305.8,55.2 286.9,46.6 288.2,25.8 275,41.1 255.3,32.1 266.6,51 252.8,67 273.4,62.4 
	284.7,81.3 "/>
<g transform="matrix(-3.38573 -23.75998 23.75968 -3.38578 288 95.8)">
	<path id="a_2_" class="st1" d="M359.4,123.1l-53.4-9.7l48.6-24.3l-24.7,49.8l-8.1-56.7L359.4,123.1z"/>
</g>
<polygon class="st1" points="344.9,198.5 361,185.2 340.8,186.1 333.9,165.5 327.8,186.6 306.7,187.5 324.2,199.5 318.1,220.6 
	334.8,206.8 351.6,218.2 "/>
<polygon class="st1" points="285.7,259.6 305.6,253.6 286.6,246.6 288.2,225 274.5,242.1 254.7,234.8 266.1,252.5 252.4,269.6 
	273.2,263.4 284.2,280.4 "/>
</svg>
