<?xml version="1.0" encoding="utf-8"?>
<!-- Generator: Adobe Illustrator 24.0.1, SVG Export Plug-In . SVG Version: 6.00 Build 0)  -->
<svg version="1.1" id="flag-icons-cv" xmlns="http://www.w3.org/2000/svg" xmlns:xlink="http://www.w3.org/1999/xlink" x="0px"
	 y="0px" viewBox="0 0 800 480" style="enable-background:new 0 0 800 480;" xml:space="preserve">
<style type="text/css">
	.st0{fill-rule:evenodd;clip-rule:evenodd;fill:#081873;}
	.st1{fill-rule:evenodd;clip-rule:evenodd;fill:#DE3929;}
	.st2{fill:#FFCE08;}
</style>
<path class="st0" d="M-0.6,0H800v241.2H-0.6L-0.6,0z M-0.3,362.7h801v118.5h-801V362.7z"/>
<path class="st1" d="M-0.6,284.4h801.3v37.2H-0.6V284.4z"/>
<g>
	<polygon class="st2" points="303.7,346.5 319.9,334.5 299.7,334.5 293.5,315.2 287.3,334.5 267.1,334.5 283.4,346.5 277.2,365.7 
		293.6,353.8 309.9,365.7 	"/>
	<polygon class="st2" points="275.3,285.9 291.6,273.9 308,285.9 301.7,266.6 318.1,254.7 297.8,254.7 291.6,235.5 285.3,254.7 
		265.1,254.7 281.5,266.6 	"/>
	<polygon class="st2" points="314.1,226 330.4,214 346.9,226 340.6,206.7 356.9,194.9 336.7,194.9 330.4,175.6 324.3,194.9 
		304,194.9 320.4,206.7 	"/>
	<polygon class="st2" points="498.2,266.5 492,285.8 508.4,273.8 524.7,285.8 518.5,266.5 534.9,254.6 514.9,254.6 508.6,235.4 
		502.2,254.6 481.9,254.6 	"/>
	<polygon class="st2" points="339.9,394.4 333.7,375.2 327.5,394.3 307.3,394.3 323.7,406.3 317.4,425.5 333.7,413.6 349.9,425.6 
		343.7,406.4 360,394.4 	"/>
	<polygon class="st2" points="403.7,414.4 397.4,395.2 391.1,414.4 371,414.4 387.3,426.3 381,445.6 397.4,433.6 413.8,445.6 
		407.5,426.3 423.9,414.4 	"/>
	<polygon class="st2" points="514.9,328.9 508.6,309.7 502.2,328.9 481.9,328.9 498.2,340.8 492,360.1 508.4,348.2 524.7,360 
		518.5,340.8 534.9,328.9 	"/>
	<polygon class="st2" points="474.5,394.4 468.3,375.2 462.1,394.4 441.9,394.4 458.3,406.4 452,425.6 468.4,413.7 484.8,425.6 
		478.5,406.4 494.8,394.4 	"/>
	<polygon class="st2" points="397.4,153.6 391.1,172.9 371,172.9 387.3,184.7 381,204 397.4,192.1 413.7,204 407.5,184.7 
		423.9,172.9 403.7,172.9 	"/>
	<polygon class="st2" points="447.8,227.3 464.2,215.4 480.6,227.3 474.4,208 490.7,196.1 470.4,196.1 464.1,176.9 458,196.1 
		437.7,196.1 454.1,208 	"/>
</g>
</svg>
