<?xml version="1.0" encoding="utf-8"?>
<!-- Generator: Adobe Illustrator 24.0.1, SVG Export Plug-In . SVG Version: 6.00 Build 0)  -->
<svg version="1.1" id="flag-icons-cx" xmlns="http://www.w3.org/2000/svg" xmlns:xlink="http://www.w3.org/1999/xlink" x="0px"
	 y="0px" viewBox="0 0 800 480" style="enable-background:new 0 0 800 480;" xml:space="preserve">
<style type="text/css">
	.st0{fill:#0021AD;}
	.st1{fill:#1C8A42;}
	.st2{fill:#FFC639;}
	.st3{fill:#FFFFFF;}
</style>
<path class="st0" d="M0,0h800v480H0V0z"/>
<path class="st1" d="M0,0h800v480L0,0z"/>
<circle class="st2" cx="400" cy="240" r="57.8"/>
<path class="st1" d="M364.7,214c4,5.5,10,14.6,14.8,12.2c3.7,0,5.7,0.3,6.2,2.8c12.7,1.3,25.2-4.1,33-14.3c0,0,0.8,0,0.5-4.5
	c0-2,2.8-1.6,2.8-1c0.4,1,0.4,1.7,0.9,1.8c1-0.4,2.7-3,4-4.6c0.3-0.7,0.1-1.5,0.2-2.4c0.7-1.7,2.4-1.3,2.8-0.4l0.6,1.6
	c1.8,1.2,5,0,5.2,0c0.3-1.4,1.2-1.2,1.2-1.2c1.2-0.3,0.7-0.2,1.5,0.2c-0.7,7.7,1.5,8,1.3,12c0.1,4.4-1.3,5.6-1.3,7.3
	c0.4,2,7,2.1,4.6,3.9c-2,1,0,3-3,3.8c-8.8,4.5-10.4,8.3-10.4,8.3s-2.2,4.2-2.5,4.2c-1.5,2.8-3.3,1.2-4.4,2.6c-0.5,1.7-1,5.5,0,7.4
	c0.5,2.7,0,4.2-0.7,6.9c-0.6,5.6-2.8,6.5-3.1,8.4c-1,2.2,0.2,12-0.8,12c-6.5,0.2-11.5-1.2-14.1-1.7c2.5-10.9,1.5-20.4,1.5-21.4
	c-0.6-7.8-11.6-5.9-13.3-7c-1.4-0.2-2.3-1.3-2.7-1.8c-1.6-0.2-2.2-0.6-3.7-0.7c-0.8,0.4-0.3,0.8-2,1.3c-4.5,0.5-6.4-3.8-6.4-3.8
	c0.2-1.5-9.9,0.3-15.3-1c-2.3,1.3-3.3,5-5.1,5.4c0,1.1-3-1-3.6-2c-0.2-3.4,2.8-4.8,2.8-4.8c2.4-1.7,3.8-2,5-3.1
	c0.5-2.9,0.2-5,1.5-7.1c1-1.7,2.5-1,3.5-1.6c1.1-0.8,1.6-5.6,0.6-7l-4.7-4.2C360.7,216.4,363.8,213.7,364.7,214L364.7,214z"/>
<path class="st1" d="M668.6,204.2c-0.3,0.9-1.8,1.3-3.3,0.9c-1.5-0.5-2.4-1.6-2.1-2.6l0,0c0.3-0.9,1.8-1.3,3.3-0.9
	C668,202.1,668.9,203.3,668.6,204.2z"/>
<path class="st2" d="M687.7,142.4c-2.6-10.3-26-32.7-43.7-46.9c-4.2-2.8-7-1.1-6.4,3c2.2,3.6,3.8,7.6,6,11.3
	c0.6,2.5,1.8,4.2,2.4,6.6c0,0,0.2,4.2,0.6,4.6c5.4,6,6.2,11.1,6.2,11.1c2.8,5.9,6.7,11.2,11.5,15.6c6.2,3.9,1.6,16,1.8,22.5
	c0,4-2.9,3.6-5.5,3c-20.1-18.5-40.1-18.5-57.8-23.9c-6.8-0.7-7,2.6-4.7,4.4c11,12.3,24.3,22.3,39.1,29.6l7.7,4.8l8.8,7.3
	c6.8,4.4,7.3,8.4,7.3,8.8c0.2,8.2-4.2,14.6-5.5,17.2c-2.3,8.7-7,10.2-7,10.2c-37.6,25.4-57.4,32-118.4,24.1c-1-0.4-6.8,0.5,0,3
	c15.5,5.2,53.7,13.5,90.6-4c9-6.2,14.8-4.2,21.3-8c9.1-5.7,18.6-10.8,28.3-15.4c8.3-4.5,31.3-9.4,36.6-13.8
	c6.1-0.5,12.4-1.3,12.8-6.5c2-1.3,5-0.3,7.2-4.6c4.8-0.9,4-2.6,4-2.6c-1.2-3.4-5.8-4.8-9-7.3c-4.8-1.6-8-2-11.5-0.4l-3.3,1.5
	c0,0-5.1-0.7-5.1-1.1c-11.4-0.6-10.3-38.3-14.3-54V142.4z"/>
<g transform="matrix(.64 0 0 .64 0 80)">
	<path id="a_7_" class="st3" d="M231.6,191l-12.8-12l-12.9,11.8l1.4-17.4l-17.3-2.8l14.5-9.8l-8.6-15.2l16.7,5.3l6.5-16.2l6.3,16.3
		l16.7-5l-8.8,15l14.4,10l-17.3,2.5l1.2,17.4L231.6,191z"/>
	<path class="st3" d="M276.8,335.5l-13.8-9.1l-13.4,9.6l4.8-15.5l-13.6-9.5l16.6-0.4l5-15.5l5.6,15.3l16.7-0.1l-13.3,9.7l5.3,15.4
		L276.8,335.5z"/>
	<g>
		<path id="a_6_" class="st3" d="M234.1,460.1l-12.8-12l-12.9,11.8l1.4-17.4l-17.3-2.8l14.5-9.8l-8.6-15.2l16.7,5.3l6.5-16.2
			l6.3,16.3l16.7-5l-8.8,15l14.4,10l-17.3,2.5l1.2,17.4L234.1,460.1z"/>
	</g>
	<g>
		<path id="a_5_" class="st3" d="M119.5,314.2l-12.8-12L93.8,314l1.4-17.4l-17.3-2.8l14.5-9.8l-8.6-15.2l16.7,5.3l6.5-16.2l6.3,16.3
			l16.7-5l-8.8,15l14.4,10l-17.3,2.5l1.2,17.4L119.5,314.2z"/>
	</g>
	<g>
		<path id="a_4_" class="st3" d="M340,276l-12.8-12l-12.9,11.8l1.4-17.4l-17.3-2.8l14.5-9.8l-8.6-15.2l16.7,5.3l6.5-16.2l6.3,16.3
			l16.7-5l-8.8,15l14.4,10l-17.3,2.5l1.2,17.4L340,276z"/>
	</g>
</g>
</svg>
