<?xml version="1.0" encoding="utf-8"?>
<!-- Generator: Adobe Illustrator 24.0.1, SVG Export Plug-In . SVG Version: 6.00 Build 0)  -->
<svg version="1.1" id="flag-icons-dg" xmlns="http://www.w3.org/2000/svg" xmlns:xlink="http://www.w3.org/1999/xlink" x="0px"
	 y="0px" viewBox="0 0 800 480" style="enable-background:new 0 0 800 480;" xml:space="preserve">
<style type="text/css">
	.st0{fill-rule:evenodd;clip-rule:evenodd;fill:#000063;}
	.st1{fill-rule:evenodd;clip-rule:evenodd;fill:#A24300;stroke:#FFFFFF;stroke-width:2.1;}
	.st2{fill-rule:evenodd;clip-rule:evenodd;fill:#006D00;stroke:#FFFFFF;stroke-width:1.8;}
	.st3{fill:none;stroke:#000000;stroke-width:0.3;}
	.st4{fill-rule:evenodd;clip-rule:evenodd;fill:#006D00;stroke:#FFFFFF;stroke-width:2;}
	.st5{fill-rule:evenodd;clip-rule:evenodd;fill:#006D00;stroke:#FFFFFF;stroke-width:1.9;}
	.st6{fill-rule:evenodd;clip-rule:evenodd;fill:#CC0000;stroke:#000000;}
	.st7{fill-rule:evenodd;clip-rule:evenodd;fill:#FFF100;stroke:#000000;}
	.st8{fill-rule:evenodd;clip-rule:evenodd;fill:#FFFFFF;stroke:#000000;}
	.st9{fill-rule:evenodd;clip-rule:evenodd;fill:#FFF100;stroke:#000000;stroke-width:3;}
	.st10{fill-rule:evenodd;clip-rule:evenodd;fill:#808080;}
	.st11{fill-rule:evenodd;clip-rule:evenodd;fill:#CC0000;}
	.st12{fill-rule:evenodd;clip-rule:evenodd;}
	.st13{fill-rule:evenodd;clip-rule:evenodd;fill:#006300;}
	.st14{fill-rule:evenodd;clip-rule:evenodd;fill:#FFF100;stroke:#000000;stroke-width:2.2;}
	.st15{fill-rule:evenodd;clip-rule:evenodd;fill:#FFF100;stroke:#000000;stroke-width:3.3;}
	.st16{fill:#012169;}
	.st17{fill:#FFFFFF;}
	.st18{fill:#C8102E;}
</style>
<path id="path1225" class="st0" d="M800,416.2c-9,6.7-16.6,22-40.5,22c-47.6,0-59.5-32.5-95.3-32.5c-23.8,0-35.6,32.5-59.5,32.5
	c-47.6,0-59.5-32.5-95.2-32.5c-23.8,0-35.6,32.5-59.4,32.5c-47.8,0-59.6-32.5-95.4-32.5c-23.8,0-35.8,32.5-59.5,32.5
	c-47.6,0-59.5-32.5-95.2-32.5c-23.8,0-35.8,32.5-59.5,32.5c-47.8,0-59.6-32.5-95.2-32.5c-23.8,0-31,23.2-45.2,23.2v41.7
	c14.2,0,21.4-23,45.4-23c35.6,0,47.5,32.4,95,32.4c23.9,0,35.8-32.5,59.6-32.5c35.8,0,47.6,32.5,95.4,32.5
	c23.8,0,35.5-32.5,59.4-32.5c35.8,0,47.6,32.5,95.2,32.5c23.8,0,35.8-32.5,59.5-32.5c35.8,0,47.6,32.5,95.2,32.5
	c23.8,0,35.7-32.5,59.5-32.5c35.8,0,47.8,32.5,95.3,32.5c23.8,0,31.5-9.2,40.5-15.8V416.2z M800,335c-9,6.7-16.6,22-40.5,22
	c-47.6,0-59.5-32.5-95.3-32.5c-23.8,0-35.6,32.5-59.5,32.5c-47.6,0-59.5-32.5-95.2-32.5c-23.8,0-35.6,32.5-59.4,32.5
	c-47.8,0-59.6-32.5-95.4-32.5c-23.8,0-35.8,32.5-59.5,32.5c-47.6,0-59.5-32.5-95.2-32.5c-23.8,0-35.8,32.5-59.5,32.5
	c-47.8,0-59.6-32.5-95.2-32.5c-23.8,0-31,23.2-45.2,23.2v41.8c14.2,0,21.4-23.1,45.4-23.1c35.6,0,47.5,32.5,95,32.5
	c23.9,0,35.8-32.5,59.6-32.5c35.8,0,47.6,32.5,95.4,32.5c23.8,0,35.5-32.5,59.4-32.5c35.8,0,47.6,32.5,95.4,32.5
	c23.8,0,35.6-32.5,59.4-32.5c35.8,0,47.6,32.5,95.3,32.5c23.8,0,35.7-32.5,59.5-32.5c35.8,0,47.8,32.5,95.3,32.5
	c23.8,0,31.5-9.2,40.5-15.8V335z M800,253.9c-9,6.7-16.6,22-40.5,22c-47.6,0-59.5-32.5-95.3-32.5c-23.8,0-35.6,32.5-59.5,32.5
	c-47.6,0-59.5-32.5-95.2-32.5c-23.8,0-35.6,32.5-59.4,32.5c-47.8,0-59.6-32.5-95.4-32.5c-23.8,0-35.8,32.5-59.5,32.5
	c-47.6,0-59.5-32.5-95.2-32.5c-23.8,0-35.8,32.5-59.5,32.5c-47.8,0-59.6-32.5-95.2-32.5c-23.8,0-31,23.2-45.2,23.2v41.8
	c14.2,0,21.4-23.2,45.4-23.2c35.6,0,47.5,32.5,95,32.5c23.9,0,35.8-32.5,59.6-32.5c35.8,0,47.6,32.5,95.4,32.5
	c23.8,0,35.5-32.5,59.4-32.5c35.8,0,47.6,32.5,95.4,32.5c23.8,0,35.6-32.5,59.4-32.5c35.8,0,47.6,32.5,95.3,32.5
	c23.8,0,35.7-32.5,59.5-32.5c35.8,0,47.8,32.5,95.3,32.5c23.8,0,31.5-9.2,40.5-15.8V253.9z M800,172.8c-9,6.6-16.6,22-40.5,22
	c-47.6,0-59.5-32.5-95.3-32.5c-23.8,0-35.6,32.5-59.5,32.5c-47.6,0-59.5-32.5-95.2-32.5c-23.8,0-35.6,32.5-59.4,32.5
	c-47.8,0-59.6-32.5-95.4-32.5c-23.8,0-35.8,32.5-59.5,32.5c-47.6,0-59.5-32.5-95.2-32.5c-23.8,0-35.8,32.5-59.5,32.5
	c-47.8,0-59.6-32.5-95.2-32.5c-23.8,0-31,23.2-45.2,23.2v41.7c14.2,0,21.4-23,45.4-23c35.6,0,47.5,32.4,95,32.4
	c23.9,0,35.8-32.5,59.6-32.5c35.8,0,47.6,32.5,95.4,32.5c23.8,0,35.5-32.5,59.4-32.5c35.8,0,47.6,32.5,95.4,32.5
	c23.8,0,35.6-32.5,59.4-32.5c35.8,0,47.6,32.5,95.3,32.5c23.8,0,35.7-32.5,59.5-32.5c35.8,0,47.8,32.5,95.3,32.5
	c23.8,0,31.5-9.3,40.5-15.9V172.8z M800,91.5c-9,6.7-16.6,22.1-40.5,22.1c-47.6,0-59.5-32.5-95.3-32.5c-23.8,0-35.6,32.5-59.5,32.5
	c-47.6,0-59.5-32.5-95.2-32.5c-23.8,0-35.6,32.5-59.4,32.5c-47.8,0-59.6-32.5-95.4-32.5c-23.8,0-35.8,32.5-59.5,32.5
	c-47.6,0-59.5-32.5-95.2-32.5c-23.8,0-35.8,32.5-59.5,32.5c-47.8,0-59.6-32.5-95.2-32.5c-23.8,0.1-31,23.3-45.2,23.3v41.8
	c14.2,0,21.4-23.1,45.2-23.1c35.6,0,47.6,32.5,95.2,32.5c23.8,0,35.6-32.5,59.5-32.5c35.8,0,47.6,32.5,95.4,32.5
	c23.8,0,35.5-32.5,59.2-32.5c35.9,0,47.8,32.5,95.4,32.5c23.8,0,35.8-32.5,59.5-32.5c35.8,0,47.6,32.5,95.2,32.5
	c23.8,0,35.7-32.5,59.5-32.5c35.8,0,47.8,32.5,95.3,32.5c23.8,0,31.5-9.3,40.5-15.9v-48V91.5z M800,10.5c-9,6.6-16.6,22-40.5,22
	C711.9,32.5,700,0,664.3,0c-23.8,0-35.6,32.5-59.5,32.5C557.1,32.5,545.2,0,509.5,0c-23.8,0-35.6,32.5-59.4,32.5
	C402.4,32.5,390.5,0,354.8,0C331,0,319,32.5,295.3,32.5C247.5,32.5,235.8,0,200,0c-23.8,0-35.8,32.5-59.5,32.5
	C92.8,32.5,80.9,0,45.3,0C21.5,0,14.3,23.2,0,23.2v41.9C14.3,65,21.4,42,45.3,42c35.6,0,47.6,32.4,95.2,32.4
	c23.8,0,35.6-32.4,59.5-32.4c35.8,0,47.6,32.4,95.4,32.4c23.8,0,35.5-32.4,59.3-32.4c35.9,0,47.8,32.4,95.4,32.4
	c23.8,0,35.8-32.4,59.5-32.4c35.8,0,47.6,32.4,95.2,32.4c23.8,0,35.7-32.4,59.5-32.4c35.8,0,47.8,32.4,95.3,32.4
	c23.8,0,31.5-9.2,40.5-15.8V10.5z"/>
<g>
	<path id="path1237" class="st1" d="M618.1,131.7l-3.5,329c0,17.3,15.7,17.3,17.4,0l-3.5-329L618.1,131.7z"/>
	<path id="path1239" class="st2" d="M654,254l-11-11.9l-2.6,12.1l-4.7-17.5l-4.5,8.8l-0.8-18.6l-4.4,8.8l-0.8-18.6l-4.4,8.8
		l-2.5-21.9l-4.4,8.8l-2.6-21.8l-4.5,8.8l-2.5-21.9l-1.3-11l2.2-4.3l5.8,2.1l9.1,8.7l18.3,17.4l-11.3-4.3l18.3,17.4l-11.4-4.3
		l18.3,17.3l-11.4-4.2l16.6,14l-11.3-4.2l16.5,14l-11.3-4.2l12.6,15.2l-13.1-7.6l3,14.3L654,254z"/>
	<path id="path1241" class="st3" d="M654,254l-48.7-91.4 M638.4,190.8l-26.1-15.2l-5.4,24.1"/>
	<path id="path1243" class="st3" d="M645.5,203.8l-26.3-15.1l-5.3,24.1"/>
	<path id="path1245" class="st3" d="M652.4,216.8l-26.2-15l-5.4,24"/>
	<path id="path1247" class="st3" d="M657.6,226.7l-24.5-11.9l-7,21"/>
	<path id="path1249" class="st3" d="M662.8,236.5l-24.5-11.9l-7,21"/>
	<path id="path1251" class="st3" d="M664.1,247.4l-22.3-16.2l-1.4,23"/>
	<path id="path1253" class="st4" d="M526.3,97.9l17.8,6.8l-5.2-13.5l15.6,15.3l-1.5-11l12.6,18.4l-1.5-11l12.6,18.4l-1.5-11
		l16.3,20.8l-1.5-11l16.3,20.8l-1.4-11l16.2,20.8l8.2,10.4l0.7,5.5l-6.7,0.6l-14-4.3l-28.2-8.7l13.3-1.1l-28.1-8.7l13.3-1.1
		l-28.1-8.7l13.3-1.2l-24.4-6.2l13.3-1.1l-24.4-6.2l13.3-1.2l-21.5-9.3l17.1,1.3L526.3,97.9L526.3,97.9z"/>
	<path id="path1255" class="st3" d="M526.3,97.9L630,166.6 M581.1,154.2l34.1,2.6l-10.3-26.9"/>
	<path id="path1257" class="st3" d="M566.3,144.4l34,2.6L590,120"/>
	<path id="path1259" class="st3" d="M551.5,134.6l34,2.6l-10.3-27"/>
	<path id="path1261" class="st3" d="M540.3,127.2l30.5,0.1l-6.7-24.4"/>
	<path id="path1263" class="st3" d="M529.3,119.8l30.4,0.2L553,95.5"/>
	<path id="path1265" class="st3" d="M521.1,109.4l31.1,5.7L539,91.2"/>
	<path id="path1267" class="st4" d="M733.1,120.8l-14.8,10.9l16.4,1.8l-22.9,5.4l12.2,3.6l-24.7,1.8l12.2,3.6l-24.7,1.8l12.1,3.7
		L670,157l12.2,3.6l-28.9,3.6l12.2,3.6l-28.9,3.6l-14.5,1.8l-6-1.8l2.2-5.4l10.7-9l21.3-18.1l-4.6,10.8l21.3-18l-4.6,10.8l21.3-18
		l-4.6,10.8l17.2-16.3l-4.5,10.9l17-16.3l-4.5,10.8l19-12.6l-8.7,12.7L733.1,120.8L733.1,120.8z"/>
	<path id="path1269" class="st3" d="M733.1,120.8l-117,50.6 M650.2,138.9l-17.4,25.3l32.7,3.6"/>
	<path id="path1271" class="st3" d="M667,131.7L649.5,157l32.7,3.6"/>
	<path id="path1273" class="st3" d="M683.7,124.4l-17.5,25.3l32.7,3.7"/>
	<path id="path1275" class="st3" d="M696.3,119L683,142.5l28.5,5.4"/>
	<path id="path1277" class="st3" d="M708.8,113.6l-13.3,23.5l28.5,5.4"/>
	<path id="path1279" class="st3" d="M723.3,111.8l-19.4,21.7h30.7"/>
	<path id="path1281" class="st4" d="M730.7,230.3l-18.4-5.3l6.6,13l-17.1-14l2.6,10.7l-14.5-17.2l2.7,10.8L678.1,211l2.6,10.8
		l-18.5-19.4l2.7,10.8l-18.5-19.4l2.7,10.8l-18.5-19.4l-9.2-9.7l-1.3-5.4l6.6-1.2l14.5,3.2l29,6.4l-13.2,2.2l29,6.4l-13.2,2.2
		l29,6.4l-13.2,2.3l25,4.2l-13.2,2.2l25,4.2l-13.1,2.4l22.3,7.5h-17l13,12L730.7,230.3z"/>
	<path id="path1283" class="st3" d="M730.7,230.3l-110.6-60.2 M670.1,178.5l-34.2,0.2l13.2,26"/>
	<path id="path1285" class="st3" d="M685.9,187.1l-34.2,0.2l13.2,26"/>
	<path id="path1287" class="st3" d="M701.7,195.7l-34.2,0.2l13.2,26"/>
	<path id="path1289" class="st3" d="M713.6,202.2l-30.3,2.3l9.3,23.8"/>
	<path id="path1291" class="st3" d="M725.5,208.7l-30.3,2.2l9.2,23.8"/>
	<path id="path1293" class="st3" d="M734.6,218.4l-31.5-3.2l15.8,22.8"/>
	<path id="path1295" class="st2" d="M538.5,236.6l9.3-13l-14.1,2.1l17.4-9.9l-11.1-0.5l20-7l-11.1-0.6l20-7l-11.1-0.6l23-9.6
		l-11.2-0.5l23-9.7l-11.1-0.5l23-9.6l11.5-4.9l5.6,0.3l-0.4,5.3l-6.3,10.4l-12.6,20.8l0.8-10.6l-12.6,20.8l0.7-10.7l-12.6,20.8
		l0.7-10.6l-9.6,18.2l0.7-10.6l-9.6,18.2l0.7-10.6l-12.2,15.4l3.7-13.2L538.5,236.6L538.5,236.6z"/>
	<path id="path1297" class="st3" d="M538.5,236.6l83-71 M602.4,202.1l7.3-26.4l-28.2,4.1"/>
	<path id="path1299" class="st3" d="M590.5,212.3l7.3-26.4l-28.2,4"/>
	<path id="path1301" class="st3" d="M578.6,222.4L586,196l-28.2,4.1"/>
	<path id="path1303" class="st3" d="M569.7,230l4.4-23.8l-25.2,1.5"/>
	<path id="path1305" class="st3" d="M560.8,237.6l4.4-23.8l-25.2,1.5"/>
	<path id="path1307" class="st3" d="M549.3,242.4l10-23.5l-25.6,6.8"/>
	<path id="path1309" class="st4" d="M706.3,66.2l-17.9,12l-2.9-12.9L675,83.1l-2-8.5l-8.6,18.2l-1.2-8.4l-6.7,18.7l-3.8-9l-6.7,22.7
		l-3.8-9l-6.7,22.7l-3.9-9l-6.7,22.7l-3.3,11.4l1.9,4.5l7.2-2.4l12.4-9.2l25-18.4l-14.4,4.7l24.9-18.5l-14.4,4.8l24.9-18.5
		l-14.4,4.8l25-14.4l-17,4l26.6-13.7L693,87.5l19.7-15.6l-17,8.1L706.3,66.2z"/>
	<path id="path1311" class="st3" d="M699.3,72.7l-25.8,22.2l-50,65.2"/>
	<path id="path1313" class="st3" d="M662.6,132.8L634,146.3l-2.4-20.8"/>
	<path id="path1315" class="st3" d="M673.5,119.2l-29,13.4l-2.3-20.8"/>
	<path id="path1317" class="st3" d="M683.8,105.5l-28.7,13.4l-2.2-20.7"/>
	<path id="path1319" class="st3" d="M692.4,95.3l-26.8,9.9l-3-17"/>
	<path id="path1321" class="st3" d="M702.3,85.5L673.5,95l-1-16.4"/>
	<path id="path1323" class="st3" d="M706.1,76.2l-26.6,13.6l5.2-20.6"/>
	<path id="path1325" class="st4" d="M609.4,43.8l8,18.2l10.3-9.6L626,72.2l6.8-6.4l-3.7,19.4l6-6.6l-5.5,19l8.7-6l-8,22.3l8.6-6
		l-8,22.5l8.7-6l-8,22.4l-4,11.2l-4.4,3l-4.8-5.3l-5-13.4l-10-26.9l9.4,10.5l-10.1-27l9.4,10.6l-10-27l9.2,10.5l-12.5-23.4l12,11.1
		l-14.4-23.9l11.3,11l-7.3-22.2l9.6,14.6L609.4,43.8z"/>
	<path id="path1327" class="st3" d="M611.5,52.4l8.5,30.5l3.2,78"/>
	<path id="path1329" class="st3" d="M606.3,120.2l16.2,24.3l14.7-16.7"/>
	<path id="path1331" class="st3" d="M605.3,103.7l16.5,24.4l14.7-16.7"/>
	<path id="path1333" class="st3" d="M604.8,87.3l16.4,24.4L635.6,95"/>
	<path id="path1335" class="st3" d="M603.7,74.9l16.8,20.4l13-13"/>
	<path id="path1337" class="st3" d="M601.3,62L620,83l11-13.6"/>
	<path id="path1339" class="st3" d="M603.6,52.4L618,75.9l8.1-19.9"/>
	<path id="path1341" class="st5" d="M502.3,178l23.3-16.2l-11.7-6l20.5,3.4l-7-9.3l19.8,7.5l-7-9.3l19.9,7.4l-7-9.2l24,8.1l-7-9.3
		l23.3,12.1l-7-9.3l24,8.2l11.7,6l3.5,4.6l-4.7,3.3l-12.9,1.8l-20.7,8.6l3.8-7.4l-25.7,3.6l9.3-6.4l-26.3,7.6l9.4-6.5l-22.2,8.3
		l9.9-10.4l-22.8,12.2l10-10.4l-18.8,13l10.5-14.4L502.3,178z"/>
	<path id="path1343" class="st3" d="M509.6,173.6l24.2-10.5l12.9-1.8l10.7-0.2l18.5,1.2l16.7,0.7l33,3.7"/>
	<path id="path1345" class="st3" d="M590.5,176.9l18.5-11.4l-18.8-14.7"/>
	<path id="path1347" class="st3" d="M569.8,175.2l22.7-12.2l-18.7-14.8"/>
	<path id="path1349" class="st3" d="M555,174.8l20.9-12.5l-19-13.7 M527.4,178.2l19.3-16.9l-15.6-8.5"/>
	<path id="path1351" class="st3" d="M518.8,179.3l15-16.1l-12-4.5 M540.2,176.4l19-15.2L544,150.8"/>
	<g id="g1473" transform="matrix(.94693 0 0 .94693 115.2 18.3)">
		<path id="path1353" class="st6" d="M491.7,355.7l-0.2-28.8l-8.3-13.5c-2.1-6.6-1.1-9.8,2.3-10c3.4-0.2,6.7,1.7,11.6,1.9
			s3.9-7.5,11.1-7.3c7.2,0.2,19.7,4.1,30.4,4.7c10.7,0.6,16.2-3.4,28.5-3.8s15.5,5.3,16.2,5.3c0.7,0,4.2-2.3,7.6-2.8
			c3.5-0.4,4.6,1.3,4.6,1.3s-0.2,7.3-1.9,11.5c-1.6,4.3-7.4,11.3-7.6,11.3s-2.1,31.4-2.1,31.6S491.7,356.4,491.7,355.7z"/>
		<g id="g1387">
			<path id="path1355" class="st7" d="M587.1,326.2c0,0,9.3-6.5,9.5-22.3c0.1-9.1-4.7-15.6-16.8-15.6c-16.9,0-41.1,6.7-41.1,6.7v2.2
				c0,0,19.4-6.7,41.1-6.7c9.7,0,14.5,6.5,14.5,13.2c0,11.1-9.7,22.4-9.7,22.4V344h2.4V326.2z"/>
			<path id="path1357" class="st8" d="M592.1,321.6c-0.1,1.2,0.9,2.3,2.2,2.4c1.3,0.1,2.5-0.8,2.6-2.1c0-0.1,0-0.2,0-0.3
				c-0.1-1.2-1.3-2.2-2.6-2.1C593.2,319.6,592.2,320.4,592.1,321.6z"/>
			<path id="path1359" class="st8" d="M594.5,316.5c-0.1,1.2,0.9,2.3,2.2,2.4c1.3,0.1,2.5-0.8,2.6-2.1c0-0.1,0-0.2,0-0.3
				c-0.1-1.2-1.3-2.2-2.6-2.1C595.6,314.5,594.6,315.3,594.5,316.5z"/>
			<path id="path1361" class="st8" d="M595.8,311.3c-0.1,1.2,0.9,2.3,2.2,2.4c1.3,0.1,2.5-0.8,2.6-2.1c0-0.1,0-0.2,0-0.3
				c-0.1-1.2-1.3-2.2-2.6-2.1C596.9,309.3,595.9,310.1,595.8,311.3z"/>
			<path id="path1363" class="st8" d="M596.7,305.8c-0.1,1.2,0.9,2.3,2.2,2.4c1.3,0.1,2.5-0.8,2.6-2.1c0-0.1,0-0.2,0-0.3
				c-0.1-1.2-1.3-2.2-2.6-2.1C597.8,303.8,596.8,304.6,596.7,305.8z"/>
			<path id="path1365" class="st8" d="M596.5,299.8c-0.1,1.2,0.9,2.3,2.2,2.4c1.3,0.1,2.5-0.8,2.6-2.1c0-0.1,0-0.2,0-0.3
				c-0.1-1.2-1.3-2.2-2.6-2.1C597.6,297.8,596.6,298.6,596.5,299.8z"/>
			<path id="path1367" class="st8" d="M588.6,326.1c-0.1,1.2,0.9,2.3,2.2,2.4c1.3,0.1,2.5-0.8,2.6-2.1c0-0.1,0-0.2,0-0.3
				c-0.1-1.2-1.3-2.2-2.6-2.1C589.7,324.1,588.7,324.9,588.6,326.1z"/>
			<path id="path1369" class="st8" d="M594.4,294.1c-0.1,1.2,0.9,2.3,2.2,2.4c1.3,0.1,2.5-0.8,2.6-2.1c0-0.1,0-0.2,0-0.3
				c-0.1-1.2-1.3-2.2-2.6-2.1C595.5,292.1,594.5,292.9,594.4,294.1z"/>
			<path id="path1371" class="st8" d="M589.9,289.6c-0.1,1.2,0.9,2.3,2.2,2.4c1.3,0.1,2.5-0.8,2.6-2.1c0-0.1,0-0.2,0-0.3
				c-0.1-1.2-1.3-2.2-2.6-2.1C591,287.6,590,288.4,589.9,289.6z"/>
			<path id="path1373" class="st8" d="M583.9,286.6c-0.1,1.2,0.9,2.3,2.2,2.4c1.3,0.1,2.5-0.8,2.6-2.1c0-0.1,0-0.2,0-0.3
				c-0.1-1.2-1.3-2.2-2.6-2.1C585,284.6,584,285.4,583.9,286.6z"/>
			<path id="path1375" class="st8" d="M577.9,286.2c-0.1,1.2,0.9,2.3,2.2,2.4c1.3,0.1,2.5-0.8,2.6-2.1c0-0.1,0-0.2,0-0.3
				c-0.1-1.2-1.3-2.2-2.6-2.1C579,284.2,578,285,577.9,286.2z"/>
			<path id="path1377" class="st8" d="M571.4,286.4c-0.1,1.2,0.9,2.3,2.2,2.4c1.3,0.1,2.5-0.8,2.6-2.1c0-0.1,0-0.2,0-0.3
				c-0.1-1.2-1.3-2.2-2.6-2.1C572.5,284.4,571.5,285.2,571.4,286.4z"/>
			<path id="path1379" class="st8" d="M564.9,287.3c-0.1,1.2,0.9,2.3,2.2,2.4c1.3,0.1,2.5-0.8,2.6-2.1c0-0.1,0-0.2,0-0.3
				c-0.1-1.2-1.3-2.2-2.6-2.1C566,285.3,565,286.1,564.9,287.3z"/>
			<path id="path1381" class="st8" d="M558.5,288.1c-0.1,1.2,0.9,2.3,2.2,2.4c1.3,0.1,2.5-0.8,2.6-2.1c0-0.1,0-0.2,0-0.3
				c-0.1-1.2-1.3-2.2-2.6-2.1C559.6,286.1,558.6,286.9,558.5,288.1z"/>
			<path id="path1383" class="st8" d="M551.5,289.1c-0.1,1.2,0.9,2.3,2.2,2.4c1.3,0.1,2.5-0.8,2.6-2.1c0-0.1,0-0.2,0-0.3
				c-0.1-1.2-1.3-2.2-2.6-2.1C552.6,287.1,551.6,287.9,551.5,289.1z"/>
			<path id="path1385" class="st8" d="M545.5,290.7c-0.1,1.2,0.9,2.3,2.2,2.4c1.3,0.1,2.5-0.8,2.6-2.1c0-0.1,0-0.2,0-0.3
				c-0.1-1.2-1.3-2.2-2.6-2.1C546.6,288.7,545.6,289.5,545.5,290.7z"/>
		</g>
		<path id="path1389" class="st8" d="M485.2,321.6c0.1,1.2-0.9,2.3-2.2,2.4c-1.3,0.1-2.5-0.8-2.6-2.1c0-0.1,0-0.2,0-0.3
			c0.1-1.2,1.3-2.2,2.6-2.1C484.2,319.6,485.1,320.4,485.2,321.6z"/>
		<path id="path1391" class="st8" d="M482.7,316.5c0.1,1.2-0.9,2.3-2.2,2.4c-1.3,0.1-2.5-0.8-2.6-2.1c0-0.1,0-0.2,0-0.3
			c0.1-1.2,1.3-2.2,2.6-2.1C481.7,314.5,482.6,315.3,482.7,316.5z"/>
		<path id="path1393" class="st8" d="M481.5,311.3c0.1,1.2-0.9,2.3-2.2,2.4c-1.3,0.1-2.5-0.8-2.6-2.1c0-0.1,0-0.2,0-0.3
			c0.1-1.2,1.3-2.2,2.6-2.1C480.5,309.3,481.4,310.1,481.5,311.3z"/>
		<path id="path1395" class="st8" d="M480.6,305.8c0.1,1.2-0.9,2.3-2.2,2.4c-1.3,0.1-2.5-0.8-2.6-2.1c0-0.1,0-0.2,0-0.3
			c0.1-1.2,1.3-2.2,2.6-2.1C479.6,303.8,480.5,304.6,480.6,305.8z"/>
		<path id="path1397" class="st8" d="M480.8,299.8c0.1,1.2-0.9,2.3-2.2,2.4c-1.3,0.1-2.5-0.8-2.6-2.1c0-0.1,0-0.2,0-0.3
			c0.1-1.2,1.3-2.2,2.6-2.1C479.8,297.8,480.7,298.6,480.8,299.8z"/>
		<path id="path1399" class="st8" d="M482.8,294.1c0.1,1.2-0.9,2.3-2.2,2.4c-1.3,0.1-2.5-0.8-2.6-2.1c0-0.1,0-0.2,0-0.3
			c0.1-1.2,1.3-2.2,2.6-2.1C481.8,292.1,482.7,292.9,482.8,294.1z"/>
		<path id="path1401" class="st8" d="M487.2,289.6c0.1,1.2-0.9,2.3-2.2,2.4c-1.3,0.1-2.5-0.8-2.6-2.1c0-0.1,0-0.2,0-0.3
			c0.1-1.2,1.3-2.2,2.6-2.1C486.2,287.6,487.1,288.4,487.2,289.6z"/>
		<path id="path1403" class="st8" d="M493.3,286.6c0.1,1.2-0.9,2.3-2.2,2.4c-1.3,0.1-2.5-0.8-2.6-2.1c0-0.1,0-0.2,0-0.3
			c0.1-1.2,1.3-2.2,2.6-2.1C492.3,284.6,493.2,285.4,493.3,286.6z"/>
		<path id="path1405" class="st8" d="M499.3,286.2c0.1,1.2-0.9,2.3-2.2,2.4c-1.3,0.1-2.5-0.8-2.6-2.1c0-0.1,0-0.2,0-0.3
			c0.1-1.2,1.3-2.2,2.6-2.1C498.3,284.2,499.2,285,499.3,286.2z"/>
		<path id="path1407" class="st8" d="M505.8,286.4c0.1,1.2-0.9,2.3-2.2,2.4c-1.3,0.1-2.5-0.8-2.6-2.1c0-0.1,0-0.2,0-0.3
			c0.1-1.2,1.3-2.2,2.6-2.1C504.8,284.4,505.7,285.2,505.8,286.4z"/>
		<path id="path1409" class="st8" d="M512.3,287.3c0.1,1.2-0.9,2.3-2.2,2.4c-1.3,0.1-2.5-0.8-2.6-2.1c0-0.1,0-0.2,0-0.3
			c0.1-1.2,1.3-2.2,2.6-2.1C511.3,285.3,512.2,286.1,512.3,287.3z"/>
		<path id="path1411" class="st8" d="M518.8,288.1c0.1,1.2-0.9,2.3-2.2,2.4c-1.3,0.1-2.5-0.8-2.6-2.1c0-0.1,0-0.2,0-0.3
			c0.1-1.2,1.3-2.2,2.6-2.1C517.8,286.1,518.7,286.9,518.8,288.1z"/>
		<path id="path1413" class="st8" d="M525.7,289.1c0.1,1.2-0.9,2.3-2.2,2.4c-1.3,0.1-2.5-0.8-2.6-2.1c0-0.1,0-0.2,0-0.3
			c0.1-1.2,1.3-2.2,2.6-2.1C524.7,287.1,525.6,287.9,525.7,289.1z"/>
		<path id="path1415" class="st8" d="M531.7,290.7c0.1,1.2-0.9,2.3-2.2,2.4c-1.3,0.1-2.5-0.8-2.6-2.1c0-0.1,0-0.2,0-0.3
			c0.1-1.2,1.3-2.2,2.6-2.1C530.7,288.7,531.6,289.5,531.7,290.7z"/>
		<path id="path1417" class="st8" d="M488.6,326.1c0.1,1.2-0.9,2.3-2.2,2.4c-1.3,0.1-2.5-0.8-2.6-2.1c0-0.1,0-0.2,0-0.3
			c0.1-1.2,1.3-2.2,2.6-2.1C487.6,324.1,488.5,324.9,488.6,326.1z"/>
		<path id="path1419" class="st7" d="M490.3,326.2c0,0-9.3-6.5-9.5-22.3c-0.1-9.1,4.7-15.6,16.8-15.6c16.9,0,41.1,6.7,41.1,6.7v2.2
			c0,0-19.4-6.7-41.1-6.7c-9.7,0-14.5,6.5-14.5,13.2c0,11.1,9.7,22.4,9.7,22.4V344h-2.4V326.2z"/>
		<path id="path1421" class="st9" d="M507.2,334.5c0,0,0.7-1.7,3.2-1.7c1.7,0,3.2,1.7,3.2,3.4v3.4h1.6v-3.4c0-1.7,1.6-3.4,3.2-3.4
			c2.4,0,3.2,1.7,3.2,1.7s0-5.1-3.2-5.1c-2.4,0-3.2,1.7-3.2,1.7s0.8-2.5,0.8-5.1c0-2.5-1.6-4.2-1.6-4.2c0,0.3-1.6,1.7-1.6,4.2
			c0,2.5,0.8,5.1,0.8,5.1s-0.8-1.7-3.2-1.7C507.2,329.4,507.2,334.5,507.2,334.5z"/>
		<path id="path1423" class="st9" d="M555.6,334.5c0,0,0.7-1.7,3.2-1.7c1.7,0,3.2,1.7,3.2,3.4v3.4h1.6v-3.4c0-1.7,1.6-3.4,3.2-3.4
			c2.4,0,3.2,1.7,3.2,1.7s0-5.1-3.2-5.1c-2.4,0-3.2,1.7-3.2,1.7s0.8-2.5,0.8-5.1c0-2.5-1.6-4.2-1.6-4.2c0,0.3-1.6,1.7-1.6,4.2
			c0,2.5,0.8,5.1,0.8,5.1s-0.8-1.7-3.2-1.7C555.6,329.4,555.6,334.5,555.6,334.5z"/>
		<path id="path1425" class="st7" d="M490.3,357.4v-20.1c0,0,4.8,6.7,12.1,6.7c5.9,0,12.1-8.9,12.1-8.9s5.7,6.7,12.1,6.7
			c5.7,0,12.1-8.6,12.1-8.6s5.9,8.6,12.1,8.6c6.2,0,12.1-6.7,12.1-6.7s6.3,8.9,14.5,8.9c7.3,0,9.7-6.7,9.7-6.7v20.1H490.3z"/>
		<path id="path1427" class="st7" d="M490.3,357.4v-15.6c0,0,14.5,4.4,14.5,15.6H490.3z"/>
		<path id="path1429" class="st7" d="M587,357.4v-15.6c0,0-14.5,4.4-14.5,15.6H587z"/>
		<path id="path1431" class="st7" d="M500,357.4c0-11.2,14.5-18.2,14.5-18.2s14.5,7,14.5,18.2H500z"/>
		<path id="path1433" class="st7" d="M548.4,357.4c0-11.2,14.5-18.2,14.5-18.2s14.5,7,14.5,18.2H548.4z"/>
		<path id="path1435" class="st7" d="M521.7,357.5c0-11.1,17-20,17-20s16.9,8.9,16.9,20H521.7L521.7,357.5z"/>
		<path id="path1437" class="st8" d="M589.5,357.4c-4.8-2.2-22.4-4.5-50.8-4.5c-28.4,0-47.3,2.2-52.1,4.5c-4.8,2.2-4.8,6.7,0,8.9
			s23.7,4.5,52.1,4.5c28.4,0,46-2.2,50.8-4.5S594.2,359.6,589.5,357.4z"/>
		<path id="path1439" class="st10" d="M587.1,366.3c0,4.5-40.3,4.5-48.4,4.5c-8.8,0-48.4,1.2-48.4-4.5c0-4.4,39.9-4.4,48.4-4.4
			C547.1,361.9,587.1,362.8,587.1,366.3z"/>
		<path id="path1441" class="st11" d="M495.1,350.3c0,1.5-1,2.7-2.4,2.7s-2.4-1.2-2.4-2.7s1-2.6,2.4-2.6
			C494,347.7,495.1,348.9,495.1,350.3z M587.1,350.3c0,1.5-1.1,2.7-2.5,2.7c-1.3,0-2.4-1.2-2.4-2.7s1.1-2.6,2.4-2.6
			c1.4,0,2.4,1.2,2.4,2.6H587.1z"/>
		<path id="path1443" class="st12" d="M543.5,349c0,1.4-2.2,2.6-4.8,2.6c-2.6,0-4.9-1.2-4.9-2.7s2.2-2.6,4.9-2.6
			c2.7,0,4.8,1.2,4.8,2.6V349z"/>
		<path id="path1445" class="st13" d="M566.7,349c0,1.4-1.6,2.6-3.6,2.6s-3.6-1.2-3.6-2.7s1.6-2.6,3.6-2.6s3.6,1.2,3.6,2.6V349z
			 M516.9,349c0,1.4-1.6,2.6-3.6,2.6c-2,0-3.7-1.2-3.7-2.7s1.6-2.6,3.7-2.6c2,0,3.6,1.2,3.6,2.6V349z"/>
		<path id="path1447" class="st14" d="M529,333.6c0,0,2.8-3.8,5.5-3.8h2.8v2.5c0,3.8-4.1,5.1-4.1,5.1h11.1c0,0-4.2-1.3-4.2-5.1v-2.5
			h2.8c2.8,0,5.5,3.8,5.5,3.8v-10.2c0,0-2.8,3.8-5.5,3.8H540v-2.6c0-3.8,4.2-5.1,4.2-5.1h-11.1c0,0,4.1,1.3,4.1,5.1v2.6h-2.8
			c-2.8,0-5.5-3.8-5.5-3.8L529,333.6L529,333.6z"/>
		<path id="path1449" class="st15" d="M490.2,341.8h2.8c0,0-2.1-1.1-2.1-4.5v-2.2h1.4c1.4,0,2.8,3.3,2.8,3.3v-8.9
			c0,0-1.4,3.3-2.8,3.3h-1.4v-2.2c0-3.3,2.1-4.5,2.1-4.5h-2.8V341.8z"/>
		<path id="path1451" class="st15" d="M587.1,341.8h-2.8c0,0,2.1-1.1,2.1-4.5v-2.2H585c-1.4,0-2.8,3.3-2.8,3.3v-8.9
			c0,0,1.4,3.3,2.8,3.3h1.4v-2.2c0-3.3-2.1-4.5-2.1-4.5h2.8V341.8z"/>
		<path id="path1453" class="st8" d="M541.1,328.4c0,1.2-1.1,2.2-2.4,2.2c-1.3,0-2.4-1-2.4-2.2s1.1-2.2,2.4-2.2
			C540,326.2,541.1,327.2,541.1,328.4z"/>
		<path id="path1455" class="st14" d="M529,286.8c0,0,2.8-3.8,5.5-3.8h2.8v2.5c0,3.8-4.1,5.1-4.1,5.1h11.1c0,0-4.2-1.3-4.2-5.1V283
			h2.8c2.8,0,5.5,3.8,5.5,3.8v-10.2c0,0-2.8,3.8-5.5,3.8H540v-2.6c0-3.8,4.2-5.1,4.2-5.1h-11.1c0,0,4.1,1.3,4.1,5.1v2.6h-2.8
			c-2.8,0-5.5-3.8-5.5-3.8L529,286.8L529,286.8z"/>
		<path id="path1457" class="st8" d="M541.3,282c0,1.2-1.1,2.2-2.4,2.2c-1.3,0-2.4-1-2.4-2.2s1.1-2.2,2.4-2.2
			C540.2,279.8,541.3,280.8,541.3,282z"/>
		<path id="path1459" class="st7" d="M533.8,290.6h9.7v6.7h-9.7L533.8,290.6z"/>
		<path id="path1461" class="st7" d="M533.8,294.1h9.7v25.5h-9.7L533.8,294.1z"/>
		<path id="path1463" class="st8" d="M541,315.1c0.1,1.2-0.9,2.3-2.2,2.4c-1.3,0.1-2.5-0.8-2.6-2.1c0-0.1,0-0.2,0-0.3
			c0.1-1.2,1.3-2.2,2.6-2.1C540,313.1,540.9,313.9,541,315.1z"/>
		<path id="path1465" class="st8" d="M541,309.4c0.1,1.2-0.9,2.3-2.2,2.4c-1.3,0.1-2.5-0.8-2.6-2.1c0-0.1,0-0.2,0-0.3
			c0.1-1.2,1.3-2.2,2.6-2.1C540,307.4,540.9,308.2,541,309.4z"/>
		<path id="path1467" class="st8" d="M541,304.1c0.1,1.2-0.9,2.3-2.2,2.4c-1.3,0.1-2.5-0.8-2.6-2.1c0-0.1,0-0.2,0-0.3
			c0.1-1.2,1.3-2.2,2.6-2.1C540,302.1,540.9,302.9,541,304.1z"/>
		<path id="path1469" class="st8" d="M541,298.5c0.1,1.2-0.9,2.3-2.2,2.4c-1.3,0.1-2.5-0.8-2.6-2.1c0-0.1,0-0.2,0-0.3
			c0.1-1.2,1.3-2.2,2.6-2.1C540,296.5,540.9,297.3,541,298.5z"/>
		<path id="path1471" class="st12" d="M543.8,357.5c0,1-2.2,1.8-5,1.8s-4.8-0.8-4.8-1.8s2.2-1.8,4.9-1.8
			C541.6,355.7,543.8,356.5,543.8,357.5z M588.4,361.9c-0.3,0.7-2.7,0.8-5.4,0.1c-2.7-0.6-4.6-1.6-4.4-2.3c0.3-0.7,2.7-0.8,5.4-0.1
			C586.7,360.2,588.6,361.2,588.4,361.9z M569.7,358.9c0,0.9-2.4,1.4-5.2,1.3c-2.7-0.2-4.9-1.1-4.8-2c0.1-0.9,2.5-1.4,5.2-1.2
			C567.7,357.2,569.9,358,569.7,358.9L569.7,358.9z M487.9,361.9c0.2,0.7,2.6,0.8,5.3,0.1c2.7-0.6,4.7-1.6,4.4-2.3
			c-0.3-0.7-2.7-0.8-5.4-0.1C489.6,360.2,487.6,361.2,487.9,361.9z M507.4,358.5c0.1,0.9,2.5,1.4,5.2,1.2c2.8-0.2,5-1,4.8-2
			c0-0.8-2.4-1.4-5.2-1.2C509.5,356.7,507.3,357.5,507.4,358.5z"/>
	</g>
</g>
<path id="path824" class="st16" d="M0,0h400v240H0V0z"/>
<path id="path826" class="st17" d="M46.9,0l152.5,90.5L351.2,0H400v31l-150,89.5l150,89V240h-50l-150-89.5L50.6,240H0v-30l149.4-89
	L0,32V0H46.9z"/>
<path id="path828" class="st18" d="M265,140.5L400,220v20l-169.4-99.5H265z M150,150.5l3.8,17.5l-120,72H0L150,150.5z M400,0v1.5
	l-155.6,94l1.2-22L368.8,0H400z M0,0l149.4,88h-37.5L0,21V0z"/>
<path id="path830" class="st17" d="M150.6,0v240h100V0H150.6z M0,80v80h400V80H0z"/>
<path id="path832" class="st18" d="M0,96.5v48h400v-48H0z M170.6,0v240h60V0H170.6z"/>
</svg>
