<?xml version="1.0" encoding="utf-8"?>
<!-- Generator: Adobe Illustrator 24.0.1, SVG Export Plug-In . SVG Version: 6.00 Build 0)  -->
<svg version="1.1" id="flag-icons-dm" xmlns="http://www.w3.org/2000/svg" xmlns:xlink="http://www.w3.org/1999/xlink" x="0px"
	 y="0px" viewBox="0 0 800 480" style="enable-background:new 0 0 800 480;" xml:space="preserve">
<style type="text/css">
	.st0{fill-rule:evenodd;clip-rule:evenodd;fill:#108C00;}
	.st1{fill-rule:evenodd;clip-rule:evenodd;fill:#FFD600;}
	.st2{fill-rule:evenodd;clip-rule:evenodd;}
	.st3{fill-rule:evenodd;clip-rule:evenodd;fill:#FFFFFF;}
	.st4{fill-rule:evenodd;clip-rule:evenodd;fill:#E72910;}
	.st5{fill-rule:evenodd;clip-rule:evenodd;fill:#FFE700;}
	.st6{fill-rule:evenodd;clip-rule:evenodd;fill:#009200;stroke:#000000;stroke-width:2.5;}
	.st7{fill-rule:evenodd;clip-rule:evenodd;fill:#A95600;stroke:#000000;stroke-width:0.4888;stroke-miterlimit:3.9104;}
	.st8{fill-rule:evenodd;clip-rule:evenodd;fill:#FFFF00;stroke:#000000;stroke-width:3.9;}
	.st9{fill-rule:evenodd;clip-rule:evenodd;fill:#A95600;stroke:#000000;stroke-width:0.4;}
	.st10{fill-rule:evenodd;clip-rule:evenodd;fill:#804BFF;stroke:#000000;stroke-width:0.4888;stroke-miterlimit:3.9104;}
	.st11{fill-rule:evenodd;clip-rule:evenodd;fill:#C90000;stroke:#000000;}
	.st12{fill-rule:evenodd;clip-rule:evenodd;fill:#009200;stroke:#000000;stroke-width:1.5;}
	.st13{fill-rule:evenodd;clip-rule:evenodd;fill:#009200;stroke:#000000;stroke-width:1.6;}
	.st14{fill-rule:evenodd;clip-rule:evenodd;fill:#009200;stroke:#000000;stroke-width:0.4554;stroke-miterlimit:10;}
	.st15{fill-rule:evenodd;clip-rule:evenodd;fill:#009200;stroke:#000000;stroke-width:1.4;}
	.st16{fill-rule:evenodd;clip-rule:evenodd;fill:#009200;stroke:#000000;stroke-width:2.1;}
	.st17{fill-rule:evenodd;clip-rule:evenodd;fill:#009200;stroke:#000000;stroke-width:2.9;}
	.st18{fill-rule:evenodd;clip-rule:evenodd;fill:#009200;stroke:#000000;stroke-width:2.7;}
	.st19{fill-rule:evenodd;clip-rule:evenodd;fill:#804BFF;stroke:#000000;stroke-width:2.5;}
	.st20{fill-rule:evenodd;clip-rule:evenodd;fill:#FF0000;stroke:#000000;stroke-width:2.5;}
	.st21{fill-rule:evenodd;clip-rule:evenodd;fill:#FFFF00;stroke:#000000;stroke-width:2.5;}
	.st22{fill-rule:evenodd;clip-rule:evenodd;fill:#FFFF00;stroke:#000000;stroke-width:6.6;}
</style>
<g transform="translate(79.7) scale(.94)">
	<path class="st0" d="M-84.8,0h851.1v510.6H-84.8V0z"/>
	<path class="st1" d="M-84.8,173.7h851.1v48.4H-84.8V173.7z"/>
	<path class="st1" d="M266.1,0h46.8v510.6h-46.7L266.1,0z"/>
	<path class="st2" d="M312.9,0h48.4v510.6h-48.4L312.9,0z"/>
	<path class="st2" d="M-84.8,222.1h851.1v50.2H-84.8V222.1z"/>
	<path class="st3" d="M-84.8,272.3h851.1v50.1H-84.8V272.3z"/>
	<path class="st3" d="M361.3,0h48.5v510.6h-48.5V0z"/>
	<path class="st4" d="M342.8,393.9L342.8,393.9c-75.6,0-136.9-61.6-136.9-137.5l0,0c0-75.9,61.3-137.5,136.9-137.5l0,0
		c75.6,0,136.9,61.6,136.9,137.5l0,0C479.7,332.3,418.4,393.9,342.8,393.9z"/>
	<g>
		<path class="st2" d="M335.6,137l5.6-16l5.1,15.7c0,0,17.1,0.5,17.1,0.2s-13.5,10.3-13.5,10.3l6.1,17.6
			c-0.2-0.5-14.8-10.9-14.8-10.9s-14.8,10.4-14.5,10.4c0.3,0,5.6-17,5.6-17L319,137.2l16.6-0.3L335.6,137z"/>
		<path class="st5" d="M336.4,137.7l4.7-13.7l4.4,13.6c0,0,14.9,0.4,14.9,0.2s-11.7,9-11.7,9l5.2,15.2c-0.2-0.5-12.8-9.4-12.8-9.4
			s-12.8,9-12.6,9c0.2,0,5-14.8,5-14.8l-11.6-8.8l14.4-0.2L336.4,137.7z"/>
		<path class="st0" d="M338.4,140l2.8-8l2.6,7.9c0,0,8.5,0.2,8.5,0s-6.7,5.2-6.7,5.2l3,8.8c-0.1-0.3-7.4-5.4-7.4-5.4l-7.2,5.2
			c0.2,0,2.8-8.5,2.8-8.5l-6.6-5L338.4,140z"/>
	</g>
	<g>
		<path class="st2" d="M442,211.8l5.6-16l5,15.7c0,0,17.2,0.6,17.2,0.3s-13.5,10.3-13.5,10.3l6,17.6c-0.2-0.5-14.7-10.9-14.7-10.9
			s-14.8,10.4-14.5,10.4s5.6-17,5.6-17L425.4,212l16.6-0.3V211.8z"/>
		<path class="st5" d="M442.7,212.6l4.9-13.9l4.4,13.7c0,0,14.8,0.4,14.8,0.2s-11.7,9-11.7,9l5.3,15.1c-0.2-0.4-12.8-9.4-12.8-9.4
			s-12.8,9-12.6,9s4.9-14.8,4.9-14.8l-11.5-8.7L442.7,212.6L442.7,212.6z"/>
		<path class="st0" d="M444.8,214.9l2.8-8l2.5,7.8l8.6,0.2l-6.8,5.1c0,0,3.2,9,3,8.8c0-0.3-7.3-5.4-7.3-5.4l-7.3,5.1l2.8-8.5l-6.6-5
			L444.8,214.9L444.8,214.9z"/>
	</g>
	<g>
		<path class="st2" d="M411,330.6l5.6-16l5,15.8c0,0,17.2,0.5,17.2,0.3S425.3,341,425.3,341l6,17.5c-0.2-0.5-14.7-10.8-14.7-10.8
			S401.8,358,402,358s5.7-17,5.7-17l-13.3-10l16.6-0.3L411,330.6z"/>
		<path class="st5" d="M411.7,331.4l4.9-13.8l4.4,13.6c0,0,14.8,0.5,14.8,0.2s-11.7,9-11.7,9l5.3,15.2c-0.2-0.5-12.8-9.4-12.8-9.4
			s-12.8,9-12.6,9s4.9-14.8,4.9-14.8l-11.5-8.7L411.7,331.4L411.7,331.4z"/>
		<path class="st0" d="M413.8,333.7l2.8-8l2.5,7.9c0,0,8.6,0.3,8.6,0.1s-6.8,5.2-6.8,5.2l3,8.7c0-0.2-7.3-5.4-7.3-5.4l-7.3,5.2
			l2.8-8.5l-6.6-5L413.8,333.7L413.8,333.7z"/>
	</g>
	<g>
		<path class="st2" d="M262.3,330.6l5.6-16l5,15.8c0,0,17.1,0.5,17.1,0.3S276.5,341,276.5,341l6.2,17.5
			c-0.3-0.5-14.8-10.8-14.8-10.8S253.1,358,253.3,358s5.7-17,5.7-17l-13.3-10l16.6-0.3V330.6z"/>
		<path class="st5" d="M263.1,331.4l4.8-13.8l4.4,13.6c0,0,14.8,0.5,14.8,0.2s-11.7,9-11.7,9l5.3,15.2c-0.2-0.5-12.8-9.4-12.8-9.4
			s-12.8,9-12.6,9s4.9-14.8,4.9-14.8l-11.5-8.7l14.3-0.3L263.1,331.4z"/>
		<path class="st0" d="M265.1,333.7l2.8-8l2.5,7.9c0,0,8.6,0.3,8.6,0.1s-6.8,5.2-6.8,5.2l3,8.7c0-0.2-7.3-5.4-7.3-5.4l-7.3,5.2
			l2.8-8.5l-6.6-5L265.1,333.7L265.1,333.7z"/>
	</g>
	<g>
		<path class="st2" d="M235.1,208.7l5.6-16l5.1,15.8c0,0,17.1,0.5,17.1,0.2s-13.5,10.4-13.5,10.4l6.1,17.5
			c-0.3-0.5-14.8-10.8-14.8-10.8S225.9,236,226.2,236s5.6-17,5.6-17l-13.3-10L235.1,208.7L235.1,208.7z"/>
		<path class="st5" d="M235.9,209.5l4.8-13.8l4.5,13.6c0,0,14.7,0.5,14.7,0.2s-11.7,9-11.7,9l5.3,15.2c-0.2-0.5-12.8-9.4-12.8-9.4
			s-12.8,9-12.5,9s4.8-14.8,4.8-14.8l-11.5-8.7L235.9,209.5z"/>
		<path class="st0" d="M237.9,211.8l2.8-8l2.6,7.9l8.5,0.1l-6.7,5.2l3,8.7c-0.1-0.2-7.4-5.4-7.4-5.4l-7.2,5.2c0.2,0,2.8-8.5,2.8-8.5
			l-6.6-5L237.9,211.8L237.9,211.8z"/>
	</g>
	<g>
		<path class="st2" d="M409.7,174.1l-5.6,16l-5-15.7c0,0-17.2-0.5-17.2-0.3s13.5-10.3,13.5-10.3l-6-17.5
			c0.2,0.5,14.7,10.8,14.7,10.8s14.8-10.3,14.5-10.3s-5.6,17-5.6,17l13.3,10L409.7,174.1L409.7,174.1z"/>
		<path class="st5" d="M409,173.3c0,0.3-5,13.9-5,13.9l-4.3-13.6c0,0-14.8-0.5-14.8-0.3s11.7-8.9,11.7-8.9l-5.3-15.2
			c0.2,0.5,12.8,9.4,12.8,9.4s12.8-9,12.6-9s-4.9,14.8-4.9,14.8l11.5,8.7L409,173.3L409,173.3z"/>
		<path class="st0" d="M406.9,171l-2.8,8l-2.5-7.8c0,0-8.6-0.3-8.6-0.1s6.8-5.2,6.8-5.2l-3-8.7c0,0.2,7.3,5.4,7.3,5.4l7.3-5.2
			c-0.2,0-2.9,8.5-2.9,8.5l6.7,5L406.9,171L406.9,171z"/>
	</g>
	<g>
		<path class="st2" d="M452.4,290.3l-5.6,16l-5-15.8c0,0-17.2-0.5-17.2-0.2s13.5-10.3,13.5-10.3l-6-17.6
			c0.2,0.5,14.7,10.8,14.7,10.8s14.8-10.3,14.5-10.3s-5.6,17-5.6,17l13.4,10.1l-16.6,0.3H452.4z"/>
		<path class="st5" d="M451.7,289.5l-4.9,13.8l-4.4-13.6c0,0-14.8-0.4-14.8-0.2s11.7-9,11.7-9l-5.3-15.2c0.2,0.5,12.8,9.4,12.8,9.4
			s12.8-9,12.6-9s-4.9,14.8-4.9,14.8l11.5,8.8L451.7,289.5L451.7,289.5z"/>
		<path class="st0" d="M449.6,287.2l-2.8,8l-2.5-7.9c0,0-8.6-0.2-8.6,0s6.8-5.2,6.8-5.2l-3-8.8c0,0.3,7.3,5.4,7.3,5.4l7.3-5.2
			c-0.2,0-2.9,8.6-2.9,8.6l6.7,5L449.6,287.2z"/>
	</g>
	<g>
		<path class="st2" d="M346.5,375.3l-5.6,16l-5-15.8c0,0-17.2-0.5-17.2-0.3s13.5-10.3,13.5-10.3l-6-17.5
			c0.2,0.5,14.7,10.8,14.7,10.8s14.8-10.3,14.5-10.3s-5.6,17-5.6,17l13.3,10.1L346.5,375.3z"/>
		<path class="st5" d="M345.8,374.4l-4.9,14l-4.4-13.7c0,0-14.8-0.5-14.8-0.2s11.7-9,11.7-9l-5.3-15.2c0.2,0.5,12.8,9.4,12.8,9.4
			s12.8-9,12.6-9s-4.9,14.8-4.9,14.8l11.5,8.7L345.8,374.4L345.8,374.4z"/>
		<path class="st0" d="M343.7,372.2l-2.8,8l-2.5-7.9c0,0-8.6-0.3-8.6-0.1s6.8-5.2,6.8-5.2l-3-8.7c0,0.2,7.3,5.4,7.3,5.4l7.3-5.2
			l-2.8,8.5l6.6,5L343.7,372.2L343.7,372.2z"/>
	</g>
	<g>
		<path class="st2" d="M247.1,290.3l-5.7,16l-5-15.8c0,0-17.2-0.5-17.2-0.2s13.5-10.3,13.5-10.3l-6-17.6
			c0.2,0.5,14.7,10.8,14.7,10.8l14.7-10.2l-5.7,17l13.3,10.1l-16.6,0.3V290.3z"/>
		<path class="st5" d="M246.3,289.5l-4.9,13.8l-4.4-13.6c0,0-14.8-0.4-14.8-0.2s11.7-9,11.7-9l-5.3-15.2c0.2,0.5,12.8,9.4,12.8,9.4
			s12.8-9,12.6-9s-4.9,14.8-4.9,14.8l11.5,8.8L246.3,289.5L246.3,289.5z"/>
		<path class="st0" d="M244.2,287.2l-2.8,8l-2.5-7.9c0,0-8.6-0.2-8.6,0s6.8-5.2,6.8-5.2l-3-8.8c0,0.3,7.3,5.4,7.3,5.4l7.3-5.2
			l-2.8,8.6l6.6,5L244.2,287.2z"/>
	</g>
	<g>
		<path class="st2" d="M283.8,175.8l-5.6,16l-5.2-15.7c0,0-17-0.5-17-0.3s13.5-10.3,13.5-10.3l-6.1-17.5
			c0.2,0.5,14.7,10.8,14.7,10.8s14.8-10.3,14.6-10.3c-0.2,0-5.6,17-5.6,17l13.2,10L283.8,175.8L283.8,175.8z"/>
		<path class="st5" d="M283,175l-4.9,14l-4.4-13.7c0,0-14.8-0.5-14.8-0.2s11.7-9,11.7-9l-5.3-15.2c0.2,0.5,12.8,9.4,12.8,9.4
			s12.8-9,12.6-9c-0.2,0-4.8,14.8-4.8,14.8l11.4,8.7l-14.3,0.3V175z"/>
		<path class="st0" d="M280.9,172.8l-2.8,8l-2.5-7.9c0,0-8.5-0.3-8.5-0.1s6.7-5.2,6.7-5.2l-3-8.7c0,0.2,7.3,5.4,7.3,5.4l7.3-5.2
			l-2.8,8.5l6.6,5L280.9,172.8z"/>
	</g>
	<g transform="matrix(1.04 0 0 1.04 -250.6 359.4)">
		<g transform="matrix(.16 -.02 0 .18 429.8 -215.6)">
			
				<ellipse transform="matrix(-0.1293 0.9916 -0.9916 -0.1293 1948.6305 102.2213)" class="st6" cx="929.4" cy="906.6" rx="211.9" ry="38.6"/>
			
				<ellipse transform="matrix(-0.1301 0.9915 -0.9915 -0.1301 2014.8567 52.139)" class="st6" cx="984.6" cy="909.9" rx="212" ry="41.4"/>
			
				<ellipse transform="matrix(-0.1272 0.9919 -0.9919 -0.1272 1993.3352 77.2099)" class="st6" cx="962.7" cy="915.6" rx="233.1" ry="33.1"/>
		</g>
		<g transform="translate(72.9 -9.8)">
			<path class="st7" d="M470.3-53c6-0.3,3.4-3.3,6.4-5c3-1.6,7.3-0.6,8.6,1.4c1.3,2,0.3,4,2,4s47-2.5,48.6-0.9c1.6,1.7,2,5,0.3,6.3
				c-1.6,1.4-58.9,3-60.9,1.6S470.3-52.6,470.3-53z"/>
			<path class="st8" d="M501.7-41.2c0,4,6.8,2.8,7,6.1c-0.1,3.5-11.5,0.4-11.8-6.1c0.3-6.5,11.2-9.8,11.5-6.1
				C508.6-44.2,501.7-45.2,501.7-41.2L501.7-41.2z"/>
			<path class="st8" d="M505.7-41.1c0,4,6.8,2.8,7,6.1c-0.1,3.5-11.5,0.4-11.8-6.1c0.3-6.5,11.2-9.8,11.5-6.1
				C512.6-44.1,505.7-45.1,505.7-41.1L505.7-41.1z"/>
			<path class="st8" d="M510-41.3c0,4,6.8,2.8,7,6.1c-0.1,3.5-11.5,0.4-11.8-6.1c0.3-6.5,11.2-9.8,11.5-6.1
				C516.9-44.3,510-45.3,510-41.3L510-41.3z"/>
			<path class="st8" d="M514-41.3c0,4,6.8,2.8,7,6.1c-0.1,3.5-11.5,0.4-11.8-6.1c0.3-6.5,11.2-9.8,11.5-6.1
				C520.9-44.3,514-45.3,514-41.3L514-41.3z"/>
			<ellipse transform="matrix(1 -7.768909e-03 7.768909e-03 1 0.2724 4.1421)" class="st9" cx="533.3" cy="-33" rx="3.9" ry="3.9"/>
		</g>
		<g transform="rotate(-5.8 688.4 -625.2)">
			
				<ellipse transform="matrix(-1 2.860440e-06 -2.860440e-06 -1 1047.6417 -127.4624)" class="st6" cx="523.8" cy="-63.7" rx="3.5" ry="7.7"/>
			
				<ellipse transform="matrix(-1 2.860440e-06 -2.860440e-06 -1 1036.0417 -129.6624)" class="st6" cx="518" cy="-64.8" rx="3.5" ry="7.7"/>
			
				<ellipse transform="matrix(-1 2.860440e-06 -2.860440e-06 -1 1029.2417 -145.4623)" class="st6" cx="514.6" cy="-72.7" rx="3.5" ry="7.7"/>
			
				<ellipse transform="matrix(-1 2.860440e-06 -2.860440e-06 -1 1038.0997 -148.7623)" class="st6" cx="519" cy="-74.4" rx="3.3" ry="8.4"/>
			
				<ellipse transform="matrix(-1 2.860440e-06 -2.860440e-06 -1 1054.2997 -144.1623)" class="st6" cx="527.1" cy="-72.1" rx="3.3" ry="8"/>
			
				<ellipse transform="matrix(-1 2.860441e-06 -2.860441e-06 -1 1045.8998 -150.5623)" class="st6" cx="522.9" cy="-75.3" rx="3.3" ry="8"/>
			
				<ellipse transform="matrix(-1 2.860440e-06 -2.860440e-06 -1 1035.4998 -159.5623)" class="st6" cx="517.7" cy="-79.8" rx="3.3" ry="8"/>
			
				<ellipse transform="matrix(-1 2.860440e-06 -2.860440e-06 -1 1025.4998 -165.1623)" class="st6" cx="512.7" cy="-82.6" rx="3.3" ry="8"/>
		</g>
		<path class="st10" d="M564.4-141c0,0-11.7,10-10.1,36.9c1.8,27,26.5,39.5,26.5,39.5s6.2-7.7,5.2-29.5c-2-31.8-13.8-45.7-13.8-45.7
			l-7.8-1.3L564.4-141z"/>
		<g transform="rotate(4.5 181 769.9)">
			
				<ellipse transform="matrix(2.460668e-06 1 -1 2.460668e-06 445.5661 -602.4083)" class="st6" cx="524" cy="-78.4" rx="7.7" ry="3.5"/>
			
				<ellipse transform="matrix(2.460668e-06 1 -1 2.460668e-06 438.6661 -597.7083)" class="st6" cx="518.2" cy="-79.5" rx="7.7" ry="3.5"/>
			
				<ellipse transform="matrix(2.460668e-06 1 -1 2.460668e-06 427.3661 -602.2083)" class="st6" cx="514.8" cy="-87.4" rx="7.7" ry="3.5"/>
			
				<ellipse transform="matrix(2.460668e-06 1 -1 2.460668e-06 430.1451 -608.2872)" class="st6" cx="519.2" cy="-89.1" rx="8.4" ry="3.3"/>
			
				<ellipse transform="matrix(2.460668e-06 1 -1 2.460668e-06 440.5451 -614.0873)" class="st6" cx="527.3" cy="-86.8" rx="8" ry="3.3"/>
			
				<ellipse transform="matrix(2.460668e-06 1 -1 2.460668e-06 433.1451 -613.0873)" class="st6" cx="523.1" cy="-90" rx="8" ry="3.3"/>
			
				<ellipse transform="matrix(2.460668e-06 1 -1 2.460668e-06 423.4451 -612.3873)" class="st6" cx="517.9" cy="-94.5" rx="8" ry="3.3"/>
			
				<ellipse transform="matrix(2.460668e-06 1 -1 2.460668e-06 415.6451 -610.1873)" class="st6" cx="512.9" cy="-97.3" rx="8" ry="3.3"/>
		</g>
		
			<ellipse transform="matrix(0.9275 -0.3739 0.3739 0.9275 76.8455 213.0829)" class="st11" cx="587.7" cy="-91.5" rx="10" ry="30.1"/>
		<g transform="rotate(1 242.4 -1957.8)">
			
				<ellipse transform="matrix(2.124419e-06 1 -1 2.124419e-06 489.1713 -738.9481)" class="st12" cx="614.1" cy="-124.9" rx="3.9" ry="4.3"/>
			
				<ellipse transform="matrix(2.124418e-06 1 -1 2.124418e-06 484.9663 -745.7431)" class="st13" cx="615.4" cy="-130.4" rx="3.9" ry="3.8"/>
			
				<ellipse transform="matrix(2.124415e-06 1 -1 2.124415e-06 479.7663 -740.5431)" class="st13" cx="610.2" cy="-130.4" rx="3.9" ry="3.8"/>
			
				<ellipse transform="matrix(2.124418e-06 1 -1 2.124418e-06 473.4243 -750.6091)" class="st13" cx="612" cy="-138.6" rx="3.5" ry="4"/>
			
				<ellipse transform="matrix(2.124418e-06 1 -1 2.124418e-06 468.4243 -754.6091)" class="st13" cx="611.5" cy="-143.1" rx="3.5" ry="4"/>
			
				<ellipse transform="matrix(2.124420e-06 1 -1 2.124420e-06 471.9663 -738.3431)" class="st13" cx="605.2" cy="-133.2" rx="3.9" ry="3.8"/>
			
				<ellipse transform="matrix(2.124420e-06 1 -1 2.124420e-06 470.1663 -742.1431)" class="st13" cx="606.2" cy="-136" rx="3.9" ry="3.8"/>
			
				<ellipse transform="matrix(2.124419e-06 1 -1 2.124419e-06 463.9713 -739.748)" class="st12" cx="601.9" cy="-137.9" rx="3.9" ry="4.3"/>
			
				<ellipse transform="matrix(2.124419e-06 1 -1 2.124419e-06 459.9243 -757.1091)" class="st13" cx="608.5" cy="-148.6" rx="3.5" ry="4"/>
			
				<ellipse transform="matrix(2.124420e-06 1 -1 2.124420e-06 460.9663 -743.7431)" class="st13" cx="602.4" cy="-141.4" rx="3.9" ry="3.8"/>
			
				<ellipse transform="matrix(2.124415e-06 1 -1 2.124415e-06 456.6663 -731.8431)" class="st13" cx="594.3" cy="-137.6" rx="3.9" ry="3.8"/>
			
				<ellipse transform="matrix(2.124420e-06 1 -1 2.124420e-06 457.2663 -733.8431)" class="st13" cx="595.6" cy="-138.3" rx="3.9" ry="3.8"/>
			
				<ellipse transform="matrix(2.124420e-06 1 -1 2.124420e-06 455.7663 -738.5431)" class="st13" cx="597.2" cy="-141.4" rx="3.9" ry="3.8"/>
		</g>
		<g transform="matrix(.18 0 0 .2 421 -216.8)">
			
				<ellipse transform="matrix(0.9359 -0.3523 0.3523 0.9359 -171.7763 369.7579)" class="st14" cx="930.2" cy="656.9" rx="69.7" ry="190.9"/>
			
				<ellipse transform="matrix(0.9346 -0.3557 0.3557 0.9346 -180.155 395.6199)" class="st6" cx="985.8" cy="687.7" rx="13.5" ry="40.2"/>
			<path class="st12" d="M977.1,685.6c54.8,68.1,46.5,110.4,39.7,146.1c-16.8-41.8-25.5-68-80.3-136.1
				c-54.8-68.1-25.6-114.2-21.1-138.9C923.4,578.2,922.3,617.5,977.1,685.6z"/>
			<path class="st12" d="M981,739.6c54.8,68.1,46.5,110.4,39.7,146.1c-16.8-41.8-25.5-68-80.3-136.1s-25.6-114.2-21.1-138.9
				C927.3,632.2,926.2,671.5,981,739.6z"/>
			<path class="st12" d="M985.4,782.9c56.5,66.9,49.3,109.4,43.4,145.2c-17.8-41.5-27.2-67.5-83.8-134.4
				c-56.5-66.9-28.4-113.7-24.6-138.5C928.9,676.7,928.8,716,985.4,782.9z"/>
			
				<ellipse transform="matrix(0.9287 -0.3707 0.3707 0.9287 -165.3011 394.2809)" class="st15" cx="943" cy="627.1" rx="24.4" ry="71.7"/>
			
				<ellipse transform="matrix(0.9326 -0.3608 0.3608 0.9326 -175.3537 378.4285)" class="st13" cx="925.8" cy="658.8" rx="21.5" ry="58.7"/>
			
				<ellipse transform="matrix(0.942 -0.3357 0.3357 0.942 -177.0898 337.9405)" class="st13" cx="888.9" cy="681.2" rx="21.5" ry="58.6"/>
			
				<ellipse transform="matrix(0.9081 -0.4187 0.4187 0.9081 -162.1545 437.0024)" class="st16" cx="914.6" cy="588" rx="17" ry="44.5"/>
			
				<ellipse transform="matrix(0.9329 -0.3602 0.3602 0.9329 -159.0337 364.415)" class="st16" cx="898.3" cy="609" rx="17.3" ry="44.7"/>
			<path class="st16" d="M879.5,584.7c15.6,40.1,21.4,76,12.9,80.2c-8.5,4.2-28.1-25.1-43.8-65.2"/>
			
				<ellipse transform="matrix(0.9329 -0.3602 0.3602 0.9329 -142.3575 360.7114)" class="st16" cx="896.7" cy="562.4" rx="17.3" ry="44.7"/>
			
				<ellipse transform="matrix(0.9393 -0.3432 0.3432 0.9393 -145.8922 333.4681)" class="st16" cx="869.3" cy="579" rx="17.2" ry="44.8"/>
			<path class="st17" d="M853.7,530.4c15.6,27.2,23.8,52.4,18.3,56.3c-5.6,3.9-22.7-15-38.4-42.2"/>
			<path class="st17" d="M865.3,512.9c15.6,27.2,23.8,52.4,18.3,56.3c-5.6,3.9-22.7-15-38.4-42.2"/>
			<path class="st16" d="M915.9,522.5c21.8,37.4,33.1,72,25.3,77.4s-31.8-20.8-53.5-58.2"/>
			<path class="st18" d="M882.8,496.6c15.6,29.9,23.8,57.7,18.3,62c-5.6,4.3-22.7-16.5-38.4-46.4"/>
		</g>
		<g>
			<path class="st19" d="M584-138.3c-2,2,0.1,5.5,1.9,6.8c2.1,1.7,13.9,12.8,21.8,2.6C601.2-128.7,588.8-142.8,584-138.3z"/>
			<path class="st19" d="M582.6-144.2c-2,2,0.1,5.5,1.9,6.8c2.1,1.7,13.9,12.8,21.8,2.6C599.8-134.6,587.4-148.7,582.6-144.2z"/>
			<path class="st19" d="M580.8-149.8c-2,2,0.1,5.5,1.9,6.8c2.1,1.7,13.9,12.8,21.8,2.6C598-140.2,585.6-154.3,580.8-149.8z"/>
			<path class="st19" d="M576.9-156.2c-2,2,0.1,5.5,1.9,6.8c2.1,1.7,13.9,12.8,21.8,2.6C594.1-146.6,581.7-160.7,576.9-156.2z"/>
		</g>
		<g transform="rotate(1 -589.6 681.6)">
			<path class="st19" d="M544.2-179c3.7-3,10.8-4,16.5-1.2c4.7,2.3,12.8,11.7,18.7,13.9c-3.1,0.8-6.4,0.4-9.2-1
				c-5,3.9-6.8,4.5-12,5.4c-7.2,1.2-13.4-0.7-15.6-4.6C540.2-170.2,540.9-176.1,544.2-179z"/>
			
				<ellipse transform="matrix(2.124419e-06 1 -1 2.124419e-06 380.7814 -730.058)" class="st20" cx="555.4" cy="-174.6" rx="1.9" ry="3.6"/>
			
				<ellipse transform="matrix(-0.9304 0.3666 -0.3666 -0.9304 992.582 -521.6578)" class="st21" cx="545.8" cy="-166.6" rx="5" ry="2.9"/>
			<circle class="st2" cx="549.9" cy="-168.3" r="1.2"/>
			<path class="st22" d="M551.4-172.1c0.4,1.4-0.7,3.4-3.3,4.2c-2.7,1.1-4.6,3.3-5.6,7c-4.7-8.3-2.3-11.9,2.1-12.8
				C548.3-174.8,550.6-174.8,551.4-172.1z"/>
			<circle class="st2" cx="540.3" cy="-163.9" r="0.9"/>
		</g>
	</g>
</g>
</svg>
