<?xml version="1.0" encoding="utf-8"?>
<!-- Generator: Adobe Illustrator 24.0.1, SVG Export Plug-In . SVG Version: 6.00 Build 0)  -->
<svg version="1.1" id="flag-icons-do" xmlns="http://www.w3.org/2000/svg" xmlns:xlink="http://www.w3.org/1999/xlink" x="0px"
	 y="0px" viewBox="0 0 800 480" style="enable-background:new 0 0 800 480;" xml:space="preserve">
<style type="text/css">
	.st0{fill-rule:evenodd;clip-rule:evenodd;fill:#00319C;}
	.st1{fill-rule:evenodd;clip-rule:evenodd;fill:#D62918;}
	.st2{fill-rule:evenodd;clip-rule:evenodd;fill:#FFFFFF;}
	.st3{fill:#006300;stroke:#808000;stroke-width:0.2257;}
	.st4{fill:#002D62;}
	.st5{fill:#CE1126;}
	.st6{fill:#FFFFFF;}
	.st7{fill:none;stroke:#000000;stroke-width:0.404;stroke-miterlimit:4.4637;}
	.st8{fill:#EAC102;stroke:#000000;stroke-width:0.2429;stroke-miterlimit:4.4637;}
	.st9{fill:none;stroke:#000000;stroke-width:0.2332;stroke-miterlimit:4.4637;}
	.st10{fill:none;stroke:#000000;stroke-width:0.2821;stroke-miterlimit:4.4637;}
	.st11{fill:#EAC102;stroke:#000000;stroke-width:5.695393e-02;stroke-miterlimit:4.4637;}
	.st12{fill:#CE1126;stroke:#000000;stroke-width:0.21;stroke-miterlimit:4.4637;}
	.st13{fill:#002D62;stroke:#000000;stroke-width:0.21;stroke-miterlimit:4.4637;}
	.st14{fill:#002D62;stroke:#000000;stroke-width:0.1673;stroke-miterlimit:4.4637;}
	.st15{fill:none;stroke:#000000;stroke-width:0.2002;stroke-miterlimit:4.4637;}
	.st16{fill:#FFFFFF;stroke:#000000;stroke-width:0.186;stroke-miterlimit:4.4637;}
	.st17{stroke:#000000;stroke-width:3.737602e-02;stroke-miterlimit:4.4637;}
	.st18{fill:#FFFFFF;stroke:#000000;stroke-width:0.2421;stroke-miterlimit:4.4637;}
	.st19{stroke:#000000;stroke-width:3.470630e-02;stroke-miterlimit:4.4637;}
	.st20{fill:#FFFFFF;stroke:#000000;stroke-width:0.1317;stroke-miterlimit:4.4637;}
	.st21{fill:#FFFFFF;stroke:#000000;stroke-width:9.344003e-02;stroke-miterlimit:4.4637;}
</style>
<path class="st0" d="M0,0h800v480H0V0z"/>
<path class="st1" d="M0,251.8h400V480H0V251.8z"/>
<path class="st1" d="M400,0h400v251.8H400L400,0z"/>
<path class="st2" d="M0,204.4h800v94.9H0V204.4z"/>
<path class="st2" d="M354.3,0h92.7v480h-92.7V0z"/>
<g>
	<g>
		<path class="st3" d="M362.1,238.4c0.4,0,0.8-0.4,0.8-0.8c0-0.4-0.4-0.8-0.8-0.8c-0.4,0-0.8,0.4-0.8,0.8v0
			C361.3,238,361.7,238.4,362.1,238.4z"/>
		<path class="st3" d="M360.2,270.1c0.5,0,0.9-0.4,0.9-0.9c0-0.5-0.4-0.9-0.9-0.9c-0.5,0-0.9,0.4-0.9,0.9v0
			C359.4,269.7,359.7,270.1,360.2,270.1z"/>
		<path class="st3" d="M362.4,268c0.5,0.2,0.4-0.3,0.1-0.7c0,0-0.1-0.2-1-0.8c0.4-0.1,0.6-0.4,0.6-0.8c0-0.5-0.4-0.9-0.9-0.9
			c-0.4,0-0.7,0.2-0.8,0.5c-0.2-0.2-0.5-0.5-1-0.8c0,0-0.6-0.5-3.2-0.5c0,0-1.9-0.1-1.9,0.3c0,0,0.4,1.1,2.6,3c0,0,1.7,1.1,2.6,0.7
			C359.6,268,360.6,267.4,362.4,268z"/>
		<path class="st3" d="M384.2,276.9L384.2,276.9c-0.5,0.1-1.8,2.2-1.8,2.2c-1.6-2.9-3.6-3.4-3.6-3.4c-0.4,0.2,0.1,0.9,0.1,0.9
			c0.3,0.8,0.3,1.5,0.2,2c-0.1-0.1-0.3-0.2-0.5-0.2c-0.3,0-0.6,0.3-0.6,0.6v0c0,0.1,0,0.1,0,0.2l-0.2,0l-0.1-0.6
			c0.3,0,0.6-0.3,0.6-0.6c0-0.3-0.3-0.6-0.6-0.6c-0.3,0-0.6,0.3-0.6,0.6v0c0,0.3,0.2,0.6,0.5,0.6c0,0.1,0,0.3,0.1,0.6l-0.2,0
			c-0.1-0.4-0.3-0.9-0.7-1.4c0,0-1.5-1.7-4.3-2.2l-0.1,0c0,0,0,0,0,0c-0.2,0-0.4-0.1-0.6-0.1c0,0-0.6,0-0.3,0.5c0,0,1.2,0,1.4,1.4
			c0,0-0.5-0.3-1.8-0.3c0-0.1,0-0.3,0-0.6v0c0,0-0.5-1.2,0.3-1.8c0.5-0.4,2.6,0.7,3.6-3.9c0,0-0.6-0.1-2.1,0.6v-0.4
			c0,0-0.3-1-0.2-2.3c0,0,0.7-1.1,0.7-1.5c0,0-1.3-0.5-3.9,2.9c0,0-0.2-0.7-1.9-1.8c0.6,0,1.1,0.3,1.1,0.3c2.5,0.3,3.3-2.6,3.3-2.6
			c0.6-1.2,1-1.7,1-1.7c0.1-0.7-1.1-0.1-1.1-0.1c-2.2,0.6-2.2,0.8-2.2,0.8c0-0.2,0-0.4,0.1-0.6c0.1,0,0.1,0,0.1,0
			c3-0.3,2.7-0.9,2.7-0.9c-1.7-1.5-1.2-1.4-2-2.1c-0.6-0.5-1.2-0.9-1.7-1c0.9,0.1,4.4,0.3,5.3-3.8c0,0-0.7,1-2.9,0.4
			c0,0,1.4-2.1,1.3-3.6c0,0-0.6,0.2-3.2,0.8c0,0,0.1-1.1-0.9-2.9c0,0-3.4,2.2-3.1,4.4c0,0,0.8,2.1,0,3.3c0,0,0.3,0,0.7,0.2
			c-0.2,0.1-0.6,0.4-1.2,1c-0.2-0.1-0.3-0.1-0.3-0.1c0,0,0,0,0,0c0-0.2,0.1-0.4,0.1-0.6l0.1,0.1c0-0.1-0.1-0.2-0.1-0.3
			c0.1-1-0.3-1.9-0.4-2.3c0.4-0.1,0.6-0.4,0.6-0.9c0-0.5-0.4-0.9-0.8-0.9c-0.4,0-0.8,0.4-0.8,0.9v0c0,0.5,0.4,0.9,0.8,0.9
			c0,0,0.1,0,0.1,0l0,1.7c0,0-0.1-0.1-0.1-0.1c0.1-0.1,0.1-0.2,0.1-0.3c0-0.4-0.4-0.8-0.8-0.8c-0.1,0-0.2,0-0.2,0l0.1-1.5
			c0.2-0.5,0.4-1,0.5-1.6c0,0,0.1-0.3-0.1-1.1c0.8-0.8,1.2-1.7,1.5-2.6l1.7-1.4c0.1,0.1,0.3,0.3,0.5,0.4c0,0.1,0,0.1,0,0.1
			c0.9,2.1,3.3,1.9,4.2,1.5h0c2.5-1.2,2.4-1.6,2.4-1.6c-0.2-0.2-1.4,0.1-1.8-0.2c-0.1-0.1-0.2-0.1-0.2-0.2c2.3-1.8,2.1-2.3,2.1-2.3
			c-0.3-0.2-1.7,0.4-2.1,0.1c-1.9-1.3-3.8,0-3.8,0c-2.2,1.5-1.8,1.7-1.8,1.7c0,0.1,0.1,0.1,0.1,0.2c-0.3,0-0.5,0.1-0.9,0.2
			c0.1-0.3,0.2-0.6,0.3-0.9l-0.7,1c-0.5,0.2-1,0.4-1.5,0.8l0.1-1.6c1.6-0.3,2.6-1.8,2.8-2.7c0.9-3.2,0.3-3.6,0.3-3.6
			c-0.4,0-1.1,1.3-1.6,1.4c-0.5,0-0.9,0.2-1.2,0.3l0-0.6c2,0.1,3.3-1.7,3.6-2.7l0,0c0.9-3.2,0.4-3.6,0.4-3.6c-0.4,0-1.1,1.3-1.6,1.3
			c-1,0.1-1.6,0.4-2.1,0.9l0-0.6c0,0.1,0.1,0.1,0.1,0.2l0.1-1.5c0.4-0.4,1-0.8,2-1.1c0,0,1.4,0.3,2.5-0.5c0,0,3-2.4,3.4-4.8
			c0,0-0.7,0.4-2.3,0.5l0.1-1.9c0,0-2.1,0.4-4.6,2.8c-0.3-1.1-0.6-2.2-1-3.3c0,0-3,4-2,7v0c0.8,2.3,0.9,1,1.1,2.3
			c0,0,0.1-0.1,0.2-0.3c0,0.1,0.1,0.2,0.2,0.3c-0.1,0.4-0.3,1-0.5,1.7c0,0.1-0.1,0.1-0.1,0.2c0.1-1.3-0.9-2-0.9-2l0.8,2.2
			c0,0,0,0.1,0,0.1c-0.9,2.5-0.5,2.4-0.5,2.4c-0.2,0.8-0.3,1.6-0.5,2.4c-0.1,0.2-0.2,0.4-0.2,0.4c-0.9,2.5-0.4,2.4-0.4,2.4
			c0,0,0.1,0,0.1,0c-0.1,0.6-0.2,1.2-0.2,1.9c-0.5,0.8-1.3,2.4-1.5,4c-0.2-0.6-0.5-1-0.7-1.3c0-0.4,0.1-1.2,0.3-2.3
			c0,0,0.4-0.3-0.1-2.6c0.4,0.3,0.9,0.6,1.5,0.6c0,0,0.3,0.2,0.4-2.1c0,0,0-1.9-1.8-2.7c-0.3-0.1-0.4-0.7-0.6-1.1
			c0.6,0.7,1.4,1.2,2.6,1.2c0,0,0,0,0,0c0,0.1,0.1,0.1,0.1,0.2c0-0.1,0-0.1-0.1-0.2c0,0,0,0,0-0.1l0.4,0.6c-0.2-0.3-0.3-0.5-0.4-0.6
			c0.1-0.2,0.3-0.8,0.3-2.3c0,0,0-2.2-2.1-3.2c-0.5-0.2-0.7-1.7-1-1.8c0,0-0.6,0.1-0.9,3.5c-0.1,0.6,0.1,1.6,0.6,2.4
			c-0.1,0.1-0.5,0.5-0.7,2.9l0,0c0,0,0.1,0.4,0.3,1c-0.4-0.4-0.7-0.9-0.9-1.4c0,0-0.4-0.4-0.8,1.2c0,0,0-0.4-0.7-1.4
			c0,0-1.4-0.8-1.9-2.1c0,0-0.1-1.2-0.6-0.7c0,0-2.3,4.9,1.2,7.1c0,0-1.2-0.1-1.9-0.8c0,0-0.3-0.4-0.4-0.3c0,0-0.7,1,1.5,3.9
			c0,0,1.4,1.6,3.1,1.4l0,0c0,0,1.1-0.4,2.4,0.1l0.6,1.1c-0.4-0.3-0.8-0.5-1.3-0.8c0,0-0.9-0.6-4.8,0.4c0,0,2.5,2.9,5.1,2.9h0
			c0.6,0,1-0.3,1.6-0.5c0.3,0.5,0.8,0.9,1.1,1.8c0.1,0.8,0.2,1.7,0.3,2.6c-0.8-1.1-3.1-2.5-3.1-2.5l0,0c-0.7-0.5-0.5,0.5-0.5,0.5
			c-1.5-2.5-5.3-2.7-5.3-2.7c-0.3,0-0.5-0.3-0.5-0.3c-0.6,0,0.1,1.3,0.1,1.3c1.2,3.1,2.3,3.4,2.3,3.4c-1.3,0.7-3.4-0.9-2.9,0.3
			c2,2.2,3.4,2.4,3.4,2.4c2.6,0.6,3.7,0,3.7,0c0.6,1.1,1,1.2,1,1.2c2.3,0.7,2.8,2,2.8,2c0-0.3,0-0.7,0-1c0.4,1.6,1.1,4.3,2.2,7
			c-0.1-0.1-0.2-0.2-0.2-0.2v0c-1.2-0.5-2.2-0.6-3-0.6c0.1-0.2,0.2-0.4,0.2-0.6c0-0.2-0.1-0.4-0.2-0.6l3,1.6
			c-1.8-2.3-4.1-2.2-4.1-2.2l0.6,0.3c-0.1,0-0.1,0-0.2,0c-0.5,0-0.9,0.4-0.9,0.9v0c0,0.3,0.2,0.6,0.4,0.7c-1,0.2-1.5,0.7-1.5,0.7
			c-0.1,0.2,0.2,0.3,0.2,0.3c2.2,0.3,1.5,0.2,2.4,1.4c1.6,2.2,4.4,1.7,4.4,1.7c0.6,0.1,1.1,0.8,1.1,0.8c0.2,0.2,0.3,0.5,0.5,0.7
			c-0.6-0.4-1.5-0.9-2.4-0.8c-0.8,0.1-1.1,0.3-1.6,0.2l-0.4-0.1c-0.1,0-0.1,0-0.2-0.1c-0.7-0.3-1.1-0.7-1,0.2c0,0,1.9,4.4,5.3,4
			c0.7-0.1,0.9-0.3,1.3-0.5c0.4,0.7,0.9,1.5,1.7,2.2l-1,0.8c0,0,0,0,0,0c-0.2,0.1-0.4,0.2-0.6,0.3c0,0-0.3,0.4,1.1,0.7
			c0,0,4.4,1.6,5.6-0.1c0,0,0.1-0.8,1.3-1.2c0.4,0.8,0.8,1.5,0.8,1.5c4.1-1.1,4.4-1,4.4-1c1.5-0.2,1.5-0.3,1.5-0.3
			C385.2,279.3,384.2,276.9,384.2,276.9z M378.1,279.3c0.1,0.1,0.3,0.2,0.5,0.2c0,0,0.1,0,0.1,0c-0.1,0.9,0,1.2,0.1,1.2c0,0,0,0,0,0
			c-0.3-0.1-0.5-0.3-0.7-0.4l-0.2-0.9C377.9,279.4,378,279.4,378.1,279.3z M377.7,279.4c0,0.2,0.1,0.5,0.2,0.9
			c-0.1,0-0.2-0.1-0.2-0.1c0-0.2,0-0.5-0.1-0.8C377.6,279.4,377.6,279.4,377.7,279.4z M368.8,277.2l-0.3-2c0,0,0.1,0.1,0.1,0.1
			c0,0,1,0.5,1.2,1.8C369.6,277.1,369.2,277.1,368.8,277.2z M368.6,260.1c-0.6-0.2-1-0.2-1-0.2c-0.4,0.1-0.8,0.1-1.1,0.1l-0.1-1
			C366.9,259.2,367.7,259.5,368.6,260.1z M362.9,263.1l0.3-4.3c0.1,0.1,0.2,0.1,0.3,0.1c0.3,0,0.5-0.2,0.7-0.4l0.2,0.2l0,1.4
			c-0.4,0.3-0.3,0.7-0.3,0.7v0c0.1,0,0.1,0.1,0.2,0.1c-0.5,0.6-0.9,1.5-1.4,2.6C362.9,263.3,362.9,263.2,362.9,263.1z"/>
		<polygon class="st3" points="365.5,258.7 365.5,258.7 365.5,258.7 		"/>
		<path class="st3" d="M370.8,244.8c1.9,0.1,3.6-1.9,3.6-1.9c0.9-1.4,1.4-1.8,1.4-1.8c-0.1-0.5-0.6-0.4-0.6-0.4
			c-1.2,0.3-1.2,0.3-1.2,0.3c0.9-3.3,0.4-3.4,0.4-3.4c-0.3,0-0.5,0.2-0.5,0.2c-0.5,1.5-2.6,1.4-2.6,1.4c-0.1-2.2-0.6-1.9-0.6-1.9
			c-0.3,0.6-1,0.9-1,0.9c-2.1,2.1-2.1,2.9-2.1,2.9c0.1,1.9-0.3,3.6-0.4,4.3c-0.3,0.4-0.8,1.2-1.4,2.3c0,0.1-0.1,0.1-0.1,0.2l1.5-2.3
			C368.8,244,370.8,244.8,370.8,244.8z"/>
	</g>
	<g>
		<path class="st3" d="M446.5,251.3c0.4-0.3,0.8-0.8,1.2-1.1v-0.1c-0.4,0-1.6,0.9-1.9,1.1c-1.2,0.9-2.3,1.8-3.4,2.8
			c-0.2,0.2-0.5,0.4-0.7,0.6c-1.8,1.5-3.6,3.6-5.2,6c0.7-1.5,1.8-2.8,2.7-3.8l2.7-3c0.2-0.2,0.3-0.3,0.5-0.5c1.8-2,2.7-3.5,3-5.8
			c-0.3,0.4-0.7,1-1.4,1.8c-0.2,0.3-0.4,0.4-0.6,0.7l-4.5,5.1c-0.3,0.3-0.6,0.6-0.8,0.8c0,0,0,0,0,0c0.4-1,1.3-2.5,1.7-3.2
			c0.7-1.1,1.4-2.1,2.1-3.1c0.5-0.7,2.9-3.8,3.5-4.4l0.3-0.3c0.1-0.4,0.4-0.6,0.8-0.9c0.4-0.4,0.5-0.6,1.1-0.9
			c-0.5-0.5-2.4,0.7-2.7,0.9c-2.4,1.6-4.1,3.9-5.8,6.1c0.2-1.2,1.6-4.7,2.3-5.7c0.6-0.7,1.1-1.7,1.6-2.4l1.6-2.5
			c-0.4,0-0.8,0.6-1,0.8L443,241c-0.2,0.2-0.3,0.4-0.5,0.6c-0.2,0.2-0.3,0.4-0.5,0.6c-1.5,1.9-2.6,4-3.8,6.3c0.1-1.4,1.3-3.7,2-4.8
			c0.9-1.5,1.8-2.8,2.7-4.2c-0.5-0.1-2,1.6-2.2,2c-0.6,0.8-1.3,1.6-1.8,2.5c-0.8,1.4-1.7,3-2.3,4.6c-0.2,0.4-0.3,0.7-0.5,1.1
			c0.2-1.9,1.9-5.9,2.7-7.3c0.5-0.8,1-1.5,1.5-2.2c0.2-0.3,0.4-0.5,0.6-0.7c0.4-0.5,0.7-0.9,1.1-1.4l1.1-1.5
			c-0.7-0.3-3.2,2.6-3.7,3.2c-0.3,0.3-0.5,0.7-0.7,1c-0.3,0.4-0.6,0.8-0.9,1.2c0.3-1.4,1.3-3.1,2-4.2c0.7-1,1.4-1.9,2.1-2.8
			c0.2-0.3,0.5-0.6,0.6-0.9c-0.8-0.1-4,3.6-4.6,4.5c-0.2,0.3-0.4,0.6-0.6,0.9c-0.5,0.7-1.1,1.5-1.6,2.4c0.2-1.4,0.9-4,1.4-5.2
			c0.6-1.5,1.4-2.9,2.1-4.5c-0.6-0.1-1.6,1.3-1.9,1.8l-1.3,2.4c0.1-1.1,1.9-5,2.5-6.4c-0.3,0.1-0.6,0.6-0.9,1.1
			c-0.8,1.2-1.5,2.4-2.2,3.7c0.1-1.3,0.9-2.6,1.5-3.7c-1,0.5-2.8,4.2-3.2,5.3c-0.2,0.5-0.4,1.1-0.5,1.6l-0.2,0.6
			c-0.1-2.8,0.5-5.7,0.9-8.5c-0.3,0.1-0.3,0.3-0.4,0.6l-0.3,0.7c-0.2,0.5-0.4,1-0.6,1.6l-0.8,3.4c-1.2-1.7-1.5-4.8-3.9-8.3
			c-0.8-1.1-1-1.2-2-2l0,0c-0.1,0.1-0.1,0.1,0.1,0.3c0.2,0.4,0.3,0.7,0.5,0.9c-0.1-0.1-0.2-0.2-0.2-0.2c0,0,0.2,0.5,0.6,1.1
			c0.2,0.3,0.4,0.6,0.5,0.9c0.2,0.5,0.4,1.3,1,3.1c-0.3-0.3-0.6-0.7-0.8-1.1c-0.7-0.9-1.3-2-1.9-3c-0.1-0.3-0.2-0.4-0.5-0.6
			c-0.1,0.2,0.1,0.8,0.3,1.4c0,0,0,0,0,0c-0.1,0,0.1,0.7,0.4,1.5l0,0c0.5,1.7,0.9,2.6,2.1,3.9c0.4,0.7,0.9,1.4,1.2,2
			c-0.3-0.2-0.5-0.4-0.8-0.7c-1-0.8-0.7-0.6-1.3-1.7c-0.6-1-1-2-1.4-3.1c-0.3-0.7-0.6-1.5-0.9-2.2c-0.1,0.1,0-0.1-0.1,0.2
			c-0.1,0.3,0,0.6,0.1,0.9c0.1,1.2,0.3,2.4,0.5,3.6c-0.8-0.3-0.6-0.4-1.3-1c-0.2-0.1-0.4-0.6-0.6-0.6l-0.7-0.8
			c-0.2,0.4,0.9,2.4,1.2,2.6c0.3,0.6,1.8,1.6,1.9,2c0.6,1.4,1.2,2.6,2.1,3.7l0.8,1.1l-1.8-1.9c-1.3-1.2-1.9-1.7-3.4-2.9
			c0,0.4,0.6,0.8,0.8,1.1l2.3,2.5c0.7,0.9,1.6,1.8,2.2,2.8l1.5,2.5c-0.2-0.3-0.6-0.8-0.8-1.1l-2.2-2.8c-0.8-0.9-1.7-1.6-2.7-2.4
			c-0.8-0.7-2-1.4-2-1.4c0,0.4,1.9,2.7,3.2,3.5c0.4,0.4,0.8,0.8,1.2,1.3c0.4,0.4,0.8,0.8,1.1,1.3c0.7,0.9,1.3,2,1.9,3l0.9,1.6
			c-0.7-0.3-3.9-4-4.7-4.8c-0.6-0.7-0.9-1-1.7-1.4c0.1,0.4,2.3,2.9,2.8,3.5c0.2,0.2,0.3,0.4,0.5,0.6l1,1.1c0.6,0.8,1.8,2.1,2.3,3
			l0.7,1.4c0-0.1-1.3-1.8-1.5-2c-0.3-0.4-0.5-0.7-0.8-1c-0.7-0.8-1.9-2.2-2.8-2.8l-2.2-1.3c-0.1,0.2,0.4,0.6,0.6,0.8l0.8,0.8
			c0,0,0,0,0.1,0.1c0.2,0.2,0.5,0.6,1.1,1.1c0.5,0.5,1,1,1.5,1.6c0.2,0.2,0.3,0.4,0.5,0.6c0.5,0.6,0.9,1.2,1.4,1.9
			c-0.3-0.2-0.5-0.4-0.7-0.7c-0.3-0.3-0.4-0.4-0.7-0.7c-0.4-0.4-1-0.8-1.5-1.2l-3.6-1.8c0.1,0.3,1.3,1,1.6,1.2
			c0.7,0.5,1.9,1.2,2.5,1.9c0.1,0.1,0.1,0.2,0.2,0.2c-0.4-0.3-0.1,0.1,1,1.2c0.2,0.2,0.4,0.4,0.6,0.6c0.1,0.1,0.2,0.2,0.2,0.3
			c0.4,0.6,0.8,1.1,1.2,1.7c0.4,0.7,0.7,1.2,1,1.9l1.2,4.6c-0.4-1.5-1.1-3.1-1.7-4.6c-0.4-1.1-1.3-3.8-2.8-3.3
			c-0.5,0.2-0.8,0.8-1,1.2c-0.3,0.6-0.8-0.2-1.9,2.1c-0.6,1.3-1,2.8-1.3,4.2c-0.1,0.2-0.1,0.4-0.2,0.6c0,0,0.1-0.1,0.1-0.4
			c0,0.2,0,0.3,0,0.5c0.3-0.1,0.5-0.9,0.6-1.2c0.6-1.4,1.1-2.2,1.9-3.5c0,0,0,0,0,0l-0.6,2.6c0,0,0,0.1,0,0.1c0,0,0-0.1,0-0.1
			l-0.5,2.1c0.4-0.1,0.5-0.7,0.6-1c0.5-1.2,0.9-2.4,1.3-3.6c1,0.7,1.5,3.1,1.9,5.4c0.1,0.9,0.2,2,0.3,3.3c-0.3-0.8-0.7-1.9-0.9-2.4
			l-1.6-2.7c-1,0.1-1.1,1.3-1.3,2.1c-0.3-0.4-0.6-1-1.2-0.9c-0.6,0-0.8,0.7-0.9,1.4c-0.1,0.6-0.1,1.1,0,1.7c0,0.5,0,1.2,0,2v0
			c0,0,0-0.6,0.1-1.3c0.1,0.4,0.2,1.4,0.2,1.5l0.2,0.2l0.3-3.9c0.1,0,0.2,0,0.3,0c0.6,0.7,1.5,2.9,1.4,3.8c-0.6,4-1,5.2-3.1,8.5
			c-0.4,0.6-0.8,1.2-1.2,1.7c-0.2,0.3-0.4,0.5-0.6,0.8l-0.7,0.8c1.1-1.9,1.6-2.6,2.3-4.8c0.6-1.6,1-3.3,1.2-5.1c0-0.3,0-0.6,0-0.8
			c-0.2,0.1-0.3,0.4-0.4,0.7c-1.8,5.7-2.1,5.9-5.1,11l0.6-3.3c-0.3,0-0.2,0.2-0.3,0.5c-0.1,0.2-0.2,0.4-0.2,0.6
			c-0.1,0.2-0.2,0.5-0.2,0.7c0,0,0-0.1,0-0.1c0,0-0.2,0.4-0.4,1.1c0,0.1-0.1,0.3-0.2,0.5c-0.2,0.5-0.4,1-0.7,1.5
			c0.1-0.3,0.2-0.8,0.4-1.1c0.3-1.1,0.5-2.2,0.7-3.3l0-0.7c-0.3,0-0.4,0.6-0.5,1c0,0,0,0.1,0,0.1c0,0-0.2,0.4-0.3,0.8
			c-0.3,0.8-0.7,1.6-1.1,2.3v-0.3c0.1-0.7,0.3-1.8,0.2-2.5c0,0,0.1,0.2-0.1-0.3c-0.3,0.1-0.3,0.6-0.4,0.9c-0.1,0.3-0.2,0.7-0.3,1
			c-0.7,1.9-1.6,3.2-2.6,5c-0.6,0-0.1,0,0.1,0.1c-0.1,0-0.1,0-0.1,0c0.4,0.1,0.3,0.1,0.1,0c0.8,0.2,5.6,1.1,5.6,1.1
			c2.4-0.1,4.1-0.3,6.2-0.1c0.2,0,0.4,0.1,0.6,0.1c1,0.2,1.8,0.3,1.8,0.3c0,0-0.1-0.1-0.2-0.1c0.6,0.1,1.2,0.1,1.3,0
			c-0.8-0.5-1.6-0.7-2.5-0.9l-2.6-0.7l7.5-0.2l-0.7-0.4c-1.2-0.5-4.6-0.7-5.9-0.8c2.3-0.2,4.1-0.4,6.3-0.4c1.1,0.1,2,0.1,1.9,0.1
			c0,0,0,0-0.1,0c0.6,0,1,0,0.4-0.5c-0.9-0.6-3.7-0.7-4.6-0.7l4.4-0.2c0,0,0,0,0,0c0.3,0,0.6,0,0.8,0.1c1,0.1,1.9,0.2,2,0.2
			c0.9,0.1,1.6,0.1,0.8-0.4c-1.3-0.6-4-1.2-5.4-1.4c0.8-0.5,1.5-0.9,2.3-1.3c1.3-0.6,2.7-1,4.1-1.4c0.6-0.1,1.2-0.3,1.5-0.4
			c1.8-0.3,3.1-1.2,0.6-0.8c-1.6,0.2-3.5,0.6-4.9,0.8l1.3-0.7c1.2-0.6,2.7-0.9,4-1.3c0.3-0.1,0.2,0,0.3-0.2l-0.2-0.1
			c-0.3,0-0.5,0.1-0.7,0.1c0.4-0.2,1-0.4,1.7-0.6c2.3-0.4,4-0.7,4-0.8l0,0c0.1-0.1-0.1-0.1-0.6-0.1c0.6-0.2,1.2-0.3,1.8-0.5
			c0.3-0.1,0.7-0.1,0.9-0.3l-0.2-0.1c-0.3-0.1-5.7,0.7-6.3,0.8c-0.5,0.1-1.5,0.3-2,0.3c0.6-0.3,1.3-0.5,1.9-0.8
			c1.6-0.4,2.7-0.8,2.7-0.8c0.1-0.1-0.1-0.1-0.5,0c0.3-0.1,0.5-0.2,0.8-0.3c0.3-0.1,1.6-0.3,1.7-0.6c-0.3-0.1-0.6-0.1-1.1,0
			c-1.6,0.3-3.2,0.7-4.7,1.2c-0.4,0.1-0.8,0.3-1.2,0.4c0,0,0.1-0.1,0.1-0.1c2.7-1.1,3.3-1.3,4.2-1.5c1.4-0.3,2.5-0.5,2.7-0.5
			c0.3-0.1,0.6-0.1,0.9-0.2c0.6-0.1,1.1-0.1,1.1-0.5l-3-0.2c-1,0-2,0.3-2.8,0.3l2.2-1.9c0.1-0.1,0.1-0.1,0.2-0.2
			c0.1,0,0.1-0.1,0.2-0.1c0.5-0.1,1-0.3,1.4-0.4c0.6,0,1.4,0,1.6-0.1c-0.8-0.8-1-0.4-1.7-0.8l0.9-1.1c0.2-0.3,0.4-0.5,0.6-0.9
			c0.1-0.2,0.1-0.1,0-0.3l-0.4,0.1l-2.3,1.9c-0.4,0.3-0.3,0.3-0.9,0.3c-1,0.1-2,0.4-2.9,0.6c1.1-0.9,1.8-1.4,3-2.1
			c0.5-0.3,1.1-0.6,1.7-0.9c0.4-0.2,1.6-0.6,1.7-0.9l-3.5,0.9c-0.7,0.3-2.6,1.2-3.1,1.5c1.6-1.7,4-3.7,5.8-5.2
			c0.2-0.2,0.8-0.5,0.9-0.7c-0.1-0.1-0.2-0.1-0.3-0.1c-1,0.2-3.2,1.7-3.9,2.2c-0.9,0.6-1.9,1.3-2.8,2c-0.2,0.1-0.4,0.3-0.6,0.4
			c0.5-0.6,1.1-1.1,1.7-1.7c0.2-0.2,0.4-0.4,0.6-0.5c0.2-0.2,0.3-0.3,0.5-0.5c0.4-0.3,0.7-0.6,1.1-0.9c0.8-0.6,1.5-1.3,2.2-2l1.1-1
			c0.3-0.2,1-0.7,1-1.1c-1.5,0.9-3,1.8-4.4,2.8c-0.7,0.5-1.4,1-2.1,1.5c-0.5,0.3-1.6,1.3-2,1.5c0.9-1.4,1.8-2.9,2.9-4.1
			C443.2,254.2,445,252.6,446.5,251.3z M426.5,260.7c0.1-0.3,0.3-0.7,0.5-0.9l0,0c1,2.7,1.4,3.7,2.1,6.6c-0.1,0.1-0.2,0.2-0.3,0.3
			c-0.1,0.3-0.2,0.8-0.4,1.2l-0.7-2.5c-0.3-0.9,0.1-2.8-0.2-3.1c-0.3,0.5-0.2,0.6-0.3,1.5c0,0,0,0,0-0.1c0,0,0-0.1,0-0.1
			c-0.1-1.7-0.3-1.8-0.2-0.4c-0.1-0.2-0.1-0.3-0.2-0.5C426.2,261.1,426.1,261.6,426.5,260.7z"/>
		<polygon class="st3" points="443.3,269.3 443.3,269.3 443.3,269.3 		"/>
		<polygon class="st3" points="424.1,260 424.1,260 424.1,260 		"/>
		<path class="st3" d="M425.8,259.4c0.1-0.5,0.3-0.9,0.4-1.4C425.9,258.9,425.8,259.4,425.8,259.4L425.8,259.4z"/>
	</g>
	<path class="st4" d="M445.1,222.2c-0.9-1.4-3.7-2.8-5.3-3.5l-6.4-2.4c0.6-1.1,1.1-2.1,0.5-3c-0.9-1.4-6.3-4-7.6-4.4
		c-2.3-0.6-4.7-1.1-7.1-1.5c-2.3-0.4-6.7-0.7-6.7-0.7c-0.3-0.3,0.6-2.1-0.8-3.3c-0.8-0.7-2-0.9-3.3-1c-4.9-0.5-11.6-0.3-16.6,0
		c-1.4,0.1-2.4,0.2-3.3,1c-1,0.9-1.1,1.5-1,3.3c-6.6-0.1-13.3,1.4-18.9,4.9c-2.6,1.6-3.2,2.1-1.8,4.7c-0.3,0.2-2.7,0.9-3.2,1.1
		c-2.1,0.8-4.3,1.6-6.1,2.7c-1.1,0.7-1.6,1.2-2.4,2l5.3-0.4c-0.2,0.3-0.6,0.8-0.8,1.2c-0.9,1.3-1.5,2.4-2.3,3.7c1.5-1,2.9-2,4.6-2.8
		c3.8-1.9,10.7-2,13.5-5.3c0.7-0.9,0.3-1.4-0.3-2.7c2.1-0.7,2.9-1.2,5.4-1.7c6.1-1.4,10.3,0.3,13.3-0.5c0.9-0.2,1.8-0.7,1.9-1.7
		l-0.4-3.1l9.9,0c0,1.7-1.7,4,1.4,4.8c2.8,0.7,8.4-0.9,13.3,0.5l5.4,1.7c0,0.3-0.4,0.9-0.5,1.3c-0.2,0.6-0.2,1,0.2,1.4
		c0.5,0.6,1.3,1.2,2.1,1.7c1.6,0.9,3.6,1.5,5.6,1.9c5.6,1.4,6.1,1.7,10.4,4.6c-0.3-0.8-2.3-3.8-3-4.9L445.1,222.2z"/>
	<path class="st3" d="M412.4,291.3c-0.9-0.2-1.7-0.3-2.5-0.6l-1.2-0.4l0.2-0.3l2.4-0.8c0-2.2-17.7-3.5-22.4-0.2
		c0.6,0.2,1.9,0.8,2.5,1.1c0,0,0.1,0.2,0.3,0.5l-1.4,0.5c-0.8,0.3-1.7,0.5-2.5,0.6h0l1.9,1l-1.1,2.1c0.7-0.1,3.4-1,4.4-1.4
		c0.2,0.5,0.5,0.8,0.8,1l-3.5,1.4c-1.2,0.5-0.7,1.6-0.2,1.8c0.6,0.2,2-0.4,2.4-0.6c2.1-1,4.1-2,6-3.2c0.1,0,0.2-0.1,0.4-0.2
		c0.5,0.1,1.4-0.1,1.9-0.1c0.4,0,0.7,0,0.9-0.1l6.4,3.6c0.6,0.2,1.7,1,2.3,0.5c0.2-0.2,0.6-0.5,0.5-1c-0.1-0.5-0.4-0.5-0.8-0.7
		c-0.4-0.2-2.4-1.1-3.5-1.5c0.6-0.4,0.8-1,0.8-1.2c1.1,0.4,3.6,1.2,4.3,1.3l-1.1-2.1L412.4,291.3L412.4,291.3z"/>
	<path class="st5" d="M442.5,277.7l0.6-2.9c0.2-0.8,0.6-2,0.7-2.7c-1.3,1.4-2.4,2.8-3.5,4c-0.5,0.7-1.1,1.3-1.7,2.1
		c-1.1,1.7-0.9,1.8-1.3,2.4c-3.9-2.2-5.7,3.1-8.4,6.4c-4.9-2.8-9.3-3.7-15.1-4.7c-1.3-0.1-2.5-0.3-3.5-0.4
		c-7.3-0.9-15.4-0.8-22.7,0.3c-3.8,0.5-6.1,1.2-9.4,1.9l0,0c-2.7,0.9-4.5,1.5-7,3c-1-1.5-2.3-3.7-3.3-4.9c-0.5-0.7-1.3-1.4-2.2-1.9
		c-1.5-0.7-2-0.5-2.9,0.3l-0.7-1.2c-1.3-2.3-2.7-3.4-4.1-5.2l-1.3-1.5c-0.2-0.2-0.2-0.4-0.5-0.5c0.6,1.9,1,3.6,1.3,5.6
		c-0.8-0.4-1.5-0.9-2.4-1.2c-0.6-0.2-2.2-0.6-3-0.5l1,0.9c1.6,1.4,2.7,3.4,3.4,5.5c0.7,2.3,2.4,4.8,4.1,6.5c0.4,0.4,1.4,1.3,2,1.5
		c2,0.7,1.9,0,2.6-0.4c1.5,2.6,2.5,3.8,4.2,5.8c1.9,2,4.8,2.5,7.5,1.9c1.2-0.3,1.9-0.6,2.9-1.2c3.5-2,1.8-3.6,1.4-5.2
		c1.1-0.4,5.6-1.7,7.1-2c5.6-1,16-1.2,22.6-0.2c0.6,0.1,7.3,1.9,7.9,2.3c-0.5,1.1-0.7,1.7-0.6,2.9c0.1,1.1,1.1,1.7,1.9,2.2
		c0.9,0.5,1.7,0.9,2.9,1.2c1.2,0.3,2.4,0.3,3.6,0.1c2.5-0.4,3.8-1.9,4.9-3.2c1.8-2,2.3-3.3,3.2-4.7c0,0,0.5,0.5,0.9,0.6
		c0.3,0.1,1.5-0.1,1.7-0.2c0.9-0.3,1.4-1,2-1.5c1.8-1.8,3.4-4.1,4.1-6.6c0.9-2.9,2.1-4.3,4.3-6.3C445,276,444.1,276.8,442.5,277.7z"
		/>
	<path class="st6" d="M378.2,227.7c0.1,0.4,0,32.7,0,36.1c0,3.2,0,5.2,1.6,7.3c1.3,1.8,3.4,3.2,5.4,3.7c1.5,0.3,6.8,0.2,8.6,0.2
		c4.1-0.2,4.6,0.7,6.2,2.8c1.8-2.9,3.7-2.9,7.4-2.8c1.9,0,5.8,0.1,7.5-0.2c2-0.5,3.5-1.4,4.8-3c2.1-2.4,2-5.4,2-8.5V229
		c0-1.5-0.2-1.2,0.6-2l5.1-5.4l-54.9,0L378.2,227.7L378.2,227.7z"/>
	<path class="st4" d="M395.3,243.7v-22h-22.7l5.6,6l0.1,16.1H395.3z"/>
	<path class="st5" d="M404.4,243.7v-22h23.1l-5.9,6.3v15.7H404.4z M395.3,252.8h-17.2l-0.1,13.9c0.8,6.1,5.3,8.1,9.3,8.1
		c2.7,0,3.6,0,7.9,0V252.8z"/>
	<path class="st4" d="M404.4,252.8h17.3l-0.1,13.9c-0.4,6-5.3,8.1-9.3,8.1l-7.9,0L404.4,252.8z"/>
	<path class="st7" d="M378.2,227.7c0.1,0.4,0,32.7,0,36.1c0,3.2,0,5.2,1.6,7.4c1.3,1.8,3.1,3.2,5.4,3.5c1.5,0.3,6.8,0.2,8.6,0.2
		c2.4,0,3.5-0.1,5.1,1.5c0.5,0.5,0.6,0.7,1,1.3c0.8-1,1.7-2,2.7-2.4c1.2-0.5,3.3-0.3,4.8-0.3c1.9,0,5.8,0.1,7.5-0.2
		c2-0.5,3.7-1.7,4.8-3c2.1-2.4,2-5.4,2-8.5V229c0-1.5-0.2-1.2,0.6-2l5.1-5.4l-54.9,0L378.2,227.7L378.2,227.7z"/>
	<path class="st8" d="M399,227.1v2.5h-2.5v2.1h2.5v8.8h2v-8.8h2.5v-2.1H401v-2.5H399z"/>
	<g id="b">
		<path class="st6" d="M384.7,230.3l0,4l-1.7-1.7l0.2,28.4c0,4.2,3.1,7.7,6.8,7.7c3.7,0,6.8-3.4,6.8-7.6l-0.3-14.6l-1.8-1.9l0-1.5
			L384.7,230.3z"/>
		<path class="st4" d="M384.7,230.5l0,4.1l-1.7-1.7l0.1,16.2l7.3,7l0.1-15.5l-0.3-0.3v-2.6L384.7,230.5z"/>
		<path class="st5" d="M392.6,240.5l2.2,2.7l0,0.9l-2.2-2.2L392.6,240.5z M396.7,246.7l0.2,10.2c-1,2-3.2,0.9-3.2,0.9l0.1-14.1
			L396.7,246.7z"/>
		<path class="st4" d="M396.9,262c-2.8,2.1-3.6-1-3.6-1c2.1-0.2,3.1-1.4,3.5-2.7L396.9,262z"/>
		<path class="st5" d="M383.2,253.2c3.8,4.3,7.1,6.7,7.1,6.7c0.9,6.8,4.9,4.6,6.3,3.5c-0.8,3.2-3.4,5.5-6.5,5.5
			c-3.8,0-6.8-3.4-6.8-7.7L383.2,253.2z"/>
		<path class="st9" d="M394.8,244.2l0-1l-10.1-12.8l0,3.5L394.8,244.2z"/>
		<path class="st10" d="M383,232.6l0.3,28.4c0,4.2,3.1,7.7,6.8,7.7c3.7,0,6.8-3.4,6.8-7.6l-0.3-14.6L383,232.6z"/>
		<g>
			<path class="st11" d="M388.5,227.8c-0.7-1.3-0.6-1.9-0.1-2.4l-2.6-2.7l0.7,3.7C387.3,226.3,387.8,226.5,388.5,227.8z
				 M385.8,222.8l2.7,5"/>
			<path class="st11" d="M399.1,245.2l-0.7,0.3l-10.6-18.2l0.6-0.4L399.1,245.2z"/>
			<path class="st11" d="M387.5,227.2c-0.1-0.2,0.1-0.5,0.4-0.6c0.3-0.2,0.7-0.2,0.7,0c0.1,0.2-0.1,0.5-0.4,0.6
				C387.9,227.4,387.6,227.4,387.5,227.2L387.5,227.2z M384,228.7c-0.8-1.2-0.8-1.8-0.4-2.3l-2.9-2.3l1.2,3.6
				C382.6,227.4,383.1,227.5,384,228.7z M380.7,224.1l3.3,4.6"/>
			<path class="st11" d="M396.6,244.5l-0.6,0.3l-12.8-16.6l0.6-0.4L396.6,244.5z"/>
			<path class="st11" d="M382.8,228.3c-0.1-0.2,0-0.5,0.3-0.7c0.3-0.2,0.6-0.3,0.7-0.1c0.1,0.2,0,0.5-0.3,0.7
				C383.3,228.4,382.9,228.4,382.8,228.3z M383.2,232.4c-1-1.1-1-1.7-0.6-2.3l-3.2-2l1.6,3.5C381.7,231.2,382.2,231.3,383.2,232.4z
				 M379.4,228.2l3.8,4.2"/>
			<path class="st11" d="M397,247.1l-14.6-15l0.5-0.5l14.6,15.1L397,247.1z"/>
			<path class="st11" d="M382,232.1c-0.1-0.1,0-0.5,0.3-0.7c0.3-0.3,0.6-0.3,0.7-0.2s0,0.5-0.3,0.7
				C382.5,232.1,382.2,232.2,382,232.1z"/>
		</g>
	</g>
	<g transform="matrix(-1,0,0,1,998.257,0)">
		<g id="b_1_">
			<path class="st6" d="M415.4,230.3l0,4l1.7-1.7l-0.2,28.4c0,4.2-3.1,7.7-6.8,7.7c-3.7,0-6.8-3.4-6.8-7.6l0.3-14.6l1.8-1.9l0-1.5
				L415.4,230.3z"/>
			<path class="st4" d="M415.4,230.5l0,4.1l1.7-1.7l-0.1,16.2l-7.3,7l-0.1-15.5l0.3-0.3v-2.6L415.4,230.5z"/>
			<path class="st5" d="M407.5,240.5l-2.2,2.7l0,0.9l2.2-2.2L407.5,240.5z M403.5,246.7l-0.2,10.2c1,2,3.2,0.9,3.2,0.9l-0.1-14.1
				L403.5,246.7z"/>
			<path class="st4" d="M403.3,262c2.8,2.1,3.6-1,3.6-1c-2.1-0.2-3.1-1.4-3.5-2.7L403.3,262z"/>
			<path class="st5" d="M416.9,253.2c-3.8,4.3-7.1,6.7-7.1,6.7c-0.9,6.8-4.9,4.6-6.3,3.5c0.8,3.2,3.4,5.5,6.5,5.5
				c3.8,0,6.8-3.4,6.8-7.7L416.9,253.2z"/>
			<path class="st9" d="M405.3,244.2l0-1l10.1-12.8l0,3.5L405.3,244.2z"/>
			<path class="st10" d="M417.1,232.6l-0.3,28.4c0,4.2-3.1,7.7-6.8,7.7c-3.7,0-6.8-3.4-6.8-7.6l0.3-14.6L417.1,232.6z"/>
			<g>
				<path class="st11" d="M411.6,227.8c0.7-1.3,0.6-1.9,0.1-2.4l2.6-2.7l-0.7,3.7C412.8,226.3,412.3,226.5,411.6,227.8z
					 M414.3,222.8l-2.7,5"/>
				<path class="st11" d="M401,245.2l0.7,0.3l10.6-18.2l-0.6-0.4L401,245.2z"/>
				<path class="st11" d="M412.7,227.2c0.1-0.2-0.1-0.5-0.4-0.6c-0.3-0.2-0.7-0.2-0.7,0c-0.1,0.2,0.1,0.5,0.4,0.6
					C412.2,227.4,412.6,227.4,412.7,227.2L412.7,227.2z M416.2,228.7c0.8-1.2,0.8-1.8,0.4-2.3l2.9-2.3l-1.2,3.6
					C417.6,227.4,417,227.5,416.2,228.7z M419.5,224.1l-3.3,4.6"/>
				<path class="st11" d="M403.5,244.5l0.6,0.3l12.8-16.6l-0.6-0.4L403.5,244.5z"/>
				<path class="st11" d="M417.3,228.3c0.1-0.2,0-0.5-0.3-0.7c-0.3-0.2-0.6-0.3-0.7-0.1c-0.1,0.2,0,0.5,0.3,0.7
					C416.9,228.4,417.2,228.4,417.3,228.3z M416.9,232.4c1-1.1,1-1.7,0.6-2.3l3.2-2l-1.6,3.5C418.5,231.2,417.9,231.3,416.9,232.4z
					 M420.7,228.2l-3.8,4.2"/>
				<path class="st11" d="M403.2,247.1l14.6-15l-0.5-0.5l-14.6,15.1L403.2,247.1z"/>
				<path class="st11" d="M418.1,232.1c0.1-0.1,0-0.5-0.3-0.7c-0.3-0.3-0.6-0.3-0.7-0.2c-0.1,0.1,0,0.5,0.3,0.7
					S418,232.2,418.1,232.1z"/>
			</g>
		</g>
	</g>
	<g>
		<path class="st12" d="M397.9,257.5l-0.6,9c-0.6-0.1-1.7-0.1-1.8-0.9c0-0.4,1.1-7.8,1.2-8.5C397.2,257.2,397.6,257.4,397.9,257.5
			L397.9,257.5z"/>
		<path class="st13" d="M397.1,257.1c-0.1,0.4-0.3,2.5-0.2,2.8c0.2,0.9,1.2,0.7,1.8,0.8l0.1-4.6C398.6,256.2,397.3,257,397.1,257.1z
			"/>
		<path class="st13" d="M397.2,268.6c1.5-1.9,4.3-0.5,4.3-0.5c3,0.7,2.3-2.8,2.3-2.8c-0.6-6.9-1.4-11.7-1.4-11.7l-4.4,3L397.2,268.6
			z"/>
		<path class="st14" d="M397.2,268.7c-0.3,2.1,1.7,1.8,1.7,1.8c2.5,0,1.8-2.6,1.8-2.6C398,267.1,397.2,268.7,397.2,268.7z"/>
		<path class="st12" d="M398.9,255.9c-0.2,7.2-0.2,7.9-0.2,7.9c0.1,2,2.3,0.9,2.3,0.9c0.5-0.2,1.1-0.1,1.1-0.1l-0.1-2.4
			c3.6-0.3,2.7-2.3,2.7-2.3c-1.5-6.8-1.6-6.5-1.6-6.5L398.9,255.9z"/>
		<path class="st15" d="M402,262.1c-2.3,0-3.2,0.9-3.2,0.9l-0.1,0.2"/>
		<path class="st16" d="M401.7,268.1l-0.8-13.5l1.6-1l1.3,12.7v0.1C403.9,268.6,401.7,268.1,401.7,268.1z"/>
	</g>
	<path class="st17" d="M390.4,246.5l6,11.1l13-8.6l-6.8-10L390.4,246.5z"/>
	<path class="st18" d="M390.6,246.4l12.2-7.1l6.7,9.6l-12.9,8.3L390.6,246.4z"/>
	<path class="st19" d="M396.8,256.6l12.2-7.8l-0.9-1.5l-6.1-8.3l-4.4,3.6l-5.6,3.1l-1-0.6l0.2,1.3L396.8,256.6z"/>
	<path class="st20" d="M397.4,242.5c-1.8-0.9-3.9,1.8-4.5,2.4c-0.6,0.5-1.8,0.2-1.8,0.2l5.5,9.9c1.6,0.6,2.7-1.4,3.4-2.1
		c1.4-1.2,3-1.1,3-1.1L397.4,242.5z"/>
	<path class="st20" d="M397.6,242.6c0-2.1,2.6-2.8,3.3-3.2c0.7-0.4,0.9-1.7,0.9-1.7l6.2,9.4c-0.1,1.9-2.3,2-3.2,2.5
		c-1.6,0.9-1.8,2.2-1.8,2.2L397.6,242.6z"/>
	<path class="st21" d="M396.4,255c-3.5-6.4-5.5-9.8-5.5-9.8c-0.1,1.2,0,1.1,0,1.1c4.1,6.6,5.8,10.2,5.8,10.2
		C396.6,256,396.5,255.5,396.4,255z"/>
</g>
</svg>
