<?xml version="1.0" encoding="utf-8"?>
<!-- Generator: Adobe Illustrator 24.0.1, SVG Export Plug-In . SVG Version: 6.00 Build 0)  -->
<svg version="1.1" id="flag-icons-dz" xmlns="http://www.w3.org/2000/svg" xmlns:xlink="http://www.w3.org/1999/xlink" x="0px"
	 y="0px" viewBox="0 0 800 480" style="enable-background:new 0 0 800 480;" xml:space="preserve">
<style type="text/css">
	.st0{fill:#FFFFFF;}
	.st1{fill:#006233;}
	.st2{fill:#D21034;}
</style>
<path class="st0" d="M400,0h400v480H400V0z"/>
<path class="st1" d="M0,0h400v480H0V0z"/>
<g>
	<polygon class="st2" points="441.5,261.7 467.2,296.8 467.2,253.3 508,240 467.2,226.7 467.2,183.2 441.5,218.3 400,204.8 
		425.7,240 400,275.2 	"/>
	<path class="st2" d="M369.1,314.9c-41.4-33.1-48.1-93.6-14.9-134.9s93.6-48.1,134.9-14.9c5.5,4.4,10.5,9.4,14.9,14.9
		c-33.1-57.4-106.5-77.1-163.9-43.9S263,242.6,296.2,300c33.1,57.4,106.5,77.1,163.9,43.9c18.2-10.5,33.4-25.7,43.9-43.9
		C470.9,341.4,410.4,348.1,369.1,314.9z"/>
</g>
</svg>
