<?xml version="1.0" encoding="utf-8"?>
<!-- Generator: Adobe Illustrator 24.0.1, SVG Export Plug-In . SVG Version: 6.00 Build 0)  -->
<svg version="1.1" id="flag-icons-ec" xmlns="http://www.w3.org/2000/svg" xmlns:xlink="http://www.w3.org/1999/xlink" x="0px"
	 y="0px" viewBox="0 0 800 480" style="enable-background:new 0 0 800 480;" xml:space="preserve">
<style type="text/css">
	.st0{fill-rule:evenodd;clip-rule:evenodd;fill:#FFE800;}
	.st1{fill-rule:evenodd;clip-rule:evenodd;fill:#00148E;}
	.st2{fill-rule:evenodd;clip-rule:evenodd;fill:#DA0010;}
	.st3{fill-rule:evenodd;clip-rule:evenodd;}
	.st4{fill-rule:evenodd;clip-rule:evenodd;fill:#808080;stroke:#000000;stroke-width:4.1;}
	.st5{fill-rule:evenodd;clip-rule:evenodd;fill:#FFDF00;stroke:#000000;}
	.st6{fill-rule:evenodd;clip-rule:evenodd;fill:#0000C4;stroke:#000000;}
	.st7{fill-rule:evenodd;clip-rule:evenodd;fill:#E10000;stroke:#000000;}
	.st8{fill:none;stroke:#000000;stroke-width:2.3;}
	.st9{fill-rule:evenodd;clip-rule:evenodd;fill:#005B00;stroke:#000000;}
	.st10{fill-rule:evenodd;clip-rule:evenodd;fill:#FF0000;stroke:#000000;}
	.st11{fill-rule:evenodd;clip-rule:evenodd;fill:#005B00;stroke:#000000;stroke-width:0.14;stroke-miterlimit:10;}
	.st12{fill:none;stroke:#000000;stroke-width:2.4;}
	.st13{fill-rule:evenodd;clip-rule:evenodd;fill:#FF0000;stroke:#000000;stroke-width:0.3;}
	.st14{fill-rule:evenodd;clip-rule:evenodd;fill:#CECECC;stroke:#000000;}
	.st15{fill-rule:evenodd;clip-rule:evenodd;fill:#E10000;stroke:#000000;stroke-width:0.7;}
	.st16{fill-rule:evenodd;clip-rule:evenodd;fill:#908F8A;stroke:#000000;stroke-width:4.5;}
	.st17{fill-rule:evenodd;clip-rule:evenodd;fill:#B74D00;stroke:#000000;stroke-width:1.8;}
	.st18{fill-rule:evenodd;clip-rule:evenodd;fill:#908F8A;stroke:#000000;stroke-width:3.3;}
	.st19{fill-rule:evenodd;clip-rule:evenodd;fill:#908F8A;stroke:#000000;stroke-width:3.1;}
	.st20{fill-rule:evenodd;clip-rule:evenodd;fill:#A7CFFF;}
	.st21{fill-rule:evenodd;clip-rule:evenodd;fill:#AFFF7B;stroke:#000000;}
	.st22{fill-rule:evenodd;clip-rule:evenodd;fill:#FFFFFF;stroke:#000000;}
	.st23{fill-rule:evenodd;clip-rule:evenodd;stroke:#000000;}
	.st24{fill-rule:evenodd;clip-rule:evenodd;fill:#B74D00;stroke:#000000;}
	.st25{fill-rule:evenodd;clip-rule:evenodd;fill:#FEDE00;stroke:#FEDE00;}
	.st26{fill-rule:evenodd;clip-rule:evenodd;fill:#38A9F9;}
	.st27{fill:none;stroke:#000000;}
	.st28{fill-rule:evenodd;clip-rule:evenodd;fill:#B7E1FF;}
	.st29{fill-rule:evenodd;clip-rule:evenodd;fill:#984000;}
	.st30{fill-rule:evenodd;clip-rule:evenodd;fill:#808080;stroke:#772600;stroke-width:3.7;}
	.st31{fill-rule:evenodd;clip-rule:evenodd;fill:#984000;stroke:#772600;stroke-width:5.3;}
	.st32{fill:none;stroke:#772600;stroke-width:3.5;}
	.st33{fill:none;stroke:#782600;stroke-width:3.1;}
	.st34{fill-rule:evenodd;clip-rule:evenodd;fill:#812E00;}
</style>
<g>
	<path class="st0" d="M0,0h800v480H0V0z"/>
	<path class="st1" d="M0,240h800v240H0V240z"/>
	<path class="st2" d="M0,360h800v120H0V360z"/>
</g>
<g>
	<path class="st3" d="M349.6,290.8L277,367.3l-1.2-1.6l72.4-76.5l1.2,1.6H349.6z M400,303.3l-94.8,100l-1.6-1.6l94.7-100L400,303.3z
		"/>
	<path class="st4" d="M305.5,402.1l-8.9,8.9l-10.1,7.6l7.6-10.1l8.9-8.9L305.5,402.1z"/>
	<path class="st4" d="M281.1,363l-8.9,8.9l-10.1,7.6l7.6-10.1l8.9-8.9L281.1,363z"/>
</g>
<path class="st5" d="M287.9,114.8c0,0-8,215.4,23.9,215.4s47.8-22.7,47.8-22.7l-0.4-118.4L287.9,114.8z"/>
<path class="st6" d="M307.4,134.9c0,11.3-3.6,172.7,12.4,172.7s39.9-11.3,39.9-11.3l-0.4-107.1L307.4,134.9z"/>
<path class="st7" d="M317.8,145.8c0,11.3,2,139.1,18,139.1h23.9l-0.4-95.7L317.8,145.8L317.8,145.8z"/>
<path class="st3" d="M286.2,116l72.4,76.5l1.3-1.6l-72.4-76.5C287.5,114.4,286.2,116,286.2,116z"/>
<path class="st5" d="M264.3,158.9c0,0-20.5,208.7,41.1,208.7c51.3,0,51.3-32.9,61.6-32.9l-10.3-76.9L264.3,158.9L264.3,158.9z"/>
<g>
	<path class="st8" d="M315.2,193.6c0.4,0,16-33.7,55-55.1"/>
	<path class="st9" d="M308.8,161.8c5.4,2.5,8.9,5.4,12,8.8c-6.2-1.3-9.4-1.8-14.9-4.4c-5.4-2.5-9.6-6.4-12.9-9.5
		C297.1,158,303.3,159.3,308.8,161.8z"/>
	<path class="st10" d="M322.4,182.5c0.4,0.7,0.1,1.6-0.8,2.1s-1.9,0.3-2.3-0.4c-0.4-0.7,0-1.6,0.8-2.1S322,181.8,322.4,182.5z"/>
	<path class="st9" d="M339.5,140.3c-2.4,6-4.9,9.9-7.9,13.6c1.3-6.6,1.9-10.1,4.3-16c2.4-6,5.8-10.8,8.6-14.6
		C343.2,127.6,341.9,134.3,339.5,140.3z"/>
	<path class="st9" d="M331.5,140c-0.5,6-1.7,10.6-3.3,15.3c-0.4-5.8-0.7-8.7-0.2-14.7c0.5-6,2.2-11.8,3.6-16.4
		C331.7,128.2,332.1,134,331.5,140z"/>
	<path class="st9" d="M336.7,146.8c-3.1,3.6-5.7,5.2-8.4,6.2c2.7-5,4.1-7.7,7.2-11.3c3.1-3.6,6.4-5.3,9-6.6
		C342.6,138.1,339.8,143.1,336.7,146.8z"/>
	<path class="st9" d="M310.5,151.8c3.6,4.3,5.4,8.5,6.8,13.2c-4.7-3.2-7.2-4.7-10.9-9.1s-5.7-9.8-7.3-14.2
		C302.1,144.3,306.9,147.5,310.5,151.8z"/>
	<path class="st9" d="M303.2,185.3c4.5,3.6,6.9,7.4,8.8,11.6c-5.8-2.4-8.8-3.5-13.3-7.1c-4.5-3.6-7.3-8.5-9.4-12.5
		C292.9,179.3,298.7,181.7,303.2,185.3z"/>
	<path class="st9" d="M324.4,183.3c-3.6,5.8-7.5,9.7-12,13.4c2.2-6.4,3.1-9.6,6.7-15.4c3.6-5.8,8.8-10.6,13-14.3
		C330.2,171.2,328.1,177.5,324.4,183.3z"/>
	<path class="st9" d="M328.2,183.1c-5.8,4-10.8,6.1-16.2,7.7c5-5.1,7.4-7.8,13.1-11.8s12.3-6.4,17.4-8.2
		C339,174,334,179.1,328.2,183.1z"/>
	<path class="st9" d="M367.3,141.5c-2.5,2.9-4.8,4.6-7.3,6.1c2.1-3.5,3.1-5.3,5.6-8.1c2.5-2.9,5.5-4.9,7.8-6.6
		C371.9,135.1,369.8,138.6,367.3,141.5z"/>
	<path class="st9" d="M361.8,132.9c-1.4,3.1-3,5.4-4.8,7.7c0.9-3.1,1.3-4.6,2.7-7.7s3.5-6,5.1-8.3
		C364.1,126.8,363.2,129.9,361.8,132.9z"/>
	<path class="st11" d="M370.2,138.5c-2.5,1.4-4.4,1.9-6.3,2c2.5-2.2,3.8-3.4,6.3-4.9s4.9-1.9,6.8-2.2
		C375.3,134.8,372.8,137,370.2,138.5z"/>
	<path class="st9" d="M335.3,154.7c-4.5,2.7-8.2,4.3-12.1,5.7c4.1-3.3,6.2-5,10.7-7.7c4.5-2.7,9.3-4.6,13-6.1
		C343.9,148.7,339.8,152,335.3,154.7z"/>
	<path class="st9" d="M348.5,158.7c-6,3.6-11.1,5.3-16.4,6.6c5.2-4.9,7.8-7.4,13.8-11c6-3.6,12.5-5.5,17.7-7
		C359.7,150.2,354.5,155.1,348.5,158.7z"/>
	<path class="st12" d="M307.9,217.3c0.4-0.2-3.3-32,21-65"/>
	<path class="st10" d="M345.1,150.4c0.4,0.7,0.1,1.6-0.8,2.1s-1.9,0.3-2.3-0.4c-0.4-0.7,0-1.6,0.8-2.1
		C343.7,149.5,344.7,149.7,345.1,150.4z"/>
	<path class="st10" d="M355.9,144.1c0.4,0.7,0.1,1.6-0.8,2.1s-1.9,0.3-2.3-0.4c-0.4-0.7,0-1.6,0.8-2.1S355.5,143.4,355.9,144.1z"/>
	<path class="st10" d="M325.8,165.3c0.3,0.5-0.2,1.3-1.2,1.8s-1.9,0.4-2.2-0.1c-0.3-0.5,0.2-1.3,1.2-1.8S325.5,164.8,325.8,165.3z"
		/>
	<path class="st10" d="M329,163.9c0.3,0.5-0.2,1.3-1.2,1.8s-1.9,0.4-2.2-0.1c-0.3-0.5,0.2-1.3,1.2-1.8S328.7,163.4,329,163.9z"/>
	<path class="st10" d="M327.1,166.9c0.3,0.5-0.2,1.3-1.2,1.8s-1.9,0.4-2.2-0.1c-0.3-0.5,0.2-1.3,1.2-1.8S326.8,166.4,327.1,166.9z"
		/>
	<path class="st13" d="M332.7,167.3c0.4,0.8,0,1.8-1,2.3s-2,0.2-2.4-0.7c-0.4-0.9,0-1.8,1-2.3s2-0.2,2.3,0.7H332.7z"/>
	<path class="st13" d="M335,164.9c0.3,0.8,0,1.8-1,2.3s-2,0.2-2.5-0.6s0-1.9,1-2.4s2-0.1,2.4,0.7H335z"/>
	<path class="st13" d="M335.5,166c0.4,0.8,0,1.9-1,2.3s-2,0.2-2.4-0.6s0-1.8,1-2.3S335.1,165.2,335.5,166z"/>
</g>
<path class="st6" d="M284.8,180.9c0,11-20.5,131.8,30.9,164.7c20.5,11,51.3-11,51.3,0l-10.3-87.9L284.8,180.9z"/>
<path class="st7" d="M305.4,202.9c0,11-10.3,98.8,20.6,120.8c20.5,21.9,71.9,16,71.9,16l-41.1-81.9L305.4,202.9L305.4,202.9z"/>
<path class="st3" d="M263.8,158l94.8,100l1.7-1.6l-94.8-99.9l-1.6,1.6L263.8,158z"/>
<path class="st14" d="M249.2,146.1l6,1.1l1.8,1.8c-0.2,0,1.8,1.8-0.7,4.2c-2.5,2.5-6-1.1-6-1.1s1.1,6,4.6,9.6
	c3.5,3.6,7.8,2.8,7.8,2.8s-4-3.3-1.1-6c3-2.7,4.2-0.7,4.2-0.7l3.5,3.5l2.5-2.5l-14.2-14.2l-1.1-6l-9.1-1.5L249.2,146.1L249.2,146.1z
	"/>
<path class="st14" d="M263.2,104.1l7.3,11.3l9.2,2.5l-6,3.9l11-0.4l5,3.6l1.8-2.8l-5-3.6l-3.9-11l-1.1,7.5l-5.7-8.2L263.2,104.1
	L263.2,104.1z"/>
<path class="st7" d="M292.8,110.9c0,0.6-0.8,1.1-1.7,1.1c-0.9,0-1.8-0.5-1.8-1.1c0-0.6,0.8-1.1,1.8-1.1
	C292,109.8,292.8,110.3,292.8,110.9z M290.3,113.3c0,10.7,8.4,56.3,9,57.5c0,1.3-1.9,1.9-2.8,0.3c-2.6-5.2-8.3-48-8.5-58
	c-0.1-4.1,1.5-4.4,3.3-4.3c1.5,0.1,3.3,1.1,3.3,2.4C294.6,112.5,292.3,113.6,290.3,113.3z"/>
<path class="st6" d="M296,121.5c-0.3,0.6-1.3,0.9-2.2,0.7c-0.9-0.2-1.4-0.9-1.1-1.5c0.3-0.6,1.3-0.9,2.2-0.7S296.3,120.9,296,121.5z
	 M292.5,123.3c2.8,21.6-6.5,54.9-6.4,56.2c-0.6,1.3-2.8,1.4-2.8-0.5c-0.5-1.2,10.2-31.3,7.2-56.6c1.9-4.1,3.6-4.1,5.3-3.5
	c1.4,0.4,2.6,1.9,2,3.2C296.9,123.6,294.2,124.2,292.5,123.3z"/>
<path class="st15" d="M266.7,151.5c0,1-1,2-2.2,2s-2.2-1-2.2-2s1-1.8,2.2-1.8s2.1,0.8,2.1,1.8H266.7z M263.5,155.5
	c0,17.9,10.5,93.9,11.3,95.8c0,2.2-2.3,3.2-3.5,0.4c-3.3-8.7-10.4-80-10.7-96.6c-0.1-6.9,1.9-7.4,4.2-7.3c1.9,0.1,4.1,1.9,4.1,4
	C268.9,154.2,266,156.1,263.5,155.5L263.5,155.5z"/>
<path class="st6" d="M272.1,160.7c-0.4,1-1.7,1.5-2.8,1.1c-1.1-0.3-1.8-1.5-1.4-2.4c0.4-1,1.7-1.5,2.9-1.2
	C271.9,158.6,272.5,159.7,272.1,160.7z M267.5,163.6c2.8,34.2-10,87.3-9.9,89.4c-0.8,2.1-3.6,2.4-3.6-0.7c-0.5-2,13.9-50,10.9-90
	c2.6-6.6,4.7-6.5,6.9-5.7c1.7,0.7,3.2,3,2.4,5C273.2,164,269.7,164.9,267.5,163.6L267.5,163.6z"/>
<g>
	<path class="st3" d="M450.4,290.8l72.5,76.5l1.3-1.6l-72.5-76.5L450.4,290.8z M400,303.3l94.8,100l1.6-1.6l-94.7-100L400,303.3z"/>
	<path class="st4" d="M494.5,402.1l8.9,8.9l10.1,7.6l-7.6-10.1l-8.9-8.9L494.5,402.1z"/>
	<path class="st4" d="M518.9,363l8.9,8.9l10.1,7.6l-7.6-10.1l-8.9-8.9L518.9,363z"/>
</g>
<g>
	<path class="st5" d="M512.1,114.8c0,0,8,215.4-23.9,215.4s-47.8-22.7-47.8-22.7l0.4-118.4L512.1,114.8z"/>
	<path class="st6" d="M492.6,134.9c0,11.3,3.6,172.7-12.4,172.7s-39.9-11.3-39.9-11.3l0.4-107.1L492.6,134.9z"/>
	<path class="st7" d="M482.2,145.8c0,11.3-2,139.1-18,139.1h-23.9l0.4-95.7L482.2,145.8L482.2,145.8z"/>
	<path class="st3" d="M513.8,116l-72.4,76.5l-1.3-1.6l72.4-76.5C512.5,114.4,513.8,116,513.8,116z"/>
	<g>
		<path class="st9" d="M456.7,175.1c0,0,20.3,26,30.1,46.2c9.8,20.2,21.2,50.9,21.2,50.9s-6.5-30.3-18.8-54.5
			C473,187.1,456.6,176.8,456.7,175.1z"/>
		<path class="st9" d="M456,154.4c0,0,22.6,32.2,33,56.1c10.3,23.9,21.8,59.8,21.8,59.8s-5.6-34.5-18.7-63.4
			C474.8,170.5,455.8,156.3,456,154.4z"/>
		<path class="st9" d="M475.5,122.5c0,0,16,47.7,20.9,77.2c4.9,29.5,7.8,70.1,7.8,70.1s3.1-34.1-3.5-70.3
			C491.7,153.2,474.8,124,475.5,122.5z"/>
		<path class="st9" d="M461.1,120.4c0,0,22.2,42.4,30.8,71.1c8.6,28.8,16.7,70.4,16.7,70.4s-1.2-37.8-12.3-72.8
			C481.4,144.6,460.6,122.3,461.1,120.4z"/>
		<path class="st9" d="M487.8,133.8c0,0,11,45.6,13.8,72.8c2.8,27.2,3.5,64,3.5,64s3.8-29.7,0-63.2
			C499.6,164.4,487.2,135,487.8,133.8z"/>
		<path class="st9" d="M458.6,135.1c0,0,21.5,36.3,30.2,61.6c8.7,25.4,17.2,62.5,17.2,62.5s-2.1-34.4-13.2-65.2
			C477.8,155,458.2,136.9,458.6,135.1z"/>
		<path class="st9" d="M454.6,160.4c0,0,22.6,28.8,33,50.8c10.3,22.1,21.8,55.6,21.8,55.6s-5.6-32.8-18.7-59.4
			C473.4,173.9,454.4,162.2,454.6,160.4z"/>
		<path class="st9" d="M457.5,147.2c0,0,20.8,33.8,29.9,58.3c9.1,24.5,18.7,60.9,18.7,60.9s-3.9-34.5-15.4-64.1
			C475.4,164.8,457.3,149,457.5,147.2z"/>
		<path class="st9" d="M480.1,123.3c0,0,13.4,46.7,16.7,75.2c3.3,28.5,4.2,67.6,4.2,67.6s4.8-32.4,0.2-67.4
			C494.5,153.7,479.3,124.6,480.1,123.3z"/>
		<path class="st9" d="M461.7,111.6c0,0,19.6,44,26.6,73.4c7.1,29.4,13.1,71.5,13.1,71.5s0.5-37.7-8.7-73.5
			C480.1,137.4,461.1,113.5,461.7,111.6z"/>
		<path class="st9" d="M492.8,137.2c0,0,8.4,43.8,9.6,69.7c1.2,26-0.1,60.8-0.1,60.8s5.5-28,3.6-60
			C502.9,166.7,492.2,138.3,492.8,137.2z"/>
		<path class="st9" d="M459.2,129.8c0,0,19.6,37.9,26.6,63.9c7.1,26,13.1,63.6,13.1,63.6s0.5-34.4-8.7-65.9
			C477.6,151.2,458.6,131.5,459.2,129.8z"/>
	</g>
	<path class="st5" d="M535.7,158.9c0,0,20.5,208.7-41.1,208.7c-51.3,0-51.3-32.9-61.6-32.9l10.3-76.9L535.7,158.9L535.7,158.9z"/>
	<path class="st6" d="M515.2,180.9c0,11,20.5,131.8-30.9,164.7c-20.5,11-51.3-11-51.3,0l10.3-87.9L515.2,180.9z"/>
	<path class="st7" d="M494.6,202.9c0,11,10.3,98.8-20.6,120.8c-20.5,21.9-71.9,16-71.9,16l41.1-81.9L494.6,202.9L494.6,202.9z"/>
	<path class="st3" d="M536.2,158l-94.8,100l-1.7-1.6l94.8-99.9l1.7,1.6V158z"/>
	<path class="st14" d="M550.8,146.1l-6,1.1L543,149c0.2,0-1.8,1.8,0.7,4.2c2.5,2.5,6-1.1,6-1.1s-1.1,6-4.6,9.6
		c-3.5,3.6-7.8,2.8-7.8,2.8s4-3.3,1.1-6c-3-2.7-4.2-0.7-4.2-0.7l-3.5,3.5l-2.5-2.5l14.2-14.2l1.1-6l9.1-1.5L550.8,146.1L550.8,146.1
		z"/>
	<path class="st14" d="M536.8,104.1l-7.3,11.3l-9.2,2.5l6,3.9l-11-0.4l-5,3.6l-1.8-2.8l5-3.6l3.9-11l1.1,7.5l5.7-8.2L536.8,104.1
		L536.8,104.1z"/>
	<path class="st7" d="M507.3,110.9c0,0.6,0.8,1.1,1.7,1.1c0.9,0,1.8-0.5,1.8-1.1c0-0.6-0.8-1.1-1.8-1.1S507.3,110.3,507.3,110.9z
		 M509.8,113.3c0,10.7-8.4,56.3-9,57.5c0,1.3,1.9,1.9,2.8,0.3c2.6-5.2,8.3-48,8.5-58c0.1-4.1-1.5-4.4-3.3-4.3
		c-1.5,0.1-3.3,1.1-3.3,2.4C505.5,112.5,507.8,113.6,509.8,113.3z"/>
	<path class="st6" d="M504,121.5c0.3,0.6,1.3,0.9,2.2,0.7c0.9-0.2,1.4-0.9,1.1-1.5c-0.3-0.6-1.3-0.9-2.2-0.7S503.7,120.9,504,121.5z
		 M507.5,123.3c-2.8,21.6,6.5,54.9,6.4,56.2c0.6,1.3,2.8,1.4,2.8-0.5c0.5-1.2-10.2-31.3-7.2-56.6c-1.9-4.1-3.6-4.1-5.3-3.5
		c-1.4,0.4-2.6,1.9-2,3.2C503.1,123.6,505.8,124.2,507.5,123.3z"/>
	<path class="st15" d="M533.4,151.5c0,1,1,2,2.1,2c1.2,0,2.2-1,2.2-2s-1-1.8-2.2-1.8S533.4,150.5,533.4,151.5z M536.4,155.5
		c-2.4,32.1-6.1,64-11.2,95.8c0,2.2,2.3,3.2,3.5,0.4c3.3-8.7,10.4-80,10.7-96.6c0.1-6.9-1.9-7.4-4.2-7.3c-1.9,0.1-4.1,1.9-4.1,4
		C531.1,154.2,534,156.1,536.4,155.5L536.4,155.5z"/>
	<path class="st6" d="M527.9,160.7c0.4,1,1.7,1.5,2.8,1.1s1.8-1.5,1.4-2.4c-0.4-1-1.7-1.5-2.9-1.2S527.5,159.7,527.9,160.7z
		 M532.5,163.6c-2.8,34.2,10,87.3,9.9,89.4c0.8,2.1,3.6,2.4,3.6-0.7c0.5-2-13.9-50-10.9-90c-2.6-6.6-4.7-6.5-6.9-5.7
		c-1.7,0.7-3.2,3-2.4,5C526.8,164,530.3,164.9,532.5,163.6L532.5,163.6z"/>
</g>
<g>
	<path class="st7" d="M367.1,422.6c9.5,5.9,21.3,5.9,30.8,0v-87.9h-20.5C387.6,367.6,387.6,400.6,367.1,422.6L367.1,422.6z"/>
	<path class="st6" d="M383.3,336.6c0,61.9-14.9,75.7-14.9,88.2c6.2,0,10.3-5.8,14.9-13.8c6.2-12.5,6.8-75.4,6.2-74.4H383.3z"/>
	<path class="st6" d="M370.9,336.6c-0.3,36.2-15.7,69.7-12.8,77.1c3.3,6.7,12.8-15.2,25.2-2.8c6.2-12.4,6.8-75.3,6.2-74.4
		L370.9,336.6L370.9,336.6z"/>
	<path class="st5" d="M372.3,331.4c0,40.7-14.2,43.4-14.2,54.3c6.2,0,14.2-5.9,14.2-5.4c6.2-8.2,6.8-49.5,6.2-48.9H372.3z"/>
	<path class="st5" d="M359.9,331.4c-0.3,23.8-15.3,44-12.4,48.9c3.3,4.3,12.4-8.2,24.8,0c6.2-8.2,6.8-49.5,6.2-48.9H359.9z"/>
	<path class="st7" d="M432.9,422.6c-9.5,5.9-21.3,5.9-30.8,0v-87.9h20.5C412.4,367.6,412.4,400.6,432.9,422.6L432.9,422.6z"/>
	<path class="st6" d="M416.7,336.6c0,61.9,14.9,75.7,14.9,88.2c-6.2,0-10.3-5.8-14.9-13.8c-6.2-12.5-6.8-75.4-6.2-74.4H416.7z"/>
	<path class="st6" d="M429.1,336.6c0.3,36.2,15.7,69.7,12.8,77.1c-3.3,6.7-12.8-15.2-25.2-2.8c-6.2-12.4-6.8-75.3-6.2-74.4
		L429.1,336.6L429.1,336.6z"/>
	<path class="st5" d="M427.7,331.4c0,40.7,14.2,43.4,14.2,54.3c-6.2,0-14.2-5.9-14.2-5.4c-6.2-8.2-6.8-49.5-6.2-48.9H427.7z"/>
	<path class="st5" d="M440.1,331.4c0.3,23.8,15.3,44,12.4,48.9c-3.3,4.3-12.4-8.2-24.8,0c-6.2-8.2-6.8-49.5-6.2-48.9H440.1z"/>
</g>
<g>
	<path class="st16" d="M321.6,341.6l-10.8,7.8l10.8,7.8l5.4-3.9l2.7,3.9l2.7,7.8l2.7-7.8l2.7-3.9H482v-7.8H337.8l-2.7-3.9
		c0-3.9,0.6-7.8,2.7-7.8h10.8c0-3.9-5.4-11.7-16.1-11.7c-10.8,0-16.1,7.8-16.1,11.7H327c2.1,0,2.7,3.9,2.7,7.8l-2.7,3.9L321.6,341.6
		L321.6,341.6z"/>
	<path class="st17" d="M353.2,360.4h94.3v4.8h-94.2L353.2,360.4z M353.2,355.6h94.3v4.8h-94.2L353.2,355.6z M353.2,350.9h94.3v4.8
		h-94.2L353.2,350.9z M353.2,346.1h94.3v4.8h-94.2L353.2,346.1z M353.2,341.3h94.3v4.8h-94.2L353.2,341.3z M353.2,336.5h94.3v4.8
		h-94.2L353.2,336.5z M353.2,331.7h94.3v4.8h-94.2L353.2,331.7z"/>
	<path class="st18" d="M357.7,331.5l34.4,33.5h4.9l-34.4-33.5L357.7,331.5L357.7,331.5z"/>
	<path class="st18" d="M357.7,365.9l34.4-33.5h4.9l-34.4,33.5L357.7,365.9L357.7,365.9z"/>
	<path class="st19" d="M358.7,331.5v33.5h5v-33.5C363.6,331.5,358.7,331.5,358.7,331.5z"/>
	<path class="st18" d="M402,331.5l34.5,33.5h4.9L407,331.5L402,331.5L402,331.5z"/>
	<path class="st18" d="M402,365.9l34.5-33.5h4.9L407,365.9L402,365.9L402,365.9z"/>
	<path class="st19" d="M437.5,331.5v33.5h5v-33.5C442.4,331.5,437.5,331.5,437.5,331.5z"/>
	<path class="st19" d="M403.1,331.5v33.5h5v-33.5C408,331.5,403.1,331.5,403.1,331.5z"/>
	<path class="st19" d="M393.1,331.5v33.5h5v-33.5C398,331.5,393.1,331.5,393.1,331.5z"/>
</g>
<g>
	<path class="st5" d="M469.8,235.9c0,54.6-32.2,98.8-71.9,98.8s-71.9-44.3-71.9-98.8s32.2-98.9,71.9-98.9S469.8,181.3,469.8,235.9
		L469.8,235.9z M459.5,235.9c0,48.5-27.6,87.9-61.7,87.9s-61.7-39.4-61.7-87.9c0-48.5,27.6-87.9,61.7-87.9S459.5,187.3,459.5,235.9
		L459.5,235.9z"/>
	<path class="st5" d="M425.9,144.8c-8.6-5-18.1-7.8-28-7.8c-9.9,0-19.4,2.8-28,7.8l4.1,10.2c14.8-9.1,33.1-9.1,48,0L425.9,144.8
		L425.9,144.8z"/>
	<path class="st5" d="M426.1,324.3c-8.6,5-18.1,7.8-28,7.8c-9.9,0-19.4-2.8-28-7.8l4.1-10.2c14.8,9.1,33.1,9.1,48,0L426.1,324.3
		L426.1,324.3z"/>
</g>
<path class="st20" d="M459.6,235.9c0,48.5-27.7,87.8-61.7,87.8s-61.6-39.3-61.6-87.8s27.6-88,61.6-88S459.6,187.3,459.6,235.9
	L459.6,235.9z"/>
<path class="st21" d="M459.5,235.9c0.6,16.5-2.7,24.6-6.9,41.7c-1.1,1.9-6.4-4-9.5-6.9s-4.5,2.6-8.5-1.9c-3.9-4.6-6.4,1.2-9.3-2.6
	c-2.9-3.8-29.8-4.3-29.8-4.7c2.7-1.4,16.4,0.1,14.2-6.9c-2.5-7.3-18-0.2-20.1-9.5c-1.5-9.3-31.1-9.7-33.2-11.9
	c0.9,3.5,23.1,5,22.6,13.9c-0.5,3.7-21.9,4.8-24,7.9c-1.7,3.9,16.8-1.1,17.5,3.7c0,2-2.7,0-12.4,3.1c-4.9,1.6,8.9,6.4,3.7,9.1
	s-16.4,3.8-15.9,5c1.7,5.6,25.9,12.2,23.5,13.1c-8.6,4.1-13.1,6.8-17.2,9.1c-12.1-18.1-18.4-39.9-18-62.1
	c18.4-7.1,14.5-8.6,48.5-8.6S429.9,228.7,459.5,235.9L459.5,235.9z"/>
<path class="st22" d="M459.5,235.9c-4.6,0-9.5,2.1-14.5,2.1c-5,0-10.1-2.2-15.4-2.2s-11.2,2.9-16.5,2.9c-5.4,0-10.1-2.8-15.5-2.8
	c-5.4,0-10.8,2.1-16.1,2.1c-5.3,0-10.6-2.2-15.8-2.2s-10.3,2.2-15.2,2.2c-4.9,0-9.7-2.2-14.3-2.2c0-12.1,1.7-23.6,4.9-34.2
	c15.7,1.2,6.4-9.7,15.7-9.7c5.5-0.3,10.8,1.9,14.7,6.1c1.4,0,8.4-7.1,16.2-6.1c7.8,1,4.9,16.9,15.3,17.7c5.2,4.2,8.3,6.9,15.5,8.6
	c10.3,1,39.7-1.6,39.8-0.1C459.1,224,459.5,229.9,459.5,235.9L459.5,235.9z"/>
<path class="st23" d="M407.2,287c0-2.7,2.7-4.6,2.7-8.9s-2.4-4.5-2.5-8.5c0-1.7,2.1-3.4,3-3.6c0.9-0.2,1.7,3.6,1.7,4.4
	c0,0.8-0.9-2-1.7-2.1c-0.8,0-2.5,0.3-2.5,1.1c0,1.6,3,3.6,2.7,9.1c-0.2,5.4-2.5,7-2.5,8.6s1,6.1,1,6.1S407.2,289.7,407.2,287
	L407.2,287z"/>
<path class="st23" d="M415.8,286.6c0-2.7-2.7-4.6-2.7-8.9s2.4-4.5,2.5-8.5c0.2-1.9-2.4-3.2-3.3-3.3c-0.9-0.1-2,3.8-2,4.6
	s1.1-2.5,1.9-2.5c0.8,0,2.9,0.3,2.9,1.1c0,1.6-3,3.6-2.7,9.1c0.2,5.4,2.5,7,2.5,8.6c0,1.6-1,6.1-1,6.1S415.8,289.3,415.8,286.6
	L415.8,286.6z"/>
<path class="st3" d="M413,264.9c0,1.3-0.7,2.4-1.5,2.4s-1.4-1.1-1.4-2.5s0.6-2.4,1.4-2.4S413,263.5,413,264.9z M430,273.9h0.4v19.5
	h-0.5L430,273.9z M434.1,272.3h0.5V292h-0.5V272.3z"/>
<path class="st3" d="M432.6,281.2v-0.5l4,0.7v0.5L432.6,281.2z"/>
<path class="st24" d="M375.4,286.9c0,0,15.1,7.1,18.4,11.3c3.2,4.2,2,4.2,2,4.2l33.5,1.4c0-2.1,5.9-2.1,7.2-7.1
	c1.3-4.9,1.3-6.3,1.3-6.3l-10.5,3.5l0.6-6.3h-9.2l-1.3,6.3l-19.7-0.7l1.3-16.9l-3.9,0.7l-0.6,16.1
	C393.8,293.1,376.1,288.2,375.4,286.9L375.4,286.9z"/>
<path class="st25" d="M345.1,185.9c0,0,21.9-6.9,53.4-6.4s53.4,7.9,53,7.9s-6-11.4-6-11.4s-22.3-6.5-47.4-7
	c-25.1-0.5-46.9,5-46.4,5.5L345.1,185.9L345.1,185.9z"/>
<path class="st26" d="M386,169.8l13.6-0.2l0.2,7.9l-13.6,0.3L386,169.8z M354.8,174.1L350,182l16.2-2l-1.3-7.7l-10.1,2L354.8,174.1z
	 M368.5,171.1l13.6-1.1l0.6,7.8l-13.5,1.2L368.5,171.1z M417.4,170.4l-13.5-1l-0.5,8l13.5,0.8L417.4,170.4z M446.6,175.4l4.9,9.6
	l-14.6-3.6l1.6-7.7l8,1.6L446.6,175.4z M434.8,172.4l-13.4-1.7l-1,7.8l13.5,1.8L434.8,172.4z"/>
<path class="st5" d="M398.5,190.4l-1.4-8.4l-4.4,7.1l1.6-8.4l-6.6,4.8l4.4-7l-7.8,1.7l6.7-4.7l-7.8-1.6l7.8-1.6l-6.7-4.7l7.8,1.7
	l-4.5-7l6.6,4.8l-1.6-8.4l4.4,7.1l1.4-8.4l1.5,8.4l4.4-7.1l-1.6,8.4l6.6-4.8l-4.5,7l7.8-1.7l-6.7,4.7l7.8,1.6l-7.8,1.6l6.7,4.7
	l-7.8-1.7l4.5,7l-6.6-4.8l1.6,8.4L400,182L398.5,190.4z"/>
<path class="st5" d="M410.1,168.7c0,4.6-3.8,8.4-8.4,8.4s-8.4-3.8-8.4-8.4s3.8-8.4,8.4-8.4S410.1,164.1,410.1,168.7L410.1,168.7z"/>
<path class="st3" d="M400.7,170.6c0,0.5-1.3,1-2.8,1s-2.8-0.5-2.8-1s1.2-1,2.8-1S400.7,170,400.7,170.6z M406.7,170.6
	c0,0.5-0.9,1-2,1s-2.2-0.5-2.2-1c0-0.6,1-1,2.1-1S406.7,170,406.7,170.6z"/>
<path class="st27" d="M400.4,174l0.6,0.3c-1.4-0.9-0.8-0.5,1.4,1.6c1.3-0.7,1.5-1.4,2.3-2.3"/>
<path class="st27" d="M394.8,178.5l0.5,0.5c-1.1-1.2-0.6-0.6,1.9,1c2.3,0.3,4.7-0.7,6.1-2.5"/>
<path class="st28" d="M361.4,194.8c0,0,1,8-5.1,18c-6,9.9-5.1,6.4-5.1,6.4s2.8,5.5,2.3,5.5s-4.7-5-4.7-5l-5,5.5c0,0,4.6-8.5,4.1-8.5
	s-1.4-3-1.4-3l3.7-1.5c0,0,5.6-10.4,5.6-9.9s-16.7,11.4-16.7,11.4L361.4,194.8L361.4,194.8z M365.1,197.8c-0.5,0,2.3,8,4.7,12
	c2.3,4,2.3,8.9,2.3,8.9l7.9,4l-10.2-15.4l6.5,2.4L365.1,197.8L365.1,197.8z M365.1,218.7c0,0,5.6,6,6,8s0.5,6.4,0.5,6.4l-2.3-5
	l-3.3,4.5c0,0,2.4-7,1.9-7.5s-3.7,2.5-3.7,2.5s1.4-4,1.4-4.4S365.6,220.2,365.1,218.7z M337.2,232.6c1.9-1.5,5.6-2.5,5.6-2.5
	s-2.3,4-2.8,4S338.2,234.1,337.2,232.6L337.2,232.6z M401.3,210.8c0,0,12.1,7.4,12.1,7.9s-7.9-3.5-7.9-3.5L401.3,210.8z
	 M379.5,195.3c1,0.5,17.7,14.4,17.2,14.4s-7.4-4-7.4-3.4v3.4l-3.8-7.9l-0.9,3l-5-9.5H379.5z M383.7,217.7l4.6,9.4l4.7-1
	C393,226.1,384.2,217.7,383.7,217.7L383.7,217.7z M398.1,211.7l0.5,9c0,0,2.7,2.5,2.7,2S398.6,212.2,398.1,211.7z"/>
<path class="st29" d="M262.6,89.5c0,0,21-11.6,44.9-20.2c17.6-6.5,35.7-11.3,54.2-14.4c7,0,19.2,17.8,21.2,17.8s10.1-5,20.3-5
	s16.1,8,18.2,8h18.2c2,0-6.1-19.8,0-18.8c3,0.5,28.8,4.5,52.8,12.2c24,7.8,58,21.6,58,21.6S494.9,98,480,95.9c-2,1,0,13-3,7.7
	c-4.6-1-21.7-3.7-24.7-3.7s-8.7,3.4-16.8,5.4c-8,2-18.2,5-18.2,5l13.2,20.7l-16.2,8c0,0-10.1-23.8-14.2-23.8s-6,16.8-11.1,15.8
	c-5-1-7-15.8-11.1-19.8c-4-3.9-25.4-5.4-33.5-7.3c-8-2-21.1-3.5-28.2-5.5c-7-2-14.2,5-17.2,5s4-6,1-7s-5,3-7,3s-23.3-4-25.3-5
	s5-4.9,3-4.9L262.6,89.5L262.6,89.5z"/>
<path class="st30" d="M413.5,79.6c0,5.5-4.5,10-10.1,10c-5.6,0-10.1-4.5-10.1-10c0-5.5,4.5-10,10.1-10S413.5,74.1,413.5,79.6z"/>
<path class="st31" d="M362.3,81.5c1.8-2.1,4-5.3,9.9-5.3c1.4-0.5,1.4-3.7,4.5-3.7c3.2,0,2.2,3.2,4.5,4.3c2.2,1.1,20.7-1.1,20.7-1.1
	s1.8,1.6,1.8,3.7s-1.4,3.7-1.8,3.7s-18.4-1.6-19.8-1.1c-1.4,0.5-2.2,1.1-5.4,1.1c-3.1,0-4-3.7-6.3-3.7S365.9,78.8,362.3,81.5
	L362.3,81.5z"/>
<path class="st32" d="M417.1,80.4h7.2c2.6,0,3.5,1,5.9,1.1h6.3c2.3-0.1,3.5-0.7,5.8-1.1c3.9-0.1,2.6-0.4,1.8-3.2
	c-0.7-2.1-0.8-3.1-1.8-4.3c-0.4-2.6-1.2-3.5-1.4-6.4c-0.4-2.2-1.2-3.7-0.4-6.4c1,1.8,1.4,2.6,4,2.7c2.7,0,3.8-0.1,5.4,1.1
	c1.2,1.6,2.9,1.1,5.4,1.1c2.1,0.4,2.4,1.7,4,2.7c1.9,1.3,3.2,1.6,5.8,1.6c2.2,0.5,4,0.8,5.4,1.6c1.2,1.6,3,2,5.4,2.1
	c1.4,0,2.4-0.2,3.6-0.5c2.1,0.1,4.2,0,6.8,0c1.7,2.3,2.1,3.2,4.9,3.2c2,1.7,3.7,1.9,5.4,2.7h6.8c2.4,0.2,3.2,1.4,5.4,2.1
	c1.9,1,3.8,1.9,5.8,2.7c1.9,0.4,3.9,0.6,5.9,0.5c1.6,1,3.7,1.1,4.9,2.1c1.9,0.5,4.4,1.1,5.8,1.6c2.4,0.4,3.3,1.3,5.4,1.6
	c1.8,0.6-0.6,1.2-1.8,1.6c-2.6-0.1-2.8-1.3-5.4-1.6c-1.3-0.9-3.4-0.8-5.4-1.6h-0.4c1.8,1.3,3.5,2.1,2.7,4.3c-2.3,0-4.2-0.4-6.3-0.5
	c-2.3-0.5-3.3-1.1-5.8-1.1c2.5-0.7,3.2,0.1,4.9,1.1c0.6,2.6-0.8,1.6-3.2,1.6c-2.1-0.9-3.3-1.9-5.8-2.1h-5.4c2.7,0.1,3.2,1.3,4.9,2.7
	c0.1,0.8,0,0.8-1.3,1.1c-1.4-1.4-3.2-1.9-5.4-2.7c-2.1-0.1-4.4-0.3-6.3-1.1c-1.3-0.1-1.1-2,1.8,1.1c1.8,1.2,2.4,2.2,2.2,3.2
	c-2.3-0.7-3.5-1.8-4.9-2.7c-2-0.8-4.2-1.2-6.3-1.1c-2.3-0.7,0.2-1.2,1.8,1.6c3.3,2.8-0.4,1.6-1.8,1.1c-2-0.7-4.1-1.7-5.9-2.1
	c-1.4-0.5-2.5-0.9-4.1-1.1c2.3,0.3,3.1,1.2,4.1,3.2c2.4,1.9-0.1,1-2.2,0.5c-1.4-1.4-3.1-2.1-4.1-3.7c-2.2-1.3-2.3-2.9-0.9,0.5
	c0.4,1.1,0.3,3.5,0.4,3.7c-1.6-2.1-1.3-2.7-3.1-2.7c-1.3-1-3.1-1.8-4-3.2c-1.7-0.2-1.8-0.9-3.6-1.6c1.4,2,3.3,4,4.5,5.9
	c2.1,1.3,2.6,2.6,4.1,3.7c0.6,1.2,2.2,2.1,0.5,0.5c-1.9-2.2-3.4-2.8-6.3-4.3c-1.7-1.6-2.3-2.2-4.1-3.7c-2.4-0.9-1.5-1.4,0,1.6
	c1.7,1.9,3,3.9,4.5,5.3c1.2,1.6,2.5,3.1,4.1,4.3c0.4,0.7,1.6,0.8,0,1.1c-1.4-1.5-3.3-2.4-4.9-3.7c-2.2-0.7-3.3-2.1-4.9-3.7
	c-1.1-1.9-2.8-3.3-4.1-4.8c-2.6-1.2,0.5,1.2,1.4,2.7c0.6,2,1.3,3.5,1.8,5.3c0.8,1.8-2.3-0.4-3.1-1.1c-1.8-1.4-3.8-2.3-5.9-2.7
	c-1.8-0.4-3.6-0.8-5.4-1.1c-2-0.6,1.1,1.5,2.3,3.7c2.3,2.5-2.2,0.4-3.6,0c-2.2-0.4-4.5-0.6-6.8-0.5c-2.9,0.2-0.8,0.6,0,2.1
	c0.9,0.8,1.5,2.6,1.4,3.2c-1.9-0.3-3.5-1-5.9-1.1c-1.9,0.7-4.1,0.5-6.3,0.5c-0.1,1.3,0.4,0.2,1.4,1.6c1.6,0.7,2.6,1.6,2.3,2.7h-13
	c-1.4,0.4,0.3,0.2,1.4,2.1c-0.6,1.7-1.4,1.1-3.2,1.1c-1.2-0.6-3.7-0.8-4.9-1.6c-1.3,0-1.2-0.4-2.2-0.5c3.8,3.2,1.9,2.4,4.1,4.8
	c0.4,0.2,1.2,0.5,0.4,0.5 M385.7,128.4c-0.3,0-0.9-1.7-1.8-3.2c-0.6-1.9-1.5-0.8-2.3-3.7c0.1-3,0.2-3.5,0-6.4c-1.8-1.5-2.6-2-4-4.8
	c-2.3-2.2,0.4-6.1,0.8-8.9c-2-0.5-3,3.7-6,5.2c-2.2,1.8-0.3-3.6-1.4-6.8c-0.7-4.4-2.9,2.2-3.7,4.1c-1.5,1.2-1.9,2.7-4,0.5
	c0-1.6,1.3-6.2,0.8-7.1c-2.1,1.2-4.9,5-7,5.5c-2.2-0.5,0.5-4.7,0.5-7.8c-0.8-0.3-4,8.3-5.3,8.3c-1.3,0.1-0.7-8.3-1.4-8.1
	c-0.9,1.6-2.9,4.9-4.2,6.1c-2.6-0.4,0.4-5.6,0.8-7.5c0.4-2.3-2.4,4.4-3.9,4.8c-1.1,1.2-3.3,1.9-4,2.1c0.9-2,5.1-6,4.9-7.1
	c-2.5,0.1-6.3,4-8.5,4.5c-1.4,0-3.3,0.5-3.6,0.5c0.1-2.6,5.2-4.7,6-6.2c-2.5,0.5-7.3,3.1-8.7,5.2c-1.7,0.4-3.8,1-5.4,0
	c0.2-2.4,4-7,4.9-8.6c-2.3,1.2-3.4,2.1-5.9,2.7c-0.5,0.5-1.8,1.7-1.4,0.5c0.7-2.2,1.8-3.2,2.7-4.8c-2,0.4-2.8,1.8-4.9,3.2
	c-1.4,0.1-5.3,4.8-6.6,4.8c-2.2,2.1-4.9,3.5-7.6,4.3c-2.1,0.4-3.1,1-4,2.1c1-2.1,2.6-4.2,4-5.3c0.9-1.9,2.3-3.5,4.1-4.3
	c0.5-0.7,1.9-0.9,0.4-1.1c-1.3,1.3-3.4,2.9-4.5,3.7c-1.4,1-3,2-3.6,1.6c0.7-2.3,2-2.9,3.2-4.8c2.4-1.8,0-0.6-1.8,0
	c-1.2,1.2-3.2,2.1-4.9,3.2c-1.9,0.6-3.2,1.9-5.4,2.7c0,0.8,0.6-1.4,0.9-2.1c1.8-2.4,2.3-3,4.5-3.7c0.5-0.9,1.2-0.5-0.4-0.5
	c-1.2,1.3-2.9,2-4.5,3.2c-1.6,0.4-3.7,0.5-5.8,0.5c-2.8,0.4-2.6,0.6,0-1.1c1.4-1.6,2.6-1.2,2.7-3.2c-1.7,1.5-3.8,2.6-5.9,3.7
	c-1.7,0.1-2.2,0.5-4,0.5c0.9-1.1,1.4-2.5,2.7-3.2c1.9-2.5-1.2-0.5-1.8,0h-6.8c-1.2,1.8-0.1,0,0.9-1.1c1.2-0.7,2.4-1.6,2.2-2.1
	c-1.4,1.4-2.9,2-4,3.2c-1.2,0.4-2.7,0.6-2.7,1.1c1-1.7,2.6-2.8,3.6-4.3c1.5-0.4,2.8-1,3.1-1.6H271h4.5c2.3,0,4.2-0.3,6.3-0.5
	c3.6-0.7-0.3-1.1-2.3-1.1c-0.4-0.8,1.1-1.3,2.7-1.6c1.4-0.8,3.1-1.4,4.5-2.1c1.3-0.5,2.5-1.2,3.6-2.1c-1.4,0.1-1.4,0.4-2.7,0.5
	c2-0.2,3.5-0.5,5.9-0.5c2-0.8,3.9-1.7,5.8-2.7c0.8-1.2,1.1-1.1-0.9-1.1c1.8-0.7,4.4-1,5.8-1.6c1.9-0.5,3.7-1.2,5.4-2.1
	c1.3-1.1,2.1-2.3,3.6-3.2c1.8,1.4,1.8,1.6,4.9,1.6c2.5,0,4.1-0.8,5.4-2.1c1.9-0.6,2.3-1.7,4.5-2.1c2.1,0.4,4.2,0.6,6.3,0.5
	c2.2-0.7,4.2-1.9,5.8-3.2c1.4-0.8,3-2,4.5-2.7c1.6,1,2.9,1.8,4.9,2.1c2.1-0.4,3.2-1.6,4.9-2.1c1.1-1.4,2.5-2.3,4.1-2.7
	c2.6-1.5,2.4,0.5,3.6,2.1c1.4,1.7,3.1,0.9,4.9,1.6c1.1,1.9,1.8,3.2,3.2,4.3c1.1,1.5,2.3,1.9,4.5,2.1c0.8,1.3,0.2,2.2,1.8,2.7
	c0.6,0.8,1.8,1.2,2.7,1.6"/>
<path class="st33" d="M411.9,114.8v0.3c0-0.7,0-0.3,0.5,1.1c0.2,1.2-0.2,1-0.7,1.9c-0.1,1.2-0.2,2-0.2,3.5c-0.2,1.2-0.7,2.2-1.1,3.2
	c-0.4,1-2.3,1.6-2.2,2.9c-1.1,0.4-1.1-0.5-1.1-1.9c-0.6-0.9-0.9-2-1.3-3.2c-0.3-1.1-0.9-1.9-1.4-3.2c-0.6-1.2-1.2-1.5-1.8-2.9
	c-0.2-0.6-0.2-1.5-0.7-1.9c-0.7-1.1-1.2-1.3-2.5-1.3c-1,0.3-1.4,0.8-2.2,1.1c-0.7,0.3-2.1,0.2-2.9,0.5c-0.2,0.4,0.4,0.6,0.7,1.6
	c-0.6,0.6-0.8,1.6-1.1,2.4c-0.5,0.8-0.9,1.2-1.1,2.4c0.4,0.7,0.1,1.7-0.4,2.4c-0.2,1.2-0.7,1.9-0.9,2.9c-0.7,0.6-1,1.2-1.6,2.1
	c-0.5,0.9-1,0.8-2.2,0.8c-1-0.3-1.1-1-2-1.3c-0.1-0.3-0.2-0.4-0.5-0.5"/>
<path class="st34" d="M387.6,125.5c0,0-0.4,5-3.6,8.3s-9.8,7.1-9.8,7.1s8.9-4.2,9.8-3.3c1,1-5.7,8.3-5.7,8.3s8.7-7.7,9.8-7.7
	s3.6,7.5,4.6,7.3c0.9-0.2-2-9.5-1.6-11c0.4-1.4,0-9.3,0-9.3L387.6,125.5L387.6,125.5z M408.1,124.9c0,0-0.4,5.3-3.6,8.8
	s-9.8,7.6-9.8,7.6s8.9-4.5,9.8-3.5c1,1-5.7,8.8-5.7,8.8s8.7-8.2,9.8-8.2s3.6,8,4.6,7.8c0.9-0.2-2-10.2-1.6-11.7c0.4-1.6,0-10,0-10
	L408.1,124.9L408.1,124.9z M379.4,76.9c0,0.9-1,1.7-2.1,1.7s-2.2-0.8-2.2-1.8s1-1.8,2.2-1.8s2.1,0.8,2.1,1.8V76.9z"/>
</svg>
