<?xml version="1.0" encoding="utf-8"?>
<!-- Generator: Adobe Illustrator 24.0.1, SVG Export Plug-In . SVG Version: 6.00 Build 0)  -->
<svg version="1.1" id="flag-icons-eg" xmlns="http://www.w3.org/2000/svg" xmlns:xlink="http://www.w3.org/1999/xlink" x="0px"
	 y="0px" viewBox="0 0 800 480" style="enable-background:new 0 0 800 480;" xml:space="preserve">
<style type="text/css">
	.st0{fill:#FFFFFF;}
	.st1{fill:#CE1126;}
	.st2{fill:#FFFFFF;stroke:#C09300;stroke-width:0.832;stroke-linejoin:round;stroke-miterlimit:2.56;}
	.st3{fill:#C09300;}
	.st4{fill:#C09300;stroke:#C09300;stroke-width:0.704;stroke-miterlimit:2.56;}
	.st5{fill:#FFFFFF;stroke:#C09300;stroke-width:0.768;stroke-linejoin:round;stroke-miterlimit:2.56;}
	.st6{fill:none;stroke:#C09300;stroke-width:0.832;stroke-linejoin:round;stroke-miterlimit:2.56;}
	.st7{fill:#FFFFFF;stroke:#C09300;stroke-width:1.536;stroke-linecap:round;stroke-linejoin:round;stroke-miterlimit:2.56;}
	.st8{fill:#FFFFFF;stroke:#C09300;stroke-width:0.832;stroke-linecap:round;stroke-linejoin:round;stroke-miterlimit:2.56;}
	.st9{fill:#FFFFFF;stroke:#C09300;stroke-width:0.576;stroke-linecap:round;stroke-linejoin:round;stroke-miterlimit:2.56;}
	.st10{fill:#FFFFFF;stroke:#C09300;stroke-width:0.704;stroke-miterlimit:2.56;}
	.st11{fill:#FFFFFF;stroke:#C09300;stroke-width:0.576;stroke-miterlimit:2.56;}
	.st12{fill:#FFFFFF;stroke:#C09300;stroke-width:0.768;stroke-miterlimit:2.56;}
	.st13{fill:none;stroke:#C09300;stroke-width:0.832;stroke-miterlimit:2.56;}
	.st14{fill:#C09300;stroke:#C09300;stroke-width:0.192;stroke-miterlimit:2.56;}
</style>
<path d="M0,320h800v160H0V320z"/>
<path class="st0" d="M0,160h800v160H0V160z"/>
<path class="st1" d="M0,0h800v160H0V0z"/>
<path class="st2" d="M400.6,241.9l54.8,50.9l-3.9-92.4c-0.6-14-12.7-10.8-21.6-5.8c-8.9,5.8-19.2,5.8-29.9,2
	c-10.8,3.8-21,3.8-29.9-2c-8.8-5-21-8.2-21.6,5.8l-3.9,92.4L400.6,241.9L400.6,241.9z"/>
<path id="a" class="st3" d="M354.8,197.2L351,287l-6.4,5.8l3.9-92.4C350.4,199,352.5,197.8,354.8,197.2z M362.5,203.6l-3.2,75.2
	l-6.4,6.6l3.8-86.8C358,199.8,361.8,203,362.5,203.6L362.5,203.6z M369.4,209.4l-2.5,62.7l-5.2,5l3.2-71.5
	C366.2,206.8,368.8,208.6,369.4,209.4z M377,212.6l-2.5,53.4l-5,4.1l2.5-59.4C373.3,211.2,375.8,212.6,377,212.6L377,212.6z
	 M384.1,212.6l-1.8,44.6l-5.2,5l2-49C380.2,213.1,383.5,213.1,384.1,212.6z"/>
<g transform="matrix(-1 0 0 1 900 0)">
	<path id="a_1_" class="st3" d="M448.5,200.4l-3.9,92.4l6.4-5.8l3.8-89.8C452.5,197.8,450.4,199,448.5,200.4z M462.5,203.6
		c-0.7-0.6-4.5-3.8-5.8-5l-3.8,86.8l6.4-6.6L462.5,203.6L462.5,203.6z M465,205.6l-3.2,71.5l5.2-5l2.5-62.7
		C468.8,208.6,466.2,206.8,465,205.6z M477,212.6c-1.3,0-3.8-1.4-5-1.9l-2.5,59.4l5-4.1L477,212.6L477,212.6z M479,213.1l-2,49
		l5.2-5l1.8-44.6C483.5,213.1,480.2,213.1,479,213.1z"/>
</g>
<path class="st4" d="M402.6,252l7.7,35l-2.6,2.6l-2.6-2l-4.3-31.2l1.8,31.2l-2.6,3.2l-2.5-3.2l1.8-31.2l-4.4,31.2l-2.6,2l-2.6-2.6
	l7.7-35L402.6,252L402.6,252z"/>
<g id="b">
	<path class="st5" d="M382.8,236.6l-15.3,54.2l21,3.2l8.9-40.7L382.8,236.6L382.8,236.6z"/>
	<path class="st6" d="M377.8,255.2l1.8,4.4l9.9-9.4"/>
	<path class="st6" d="M384.6,244l2.1,19.4l6.3-8.3 M390.5,258.3l3.4,12 M395.3,265.9l-7,10.6 M390.5,287l-2.2-10.6l-1.9-10.7
		l-4.7,6.3l-2-7.3l-6.6,6.7l3.3,12.2l4.6-7.5l2.5,7.7l4.8-7.4"/>
	<path class="st6" d="M372,289.6l4.2-6l2.7,9.2l3.8-6.4l2.5,7.7"/>
</g>
<g transform="matrix(-1 0 0 1 900 0)">
	<g id="b_1_">
		<path class="st5" d="M482.8,236.6l14.6,16.6l-8.9,40.7l-21-3.2L482.8,236.6L482.8,236.6z"/>
		<path class="st6" d="M489.5,250.2l-9.9,9.4l-1.8-4.4"/>
		<path class="st6" d="M493,255.1l-6.3,8.3l-2.1-19.4 M493.9,270.3l-3.4-12 M488.3,276.5l7-10.6 M488.2,276.5l-4.8,7.4l-2.5-7.7
			l-4.6,7.5l-3.3-12.2l6.6-6.7l2,7.3l4.7-6.3L488.2,276.5l2.2,10.6"/>
		<path class="st6" d="M485.3,294.1l-2.5-7.7l-3.8,6.4l-2.7-9.2l-4.2,6"/>
	</g>
</g>
<g>
	<path class="st7" d="M400,315c16,0,31.2-1.3,40.2-3.8c3.8-0.7,3.8-2.6,3.8-5.2c3.8-1.3,1.9-5.8,4.6-5.8c-2.7,0.8-3.2-4.4-6.4-3.8
		c0-4.5-4.6-5-8.3-3.8c-7.6,2.5-21,3.1-33.8,3.1c-12.8-0.6-26.1-0.6-33.8-3.2c-3.8-1.2-8.2-0.6-8.2,3.8c-3.2-0.6-3.8,4.5-6.4,3.8
		c2.6,0,0.6,4.6,4.5,5.8c0,2.6,0,4.5,3.8,5.2C368.7,313.8,384.1,315,400,315L400,315z"/>
	<path class="st8" d="M378.3,290.8c5.1,0.7,10.9,1.3,15.4,0.7c2.6,0,4.4,4.4-0.7,5c-4.4,0.6-11.4,0-15.2-0.6
		c-5-0.9-9.8-1.9-14.7-3.2c-4.5-1.9-1.3-5.6,1.3-5.1C368.9,289,373.6,290.2,378.3,290.8L378.3,290.8z M421.7,290.8
		c-5.1,0.7-10.9,1.3-15.2,0.7c-2.7,0-4.6,4.4,0.6,5c4.5,0.6,11.4,0,15.2-0.6c3.2-0.6,10.2-1.8,14.7-3.2c4.5-1.9,1.3-5.6-1.3-5.1
		C431.1,289,426.4,290.2,421.7,290.8z"/>
	<path class="st8" d="M362.4,288.3c-3.8-0.7-5.6,3.8-4.4,6.3c0.6-1.3,3.2-1.3,3.8-2.6C362.5,290.2,361.2,290.2,362.4,288.3
		L362.4,288.3z M377.8,300.1c0-2.6,2.5-2.2,2.5-4.8c0-1.2-0.6-3.2-1.9-3.2c-1.4,0.1-2.5,1.2-2.6,2.6
		C375.2,297.1,377.8,297.5,377.8,300.1z M395.9,292.8c3.8,0,3.4,5,1.6,7.6c0-1.8-3.2-2.6-3.2-3.8
		C394.3,294.6,397.2,294.6,395.9,292.8z M437.5,288.3c3.9-0.7,5.8,3.8,4.5,6.3c-0.6-1.3-3.2-1.3-3.8-2.6
		C437.5,290.2,438.8,290.2,437.5,288.3L437.5,288.3z M422.4,300c0-2.6-2.6-2.2-2.6-4.8c0-1.2,0.6-3.2,1.9-3.2
		c1.4,0.1,2.5,1.2,2.6,2.6C424.9,297,422.3,297.4,422.4,300L422.4,300z M404,292.8c-3.8,0-3.4,5-1.6,7.6c0-1.8,3.2-2.6,3.2-3.8
		C405.6,294.6,402.7,294.6,404,292.8z"/>
	<path class="st9" d="M363.8,289.6c1.3,0,3.2,0.6,3.8,1.3L363.8,289.6z M370.1,291.5c0.6,0,3.2,0.6,4.4,1.3L370.1,291.5z M393,294.1
		c-1.2,0-3.8,0-4.4,0.6L393,294.1L393,294.1z M386,294.1c-0.7-0.7-3.2-0.7-4.5,0H386z M436.2,289.6c-1.4,0-2.6,0.5-3.8,1.3
		L436.2,289.6z M430,291.5c-0.8,0-3.2,0.6-4.5,1.3L430,291.5z M407,294.1c1.2,0,3.8,0,4.5,0.6L407,294.1L407,294.1z M414,294.1
		c0.7-0.7,3.2-0.7,4.5,0H414z"/>
	<g>
		<path class="st3" d="M362.6,299.7c-0.4-0.1-0.6-0.5-0.5-0.8c0.1-0.6,0.5-0.8,0.8-0.6c0.3,0,0.7,0.5,0.7,0.6l-0.3,0.6l-0.2,0.1
			C363.2,299.7,362.9,299.7,362.6,299.7L362.6,299.7z M406.6,302.8c-0.2,0-0.5-0.4-0.5-0.6c0-0.3,0.5-0.8,0.8-0.8l0.6,0.3
			c0.2,0.2,0.2,0.7-0.1,1C407.4,302.9,406.9,302.9,406.6,302.8L406.6,302.8L406.6,302.8z M406.9,304.8c-0.3-0.2-0.4-0.3-0.5-0.6
			c0-0.4,0-0.5,0.4-0.7l0.3-0.2l0.3,0.2c0.3,0.2,0.6,0.3,0.6,0.6c0,0.2-0.2,0.5-0.6,0.6C407.2,304.9,407.1,304.9,406.9,304.8
			L406.9,304.8L406.9,304.8z"/>
		<path class="st3" d="M366.2,296c-0.3,0-0.7,0.3-1,0.5c-0.5,0.1-1.1,0.4-1.6,0c-0.5-0.1-1.1,0-1.2,0.6c0.1,0.6,0.8,0.8,1.3,0.5
			c0.3-0.4,1.2-0.7,1.4,0c-0.4,0.6-0.3,1.4-0.6,1.9c0,0.4-0.2,0.7-0.4,1c-0.4,0-0.8,0-1.1,0.2c-0.5,0-1,0.2-1.3,0.6
			c-0.3,0.5-0.6,1-0.7,1.6c0.1,0.5,0.8,0.6,1.3,0.7l1.6,0.5l2.6,0.7c1.3,0.4,2.6,0.6,3.8,0.9l0.4,0.1c0.6,0.2,0.8-0.4,0.8-0.8
			l0.8-2.9c0.2-0.4,0.4-1.2-0.3-1c-0.4,0.2-0.8,0.6-1.3,0.6c-0.7,0-0.3,0.8,0,1c0,0.5-0.2,1-0.4,1.4c-0.5,0.2-1,0-1.4-0.2
			c-0.4,0-1.4-0.2-1-0.8l0.4-1.4c0.2-0.5,0.2-1,0.4-1.6c-0.3-0.6-0.8,0.2-1.2,0.3c-0.3,0.2-1.3,0.2-0.8,0.8c0.5,0.3,0.2,0.9,0,1.4
			c0,0.6-0.6,0.8-1.1,0.6c-0.5,0-1.2-0.4-0.8-0.9l0.4-1.4l0.6-1.6c0-0.6,0.2-1,0.5-1.4c0-0.6,0.4-1,0.4-1.6
			C366.6,296.2,366.4,296.1,366.2,296L366.2,296z M363.3,301.8c0.1-0.1,0.2-0.1,0.2,0c0.2,0.2,0.2,0.3,0,0.5l-0.2,0.2
			c-0.4,0-0.5-0.1-0.5-0.2c0-0.1,0-0.2,0.2-0.2C363.1,301.9,363.3,301.8,363.3,301.8L363.3,301.8z M362.5,305.8
			c-0.4-0.3-0.3-0.6,0.2-1c0.3-0.2,0.4-0.2,0.7,0.1c0.5,0.4,0.5,0.6,0,1c-0.2,0.2-0.2,0.2-0.4,0.2
			C362.8,306.1,362.7,306.1,362.5,305.8L362.5,305.8z M364.9,306.6c-0.4-0.1-0.6-0.5-0.5-0.9c0.2-0.3,0.2-0.4,0.7-0.4
			c0.6,0,0.6,0.1,0.7,0.6c0,0.3,0,0.4-0.2,0.6C365.4,306.6,365.2,306.7,364.9,306.6L364.9,306.6z M436.2,306.6
			c-0.2-0.1-0.2-0.2-0.2-0.4c0-0.3,0.2-0.6,0.6-0.7c0.5-0.2,0.8-0.2,1,0.2c0.2,0.5,0.2,0.6-0.1,1c-0.2,0.2-0.2,0.2-0.6,0.2
			S436.4,306.9,436.2,306.6L436.2,306.6z M368.2,307.6c-0.3,0-0.5-0.3-0.5-0.6c0-0.2,0-0.3,0.2-0.5l0.5-0.2l0.5,0.1
			c0.4,0.3,0.5,0.6,0.2,1C368.9,307.7,368.6,307.7,368.2,307.6L368.2,307.6z M385.7,308.4l-0.2-0.2c0-0.5,0-0.9,0.2-1.4
			c0.1-0.4,0-0.8,0.2-1.2l0.3-2.2c0-0.4,0-0.8,0.2-1.1c0.1-0.6,0-1.2,0.2-1.8c0-0.2,0.2-0.8,0.5-0.5c0.3,0.5,0.7,0.8,1.1,1.2
			c0.3,0.2,0,0.6-0.2,0.6c-0.3,0.1-0.4,0.5-0.4,0.8l-0.2,1c0,0.6,0,1-0.2,1.6l-0.1,1.4l-0.2,1c0,0.3,0,0.7-0.3,0.9
			C386.3,308.6,385.9,308.6,385.7,308.4L385.7,308.4z M409.4,300.6l-1,1c-0.5,0.4,0.4,0.6,0.5,0.9c0.2,0.5,0.2,1,0.2,1.4
			c0.2,0.5,0.2,0.9,0.2,1.4c0,0.6-0.6,0.4-1,0.7c-0.4,0.2-0.6,0.6-0.8,0.8c-0.2,0.4-0.3,0.8-0.3,1.3c0,0.4-0.2,0.8,0,1.1l0.1,0.2
			h0.4l1.2-0.1c1-0.2,2-0.2,3-0.2l1.8-0.2c0.5,0.1,0.7-0.4,0.7-0.8c-0.3-0.6-0.1-1.1-0.3-1.6c-0.2-0.6-0.1-1.2-0.2-1.8
			c0-0.5-0.6-0.6-0.8-0.3c-0.3,0.3-0.8,0.4-1,0.7c-0.2,0.5,0.5,0.5,0.6,0.8l0.1,1.2c0.1,0.5-0.4,0.5-0.8,0.6c-0.4,0.2-1,0.2-1.2-0.2
			c-0.2-0.4-0.2-0.8-0.2-1.2c0-0.8-0.2-1.4-0.2-2.2c0-0.8-0.2-1.7-0.2-2.6C410.1,301,410,300.5,409.4,300.6L409.4,300.6z M409,307.1
			h0.2v0.6l-0.2,0.1c-0.1,0-0.2,0.1-0.3,0.1c-0.1,0-0.1,0-0.2,0c-0.2-0.2-0.2-0.4,0.1-0.6L409,307.1z M385,299.8
			c-0.2,0-0.6,0.6-1,0.5c-0.7,0.1-0.6,0.8-0.1,1v0.6c0.1,0.6-0.3,1.2-0.2,1.8c0,0.6-0.2,1.4-0.2,2.1c-0.2,0.7-0.2,1.4-0.3,2.2
			c-0.1,0.6-0.6,0.4-1,0.2v-0.8c0.1-0.7-0.4-0.9-1-1c-0.6,0-0.8-0.4-0.6-0.9c0.2-0.3,0.8-0.2,1.2-0.2c0.8,0.2,0.7-0.9,0.3-1.3
			c-0.3-0.5-1-0.8-1.1-1.3c0-0.6-0.4-1.4-1-1.7c-0.9-0.1-1.6,0.6-1.8,1.4c-0.4,0-0.8,0.2-1.1,0.3c-0.6,0.2-1.4,1.1-0.6,1.5
			c0.4,0.1,1.8,0.4,1.1,1c-0.3,0.6-1,0.6-1.5,0.5c-0.6,0-1.2-0.3-1.2-1c-0.1-0.6-0.1-1.3-0.3-1.8c-0.2-0.6-0.9-0.5-1,0.2
			c-0.6,0.4-0.5,1.1-0.1,1.6c0.2,0.6,0,1.3-0.2,1.8c-0.2,0.8-1,0.8-1.5,1c-0.2,0.2-1.3,0-0.9,0.6c0.6,0.2,1.3,0.4,1.9,0.2
			c0.6,0,1.2-0.6,1.6-1.1c0.4-0.4,1.1-0.2,1.8-0.2c0.6,0,1.2,0.4,1.8,0.1c0.2-0.4,1-1.2,1.2-0.4c0,0.7,0.6,1,1.2,1
			c0.7,0,0.4,0.5,0.4,1c0,0.7,0.6,1.1,1.2,1.4h0.6c0.6-0.2,1.2-0.5,1.4-1.1c0.2-0.6,0.2-1.2,0.4-1.8c0.2-0.9,0.3-1.8,0.3-2.7
			c0.2-0.8,0.2-1.7,0.3-2.6l0.2-1.8C385.4,299.7,385.2,299.7,385,299.8L385,299.8z M379.6,303c0.1,0,0.2,0.2,0.2,0.4
			c0,0.3,0.2,0.6,0.4,0.6v0.2l-0.6,0.2c-0.4,0-0.7-0.2-1-0.4l-0.2-0.2l0.2-0.2l0.4-0.4C379.3,303.1,379.4,303,379.6,303L379.6,303z
			 M432.4,296.7c-0.5,0-0.9,0.1-1.4,0.2c-0.8,0-1.2,0.8-0.4,1.3c0.5,1.2,1.2-0.3,2-0.2c1.1,0.2,1.2,1.4,1.4,2.4
			c0,0.9,0.3,1.8,0.6,2.6c0.8,0.9-0.6,1.4-1.1,0.8c-0.5-0.6-1.6-1.2-2.2-0.5c-0.7,0.3-0.8,1.3-1.4,1.6c-1,0.2-1-1-1.6-1.4
			c-0.5-0.7-1.4-0.8-2.1-1c-0.3-0.7-0.2-1.9-0.8-2.4c-0.6,0.2-1.8,1.4-0.8,1.9c0.8,0.8-0.4,1.1-0.8,1.6c-0.6,0.7-0.8,1.6-0.8,2.4
			c-1,0.6-1.2-0.6-1.4-1.4c0-0.9-0.8-0.6-1.4-0.3c-0.8,0.3-1.1,1-1.6,1.6v1.6c0.2,0.7,1,0.4,1.4,0.3c0.8-0.3,1.1,0.6,0.5,1
			c-0.5,0.5-1.8,0.2-1.6,1.1h1.3c0.8-0.2,1.8-0.9,1.8-1.8c0.2-0.8,1.4-0.7,2-0.9c0.8-0.2,1.8-0.3,2.1,0.8c0.6,0.6,1.8,1.2,2.4,0.4
			c0.6-0.4,1-1.1,0.9-1.8c-0.1-0.6,1-0.6,1.4-0.2c0.4,0.6,1.7,0.5,2.3,0c0.6-0.4,0.8-1.3,1.8-1.3l4.3-1.2c1.1-0.2-0.2-1-0.5-1.4
			c-0.8-0.4-1.6,1.4-2.6,0.5c-0.8-0.6-0.7-1.6-1-2.5c-0.2-1.1-0.2-2.4-1-3.2C433.9,296.9,433.1,296.7,432.4,296.7L432.4,296.7z
			 M427,304.3c0.1,0,0.2,0,0.4,0.2c0.3,0.2,0.6,0.5,0.6,0.8c0,0.2,0,0.2-0.2,0.2l-0.4,0.2c-0.2,0-0.6-0.2-0.6-0.4V305
			c-0.2-0.3-0.2-0.3,0-0.5L427,304.3z M432.2,304.6c0.3,0,0.5,0,0.6,0.2c0.1,0.3,0,0.5-0.3,0.6l-0.4,0.2l-0.3-0.2
			c-0.2-0.1-0.2-0.2-0.2-0.3C431.5,304.9,431.8,304.6,432.2,304.6L432.2,304.6L432.2,304.6z M425,304.6c0.2,0,0.2,0,0.3,0.2
			c0.2,0.2,0.2,0.2,0.2,0.5v0.5c0,0.2,0,0.2-0.5,0.2s-0.6,0-0.6-0.5c0-0.3,0-0.4,0.2-0.6C424.8,304.7,425,304.7,425,304.6L425,304.6
			z M420.6,305.8c0.2,0.1,0.2,0.2,0.3,0.3c0,0.2,0,0.4-0.2,0.5c-0.2,0.1-0.6,0.2-0.8,0v-0.1c-0.2-0.1-0.2-0.2,0-0.2v-0.1l0.2-0.2
			C420.2,305.8,420.5,305.8,420.6,305.8z M428,306.8l0.4,0.1v0.5h-1l-0.1-0.2c0-0.2,0-0.2,0.2-0.3L428,306.8z M414.3,310.6
			c-0.1,0-0.2-0.1-0.1-0.2c0.1-0.2,0.4-0.3,0.6-0.5c0.4-0.2,0.8-0.5,1.1-0.8c0-0.3,0.3-0.5,0.3-0.8l-0.1-1.1
			c-0.1-0.3-0.3-0.6-0.6-0.8c-0.2-0.1-0.6-0.2-0.6-0.5c0-0.2,0.2-0.5,0.3-0.7l0.5-1c0.2-0.2,0.6,0,0.6,0.2l0.4,0.8
			c0.2,0.2,0.4,0.5,0.5,0.8c0.2,0.3,0.3,0.6,0.3,0.8l0.2,1c0,0.4,0,0.9-0.2,1.3l-0.5,0.6c-0.2,0.2-0.5,0.5-0.8,0.6
			c-0.2,0.1-0.4,0.3-0.7,0.3L414.3,310.6L414.3,310.6L414.3,310.6z M408.8,311c-0.2-0.2-0.2-0.2-0.2-0.5s0-0.2,0.2-0.5
			c0.3-0.3,0.5-0.3,1.1,0c0.6,0.3,0.8,0.3,0.8,0.1c0.1-0.2,0.4-0.4,0.8-0.4c0.2,0,0.3,0.1,0.4,0.2c0.2,0.2,0.2,0.2,0.2,0.6
			c0,0.4,0,0.4-0.2,0.6c-0.2,0.2-0.2,0.2-0.6,0.2s-0.6-0.2-0.6-0.5c0-0.2,0-0.2-0.2-0.1l-0.2,0.1c-0.2,0-0.5,0.2-0.6,0.4l-0.4,0.1
			C409,311.2,409,311.2,408.8,311L408.8,311z M393,303.8c-0.6,0-1.1,0.5-1.2,1c0.2,0.6,0.6,1.2,0.3,1.8c0.2,0.8-0.6,1.1-1.2,0.7
			c-0.3-0.8-0.5-1.6-1-2.4c-0.6-0.2-0.9,0.9-1.4,1.3c0.2,0.6,0.9,1.1,1,1.8c0.2,0.8-0.3,1.6-0.9,1.9c-0.6,0.6-1.4,0.4-2,0.5
			c-0.8,0.5,0.6,0.6,1,0.6c0.8,0.1,1.7,0,2.4-0.6c0.6-0.2,0.5-1.4,1.2-1.4l3.8,0.2c0.6,0.2,1.7-0.1,2.2,0.4c0,0.8,0.8,1.4,1.5,1.8
			c0.4,0.2,0.8-0.4,1.2-0.5c0.8-0.2,0.6-1.2,1-1.6h4c0.2,0,0.2-0.4,0.5-0.6l-0.2-1.5c-0.2-0.6,0-1.4-0.4-2c-0.7-0.2-1.3,0.4-1.9,0.5
			c-0.8,0.3-1.4,1-1.4,1.8c-0.4,0.7-1.1-0.2-0.8-0.8l-0.1-0.8c-0.4-0.4-1.1-0.2-1.7-0.3l-2.4-0.2c-0.8,0-1.5,0.1-2.2-0.1
			c-0.8,0-0.8-0.8-0.8-1.4C393.4,303.8,393.2,303.8,393,303.8L393,303.8z M394.6,306.8l0.8,0.1h1c0.8,0.2,1.6,0.2,2.4,0.2
			c0.2,0,0.3,0.2,0.5,0.3v1.6c0,0.2,0,0.6-0.2,0.6c-0.1,0.1-0.1,0.1-0.2,0.2c-0.2-0.1-0.5-0.2-0.6-0.4v-1.1
			c-0.2-0.2-0.3-0.2-0.6-0.2l-2.1-0.1l-1.6-0.1c-0.2-0.1-0.6,0-0.7-0.3c-0.2-0.2,0.1-0.5,0.3-0.6C394,306.9,394.3,306.8,394.6,306.8
			L394.6,306.8z M403.6,307c0.1,0,0.2,0,0.2,0.2l0.2,0.4c0,0.1,0,0.2-0.2,0.2c-0.4,0.2-0.8,0.2-1,0c0-0.1,0-0.4,0.2-0.5L403.6,307z"
			/>
	</g>
</g>
<path class="st10" d="M400,261.8c26.1-20,23.8-49.4,23.8-49.4l-2,0.2c-5.5,0-18.6-3.2-21.6-7.1c-3.2,3.6-16.6,7.2-22.1,7.2l-2-0.2
	C376.2,212.3,373.8,241.7,400,261.8L400,261.8z"/>
<path class="st11" d="M421.8,214.4h-0.6c-5,0-16.5-2.5-21-6.3c-4.6,3.5-16.4,6.4-21.3,6.4c-0.2,0-0.4,0-0.6-0.1
	c0.1,5,0.7,10.1,2.1,15c3.2,11.8,10.1,22.2,19.7,29.7c9.6-7.5,16.5-18,19.7-29.8C421,224.4,421.7,219.4,421.8,214.4L421.8,214.4z"/>
<path class="st3" d="M391.5,212c-4.3,1.4-8.8,2.2-13.3,2.4l0.1,3.3c0.2,3.9,1,7.8,2,11.6c2.2,7.8,6,15.2,11.2,21.4V212z M408,212
	v39.4c5.5-6.4,9.4-13.9,11.7-22.1c1-3.8,1.8-7.7,2-11.6l0.1-3.2h-0.6C418.1,214.5,412.8,213.5,408,212L408,212z"/>
<g>
	<path class="st12" d="M409.8,202.4c0.6,0.1-0.7-2.8-0.7-2.8c1.4,1.4,6.7,1.8,6.7,1.8c-3.2-1.4-6.4-12.1-6-20.6
		c0.3-8.5-1.2-11.8-2.4-13.1c-1.6-1.6-6.8-3-10.2-3.2c-2-0.1-1.6,1.4-1.6,1.4c-3.6-0.9-7.2-1.3-8.8-0.2c-1.4,1-1.8,6-0.6,5.1
		c2.6-2.2,5-0.2,6.6,2.2c1.4,2,1.4,7.8-0.7,14.6c-1.8,5.1-4.6,9.9-8,14.2c3.2,0,7.7-2.8,7.7-2.8l-1,4.4c3.4-1.6,6-4.1,6-4.1l3.2,3.4
		c1-1.4,3.2-3.4,3.2-3.4S405.8,202.1,409.8,202.4L409.8,202.4z"/>
	<path class="st13" d="M396.9,182.1c0,0-1.8,13.1-5.1,16.8 M399.8,181.7c0,0-0.8,13.4-3,17.6 M402.2,182.2c0,0,0,14.6,0.8,17
		 M405.4,183c0,0,0.6,12.2,3.7,16.6"/>
	<path class="st14" d="M393.6,175.7c-0.1-1-0.3-1.8-0.8-2.6c-1.6-2.4-3.9-4.3-6.6-2.2c0,0,0.9-2.8,2.9-2.9c1.4-0.1,4.9,1.1,7.9,6.2
		c0,0-2.2-0.5-2.8,0C393.3,175,393.7,175.7,393.6,175.7L393.6,175.7z"/>
	<path class="st14" d="M385.9,167.4c0.2-0.8,0.6-1.4,1-1.7c1.6-1.1,5.1-0.8,8.7,0.2c0,0-0.3-1.5,1.6-1.4c3.4,0.2,8.5,1.6,10.1,3.2
		c0.5,0.6,0.9,1.2,1.2,1.9c-0.8-1.1-3-1-3.6-1c-0.8,0.1-1.4,0-2.5,0.3c-0.6,0.2-1.4,0.3-1.8,0.6c-0.3,0.3-0.6,1.3-1.1,1.3
		c-0.8,0-0.8-0.2-1-0.4c-0.2-0.4-0.4-0.9-0.7-0.8c-0.8,0.1-2.2-0.6-4-2c-1.8-1.4-2.6-1.8-4.8-1.6c-2.4,0.2-3,1.5-3,1.5V167.4
		L385.9,167.4z"/>
	<circle class="st0" cx="399" cy="168.6" r="1"/>
</g>
</svg>
