<?xml version="1.0" encoding="utf-8"?>
<!-- Generator: Adobe Illustrator 24.0.1, SVG Export Plug-In . SVG Version: 6.00 Build 0)  -->
<svg version="1.1" id="flag-icons-er" xmlns="http://www.w3.org/2000/svg" xmlns:xlink="http://www.w3.org/1999/xlink" x="0px"
	 y="0px" viewBox="0 0 800 480" style="enable-background:new 0 0 800 480;" xml:space="preserve">
<style type="text/css">
	.st0{fill-rule:evenodd;clip-rule:evenodd;fill:#BE0027;}
	.st1{fill-rule:evenodd;clip-rule:evenodd;fill:#B4D7F4;}
	.st2{fill-rule:evenodd;clip-rule:evenodd;fill:#239E46;}
	.st3{fill-rule:evenodd;clip-rule:evenodd;fill:#F3E295;}
</style>
<path class="st0" d="M0,0h800v480H0V0z"/>
<path class="st1" d="M0,480l800-0.3V240L0,480z"/>
<path class="st2" d="M0,0l800,0.3V240L0,0z"/>
<path class="st3" d="M169.2,360.4c-10.7,3-16.8,11.3-16.7,19.1l52.8-0.2c0.4-8.4-6.5-16.2-17-19.3c51.6-1,96.4-20.4,104.6-32.8
	c-8-3.5-17.4,2.1-24,0.8c15.7-7.3,63-37.9,55.3-70.7c-6,18.2-24,33.3-31.8,37.4c17.7-26.8,41.8-54.8,20.9-76.4
	c1,12.5-8,26.3-12,27.4c10.3-28.4,20-64-2.1-87.4c2.9,8.5,1.7,32.4-2.3,33.5c-1.2-19.3-4.5-59.8-24.8-59.3
	c6.4,5.8,9.2,21.4,9.4,37.2c-4.1-10.9-11.5-20.4-21.1-27c-10-17.4-24.3-31.9-41.5-42.2c1.8,12.7,3.3,22.7,21,35.9
	c-9.2-0.6-18.4-18.1-28.3-18.6c-7.9-0.4-14,7.1-26.9,2.8c1.4,4.2,7.4,6.1,8.7,9.2c-2.8,2-9.3-0.3-14.7-3c7.5,10,19,16,28.8,14
	c11.7-2.2,24.2-1,36.2,5.8c-7.4,1.5-15,1.8-22.5,0.6c6.9,7,11.5,11.7,23.6,11.6c10.7,0,16.4-5.8,19.1-2.2c6.8,8,11.3,16,17,25.4
	c-12.5,1.3-8.7-14.1-22.6-22c-7.9,16,9,35.2,20.3,43.2c-0.3,10.9,2.1,21.8,7.1,31.5c3.5,6.5,8,13.2,6.3,27.9
	c-6.9-5-13.5-21.8-11-35.1c-8.6,2.3-12,17.4-8,25c3,5.7,5,16.8,1.6,21.7c-3.4,4.6-3.7,4-3.7,14c0.1,5.8-3.2,12.8-8.5,17.7
	c1.6-5.1,1.9-10.5,1.1-15.8c-4.2,7.2-14.9,14.6-18.2,22.4c-3.3,7.7-4.1,21.2-20,24.3c-20.6,4-27.7,7.6-40.8,13
	c-1.5-10,2.9-31,11.3-29.7c8.1,1.4,33-8.6,24-29.5c-1.7,6.6-7.5,13-13.9,13.3c6.9-8.8,19-18,13.1-32.8c-3.6,7.5-9.2,13.7-16.3,18
	c8.4-16,1-21-9-7.6c-3.8,5.1-6.1,15.4-8.5,28.5c-4-10.6-3.7-24.6-8.4-36c-4.8-12.3,6.5-15.5,11.8-14.5c13,3.5,34.9,3.5,33.3-18.1
	c-5.7,7.3-15.5,9.5-26.2,7c12-8.8,21.4-25.3,8-34c-1.2,10.4-7.6,19.4-16.9,24.1c-2.1-8.1-2.3-16.6-0.3-24.8c-5.2,5.6-9,17-12.1,30.2
	c-0.3-13,2.2-22.3,4-29.3c2.8-10.1,9.6-3.5,20-2.8c10.2,0.6,24-5,21.4-18.7c-3.4,5.5-10.5,7.6-17.7,7c8.7-5.3,23.8-14.6,15.5-29
	c-3.5,5.4-4.6,10-14.7,11.7c2.6-6,3-14.7,11-18c-14-2.9-22,6.3-26.2,20.7c-1.6-10-3.6-13.6-4-21c7.6-8.3,8.4-24.8-8-28.4
	c-1.1,5.8-0.7,11.8,1.2,17.4c-7.7-4.6-18.5-7.1-25.8-0.7c5,5.3,12.5,10,24.2,4.2c-2.8,9-10,7.5-19.8,4c6,11.3,13.6,13.3,22,12
	c4.4,11.6,4.6,20.4-8.3,37.2c0.6-10.4-0.1-18.2-8.4-26.7c-7.2-7-13,0.3-1.8,15.8c-6.8-5-14.4-15-16.7-25.1
	c-2.2,12.4-0.2,27.1,6.7,35.4c-3.3,3.5-7-0.4-12.5-9c2,27.4,13.7,32.7,29.4,26.6c0.4,15,0.4,28.9,1.3,47
	c-9.1-13.2-20.7-23-27.1-25.4c-2,7.3,5.5,17,9.8,22.3c-6.5-1.4-20.5-12-20.5-12c-1.4,12.1,14.3,23.4,24.5,28.4
	c-12-0.5-17.3-5-25-12.4c0.2,33.8,36.6,27.9,43.5,22.7l3,52.5c-10.3-1.8-9.5-5-18.3-5.7c-24.5-1-43.9-29.4-50.3-50.3
	c-1.9,3.4-0.4,7-2.1,11.3c-4-10.3-9-23.6-15.9-29.8c1.8,6,2,12.1,1.4,23.3c-2.4-7.2-4.5-9.5-4.7-18c0.1-6.5,6.3-11.3,6-20.5
	c-0.3-6.7-6.4-21.3-7.3-32.5c-3,11.6-4.8,23.8-9.4,31c2.3-12.4,1.6-21,5.4-29.3c4.4-8.7,8.1-16.6,5.2-25.4c-2.8,3.4-1.9,6.5-9,14.8
	c-1.5-9,9.2-23.5,19.6-29.3c7.3-3.8,16.5-17.6,10.5-27c-6.9,5-10,11.6-19.7,23c7-27,25-34.2,46.5-34.3c4.7,0,14.3-1.7,17-8
	c-6,2.3-13.2,2.6-19.6,1.4c4.7-6.9,14.4-6,23.6-6c7.1,0,18.3-1,22.8-11.2c-9.9,3.9-20.7,4.5-31,1.9c13.7-7,35-7.8,46-17.1
	c-12.5-9.3-43.7,2.2-63.4,15.7c5.5-5,14.2-14,19-21.2c-10.8-5.2-38,25-47.4,43c-9,5-12.5,13-16,18.5c4.7-16.1,5.2-27.8,9.2-41
	C63,138,75.6,194.6,69,208.2c0.8-15,0.1-34.1-6-44c-9.4,7.2-10.2,49.5-1.4,84.7c-3.2-9.4-9.2-18.2-11.1-29.7
	c-14,25.4,8.2,55.5,26.7,79.2c-14-7.3-27.7-22.9-36.8-36c2.5,45.6,50,55,57.4,66.2c-10-4.7-29.1-13.9-37.3-4.2
	c11.4,2.1,22.3,6.2,32.3,12.1C105.2,351.9,128.5,358.7,169.2,360.4L169.2,360.4z"/>
</svg>
