<?xml version="1.0" encoding="utf-8"?>
<!-- Generator: Adobe Illustrator 24.0.1, SVG Export Plug-In . SVG Version: 6.00 Build 0)  -->
<svg version="1.1" id="flag-icons-es-ga" xmlns="http://www.w3.org/2000/svg" xmlns:xlink="http://www.w3.org/1999/xlink" x="0px"
	 y="0px" viewBox="0 0 800 480" style="enable-background:new 0 0 800 480;" xml:space="preserve">
<style type="text/css">
	.st0{fill-rule:evenodd;clip-rule:evenodd;fill:#FFFFFF;}
	.st1{fill:#0099CC;}
	.st2{fill:#005BBF;}
	.st3{fill:none;stroke:#000000;stroke-width:1.0667;stroke-miterlimit:4.2667;}
	.st4{fill:#D81126;}
	.st5{fill:none;stroke:#000000;stroke-width:1.6;stroke-miterlimit:4.2667;}
	.st6{fill:#BCAC0B;}
	.st7{fill:#C8B100;fill-opacity:0.9;}
	.st8{fill:none;stroke:#000000;stroke-width:0.32;stroke-miterlimit:4.2667;}
	.st9{fill:#CCCCCC;}
	.st10{fill:#FFCC00;}
	.st11{fill:#BCAC0B;stroke:#000000;stroke-width:0.5333;stroke-miterlimit:4.2667;}
	.st12{fill:#BCAC0B;stroke:#000000;stroke-width:0.7467;stroke-miterlimit:4.2667;}
	.st13{fill:#FFFFFF;}
	.st14{fill:none;stroke:#000000;stroke-width:0.7467;stroke-miterlimit:4.2667;}
	.st15{fill:none;stroke:#000000;stroke-width:0.5333;stroke-miterlimit:4.2667;}
	.st16{fill:#058E6E;fill-opacity:0.9;}
	.st17{fill:#FF0000;}
	.st18{fill:none;stroke:#000000;stroke-width:0.4267;stroke-miterlimit:4.2667;}
</style>
<g id="g5162" transform="matrix(1.06667 0 0 1.2001 0 -115.3)">
	<path id="rect733" class="st0" d="M0,96h750v400H0V96z"/>
	<path id="path556" class="st1" d="M750,437.8L107.5,96H0v57l645,343h105V437.8"/>
</g>
<g id="g4979" transform="matrix(1.06667 0 0 1.06758 0 -76)">
	<path id="path558" class="st2" d="M371.6,401.2c-60,0-58.1-56.5-58.1-56.5v-86.9h116.3v86.9C429.8,344.7,431.8,401.2,371.6,401.2"
		/>
	<path id="path559" class="st3" d="M371.6,401.2c-60,0-58.1-56.5-58.1-56.5v-86.9h116.3v86.9C429.8,344.7,431.8,401.2,371.6,401.2
		L371.6,401.2z"/>
	<path id="path560" class="st4" d="M371.1,203.2c0,0-12.4-6-24.1,2.8c0,0-21.1-3-22.7,17.2c0,0.8-0.2,2.3,0.2,2.8
		c0.4,0.4,0.8,1.2,0.8,1.8s0.3,0.9,0.5,1.1c0,0.3,0.4,0.7,0.5,1.7c0,1.1-0.2,1.6,0.9,2.7c1,1,1,4.1,1,5s0.6,3.3,1,3.8
		c0.5,0.5,1.3,1.8,1.3,2.9c0,1,0.4,4,0.2,4.7c-0.2,0.8,1.2,1.7,2.4,2.1c1.2,0.4,16,5.2,37.6,4.8c21.6-0.3,29.4-1.5,38.4-4.7
		c1-0.3,1.6-1.3,1.5-2.3c-0.2-0.6,0-2.6,0.3-3.1c0.4-0.5,3-4.6,2.4-5.3c-0.5-0.8-0.5-2.4,0-3c0.5-0.7,2.1-3.7,2.4-5
		c0.3-1.2,0.4-2.7,1-3.1c0.5-0.4,0.7-1.9,0.8-2.2c0.3-0.6,0.7-1.2,1.2-1.6c0,0,1-5.1,0.4-7.6c-0.7-2.5-4.5-13.3-19.8-11
		C399.3,207.7,387.9,199,371.1,203.2"/>
	<path id="path561" class="st5" d="M371.1,203.2c0,0-12.4-6-24.1,2.8c0,0-21.1-3-22.7,17.2c0,0.8-0.2,2.3,0.2,2.8
		c0.4,0.4,0.8,1.2,0.8,1.8s0.3,0.9,0.5,1.1c0,0.3,0.4,0.7,0.5,1.7c0,1.1-0.2,1.6,0.9,2.7c1,1,1,4.1,1,5s0.6,3.3,1,3.8
		c0.5,0.5,1.3,1.8,1.3,2.9c0,1,0.4,4,0.2,4.7c-0.2,0.8,1.2,1.7,2.4,2.1c1.2,0.4,16,5.2,37.6,4.8c21.6-0.3,29.4-1.5,38.4-4.7
		c1-0.3,1.6-1.3,1.5-2.3c-0.2-0.6,0-2.6,0.3-3.1c0.4-0.5,3-4.6,2.4-5.3c-0.5-0.8-0.5-2.4,0-3c0.5-0.7,2.1-3.7,2.4-5
		c0.3-1.2,0.4-2.7,1-3.1c0.5-0.4,0.7-1.9,0.8-2.2c0.3-0.6,0.7-1.2,1.2-1.6c0,0,1-5.1,0.4-7.6c-0.7-2.5-4.5-13.3-19.8-11
		C399.3,207.7,387.9,199,371.1,203.2L371.1,203.2z"/>
	<path id="path562" class="st6" d="M412.6,240.8c-47-14.9-83.4-0.7-83.4-0.7s0.4,1.6,0.8,2.1c0.4,0.5,1,1.7,1,2.6v2.8
		c0,0.7-0.4,3.7,2.2,3.6c0,0,32.8-12.8,75.4,0.7c0,0,1.2-1,1.2-2.5c0-1.4,0.3-2.8,1-4C411.3,244.6,412.6,242,412.6,240.8"/>
	<path id="path563" class="st7" d="M369,319.3h-20.5c0,0-2,18.3,13.8,23.9v1.6h3.3v2.2c0,0-5.8,5.2-0.7,11.2v1.8h0.8v3h1v4.7
		c0,0-0.8,17-17.6,25.2v1h44.7v-1c-16.7-8.1-17.5-25.2-17.5-25.2V363h1v-3h0.8v-1.8c5-6-0.8-11.2-0.8-11.2v-2.2h3.4v-1.6
		c15.7-5.6,13.7-23.9,13.7-23.9H369"/>
	<path id="path564" class="st3" d="M369,319.3h-20.5c0,0-2,18.3,13.8,23.9v1.6h3.3v2.2c0,0-5.8,5.2-0.7,11.2v1.8h0.8v3h1v4.7
		c0,0-0.8,17-17.6,25.2v1h44.7v-1c-16.7-8.1-17.5-25.2-17.5-25.2V363h1v-3h0.8v-1.8c5-6-0.8-11.2-0.8-11.2v-2.2h3.4v-1.6
		c15.7-5.6,13.7-23.9,13.7-23.9H369z"/>
	<path id="path565" class="st8" d="M361.6,342.9h19.7 M362.3,344.4h18.4 M365.7,346.9h11.5 M364.9,358.4H378 M365.6,359.8h11.6
		 M365.6,362.6h11.5 M358.6,385.8h25.5 M351.4,391.7h40 M349.9,392.6h43"/>
	<path id="path566" class="st9" d="M371.6,318.3c7.2,0,13.1-5.8,13.1-13c0-7.2-5.8-13.1-13.1-13.1c-7.2,0-13,5.8-13,13
		c0,7.2,5.8,13,13,13"/>
	<path id="path567" class="st3" d="M371.6,318.3c7.2,0,13.1-5.8,13.1-13c0-7.2-5.8-13.1-13.1-13.1c-7.2,0-13,5.8-13,13
		c0,7.2,5.8,13,13,13V318.3z"/>
	<path id="path568" class="st9" d="M341.3,280h-8.1v-8.2H326v8.2h-8.2v7.2h8.2v8h7.2v-8h8L341.3,280"/>
	<path id="path569" class="st3" d="M341.3,280h-8.1v-8.2H326v8.2h-8.2v7.2h8.2v8h7.2v-8h8L341.3,280"/>
	<path id="path570" class="st9" d="M425.8,280h-8.1v-8.2h-7.2v8.2h-8.2v7.2h8.2v8h7.2v-8h8.1V280"/>
	<path id="path571" class="st3" d="M425.8,280h-8.1v-8.2h-7.2v8.2h-8.2v7.2h8.2v8h7.2v-8h8.1V280"/>
	<path id="path572" class="st9" d="M383,269.7h-8.2v-8h-7.2v8h-8v7.2h8v8.2h7.2v-8.2h8.2V269.7"/>
	<path id="path573" class="st3" d="M383,269.7h-8.2v-8h-7.2v8h-8v7.2h8v8.2h7.2v-8.2h8.2V269.7"/>
	<path id="path574" class="st9" d="M341.3,315.2h-8.1V307H326v8.2h-8.2v7.2h8.2v8h7.2v-8h8L341.3,315.2"/>
	<path id="path575" class="st3" d="M341.3,315.2h-8.1V307H326v8.2h-8.2v7.2h8.2v8h7.2v-8h8L341.3,315.2"/>
	<path id="path576" class="st9" d="M425.8,315.2h-8.1V307h-7.2v8.2h-8.2v7.2h8.2v8h7.2v-8h8.1V315.2"/>
	<path id="path577" class="st3" d="M425.8,315.2h-8.1V307h-7.2v8.2h-8.2v7.2h8.2v8h7.2v-8h8.1V315.2"/>
	<path id="path578" class="st9" d="M341.3,350.7h-8.1v-8.1H326v8.1h-8.2v7.2h8.2v8.1h7.2v-8h8L341.3,350.7"/>
	<path id="path579" class="st3" d="M341.3,350.7h-8.1v-8.1H326v8.1h-8.2v7.2h8.2v8.1h7.2v-8h8L341.3,350.7"/>
	<path id="path580" class="st9" d="M425.8,350.7h-8.1v-8.1h-7.2v8.1h-8.2v7.2h8.2v8.1h7.2v-8h8.1V350.7"/>
	<path id="path581" class="st3" d="M425.8,350.7h-8.1v-8.1h-7.2v8.1h-8.2v7.2h8.2v8.1h7.2v-8h8.1V350.7"/>
	<path id="path582" class="st2" d="M371.5,185.8c4.3,0,7.9-3.5,7.9-7.8c0-4.3-3.5-7.9-7.9-7.9s-7.9,3.5-7.9,7.9
		C363.6,182.3,367.2,185.8,371.5,185.8"/>
	<path id="path583" class="st3" d="M371.5,185.8c4.3,0,7.9-3.5,7.9-7.8c0-4.3-3.5-7.9-7.9-7.9s-7.9,3.5-7.9,7.9
		C363.6,182.3,367.2,185.8,371.5,185.8z"/>
	<path id="path584" class="st10" d="M378.8,176.6h-6.4v-10.4h2.5v-2h-2.5v-2.5h-2v2.4h-2.5v2.1h2.4v10.4h-6v1.4h14.5V176.6"/>
	<path id="path585" class="st11" d="M378.8,176.6h-6.4v-10.4h2.5v-2h-2.5v-2.5h-2v2.4h-2.5v2.1h2.4v10.4h-6v1.4h14.5V176.6"/>
	<path id="path586" class="st10" d="M340.2,195.1c0,0,5.8-0.6,9.1,0.7c0,0-3.8,4.4-3,10.1c0.4,3,1,4.5,1.9,6
		c0.8,1.3,1.7,4.3,1.2,6.6h1.1c0,0,1.1-4.8-0.7-7.4c-2.2-3-2.6-6.9-1-10.3c1.9-3.8,4.6-5.3,4.6-5.3c3,1.2,9.6,0,11.4-1.3
		c1.9-1.3,2.8-3.2-0.6-3.3c-3.5-0.2-9.3-0.1-13.3,2.9c0,0-2.1-2.4-12.6-1.3c-10.5,1.2-18,5.7-20.4,15.1c-1.2,4.8,3.3,14.9,7.4,17.3
		c0,0-0.1-1.6,0.3-2.8c0,0-7-7.9-5-15.2C322.8,199.7,331.2,194.9,340.2,195.1"/>
	<path id="path587" class="st12" d="M340.2,195.1c0,0,5.8-0.6,9.1,0.7c0,0-3.8,4.4-3,10.1c0.4,3,1,4.5,1.9,6
		c0.8,1.3,1.7,4.3,1.2,6.6h1.1c0,0,1.1-4.8-0.7-7.4c-2.2-3-2.6-6.9-1-10.3c1.9-3.8,4.6-5.3,4.6-5.3c3,1.2,9.6,0,11.4-1.3
		c1.9-1.3,2.8-3.2-0.6-3.3c-3.5-0.2-9.3-0.1-13.3,2.9c0,0-2.1-2.4-12.6-1.3c-10.5,1.2-18,5.7-20.4,15.1c-1.2,4.8,3.3,14.9,7.4,17.3
		c0,0-0.1-1.6,0.3-2.8c0,0-7-7.9-5-15.2C322.8,199.7,331.2,194.9,340.2,195.1z"/>
	<path id="path588" class="st13" d="M359.9,193.7c1.8-0.2,3.3-0.5,3.2-0.7c0-0.3-1.5-0.3-3.3-0.2s-3.2,0.5-3.2,0.7
		C356.6,193.8,358.1,193.8,359.9,193.7"/>
	<path id="path589" class="st14" d="M353.3,195.4C353.3,195.4,351.3,197.4,353.3,195.4s6.4-3.2,8.9-2.7c2.4,0.6-0.5,0.9-1.3,1
		c-0.8,0-2.4,0.3-4.8,0"/>
	<path id="path590" class="st10" d="M402.7,195.8c0,0-5.7-0.7-9.1,0.6c3.6,4.6,4,10.9,1.2,16c-0.9,1.5-1.8,4.4-1.3,6.7h-1
		c0,0-1.2-4.7,0.7-7.4c2.2-3,2.5-6.9,0.9-10.2c-1-2.2-2.5-4.1-4.5-5.4c-3.1,1.3-9.7,0-11.5-1.3s-2.8-3.1,0.7-3.3
		c3.4-0.2,9.3-0.1,13.3,3c0,0,2-2.5,12.6-1.3c10.4,1.1,18,5.6,20.3,15c1.2,4.8-3.2,14.9-7.3,17.3c0,0,0-1.6-0.3-2.8
		c0,0,7-7.8,4.9-15.1S411.8,195.6,402.7,195.8"/>
	<path id="path591" class="st12" d="M402.7,195.8c0,0-5.7-0.7-9.1,0.6c3.6,4.6,4,10.9,1.2,16c-0.9,1.5-1.8,4.4-1.3,6.7h-1
		c0,0-1.2-4.7,0.7-7.4c2.2-3,2.5-6.9,0.9-10.2c-1-2.2-2.5-4.1-4.5-5.4c-3.1,1.3-9.7,0-11.5-1.3s-2.8-3.1,0.7-3.3
		c3.4-0.2,9.3-0.1,13.3,3c0,0,2-2.5,12.6-1.3c10.4,1.1,18,5.6,20.3,15c1.2,4.8-3.2,14.9-7.3,17.3c0,0,0-1.6-0.3-2.8
		c0,0,7-7.8,4.9-15.1S411.8,195.6,402.7,195.8L402.7,195.8z"/>
	<path id="path592" class="st13" d="M383,194.3c-1.8-0.1-3.2-0.4-3.2-0.7c0-0.2,1.5-0.3,3.3-0.2c1.8,0.2,3.3,0.5,3.3,0.7
		C386.4,194.4,384.9,194.5,383,194.3"/>
	<path id="path593" class="st14" d="M389.6,196C389.6,196,391.7,198,389.6,196c-2-1.9-6.4-3.2-8.8-2.6c-2.5,0.5,0.4,0.8,1.2,0.9
		c0.9,0,2.5,0.4,4.9,0"/>
	<path id="path594" class="st10" d="M366.1,189.3v22.3c-0.2,2.2,2.7,5.3,4.8,6.2c0,0,5-1.6,5.3-6.2v-23.5h-1.7v20.4
		c0,2-1.4,5.8-3.3,6.4c0,0-3.6-0.6-3.8-6.4v-19.8L366.1,189.3"/>
	<path id="path595" class="st12" d="M366.1,189.3v22.3c-0.2,2.2,2.7,5.3,4.8,6.2c0,0,5-1.6,5.3-6.2v-23.5h-1.7v20.4
		c0,2-1.4,5.8-3.3,6.4c0,0-3.6-0.6-3.8-6.4v-19.8L366.1,189.3"/>
	<path id="path596" class="st13" d="M316.8,219.8c1.5,0.3,2.9-0.7,3.2-2.1c0.3-1.5-0.7-2.9-2.1-3.2c-0.3-0.1-0.7-0.1-1,0
		c-1.5,0.3-2.4,1.7-2.1,3.2C314.9,218.7,315.7,219.6,316.8,219.8"/>
	<path id="path597" class="st3" d="M316.8,219.8c1.5,0.3,2.9-0.7,3.2-2.1c0.3-1.5-0.7-2.9-2.1-3.2c-0.3-0.1-0.7-0.1-1,0
		c-1.5,0.3-2.4,1.7-2.1,3.2C314.9,218.7,315.7,219.6,316.8,219.8z"/>
	<path id="path598" class="st13" d="M315.1,213.7c1.5,0.3,2.9-0.7,3.2-2.1c0.3-1.5-0.7-2.9-2.1-3.2c-0.3-0.1-0.7-0.1-1,0
		c-1.5,0.3-2.4,1.7-2.1,3.2C313.2,212.6,314,213.5,315.1,213.7"/>
	<path id="path599" class="st3" d="M315.1,213.7c1.5,0.3,2.9-0.7,3.2-2.1c0.3-1.5-0.7-2.9-2.1-3.2c-0.3-0.1-0.7-0.1-1,0
		c-1.5,0.3-2.4,1.7-2.1,3.2C313.2,212.6,314,213.5,315.1,213.7z"/>
	<path id="path600" class="st13" d="M316,206.3c1.5,0.3,2.9-0.7,3.2-2.1c0.3-1.5-0.7-2.9-2.1-3.2c-0.3-0.1-0.7-0.1-1,0
		c-1.5,0.3-2.4,1.7-2.1,3.2C314.1,205.2,314.9,206.1,316,206.3"/>
	<path id="path601" class="st3" d="M316,206.3c1.5,0.3,2.9-0.7,3.2-2.1c0.3-1.5-0.7-2.9-2.1-3.2c-0.3-0.1-0.7-0.1-1,0
		c-1.5,0.3-2.4,1.7-2.1,3.2C314.1,205.2,314.9,206.1,316,206.3z"/>
	<path id="path602" class="st13" d="M320.1,200.1c1.5,0.3,2.9-0.7,3.2-2.1c0.3-1.5-0.7-2.9-2.1-3.2c-0.3-0.1-0.7-0.1-1,0
		c-1.5,0.3-2.4,1.7-2.1,3.2C318.2,199,319,199.9,320.1,200.1"/>
	<path id="path603" class="st3" d="M320.1,200.1c1.5,0.3,2.9-0.7,3.2-2.1c0.3-1.5-0.7-2.9-2.1-3.2c-0.3-0.1-0.7-0.1-1,0
		c-1.5,0.3-2.4,1.7-2.1,3.2C318.2,199,319,199.9,320.1,200.1z"/>
	<path id="path604" class="st13" d="M325,195.6c1.5,0.3,2.9-0.7,3.2-2.1c0.3-1.5-0.7-2.9-2.1-3.2c-0.3-0.1-0.7-0.1-1,0
		c-1.5,0.3-2.4,1.7-2.1,3.2C323.1,194.5,323.9,195.4,325,195.6"/>
	<path id="path605" class="st3" d="M325,195.6c1.5,0.3,2.9-0.7,3.2-2.1c0.3-1.5-0.7-2.9-2.1-3.2c-0.3-0.1-0.7-0.1-1,0
		c-1.5,0.3-2.4,1.7-2.1,3.2C323.1,194.5,323.9,195.4,325,195.6z"/>
	<path id="path606" class="st13" d="M331.4,193.1c1.5,0.3,2.9-0.7,3.2-2.1c0.3-1.5-0.7-2.9-2.1-3.2c-0.3-0.1-0.7-0.1-1,0
		c-1.5,0.3-2.4,1.7-2.1,3.2C329.5,192,330.3,192.9,331.4,193.1"/>
	<path id="path607" class="st3" d="M331.4,193.1c1.5,0.3,2.9-0.7,3.2-2.1c0.3-1.5-0.7-2.9-2.1-3.2c-0.3-0.1-0.7-0.1-1,0
		c-1.5,0.3-2.4,1.7-2.1,3.2C329.5,192,330.3,192.9,331.4,193.1z"/>
	<path id="path608" class="st13" d="M338,192c1.5,0,2.7-1.2,2.7-2.7c0-1.5-1.2-2.7-2.7-2.7c0,0,0,0,0,0c-1.5,0.3-2.4,1.7-2.1,3.2
		C336.1,190.8,336.9,191.7,338,192"/>
	<path id="path609" class="st3" d="M338,192c1.5,0,2.7-1.2,2.7-2.7c0-1.5-1.2-2.7-2.7-2.7c0,0,0,0,0,0c-1.5,0.3-2.4,1.7-2.1,3.2
		C336.1,190.8,336.9,191.7,338,192L338,192z"/>
	<path id="path610" class="st13" d="M344.3,191.6c1.5,0,2.7-1.2,2.7-2.7c0-1.5-1.2-2.7-2.7-2.7c0,0,0,0,0,0c-1.5,0-2.7,1.2-2.7,2.7
		C341.6,190.4,342.8,191.6,344.3,191.6"/>
	<path id="path611" class="st3" d="M344.3,191.6c1.5,0,2.7-1.2,2.7-2.7c0-1.5-1.2-2.7-2.7-2.7c0,0,0,0,0,0c-1.5,0-2.7,1.2-2.7,2.7
		C341.6,190.4,342.8,191.6,344.3,191.6z"/>
	<path id="path612" class="st13" d="M350,192c1.5,0.3,2.9-0.7,3.2-2.1c0.3-1.5-0.7-2.9-2.1-3.2c-0.3-0.1-0.7-0.1-1,0
		c-1.5,0-2.7,1.2-2.7,2.7C347.3,190.9,348.5,192.1,350,192"/>
	<path id="path613" class="st3" d="M350,192c1.5,0.3,2.9-0.7,3.2-2.1c0.3-1.5-0.7-2.9-2.1-3.2c-0.3-0.1-0.7-0.1-1,0
		c-1.5,0-2.7,1.2-2.7,2.7C347.3,190.9,348.5,192.1,350,192L350,192z"/>
	<path id="path614" class="st13" d="M366,190c1.5,0.3,2.9-0.7,3.2-2.1c0.3-1.5-0.7-2.9-2.1-3.2c-0.3-0.1-0.7-0.1-1,0
		c-1.5,0.3-2.4,1.7-2.1,3.2C364.1,188.9,364.9,189.8,366,190"/>
	<path id="path615" class="st3" d="M366,190c1.5,0.3,2.9-0.7,3.2-2.1c0.3-1.5-0.7-2.9-2.1-3.2c-0.3-0.1-0.7-0.1-1,0
		c-1.5,0.3-2.4,1.7-2.1,3.2C364.1,188.9,364.9,189.8,366,190z"/>
	<path id="path616" class="st13" d="M371.2,191.4c1.5,0.3,2.9-0.7,3.2-2.1c0.3-1.5-0.7-2.9-2.1-3.2c-0.3-0.1-0.7-0.1-1,0
		c-1.5,0.3-2.4,1.7-2.1,3.2C369.3,190.3,370.1,191.2,371.2,191.4"/>
	<path id="path617" class="st3" d="M371.2,191.4c1.5,0.3,2.9-0.7,3.2-2.1c0.3-1.5-0.7-2.9-2.1-3.2c-0.3-0.1-0.7-0.1-1,0
		c-1.5,0.3-2.4,1.7-2.1,3.2C369.3,190.3,370.1,191.2,371.2,191.4z"/>
	<path id="path618" class="st13" d="M371.2,211.2c1.5,0,2.7-1.2,2.7-2.7c0-1.5-1.2-2.7-2.7-2.7c0,0,0,0,0,0c-1.5,0-2.7,1.2-2.7,2.7
		C368.5,210,369.7,211.2,371.2,211.2"/>
	<path id="path619" class="st3" d="M371.2,211.2c1.5,0,2.7-1.2,2.7-2.7c0-1.5-1.2-2.7-2.7-2.7c0,0,0,0,0,0c-1.5,0-2.7,1.2-2.7,2.7
		C368.5,210,369.7,211.2,371.2,211.2z"/>
	<path id="path620" class="st13" d="M426.3,221.5c1.5,0.3,2.9-0.7,3.2-2.1c0.3-1.5-0.7-2.9-2.1-3.2c-0.3-0.1-0.7-0.1-1,0
		c-1.5,0.3-2.4,1.7-2.1,3.2C424.4,220.4,425.2,221.3,426.3,221.5"/>
	<path id="path621" class="st3" d="M426.3,221.5c1.5,0.3,2.9-0.7,3.2-2.1c0.3-1.5-0.7-2.9-2.1-3.2c-0.3-0.1-0.7-0.1-1,0
		c-1.5,0.3-2.4,1.7-2.1,3.2C424.4,220.4,425.2,221.3,426.3,221.5z"/>
	<path id="path622" class="st13" d="M427.7,215c1.5,0,2.7-1.2,2.7-2.7c0-1.5-1.2-2.7-2.7-2.7c0,0,0,0,0,0c-1.5,0.3-2.4,1.7-2.1,3.2
		C425.8,213.8,426.6,214.7,427.7,215"/>
	<path id="path623" class="st3" d="M427.7,215c1.5,0,2.7-1.2,2.7-2.7c0-1.5-1.2-2.7-2.7-2.7c0,0,0,0,0,0c-1.5,0.3-2.4,1.7-2.1,3.2
		C425.8,213.8,426.6,214.7,427.7,215L427.7,215z"/>
	<path id="path624" class="st13" d="M426.6,208c1.5,0.3,2.9-0.7,3.2-2.1c0.3-1.5-0.7-2.9-2.1-3.2c-0.3-0.1-0.7-0.1-1,0
		c-1.5,0.3-2.4,1.7-2.1,3.2C424.7,206.9,425.5,207.8,426.6,208"/>
	<path id="path625" class="st3" d="M426.6,208c1.5,0.3,2.9-0.7,3.2-2.1c0.3-1.5-0.7-2.9-2.1-3.2c-0.3-0.1-0.7-0.1-1,0
		c-1.5,0.3-2.4,1.7-2.1,3.2C424.7,206.9,425.5,207.8,426.6,208z"/>
	<path id="path626" class="st13" d="M423.7,201.5c1.5,0,2.7-1.2,2.7-2.7c0-1.5-1.2-2.7-2.7-2.7c0,0,0,0,0,0c-1.5,0-2.7,1.2-2.7,2.7
		C421,200.3,422.2,201.5,423.7,201.5"/>
	<path id="path627" class="st3" d="M423.7,201.5c1.5,0,2.7-1.2,2.7-2.7c0-1.5-1.2-2.7-2.7-2.7c0,0,0,0,0,0c-1.5,0-2.7,1.2-2.7,2.7
		C421,200.3,422.2,201.5,423.7,201.5z"/>
	<path id="path628" class="st13" d="M418.8,197c1.5,0,2.7-1.2,2.7-2.7c0-1.5-1.2-2.7-2.7-2.7c0,0,0,0,0,0c-1.5,0.3-2.4,1.7-2.1,3.2
		C416.9,195.8,417.7,196.7,418.8,197"/>
	<path id="path629" class="st3" d="M418.8,197c1.5,0,2.7-1.2,2.7-2.7c0-1.5-1.2-2.7-2.7-2.7c0,0,0,0,0,0c-1.5,0.3-2.4,1.7-2.1,3.2
		C416.9,195.8,417.7,196.7,418.8,197L418.8,197z"/>
	<path id="path630" class="st13" d="M412.9,194c1.5,0.3,2.9-0.7,3.2-2.1c0.3-1.5-0.7-2.9-2.1-3.2c-0.3-0.1-0.7-0.1-1,0
		c-1.5,0.3-2.4,1.7-2.1,3.2C411,192.9,411.8,193.8,412.9,194"/>
	<path id="path631" class="st3" d="M412.9,194c1.5,0.3,2.9-0.7,3.2-2.1c0.3-1.5-0.7-2.9-2.1-3.2c-0.3-0.1-0.7-0.1-1,0
		c-1.5,0.3-2.4,1.7-2.1,3.2C411,192.9,411.8,193.8,412.9,194z"/>
	<path id="path632" class="st13" d="M406.1,192.5c1.5,0.3,2.9-0.7,3.2-2.1c0.3-1.5-0.7-2.9-2.1-3.2c-0.3-0.1-0.7-0.1-1,0
		c-1.5,0.3-2.4,1.7-2.1,3.2C404.2,191.4,405,192.3,406.1,192.5"/>
	<path id="path633" class="st3" d="M406.1,192.5c1.5,0.3,2.9-0.7,3.2-2.1c0.3-1.5-0.7-2.9-2.1-3.2c-0.3-0.1-0.7-0.1-1,0
		c-1.5,0.3-2.4,1.7-2.1,3.2C404.2,191.4,405,192.3,406.1,192.5z"/>
	<path id="path634" class="st13" d="M400,192c1.5,0.3,2.9-0.7,3.2-2.1c0.3-1.5-0.7-2.9-2.1-3.2c-0.3-0.1-0.7-0.1-1,0
		c-1.5,0.3-2.4,1.7-2.1,3.2C398.1,190.9,398.9,191.8,400,192"/>
	<path id="path635" class="st3" d="M400,192c1.5,0.3,2.9-0.7,3.2-2.1c0.3-1.5-0.7-2.9-2.1-3.2c-0.3-0.1-0.7-0.1-1,0
		c-1.5,0.3-2.4,1.7-2.1,3.2C398.1,190.9,398.9,191.8,400,192z"/>
	<path id="path636" class="st13" d="M394.4,191.3c1.5,0,2.7-1.2,2.7-2.7c0-1.5-1.2-2.7-2.7-2.7c0,0,0,0,0,0c-1.5,0-2.7,1.2-2.7,2.7
		C391.7,190.1,392.9,191.3,394.4,191.3"/>
	<path id="path637" class="st3" d="M394.4,191.3c1.5,0,2.7-1.2,2.7-2.7c0-1.5-1.2-2.7-2.7-2.7c0,0,0,0,0,0c-1.5,0-2.7,1.2-2.7,2.7
		C391.7,190.1,392.9,191.3,394.4,191.3z"/>
	<path id="path638" class="st13" d="M398,213c1.5,0.3,2.9-0.7,3.2-2.1c0.3-1.5-0.7-2.9-2.1-3.2c-0.3-0.1-0.7-0.1-1,0
		c-1.5,0-2.7,1.2-2.7,2.7C395.3,211.9,396.5,213.1,398,213"/>
	<path id="path639" class="st3" d="M398,213c1.5,0.3,2.9-0.7,3.2-2.1c0.3-1.5-0.7-2.9-2.1-3.2c-0.3-0.1-0.7-0.1-1,0
		c-1.5,0-2.7,1.2-2.7,2.7C395.3,211.9,396.5,213.1,398,213L398,213z"/>
	<path id="path640" class="st13" d="M399.4,208c1.5,0,2.7-1.2,2.7-2.7c0-1.5-1.2-2.7-2.7-2.7c0,0,0,0,0,0c-1.5,0.3-2.4,1.7-2.1,3.2
		C397.5,206.8,398.3,207.7,399.4,208"/>
	<path id="path641" class="st3" d="M399.4,208c1.5,0,2.7-1.2,2.7-2.7c0-1.5-1.2-2.7-2.7-2.7c0,0,0,0,0,0c-1.5,0.3-2.4,1.7-2.1,3.2
		C397.5,206.8,398.3,207.7,399.4,208L399.4,208z"/>
	<path id="path642" class="st13" d="M377,190.9c1.5,0,2.7-1.2,2.7-2.7c0-1.5-1.2-2.7-2.7-2.7c0,0,0,0,0,0c-1.5,0-2.7,1.2-2.7,2.7
		C374.3,189.7,375.5,190.9,377,190.9"/>
	<path id="path643" class="st3" d="M377,190.9c1.5,0,2.7-1.2,2.7-2.7c0-1.5-1.2-2.7-2.7-2.7c0,0,0,0,0,0c-1.5,0-2.7,1.2-2.7,2.7
		C374.3,189.7,375.5,190.9,377,190.9z"/>
	<path id="path644" class="st13" d="M364,190.1c1.5,0.3,2.9-0.7,3.2-2.1c0.3-1.5-0.7-2.9-2.1-3.2c-0.3-0.1-0.7-0.1-1,0
		c-1.5,0.3-2.4,1.7-2.1,3.2C362.1,189,362.9,189.9,364,190.1"/>
	<path id="path645" class="st3" d="M364,190.1c1.5,0.3,2.9-0.7,3.2-2.1c0.3-1.5-0.7-2.9-2.1-3.2c-0.3-0.1-0.7-0.1-1,0
		c-1.5,0.3-2.4,1.7-2.1,3.2C362.1,189,362.9,189.9,364,190.1z"/>
	<path id="path646" class="st13" d="M360.8,190c1.5,0.3,2.9-0.7,3.2-2.1c0.3-1.5-0.7-2.9-2.1-3.2c-0.3-0.1-0.7-0.1-1,0
		c-1.5,0.3-2.4,1.7-2.1,3.2C358.9,188.9,359.7,189.8,360.8,190"/>
	<path id="path647" class="st3" d="M360.8,190c1.5,0.3,2.9-0.7,3.2-2.1c0.3-1.5-0.7-2.9-2.1-3.2c-0.3-0.1-0.7-0.1-1,0
		c-1.5,0.3-2.4,1.7-2.1,3.2C358.9,188.9,359.7,189.8,360.8,190z"/>
	<path id="path648" class="st13" d="M343.8,213.1c1.5,0.3,2.9-0.7,3.2-2.1c0.3-1.5-0.7-2.9-2.1-3.2c-0.3-0.1-0.7-0.1-1,0
		c-1.5,0.3-2.4,1.7-2.1,3.2C341.9,212,342.7,212.9,343.8,213.1"/>
	<path id="path649" class="st3" d="M343.8,213.1c1.5,0.3,2.9-0.7,3.2-2.1c0.3-1.5-0.7-2.9-2.1-3.2c-0.3-0.1-0.7-0.1-1,0
		c-1.5,0.3-2.4,1.7-2.1,3.2C341.9,212,342.7,212.9,343.8,213.1z"/>
	<path id="path650" class="st13" d="M343,206.8c1.5,0,2.7-1.2,2.7-2.7c0-1.5-1.2-2.7-2.7-2.7c0,0,0,0,0,0c-1.5,0-2.7,1.2-2.7,2.7
		C340.3,205.6,341.5,206.8,343,206.8"/>
	<path id="path651" class="st3" d="M343,206.8c1.5,0,2.7-1.2,2.7-2.7c0-1.5-1.2-2.7-2.7-2.7c0,0,0,0,0,0c-1.5,0-2.7,1.2-2.7,2.7
		C340.3,205.6,341.5,206.8,343,206.8z"/>
	<path id="path652" class="st13" d="M345,200.6c1.5,0.3,2.9-0.7,3.2-2.1c0.3-1.5-0.7-2.9-2.1-3.2c-0.3-0.1-0.7-0.1-1,0
		c-1.5,0.3-2.4,1.7-2.1,3.2C343.1,199.5,343.9,200.4,345,200.6"/>
	<path id="path653" class="st3" d="M345,200.6c1.5,0.3,2.9-0.7,3.2-2.1c0.3-1.5-0.7-2.9-2.1-3.2c-0.3-0.1-0.7-0.1-1,0
		c-1.5,0.3-2.4,1.7-2.1,3.2C343.1,199.5,343.9,200.4,345,200.6z"/>
	<path id="path654" class="st13" d="M356.7,190.6c1.5,0.3,2.9-0.7,3.2-2.1c0.3-1.5-0.7-2.9-2.1-3.2c-0.3-0.1-0.7-0.1-1,0
		c-1.5,0.3-2.4,1.7-2.1,3.2C354.8,189.5,355.6,190.4,356.7,190.6"/>
	<path id="path655" class="st3" d="M356.7,190.6c1.5,0.3,2.9-0.7,3.2-2.1c0.3-1.5-0.7-2.9-2.1-3.2c-0.3-0.1-0.7-0.1-1,0
		c-1.5,0.3-2.4,1.7-2.1,3.2C354.8,189.5,355.6,190.4,356.7,190.6z"/>
	<path id="path656" class="st13" d="M352.2,192.4c1.5,0.3,2.9-0.7,3.2-2.1c0.3-1.5-0.7-2.9-2.1-3.2c-0.3-0.1-0.7-0.1-1,0
		c-1.5,0.3-2.4,1.7-2.1,3.2C350.3,191.3,351.1,192.2,352.2,192.4"/>
	<path id="path657" class="st3" d="M352.2,192.4c1.5,0.3,2.9-0.7,3.2-2.1c0.3-1.5-0.7-2.9-2.1-3.2c-0.3-0.1-0.7-0.1-1,0
		c-1.5,0.3-2.4,1.7-2.1,3.2C350.3,191.3,351.1,192.2,352.2,192.4z"/>
	<path id="path658" class="st13" d="M348,196c1.5,0.3,2.9-0.7,3.2-2.1c0.3-1.5-0.7-2.9-2.1-3.2c-0.3-0.1-0.7-0.1-1,0
		c-1.5,0.3-2.4,1.7-2.1,3.2C346.1,194.9,346.9,195.8,348,196"/>
	<path id="path659" class="st3" d="M348,196c1.5,0.3,2.9-0.7,3.2-2.1c0.3-1.5-0.7-2.9-2.1-3.2c-0.3-0.1-0.7-0.1-1,0
		c-1.5,0.3-2.4,1.7-2.1,3.2C346.1,194.9,346.9,195.8,348,196z"/>
	<path id="path660" class="st13" d="M371.2,194.4c1.5,0.3,2.9-0.7,3.2-2.1c0.3-1.5-0.7-2.9-2.1-3.2c-0.3-0.1-0.7-0.1-1,0
		c-1.5,0.3-2.4,1.7-2.1,3.2C369.3,193.3,370.1,194.2,371.2,194.4"/>
	<path id="path661" class="st3" d="M371.2,194.4c1.5,0.3,2.9-0.7,3.2-2.1c0.3-1.5-0.7-2.9-2.1-3.2c-0.3-0.1-0.7-0.1-1,0
		c-1.5,0.3-2.4,1.7-2.1,3.2C369.3,193.3,370.1,194.2,371.2,194.4z"/>
	<path id="path662" class="st13" d="M371.2,199.5c1.5,0,2.7-1.2,2.7-2.7c0-1.5-1.2-2.7-2.7-2.7c0,0,0,0,0,0c-1.5,0-2.7,1.2-2.7,2.7
		C368.5,198.3,369.7,199.5,371.2,199.5"/>
	<path id="path663" class="st3" d="M371.2,199.5c1.5,0,2.7-1.2,2.7-2.7c0-1.5-1.2-2.7-2.7-2.7c0,0,0,0,0,0c-1.5,0-2.7,1.2-2.7,2.7
		C368.5,198.3,369.7,199.5,371.2,199.5z"/>
	<path id="path664" class="st13" d="M371.2,204.9c1.5,0,2.7-1.2,2.7-2.7c0-1.5-1.2-2.7-2.7-2.7c0,0,0,0,0,0c-1.5,0-2.7,1.2-2.7,2.7
		C368.5,203.7,369.7,204.9,371.2,204.9"/>
	<path id="path665" class="st3" d="M371.2,204.9c1.5,0,2.7-1.2,2.7-2.7c0-1.5-1.2-2.7-2.7-2.7c0,0,0,0,0,0c-1.5,0-2.7,1.2-2.7,2.7
		C368.5,203.7,369.7,204.9,371.2,204.9z"/>
	<path id="path666" class="st13" d="M380.4,190.2c1.5,0,2.7-1.2,2.7-2.7c0-1.5-1.2-2.7-2.7-2.7c0,0,0,0,0,0c-1.5,0-2.7,1.2-2.7,2.7
		C377.7,189,378.9,190.2,380.4,190.2"/>
	<path id="path667" class="st3" d="M380.4,190.2c1.5,0,2.7-1.2,2.7-2.7c0-1.5-1.2-2.7-2.7-2.7c0,0,0,0,0,0c-1.5,0-2.7,1.2-2.7,2.7
		C377.7,189,378.9,190.2,380.4,190.2z"/>
	<path id="path668" class="st13" d="M384,189.4c1.5,0.3,2.9-0.7,3.2-2.1c0.3-1.5-0.7-2.9-2.1-3.2c-0.3-0.1-0.7-0.1-1,0
		c-1.5,0.3-2.4,1.7-2.1,3.2C382.1,188.3,382.9,189.2,384,189.4"/>
	<path id="path669" class="st3" d="M384,189.4c1.5,0.3,2.9-0.7,3.2-2.1c0.3-1.5-0.7-2.9-2.1-3.2c-0.3-0.1-0.7-0.1-1,0
		c-1.5,0.3-2.4,1.7-2.1,3.2C382.1,188.3,382.9,189.2,384,189.4z"/>
	<path id="path670" class="st13" d="M388.2,190c1.5,0.3,2.9-0.7,3.2-2.1c0.3-1.5-0.7-2.9-2.1-3.2c-0.3-0.1-0.7-0.1-1,0
		c-1.5,0-2.7,1.2-2.7,2.7C385.5,188.9,386.7,190.1,388.2,190"/>
	<path id="path671" class="st3" d="M388.2,190c1.5,0.3,2.9-0.7,3.2-2.1c0.3-1.5-0.7-2.9-2.1-3.2c-0.3-0.1-0.7-0.1-1,0
		c-1.5,0-2.7,1.2-2.7,2.7C385.5,188.9,386.7,190.1,388.2,190L388.2,190z"/>
	<path id="path672" class="st13" d="M398.5,201.4c1.5,0.3,2.9-0.7,3.2-2.1c0.3-1.5-0.7-2.9-2.1-3.2c-0.3-0.1-0.7-0.1-1,0
		c-1.5,0.3-2.4,1.7-2.1,3.2C396.6,200.3,397.4,201.2,398.5,201.4"/>
	<path id="path673" class="st3" d="M398.5,201.4c1.5,0.3,2.9-0.7,3.2-2.1c0.3-1.5-0.7-2.9-2.1-3.2c-0.3-0.1-0.7-0.1-1,0
		c-1.5,0.3-2.4,1.7-2.1,3.2C396.6,200.3,397.4,201.2,398.5,201.4z"/>
	<path id="path674" class="st13" d="M392.3,192.5c1.5,0,2.7-1.2,2.7-2.7c0-1.5-1.2-2.7-2.7-2.7c0,0,0,0,0,0c-1.5,0-2.7,1.2-2.7,2.7
		C389.6,191.3,390.8,192.5,392.3,192.5"/>
	<path id="path675" class="st3" d="M392.3,192.5c1.5,0,2.7-1.2,2.7-2.7c0-1.5-1.2-2.7-2.7-2.7c0,0,0,0,0,0c-1.5,0-2.7,1.2-2.7,2.7
		C389.6,191.3,390.8,192.5,392.3,192.5z"/>
	<path id="path676" class="st13" d="M396.1,196.1c1.5,0.3,2.9-0.7,3.2-2.1c0.3-1.5-0.7-2.9-2.1-3.2c-0.3-0.1-0.7-0.1-1,0
		c-1.5,0.3-2.4,1.7-2.1,3.2C394.2,195,395,195.9,396.1,196.1"/>
	<path id="path677" class="st3" d="M396.1,196.1c1.5,0.3,2.9-0.7,3.2-2.1c0.3-1.5-0.7-2.9-2.1-3.2c-0.3-0.1-0.7-0.1-1,0
		c-1.5,0.3-2.4,1.7-2.1,3.2C394.2,195,395,195.9,396.1,196.1z"/>
	<path id="path678" class="st13" d="M371,236l-7,3.6l6.3,4l7.5-3.8L371,236"/>
	<path id="path679" class="st15" d="M371,236l-7,3.6l6.3,4l7.5-3.8L371,236"/>
	<path id="path680" class="st13" d="M355.6,236.8l-10.5,1.6c0,0-0.2,5.7,0.3,7l10.9-1.4C356.3,244,356.8,238.7,355.6,236.8"/>
	<path id="path681" class="st15" d="M355.6,236.8l-10.5,1.6c0,0-0.2,5.7,0.3,7l10.9-1.4C356.3,244,356.8,238.7,355.6,236.8
		L355.6,236.8z"/>
	<path id="path682" class="st16" d="M354.5,238.8c0,0-6.4,0.6-8,1.2v3.8c0,0,4.3-0.7,8.1-1L354.5,238.8"/>
	<path id="path683" class="st15" d="M354.5,238.8c0,0-6.4,0.6-8,1.2v3.8c0,0,4.3-0.7,8.1-1L354.5,238.8"/>
	<path id="path684" class="st13" d="M385.7,237l10.6,1.7c0,0,0.1,5.7-0.4,7l-10.8-1.4c0,0-0.5-5.3,0.6-7.2"/>
	<path id="path685" class="st15" d="M385.7,237l10.6,1.7c0,0,0.1,5.7-0.4,7l-10.8-1.4c0,0-0.5-5.3,0.6-7.2L385.7,237z"/>
	<path id="path686" class="st16" d="M387,239.1c0,0,6.3,0.6,7.9,1.2l-0.1,3.8c0,0-4.2-0.7-8-1l0.1-4"/>
	<path id="path687" class="st15" d="M387,239.1c0,0,6.3,0.6,7.9,1.2l-0.1,3.8c0,0-4.2-0.7-8-1l0.1-4"/>
	<path id="path688" class="st15" d="M329.2,241.8c0,0,37-13.7,84.2,1.2 M330.7,249.7c0,0,35.9-13.4,80,0.6 M330.9,241.3l7.2,2.1
		l-5,5.4"/>
	<path id="path689" class="st17" d="M331,247.8l4.2-3.5l-4.7-0.9c0,0,0.6,0.7,0.5,1.4V247.8"/>
	<path id="path690" class="st15" d="M331,247.8l4.2-3.5l-4.7-0.9c0,0,0.6,0.7,0.5,1.4V247.8z"/>
	<path id="path691" class="st15" d="M412.6,242.7l-7.7,1.4l5.2,6"/>
	<path id="path692" class="st17" d="M410.3,248l-2.9-3l4.2-0.4c0,0-1.2,0.7-1.2,1.4c0,0.6,0.2,1.5,0,2"/>
	<path id="path693" class="st15" d="M410.3,248l-2.9-3l4.2-0.4c0,0-1.2,0.7-1.2,1.4c0,0.6,0.2,1.5,0,2H410.3z"/>
	<path id="path694" class="st15" d="M340.3,241.8c0.6,0,1.2-0.4,1.2-1c0-0.4-0.6-0.9-1.2-0.9c-0.7,0-1.2,0.5-1.2,1s0.5,1,1.2,1
		V241.8z M360.9,239.5c0.7,0,1.2-0.4,1.2-1c0-0.5-0.5-0.9-1.2-0.9s-1.2,0.4-1.2,1C359.7,239.1,360.2,239.5,360.9,239.5z
		 M360.9,242.8c0.7,0,1.2-0.4,1.2-0.9s-0.5-1-1.2-1s-1.2,0.5-1.2,1s0.5,1,1.2,1V242.8z M381.2,239.7c0.6,0,1.2-0.5,1.2-1
		s-0.6-1-1.2-1c-0.7,0-1.2,0.5-1.2,1S380.5,239.7,381.2,239.7z M401.3,243.4c0.7,0,1.2-0.5,1.2-1s-0.5-1-1.2-1s-1.2,0.5-1.2,1
		S400.6,243.4,401.3,243.4z M401,246c0.6,0,1.2-0.4,1.2-1c0-0.4-0.6-0.9-1.2-0.9c-0.7,0-1.2,0.5-1.2,1s0.5,1,1.2,1V246z M381.2,243
		c0.6,0,1.2-0.4,1.2-1c0-0.5-0.6-0.9-1.2-0.9c-0.7,0-1.2,0.4-1.2,1c0,0.5,0.5,1,1.2,1V243z M341.2,246c0.7,0,1.3-0.4,1.3-1
		c0-0.4-0.6-0.9-1.2-0.9c-0.7,0-1.2,0.5-1.2,1s0.5,1,1.2,1L341.2,246z"/>
	<path id="path695" class="st10" d="M328.6,231c0,0,0.1,7.2,4.8,6.2s4.2-6.9,4.5-7.2c0.4-0.3,0.9-0.3,0.9-0.3s0.6,5.7,5,5
		s4.2-7.7,3.7-8.9l1-0.3c0,0,1.7,8.2,6.7,7s4.5-6.4,4.5-6.4h0.4c0,0,1.1,5.6,5.2,5.2c4-0.3,4.8-1.6,4.3-7.2l2.7-0.5c0,0-1,8,3.9,8
		c4.8-0.3,5-4.1,5.3-4.8h0.8c0,0,0.2,5.7,4.3,5.7c4,0,4.8-4.8,4.8-6.7l4,0.2c0,0-4.2,7.5,1.9,8.5c6,1,6.2-4.8,6.2-4.8h1.2
		c0,0-0.2,7.5,3.1,7.7c3.4,0.1,5.4-1,5.7-6.6l1.9,0.7c0,0-1.6,9-7.9,7.4c-3.3-0.9-4.4-4.7-4.2-5.7c0,0-2.3,4.2-6.9,2.8
		c-4.5-1.3-4-4.5-4-5.5c0,0-2.7,5-6.5,3.9c-3.4-1-4.7-2.2-4.7-4.6c0,0-1.7,3.9-5,3.7c-3.4-0.1-5-2.2-5.2-4c0,0-0.7,3.6-5.2,3.9
		c-3,0.1-4.7-1.4-5.4-3.4c0,0-0.9,3.6-5.2,4.2c-2.7,0.3-5.4-1.2-6-3.7c0,0-0.7,4.9-5,5.5c-4.4,0.7-5.4-2.3-5.4-2.3s-0.9,3.8-4.4,4.7
		c-3.5,0.8-5.8-0.7-6.7-4.2c-0.8-3.5-0.5-5-0.5-5L328.6,231"/>
	<path id="path696" class="st12" d="M328.6,231c0,0,0.1,7.2,4.8,6.2s4.2-6.9,4.5-7.2c0.4-0.3,0.9-0.3,0.9-0.3s0.6,5.7,5,5
		s4.2-7.7,3.7-8.9l1-0.3c0,0,1.7,8.2,6.7,7s4.5-6.4,4.5-6.4h0.4c0,0,1.1,5.6,5.2,5.2c4-0.3,4.8-1.6,4.3-7.2l2.7-0.5c0,0-1,8,3.9,8
		c4.8-0.3,5-4.1,5.3-4.8h0.8c0,0,0.2,5.7,4.3,5.7c4,0,4.8-4.8,4.8-6.7l4,0.2c0,0-4.2,7.5,1.9,8.5c6,1,6.2-4.8,6.2-4.8h1.2
		c0,0-0.2,7.5,3.1,7.7c3.4,0.1,5.4-1,5.7-6.6l1.9,0.7c0,0-1.6,9-7.9,7.4c-3.3-0.9-4.4-4.7-4.2-5.7c0,0-2.3,4.2-6.9,2.8
		c-4.5-1.3-4-4.5-4-5.5c0,0-2.7,5-6.5,3.9c-3.4-1-4.7-2.2-4.7-4.6c0,0-1.7,3.9-5,3.7c-3.4-0.1-5-2.2-5.2-4c0,0-0.7,3.6-5.2,3.9
		c-3,0.1-4.7-1.4-5.4-3.4c0,0-0.9,3.6-5.2,4.2c-2.7,0.3-5.4-1.2-6-3.7c0,0-0.7,4.9-5,5.5c-4.4,0.7-5.4-2.3-5.4-2.3s-0.9,3.8-4.4,4.7
		c-3.5,0.8-5.8-0.7-6.7-4.2c-0.8-3.5-0.5-5-0.5-5L328.6,231L328.6,231z"/>
	<path id="path697" class="st10" d="M338.3,231.3c0.9,0.2,1.8-0.3,2.1-1.2c0.2-0.9-0.3-1.8-1.2-2.1c-0.3-0.1-0.5-0.1-0.8,0
		c-0.9,0.2-1.5,1.1-1.2,2.1C337.2,230.7,337.7,231.1,338.3,231.3"/>
	<path id="path698" class="st12" d="M338.3,231.3c0.9,0.2,1.8-0.3,2.1-1.2c0.2-0.9-0.3-1.8-1.2-2.1c-0.3-0.1-0.5-0.1-0.8,0
		c-0.9,0.2-1.5,1.1-1.2,2.1C337.2,230.7,337.7,231.1,338.3,231.3z"/>
	<path id="path699" class="st10" d="M360.1,227.8c0.9,0.2,1.8-0.3,2.1-1.2c0.2-0.9-0.3-1.8-1.2-2.1c-0.3-0.1-0.5-0.1-0.8,0
		c-0.9,0.2-1.5,1.1-1.2,2.1C359,227.2,359.5,227.6,360.1,227.8"/>
	<path id="path700" class="st12" d="M360.1,227.8c0.9,0.2,1.8-0.3,2.1-1.2c0.2-0.9-0.3-1.8-1.2-2.1c-0.3-0.1-0.5-0.1-0.8,0
		c-0.9,0.2-1.5,1.1-1.2,2.1C359,227.2,359.5,227.6,360.1,227.8z"/>
	<path id="path701" class="st10" d="M382.3,228.5c0.9,0.2,1.8-0.3,2.1-1.2c0.2-0.9-0.3-1.8-1.2-2.1c-0.3-0.1-0.5-0.1-0.8,0
		c-0.9,0.2-1.5,1.1-1.2,2.1C381.2,227.9,381.7,228.3,382.3,228.5"/>
	<path id="path702" class="st12" d="M382.3,228.5c0.9,0.2,1.8-0.3,2.1-1.2c0.2-0.9-0.3-1.8-1.2-2.1c-0.3-0.1-0.5-0.1-0.8,0
		c-0.9,0.2-1.5,1.1-1.2,2.1C381.2,227.9,381.7,228.3,382.3,228.5z"/>
	<path id="path703" class="st10" d="M404.2,232c0.9,0.2,1.8-0.3,2.1-1.2c0.2-0.9-0.3-1.8-1.2-2.1c-0.3-0.1-0.5-0.1-0.8,0
		c-0.9,0.2-1.5,1.1-1.2,2.1C403.1,231.4,403.6,231.8,404.2,232"/>
	<path id="path704" class="st12" d="M404.2,232c0.9,0.2,1.8-0.3,2.1-1.2c0.2-0.9-0.3-1.8-1.2-2.1c-0.3-0.1-0.5-0.1-0.8,0
		c-0.9,0.2-1.5,1.1-1.2,2.1C403.1,231.4,403.6,231.8,404.2,232z"/>
	<path id="path705" class="st10" d="M370.2,226h-1.5c-0.4,1.5-3.6,2.4-3.6,2.4c-0.4-1.2,0.5-2.9,0.5-2.9c-3.7-1-3.7-2.2-3.7-2.2
		c0.5-1.3,4-1.5,4-1.5c-1-1.1-0.8-3-0.8-3c2.3,0.2,4.2,2.5,4.2,2.5s-2.3-1.2-2-5.2c0,0,1.2,0,2,0.8c0,0,0-4.4,1.8-4.9h0.2
		c1.8,0.5,1.8,4.9,1.8,4.9c0.8-0.9,2-0.8,2-0.8c0.3,4-2,5.2-2,5.2s1.9-2.3,4.2-2.4c0,0,0.1,1.8-0.7,3c0,0,3.4,0.1,4,1.4
		c0,0,0,1.3-3.8,2.2c0,0,0.8,1.7,0.5,3c0,0-3.3-1-3.6-2.5H370.2"/>
	<path id="path706" class="st12" d="M370.2,226h-1.5c-0.4,1.5-3.6,2.4-3.6,2.4c-0.4-1.2,0.5-2.9,0.5-2.9c-3.7-1-3.7-2.2-3.7-2.2
		c0.5-1.3,4-1.5,4-1.5c-1-1.1-0.8-3-0.8-3c2.3,0.2,4.2,2.5,4.2,2.5s-2.3-1.2-2-5.2c0,0,1.2,0,2,0.8c0,0,0-4.4,1.8-4.9h0.2
		c1.8,0.5,1.8,4.9,1.8,4.9c0.8-0.9,2-0.8,2-0.8c0.3,4-2,5.2-2,5.2s1.9-2.3,4.2-2.4c0,0,0.1,1.8-0.7,3c0,0,3.4,0.1,4,1.4
		c0,0,0,1.3-3.8,2.2c0,0,0.8,1.7,0.5,3c0,0-3.3-1-3.6-2.5H370.2z"/>
	<path id="path707" class="st13" d="M371,226.8c1.7,0,3-1.3,3-3s-1.3-3-3-3s-3,1.3-3,3S369.3,226.8,371,226.8"/>
	<path id="path708" class="st18" d="M371,226.8c1.7,0,3-1.3,3-3s-1.3-3-3-3s-3,1.3-3,3S369.3,226.8,371,226.8z"/>
	<path id="path709" class="st13" d="M371,225.5c0.9,0,1.7-0.8,1.7-1.7c0-0.9-0.8-1.7-1.7-1.7c0,0,0,0,0,0c-0.9,0-1.7,0.8-1.7,1.7
		C369.3,224.7,370.1,225.5,371,225.5"/>
	<path id="path710" class="st8" d="M371,225.5c0.9,0,1.7-0.8,1.7-1.7c0-0.9-0.8-1.7-1.7-1.7c0,0,0,0,0,0c-0.9,0-1.7,0.8-1.7,1.7
		C369.3,224.7,370.1,225.5,371,225.5z"/>
	<path id="path711" class="st10" d="M394.1,228l1.5,0.3c0,1.5,3,3.1,3,3.1c0.6-1,0.1-2.9,0.1-2.9c3.9-0.1,4.1-1.4,4.1-1.4
		c-0.2-1.4-3.5-2.3-3.5-2.3c1-0.9,1.3-2.7,1.3-2.7c-2.3-0.4-4.6,1.4-4.6,1.4s2.5-0.6,3-4.6c0,0-1.1-0.3-2,0.3c0,0,0.9-4.2-0.8-5
		l-0.2-0.1c-1.9,0-2.8,4.3-2.8,4.3c-0.6-1-1.8-1.1-1.8-1.1c-1.1,3.8,0.9,5.4,0.9,5.4s-1.4-2.6-3.6-3.2c0,0-0.5,1.8,0,3
		c0,0-3.3-0.5-4.1,0.6c0,0-0.3,1.3,3.1,3c0,0-1.1,1.5-1,2.8c0,0,3.3-0.3,4-1.7l1.5,0.3l2,0.4"/>
	<path id="path712" class="st12" d="M394.1,228l1.5,0.3c0,1.5,3,3.1,3,3.1c0.6-1,0.1-2.9,0.1-2.9c3.9-0.1,4.1-1.4,4.1-1.4
		c-0.2-1.4-3.5-2.3-3.5-2.3c1-0.9,1.3-2.7,1.3-2.7c-2.3-0.4-4.6,1.4-4.6,1.4s2.5-0.6,3-4.6c0,0-1.1-0.3-2,0.3c0,0,0.9-4.2-0.8-5
		l-0.2-0.1c-1.9,0-2.8,4.3-2.8,4.3c-0.6-1-1.8-1.1-1.8-1.1c-1.1,3.8,0.9,5.4,0.9,5.4s-1.4-2.6-3.6-3.2c0,0-0.5,1.8,0,3
		c0,0-3.3-0.5-4.1,0.6c0,0-0.3,1.3,3.1,3c0,0-1.1,1.5-1,2.8c0,0,3.3-0.3,4-1.7l1.5,0.3l2,0.4"/>
	<path id="path713" class="st13" d="M393,228.6c-1.7-0.4-2.7-2-2.3-3.7c0.4-1.7,2-2.7,3.7-2.3c1.7,0.4,2.7,2,2.4,3.6s-2,2.7-3.6,2.4
		"/>
	<path id="path714" class="st18" d="M393,228.6c-1.7-0.4-2.7-2-2.3-3.7c0.4-1.7,2-2.7,3.7-2.3c1.7,0.4,2.7,2,2.4,3.6s-2,2.7-3.6,2.4
		H393z"/>
	<path id="path715" class="st13" d="M393.4,227.3c-0.9-0.1-1.6-0.9-1.6-1.8s0.9-1.6,1.8-1.6c0.1,0,0.3,0,0.4,0.1
		c0.9,0.3,1.4,1.3,1,2.2C394.9,226.9,394.2,227.4,393.4,227.3"/>
	<path id="path716" class="st8" d="M393.4,227.3c-0.9-0.1-1.6-0.9-1.6-1.8s0.9-1.6,1.8-1.6c0.1,0,0.3,0,0.4,0.1
		c0.9,0.3,1.4,1.3,1,2.2C394.9,226.9,394.2,227.4,393.4,227.3z"/>
	<path id="path717" class="st10" d="M347.3,227.6l-1.5,0.2c-0.2,1.6-3.3,3-3.3,3c-0.5-1.2,0-3,0-3c-3.7-0.4-3.9-1.7-3.9-1.7
		c0.4-1.3,3.8-2,3.8-2c-1-1-1.1-2.8-1.1-2.8c2.2-0.2,4.4,1.8,4.4,1.8s-2.4-0.8-2.7-4.8c0,0,1.3-0.3,2.1,0.4c0,0-0.5-4.3,1.2-5h0.2
		c1.9,0.2,2.4,4.5,2.4,4.5c0.7-0.9,2-1,2-1c0.7,4-1.4,5.4-1.4,5.4s1.6-2.5,3.8-3c0,0,0.4,1.9-0.3,3.1c0,0,3.4-0.3,4.1,1
		c0,0,0.2,1.2-3.4,2.6c0,0,1,1.6,0.9,2.8c0,0-3.3-0.5-4-2l-1.4,0.3L347.3,227.6"/>
	<path id="path718" class="st12" d="M347.3,227.6l-1.5,0.2c-0.2,1.6-3.3,3-3.3,3c-0.5-1.2,0-3,0-3c-3.7-0.4-3.9-1.7-3.9-1.7
		c0.4-1.3,3.8-2,3.8-2c-1-1-1.1-2.8-1.1-2.8c2.2-0.2,4.4,1.8,4.4,1.8s-2.4-0.8-2.7-4.8c0,0,1.3-0.3,2.1,0.4c0,0-0.5-4.3,1.2-5h0.2
		c1.9,0.2,2.4,4.5,2.4,4.5c0.7-0.9,2-1,2-1c0.7,4-1.4,5.4-1.4,5.4s1.6-2.5,3.8-3c0,0,0.4,1.9-0.3,3.1c0,0,3.4-0.3,4.1,1
		c0,0,0.2,1.2-3.4,2.6c0,0,1,1.6,0.9,2.8c0,0-3.3-0.5-4-2l-1.4,0.3L347.3,227.6"/>
	<path id="path719" class="st13" d="M348.2,228.4c1.7-0.2,2.8-1.7,2.6-3.4s-1.7-2.8-3.4-2.6s-2.8,1.7-2.6,3.4
		S346.5,228.6,348.2,228.4L348.2,228.4"/>
	<path id="path720" class="st18" d="M348.2,228.4c1.7-0.2,2.8-1.7,2.6-3.4s-1.7-2.8-3.4-2.6s-2.8,1.7-2.6,3.4
		S346.5,228.6,348.2,228.4L348.2,228.4z"/>
	<path id="path721" class="st13" d="M348,227c0.9,0.1,1.8-0.6,1.8-1.5c0.1-0.9-0.6-1.8-1.5-1.8c-0.2,0-0.5,0-0.7,0.1
		c-0.9,0.3-1.4,1.3-1.1,2.2C346.8,226.5,347.3,226.9,348,227"/>
	<path id="path722" class="st8" d="M348,227c0.9,0.1,1.8-0.6,1.8-1.5c0.1-0.9-0.6-1.8-1.5-1.8c-0.2,0-0.5,0-0.7,0.1
		c-0.9,0.3-1.4,1.3-1.1,2.2C346.8,226.5,347.3,226.9,348,227z"/>
	<path id="path723" class="st10" d="M415.2,234.1c0,0-0.8-2-2.5-1.3s-1.5,1-3,1c0,0-0.6-1.9,0.2-2.7c0,0-2.4-0.9-3-3
		c0,0,1.3-1.5,4.4-0.9c0,0-0.1-1.5,0.3-2.2c0,0,3.3,1,3.3,2.9c0,0-1-3.6,0.8-6.2c0,0,1.5,0.6,1.4,2.3c0,0,0.7-3.4,5.2-2.5
		c0,0-2.4,2.2-2.5,3.2c-0.2,1-2.2,2.7-2.3,3.3c0,0.5-0.2,1.5-0.8,2.1c-0.6,0.6-0.7,1.6-0.7,2C416,232.3,416,233.7,415.2,234.1"/>
	<path id="path724" class="st12" d="M415.2,234.1c0,0-0.8-2-2.5-1.3s-1.5,1-3,1c0,0-0.6-1.9,0.2-2.7c0,0-2.4-0.9-3-3
		c0,0,1.3-1.5,4.4-0.9c0,0-0.1-1.5,0.3-2.2c0,0,3.3,1,3.3,2.9c0,0-1-3.6,0.8-6.2c0,0,1.5,0.6,1.4,2.3c0,0,0.7-3.4,5.2-2.5
		c0,0-2.4,2.2-2.5,3.2c-0.2,1-2.2,2.7-2.3,3.3c0,0.5-0.2,1.5-0.8,2.1c-0.6,0.6-0.7,1.6-0.7,2C416,232.3,416,233.7,415.2,234.1
		L415.2,234.1z"/>
	<path id="path725" class="st13" d="M412.7,230.1c0.3-1.6,1.9-2.7,3.5-2.4c0.5,0.1,0.9,0.3,1.3,0.6c0,0.5-0.3,1.3-0.8,1.8
		c-0.6,0.6-0.7,1.6-0.7,2c0,0.6-0.1,1.1-0.4,1.6h-0.5c-1.6-0.3-2.7-1.9-2.4-3.5C412.7,230.2,412.7,230.1,412.7,230.1"/>
	<path id="path726" class="st18" d="M412.7,230.1c0.3-1.6,1.9-2.7,3.5-2.4c0.5,0.1,0.9,0.3,1.3,0.6c0,0.5-0.3,1.3-0.8,1.8
		c-0.6,0.6-0.7,1.6-0.7,2c0,0.6-0.1,1.1-0.4,1.6h-0.5c-1.6-0.3-2.7-1.9-2.4-3.5C412.7,230.2,412.7,230.1,412.7,230.1z"/>
	<path id="path727" class="st13" d="M414,230.4c0.2-0.9,1.1-1.5,2-1.3c0.4,0.1,0.7,0.3,1,0.6l-0.3,0.4c-0.6,0.6-0.7,1.6-0.7,2v0.2
		h-0.6c-1-0.1-1.5-1-1.3-2"/>
	<path id="path728" class="st8" d="M414,230.4c0.2-0.9,1.1-1.5,2-1.3c0.4,0.1,0.7,0.3,1,0.6l-0.3,0.4c-0.6,0.6-0.7,1.6-0.7,2v0.2
		h-0.6c-1-0.1-1.5-1-1.3-2L414,230.4z"/>
	<path id="path729" class="st10" d="M327.2,233.3c0,0,0.8-2,2.5-1.2c1.6,0.9,1.4,1.1,3,1.1c0,0,0.6-1.8,0-2.6c0,0,2.4-0.7,3-2.8
		c0,0-1.2-1.6-4.3-1.2c0,0,0.2-1.5-0.2-2.2c0,0-3.3,0.8-3.4,2.6c0,0,1.2-3.5-0.4-6.2c0,0-1.6,0.6-1.6,2.2c0,0-0.5-3.4-5-2.7
		c0,0,2.3,2.3,2.3,3.3s2,2.8,2,3.4c0,0.5,0.2,1.6,0.8,2.2c0.6,0.6,0.6,1.6,0.5,2C326.4,231.4,326.4,232.8,327.2,233.3"/>
	<path id="path730" class="st12" d="M327.2,233.3c0,0,0.8-2,2.5-1.2c1.6,0.9,1.4,1.1,3,1.1c0,0,0.6-1.8,0-2.6c0,0,2.4-0.7,3-2.8
		c0,0-1.2-1.6-4.3-1.2c0,0,0.2-1.5-0.2-2.2c0,0-3.3,0.8-3.4,2.6c0,0,1.2-3.5-0.4-6.2c0,0-1.6,0.6-1.6,2.2c0,0-0.5-3.4-5-2.7
		c0,0,2.3,2.3,2.3,3.3s2,2.8,2,3.4c0,0.5,0.2,1.6,0.8,2.2c0.6,0.6,0.6,1.6,0.5,2C326.4,231.4,326.4,232.8,327.2,233.3L327.2,233.3z"
		/>
	<path id="path731" class="st13" d="M329.8,229.4c-0.3-1.6-1.8-2.7-3.5-2.4c-0.4,0.1-0.8,0.2-1.1,0.4c0,0.5,0.2,1.3,0.7,1.8
		c0.6,0.6,0.6,1.6,0.5,2c0,0.2,0,1,0.4,1.7h0.4c1.6-0.2,2.8-1.7,2.6-3.3C329.8,229.5,329.8,229.5,329.8,229.4"/>
	<path id="path732" class="st18" d="M329.8,229.4c-0.3-1.6-1.8-2.7-3.5-2.4c-0.4,0.1-0.8,0.2-1.1,0.4c0,0.5,0.2,1.3,0.7,1.8
		c0.6,0.6,0.6,1.6,0.5,2c0,0.2,0,1,0.4,1.7h0.4c1.6-0.2,2.8-1.7,2.6-3.3C329.8,229.5,329.8,229.5,329.8,229.4L329.8,229.4z"/>
	<path id="path733" class="st13" d="M328.5,229.6c-0.1-0.9-0.9-1.6-1.9-1.5c-0.4,0-0.8,0.3-1.1,0.6l0.4,0.5c0.6,0.6,0.6,1.6,0.5,2
		v0.2h0.7C328,231.4,328.6,230.5,328.5,229.6"/>
	<path id="path734" class="st8" d="M328.5,229.6c-0.1-0.9-0.9-1.6-1.9-1.5c-0.4,0-0.8,0.3-1.1,0.6l0.4,0.5c0.6,0.6,0.6,1.6,0.5,2
		v0.2h0.7C328,231.4,328.6,230.5,328.5,229.6L328.5,229.6z"/>
	<path id="path735" class="st5" d="M332.2,251.6c0,0,33.8-13.2,76.4,0.3"/>
	<path id="path736" class="st15" d="M413.4,241.1c-47.1-15-84.7-0.8-84.7-0.8"/>
	<path id="path737" class="st17" d="M371,237.8l-3.8,1.9l3.4,2.1l4-2L371,237.8"/>
	<path id="path738" class="st15" d="M371,237.8l-3.8,1.9l3.4,2.1l4-2L371,237.8"/>
</g>
</svg>
