<?xml version="1.0" encoding="utf-8"?>
<!-- Generator: Adobe Illustrator 24.0.1, SVG Export Plug-In . SVG Version: 6.00 Build 0)  -->
<svg version="1.1" id="flag-icons-et" xmlns="http://www.w3.org/2000/svg" xmlns:xlink="http://www.w3.org/1999/xlink" x="0px"
	 y="0px" viewBox="0 0 800 480" style="enable-background:new 0 0 800 480;" xml:space="preserve">
<style type="text/css">
	.st0{fill-rule:evenodd;clip-rule:evenodd;fill:#FFC621;}
	.st1{fill-rule:evenodd;clip-rule:evenodd;fill:#EF2118;}
	.st2{fill-rule:evenodd;clip-rule:evenodd;fill:#298C08;}
	.st3{fill-rule:evenodd;clip-rule:evenodd;fill:#006BC6;}
</style>
<path class="st0" d="M0,0h800v480H0V0z"/>
<path class="st1" d="M0,320h800v160H0V320z"/>
<path class="st2" d="M0,0h800v160H0V0z"/>
<circle class="st3" cx="400" cy="240" r="101.4"/>
<path class="st0" d="M354.5,168.2l-6.1,4.2l22.1,31l5.9-3.8L354.5,168.2L354.5,168.2z M382.2,241.5l-9.1-6.4l3.8-11.9l-45.2,0.7
	l-13.2-10.1l61.8-0.7l11.5-34.7l6.2,14.1L382.2,241.5L382.2,241.5z M454.1,175l-5.9-4.5L425.3,201l5.3,4.4L454.1,175L454.1,175z
	 M392.6,223.4l3.3-10.5h12.5l-14.3-43.1l5.6-15.5L419,213l36.5,0.5L444,223.5L392.6,223.4L392.6,223.4z M477.8,271.6l2.5-7l-36-12.5
	l-2.6,6.6L477.8,271.6L477.8,271.6z M412.8,227.9l11-0.1l3.9,11.8l36.5-26.8l16.5,0.6l-49.9,36.4l10.8,35l-13.2-7.9L412.8,227.9
	L412.8,227.9z M394.2,323.8l7.4,0.2l0.3-38.1l-7-0.5L394.2,323.8L394.2,323.8z M414.9,248.3l3.6,10.4l-10.1,7.5l37,26l4.7,15.8
	l-50.4-35.7l-29.6,21.3l3.3-15L414.9,248.3L414.9,248.3z M317.8,260.6l2.2,7l36.4-11.5l-1.9-6.8L317.8,260.6L317.8,260.6z
	 M396,256.8l-8.8,6.7l-10.2-7.2l-13.3,43.2l-13.5,9.4l18.3-58.9l-29.5-21.6l15.3-1.5L396,256.8L396,256.8z"/>
</svg>
