<?xml version="1.0" encoding="utf-8"?>
<!-- Generator: Adobe Illustrator 24.0.1, SVG Export Plug-In . SVG Version: 6.00 Build 0)  -->
<svg version="1.1" id="flag-icons-eu" xmlns="http://www.w3.org/2000/svg" xmlns:xlink="http://www.w3.org/1999/xlink" x="0px"
	 y="0px" viewBox="0 0 800 480" style="enable-background:new 0 0 800 480;" xml:space="preserve">
<style type="text/css">
	.st0{fill:#003399;}
	.st1{fill:#FFCC00;}
</style>
<path class="st0" d="M0,0h800v480H0V0z"/>
<g>
	<polygon class="st1" points="400,76.4 395,93.2 377.5,92.8 391.9,102.7 386.1,119.3 400,108.6 413.9,119.3 408.1,102.7 422.5,92.8 
		405,93.2 	"/>
	<polygon class="st1" points="405,377.6 400,360.8 395,377.6 377.5,377.2 391.9,387.2 386.1,403.7 400,393.1 413.9,403.7 
		408.1,387.2 422.5,377.2 	"/>
	<polygon class="st1" points="257.8,250.9 271.7,261.5 265.9,244.9 280.3,235 262.8,235.4 257.8,218.6 252.7,235.4 235.2,235 
		249.6,244.9 243.8,261.5 	"/>
	<polygon class="st1" points="330.6,96.5 325.6,113.3 308.1,112.9 322.5,122.9 316.7,139.4 330.6,128.8 344.6,139.4 338.8,122.9 
		353.2,112.9 335.7,113.3 	"/>
	<polygon class="st1" points="269.8,175.6 264,192.1 277.9,181.5 291.8,192.1 286,175.6 300.4,165.6 282.9,166 277.9,149.2 
		272.9,166 255.4,165.6 	"/>
	<polygon class="st1" points="283,308.6 277.9,291.8 272.9,308.6 255.4,308.2 269.8,318.1 264,334.7 277.9,324.1 291.9,334.7 
		286.1,318.1 300.5,308.2 	"/>
	<polygon class="st1" points="334.4,356.3 329.4,339.5 324.3,356.3 306.8,355.9 321.2,365.9 315.4,382.4 329.4,371.8 343.3,382.4 
		337.5,365.9 351.9,355.9 	"/>
	<polygon class="st1" points="564.8,235 547.3,235.4 542.2,218.6 537.2,235.4 519.7,235 534.1,244.9 528.3,261.5 542.2,250.9 
		556.2,261.5 550.4,244.9 	"/>
	<polygon class="st1" points="461.2,122.9 455.4,139.4 469.4,128.8 483.3,139.4 477.5,122.9 491.9,112.9 474.4,113.3 469.4,96.5 
		464.3,113.3 446.8,112.9 	"/>
	<polygon class="st1" points="514,175.6 508.2,192.1 522.1,181.5 536,192.1 530.2,175.6 544.6,165.6 527.1,166 522.1,149.2 
		517.1,166 499.6,165.6 	"/>
	<polygon class="st1" points="527.1,308.6 522.1,291.8 517,308.6 499.5,308.2 513.9,318.1 508.1,334.7 522.1,324.1 536,334.7 
		530.2,318.1 544.6,308.2 	"/>
	<polygon class="st1" points="475.7,356.3 470.6,339.5 465.6,356.3 448.1,355.9 462.5,365.9 456.7,382.4 470.6,371.8 484.6,382.4 
		478.8,365.9 493.2,355.9 	"/>
</g>
</svg>
