<?xml version="1.0" encoding="utf-8"?>
<!-- Generator: Adobe Illustrator 24.0.1, SVG Export Plug-In . SVG Version: 6.00 Build 0)  -->
<svg version="1.1" id="flag-icons-fj" xmlns="http://www.w3.org/2000/svg" xmlns:xlink="http://www.w3.org/1999/xlink" x="0px"
	 y="0px" viewBox="0 0 800 480" style="enable-background:new 0 0 800 480;" xml:space="preserve">
<style type="text/css">
	.st0{fill:#68BFE5;}
	.st1{fill:#FFFFFF;}
	.st2{fill:#D21034;}
	.st3{fill:#FFFFFF;stroke:#000000;stroke-width:0.5319;stroke-miterlimit:1.9946;}
	.st4{fill:#FFD100;stroke:#000000;stroke-width:0.8;stroke-miterlimit:3;}
	.st5{fill:#FFFFFF;stroke:#000000;stroke-width:0.2;stroke-miterlimit:3;}
	.st6{fill:#00A651;stroke:#000000;stroke-width:0.5;stroke-miterlimit:4.8;}
	.st7{fill:#964B36;stroke:#000000;stroke-width:0.5;stroke-miterlimit:4.8;}
	.st8{fill:#964B36;stroke:#000000;stroke-width:0.3;stroke-miterlimit:4.8;}
	.st9{stroke:#000000;stroke-width:0.5;stroke-miterlimit:4.8;}
	.st10{fill:#FFFFFF;stroke:#000000;stroke-width:0.7;stroke-miterlimit:4.8;}
	.st11{fill:#FFF200;stroke:#000000;stroke-width:0.3;stroke-miterlimit:4.8;}
	.st12{fill:#00A651;stroke:#000000;stroke-width:0.3;stroke-miterlimit:4.8;}
	.st13{fill:none;stroke:#000000;stroke-width:2.8;stroke-miterlimit:4.8;}
	.st14{fill:#012169;}
	.st15{fill:#C8102E;}
</style>
<path id="path564" class="st0" d="M0,0v480h800V0H0z"/>
<g id="g768_1_">
	<path id="path566_1_" class="st1" d="M546.2,193.2v136.4c0,44.6,80.6,71,80.6,71s80.5-26.4,80.5-71V193.2H546.2z"/>
	<path id="path568_1_" class="st2" d="M615.6,241.2v61.4h-69.4v22.3h69.4v71.5l11.2,4.3l11.1-4.3V325h69.4v-22.4h-69.4v-61.4
		L615.6,241.2z"/>
	<path id="path570_1_" class="st2" d="M546.2,193.2h161.1V246H546.1L546.2,193.2z"/>
	<g id="g642_1_">
		<g id="g580_1_" transform="translate(-96.9 97.5) scale(.66486)">
			<ellipse id="ellipse572_1_" class="st3" cx="986.7" cy="192.2" rx="13.6" ry="11"/>
			<ellipse id="ellipse574_1_" class="st3" cx="986.7" cy="186.5" rx="12.1" ry="6.1"/>
			<ellipse id="ellipse576_1_" class="st3" cx="986.7" cy="198.8" rx="12.1" ry="6.1"/>
			<ellipse id="ellipse578_1_" class="st3" cx="986.7" cy="192.2" rx="12.1" ry="6.1"/>
		</g>
		<path id="path582_1_" class="st4" d="M703.3,235.4l-1.3-3.6c0,0-3.6-1.5-3.9-3.4c-0.6-5.1-2.4-7-5.2-7.8c-1.5-0.4-3.1-0.2-4.5,0.5
			c-0.8,1.2-5,1.2-7.2,1.3c-2.3,0-2.4-1-2.4-1c-1.7,0-2.5-1.3-2.5-1.3c-1.1-2.3-2-3.2-2.6-3.5c3,0,5.2-1.3,8.6-4.8
			c3.6-3.8,6.2-2.4,6.2-2.4c-1.8,3.6,0.6,3.3,0.6,3.3c4.8-2.5,0.6-8.7-0.8-8.4c-1.5,0.3-1.9-0.7-1.9-0.7c0,1.1-1.6,1.6-1.6,1.6
			c1.2-7.1-3-9-3-9c-0.6,0.6-1,1.9-1,1.9c-1.2,4.3-5.1,3.6-9.5,1.5c-4.4-2-16,2.2-19.7,3.7s-10.4,3.7-16.4,0.4
			c-6-3.4-7.5-2.8-9.9-2.1c-2.3,0.6-6.5,1.6-8,0.8c-1.1-0.5-2.2-0.8-3.4-0.9c0.4-0.2-0.2-1.2-0.2-1.2c-1.9-2.5,0.2-4,0.2-4
			s-3.4,1-2,6.8l0.6,0.8c0,0,0.4,1.9,1.4,2.4v0.4c0,0,0.9-0.4,1.1,0.8c0.3,1.2,1.6,0,2.1-1c0,0-0.9,5.4,5.7,6.7c0,0-0.7-0.9-0.5-1.4
			c0.3-0.6-0.8-1-0.7-1.8c0.1-0.9-1.6-1.2-0.3-1.9c1.4-0.6,2-1.9,5-0.1c2.9,1.7,5.2,1.3,5.2,1.3s-1.8-3.6-0.8-3.6s5.4,5.4,7.5,5.2
			c2.2-0.3,6.4-2.8,8.5-1.9c0,0,0.2-1,8.2-2.4s18-5.4,21.7-1.9c0,0,0.4,2.8,2,3.5c0,0-0.3,5.8-10.2,2.6l-3.6-1c0,0-0.6-1.7-19.5,3.2
			c0,0-1.1,0.4-1.9,0.9c-0.7,0.5-1.7-0.3-5.5,1c-3.7,1.5-17.7,6-26.3,4.4c-1.9-0.6-3.6-0.3-3.7-0.6c0-0.3,1,0.1,1,0.1
			c-0.6-0.7-0.9-0.8-0.9-0.8c-7.2-0.8-6-4-6-4l0.4,1c1.2-1.6-0.4-5.2-0.4-5.2H602c0-0.1,0-0.2,0-0.3l0.5-0.4c3.5-3,7.5-3.5,7.5-3.5
			c-2.4-3-7.4-1.4-7.4-1.4c0.1-3.5-1.4-7.7-1.4-7.7c-3.1,0.5-5.8,2.2-7.7,4.7c-0.2-3.7-4.9-5.8-4.9-5.8c1.8,2.1,0.7,7.2,0.7,7.2h0.2
			H589l-0.1,1.1h-0.2c0,0-1.7,0.6-3.7,5.2c0,0-0.2,1-1,2v-0.4c0,0-2.3,3-7.4,0c0,0-7-4.1-9.6-4c-2.4,0.2-4,1.3-3.9,2
			c0,0-5.7-0.4-7.6,2.8c0,0-4.3,1.6-0.6,5c0,0,0.5,1.6,1.5,2.4c0,0-0.1-3.2,0.7-2.3l0.5,0.6c0.1,0.4,0.5,1.6,1.2,2.3l0.6-0.2
			c0-0.8,0.2-1.8,0.4-2.2h0.2l1,1.6l1-0.6c0.6,0,1.3,0.5,1.3,0.5l1.3-1.1c1.3,0.2,1.7-2.4,1.7-2.4c1.1,0.3,2.2,0.1,3.1-0.5
			c0.6,2,5.2,4.3,5.2,4.3h0.2l-0.6,0.4c2.1,1.5,6,1.1,6,1.1c-1.6,0.6-1.4,3.7-1.4,3.7c-1,0.4-1,1.3-1,1.3c3.2,1.3,5.3,0.2,5.3,0.2
			c0.2,1,0,1.2,0,1.2c-1.3,2.7-1.9,5.4-1.9,5.4h0.1v0.2c0,0-5.7,2-8.1,4.7c0,0-0.3-0.8-1-0.8s-2.8-1.8-3.8-2.1s-2.5,0.3-3-0.2
			c-0.3-0.4-0.1-3.6-0.8-4l-0.7-2c-0.4,1-2.4,0.8-2.4,0.8l-0.8,0.6l-0.8-0.1c-0.2,0-0.4,0.5-0.5,1l-0.3,0.3v-0.6
			c-0.3,0.3-1.1-0.1-1.4-0.1c-0.2,0-0.4,0.4-0.5,0.9l-1.9,0.1c-0.3,0.2,0,2.6,0,2.6c-2.3,1.2-1.2,3.1-1.2,3.1
			c1.2,6,11.5,3.3,12.3,4.1s2.6,1,3.5,1c1,0,2.1,2.2,3.4,2.4s0-1.8,6.1-3.2c6.1-1.5,8.2-4,8.2-4c1.9-0.4,2.4-2.7,2.5-3.6l0.2,1.4
			c0.3,2.1-1.2,3-1.2,3l5.3-1.7c2.1-0.5,1.8-2.4,1.8-2.4c2,5.8,5.7,6.2,5.7,6.2c0.7-2.2,0.6-2.9,0.6-2.9h1.7c0-1.3-1-2.2-1.7-2.6
			l2.6,1.5l1-0.1c0,0.9,1.3,1.7,1.3,1.7l0.2-1.2c1.2,1.6,3.4,1,3.4,1c-0.1-0.3-0.1-0.5-0.2-0.8c4.7,2.9,12.2-0.8,12.2-0.8
			c2,0.4,2.3-0.8,2.3-0.8c2.2,0.3,2.8-1.3,2.8-1.3c5.3-0.4,9.1-4.2,9.1-4.2c2.7-0.2,2.8-2.1,2.8-2.1s2.6,0.5,5.2-2.7
			c6-8.5,14.8-4,14.8-4l-5.1,0.3c-13.5-0.1-7.9,9-7.9,9h0.8c1.3,0.2,5.7,3.7,4,6.2v0.2c-2.8,3.7-7.8,0.2-9.3-3
			c-1.4-3.2-4.4-2.5-4.4-2.5s-7.5,1.3-4.4,7.3c0.1,1.5,1,3.2,3.8,4.8c1.5,2.2,6.5,2.4,10.1,1.6c1.8-0.2,10.8-4.2,10.8-4.2
			c0.7-2,3-1.5,5-4.4c2-2.8-2.9-3.8-4-5.4c-1-1.5,0.3-1.2,0.3-1.2c4.4,2.3,4.8-5.2,4.8-5.2c0.3,2.5,1.9,4.6,4.3,5.5
			c2.3-2.3,0.6-7.2,0.6-7.2c5.7,10.2,9.1,8.5,9.1,8.5c-3-1.8-1.5-4.4-1.5-4.4c2.7,10.8,14,1.4,14,1.4c-0.6,1.6,0,2.5,1,3.5
			s2.2,1.4,1.6,3.3c-0.5,1.8-5.8,1.4-5.8,1.4s-5-0.2-4.6,4c0.3,1,3.6,1.4,5,1.1c0,0-0.6,0.2,1.3,0.4h2.2c2.1,0,4.5-0.4,4.5-0.4
			c2.9-0.6,2.4-1.6,2.4-1.6c4.5-0.8,5-3.8,5-3.8L703.3,235.4z"/>
		<path id="path584_1_" d="M555,216.7c0,0,0.3-0.5,0.7-0.6c0.4,0,0.8,0.2,1.2,0.8l0.3-0.2c0,0-1.2-1.8-0.8-3c0.3-0.6,0.8-1,1.6-1.1
			v-0.3c-1,0.2-1.6,0.6-1.8,1.3c-0.1,0.2-0.2,0.5-0.2,0.7c0,0.6,0.2,1.2,0.5,1.7c-0.2-0.2-0.5-0.2-0.8-0.2c-0.4,0-0.7,0.3-0.8,0.6
			L555,216.7z M695.9,240.7c-3,0.5-7.5,0.7-7.9-0.2c0-0.2,0-0.8,2.4-2.4l-0.2-0.5c-2.1,1.4-3,2.3-2.7,3c0.7,1.8,7.2,0.8,8.5,0.6
			L695.9,240.7z M637.5,242.4c-0.7-1-0.3-2.5,1-4.3l-0.5-0.3c-1.4,2-1.7,3.6-1,5L637.5,242.4z"/>
		<path id="path586_1_" d="M633.5,237.8c0,1.9,1.4,3.6,3.9,5.1l0.3-0.5c-2.4-1.4-3.6-3-3.6-4.6c-0.2-2.5,2.5-4.5,2.6-4.5l-0.3-0.4
			c-0.2,0-3,2.1-2.9,5V237.8z M685.4,238.5c-0.8,1.3-0.5,2.8-0.5,2.8h0.5c0-0.1-0.2-1.4,0.5-2.5c0.5-0.7,1.2-1.1,2-1.2v-0.5
			C686.8,237.3,685.9,237.8,685.4,238.5L685.4,238.5z M566.3,215.1h-0.2v0.2c0,0-0.2,1.6-1,2c-0.2,0.1-0.4,0.1-0.6,0l-1.3-0.7
			c-0.2-0.2-0.4-0.3-0.8-0.2c-0.3-0.4-0.5-0.9-0.4-1.4c0.1-0.7,0.6-1.4,1.6-2l-0.2-0.3c-1,0.7-1.6,1.5-1.7,2.3c0,1,0.5,1.6,0.5,1.6
			v0.1h0.2c0.3-0.1,0.3,0,0.6,0.2l1.4,0.8h1c0.7-0.5,1-1.9,1-2.2c3.2,0.7,5.8-3.3,6-3.4l-0.3-0.2
			C572.2,211.9,569.5,215.9,566.3,215.1L566.3,215.1z"/>
		<path id="path588_1_" d="M558.5,214.5c-0.1,0.7,0,1.4,0.4,2c0.3,0.5,0.7,0.8,1,0.9c0.5,0,0.8-0.3,1.2-0.6c0.2-0.2,0.4-0.4,0.6-0.4
			l0.3,0.2l0.2-0.2l-0.5-0.3c-0.3,0-0.6,0.2-0.8,0.5c-0.2,0.3-0.6,0.5-1,0.5c-0.2,0-0.5-0.3-0.8-0.8c-0.3-0.5-0.4-1.1-0.3-1.7
			c0.4-1.4,2.1-2.5,2.1-2.5l-0.1-0.3C560.7,211.8,558.9,213,558.5,214.5L558.5,214.5z M554,235.2c0.1-0.6,0.6-1,1.3-1.4
			c-0.2,0,0.6,0.6,1.3,0.6l0.5-0.3c0.2,0.2,1.4,1.3,1.4,2.7c0,0.3,0,0.6-0.2,0.9l0.3,0.1c0.9-2.1-1.4-4-1.4-4H557l-0.4,0.3
			c-0.6,0-1.3-0.6-1.3-0.6c-1,0.4-1.4,1-1.6,1.6L554,235.2z M564.3,229.8c-0.7,0.1-2.5,0.4-3.1,1.4c-0.2,0.4-0.3,0.8-0.1,1.2
			l0.2,0.6c0.6,1.6,1.2,3.2,1.9,3.6l0.1-0.3c-0.6-0.3-1.2-2-1.7-3.4l-0.2-0.6c-0.2-0.3-0.2-0.7,0-1c0.5-0.7,2.2-1,3-1.1
			c0.4,0,0.5,1.5,0.6,2.4h0.3C565.2,231.2,565,229.8,564.3,229.8L564.3,229.8z"/>
		<path id="path590_1_" d="M559.2,231.4c-0.4,0.3-0.3,0.8-0.3,0.9c0,0.1,0.2,4,2,4.8l0.1-0.3c-1.6-0.7-1.8-4.5-1.8-4.6
			c0,0,0-0.4,0.2-0.6c0.3-0.2,0.8-0.3,1.6,0l0.1-0.3c-0.9-0.3-1.5-0.2-1.9,0L559.2,231.4z"/>
		<path id="path592_1_" d="M557.8,231.7c-0.8,0.6-0.7,2.2-0.7,2.3h0.3c0,0,0-1.6,0.6-2c0.3-0.2,0.6-0.2,1,0l0.1-0.4
			C558.5,231.4,558,231.4,557.8,231.7L557.8,231.7z"/>
		<g id="g632_1_" transform="translate(-96.9 97.5) scale(.66486)">
			<path id="path594_1_" d="M1050.8,169.5c0,0,1.3,3,1.3,5.3c0,0.4-0.2,0.7-0.3,1l-0.5-1.3l-0.3,1c0,0-0.6,1.4,0.3,2.9
				c1.2,2,4.2,3.2,9,3.7v0.1c-0.1,0-0.3,0-0.4,0.1l-0.2,0.2v0.4c0.2,0.5,0.7,0.5,1.8,0.5l0.7,0.1l0.6,0.2l-0.1-0.1
				c1,0,2.3,0.3,3.6,0.8l-1,0.2l1.1,0.5c0.1,0,8.7,3.5,12.2,6.3c-1,0.9-5.3,4-12.7,2.2l-1.2-0.3l0.8,1c0,0,4.9,5.6,5.9,9
				c-1.7,0-8.2,0-10.5-2l-0.5,0.5c0,0,3,4.6,3.8,8.1c-1,0.2-3,0.3-4.3-1.4l-0.6-0.7l-0.3,2c-0.6-0.5-1.4-1.1-1.4-1.9v-0.4l-1.8,0.3
				l-3.8-2.3c-0.2-0.1-0.4-0.3-0.6-0.4l-0.4,0.7l0.6,0.3c0.8,0.6,2.2,1.7,2.3,3.3h-2.4v0.5c0,0.3,0,1.4-0.9,3.7
				c-1.1-0.2-5.3-1.7-7.8-8.8l-0.8,0.2v0.2c0,0.7-0.2,2.3-2.4,2.9l-6.5,2c0.6-0.8,0.9-1.8,0.8-2.8v-0.8c-0.1-0.9-0.2-1.7-0.2-2.6
				c0-1.5,0.3-2.4,1.4-3l-0.4-0.8c-0.1,0-9.6,3.9-14.3,2.3c0.2-1,1-4.2,2.6-7.6l-0.2,0.2c0.3-0.2,0.6-0.6,0.3-2.2v-0.5l-0.5,0.2
				c0,0-3,1.4-7.4-0.2c0-0.4,0.3-1,1.2-1.4l0.3-0.1V190c0-1.2,0.1-4,1.8-4.6l-0.2-0.8c0,0-5.1,0.4-8.2-1.3c1.3-1,2.9-1.6,4.5-1.9
				h0.3V181c0-0.8-0.2-1.6-0.5-2.3c1.2,0.4,2.6,0.7,3.1,0.3l0.2-0.1l-0.2-3.1h-0.8l0.1,2.6l-3-0.7l-1.2-0.4l0.8,1
				c0.5,0.7,0.7,1.5,0.7,2.4c-1.8,0.4-3.5,1.2-5,2.3l-0.5,0.4l0.5,0.3c2.4,1.6,6.1,1.8,8,1.7c-0.9,1.3-1.3,2.9-1.3,4.5v0.4
				c-0.8,0.5-1.4,1.3-1.5,2.2v0.3l0.2,0.1c2.5,1.1,5.3,1.3,7.9,0.5v0.9c-2,4.2-3,8.3-3,8.3v0.4h0.3c3.9,1.6,10.7-0.5,13.8-1.6
				c-0.4,0.7-0.7,1.5-0.7,2.5c0,1.1,0.1,2.3,0.3,3.4c0,2.3-1.5,3.2-1.6,3.2l0.3,0.8l8-2.4c1.8-0.5,2.5-1.6,2.8-2.5
				c3.1,7.4,8,8,8.3,8.1h0.3l0.1-0.3c0.5-1.3,0.9-2.6,1-4c0.8,0,1.6-0.1,2.4-0.1v-0.5c0-0.7-0.1-1.3-0.4-1.8l1.4,0.8l1.3-0.2
				c0.3,1.3,1.9,2.4,2.1,2.5l0.5,0.3l0.3-1.7c2,1.7,4.7,1.2,4.9,1.2l0.3-0.1v-0.4c-0.4-2.7-2.2-5.9-3.3-7.6
				c3.5,1.6,9.9,1.5,10.2,1.5h0.4v-0.5c-1.3-3.3-3.2-6.4-5.6-9c8.2,1.5,12.6-2.8,12.8-3l0.3-0.3l-0.4-0.2c-3.6-2.6-7.5-4.7-11.6-6.3
				l0.9-0.2l-1-0.5c-1.8-0.9-3.8-1.4-5.8-1.4c-1-1.2-1.5-1.3-1.6-1.4c-5.6-0.6-7.6-2.1-8.4-3.3v-0.3l0.2-0.3
				c0.5-0.7,0.7-1.6,0.7-2.6c0-2.6-1.3-5.5-1.3-5.6L1050.8,169.5L1050.8,169.5z"/>
			<path id="path596_1_" d="M1025.3,167.9c0,0-0.6,3-3.2,4.5c-2,1-4.5,1-7.6-0.3l-0.4-0.1v0.4c0.2,1.3,0.9,2.4,2,3.2
				c1.3,1,3.3,1.4,5.9,1.2c-0.9,1-3.6,4.4-3.6,7.8v0.5c0.4,0.2,4.6,1.4,6.6-1.1c0,1,0.4,4.5,1.7,5.8c0.8,0.8,1,1.8,1,2.7
				c0,0.8-0.2,1.4-0.2,1.4l-0.2,0.6l0.5-0.4c0.2-0.1,4.1-3,5.3-6.7c0,0,0.7-1,1.9-1.3v0.5c0,1.5,0.6,4.1,4.8,5.7l0.3,0.1v-0.3
				c0-0.2,0-0.5,0-0.7c0-1.1,0-3,1.1-4c0.9-0.8,1.2-2.2,0.6-3.3c0.9,0.2,2.9,0.9,3.7,2.4c1.2,2.2,5.3,0.4,5.5,0.4l-0.1-0.5
				c0,0-1.8,0.4-2.9-0.3c-0.5-0.4-0.8-0.9-0.8-1.5l-0.2-2.4c0-1-0.2-1.7-0.7-2.2c0.5,0,1.6,0,2,1c0.8,1.6,3.3,1.7,3.4,1.7l0.9,0.1
				l-0.7-0.5c0,0-2.2-1.4-1.8-3.3l0.3-1.4c0.6-2.5,1.6-6.6,0.7-9.2l-0.4,0.2c0.2,0.6,0.3,1.4,0.3,2.2c0,2.2-0.7,5-1,6.7l-0.4,1.4
				c0,0.2,0,0.3,0,0.5c0,1.3,0.7,2.2,1.3,2.7c-0.7-0.1-1.7-0.5-2-1.3c-0.7-1.4-2.3-1.4-3-1.3l-0.6,0.1l0.4,0.4
				c0.7,0.4,0.8,1,0.8,2.3l0.2,2.3c0.1,0.8,0.5,1.4,1,1.8c0.6,0.4,1.2,0.4,1.7,0.5c-1.2,0.3-2.9,0.5-3.5-0.6
				c-1.1-2.2-4.3-2.7-4.4-2.8h-0.5l0.2,0.4c0,0,0.4,0.6,0.4,1.4c0,0.5-0.2,1.2-0.7,1.7c-1.1,1.1-1.3,3.2-1.3,4.3v0.4
				c-3.6-1.5-4.2-3.7-4.2-5v-1l0.2-0.3h-0.4c-1.1,0.2-2,0.8-2.5,1.8c-1,2.4-2.6,4.6-4.7,6.2c0.1-0.3,0.1-0.7,0.1-1
				c0-0.9-0.2-2-1-2.9c-1.5-1.4-1.7-6-1.7-6v-0.8l-0.4,0.7c-1.6,2.8-6.2,1.4-6.3,1.4c-0.2-3.5,4-8.1,4-8.2l0.4-0.4h-0.6
				c-2.7,0.4-4.8,0-6.2-1c-0.8-0.6-1.4-1.5-1.6-2.5c3,1.1,5.6,1.2,7.6,0.1c1.7-1.1,3-2.8,3.4-4.8c3-6.6,5.5-7.7,5.5-7.7l-0.1-0.4
				C1030.9,159.9,1028.3,160.9,1025.3,167.9L1025.3,167.9z"/>
			<path id="path598_1_" d="M1032,158h-0.2l-2.4,3.3h0.7c7.5,0.6,14.5,3.9,19.7,9.2l0.3,0.3l2.3-2.5l-0.2-0.3
				C1045.7,157.8,1032.1,158,1032,158L1032,158z M1032.2,158.9c1.6,0,13.2,0.3,19.2,9.3l-1.3,1.4c-5.3-5-12.1-8.1-19.3-8.9
				C1031.3,160.1,1031.8,159.5,1032.2,158.9L1032.2,158.9z"/>
			<path id="path600_1_" d="M1030.1,164.8c-1.1,1.4-1.8,3.1-2.1,4.8l0.1,0.4c-1.4,1.5-2.1,3.5-2,5.5c0,1.3,0.2,2.6,0.6,3.8l0.3,0.7
				c1.2,3.4,2.3,6.4,7.8,4.6c5.2-1.6,5.4-2,6.7-4.2l0.4-0.5c0.7-1.2,1.5-1.4,2.3-1.7c1-0.3,2-0.6,3-2.4l0.8-1.3c1-1.3,2.2-3,2.3-5
				h-0.4c-0.3,1.7-1.1,3.4-2.2,4.7l-1,1.4c-0.4,1.1-1.4,1.9-2.6,2.2c-1.1,0.2-2,0.9-2.6,1.8l-0.4,0.6c-1.2,2.1-1.4,2.4-6.5,4
				c-5,1.6-6-0.9-7.2-4.4l-0.3-0.7c-1.4-3.8-0.3-7.6,1.6-9l0.6-0.5l-0.9,0.1v-0.1c0-0.7,0.7-2.6,2-4.5c1.2-1.6,4-3.1,4-3.2l-0.2-0.4
				C1034,161.6,1031.3,163.2,1030.1,164.8L1030.1,164.8z"/>
			<path id="path602_1_" d="M1027.7,178.7c0.9,0.6,2.1,0.5,3.7,0c0,0.5,0,1.7,1,2.5c1.2,1,3,1.2,5.5,0.6v-0.5
				c-2.4,0.6-4.2,0.4-5.2-0.5c-0.6-0.6-1-1.5-0.9-2.4V178l-0.3,0.2c-1.5,0.6-2.7,0.7-3.6,0c-1.5-1-1.4-3.7-1.4-3.7h-0.4
				C1026.1,174.5,1025.9,177.5,1027.7,178.7L1027.7,178.7z"/>
			<path id="path604_1_" d="M1030.5,175c-0.6,0.2-0.8,0.7-0.8,1.1v0.3c0.2,1.2,1.5,2,2.6,2.3c1.2,0.3,2.6,0.4,3.1-0.3
				c0.2-0.3,0.4-0.8,0-1.7C1034.5,174.9,1032.4,174.2,1030.5,175L1030.5,175z M1032.5,178.3c-1-0.3-2.2-1-2.3-2c0,0-0.1-0.7,0.5-0.9
				c1.6-0.6,3.4,0,4.2,1.6c0.3,0.4,0.3,0.8,0.1,1C1034.7,178.5,1033.6,178.6,1032.5,178.3L1032.5,178.3z M1032.1,181
				c-0.3,2.5,0,2.6,0.1,2.6h0.2l0.2-0.1l1.4-2l-1.8-0.8v0.3H1032.1z M1032.6,181.4l0.7,0.3l-0.8,1.1L1032.6,181.4L1032.6,181.4z
				 M1028.4,179l-0.1,2.3l2-2.4l-2-0.2L1028.4,179L1028.4,179z M1028.8,179.2h0.6l-0.6,0.8V179.2z"/>
			<path id="path606_1_" d="M1027,178.2c0,0,1.5,2.9,1.8,4c0.1,0.6,1,1.4,2,1.7c1,0.4,2,0.4,2.7-0.1l1.3-1.1c0.4-0.5,0.6-0.6,1-0.5
				v-0.5c-0.6,0-0.9,0.2-1.3,0.6l-1.3,1c-0.8,0.6-1.7,0.4-2.2,0.2c-1-0.3-1.7-1-1.8-1.5c-0.3-1-1.7-3.9-1.8-4L1027,178.2L1027,178.2
				z M1029,169.6c-1.1,0.6-2,1.6-2.4,2.8l0.4,0.1c0,0,0.7-1.8,2.1-2.5c0.8-0.3,1.6-0.3,2.4,0l0.1-0.4
				C1030.6,169.2,1029.8,169.2,1029,169.6L1029,169.6z M1039.8,174.8c0.2,0,3.2,2.4,1.5,5.2l0.3,0.3c2-3.3-1.5-5.9-1.5-6
				L1039.8,174.8z M1030.6,175.2c0,0-0.5,1.7,2,2.3c0,0-2.3,0-2.5-0.6C1030,176.3,1030.1,175,1030.6,175.2z M1038.1,177.2
				c0,0.2-0.2,0.3-0.3,0.3c-0.1,0-0.3-0.1-0.3-0.2c0-0.2,0.1-0.3,0.3-0.3c0.1,0,0.3,0.1,0.3,0.3V177.2z M1038.3,178.4
				c0,0.1,0,0.2-0.2,0.2c-0.1,0-0.3-0.1-0.3-0.2c0-0.2,0.1-0.3,0.3-0.3C1038.2,178.1,1038.3,178.2,1038.3,178.4z"/>
			<circle id="circle608_1_" cx="1036.5" cy="177.8" r="0.3"/>
			<path id="path610_1_" d="M1037.3,179.4c0,0.2-0.1,0.3-0.3,0.3c-0.2,0-0.3-0.1-0.3-0.3c0,0,0,0,0,0c0-0.1,0.1-0.2,0.3-0.2
				L1037.3,179.4z M1030.2,172.1c0,0.2-0.1,0.3-0.3,0.3c-0.2,0-0.3-0.1-0.3-0.3c0.1-0.1,0.3-0.2,0.4-0.1
				C1030.1,172,1030.1,172.1,1030.2,172.1L1030.2,172.1z"/>
			<circle id="circle612_1_" cx="1030.1" cy="173.2" r="0.3"/>
			<circle id="circle614_1_" cx="1028.6" cy="172.7" r="0.3"/>
			<path id="path616_1_" d="M1029.3,174.3c0,0.1-0.1,0.3-0.2,0.3c-0.2,0-0.3-0.1-0.3-0.3s0.1-0.3,0.3-0.3l0,0
				C1029.3,174,1029.3,174.2,1029.3,174.3z M1034.1,164.7c0,0,3.5,2.2,0.1,6.3c0,0,1.7-1.3,1.8-3.4
				C1036.2,165.5,1034.8,163.8,1034.1,164.7L1034.1,164.7z M1047.6,170.6c-1.2,0.6-2.8-0.5-3.6-1.5c-0.8-1-2.5-1.3-3.6,0.6
				c-1,1.8-2.5,2.5-2.5,2.5s1.5-0.8,3-2.5c1.5-1.6,2.4-0.3,3.9,0.5c1.4,0.8,1.7,1,2.7,0.5L1047.6,170.6L1047.6,170.6z"/>
			<path id="path618_1_" d="M1047.3,170.9c-0.7,0.5-1.6,0.5-2.2-0.1c-1-0.8-1.7-1.8-2.8-1.2c-1.2,0.6-3.3,2.2-3.3,2.2
				s3.5-2.4,4.2-1.8c0.6,0.5,2.2,1.8,3.1,1.4L1047.3,170.9L1047.3,170.9z"/>
			<path id="path620_1_" d="M1044.6,172.3c-1.1-0.8-2.2,1-3.1,0.8c-1-0.2-1.7-1.8-1.7-1.8s0.8,1.6,2,1.3c1.3-0.4,2.1-1.2,2.9-0.6
				C1045.4,172.6,1044.6,172.3,1044.6,172.3L1044.6,172.3z"/>
			<path id="path622_1_" d="M1042.9,172.6c-1.1,0.2-2.1-0.5-2.4-1.6c0-0.1,0-0.2,0-0.3c0,0,0.7,1.8,2.6,1.5L1042.9,172.6
				L1042.9,172.6z"/>
			<path id="path624_1_" d="M1042.8,171.2c0.1,0.5,0.1,0.8-0.5,0.8s-1-0.2-1-0.8C1041.3,170.7,1042.7,170.8,1042.8,171.2z
				 M1035,168.2c-0.1,0.3-0.3,0.6-0.7,0.6c-0.4,0-0.5-0.2-0.5-0.6s0-0.7,0.5-0.7S1035,167.8,1035,168.2z"/>
			<path id="path626_1_" d="M1032.5,165.7c0,0,3.8,0,2,4.7c0,0,1.4-2.3,0.5-4c-1-1.6-2.3-1.2-2.3-1.2S1032.3,165.5,1032.5,165.7z"/>
			<path id="path628_1_" d="M1032.5,167.6c0,1,0.6,1.9,1.8,2.9l0.3-0.4c-1.1-0.9-1.7-1.7-1.7-2.5s0.6-1.3,0.6-1.3l-0.3-0.3
				C1033.2,166,1032.5,166.6,1032.5,167.6L1032.5,167.6z"/>
			<path id="path630_1_" d="M1033.3,168.4c0.1,0.5,0.6,1,1.2,1.2l0.2-0.4c-0.5-0.2-0.9-0.6-1-1c-0.2-0.8,0.4-1.7,0.4-1.7l-0.4-0.3
				C1033.7,166.2,1033,167.4,1033.3,168.4z M1038.4,171c0,0,0.7,1.5-0.3,3.1l-1,1.6c0,0,1.2-2.3,0.7-3.2
				C1037.4,171.5,1038.4,171,1038.4,171L1038.4,171z M1053,186.8c3.8,0.7,12.5,7.5,12.5,7.5l0.5-0.6c-0.3-0.3-8.9-7-12.9-7.7
				l-0.2,0.8H1053z M1056.4,196.3c0.2,3.5,4,5.6,4,5.7l0.5-0.7c0,0-3.5-2-3.7-5H1056.4z M1047.1,197.1c0,3.8,3.6,8.4,3.8,8.6
				l0.6-0.5c0,0-3.6-4.6-3.6-8.1H1047.1z M1035,197.5c0.6,1.3,0.6,1.9,0.4,2.2c-0.2,0.4-0.6,0.4-0.6,0.4l0.1,0.8
				c0.3,0,0.9-0.2,1.2-0.8c0.4-0.7,0.3-1.7-0.4-3L1035,197.5L1035,197.5z"/>
		</g>
		<g id="g640_1_">
			<path id="path634_1_" class="st5" d="M555,216.3c0,0,0.1,1.7,1.4,2.7c0,0-0.1-1.8,0.3-2.6C556.6,216.4,555.9,215.6,555,216.3
				L555,216.3z M557.5,217.3c0,0,0.3,1.6,1.2,2.3l0.6-0.1c0,0,0.2-2,0.5-2.2S558.6,218,557.5,217.3L557.5,217.3z"/>
			<path id="path636_1_" class="st5" d="M559.8,217.3l1,1.6l1.2-0.7l-0.2-1.8C561.8,216.4,561.1,216.2,559.8,217.3z M564.5,217.6
				l-1.3,1.1c0,0-0.7-0.5-1.2-0.5l0.2-1.7C562.2,216.5,563.2,215.8,564.5,217.6L564.5,217.6z M555.2,233.6c0,0-0.2-2.4,0-2.5
				c0,0,1,0.3,1.4,0c0,0,0.5,1.8,0.4,2.6c-0.2,0.8-1.1,0.5-1.8,0V233.6z M561.2,231.2c0,0-0.1-2,0.2-2.3c0,0,2,0.3,2.4-0.8l0.7,2
				c0,0-2.1-0.3-3.4,1L561.2,231.2z"/>
			<path id="path638_1_" class="st5" d="M559.1,231.6c0,0,0.3-2.1,0.7-2.2c0,0,1,0.3,1.3-0.1v2.6
				C561.1,231.9,561.1,230.8,559.1,231.6z M556.8,231.9c0,0,0.5-1.9,0.8-1.9s1,0.5,1.4,0.2v1.4c0,0-1.6-0.4-1.9,1.9L556.8,231.9
				L556.8,231.9z"/>
		</g>
	</g>
	<g id="g682_1_">
		<path id="path644_1_" class="st6" d="M587,270.4c0,0,5.2,4.9,3.9,9.2c0,0,3.3-7.3-0.3-9.5C587,268.1,587,269.6,587,270.4z"/>
		<path id="path646_1_" class="st7" d="M580.3,275.1c0,0-1.3,2,0.2,3.3c0,0-1.7,2.4-0.4,4.4c0,0-1,2.1-0.8,4.4c0,0-0.8,3.5,1,5.1
			c0,0,2,1,3,0.1c0,0,1.7-2.6,0.6-5.3c0,0,1.2-2.3-0.2-5.2c0,0,0.4-1.6-0.7-3.5c0,0,0.7-1.2,0.1-2.2
			C583.2,276.2,580.7,273.5,580.3,275.1L580.3,275.1z"/>
		<path id="path648_1_" class="st6" d="M581.8,269c0,0-6.2-12-10.6-12.5c-4.4-0.5-4.6-4.8-4.6-4.8s0.5,2,4,2s10.2,5,11,8.7
			c0.7,3.7,1.5,3.2,1.5,3.2L581.8,269z"/>
		<path id="path650_1_" class="st6" d="M581.8,268.1c0,0,2.3-15.1,12.2-15.4c9.9-0.2,6.6,0.8,9-0.8c0,0-6.6,3.4-10.7,4
			c-4.2,0.4-7.6,8.5-7.4,10c0,1.5-2.3,4.4-3.4,3.4C580.3,268.3,581.8,268.1,581.8,268.1z"/>
		<path id="path652_1_" class="st6" d="M584.1,273.8c0,0,2.3-6,6.1-4c0,0-3-5.8-8.4-0.8C581.8,269,584.2,272.3,584.1,273.8z
			 M576.6,267.8c0,0,3.2,13.4-1.8,17.5c0,0,0.2-6.9-2.9-11C569,270.1,575,265.6,576.6,267.8L576.6,267.8z"/>
		<path id="path654_1_" class="st6" d="M577,270.1c0,0,5.9,5.7,6.2,7.6c0.4,1.8,1.8-5.7-1-7.8s-5.7-2.5-5.7-2.5l0.5,2.8V270.1z"/>
		<path id="path656_1_" class="st7" d="M566.1,285c0,0,0.5,2.3,2,2.8c0,0,0,1.7,1.4,2.2c0,0-0.7,1.5,0.4,2.4c0,0-0.2,3,0.8,3.5
			c0,0,2.7-0.1,3.6-0.9c0,0,0.5-1.9-1-3.8c0,0,0.3-1.8-1.2-2.8c0,0,0.5-2.5-1.4-3.4c0,0-0.3-2-1.4-3
			C569.3,282,567.1,285.1,566.1,285L566.1,285z"/>
		<path id="path658_1_" class="st6" d="M569,282c0,0-7.7-2.8-12,1.2c0,0,6.6,1,7.4,2.3S569.3,283.3,569,282z"/>
		<path id="path660_1_" class="st6" d="M566.6,286.8l-1.4-1c-0.7-0.6-7.2-2.3-8.1,4c0,0-2.4-6.3,1-7
			C561.6,281.8,564.3,283.8,566.6,286.8 M561.6,274c0,0,2.3,5.2,3.2,5.4c0.9,0.3,1.5-0.6,1.5-0.6S563.2,274.2,561.6,274L561.6,274z
			 M559.8,266.1c0,0-2-6.6-4.4-4.8c-2.4,1.7-1.8,6.5-1.8,6.5s-4.7-5-2-8.8C554.5,255.1,559.9,259.4,559.8,266.1L559.8,266.1z"/>
		<path id="path662_1_" class="st7" d="M565.2,279.8c0,0,0,1.3,0.9,1.6c0.8,0.4,2.5,1,2.5,0.3s-1.3-3.7-1.8-3.3
			C566.3,278.8,565.5,278.8,565.2,279.8z"/>
		<path id="path664_1_" class="st6" d="M563.8,272c0,0-0.3-5.7,3.5-7.9c0,0,0.7,0.2,1.1-1c0,0-3,7.3-2.1,11l-0.1,0.4"/>
		<path id="path666_1_" class="st6" d="M564.5,265c0,0,6.8-14,15-9.1c0,0-8.6,1.7-11.7,7.9l-3.1,4.6L564.5,265L564.5,265z"/>
		<path id="path668_1_" class="st6" d="M560.8,270.1c0,0-2-9.4-3.3-10.6c-1.2-1.3-3.3-2.6-5.9-0.5c0,0,4.4-3.9,9-0.6
			c4.7,3.2,3.7,8.4,3.7,8.4l-0.5,6.5l-3.1-2.9"/>
		<path id="path670_1_" class="st6" d="M568.1,281.3c0,0-8.3-15.7-13.7-4.5c0,0-1,2.9,0.1,4c0,0-3-2.3-1.6-7.8
			c1.4-5.5,10.5-3,13.2,1.5c2.6,4.5,3.3,6.8,3,7C568.8,281.8,568.1,281.3,568.1,281.3z M591.4,285.8c0,0,6-12.4,9.5-6.8
			c0,0,1,2.8-0.5,4c0,0-2.4-3-4.5,0.6c-2.2,3.5-1.3,3.2-1.3,3.2S592.4,287.4,591.4,285.8L591.4,285.8z"/>
		<path id="path672_1_" class="st6" d="M600.3,283c0,0,3.3,1.7,2.2,5.2c0,0,4.4-8.4-1.6-9.2c0,0,1.1,2.7-0.5,4H600.3z M600.8,274.4
			c0,0,7.9,2.3,8.1,5.7c0,0,1.4-6.6-3.1-8.6c0,0-5.4,1-5,3V274.4z"/>
		<path id="path674_1_" class="st6" d="M604.3,264c3.4-6.6,7.6,2.1,7.6,2.1s1.5-6.9-2.7-8.1c-4.3-1.3-7,14.7-7,14.7l-5,1
			c0,0,1.3-13.8,8.8-15h1"/>
		<path id="path676_1_" class="st6" d="M598.3,268c0,0-4.8-9.8-8-10.8s1.7-2.5,3.7-0.6s5.8,4.3,5.4,9.3L598.3,268z M593.3,281.4
			c0,0,1.4-6.6,5.2-8.6s7.3-1.3,7.3-1.3s-4.5,1-5.3,3.3c-0.7,2.2-2,2.4-2,2.4l-5.1,4.2H593.3z"/>
		<path id="path678_1_" class="st7" d="M591.3,285.8c0,0-2,4-1.6,4.6c0,0-2.2,3.3-1.3,5c0,0,2.2,1.7,3.2,1c0,0,2.6-3.7,1.9-5.7
			c0,0,1.8-2.4,1.1-3.9c0,0-2.6,0.1-3.2-1H591.3z"/>
		<path id="path680_1_" d="M580.3,278.6c0.2,0.1,1.5,0.7,2.3,0.4l0.6-0.5l-0.5-0.2c-0.3,0.6-1.7,0.1-2.1-0.1L580.3,278.6
			L580.3,278.6z M580.2,282.6l-0.2,0.5c0.1,0,2.7,0.5,3.9-0.6l-0.4-0.4c-1,0.9-3.3,0.4-3.4,0.4L580.2,282.6z M579.5,287l-0.3,0.4
			c0,0,3,2.1,4.9-0.2l-0.5-0.3c-1.5,1.9-4,0.2-4.1,0V287z M568,287.6l0.1,0.3c0.1,0,2.6-1,2.8-2.9h-0.3
			C570.5,286.6,568.1,287.6,568,287.6z M569.4,289.9v0.3c0.2,0,2.5-0.2,2.9-1.8H572C571.6,289.7,569.5,289.9,569.4,289.9z
			 M569.9,292.3v0.3c0.1,0,2.7,0.1,3.6-1.3l-0.3-0.2C572.5,292.4,570,292.3,569.9,292.3L569.9,292.3z M589.6,290.6
			c0,0,1.1,1.2,2.4,1.1c0.7,0,1.3-0.3,1.7-0.8l-0.4-0.4c-0.4,0.5-0.8,0.7-1.3,0.7c-1,0-2-1-2-1L589.6,290.6L589.6,290.6z"/>
	</g>
	<g id="g688_1_">
		<path id="path684_1_" class="st8" d="M667.3,299.8c-0.1,0.1-0.2,0.2-0.3,0.3l0.4-0.3H667.3z M676.6,297.5
			c-0.1-0.2-0.2-0.1-0.3-0.2l-0.4-0.8h-0.3l-0.7-1.4c0-0.1,0-0.2,0-0.3c0-0.1,0-0.3,0-0.4c0,0-0.2,0-0.3-0.2v-1.6l-0.1-0.5
			c-0.2-0.3-0.3-0.7-0.3-1.1v-1c0.1-0.4-0.1-0.6-0.1-1l0.1-0.9v-5.4l-0.1-1l-0.1-0.4v-1.6v2.6l-0.2-4.3l-3.4-1.6c0,0-0.3,6.2-0.2,7
			c0,0.9,0.4,6.7,0.2,7.4l-0.5,4.3c0,0-1.6,1.2-2.2,2.4c-0.7,1.3-0.5,1.7-0.7,1.7l1.5-0.2l-1.1,0.8c0.2-0.1,0.5-0.1,0.7,0.1l0.2,0.2
			l0.2-0.2c0.3,0,0.5,0.4,0.7,0.3l0.4-0.2l0.2-0.4c0.1-0.1,0.3,0,0.4,0h0.7c0.3,0,0.6-0.5,0.9-0.7c0.2-0.2,0.4-0.3,0.7-0.3
			s0.6,0.3,1,0.3c0.2,0,0.3,0,0.5-0.2l0.4-0.6l0.8-0.1l0.4,0.1h0.6l0.3,0.2l0.2-0.4L676.6,297.5L676.6,297.5z"/>
		<path id="path686_1_" class="st8" d="M669.8,299.7h0.6v0.2c0.1,0,0.1,0,0.2,0l0.3,0.2h0.3l0.4,0.1c0.2,0.1,0.4,0,0.6-0.1
			c0.2-0.2,0.3,0,0.6,0.2c0.1,0.1,0.1,0.1,0.2,0l0.1-0.1l0.3-0.1l0.3-0.1l0.4-0.2l0.4,0.2c0.1,0,0.1,0,0.2,0l0.7-0.5
			c0.3-0.2,0.5,0,0.7,0h0.3c0.1-0.1,0.2,0,0.4,0c0-0.1,0-0.2,0.2-0.3l0.7,0.4c0.1,0.1,0.7,0.2,0.6-0.2c0-0.4-0.4-0.1-0.5-0.4v-0.6
			c0-0.2-0.2-0.3-0.3-0.4c-0.2,0-0.2,0.1-0.4,0l-0.2-0.6l-0.3,0.2c-0.2,0-0.2-0.1-0.3-0.3c-0.3-0.3-0.4,0.2-0.7,0.1
			c-0.2,0-0.4-0.5-0.5-0.7c-0.1-0.1-0.3-0.5-0.5-0.4s0,0.5,0,0.7h-0.5c-0.2,0-0.2,0-0.3,0.2c-0.2,0.4-0.3,0.7-0.7,0.6
			c-0.1,0-0.3-0.1-0.4,0l-0.5,0.2c-0.1,0-0.3,0-0.4,0l-0.4-0.4c0-0.1,0-0.1-0.1-0.1c-0.1,0-0.1,0-0.1,0.1c0-0.1-0.1-0.1-0.1-0.2
			c-0.2,0-0.2,0-0.3,0.3l-0.1,0.5l-0.3,0.4l-0.4,0.1c-0.2,0-0.4,0.3-0.4,0c-0.2-0.4,0.3-1.1-0.2-1c-0.1,0-0.2,0-0.3,0.2v0.7
			c-0.1,0.3-0.7,0.8-0.6,1c0,0.3,0.4,0,0.4,0l0.2,0.4c0.2,0.3,0.7-0.4,0.7,0 M667.8,297.3v-0.2l-0.4-0.1c-0.2,0-0.4,0.3-0.5,0.4
			c-0.2,0.4-0.2,1-0.6,1h-0.5v1c0,0-0.2,0-0.2,0.2c-0.1,0.4,0.2,0.2,0.4,0.2h1l0.5-0.1c0.2,0,0.4,0,0.5-0.2c0.1-0.1,0.1-0.3,0.2-0.4
			v-0.4c0-0.2,0.3-0.1,0.3-0.4c0.1-0.7-0.6-0.2-0.5-0.9"/>
	</g>
	<g id="g698_1_">
		<path id="path690_1_" class="st9" d="M676.1,277.9c0,0.9-0.6,1.6-1.4,1.6c-0.7,0-1.4-0.7-1.4-1.6s0.7-1.6,1.4-1.6
			C675.5,276.3,676.1,277,676.1,277.9z M671.6,275.9c0,0.9-0.6,1.6-1.4,1.6s-1.4-0.7-1.4-1.6c0-1,0.7-1.6,1.4-1.6
			S671.6,275,671.6,275.9z"/>
		<path id="path692_1_" class="st9" d="M674,276.5c0,1-0.6,1.6-1.4,1.6c-0.8,0-1.4-0.7-1.4-1.6s0.6-1.6,1.4-1.6
			C673.4,274.9,674,275.6,674,276.5z"/>
		<path id="path694_1_" class="st9" d="M671.8,278c0,0.9-0.6,1.6-1.4,1.6c-0.8,0-1.4-0.7-1.4-1.6s0.6-1.6,1.4-1.6
			C671.1,276.4,671.8,277.1,671.8,278z"/>
		<path id="path696_1_" class="st9" d="M673.8,279.3c0,0.8-0.6,1.6-1.4,1.6c-0.7,0-1.4-0.7-1.4-1.6c0-1,0.7-1.7,1.4-1.7
			c0.8,0,1.4,0.7,1.4,1.6V279.3z"/>
	</g>
	<path id="path700_1_" class="st6" d="M674.5,261.5c0,0,13.9-19.4,28.8,0.7c0,0,0.1,2-1.3,4.2l-0.3-1.7l-1,0.3l-0.2-1l-1.6-0.1
		l0.5-2.2l-1.7,1.4l0.2-1.5l-2,2l0.3-4.3L694,263l0.3-2.5l-0.8,1.1l-0.4-1.5l-0.7,1.5l-1-0.7v1l-1.8-1.5l-0.6,2l-0.9-2.2l-0.2,1.5
		L687,260l-0.1,1.9l-2.9-1.3l0.6,1.8l-1.3-1l0.2,1l-1.9-0.4l0.2,1.1l-2-0.4l0.3,1l-2.7-0.3l1,1l-0.3,0.6c0,0,15-5,16,13.8l-2.7,1.3
		l0.8-1.5l-0.8-0.5l-2.3-1.7l0.7-2.4l-0.8,0.3l-0.1-1.4l-0.4,0.2l-0.9-1.3l-0.2,0.5l-0.6-1.7l-0.7,1.2l-0.3-2.8l-1,1.8l-0.2-1
		l-0.3,0.6l-1.3-1.5l-0.4,1l-0.5-0.8l-0.3,1l-1.4-1.4v1l-1-0.7l-0.3,0.5l-2.1-1.1l-0.1,1l-1.2-1l-0.3,1c0,0,13.6,7.8,9.4,20.4
		l-0.8,1.6l-0.2-4.2l-1.3,2.2l0.9-4.9l-0.9,1l-0.1-2l-1.1,2l-0.4-2.2l-0.5,0.6l-0.8-3.2l-0.6,1.3l-1-3.6l-0.8,1.5l-0.5-3.1l-0.5,1.9
		l-1.5-2.8l-0.2,1.1l-0.9-2.2l-0.5,0.7c0,0-2.5-0.1-3.3-0.7c-0.7-0.7-2.8,3.7-2.8,3.7l0.2-2.6l-0.9,1.8v-1.8l-1.6,5.3l-0.4-3.8
		l-0.8,3.3l-0.4-1l-0.3,1.3l-0.5-0.5L662,282l-0.8-0.6v2l-0.8-1l-0.6,3l-0.4-1.2v1.3l-0.6-0.7l-0.6,3l-1-1.3v2.2l0.3,1.6l-1-0.5
		l0.4,2.6c0,0-3.9-7.2,0.8-14.2c4.6-7,10.9-9,10.9-9l-0.7-0.6V268l-3.8,1.9v-1.1l-1,0.8l-0.2-1.2l-0.6,1.1l-0.1-0.5l-1,1.4l-0.4-2
		l-0.6,2.4l-0.6-1.7l-1.3,3.5V270l-1,2.8l-0.4-3l-0.7,3.4v-3l-1.2,3l-0.7-3l-0.5,3l-0.8-2.3l-0.7,3.4l-1.2-3l-0.6,4.5l-0.7-1.8
		l-0.2,3.3l-0.8-2l0.8,4.2l-1-1.6l0.3,2.6l-1.6-2.9v3.4l-0.8-1.1l-0.4,1.3c0,0-0.3-13,8.6-15.6c8.9-2.5,14.6,0.8,14.6,0.8l-3.4-2.8
		l0.4-0.9h-1.2l0.5-1l-2.7,0.1l0.8-1l-2,0.3v-0.6l-1.3,1l0.5-1.2l-1.7,1.2l-0.1-1.7l-1,1.4l-0.4-1.5l-4,4l1-4.1l-0.7,0.9l-0.1-1
		l-1.1,1.8l-0.3-1.2l-0.5,1.5l-0.4-1.8l-0.8,1.8l-1-1.6l-0.3,2.1l-0.6-1.1l-0.8,1.6l-1-1v1l-2-0.9l0.4,1.5L644,262l-0.4,2l-0.8-1
		l-0.7,2.5l-0.6-2.4l-0.6,1.9c0,0,7.8-20.2,27.6-7c0,0,2.2,2.1,2.7,3.6s0.1,0.2,0.1,0.2l-0.4-13.9l0.8,6l0.5-2l-0.1,3l2-4.3
		c0,0-2.4,7.2-1.5,9.9c0,0,0.9-8.4,3.9-9.4l-2.8,6l0.9-0.1l-0.6,1.2h0.7l-0.9,2l-0.5,1l0.5,1L674.5,261.5L674.5,261.5z"/>
	<path id="path702_1_" d="M672.4,269.6l0.4,0.4c0,0,1.3-1.4,3.4,0.4l0.3-0.4c-2.5-2.1-4-0.4-4-0.4H672.4z M671.8,262.8v0.5l0.9-0.4
		l-0.7,1.2l1.5-0.5l-1.8,2.3l0.4,0.3l2.9-3.7l-1.8,0.6l0.8-1.3l-1.6,0.6l0.3-1.9h-0.5L671.8,262.8L671.8,262.8z"/>
	<path id="path704_1_" d="M669.2,263l0.6,1.3l-1-0.4l2.9,5.2l0.4-0.5l-0.6,1.5l0.5,0.2l1.2-3.2l-0.4-0.3l-1,1.3l-1.8-3.1l0.8,0.3
		l-0.8-1.7l1.1,0.6v-1.9h-0.5v1l-1.8-1.1L669.2,263L669.2,263z M667.3,269.4l0.2,0.5c0.8-0.3,1.5-0.4,2-0.2c0.5,0.3,0.7,0.9,0.7,1
		l0.5-0.2c0,0-0.2-0.9-1-1.2C669.2,269,668.3,269,667.3,269.4L667.3,269.4z M669.6,274.8l-0.5-2.8h0.6l0.4,2.7L669.6,274.8z
		 M673.4,274.4l-0.7-2.2l0.5-0.1l0.7,2L673.4,274.4z M674.8,275.9l-0.5-2.1l0.5-0.1l0.6,2.1L674.8,275.9z"/>
	<path id="path706_1_" class="st6" d="M568,340.2c0,0-2.4-1-3.5-0.2c-1,0.7-0.9,1.9-1.8,1.8c0,0,3.6,0.8,4.3-0.1l1-1.2 M568.3,341.2
		c0,0-1.6,2-1,3.3c0.5,1.2,1.7,1.3,1.4,2.2c0,0,1.5-3.3,0.8-4.3s-1-1.1-1-1.1 M565.8,335.5c0,0-2.5,0.8-2.8,2
		c-0.2,1.4,0.6,2.1-0.1,2.7c0,0,3.2-1.8,3.1-3v-1.5 M567.2,336.4c0,0,1.2-2.3,0.5-3.4c-0.8-1.2-2-1-1.8-2c0,0-1,3.5,0,4.4l1.1,1
		 M564.8,335.5c0,0,0-2.6-1-3.2c-1.2-0.7-2.2-0.1-2.5-1c0,0,0.7,3.6,1.8,4l1.5,0.3 M569,339.8c0,0,2.7-1,3,2c0.2,3-0.2,2-0.2,2
		s-1.4-3.2-3-3.7L569,339.8z"/>
	<path id="path708_1_" d="M568.3,341.3l0.2,2.2h0.4l-0.3-2.2l1-4.9h-0.4L568.3,341.3L568.3,341.3z"/>
	<path id="path710_1_" d="M565.8,340.6l-0.1,0.3c1.3,0.5,3-1,3.1-1l-0.2-0.3C568.6,339.6,566.9,340.9,565.8,340.6z M569.2,337.7
		l-6-3l0.2-0.5l6,3L569.2,337.7z"/>
	<path id="path712_1_" d="M564.8,337l-0.4-0.4l1.2-1.2l0.4,0.4L564.8,337z M567,336.4l-1.3-2.8l0.5-0.2l1.3,2.8L567,336.4z
		 M568.8,339.8v0.6c1.7-0.1,2,1,2,1l0.6-0.2C571.3,340.9,570.6,339.7,568.8,339.8z"/>
	<path id="path714_1_" class="st10" d="M596.5,341c2-1,2.4-5,2.4-5c-0.5,1.4-4.2,2.9-4.2,2.9c2.7-1.7,6-9.4,6-9.4
		c-0.8,2.7-8,5-12.6,7.6c-4.6,2.6-2.2,10-2.2,10c-1.3-0.9-3.8-4.8-4.3-8.3s-1.8-4.9-5-5.3c-3.1-0.4-5,3.2-5,3.2l-4.7,2.4l4.8,0.2
		c0,0,3.4,1.1,3.4,3.8c0,2.6-3,13.3,2,19.3c3.3,4.1,16,6.5,16,6.5"/>
	<path id="path716_1_" class="st10" d="M587.2,349.3c0,0,1-4.8,4.1-4.6c3.1,0.2,4-3.6,5.9-4.1c1.9-0.6,11.5-3.2,12.5-7.8
		c0,0-0.9,7.6-9.7,11.4c0,0,7.1-2.3,8-3.9c0,0-3.2,6.8-10.9,7.9c0,0,7.2-0.6,8.2-2.5c0,0-3.2,4.2-8.5,4.8c0,0,5,2,6.2,0.3
		c0,0-2.7,3.2-6,3.4l1,0.2c0,0-3.2,3.8-6.7,1.3s-3.6,0.6-3.6,0.6"/>
	<path id="path718_1_" class="st10" d="M594.3,356.5c0,0,4.1,6.8,4.5,10.4c0,0,7.8,8.5,10.7,9c0,0-1.4,0.6-4-1.5
		c0,0,2.2,2.2,2.6,2.3c0.4,0-1.7-0.2-2-0.8c0.4,0.6,0.9,1.1,1.4,1.5l-0.5-0.2c0,0-1-0.1-1.6-0.5c-0.5-0.4-0.1,1-0.1,1
		s-1.2-0.3-1.6-0.7c-0.4-0.4,0.1,0.9,0.1,0.9l-1-0.3l-0.8,0.5c0,0,0,0.5-0.5,0c-0.5-0.3-1.4,0-1.4,0s-0.6,0.6-1,0.2
		c-0.3-0.4-1.5,1.6-1.5,1.6l-5-12.3"/>
	<path id="path720_1_" d="M599.2,378.7l-6.4-12.2l0.6-0.4l6.4,12.3L599.2,378.7z M604.8,377.9l-11-12.3l0.6-0.5l11,12.3L604.8,377.9
		z M607.3,376.9L594.8,365l0.5-0.5l12.5,11.7L607.3,376.9z"/>
	<g id="g732_1_" transform="translate(-96.9 97.5) scale(.66486)">
		<path id="path722_1_" d="M1011.9,360.8c0,0-1.2-2.2-2.3-1.3c-1,0.8-1.6,1-1.8,0.9c0,0,1,0,1.7-0.5c0.6-0.6,1.6-0.3,2.4,1
			L1011.9,360.8z M1005.3,359.8l0.7,1.4l-0.8,2.3l0.6,0.2l0.7-2.5l-0.7-1.6L1005.3,359.8z"/>
		<path id="path724_1_" d="M1011.7,360.5c0,0-1,1-2.2,0.8l-1.3-0.3h1.8C1010.7,361,1011.6,360.7,1011.7,360.5z"/>
		<path id="path726_1_" d="M1011.4,360.7c0,0-1.2-1.2-2-0.8c0,0,1.4-0.5,2.2,0.7L1011.4,360.7L1011.4,360.7z"/>
		<path id="path728_1_" d="M1011.2,360.5c0,0-1.3,0.9-2.7,0l-0.1-0.2h0.2C1008.6,360.3,1010.3,361,1011.2,360.5z"/>
		<circle id="circle730_1_" cx="1010.1" cy="360.3" r="0.4"/>
	</g>
	<path id="path734_1_" d="M575.3,359.6c0,0-0.7,1.2-0.3,2c0.3,0.7,2,1,2.1,2c0.2,1,0.8,1,1.5,1l0.9-0.3c0,0-3.1-1.6-4-4.3
		L575.3,359.6L575.3,359.6z"/>
	<g id="g744_1_">
		<path id="path736_1_" class="st8" d="M674.8,334.8c0,0,5.6-7.4,10.6-5.5c5,2,8.1,3,8.1,3s0.1,4.9-2.5,4.9s-5.2-5-7.6-3.5
			c-1.8,1-3.4,2.5-4.5,4.2C678.8,338.6,672.5,338.7,674.8,334.8z"/>
		<path id="path738_1_" class="st7" d="M653.5,370.4c0,0-1.6,1.6-0.9,2c0.7,0.4,2.1,0,2.1-0.6S653.7,370.2,653.5,370.4L653.5,370.4z
			"/>
		<path id="path740_1_" class="st7" d="M652.3,372c0,0-3-1.7-5.2,2.2c-2.3,3.8-4.1,10.1-5.4,11c-1.3,0.8,12.8-6.2,13-9.2
			c0,0,0.9-3.8-0.6-3.7c-1.5,0-1.6,0.2-1.9-0.4L652.3,372z"/>
		<path id="path742_1_" class="st8" d="M652.6,372.4c0,0-3,0.7-3.6,4.9c-0.6,4.2-4.7,6.3-5,6.5 M693.5,332.2c0,0-4.4,1.6-3.7,4.7"/>
	</g>
	<path id="path746_1_" class="st11" d="M659,341.3c0,0,0.2-10.6,8.9-10.2c1.6,0.2,0.8,2.1,0.8,2.1s2-1.3,2.8,0.8c0,0,2.7-1.2,3,1.5
		c0,0,3-0.4,2.6,2c0,0,2-0.5,2,1.2c0,0,2.3-0.9,2,1.5c0,0,2.6-1.7,2.3,1.4c0,0,2.6-1.9,3.5,1.2c1,3.2-2.6,9.8-6.1,11.5"/>
	<path id="path748_1_" d="M683.2,342c0,0,1.1,8.2-3.5,11.3l0.1,0.2c4.9-3,3.7-11.5,3.7-11.6h-0.3V342z M677.5,351l0.2,0.2
		c3-2.9,3.7-10.6,3.7-11h-0.3C681.2,340.2,680.5,348.2,677.5,351L677.5,351z M674.8,349.1h0.3c0.6-3.7,2-7.2,4.1-10.3l-0.2-0.1
		C679,338.7,675.2,344.2,674.8,349.1L674.8,349.1z M672.6,347.7h0.3c0.5-5.7,4.4-10,4.4-10.1l-0.2-0.2
		C677.1,337.4,673.1,341.9,672.6,347.7L672.6,347.7z M669.6,345.7h0.3c0.3-6.7,4.8-10,4.8-10l-0.2-0.3c0,0-4.6,3.4-5,10.4
		L669.6,345.7z M666.8,344.1h0.3c-0.2-6.2,4.5-10,4.6-10l-0.2-0.2C671.5,333.9,666.5,337.7,666.8,344.1L666.8,344.1z M661.8,341.8
		h0.3c0.5-3.9,3.1-7.1,6.8-8.4v-0.3C665.1,334.4,662.3,337.8,661.8,341.8L661.8,341.8z"/>
	<path id="path750_1_" class="st12" d="M653.9,354.2c0,0-1.5-9.9,4.4-13c0,0,1.1-0.2,1.7,1.2c0,0,3.1-1.3,3.2,1.3c0,0,1.6-1.2,2,0.5
		c0,0,3.3-0.7,2.7,1.8c0,0,2.8-0.8,2.5,1.6c0,0,2.8-1,2.4,1c0,0,3-0.6,2.2,1.8c0,0,3.7-0.4,2.6,2.1c0,0,2.7-0.7,2,1.4
		c0,0,3.6,0.7,2,3c-2.6,3.1-6,5.5-9.8,7"/>
	<path id="path752_1_" class="st12" d="M650.8,364.1c0,0-2.4-8.2,2.2-10.3c0,0,0.9-0.2,1,0.6c0,0,1-1.3,1.8-0.1c0,0,2.3-1.1,2.9,0.6
		c0,0,1.5-1.3,2.3,0.6c0,0,1.5-0.6,1.5,1c0,0,2-1,2,1c0,0,2-0.8,1.5,1.2c0,0,3,0.5,2.1,1.9c0,0,2.7,0.7,1.7,1.8c0,0,2.8-0.3,1.3,1.6
		c0,0,2.2-0.7,1,1.7c-1.3,2.4-5.2,5-8,5.4"/>
	<path id="path754_1_" class="st12" d="M653.6,370.6c0,0-5.1-5-2.7-6.4c0,0,1,0.3,1.5,1.4c0,0,1.2-1.8,2,0c0,0,1.8-0.6,1.8,0.7
		l1.4,1c0,0,1.7-0.1,1.4,1c0,0,1.9-0.3,1.8,0.7c0,0,1.6,0.1,1.5,1.2c0,0,2.8,0.5,1.5,1.9c0,0-4.8,1-8.3-0.4
		C655.5,371.7,653.8,371.1,653.6,370.6L653.6,370.6z"/>
	<path id="path756_1_" d="M671.2,362.4v0.3c3.3-2.4,6.3-5.3,8.6-8.7l-0.3-0.2C679.5,353.9,674.1,361.3,671.2,362.4L671.2,362.4z
		 M669.5,361.1l0.2,0.3c2.6-1.5,7.9-8.5,8-8.8l-0.1-0.2c-0.1,0.1-5.5,7.2-8,8.7H669.5z M668,360.5l0.2,0.2c2.8-3.1,5.1-6.6,7-10.3
		l-0.2-0.1C675,350.3,670.8,358.2,668,360.5L668,360.5z M666.7,358.7h0.3c0.5-3.8,6-9.9,6-10l-0.3-0.1
		C672.5,348.8,667.2,354.8,666.7,358.7z M655.8,354h0.3c-0.4-5.5,4.1-11.5,4.2-11.5l-0.3-0.2C660,342.3,655.2,348.5,655.8,354z
		 M658.7,354.5h0.3c-0.8-4.4,4.4-10.6,4.4-10.7l-0.2-0.2C663,343.9,657.9,350,658.7,354.5L658.7,354.5z M663.1,356.1h0.3
		c-0.2-5,4.6-10,4.7-10l-0.2-0.3C667.9,345.9,662.9,351,663.1,356.1z M652.6,365.1h0.3c-1.8-4.7,1.2-10.6,1.3-10.6l-0.3-0.2
		C653.9,354.3,650.8,360.4,652.6,365.1L652.6,365.1z M654.6,365.5l0.3-0.1c-1.6-4.7,1-11,1-11l-0.2-0.2
		C655.7,354.2,653,360.7,654.6,365.5L654.6,365.5z M662.9,370.2v0.2c5-1.7,8.3-6.3,8.3-6.3l-0.3-0.2
		C670.9,363.9,667.7,368.4,662.9,370.2z M661.9,369.1v0.3c4-1.8,7.7-6.8,7.7-6.8l-0.2-0.2C669.4,362.4,665.7,367.4,661.9,369.1z
		 M660.9,368.7l0.2,0.3c3-2.3,7-8,7-8l-0.2-0.2C667.9,360.8,663.9,366.5,660.9,368.7L660.9,368.7z M655.9,365.8h0.4
		c-0.2-3.8,0.7-7.6,2.5-10.9l-0.3-0.1c0,0-3.2,6-2.5,11H655.9z M658.1,367.2l0.2,0.2c3.2-2.9,4.3-10.6,4.3-11h-0.3
		C662.3,356.4,661.3,364.4,658.1,367.2z M660.3,368l0.2,0.3c2.9-2.4,4.9-5.8,5.7-9.5h-0.3C665.9,358.8,664.7,364.8,660.3,368
		L660.3,368z M660.8,354.6v0.9l-3.4,11l0.3,0.1l3.4-11c-0.5-5.4,4.2-11.3,4.3-11.3l-0.3-0.2C665.1,344.1,660.8,349.4,660.8,354.6z"
		/>
	<path id="path758_1_" d="M664.3,357.3c0,0.2-1.1,7.7-5.2,10.5l0.2,0.3c4.2-2.9,5.2-10.3,5.2-10.7c1.8-2.1,6-9.7,6-9.7l-0.2-0.2
		C670.3,347.5,666.1,355.1,664.3,357.3L664.3,357.3z M652.3,365.6c0,0.1,0.6,4,1.4,5.2l0.3-0.1c-0.8-1.3-1.5-5.1-1.5-5.2
		L652.3,365.6L652.3,365.6z M654.2,365.6l-0.1,5.3h0.3v-5.3H654.2z"/>
	<path id="path760_1_" d="M654.3,371l0.3,0.1c1.3-2.8,1.7-4.8,1.7-4.8H656C656,366.3,655.6,368.2,654.3,371L654.3,371z M654.6,371.1
		l0.2,0.3c1.5-0.9,2.6-2.3,3-4h-0.3C657.5,367.4,657,369.8,654.6,371.1z M655.1,371.3v0.3c2.4-0.2,4-3.1,4-3.3h-0.2
		C658.9,368.3,657.3,371.1,655.1,371.3z"/>
	<path id="path762_1_" d="M655.3,371.5v0.3c3.9-0.3,5.6-2.6,5.6-2.7l-0.2-0.1C660.7,369,659,371.2,655.3,371.5L655.3,371.5z"/>
	<path id="path764_1_" d="M655.6,371.5v0.3c0.1,0,5,1.1,6.7-1.4l-0.3-0.2C660.5,372.6,655.6,371.6,655.6,371.5L655.6,371.5z"/>
	<path id="path766_1_" class="st13" d="M546.2,193.2v136.4c0,44.6,80.6,71,80.6,71s80.5-26.4,80.5-71V193.2H546.2z"/>
</g>
<g id="g1157" transform="scale(.5)">
	<path id="path1135" class="st14" d="M0,0h800v480H0V0z"/>
	<path id="path1137" class="st1" d="M93.8,0l305,181L702.5,0H800v62L500,241l300,178v61H700L400,301L101.2,480H0v-60l298.8-178L0,64
		V0H93.8z"/>
	<path id="path1139" class="st15" d="M530,281l270,159v40L461.2,281H530z M300,301l7.5,35l-240,144H0L300,301z M800,0v3L488.8,191
		l2.5-44L737.5,0H800z M0,0l298.8,176h-75L0,42V0z"/>
	<path id="path1141" class="st1" d="M301.2,0v480h200V0H301.2z M0,160v160h800V160H0z"/>
	<path id="path1143" class="st15" d="M0,193v96h800v-96H0z M341.2,0v480h120V0H341.2z"/>
</g>
</svg>
