<?xml version="1.0" encoding="utf-8"?>
<!-- Generator: Adobe Illustrator 24.0.1, SVG Export Plug-In . SVG Version: 6.00 Build 0)  -->
<svg version="1.1" id="flag-icons-fk" xmlns="http://www.w3.org/2000/svg" xmlns:xlink="http://www.w3.org/1999/xlink" x="0px"
	 y="0px" viewBox="0 0 800 480" style="enable-background:new 0 0 800 480;" xml:space="preserve">
<style type="text/css">
	.st0{fill:#012169;}
	.st1{fill-rule:evenodd;clip-rule:evenodd;fill:#012169;}
	.st2{fill-rule:evenodd;clip-rule:evenodd;fill:url(#path2949_1_);stroke:#FFFFFF;stroke-width:11.1803;}
	.st3{fill-rule:evenodd;clip-rule:evenodd;fill:url(#path2951_1_);stroke:#000000;stroke-width:1.3416;}
	.st4{fill-rule:evenodd;clip-rule:evenodd;fill:url(#path2953_1_);stroke:#000000;stroke-width:1.3416;}
	.st5{fill-rule:evenodd;clip-rule:evenodd;fill:url(#path2955_1_);stroke:#000000;stroke-width:1.3416;}
	.st6{fill-rule:evenodd;clip-rule:evenodd;fill:url(#path2957_1_);stroke:#000000;stroke-width:1.3416;}
	.st7{fill-rule:evenodd;clip-rule:evenodd;fill:url(#path2959_1_);stroke:#000000;stroke-width:1.6771;}
	.st8{fill-rule:evenodd;clip-rule:evenodd;fill:url(#path2961_1_);stroke:#000000;stroke-width:1.3416;}
	.st9{fill-rule:evenodd;clip-rule:evenodd;fill:url(#path2963_1_);stroke:#000000;stroke-width:1.3416;}
	.st10{fill-rule:evenodd;clip-rule:evenodd;fill:url(#path2967_1_);stroke:#000000;stroke-width:1.3416;}
	.st11{fill-rule:evenodd;clip-rule:evenodd;fill:url(#path2969_1_);stroke:#000000;stroke-width:1.3416;}
	.st12{fill-rule:evenodd;clip-rule:evenodd;fill:#0072C4;stroke:#FFFFFF;stroke-width:4.3603;}
	.st13{fill-rule:evenodd;clip-rule:evenodd;fill:#BCBCBC;}
	.st14{fill-rule:evenodd;clip-rule:evenodd;fill:#FEFEFE;}
	.st15{fill-rule:evenodd;clip-rule:evenodd;fill:#C4C4C2;stroke:#000000;stroke-width:1.0062;}
	.st16{fill-rule:evenodd;clip-rule:evenodd;}
	.st17{fill-rule:evenodd;clip-rule:evenodd;fill:#005120;stroke:#002B0D;stroke-width:1.118;}
	.st18{fill-rule:evenodd;clip-rule:evenodd;fill:#FFFFFF;}
	.st19{fill:none;stroke:#512007;stroke-width:0.559;}
	.st20{fill:none;stroke:#512007;stroke-width:0.6708;}
	.st21{fill:none;stroke:#512007;stroke-width:0.4472;}
	.st22{fill-rule:evenodd;clip-rule:evenodd;fill:#DD8B59;stroke:#512007;stroke-width:0.559;}
	.st23{fill-rule:evenodd;clip-rule:evenodd;fill:#FECF3E;stroke:#512007;stroke-width:0.559;}
	.st24{fill-rule:evenodd;clip-rule:evenodd;fill:#B6B6B4;stroke:#512007;stroke-width:0.559;}
	.st25{fill-rule:evenodd;clip-rule:evenodd;fill:#BE0F17;stroke:#512007;stroke-width:0.6708;}
	.st26{fill-rule:evenodd;clip-rule:evenodd;stroke:#512007;stroke-width:0.559;}
	.st27{fill-rule:evenodd;clip-rule:evenodd;fill:#FF0000;stroke:#512007;stroke-width:0.559;}
	.st28{fill:#FFFFFF;}
	.st29{fill:#C8102E;}
</style>
<path id="path2937" class="st0" d="M0,0h800v480H0V0z"/>
<path id="path2939" class="st1" d="M0,0h500v200H0V0z"/>
<linearGradient id="path2949_1_" gradientUnits="userSpaceOnUse" x1="466.9926" y1="-123.8818" x2="499.8247" y2="-105.1736" gradientTransform="matrix(0.8573 0 0 -0.9624 -147.8477 454.4403)">
	<stop  offset="0" style="stop-color:#A43907"/>
	<stop  offset="1" style="stop-color:#FFFFFF"/>
</linearGradient>
<path id="path2949" class="st2" d="M516.1,308.9c-0.7,0-1.4,0-2.1,0c-3.8,0.6-9.5,11.3-12.5,17.6c-5.1,5.4-7.8,9.6-9.7,12.7
	c-0.9,1.2-2.1,2.6-1.8,4.2c-7.5,1.6-7.9,7.4-7.9,9.6c0,2.5,0.9,3.7,0.9,3.7l4.5,7.5v0.1c4.8,9,11.8,20.9,15.9,21.8
	c5.5,1.5,20-3.3,31-11.7c21.1,7.9,43.7,12,66.5,12.1c25.5,0,48.4-5.5,66.3-12.1c11,8.4,25.5,13.2,31.2,11.7c3.8-1,10.9-13,15.7-21.8
	l4.4-7.6c0,0,0.9-1.2,0.9-3.6c0-2.2-0.4-8-7.9-9.6c0.4-1.6-0.8-3-1.6-4.3c-2.1-3.2-4.8-7.4-9.6-13c-3.2-6.2-9-16.7-12.5-17.2
	c-5.3-0.8-16.2,1.5-16.2,2.4v0.4l-22.1,18.6c0,0.5,1.1,14,5.4,26c-17.4,5.6-35.7,8.3-54.1,8.2c-21.2,0-39.4-3.4-54-8.3
	c2.8-8.5,4.6-17.2,5.4-26l-22-18.5v-0.4C530,310.7,521.5,308.9,516.1,308.9z M521.6,331.9c2.9,0,5.8,2.2,8.1,4.4l-0.1,1.3
	c-0.9,3.5-2.1,6.9-3.5,10.2c-5.4-2.8-10.6-6.1-15.3-9.9c2.4-2.3,6.3-5.4,10.3-5.8h0.5V331.9z M679.9,331.9h0.5
	c4.1,0.6,7.9,3.7,10.4,6c-4.7,3.8-9.9,7.2-15.4,10c-1.4-3.4-2.6-6.8-3.5-10.3c-0.1-0.4-0.2-0.9-0.2-1.3c2.5-2.3,5.4-4.3,8.2-4.3
	V331.9z M501.9,358.3c3,2,6.7,4.4,11.4,6.8c-1.2,0.7-2.6,1.3-4,1.6c-2,0.4-3.9,0.3-5.9,0c-0.8-1.8-1.2-3.7-1.2-5.6
	C502,360.2,501.9,359.2,501.9,358.3L501.9,358.3z M699.6,358.3l-0.1,2.8c-0.1,1.9-0.5,3.7-1.2,5.5c-3.4,0.7-7,0.2-10-1.5
	C692.9,362.7,696.7,360.3,699.6,358.3z"/>
<linearGradient id="path2951_1_" gradientUnits="userSpaceOnUse" x1="541.9708" y1="-73.5894" x2="573.3607" y2="-55.7031" gradientTransform="matrix(-1.0845 0 0 -1.2667 1122.1169 241.4755)">
	<stop  offset="0" style="stop-color:#A43907"/>
	<stop  offset="1" style="stop-color:#FFFFFF"/>
</linearGradient>
<path id="path2951" class="st3" d="M532.8,339.6c0,0-7.6-11.1-13.9-10.2c-6.4,0.7-12.5,7.8-12.8,8.2c-3.5-2.8-6.7-6-9.4-9.5
	c0.4-0.4,9.7-20.9,15-21.8c5-0.9,15.9,1.5,15.9,2.3L532.8,339.6z"/>
<linearGradient id="path2953_1_" gradientUnits="userSpaceOnUse" x1="551.9064" y1="-39.8952" x2="630.568" y2="-27.6477" gradientTransform="matrix(-1.0194 0 0 -1.3554 1115.4799 300.0699)">
	<stop  offset="0" style="stop-color:#A43907"/>
	<stop  offset="1" style="stop-color:#FFFFFF"/>
</linearGradient>
<path id="path2953" class="st4" d="M549.8,327.7c0,0.8-2.8,30.2-13.6,40.4c-10.8,10.3-28.8,16.6-35.3,15.1
	c-6.2-1.6-20.6-31.3-20.6-31.3s15.3,14.2,26.6,11.8c11.4-2.3,18.3-20.1,20.4-28.9c2.1-8.6,0.4-25.7,0.4-25.7l22.2,18.6H549.8z"/>
<linearGradient id="path2955_1_" gradientUnits="userSpaceOnUse" x1="610.1237" y1="-62.8167" x2="576.374" y2="-64.6848" gradientTransform="matrix(1.0845 0 0 -1.2667 41.083 241.4755)">
	<stop  offset="0" style="stop-color:#A43907"/>
	<stop  offset="1" style="stop-color:#FFFFFF"/>
</linearGradient>
<path id="path2955" class="st5" d="M666.1,339.6c0,0,7.8-11.1,14-10.2c6.2,0.7,12.2,7.8,12.8,8.2c3.5-2.8,6.7-6,9.4-9.5
	c-0.5-0.4-9.9-20.9-15-21.8s-16,1.5-16,2.3L666.1,339.6z"/>
<linearGradient id="path2957_1_" gradientUnits="userSpaceOnUse" x1="662.221" y1="-31.3474" x2="584.8536" y2="-36.8736" gradientTransform="matrix(1.0194 0 0 -1.3554 47.7202 300.0699)">
	<stop  offset="0" style="stop-color:#A43907"/>
	<stop  offset="1" style="stop-color:#FFFFFF"/>
</linearGradient>
<path id="path2957" class="st6" d="M649.1,327.7c0,0.8,2.8,30.2,13.6,40.4c10.9,10.3,28.8,16.6,35.2,15.1
	c6.2-1.6,20.8-31.3,20.8-31.3s-15.4,14.2-26.8,11.8c-11.2-2.3-18.1-20.1-20.3-28.9c-2.2-8.6-0.5-25.7-0.5-25.7L649,327.7H649.1z"/>
<linearGradient id="path2959_1_" gradientUnits="userSpaceOnUse" x1="1000.5654" y1="102.8058" x2="743.7061" y2="102.8058" gradientTransform="matrix(0.8573 0 0 -0.9624 -146.9477 455.3403)">
	<stop  offset="0" style="stop-color:#A43907"/>
	<stop  offset="1" style="stop-color:#FFFFFF"/>
</linearGradient>
<path id="path2959" class="st7" d="M501.5,326.2c-5,5.5-7.6,9.8-9.9,13c-2.1,3.2-0.8,7.7,4,14c5.4,6.7,48.8,33.4,105.1,33.4
	c56.5,0,99.7-26.6,105-33.4c5-6.4,6.2-10.8,4.1-14c-2.1-3.2-4.9-7.5-9.9-13c0,8.3-35.9,38.5-99.2,38.5S501.5,334.5,501.5,326.2z"/>
<linearGradient id="path2961_1_" gradientUnits="userSpaceOnUse" x1="486.9894" y1="38.1727" x2="848.2938" y2="36.1718" gradientTransform="matrix(0.8893 0 0 -1.5454 61.6945 426.7523)">
	<stop  offset="0" style="stop-color:#A43907"/>
	<stop  offset="1" style="stop-color:#FFFFFF"/>
</linearGradient>
<path id="path2961" class="st8" d="M697.1,378.8l9.8-15.1l-4.9-3.2c-1.2,3.8-6.9,5.1-7.9,10C693.2,375.2,697.9,379.9,697.1,378.8
	L697.1,378.8z"/>
<linearGradient id="path2963_1_" gradientUnits="userSpaceOnUse" x1="728.4807" y1="34.6286" x2="699.8749" y2="33.3849" gradientTransform="matrix(0.911 0 0 -1.5201 58.7821 408.9053)">
	<stop  offset="0" style="stop-color:#A43907"/>
	<stop  offset="1" style="stop-color:#FFFFFF"/>
</linearGradient>
<path id="path2963" class="st9" d="M706,374.5c0,0,1.8-6.8-3.8-7.6c-5.5-0.8-8.5,3.8-7.6,2c0.8-2,4-4,4.6-10.7
	c0.4-6.7-0.5-10.3-0.5-10.3s2.2-8.7,11-7.5c9,1.3,9.4,7.6,9.4,9.9c0,1.2-0.2,2.4-0.8,3.5L706,374.5z"/>
<path id="path2965" d="M674,351.7l1.9,2.8l1.2-0.6l-0.9-2l0.1-0.3l2.1-1.2l5.5,8.7v0.5l-1.2,0.7l0.6,0.8l5.2-3l-0.5-0.8l-1.2,0.6
	h-0.4l-5.5-8.8l2-1.2h0.5l1.2,1.6l1.2-0.7l-1.9-2.8l-10,5.7L674,351.7z M660.9,358.4l0.5,0.8l1.1-0.4l0.4,0.1l4.9,8.9l-0.1,0.4
	l-1,0.6l0.4,0.8l5.1-2.5l-0.4-0.8l-1.1,0.4h-0.5l-2.2-4.3l5.4-2.4l2.2,4v0.5l-1.2,0.6l0.5,0.9l5.2-2.5l-0.5-0.8l-1.1,0.4l-0.4-0.2
	l-4.7-8.8v-0.4l1-0.6l-0.4-0.8l-5.1,2.5l0.4,0.8l1.2-0.5l0.4,0.2l1.9,3.6l-5.3,2.5l-2-3.7l0.2-0.4l1-0.5l-0.5-0.9L660.9,358.4z
	 M657.9,366l0.2,0.8l1.5-0.3l0.5,0.1l1.1,3.7l-1,0.4c-3.1,0.8-5.5-0.5-6.6-3.7c-1-3.2,0.2-5.6,3.1-6.4c0.6-0.1,1.2-0.2,1.8-0.1
	l0.4,0.2l1,1.7l1.5-0.4l-0.9-3c-1.6,0-3.1,0.2-4.4,0.6c-4.5,1.3-6.5,4.5-5.4,8.2c1.2,3.7,4.9,5.4,9,4.3c1.5-0.4,3-1.1,4.3-2
	l-1.5-4.1l0.2-0.4l1.1-0.4l-0.4-0.9L657.9,366z M645.8,376.3l5.9-1.7l-0.4-0.9l-1.2,0.2l-0.4-0.1l-3.2-9.6l0.1-0.3l1.2-0.5l-0.2-0.8
	l-5.9,1.6l0.4,0.9l1.2-0.3l0.5,0.2l3.1,9.5l-0.2,0.4l-1.2,0.4L645.8,376.3L645.8,376.3z M613.9,380.9l10.4-0.8l-0.4-3.4l-1.2,0.1
	l-0.3,2l-0.2,0.3l-4.4,0.4l-0.5-4.9l2.5-0.2l0.4,0.3l0.2,1.3h1.2l-0.5-4.4h-1.2v1.4l-0.2,0.4l-2.5,0.1l-0.5-4.4l3.9-0.3l0.3,0.2
	l0.5,1.7l1.4-0.1l-0.3-3l-9.7,0.8v0.9h1.2l0.4,0.3l0.9,9.9l-0.1,0.3l-1.2,0.2v1L613.9,380.9z M598.4,368.6v1h1.2l0.2,0.3l0.1,9.9
	l-0.2,0.3l-1.1,0.2v0.8h5.5v-0.9h-1.2l-0.2-0.4V375h5.5v4.6l-0.2,0.3l-1.1,0.1v1h5.5v-1H611l-0.1-0.4l-0.2-10l0.2-0.3h1.2v-1h-5.6v1
	l1.2,0.1l0.2,0.3v4l-5.4,0.1l-0.3-4l0.4-0.3h1.1v-1L598.4,368.6z M586.6,368.3v3.3h1.2l0.4-2l0.2-0.3h2.4v10.2l-0.4,0.4h-1.2v1h5.8
	V380l-1.2-0.1l-0.4-0.4l0.1-10h2.2l0.4,0.2l0.4,2h1.2v-3.3L586.6,368.3z M568.8,378.9l10,0.4l0.2-3.3h-1.2l-0.4,1.9l-0.2,0.2
	l-4.4-0.1l0.2-5l2.4,0.2l0.3,0.3l0.2,1.4h1l0.2-4.3H576l-0.2,1.2l-0.3,0.3H573l0.3-4.6l3.8,0.2l0.2,0.2l0.1,1.7h1.4v-2.9l-9.4-0.4
	v0.9l1.2,0.2l0.1,0.3l-0.5,9.9l-0.3,0.3h-1.2L568.8,378.9L568.8,378.9z M545.5,373.5l5.5,1.6l0.2-0.8l-1.2-0.5v-0.4l3.1-9.5l0.4-0.2
	l1.2,0.3l0.2-0.8l-5.4-1.7l-0.2,0.9l1.1,0.4l0.2,0.4l-3.4,9.4l-0.2,0.3l-1.2-0.3L545.5,373.5z M536,370.2c1,0.7,2.1,1.2,3.2,1.6
	c3,0.8,5.4-0.2,6-2.2c0.4-1.1,0.1-2.3-0.6-3.2l-2.2-2c-0.8-0.9-1-1.6-0.8-2.5c0.4-0.9,1.4-1.4,2.8-1c0.5,0.2,1,0.4,1.2,0.7v0.3
	l-0.2,2l1.2,0.3l1-2.8c-0.9-0.7-2-1.3-3.1-1.7c-2.5-0.8-4.8,0.3-5.5,2.2c-0.3,1-0.1,2,0.5,2.8c0.5,1,1.2,1.5,1.9,2
	c1.1,1,1.5,2,1.2,2.9c-0.4,1-1.5,1.5-3,1c-0.5-0.2-1.1-0.5-1.5-0.8l-0.1-0.3l0.5-2.2l-1.4-0.4L536,370.2z M523.8,365.6l9.2,4l1.5-3
	l-1.2-0.5l-1.1,1.7l-0.4,0.1l-3.9-1.8l2.2-4.3l2.2,1v0.3l-0.4,1.3l1,0.5l2-4l-1-0.4l-0.9,1.1l-0.4,0.2l-2.1-1l2-4l3.4,1.5l0.1,0.3
	l-0.5,1.6l1.2,0.5l1.2-2.6l-8.5-3.9l-0.5,0.8l1,0.6l0.1,0.4l-4.5,9h-0.4l-1.1-0.3L523.8,365.6z M522.4,350.6l-4.6-2.9l-0.6,0.8
	l0.9,0.7l0.1,0.4l-5.8,8.2l-0.5,0.1l-0.9-0.5l-0.6,0.8l4.5,2.8c1.8,1,3.1,1.5,4.5,1.4c2-0.2,3.8-1.2,5-3
	C526.6,356,526,352.8,522.4,350.6z M520.4,350.6l1,0.6c2.5,1.5,2.8,3.7,0.6,6.6c-2.1,3-4.4,3.6-6.8,2l-1-0.4l6.2-8.7L520.4,350.6z
	 M557,363.6l-0.1,0.8l1.1,0.3l0.1,0.4l-2.1,9.7l-0.4,0.2h-1.2v0.8l5.1,1l0.2-0.8l-1.2-0.4l-0.1-0.3l0.9-4.1h0.4
	c1.9,0.4,2.2,1.3,2.2,3.2c0.1,0.9,0.1,1.7,1,2.7c0.4,0.4,0.9,0.8,1.8,0.9c0.6,0.1,1.2,0.2,1.9,0.2l0.1-0.8h-0.1
	c-1.2-0.3-1.9-0.7-1.9-1.8c-0.2-1,0-2-0.5-3c-0.3-0.6-0.9-1.1-1.6-1.4c2.1,0,3.4-0.9,3.8-2.5c0.5-2-0.6-3.5-3.6-4l-5.5-1.1
	L557,363.6z M560.8,365.3l0.8,0.2c1.8,0.4,2.5,1.4,2.1,2.9c-0.4,1.7-1.5,2.3-3.5,1.8l-0.6-0.1l1.1-4.8H560.8z M628.5,366.3l0.1,1
	h1.2l0.4,0.2l1.8,9.8l-0.3,0.3l-1.2,0.3l0.3,0.8l5.6-0.8v-1l-1.4,0.2l-0.4-0.3l-0.8-4h0.4c2-0.5,2.8,0.2,3.8,1.9
	c0.4,0.8,0.6,1.6,1.9,2.2c0.5,0.3,1.2,0.4,2.2,0.3c0.7-0.1,1.3-0.3,2-0.5l-0.1-0.9h-0.2c-1.4,0.3-2.1,0-2.8-0.9
	c-0.5-0.8-0.9-1.8-1.6-2.5c-0.5-0.5-1.2-0.8-2.2-0.8c2.1-0.8,3.1-2,2.9-3.7c-0.4-2-2.1-3-5.3-2.5L628.5,366.3z M632.9,366.8h0.9
	c2-0.4,3.1,0.2,3.5,1.8c0.2,1.6-0.6,2.6-2.8,3h-0.8l-1-4.8H632.9z"/>
<linearGradient id="path2967_1_" gradientUnits="userSpaceOnUse" x1="687.0865" y1="37.92" x2="659.2228" y2="35.0718" gradientTransform="matrix(-0.8893 0 0 -1.5454 1101.5055 426.7523)">
	<stop  offset="0" style="stop-color:#A43907"/>
	<stop  offset="1" style="stop-color:#FFFFFF"/>
</linearGradient>
<path id="path2967" class="st10" d="M501.9,378.8l-9.8-15.1l4.9-3.2c1.2,3.8,6.9,5.1,7.9,10C505.8,375.2,501.1,379.9,501.9,378.8
	L501.9,378.8z"/>
<linearGradient id="path2969_1_" gradientUnits="userSpaceOnUse" x1="653.1346" y1="27.2746" x2="698.5078" y2="44.0796" gradientTransform="matrix(-0.911 0 0 -1.5201 1104.418 408.9053)">
	<stop  offset="0" style="stop-color:#A43907"/>
	<stop  offset="1" style="stop-color:#FFFFFF"/>
</linearGradient>
<path id="path2969" class="st11" d="M492.9,374.5c0,0-1.8-6.8,3.8-7.6c5.5-0.8,8.5,3.8,7.8,2c-0.9-2-4.1-4-4.6-10.7
	s0.4-10.3,0.4-10.3s-2.1-8.7-11-7.5c-8.9,1.3-9.4,7.6-9.4,9.9c0,2.2,0.9,3.5,0.9,3.5L492.9,374.5z"/>
<path id="path2971" class="st12" d="M600.6,356.1c0,0-102.5-27-101.8-129.4l0.8-135.6h201.6l0.8,134.8
	C702.6,328.3,600.2,356,600.2,356L600.6,356.1z"/>
<g id="g2985" transform="matrix(.73276 0 0 .82256 122.8 17.5)">
	<path id="path2973" class="st13" d="M532.3,129c0.3,0,1.9-1.3,3.5-2.4c2.1-1,4.1-2.1,6.2-3c1.8-0.7,5-1.3,6.4-1.9
		c2-0.8,3.8-2,5.3-3.4c0.2-2.1,0.6-3.7,0.6-6.2c2.2-1,4.2-1.8,6.2-2.4c2.9-0.7,3.5-1.6,6.4-2c1.9-0.5,4.9-0.5,7.5-0.5
		c2.9,0,4.6,1.7,7.2,2c3.1,1,4.5,1.7,7,3.4c1.2,1.4,2.1,2.6,4.5,3.6c1.9,0.8,3.6,2,5.8,2.4c2.5,1.1,4.5,1.8,6.4,3.4
		c1.8,1,2.5,2.4,4,3.4c1.8,1.3,3.8,2.4,5.9,3.4c2.5,1.3,5,2.3,8.9,2c2.1,0,4.4-0.3,6.9,0c2.9,0,5.6,0,8.1,0.6c3,0,5.4,0.3,8.1,0.5
		c2.5,0.3,5.1,0.4,8,0.4c2.5,0.6,5.3,0.5,8.1,0.5h16.2c2.9,0,5.9,0.1,8,0.5c2.7,0,5.4-0.2,8.1-0.5c3.1,0,5.5-0.4,8.6-0.5h9.8
		c2.5,0.6,5.8,1,7.5,2c2.4,0.5,3.5,1.4,5.8,1.9c1.9,0.7,4.5,1.9,5.9,3.4c1.8,1.6,3.4,3.4,4.6,5.3c1.5,1.8,2.1,4,3.4,6.3
		c0.8,2.2,1.2,4.3,1.2,6.7c0.6,2.1,0.5,4.4,0.5,6.8c-0.6,2.2-0.8,4.6-1.8,6.7c0,2.4-0.6,4.5-1.1,6.3c-0.5,2-1.1,3.3-1.2,5.8v6.8
		c0,2.2-0.8,3.8-1,6.2c-1.5,2.4-2.9,4.8-4.1,7.3c-1.8,1-3.4,2.3-4.6,3.8c-1.2,0.6-1.9,1.6-1.6,2c2.2,0.6,1.6,1.9,1.6,4.3
		c0.4,1.9,0.6,4.2,1.2,6.3c0.1,2.3,0.8,3.7,1.6,5.3c1,1,1.2,0.5-1.1,0.5c-1.6,1-3.4,0.5-4-1.5c-1.3-1.6-2.1-3.4-2.4-5.3
		c-0.3-2.2-0.8-4.4-1.6-5.8c-0.4-2.7-1.2-2.7-4.6-2.9c-1.6-1.1-3.8-1.4-7-1.4c-3.1,0-3.4-0.3-3.4,2.4v6.8c-0.6,2-1.8,3.5-2.4,5.3
		c-1.8,1-2.5,2.7-4.6,3.8c-1,2.2-2.4,2.6-5.1,3l-3.5-3.4c1.6-2.2,3-2.5,4-4.9c1.2-1.9,2-3.1,2.9-4.8c-1.2-1.5-2.2-2.2-3.4-4.3
		c-1.2-1.7-2.2-3.5-2.9-5.3c-2-0.6-5-0.7-6.4-1.5c-2.9-0.5-3.6,2-7,2h-8c-3.6,0-4.5,1.5-7.5,1.4c-0.9,0.2-3.1-0.1-6.4,0
		c-2.5,0.7-5.4,0.5-8.1,0.5c-2.9,0-5.2-0.6-7.5-1c-2.6-0.6-5.2-1.2-8-1.4c-3.4,0-4.7,0.2-7,1.4c-1.8,0.9-4.4,2.8-6.2,3.9
		c-0.9,1.6-1.2,4.3-2.5,6.2c-0.5,2-1.5,3.1-2.1,4.9c-1,1.8-1.6,3.8-1.8,5.8c-0.2,3.2-1.1,2.8-3.5,1.9c-1-1.4-2.5-2.8-3.5-4.4
		c0.5-2.4,1.2-3.6,1.2-6.2c-0.6-2-1.9-1.8-3.5-0.5c0,2.5,0,4.5-1.2,5.8c-0.4,1.6-1.7,2.9-3.4,3.8c-0.9,1.8-2.8,2.7-4.6,3.4
		c-0.2,0,0-0.6,0-2c-1.4-2.1,0-4,0-6.7c0-2.4-0.2-4,0.6-6.2c0-2.4-1.2-4.6-1.7-6.3c-1.1-1.8-1.8-2.7-4.6-3.4c-2.1-0.7-5-1.5-6.4-3
		c-1.3-1.5-3.1-2.6-5.2-3.3c-2.5-0.7-3.9-1.5-5.8-2.4c-1.8-1.6-3.2-2.2-4-4.3c-1.2-1.5-1.4-4.3-2.2-6.3c-0.2-2-0.8-3.9-1.8-5.8
		c-0.3-2-0.9-3.9-1.8-5.8c-0.4-2-1-4-1.8-6.3c0-2.3,0-4.6-0.6-6.7v-6.8c-0.4-2-0.5-4.8-1.1-6.3c0-2.6-0.4-4-1.2-5.8
		c-1.2-1.7-1.2-2.4-3.4-2.9c-1.5,1.5-3.9,2.2-6.9,2.5c-2.1-0.4-5.1-0.7-7.5-1.5c-2.4-0.4-3.9-1.2-5.8-2c-1.1-1.3-2.2-2.6-3.5-3.8
		c-0.4-2.5-1-3.8-1.2-6.3c0-1.8,0.1-0.8,2.5-3.3H532.3z"/>
	<path id="path2975" class="st14" d="M566.4,146.4l0.5-0.4c-1,0.8-0.6,0.4,1.6-0.3c1.2-0.6,3.6-1.7,4.5-2.4c1-0.4,2.8-1,3.8-1.7
		c1-1,2.1-1.8,3.6-2.7c1.5-1.1,3-1.5,4.9-2.4c2.2-0.2,3.1-1,5.3-0.4c2,0.4,2.9,0.4,4.5-1c1.6-0.8,3.5-1.7,4.1-3V130
		c0,2.2-0.6,3-2.5,3.7c-1.2,1.3-3,2.6-3.8,3.8c-1.2,1.5-1.5,2.3-2.8,3c-1.1,1.1-2.9,1.7-3.2,3.5c0.5,0.8,0,1.2,1.2,1.3
		c1.1,0.8,2.4,0.5,4,0c1.4-1.2,2.5-2.5,3.2-4c1.4-1.6,2.1-2.3,2.9-3.5c1.5-0.8,2.4-1.4,2.9-2.7c1.6-0.8,3-1.6,4.1-2.4
		c1.2-0.6,1.9-1.1,3.6-1.4c0.1,1.3-0.3,2.7-1.2,3.8c-0.4,1.9-0.3,2.8,0.5,4c1.1,0.7,0.9,1.2,1.6,2.5c0.6-1.2,1-3.4,1.2-4.8v-0.3
		c0,1.4,0,3.4-0.5,4.4c0,2,0.6,2.9,1.2,4.4c0.6,0.8,1.2,1.3,2,1.7c0-2,0.8-3.2,0.9-5c0.5,1.3,0.4,3.2,0.8,4.7
		c0.1,1.6,0.9,2.8,1.6,4.1c1,0.4,1.2,1.8,1.6,0.7c1-2.4,1-5,1.6-7.5c0.1-1.3,0.2-3.2,0.9-4.1l-0.9,4c0.1-1.2,0.2-3,0.9-4v-0.4
		c0.5,1.8,0.7,3.7,0.9,5.5c0,1.5-0.1,3,0.4,4.4c1.2-0.5,2.1-1.7,2.9-3c0.9-1.4,2-2.6,3.2-3.8l-3.2,3.7c0.9-1.3,2-2.6,3.2-3.7v-0.3
		c-0.2,1.6-0.4,3.1-0.4,4.7c0,1.6,0,3.4,0.4,4.5c0.5,1.8,1.1,2.1,1.2,4c0,1-0.2,2,0.4,2.5c1.8,0.3,1.8-0.5,2-2.4
		c0-2.2,0.8-3.7,0.9-5.8c0-2.6,0.4,0.3,0.8,1.3c0.7,1.4,1.2,3,1.2,4.5c0,1-0.1,1.9,0.4,2.4c1.6-0.6,2.2-2,3.2-2.8
		c0.9-1.6,1.8-2.3,2.5-3.4c2.1-0.3,2-1,2-3c0-1.7-0.1-3.4,0.5-4.8c0.6-1.5,1.2-3,1.6-4.5c0.8-0.3,1.5,0.6,2,1.4
		c0.9,1.1,0.8,2.7,0.8,4.4c0.5,1.5,1.2,2.7,2.1,4.1c0.8,1.2,1.7,2.4,2.9,3.4c0.4,1.1,0.4,3,0.4,4.5c1.6-1.5,1.9-3.6,2-5.8
		c-0.2-1.5-0.2-3.4-0.8-4.8c0-1.5-0.5-3-0.9-4.1c-1.2-0.5-1.6-1-0.4-2.4c1.2-0.9,2.8-0.5,4.9-0.3c1.1,0.9,1.5,1.4,1.6,3.4
		c0,1.8,0,3.2,0.9,4.4c0.8,1,1.5,1.7,2,3.4c0.6,0.5,1.1,1.2,2,0.4c0.5-1,0.9-3,1.2-4.1c0.4-1.3,1.1-2,2-2.4c0,1.9,0,3,0.9,4.4
		c0.8,1.5,1.2,2.1,2,3.8c0.9,0.5,1,1.5,2.1,2c0.2-1.6,0.4-3.4,0.4-5.4V145c0.1-1.6,0.6-2.5,1.2-3.8c1.2,1.4,1.2,1.9,1.2,3.8
		c1.2-0.4,1.5-1.2,2-2.4c0.9-0.7,1.2-1,1.6,0.7c0.2,1.8,0.8,3.4,1.2,5.1c0.8,0.8,1.7,2.7,2.7,3.4c0.7,1,1.5,1.9,2.5,2.8
		c0.6,1,0.8,1.7,2.5,2c0-2.3,0-4.6-0.5-6.8c0-2-0.5-2.7-0.8-4.5c-0.7-1.1-1.1-2.9-0.9-3.4c1.6,1.1,2.9,2.5,3.8,4.1
		c0.9,1.7,1.8,2.8,2.5,4.5c1.2,1,2.2,2.2,3.1,3.4c1.5,1,2.2,2.1,3.8,3c0.7,0.6,2.5,1,2.9,0.7c-0.1-2-0.5-3.7-1.2-5.4
		c0-1.4-0.4-2.8-1.2-4.1c-1.6-1.1-2.9-1.9-3.8-3.4c-0.5-0.5-0.6-0.8-0.8-1.7c2.2,1.4,4.1,2.9,5.8,4.7c0.8,1,1.9,1.8,3.2,2.4
		c0.8,0.8,3.1,1.7,4.9,2c1,1.1,2.5,1.8,4.1,2.1l-4.1-2c1,1,2.5,1.7,4.1,2v0.4c-0.3-2-1.2-3.8-2.5-5.5c-0.8-1.5-2.1-2.8-3.8-3.8
		c-1-1.2-2.4-2.3-4-3c-1.1-1-2.8-2.8-3.8-3.4c1.9-1,3.9,0.6,5.8,1.3c1.6,1.4,3.1,3.2,4.1,4.1c1,1.6,2.2,3.2,3.8,4.5
		c1.8,0.8,2.9,1.6,4.4,2.7c2.5,0.5,1.5-0.2,0.9-1.7c-0.9-2,0-2,1.6-0.7c1.1,0.7,2.5,1.7,4.1,2.4c0.6,0.7,1.8,1.2,2.8,0.7
		c0.5-0.5,0.5-0.5,0.5-1c-0.9-2.2-1.6-3.8-3.8-4.5c-0.9-1-2.5-2-3.8-3c-0.8-1-1.6-1.6-2.4-2.8l2.5,2.7c-0.9-1-1.8-1.5-2.5-2.7H717
		c2.5,0,3.4,0.6,5.2,1.4c1.5,0.5,2.8,1.3,3.8,2.4c0.7,0.8,2,1.7,2.9,2.7l4,2.4c1.4,1.4,1.6,2.3,1.6,4.4c0.9,1,1,3,1.2,4.1
		c-0.3,1.9-1.1,0.4-1.2-0.7c-0.3-1.5-1-1.4-2.5-1c0,2,0.4,2.6,1.2,4.1c-0.2,1.2-0.7,2.4-1.5,3.4c-1,0.5-1.2-1-2.1-1.7
		c0-2-0.7-2.3-2.5-3.4v1.4c1,1.4,2,2.7,2.1,4.7c0.6,1.4,0.9,3,0.9,4.5c0,1.7,0,3.3-0.5,4.8c0,1.8-0.4,2.6-0.4,4.4v9.6
		c-0.3,1.5-0.4,2.9-0.4,4.4l0.4-4.4c-0.4,1.2-0.4,2.7-0.4,4.4v0.3c-0.8-1.7-1.6-3.2-2.1-5c-1.2-1-2.1-2.2-2.8-3.5
		c-0.4-1.5-0.5-3.2-0.9-4.4c-0.6-1.2-1.2-2.5-2.5-1.7c-0.5,2.5,0.1,4,1.2,6.4c0.6,1.6,0.6,3,1.2,4.5c1,1.8,1.8,2,0,4
		c-0.9,1.2-1.2,1.5-1.6,2.8c-1.5,0.6-1.9,1-2,2.4c-0.5-1.3-1.8-2.9-2.5-4.4c-0.8-1.7-1.6-3.4-2-4.8c-1-1.2-2.2-3-3.2-3.8
		c-1.1-1-2.5-3-3.2-4c-1.6-1.5-2-2.4-3.4-3.1c-0.2-0.7-0.8-1.6-1.6-1c0,1.6,0,3.3,0.5,4.7c0.4,2,1.1,3.1,1.2,5.1v3.8
		c-1-2-2.1-3.6-2.9-5.5c-1-1-1.9-3-2.9-3.7c-0.7-1.4-1.2-2.5-2.1-3.4c-0.1-1-0.8-1-1.2-1.7c0,1.9,0.9,2.6,1.2,4
		c0.9,1.4,1.1,3.5,0.9,4.2c-1-2.4-2-5-3.2-7.2c-1.2-1.4-2.5-3.2-3.2-4.5c-1.2-1.1-2.5-1.2-3.8-2c-1.1-0.4-2.1-1-2.9-1.7
		c0.4,1.8,1.2,3,1.6,4.4c0.4,1.7,1.2,3.1,1.6,4.5c-0.4,2.3-1-0.7-1.6-1.7c-0.4-2-1.2-3-2-4.1c-1.1-0.7-2.1-1.8-3.2-2.4
		c-1.2-0.4-0.8,0-0.8,1.3c0,2.1,0,3.5,0.8,4.8c0.9,1,0.9,2.3,0.9,4.1c-0.1,1.7-0.5,3-0.5,4.8v2.7c-0.9-1.4-1.8-2.3-2.5-4.1
		c-1.2-1.6-1.8-2.7-2.8-4.4c-0.9-0.3-2.5-0.6-3.2,0c0.1,1.7,1.1,2.4,1.2,4.4c-1.6,1.3-1.4,1.7-2.5-0.3c-0.9-1.6-2-1.5-3.2-2.4
		c-2.1-0.2-1.4-1.3-2-2.8c0-1.3,0-2.6-0.5-3.7c-2.2,0-3.5,0-4.9,1c-0.6,1-0.4,3,0,4.5v4.7c-0.5,1.2-1.2,1.3-1.6,2.8
		c-0.8,1.4-1,3-1.6,4c-1.5,1.1-0.9,1.2-1.6-0.6v-11c0-1.8,0.4-2.7,0.4-4.4c-0.9-1.4-1-1.7-3.8-1.7c-0.5,0.9-0.2,2.5,0,3.4
		c0,1.7,0.2,3.3,0.5,4.5c0,1.8,0.2,2.9,0.4,4.4c0,1.8-0.5,3.2-1.6,4c-1.4,0.4-0.1,1.2-1.6,1.5c-1.6-0.6-3.2-1.4-4.5-2.4
		c-1.5-0.4-3-0.7-5.2-0.7c-2.8,0-2.8-0.3-3.8-2c-0.7-1.8-1.3-3.6-1.6-5.5c-0.9-1.6-1-2.7-1.6-4.5c-0.6-1-1.4-1.8-2.5-2.4
		c-0.5,1.8-1,3.2-1.1,5.2c-0.5,0.8-0.6,2.8-0.9,3.7c-0.8-1-1.1-3-1.6-4.4c-0.8-2-1.4-3.4-4-2.7c-2.8,0-2.9,0-2.9,2.4l3.2,4v4.8
		c0,2,0.1,2.6-1.6,3c-0.6-2-2.1-4-3.8-5.7c-0.1-1.4-0.6-1-2.4-1c-1.1,0-2.2-0.2-2.9,0.3v3c-1,0.2-1.2,0-2-0.6c-0.8,1-0.2,2.4,0,3.7
		c-0.5,1.6-1.2,3-2,3.8c-0.3-0.5-0.6-0.3,0-0.3c-2.9-0.9-5-1.4-7.5-2c-1.2,0-2.4,1.1-3.1,2c-2.1,0.5-3,1-5.4,1
		c-2.2,0-3.2,0.3-5.2,0.3c-1.5,0.3-3.4,0.4-5.4,0.4c-1-0.3-3-0.3-3.6-0.7c0.9-1,1.8-1.5,2.5-3c1.2-0.8,2.3-1.6,3.2-2.5
		c1-0.6,2.2-1.9,3.2-2.7c0.6-1.7,1.5-2,2.9-2.7c2.5,0,2.9,0.7,5.2,1c2.4,0.7,3.8,1,5-0.4c1.9-0.6,3.5-1.7,5.6-2l4.1-2
		c1.8-0.9,2.5-1.8,4-2.8c0.5-1.4,1.8-2.5,1.2-4c-2.2-0.5-3.6-0.4-5,0.6c-1.6,1.2-2,1.7-4,2.7c-1.6,0.4-2.5,1-4.5,1.4
		c-1.6,0.5-3.8,0.3-5.6,0.3s-4.2-0.1-5.4,0.4c1.9-1,4-2,5.8-2.4c1.6-0.9,2.2-1.3,4.5-1.4c1-1,2-1,2.5-2.7c0.6-2-1.6-1.4-3.4-0.7
		c-1.6,0.3-3.5,1.2-4.9,1.7c-1.7,0.4-3.5,0.7-5.2,0.7c-0.5-0.6,0.4-1.1,0.8-2c1.9-0.6,2.2-0.8,2.5-2.4c-2.2,0.2-3,0.8-5,1
		c-2,0.4-4.1,0.6-6.5,0.7h-5.6c-2,0-3.1-0.4-5.4-0.4c-1.6-0.7-1.6-1-1.6-3c1.2-1.2,2.5-1,5-1l4.4-1.8c1.5-0.2,2.5-0.7,2.1-1.3h-5.8
		c-2.2-0.8,0-1.1,1.2-1.7c1.9,0,4,0,5.2,0.6c2.5,0,3.4-0.7,5.2-2c1.6-1,2.5-1.7,4.1-2.4c1.2-1.1,2.5-1.7,3.2-2.7
		c1.8-1.3,2.9-2,3.8-3.1c1-0.5,1.8-1,1.2-1.7c-2.6,0.2-3.8,1-5.4,2c-0.9,0.8-2,1.5-3.2,2c-1.6,0.9-3.4,1.4-5.4,1.5
		c-2,0-3.8-0.3-5.6-0.4c-2.2-0.2-0.2-0.6,0.4-1.4c0.9-0.4,1.5-1.5,0.8-2.3c-1.6-0.5-3.8-0.4-5.6-0.4h-5.8c-2.1,0-3-0.4-4.5-1
		c-0.4-1,0-0.7,1.6-0.7c1.8-0.1,3.6-0.3,5.4-0.7c1.9-0.4,2.1-1,2.5-2.7c-2,0-4.1,0-5.4-0.3L566.4,146.4z M531.1,138.6
		c-0.4-2.5-1.1-3.8-1.2-6.3c0-1.8,0.1-0.8,2.4-3.3c0.3,0,1.9-1.3,3.5-2.4c2.1-1,4.1-2.1,6.2-3c1.6-0.7,5-1.3,6.4-1.9
		c2-0.8,3.8-2,5.3-3.4c0.1-2.1,0.5-3.7,0.5-6.2c2.4-1,4.4-1.8,6.4-2.4c2.9-0.7,3.5-1.6,6.4-2c1.9-0.5,4.9-0.5,7.5-0.5
		c2.9,0,4.6,1.7,7.2,2c3.1,1,4.5,1.7,6.9,3.4c1.4,1.4,2.2,2.6,4.6,3.6c1.9,0.8,3.6,2,5.8,2.4c0,1.8,0.5,1.5-1,1.5
		c-0.2,1.8-0.8,1.6-2.9,1.7c-1.5-0.7-2.8-1.6-3.8-2.8c0.9-1.7,0.4,1.5,0,2.1c-1,0.7-1.6,1.4-2.8,0.7c-0.8-1.7-1.2-2.8-1.2-4.8
		c-0.4-2.1-1.1-0.6-1.6,0.3c-0.6,1.8-0.4,2.4,0.4,3.8c-2.1,0-3.8-0.2-5.2-0.4c-1.5-0.3-3.2,0.1-5,0.7c-2.1,1.1-1.4,1.1-0.4,2.4
		c1.9,0.5,3.2,1.3,5,2c1.8-0.2,3.8-0.6,5.6-1c2-0.5,3.8-0.2,5.8,0c1,0.5,2.2,0.5,2.9,1c0,1.1,0,2.2-0.5,2.8c-0.8,0.5-1.6,1.7-2.9,2
		c-1.8,0.8-3.6,1.4-5.6,1.8c-2.5,0-3.5,0.5-5.4,1.3c-0.3,1.8-0.9,2.2-2.9,2.8c-1.8,0.7-3.7,1-5.6,1c-1.2,0-2.4,0.1-2.9-0.4
		c1.4-1.2,2.5-2.5,3.2-4c0.4-0.8,1.1-1.2,0.4-1.8c-2.4,0.1-3,0.1-3.2,2s-1.1,2.2-2.9,2.8c0.5-1.7,0.6-3,1.2-4.4
		c-1.7,0.2-3.5,0.3-5.2,0.3c-1.2,0.6-1.8,0.9-1.2,2c-1.6,0.5-3.8,0.2-5.8,0c-1.8,0-0.8-0.6-2-1.3c-0.9-1.3-1.8-1.6-3.8-1.7
		c-0.9,1-2.5,1.3-3.6,2c-1.8,0.5-2.9,0.1-4.5-0.6c-2,0-1.8,0.5-1.2,1.7c0.9,0.4,0,0.9,1.2,1c1.2,0.8,2.2,1,4.5,1
		c1.8-0.4,3.8-0.3,5.8-0.3s1.6,0.4,1.6,2c-1.2,0.8-3.3,0.7-5.4,0.7c-1.7-0.2-3.3-0.5-4.9-1c-1.9-0.1-3.4-0.4-4.9,0
		c-0.6,0.6-2.5,0.8-0.4,1c0.9,0.7,5.6,0.3,5.9,1.5c1.2,1,0.9,2.3-1,2.3c-0.9-0.4-2-0.4-2.9,0c-1.2,0.2-3,0-5.4,0.2
		C537.6,142.7,532.3,139.8,531.1,138.6L531.1,138.6z"/>
	<path id="path2977" class="st13" d="M544,127.3l-2.5,1.3c-1.8,0.8-3.8,2-4.9,2.7c-0.9,0.6-0.9,1-2,1c1.9-0.2,2.8-0.6,4.5-1.3
		c2.1-0.2,4.1-0.6,5.2-1.4C545.5,129.3,544.4,128,544,127.3L544,127.3z M562.8,111.2c0.2,0,0.8,1,1.6,1.7c0.6,1.3,1.2,2.2,1.2,3.8
		c0.5-1.7,1.2-3,1.6-4.8c-0.6-1-0.6-1.3-2.5-1.4C564.8,111.5,565,110.8,562.8,111.2L562.8,111.2z"/>
	<path id="path2979" class="st15" d="M551.4,123.3c-0.9,0,1.5-0.8,2.4-0.9c0.7-1.2,1.1-2,2.4-2.8c2,0,3.1,0.6,4.1,1.7
		c1.8,0.5,2.4,1.1,4.4,1.4c0.9,0.6,1.8,0.6,0,1.1c-1.1,0.5-2.8,0.6-4.8,0.6c-1.7,0.1-3.3,0.5-4.8,1.1
		C552.3,125.4,552.7,125.4,551.4,123.3L551.4,123.3z"/>
	<path id="path2981" class="st13" d="M570.1,111.5v0.4c0-1,0-0.5,0.4,1.4c0.7,1.3,1,2.6,0.9,4c1.2-0.8,2-1.8,2.5-3
		C573.9,111.6,573.3,111.7,570.1,111.5z M585.1,150.8h0.5c-1.2,0-0.5,0,1.6-1c1.4-0.8,2.5-2,4.5-2.4c1.5-1.1,3.3-1.9,5.2-2.4
		c1-0.4,1.9-1,2.9-0.3c-0.3,1.6-0.6,2.3-2.5,3c-0.9,1-2.2,1.6-3.6,2c-1.2,0.6-2.8,0.6-3.2,1.8c-2.2,0.8-2.5,0.6-5.3-0.7L585.1,150.8
		z M593,160.7c0.6-0.5,3.2-2.6,4.5-3.4c1.1-1.3,2.5-2.4,4-3.4c1.2-1.5,2.8-2.5,3.8-3.8l3.2-3.4c0,1.5-0.2,3.5,0.4,4.4
		c0.1,1.4-0.3,2.9-1.2,4.1c-0.9,1.2-1.6,2-3.8,2.8c-1.8,0.8-2.9,1-4.4,2c-1.2,0.6-2.5,1.2-3.8,1.7C594.6,162.1,595.1,162,593,160.7
		L593,160.7z M580.3,168.5h0.5c-1.2,0-0.6,0.1,1.6-1c1.8-1.4,3.1-2,5.2-2.7c1.7-0.1,3.4-0.4,5-1c0.9-0.2,1.6-0.7,2.4,0
		c1.2,1.4,1.6,1.8-0.4,2.7c-1.2,0.8-2.6,1.4-4.1,1.7c-1,0.7-3,0.7-5,1c-1.5,0-2.5,0.2-3.1-0.7l3.2,0.7
		C584,169.2,583.1,169.4,580.3,168.5L580.3,168.5z M597.8,168.5v-0.3c0,1,0,0.5,0.9-1.4c1.6-1.9,2.1-3,4.1-3.4
		c0.9-1,2.5-1.2,4.5-1.7c0.8,1,0.1,2.2,0,3.4c-0.5,1.3-2,2.2-2.9,3.1c-1.2,0.7-1.8,1.4-3.8,1.7c-1.5,0-0.6,0-2.8-1.4L597.8,168.5z"
		/>
	<path id="path2983" class="st16" d="M557.9,124.2c0,0.9-0.9,1.7-2,1.7c-1.2,0-2.1-0.8-2.1-1.7c0-0.9,1-1.7,2.1-1.7
		S557.9,123.2,557.9,124.2z"/>
</g>
<g id="g2991" transform="matrix(.73276 0 0 .82256 122.8 17.5)">
	<path id="path2987" class="st17" d="M564,217.2h1.7c-5.2,0-2-0.3,6.5,5.4c3.7-2.5,3.7-2.8,6.5,1.5c1.9,2.3,2.2-0.3,5-2.8
		c1.3,4.9,2,10,6.5,5.4c5.2,0,10.4-0.3,13.1,1.4c3.3,5.1,2.2-0.9,4.8,1.4c7.4,0.6,7.2-5.2,15-6.8c4.8,5.1,7,1.2,12.9-1.2
		c4.6,0.9,8.9,6.6,9.8,1.1c3.7-4.9,3.9-4.6,6.5,0c3.7,2.8,5.2-1.2,8.1-2.6c5.5,2.6,11.7,3.1,19.6,1.4c1.5,4.5,4.8,2.5,8.3,1.2
		c7.2,2.6,9.6,3.4,17.9,0c4.1-4,1.8,0.2,4.8,2.8c6.1-1.5,4.4-1.8,11.5-1.4c7.2,0,7.8,0,9.8-4c3.7,2.9,4.8,5.1,9.8,1.4
		c7.8,0,5.4,0.8,9.8-1.5c3.5,6.2,4.3,1.8,8.3,4.2c-2.3,4.5-6.3,8.3-11.5,10.8c-3.1,4.6-5.2,9.2-11.5,11.1c-4.6,3.8-9.6,6.2-14.8,9.5
		c-7,1.5-14.8,1.2-22.8,1.2h-68.8c-4.8,2.2-13,3.1-19.6,4.2c-7.4,0-16.1,0-21.3-1.4c-3.5-2.9-9.6-6.2-13-9.5
		c-3.7-2.3-3.7-6.8-6.7-9.5c-2.6-3.9-3.7-10-6.5-13.6V217.2z"/>
	<path id="path2989" class="st17" d="M722.5,229.5v1.2c0-3.7,0.2-1.7-3.3,5.5c-0.6,1.7-2.2,2.2-4.8,2.8 M707.9,234.9h1.7
		c-6.1,4.6-10.2,6.9-11.5,12.3l11.5-12.3c-6.1,4.6-10.2,6.9-11.5,12.3 M685,228.1c0,0-0.2,4.8-1.7,6.8 M678.5,237.7v1.2V237.7z
		 M665.4,229.5h1.7h-1.8c0.7,0,1.3,0,0,0H665.4z M573.8,229.5c0.7,0,4.1,4.3,8.1,6.8c-0.9,4-2.6,8.6,0,12.3 M586.9,237.7
		c0.7,0,3.9,4.3,8.1,6.8L586.9,237.7c0.7,0,3.9,4.3,8.1,6.8v1.4c0-4.3-0.4-8.6,1.7-10.9c1.8,2.6,4.1,6.6,4.8,2.8
		c9.2-0.3,13.7-2.5,19.6-4.2c0,2-0.4,1.1,1.9,2.8 M734,230.7h1.7c-3.1,2.2-5.5,6.6-8.1,9.5 M667,226.7h13"/>
</g>
<path id="path2993" class="st18" d="M532.4,214.3c-14.4,0-19.2,13.5-33.6,13.5H498v0.8c0,9.4,0.8,18.1,2.2,26.2
	c13.3-0.8,18.1-13.4,32.1-13.4c14.4,0,19.1,13.4,33.5,13.4c14.5,0,19.2-13.4,33.6-13.4s19.2,13.4,33.6,13.4
	c14.4,0,19.1-13.4,33.5-13.4c13.8,0,18.8,12.5,32,13.4c1.7-8.9,2.5-18,2.4-27h-0.9c-14.4,0-19.1-13.4-33.5-13.4
	s-19.3,13.5-33.5,13.5c-14.4,0-19.2-13.5-33.8-13.5c-14.2,0-19.1,13.5-33.5,13.5c-14.2,0-19.1-13.5-33.5-13.5V214.3z M532.4,267
	c-11.2,0-16.5,8.2-25.3,11.8c2.9,7.1,6.5,14,10.8,20.5c4.1-2.8,8.4-5.2,14.5-5.2c14.4,0,19.1,13.5,33.5,13.5
	c14.5,0,19.2-13.5,33.6-13.5s19.2,13.5,33.5,13.5c14.2,0,19.3-13.5,33.6-13.5c5.2,0.2,10.2,1.9,14.1,5c4.3-6.5,7.9-13.3,10.7-20.4
	c-8.4-3.7-13.8-11.7-25-11.7c-14.3,0-19.1,13.5-33.5,13.5S613.8,267,599.5,267s-19.2,13.5-33.6,13.5
	C551.6,280.5,546.8,267,532.4,267L532.4,267z M599.5,319.7c-14.4,0-19.2,13.5-33.6,13.5c-13.6,0-18.6-12-31.2-13.4
	c13.5,13.5,30.2,24.7,49.1,33c4.5-3.2,9.1,3.6,15.6,3.6c6.6,0,11.2-6.9,15.6-3.8c18.4-8,35-19.1,48.8-32.7
	c-12.2,1.7-17.5,13.3-30.8,13.3C618.6,333.2,613.9,319.7,599.5,319.7z"/>
<g id="g3070" transform="matrix(.86465 0 0 .97062 -175.4 2.5)">
	<path id="path2995" class="st19" d="M793.1,273.8c5.4-1.5,10.9-2.8,16.4-3.9l25.5,20.4l-20.9,3.5L793.1,273.8z"/>
	<path id="path2997" class="st20" d="M843.3,307.1c0.4-4.7,11.7-31.9,11.7-31.9 M847.1,307.4l8.9-32 M850.2,307.5l7.4-32.1
		 M843.7,303.2c2-0.8,7.7-2.1,7.7-2.1 M846.5,298.5c1.9,0,5.7-1.2,5.7-1.2 M847.5,294.9c1.9-0.6,3.8-1,5.8-1.2 M848.3,290.3l6.2-0.8
		 M851.1,286.4c0,0.3,4.2,0.3,4.2,0.3 M852.2,282.9l4.2,0.5"/>
	<path id="path2999" class="st21" d="M916,327c-0.5-8.1-13.8-54.6-13.8-54.6 M911.5,325.4L901,272.6 M906.8,321.3
		c-0.3-3-7.7-48.6-7.7-48.6 M915.6,320.3c-2.3-1.4-9.1-3.5-9.1-3.5 M912.3,312.2c-2.2,0-6.7-2.1-6.7-2.1 M911,306
		c-2.2-0.9-4.5-1.7-6.9-2.1 M910.1,298.3l-7.3-1.4 M906.8,291.6c0,0.5-5,0.5-5,0.5 M905.6,285.6l-5,0.9"/>
	<path id="path3001" class="st19" d="M954.7,310.3c-0.5-6-13.7-40.3-13.7-40.3 M950.1,309.1l-10.5-39 M945.4,306.1
		c-0.3-2.2-7.7-35.9-7.7-35.9 M954.2,305.4c-2.3-1-9.1-2.6-9.1-2.6 M950.9,299.4c-2.2,0-6.7-1.6-6.7-1.6 M949.7,294.8
		c-2.2-0.7-4.5-1.2-6.9-1.6 M948.7,289.1l-7.3-1 M945.4,284.2c0,0.4-5,0.4-5,0.4 M944.2,279.7l-5,0.6"/>
	<path id="path3003" class="st22" d="M891.2,313.9l1.4-94.9c0,0,4.1-0.4,4.1,0s-0.5,94.5-0.9,94.9S890.7,314.5,891.2,313.9z
		 M935.7,223.1l-0.9,79.7l-3.1,3.1l0.9-82.8H935.7z"/>
	<path id="path3005" class="st22" d="M840.7,298.3c0,0,4.7,39,56.9,37.8c52.2-1.2,66.7-39.3,66.7-39.3l-22.7-0.8
		c-0.5,0-18.1,18.2-40.9,17.8s-30-4.9-35-8.7c-5-3.9-9.4-9.5-9.4-9.5l-26.6-8.7l1.6,8.3L840.7,298.3z M981.8,294.4l-1.6-5.2v-4.4
		l2.5-4.7c0,0-39.5,4.8-39.5,5.2l-0.2,8.8l38.8,0.1V294.4z"/>
	<path id="path3007" class="st19" d="M974.3,284.7l-0.9,7.8h6.4l-0.5-7.8H974.3z M967.6,285.1l-0.5,8.3l4.1-0.4l0.5-7.9L967.6,285.1
		z M960.7,293.4v-6.5l4.1-1.2l0.5,6.5L960.7,293.4z M952.9,293.1l0.9-5.7l4.7,0.4l0.3,6.1L952.9,293.1z M944.3,293.1l0.5-4.9
		l4.7-0.4v5.7L944.3,293.1z M839,297.9c1.4,0,11.9,1.9,11.9,1.9l10.9,12.1"/>
	<path id="path3009" class="st19" d="M846.7,299.4c0.5,0.4,9.5,25.7,53.1,25.7s54.1-28.7,54.1-28.7"/>
	<path id="path3011" class="st19" d="M960.7,297.2c0,0-20.9,37.7-60.9,35.1c-39.8-2.6-46.2-15.1-49.4-21.6s-5-11.7-5-11.7"/>
	<path id="path3013" class="st22" d="M856.7,295.7c0.5-2.2,0.5-70.7,0.5-70.7l-2.7-0.3l-0.5,69.8l2.7,1.3V295.7z M791.8,273.4
		l34.4,13.9l-0.8,1.9c0,0-33.1-13-33.1-13.4s0.3-2-0.5-2.6V273.4z"/>
	<path id="path3015" class="st22" d="M807.6,269.3c0,1,5,24.2,5,24.2s3.1,0.4,3.1,0l-5.3-23.8L807.6,269.3z M839.5,269.9
		c1.7,0,32.8-4.2,32.8-4.2l-0.6,4.2l-30.5,2.6L839.5,269.9z"/>
	<path id="path3017" class="st23" d="M843.8,238.6c1.1,0,10.9,4.2,15.2,3.1c4.2-1,1.4-3.9,2.2-3.9c0.9,0,4.1,1.9,5.9,0.4
		c1.9-1.4,3.1-6,2.3-5.6c-0.9,0.4-25,7.5-25.5,6H843.8z"/>
	<path id="path3019" class="st22" d="M839.9,248.1c1.7,0.4,37.2-7.9,37.2-7.9s0,2.6-0.5,2.6l-36.7,7.9V248.1z"/>
	<path id="path3021" class="st23" d="M922,236.4c0,0,2.3,4.6,4.7,3.8s4.5-2.3,4.5-2.3s1.9,3.9,5,3.1s5-4.9,5-4.9s3.1,0.8,4.5,0.4
		c1.4-0.4,3.1-6.5,3.1-6.5l-26.7,6.5L922,236.4z M919.3,273c-0.5,0.8,2.3,2.6,4.7,2.6s3.1-2.6,3.6-1.8c0.5,0.6,0.5,4.2,6.2,3
		c5.8-1.2,5.9-4.6,5.9-4.6s-1.7,1.2,2.3,1.6c4.1,0.4,8.1-4.9,7.8-4.9C949.3,268.9,920.3,273.4,919.3,273L919.3,273z"/>
	<path id="path3023" class="st22" d="M841.3,237c-0.3,1.2-0.2,2.4,0.3,3.5l29.7-8.3c0,0,1.2-1.9,0-1.9c-1.2,0-30.5,7.5-30.2,6.9
		L841.3,237z M880.4,231.8c0.8,0,30.3-7.9,30.3-7.9s0.5,3.4,0,3.4l-27.7,6.8l-2.8-2.2H880.4z"/>
	<path id="path3025" class="st23" d="M919.3,248.5c0,0-4.5,4.2-3.1,9.8c1.4,5.7,3.1,10.7,3.6,10.7c0.5,0,5.5-7.5,10.9-7.9
		s15.5,4.2,15.5,4.2s-1.4-9.1-0.9-13.3c0.5-4.2,8.1-11.3,8.1-11.3l-34.1,7.8V248.5z"/>
	<path id="path3027" class="st22" d="M878.1,241.6c0,0-0.9,3.5-0.5,3.5l38.6-8.3v-2.5l-38.1,7.2L878.1,241.6z"/>
	<path id="path3029" class="st24" d="M829,287.3c0,0-9.1-1-8.6,0.8c0.5,2,4.5,3.8,5,4.9c0.5,1.2-1.4,5.2,1.4,4.9
		c2.7-0.4,5.3-2,5.3-3.1l-0.5-6.5L829,287.3z"/>
	<path id="path3031" class="st22" d="M879.5,268.5v2.6l32.7-3.8l-0.9-2L879.5,268.5z"/>
	<path id="path3033" class="st23" d="M840.7,273c0.6,0,0,3.4,3.8,2.6c3.6-0.8,4.5-2.6,4.5-2.6s0.9,4.2,5.9,3.8s7.8-4.9,7.8-4.9
		s0.3,3.4,3.4,2.2c3.1-1.2,4.1-3.8,4.1-3.8l-28.6,3.4l-0.8-0.6H840.7z M840.7,250.7c0,0-4.1,1.2-2.7,7.9c1.4,6.8,4.7,10.7,5,10.7
		c0.5,0,4.1-6.5,9.5-7.5c5.5-1.3,15,3.4,15,3.4s-0.9-6.1,0.5-11.7c1-3.6,3-7,5.9-9.9c0,0-31.9,7.1-33.1,7.1H840.7z"/>
	<path id="path3035" class="st22" d="M917.1,270.3l0.5,2.3c0,0,32.8-3.4,32.8-3.9c0-0.3,0-2.6-0.6-2.6c-0.5,0-32.2,4.5-32.8,4.2
		H917.1z M916.7,246.1l0.5,2.6l38.6-8.6c0,0,0.9-2.3,0.5-2.3C955.7,237.8,917.6,247.3,916.7,246.1L916.7,246.1z"/>
	<path id="path3037" class="st19" d="M920.7,234c0,0-0.5,2.3,0,2.3c0.5,0,28.6-5.7,28.6-6.1c0-0.4,2.8-2.6,0.5-2.2
		C947.6,228.4,921.7,235.2,920.7,234L920.7,234z M981.2,277.8l-28.1-36.9 M949.3,266.5c0.5-1,1.9-23.8,1.9-23.8"/>
	<path id="path3039" class="st23" d="M881.3,233c1.6,0.3,4.8,4.2,6.7,3.4c1.9-0.8,4.5-3.1,4.5-3.1s-0.5,4.5,3.1,3.9
		c3.8-0.8,4.2-3.9,4.2-3.9s2.7,1.3,5,0c2.2-1,4.4-6.8,3.6-6.8s-26.4,6.8-27.3,6.5L881.3,233z M880.4,243.9c0,0.8-4.7,6.8-3.1,12.5
		c1.6,5.7,3.9,10.9,4.4,10.9c0.5,0,7.3-6,13.3-7.2c5.8-1.2,14.5,3.8,14.1,3.8c-0.5,0-2.3-5.7-2.3-9.9c0-4.2,6.9-16.9,6.9-16.9
		L880.4,243.9z M880.4,271.2c0,0.3,1.2,2.9,4.5,2.9c3.1,0,3.6-2.6,3.6-2.6s-0.5,4.5,4.5,4.2c5-0.4,6.7-4.5,6.7-4.5s0.5,2.3,4.7,1.2
		c4.1-1.2,9.4-4.9,9.1-4.9c-0.5,0-32.8,4.9-33.3,3.9L880.4,271.2z"/>
	<g id="use3041" transform="translate(-6.6 7.3)">
		<path id="k" class="st25" d="M884.2,256.7c1.3,0,2.4,1,2.3,2.1c0,1.1-1.2,2-2.5,2c0,0,0,0,0,0c-1.3,0-2.4-1-2.3-2.1
			C881.7,257.6,882.8,256.7,884.2,256.7z"/>
	</g>
	<g id="use3043" transform="translate(6.6 3.8)">
		<path id="k_1_" class="st25" d="M900.7,253.2c1.3,0,2.4,1,2.3,2.1c0,1.1-1.2,2-2.5,2c0,0,0,0,0,0c-1.3,0-2.4-1-2.3-2.1
			C898.2,254.1,899.3,253.2,900.7,253.2z"/>
	</g>
	<g id="use3045" transform="translate(0 11)">
		<path id="k_2_" class="st25" d="M892.4,260.4c1.3,0,2.4,1,2.3,2.1s-1.2,2-2.5,2c0,0,0,0,0,0c-1.3,0-2.4-1-2.3-2.1
			C890,261.3,891.1,260.4,892.4,260.4z"/>
	</g>
	<path id="k_3_" class="st25" d="M892.4,249.4c1.3,0,2.4,1,2.3,2.1c0,1.1-1.2,2-2.5,2c0,0,0,0,0,0c-1.3,0-2.4-1-2.3-2.1
		C890,250.3,891.1,249.4,892.4,249.4z"/>
	<path id="path3048" class="st19" d="M895.7,220c0-0.3,14.1,4.9,14.1,5.3c0,0.4,50,55.6,50.5,55.6 M935.3,225.3l12.8,4.5l4.1,8.3
		 M856.2,224.7c-0.5,0,14.1,9.1,14.1,9.1l1.9,7.4 M806.8,279.8c6.2-2.2,50.3-34.3,50.3-34.3 M794.9,273.7l49.5-34.7 M877.6,244.2
		l46.9,64.7 M918.8,271c0,0,5.5,15.2,10.9,17.5c4.1,1.8,8,3.8,11.9,6"/>
	<path id="path3050" class="st19" d="M918.2,271.3c0,0,3.9,17.9,9.4,21.3c5.5,3.4,10.9,7.1,10.9,7.1"/>
	<path id="path3052" class="st19" d="M880.6,271.2c0,0,5.3,25,16.2,30.7c6.7,3.5,13.4,7,20,10.5"/>
	<path id="path3054" class="st19" d="M880.1,270.8c0,0,11.7,19.8,21.9,25.7c9.8,6.1,23.4,11.7,23.4,11.7 M842,272.5
		c3.1,4.5,2.7,13.3,6.2,16.2c3.3,3.1,6.3,6.4,9.1,9.9 M842.8,272.8c1.9,2.2,6.9,13.5,10,16.9c2.3,3.1,25.5,22.4,25.5,22.4"/>
	<path id="path3056" class="st26" d="M870.6,312.9c0,1.6-1.5,2.9-3.4,2.9c-1.9,0-3.4-1.3-3.4-2.9c0,0,0,0,0,0c0-1.6,1.5-2.9,3.4-2.9
		C869.1,310.1,870.6,311.4,870.6,312.9z M887.3,319c0,1.4-1.3,2.5-3,2.5c-1.6,0-3-1.1-3-2.5c0,0,0,0,0,0c0-1.4,1.3-2.5,3-2.5
		C886,316.6,887.3,317.7,887.3,319z M908.7,320.6c0,1.4-1.3,2.5-3,2.5s-3-1.1-3-2.5c0,0,0,0,0,0c0-1.4,1.3-2.5,3-2.5
		C907.4,318.1,908.7,319.2,908.7,320.6z M927.3,314.7c0,1.3-1.1,2.2-2.5,2.2s-2.5-1-2.5-2.2s1.1-2.3,2.5-2.3
		S927.3,313.4,927.3,314.7z M942.3,307.3c0,1.2-1.4,2.1-3,2.1s-3-0.9-3-2.1c0-1.2,1.4-2.1,3-2.1S942.3,306.2,942.3,307.3z"/>
	<path id="path3058" class="st27" d="M854.2,226.2c-1.4,0.8-24.1,5.3-20.9,4.9c3.1-0.4,21.4,3.9,20.9,2.6
		C853.7,232.5,854.2,227,854.2,226.2z M892.8,220.6c-0.9,0-14.1,4.2-13.6,4.2c0.5,0,15,3.4,14.5,2.6
		C893.3,226.6,893.3,221.7,892.8,220.6L892.8,220.6z M932.3,224.4c-0.9,0.4-16.4,3.4-13.6,3.8s13.1,3.4,13.1,2.6c0-0.6,0-6,0.5-6.5
		V224.4z"/>
	<path id="path3060" class="st19" d="M915.9,312.8c0.5-6,13.8-40.3,13.8-40.3 M920.4,311.6l10.5-39 M925.1,308.6
		c0.3-2.2,7.7-35.9,7.7-35.9 M916.4,307.9c2.3-1,9.1-2.6,9.1-2.6 M919.7,301.9c2.2,0,6.7-1.6,6.7-1.6 M920.9,297.3
		c2.2-0.7,4.5-1.2,6.9-1.6 M921.8,291.6l7.3-1 M925.1,286.7c0,0.4,5,0.4,5,0.4 M926.4,282.2l5,0.6"/>
	<path id="path3062" class="st19" d="M877.2,317.2c0.5-6.3,13.7-42.2,13.7-42.2 M881.7,317.6l10.5-42.3 M885.3,317.7l8.8-42.4
		 M877.6,312c2.3-1.1,9.1-2.7,9.1-2.7 M880.9,305.7c2.2,0,6.7-1.6,6.7-1.6 M882.2,301c2.2-0.7,4.5-1.3,6.9-1.6 M883.1,295l7.3-1.1
		 M886.4,289.8c0,0.4,5,0.4,5,0.4 M887.6,285.2l5,0.7"/>
	<path id="path3064" class="st19" d="M877,314.4c-0.5-6.1-13.7-40.9-13.7-40.9 M872.5,313.2L862,273.6 M867.8,310.2
		c-0.3-2.2-7.7-36.4-7.7-36.4 M876.6,309.4c-2.3-1.1-9.1-2.6-9.1-2.6 M873.3,303.3c-2.2,0-6.7-1.6-6.7-1.6 M872,298.7
		c-2.2-0.7-4.5-1.2-6.9-1.6 M871.1,292.9l-7.3-1.1 M867.8,287.9c0,0.4-5,0.4-5,0.4 M866.6,283.4l-5,0.7"/>
	<path id="path3066" class="st22" d="M939.8,296l43.1,0.8l0.5-2.6l-44.5-0.4L939.8,296z M941.7,286.6c5,0,42.7-6,42.7-6
		s1.4-3.9,0-3.9s-42.7,7.3-42.7,7.3V286.6z"/>
	<g id="use3068" transform="translate(0 5.5)">
		<path id="k_4_" class="st25" d="M892.4,254.9c1.3,0,2.4,1,2.3,2.1s-1.2,2-2.5,2c0,0,0,0,0,0c-1.3,0-2.4-1-2.3-2.1
			C890,255.8,891.1,254.9,892.4,254.9z"/>
	</g>
</g>
<path id="path4214" class="st0" d="M0,0h400v240H0V0z"/>
<path id="path4216" class="st28" d="M46.9,0l152.5,90.5L351.2,0H400v31l-150,89.5l150,89V240h-50l-150-89.5L50.6,240H0v-30l149.4-89
	L0,32V0H46.9z"/>
<path id="path4218" class="st29" d="M265,140.5L400,220v20l-169.4-99.5H265z M150,150.5l3.8,17.5l-120,72H0L150,150.5z M400,0v1.5
	l-155.6,94l1.2-22L368.8,0H400z M0,0l149.4,88h-37.5L0,21V0z"/>
<path id="path4220" class="st28" d="M150.6,0v240h100V0H150.6z M0,80v80h400V80H0z"/>
<path id="path4222" class="st29" d="M0,96.5v48h400v-48H0z M170.6,0v240h60V0H170.6z"/>
</svg>
