<?xml version="1.0" encoding="utf-8"?>
<!-- Generator: Adobe Illustrator 24.0.1, SVG Export Plug-In . SVG Version: 6.00 Build 0)  -->
<svg version="1.1" id="flag-icons-fm" xmlns="http://www.w3.org/2000/svg" xmlns:xlink="http://www.w3.org/1999/xlink" x="0px"
	 y="0px" viewBox="0 0 800 480" style="enable-background:new 0 0 800 480;" xml:space="preserve">
<style type="text/css">
	.st0{fill-rule:evenodd;clip-rule:evenodd;fill:#6797D6;}
	.st1{fill:#FFFFFF;}
</style>
<path class="st0" d="M0,0h800v480H0V0z"/>
<g>
	<polygon class="st1" points="430.5,344.6 400,365.5 369.6,344.6 381.2,378.5 350.7,399.2 388.4,399.2 400,433 411.7,399.1 
		449.3,399.2 418.8,378.4 	"/>
	<polygon class="st1" points="254.7,222 233.8,193.1 232.5,228.8 196.4,239.8 231.7,250.8 230.4,286.5 253.4,257.8 288.8,268.7 
		267.7,239.8 290.8,211 	"/>
	<polygon class="st1" points="400,47 388.4,80.8 350.7,80.8 381.2,101.6 369.6,135.4 400,114.5 430.5,135.4 418.8,101.6 449.3,80.9 
		411.7,80.9 	"/>
	<polygon class="st1" points="603.6,239.8 567.5,228.8 566.2,193.1 545.3,222 509.2,211 532.3,239.8 511.2,268.7 546.5,257.7 
		569.6,286.5 568.3,250.8 	"/>
</g>
</svg>
