<?xml version="1.0" encoding="utf-8"?>
<!-- Generator: Adobe Illustrator 24.0.1, SVG Export Plug-In . SVG Version: 6.00 Build 0)  -->
<svg version="1.1" id="flag-icons-gb-nir" xmlns="http://www.w3.org/2000/svg" xmlns:xlink="http://www.w3.org/1999/xlink" x="0px"
	 y="0px" viewBox="0 0 800 480" style="enable-background:new 0 0 800 480;" xml:space="preserve">
<style type="text/css">
	.st0{fill:#FFFFFF;}
	.st1{fill-rule:evenodd;clip-rule:evenodd;fill:#FFFFFF;}
	.st2{fill-rule:evenodd;clip-rule:evenodd;fill:#CC0000;}
	.st3{fill-rule:evenodd;clip-rule:evenodd;fill:#EBEAE3;stroke:#000000;stroke-width:0.5;}
	.st4{fill:#FFFFFF;stroke:#161111;stroke-width:1.6;}
	.st5{fill-rule:evenodd;clip-rule:evenodd;fill:#B02320;stroke:#000000;stroke-width:1.3;}
	.st6{fill:none;stroke:#000000;stroke-width:1.1;}
	.st7{fill-rule:evenodd;clip-rule:evenodd;fill:#FFCC00;fill-opacity:0.9;stroke:#000000;stroke-width:1.2;}
	.st8{fill:#121116;stroke:#121116;stroke-width:1.2;stroke-linejoin:round;}
	.st9{fill-rule:evenodd;clip-rule:evenodd;fill:#F6CA1F;stroke:#000000;}
	.st10{fill:#EEEEEE;stroke:#1E1E1E;stroke-width:1.2;stroke-linejoin:round;}
	.st11{fill-rule:evenodd;clip-rule:evenodd;fill:#A3AFB8;}
	.st12{fill:#EEEEEE;stroke:#1E1E1E;stroke-width:2.8;stroke-linejoin:round;}
	.st13{fill-rule:evenodd;clip-rule:evenodd;fill:#B3A192;stroke:#000000;stroke-width:1.2;}
	.st14{fill:#F0DDCB;stroke:#121116;stroke-width:0.6;stroke-linejoin:round;}
	.st15{fill:#916C68;stroke:#4D3126;stroke-width:0.6;stroke-linejoin:round;}
	.st16{fill-rule:evenodd;clip-rule:evenodd;fill:#FFCC00;stroke:#000000;stroke-width:0.5;}
	.st17{fill-rule:evenodd;clip-rule:evenodd;fill:#FFCC00;stroke:#000000;stroke-width:1.2;}
	.st18{fill-rule:evenodd;clip-rule:evenodd;fill:#FFCC00;stroke:#121116;stroke-width:1.2;}
	.st19{fill:#FFCC00;stroke:#121116;stroke-width:1.2;stroke-linejoin:round;}
	.st20{fill-rule:evenodd;clip-rule:evenodd;fill:#FFCC00;stroke:#000000;}
	.st21{fill-rule:evenodd;clip-rule:evenodd;fill:#F6CA1F;stroke:#000000;stroke-width:0.9;}
	.st22{fill-rule:evenodd;clip-rule:evenodd;fill:#FFCC00;stroke:#000000;stroke-width:1.1;}
	.st23{fill:#FFCC00;stroke:#000000;stroke-width:1.1;stroke-linejoin:round;}
	.st24{fill-rule:evenodd;clip-rule:evenodd;fill:#CCA715;stroke:#000000;stroke-width:0.5;}
	.st25{fill-rule:evenodd;clip-rule:evenodd;}
	.st26{fill:#0F6545;stroke:#000000;stroke-width:0.7;stroke-linejoin:round;}
	.st27{fill:#CECFC1;}
	.st28{fill:#1F2D86;stroke:#000000;stroke-linejoin:round;}
	.st29{fill:#707C8B;}
	.st30{fill-rule:evenodd;clip-rule:evenodd;fill:#9F1209;stroke:#000000;stroke-width:0.5;}
	.st31{fill:#8F322F;}
	.st32{fill:#E2A494;}
	.st33{fill:#AA675D;}
	.st34{fill:#F5D8BC;}
	.st35{fill:none;stroke:#000000;stroke-width:1.2;}
	.st36{fill:none;stroke:#000000;}
	.st37{fill:#CC0000;stroke:#161111;stroke-width:1.6;}
	.st38{fill:none;stroke:#161111;stroke-width:1.6;}
</style>
<path id="rect6943" class="st0" d="M0,0h800v480H0V0z"/>
<path id="rect6703" class="st1" d="M0,0L0,0L0,0z"/>
<rect id="a" y="192" class="st2" width="800" height="96"/>
<g id="use6706" transform="matrix(0 .75 -1 0 560 0)">
	
		<rect id="a_1_" x="272" y="-80" transform="matrix(2.535182e-06 1 -1 2.535182e-06 479.9992 -160.0004)" class="st2" width="96" height="480"/>
</g>
<path id="path6708" class="st3" d="M435.2,146.6c3-4.8,1.2-8-3.4-8.9c0,0-14.9,4.8-31,5.3c-16,0.5-35-4-35-4
	c-3.5,2.1-2.7,7.2-1,10.4c0,0,16.8,5.6,36,5c10.2-0.4,20.4-2.3,30.1-5.5C434.6,147.7,435.2,146.7,435.2,146.6z"/>
<path id="path6710" class="st4" d="M400,357.6l-30.9-64.2l-70.9,5.4l40-58.8l-40-58.8l71,5.4l30.8-64.1l30.9,64l70.9-5.3l-40,58.8
	l40,58.8l-71-5.4L400,357.6z"/>
<path id="path6712" class="st5" d="M399.5,122.2c38.8,6.4,37.4,8.2,37.4,8.2l10.1-30.2c0,0,1.1-6-1.7-9.6S434.8,89,434.8,89
	s-1-4.9-4.5-6c-3.4-1.2-16,4.5-20,5.8s-6,2.5-11.5,2.4c-5.5,0-15.4-5-17.3-6c-1.7-0.9-4.4-1.8-6.9-1.7c-2.4,0-5,0.7-6.3,2.4
	c-1.2,1.7-1.2,3.9-1.2,3.9s-2-1.3-5.2-1.3s-5,0.4-6.5,2.1s-3.4,6.5-3.4,6.5l3.6,8.2l0.2,11.3l7.5,12L399.5,122.2L399.5,122.2z"/>
<path id="path6714" class="st3" d="M435.7,139.3c0,0,2,2.3,1.9,3.2c-0.1,0.8-1,1.5-1,1.5s0.7,0.6,0.5,1.5c-0.1,1-1.4,1-1.4,1
	s0.3,0.8-0.5,1.2c-0.7,0.4-3.8,1-3.8,1s-15-4.2-31-4.2s-35,5.2-35,5.2s-2-0.7-2-2c-0.2-1.2,0.1-2.1,0.1-2.1s-1,0-1.3-0.9
	c-0.4-1.3,0.1-2.3,0.1-2.3s-0.7,0.2,0.1-1.5c0.6-1.3,1.5-1.7,1.5-1.7s16.8-6,36-6.1C419,133.1,435.7,139.1,435.7,139.3L435.7,139.3z
	"/>
<path id="path6716" class="st6" d="M356.2,101.5c0,0-0.6-2.2,0.8-4.1c1.1-1.4,3-2,4.7-1.4c0.8,0.4,0.7,1.3,1.7,1.5
	c1,0.3,1.8-0.5,1.8-0.5"/>
<path id="path6718" class="st7" d="M449.8,106.6l-5.8,12l-2.3,0.4c0,0-1.4-0.8-5.4-0.5c-2.8,0.2-3.7,1-3.7,1l5.2-12c0,0,0.4,2.5,1,4
	c0.8,2,3.7,3.7,3.7,3.7s0.4-2.3-0.4-5c-0.8-2.5-1.7-4.9-2.8-7.3L449.8,106.6L449.8,106.6z"/>
<path id="path6720" class="st8" d="M396.5,69.2h6.5v27.7h-6.5V69.2z"/>
<path id="path6722" class="st9" d="M356.6,120.2l4.1,9c0,0,17.9-7,38.9-6.8c31.5,0.2,40.5,6.5,40.5,6.5l4.6-11.1l-3.5,2l-3.6,2.3
	l-4,1.5l-5-0.3l-4.4-3.2l-2.2-4.7l-3.7,3.4l-6.6,1.4l-6.4-1.6l-5.6-7.1c0,0-4.2,7.9-9.6,8.4c-7.7,0.6-12.1-3.7-12.1-3.7
	s-2.9,6.4-7.6,7.5C362.9,125.6,356.7,120.2,356.6,120.2L356.6,120.2z"/>
<g id="g6842">
	<path id="path6724" class="st10" d="M428.4,65.7c0,1.8-1.4,3.4-3.3,3.4s-3.4-1.5-3.4-3.4c-0.1-1.9,1.4-3.4,3.3-3.5h0.1
		C426.9,62.3,428.4,63.8,428.4,65.7"/>
	<path id="path6726" class="st11" d="M423.5,67.4c0,0,2.7,0,3-1.1c0.3-1.2-0.2-2.6-0.2-2.6s1.3,1.4,1,2.5c-0.4,1.1-0.8,1.4-1.7,1.7
		C424.9,68,424.2,67.8,423.5,67.4L423.5,67.4z"/>
	<path id="path6728" class="st10" d="M420.3,69.5c0,1.8-1.5,3.4-3.4,3.4s-3.4-1.5-3.4-3.4c-0.1-1.9,1.4-3.4,3.3-3.5
		c0.1,0,0.1,0,0.2,0c1.8,0,3.3,1.5,3.4,3.3"/>
	<path id="path6730" class="st11" d="M415.3,71.2c0,0,2.8,0,3-1.1c0.3-1.1-0.2-2.6-0.2-2.6s1.3,1.5,1,2.6c-0.4,1-0.8,1.4-1.7,1.6
		C416.7,71.8,416,71.6,415.3,71.2L415.3,71.2z"/>
	<path id="path6732" class="st10" d="M438,63.4c0,1.9-1.6,3.4-3.4,3.4c-1.9,0-3.4-1.5-3.4-3.4c0-1.8,1.5-3.3,3.3-3.4
		c1.9,0,3.4,1.5,3.4,3.4"/>
	<path id="path6734" class="st11" d="M433,65.2c0,0,2.7,0,3-1.2c0.3-1.1-0.2-2.5-0.2-2.5s1.3,1.4,1,2.5c-0.4,1.1-0.8,1.4-1.7,1.6
		C434.4,65.7,433.7,65.6,433,65.2L433,65.2z"/>
	<path id="path6736" class="st10" d="M448.6,65.6c0,1.8-1.5,3.4-3.3,3.4c-1.9,0-3.4-1.5-3.4-3.4s1.5-3.4,3.4-3.4
		C447.1,62.3,448.5,63.7,448.6,65.6"/>
	<path id="path6738" class="st11" d="M443.7,67.3c0,0,2.7,0,3-1.1c0.3-1.2-0.2-2.6-0.2-2.6s1.3,1.4,1,2.6c-0.4,1-0.8,1.3-1.7,1.6
		C445.1,67.9,444.3,67.7,443.7,67.3L443.7,67.3z"/>
	<path id="path6740" class="st10" d="M456.8,72.3c0,1.8-1.5,3.4-3.4,3.4s-3.4-1.5-3.4-3.4s1.5-3.4,3.4-3.4
		C455.2,68.9,456.7,70.4,456.8,72.3"/>
	<path id="path6742" class="st11" d="M451.9,74c0,0,2.7,0,3-1.1c0.2-1.1-0.2-2.6-0.2-2.6s1.3,1.5,0.9,2.6c-0.4,1-0.7,1.4-1.7,1.6
		C453.3,74.6,452.4,74.4,451.9,74L451.9,74z"/>
	<path id="path6744" class="st10" d="M460.3,83.3c0,1.9-1.5,3.4-3.4,3.4c-1.8-0.1-3.3-1.6-3.3-3.4s1.5-3.3,3.3-3.4
		C458.8,79.9,460.3,81.4,460.3,83.3"/>
	<path id="path6746" class="st11" d="M455.4,85c0,0,2.7,0,3-1.1c0.2-1.1-0.2-2.6-0.2-2.6s1.3,1.5,0.9,2.6c-0.4,1-0.7,1.4-1.7,1.6
		C456.7,85.6,456,85.4,455.4,85L455.4,85z"/>
	<path id="path6748" class="st10" d="M459,94.4c0,2-1.5,3.4-3.4,3.4c-1.8-0.1-3.2-1.5-3.3-3.3c-0.1-1.9,1.4-3.4,3.3-3.5l0,0
		C457.5,91,459,92.5,459,94.4"/>
	<path id="path6750" class="st11" d="M454,96.2c0,0,2.8,0,3-1.2c0.3-1-0.1-2.5-0.1-2.5s1.3,1.4,0.9,2.5s-0.7,1.4-1.7,1.6
		C455.4,96.7,454.7,96.6,454,96.2L454,96.2z"/>
	<path id="path6752" class="st10" d="M454,104.2c0,1.9-1.5,3.4-3.3,3.4c-1.9,0-3.4-1.5-3.4-3.4s1.5-3.4,3.4-3.4
		C452.5,100.9,454,102.4,454,104.2"/>
	<path id="path6754" class="st11" d="M449.1,106c0,0,2.7,0,3-1.2c0.3-1-0.2-2.5-0.2-2.5s1.3,1.4,1,2.5c-0.4,1.1-0.8,1.4-1.7,1.6
		C450.5,106.5,449.8,106.4,449.1,106L449.1,106z"/>
	<path id="path6756" class="st10" d="M412.3,72.4c0,1.9-1.5,3.4-3.3,3.4c-1.9,0-3.4-1.5-3.4-3.4c0-1.8,1.5-3.3,3.3-3.4
		C410.8,69,412.3,70.5,412.3,72.4"/>
	<path id="path6758" class="st11" d="M407.4,74.2c0,0,2.7,0,3-1.2c0.3-1.1-0.2-2.5-0.2-2.5s1.3,1.4,1,2.5c-0.4,1.1-0.8,1.4-1.7,1.6
		C408.8,74.8,407.9,74.6,407.4,74.2L407.4,74.2z"/>
	<g id="g6764">
		<path id="path6760" class="st10" d="M402.1,71.5c0.1,1.5-1.2,2.8-2.7,2.9h-0.1c-1.5,0-2.8-1.3-2.8-2.8v-0.1c0-1.5,1.3-2.8,2.8-2.8
			S402.1,70,402.1,71.5"/>
		<path id="path6762" class="st11" d="M398,73c0,0,2.3,0,2.5-1c0.3-0.9-0.1-2-0.1-2s1,1.1,0.8,2c-0.4,1-0.7,1.2-1.4,1.4
			C399.2,73.5,398.5,73.4,398,73z"/>
	</g>
	<g id="g6770">
		<path id="path6766" class="st10" d="M402.2,75c0.1,1.5-1.1,2.9-2.6,3c-0.1,0-0.1,0-0.2,0c-1.5,0-2.8-1.2-2.8-2.8
			c0-0.1,0-0.1,0-0.2c0-1.5,1.3-2.8,2.8-2.8S402.2,73.5,402.2,75"/>
		<path id="path6768" class="st11" d="M398,76.5c0,0,2.3,0,2.6-1c0.2-0.8-0.2-2-0.2-2s1,1.2,0.8,2c-0.3,1-0.6,1.2-1.4,1.4
			C399.2,77,398.6,76.8,398,76.5L398,76.5z"/>
	</g>
	<g id="g6776">
		<path id="path6772" class="st10" d="M402.4,80.3c0,1.5-1.3,2.8-2.8,2.8c-1.5,0.1-2.8-1.2-2.9-2.7v-0.1c-0.1-1.5,1.2-2.8,2.7-2.9
			c0.1,0,0.1,0,0.2,0C401.1,77.4,402.4,78.7,402.4,80.3C402.4,80.2,402.4,80.3,402.4,80.3"/>
		<path id="path6774" class="st11" d="M398.3,81.8c0,0,2.2,0,2.5-1c0.2-1-0.2-2.1-0.2-2.1s1,1.2,0.8,2c-0.3,1-0.6,1.3-1.4,1.4
			C399.4,82.2,398.8,82.1,398.3,81.8L398.3,81.8z"/>
	</g>
	<g id="g6782">
		<path id="path6778" class="st10" d="M402.7,85.8c0.1,1.7-1.2,3-2.9,3.1h-0.1c-1.7,0.1-3-1.2-3.1-2.9v-0.1
			c-0.1-1.7,1.1-3.1,2.8-3.2c0.1,0,0.1,0,0.2,0c1.7,0,3,1.3,3,3v0.1"/>
		<path id="path6780" class="st11" d="M398.2,87.4c0,0,2.5,0,2.7-1s-0.2-2.3-0.2-2.3s1.2,1.3,0.9,2.3c-0.4,1-0.7,1.2-1.5,1.4
			C399.4,87.9,398.8,87.8,398.2,87.4z"/>
	</g>
	<path id="path6784" class="st10" d="M403,93.3c0,1.8-1.5,3.4-3.4,3.4c-1.8-0.1-3.3-1.6-3.3-3.4c-0.1-1.9,1.4-3.4,3.3-3.5l0,0
		C401.5,89.8,403,91.3,403,93.3"/>
	<path id="path6786" class="st11" d="M398,95c0,0,2.8,0,3-1.1c0.3-1.1-0.1-2.6-0.1-2.6s1.3,1.5,0.9,2.6c-0.4,1-0.7,1.4-1.7,1.6
		C399.4,95.6,398.7,95.4,398,95L398,95z"/>
	<g id="g6792">
		<path id="path6788" class="st10" d="M402.7,108.5c0,1.8-1.4,3.2-3.2,3.2c-1.8,0-3.2-1.4-3.2-3.2l0,0c0-1.7,1.4-3.2,3.2-3.2
			C401.3,105.3,402.7,106.7,402.7,108.5L402.7,108.5"/>
		<path id="path6790" class="st11" d="M398,110.2c0,0,2.6,0,2.8-1.1c0.3-1-0.1-2.4-0.1-2.4s1.2,1.3,0.8,2.4c-0.3,1-0.7,1.3-1.5,1.5
			C399.4,110.7,398.5,110.5,398,110.2L398,110.2z"/>
	</g>
	<path id="path6794" class="st10" d="M393.6,72.3c0,1.9-1.6,3.4-3.4,3.4c-1.9,0-3.4-1.5-3.4-3.4s1.5-3.4,3.4-3.4
		S393.6,70.4,393.6,72.3"/>
	<path id="path6796" class="st11" d="M388.6,74c0,0,2.7,0,3-1c0.3-1.2-0.2-2.6-0.2-2.6s1.3,1.4,1,2.5c-0.4,1.1-0.8,1.4-1.7,1.6
		C390,74.6,389.3,74.5,388.6,74L388.6,74z"/>
	<path id="path6798" class="st10" d="M385.2,69c0,1.9-1.5,3.4-3.4,3.4c-1.8-0.1-3.3-1.6-3.3-3.4s1.5-3.3,3.3-3.4
		C383.7,65.6,385.2,67.1,385.2,69"/>
	<path id="path6800" class="st11" d="M380.3,70.8c0,0,2.7,0,3-1.2c0.2-1-0.2-2.5-0.2-2.5s1.3,1.4,1,2.5c-0.5,1.1-0.8,1.4-1.8,1.6
		C381.7,71.4,380.8,71.2,380.3,70.8z"/>
	<path id="path6802" class="st10" d="M377.2,65.3c0,1.8-1.5,3.4-3.3,3.4c-1.9,0-3.4-1.5-3.4-3.4c-0.1-1.9,1.4-3.4,3.3-3.5l0,0
		C375.7,61.8,377.2,63.3,377.2,65.3"/>
	<path id="path6804" class="st11" d="M372.3,67c0,0,2.7,0,3-1.1s-0.2-2.6-0.2-2.6s1.3,1.5,1,2.6c-0.4,1-0.8,1.4-1.7,1.6
		C373.7,67.6,372.9,67.4,372.3,67L372.3,67z"/>
	<path id="path6806" class="st10" d="M368,63.3c0,1.9-1.4,3.4-3.3,3.4s-3.4-1.5-3.4-3.4c-0.1-1.9,1.4-3.4,3.3-3.5h0.1
		c1.9,0,3.4,1.5,3.4,3.4"/>
	<path id="path6808" class="st11" d="M363.1,65c0,0,2.7,0,3-1.1s-0.2-2.6-0.2-2.6s1.3,1.5,1,2.6c-0.4,1-0.8,1.4-1.7,1.6
		C364.5,65.6,363.8,65.4,363.1,65L363.1,65z"/>
	<path id="path6810" class="st10" d="M357.2,65.8c0,2-1.5,3.4-3.3,3.5c-1.9,0-3.4-1.5-3.4-3.4c-0.1-1.9,1.4-3.4,3.3-3.5h0.1
		C355.7,62.5,357.2,64,357.2,65.8"/>
	<path id="path6812" class="st11" d="M352.3,67.6c0,0,2.7,0,3-1.1c0.3-1.2-0.2-2.6-0.2-2.6s1.3,1.4,1,2.5c-0.4,1.1-0.8,1.4-1.7,1.7
		C353.7,68.2,353,68,352.3,67.6L352.3,67.6z"/>
	<path id="path6814" class="st10" d="M349.6,73.5c0,1.9-1.5,3.4-3.4,3.4c-1.8-0.1-3.3-1.6-3.3-3.4s1.5-3.3,3.3-3.4
		C348.1,70.1,349.6,71.6,349.6,73.5"/>
	<path id="path6816" class="st11" d="M344.7,75.2c0,0,2.7,0,3-1.1c0.2-1.1-0.2-2.6-0.2-2.6s1.3,1.5,0.9,2.6c-0.4,1-0.7,1.4-1.7,1.6
		C346,75.8,345.3,75.6,344.7,75.2L344.7,75.2z"/>
	<path id="path6818" class="st10" d="M346.4,84.2c0,1.9-1.5,3.4-3.3,3.4c-1.9,0-3.4-1.5-3.4-3.4c0-1.8,1.5-3.3,3.3-3.4
		C344.8,80.8,346.3,82.3,346.4,84.2"/>
	<path id="path6820" class="st11" d="M341.5,86c0,0,2.7-0.1,3-1.2s-0.2-2.6-0.2-2.6s1.3,1.5,1,2.6c-0.4,1-0.8,1.4-1.7,1.6
		C342.9,86.5,342.1,86.3,341.5,86L341.5,86z"/>
	<path id="path6822" class="st10" d="M347.8,95.3c0,2-1.5,3.5-3.3,3.5c-1.9,0-3.4-1.5-3.4-3.4c-0.1-1.9,1.4-3.4,3.3-3.5l0,0
		C346.3,91.9,347.8,93.4,347.8,95.3"/>
	<path id="path6824" class="st11" d="M342.9,97.1c0,0,2.7,0,3-1.2c0.3-1-0.2-2.5-0.2-2.5s1.3,1.4,1,2.5c-0.4,1.1-0.8,1.4-1.7,1.7
		C344.3,97.7,343.6,97.5,342.9,97.1L342.9,97.1z"/>
	<path id="path6826" class="st10" d="M353,105.5c0,1.8-1.5,3.4-3.4,3.4c-1.8-0.1-3.3-1.6-3.3-3.4c-0.1-1.9,1.4-3.4,3.3-3.5l0,0
		C351.5,102,353,103.5,353,105.5"/>
	<path id="path6828" class="st11" d="M348,107.2c0,0,2.8,0,3-1.1c0.3-1.1-0.1-2.6-0.1-2.6s1.3,1.4,1,2.5c-0.5,1.1-0.8,1.4-1.7,1.7
		C349.5,107.8,348.7,107.6,348,107.2L348,107.2z"/>
	<g id="g6834">
		<path id="path6830" class="st12" d="M358.9,118.2c0.5,1.8,0,3.5-1.1,3.8s-2.4-0.9-2.9-2.7c-0.5-1.8,0-3.5,1.1-3.8
			S358.4,116.4,358.9,118.2"/>
		<path id="path6832" class="st11" d="M356.3,120.7c0,0,1.6-0.5,1.5-1.6c0-1.1-0.7-2.4-0.7-2.4s1.1,1.1,1.2,2.3c0,1-0.1,1.4-0.6,1.8
			C357.4,121,356.7,121,356.3,120.7z"/>
	</g>
	<g id="g6840">
		<path id="path6836" class="st12" d="M445.8,118.8c-0.4,1.8-1.7,3-2.8,2.8c-1.1-0.3-1.7-2-1.3-3.8c0.4-1.8,1.7-3,2.8-2.8
			C445.7,115.3,446.3,117,445.8,118.8"/>
		<path id="path6838" class="st11" d="M442.3,119.8c0,0,1.7,0.4,2.1-0.7c0.5-1,0.5-2.5,0.5-2.5s0.5,1.6,0,2.6s-0.8,1.3-1.4,1.3
			C443.1,120.6,442.5,120.2,442.3,119.8z"/>
	</g>
</g>
<path id="path6844" class="st13" d="M396.7,53.8l0.3,5.7c0,0-6.8,0.6-7,1.2c-1.4,3,1.5,7,1.5,7s2.3-1.8,8-1.8c5.5,0,8.3,1.4,8.3,1.4
	s1.4-2.3,1.4-4c0-1.7-0.6-3.4-0.6-3.4l-3.6-0.4h-2.5l-0.2-5.8L396.7,53.8L396.7,53.8z"/>
<path id="path6846" class="st14" d="M406.4,62.6c0,0.7-0.6,1.2-1.2,1.2c-0.7,0-1.3-0.5-1.3-1.1c0-0.7,0.6-1.2,1.2-1.2
	C405.8,61.5,406.3,62,406.4,62.6 M409.1,63.3c0,0.6-0.5,1.2-1.2,1.2s-1.3-0.6-1.3-1.2c0-0.7,0.6-1.2,1.3-1.2
	C408.6,62.1,409.1,62.6,409.1,63.3 M403.6,62.6c0,0.6-0.6,1.2-1.2,1.2c-0.7,0-1.2-0.6-1.2-1.2s0.5-1.2,1.1-1.2
	C403,61.4,403.6,62,403.6,62.6 M398,62.6c0,0.7-0.6,1.3-1.3,1.3c-0.7,0-1.2-0.6-1.2-1.2c0-0.7,0.5-1.2,1.2-1.2S398,62,398,62.6
	 M394.9,62.9c0,0.6-0.6,1.2-1.3,1.2c-0.7,0-1.2-0.5-1.2-1.2s0.5-1.2,1.2-1.2S394.9,62.2,394.9,62.9 M400.6,59.4c0,0.6-0.5,1-1,1
	c-0.5,0.1-1.1-0.2-1.2-0.8c0-0.1,0-0.1,0-0.2c0-0.6,0.5-1,1.1-1s1,0.4,1,1 M400.5,54.7c0,0.5-0.4,1-1,1s-1-0.4-1-1s0.4-1,1-1
	S400.5,54.1,400.5,54.7 M400.5,57.2c0,0.6-0.4,1-1,1s-1-0.4-1-1c0-0.5,0.4-1,1-1S400.5,56.6,400.5,57.2 M391.7,63.7
	c0,0.7-0.5,1.2-1.2,1.2c-0.6,0-1.2-0.5-1.2-1.2c0-0.6,0.5-1.1,1.2-1.1S391.7,63.1,391.7,63.7"/>
<path id="path6848" class="st15" d="M400.9,62.4c0,0.7-0.6,1.2-1.4,1.2c-0.7,0-1.2-0.5-1.3-1.2c0-0.7,0.6-1.3,1.3-1.3
	c0.7,0,1.3,0.6,1.3,1.3"/>
<g id="g6854">
	<path id="path6850" class="st10" d="M402,45.5c0,1.3-1.1,2.4-2.4,2.5c-1.4,0-2.5-1.1-2.5-2.5c-0.1-1.4,1-2.5,2.4-2.6h0.1
		c1.4,0,2.5,1.1,2.5,2.5"/>
	<path id="path6852" class="st11" d="M398.4,46.8c0,0,2,0,2.2-1c0.2-0.7-0.1-1.8-0.1-1.8s1,1,0.7,1.9c-0.3,0.8-0.6,1-1.2,1.2
		C399.4,47.2,398.9,47.1,398.4,46.8z"/>
</g>
<path id="path6856" class="st16" d="M360,130.1c0,0,2.2,2.1,2.8,4c0.6,1.8,1.5,6.8,1.5,6.8s23.2-6.5,34.6-6
	c11.4,0.6,37.7,6.3,37.7,6.3l1-5.7c0.5-3,2.7-6.3,2.7-6.3s-25.1-7.8-41-7c-9.2,0.1-18.4,1.3-27.3,3.5C368,127.1,364,128.5,360,130.1
	L360,130.1z"/>
<path id="path6858" class="st17" d="M394.7,36h10c0,0-2.5,1.7-3,3.4c-0.4,1.4-0.3,3.7-0.3,3.7s2.7,0,4-1c1.2-1,2.4-2,3.7-2.9v12.7
	c0,0-2.5-2.3-4-3.1c-1.1-0.6-2.3-1-3.5-1.3c0,0,0,2,0.8,3.3s4.3,5.8,4.3,5.8l-14.3,0.5c0,0,3.4-3.5,4.8-6.1c0.9-1.7,0.5-3.5,0.5-3.5
	s-2.4,0-3.6,0.9c-1.3,0.8-3.4,3.3-3.4,3.3V39.5c0,0,1,2.4,3,3.3c2,0.9,3.8,0.4,3.8,0.4s0.4-2.4-0.4-4c-0.8-1.5-2.6-3.2-2.4-3.1V36z"
	/>
<path id="path6860" class="st18" d="M393.9,76.5c0,0-7.1-0.1-13.2-3.7s-12.3-7.4-21.3-5.3c-1.8,0.5-8.6,3.5-11.6,13.2
	c-1.6,6.3-0.7,13,2.4,18.7c1.6,2.6,3.5,5.1,5.6,7.4l3.7-2.5c0,0-9.3-8-8.2-18.2c1-10.3,6.2-12.7,6.2-12.7s6.4-5,14.9-0.3
	c7.9,4.3,16.4,7.2,25.3,8.7C398.3,81.7,393.7,76.4,393.9,76.5L393.9,76.5z"/>
<path id="path6862" class="st17" d="M354.5,115l-3.8-7.4l11.4-4.4c0,0-2.8,3.6-3.4,6.2c-0.8,3.2-0.5,5.9-0.5,5.9s1-0.8,2.3-2.9
	c1-1.5,2.6-7.3,2.6-7.3l5.1,16.3c0,0-2.6-2.6-4.5-2.9c-2-0.4-4.6,0.3-4.6,0.3l-3,1C356.1,119.8,354.5,115,354.5,115z"/>
<path id="path6864" class="st18" d="M406.7,76.3c0,0,7.1,0,13.2-3.7c6.1-3.6,12.2-7.3,21.3-5.2c1.8,0.4,8.6,3.4,11.6,13.1
	c1.5,6.3,0.6,13-2.5,18.7c-1.1,2-2.3,4-3.6,5.9l-4.4-1.6c0,0,8.1-7.3,7-17.6s-6.2-12.7-6.2-12.7s-6.4-5-14.9-0.2
	c-8.5,4.7-16.8,6.8-16.8,6.8s-7.8,2-8.5,1.8C402.2,81.6,406.9,76.2,406.7,76.3L406.7,76.3z"/>
<path id="path6866" class="st19" d="M403,69.3h3V97h-3V69.3z M393,69.1h3.5v27.7H393V69.1z"/>
<path id="path6868" class="st19" d="M409.2,62.7c0,5-4.3,9-9.7,9c-5.3,0-9.7-4-9.7-9c0-4.9,4.3-8.9,9.6-8.9
	C404.8,53.8,409.2,57.8,409.2,62.7"/>
<path id="path6870" class="st20" d="M390.9,96.8l16.7-0.2c0,0-2,1.2-3.7,4.2c-1.6,3-1.4,4.8-1.4,4.8s2.5,0,4.3-1.3
	c1.4-1.1,2.7-2.3,3.8-3.7v15.3c0,0-1.3-2-3.3-3c-2-1.3-4.8-1.3-4.8-1.3h-5.7c0,0-2.6,0.2-3.7,1c-1.3,1-2.6,2-3.7,3.2l-0.3-14.6
	c0,0,0.8,2.6,3.5,3.6s4.2,1,4.2,1s0-3.4-1.4-5C394,99.3,392.5,98,390.9,96.8z"/>
<path id="path6872" class="st21" d="M400.2,108.8c0,0,2.4,5.7,5.3,8.2c1.6,1.5,6.6,2.6,8.8,2c5-1.3,8.6-5.3,8.6-5.3s-0.2,4.4,3,6.9
	c3.1,2.4,5.6,3,8.2,2.3c2.7-0.7,10-6.2,10-6.2l1.6,1.3c0,0-4.3,4.2-8.7,6.3c-2.3,1.2-9.3,0.5-11.5-1.3c-2.3-1.8-3.6-6.1-3.6-6.1
	s-1.4,2.8-4.4,3.8s-7,1-10.9-0.2c-2.5-0.8-5.9-4.3-6.5-5.5c-0.6-1.1-0.4-1.8-0.4-1.8s-2,5.4-5.8,6.9c-3.7,1.3-7.7,1.5-11.5,0.4
	c-3.6-1-3.9-3.1-3.9-3.1s-0.2,5.7-8,7.3c-8,1.6-14.2-4.1-14.2-4.1l1.1-1.7c0,0,4.4,5,11.2,4.6c6.8-0.5,9-9.2,9-9.2s3,4.5,11,4.6
	c7.9,0.1,10.2-10.3,10.2-10.3L400.2,108.8L400.2,108.8z"/>
<g id="g6882">
	<path id="path6874" class="st22" d="M380.6,112.1c0,0,0-2.7,0.7-3.6c0.8-1.1,2-1.2,2.6-1c0.7,0.2,1.4,0.8,1.3,2.8
		c-0.1,1.9-0.7,2.8,0,3.6c0.5,0.7,0.6,1.2,1.7,1c1-0.2,1.6-0.5,1.3-1.5s-0.5,0-0.7-0.8c-0.2-0.9,1-4.6,0.8-6.9c-0.2-2.2-1-4-2.8-4.5
		c-1.6-0.4-3-0.4-4.5,0.7c-1.4,1-3.3,4.5-3.3,4.5v7.5l3-0.2v-1.6H380.6z"/>
	<path id="path6876" class="st22" d="M375,114.1c0,0-1.2-2.5-2-3c-0.8-0.6-2-0.6-2.8,0c-0.6,0.5-1,1.4-0.1,3.1
		c0.8,1.7,1.7,2.4,1.4,3.3c-0.2,0.9,0,1.4-1.1,1.7c-1.1,0.3-1.7,0.1-1.9-1c-0.2-1,0.6,0,0.4-1c-0.1-0.8-2.8-3.7-3.5-5.9
		c-0.7-2.1-0.6-4.1,0.8-5.2c1.3-1,2.5-1.6,4.3-1.2s4.9,2.9,4.9,2.9l3,6.8l-2.8,1L375,114.1L375,114.1z"/>
	<path id="path6878" class="st22" d="M374.4,92.1c0,0-3,5-2.3,8.8s4.6,12,4.6,12v1l2.2-0.2l-0.5-1.1c0,0,1-9.8,0.4-12.9
		C377.7,97,376.2,94.4,374.4,92.1L374.4,92.1z M379.1,114.8c0,0,1.5,1.7,3.2,2.6c2,0.9,2.8,1,3.5,0.3c0.6-0.4,0.4-2.2-0.3-2.7
		c-0.6-0.5-1.4-0.2-1.5,0.3c-0.2,0.8-0.4,0.8-1,0.4c-1-0.4-3-1.7-3-1.7L379.1,114.8L379.1,114.8z M376.8,115.2c0,0-0.6,2.2-1.8,3.7
		c-1.4,1.6-2.1,2-3,1.7c-0.7-0.1-1.3-1.8-0.9-2.6c0.4-0.7,1.2-0.8,1.5-0.4c0.5,0.7,0.7,0.6,1.1,0l2-2.7l1.1,0.2L376.8,115.2z"/>
	<path id="path6880" class="st23" d="M382.4,113.4c0.2,0.6-1.8,1.5-4.3,1.9s-4.6,0.3-4.8-0.4c0-0.6,1.9-1.5,4.4-2
		C380.2,112.5,382.3,112.7,382.4,113.4"/>
</g>
<g id="g6892">
	<path id="path6884" class="st22" d="M425.6,113.2c0,0,1-2.5,2-3.1c1.1-0.8,2.2-0.5,2.7,0c0.6,0.3,1,1.2,0.3,3
		c-0.8,1.7-1.6,2.4-1.4,3.3c0.3,1,0.2,1.4,1.3,1.6c1.1,0.3,1.7,0.1,1.8-1c0.1-1-0.5,0-0.4-1c0-0.8,2.6-3.9,3.2-6
		c0.6-2.3,0.4-4.2-1-5.3c-1.4-1-2.7-1.4-4.5-0.9c-1.7,0.5-4.7,3.1-4.7,3.1l-2.6,7l2.9,0.9L425.6,113.2L425.6,113.2z"/>
	<path id="path6886" class="st22" d="M419.7,113.1c0,0-0.2-2.7-0.9-3.5c-0.9-1.1-2-1.1-2.6-1c-0.7,0.3-1.4,1-1.2,2.9
		c0.2,2,0.8,2.8,0.3,3.6c-0.6,0.8-0.6,1.2-1.7,1.1c-1.1,0-1.7-0.4-1.5-1.4s0.6,0,0.8-0.9c0.1-0.8-1.3-4.5-1.2-6.8
		c0-2.2,0.8-4,2.5-4.6c1.6-0.5,3-0.6,4.5,0.5c1.5,1,3.6,4.3,3.6,4.3l0.4,7.4h-3L419.7,113.1L419.7,113.1z"/>
	<path id="path6888" class="st22" d="M426.8,92.3c0,0-4.5,3.6-5.2,7.4s0.1,12.8,0.1,12.8l-0.3,1l2,0.6v-1.2c0,0,4.4-8.8,4.9-12
		C428.2,98,427.7,95.1,426.8,92.3z M423.3,115.2c0,0,0.8,2.1,2.1,3.5c1.5,1.6,2.2,1.9,3.1,1.6c0.7-0.2,1.1-2,0.7-2.6
		c-0.4-0.7-1.2-0.7-1.5-0.3c-0.5,0.7-0.7,0.5-1.1,0c-0.8-0.9-1.5-1.7-2.2-2.6L423.3,115.2z M421,114.7c0,0-1.3,1.9-3,2.8
		c-1.9,1.1-2.7,1.2-3.5,0.6c-0.6-0.3-0.5-2.1,0.1-2.7c0.7-0.5,1.4-0.3,1.6,0.2c0.2,0.8,0.5,0.7,1,0.4l2.8-2L421,114.7z"/>
	<path id="path6890" class="st23" d="M426.9,115c-0.1,0.7-2.3,0.8-4.8,0.3s-4.4-1.4-4.3-2c0.1-0.7,2.3-0.8,4.8-0.3
		S427,114.4,426.9,115"/>
</g>
<path id="path6894" class="st24" d="M359,129.9c0,0,0.6,2,1.7,1c1.2-1.1,17.3-7.5,40-7.5s37.5,6.3,38.4,6.7c0.9,0.3,1.3,0.8,2,0
	c0.8-1-0.7-2.3-0.7-2.3s-15.8-6.7-40.4-6.6c-24.7,0.1-40.6,7.1-40.6,7.1s-1,0.8-0.3,1.6H359z"/>
<path id="path6896" class="st25" d="M387.9,139.3c0,0,0.7-2,2-2.4c1-0.3,2.5,0.7,2.5,0.7s-1.9-0.2-2.5,0.2c-0.5,0.3-0.7,1.2-0.7,1.2
	s0.4-0.8,1.9-0.7h1.6c0,0-2.5,0.3-3,1c-0.6,0.7,2.3,1,2.3,1s-4.5,0-5-0.2c-0.6-0.3-1-1.2-2-1c-1,0.4-2,1.3-2,1.3s1.1-2,1.8-2
	s1.2,0,1.8,0.3L387.9,139.3L387.9,139.3z M371.1,142.9c0,0,0.3-2,1.5-2.7c1-0.5,2.7,0.2,2.7,0.2s-2,0.2-2.5,0.6
	c-0.4,0.4-0.4,1.4-0.4,1.4s0.3-0.8,1.7-1c0.5-0.1,1.1-0.2,1.6-0.3c0,0-2.4,0.7-2.8,1.5c-0.5,0.8,2.5,0.6,2.5,0.6s-4.4,0.8-5,0.7
	c-0.7-0.2-1.2-1-2.1-0.5c-1,0.4-1.8,1.5-1.8,1.5s0.8-2.1,1.5-2.3c0.7-0.1,1-0.2,1.8,0L371.1,142.9L371.1,142.9z M402,138.6
	c0,0,0.8-2,2-2.3c1.1-0.3,2.7,0.8,2.7,0.8s-2-0.3-2.6,0c-0.5,0.3-0.7,1.2-0.7,1.2s0.4-0.7,1.9-0.5l1.6,0.1c0,0-2.5,0-3.1,0.8
	c-0.6,0.6,2.3,1.1,2.3,1.1s-4.5-0.2-5-0.5c-0.6-0.3-1-1.2-2-1s-2,1-2,1s1.2-1.8,1.9-1.8s1.1,0,1.8,0.4L402,138.6L402,138.6z
	 M416.1,140.2c0,0,1-1.9,2.4-2c1-0.2,2.4,1,2.4,1s-1.8-0.4-2.5-0.2c-0.6,0.2-0.9,1-0.9,1s0.5-0.6,2-0.3l1.6,0.4c0,0-2.5-0.2-3.2,0.4
	c-0.7,0.6,2.1,1.4,2.1,1.4s-4.4-0.8-5-1.1c-0.4-0.4-0.7-1.4-1.7-1.3c-1,0.1-2.2,0.8-2.2,0.8s1.5-1.6,2.2-1.5c0.7,0,1.1,0.1,1.7,0.5
	L416.1,140.2L416.1,140.2z M430.1,142.7c0,0,1-1.4,2.1-1.5c0.9,0,1.9,1.1,1.9,1.1s-1.5-0.5-2-0.4s-0.8,0.8-0.8,0.8s0.5-0.5,1.6-0.1
	l1.3,0.4c0,0-2-0.4-2.6,0c-0.6,0.5,1.6,1.4,1.6,1.4s-3.5-1-4-1.3c-0.3-0.3-0.4-1.1-1.2-1.1c-0.9,0-1.9,0.5-1.9,0.5s1.3-1.3,1.9-1.1
	c0.5,0,0.9,0.2,1.3,0.5L430.1,142.7L430.1,142.7z"/>
<path id="path6898" class="st26" d="M385,129.7c0.4,1.7-1.6,3.5-4.4,4c-2.8,0.6-5.3-0.3-5.6-2c-0.3-1.6,1.6-3.4,4.4-4
	C382.2,127.1,384.7,128,385,129.7z"/>
<path id="path6900" class="st27" d="M378.8,129.4c0,0.4-0.4,0.9-1,1s-1.2-0.1-1.3-0.5c0-0.4,0.4-0.8,1-1
	C378.1,128.9,378.7,129,378.8,129.4z"/>
<path id="path6902" class="st26" d="M424.1,131.8c-0.5,1.6-3,2.2-5.8,1.4c-2.7-0.9-4.4-2.9-4-4.5c0.6-1.6,3.2-2.3,5.9-1.4
	c2.7,0.8,4.5,2.8,4,4.4L424.1,131.8z"/>
<path id="path6904" class="st27" d="M418.8,128.5c-0.2,0.4-0.7,0.6-1.3,0.4c-0.6-0.2-1-0.7-0.9-1c0.1-0.5,0.7-0.6,1.3-0.5
	c0.6,0.2,1,0.7,0.9,1V128.5z"/>
<path id="path6906" class="st28" d="M394.6,126h10.1v5h-10.1V126z"/>
<path id="path6908" class="st29" d="M398.9,127c0,0.3-0.4,0.5-1,0.5s-1-0.2-1-0.5c0-0.2,0.5-0.4,1-0.4S398.9,126.8,398.9,127z"/>
<path id="path6910" class="st30" d="M366,131l1.6,5l-3,1.7c0,0-1.5,1-3,0.2c-1.4-0.7-2.2-3-1.4-4C361.7,132.1,365.9,130.9,366,131
	L366,131z"/>
<path id="path6912" class="st31" d="M363.4,134.6c0,0.8-0.7,1.5-1.5,1.5s-1.4-0.7-1.4-1.5c0-0.9,0.6-1.5,1.4-1.5
	S363.4,133.7,363.4,134.6z"/>
<path id="path6914" class="st32" d="M362,134c0,0.3,0,0.5-0.2,0.7c-0.1,0.1-0.4,0.1-0.5,0c-0.2-0.1-0.3-0.3-0.4-0.5
	c0-0.3,0-0.5,0.2-0.7c0.1-0.1,0.3-0.2,0.5-0.1C361.8,133.4,362,133.7,362,134z"/>
<path id="path6916" class="st30" d="M433.9,131.7l-1.7,4.4l4,2c0,0,1.7,0.8,2.8-0.1c1-0.8,1.2-2.8,0.4-3.7
	C438.7,133.3,433.8,131.7,433.9,131.7L433.9,131.7z"/>
<path id="path6918" class="st33" d="M438.6,135.2c0,0.6-0.6,1-1.3,1s-1.2-0.4-1.2-1s0.6-1,1.2-1C438,134.2,438.6,134.7,438.6,135.2z
	"/>
<path id="path6920" class="st32" d="M437.4,135c0,0.3-0.1,0.6-0.3,0.7c-0.2,0.1-0.4,0.1-0.6,0s-0.3-0.4-0.3-0.6
	c0-0.3,0.1-0.5,0.3-0.6c0.2-0.1,0.4-0.1,0.6,0C437.3,134.5,437.4,134.8,437.4,135L437.4,135z"/>
<path id="path6922" class="st34" d="M408.6,126.4c0,0.4-0.3,0.7-0.7,0.7h-0.1c-0.4,0-0.7-0.3-0.7-0.7l0,0c0-0.4,0.3-0.7,0.7-0.7l0,0
	C408.2,125.7,408.6,126,408.6,126.4z M412.9,126.6c0,0.4-0.3,0.7-0.7,0.7l0,0c-0.4,0.1-0.7-0.2-0.8-0.6v-0.1
	c0.1-0.4,0.4-0.7,0.8-0.6l0,0C412.5,126,412.9,126.2,412.9,126.6z M410.7,128.3c0,0.5-0.4,0.9-1,0.9s-0.8-0.4-0.8-0.9
	c0-0.5,0.4-0.9,0.9-0.9S410.7,127.8,410.7,128.3L410.7,128.3z M412.7,131.1c0,0.4-0.3,0.6-0.6,0.7c-0.4,0.1-0.7-0.2-0.8-0.6v-0.1
	c0-0.4,0.3-0.7,0.7-0.7l0,0c0.5,0,0.8,0.3,0.8,0.7L412.7,131.1L412.7,131.1z M408.6,130.6c0,0.4-0.3,0.7-0.7,0.7l0,0
	c-0.4,0-0.7-0.3-0.7-0.7l0,0c0-0.4,0.3-0.7,0.7-0.7l0,0C408.3,129.9,408.6,130.2,408.6,130.6z M387.7,127.1c0.1,0.4-0.2,0.7-0.5,0.8
	c-0.4,0.1-0.8-0.1-0.9-0.4c0,0,0,0,0-0.1c-0.1-0.4,0.2-0.7,0.6-0.8l0,0C387.3,126.5,387.6,126.8,387.7,127.1z M392,126.4
	c0.1,0.4-0.2,0.7-0.6,0.8l0,0c-0.4,0.1-0.7-0.2-0.8-0.5c-0.1-0.4,0.2-0.7,0.5-0.8C391.5,125.8,391.9,126,392,126.4L392,126.4z
	 M390.2,128.5c0.1,0.5-0.2,1-0.6,1c-0.5,0.1-1-0.1-1.1-0.6c-0.1-0.4,0.2-1,0.7-1C389.6,127.8,390.1,128.1,390.2,128.5z M392.9,130.8
	c0.1,0.4-0.2,0.7-0.5,0.8c-0.4,0.1-0.8-0.1-0.9-0.4c0,0,0,0,0-0.1c-0.1-0.4,0.2-0.7,0.5-0.8C392.4,130.2,392.8,130.4,392.9,130.8
	L392.9,130.8z M388.7,131.2c0.1,0.4-0.2,0.7-0.5,0.8c-0.4,0.1-0.8-0.1-0.9-0.4c0,0,0,0,0-0.1c-0.1-0.4,0.2-0.7,0.6-0.8l0,0
	C388.3,130.6,388.6,130.9,388.7,131.2z M369.5,131c0.2,0.3,0.1,0.8-0.3,0.9c0,0-0.1,0-0.1,0.1c-0.4,0.1-0.8,0-0.9-0.4
	c-0.2-0.3-0.1-0.8,0.3-0.9c0,0,0.1,0,0.1-0.1C368.9,130.4,369.4,130.5,369.5,131c0-0.1,0,0,0.1,0L369.5,131L369.5,131z M373.6,129.7
	c0.2,0.3,0.1,0.8-0.3,0.9c0,0-0.1,0-0.1,0.1c-0.4,0.1-0.8-0.1-0.9-0.4c0,0,0,0,0-0.1c-0.1-0.4,0-0.8,0.4-0.9
	C373,129.1,373.5,129.2,373.6,129.7c0-0.1,0,0,0.1,0L373.6,129.7L373.6,129.7z M372.2,132.1c0.1,0.4-0.1,0.8-0.5,1s-0.9,0-1.1-0.4
	c-0.1-0.4,0.1-0.9,0.5-1.1C371.5,131.5,372,131.7,372.2,132.1z M375.2,133.9c0.2,0.3,0.1,0.8-0.3,0.9c0,0-0.1,0-0.1,0.1
	c-0.4,0-0.8-0.1-1-0.5s0.1-0.7,0.5-0.9C374.7,133.4,375.1,133.5,375.2,133.9z M371.1,134.9c0.2,0.3,0.1,0.8-0.3,0.9
	c0,0-0.1,0-0.1,0.1c-0.3,0.2-0.8,0.1-0.9-0.3c0,0,0-0.1-0.1-0.1c-0.2-0.3,0-0.8,0.3-0.9c0.1,0,0.1,0,0.2-0.1
	c0.3-0.2,0.8-0.1,0.9,0.3c0,0,0,0.1,0.1,0.1H371.1z M427.3,129.1c-0.1,0.4-0.5,0.6-1,0.5c-0.4-0.1-0.6-0.6-0.5-1
	c0-0.3,0.5-0.5,1-0.4C427.1,128.2,427.4,128.7,427.3,129.1z M431.7,130.4c0,0.4-0.5,0.7-0.9,0.6c-0.4-0.1-0.7-0.5-0.6-1l0,0
	c0.1-0.3,0.5-0.6,1-0.5c0.4,0.1,0.6,0.5,0.5,1V130.4z M429,131.6c-0.1,0.5-0.6,0.8-1.1,0.7s-0.9-0.6-0.8-1.1s0.7-0.8,1.2-0.7
	C428.8,130.6,429.1,131.1,429,131.6L429,131.6z M430.5,135.1c-0.1,0.4-0.5,0.6-1,0.5c-0.4-0.1-0.6-0.5-0.5-0.9
	c0-0.4,0.5-0.6,0.9-0.5s0.7,0.5,0.6,1V135.1z M426.2,133.5c0,0.4-0.5,0.6-0.9,0.5s-0.6-0.5-0.5-0.9c0-0.4,0.5-0.6,0.9-0.5
	C426.1,132.6,426.3,133.1,426.2,133.5z"/>
<path id="path6924" class="st35" d="M436,89c0,0-2,1.9-4.5,1.9c-1.7,0-3.3-0.5-4.6-1.6c-0.8-0.5,0.2-2,0.2-2"/>
<path id="path6926" class="st6" d="M392.9,92.8c0,0-3.7-0.7-5.3-1.2c-1.5-0.5-1.1-1.5-3-1.4c-1.7,0.1-3.5,1.4-3.1,3.2
	c0.4,1.8,1.7,2,3,1.7c1.2-0.4,0.8-2.6-0.8-2.4c-1.7,0-0.3,1.5-0.3,1.5"/>
<path id="path6928" class="st36" d="M367.3,90c0,0,1,1.5,3.7,1.2c2.7-0.2,3.7-1.6,3.8-2.3c0.2-0.6,0-1.8-0.5-2.3s-2.3-0.7-2.3-0.7"
	/>
<g id="g6934">
	<path id="path6930" class="st37" d="M419.2,270.4c2.5-2.5,6.5-5.2,8.7-11c2-5.6,3-15.7,5-20.8c2.5-8.8,7.5-17.4,1.5-16.8
		c-5.7,0.6-7.5,6-9.6,10c-1,1.5-3.3,4.7-3.7,6.5c-0.1-3-1.7-11.9-2-20.8c-0.3-8.4,0-17-0.3-20.3c-0.2-4.3-0.2-8.3-1.2-11.4
		c-0.5-1.5-2.6-3-3.8-2.9c-2.2,0-3.6,2-4,3.9l-0.2,2.8c-0.2,2.4,0,5.5-0.2,8.3c-0.1,3,0.2,6.2,0,9c-0.2,5.4-0.6,10.5-0.8,11.5
		c0-2-1-11.7-1.3-20.9l-0.2-10c0-2.6,0-5.4-0.2-7.4c-0.5-3.4-1.6-5-4-5c-1.8,0-4.2,1.3-5,5c-0.3,2.1-0.4,4.6-0.3,7.4l0.2,8
		c-0.2,10.5-0.4,21.5-0.8,24.8c0-1-1.1-6.5-1.4-13.9l-0.4-9.6l-0.3-9.6c0-1.6-0.7-6.2-3.7-6c-1.7-0.2-3.4,1-4,5.3
		c-0.4,2.5-0.4,6.6-0.5,9.9c-0.1,6-0.4,11.4,0,16.9l0.1,7.7c0,0.4-0.9-2.9-1.3-7.4l-0.8-8.6c0-2.3-0.1-5.7-0.3-8.5
		c-0.2-2.1-0.1-4.5-2.5-4.3c-2.4,0.1-3.8,1-4.3,5c-0.4,2.7-0.4,8.5-0.5,10.5c0.2,5.3-1.2,17.7-1.8,21.2c-0.2,2.5-1.2,5.7-1.6,9.2
		c-0.7,6.9-0.3,13.8,1,20.6c2,7,7,10.2,6.8,15c-0.3,4.8,0,13.3,0,17c0,3.8,3.3,4,10,2.6c11.2-2.4,17.3,2.4,26.4-1.2
		c-1.1-10.4,1.1-16.7,1-20.5L419.2,270.4z M412.7,245.7c2.3-6.4,5.2-8.9,8-10.2"/>
	<path id="path6932" class="st38" d="M387.4,239.2c3.5-1.4,7-2.4,10.6-3.6c4.3-1.2,8.5-3,13-3.6c2-0.5,4.2-1,6.4-1 M381.3,273
		c0.4-0.3,1,0.2,1.4,0.3c0.6,0.2,1.3,0.4,2,0.3c1.3,0,2.7,0,4,0c1.7,0,3-0.2,4.3-1 M403,273.2l1.6,0.9c0.8,0.3,1.8,0.4,7.3,0
		c3.5,0.2,6.5-2.8,7.4-3.6"/>
</g>
</svg>
