<?xml version="1.0" encoding="utf-8"?>
<!-- Generator: Adobe Illustrator 24.0.1, SVG Export Plug-In . SVG Version: 6.00 Build 0)  -->
<svg version="1.1" id="flag-icons-gb-wls" xmlns="http://www.w3.org/2000/svg" xmlns:xlink="http://www.w3.org/1999/xlink" x="0px"
	 y="0px" viewBox="0 0 800 480" style="enable-background:new 0 0 800 480;" xml:space="preserve">
<style type="text/css">
	.st0{fill:#00AB39;}
	.st1{fill:#FFFFFF;}
	.st2{fill:#D21034;stroke:#000000;stroke-width:1.4;}
	.st3{fill:none;stroke:#000000;stroke-width:1.4;stroke-linejoin:round;}
	.st4{stroke:#000000;stroke-width:1.4;stroke-linejoin:round;}
</style>
<path class="st0" d="M0,240h800v240H0V240z"/>
<path class="st1" d="M0,0h800v240H0V0z"/>
<g>
	<path class="st2" d="M499,70.8h-0.1H499z M498.9,70.8c-39.6,21.3-77.1,46.4-111.8,75c-17,14.9-12.2,26.7-12.9,40
		c0.6,9-1.9,17.4-7.4,22.4l-37.8,7.6l-3.6-10.4c1.1-5.4,5.5-8,14.9-4.7c0.7-6.8-4.9-9.6-11.3-12c-2.3-1.8-5-3-4.7-9
		c-1-13.5,20.6,1,20.8,1c0.2,0-0.8-13.7-10.7-16.4c-5.4-1.9-7.7-7.6-5.6-11.8c4.3-8.7,12.5,0.6,18.7,1c-0.2-5.7-1.8-9.7-6.7-14.2
		c-2.6-1.7-9-2.9-9.2-5.6c-0.1-3.6,6-5.2,14.5-4.2c-1.8-5.1-7.5-8.4-15.3-10.8l-4.6-8.1c-2.2-4-3.2-4.2,1.9-11.8
		c4.5-3,10.6-7.2,15.2-10.1l-5-0.6c0.6-5.5,0.7-7.4,2-16.5c-5,6.7-11,5.5-16.6,8.2c0,0-15.6,2.8-20.7,9.5l-39.4-2
		c-8.4,1.1-15.5,3.5-16.9,11.6c-19.1,2-39.1,0.3-53.7,18.5c10-0.4,18.6-2.8,29.8-1.4c0,0,9.5,0.2,11.4,10.3c0.2,0.4,3.3,0.4,3.3,0.4
		l3.6,2.8l1.4-3.8l3.2,2.2l1-4.2l3.2,2.2l0.2-5l4.2,3v-6.7c0,0,15.6,0,20.4,10c0.2,0.1-43.7,8-86.1,4.3l12.2-6
		c-15.4-3.2-30-6-43.6-16.7c5.1,19.4,31.7,42.1,37.2,42l-5.2-9.4l46,2c1.7,5.1,1,10.8,5,15.3c0,0-2.5,8.4,3.2,11.8
		c0.2,0.4,6.7-17,6.7-17s2,4.7,4,7.8c3-15,19.4-17.5,19.4-17.5l3.4,8c-5.1,0.8-11.5,11.2-8,17c-3.5,0-9.6,10.1-7.7,15.6
		c-2.9,2.9-10,6.7-8.3,18.8c-5.6,1.2-9,11.5-7.2,22.5c-8.8,8.1-6.6,23,1.2,29.1c-3.2,3-5.2,5.1-5.2,8.7c-3.1-1.1-6-0.2-7.3,1.8
		c-3.8-3.9-9.2-7.2-13-3.6c-1-4.6-7-9.6-13.5-9c0.6-5.9-3.2-11.4-9-13c0,0-1.5-22.6-8.3-30c-0.7-4,0.4-6.8,6-10.2
		c5.7-3,6.9-5.3,6.4-13.9c2.3-5.7,4-11.5-3-15.4c0.2,6.8-1.8,10-4.6,13c-3.3-0.4-4.4,3.4-6.6,5c-3.1-4.1,6.5-10.6-0.6-19.9
		c-0.4-0.4-5-12-16.3-11.8c5.3,3.1,7.6,8.4,7.6,13.9c-4.2,9.2-4.8,19.6-1.8,29.3c-4.7-7-7.4-20.4-11.3-22.7c-3.4-0.7-5-8.7-18.3-6.4
		c5.7,1.5,7.6,5.9,9,9.8c-3.4,1.8-1.7,6.6,0.9,9.9c-0.5,7.7,4.1,12.2,11,15l-3.4,31.7c-2.7-0.3-7,10.4-8.6,10.7
		c-2.7,1.7-7.4,6.2-2,7.5c-1.6,5.7-3.1,9.2-11.7,10.4c0,0,9,5.4,16.6-3.8c8-0.2,5.4-9.8,9.3-14c0-0.3,2.3-1.7,5.5-10.2
		c1.4,7.6,9.2,30.8,26.7,42.3c15.3,16.4,28,31.9,27.8,53.7c5.9-6.5,10.1-14.3,12.3-22.7c10-3,20.4-4.2,30.8-3.6
		c-1.8,3.9-3.9,7.6-1.3,10c-7.4,2.6-9,8-6,13.3c-7.8,5.3-8.3,8.7-8.4,17.5c-14.5,18.5-23.4,17.9-37.7,13c-4.6-2.7-12-6.6-15.3-4.5
		c-6.1-4.2-15-4.8-16.5,4.6c4.7-3.9,7.4-3.1,11.1,0.6c-0.7,1.9-1.3,3.7,1.4,4.8l-3.6,4c-6.6-1-15.6-1-17.9,8.7
		c3.4-2.9,11-3.5,17-0.8l3.5,1.2l0.4,4.6c0,0-9-1.4-11.4,13.3c8.4-9,14.4-6.7,14.4-6.7c3.3,4.8,15.3,4.1,24-3.8
		c12.1-6.8,15.7,3,23.5-3.4c6.5-4.8,14.2-1.6,19.5,4c6.1,2.3,12.5,4.2,17.5,0c0,0,6.2-3.9,12.3,2.4c0-7-5-10.9-11.8-11l-2-2
		c-6.5-1.4-13.7-0.8-19.4-4c2.2-10.1,7.1-19.4,14.1-27c9.3-10,16.2-14.6,28-29.9c-0.5,8.7,6.1,18.3,9.6,27c0,0,7-11.1,8-20.3
		c0.3,0,8.9-4.4,12.5-8.3c7.8,4.9,20.4-3.8,28.6-11c5,2,8.9,1.8,14.7,0c-4.7,9.6,2.7,18.5,14.5,22.2c1,8.4,9.6,10.2,22.5,10.2
		c0.6,5,8.3,5.7,8.3,5.7c-5,2.2-7.4,4.5-7.3,9.6c-5,0-8.7,1.3-10,7c-6.9,0.2-13.9,0.7-19.8,4c-6.3-0.9-14-3.5-18.9-8.6
		c-2.5-2.1-3.2-5.2-7.6-6.4c-2.8-3.3-6.2-2.6-7.3,0.6c-2.9-2.3-13.8-3.3-15.7,7c5.2-3.7,9.7-5.1,13-0.5c-1.8,3.1,4.2,5,9.4,6.2
		c3.7,0.2,10.2,3.6,12.2,9.2c-5.7,1.6-11.8,0.7-16.7-2.6c-3.7-3.1-9-3.4-13-0.8c-4.4-2.8-14.7,2.5-15.1,10.9c4.3-4,8.3-6,12.3-3.4
		c-2,0.4-1.3,0.6-1,1.8l10,5.8c-5,1.3-9.6,3.3-7.4,12.5c0,0,4-8,13-5c0.2-0.3,1.3,2.8,3.9,0.7c3.9-4.4,12.8-6.4,20.7-7.2
		c6.3-0.7,12.6-2.6,18,1c5-2.5,10.4-4.2,16-0.2c6.6,2,11.4,9.8,19.7,6.3c4.2-3,9.3-3,14.5,2.8c0-7.4-5.5-9.9-13.3-11.5l-5.4-3.2
		c-5-0.8-10,0.1-15.1-2.3c24.2-5.8,45-21.1,57.7-42.4l12.5,4.4c3,0.2,3.2,1.2,9.3,3c0.2-8.9-3.7-18.1-19.8-19l-21-8
		c-4.6-4.8-6.6-14.9-0.9-20.8c5.6-5,6.6-4.4,10.3-10.5c4.5-0.4,8.7,4.2,12.8,4.2c2,5.9,13.4,11,20.6,9.3c4.5,4,13,6.2,22.5,3
		c5.5,5.2,13.7,6.4,20.5,3c2.2,2.2,6.8,4,12,2.8c0.5,0,2.8,5.8,8.5,7.9c-2.5,2.4-1,13,1.7,16.9c-1.9,4-2.3,8.5-0.9,12.7
		c-5.8,3.7-7,6.5-4.4,12.8c-7.6,12.3-16.7,13.7-25.3,10l-9.3-6l-9.8-9.6c-1.7-1.6-5.2-2-5.9,1.4c0,0-12.6-2.8-13.7,7.9
		c5.3-5.1,12.7-0.6,12.7-0.4s-1.8,1.4-0.4,3.4c0.3-0.3,9.3,3.3,17.2,6.7c4.3,1.7,5.3,2.2,7.2,3.2c-2.4-1.1-4.8-2.2-7.2-3.2
		c-3.5-1.6-7.2-2.6-11-2.9c-4.4-0.4-9.2-1-11.4,2.4c-4.8,2-12.4,3.7-12,12.7c3.2-5.4,7.7-5.1,13.4-4.6l-0.4,1.2
		c6.2,2.8,5-0.8,10.8-1.3c5.2-0.1,10.4,0.8,15.3,2.5c-4.5,1.3-10.7,0.7-13.6,4c-0.6,1-2.5,0.6-1.6,3.2c0,0-9-0.2-11.3,12
		c9-5.7,15.9-5.5,16-5.5l2.9,0.6l11-7.3c0.3,0,10.6-4.6,15.3,0.6c4.2,2,8.6,2.2,13-0.4c8.4-3.7,16.3-4,24,1.2l7.1,4.2l3-2
		c0,0,8-2.2,13.8,4.9c-2.4-12.3-11.2-12.7-11.2-12.7l-2-1.8l-12.4-4.9c-1.9-4.5-6.4-8-1.9-13.4c4.7-23.1,10.2-40.4,1.2-63.8
		c8.4,3.6,14.7,14.8,25.2,10.9c0-9.4-34.6-27.3-61-41.6C588,264,640,232.1,620,191.5l9.4-29.4c4.5,9,13.5,15.8,21.6,18.7
		c-6.7-12.7-10.5-51.6-6.7-78.4c-17.7,21.2-36.8,41.3-57.1,60c10,2.4,18.9,0.7,28.6-0.5l-8.2,17c-26.6-15.7-57.8-4-58,16.8
		c0.9,24.2,30.8,27.7,48.1,19.2c-3.4,22.1-54.2,14-54.2,14c-18-6.2-35.1-5.2-54-5c3.9-12.1,25.7-22.9,42.4-18.1
		c-23.3-26.2,3.3-58.7,35.4-68.6c-35-11.6-4.9-38.3,21.3-57.4c0,0-75.3,31.7-82.2,31.6C485,109.8,490.8,84.4,498.9,70.8L498.9,70.8z
		 M262.5,101.2c1.8,0,3.8,0.2,5.5,0.6c3.4,0.9,7.5,1.3,7.5,2.4c-1.6,2.6-5.5,5.7-9.3,5.6c-3.8-0.2-6-2.5-7.2-8.2
		C259.4,101.4,260.8,101.2,262.5,101.2z M579.5,190.6c5,0,10.9,2,16.6,8.2c-2.7,8-26.8,12-28.4,0.2
		C567.2,195.4,572.3,190.7,579.5,190.6L579.5,190.6z"/>
	<path class="st3" d="M287.4,171.2l3.7,5.3 M290.9,176.6c0,0,0,7.2,1.5,7.3 M289.1,187.8l3.8,6.3 M282.4,195.7
		c0.2,0,4.7,5.2,4.7,5.2 M291,196.9c0,0.2,4.2,8.1,4.5,8.1 M285.5,202.4c0,0,1.4,9.6,2.7,9.3 M279.2,220l4.2,6.5 M287.1,213.2
		c0,0,2.3,9.1,4.1,8.3 M293.1,207.7c0.1,0.2,4.3,6.1,5.4,5.3 M297.5,215.3l4,8 M290.9,221.5l3.3,9.4 M283.2,226.3
		c0,0,3,10.1,5.7,8.5 M282.1,239.8c0,0,0.2,5.3,2.8,5.6 M286.7,237.1c0,0.2,2.7,3.8,2.7,3.8 M294.4,230.8l2.1,3.5 M301.4,224.3
		l3.3,4.1 M286,176.7c0.1,4.5,7.2-1.6,10-5.4 M283,192.3c0,0,7.7-5.5,13.7-13.8 M280.4,205.4c5.5-1.5,15.6-13.7,17.6-20.2
		 M279.3,217.5c1.5,0.7,20.3-13,20.8-22.9 M278.8,228c0-0.1,17.2-4.4,24.3-23.3 M278,242.3c0,0,27.5-16.5,29-28.6 M492.4,270
		c0,0-1.8,14.2-16,16.4 M496.9,295.4c0.1-0.2,13.6-15,10.1-19.5 M528.1,281.1c0,0-0.2,10.3-8.6,17.4 M544.9,284.1
		c0,0,0.3,12.4-5,17.4 M560.3,291.5c0,0-6,11.7-8.1,12.9 M560.1,312.2c0,0,7.8,2,10.3-3.2 M562.1,329.1c0,0,7.2,1.3,10.6-5.6
		 M561.3,342.2c0,0,5.9,5,9.9-1.6 M477.2,246.2c0,0-0.7,25.3,34.8,30.4c39.7,11,58.5,5.2,60.8,49.7c-1.5,17-3.6,36-16,28.7
		 M439.4,269.5c0,0,5.7,10.1,12.5,9.4c9-2.6,12.3,2.9,12.3,2.9 M415.2,279.6c0,0,15,7.3,27.7-4.5 M416.9,269.1
		c1.3,17.5-20.1,27.5-28.6,25.8 M417.9,335.9c0.1,0,11.6-6.8,9.3-11.6 M395.1,325.8c0.3-0.4,19.3-2.2,22.8-9 M386.3,297.8
		c0,0,26.9,0.2,28.7,5.1 M422,281.9c0,0-26.2,44.9,22.2,44.9 M394.2,281.3c0,0-5.6,16.7-13.6,22.4 M366.4,275.5c0,0,9.7,18.8,0,28.1
		 M341,280.8c0.1,0.3,3.1,26.7-3.5,34.2 M328.3,281.6c0,0,1,16.8-4,22.8s1.2,18.4,1.2,18.4 M265,330.8c0,0,3.6,6.3,8.5,4.1
		 M271,317.1c0,0,8,3.5,10.7,2.2 M279.7,288.9c0,0-11.8,3.3-7.3,17.3c6.8,5.5,13.4,4.6,13.4,4.6 M256.4,348.2c-0.1,0,1.4,11,9,2.7
		c5.3-11.2,22-42.6,25.9-53.4 M299.1,292.4c0,0-8.1-6.3-7.8,2.5c-0.2,5.5,2.5,6.8,2.5,6.8c0.3,4,3.8,9.6,6.6,4.5
		c1.2-5-0.8-7.2-0.8-7.2 M304.3,290c-7.3-0.4-11.3,15.7,2.8,5.6 M311.9,284.6c0,0-1.8,2.5-4.7-0.2c-1.5-2.6-6.8,12,2.5,12.5
		c1.7-4.3,6.8-5.5,6.8-5.5 M320.9,277.6c0,0-4.2,2-5.7,1.7c-5,1.1-4,12.8,2.3,12.1c2.2-2.5,4.5-6,4.5-6 M281.7,262.4
		c-0.2,0-16.5,25.7,9.1,32.5 M488.8,223.9c0,0-10,8.4-0.7,22c-31-0.5-47.5,13.8-48.8,23.4c-39.4-2.8-32.2,8.8-45,12.6
		c-17.1-14.3-42.2-6.3-40.6,8c-11.4-16.1-29-8.3-31.2-4.3c-2.1,4-1.3-19.8-1.3-19.8s-11.5,5.2-19.4,14.6v-19.9
		c-9.6,2-18.9,2-28.8,1.8 M247.1,255c0,0,14.3,8,32-2.8 M246,226.3c0,0,11,10,32,6.8 M253,203.4c0,0,2.4,8.1,26.3,8.6 M261,184.6
		c0,0,9,11,21.2,9.3 M268.7,168.9c0,0,3.5,6,16.8,7 M276.5,151.4c0,0,7,7.6,15,6.3 M318,89.3c0,0,3.1-3,8.3-1.5 M315.8,105.6
		c0,0-9.6-0.3-9-4c0.8-4.4,10.2-7.5,10.2-7.5s12.5-8,14.4-10.8 M274.8,127.3l12.2,23.3l5.8-8.8l3,6l5-8.7l8.6,5.5l-3.2-10.7l7.2-0.5
		c0,0-2-5.1-8.4-6.2c1.7-1.3,7.7-5.3,7.7-5.3s-3.4-4-8.8-4.1c1.8-1.9,4.2-6.5,4-6.5l-5.3-1.2c0,0,12.2,4,21.6-1.6 M301,89.7
		c0.1,0.1-0.7,4.8-3.3,7.5 M254,102.5c0,0,7.5-2,13.1-0.9c5.6,1.2,13.1,3.2,13.1,3.2s9-1.2,11.9-3.3 M235.3,107.5c0,0-1,3.6-1.4,6
		c0,1.7-5.5,4-5.5,4 M238.7,100.1c0,0,4.8,6,5,9.5c0.1,3.4-3.6,6-3.6,6 M189,141l-5-8l4.5-1.6 M279,252.4c-4-5.2,3-84.2,17.7-104.8
		c-5.1,37.2,12,75.2,16.3,75 M234,125.6c0,0,6.8,2.5,20.7-8.6 M273.6,143.8l10,0.1 M583.9,81.9c0,0-166.7,77.8-169.1,82
		c28.1-8.6,147.5-28.5,150.4-26.8c-7,1.7-151.9,35-158.7,43c36.2-1.2,111.9,11.6,123.8,24C504.5,198.3,427.6,187,404,192
		c17.2,4.1,83.2,46.8,83.2,53.6c-10-9.5-89.3-42.2-92.4-39c18.2,10.9,43.9,51.4,43.9,61.3c-5.3-8.4-51.2-57.7-53.9-54.5
		c4.9,6.7,14.5,64.9,9.6,67.6c0-7-17.8-58-19.3-59.4c-3.6,1-26.3,62-21.8,67.8c-3-20.4,0.5-63,6-61.3c-10,1.5-41.7,43.4-38.3,50
		c1-10.5,2.4-17.4,20.4-52.1c-20,1.2-61.2,27.1-68.2,36.4c5.6-16.5,40.5-44.4,55.8-46.4 M401,155.3c17.6-9.8,72-29.7,108.4-44.4
		 M366.8,207.9c0,0,12-0.2,24-32.8c11.8-44.6,105.7-94.3,107.6-103.6 M208,252.8c0,0-2.8,6-6.2,7.6 M221.5,261.8
		c0,0-3.7,7.2-4.6,10.6 M234.4,265.4c0,0,3,9.8,0.5,14.4 M198.5,239.7c-9.4,5.3,5.4,39,50.1,42.2 M241.4,263.7c0,0-1.2,6,7.2,18
		c-2.4,13.4,10.2,23.9,15.2,25.6 M237.8,143.1l1.4-3.6l1.5,4l2.5-0.1l1.6-4l1.4,4h2.4l1.5-4.4l2.3,4.2h2l1.5-5l3,3.6l1.2-0.4l1-5.2
		l3.1,3.6l1-0.5l1.4-5l2.5,3.7l1.3-0.4l1.2-4.3l2.4,4 M235,143.5l18.8-0.3c6,0,15.8-8.3,26.7-5.7 M195.6,183.5c0,0,3.1,6.8,7.4,3
		 M188.4,188c0,0-6,16.2,1.2,20 M179.8,170.2c0,0,0,3.8,8-2 M155.3,254.9c0,0,6.3,2,5.3,6.7 M157.6,180.8c0,0,4,1.9,7.8-4
		 M199.6,366.5c6.1-0.4,7.5,2.4,13,2.4c6.6,0.2,12.9-2.4,21-4.7 M286.7,379.2c-0.2,0-3,5.8-0.5,8.7 M198.7,379.7c0,0,9.8-8,15-3.1
		c4.9,1.7,7.6,1.4,7.6,1.4 M203.8,356.7c0,0,2.4,6.2-5.6,5.3 M195.8,371c0,0,5.1,3.2-0.7,7.5 M198.9,384.3c0,0,7,1,2.9,6.7
		 M426,341.6c0,0,19,2,20,3.4c2.2-2.3,19.2-16.2-1.7-18.1C442.3,335.4,434.8,341.5,426,341.6z M419.2,351.1
		c7.1,5.7,4.2,9.1,26.6-5.9 M409,358.2c0,0,10.5,11.4,18.2-2.4 M388.9,362.3l-14.3,7.5 M349,380.3c0,0,8.7-7.4,12.7-3.5
		c4.1,4,21.3-3.4,21.3-3.4 M355.5,348c0,0,3,6-2.8,6.7 M344.2,366.6c0,0,3,5.6-2.8,7 M350.9,381.7c0,0,9,0.5,5.8,7.3 M435.1,380.5
		c0,0-5,4.2-1.3,9 M506.8,350.5c0,0,5.7,2.8-1.1,7.5 M500,367.9c0,0,4.3,4.5,1.4,8.2 M512,385.1c0,0,5.9,1.7,5.2,6.6 M595,380.7
		c0,0-5,3.7-2.3,8.4 M507,236.3c11.8-1.4,28.8,25,37.5,30.1 M596.4,199c0,0,6,5.3,0.7,18 M607.5,178.8c1.7,1.3,8.1,4.8,12.4,12.8
		 M624,139.4l-8.3,22.5 M633.3,138.3c0,0-1.6,20-4,24 M596,198.8c-2.7,8-26.8,12-28.4,0.2C566.7,193,581.8,183.7,596,198.8z"/>
	<path class="st4" d="M262.3,101.3l9.3,1.7C271.6,103,265.1,111.8,262.3,101.3z"/>
</g>
</svg>
