<?xml version="1.0" encoding="utf-8"?>
<!-- Generator: Adobe Illustrator 24.0.1, SVG Export Plug-In . SVG Version: 6.00 Build 0)  -->
<svg version="1.1" id="Layer_1" xmlns="http://www.w3.org/2000/svg" xmlns:xlink="http://www.w3.org/1999/xlink" x="0px" y="0px"
	 viewBox="0 0 800 480" style="enable-background:new 0 0 800 480;" xml:space="preserve">
<style type="text/css">
	.st0{fill:#FFFFFF;}
	.st1{fill:#BD0034;}
	.st2{fill:#1A237B;}
</style>
<rect class="st0" width="800" height="480"/>
<polygon class="st1" points="536,172.8 800,20.8 800,0 782.4,0 480,172.8 "/>
<polygon class="st1" points="523.2,316.8 800,475.2 800,443.2 579.2,316.8 "/>
<polygon class="st1" points="0,36.8 236.8,172.8 292.8,172.8 0,4.8 "/>
<polygon class="st1" points="280,316.8 0,476.8 0,480 51.2,480 334.4,316.8 "/>
<g>
	<polygon class="st2" points="465.6,0 465.6,161.6 745.6,0 	"/>
	<polygon class="st2" points="340.8,480 340.8,328 78.4,480 	"/>
	<polygon class="st2" points="0,59.2 0,172.8 196.8,172.8 	"/>
	<polygon class="st2" points="0,316.8 0,430.4 196.8,316.8 	"/>
	<polygon class="st2" points="340.8,0 62.4,0 340.8,161.6 	"/>
	<polygon class="st2" points="465.6,328 465.6,480 729.6,480 	"/>
	<polygon class="st2" points="800,425.6 800,316.8 609.6,316.8 	"/>
	<polygon class="st2" points="609.6,172.8 800,172.8 800,64 	"/>
</g>
<polygon class="st1" points="800,201.6 440,201.6 440,0 366.4,0 366.4,201.6 0,201.6 0,288 366.4,288 366.4,480 440,480 440,288 
	800,288 "/>
</svg>
