<?xml version="1.0" encoding="utf-8"?>
<!-- Generator: Adobe Illustrator 24.0.1, SVG Export Plug-In . SVG Version: 6.00 Build 0)  -->
<svg version="1.1" id="flag-icons-gd" xmlns="http://www.w3.org/2000/svg" xmlns:xlink="http://www.w3.org/1999/xlink" x="0px"
	 y="0px" viewBox="0 0 800 480" style="enable-background:new 0 0 800 480;" xml:space="preserve">
<style type="text/css">
	.st0{fill:#CE1126;}
	.st1{fill:#007A5E;}
	.st2{fill:#FCD116;}
</style>
<path class="st0" d="M0,0h800v480H0V0z"/>
<path class="st1" d="M67.2,67.2h665.6v345.6H67.2V67.2z"/>
<path class="st2" d="M67.2,67.3h665.6L67.2,412.9h665.6L67.2,67.3z"/>
<circle class="st0" cx="399.9" cy="240.1" r="57.6"/>
<g transform="matrix(52.8 0 0 52.8 320 240)">
	<g id="c">
		<g id="b">
			<path id="a" class="st2" d="M400,187.2l-16.3,50.2l25.1,8.2"/>
			<g transform="scale(-1 1)">
				<path id="a_1_" class="st2" d="M400,187.2l16.3,50.2l-25.1,8.2"/>
			</g>
		</g>
		<g transform="rotate(72)">
			<g id="b_1_">
				<path id="a_2_" class="st2" d="M450.2,223.7h-52.8v26.4"/>
				<g transform="scale(-1 1)">
					<path id="a_3_" class="st2" d="M450.2,223.7l-42.7,31L392,233.4"/>
				</g>
			</g>
		</g>
		<g transform="rotate(144)">
			<g id="b_2_">
				<path id="a_4_" class="st2" d="M431,282.7l-16.3-50.2l-25.1,8.2"/>
				<g transform="scale(-1 1)">
					<path id="a_5_" class="st2" d="M431,282.7l-42.7-31l15.5-21.4"/>
				</g>
			</g>
		</g>
		<g transform="rotate(216)">
			<g id="b_3_">
				<path id="a_6_" class="st2" d="M369,282.7l42.7-31l-15.5-21.4"/>
				<g transform="scale(-1 1)">
					<path id="a_7_" class="st2" d="M369,282.7l16.3-50.2l25.1,8.2"/>
				</g>
			</g>
		</g>
		<g transform="rotate(288)">
			<g id="b_4_">
				<path id="a_8_" class="st2" d="M349.8,223.7l42.7,31l15.5-21.4"/>
				<g transform="scale(-1 1)">
					<path id="a_9_" class="st2" d="M349.8,223.7h52.8v26.4"/>
				</g>
			</g>
		</g>
	</g>
</g>
<g transform="translate(-30.3)">
	<g id="d" transform="matrix(31.2 0 0 31.2 320 33.6)">
		<g id="c_1_">
			<g id="b_5_">
				<path id="a_10_" class="st2" d="M269.7,2.4l-9.6,29.7l14.8,4.8"/>
				<g transform="scale(-1 1)">
					<path id="a_11_" class="st2" d="M269.7,2.4l9.6,29.7l-14.8,4.8"/>
				</g>
			</g>
			<g transform="rotate(72)">
				<g id="b_6_">
					<path id="a_12_" class="st2" d="M299.4,24h-31.2v15.6"/>
					<g transform="scale(-1 1)">
						<path id="a_13_" class="st2" d="M299.4,24l-25.2,18.3L265,29.7"/>
					</g>
				</g>
			</g>
			<g transform="rotate(144)">
				<g id="b_7_">
					<path id="a_14_" class="st2" d="M288,58.8l-9.6-29.7L263.6,34"/>
					<g transform="scale(-1 1)">
						<path id="a_15_" class="st2" d="M288,58.8l-25.2-18.3l9.2-12.6"/>
					</g>
				</g>
			</g>
			<g transform="rotate(216)">
				<g id="b_8_">
					<path id="a_16_" class="st2" d="M251.4,58.8l25.2-18.3l-9.2-12.6"/>
					<g transform="scale(-1 1)">
						<path id="a_17_" class="st2" d="M251.4,58.8l9.6-29.7l14.8,4.8"/>
					</g>
				</g>
			</g>
			<g transform="rotate(288)">
				<g id="b_9_">
					<path id="a_18_" class="st2" d="M240,24l25.2,18.3l9.2-12.6"/>
					<g transform="scale(-1 1)">
						<path id="a_19_" class="st2" d="M240,24h31.2v15.6"/>
					</g>
				</g>
			</g>
		</g>
	</g>
</g>
<g id="d_1_" transform="matrix(31.2 0 0 31.2 320 33.6)">
	<g id="c_2_">
		<g id="b_10_">
			<path id="a_20_" class="st2" d="M400,2.4l-9.6,29.7l14.8,4.8"/>
			<g transform="scale(-1 1)">
				<path id="a_21_" class="st2" d="M400,2.4l9.6,29.7l-14.8,4.8"/>
			</g>
		</g>
		<g transform="rotate(72)">
			<g id="b_11_">
				<path id="a_22_" class="st2" d="M429.7,24h-31.2v15.6"/>
				<g transform="scale(-1 1)">
					<path id="a_23_" class="st2" d="M429.7,24l-25.2,18.3l-9.2-12.6"/>
				</g>
			</g>
		</g>
		<g transform="rotate(144)">
			<g id="b_12_">
				<path id="a_24_" class="st2" d="M418.3,58.8l-9.6-29.7L393.9,34"/>
				<g transform="scale(-1 1)">
					<path id="a_25_" class="st2" d="M418.3,58.8l-25.2-18.3l9.2-12.6"/>
				</g>
			</g>
		</g>
		<g transform="rotate(216)">
			<g id="b_13_">
				<path id="a_26_" class="st2" d="M381.7,58.8l25.2-18.3l-9.2-12.6"/>
				<g transform="scale(-1 1)">
					<path id="a_27_" class="st2" d="M381.7,58.8l9.6-29.7l14.8,4.8"/>
				</g>
			</g>
		</g>
		<g transform="rotate(288)">
			<g id="b_14_">
				<path id="a_28_" class="st2" d="M370.3,24l25.2,18.3l9.2-12.6"/>
				<g transform="scale(-1 1)">
					<path id="a_29_" class="st2" d="M370.3,24h31.2v15.6"/>
				</g>
			</g>
		</g>
	</g>
</g>
<g transform="translate(30.3)">
	<g id="d_2_" transform="matrix(31.2 0 0 31.2 320 33.6)">
		<g id="c_3_">
			<g id="b_15_">
				<path id="a_30_" class="st2" d="M530.3,2.4l-9.6,29.7l14.8,4.8"/>
				<g transform="scale(-1 1)">
					<path id="a_31_" class="st2" d="M530.3,2.4l9.6,29.7l-14.8,4.8"/>
				</g>
			</g>
			<g transform="rotate(72)">
				<g id="b_16_">
					<path id="a_32_" class="st2" d="M560,24h-31.2v15.6"/>
					<g transform="scale(-1 1)">
						<path id="a_33_" class="st2" d="M560,24l-25.2,18.3l-9.2-12.6"/>
					</g>
				</g>
			</g>
			<g transform="rotate(144)">
				<g id="b_17_">
					<path id="a_34_" class="st2" d="M548.6,58.8L539,29.2L524.2,34"/>
					<g transform="scale(-1 1)">
						<path id="a_35_" class="st2" d="M548.6,58.8l-25.2-18.3l9.2-12.6"/>
					</g>
				</g>
			</g>
			<g transform="rotate(216)">
				<g id="b_18_">
					<path id="a_36_" class="st2" d="M512,58.8l25.2-18.3L528,27.9"/>
					<g transform="scale(-1 1)">
						<path id="a_37_" class="st2" d="M512,58.8l9.6-29.7l14.8,4.8"/>
					</g>
				</g>
			</g>
			<g transform="rotate(288)">
				<g id="b_19_">
					<path id="a_38_" class="st2" d="M500.6,24l25.2,18.3l9.2-12.6"/>
					<g transform="scale(-1 1)">
						<path id="a_39_" class="st2" d="M500.6,24h31.2v15.6"/>
					</g>
				</g>
			</g>
		</g>
	</g>
</g>
<g>
	<path class="st0" d="M172.3,240.7c7.6,14.2,19.3,25.7,33.5,33.2c-0.6-15.6-4.4-31-11.3-45L172.3,240.7z"/>
	<path class="st2" d="M160.1,194.7c10.4,21.7-27.1,73.7,35.5,85.9c-8.5-12.2-12.3-27.1-10.9-41.9c13.9,6.4,25.3,17.3,32.5,30.8
		C233.6,210,175.2,213.7,160.1,194.7z"/>
</g>
<g transform="translate(-30.3 414.6)">
	<g id="d_3_" transform="matrix(31.2 0 0 31.2 320 33.6)">
		<g id="c_4_">
			<g id="b_20_">
				<path id="a_40_" class="st2" d="M269.7,417l-9.6,29.7l14.8,4.8"/>
				<g transform="scale(-1 1)">
					<path id="a_41_" class="st2" d="M269.7,417l9.6,29.7l-14.8,4.8"/>
				</g>
			</g>
			<g transform="rotate(72)">
				<g id="b_21_">
					<path id="a_42_" class="st2" d="M299.4,438.6h-31.2v15.6"/>
					<g transform="scale(-1 1)">
						<path id="a_43_" class="st2" d="M299.4,438.6l-25.2,18.3l-9.2-12.6"/>
					</g>
				</g>
			</g>
			<g transform="rotate(144)">
				<g id="b_22_">
					<path id="a_44_" class="st2" d="M288,473.4l-9.6-29.7l-14.8,4.8"/>
					<g transform="scale(-1 1)">
						<path id="a_45_" class="st2" d="M288,473.4l-25.2-18.3l9.2-12.6"/>
					</g>
				</g>
			</g>
			<g transform="rotate(216)">
				<g id="b_23_">
					<path id="a_46_" class="st2" d="M251.4,473.4l25.2-18.3l-9.2-12.6"/>
					<g transform="scale(-1 1)">
						<path id="a_47_" class="st2" d="M251.4,473.4l9.6-29.7l14.8,4.8"/>
					</g>
				</g>
			</g>
			<g transform="rotate(288)">
				<g id="b_24_">
					<path id="a_48_" class="st2" d="M240,438.6l25.2,18.3l9.2-12.6"/>
					<g transform="scale(-1 1)">
						<path id="a_49_" class="st2" d="M240,438.6h31.2v15.6"/>
					</g>
				</g>
			</g>
		</g>
	</g>
</g>
<g transform="matrix(31.2 0 0 31.2 320 448.2)">
	<g id="c_5_">
		<g id="b_25_">
			<path id="a_50_" class="st2" d="M400,417l-9.6,29.7l14.8,4.8"/>
			<g transform="scale(-1 1)">
				<path id="a_51_" class="st2" d="M400,417l9.6,29.7l-14.8,4.8"/>
			</g>
		</g>
		<g transform="rotate(72)">
			<g id="b_26_">
				<path id="a_52_" class="st2" d="M429.7,438.6h-31.2v15.6"/>
				<g transform="scale(-1 1)">
					<path id="a_53_" class="st2" d="M429.7,438.6l-25.2,18.3l-9.2-12.6"/>
				</g>
			</g>
		</g>
		<g transform="rotate(144)">
			<g id="b_27_">
				<path id="a_54_" class="st2" d="M418.3,473.4l-9.6-29.7l-14.8,4.8"/>
				<g transform="scale(-1 1)">
					<path id="a_55_" class="st2" d="M418.3,473.4l-25.2-18.3l9.2-12.6"/>
				</g>
			</g>
		</g>
		<g transform="rotate(216)">
			<g id="b_28_">
				<path id="a_56_" class="st2" d="M381.7,473.4l25.2-18.3l-9.2-12.6"/>
				<g transform="scale(-1 1)">
					<path id="a_57_" class="st2" d="M381.7,473.4l9.6-29.7l14.8,4.8"/>
				</g>
			</g>
		</g>
		<g transform="rotate(288)">
			<g id="b_29_">
				<path id="a_58_" class="st2" d="M370.3,438.6l25.2,18.3l9.2-12.6"/>
				<g transform="scale(-1 1)">
					<path id="a_59_" class="st2" d="M370.3,438.6h31.2v15.6"/>
				</g>
			</g>
		</g>
	</g>
</g>
<g transform="translate(30.3 414.6)">
	<g id="d_4_" transform="matrix(31.2 0 0 31.2 320 33.6)">
		<g id="c_6_">
			<g id="b_30_">
				<path id="a_60_" class="st2" d="M530.3,417l-9.6,29.7l14.8,4.8"/>
				<g transform="scale(-1 1)">
					<path id="a_61_" class="st2" d="M530.3,417l9.6,29.7l-14.8,4.8"/>
				</g>
			</g>
			<g transform="rotate(72)">
				<g id="b_31_">
					<path id="a_62_" class="st2" d="M560,438.6h-31.2v15.6"/>
					<g transform="scale(-1 1)">
						<path id="a_63_" class="st2" d="M560,438.6l-25.2,18.3l-9.2-12.6"/>
					</g>
				</g>
			</g>
			<g transform="rotate(144)">
				<g id="b_32_">
					<path id="a_64_" class="st2" d="M548.6,473.4l-9.6-29.7l-14.8,4.8"/>
					<g transform="scale(-1 1)">
						<path id="a_65_" class="st2" d="M548.6,473.4l-25.2-18.3l9.2-12.6"/>
					</g>
				</g>
			</g>
			<g transform="rotate(216)">
				<g id="b_33_">
					<path id="a_66_" class="st2" d="M512,473.4l25.2-18.3l-9.2-12.6"/>
					<g transform="scale(-1 1)">
						<path id="a_67_" class="st2" d="M512,473.4l9.6-29.7l14.8,4.8"/>
					</g>
				</g>
			</g>
			<g transform="rotate(288)">
				<g id="b_34_">
					<path id="a_68_" class="st2" d="M500.6,438.6l25.2,18.3l9.2-12.6"/>
					<g transform="scale(-1 1)">
						<path id="a_69_" class="st2" d="M500.6,438.6h31.2v15.6"/>
					</g>
				</g>
			</g>
		</g>
	</g>
</g>
</svg>
