<?xml version="1.0" encoding="utf-8"?>
<!-- Generator: Adobe Illustrator 24.0.1, SVG Export Plug-In . SVG Version: 6.00 Build 0)  -->
<svg version="1.1" id="flag-icons-ge" xmlns="http://www.w3.org/2000/svg" xmlns:xlink="http://www.w3.org/1999/xlink" x="0px"
	 y="0px" viewBox="0 0 800 480" style="enable-background:new 0 0 800 480;" xml:space="preserve">
<style type="text/css">
	.st0{fill:#FFFFFF;}
	.st1{fill:#FF0000;}
	.st2{fill-rule:evenodd;clip-rule:evenodd;fill:#FF0000;}
</style>
<path class="st0" d="M0,0h800v480H0V0z"/>
<path class="st1" d="M0,192h800v96H0V192z"/>
<path class="st1" d="M352,0h96v480h-96V0z"/>
<g>
	<path class="st2" d="M180.8,373.1c1-16.8,4-31.1,4-31.1s-9.8,1-14.8,1c-4.9,0-14.8-1-14.8-1s3,14.3,4,31.2c-16.9-1-31.2-4-31.2-4
		s1,7.4,1,14.8s-1,14.8-1,14.8s14.3-3,31.2-4c-1,16.9-4,31.2-4,31.2s7.4-1,14.8-1s14.8,1,14.8,1s-3-14.3-4-31.2
		c16.9,1,31.2,4,31.2,4s-1-9.8-1-14.8c0-4.9,1-14.8,1-14.8s-14.3,3-31.1,4L180.8,373.1z"/>
	<path class="st2" d="M640.8,85.1c1-16.8,4-31.1,4-31.1s-9.8,1-14.8,1c-4.9,0-14.8-1-14.8-1s3,14.3,4,31.1
		c-16.9-1-31.2-3.9-31.2-3.9s1,7.4,1,14.8c0,7.4-1,14.8-1,14.8s14.3-3,31.2-4c-1,16.9-4,31.2-4,31.2s7.4-1,14.8-1
		c7.4,0,14.8,1,14.8,1s-3-14.3-4-31.1c16.9,1,31.2,4,31.2,4s-1-10-1-14.9c0-4.9,1-14.8,1-14.8s-14.3,3-31.2,4V85.1z"/>
	<path class="st2" d="M180.8,85.1c1-16.8,4-31.1,4-31.1s-9.8,1-14.8,1c-4.9,0-14.8-1-14.8-1s3,14.3,4,31.2c-16.9-1-31.2-4-31.2-4
		s1,7.4,1,14.8c0,7.4-1,14.8-1,14.8s14.3-3,31.2-4c-1,16.9-4,31.2-4,31.2s7.4-1,14.8-1s14.8,1,14.8,1s-3-14.3-4-31.2
		c16.9,1,31.2,4,31.2,4s-1-9.8-1-14.8c0-4.9,1-14.8,1-14.8s-14.3,3-31.1,4L180.8,85.1z"/>
	<path class="st2" d="M640.8,373.1c1-16.8,4-31.1,4-31.1s-9.8,1-14.8,1c-4.9,0-14.8-1-14.8-1s3,14.3,4,31.2c-16.9-1-31.2-4-31.2-4
		s1,7.4,1,14.8s-1,14.8-1,14.8s14.3-3,31.2-4c-1,16.9-4,31.2-4,31.2s7.4-1,14.8-1c7.4,0,14.8,1,14.8,1s-3-14.3-4-31.2
		c16.9,1,31.2,4,31.2,4s-1-9.8-1-14.8c0-4.9,1-14.8,1-14.8s-14.3,3-31.2,4V373.1z"/>
</g>
</svg>
