<?xml version="1.0" encoding="utf-8"?>
<!-- Generator: Adobe Illustrator 24.0.1, SVG Export Plug-In . SVG Version: 6.00 Build 0)  -->
<svg version="1.1" id="flag-icons-gi" xmlns="http://www.w3.org/2000/svg" xmlns:xlink="http://www.w3.org/1999/xlink" x="0px"
	 y="0px" viewBox="0 0 800 480" style="enable-background:new 0 0 800 480;" xml:space="preserve">
<style type="text/css">
	.st0{fill:#DA000C;}
	.st1{fill:#FFFFFF;}
	.st2{fill:#DA000C;stroke:#000000;stroke-width:3.5156;stroke-linecap:square;stroke-miterlimit:14.0625;}
	.st3{fill:#DA000C;stroke:#000000;stroke-width:3.5156;stroke-miterlimit:14.0625;}
	.st4{fill:#F8D80E;stroke:#000000;stroke-width:2.8125;stroke-linecap:round;stroke-miterlimit:14.0625;}
	.st5{fill:#F8D80E;stroke:#000000;stroke-width:3.5156;stroke-linecap:round;stroke-miterlimit:14.0625;}
	.st6{fill:#F8D80E;stroke:#000000;stroke-width:3.5156;stroke-miterlimit:14.0625;}
	.st7{fill:#DA000C;stroke:#000000;stroke-width:3.5156;stroke-linejoin:round;stroke-miterlimit:14.0625;}
</style>
<path class="st0" d="M0,0h800v480H0V0z"/>
<path class="st1" d="M0,0h800v321.6H0V0z"/>
<g transform="translate(-160) scale(1.875)">
	<g id="a">
		<path d="M239.8,116.3h64v44h-64L239.8,116.3L239.8,116.3z"/>
		<path class="st2" d="M273,153.9h-39l-8.7,5.7v6H273 M256.7,128.6c5.6,0,10.2,4.7,10.2,10.5v14.7h7.3v-56h-40.3v56h12.6v-14.7
			C246.5,133.5,251,128.6,256.7,128.6z"/>
		<path d="M247.7,60h18.6v34h-18.6L247.7,60L247.7,60z"/>
		<path class="st2" d="M266.2,88.7H250v-5.8h-11.9v5.8h-8v-5.8h-4.9v10.4h41 M230,93.3h35v4.5h-35V93.3z M244,47.6V83h6v-9.7
			c0-3.6,2.5-6.6,6.1-6.8h0.4c3.8,0,6.8,3,6.8,6.8l0,0V83h5.7V47.6H244z M241.7,42.8v4.8H271v-4.8H241.7z M238,33.7v9.1h35v-9.1
			h-5.3v4.7h-6.6v-4.7h-10v4.7h-6.5v-4.7C244.6,33.7,238,33.7,238,33.7z M225.2,159.6h48 M304.2,156.8h-32.4l-9.8,4.7v7h42.2"/>
		<path class="st3" d="M262,161.5h43.2"/>
	</g>
	<g transform="matrix(-1 0 0 1 512 0)">
		<g id="a_1_">
			<path d="M153.3,160.3h64v-44h-64V160.3z"/>
			<path class="st2" d="M186.5,165.6h-47.7v-6l8.7-5.7h39 M160,139.1v14.7h-12.6v-56h40.3v56h-7.3v-14.7c0-5.8-4.6-10.5-10.2-10.5
				C164.5,128.6,160,133.5,160,139.1z"/>
			<path d="M161.2,94h18.6V60h-18.6V94z"/>
			<path class="st2" d="M179.7,93.3h-41V82.9h4.9v5.8h8v-5.8h11.9v5.8h16.2 M143.5,97.8h35v-4.5h-35V97.8z M182.5,47.6V83h-5.7v-9.7
				l0,0c0-3.8-3-6.8-6.8-6.8h-0.4c-3.6,0.2-6.1,3.2-6.1,6.8V83h-6V47.6H182.5z M184.5,42.8v4.8h-29.3v-4.8H184.5z M158.1,33.7v4.7
				h6.5v-4.7h10v4.7h6.6v-4.7h5.3v9.1h-35v-9.1C151.5,33.7,158.1,33.7,158.1,33.7z M186.7,159.6h-48 M217.7,168.5h-42.2v-7l9.8-4.7
				h32.4"/>
			<path class="st3" d="M218.7,161.5h-43.2"/>
		</g>
	</g>
	<g>
		<g>
			<path class="st4" d="M316,150c-2.7,1-5,2.4-7.5,3.8c-3.1,1.8-6.1,3.8-8.9,6c-1,0.7-2,1.4-2.7,2.4c-1,0.8-2,2-1.8,3.5
				c0,0.6,0.8-0.8,1.4-0.9c0.9-0.5,2.1-0.7,3.1-0.4c1.3-1.4,3-2.3,4.4-3.4c4.1-2.9,8.4-5.5,13-7.6L316,150L316,150z"/>
			<path class="st5" d="M303.1,157.4v3.9 M305.5,155.7v3.9 M307.9,154.2v3.8 M310.4,152.7v4"/>
			<path class="st4" d="M281.6,150.2l-1.2,3.3c5.5,2.1,10.8,4.8,15.8,8c1.7,1.2,3.5,2.3,4.8,3.9c0.3,0.8-0.5,1.5-1.3,1.2
				c-0.7-0.2-1.5-0.5-2.2,0c-1.1,0.5-2.1,2.2-0.5,2.7c2.4,1.6,6.1,0.9,7.2-1.8c0.6-1.4,0.7-3.2-0.5-4.4c-2-2.3-4.8-4-7.4-5.7
				C291.6,154.6,286.7,152.1,281.6,150.2L281.6,150.2z"/>
			<path class="st5" d="M296.7,158l-0.3,3.4 M299.5,159.7l-0.8,3.3 M302.5,162l-1.8,2.6 M303.4,168.2l-2.6-1.4 M304.2,165.4l-3,0.3
				 M300.4,169.7l-0.2-2.6 M299.2,166.8l-2.4,1.8 M287.4,152.9v3.1 M293.7,156.3v3.5 M290.5,154.6v3.3"/>
		</g>
		<path class="st6" d="M278.5,227.6v8h5v-4h6.9v4h5.4v-8H278.5z M278.5,238.6v8h17.2v-8h-5.4v4h-6.9v-4H278.5z"/>
		<path class="st6" d="M295.7,193.7h5v58h-5V193.7z"/>
		<path class="st6" d="M295.7,198.7h5v50h-5V198.7z M298.3,179.4l10.6,6.2l-10.6,6.2l-10.7-6.2L298.3,179.4z M284,183.4h-2.7v4.4
			h2.7l14.3,8.3l14.2-8.3h2.8v-4.4h-2.8l-14.2-8.3L284,183.4z"/>
		<path class="st6" d="M298,164.3c-2.4,0.5-4.1,2.6-4,5.1v11.2c0.2,2.5,2.1,4.4,4.6,4.6c2,0.2,3.9-1,4.8-2.8l-1.7-1
			c-0.5,1.2-1.7,1.9-3,1.8c-1.6,0-2.9-1.6-2.7-3.1v-11.2c0.2-1.5,1.5-2.7,3-2.6c0.6-0.2,1.5,0.7,1.9,0c0.6-0.9-0.4-1.5-1-2H298
			L298,164.3z M303.8,168.2c-0.5,0.7-1.1,1.2-1.9,1.6v7.5l2,1.1v-10.2L303.8,168.2z"/>
	</g>
	<g>
		<path d="M283.5,38.4h29.3v53.2h-29.3V38.4z"/>
		<path class="st3" d="M281.5,38.4v44.5h9.3V69.7c0-3,2-7.3,7.9-7.3s8,4.3,8,7.3V83h9.2V38.4H281.5z M297.3,43.4h2.8v15.2h-2.8V43.4
			z M289,46.4h3v11.1h-3V46.4z M305.5,46.4h2.9v11.1h-3L305.5,46.4z M278.3,32v6.3h40.8V32H278.3z M274.5,24.6V32H323v-7.4h-6.1v4
			h-7v-4h-7.8v4h-6.8v-4h-7.9v4h-6.7v-4H274.5z M265.5,97.8v4.6H332v-4.6H265.5z"/>
		<path class="st3" d="M262.7,82.9v15h72v-15h-6.8v5.8h-9.2v-5.8h-12.2v5.8h-15.8v-5.8h-12.2v5.8h-9v-5.8H262.7z"/>
		<path class="st7" d="M271.4,102.4v54.4h12.8v-20.4c0-9.5,6.4-14,14.5-14c7.8,0,14.5,4.5,14.5,14v20.4H326v-54.4H271.4z"/>
	</g>
</g>
</svg>
