<?xml version="1.0" encoding="utf-8"?>
<!-- Generator: Adobe Illustrator 24.0.1, SVG Export Plug-In . SVG Version: 6.00 Build 0)  -->
<svg version="1.1" id="flag-icons-gq" xmlns="http://www.w3.org/2000/svg" xmlns:xlink="http://www.w3.org/1999/xlink" x="0px"
	 y="0px" viewBox="0 0 800 480" style="enable-background:new 0 0 800 480;" xml:space="preserve">
<style type="text/css">
	.st0{fill:#E32118;}
	.st1{fill:#FFFFFF;}
	.st2{fill:#3E9A00;}
	.st3{fill:#0073CE;}
	.st4{fill:#FFFFFF;stroke:#000000;}
	.st5{fill:#73452B;stroke:#000000;stroke-width:0.2;}
	.st6{fill:#A36629;stroke:#000000;stroke-width:0.2;}
	.st7{fill:none;stroke:#000000;stroke-width:0.2;}
	.st8{fill:#009A3B;stroke:#000000;stroke-width:0.2;}
	.st9{fill:#FFD700;stroke:#000000;stroke-width:0.7;}
	.st10{fill:#FFFFFF;stroke:#000000;stroke-width:0.7;}
</style>
<path class="st0" d="M0,0h800v480H0V0z"/>
<path class="st1" d="M0,0h800v320H0V0z"/>
<path class="st2" d="M0,0h800v160H0V0z"/>
<path class="st3" d="M0,0v480l225-240L0,0z"/>
<g>
	<path class="st4" d="M361.6,191.8h76.6V272c0,27-35.2,6.2-38.2,20.6c-5.2-14.8-38.2,6.6-38.2-22.2L361.6,191.8L361.6,191.8z"/>
	<path class="st5" d="M405.4,279.8c0,0-1,1-2.8,0.2s-2-51.4-2-51.4c4-4.4,7.2-5.8,7.2-5.8l2.4,2c-9,4.6-8.2,11.2-7.4,22.6
		c0.2,4.2,0.2,9.6,1.2,14.8c1.4,6.6,4.2,12.2,4.4,16.4C408.6,281.2,405.4,279.8,405.4,279.8L405.4,279.8z"/>
	<path class="st5" d="M399.2,221.6h3.6c-3,29-0.4,46.2-0.4,54.6c0,2.8,1.6,3.8,1.4,3.8c-3.6,4-5.4-0.2-5.4-0.2L399.2,221.6z"/>
	<path class="st6" d="M393.6,279.8c-3.4,1.6-3.8-1.6-3.6-2c7.4-15,10.6-48,3.8-51.6l0.4-3.2c2.6,0.8,5,4.2,5,4.2
		c1,37,0,52.2-0.6,52.8c-3.6,3.8-5-0.6-5.2-1"/>
	<path class="st7" d="M393.4,279.2c-0.6-3.2,5.2-11.4,4.8-20 M403.2,266.2c1.8,5,2.6,9.4,2.2,13.6"/>
	<path class="st8" d="M411,208c1.2-1.4,1.2-1.4,3.4-1.4c0.4-3,5.4-3,5.8,0.8c4-0.8,4.8,1.6,3.2,4c3.8-1,7.2,0,6.2,4.4
		c6.8,1.8,4.2,6.6,1.2,7.6c-0.4,3-3.2,4-7,2.8c-4.8,3.4-7.6,2.2-9.8-1.2c-5.4,0.8-5.8-0.4-8.2-3.4c-4.2,1.8-5,1.8-8.6-0.4
		c-0.2,2.8-1.2,2-3,1.8c0.2,3.6-1.2,5.2-4.4,4c2.4,5-3.8,7.2-6.8,3c-2.8,0.2-3-0.6-4.4-1.6c-1.2,4-5.6,3.4-6.4,1.2
		c-5.6-0.8-5-3.8-0.4-4c0.4-3.2,3.2-2.6,5-2.2c0.2-2,1.4-1.6,2.4-1.2c-0.6-1.4-0.2-2.2,1.6-2.6c-2.6-3.4-1-4.6,1.6-5.8
		c-1.4-3.2,1-3,2.8-3.2c-0.2-3.4,0.8-4,4.4-4.4c-0.4-1.2,0.2-2.2,2.2-2.2c-1.2-3.4,0.4-4.2,4-3.6c0.6-5,11.2-2.6,10.4,4.2
		C409.2,205,410.2,205.6,411,208L411,208z"/>
	<path class="st7" d="M389.6,206.2c0.8,0.4,1.8,0,2,2.2c1.6-2.8,3.6-1.2,3.6,2 M406.2,204.6c-0.8,1.2-3.8,1.2-3.4,4.4
		c-1-1.4-3-1.8-3.8-0.4 M411,208c0,0.8-0.2,3.2-1,4.4 M423.4,211.4c0.2,0.2-2.8,0-4.2,1 M430.8,223.4c-0.8-0.4-2.4-1.4-3.6,0.2
		c0-0.8,0-3-2.2-3 M423.8,226.2c0-2-0.4-2.6-0.8-3.2 M417.2,223.4c-1.6-1.2-3.2,0.6-3.2,1.6 M405.6,221.6c0-0.8-0.6-2.4,0.8-3
		 M382.8,230c0.4-2,1.8-2,1.6-3c-0.2-1.6-2-3-4.2-0.8 M384.4,227c1.2-0.4,2.4-0.2,2.8,0.4 M381,219.6c0.8-0.8,2.8-0.6,4,0
		 M385,214.8c1,0,2.8-0.4,3.4,1.4c2.2-3.4,3.8-3,4.2-2.2 M396.6,213.6c1.6-0.6,4.4,1,6,3.8c0.8-2.2,2-1.8,3.2-2 M413.4,217.4
		c2.6-1.2,4.2,1.2,5,2.2c1.2-1.6,2.2-1.6,3.4-1.6 M389.2,222.2c0.6-1,2-1.2,3-0.6c-0.2-1.8,1-2.6,1.8-2.2"/>
	<path class="st9" d="M397.4,180.5l-4.4,0.2l-2.2,4l-2.4-3.8l-4.4,0.2l2-4l-2.4-3.7l4.6-0.2l2-4l2.4,3.8l4.4-0.2l-2,4L397.4,180.5z
		 M378.6,182l-4.4,1l-1.2,4.3l-3.2-3.2l-4.2,1l1.2-4.2l-3-3.2l4.2-1.1l1.2-4.3l3.2,3.2l4.4-1l-1.4,4.3L378.6,182z M360.4,185.7l-4,2
		l-0.2,4.4l-3.8-2.4l-4,2l0.4-4.5l-3.8-2.4l4-2l0.4-4.5l3.6,2.5l4-2l-0.2,4.4L360.4,185.7z M403.2,180.5l4.4,0.2l2,4l2.4-3.8
		l4.4,0.2l-2-4l2.4-3.7l-4.4-0.2l-2.2-4l-2.4,3.8l-4.4-0.2l2,4L403.2,180.5z M422,182l4.2,1l1.2,4.3l3.2-3.2l4.2,1l-1.2-4.2l3.2-3.2
		l-4.4-1.1l-1.2-4.3l-3.2,3.2l-4.2-1l1.2,4.3L422,182z M440,185.7l4,2l0.2,4.4l3.8-2.4l4,2l-0.2-4.5l3.6-2.4l-4-2l-0.2-4.5l-3.8,2.5
		l-4-2l0.4,4.4L440,185.7z"/>
	<g>
		<path class="st10" d="M445.4,270.4l5,7.2l4.6-6.8l-3.2-5.8L445.4,270.4z M413.6,291.4l0.4,7.2c0,0,2,0,3.8-0.6
			c1.6-0.6,3-1.8,3-1.8l-0.2-3.8L413.6,291.4z M386.8,291.4l-0.4,7c0,0-1.8,0-3.6-0.4c-1.6-0.4-3-1.4-3-1.4l-2-4.8L386.8,291.4z
			 M354.6,270.4l-5.2,7.2l-5.6-9.2l4.2-4.4L354.6,270.4z"/>
		<path class="st10" d="M379.6,305.8c0,6.8,41.2,6.8,41.2,0v-9.6c0,5-41.2,4-41.2,0V305.8z"/>
		<path class="st10" d="M342.8,283.6c3.6,18.4,36.8,18.8,36.8,18.8v-6.2c-0.8-2.4,0.6-3.2,6-4c2.2-0.2,1.2-3.4,1.2-3.4
			s-14.4,2.6-24.6-1.4c-13.8-5.6-15.8-16.4-15.8-16.4S345.4,279.4,342.8,283.6z M457.4,283.6c-3.4,18.4-36.6,18.8-36.6,18.8v-6.2
			c0.6-2.4-0.8-3.2-6.2-4c-2.2-0.2-1-3.4-1-3.4s14.4,2.6,24.6-1.4c13.6-5.6,15.2-16.4,15.2-16.4S454.8,279.4,457.4,283.6z"/>
		<path class="st10" d="M345.4,276.6c-9.2-5-2-10.2-1.2-25c1.4,9,11.6,12.8,10.4,18.6c-4.2,0.2-6.2-6.2-8.2,0.8L345.4,276.6
			L345.4,276.6z M454.8,276.6c9.2-5.2,1.6-10.2,0.8-25c-1.4,9-11.4,12.8-10.2,18.6c4,0.2,6-6.2,8,0.8l1.4,5.4L454.8,276.6z"/>
	</g>
	<path d="M351,283.4l1,0.8l-2.2,2.4c-1,1-1.1,1.6-0.5,2.2c0.7,0.7,1.3,0.4,2-0.4l2.5-2.6l0.8,0.8l-2.4,2.8c-1.3,1.5-2.5,1.2-3.6,0.2
		c-0.8-0.8-1.4-2,0-3.5L351,283.4L351,283.4z M355,286.8l1,0.6l-0.2,4.8l2.2-3.4l1,0.6l-3.2,5.2l-1.2-0.6l0.2-4.8l-2.2,3.4l-1-0.6
		L355,286.8z M356.8,295.2l2.8-5.6l1,0.6l-2.6,5.4L356.8,295.2z M361.2,290.4l-2.2,5.8l2.2,0.8c2,0.7,3-0.2,3.6-1.9
		c0.7-1.8,0.4-3-1.6-3.9L361.2,290.4z M362,291.8c2,0.7,2.2,1.5,1.6,3c-0.6,1.3-1,1.8-3,0.8L362,291.8z M367.8,292.6l-3.6,5.4
		l1.4,0.4l0.8-1.4l2.4,0.6l0.2,1.4l1.4,0.2l-1.4-6.4L367.8,292.6L367.8,292.6z M368.2,294l0.4,2.4l-1.6-0.2L368.2,294L368.2,294z
		 M371.2,293.1l-0.2,6.2h2.3c2.2,0.1,2.8-1,2.9-3c0-1.8-0.7-3-2.9-3L371.2,293.1L371.2,293.1z M372.4,294.1c2.2,0.1,2.5,0.8,2.5,2.3
		c-0.1,1.5-0.4,2.1-2.6,1.8v-4L372.4,294.1z M392.2,301.8v6.4h1.4v-2.4c0,0,1.2,0,2.2-0.2c0.7-0.2,1.3-0.7,1.3-2
		c0-1.2-0.7-1.8-1.9-1.8H392.2z M393.6,302.8h1.4c1.1,0,1,1.8,0,1.8h-1.4V302.8z M399.4,301.8l-2.6,6.4h1.4l0.6-1.6h2.6l0.6,1.6h1.4
		l-2.6-6.4H399.4z M400,303.2l1,2.4h-1.8L400,303.2z M403.4,307l3.4-4.2h-3v-1h4.8v1L405,307h3.6v1.2h-5.2L403.4,307z M423.6,294.6
		l1.2-0.2l0.6,3.6c0.2,1.3-0.4,2.1-1.3,2.5c-1,0.4-2.4,0-2.5-1.7l1-0.2c0.2,1,0.6,1.1,1,1c0.5-0.2,0.7-0.8,0.6-1.4L423.6,294.6z
		 M425.6,294.2l1.1-0.2l0.6,3c0.2,1.3,0.6,1.8,1.5,1.7c1-0.2,1.1-0.8,0.9-2l-0.7-3.1l1.2-0.2l0.8,3.3c0.4,2-0.6,2.7-2,3
		c-1.1,0.2-2.4,0-2.8-2L425.6,294.2z M431.8,297l1-0.4c0.5,0.9,1.2,0.8,1.8,0.6c0.8-0.4,1-1.1,0.5-1.4c-0.6-0.3-2,0.2-2.7,0
		c-0.9-0.4-1.3-1-1.2-1.7c0-1,0.8-1.4,1.7-1.7c1-0.3,2-0.2,2.7,1l-1.2,0.4c-0.4-0.7-1-0.6-1.4-0.4s-1,0.5-0.6,1
		c0.2,0.5,1.7,0.2,2.5,0.2s1.4,0.6,1.5,1.3c0.2,1.1-0.2,1.7-1.5,2.2C433.4,298.7,432,298.1,431.8,297L431.8,297z M437.2,292
		l-1.6,0.8l-0.4-1l4.4-1.8l0.4,0.8l-1.6,0.8l1.8,4.4l-1,0.6L437.2,292z M439.8,289.8l1-0.6l2.8,5.2l-1,0.6L439.8,289.8z
		 M446.6,290.2l1.2-0.4c0.5,1.2-0.1,2.6-1.3,3.1c-0.3,0.1-0.7,0.2-1.1,0.2c-3,0-3.4-3.4-2.9-4.5c0.8-1.9,3-1.8,4-0.8l-1,0.8
		c-0.6-0.8-2-0.3-2,0.4c-0.3,1.2,0.3,2.4,1.4,3C445.9,292.4,447.3,291.2,446.6,290.2L446.6,290.2z M446,286l1-0.8l3.6,4.8l-1,0.8
		L446,286z M449.8,283l-1,0.8l2.2,6l1-1l-0.6-1.2l1.8-1.6l1.2,0.6l1-0.8L449.8,283z M450.2,284.4l2,1l-1.2,1.2L450.2,284.4z"/>
</g>
</svg>
