<?xml version="1.0" encoding="utf-8"?>
<!-- Generator: Adobe Illustrator 24.0.1, SVG Export Plug-In . SVG Version: 6.00 Build 0)  -->
<svg version="1.1" id="flag-icons-gr" xmlns="http://www.w3.org/2000/svg" xmlns:xlink="http://www.w3.org/1999/xlink" x="0px"
	 y="0px" viewBox="0 0 800 480" style="enable-background:new 0 0 800 480;" xml:space="preserve">
<style type="text/css">
	.st0{fill-rule:evenodd;clip-rule:evenodd;fill:#005BAE;}
	.st1{fill-rule:evenodd;clip-rule:evenodd;fill:#FFFFFF;}
	.st2{fill:#005BAE;}
</style>
<path class="st0" d="M0,0h800v53.3H0V0z"/>
<path class="st1" d="M0,53.3h800v53.4H0V53.3z"/>
<path class="st0" d="M0,106.7h800V160H0V106.7z"/>
<path class="st1" d="M0,160h800v53.3H0V160z"/>
<path class="st2" d="M0,0h266.7v266.7H0V0z"/>
<path class="st0" d="M0,213.3h800v53.4H0V213.3z"/>
<path class="st1" d="M0,266.7h800V320H0V266.7z"/>
<path class="st0" d="M0,320h800v53.3H0V320z"/>
<path class="st1" d="M0,373.3h800v53.4H0V373.3z"/>
<g>
	<path class="st1" d="M106.7,0H160v266.7h-53.3V0z"/>
	<path class="st1" d="M0,106.7h266.7V160H0V106.7z"/>
</g>
<path class="st2" d="M0,426.7h800V480H0V426.7z"/>
</svg>
