<?xml version="1.0" encoding="utf-8"?>
<!-- Generator: Adobe Illustrator 24.0.1, SVG Export Plug-In . SVG Version: 6.00 Build 0)  -->
<svg version="1.1" id="flag-icons-gs" xmlns="http://www.w3.org/2000/svg" xmlns:xlink="http://www.w3.org/1999/xlink" x="0px"
	 y="0px" viewBox="0 0 800 480" style="enable-background:new 0 0 800 480;" xml:space="preserve">
<style type="text/css">
	.st0{fill:#000066;}
	.st1{fill:#6A4C2D;stroke:#000000;}
	.st2{fill:#FFFFFF;stroke:#000000;}
	.st3{fill:url(#path4168_2_);stroke:#000000;}
	.st4{fill:#656263;stroke:#000000;}
	.st5{stroke:#000000;stroke-linejoin:round;}
	.st6{fill:#FFBB00;stroke:#000000;}
	.st7{fill:#00713D;stroke:#000000;}
	.st8{fill:none;stroke:#3EC26D;stroke-width:0.9751;stroke-linecap:round;}
	.st9{fill:#006B00;stroke:#000000;}
	.st10{fill:#FFC900;stroke:#006B00;stroke-width:0.5;stroke-linecap:round;}
	.st11{fill:#CDAD56;stroke:#000000;stroke-linejoin:round;}
	.st12{fill:#CDAD56;stroke:#000000;stroke-width:0.9;stroke-linejoin:round;}
	.st13{fill:#FFC900;}
	.st14{fill:#FFC900;stroke:#006B00;stroke-width:0.5;stroke-linecap:round;stroke-linejoin:round;}
	.st15{fill:none;stroke:#006B00;stroke-width:0.5;stroke-linecap:round;}
	.st16{fill:#E80000;stroke:#006B00;stroke-width:0.5;stroke-linecap:round;}
	.st17{fill:#006B00;}
	.st18{fill:#FFC900;stroke:#FFC900;stroke-width:0.5;stroke-linecap:round;stroke-linejoin:round;}
	.st19{fill:#E80000;stroke:#006B00;stroke-width:0.5;stroke-linejoin:round;}
	.st20{fill:#E80000;stroke:#006B00;stroke-width:0.6;stroke-linejoin:round;}
	.st21{fill:#FFC900;stroke:#006B00;stroke-width:0.6;stroke-linejoin:round;}
	.st22{fill:none;}
	.st23{fill:url(#path4300_2_);}
	.st24{fill:#C01500;stroke:#000000;}
	.st25{fill:#1E5AA6;stroke:#000000;stroke-width:0.7801;}
	.st26{fill:#1E5AA6;stroke:#000000;}
	.st27{fill:none;stroke:#FFF700;stroke-width:0.7801;stroke-linecap:round;}
	.st28{fill:url(#path4346_2_);stroke:#000000;}
	.st29{fill:#FF7000;stroke:#000000;}
	.st30{fill:none;stroke:#000000;}
	.st31{fill:#FFFFFF;stroke:#000000;stroke-linejoin:round;}
	.st32{fill:none;stroke:#FFFFFF;stroke-linecap:round;}
	.st33{fill:#C75B00;stroke:#000000;}
	.st34{fill:#CCCCCD;stroke:#CCCCCC;}
	.st35{fill:#0000FF;stroke:#000000;}
	.st36{fill:#CCCCCD;stroke:#CCCCCC;stroke-width:0.7;}
	.st37{fill:#923F00;stroke:#000000;}
	.st38{fill:#FFFEFF;stroke:#000000;}
	.st39{fill:#5E0043;stroke:#000000;}
	.st40{fill:#474747;stroke:#474747;stroke-linejoin:round;}
	.st41{fill:none;stroke:#000000;stroke-linecap:round;}
	.st42{fill:#B4B6B9;stroke:#000000;}
	.st43{fill:url(#path4432_2_);stroke:#000000;}
	.st44{fill:#FF7000;stroke:#000000;stroke-linejoin:round;}
	.st45{fill:url(#path4444_2_);stroke:#000000;}
	.st46{fill:url(#path4446_2_);stroke:#000000;}
	.st47{fill:none;stroke:#000000;stroke-width:0.7801;}
	.st48{fill:#8A9396;stroke:#2B2B2B;}
	.st49{fill:#CECFCF;stroke:#2B2B2B;}
	.st50{fill:none;stroke:#2B2B2B;stroke-width:0.5;}
	.st51{fill:#2B2B2B;stroke:#2B2B2B;}
	.st52{fill:none;stroke:#2B2B2B;}
	.st53{fill:#2B2B2B;stroke:#2B2B2B;stroke-linejoin:round;}
	.st54{fill:#8A9396;stroke:#2B2B2B;stroke-linejoin:round;}
	.st55{fill:none;stroke:#8A9396;stroke-width:0.9751;stroke-linecap:round;}
	.st56{fill:none;stroke:#2B2B2B;stroke-width:0.9751;stroke-linecap:round;}
	.st57{fill:#012169;}
	.st58{fill:#FFFFFF;}
	.st59{fill:#C8102E;}
</style>
<path id="path7172" class="st0" d="M0,0h800v480H0V0z"/>
<g>
	<path id="path4164_1_" class="st1" d="M591.8,345c0,0-2.6,6.8-4,6.8c-1.6,0-7-3-7-3s-3.9,6.4-6,6.7c-2,0.4-7.4-0.9-7.4-0.9
		s-5.2,0-5.4-0.7c-0.2-0.8,0.2-2.3,0.2-2.3s-7.5,6-9.1,5.6c-1.7-0.3-7.3-7.4-7.3-7.4l-1,3.7l-10.6-0.4l-9.3-6c0,0-5.2,8.6-5.4,8.4
		c-0.2-0.1-9.1,2.1-9.1,2.1l-0.6-1.7l-6-3.5c0,0,4.7-6.5,4.7-6.7s-2.2-1-2.2-1l-3.4,2.8L496,352l-6.9-3.2l3-5.6l0.4-4l5.4-8.3
		l66.2-64.3l32.6,60.2L591.8,345z"/>
	<path id="path4166_1_" class="st2" d="M638.8,348.8l17.3-0.6l-7.4-3.6l65.7-2.5l-9.3-3.5l-8.2-11.2l-34-2.5c0,0-2.6-2-6.7-1
		c-0.2-2.6-3.4-6-3.4-6l-21-1.7l-13,9l8.8,22.6L638.8,348.8z"/>
	
		<linearGradient id="path4168_2_" gradientUnits="userSpaceOnUse" x1="198.7597" y1="87.4465" x2="200.3597" y2="132.5465" gradientTransform="matrix(1.178 0 0 -0.5085 369.844 193.3559)">
		<stop  offset="0" style="stop-color:#474747"/>
		<stop  offset="1" style="stop-color:#FF5500"/>
	</linearGradient>
	<path id="path4168_1_" class="st3" d="M571.8,156l1.8-6c0,0,3-5,3-7.4c0-2.2,2.3-4.9,2.3-4.9s6.9-2,8.4,2.3
		c7.4-11.3,16.2-0.6,16.2-0.6l2.4-2.8l5-6c0,0,7,6.5,7,7.6c0.2,1.2,1.3,0.4,1.3,0.4l7.6-0.6c-0.5,3.1,0.6,6.1,2.9,8.2
		c2.7,1.6,5.1,11,5.1,11L571.8,156z"/>
	<path id="path4170_1_" class="st4" d="M638.8,226.1c1.4-0.8,5.5-2.1,5-8.2c-0.5-6-5.7-6.8-8.7-6.6s-5.5,2.8-5.5,2.8l-9.8-6.2
		c0,0,4.9-30.7,10-32.6c5-3.5,5.8-5,5.8-5.8c0-0.9-1.8-2.9-1.8-2.9l-31.7-3.7l-30,3.5c0,0-2.2,3.6-2,5c0.4,1.4,0.5,2.9,5.8,7
		c6,4.6,10,30.8,10,30.8s-8.3,4.2-8.9,3.6c-0.5-0.5-3-1-4.3-0.8s-5.7,2.5-5.7,8.2c0,5.8,4.4,9.1,4.4,9.1s28.6-3.3,32.9,4.6
		C608.4,224.4,635.6,227.7,638.8,226.1L638.8,226.1z"/>
	<path id="path4172_1_" class="st5" d="M669.7,194.2c0,0,0.3-3.3,2.7-4.9c2.4-1.6,18.2-2.4,22,0s5.2,14.1,5.2,14.1s2.4,4.1,2.6,7.2
		c0.1,3,0.5,5,0.5,5s12.6,16.5,12.8,31.4c1.4,10.1,1.1,37.2-2.9,47.5c0,7.5-1.9,14.8-5.5,21.3c0,0,1.3,2.2,1.1,4.6
		c-0.2,2.3-1.4,4.6-1.4,4.6l18.5,9.1l-6.8-2.5l6.8,5.7l-7.7-3.6l4.5,4.6c-0.1-0.2-11.2-5.1-11.2-5.1l5,4.7l-8.5-4c0,0,5,5.5,5,5.2
		c-2.4-1.2-4.9-2.2-7.4-3.2l0.4,2.7c0,0-5.8-0.3-5.8-4.6c-1.8-1-3.3-2.3-4.7-3.8l-13.2-2.2l-14.9-44.6l3.5-75.2l1-3.8L669.7,194.2z"
		/>
	<path id="path4174_1_" class="st6" d="M659.8,434.8c0,0-7.7-16-11.5-16.3c-3.4-6.6,12-60,41.7-63.1c16.3,1.3,1.3,18.8-9.4,13.4
		c1.6,4.1,3.9,8,6.7,11.5C687.3,380.3,666,389.5,659.8,434.8L659.8,434.8z"/>
	<path id="path4176_1_" class="st6" d="M557.5,437.1c0,0,6.3-18.3,10.1-18.5c3.9-0.2-10.1-60.9-40.6-61.3
		c-16.4,1.3-1.3,18.9,9.5,13.5c-1.7,4.2-4,8-6.8,11.5C529.7,382.3,551.2,391.5,557.5,437.1z"/>
	<path id="path4178_1_" class="st7" d="M585.4,323c0-0.2-7.6,2.3-2.7,10.5c0.3-3.2,3.7-5,3.7-5s-5.1,6,0.3,11.1
		c0.7-4.8,3.8-6.3,3.8-6.3s-3.9,11.2,0,13.5c0.5-4.5,3.3-6.5,3.3-6.5s-3.4,10-0.3,12.3c0.3-3.8,2.9-5.5,2.9-5.5s-1.5,10.5,2.5,11.2
		c0-3.7,3-7.3,3-7.3s-1.3,8.5,5,8.9c0-3.2,1.2-6.9,1.2-6.9s2.9,9,7,7.6v-7.7c0,0,2.7,8.6,7.7,7c-0.7-2.4,0.3-5.3,0.3-5.3
		s2.6,5.4,7.4,3.6c0.8-1.6-0.2-4.8-0.2-4.8s7,7.2,9,2.9c2.2-4.3-5.5-5.8-5.5-5.8h5.2c0,0-1.7-4.4-8.7-5.4c2.4-1,4.9-0.2,4.9-0.2
		s-1.5-5.5-8.7-6.1c2.8-1,6-0.3,6-0.3s-1-5.2-9-6.7c1.3-1.4,4.7-1,4.7-1s-3.2-4.9-6.8-4.6S585.4,322.9,585.4,323L585.4,323z"/>
	<path id="path4180_1_" class="st8" d="M617.4,349.5c0,0,3,1.4,2.8,2.6"/>
	<path id="path4182_1_" class="st8" d="M619.1,347.2c0,0,3.7,2.6,3.6,4.5"/>
	<path id="path4184_1_" class="st8" d="M622.4,345.9c0,0,2.9,1.8,3,4.7"/>
	<path id="path4186_1_" class="st8" d="M627.3,347c0,0,1.4,3.2,1,3.8"/>
	<path id="path4188_1_" class="st8" d="M630.2,348.7c0.2,2.5-0.2,2.8-0.2,2.8"/>
	<path id="path4192_1_" class="st8" d="M594,333c0,0,3.5,2.2,3.2,5.3"/>
	<path id="path4194_1_" class="st8" d="M593.8,335.6c0,0,1.6,1.6,1.3,2.6"/>
	<path id="path4196_1_" class="st8" d="M598.1,333c0,0,2.3,3.2,1.5,5.4"/>
	<path id="path4198_1_" class="st8" d="M602,335.1c0,0,1,2,0,3"/>
	<path id="path4200_1_" class="st8" d="M603.8,336c0,0,1.2,2,0.1,2.7"/>
	<path id="path4202_1_" class="st8" d="M602.4,342.6c0,0,3.2,0.7,3.7,3.1"/>
	<path id="path4204_1_" class="st8" d="M604.3,340.4c0,0,3.4,0.2,3.8,3.8"/>
	<path id="path4206_1_" class="st8" d="M608.8,339.1c0,0,2.3,4,1.9,5.2"/>
	<path id="path4208_1_" class="st8" d="M613.1,339.5c0,0,0.9,3.7,0.2,5"/>
	<path id="path4210_1_" class="st8" d="M615.9,341v4.3"/>
	<path id="path4212_1_" class="st8" d="M611.7,335.1c0,0,2,0.8,2,2.9"/>
	<path id="path4214_1_" class="st8" d="M613.6,333.2c0,0,2.7,1.5,2.5,4.5"/>
	<path id="path4216_1_" class="st8" d="M616.8,332c0,0,2.3,2.7,1.5,5.8"/>
	<path id="path4218_1_" class="st8" d="M620.8,332.6c0,0-0.8,3.5-0.4,4.9"/>
	<path id="path4220_1_" class="st8" d="M623.4,335c0,0-1.5,1.1-0.7,2.6"/>
	<path id="path4222_1_" class="st8" d="M610,348.4c0,0,0.5,2.6,0,3"/>
	<path id="path4224_1_" class="st8" d="M606.7,346.8c0,0,1.6,3,1,4.4"/>
	<path id="path4226_1_" class="st8" d="M603.1,346.7c0,0,1.9,2.2,1.8,4"/>
	<path id="path4228_1_" class="st8" d="M600.1,347.1c0,0,1.8,1.7,1.6,2.7"/>
	<path id="path4230_1_" class="st8" d="M598.6,349.7c0,0,1.7,1.8,1.6,2.1"/>
	<path id="path4234_1_" class="st2" d="M562.1,229.3l24.3-0.5c0,0,16,0,17.7,5.2c3-6.9,17-6.5,17-6.5l25-0.8l0.5,60.6
		c-5,23.6-22,40.2-40.7,47.3c-21.4-7.3-37.1-25.5-41.2-47.7L562.1,229.3L562.1,229.3z"/>
	<path id="path4236_1_" class="st9" d="M570.8,229l35.3,94.2l32-96.2c-10,0.6-31.2-1.6-33.9,7.5C600.2,226.4,577.8,229.6,570.8,229
		L570.8,229z"/>
	<path id="path4238_1_" class="st10" d="M594.8,280c1.4,0.7,1.3-25.5,3.1-26.3l1.4-5.5c-1.5-2.7-8.4-2.6-11-0.2l1.7,4.8
		C593.5,258.4,592.8,280.6,594.8,280z"/>
	<path id="path4240_1_" class="st11" d="M585.3,77c0,0,2.5-2.9,2.6-3.5c0.2-0.7,11.4-1.2,18-13.7c3.8-6.5,0-2.7,0-2.7l-0.1-3.1
		c0,0,4.6-4.4,3-6.8c-1.8-2.4-1.2,3-4,3c-2.7-0.1-1.2-6-1.2-6s-0.2-0.6-1-1c-1.1,0.2-0.8,2.2-1.8,2.4c-1,0.3-2-4.7-2-4.7
		s-1.7-2.3-3.1,4.8c0.8,7.7,5.6,6.2,5.6,11.2s-4.3,8.8-5.5,9c-1.3,0-0.8-4.3-0.8-4.3s-0.7-2-1.1-2c-0.5,0,2.5-0.5,2-6.1
		c-1-6.8-1.8,1.6-3.6,1.2c-1.9-0.3-0.5-6.2,0.2-7c0.7-0.6-0.8-3.4-4.8,3.8c-0.3,3.6-0.8-0.9-1.6-0.6c-1.3,2.8-1.1,4.8,0.8,7.4
		c2.9,2.7,4.7,5.3,4.6,6.6c-0.1,1.4-1.6,4.5-3.7,4.5c-2,0,0.1-3.8,0-5c0-1.3-3.5-5.8-3.5-5.8s-2.4-3.9-2.1-4
		c0.2-0.1-0.3-0.7-1.4,3.3c-1.1,4-2.5-2.6-2.5-2.6s-1.6,4.9,1.8,7.8c-2.6-0.3-2.8,0.7-2.8,0.7c0,1.4,3.5,2,4,4.3
		c0.4,2.4-3.7,3.8-3.7,3.8s1.7,2.3,6.5-2.3c0.1,3-1.8,5-1.8,5c1.6,0.7,2.8,0.6,3,2.5V77z"/>
	<path id="path4242_1_" class="st12" d="M569.8,77c0,0-2.2-3.2-2.3-3.8c0-0.6-10.4,0.8-15.3-11.8c-3.2-6,0-2.5,0-2.5l0.2-2.9
		c0,0-3.4-4.1-2-6.3c1.5-2.2,1,2.8,2.8,2.8c2.3-0.1,1-5.4,1-5.4s0.2-0.6,1-0.9c0.9,0.1,1.3,3.2,2.1,3.4c0.9,0.2,2.7-3.6,3.3-4.4
		c0.8-0.1,0.7-3.2,2,3.3c-0.7,6.9-6.4,5.5-6.4,10c0,4.6,3.6,8.1,4.7,8.2c1,0.2,0.7-3.8,0.7-3.8s0.6-1.8,1-1.8c0.3,0-3.4,0.7-3-4.5
		c0.8-4.8,2.7,0.3,4.3,0c1.5-0.3-0.2-5,0.2-5.8c0.1-0.8,2.4-3.9,3.3,3c0.3,3.3,2-2.7,2.7-2.5c1.2,2.6-0.5,6-2.1,8.4
		c-2.4,2.4-3.5,5-3.4,6.2c0,1.3,0.6,2.8,2.4,2.8c1.7,0,0.5-2.2,0.6-3.3c0.1-1.1,3-4.8,3-4.8c0.6-1,0.1-2.6,0.7-3.4
		c1,0,1.4-1.3,2.3,2.3c1,3.6,2.1-2.4,2.1-2.4s1.4,4.5-1.5,7.2c2.2-0.3,2.4,0.6,2.4,0.6c0,1.2-1,1.7-1.4,4c-0.2,1.2,0.2,2.5,1.1,3.3
		c0,0-1.4,2.2-5.5-2c0,1.6,0.6,3.2,1.6,4.5C571,75.4,570,75.3,569.8,77L569.8,77z"/>
	<path id="path4244_1_" class="st13" d="M632.1,243c-2-1.8-2.3-0.2-3.4-0.6c-0.5-0.2-0.9-0.7-1.3-1.1c-0.4-0.4-0.9-0.6-1.4-0.8
		l-0.6,1.7c-0.2,0.6,0.6,1.5,0.6,2.4c-0.2,1.3-0.7,2.3-2.3,2.7c0.5-0.9,0.7-0.9,0.6-2c0-0.5-1.6-1.5-1.4-2c0.2-0.9,0.7-1.8,0.4-2.7
		c-0.7,0.5-1.5,0.2-2.2,0.5c-0.5,0.3-0.6,1.3-1.3,1.7c-0.8,0.4-2.5,0.2-4-0.6c0.9-0.7,1.6-0.2,2.5-1c0.4-0.2,0.4-1.7,0.9-2l1.9-1
		c-0.4-0.5-0.4-1.2-0.8-1.6c-0.4-0.5-2.1-0.4-2.5-0.8c-0.8-1-0.7-2.1-1.4-3c2,0.7,1.7,1.7,2.2,1.6c1-0.5,2-0.5,2.5-0.3
		s1.4,1.5,2,1.7l0.6-1.9c0.2-0.6-0.8-1.5-0.7-2.1c0.4-1.1,1.4-2.1,1.8-3.3l0.4,3.1c0.1,0.6,1.2,0.9,1.2,1.4c0.1,0.6-0.5,1.8-0.5,2.4
		c0.6-0.1,1.5,0,2-0.2c0.7-0.1,1-1.5,1.6-1.6c1.2-0.2,2-0.1,3.3,0c-1,0.9-1.6,0.8-2.1,1.6c-0.5,0.3,0.1,1.4-1.1,2.2
		c-0.5,0.3-1.8,0-2.2,0.3l1.2,1.3c0.4,0.5,2.1,0.7,2.5,1.2C631.9,241,632.3,242.2,632.1,243L632.1,243z"/>
	<path id="path4246_1_" class="st13" d="M577.8,244c2-1.9,2.3-0.2,3.4-0.7c0.5-0.2,0.9-0.6,1.3-1c0.4-0.5,0.9-0.6,1.4-0.9l0.6,1.8
		c0.2,0.5-0.6,1.5-0.6,2.3c0.2,1.3,0.7,2.3,2.3,2.8c-0.5-1-0.7-1-0.6-2c0-0.6,1.6-1.6,1.4-2.1c-0.2-0.8-0.7-1.8-0.4-2.6
		c0.7,0.4,1.5,0.2,2.2,0.4c0.5,0.3,0.6,1.3,1.3,1.7c0.8,0.4,2.5,0.2,4-0.6c-0.9-0.7-1.6-0.2-2.5-0.9c-0.4-0.3-0.4-1.8-0.9-2
		c-0.4-0.4-1.5-0.8-1.9-1.1c0.4-0.5,0.4-1.2,0.8-1.6c0.4-0.5,2.1-0.4,2.5-0.8c0.8-1,0.7-2.1,1.4-3c-2,0.7-1.7,1.7-2.2,1.6
		c-1-0.4-2-0.5-2.5-0.3s-1.4,1.5-2,1.7l-0.6-1.9c-0.2-0.5,0.9-1.5,0.7-2c-0.4-1.2-1.4-2.2-1.8-3.4l-0.4,3.2
		c-0.1,0.5-1.2,0.8-1.2,1.3c-0.1,0.6,0.5,1.9,0.5,2.4c-0.6-0.1-1.5,0-2-0.2c-0.7,0-1-1.4-1.6-1.6c-1.2-0.2-2-0.1-3.3,0.1
		c1,0.8,1.6,0.8,2.2,1.5c0.4,0.4-0.2,1.5,1,2.2c0.5,0.3,1.8,0,2.2,0.3l-1.2,1.4c-0.4,0.4-2.1,0.6-2.5,1C578,242,577.6,243,577.8,244
		L577.8,244z"/>
	<path id="path4248_1_" class="st14" d="M630.2,249.2c-1.9,1.5-14.3,4.6-14.4,15.3c-0.1,10.8,2.2,13.2-0.1,13.5
		c-4.5,0-5.1-12-5-17.3c0.1-5.3,0.3-4.5,0.3-4.5s3,0.8,2.8,3.4c-0.3,2.6,3-6.4,1.9-8.8c2,2,4.7,1.2,4.7,1c0,0-1.5-1.7-2.2-3
		c-0.6-1.1,2.3,0.8,2.3,0.8s0.2-2-2.4-2c-3.3,0,0.5-1,0.5-1s2,1.7,3.2-0.2c-1-1-2.1-1.8-3.4-2.3c0,0-1.8-3.4-4.2-4
		c-2.8-0.7-2.5,1.2-5.7,0.9c-0.6,1.2-0.6,1.4,0.7,1.8c-2.2,1.5-1,4.4-1,4.4s3.4-1.4,3.3,1c-0.1,2.5-2,2-3.3,0.5
		c-1.2-0.6-1.6,0.7-1.6,0.7l1.8,2c0,0-3.4-0.2-4.3,2.1c1.9-0.1,3,0.4,3,0.4s-4,1.8-4.4,2.7c-0.4,1-0.5-1-0.7-1l-3.8-1.4l-1.3,5.9
		c0,0,2.6,2.5,4,1.7c1.4-0.8,4-3.3,5.5-2.6c-4.5,3.4-9,8.3-11.4,9c-0.6-0.6-2.8-2.7-3.7-1.6c-0.9,1-0.2,2.4,1,2.3
		c1-0.2-3.8,1-2.8,3.1c1,2,1,1.9,1.8,1.4c1-0.6-0.7-0.7,2.6-1.7c3.3-1,3.2-1.9,3.2-1.9s-0.7,1.5-2.5,2c-1.7,0.3-3.1,0.3-2.8,0.9
		c0.4,0.5,1.2,1.5,1,2c-0.3,0.6,3.6-2.8,4.7-0.1c2.6-0.2,4.4-3.4,3.1-5.3c0.2,2,1.4,2.7,0.7,3.7c-0.8,0.9,6-3.2,2.7-5.6
		c0.8,2,1,3.6,1,3.6s1.5,0,1.9-0.6c0.4-0.6-0.8,1.5-0.3,1.9s3,2.7,2,4.3c-0.7-1-0.8-2.4-1.6-2.3s-4,2.5-5.9,2.6
		c-1.9,0.1,2.3,7,2.3,7s-2.9-0.3-3.3,0c-0.4,0.2-2.3-2.5-2.6-0.9c-0.7,2,0.6,1.2,0.6,1.2s-1.7-0.8-2.6,0.2c-0.9,1-1.7,1.9-1.1,2.3
		c0.6,0.4,3.4,0.4,3.8,0.3c0.4-0.2-3.2,0.2-3.4,0.6c-0.3,0.4-0.8,2,0,2.5c0.7,0.5,2.7-0.3,2.8-0.7c0.1-0.4,0.2,1.5,0.2,1.5
		s3.3,0.3,3.3-3.1s0.3,2.4,0.3,2.4s3.3,0.6,3.4-2.8c0.2-3.4,0.4,2.3,0.4,2.3s2.2-0.7,2.2-1.2c0-0.6-0.1,6.7-1.7,8.8
		c-2.4-1.6-4,1-4,1s0.2,4,0,5c-0.3,1,1.6-0.6,1.7-1c0.2-0.4,2.5-1.5,2.6-1.7l0.8-1.7c0,0-0.6,2-1.4,2.2c-1,0.3-1.8,1.2-1.4,2
		c0.3,0.9,1.7,1.4,2.2,2.2c0.6,0.8,2.3-4.7,2.3-4.7l0.2,1.2c0,0,2.3-0.6,2.5-1.7c0.3-1-2.4-2-0.2-3.8c2.1-1.7,0,1.7,0,1.7
		s0.7,2.6,1.2,2.6c0.6,0,1.8-5,0.6-6.2c-1.3-1.2,1.9,1.5,1.9,1.5s1.8-5-0.2-5.7l-2.8-1c0,0,1-1.3,0.5-1.4c-0.5-0.2,2.7,3,3.2,2.1
		c0.5-0.8,1.3-3.2-2.4-4.6c-3.7-1.3-0.1-5.1-0.1-5.1s2.3,2.7,4,1.2c1.6-1.5-0.2-1.5-0.2-1.5s4.7-3,4.9-4.5c-1-0.1-2.5,0.1-2.5,0.1
		s2.7-1.7,2-4.6c-1,1.5-2.4,1.5-2.4,1.5s2.3-2.3,2-4.5c-1.4,1.1-1.3,2-2.2,1.7c-0.9-0.3-2.4-8.9,1.1-9.4c3.6-0.6,1.7,4.2,1.8,4.2
		c0.2,0,5.4-2.2,0-5.7c1.3-0.4,4,2,4,2s-1.2-6-7-2.3c1.5-1.5,2.4-2.4,3.5-2.2c1.2,0.3,5.3-0.1,5.3-1.3c-1-0.8-3.2,0.4-4.4,0
		C621.7,254.5,631,253.8,630.2,249.2L630.2,249.2z"/>
	<path id="path4250_1_" class="st15" d="M589.8,252.7c0,0,5.1-2.9,7.6,0.7"/>
	<path id="path4252_1_" class="st15" d="M599.5,258.8c-0.1,0-1.8,1.8-2.2,1.8"/>
	<path id="path4254_1_" class="st15" d="M602.9,264.5c0,0,4.8,0.4,7.8-4.6"/>
	<path id="path4256_1_" class="st15" d="M608,263c0,0,0.4,2.7,1.2,2.7c0.7,0-1.3,0.7-2,0.2c0.8,1.2,1.3,3.4,0,4.2"/>
	<path id="path4258_1_" class="st16" d="M605.6,297.3c0,0-1.6,1.9-3.7,2"/>
	<path id="path4260_1_" class="st15" d="M607.5,288.6c0,0-1-5.5-0.4-6.8c0.4-1.8,2-2.5,3.4-4.8"/>
	<path id="path4262_1_" class="st15" d="M607,284.6c0,0-1.3,3.3-6.9,2.2"/>
	<path id="path4264_1_" class="st15" d="M608.5,276.5c0,0,0.4,4.3-4.7,2.7"/>
	<path id="path4266_1_" class="st15" d="M602.3,257c0,0-2,1.8-1.3,4.4"/>
	<path id="path4268_1_" class="st17" d="M609.9,252.1c0,0,2.7-1,3.2-1.6c0.7-0.7,1.3-1.5,1.7-2.4c0.2-0.8-1.8-2-0.8-3.8
		c0.7-0.9,1.6-1,3,0c1.6,1-1.3-3-2.8-3.2c-1.6-0.1-2.6,1.1-3,0.8c-0.4-0.2,0.1,1.1-0.5,1.1c-0.6,0,1.3,1.1,1.2,1.8
		c-0.2,0.7,2,3,1.9,3.5C613.6,248.9,610.6,252,609.9,252.1L609.9,252.1z"/>
	<path id="path4270_1_" class="st18" d="M611.8,243.2c1.2-0.3,1.4,0,1.2,1c-0.4-0.2-0.8-0.6-1.1-1H611.8z"/>
	<path id="path4272_1_" class="st19" d="M603.8,303.7c0,0-0.5,2.9,0.5,3.1c0-1,0.3-1.8,0.5-2.1L603.8,303.7z"/>
	<path id="path4274_1_" class="st19" d="M601.3,300.2c-1-0.1-2.5,0.8-2,1.8c0.7-0.7,1.4,0,2-0.7V300.2L601.3,300.2z"/>
	<path id="path4276_1_" class="st19" d="M601.3,298.2c0,0-1.5-0.2-1.7,0.9c1-0.2,1.4-0.3,1.7,0V298.2z"/>
	<path id="path4278_1_" class="st20" d="M594.9,282.2c0,0,1,0.3,1.2,1.3C596.8,283.1,597.1,280.9,594.9,282.2z"/>
	<path id="path4280_1_" class="st20" d="M592.6,284.6c0,0,2-1.2,2.1,0c-0.4,0.3-0.5,0.6-0.8,0.7
		C593.6,285.3,593.1,284.5,592.6,284.6L592.6,284.6z"/>
	<path id="path4282_1_" class="st20" d="M592.5,288.5c0,0,1.2-1,1.6-0.4c0.5,0.8-0.4,0.7-0.4,0.7L592.5,288.5L592.5,288.5z"/>
	<path id="path4284_1_" class="st20" d="M590.8,266.6c0,0-1.5-0.6-2.1,0.5c1,0.2,1.3,0.5,1.8,0.9
		C590.3,267.5,590.1,266.8,590.8,266.6L590.8,266.6z"/>
	<path id="path4286_1_" class="st20" d="M587.9,274.9c0,0,0-1.9,1-2.6c0.4,0.3,0.5,0.7,0.8,1.2C589.1,273.7,588.3,273.7,587.9,274.9
		z"/>
	<path id="path4288_1_" class="st20" d="M591.8,273.6c0,0-1.6,0.8-1,1.7c0.5-0.7,1.1-0.5,1.1-0.5v-1.2H591.8z"/>
	<path id="path4290_1_" class="st21" d="M589.5,255.8c-0.6,0.7,0.7,2.2,2.1,2c0.4-1.6-1.7-2.5-2-2L589.5,255.8z"/>
	<path id="path4292_1_" class="st22" d="M589.5,252.6c-0.3,0.8,0.9,1.9,1.5,1.6C591.3,253.4,589.8,252,589.5,252.6z"/>
	<path id="path4294_1_" class="st20" d="M591,254.6c0,0,0.3,1.3,1.5,1c-0.2-0.7-0.5-1.4-1-1.9C591.5,254,591.6,254.5,591,254.6z"/>
	<path id="path4296_1_" class="st20" d="M591.8,258.3c0,0,0.7,0.8,2-0.7c-0.6,0.1-1.6-0.4-1.6-0.4S592.2,258.2,591.8,258.3z"/>
	<path id="path4298_1_" class="st21" d="M589.4,252.8c-0.5,0.7,0.3,1.7,1.7,1.5C591.4,252.6,589.8,252.3,589.4,252.8z"/>
	
		<linearGradient id="path4300_2_" gradientUnits="userSpaceOnUse" x1="215.2729" y1="54.038" x2="215.3729" y2="33.238" gradientTransform="matrix(0.9607 0 0 -0.6235 392.0117 269.3647)">
		<stop  offset="0" style="stop-color:#B50000"/>
		<stop  offset="1" style="stop-color:#FFC500"/>
	</linearGradient>
	<path id="path4300_1_" class="st23" d="M590,246.3c0,0,5.5-1.6,8.4,0.8c3,2.3,3,0.2,3,0.2s4.2,1.6,5.4,1.2c1.2-0.3-0.9,0.2,0.8-0.9
		c1.7-1-3.4,0.3-3.8-1.9c-0.8-1.3,0-3-1.7-2.4c-1.2-1.6,0.8-2.7,0.3-4.4c-1.2,1-1.9-0.3-2.9,2c-2.3-0.5-0.3-3.8-2.9-4.1
		c0,2.3-1.9,2.4-2,3.8C593.5,241.4,588.6,244.3,590,246.3L590,246.3z"/>
	<path id="path4302_1_" class="st24" d="M526.8,425c3.6-1,22.9,4.2,30.3,12.2c-1.6-14.3-5.5-25.1-5.5-25.1s-11.5-3.3-13-1.7
		c-4.5,4.4-8.4,9.2-11.8,14.5V425z"/>
	<path id="path4304_1_" class="st24" d="M520.9,359.3c-1.3,0.2-2.7,1.1-4,3.4c-1.6,3.8-2.7,13.5-5,15.8c-2.2,2.2-4.3,2.4-4.3,4.5
		c0,2,0.3,6.7,6.3,8.5c6.1,0.3,15.8-9.7,15.8-9.7s5-5.4,7-11.2C525,374.6,516.7,363.8,520.9,359.3L520.9,359.3z"/>
	<path id="path4306_1_" class="st24" d="M690.5,422.7c-11.2,0.7-21.8,5-30.4,12.1c1.6-14.1,5.5-25,5.5-25c1.3-0.3,11.3-3.2,12.8-1.6
		C680.7,410.6,688.1,417.9,690.5,422.7L690.5,422.7z"/>
	<path id="path4308_1_" class="st24" d="M696,357.4c1.3,0.2,1.8,2,3,4.2c1.5,3.9,3,9.4,5.3,11.6c2.3,2.3,4.3,5.6,4.3,7.6
		s-0.5,4.8-6.5,6.6c-6,0.2-14.8-7.6-14.8-7.6s-5-5.3-7-11.2C692,372.6,699.5,362.3,696,357.4z"/>
	<path id="path4310_1_" class="st6" d="M514.2,412.5c0,0,12.1,8.4,12.4,12.2c32.7-48.5,116.1-63.6,163.7-3.4
		c6.3-8.3,12.8-11,12.8-11c-50-65.4-149.7-57.3-189,2.2L514.2,412.5z"/>
	<path id="path4312_1_" class="st25" d="M638.2,227l4.8-0.1l-8.5,10.8l10.2,11.9l-20.1,25.3l19,22.8c-1.9,5-4.6,9.7-7.8,14l-10.9-12
		l19.9-24.7l-16.2-18.4L638.2,227z"/>
	<path id="path4314_1_" class="st25" d="M570.1,229.2h-5l9.5,10.4l-10.1,12.6l21,22.8l-17.4,23.3c2,5,5,10.8,8.3,15l10.3-13.1
		l-21.2-23.6l15.5-19.7L570.1,229.2z"/>
	<path id="path4316_1_" class="st25" d="M593.8,290.4l-7.6,10l26.8,31c4.8-2.4,8.5-5.1,12.5-8.4l-14-16.1l5.7-16.7l8.2,9.4
		l-25.5,32.6c-4.3-1.8-9-4.6-13.3-8.2l13.5-17.1L593.8,290.4z"/>
	<path id="path4318_1_" class="st25" d="M585.5,274.9l4.8,6.1l-3.1-8.3L585.5,274.9z"/>
	<path id="path4320_1_" class="st26" d="M620.4,280.3l4-5.2l-1.5-2L620.4,280.3z"/>
	<path id="path4324_1_" class="st27" d="M676.8,195c0,0,4.8-4,8.1-4"/>
	<path id="path4326_1_" class="st27" d="M677.5,194.5c0.1-0.1,28.1-4,29-5"/>
	<path id="path4328_1_" class="st27" d="M677.6,194.7L709,192"/>
	<path id="path4330_1_" class="st27" d="M677.5,194.8c0,0,33.3-1.5,35.3,0.2"/>
	<path id="path4332_1_" class="st27" d="M677.4,194.7c0,0,32.6,0.3,33.2,1"/>
	<path id="path4334_1_" class="st27" d="M677.5,194.7l31.4,2.6"/>
	<path id="path4336_1_" class="st27" d="M677.2,195c0,0,32,2.8,35,6.8"/>
	<path id="path4338_1_" class="st27" d="M713.9,207.5c0-0.1-10.8-12.9-36.8-12.7"/>
	<path id="path4340_1_" class="st27" d="M677.2,195c0,0,18,1.3,23.7,7.6"/>
	<path id="path4342_1_" class="st27" d="M677.5,194.8c0,0,11.7-2.2,23.9,12.5"/>
	
		<linearGradient id="path4346_2_" gradientUnits="userSpaceOnUse" x1="553.8026" y1="363.2143" x2="602.3026" y2="365.2143" gradientTransform="matrix(0.4361 0 0 -1.3735 445.5178 765.0255)">
		<stop  offset="0" style="stop-color:#D5DFFF"/>
		<stop  offset="1" style="stop-color:#FFFFFF"/>
	</linearGradient>
	<path id="path4346_1_" class="st28" d="M670.2,208.2c0,0,16.1,0.6,16.1,2.2s-12,4.6-12.2,11.2c-0.1,6.7,9.2,7.2,9.9,15.6
		c0.6,8.4-7.3,9.6-9,11.9c-1.5,1-5.3,13-4.8,20c0.5,6.9,2.5,30.5,6.2,35.3c2.8,2.2,7,9.3,11.7,7c4.6-2.1,1.4-10.2,1-12.4
		c-0.5-2.2,1.8-5.9,1.8-9.2c0-3.4-1.7-6-1.5-6.8c0.1-0.8,12.8,3,12,15.5s-5.9,8.7-5.9,8.7s1.6,15.4-2.3,17.4
		c-7.2,3.8-12.4-0.8-12.4-0.8l0.7,3.2l-5.5-2.8c0,0-7-10-8.5-14.5c-2-9.4-3-18.9-2.9-28.5c0.7-4.3,1.1-29.3,0.8-30.6
		c-0.3-1.2-1.6-22.1-0.8-25.3S670.3,208.2,670.2,208.2L670.2,208.2z"/>
	<path id="path4348_1_" class="st29" d="M652.8,204c0,0,11.2-10.9,17.7-9.6c3.3,0,0.2,2.4,0.2,2.4s5.7,0.4,6.5,3
		c0.1,1-2.7,1.4-2.7,1.4s2.3,0.5,2.5,2.5C677.2,205.8,653,204.2,652.8,204L652.8,204z"/>
	<path id="path4350_1_" class="st30" d="M653.4,203.6c0,0,12-1.6,17.1-6.7"/>
	<path id="path4352_1_" class="st30" d="M665.6,200.3c0,0,8.9-0.4,8.9,1"/>
	<path id="path4354_1_" class="st31" d="M697.1,329.9c0,0,7.6-1.8,9.7-4.5C708,324.4,714.7,335.4,697.1,329.9z"/>
	<path id="path4356_1_" class="st32" d="M695.1,267c0,0,1,5.8-1.8,9.8c-1.4,1.6-5.7,4.3-5.7,6.2c0,1.9,1.6,4.4,1.3,6.6
		s-2.7,4.5-2.6,6.4c0,1.9,2.7,12,2.4,12.2"/>
	<path id="path4358_1_" class="st32" d="M681.1,248c0,0-6,2-7.3,8"/>
	<path id="path4360_1_" class="st33" d="M678.6,200.3c0,0,2,5.7,8.7,0.3C683,194.7,678.6,200.4,678.6,200.3z"/>
	<path id="path4362_1_" d="M683.5,200c0,0.3-0.3,0.6-0.7,0.6s-0.7-0.3-0.7-0.6s0.3-0.5,0.7-0.5S683.5,199.7,683.5,200z"/>
	<path id="path4364_1_" class="st2" d="M624.2,187c0,0,12.6,13.7,20.7,13.5c1.5,4-3.7,7.8-5.7,9.5c-4.2-1.3-8,0.3-17.6-11.6
		C622.2,190.8,624.3,187.4,624.2,187L624.2,187z"/>
	<path id="path4366_1_" class="st2" d="M641.2,155.2c1.7-5,5-9,7.8-9.5c-0.8-3.8,5.9-20.9,25.3-27.4c1.2,8.7-8.3,17.4-8.3,17.4
		s28.7-5,34.5-12.2c-0.6,3.2-6.4,23.6-37,23.4c11.6,11-3.7,19.8-10.2,17.1C665.3,154.8,649.8,149.3,641.2,155.2L641.2,155.2z"/>
	<path id="path4368_1_" class="st34" d="M651,148.1c5.8-3.7,7.9-3.7,12.7-3l-3.5,0.6c0,0-0.3,0.5,1.8,2.4
		C659.6,147.5,657.6,146.1,651,148.1z"/>
	<path id="path4370_1_" class="st30" d="M648.8,145.7c0,0,11.4-6,17.8-10.2"/>
	<path id="path4372_1_" class="st35" d="M639,210c0,0,15.7,4.3,17.5-18.2c-3.4-9.8-8.1-31-0.9-37c-6.6-4.6-14,0.2-14,0.2
		c-0.4,1-6.3,9.5,1.7,24.3c-19-5-11.3,13-11.3,13c0.8-3,10.9-5.6,13.4,8.8c1,3.6-6.8,9-6.4,9V210z"/>
	<path id="path4374_1_" class="st35" d="M656.7,192c0,0,16.6-9,16.2-30c-14.2,0.4-19.2,18.6-19.2,18.6L656.7,192z"/>
	<path id="path4376_1_" class="st2" d="M582.1,190.9c0,0-12.3,10.7-19.3,7.3c-5.1,3-11.2-2.4-11.2-2.4s7,26.3,32.6,7.3
		c-0.2-4.1-0.9-8.2-2-12.2L582.1,190.9z"/>
	<path id="path4378_1_" class="st35" d="M562.7,197.7c1-5.5,5.3-8.2,8.8-3c4.6,1,9.2-18-7.2-14.8c4.6-24.7-9.2-33.9-9.2-33.9
		s-4.9,27.4-2.6,32.4c2.2,5-3.3-9.3-21-13.4c-0.3,20.7,19.8,30.3,19.8,30.3S556.9,200.5,562.7,197.7L562.7,197.7z"/>
	<path id="path4380_1_" class="st30" d="M564.3,179.7c0,0-7.7,6.6-6,15.5"/>
	<path id="path4382_1_" class="st30" d="M552.6,178.9c0,0-1.8,6.3,2,15.4"/>
	<path id="path4384_1_" class="st30" d="M551.4,196.4c0,0,3.6-5.8,11.3,1.6"/>
	<path id="path4386_1_" class="st2" d="M552.9,156.3c0-0.2-11.7,0-4.8,11.9c-5.1,1.6-16.7-6-8.7-16c-26.3-0.7-37-13.3-37-24.9
		c7.7,8,26.2,4.8,32.7,9.7c-8-7.4-6.4-17.7-6.4-17.7s22.4,6.7,26.4,26.6C553.8,149.8,553.2,156.6,552.9,156.3z"/>
	<path id="path4388_1_" class="st30" d="M534.8,136.5c4.4,4.4,15.5,5.7,21.1,10.6"/>
	<path id="path4390_1_" class="st36" d="M540,149.5c0,0,9.2-1.2,11.9,2c-3.6,0-4.8-0.9-10,1c1.4-0.7,1-2,1.8-2
		S540.4,149.5,540,149.5L540,149.5z"/>
	<path id="path4392_1_" class="st37" d="M585.8,77.5c0,0,5.1-4.5,10.6-0.5c-2.5,7.4-11.4,4.6-11.4,4.6s0.3,3.7-0.6,5.5
		c1.8,1.4,3.2,5.8,3.2,5.8s9.2-2.2,11.2,1.8c3.5-0.5,6,0,6,0s7.2-1.8,9.7-1.8s10.5,2,11.3,3.6c0.7,1.4,3.4,11.4,5.2,11.2
		c1.8-0.1-4.3,2.4-6-0.1c-1.6-2.5-1.1,3.3-1.1,3.3s5,5.3,5.6,6.5c0.6,1.2-3.1,10.8-0.3,17.5c-2.5,0.2-2.7,2.8-2.7,2.8
		c-0.1,3-3.8,3.7-3.8,3.7l-1-4l-2.4,1.5l1-3.1c0,0,3.4-8.3,3.7-11s-3.1-7.4-5.8-7.4s-4.6,8.5-4.6,8.5s-1.3,6.3-0.9,7l-1.8-2.1
		c0,0-1.1,3.8-2,5c-1,1.2-2.9,1.6-2.9,1.6s-1.3-3.8-0.8-5.3c0.4-1.5,7.2-7.3,6.6-11.4c-0.6-4.2,0-3.2-0.1-3.3
		c-0.2-0.2-3.6-3.1-3.7-4.8c-0.2-1.6-4.5,2.1-10.1,1c-1.7,3-2,10.5-2,10.5s-0.5,9,0.6,10c1.2,1.1-3,3.3-3,3.3l-2.9,4l-1-2.3
		l-2.1,1.5l1.2-3c-0.1-2.3,2.9-8.4,2.9-13.6c0-5.2,0.3-10.8,0.3-10.8s-5.4-0.3-5.3,5.4c0.1,5.6-1.3,6-1,7.5c0.3,1.7,1.7,6.3,1.3,7.6
		c-0.4,1.4-2.2,1.8-2.2,1.8l-0.5,0.7c0,0-5.5,2.6-5.3,3.6l-0.2-3l-0.3-4.3c0,0,3.3-2,3.3-7.2c0-5.2-0.7-6-0.6-7.2
		c0.1-1.2,0.9-5.5,0.7-6c-0.1-0.4-3,1.3-4,1.3c-0.9,0,1.7-3.1,2-5.4c0.3-2.2-3,2.1-5.7-0.4c1.3-2.7,3.1-3.6,3.4-5.6
		c0.3-2.1-2,1.7-4.1,0.2c0.2-2,2.2-3.7,2.2-3.7s-1.7-0.2-2.4,0c-1.3-0.4,1.5-2.5,1.7-5.5c0.1-3-1.7-4.1-1.7-4.3c0-0.1-3-2.6-3.4-3.7
		c-0.4-1-0.4-2.2-0.4-2.2s-5,3.6-10.7-4c5.3-4.5,11-1.2,11-1.2s1.5-4.2,8.3-3.9c6.8,0.3,8.2,4.2,7.9,3.8H585.8z"/>
	<path id="path4394_1_" class="st35" d="M623.2,154.2c0.1,0,12.6,0.4,12.7,7.1c0.2,6.7-3.8,5-4,5l-9-1.2L623.2,154.2z"/>
	<path id="path4396_1_" class="st38" d="M611.1,152.4c0,0,15.6-0.1,14.7,6.7c-0.9,6.8-4.8,5.4-4.8,5.4l-7.6-0.6L611.1,152.4z"/>
	<path id="path4398_1_" class="st35" d="M602.3,151.7l9,0.7c0,0,5.5,0.7,5.2,6c-0.2,5.1-5.5,5.2-5.5,5.2l-8.8-0.5L602.3,151.7z"/>
	<path id="path4400_1_" class="st2" d="M581.2,154.2c-0.2,0-12.6,0.4-12.8,7.1c0,6.7,3.9,5,4,5l9.1-1.2L581.2,154.2z"/>
	<path id="path4402_1_" class="st35" d="M593.3,152.4c0,0-15.6-0.1-14.7,6.7c0.8,6.8,4.8,5.4,4.8,5.4l7.5-0.6L593.3,152.4z"/>
	<path id="path4404_1_" class="st2" d="M602.1,151.7l-9,0.7c0,0-5.5,0.7-5.3,6c0.3,5.1,5.6,5.2,5.6,5.2l8.8-0.5L602.1,151.7z"/>
	<path id="path4406_1_" class="st39" d="M626.2,226.7c0,0,6.5-9.5,9.3-8.5c2.4,0.8,0.5,8.2-0.6,8.9L626.2,226.7z"/>
	<path id="path4408_1_" class="st39" d="M581.8,228.4c-2.1-2.8-5-10.7-7.8-8.5c-2.4,0.8-0.6,8.2,0.6,8.9L581.8,228.4z"/>
	<path id="path4410_1_" class="st30" d="M586,209.5c0,0,12.7,7.8,16.8,8c4.2,0.2,17.3-10.1,17.3-10.1"/>
	<path id="path4412_1_" class="st39" d="M587.3,179l2.4-3l12.1,6l12.4-5.5l2.4,2.6l-13.8,9.7L587.3,179z"/>
	<path id="path4414_1_" class="st40" d="M577.6,178.8c4.7,5.4,8.2,11.8,10.3,18.7c1.4,7.9-0.8-10.9-0.8-10.9s9.7,4.8,10,7.8
		s4.6-0.2,4.8-0.7l-28-18.2L577.6,178.8z"/>
	<path id="path4416_1_" class="st40" d="M625.6,178.3c0,0-10.2,13.4-9,28c-2.1-7-0.4-18.5-0.4-18.5l-2.2,1.4c0,0-2.4,9.9-5.3,11.4
		c-0.5-1.2-0.4-1.6-0.4-1.6s-3.1,4-3.7,4.4c-0.6,0.4,0.2,13.7,0.2,13.7s1,9.6,2.2,9.5c-1,0.5-2,1.1-3,1.7l-1.3-25.6l2.9-2.9
		c0,0,3.8-4.7,4.1-9.2c-1.6,1.4-3.5,1.8-3.5,1.8s-0.5,6.5-2,7.4c-1.6,1-1.6,2.6-1.6,2.6l-0.4-8.5L625.6,178.3z"/>
	<path id="path4418_1_" class="st41" d="M602.2,193.8l2,40.5"/>
	<path id="path4420_1_" class="st30" d="M577.3,213.2c0,0,4.7,2.7,6.4,11c15.2-1.1,20,4.2,20,4.2s12.4-6,18.2-4.8
		c2-4.3,7.8-9.7,7.8-9.7"/>
	<path id="path4422_1_" class="st42" d="M571,173.5l31.2,20.4l28.2-18.9c0,0,5.8-3.2,5.3-5.5c-0.5-2.4-2.5-1.5-3.5-1
		c-1,0.3-29.5,20.5-29.5,20.5l-30.2-19.2c0,0-2.2-0.7-2.6,0.8C569.5,172,570.7,172.8,571,173.5z"/>
	<path id="path4424_1_" class="st40" d="M626.8,168.2c0,0-8-3.4-8-0.5c0,3,0.3,3.3,1.6,5.2c1.3,1.8-1,3-1,3l-0.8-2
		c-0.4-1.3-4.7-2.2-5-3.8c-0.5-1.5,0.8-3.9-1.7-4.2c-2.6-0.3-5.1,1-5.6,4c-1,3.4-2.3,6.7-3.9,9.8l0.5-15.6c5.6,0.4,16,1.6,24.1,2.6
		c-2.4-0.4,1,0.1,0.8,1C627.6,168.3,626.8,168.4,626.8,168.2z"/>
	<path id="path4426_1_" class="st40" d="M598.6,164.3c-3.5,0.1-7,0.8-10.4,1.9c-1.8,1,3,2.7,2.3,4c-0.6,1.5-0.7,4.4-3,3.8
		c-2.2-0.6-9.8-4.4-10-5.7c-0.3-1.2-1.8-1.3-1.8-1.3S597.5,164,598.6,164.3z"/>
	<path id="path4428_1_" class="st30" d="M602,162.5v19.1"/>
	<path id="path4430_1_" class="st30" d="M587.3,139.9l-9,14.6"/>
	
		<linearGradient id="path4432_2_" gradientUnits="userSpaceOnUse" x1="350.4146" y1="382.4768" x2="363.6146" y2="382.4768" gradientTransform="matrix(0.5779 0 0 -1.0364 431.0501 542.2527)">
		<stop  offset="0" style="stop-color:#474747"/>
		<stop  offset="1" style="stop-color:#FF5500"/>
	</linearGradient>
	<path id="path4432_1_" class="st43" d="M603.4,139.5c0,0,3.8,5.2,3.4,6.7c1.5,1.2,3.3,6,3.3,6"/>
	<path id="path4434_1_" class="st30" d="M618.1,138.7c0,0-8.2,11.6-8,12.5"/>
	<path id="path4436_1_" d="M575.9,83.4c-0.2,0.6-1.2,0.9-2.3,0.6c-1.1-0.4-1.9-1.2-1.7-1.8c0.2-0.7,1.3-1,2.4-0.6
		C575.3,81.9,576.1,82.7,575.9,83.4z"/>
	<path id="path4438_1_" d="M579.3,83.2c0.2,0.6,1.2,0.9,2.3,0.5c1.1-0.3,1.9-1.1,1.7-1.8c-0.2-0.6-1.3-0.9-2.4-0.5
		C579.9,81.7,579.1,82.5,579.3,83.2z"/>
	<path id="path4440_1_" class="st44" d="M675.8,324c0,0-3.2,0.5-3,0.8c0,0.3-9,0.6-9.1,0.3c-0.2-0.3-1.4,1.5-1.4,1.5l1.5-0.9
		c0,0,2.2,2.3,2.8,2.1c0.7-0.1-0.3,1,0,1.1c0.1,0.2,0.8-0.4,0.8-0.4l14.8-0.2L675.8,324z"/>
	<path id="path4442_1_" class="st44" d="M681.2,328.5l-12,0.4c0,0-3.1,2.8-3.3,3.4c-0.2,0.7,2,0.9,2,0.9l0.6,2.3l1.6-0.6
		c0,0,10.3,1.5,19.7-0.6c4.8-1.6,5.7-3.6,2.3-4.9C688.8,328.2,681.3,328.6,681.2,328.5L681.2,328.5z"/>
	
		<linearGradient id="path4444_2_" gradientUnits="userSpaceOnUse" x1="217.3764" y1="-996.1185" x2="177.9764" y2="-959.4185" gradientTransform="matrix(1.9991 0 0 -0.2996 286.0918 55.3158)">
		<stop  offset="0" style="stop-color:#D5DFFF"/>
		<stop  offset="1" style="stop-color:#FFFFFF"/>
	</linearGradient>
	<path id="path4444_1_" class="st45" d="M639.8,353.4l21.7-1l-4-3.4l59-2.4l-2-4.7l-66.1,2.7l8,3.7l-18,0.5l0.6,1.9l-4.7-0.2
		c0,0,5.3,2,5.4,3L639.8,353.4z"/>
	
		<linearGradient id="path4446_2_" gradientUnits="userSpaceOnUse" x1="354.8786" y1="186.6082" x2="345.1786" y2="206.2082" gradientTransform="matrix(0.6914 0 0 -0.8663 419.4752 429.8156)">
		<stop  offset="0" style="stop-color:#D5DFFF"/>
		<stop  offset="1" style="stop-color:#FFFFFF"/>
	</linearGradient>
	<path id="path4446_1_" class="st46" d="M664.2,232.9c-1.7-0.9-9.4-2-17.9,3.6l0.4,19.6c0,0,12.5-6.7,18.5-5.2
		C664.9,244.9,664.9,237.1,664.2,232.9L664.2,232.9z"/>
	<path id="path4448_1_" class="st47" d="M543.5,292.4l-51.4,51"/>
	<path id="path4450_1_" class="st47" d="M566.5,292.7l-41.8,55"/>
	<path id="path4452_1_" class="st47" d="M564.6,278.4l-55.7,67.5"/>
	<path id="path4454_1_" class="st47" d="M507.2,345l5.4-6.4"/>
	<path id="path4456_1_" class="st47" d="M575.2,312.3l-21.6,29.8"/>
	<path id="path4458_1_" class="st47" d="M552.7,346l0.5,11.4"/>
	<path id="path4460_1_" class="st47" d="M585.1,322.7l-23,28.8"/>
	<path id="path4462_1_" class="st47" d="M581,349.2l9.3-15.3"/>
	<path id="path4464_1_" class="st47" d="M584.6,331l-11.2,12.6"/>
	<path id="path4466_1_" class="st47" d="M581.2,319l-7.6,9.3"/>
	<path id="path4468_1_" class="st47" d="M571.3,305.4c0,0-23.3,34.1-22.9,37"/>
	<path id="path4470_1_" class="st47" d="M568.9,301c-0.6,0.3-20.1,26.2-20.1,26.2"/>
	<path id="path4472_1_" class="st47" d="M547.7,335.4l-3.6,4.3"/>
	<path id="path4474_1_" class="st47" d="M539.6,346.2l-5.4,7.1"/>
	<path id="path4478_1_" class="st48" d="M541,213.8c0,0-1.6,5,0,7.5c1.6,2.5,11.5,22.5,11.5,22.5s6.8-8.3,9.3-8.5
		c2.4-0.3,1.3,21.6,1.3,21.6s-4,3.8-6.5,3.6c-2.5-0.2,6,8.6,5.8,16c-0.2,7.5-11.2,44.5-15.3,45.1c-4,0.7,1.8-6.7,1.6-8.8
		c-0.3-2-1.4-0.6-2.3-2.9c-0.9-2.2,1.4-5.6,1-7.9c-0.5-2.2-2.6-1.8-2.8-3.4c-0.2-1.6,1.4-2,1.1-3.8c-0.2-1.8-2.7-1.4-2.4-3
		c0.2-1.5,0.4-0.8,0.2-3.8c-0.2-2.9-0.7,2-3.2,2.3c-2.5,0.2-4.5,5.9-4.5,5.9s-5,7-9.9,3.8c3,6.3,0.7,9-0.5,9.2c-1,0.3,1,5-1.8,5.2
		c-2.7,0.2,2,10.6-1,11.5c3.3,1.6,0.6,3.6,0.6,3.6s-7.8,0.7-6.1,10.9c-23-8.2-34.3-22.1-34-36.4c0.2-14.2,4.7-27,15.7-31.7
		c3.2-11.8,8.6-24.4,8.6-24.4s-0.9-5.2-0.2-8.6c0.7-2.5,2-4.8,3.8-6.7c0,0-0.4-8.2-0.2-12.2s1.8-5.9,2-8.1
		c0.2-2.3-0.7-13.8,1.6-15.8c2.2-2,6.5-1.8,8.8-3.2c2.2-1.3,5.2-3.8,8.1-3.6c3,0.2,5.4,2.3,5.4,2.3s11,0,11.7,4.2
		c0.7,4.3-2.2,6-2.2,6S547.8,208.2,541,213.8L541,213.8z"/>
	<path id="path4480_1_" class="st49" d="M531.2,198.2c0.3,0.7-0.5,1.8-1.8,2.5c-1.4,0.7-2.7,0.8-3,0.2c-0.4-0.7,0.4-1.8,1.7-2.5
		C529.5,197.6,530.8,197.6,531.2,198.2L531.2,198.2z"/>
	<path id="path4482_1_" d="M529.3,199.4c0,0.4-0.4,0.7-0.8,0.7c-0.5,0-0.9-0.3-0.9-0.7c0-0.5,0.4-0.8,0.9-0.8
		C528.9,198.6,529.3,198.9,529.3,199.4z"/>
	<path id="path4484_1_" class="st50" d="M545.8,206.8c0,0,2.7,12.2-0.5,20.7"/>
	<path id="path4486_1_" class="st50" d="M546.7,201.5c0,0,5.3,7,4.6,15.8"/>
	<path id="path4488_1_" class="st50" d="M547.2,200c0.1,0,4.5,3.7,4.3,6.3"/>
	<path id="path4490_1_" class="st50" d="M548.2,198.4c0,0,3,2,3.6,4.1"/>
	<path id="path4492_1_" class="st30" d="M546.8,197.2c0,0-10.5,17-9.1,27.7"/>
	<path id="path4494_1_" class="st50" d="M547.5,196.6c0,0-14,8.3-16.5,35.4"/>
	<path id="path4496_1_" class="st30" d="M546,201.6l-5.6,4.2"/>
	<path id="path4498_1_" class="st50" d="M525.8,233.5c0,0,7.8-32.2,21.5-36.9"/>
	<path id="path4500_1_" class="st51" d="M552.7,244.4c0,0,7.4-9.3,9.1-9c1.7,0.4,1.2,21.6,1.2,21.6s-5.5,4.1-6.7,4
		c-1.2-0.2,6.2,10,6,13.7c-0.1,3.8-0.3,3.8-0.3,3.8s0-2.2-1.7-5.8c-1.8-3.7-0.7-7.8-12-17c-2.7-5.6,5.6,3.5,7.3,2.1
		c1.7-1.3-3-13.2-3-13.4L552.7,244.4z"/>
	<path id="path4502_1_" class="st52" d="M539.5,192c0,0-3.1,0.8-3.5,2c-0.5,1.4-2.3,2.6-3.3,2.2c-1-0.4-2.8-2-2.8-2"/>
	<path id="path4504_1_" class="st53" d="M521.8,202.9c0,0-4.7,4.6-2.4,5.2c2.3,0.6,4.7-3.7,4.7-3.7s0,7.3,2,6.1
		c2-1.1,7.7-5.2,7.7-5.2s2-0.2,2.5,0c0.4,0.1,5.3,4.4,8.6,2.8c-1.9,4.8-4,5.4-4,5.4s-3.4,4.4-7.8,3.4c-4.4-1-5.5-2.8-5.5-2.8
		s-3.7,0.2-4.8-1.5l-1.6-2.6c0,0-2,2-2.7,1C518,210,518.5,204.3,521.8,202.9L521.8,202.9z"/>
	<path id="path4506_1_" class="st52" d="M548.3,196.4c0,0-8.6-2.6-11.6,1.7c-3,4.2-2.3,6.6-0.7,7"/>
	<path id="path4508_1_" d="M549.6,196.1c0,1-0.7,1.9-1.6,1.9c-1,0-1.6-0.9-1.6-1.9s0.7-1.8,1.6-1.8
		C548.9,194.3,549.6,195.1,549.6,196.1z"/>
	<path id="path4510_1_" class="st51" d="M524.5,218.2c0,0,3.5,5.4,7.7,6.9s-3,2.7-7.1,0c-3-4.2-2.2-7.2-2.2-7.2
		S523.7,217.1,524.5,218.2z"/>
	<path id="path4512_1_" class="st51" d="M554.6,250.1c0,0-9.9-13.7-12.7-14.5c-2.9-0.7,2.2-1.3,5.2,1.6c3,3-0.8-4.7-0.8-4.7
		L554.6,250.1z"/>
	<path id="path4514_1_" class="st53" d="M523.5,329.6c3.8-1,20.4,9.5,24,12.1c3.8,2.7,11.6,1,11.6,1s-3.6,2.2-5.8,2.7
		c-2.3,0.5,6.6,0.5,6.6,0.5s-21.1,5.9-42.6-5.4C515.3,331.7,521.9,329.7,523.5,329.6L523.5,329.6z"/>
	<path id="path4516_1_" class="st51" d="M547.8,253.5c0,0-2.9-0.5-4.3-2.1c-1.4-1.7-3.4-5.7-5.5-7.4c-2.1-1.6-12.6-7.4-16.4-7
		s-5-0.4-5.5-0.9c-0.4-0.5-2,0.2-1.7,2.2s-3,6.3-1.8,8.3c2.2,3.8,4.8,7.3,7.7,10.6c1,0.3,0.4,4.8,0.4,4.8s4.8,4.9,6,5.1
		c1.2,0.3,2.5,1.2,2.3,2.4c-0.1,1.1-5.3,7.4-5.3,7.4s-5.5,3-5.6,4.5c0,1.7,1.4,5,5.8,6.1c5.6,0.9,11.3,0.6,16.8-0.8
		c0.6-1,1.6-7,1.2-7.7c-0.4-0.6-3.3-2.4-4.8-2.2c-1.5,0.3-2.9,1.5-2.7,1.8c0.1,0.3-2.1,1.4-2.1,0.3c0-1,4.4-6,4.8-5.5
		c0.4,0.4,6.6,1,7.8,4.1c1.1,3.1,1.1,5.4,4.4,5c3.2-0.3,7.8-3.3,8.2-9.5c0.3-4.2-1.4-8.3-4.7-11c-1-0.7-4.4-2.7-4.7-3.7
		c-0.2-1-1-4-0.4-4.8L547.8,253.5z"/>
	<path id="path4518_1_" class="st51" d="M489.1,281c0,0,10.5-2.7,13.2-2.6c2.7,0,13,4.8,16,7.7c3,3,9,9.8,13,9.2
		c4-0.6,5.2-1.4,5.2-1.4l-1.6,3c0,0-3.2,0.9-4.9,0.5c-1.6-0.4-4.8-1.5-8-4.6c-3.1-3-13-11.5-21.3-10.9s-13.1,8.8-13.1,8.8
		s0-4,0.4-4.9c0.3-0.8-1.8,2-1.8,2L489.1,281z"/>
	<path id="path4520_1_" class="st51" d="M527.8,289.2c0,0,2.6,0.7,7,0.7c4.3,0,6.6-1.9,6.6-1.9l-0.3-1.7l0.7-2.3c0,0,3.3,3.3,3.3,4
		s-1.4,1-1.4,1l-0.5-1.7l-1.1,1.5c0,0-6.3,5-9.8,4.2c-3.4-0.7-6.6-3-5.7-3.5C527.5,289,527.9,289.2,527.8,289.2L527.8,289.2z"/>
	<path id="path4522_1_" class="st51" d="M512.5,298c0,0-3.8,0-5.5,0.8s-2.3,1.8-3.5,1.7c-1.1-0.2-2-1.6-1.7-2.2c0.5-1,2.8-2.2,7-1.9
		C513.1,296.8,512.5,298,512.5,298z"/>
	<path id="path4524_1_" class="st51" d="M525.8,308.3c0-0.2-0.3-5.5-2.4-7.7c-1.5-1.6-3.7-2.3-5.8-1.9c-1.2,0.3,4.2,2.7,4.8,4.2
		c0.5,1.6,2.3,6,1.8,7s-1.3-3-4.7-4.2c-3.3-1.2-7.9-0.5-7,1c1,1.4,4.7,0,6.6,3.3c1.2,2.1,2.3,4.3,3.3,6.5l0.7-2.3l1.6-0.4l0.3-4.4
		L525.8,308.3z"/>
	<path id="path4526_1_" class="st53" d="M523.1,325.7l-3.5-7c0,0-1-4.3-4-5.5c-3-1.3-6.8-1-6.8,0.4c-0.1,1.5,6.2,3.4,6.6,4.2
		c0.4,0.8,0.2,2.2-0.3,2.3c-0.6,0-3.4-1-4.8-0.7s-2.2,2.2-4.3,1.6c-2.1-0.5-3.9-7.2-3-8c0.7-0.6-1.6,1.3-2.1-0.5
		c-0.5-1.7,0.7-7.2-0.1-7.9c-0.8-0.7-4.8-3-4.8-3.5c-0.1-0.5,0.2-27,22.3-5c-9.5-11.3-13.2-10-15-10.1c-1.2,0-9.9,0.7-12,11.7
		c-2.2,11-4.8,4.1-4.8,4.1s-0.4,4.8,1.9,6.1c2.3,1.4-1.1,5.3-1.1,5.3s-4.2-10-3.5-14.5c-0.9,3.5-0.8,12.3,4.4,21.8
		c7.4,8.4,16.8,15,27.2,19.1c8-12.3,7.7-13.8,7.7-14L523.1,325.7z"/>
	<path id="path4528_1_" class="st54" d="M508.6,325.8c0,0,4.4,0.5,5.6,2.8c1.3,2.3,1.8,5.8,1.8,5.8c0.8-1.5,1-2.7,2.6-3.8
		c1.5-1.1,2.6-1.3,2.5-2c0-0.9-4.8-5.8-7.1-6.1c-2.4-0.3-6.5,2.6-6.5,2.6s-0.8,1,1,0.7H508.6z"/>
	<path id="path4530_1_" class="st55" d="M518.8,337.4c0,0,11.6,5.3,30.6,5.6"/>
	<path id="path4532_1_" class="st56" d="M557.5,283.6c0,0-1,9.7-8.5,29"/>
	<path id="path4534_1_" class="st52" d="M556,289.6c0,0-2.3,7-8.5,12.2"/>
	<path id="path4540_1_" d="M522.1,410.3l2-2.2l0.6,0.5l-0.1,0.2l-0.2,0.3v0.2l0.2,0.2l2.6,2.3l0.2,0.2h0.2l0.1-0.2
		c0.3-0.3,0.4-0.5,0.5-0.8c0.1-0.3,0.2-0.5,0.1-0.8c0-0.3-0.1-0.7-0.4-1l0.8-0.4l1.2,2l-3.2,3.6l-0.6-0.5l0.2-0.3l0.1-0.2v-0.2
		l-0.2-0.2l-2.6-2.3l-0.3-0.2h-0.1l-0.3,0.2l-0.2,0.2L522.1,410.3L522.1,410.3z"/>
	<path id="path4542_1_" d="M526.5,405.4l3.7-3.6l1.8,0.9l-0.3,0.7l-1-0.2l-0.6,0.2c-0.2,0.1-0.4,0.2-0.6,0.5l-0.7,0.6l1,1.1l0.3-0.2
		c0.2-0.1,0.3-0.3,0.3-0.4v-0.2l-0.2-0.3l-0.2-0.2l0.6-0.6l1.8,1.9l-0.6,0.5l-0.2-0.1l-0.3-0.3h-0.2l-0.4,0.3l-0.2,0.2l1,1l0.2,0.2
		h0.1l0.2-0.2l0.4-0.3l0.6-0.8c0.1-0.3,0.2-0.6,0.1-1c0-0.3-0.1-0.6-0.3-0.9l0.8-0.4l1,2.3l-3.8,3.7l-0.6-0.6h0.2l0.2-0.4v-0.2
		l-0.2-0.3l-2.4-2.4l-0.3-0.2h-0.2l-0.2,0.1l-0.2,0.2L526.5,405.4L526.5,405.4z"/>
	<path id="path4544_1_" d="M534.2,398c0.8-0.7,1.6-1,2.4-0.9c0.9,0.1,1.6,0.5,2.2,1.2c0.4,0.5,0.7,1,0.8,1.5
		c0.1,0.6,0.1,1.1-0.1,1.6c-0.2,0.5-0.6,1-1.1,1.5c-0.7,0.6-1.4,0.9-2.2,0.9c-0.9,0-1.7-0.4-2.4-1.2c-0.7-0.7-0.9-1.4-0.8-2.3
		C533.1,399.4,533.5,398.7,534.2,398L534.2,398z M534.9,398.7c-0.3,0.3-0.5,0.7-0.5,1.2c0,0.5,0.2,1.1,0.7,1.6c0.5,0.5,1,0.9,1.5,1
		c0.4,0,0.8-0.1,1.1-0.4c0.4-0.3,0.6-0.6,0.6-1c0-0.6-0.3-1.2-0.8-1.7c-0.3-0.3-0.6-0.6-1-0.8c-0.3-0.1-0.6-0.2-0.9-0.2
		C535.4,398.4,535.1,398.5,534.9,398.7L534.9,398.7z"/>
	<path id="path4546_1_" d="M541,392.5l0.5-0.3l0.1,0.1l2.9-2v-0.2l0.4-0.3l1.9,1.3l-0.5,0.7l-0.7-0.3c-0.3-0.1-0.5-0.2-0.8-0.1
		l-0.4,0.1l-0.1,0.1v0.2l2.1,3l0.2,0.3h0.3l0.5-0.3l0.4,0.7l-2.4,1.8l-0.5-0.7l0.1-0.1l0.3-0.3V396l-0.1-0.3l-2.1-3l-0.2-0.2
		l-0.1,0.1c-0.1,0.1-0.2,0.2-0.3,0.4c-0.1,0.2-0.2,0.4-0.2,0.7l0.1,0.8l-0.8,0.2L541,392.5L541,392.5z"/>
	<path id="path4548_1_" d="M546.6,389l4.4-2.8l1.7,1.3l-0.6,0.7l-0.8-0.4h-0.7c-0.2,0-0.4,0.1-0.7,0.3l-0.8,0.5l0.8,1.3l0.2-0.2
		l0.4-0.2v-0.3l-0.1-0.4l-0.1-0.2l0.7-0.4l1.3,2.3l-0.7,0.4l-0.1-0.3l-0.3-0.3H551l-0.4,0.2l-0.3,0.1l0.8,1.3l0.1,0.2h0.1l0.3-0.1
		l0.4-0.3l0.8-0.6l0.3-0.9v-1l0.8-0.2l0.5,2.4l-4.6,2.8l-0.4-0.7l0.1-0.1l0.3-0.3c0.1,0,0.1-0.1,0-0.2v-0.3l-1.8-2.9l-0.3-0.3h-0.1
		l-0.3,0.1l-0.2,0.1l-0.5-0.7L546.6,389z"/>
	<path id="path4550_1_" d="M552.8,385.2l3.5-1.8l0.7-0.3c0.3-0.1,0.6-0.2,0.9-0.1c0.3,0,0.5,0.1,0.7,0.2l0.5,0.6
		c0.3,0.5,0.3,0.9,0.1,1.3c-0.1,0.4-0.4,0.7-0.8,1l1.8,0.8h0.1l0.3,0.1h0.3l0.2-0.1l0.3-0.1l0.3,0.7l-1.7,1l-3-1.5l-0.5,0.2l0.6,1.1
		l0.2,0.4h0.5l0.2-0.2l0.4,0.8l-2.7,1.4l-0.4-0.8l0.3-0.1l0.2-0.2l0.1-0.2l-0.1-0.3l-1.6-3.1l-0.2-0.2c0-0.1-0.1-0.1-0.2,0h-0.3
		l-0.2,0.1L552.8,385.2L552.8,385.2z M555.4,385l0.7,1.4l0.8-0.4c0.3-0.1,0.6-0.3,0.7-0.5l0.2-0.4v-0.5l-0.4-0.3H557l-0.7,0.2
		L555.4,385L555.4,385z"/>
	<path id="path4552_1_" d="M559.8,381.6l3.6-1.6l0.7-0.2h0.9c0.3,0,0.5,0.1,0.7,0.2l0.5,0.7c0.2,0.4,0.2,0.8,0,1.2
		c-0.2,0.4-0.5,0.7-0.9,1l1.8,0.9l0.4,0.1h0.5l0.2-0.2l0.4,0.8l-1.8,0.8l-3-1.6l-0.4,0.2l0.5,1.1l0.2,0.4h0.4l0.3-0.1l0.3,0.7
		l-2.7,1.3l-0.4-0.8l0.3-0.1l0.2-0.2l0.1-0.2l-0.1-0.3l-1.4-3.2c0-0.1-0.1-0.2-0.2-0.3h-0.5l-0.2,0.2l-0.3-0.8H559.8z M562.4,381.6
		l0.6,1.5l0.9-0.4l0.7-0.4c0.1-0.1,0.2-0.3,0.2-0.5v-0.4l-0.3-0.4H564l-0.7,0.2L562.4,381.6L562.4,381.6z"/>
	<path id="path4554_1_" d="M569.2,377.7l1.3-0.5l3.4,3.9l0.4,0.3h0.5l0.2,0.8l-2.7,1l-0.3-0.8l0.2-0.1c0.1,0,0.2-0.1,0.3-0.2v-0.2
		l-0.2-0.2l-0.4-0.5l-1.7,0.6v1l0.3,0.1l0.4-0.1l0.3,0.8l-2.3,0.8l-0.3-0.8c0.1,0,0.2-0.1,0.3-0.2l0.1-0.1v-0.4L569.2,377.7
		L569.2,377.7z M570.2,380.9l1.1-0.4l-1.1-1.4V380.9z"/>
	<path id="path4556_1_" d="M574,376l2.7-0.8l2.1,3.3v-4l2.8-0.7l0.2,0.8l-0.3,0.1c-0.1,0-0.2,0.1-0.3,0.2v0.4l1,3.4l0.1,0.2l0.2,0.1
		h0.6l0.2,0.7l-2.9,0.9l-0.2-0.9h0.2c0.2,0,0.3-0.1,0.3-0.2l0.1-0.1v-0.3l-1-3.7l-0.1,5.4l-0.8,0.2l-2.8-4.4l1,3.7l0.1,0.1l0.2,0.1
		h0.3l0.3-0.1l0.2,0.8l-2.4,0.7l-0.3-0.8h0.3l0.3-0.2v-0.5l-1-3.3v-0.3l-0.2-0.1h-0.6L574,376L574,376z"/>
	<path id="path4558_1_" d="M586.4,372.7l3.2-0.6h1c0.3,0,0.6,0.1,0.8,0.2c0.3,0.1,0.5,0.3,0.6,0.5l0.3,0.7c0.1,0.5-0.1,1-0.4,1.4
		c-0.3,0.5-0.8,0.8-1.5,0.9l-1,0.2l0.2,1.1v0.3h0.8l0.1,0.8l-3,0.6V378h0.1l0.4-0.2v-0.5l-0.6-3.3v-0.4l-0.2-0.1h-0.6L586.4,372.7
		L586.4,372.7z M588.8,373.3l0.4,1.7h0.5l0.7-0.3l0.3-0.4v-0.5c0-0.3-0.1-0.5-0.4-0.6c-0.2-0.1-0.5-0.1-0.8,0L588.8,373.3
		L588.8,373.3z"/>
	<path id="path4560_1_" d="M593,371.5l3.8-0.5h0.8l0.8,0.2c0.3,0.1,0.5,0.3,0.6,0.5c0.2,0.2,0.3,0.4,0.3,0.7c0.1,0.5,0,0.9-0.3,1.2
		c-0.3,0.3-0.7,0.6-1.1,0.8l1.4,1.3l0.3,0.2l0.2,0.1h0.6v0.8l-1.9,0.3l-2.3-2.4h-0.5l0.2,1.2v0.4l0.2,0.2h0.6v0.8l-3,0.4v-0.9h0.2
		l0.3-0.1l0.2-0.2v-0.3l-0.5-3.5v-0.3h-0.8L593,371.5L593,371.5z M595.4,372.2l0.2,1.6h1l0.7-0.3l0.4-0.3v-0.5l-0.1-0.4l-0.4-0.2
		h-0.8L595.4,372.2L595.4,372.2z"/>
	<path id="path4562_1_" d="M604.2,370.3c0.9-0.1,1.7,0.2,2.4,0.7c0.7,0.6,1,1.4,1,2.3c0,0.7-0.1,1.2-0.3,1.7c-0.3,0.5-0.6,0.9-1,1.2
		c-0.5,0.3-1.1,0.4-1.8,0.5c-0.9,0-1.7-0.2-2.3-0.6c-0.7-0.6-1.1-1.4-1.2-2.4c0-0.9,0.3-1.7,0.8-2.4
		C602.4,370.6,603.2,370.3,604.2,370.3L604.2,370.3z M604.2,371.3c-0.5,0-0.8,0.2-1,0.6c-0.4,0.4-0.6,1-0.5,1.7
		c0,0.7,0.2,1.2,0.6,1.6c0.3,0.3,0.6,0.5,1.1,0.5c0.5,0,0.8-0.2,1.1-0.6c0.3-0.4,0.5-1,0.4-1.7c0-0.5-0.1-0.9-0.3-1.2
		c-0.1-0.3-0.3-0.6-0.6-0.7C604.8,371.3,604.5,371.2,604.2,371.3L604.2,371.3z"/>
	<path id="path4564_1_" d="M608.8,370.2h3.4l1,0.1l0.7,0.4l0.4,0.6l0.2,0.8c0,0.5-0.2,1-0.6,1.3c-0.4,0.3-1,0.5-1.7,0.5h-1v1.5
		l0.4,0.1h0.3v0.9h-3v-0.9h0.5l0.1-0.1V375l0.1-3.4v-0.4l-0.1-0.1h-0.6v-1L608.8,370.2z M611.1,371.2v1.8h0.6l0.7-0.1l0.3-0.3
		c0.1-0.1,0.2-0.3,0.2-0.5c0-0.3-0.1-0.6-0.3-0.7c-0.2-0.1-0.5-0.2-0.8-0.2L611.1,371.2L611.1,371.2z"/>
	<path id="path4566_1_" d="M615.6,370.2l3.8,0.3l0.8,0.1l0.8,0.4c0.2,0.1,0.4,0.3,0.5,0.6l0.1,0.8c0,0.5-0.2,0.8-0.6,1
		c-0.3,0.3-0.7,0.5-1.2,0.6l1.2,1.5v0.1l0.2,0.3h0.2l0.3,0.1h0.3v0.9l-2-0.1l-1.9-2.8h-0.5v1.6h0.6v1l-3-0.3v-0.8h0.6l0.2-0.2V375
		l0.2-3.5v-0.3l-0.3-0.2h-0.4L615.6,370.2L615.6,370.2z M617.8,371.4l-0.1,1.6h0.9c0.3,0.1,0.6,0.1,0.8,0c0.2,0,0.3-0.1,0.4-0.2
		c0.1-0.1,0.2-0.3,0.2-0.5v-0.4l-0.4-0.3l-0.8-0.1h-1V371.4z"/>
	<path id="path4568_1_" d="M623.2,370.8l3,0.4v0.9h-0.3c-0.2-0.1-0.3-0.1-0.4,0l-0.2,0.4l-0.4,3.4v0.4h0.1l0.3,0.2h0.3l-0.1,0.9
		l-3-0.4l0.1-0.9h0.2c0.2,0.1,0.3,0.1,0.4,0h0.1l0.1-0.3l0.4-3.5v-0.5h-0.4l-0.3-0.1L623.2,370.8L623.2,370.8z"/>
	<path id="path4570_1_" d="M629.7,371.7l1.4,0.3l1,5c0,0.3,0.1,0.4,0.2,0.5l0.4,0.2l-0.2,0.8l-2.9-0.5l0.2-0.8h0.5l0.1-0.1v-1
		l-2-0.3l-0.3,0.6v0.2c-0.1,0.1-0.1,0.1,0,0.2h0.1l0.4,0.2l-0.1,0.8l-2.4-0.4l0.1-0.8h0.4l0.2-0.1l0.2-0.3L629.7,371.7L629.7,371.7z
		 M628.9,375l1.3,0.2l-0.3-1.8L628.9,375L628.9,375z"/>
	<path id="path4572_1_" d="M634.8,372.6l2.7,0.7l0.2,4l2-3.4l2.7,0.7l-0.2,0.8h-0.3c-0.1-0.1-0.2-0.1-0.3,0c-0.1,0-0.2,0.1-0.2,0.3
		l-0.9,3.4v0.4l0.3,0.1l0.3,0.1l-0.2,0.9l-2.9-0.8l0.2-0.8h0.3l0.3,0.1h0.2v-0.4l1-3.7l-2.7,4.7l-0.8-0.3l-0.3-5.1l-0.9,3.6v0.2
		l0.1,0.2h0.3l0.3,0.1l-0.2,0.9l-2.5-0.6l0.2-0.9h0.3l0.3,0.1h0.1l0.2-0.4l0.8-3.4v-0.4l-0.3-0.1l-0.3-0.1L634.8,372.6L634.8,372.6z
		"/>
	<path id="path4574_1_" d="M647.3,376.1l3,1.1l1,0.5l0.5,0.6l0.2,0.7l-0.1,0.8c-0.2,0.5-0.5,0.8-1,1c-0.5,0.2-1.1,0.2-1.8,0l-1-0.4
		l-0.4,1v0.5l0.3,0.2h0.3L648,383l-2.9-1l0.3-0.9h0.2l0.4,0.2h0.1l0.2-0.4l1.2-3.2v-0.5l-0.3-0.2H647L647.3,376.1L647.3,376.1z
		 M649,377.8l-0.6,1.7l0.5,0.2l0.7,0.1l0.5-0.1l0.3-0.5c0.1-0.3,0-0.5-0.1-0.7c-0.1-0.2-0.3-0.3-0.6-0.4L649,377.8L649,377.8z"/>
	<path id="path4576_1_" d="M653.6,378.4l3.5,1.6l0.7,0.4c0.3,0.1,0.5,0.3,0.6,0.6l0.3,0.7l-0.2,0.8c-0.2,0.5-0.5,0.8-0.9,0.9h-1.3
		l0.5,1.9l0.2,0.3l0.1,0.2l0.3,0.2h0.2l-0.3,0.9l-1.8-0.8l-0.8-3.3l-0.5-0.2l-0.5,1.1v0.6l0.2,0.1l0.3,0.2l-0.4,0.7l-2.7-1.2
		l0.3-0.8l0.3,0.1l0.3,0.1h0.2l0.1-0.3l1.4-3.2l0.1-0.3v-0.2l-0.2-0.1h-0.2l-0.2-0.1L653.6,378.4L653.6,378.4z M655.3,380.3
		l-0.7,1.5l0.9,0.3c0.3,0.2,0.5,0.3,0.7,0.3l0.5-0.1c0.1-0.1,0.2-0.2,0.3-0.4c0.1-0.1,0.1-0.3,0-0.4l-0.1-0.4l-0.7-0.4L655.3,380.3
		L655.3,380.3z"/>
	<path id="path4578_1_" d="M663.8,383.2c0.9,0.5,1.4,1.1,1.7,1.9c0.3,0.8,0.2,1.6-0.3,2.5c-0.3,0.5-0.6,0.9-1.1,1.2
		c-0.5,0.3-1,0.5-1.6,0.5c-0.5,0-1.1-0.2-1.7-0.5c-0.8-0.4-1.4-1-1.7-1.7c-0.3-0.9-0.2-1.7,0.3-2.6c0.4-0.9,1-1.4,1.9-1.7
		C662.1,382.6,663,382.7,663.8,383.2L663.8,383.2z M663.4,384.1c-0.4-0.3-0.8-0.3-1.3-0.1s-0.9,0.6-1.2,1.3
		c-0.3,0.6-0.5,1.2-0.4,1.7c0.1,0.4,0.3,0.7,0.8,1c0.4,0.2,0.8,0.2,1.2,0c0.5-0.2,0.9-0.6,1.2-1.2c0.3-0.5,0.4-0.9,0.4-1.2
		c0-0.4-0.1-0.7-0.2-1L663.4,384.1L663.4,384.1z"/>
	<path id="path4580_1_" d="M668.4,385.6l0.5,0.3v0.2l3,1.9l0.1-0.1l0.5,0.3l-0.5,2.2l-0.8-0.2v-0.8c0-0.3-0.1-0.5-0.2-0.7l-0.3-0.4
		h-0.2l-0.1,0.2l-1.9,3l-0.2,0.4v0.1l0.1,0.1l0.4,0.3l-0.4,0.7l-2.6-1.6l0.5-0.7l0.1,0.1l0.4,0.2h0.1l0.3-0.4l2-3v-0.3h-0.1
		c-0.1-0.1-0.3-0.2-0.6-0.2l-0.6,0.1l-0.7,0.4l-0.6-0.6L668.4,385.6z"/>
	<path id="path4582_1_" d="M674,389.4l4.2,3l-0.6,2l-0.8-0.2v-1l-0.2-0.6c-0.1-0.2-0.3-0.4-0.6-0.5l-0.7-0.6l-1,1.3l0.3,0.2l0.4,0.2
		h0.3l0.2-0.4l0.2-0.2l0.6,0.5l-1.5,2.1l-0.6-0.4l0.1-0.2l0.2-0.4V394l-0.4-0.4l-0.3-0.1l-0.8,1.1l-0.1,0.3l0.2,0.3l0.4,0.3l1,0.4
		c0.3,0.1,0.5,0.1,0.8,0c0.3-0.1,0.7-0.2,1-0.5l0.4,0.7l-2,1.4l-4.3-3l0.5-0.8l0.1,0.1l0.4,0.2h0.2l0.2-0.3l2-2.8l0.2-0.3v-0.1
		l-0.3-0.3l-0.2-0.1L674,389.4L674,389.4z"/>
	<path id="path4584_1_" d="M680.9,398.2l2.3,2l-0.5,0.6l-0.2-0.1l-0.2-0.2h-0.2l-0.3,0.3l-1.2,1.5l-0.7-0.6l0.1-0.5l-1-0.2l-0.7-0.5
		c-0.5-0.4-0.8-0.8-1-1.3c-0.1-0.5-0.1-1.1,0-1.6c0-0.5,0.2-1.1,0.6-1.6c0.4-0.5,0.9-0.8,1.4-1c0.5-0.2,1.1-0.2,1.6-0.1
		c0.5,0.1,1,0.3,1.5,0.6l0.5,0.6l0.4,0.7l0.3-0.1l0.5,0.4l-0.9,2l-0.8-0.4v-1.1l-0.1-0.7l-0.4-0.5l-0.8-0.3l-0.9,0.2
		c-0.3,0.1-0.6,0.4-0.9,0.8l-0.6,1v1.1c0.1,0.3,0.2,0.5,0.5,0.7l0.5,0.3h0.5l0.4-0.2l0.1-0.2l0.2-0.3v-0.1l-0.3-0.3l-0.2-0.2
		L680.9,398.2L680.9,398.2z"/>
	<path id="path4586_1_" d="M687.6,400.2l1,1l-1.9,4.8c-0.1,0.2-0.2,0.4-0.1,0.5l0.2,0.3l-0.6,0.7l-2-2l0.5-0.7l0.1,0.2l0.3,0.1h0.2
		l0.2-0.3l0.2-0.5l-1.4-1.3l-0.6,0.3l-0.2,0.1v0.3l0.3,0.3l-0.6,0.6l-1.7-1.6l0.6-0.6l0.2,0.2h0.2l0.4-0.1L687.6,400.2L687.6,400.2z
		 M685.2,402.5l0.9,0.9l0.7-1.7L685.2,402.5L685.2,402.5z"/>
	<path id="path4588_1_" d="M691.7,403.9l0.4,0.4l-0.1,0.2l2.4,2.5h0.2l0.4,0.3l-1,2l-0.8-0.3l0.2-0.8v-0.7c0-0.2-0.1-0.4-0.2-0.5
		H693l-0.2,0.1l-2.5,2.5l-0.3,0.3v0.2l0.3,0.4l-0.6,0.6l-2-2.2l0.6-0.6v0.2l0.4,0.2h0.2l0.3-0.2l2.6-2.5l0.1-0.2v-0.1l-0.5-0.3h-0.7
		l-0.8,0.2l-0.3-0.8L691.7,403.9L691.7,403.9z"/>
</g>
<path id="path796" class="st57" d="M0,0h400v240H0V0z"/>
<path id="path798" class="st58" d="M46.9,0l152.5,90.5L351.2,0H400v31l-150,89.5l150,89V240h-50l-150-89.5L50.6,240H0v-30l149.4-89
	L0,32V0H46.9z"/>
<path id="path800" class="st59" d="M265,140.5L400,220v20l-169.4-99.5H265z M150,150.5l3.8,17.5l-120,72H0L150,150.5z M400,0v1.5
	l-155.6,94l1.2-22L368.8,0H400z M0,0l149.4,88h-37.5L0,21V0z"/>
<path id="path802" class="st58" d="M150.6,0v240h100V0H150.6z M0,80v80h400V80H0z"/>
<path id="path804" class="st59" d="M0,96.5v48h400v-48H0z M170.6,0v240h60V0H170.6z"/>
</svg>
