<?xml version="1.0" encoding="utf-8"?>
<!-- Generator: Adobe Illustrator 24.0.1, SVG Export Plug-In . SVG Version: 6.00 Build 0)  -->
<svg version="1.1" id="flag-icons-gt" xmlns="http://www.w3.org/2000/svg" xmlns:xlink="http://www.w3.org/1999/xlink" x="0px"
	 y="0px" viewBox="0 0 800 480" style="enable-background:new 0 0 800 480;" xml:space="preserve">
<style type="text/css">
	.st0{fill:#4997D0;}
	.st1{fill:#FFFFFF;}
	.st2{fill:none;stroke:#24420E;stroke-width:0.2541;stroke-miterlimit:1.7778;}
	.st3{fill:#406325;stroke:#24420E;stroke-width:0.1271;stroke-miterlimit:1.7778;}
	.st4{fill:#67923D;stroke:#24420E;stroke-width:0.1271;stroke-miterlimit:1.7778;}
	.st5{fill:#BA1F3E;stroke:#511124;stroke-width:0.1271;stroke-miterlimit:1.7778;}
	.st6{fill:#8C959D;stroke:#485654;stroke-width:6.352280e-02;stroke-miterlimit:1.7778;}
	.st7{fill:#8C959D;}
	.st8{fill:#485654;}
	.st9{fill:#6C301E;stroke:#351710;stroke-width:0.1271;stroke-linejoin:round;stroke-miterlimit:1.7778;}
	.st10{fill:#B2B6BA;stroke:#485654;stroke-width:0.1271;stroke-miterlimit:1.7778;}
	.st11{fill:none;stroke:#485654;stroke-width:0.1271;stroke-miterlimit:1.7778;}
	.st12{fill:#FAB81C;stroke:#6C301E;stroke-width:0.1271;stroke-miterlimit:1.7778;}
	.st13{fill:#FAB81C;stroke:#6C301E;stroke-width:6.352280e-02;stroke-miterlimit:1.7778;}
	.st14{fill:#FAB81C;}
	.st15{fill:#6C301E;}
	.st16{fill:#8C959D;stroke:#485654;stroke-width:6.352279e-02;stroke-miterlimit:1.7778;}
	.st17{fill:#FAB81C;stroke:#6C301E;stroke-width:6.352279e-02;stroke-miterlimit:1.7778;}
	.st18{fill:url(#SVGID_1_);stroke:#999270;stroke-width:0.1271;stroke-miterlimit:1.7778;}
	.st19{fill:url(#SVGID_2_);stroke:#999270;stroke-width:0.1271;stroke-miterlimit:1.7778;}
	.st20{fill:url(#SVGID_3_);stroke:#999270;stroke-width:0.1271;stroke-miterlimit:1.7778;}
	.st21{fill:url(#SVGID_4_);stroke:#999270;stroke-width:0.1271;stroke-miterlimit:1.7778;}
	.st22{fill:#F9F0AA;stroke:#999270;stroke-width:0.1271;stroke-miterlimit:1.7778;}
	.st23{fill:url(#SVGID_5_);stroke:#999270;stroke-width:0.1271;stroke-miterlimit:1.7778;}
	.st24{fill:url(#SVGID_6_);stroke:#999270;stroke-width:0.1271;stroke-miterlimit:1.7778;}
	.st25{fill:url(#SVGID_7_);stroke:#999270;stroke-width:0.1271;stroke-miterlimit:1.7778;}
	.st26{fill:url(#SVGID_8_);stroke:#999270;stroke-width:0.1271;stroke-miterlimit:1.7778;}
	.st27{fill:url(#SVGID_9_);stroke:#999270;stroke-width:0.1271;stroke-miterlimit:1.7778;}
	.st28{fill:#B07E09;}
	.st29{fill:url(#SVGID_10_);stroke:#4C0505;stroke-width:0.1271;stroke-miterlimit:1.7778;}
	.st30{fill:#448127;stroke:#34541F;stroke-width:0.1271;stroke-miterlimit:1.7778;}
	.st31{fill:#EAC102;stroke:#A08307;stroke-width:0.1271;stroke-miterlimit:1.7778;}
	.st32{fill:#A08307;}
	.st33{stroke:#000000;stroke-width:6.352280e-02;stroke-miterlimit:1.7778;}
	.st34{fill:url(#SVGID_11_);}
	.st35{fill:#34541F;}
	.st36{fill:#448127;}
</style>
<path class="st0" d="M0,0h800v480H0V0z"/>
<path class="st1" d="M266.6,0h266.8v480H266.6V0z"/>
<g transform="translate(0 40) scale(.66667)">
	<g>
		<path class="st2" d="M560.1,410.6c3.9-0.6,6-1.7,8.6-2.6 M572,402.3c1.9,1.9,3.3,4.1,4.3,6.6 M564.7,401.6c1.8,1.7,3.2,3.8,4.3,6
			 M498.3,212.3c-1.4,2.3-4.4,3.9-6.9,4.9 M491,216.9c0-2-0.4-4.3,0-6.3 M488.1,217.8l1,2.9 M492,222l-2.9,0.4 M483.4,221.2
			c0,3.7,0.6,8,0.9,11.3 M481.7,231.1c0.6,1.1,1.3,2,2.3,2.7 M477.4,242.9c0.7,1.4,1.4,3.1,1.9,5.7 M484.5,242.1l-2.9,2.1
			 M484.1,250.5c-1.4,1.3-3.1,2.1-5,3 M473.7,311.2c1.5,2.6,3.4,4.9,5.7,6.7 M480.2,320.4c-1.5-0.2-3-0.7-4.3-1.4 M482.3,331.1
			l2.4,1.4 M484.1,337.4c1.7,1.1,3.6,3.3,5.3,5.6 M487.4,347c2,0.4,3.6,1,4.6,1.4 M490.5,352h2.9 M495.3,344.4l-0.7,6 M496,352.7
			l0.6-2.3 M503.3,359l-0.1,4.6 M559.1,403.6l-1.7,2.1 M554,400l-1-2.4"/>
		<g>
			<path class="st3" d="M608.7,421.3c-1.1-1.9-2.9-3-4.7-3.9c-11-5.7-22-8.4-34.3-10.4c-3-0.4-5.9-3.1-8.9-4.6
				c-7.1-3.3-15-4.6-21.9-8.1c-1.1-0.6-2-1.3-2.9-2.1c-2.9-3.1-7.9-4.1-10.9-7.1c-12-11.1-24.6-21.4-31.2-36.4
				c-8-18.2-17.9-36.9-16.6-57.6c0.9-12.9-1-26.2,2.1-38.6c4.9-18.4,10.9-36.6,22-51.9l-1.9,1.1c-10.6,15.7-18.1,33.3-22,51.9
				c-3.3,12.4-1.4,25.7-2.1,38.6c-1.4,20.7,8.6,39.4,16.4,57.6c6.6,14.9,19.3,25.3,31.2,36.6c3.1,2.9,8,3.9,10.9,7.1
				c0.9,0.8,1.8,1.6,2.9,2.1c7,3.4,14.9,4.7,22,8.1c2.9,1.4,5.7,4,8.6,4.4c12,1.5,23.7,5.1,34.6,10.4c1.9,0.8,3.5,2.1,4.7,3.7
				l1.9-1.1"/>
			<g>
				<path class="st4" d="M494.7,345c-2.9-11-3-22.5-0.3-33.6C504,330,500.8,345.3,494.7,345z M560.3,409.9
					c-10.1,0.6-29.4,13.3-31.3,16.3C550.6,426.3,563.3,415.7,560.3,409.9z M571,403.7c-9.8-10.7-16.7-23.8-20-37.9
					C572.4,381.3,578,400.6,571,403.7z"/>
				<path class="st4" d="M563.7,403.8c-10.3-8.7-18.2-19.9-22.9-32.6C562.7,383,569.9,400.1,563.7,403.8z M541.4,394.1
					c1.4-11.1-8-34.6-10.7-37.2c-4.3,23.6,4.3,39.4,10.9,37.2H541.4z M502.4,359.4c-2.3-9.9-2.1-20.2,0.7-30
					C511,346.1,507.8,359.7,502.4,359.4z M482.8,249.8c7.8-10.1,18.2-18,30-22.9C503.3,247.8,487.1,255.4,482.8,249.8z"/>
				<path class="st4" d="M483.8,241.6c5.7-11.5,14.2-21.4,24.9-28.6C503.4,235.5,489.1,246.2,483.8,241.6z M523.7,383.4
					c-7.1-8.9-11.4-34.2-10.4-37.7c16,17.9,17.2,36,10.3,37.7H523.7z M482.7,331.2c-10,1.6-30.6-6.6-32.9-9
					C470.7,317.7,484.7,325.1,482.7,331.2z M479.5,317.4c1.1-7.9,12.3-22.6,14.7-23.7C492.8,310.8,483.7,320.2,479.5,317.4z
					 M552.9,401.3c-13.9,3.1-26.8,9.8-37.3,19.4C541.3,420.9,556.6,408.3,552.9,401.3z"/>
			</g>
			<g>
				<path class="st3" d="M494.8,344.8c6,0.3,9.1-14.9-0.4-33.4C496.2,322.4,496.3,333.7,494.8,344.8z M510.8,373.4
					c-8.8-7.9-19.5-13.4-31-16C492.5,374.7,508.3,379,510.8,373.4z M476,297.7c-4.1-13-11.3-24.8-21.2-34.3
					C457,287.9,470,301.5,476,297.7z M488,346.7c-7.1-5.3-27.2-7.7-30-6.7C472.5,351.7,486.8,352,488,346.7z M474.5,311.1
					c-6.2-8.5-14.5-15.3-24.2-19.6C458.2,309.2,471.2,315.8,474.5,311.1z M478.4,243.2c1.4-10.9-7.9-33.4-10.4-36
					C463.8,230.1,472.1,245.3,478.4,243.2z M484.8,221.8c2.7-11.4,2.5-23.4-0.7-34.7c-9.1,19.3-5.4,35.2,0.7,34.9V221.8z"/>
				<path class="st3" d="M492,210.9c3.9-8.7,5.7-18.2,5-27.7C486.7,197,487,210.2,492,210.9z M500.5,202.2
					c6.3-7.1,10.8-15.6,12.9-24.9C499.5,187.3,496,199.9,500.5,202.2z M477.7,263.9c0,1.3-1.4-11.7-14.4-26.2
					c0.6,21.2,8.9,29.2,14.3,26.2H477.7z M524.1,386.6c-11.4-5.9-24.1-8.9-36.9-8.6C505.3,392.8,522.8,393.1,524.1,386.6z
					 M541.3,394c-6.4,2.3-14.9-13.4-10.7-37c1.9,12.8,5.5,25.3,10.7,37.2V394z M560.4,410c2.9,5.7-9.7,16.3-31.2,16.2
					c17.2-7.1,30.3-14.1,31-16.2H560.4z M570.9,403.6c7.1-3.3,1.6-22.2-20-37.7C563.1,384.7,571.6,401,570.9,403.6z"/>
				<path class="st3" d="M563.7,403.7c6-3.9-1-20.7-22.9-32.4C554.4,387.3,564,401.3,563.7,403.7z M502.5,359.4
					c5.3,0.3,8.6-13.3,0.7-30C504.3,345.1,503.8,358,502.5,359.4z M482.8,249.6c4.3,5.7,20-1.9,29.9-22.7
					c-8.8,9-18.9,16.7-29.9,22.9L482.8,249.6L482.8,249.6z"/>
				<path class="st3" d="M484.1,241.6c5.1,4.6,19.3-6.1,24.6-28.6C497.3,229.2,486.4,241.3,484.1,241.6z M523.7,383.3
					c6.7-1.6,5.7-19.7-10.4-37.6C520.4,365,524.7,381.1,523.7,383.3z M482.4,331.2c2-6.1-11.9-13.4-32.6-9
					C467.4,325.4,481.3,329.4,482.4,331.2z M479.5,317.4c4.3,2.9,13.3-6.6,14.9-23.7c-3.8,8.6-8.7,16.6-14.7,23.7H479.5z
					 M552.9,401.3c3.7,7.1-11.4,19.6-37.2,19.3C536,412.3,551.9,403.8,552.9,401.3z"/>
				<path class="st3" d="M484.8,337.4c-6-9.5-14.4-17.3-24.3-22.6C467.7,334.2,480.8,342.1,484.8,337.4z"/>
			</g>
			<g>
				<path class="st4" d="M474.8,262.6c5.7-6.7,25-13.1,28-12.9C491.4,264.8,477.1,267.8,474.8,262.6z M510.5,373.4
					c-2.4,5.7-18,1.4-30.9-15.9c9.5,6.8,20,12.1,31,15.9H510.5z M475.8,297.7c-6,3.9-18.7-9.7-21-34.3
					C464.2,282.4,473.4,296.9,475.8,297.7z M487.8,346.7c-1,5.3-15.3,5.1-29.7-6.7C467.6,343.6,477.6,345.9,487.8,346.7z
					 M474.4,310.9c-3.4,4.7-16.2-1.7-24-19.4C462.1,302.9,472.5,311.1,474.4,310.9z M478.2,243.1c-6.3,2.3-14.4-12.9-10.4-35.7
					C471.7,226.6,476.4,241.9,478.2,243.1z M484.7,221.8c-6.1,0.4-9.9-15.4-0.7-34.7C482.8,205.3,483.3,220.2,484.7,221.8z
					 M491.8,210.9c-4.9-0.9-5.3-13.9,5.1-27.7C493.9,192.1,492.1,201.5,491.8,210.9z M500.4,202.2c-4.4-2.4-1-14.9,12.9-24.9
					C507.8,184.9,503.4,193.3,500.4,202.2z"/>
				<path class="st4" d="M477.5,263.9c-5.6,3-13.7-5-14.3-26.2C470.4,254.5,475.5,263.2,477.5,263.9z M524,386.6
					c-1.3,6.6-18.7,6.3-36.7-8.4C506.1,384.3,522,387.7,524,386.6z M512.3,373c-5.4-8.2-8.6-17.6-9.4-27.4
					c12.9,12.4,14.6,25.9,9.7,27.4H512.3z M488.3,337.2c-4.3-10.4-5.8-21.7-4.3-32.9C495.8,321.4,494.4,336.8,488.3,337.2z
					 M484.4,337.4c-3.9,4.7-17-3-24-22.6C467.2,323.5,475.3,331.1,484.4,337.4z"/>
			</g>
			<g>
				<path class="st3" d="M474.8,262.6c2.3,5.1,16.3,2.1,27.9-12.7C485.5,259.6,478.8,263.9,474.8,262.6z M488.1,337
					c6.1-0.4,7.6-15.7-4.3-32.6c3.2,10.6,4.6,21.7,4.3,32.7V337z M512.4,373c4.9-1.4,3.1-15-9.6-27.4
					C509.1,359.4,513.1,371.3,512.4,373z"/>
				<path class="st3" d="M477.4,288.1c2-12.5-0.2-25.4-6.1-36.6C464.5,273.5,471,289.5,477.4,288.1z"/>
			</g>
			<path class="st4" d="M477.1,290.9c-8.6,1.9-12.4-17.2-5.9-38.7c1.4,19.3,4,37.3,5.7,38.6L477.1,290.9z"/>
			<path class="st4" d="M475.2,290.8c1.3-12.7,5.7-24.8,12.9-35.3C491,278.1,481.7,293.1,475.2,290.8z"/>
			<path class="st3" d="M475.4,290.7c6.3,2.3,15.6-12.6,12.7-35.2C483.1,274.5,477.4,289.5,475.4,290.7z"/>
			<path class="st4" d="M477.2,304.5c2-12.4,7.2-24.1,15.2-33.9C493.5,293.8,483.4,307.7,477.2,304.5z"/>
			<path class="st3" d="M477.4,304.7c6,3.1,16.2-10.4,15-33.6C486.1,289.4,479.5,303.8,477.4,304.7z"/>
		</g>
		<g>
			<circle class="st5" cx="481.1" cy="230.2" r="1.6"/>
			<circle class="st5" cx="493.1" cy="221.3" r="1.6"/>
			<circle class="st5" cx="488" cy="216.5" r="1.6"/>
			<circle class="st5" cx="475" cy="318.5" r="1.9"/>
			<circle class="st5" cx="478.5" cy="295.7" r="1.9"/>
			<circle class="st5" cx="497.4" cy="349.1" r="1.9"/>
			<circle class="st5" cx="489.1" cy="351.8" r="1.9"/>
			<circle class="st5" cx="552.4" cy="396.4" r="1.9"/>
			<circle class="st5" cx="556.6" cy="406.6" r="1.9"/>
		</g>
	</g>
	<g>
		<path class="st2" d="M715.9,241.2c1,0.9,1.7,1.1,3.3,2.7 M709.8,216.8c0-1.9-0.9-5.1-1.3-7.1 M713.5,213.9c0,2.9-0.4,5.4-1.6,7.9
			 M705.9,221c2.6,2.3,5,4.3,7.6,5.6 M718.9,228.3c0.1,2.9-0.1,5.7-1,8.6 M718.5,239.1l1.9-3.3 M717.6,253.2c2,0.4,4,2.9,5,5
			 M723.4,256.4l2.3-3.1 M728.1,297.2c-1,1.7-2.1,3.3-3.4,4.9 M718.9,302.1c1.1,2,2.3,4.3,3.7,5.7 M726.2,316.2
			c-1.7,2.4-3.9,4.3-6.4,5.7 M720.1,328.4c-1.6,1.1-3.6,4.3-5.3,6.7 M726.8,306.2l-3,1.3 M721.8,296.8l1.9,1.6 M710.4,351.8h-3.1
			 M704.4,349.3l1,2.3 M694.2,358.8c-0.3,2.7,0,5.3,0.3,8 M700.6,354l1.4,3.1 M707.6,356.8l-3.6,0.7 M659.9,393.6l-1.4,2.6
			 M675.6,390.4c-2.1,0.3-4,0-5.9-0.3 M661.9,398.7c-1.4-0.6-2.8-1-4.3-1.4 M636.8,401.1c-1.4,1-2.9,3.4-4.4,5.7 M631.5,400.4
			c-3.4,1.9-4.4,5.3-6.3,8.3 M629.2,412.9c-2.6-0.8-5.1-1.8-7.6-2.9 M645.5,408.9c-3.3-1.7-6.7-1.4-10.1-2 M650.8,406.3
			c-5.3-1-10-0.9-14.7-0.1 M647.2,402.4l-2-0.9 M637.2,409.4l-3.3-1.9 M716.8,337.2c-1.9,1.1-3.7,3.3-5.4,5.6 M713.9,229.1l-3-1.1"
			/>
		<g>
			<path class="st3" d="M592,421.1c1.2-1.7,2.8-3,4.7-3.9c11-5.7,22-8.3,34.3-10.3c3-0.6,5.9-3.3,8.9-4.6c7.1-3.4,15-4.7,21.9-8.1
				c1.1-0.6,2-1.4,2.9-2.3c2.9-3.1,7.9-4.1,10.9-7.1c12-11.1,24.6-21.4,31.2-36.4c8-18.2,17.9-36.9,16.6-57.5
				c-0.9-13.1,1-26.3-2.1-38.6c-4-18.6-11.4-36.2-22-52l1.9,1.1c10.6,15.7,18.1,33.3,22,51.9c3.3,12.4,1.4,25.7,2.1,38.7
				c1.4,20.6-8.6,39.3-16.4,57.6c-6.6,14.9-19.3,25.2-31.2,36.4c-3.1,2.9-8,3.9-10.9,7.1c-0.9,0.8-1.8,1.6-2.9,2.1
				c-7,3.6-14.9,4.9-22,8.1c-2.9,1.4-5.7,4-8.6,4.6c-12,1.5-23.7,5-34.6,10.3c-1.9,0.8-3.5,2.2-4.7,3.9l-1.9-1.3"/>
			<g>
				<path class="st3" d="M705.2,349.3c4-10.6,0-35.4-2-38.6C693.6,332.7,698.4,350.1,705.2,349.3z"/>
				<path class="st3" d="M695.1,359.3c3.3-8,0.9-27.6-0.6-30C686.5,346,689.8,359.7,695.1,359.3z M719.1,253.3
					c-7.2-9.2-16.6-16.4-27.4-20.9C700.5,251.5,715.2,258.5,719.1,253.3z"/>
				<path class="st3" d="M716.9,241.9c-4.7-9.6-11.9-17.8-20.7-23.9C700.5,236.6,712.5,245.6,716.9,241.9z M723.7,263.4
					c-5-5.9-21.7-11.4-24.3-11.1c10,12.9,22.3,15.6,24.3,11V263.4z M719.6,329.5c10.2-0.1,20.2-2.9,29-8.1
					C730.2,317.4,717.9,324.1,719.6,329.5z M719.5,321.4c0-8-9.1-24-11.4-25.7C707.2,312.8,714.9,323.5,719.5,321.4z"/>
				<path class="st3" d="M720.1,301.8c-2-12.4-7.2-24-15.1-33.7C703.8,291.2,713.9,304.9,720.1,301.8z M644.3,409.4
					c9,7.9,20,13.4,31.7,15.7c-12.6-17.6-28.7-21.6-31.6-15.7H644.3z"/>
			</g>
			<g>
				<path class="st4" d="M705.2,349c-7,0.9-11.6-16.3-2-38.3C702.5,331,703.5,347.4,705.2,349z M628.9,411.4
					c11.6,2.6,22.4,8.2,31.2,16.3C638.6,427.9,625.7,417.3,628.9,411.4L628.9,411.4z M628.9,400c2.9-11.4,21.4-30.3,25-31.6
					c-5.1,24.4-19.6,36.4-25,31.7V400z M659.3,394c-1.4-11.1,8-34.6,10.7-37.2C674.3,380.4,665.8,396.3,659.3,394z M689.9,373.3
					c8.8-7.9,19.5-13.4,31-16C708.2,374.5,692.5,378.8,689.9,373.3z M726.8,297.1c1.4-9,13.9-25.6,16.6-27
					c-1.7,19.4-11.9,30-16.6,27.2V297.1z"/>
				<path class="st4" d="M710.1,351.5c10.8-5.5,22.8-8.2,34.9-7.9C728.1,357.5,711.4,357.7,710.1,351.5z M724.8,316.5
					c6.5-9,15.2-16.1,25.3-20.6C741.8,314.5,728.2,321.4,724.8,316.5z M722.7,251.3c0-10.9,11.4-32.4,14.3-34.6
					C738.5,239.8,728.8,254.2,722.7,251.3z M712.6,214.2c-2.4-9.4-2.4-19.2,0-28.6C720.5,201.3,717.9,214.5,712.6,214.2z
					 M706.8,211.2c-7.6-9.1-12.7-20-15-31.6C708.7,192.9,712.4,208.8,706.8,211.2L706.8,211.2z"/>
				<path class="st4" d="M723.4,260.5c-0.4,1.3,4.3-11,20.3-21.9C737.9,259.1,727.9,264.8,723.4,260.5z M674.6,389.1
					c10-7.4,37.9-11,41.7-9.7c-20.3,16.9-40.3,17.2-41.7,9.6V389.1z M695.1,359.3c-5.3,0.3-8.6-13.3-0.7-30
					C693.4,345,693.8,357.8,695.1,359.3z M719.2,253.5c-3.9,5-18.6-1.9-27.4-21c8,8.3,17.3,15.4,27.4,20.9V253.5z M716.8,241.9
					c-4.4,3.7-16.2-5.1-20.6-23.9C705.8,231.5,714.8,241.6,716.8,241.9z M723.7,263.4c-2,4.6-14.1,1.9-24.2-11
					C714.4,260.8,720.2,264.5,723.7,263.4L723.7,263.4z M719.9,329.4c-1.9-5.3,10.4-11.9,28.9-7.9
					C738.8,322.7,729.1,325.3,719.9,329.4z M719.4,321.4c-4.6,2.1-12.1-8.4-11.4-25.6c2.6,9.1,6.4,17.7,11.4,25.7V321.4z"/>
				<path class="st4" d="M719.9,302.1c-6,3.1-16.2-10.6-15-33.6C711.2,286.8,717.8,301.2,719.9,302.1z M644.6,409.3
					c2.9-5.7,18.7-1.9,31.4,15.7C666.4,418.2,655.8,412.9,644.6,409.3z"/>
			</g>
			<g>
				<path class="st3" d="M659.3,393.8c6.6,2.3,15-13.4,10.9-37c-4,20-8.9,35.9-10.9,37.2V393.8z"/>
				<path class="st3" d="M674.1,386.4c5.4-12.1,7.7-25.4,6.6-38.6C666.3,367.3,667.2,385.4,674.1,386.4z M628.7,411.3
					c-2.9,5.9,9.6,16.4,31.2,16.2C648.8,423.7,638.2,418.2,628.7,411.3L628.7,411.3z M629,399.8c5.4,4.7,19.7-7.1,24.9-31.6
					c-11.6,17.7-22.4,31.2-24.9,31.4V399.8z M690.1,373.1c2.6,5.7,18.2,1.4,31-15.9C711.6,364,701.1,369.4,690.1,373.1z
					 M726.9,296.9c4.7,3,14.7-7.6,16.4-26.9C739.3,279.8,733.7,288.8,726.9,296.9z M710.1,351.5c1.3,6.3,17.7,6,34.7-7.9
					C726.9,349.4,711.9,352.5,710.1,351.5z M724.8,316.4c3.6,4.9,17-2,25.3-20.6C742.8,303.9,734.2,310.8,724.8,316.4z M722.9,251.2
					c6.1,2.9,15.7-11.4,14.3-34.3C731.2,235.5,725.1,250.2,722.9,251.2z M712.9,214.2c5.1,0.1,7.9-12.9,0-28.6
					C714.2,200.6,714.1,212.9,712.9,214.2z M706.9,211c5.7-2.4,2-18.2-14.9-31.4C698.6,189.3,703.6,199.9,706.9,211z M723.5,260.6
					c4.6,4.3,14.6-1.4,20.3-22C732.7,253.1,725.7,260.4,723.5,260.6z M674.9,389.1c1.4,7.4,21.3,7.1,41.4-9.6
					C695.1,386.4,677.2,390.4,674.9,389.1z"/>
				<path class="st3" d="M684.5,378.1c4.1-9,5.9-18.9,5.1-28.7c-10.7,14.3-10.3,27.9-5.1,28.6V378.1z M712.5,337.1
					c4.3-10.4,5.8-21.7,4.3-32.9C704.9,321.2,706.4,336.7,712.5,337.1z"/>
			</g>
			<path class="st4" d="M674.1,386.3c-6.9-0.9-7.6-19,6.4-38.3C675.3,367.7,672.8,384.3,674.1,386.3z M724.4,288.7
				c-1.4-11,5.7-28.7,9.4-32.2c3.6,20.6-3.9,34.3-9.6,32.2H724.4z M684.3,378c-5.1-0.7-5.6-14.3,5-28.6
				C686.2,358.6,684.6,368.3,684.3,378z M717.8,229.1c-3.1-8.6,0-28.6,1.7-31.2C727.1,215.3,723.2,229.5,717.8,229.1z M634.8,400.7
				c3.6-11.4,23.2-30,26.9-31.3c-6.1,24.9-21.4,36.4-26.9,31.4V400.7z M712.6,341.2c6-9.5,14.4-17.3,24.3-22.6
				C729.8,338.1,716.5,346,712.6,341.2z M712.5,337c-6.1-0.6-7.6-15.7,4.3-32.7C713.6,314.8,712.2,325.9,712.5,337z"/>
			<path class="st3" d="M724.4,291.2c7.4,2.7,12.9-14,9.4-34.2C732.1,268.8,729,280.3,724.4,291.2L724.4,291.2z"/>
			<path class="st3" d="M725.5,290.7c0.7-10.7-10-32.9-12.9-35.3C709.8,277.9,719.1,292.9,725.5,290.7z M718.1,228.9
				c5.4,0.6,9.1-13.4,1.6-31c1,10.4,0.4,20.8-1.7,31H718.1z M635,400.6c5.4,5.1,20.6-6.3,26.7-31.2C649.2,387,637.5,400.3,635,400.6
				L635,400.6z M713.1,341.2c4,4.7,17.2-3,24.3-22.6C730.4,327.4,722.3,335,713.1,341.2z"/>
			<path class="st4" d="M725.4,290.5c-6.4,2.4-15.6-12.4-12.7-35C717.6,274.4,723.4,289.4,725.4,290.5z"/>
		</g>
		<g>
			<circle class="st5" cx="720.9" cy="235.3" r="1.6"/>
			<circle class="st5" cx="726.4" cy="252.3" r="1.6"/>
			<circle class="st5" cx="728.4" cy="305.9" r="1.9"/>
			<circle class="st5" cx="720.9" cy="295.9" r="1.9"/>
			<circle class="st5" cx="699.9" cy="353" r="1.9"/>
			<circle class="st5" cx="708.9" cy="356.8" r="1.9"/>
			<circle class="st5" cx="648.3" cy="403.1" r="1.9"/>
			<circle class="st5" cx="638.3" cy="410.3" r="1.9"/>
			<circle class="st5" cx="710.1" cy="227.3" r="1.6"/>
		</g>
	</g>
	<g>
		<path class="st4" d="M534.3,393.3c-13.8-3.3-28.3-2.9-41.9,1.3c23.3,11.4,42.2,6.6,41.7-1.4L534.3,393.3z M661.5,398
			c13.8-3.3,28.2-2.8,41.7,1.4c-23.3,11.3-42.3,6.4-41.9-1.4H661.5z"/>
		<path class="st3" d="M534,393.4c0.4,7.9-18.3,12.7-41.6,1.3c21.9,1.4,39.7,0.6,41.4-1.4L534,393.4z M661.6,398.1
			c-0.4,7.9,18.3,12.7,41.4,1.3c-21.7,1.4-39.6,0.6-41.4-1.4V398.1z"/>
	</g>
	<g>
		<g>
			<g id="b">
				<path class="st6" d="M539,351.7c-0.3,1.4,1.1,3.3,2.9,2.9c0.7,0,1-0.7,0.3-0.7c-0.6,0.1-1.3,0-1.7-0.4c-0.8-0.7-1-1.9-0.6-2.9
					L539,351.7z"/>
				<path class="st7" d="M543.1,354.5c-1.4,1.7-3.6,2.4-4.9,1.3c-0.9-0.9-1.1-1.7-0.7-2.9l-1.4,1.9c0.5,1.1,1.3,1.9,2.3,2.6
					c1.7,0.7,4.3-0.4,5.7-2.3c1.1-1.4,2.3-3.4,1.4-5.1c-0.7-1.1-1.7-2-2.9-2.4l-1.4,1.4c0.7-0.3,1.7,0,2.4,0.6
					C545.5,351,544.4,353.1,543.1,354.5L543.1,354.5z"/>
				<path class="st8" d="M543.1,354.5c-0.4,0.6-1,1.1-1.6,1.4c-0.7,0.3-1.4,0.6-2.1,0.4c-0.4-0.1-0.7-0.2-1-0.4
					c-0.3-0.2-0.5-0.5-0.7-0.9c-0.2-0.3-0.4-0.6-0.4-1s0-0.7,0.3-1.1l0.1,0.1l-1.6,1.7c0.4,0.6,0.9,1.3,1.4,1.7l1,0.7
					c0.4,0.1,0.8,0.2,1.1,0.1c0.8,0,1.6-0.3,2.3-0.7c0.7-0.4,1.3-0.9,1.9-1.4l1.4-2c0.3-0.7,0.4-1.4,0.4-2.3c0-0.4-0.1-0.8-0.3-1.1
					c-0.2-0.3-0.4-0.6-0.7-0.9c-0.6-0.6-1.2-1.1-2-1.4h0.1l-1.4,1.6h-0.1c0.3-0.3,0.7-0.3,1.1-0.3c1.1,0.2,2,1,2.3,2
					c0.1,0.7,0,1.4-0.3,2C544.1,353.5,543.6,354,543.1,354.5L543.1,354.5z M543.1,354.5c0.6-0.4,0.9-1,1.1-1.7
					c0.3-0.6,0.4-1.4,0.3-2c-0.3-0.6-0.7-1.1-1.3-1.4c-0.6-0.4-1.4-0.6-1.9-0.3h-0.1l1.4-1.7c1.2,0.4,2.2,1.2,2.9,2.3
					c0.3,0.4,0.4,0.9,0.4,1.4c0,0.7-0.1,1.4-0.6,2.3c-0.4,0.7-0.9,1.4-1.4,2c-0.4,0.7-1.1,1.1-1.9,1.6c-0.7,0.4-1.4,0.7-2.4,0.7
					c-0.4,0-0.8,0-1.1-0.1c-0.4-0.2-0.8-0.4-1.1-0.7c-0.6-0.6-1.1-1.3-1.4-2l1.4-1.9h0.3l-0.1,1.1c0,0.3,0,0.7,0.3,1l0.7,0.7
					l0.9,0.4c0.7,0.1,1.4,0,2.1-0.4C542.1,355.5,542.7,355.1,543.1,354.5L543.1,354.5z"/>
				<path class="st9" d="M654.6,227.3l-57.3,56.5l-58.7,56l-6.6,7.7c-2.9,3.3-6.3,7.6-10.3,11.4c-0.6,0.9-1.6,0.6-2.4,1.1
					c-2.7,1.7-5.1,3.8-7.1,6.1l-17.6,19.3c-1,1.3-1.4,2-0.6,2.9l9.4,12.6c1.7,1.7,3.7,2.6,4.6,1.1c4.4-7.9,15.7-19.7,20-29
					c2.4-5.7,5.6-15.9,7.9-18.3c2.9-3.1,10.1-11.1,16.9-18.2l1.4-1.4l1.3-1.4c33.6-34.3,72.5-75.9,100.8-105.2l-1.4-1.4L654.6,227.3
					z"/>
				<path class="st6" d="M535.5,340c-1.7,0-2.9-1-4.1-2c1.7,0.6,3.4,1.1,5,0.6L535.5,340z"/>
				<path class="st10" d="M714.3,185.6L668.8,223c-0.4,0.6-0.9,0.4-1.3,0l-4.1-3.4v-0.8l2-2c0.3-0.3,0-0.4-0.1-0.9l-0.9-0.9
					c-0.4-0.1-0.7,0-1,0.3l-2,2.1c-1,0-1.9,0.9-2,2c-27.4,26.7-51.2,50.6-78.5,76.9l-32.3,30.9c-1.1,1.4-6.1,4.1-9.4,6.3
					c-1,0.5-1.9,1.3-2.6,2.1l-2.6,7.9l-3.6,6c3.3,3.4,3.1,3.1,5.4,5.3l16-17l1.1-1.4c-0.6-0.8-1.3-1.6-2-2.3c-0.6-0.5-1.1-1-1.7-1.4
					l-0.9-0.9c-0.3-0.3,0.3-0.7,0.6-1c37.9-36.4,78.6-76.8,111.9-109.5c0.5,0.2,1,0.2,1.4,0l4,4.6c0.9,0.9,1.7,0.9,2.4,0.6
					L714.3,185.6L714.3,185.6z"/>
				<path class="st8" d="M534.3,343.2h0.7c0.3,0,0.6,0,0.9-0.1c0.7-2.3,1.4-4.6,2.1-6.9c-0.3-0.3-0.6-0.5-1-0.6c0.4,0,0.7,0.3,1,0.6
					l-1,3.4l-1,3.4c-0.3,0.2-0.6,0.3-0.9,0.3c-0.3,0-0.7-0.1-1-0.1L534.3,343.2L534.3,343.2z"/>
				<circle class="st11" cx="544.5" cy="340" r="0.9"/>
				<circle class="st11" cx="539.1" cy="345.4" r="0.9"/>
				<path class="st8" d="M548.5,331.8l-1.4-1.1c-0.4-0.4-0.8-0.7-1.1-1.1C546.9,330.2,547.8,331,548.5,331.8L548.5,331.8z"/>
				<path class="st6" d="M636,241.2l5,5l0.9-0.9l-5-4.9l-0.9,0.9V241.2z"/>
			</g>
			<g id="c">
				<path class="st10" d="M645,385.6c-28.8-39.9-65.9-73.1-108.8-97.2c5.1-0.3,16.4,5.6,21,8.6c34.2,22,63.3,51,93.8,85.5
					c-1.5,1.5-3.1,3-4.9,4.3L645,385.6L645,385.6z"/>
				<path class="st7" d="M648,385.3l-2.3,1.7c-32.9-42.3-78.8-82.8-109.6-98.8c43,19.9,79.2,59.7,111.5,96.8h0.3L648,385.3z"/>
				<path class="st8" d="M648,385.3l-2.3,1.7c-7.6-9.7-15.7-19.1-24.2-28.2c-8.4-9.1-17.1-17.8-26.2-26.2
					c-9.1-8.4-18.5-16.4-28.3-24c-4.9-3.8-10-7.4-15.2-10.9c-5.1-3.3-10.4-6.6-15.9-9.4V288c11.3,5.3,22.1,11.7,32.2,19
					c10,7.3,19.6,15.2,28.6,23.7s17.8,17.3,26.2,26.4c8.6,9.1,16.6,18.6,24.9,27.7L648,385.3z M648,385.3
					c-8.2-9.4-16.5-18.6-25-27.7c-8.4-9.1-17.1-17.9-26.2-26.4c-9-8.5-18.6-16.4-28.6-23.7c-10-7.3-20.8-13.6-32-18.9v-0.3
					c10.8,6.1,21.1,13,31,20.4c9.8,7.6,19.3,15.6,28.4,24c9.1,8.4,17.8,17.1,26.2,26.2s16.4,18.5,24,28.3l2.1-2L648,385.3z"/>
				<g>
					<path class="st12" d="M657.9,378.4c-2.7,0.7-5.2,1.8-7.6,3.3c-0.3,2-2.9,4.3-5.1,4.7l-0.7-1.1c0-0.1-0.1-0.1-0.1-0.1
						c-0.1,0-0.1,0.1-0.1,0.1c-0.3,0.1-0.6,0.3-0.9,0.4c-0.9,0-1.9,0.3-2.3,1.4c-0.6,1.4,0.6,3.3,1.7,4.4c1.4,1,2,1.4,3.4,1.4
						c1.6-0.4,2.4-1.9,2.9-2.3c5.3,6.4,9.3,10,16,15.2c3,0,4.6-1.9,3.6-4c-0.3-0.7-1.1-1.1-1.9-0.9v-0.7c3.4-3.1,5-7.1,1.3-14.1
						c-3.1-5.7-6.7-7.6-10-7.6L657.9,378.4z M666.9,385l1.4,2.9c2.1,4.3,0.3,9.4-3.4,11.1h-0.3c0.6-1-1.1-3.1-2-2.4
						c0.4-1-1-2.9-2.1-2.4c0.6-1-0.7-2.7-2-2.1c0.6-1-0.4-2.6-1.9-2.3c0.4-1.3-0.6-2.6-1.9-2.3c0-1.1-0.3-1.7-0.7-2.1
						c1.4-1.1,3.3-3,4.9-3.9c3.9-1.7,6.3,1.4,7.9,3.6L666.9,385z"/>
					<path class="st13" d="M668.5,389.6c-0.7-0.4-1.1-1.1-0.9-1.6c0.3-0.6,1-0.7,1.7-0.3c0.7,0.3,1.1,1,0.9,1.4
						C670,389.7,669.2,389.8,668.5,389.6L668.5,389.6z"/>
					<path class="st13" d="M668,388.1c-0.7-0.4-1.1-1.1-0.9-1.7c0.3-0.4,1-0.6,1.7-0.1c0.7,0.3,1.1,1,0.9,1.4
						C669.6,388.3,668.7,388.4,668,388.1L668,388.1z"/>
					<path class="st13" d="M667.2,386.4c-0.7-0.3-1.1-1-0.9-1.4c0.3-0.6,1-0.7,1.7-0.4c0.7,0.4,1.1,1.1,0.9,1.6
						C668.7,386.7,667.9,386.8,667.2,386.4L667.2,386.4z"/>
					<path class="st13" d="M666,385c-0.7-0.4-1.1-1.1-0.9-1.6c0.3-0.4,1-0.6,1.7-0.3c0.7,0.4,1.1,1.1,1,1.6
						C667.6,385.1,666.7,385.4,666,385L666,385z"/>
					<path class="st13" d="M664.6,383.6c-0.9-0.3-1.1-1.1-0.9-1.4v-0.4c0.3,0.1,1,0.3,0.9-0.1c0-0.3-0.1-0.4,0-0.3l0.9,0.3
						c0.7,0.4,1.1,1.1,0.9,1.6C666,383.8,665.3,384,664.6,383.6L664.6,383.6z"/>
				</g>
				<path class="st14" d="M649,390.7c0.9-2.6,2.9-4.9,5-5.4 M649.3,391c1.9,0.4,4.7-1.7,5.4-3.6 M651,393.1c2.3,0.6,4.7-1.7,5.7-3.4
					 M653.2,395.4c2.9,0,4.4-1.9,5.3-3.4 M655.3,397.7c2.3,0,4.6-2,5.1-3.6 M657.3,399.6c2.2,0.1,4.2-1,5.3-2.9 M659.7,401.6
					c2.3,0.1,4.3-1.3,4.9-2.6 M662.3,403.7c2.3,0,3.9-1.4,4.4-2.9"/>
				<path class="st15" d="M649,390.7c0.4-1.2,1-2.3,1.9-3.3l1.4-1.4l1.7-0.7c-0.6,0.2-1.2,0.5-1.7,0.9l-1.4,1.4
					C650.1,388.5,649.5,389.6,649,390.7L649,390.7z M649.3,391.1c0.6,0,1.1,0,1.7-0.3c0.5-0.2,1-0.5,1.4-0.9l1.4-1.1l0.9-1.4
					c-0.1,0.6-0.4,1-0.9,1.4c-0.4,0.5-0.9,0.9-1.4,1.3c-0.4,0.3-0.9,0.5-1.4,0.7C650.5,391.1,649.9,391.2,649.3,391.1z M651,393.1
					h1.7l1.4-0.9c1-0.7,1.8-1.6,2.4-2.6c-0.3,0.5-0.6,1-1,1.4c-0.4,0.5-0.8,0.9-1.3,1.3c-0.4,0.3-0.9,0.6-1.4,0.7H651V393.1z
					 M653.2,395.4c0.5,0,1.1-0.1,1.6-0.3c0.5-0.2,1-0.4,1.4-0.7c0.5-0.3,1-0.7,1.4-1.1l0.9-1.4c-0.5,1.1-1.2,2-2.1,2.7
					C655.4,395.2,654.3,395.5,653.2,395.4L653.2,395.4z M655.3,397.6c1.1-0.1,2.1-0.5,3-1.1s1.6-1.4,2.1-2.3c-0.1,0.4-0.4,1-0.9,1.4
					l-1.1,1c-0.4,0.3-0.9,0.5-1.4,0.7C656.5,397.6,655.9,397.6,655.3,397.6L655.3,397.6z M657.5,399.6c0.5-0.1,1-0.2,1.4-0.3
					c0.5-0.1,1-0.3,1.4-0.6c1-0.5,1.8-1.2,2.3-2.1l-0.9,1.4c-0.4,0.3-0.9,0.7-1.4,0.9C659.4,399.3,658.4,399.5,657.5,399.6z
					 M659.7,401.6h1.4c0.5-0.2,1-0.4,1.4-0.7l1.1-0.7c0.4-0.4,0.7-0.7,0.9-1.1c-0.2,0.4-0.4,0.8-0.7,1.1c-0.4,0.3-0.8,0.6-1.3,0.9
					C661.7,401.4,660.7,401.6,659.7,401.6L659.7,401.6z M662.3,403.7c0.5,0,1,0,1.4-0.1c0.9-0.2,1.7-0.7,2.3-1.4
					c0.3-0.4,0.5-0.7,0.7-1.1c-0.3,0.9-0.9,1.6-1.7,2.1c-0.4,0.2-0.9,0.4-1.4,0.4c-0.5,0.1-1,0.1-1.4,0L662.3,403.7z"/>
			</g>
		</g>
		<g>
			<g transform="rotate(-177.2 487 -.2)">
				<g id="b_1_">
					<path class="st16" d="M296.7-340.1c-0.5-1-0.3-2.1,0.4-2.9c0.4-0.4,1.1-0.6,1.7-0.5c0.7,0,0.4-0.7-0.3-0.7
						c-1.7-0.3-3.1,1.6-2.7,3L296.7-340.1z"/>
					<path class="st7" d="M299.8-344.3c1.4,1.4,2.6,3.5,0.8,5c-0.7,0.6-1.7,0.9-2.4,0.7l1.5,1.4c1.2-0.5,2.1-1.4,2.7-2.6
						c0.8-1.8-0.5-3.7-1.7-5.1c-1.5-1.8-4.1-2.8-5.8-2c-1,0.7-1.7,1.6-2.2,2.7l1.5,1.8c-0.5-1.1-0.2-2,0.6-2.9
						C296.1-346.5,298.3-345.9,299.8-344.3L299.8-344.3z"/>
					<path class="st8" d="M299.8-344.3c0.5,0.5,1,1,1.4,1.7c0.3,0.6,0.5,1.3,0.4,2c-0.3,1.1-1.1,1.9-2.2,2.1c-0.4,0-0.9,0-1.2-0.2
						h0.1l1.5,1.5h-0.1c0.7-0.4,1.4-0.9,1.9-1.5c0.3-0.3,0.5-0.6,0.7-0.9c0.2-0.4,0.2-0.8,0.2-1.2c0-0.9-0.2-1.6-0.5-2.3l-1.5-1.9
						c-0.6-0.5-1.2-1-1.9-1.3c-0.7-0.4-1.5-0.6-2.3-0.6c-0.4,0-0.8,0.1-1.1,0.2l-1,0.8c-0.6,0.5-0.9,1.2-1.3,1.8l1.7,1.6l-0.1,0.1
						c-0.3-0.4-0.3-0.7-0.3-1.1s0.2-0.7,0.4-1s0.4-0.6,0.7-0.9c0.3-0.2,0.6-0.4,1-0.5c0.7-0.2,1.4,0.1,2.2,0.3
						C298.8-345.3,299.4-344.8,299.8-344.3L299.8-344.3z M299.8-344.3c-0.5-0.5-1-0.9-1.6-1.2c-0.7-0.4-1.5-0.5-2.2-0.3l-0.8,0.5
						l-0.7,0.7c-0.3,0.3-0.3,0.7-0.2,1l0.2,1.1h-0.3l-1.5-1.8c0.3-0.8,0.8-1.5,1.3-2.1c0.3-0.3,0.7-0.6,1.1-0.8
						c0.4-0.1,0.7-0.2,1.1-0.2c1,0,1.7,0.2,2.5,0.6c0.7,0.4,1.5,0.8,1.9,1.5c0.6,0.6,1.1,1.2,1.5,1.9c0.5,0.8,0.6,1.5,0.7,2.3
						c0,0.6-0.1,1-0.4,1.4c-0.6,1.1-1.6,1.9-2.7,2.4l-1.5-1.6h0.1c0.4,0.3,1.3,0.1,1.8-0.4c0.6-0.3,1-0.9,1.2-1.5
						c0.1-0.6-0.1-1.4-0.4-2C300.7-343.3,300.4-343.9,299.8-344.3L299.8-344.3z"/>
					<path class="st9" d="M417.5-222.5l1.4-1.5c-29.7-27.9-70.6-67.5-105.8-100.1l-1.4-1.4l-1.5-1.4c-7.1-6.7-14.7-14.3-17.7-17.3
						c-2.4-2.3-6-12.3-8.7-17.9c-4.7-9.1-16.6-20.4-21.4-28c-0.9-1.4-2.9-0.4-4.5,1.4l-8.8,13c-0.8,0.9-0.4,1.6,0.7,2.8l18.5,18.4
						c2.2,2.3,4.7,4.2,7.4,5.8c0.9,0.5,1.9,0.2,2.5,1c4.2,3.7,7.8,7.8,10.8,10.9l6.9,7.4l61.4,53.1l60,53.6L417.5-222.5z"/>
					<path class="st16" d="M293.9-328c-1.6-0.5-3.3,0.2-5,0.8c1.2-1.1,2.3-2.1,4-2.2L293.9-328z"/>
					<path class="st10" d="M479.2-183.9l-47.5-38.6c-0.7-0.3-1.6-0.2-2.4,0.7l-3.8,4.8c-0.5-0.2-1-0.1-1.4,0.1
						C389.2-248,346.6-286.2,307-320.8c-0.3-0.3-0.9-0.7-0.6-1l0.8-0.9c0.6-0.5,1.1-1,1.6-1.5c0.7-0.7,1.3-1.5,1.9-2.4l-1.2-1.4
						l-16.8-16.2c-2.2,2.3-2.1,2-5.2,5.5l3.9,5.8l3,7.7c0.7,0.9,1.7,1.5,2.7,2c3.4,2,8.5,4.4,9.7,5.8l33.7,29.4
						c28.6,24.9,53.4,47.6,82.1,73c0.2,1.1,1.1,1.9,2.1,1.9l2.1,2c0.3,0.3,0.6,0.4,1,0.2l0.8-0.9c0.1-0.4,0.4-0.6,0.1-0.9l-2.1-1.9
						v-0.9l4-3.6c0.4-0.4,0.8-0.6,1.3-0.1l47.2,35.2L479.2-183.9z"/>
					<path class="st8" d="M291.4-332.6c0.3-0.1,0.7-0.2,1-0.2s0.6,0.1,0.9,0.2l1.2,3.4l1.2,3.4c-0.3,0.3-0.5,0.6-1,0.6
						c0.4-0.1,0.7-0.3,1-0.6c-0.9-2.2-1.7-4.5-2.5-6.7c-0.3-0.1-0.6-0.1-0.9-0.1h-0.7L291.4-332.6z"/>
					
						<ellipse transform="matrix(4.884984e-02 -0.9988 0.9988 4.884984e-02 616.6192 -12.0223)" class="st11" cx="302" cy="-329.8" rx="0.6" ry="0.6"/>
					
						<ellipse transform="matrix(4.884988e-02 -0.9988 0.9988 4.884988e-02 616.3914 -22.6614)" class="st11" cx="296.3" cy="-335" rx="0.6" ry="0.6"/>
					<path class="st8" d="M306.4-321.9c-0.7,0.9-1.6,1.7-2.5,2.4c0.3-0.4,0.7-0.8,1.1-1.2L306.4-321.9L306.4-321.9z"/>
					<path class="st16" d="M398.2-235.8l0.9,0.8l4.7-5l-0.9-0.8l-4.8,5.2L398.2-235.8z"/>
				</g>
			</g>
			<g transform="rotate(-176.6 490 -.4)">
				<g id="c_1_">
					<path class="st10" d="M398.1-381.5l1.1-1.2c1.8,1.2,3.5,2.6,5.1,4c-28.3,36.2-55.7,66.9-88.5,90.9c-4.4,3.3-15.3,9.8-20.5,9.8
						C336.7-304.7,371.7-340,398.1-381.5L398.1-381.5z"/>
					<path class="st7" d="M401-381.1h-0.3c-30,38.9-63.8,80.8-105.5,103.2c29.9-17.8,73.3-60.9,103.6-105.1l2.4,1.6L401-381.1z"/>
					<path class="st8" d="M401-381.1c-7.7,9.6-15.2,19.5-23.2,29.2c-7.8,9.6-16,18.9-24.5,27.9s-17.6,17.5-27.1,25.4
						c-9.6,7.9-20,14.9-31,20.9v-0.3c5.3-3.2,10.3-6.8,15.3-10.4c5-3.8,9.8-7.7,14.5-11.7c9.3-8.1,18.3-16.7,26.8-25.6
						s16.7-18.1,24.6-27.7c7.9-9.5,15.4-19.4,22.4-29.5l2.4,1.6L401-381.1z M401.1-381.2l-2.3-1.9c-7,10.2-14.4,20.1-22.3,29.7
						c-7.8,9.5-16,18.8-24.6,27.7c-8.6,9-17.6,17.5-27,25.7c-9.4,8-19.4,15.5-29.7,22.2v-0.3c10.9-5.9,21.3-12.8,30.8-20.7
						c9.6-7.9,18.6-16.4,27.1-25.4s16.7-18.3,24.5-27.9c7.9-9.6,15.7-19.3,23.3-29.2L401.1-381.2z"/>
					<g>
						<path class="st12" d="M411.5-375.3c3.3-0.2,6.7-2.3,9.5-8.2c3.3-7.2,1.5-11.1-2.1-14v-0.7c0.7,0.2,1.6-0.2,1.8-1
							c0.9-2.2-0.8-4-3.8-3.8c-6.4,5.5-10.2,9.3-15.1,16.1c-0.5-0.4-1.4-1.8-3-2.1c-1.4,0.1-2,0.5-3.3,1.6c-1.1,1.2-2.1,3.1-1.4,4.5
							c0.5,1.1,1.5,1.3,2.4,1.3c0.3,0.1,0.6,0.3,0.9,0.4c0,0.1,0.1,0.1,0.2,0.1s0.1-0.1,0.1-0.2l0.6-1.2c2.3,0.3,5,2.4,5.4,4.4
							C406.1-376.8,408.7-375.8,411.5-375.3L411.5-375.3z M419.8-382.2c-1.4,2.2-3.7,5.5-7.6,4c-1.6-0.8-3.6-2.5-5.1-3.6
							c0.4-0.5,0.7-1,0.6-2.2c1.3,0.2,2.2-1.1,1.7-2.4c1.4,0.2,2.3-1.4,1.7-2.4c1.3,0.5,2.5-1.3,1.9-2.3c1.2,0.4,2.5-1.6,2-2.6
							c0.9,0.7,2.5-1.6,1.9-2.5h0.3c3.8,1.5,6,6.5,4.1,10.9l-1.3,2.9L419.8-382.2z"/>
						<path class="st17" d="M421.3-386.9c0.7-0.3,1.6-0.2,1.7,0.3c0.3,0.4-0.1,1.1-0.8,1.5c-0.7,0.5-1.4,0.4-1.7-0.2
							C420.2-385.7,420.6-386.4,421.3-386.9L421.3-386.9z"/>
						<path class="st17" d="M420.9-385.4c0.7-0.3,1.6-0.2,1.7,0.3c0.3,0.4-0.1,1.1-0.8,1.5c-0.7,0.5-1.4,0.4-1.7,0
							C419.9-384.2,420.2-385,420.9-385.4L420.9-385.4z"/>
						<path class="st17" d="M420.2-383.7c0.7-0.5,1.6-0.4,1.7,0.2c0.3,0.4-0.1,1.1-0.8,1.6c-0.7,0.3-1.4,0.2-1.7-0.3
							C419.1-382.6,419.5-383.3,420.2-383.7L420.2-383.7z"/>
						<path class="st17" d="M419.1-382.2c0.7-0.5,1.6-0.2,1.9,0.2c0.2,0.4-0.2,1.2-0.9,1.6c-0.7,0.3-1.4,0.2-1.7-0.2
							C418-381,418.4-381.7,419.1-382.2L419.1-382.2z"/>
						<path class="st17" d="M417.8-380.7c0.7-0.5,1.4-0.4,1.7,0.2c0.3,0.4-0.1,1.1-0.8,1.6l-0.8,0.3c-0.1,0.2,0,0,0-0.3
							c0.1-0.4-0.6-0.3-0.9-0.1v-0.3C416.7-379.4,416.9-380.3,417.8-380.7L417.8-380.7z"/>
					</g>
					<path class="st14" d="M407.1-381.7c-2.2-0.4-4.3-2.6-5.3-5.1 M407.7-383.9c-0.8-1.8-3.8-3.8-5.6-3.2 M409.6-386.3
						c-1.1-1.7-3.7-3.8-5.9-3.1 M411.1-388.7c-0.9-1.5-2.6-3.3-5.5-3.1 M413-391c-0.7-1.5-3.1-3.4-5.3-3.3 M415-393.7
						c-1.2-1.8-3.3-2.8-5.4-2.5 M416.9-396.1c-0.6-1.3-2.7-2.6-5-2.3 M418.9-398c-0.7-1.4-2.3-2.7-4.6-2.6"/>
					<path class="st15" d="M401.8-386.9c0.5,1.1,1.2,2.1,2,3l1.5,1.3c0.5,0.3,1.1,0.6,1.8,0.8l-1.8-0.6l-1.5-1.3
						C403-384.6,402.3-385.7,401.8-386.9L401.8-386.9z M403.8-387.1c0.5,0.1,1,0.4,1.5,0.6c0.6,0.3,1.1,0.7,1.5,1.2
						c0.4,0.4,0.8,0.8,0.9,1.4l-0.9-1.4l-1.5-1.1C404.8-386.7,404.3-386.9,403.8-387.1c-0.6-0.3-1.2-0.2-1.7-0.2
						C402.6-387.4,403.2-387.4,403.8-387.1z M405.5-389.5c0.5,0.1,1,0.3,1.5,0.6c0.5,0.3,1,0.8,1.4,1.2c0.4,0.4,0.8,0.9,1.1,1.4
						c-0.7-1-1.6-1.8-2.6-2.4L405.5-389.5l-1.8,0.1L405.5-389.5z M405.7-391.8c1.1-0.2,2.2,0.1,3.2,0.7s1.8,1.5,2.3,2.6l-0.9-1.4
						c-0.4-0.4-1-0.8-1.5-1.1c-0.5-0.3-1-0.5-1.5-0.6C406.7-391.8,406.2-391.8,405.7-391.8L405.7-391.8z M407.7-394.1
						c0.6,0,1.1-0.1,1.7,0.2c0.5,0.1,1,0.4,1.5,0.6l1.2,0.9c0.5,0.4,0.8,1,0.9,1.4c-0.6-0.9-1.4-1.6-2.3-2.2
						C409.8-393.7,408.8-394.1,407.7-394.1L407.7-394.1z M412.6-395.7c0.6,0.1,1,0.5,1.5,0.8l0.9,1.4c-0.6-0.9-1.4-1.6-2.4-2
						c-0.5-0.2-1-0.4-1.5-0.5s-1-0.2-1.4-0.2C410.7-396.3,411.7-396.1,412.6-395.7z M411.9-398.3c1-0.1,2,0,2.9,0.4
						c0.5,0.2,0.9,0.5,1.3,0.8c0.3,0.3,0.6,0.7,0.8,1.1c-0.2-0.4-0.5-0.7-0.9-1.1l-1.2-0.6c-0.5-0.3-1-0.5-1.5-0.6L411.9-398.3
						L411.9-398.3z M414.2-400.5c0.5-0.1,0.9-0.1,1.4-0.1s1,0.1,1.5,0.3c0.8,0.5,1.5,1.2,1.8,2c-0.2-0.4-0.5-0.8-0.8-1.1
						c-0.6-0.7-1.5-1.1-2.4-1.3c-0.5-0.1-1-0.1-1.4-0.1L414.2-400.5z"/>
				</g>
			</g>
		</g>
	</g>
	<g>
		<path class="st3" d="M498.8,214c11.3-6,20.9-14.8,27.9-25.6C504.4,194.4,494.3,209,498.8,214L498.8,214L498.8,214z M707.2,220.8
			c-4.9-11.2-12.6-21-22.3-28.4c4,21.7,17.2,32.6,22.3,28.6V220.8z"/>
		<path class="st4" d="M498.8,214c-4.7-5,5.4-19.4,27.7-25.4C510.8,200.6,499.1,211.8,498.8,214z M707.2,220.8
			c-5.3,4.3-18.2-6.6-22.2-28.2C695.4,208.3,705.1,220.5,707.2,220.8z"/>
	</g>
	<g>
		
			<radialGradient id="SVGID_1_" cx="939.3276" cy="1457.3894" r="23.5826" gradientTransform="matrix(0.4445 0 0 0.4445 135.995 -336.0547)" gradientUnits="userSpaceOnUse">
			<stop  offset="0.2" style="stop-color:#F9F0AA"/>
			<stop  offset="1" style="stop-color:#B07E09"/>
		</radialGradient>
		<path class="st18" d="M560.3,325.7c0,0-8.9,1-11.3-11.1c-2.6-13,7.6-14.3,7.6-14.3s11.6-1.3,18.9-1.4l3.1,25.7L560.3,325.7
			L560.3,325.7z"/>
		
			<radialGradient id="SVGID_2_" cx="952.8338" cy="1472.5037" r="15.5788" gradientTransform="matrix(0.4445 0 0 0.4445 135.995 -336.0547)" gradientUnits="userSpaceOnUse">
			<stop  offset="0.2" style="stop-color:#F9F0AA"/>
			<stop  offset="1" style="stop-color:#B07E09"/>
		</radialGradient>
		<path class="st19" d="M561.4,321.8c0,0-5.7,1-6.9-8c-0.9-6.4,3.1-7.3,3.1-7.3l13.1,2.3v11.7L561.4,321.8L561.4,321.8z"/>
		
			<radialGradient id="SVGID_3_" cx="960.8734" cy="1458.3542" r="14.0066" gradientTransform="matrix(0.4445 0 0 0.4445 135.995 -336.0547)" gradientUnits="userSpaceOnUse">
			<stop  offset="0.2" style="stop-color:#F9F0AA"/>
			<stop  offset="1" style="stop-color:#B07E09"/>
		</radialGradient>
		<path class="st20" d="M557.7,306.5c0,0,8.4-0.6,12.9-1.1l1.9,8.1l-10.1,0.6C562.3,314.1,561.6,306.8,557.7,306.5L557.7,306.5z"/>
		
			<radialGradient id="SVGID_4_" cx="974.7011" cy="1453.5305" r="24.8689" gradientTransform="matrix(0.4445 0 0 0.4445 135.995 -336.0547)" gradientUnits="userSpaceOnUse">
			<stop  offset="0.2" style="stop-color:#F9F0AA"/>
			<stop  offset="1" style="stop-color:#B07E09"/>
		</radialGradient>
		<path class="st21" d="M556,300.4c0,0,10.7-2.7,12.1,9.3c0.3,3-1.4,10.1-6.7,12.1l19.9-2.1l-1.9-21.4l-6.6,0.6
			c0,0-14.3,0.4-16.9,1.4v0.1H556z"/>
		<path class="st22" d="M560.3,325.7c0,0,74.2-5,81.8-4.7c22.6-12.3,0-60.7-19-87.9c2.1-6.1-42.7-19.9-62.9-18.6
			c-2.7,0-5.1,0.3-7.4,0.4c-11,1.1-11.1,15.3-6.7,24.3c4.3,8.6,43.3,78.6,16,86.2L560.3,325.7L560.3,325.7z"/>
		
			<linearGradient id="SVGID_5_" gradientUnits="userSpaceOnUse" x1="1024.7234" y1="1299.485" x2="1022.5797" y2="1260.6094" gradientTransform="matrix(0.4445 0 0 0.4445 135.995 -336.0547)">
			<stop  offset="0.2" style="stop-color:#B07E09;stop-opacity:0"/>
			<stop  offset="1" style="stop-color:#B07E09"/>
		</linearGradient>
		<path class="st23" d="M639.8,261.6c-4.8-9.9-10.4-19.5-16.7-28.6c2.1-6.1-42.7-19.9-62.9-18.6c-2.7,0-5.1,0.3-7.4,0.4
			c-11,1.1-11.1,15.3-6.7,24.3c1.4,2.6,6.1,11.4,11.3,22.4"/>
		
			<linearGradient id="SVGID_6_" gradientUnits="userSpaceOnUse" x1="1054.1111" y1="1420.088" x2="1057.5414" y2="1462.8226" gradientTransform="matrix(0.4445 0 0 0.4445 135.995 -336.0547)">
			<stop  offset="0.2" style="stop-color:#B07E09;stop-opacity:0"/>
			<stop  offset="1" style="stop-color:#B07E09"/>
		</linearGradient>
		<path class="st24" d="M564.3,278.4c8,20.9,12.4,42.9-2.3,46.9l-1.7,0.4c0,0,74.3-5,81.8-4.7c12.3-6.7,11.1-24,4.6-42.9"/>
		
			<radialGradient id="SVGID_7_" cx="934.8256" cy="1277.6274" r="18.5802" gradientTransform="matrix(0.4445 0 0 0.4445 135.995 -336.0547)" gradientUnits="userSpaceOnUse">
			<stop  offset="0.2" style="stop-color:#F9F0AA"/>
			<stop  offset="1" style="stop-color:#B07E09"/>
		</radialGradient>
		<path class="st25" d="M553.4,219c-5.3,0-6.7,5.1-6.6,8.3c0.1,8.6,6.6,8.9,6.6,8.9l8.6-0.4l4-17.4L553.4,219z"/>
		
			<linearGradient id="SVGID_8_" gradientUnits="userSpaceOnUse" x1="952.5287" y1="1268.3088" x2="958.1027" y2="1255.5886" gradientTransform="matrix(0.4445 0 0 0.4445 135.995 -336.0547)">
			<stop  offset="0.2" style="stop-color:#F9F0AA"/>
			<stop  offset="1" style="stop-color:#B07E09"/>
		</linearGradient>
		<path class="st26" d="M553.4,219l12.6-0.7l1.4,13l-11.1,0.6C556.3,231.9,559.9,221.5,553.4,219z"/>
		
			<linearGradient id="SVGID_9_" gradientUnits="userSpaceOnUse" x1="1022.6441" y1="1229.067" x2="1026.3601" y2="1276.3751" gradientTransform="matrix(0.4445 0 0 0.4445 135.995 -336.0547)">
			<stop  offset="0.2" style="stop-color:#F9F0AA"/>
			<stop  offset="1" style="stop-color:#B07E09"/>
		</linearGradient>
		<path class="st27" d="M623,233.1c9.6-1.4,9.4-14.3,2.9-19.6c-22.2-0.7-51.3-0.1-72.3,1.4c2.4,0,9,0.6,9.9,9.3
			c0.3,3.8-1.3,7.6-4.3,10c-2.9,2-5.7,2-5.7,2h5.1l4.3-0.6c30-3.9,60-2.6,60-2.6h0.1V233.1z"/>
		<path class="st28" d="M569.3,253.2c-0.3-0.4-0.4-1-1.1-1.1c-0.3,0-0.9,0-0.7-0.6h1.1l2.3-0.3c0.6,0.1,0.4,0.9,0,0.7
			c-0.7,0-0.3,0.7-0.1,1.1l1.9,4.3c0.1,0.6,0.6,1,1,1l1.6-0.1c0.4-0.3,0.3-0.9,0.3-1.4c-0.1-0.4,0.7-0.3,0.7,0l0.6,2
			c0,0.3-0.3,0.1-0.6,0.1l-4.3,0.3c-0.4,0-1.1,0.4-1.4,0c0-0.6,0.9-0.3,0.9-0.7l-0.4-1.4L569.3,253.2L569.3,253.2z M576.2,252.8
			c-0.1-0.4-0.4-1-1-1.1c-0.3,0-0.9,0-0.9-0.6h1l2.4-0.3c0.4,0,0.6,0.7,0,0.6c-0.4,0-0.4,0.6-0.3,1l2.1,4.9c0,0.3,0.3,0.7,0.7,0.9
			c0.4,0,1,0,1,0.4c0,0.3-0.6,0.1-0.9,0.1c-0.8,0-1.5,0.1-2.3,0.3c-0.3,0-0.7,0-0.7-0.4s0.7,0,0.9-0.6c0-0.4-0.3-0.9-0.6-1.4
			L576.2,252.8L576.2,252.8z M582.6,253.8c0,0.3,0.6,0,0.7,0c0.4,0,0.9-0.1,0.9-0.6c-0.1-0.7-0.4-1.3-1-1.7
			c-0.4-0.4-1.1-0.3-1.6-0.3l0.1,0.7L582.6,253.8L582.6,253.8z M583.4,256.1c0.3,0.4,0.4,1,0.9,1.4c0.3,0.3,0.9,0.1,1.1,0
			c0.4,0,0.7-0.4,0.6-0.7c-0.1-1-0.7-1.9-1.7-2.1c-0.5-0.1-1-0.1-1.4,0l0.3,0.7L583.4,256.1z M580.6,252.6c-0.3-0.4-0.4-1-1-1.4
			c-0.3,0-0.9,0.1-1-0.3c0-0.4,0.9-0.1,1.1-0.3c1.3,0,2.4-0.4,3.7,0c1,0.3,2,1.1,2.1,2.3c0,0.6-0.4,1-0.9,1.1l0.7,0.1
			c0.9,0.3,1.6,0.9,2,1.6c0.3,0.6,0.4,1.4,0,2c-0.6,0.6-1.4,0.6-2,0.6c-1.1,0-2.1,0-3.3,0.3c-0.3,0-0.6-0.7,0-0.7
			c0.4,0,0.4-0.6,0.3-0.9l-1.9-4.3v-0.1H580.6z M591.2,249.9c0.4,0,0.6,0.4,0.7,0.7l0.4,1.3c-0.4,0.3-0.7-0.3-0.9-0.6
			c-0.1-0.3-0.6-0.7-1-0.6c-0.6,0-1.1,0-1.7,0c-0.3,0.3,0,0.6,0.1,0.9l0.9,1.9c0.3,0,0.9,0,1.1-0.3c0-0.3-0.4-1,0.3-0.9
			c0.4,0.3,0.3,0.9,0.6,1.3l0.7,1.6c-0.4,0.4-0.7-0.1-0.9-0.6c-0.3-0.4-1-0.4-1.4-0.4c-0.3,0,0,0.3,0,0.4l0.9,2.1
			c0.3,0.4,1,0.4,1.4,0.4c0.6,0,1.1,0,1.4-0.6c0.3-0.3-0.4-1,0-1.1c0.6,0,0.6,0.6,0.7,0.9c0,0.4,0.3,0.9,0.4,1.1
			c0,0.3-0.4,0.3-0.6,0.3L590,258c-0.6,0-1.3,0.3-1.4-0.3c0-0.4,0.9-0.1,0.9-0.9l-0.6-1.4l-1.6-3.7c-0.3-0.4-0.6-0.9-1.1-1
			c-0.3,0-0.9,0-0.6-0.6h1.4L591.2,249.9L591.2,249.9z M594.4,251.8c-0.1-0.4-0.4-1-1-1.3c-0.3,0-1,0-1-0.6c0.4-0.3,1,0,1.4,0
			c1.1,0,2.3-0.4,3.4,0c1.1,0.3,2.1,1.3,2.3,2.6c0,0.6-0.4,1-1,1.1c-0.4,0,0.3,0.1,0.4,0.3c1,0.4,1.4,1.3,2,2.1
			c0.1,0.3,0.7,1,0.9,0.3c0-0.7,1,0,0.7,0.4c0,0.6-0.4,0.9-1,0.9s-1.3-0.3-1.6-0.9c-0.6-0.9-1-1.9-1.9-2.4c-0.3-0.3-0.7-0.4-1.1-0.1
			v0.6l0.9,1.7c0.3,0.4,0.9,0.4,1.4,0.4c0.4,0.1,0.3,0.9-0.3,0.7h-2.4c-0.4,0.3-1.3,0-1-0.4c0.4,0,1-0.3,0.7-0.7l-1.4-3.7
			L594.4,251.8L594.4,251.8z M596.4,253.2c0.3,0.4,0.9,0,1.3,0c0.4,0,0.4-0.7,0.3-1c-0.1-0.7-0.6-1.4-1.3-1.7
			c-0.3,0-1.1-0.3-1.3,0.1l1,2.3v0.1V253.2z M606.7,255.5c0.3,0.4,0.4,0.9,0.9,1c0.3,0,0.9,0,1,0.4c0,0.4-0.6,0.1-0.9,0.3
			c-0.8-0.1-1.5-0.1-2.3,0c-0.4,0.1-0.9,0-0.9-0.4c0.3-0.3,1,0,1-0.6l-0.7-1.6l-1.6-4.1c-0.1-0.4-0.7-0.4-1-0.4c-0.4,0-1,0-1,0.6
			c0,0.4,0.3,1,0,1.1c-0.4,0-0.6-0.4-0.7-0.7l-0.4-1.4c0-0.3,0.4-0.1,0.6-0.1l6-0.3c0.4,0,0.7,0.3,0.7,0.7s0.4,0.9,0.6,1.4
			c-0.1,0.4-0.7,0-0.7-0.4c-0.3-0.4-0.9-0.9-1.4-1c-0.3,0-0.9,0-1.1,0.3l0.3,1L606.7,255.5L606.7,255.5z M612.2,254.2
			c-0.3,0-0.1,0.4-0.1,0.6v1.1c0.1,0.4,0.7,0.4,1.1,0.6c0.3,0,0.1,0.7-0.3,0.6h-1.7c-0.4,0.1-1-0.1-0.7-0.6c0.3,0,0.6-0.1,0.7-0.4
			V249c0.3-0.4,0.9,0,0.9,0.1l5.1,6.6c0.3,0.3,0.7,0.6,1.1,0.6c0.4,0,0.6,0.7,0,0.6h-2.1c-0.3,0-0.7,0.3-1,0c-0.3-0.1,0-0.6,0.3-0.6
			c0.4,0,0-0.6-0.1-0.9l-0.9-1.1h-2.3V254.2z M613.7,253.5c0.3,0,0-0.1,0-0.3l-1.9-2.4v2.9h1.9V253.5z M618.2,250.9
			c-0.1-0.6-0.4-1.4-1.1-1.4c-0.4,0-1-0.3-0.7-0.7h2.4c1,0,2,0,2.9,0.3c2.2,0.7,3.9,2.6,4.3,4.9c0,0.9-0.1,1.9-0.9,2.3
			c-1.1,0.7-2.4,0.6-3.6,0.4l-2,0.1c-0.4,0-0.6-0.7,0-0.6c0.6,0,0.6-0.7,0.3-1L618.2,250.9L618.2,250.9z M621,254.5
			c0.1,0.4,0.3,1,0.7,1.4h1.4c0.7,0,1-0.7,1-1.3c0-1.1-0.3-2.1-0.9-3c-0.5-1-1.5-1.7-2.6-2h-1.4c-0.1,0,0,0.3,0,0.6L621,254.5
			L621,254.5z M590.9,272.2c0,0.4,0.6,0.9,1.1,0.9c0.3,0,1,0,1,0.6c-0.3,0.3-0.7,0-1.1,0c-0.7,0-1.4,0.1-2.1,0.3h-1.3
			c-0.3,0-0.3-0.6,0.1-0.6c0.4,0,0.9-0.1,1-0.6c0-0.4-0.3-0.9-0.4-1.1l-1.7-4c0-0.4-0.6-0.4-1-0.4c-0.3,0-0.9,0.1-1-0.3
			c0-0.4,0.7-0.3,1-0.6l1.4-0.4c0.3,0,0.4,0.1,0.6,0.4l2.4,5.7V272.2z M591.9,265.8h2.9c0.6,0,0.3-0.7,0.6-0.7c0.6,0,0.6,0.7,0.6,1
			c0.1,0.4-0.2,0.8-0.5,0.9c-0.1,0-0.2,0-0.3,0h-2.1l0.7,1.7l0.9-0.3c1.6,0,3,0.9,3.7,2.3c0.3,0.6,0.4,1.4,0,2.1
			c-0.6,0.7-1.4,0.9-2.3,0.9c-0.7,0-1.4-0.1-2-0.9c-0.1-0.3-0.1-1,0.3-0.9c0.6,0,1,0.3,1,0.9c0.1,0.3,0.7,0.1,1,0.1
			c0.4,0,0.9-0.3,0.9-0.9s-0.3-1.4-0.7-1.9c-0.3-0.6-1-1-1.7-1l-1.3,0.1c-0.4,0-0.4-0.4-0.6-0.7c-0.4-0.9-0.7-1.8-1-2.7
			c0,0,0.1-0.3,0.3-0.1L591.9,265.8z M601.7,267.2c-0.3-0.6-0.6-1.3-1.3-1.4c-0.3,0-1-0.3-0.6-0.6h2.3c1-0.3,2.1-0.3,3,0.1
			c2.2,0.7,3.9,2.6,4.3,4.9c0,0.9-0.1,1.7-1,2.1c-1,0.7-2.3,0.6-3.4,0.6l-1.9,0.3c-0.4,0-0.6-0.7,0-0.7s0.4-0.6,0.3-1L601.7,267.2
			L601.7,267.2z M604.6,270.6c0.3,0.6,0.4,1.1,0.9,1.4c0.4,0.3,0.9,0.1,1.4,0c0.6,0,0.9-0.7,0.9-1.3c0-1.1-0.4-2.1-1-3
			c-0.5-1-1.5-1.7-2.6-1.9c-0.5-0.1-1-0.1-1.4,0v0.4L604.6,270.6z M613.7,264.6c0.4,0,0.6,0.4,0.7,0.7c0,0.4,0.3,0.7,0.4,1.1
			c-0.3,0.4-0.7,0-0.9-0.4c-0.1-0.3-0.4-0.7-0.9-0.7c-0.6,0-1.2,0-1.9,0c-0.3,0.3,0,0.7,0,0.9l0.9,2c0.4,0,0.9,0,1.1-0.3
			c0.3-0.3-0.3-1,0.3-0.9c0.6,0,0.4,0.7,0.6,1.1l0.7,1.6c-0.1,0.6-0.7,0-0.9-0.4c-0.1-0.4-0.7-0.4-1.1-0.4c-0.3,0-0.6,0-0.3,0.3
			l0.9,2.1c0.3,0.6,1,0.4,1.4,0.4c0.6,0,1.1,0,1.4-0.4c0.3-0.3-0.3-0.9,0-1.1c0.6,0,0.7,0.4,0.7,0.7l0.4,1.4c0,0.1-0.4,0-0.6,0
			l-4.4,0.3c-0.4,0-1,0.3-1.3,0c-0.3-0.7,0.7-0.4,0.9-0.9l-0.4-1.3l-1.6-4.1c-0.3-0.4-0.6-0.9-1.1-1c-0.3,0-0.9,0-0.6-0.6h1.4
			L613.7,264.6L613.7,264.6z M574.9,285.1c0.1,0.7,0.9,1,1.4,1.1c1.1,0.3,2.4,0.7,3.1,1.6c0.4,0.6,0.7,1.3,0.7,2s-0.7,1.3-1.4,1.4
			c-0.8,0.2-1.7,0.2-2.4-0.1c-0.3-0.1-0.1,0.6-0.6,0.3c-0.4-0.1-0.3-0.7-0.6-1.1c-0.1-0.5-0.3-1-0.4-1.4c0-0.4,0.6,0,0.7,0.3
			c0.4,0.9,1.3,1.4,2.3,1.6c0.6,0,1.1-0.3,1.1-0.9c0-0.7-0.6-1.4-1.1-1.7c-1-0.4-2-0.6-2.9-1.1c-0.8-0.5-1.4-1.3-1.4-2.3
			c0-0.6,0.6-1.1,1.1-1.3c0.7-0.2,1.5-0.2,2.3,0c0.3,0,0.4-0.4,0.9-0.1c0,0.3,0,0.6,0.3,0.9l0.4,1.3c-0.3,0.3-0.7,0-0.7-0.3
			c-0.4-0.6-0.9-1.1-1.4-1.1s-1.1,0-1.4,0.4L574.9,285.1L574.9,285.1z M584.3,282.6c0.6,0,0.6,0.4,0.7,0.7c0,0.4,0.3,0.9,0.4,1.1
			c-0.3,0.4-0.7,0-0.9-0.3c-0.1-0.3-0.4-0.7-1-0.7h-1.7c-0.3,0.3,0,0.6,0,0.9l0.7,2c0.4,0,0.9,0,1.1-0.3c0.3-0.3-0.3-0.9,0.1-1
			c0.6,0,0.6,0.6,0.7,1c0,0.6,0.4,1.1,0.7,1.9c-0.3,0.4-0.9,0-0.9-0.4c-0.1-0.4-0.7-0.6-1.1-0.4c-0.3,0-0.6,0-0.4,0.3l0.9,2.1
			c0.1,0.4,0.6,0.4,1,0.4c0.6,0,1.3,0,1.7-0.4c0.3-0.3,0-0.9,0-1.1c0.4-0.3,0.9,0,0.9,0.4l0.3,1.4c0,0.3-0.4,0.3-0.6,0.3l-4.3,0.3
			c-0.6,0-1.1,0.4-1.4,0c0-0.6,0.7-0.4,0.9-0.9c0-0.4,0-0.7-0.3-1.1l-1.4-4.3c0-0.4-0.4-0.9-1-0.9c-0.3,0-0.9-0.3-0.6-0.6h1.4
			L584.3,282.6L584.3,282.6z M590.3,288.7c0.1,0.4,0.4,0.9,0.9,1c0.4,0,1-0.1,1.1,0.3c0,0.6-0.7,0.3-1,0.3c-0.8,0-1.5,0-2.3,0.1
			c-0.3,0-0.7,0.3-0.9-0.1c0-0.6,0.7-0.3,0.9-0.6l-0.1-1.1l-1.4-4.3c-0.3-0.4-0.4-1-1-1c-0.3,0-0.9,0-0.7-0.6c0.1-0.3,0.7,0,1,0
			c1,0,2-0.4,3.1-0.3s2,0.7,2.4,1.7c0.3,0.6,0.3,1.4,0,1.9c-0.7,0.6-1.6,0.7-2.4,0.9c-0.3,0,0,0.3,0,0.4L590.3,288.7L590.3,288.7z
			 M589.6,286.1h0.9c0.4-0.1,0.7-0.6,0.6-1c-0.1-0.6-0.3-1.2-0.7-1.7c-0.4-0.4-1.1-0.4-1.6-0.3c-0.3,0.1,0,0.4,0,0.7L589.6,286.1
			L589.6,286.1z M598.3,288.2c0,0.3,0.3,0.9,0.7,0.9c0.3,0,1,0,1,0.4s-0.7,0.3-1,0.3c-0.8,0-1.5,0-2.3,0.1c-0.3,0-0.7,0-0.7-0.4
			c0.3-0.3,1,0,1-0.6l-0.4-1.7l-1.4-4.1c0-0.4-0.6-0.4-1-0.3c-0.3,0-0.9,0-1,0.4v1.1c-0.3,0.3-0.6,0-0.6-0.4c-0.2-0.5-0.3-1-0.6-1.4
			c0-0.4,0.4-0.4,0.7-0.4l5.9-0.3c0.4,0,0.7,0.3,0.7,0.7l0.6,1.4c-0.1,0.3-0.7,0-0.7-0.3c-0.3-0.4-0.7-1-1.4-1.1
			c-0.3,0-0.7,0-1.1,0.3l0.3,0.9L598.3,288.2L598.3,288.2z M601.3,283.5c-0.1-0.4-0.3-1-0.9-1.1c-0.3,0-0.9,0-0.9-0.6
			c0.1-0.3,0.6,0,0.9,0l2.6-0.3c0.4-0.1,0.7,0.6,0.3,0.6s-0.9,0.3-0.7,0.7l0.7,2.3l1,3.1c0,0.3,0.4,0.6,0.7,0.6c0.4,0,1,0,0.9,0.6
			h-1l-2.3,0.3c-0.3,0-0.7-0.3-0.6-0.6c0.3-0.1,0.9,0,0.9-0.6l-0.4-1.7L601.3,283.5L601.3,283.5z M609.6,281.2
			c0.4,0,0.4,0.4,0.6,0.7l0.3,1.1c-0.1,0.4-0.7,0-0.7-0.3c-0.1-0.4-0.4-0.9-1-0.9s-1.1,0-1.7,0c-0.3,0.3,0,0.7,0,0.9l0.7,2
			c0.3,0,0.7,0,1.1-0.3c0.3-0.3-0.3-0.9,0.1-1c0.6,0,0.6,0.7,0.6,1l0.7,1.9c-0.1,0.4-0.7,0-0.7-0.3c-0.1-0.4-0.7-0.6-1.1-0.6
			c-0.1,0-0.7,0-0.4,0.3l0.7,2.1c0.1,0.4,0.6,0.6,1,0.4c0.6,0,1.3,0,1.7-0.3c0.3-0.3,0-0.9,0.1-1.3c0.4-0.3,0.7,0.1,0.7,0.6
			c0.1,0.5,0.3,1,0.4,1.4c0,0.3-0.4,0.3-0.7,0.3l-4.3,0.1c-0.4,0-1,0.3-1.4,0c-0.1-0.6,0.7-0.4,0.9-0.7c0.1-0.4,0.1-0.8-0.1-1.1
			l-1.4-4.3c0-0.4-0.4-1-1-1c-0.3,0-0.9-0.3-0.6-0.6h1.4L609.6,281.2L609.6,281.2z M612.5,282.6c-0.1-0.6-0.6-1-1.1-1
			c-0.4,0.1-0.7-0.9,0-0.6h2.1l1,1.3l3,4.1V286l0.6-5.1c0.3-0.3,1,0,1.4-0.3c0.4,0,1.4,0,1.1,0.6c-0.6,0-1.1,0.3-0.9,0.9l1.7,5.1
			c0,0.6,0.6,0.9,1.1,0.7c0.4,0,0.4,0.9,0,0.7H620c-0.4,0.1-1.1,0.1-0.9-0.4c0.4,0,1.1-0.3,0.7-0.9l-1.4-4.6c0.1,0.1,0,0.4,0,0.6
			l-0.3,4.3l-0.1,1.2c-0.4,0.1-0.6-0.1-0.7-0.4l-4.1-5.3l0.3,0.4c0.4,1.4,0.7,2.9,1.3,4.1c0,0.6,0.7,0.7,1.1,0.7
			c0.6,0.3,0.1,0.7-0.3,0.6h-2.1c-0.4,0-0.4-0.6,0-0.6c0.7,0,0.6-0.7,0.3-1.1l-1.4-4.7L612.5,282.6z M624.9,283.8c0,0.3,0.6,0,0.7,0
			c0.4,0,1,0,1-0.6c0-0.7-0.3-1.4-0.7-1.7c-0.6-0.4-1.1-0.3-1.7-0.3l0.1,0.7L624.9,283.8L624.9,283.8z M625.6,286.1l0.6,1.4
			c0.4,0.3,0.9,0.1,1.3,0.1c0.3,0,0.7-0.3,0.6-0.7c0-0.9-0.4-1.9-1.3-2.1c-0.5-0.1-1-0.1-1.4,0v0.4L625.6,286.1z M622.9,282.6
			c-0.1-0.6-0.3-1.1-0.9-1.4c-0.3,0-0.9,0-0.9-0.4s0.7,0,1-0.1c1.4,0,2.6-0.4,3.9,0c1,0.3,1.9,1.3,1.9,2.3c0,0.6-0.4,1-1,1.3
			c0-0.3,0.6,0,0.7,0c0.7,0.3,1.4,0.9,1.7,1.6s0.4,1.4,0,2c-0.6,0.6-1.4,0.6-2.1,0.6l-3.3,0.1c-0.4,0-0.6-0.7,0-0.6
			c0.4,0,0.6-0.6,0.3-1L622.9,282.6L622.9,282.6z M630,282.4c0-0.4-0.3-1.1-0.9-1.4c-0.3,0-0.9,0-0.9-0.4c0.3-0.4,0.9,0,1.4-0.1h2.9
			c1.1,0,2.1,0.9,2.4,2c0.3,0.6,0,1.4-0.4,1.7l-0.7,0.3c0.9,0.3,1.6,1,2,1.7l0.7,1.1c0.4,0.3,0.4-0.1,0.4-0.4
			c0.6-0.3,0.9,0.4,0.6,0.9c-0.1,0.6-1,0.7-1.4,0.6c-0.6,0-0.9-0.4-1.1-0.9l-1.4-2.4c-0.3-0.3-0.8-0.4-1.3-0.3v0.7l0.7,1.6
			c0.1,0.6,0.7,0.6,1.1,0.7c0.6,0,0.6,0.7,0,0.6h-2.6c-0.3,0-0.9,0.3-1,0c-0.3-0.7,0.6-0.4,0.9-0.9l-0.3-1.1L630,282.4z
			 M631.9,283.8c0.1,0.3,0.9,0,1.1,0c0.4,0,0.7-0.4,0.6-0.7c0-0.7-0.3-1.4-0.7-1.9c-0.4-0.3-1-0.3-1.4-0.1c-0.3,0-0.1,0.4,0,0.7
			l0.4,1.9L631.9,283.8z M641.9,280.1c0.3,0,0.4,0.4,0.4,0.7c0,0.4,0.3,0.7,0.4,1.1c-0.3,0.4-0.7,0-0.7-0.3c-0.3-0.3-0.4-0.9-1-0.9
			s-1.2,0-1.9,0c-0.3,0.1,0,0.6,0,0.9l0.6,1.9h1.1c0.4-0.3-0.1-1,0.3-1.1c0.6,0,0.6,0.6,0.6,1c0,0.6,0.4,1.3,0.6,1.9
			c-0.1,0.4-0.7,0-0.7-0.3c0-0.4-0.6-0.7-1-0.6c-0.1,0-0.7-0.3-0.6,0l0.7,2.4c0,0.4,0.6,0.4,1,0.4c0.6,0,1.3,0,1.7-0.3
			s0-0.9,0.1-1.1c0.4-0.3,0.9,0,0.7,0.4l0.3,1.4c0,0.3-0.4,0.3-0.6,0.3h-4.4c-0.4,0-0.9,0.3-1.1,0c-0.4-0.6,0.4-0.4,0.6-0.7
			c0.3-0.3,0-0.7,0-1l-1.3-4.4c0-0.4-0.4-1-0.9-1c-0.4,0-0.9-0.1-0.7-0.6h1.4L641.9,280.1L641.9,280.1z M594.9,298.8
			c-0.1-0.6-0.3-1.1-0.9-1.4c-0.4,0-1,0-0.7-0.4c0.4-0.3,0.9,0,1.4-0.1c1.1,0,2.3-0.3,3.4,0c1.7,0.4,3.1,1.6,3.7,3.3
			c0.3,1.1,0.4,2.3-0.3,3.3c-0.7,0.9-2,1.1-3.1,1.1c-1,0-1.9,0-2.7,0.3c-0.3,0.1-0.9-0.1-0.6-0.6c0.4,0,1-0.3,0.9-0.7l-0.6-2.1
			L594.9,298.8z M597.2,302.4c0.1,0.4,0.3,1,0.6,1.3c0.4,0.3,1,0.1,1.4,0c0.6,0,1.1-0.6,1.3-1.3c0.1-1.1-0.1-2.2-0.6-3.1
			c-0.4-0.9-1.2-1.5-2.1-1.7c-0.5-0.1-1.1-0.1-1.6,0c-0.1,0,0,0.3,0,0.6L597.2,302.4L597.2,302.4z M607.3,295.9
			c0.4,0,0.4,0.4,0.6,0.7l0.3,1.3c-0.1,0.3-0.7,0-0.7-0.3c-0.1-0.4-0.4-0.9-0.9-0.9c-0.6,0-1.2,0-1.9,0c-0.3,0.1,0,0.6,0,0.9
			c0,0.7,0.3,1.4,0.4,2c0.4,0,0.9,0,1.1-0.3c0.3-0.3-0.1-0.9,0.3-1c0.6,0,0.4,0.7,0.6,1c0,0.6,0.4,1.1,0.4,1.9c0,0.4-0.7,0-0.7-0.3
			c0-0.6-0.6-0.7-1-0.6c-0.1,0-0.7-0.1-0.4,0.1c0,0.7,0.3,1.4,0.6,2.3c0,0.4,0.6,0.4,1,0.4c0.6,0,1.3,0,1.7-0.4
			c0.3-0.3,0-0.9,0.3-1.1c0.4-0.3,0.6,0.1,0.6,0.6c0,0.4,0,0.9,0.3,1.4l-0.7,0.1l-4.3,0.3c-0.4,0-0.9,0.3-1.3,0
			c-0.3-0.3,0.1-0.6,0.6-0.6c0.4-0.1,0.3-0.7,0.3-1l-1.1-4.6c-0.1-0.4-0.4-1-0.9-1c-0.4,0-0.9-0.1-0.7-0.6l1.4-0.1L607.3,295.9
			L607.3,295.9z M616.6,301.8c0,0.4,0.4,0.9,0.9,0.9c0.3,0.1,0.9,0,1,0.4s-0.6,0.3-0.9,0.3l-2.4,0.1c-0.4,0-0.9,0.1-1.1,0
			c-0.4,0-0.3-0.6,0.1-0.6s0.9-0.1,1-0.6l-0.1-1.1l-1-4c0-0.4-0.6-0.4-0.9-0.4s-0.9,0.3-1-0.1c0-0.6,0.7-0.4,1-0.6l1.6-0.6
			c0.3,0,0.4,0.1,0.4,0.4L616.6,301.8L616.6,301.8z M621.9,297.1c0-0.6-0.4-1.1-1-1.1c-0.4,0-1,0-1.1,0.4c-0.1,0.5,0.1,1.1,0.6,1.4
			l1.3,0.7l0.3-0.9C621.9,297.5,621.9,297.3,621.9,297.1z M623,301.4c0-0.9-0.7-1.3-1.4-1.4c-0.3,0-0.6-0.4-0.7-0.3
			c-0.5,0.3-0.7,0.9-0.6,1.4c0.3,0.9,0.7,1.4,1.4,1.4c0.6,0.1,1.1,0,1.4-0.6c0.1-0.2,0.1-0.5,0-0.7L623,301.4z M624.5,300.9
			c0.2,0.7-0.2,1.5-0.9,1.9c-0.9,0.5-1.9,0.6-2.9,0.3c-0.9-0.2-1.5-1-1.7-1.9c0-0.6,0.1-1.4,0.9-1.9c0,0,0.6-0.1,0.1-0.3
			c-0.7-0.3-1.4-0.9-1.4-1.7c-0.3-0.7,0-1.4,0.7-1.9c1.3-0.7,2.9-0.2,3.7,1c0.3,0.6,0.3,1.3,0,1.7l-0.9,0.7c0.7,0,1.4,0.6,1.7,1.1
			c0.3,0.1,0.4,0.6,0.4,0.9L624.5,300.9z M629,301.7c0.3,0,0.7,0,0.7-0.6c0.1-0.1,0-0.9,0.4-0.7c0.4,0,0.3,0.4,0.4,0.9
			c0,0.6,0,1.1-0.6,1.6c-0.3,0.3-0.7,0.1-1.1,0.1h-2.4c-0.3,0-0.7,0.3-1,0s0-0.7,0-1c0.3-1,0.9-1.7,1.4-2.3c0.6-0.4,1.1-0.9,1.3-1.6
			c0-0.6-0.1-1.2-0.4-1.7c-0.4-0.7-1.3-0.9-2-0.4l0,0c-0.4,0.1-0.6,0.7-0.4,1c0.3,0.3,0.9,0,1,0.6c0.3,0.3,0,0.9-0.4,0.9
			c-0.6,0-1.1-0.4-1.4-1c-0.2-0.8,0.1-1.6,0.9-2c0.7-0.4,1.6-0.4,2.4-0.3c0.7,0.3,1.4,0.9,1.7,1.7c0.1,0.6,0.1,1.3-0.1,1.9
			c-0.6,1-1.6,1.4-2.4,2.4c-0.1,0.1-0.3,0.4-0.1,0.9c0-0.4,0.6-0.3,0.7-0.3h1.4h0V301.7z M634.8,301.1c0,0.4,0.3,0.9,0.7,1
			c0.3,0,0.9,0,1,0.3c0.1,0.4-0.4,0.4-0.7,0.4h-3.9c-0.3-0.1,0-0.7,0.3-0.6c0.4,0,0.9-0.1,1-0.6v-1.1l-1-4c0-0.4-0.4-0.4-0.7-0.4
			c-0.4,0-0.9,0.3-1,0c-0.3-0.7,0.4-0.6,0.7-0.7l1.7-0.6c0.3,0,0.4,0.1,0.6,0.4l1.1,5.9L634.8,301.1z"/>
	</g>
	<g>
		
			<radialGradient id="SVGID_10_" cx="1037.4088" cy="1158.3223" r="0.4288" gradientTransform="matrix(0.4445 0 0 0.4445 135.995 -336.0547)" gradientUnits="userSpaceOnUse">
			<stop  offset="0.3" style="stop-color:#A50A0A"/>
			<stop  offset="1" style="stop-color:#4C0505"/>
		</radialGradient>
		<path class="st29" d="M594,184.6l-5.4,6.6c-1.7,7.4,2.6,13.1,11,18c6.7,4.3,19.3,5.3,23.3,1.9l-19.6-18.6l-9.3-7.7V184.6z"/>
		<path class="st30" d="M633.8,377.4c-0.9-1.2-1.9-2.4-2.9-3.6c-12.4,16.9-28.4,30.8-46.7,40.9C605.7,408.6,619.9,393,633.8,377.4z
			 M611.5,428.4c8-15.7,16.7-31.1,26-46.2c-1-1.3-2-2.6-3-3.9c-10.4,17.4-22.9,38.2-22.9,50h-0.1V428.4z M671.5,264.8
			c-1.4-6.4-3.4-12.6-6.1-18.6c-15.3-25.8-36.8-47.5-62.6-62.9v-0.4h0.4l-0.3-0.1h0.7l-0.3-0.4h0.6l-0.4-0.6h0.6l-0.4-0.4h0.7
			l-0.4-0.6h0.6l-0.6-0.4l0.9-0.1l-0.7-0.4l0.7-0.1l-0.6-0.4l0.9-0.3l-0.7-0.4l0.9-0.4l-0.9-0.6l1-0.3l-1-0.4l0.9-0.6H604l0.7-1h-1
			l0.4-0.7h-0.9l0.4-0.7l-1,0.1l0.4-0.9l-0.9,0.6l0.3-1l-1,0.6l0.1-1l-0.7,0.7v-1l-0.7,0.7v-1l-0.7,0.9v-1l-0.6,0.9l-0.3-1l-0.4,0.9
			l-0.3-1l-0.4,1.1l-0.3-1.1l-0.4,1.1l-0.3-1l-0.3,0.9l-0.1-0.7l-0.4,1l-0.3-1l-0.3,1.1l-0.4-1l-0.3,1.1l-0.4-1v1.1l-0.6-0.9v1.1
			l-0.7-0.9v1L592,173l0.3,1l-0.7-0.4l0.3,1l-0.6-0.4l0.1,0.9H591l0.3,0.6h-0.4l0.3,0.6c-0.5,1.6-0.7,3.3-0.6,5c0,0.3,0.9,0.6,1,0.9
			c0.4,0.6,0.3,0.9,0.3,0.9c-2.3,3.7-4.3,6.6-4.4,10.9c1.7-2.3,3.7-5.1,6.3-5.1c-1.3,2.1-1.9,8.7-0.4,9.9l1.1-2
			c0,1.4,0.1,2.6,0.6,3.3l1.4-2.4c0,2.1,0.3,3.9,0.9,4.7c0.6-0.9,1.4-1.7,2.3-2.3c-0.3,1.3-0.7,2.4-0.6,3.9l2.9-3.6
			c-0.6,2.3,0,4,0.6,6.4c0.6-2.9,0.9-3.3,2.1-4.4c0.1,2.7-0.3,5.1,0.3,6.7c1.1-2.4,2-2.1,2.9-3.7c-0.3,2.3-0.7,4.7,0,6.7
			c0.4-1.5,1.4-2.9,2.7-3.7c0,3.1,0.7,2.6-1.1,5.3c0.9,0.3,3.6-0.6,5.1-1.3c-0.7,1.7-0.6,3-1.3,4.3c1.4-0.9,2.9-2.1,4.1-3.4
			c-0.6,2-2.1,4-1.4,5.9c0.4-1.9,1.9-3.3,3.3-3.6c-0.3,1-0.4,3.1-1.9,4.1c3.4,0.3,4.9-2,6.6-3.9c-0.1,2,0,3.4,2.3,6.1
			c-0.4-3.4,0.3-2.7,1.9-4.7c0.9,3,1.7,6.3,4.9,8.6c-1.4-3.3-1.4-5-0.9-7c0.4,2.1,2.4,4.7,2.9,6.7c0.4-2.3,0.7-4.4,1.4-5.9
			c1,2.6,1.7,5.3,2,8c0.7-1.4,1.3-2.9,1.6-4.4c28.3,29.4,34.6,66.9,3.7,106.5c11-7.4,13.9-19.3,20-29.4c-6,13.3-8.6,28.2-19.3,39.2
			c10.3-8.9,12.4-17,18.6-25.6c-6.4,17.9-15.7,37.4-28.3,55.5c2.3,2.5,4.6,4.9,6.9,7.4l5.7-9.9C660.6,344.4,682.5,312.8,671.5,264.8
			L671.5,264.8z"/>
	</g>
	<path class="st31" d="M590.3,178.7c-1.4,0.3-2,0.9-3,2c1.3,0.3,2.3,0.4,3.6,0.4c0.3,0,0.4-0.4,0.4-0.9l-0.3-1.4
		c0-0.3-0.9-0.1-1.1,0L590.3,178.7L590.3,178.7z"/>
	<path class="st32" d="M587.2,180.7c0.5-0.2,0.9-0.3,1.4-0.4c0.6-0.1,1.1-0.2,1.7-0.3c-0.5,0.2-0.9,0.3-1.4,0.4
		C588.3,180.6,587.7,180.7,587.2,180.7z"/>
	<circle class="st33" cx="596.7" cy="178.9" r="1.1"/>
	
		<radialGradient id="SVGID_11_" cx="1052.722" cy="1120.9241" r="0.4288" gradientTransform="matrix(0.4343 0 0 0.4549 139.8945 -331.1745)" gradientUnits="userSpaceOnUse">
		<stop  offset="0" style="stop-color:#FFFFFF"/>
		<stop  offset="1" style="stop-color:#FFFFFF;stop-opacity:0"/>
	</radialGradient>
	<circle class="st34" cx="597" cy="178.7" r="0.4"/>
	<g>
		<path class="st35" d="M611.7,428c0.7-2.1,1.4-4.2,2.1-6.3c0.8-2.1,1.7-4.2,2.6-6.3c1.7-4.1,3.9-8.1,5.9-12c2.1-4,4.4-7.9,6.7-11.7
			c1.1-1.9,2.3-3.8,3.4-5.7l3.6-5.7l-3.4,5.7c-1.2,1.9-2.3,3.9-3.4,5.9l-6.6,11.7c-2.1,3.9-4.1,7.9-6,12c-0.9,2-1.8,4.1-2.6,6.1
			C613.2,423.8,612.4,425.9,611.7,428z M584.7,414.4c2.4-1,4.8-2.1,7.1-3.3c2.2-1.2,4.4-2.5,6.6-3.9c4.4-2.8,8.6-5.9,12.6-9.3
			c3.9-3.3,7.6-6.9,11-10.7c1.8-1.9,3.5-3.9,5.1-5.9l4.9-6.1c-1.5,2.1-3.1,4.1-4.7,6.1c-1.7,2-3.4,4-5.1,6c-3.4,3.9-7.1,7.5-11,10.9
			s-8.2,6.4-12.6,9.1c-2.2,1.3-4.4,2.6-6.7,3.7C589.5,412.3,587.1,413.4,584.7,414.4z M638,372.5c2.1-3.1,4.2-6.3,6.1-9.6l5.7-9.7
			c1.8-3.3,3.6-6.6,5.3-10l5.3-10l-2.4,5l-2.6,5.1c-1.7,3.4-3.5,6.7-5.3,10s-3.7,6.5-5.7,9.7C642.5,366.4,640.3,369.5,638,372.5
			L638,372.5z M646.6,336.7c2.4-2.9,4.6-6,6.6-9.1c2-3.2,3.8-6.6,5.4-10c3.2-6.9,5.6-14.1,7.1-21.4l0.6-2.9c0.5-2.8,0.8-5.7,1-8.6
			c0.3-3.8,0.3-7.5,0-11.3s-0.9-7.5-1.9-11.1c-0.9-3.7-2-7.3-3.4-10.9c1.5,3.5,2.6,7.1,3.6,10.7c0.9,3.7,1.5,7.5,1.9,11.3
			c0.3,3.7,0.3,7.6,0,11.4c-0.1,2.9-0.4,5.7-0.9,8.6c-0.2,0.9-0.4,1.8-0.6,2.7c-1.6,7.4-4,14.6-7.1,21.4c-1.7,3.5-3.6,6.8-5.7,10
			c-2,3.2-4.3,6.3-6.7,9.1L646.6,336.7L646.6,336.7z"/>
		<path class="st35" d="M644.2,328.4c2.6-2.5,5-5.3,7-8.3s3.9-6.2,5.4-9.4c1.6-3.3,3-6.6,4.3-10c0.6-1.7,1.4-3.4,1.9-5.1l0.6-1.3
			l0.4-1.3l0.9-2.6c0.7-3.6,1-7.3,1.1-11c0-3.7-0.3-7.4-0.9-11c-0.6-3.6-1.4-7.1-2.4-10.7c-1.1-3.5-2.3-7-3.7-10.4
			c1.5,3.4,2.7,6.9,3.9,10.4c1,3.5,1.9,7.1,2.4,10.7c0.6,3.6,0.9,7.3,0.9,11s-0.3,7.4-1,11l-0.9,2.7l-0.4,1.3l-0.6,1.3l-1.9,5.1
			c-1.3,3.4-2.8,6.7-4.4,10c-1.6,3.3-3.4,6.4-5.4,9.4c-2.1,3-4.5,5.8-7.1,8.3L644.2,328.4z"/>
		<path class="st35" d="M635.8,370.1c1.9-2.3,3.4-4.7,5.1-7.1l2.6-3.6l2.4-3.6c1.5-2.5,3-5.1,4.3-7.7l3.7-7.9
			c2.6-5.3,5-10.6,7.1-16.2c2.1-5.4,3.8-11,5-16.7c1.1-5.7,2-11.4,2.7-17.3c0.6-5.9,0.6-11.7,0-17.6c-0.6-5.8-1.9-11.6-3.9-17.2
			c-2-5.5-4.4-10.8-7.3-15.9c2.9,5.1,5.4,10.4,7.4,15.9s3.3,11.3,3.9,17.2c0.7,5.7,0.6,11.7,0,17.6c-0.6,5.7-1.4,11.6-2.6,17.3
			c-1.2,5.7-2.9,11.4-5,16.9c-2.2,5.4-4.5,10.8-7.1,16l-3.9,7.9c-1.3,2.6-2.7,5.2-4.3,7.7c-0.7,1.4-1.6,2.4-2.4,3.7l-2.6,3.6
			L635.8,370.1L635.8,370.1z"/>
		<path class="st35" d="M639.8,374.5l10-16.6c3.2-5.6,6.3-11.2,9.1-17c2.9-5.7,5.3-11.7,7.1-17.9c1-3.1,1.7-6.1,2.4-9.3
			c0.3-1.6,0.6-3.2,0.9-4.9c1.2-8,1.9-16,2-24c0-6.4-0.6-12.9-1.7-19.2c-1.2-6.3-3.1-12.5-5.7-18.4c-2.6-5.9-6-11.4-10-16.4
			c4,5,7.4,10.6,10,16.4c2.7,5.9,4.6,12.1,5.9,18.4c1.2,6.3,1.7,12.7,1.7,19.2c0,6.4-0.4,12.9-1.3,19.3c-0.2,1.6-0.4,3.2-0.6,4.9
			c-0.2,1.6-0.5,3.2-0.9,4.7c-0.7,3.1-1.5,6.2-2.4,9.3c-1.9,6.2-4.3,12.2-7.1,18c-2.9,5.7-6.1,11.4-9.3,16.9
			c-3.3,5.5-6.6,11-10,16.4L639.8,374.5z M600,186.6h2c2,0.4,4,1,5.9,1.9c2.4,1.1,4.9,2.6,7,4.3c2.2,1.6,4.2,3.4,6.1,5.3
			c0.9,1,1.7,2,2.6,3l2.6,3.3c-0.8-1.1-1.7-2.1-2.6-3.1c-0.9-1-1.9-1.9-2.9-2.9c-1.9-2-3.9-3.8-6-5.4c-2.2-1.7-4.5-3.1-7-4.3
			C605.3,187.5,602.7,186.9,600,186.6L600,186.6z"/>
	</g>
	<g>
		<path class="st36" d="M623.5,202c0,0,4.3,2.6,6.7,6.3c0,0-6.7-1.3-11.4-6.6"/>
		<path class="st35" d="M623.5,202c1.3,0.8,2.6,1.7,3.7,2.7c1.2,1,2.2,2.2,3.1,3.4l0.1,0.4h-0.3c-1.1-0.3-2.2-0.7-3.3-1.1
			c-1-0.4-2-0.9-3-1.4c-2-1.1-3.7-2.6-5.3-4.3c1.6,1.6,3.4,3,5.4,4c0.9,0.5,1.9,1,2.9,1.4c1.1,0.4,2.2,0.8,3.3,1v0.3
			c-0.4-0.7-0.9-1.3-1.4-1.9l-1.7-1.7c-0.6-0.5-1.1-1-1.7-1.4C624.7,203,624.1,202.5,623.5,202L623.5,202z"/>
		<path class="st36" d="M613.7,200.8c0,0,10.3,6.6,11.7,7.1c0,0-2.3-5-7.1-7.1"/>
		<path class="st35" d="M613.7,200.8l5.9,3.6c1.5,0.9,2.9,1.7,4.4,2.6l1.4,0.9v0.1c-0.4-0.8-0.9-1.5-1.4-2.1l-1.6-2
			c-0.6-0.6-1.3-1.2-2-1.7l-2.1-1.3c0.8,0.3,1.6,0.8,2.3,1.3c2.1,1.5,3.8,3.4,5,5.7l0.3,0.4l-0.4-0.1l-3-1.7l-2.9-1.9
			C617.6,203.3,615.7,202,613.7,200.8L613.7,200.8z"/>
		<path class="st36" d="M617.9,197.5c0,0,5.3,2.3,6.6,6.1c0,0-9.7-4-11.4-6.1"/>
		<path class="st35" d="M617.9,197.5c1.4,0.6,2.8,1.3,4,2.3c0.6,0.5,1.1,1.1,1.6,1.7l1.1,2.1v0.3h-0.3c-1-0.5-1.9-0.9-2.9-1.4
			s-2-0.9-3-1.4s-1.9-1-2.9-1.6l-1.4-0.9l-1.1-1.1l1.3,1l1.4,0.9l2.9,1.4c1.9,1,3.9,2,5.9,2.9h-0.1c-0.3-0.7-0.7-1.3-1.1-1.9
			c-0.4-0.6-0.9-1.2-1.4-1.7C620.7,199.1,619.3,198.2,617.9,197.5L617.9,197.5z"/>
		<path class="st36" d="M609.7,201.6c0,0,9.4,6.7,12.3,6.7c0,0-2.9-4.7-7.7-6.7"/>
		<path class="st35" d="M609.7,201.6c1.9,1.3,3.9,2.5,5.9,3.7c1.5,0.9,3.1,1.7,4.7,2.4l1.7,0.4l-0.1,0.3c-0.9-1.5-2-2.8-3.3-4
			l-2-1.6c-0.7-0.5-1.5-1-2.3-1.4c1.6,0.7,3.1,1.7,4.3,2.9c1.4,1.2,2.6,2.5,3.6,4v0.1H622c-0.6,0-1.3-0.2-1.9-0.4
			c-0.5-0.2-1.1-0.5-1.6-0.7c-1-0.5-2-1.1-3-1.7c-1-0.6-2-1.3-3-2C611.6,203,610.7,202.3,609.7,201.6L609.7,201.6z"/>
		<path class="st36" d="M609.7,203.6c0,0,4.9,4.3,7.7,4.3c0,0-2.9-4.7-7.7-6.9"/>
		<path class="st35" d="M609.7,203.6c1.1,0.9,2.3,1.8,3.6,2.6l2,1c0.7,0.3,1.4,0.5,2.1,0.6l-0.1,0.1c-0.4-0.7-0.9-1.4-1.4-2
			c-1.1-1.4-2.4-2.6-3.9-3.6c-0.7-0.5-1.5-0.9-2.3-1.3c1.6,0.7,3.1,1.6,4.3,2.9c1.4,1.1,2.6,2.4,3.6,3.9v0.3h-0.1
			c-0.9,0-1.4-0.3-2.3-0.6c-0.7-0.3-1.4-0.7-2-1.1l-1.7-1.3C610.9,204.6,610.3,204.1,609.7,203.6L609.7,203.6z"/>
		<path class="st36" d="M607.2,194.3c0,0,10.3,7.3,11.4,11.3c0,0-9.1-4.3-10.9-6.4"/>
		<path class="st35" d="M607.2,194.3c1.1,0.8,2.2,1.6,3.3,2.4c1.1,0.8,2.1,1.7,3.1,2.6c1,0.9,2,1.9,2.9,2.9l1.4,1.4l1,2v0.3
			l-0.3-0.1c-1-0.5-1.9-0.9-2.9-1.4s-1.9-0.9-2.9-1.4c-0.9-0.5-1.8-1.1-2.7-1.7c-0.5-0.3-1-0.6-1.4-1c-0.4-0.3-0.7-0.6-1-1l1.1,1
			c1.4,0.9,2.8,1.7,4.3,2.4c1.9,1,3.8,2,5.7,2.9l-0.3,0.1c-0.2-0.6-0.6-1.2-1-1.7s-0.8-1.1-1.3-1.6l-2.9-2.9c-1-0.9-2-1.8-3-2.7
			C609.4,195.9,608.3,195.1,607.2,194.3L607.2,194.3z"/>
	</g>
	<g>
		<path class="st3" d="M550,400.3c-9,4.7-19,7.1-29.2,6.9C535.1,395.4,549,395.1,550,400.3z M649.8,406.7c7.4,6.7,30,11.4,33.6,10.6
			C668.2,402,651.8,400.4,649.8,406.7z"/>
		<path class="st4" d="M550,400.3c-1-5.3-15-5-29.2,6.9C530.2,403.4,540,401.1,550,400.3z M649.9,406.6c2-6.3,18.3-4.7,33.4,10.7
			C672.8,412.1,661.5,408.5,649.9,406.6z"/>
	</g>
</g>
</svg>
