<?xml version="1.0" encoding="utf-8"?>
<!-- Generator: Adobe Illustrator 24.0.1, SVG Export Plug-In . SVG Version: 6.00 Build 0)  -->
<svg version="1.1" id="flag-icons-gu" xmlns="http://www.w3.org/2000/svg" xmlns:xlink="http://www.w3.org/1999/xlink" x="0px"
	 y="0px" viewBox="0 0 800 480" style="enable-background:new 0 0 800 480;" xml:space="preserve">
<style type="text/css">
	.st0{fill-rule:evenodd;clip-rule:evenodd;fill:#BE0027;}
	.st1{fill-rule:evenodd;clip-rule:evenodd;fill:#3B5AA3;}
	.st2{fill-rule:evenodd;clip-rule:evenodd;fill:#CBE0E5;}
	.st3{fill-rule:evenodd;clip-rule:evenodd;fill:#ADD2D9;}
	.st4{fill-rule:evenodd;clip-rule:evenodd;fill:#FDF9A1;}
	.st5{fill-rule:evenodd;clip-rule:evenodd;fill:#179A3B;}
	.st6{fill-rule:evenodd;clip-rule:evenodd;fill:#A79270;}
	.st7{fill:#BD0728;}
	.st8{font-family:'Helvetica';}
	.st9{font-size:34.048px;}
	.st10{fill:none;stroke:#FFFFFF;stroke-width:2.128;stroke-miterlimit:5.32;}
	.st11{fill-rule:evenodd;clip-rule:evenodd;fill:#239E46;}
	.st12{fill-rule:evenodd;clip-rule:evenodd;}
	.st13{fill-rule:evenodd;clip-rule:evenodd;fill:#FDF9FF;}
	.st14{fill-rule:evenodd;clip-rule:evenodd;fill:#A68861;}
</style>
<path class="st0" d="M0,0h800v480H0V0z"/>
<path class="st1" d="M25.6,27.3h749.5v428.4H25.6V27.3z"/>
<path class="st2" d="M394.4,413.2c2.6,1.3,5.7,1.3,8.4,0.1C540.6,340,540.6,139,402.9,66.7c-2.8-1.3-6-1.2-8.7,0.2
	c-134.3,73.4-134.7,272.1,0.1,346.3H394.4z"/>
<path class="st3" d="M394.4,416.9c2,1.7,6.4,1.5,8.4,0c101.5-76,102-123.3,97.6-123.3h-201C296.4,293.6,301.2,341.8,394.4,416.9
	L394.4,416.9z"/>
<path class="st4" d="M315.3,331.2c9.2-2.9,19.1-2.3,27.9,1.7c7.6,4,12,4,20.2,4c8.6,0.2,15.3,6.5,24.6,6.8c17.1,0.4,24.3,8.9,11,9
	c-6.2,0-19.7-4.3-26.2-3.4c-13.6,1.4-22.2,4.4-35,18.7l14.8,10c12.8-5.1,14.9-11,22-11.2c8-0.3,10.7-5.2,20-5.2
	c11.1,0.9,22.3-0.2,33-3.2c14.8-3.4,7.8-13.8-1.2-17.5c-7.3-3.1-20.8-0.1-29.2-3.2c-6.4-2.5-1.2-6.5,2.3-7.3
	c3.4-0.7,7.1,0.5,11.4,1.2c7.7,0.6,17.4-0.1,24.1-1.2c14-2.1,13.4-6.2,20-6.3c5-0.3,8.7-1.7,12-4.1c4-2.7,8.1-8,12.9-7.8l12.7,0.5
	l-18,40.4l-50.7,51.7l-26.3,10l-57.8-37.7l-29.1-44.7L315.3,331.2L315.3,331.2z"/>
<path class="st5" d="M381.8,292l116-0.6l2-10.3c0,0-4.1-0.6-7.5-0.8c-4.1-0.3-11.3,4.4-16,4.3c-3.5,0-7.3-6-10.7-6
	c-6,0-6.4,5.3-12,5.5c-4.5-0.2-6.4-3.6-12.3-3.2c-6,0.3-5.6,3.7-13.3,3.5c-10.2-0.3-14.3-9.1-22.5-9.2c-13.6-0.2-14,13-23.8,16.7
	L381.8,292z"/>
<path class="st4" d="M381.8,294.4l119.4-0.6v-3.2L379,291.2L381.8,294.4L381.8,294.4z"/>
<path class="st6" d="M430.8,330.3c1.9,7,3.8,9.4,11.2,11.3c7.3,1.7,18.5-5.4,11.6-12.3c-6.6-6.4-13.6-8-19.5-13.8
	c-12.5-12.3-31.3-42.5-31.3-63.8c0-18.3-1.8-55.8-1.8-91.3c0-2.3-7,6.4-7,8.8c0.4,31.3,0.4,55,1.6,86.6c2,23.1,13,38.7,22.7,52.7
	C422.6,315.3,428.9,322.5,430.8,330.3L430.8,330.3z"/>
<text transform="matrix(1 0 0 1 335.583 250.4347)" class="st7 st8 st9">G</text>
<text transform="matrix(1 0 0 1 335.583 250.4347)" class="st10 st8 st9">G</text>
<text transform="matrix(1 0 0 1 366.1729 250.5675)" class="st7 st8 st9">U</text>
<text transform="matrix(1 0 0 1 366.1729 250.5675)" class="st10 st8 st9">U</text>
<text transform="matrix(1 0 0 1 403.2803 250.5675)" class="st7 st8 st9">A</text>
<text transform="matrix(1 0 0 1 403.2803 250.5675)" class="st10 st8 st9">A</text>
<text transform="matrix(1 0 0 1 434.5352 250.4347)" class="st7 st8 st9">M</text>
<text transform="matrix(1 0 0 1 434.5352 250.4347)" class="st10 st8 st9">M</text>
<path class="st11" d="M339.6,160.9c-1.5,3,3.6-0.9,4.8-1.3c6.7-2.4,9.3-10.8,20.8-5.7c9,3.9,21.1,1.6,14.8,5.6
	c-7.8,4.7-23.5,9.9-23.8,33.2c1.3,2.2,1.4,1.9,2.5-0.6c2.4-5.4,13.7-20.1,19.3-18.9c2.3,0.6,8.9-6.7,9-4.6c0.7,5.8-9,17.6-8.8,33.3
	c0,3.7,4.5,4.9,6.6,2.3c2.2-2.3,3.4-4.6,7.2-7.6c6.6-5.4,4.8-28.6,5.6-27.5c4.7,6,5.4,23.3,12.4,30.3c5.9,5.9,10.6,3,9.3-5
	c-2.5-16.4-10.2-11.7-13.9-28.6c-0.8-3.3-1-6.2,3.4-4.9c5.3,1.6,8.5,4,12.4,10c4,5.8,11.4,11.3,15.7,14.6c7.5,5.8,10.2,0.8,6.6-6.6
	c-4.6-8.4-12-14.9-21-18.2c-6.2-2.2-8.4-2.4-13.8-3.4c-1.5-0.3-3-3.4-0.4-5.1c5.8-4.2,12.5-6.8,19.6-7.7c6.7-0.2,12,5.2,16.7,6.6
	c9.4,2.4,9.4-3.5,5.2-8c-3.4-3.7-10.6-10-17.3-9.1c-13.5,1.7-12.6,1.3-21,6.8c-3,1.8-6.4,3.8-5.1,1.6c3-5.5,0.2-4.5,4.9-10.1
	c3.6-4,6.3-7,10-8c3.4-0.9,8-4.5,9.3-6.4c3.4-4.6,0.5-7.3-4.7-5.7c-4.6,1.2-7,4.2-10,5c-7.4,2.4-13.3,19-14.2,21.4
	c-1.1,2.8-2.4,1.4-2.2-1c1-11.7,2-31.5-2-39.6c-6.4-12-5.8-6.4-8.2-0.7c-3.6,9-2.3,17.5,0,26.3c1,4.4,4.6,9.4,5.3,12.9
	c0.5,2.7-1.6-0.8-2.8-2.5c-3.9-6-6.8-10-13.2-13.3c-6.4-2.6-13.4-3.3-20.2-2c-1.8,0.6,2,3.2,3.5,4.4c4.3,3.4,12.4,4.5,18,7.9
	c4.6,2.9,8.2,4.7,9.8,8.7c0.6,3,1.6,7.4-0.4,7.3c-5.1-0.3-13-4.8-29.4-3C351.5,145.2,344.3,152.3,339.6,160.9L339.6,160.9z"/>
<path class="st12" d="M375.3,310.6h4.7v7.9h-4.7V310.6z"/>
<path class="st13" d="M351.7,257.9c18.8,26,49,41.2,49.6,53h-58.8C356,294.7,364.3,283.7,351.7,257.9L351.7,257.9z"/>
<path class="st14" d="M334.6,311.5c25.6,5.7,56.1,8.9,75.6-0.8c0.2,5.7-6.3,14-11.7,14h-49c5.7-0.9,9-2.6,18.2-3l-26,0.2
	C338.7,322,333.7,314.3,334.6,311.5L334.6,311.5z"/>
<path class="st0" d="M392.6,425c2.6,1.5,6.7,1.4,9,0.2c147.8-78.7,147.9-294.4,0.2-372c-3-1.4-6.5-1.3-9.4,0.2
	c-144,78.8-144.4,292,0.2,371.7L392.6,425z M393.3,407.3c2.5,1.2,5.5,1.3,8,0.1c123.6-72.8,125.1-265.1,0.1-334
	c-2.4-1.8-5.9-1.2-8.3,0C274.7,143.5,268.1,327.9,393.3,407.3L393.3,407.3z"/>
<text transform="matrix(1 0 0 1 335.583 250.4347)" class="st7 st8 st9">G</text>
<text transform="matrix(1 0 0 1 366.1729 250.5675)" class="st7 st8 st9">U</text>
<text transform="matrix(1 0 0 1 403.2803 250.5675)" class="st7 st8 st9">A</text>
<text transform="matrix(1 0 0 1 434.5352 250.4347)" class="st7 st8 st9">M</text>
</svg>
