<?xml version="1.0" encoding="utf-8"?>
<!-- Generator: Adobe Illustrator 24.0.1, SVG Export Plug-In . SVG Version: 6.00 Build 0)  -->
<svg version="1.1" id="flag-icons-hk" xmlns="http://www.w3.org/2000/svg" xmlns:xlink="http://www.w3.org/1999/xlink" x="0px"
	 y="0px" viewBox="0 0 800 480" style="enable-background:new 0 0 800 480;" xml:space="preserve">
<style type="text/css">
	.st0{fill-rule:evenodd;clip-rule:evenodd;fill:#BA0000;}
	.st1{fill-rule:evenodd;clip-rule:evenodd;fill:#FFFFFF;}
	.st2{fill:#BA0000;}
</style>
<path class="st0" d="M800,480H0V0h800V480z"/>
<g>
	<path class="st1" d="M390.9,232.9c0,0-48.5-20.9-41.5-75c6.7-26,18.6-43.8,40.1-53.5c10.2-3.1,20.5-4.5,31-5.4
		c-2.8,2.6-5.1,5.3-6.3,8.5c-2.3,6-0.6,11.7,2.5,17.4c3.9,6.6,6.2,13.3,7,22.2c1.4,12.3-3.8,24.3-13.7,31.7
		c-6.2,4.8-13.5,6.5-19.6,11.9c-4.7,4.5-7.5,9.1-8.5,17C381.8,222.9,385.8,225,390.9,232.9L390.9,232.9z"/>
</g>
<g>
	<path class="st0" d="M381.6,154.6v-0.3"/>
	<rect x="380.6" y="154.3" width="2" height="0.3"/>
</g>
<g>
	<path class="st2" d="M384,228c-8.6-7.6-13.8-21.1-14.2-37.1c-0.4-15.5,4.1-30,11.3-37.1l1.4,1.4c-6.9,6.7-11.1,20.7-10.7,35.6
		c0.4,15.4,5.3,28.4,13.5,35.6L384,228z"/>
</g>
<g>
	<path class="st0" d="M393.4,145.2l3.1,5.2l-5.6-2.4l-4.4,4.7l0.8-6.1l-5.6-2.4l6.1-1.4l0.8-6l3.1,5.2l6.2-1.4"/>
</g>
<g>
	<path class="st1" d="M395,229.4c0,0,5.6-52.5,59.5-61.8c26.9-1.1,47.4,5,63,22.8c5.9,8.7,10.2,18.2,14.1,28
		c-3.3-1.9-6.4-3.3-10-3.5c-6.3-0.5-11.3,2.8-15.8,7.4c-5.3,5.8-11.8,10.3-19.2,13.2c-11.3,5-24.4,3.6-34.3-3.8
		c-6.4-4.6-10.2-11.1-17.1-15.2c-5.7-3.4-12.4-4.5-18.8-3.2C401.9,217.7,401.1,222.2,395,229.4L395,229.4z"/>
</g>
<g>
	<path class="st0" d="M467.1,197.6h0.3"/>
	<rect x="467.1" y="196.6" width="0.3" height="2"/>
</g>
<g>
	<path class="st2" d="M399.4,222.3l-1.8-0.8c4.8-10.5,16.3-19.4,31.4-24.5c14.6-4.9,29.8-4.9,38.7-0.1l-0.9,1.7
		c-8.4-4.6-23-4.5-37.1,0.2C415,203.7,404,212.2,399.4,222.3z"/>
</g>
<g>
	<path class="st0" d="M479.6,206.1l-4,4.4l0.6-6.1l-5.6-2.8l5.9-0.9l0.6-6.3l3.2,5.6l6-1.1l-4,4.4l3.1,5.6"/>
</g>
<g>
	<path class="st1" d="M398.6,233.1c0,0,51.7-11.3,77.5,36.9c9.7,25.1,10.3,46.4-1.6,66.8c-6.4,8.5-14.1,15.5-22.1,22.4
		c0.8-3.8,1-7.1,0.1-10.5c-1.5-6.2-6.2-9.9-12-12.7c-7.2-3.2-13.6-8-18.6-14.1c-8.3-9.1-11-21.9-7.2-33.7c2.3-7.5,7.2-13.2,8.9-21.1
		c1.4-6.4,0.4-13.1-2.9-18.8C411.8,236,407.3,236.7,398.6,233.1L398.6,233.1z"/>
</g>
<g>
	<path class="st0" d="M451.6,291.5l0.2,0.2"/>
	<rect x="450.7" y="291.5" transform="matrix(0.7071 -0.7071 0.7071 0.7071 -73.8828 404.8072)" width="2" height="0.3"/>
</g>
<g>
	<path class="st2" d="M452.5,291.9l-1.9-0.3c1.7-9.5-3.1-23.4-12-35.3c-9.2-12.3-20.7-20-31.6-21.2l0.2-2c11.4,1.2,23.5,9.2,33,21.9
		C449.4,267.4,454.2,281.8,452.5,291.9z"/>
</g>
<g>
	<path class="st0" d="M447.5,306.1l-5.5-2.4l6.1-1.4l0.8-6.3l2.9,5.4l6.1-1.4l-4.2,4.7l2.8,5.4l-5.5-2.4l-4.2,4.8"/>
</g>
<g>
	<path class="st1" d="M397.5,238.5c0,0,25.3,46.4-13.6,84.6c-21.4,16.4-41.7,23-64.7,17.3c-9.9-3.8-18.8-9.1-27.7-14.9
		c3.8-0.3,7.2-0.9,10.2-2.8c5.5-3.2,7.6-8.7,8.7-15c1-7.9,3.8-15.4,8.3-21.9c6.4-10.5,18-16.8,30.3-16.5c7.9,0.1,14.7,3.4,22.7,2.8
		c6.5-0.8,11.6-2.6,17.3-8.3C398.4,252,396.5,247.8,397.5,238.5L397.5,238.5z"/>
</g>
<g>
	<path class="st0" d="M356.3,305.8l-0.1,0.2"/>
	<rect x="356.1" y="304.9" transform="matrix(0.4472 -0.8944 0.8944 0.4472 -76.6554 487.7212)" width="0.2" height="2"/>
</g>
<g>
	<path class="st2" d="M356.2,306.6l-0.2-2c9.6-1,21.5-9.4,30.5-21.3c9.2-12.3,13.3-25.6,11.3-36.5l1.9-0.4
		c2.1,11.4-2.2,25.2-11.7,38C378.8,296.9,366.3,305.5,356.2,306.6z"/>
</g>
<g>
	<path class="st0" d="M341.2,305.9l0.8-6l3.1,5.4l6.2-0.9l-4.3,4.3l3.1,5.4l-5.7-2.7l-4.3,4.3l0.8-6l-5.7-2.7"/>
</g>
<g>
	<path class="st1" d="M391.7,237.4c0,0-35.3,39.3-84.4,15.4c-22.6-14.8-35.5-31.8-37.7-55.3c0.3-10.6,2.3-20.8,4.8-31
		c1.6,3.4,3.4,6.4,6.1,8.6c4.8,4,10.8,4.2,17.2,3.2c7.7-1.7,15.6-1.5,23.2,0.6c12.1,2.5,21.9,11.4,25.7,23.1
		c2.5,7.4,1.7,14.9,5,22.4c2.8,5.8,6.2,10,13.4,13.5C379.3,243,382.6,239.8,391.7,237.4L391.7,237.4z"/>
</g>
<g>
	<path class="st0" d="M314.6,221.1l-0.2-0.1"/>
	<rect x="313.5" y="220.9" transform="matrix(0.4481 -0.894 0.894 0.4481 -24.0627 403.1022)" width="2" height="0.2"/>
</g>
<g>
	<path class="st2" d="M365,247.1c-6.2,0-12.9-1.1-19.7-3.2c-14.8-4.6-27.2-13.5-31.5-22.7l1.8-0.8c4.1,8.7,16,17.2,30.3,21.6
		c14.7,4.6,28.5,4.1,38-1.4l1,1.7C379.4,245.5,372.5,247.1,365,247.1z"/>
</g>
<g>
	<path class="st0" d="M309.5,206.8l5.9-1.2l-4,4.7l2.9,5.5l-5.5-2.6l-4,4.7l0.7-6.4l-5.5-2.6l5.9-1.2l0.7-6.4"/>
</g>
</svg>
