<?xml version="1.0" encoding="utf-8"?>
<!-- Generator: Adobe Illustrator 24.0.1, SVG Export Plug-In . SVG Version: 6.00 Build 0)  -->
<svg version="1.1" id="flag-icons-hn" xmlns="http://www.w3.org/2000/svg" xmlns:xlink="http://www.w3.org/1999/xlink" x="0px"
	 y="0px" viewBox="0 0 800 480" style="enable-background:new 0 0 800 480;" xml:space="preserve">
<style type="text/css">
	.st0{fill:#18C3DF;}
	.st1{fill:#FFFFFF;}
</style>
<path class="st0" d="M0,0h800v480H0V0z"/>
<path class="st1" d="M0,160h800v160H0V160z"/>
<polygon class="st0" points="409.2,243 425.4,231.8 405.7,232.2 400,213.3 394.3,232.2 374.6,231.8 390.8,243 384.3,261.6 
	400,249.6 415.7,261.6 "/>
<polygon class="st0" points="542.5,200.3 558.7,189.1 539,189.5 533.3,170.6 527.6,189.5 507.9,189.1 524.1,200.3 517.6,218.9 
	533.3,206.9 549,218.9 "/>
<polygon class="st0" points="542.5,280.3 558.7,269.1 539,269.5 533.3,250.6 527.6,269.5 507.9,269.1 524.1,280.3 517.6,298.9 
	533.3,286.9 549,298.9 "/>
<polygon class="st0" points="275.9,200.3 292.1,189.1 272.4,189.5 266.7,170.6 261,189.5 241.3,189.1 257.5,200.3 251,218.9 
	266.7,206.9 282.4,218.9 "/>
<polygon class="st0" points="275.9,280.3 292.1,269.1 272.4,269.5 266.7,250.6 261,269.5 241.3,269.1 257.5,280.3 251,298.9 
	266.7,286.9 282.4,298.9 "/>
</svg>
