<?xml version="1.0" encoding="utf-8"?>
<!-- Generator: Adobe Illustrator 24.0.1, SVG Export Plug-In . SVG Version: 6.00 Build 0)  -->
<svg version="1.1" id="flag-icons-ht" xmlns="http://www.w3.org/2000/svg" xmlns:xlink="http://www.w3.org/1999/xlink" x="0px"
	 y="0px" viewBox="0 0 800 480" style="enable-background:new 0 0 800 480;" xml:space="preserve">
<style type="text/css">
	.st0{fill:#D21034;}
	.st1{fill:#00209F;}
	.st2{fill:#FFFFFF;}
	.st3{fill:#016A16;stroke:#016A16;stroke-width:0.5071;}
	.st4{fill:#F1B517;stroke:#000000;stroke-width:0.8654;stroke-miterlimit:10.24;}
	.st5{fill:#FFFFFF;stroke:#000000;stroke-width:0.8654;stroke-miterlimit:10.24;}
	.st6{fill:#0A328C;stroke:#000000;stroke-width:0.8654;stroke-miterlimit:10.24;}
	.st7{fill:#D20014;stroke:#000000;stroke-width:0.8654;stroke-miterlimit:10.24;}
	.st8{fill:#0A328C;stroke:#0A328C;stroke-width:0.8654;stroke-miterlimit:10.24;}
	.st9{fill:#D20014;stroke:#D20014;stroke-width:0.8654;stroke-miterlimit:10.24;}
	.st10{fill:#016A16;stroke:#016A16;stroke-width:0.8654;stroke-miterlimit:10.24;}
	.st11{fill:#016A16;stroke:#000000;stroke-width:0.8654;stroke-miterlimit:10.24;}
	.st12{fill:#016A16;stroke:#FFFFFF;stroke-width:0.8654;stroke-linecap:round;stroke-miterlimit:10.24;}
	.st13{fill:#016A16;stroke:#F1B517;stroke-width:0.8654;stroke-miterlimit:10.24;}
	.st14{fill:#503200;stroke:#000000;stroke-width:0.8654;stroke-miterlimit:10.24;}
	
		.st15{fill-rule:evenodd;clip-rule:evenodd;fill:#F1B517;stroke:#000000;stroke-width:0.8654;stroke-linecap:round;stroke-miterlimit:10.24;}
	.st16{fill-rule:evenodd;clip-rule:evenodd;fill:#F1B517;stroke:#000000;stroke-width:0.8654;stroke-miterlimit:10.24;}
	.st17{fill:none;stroke:#000000;stroke-width:0.8654;stroke-miterlimit:10.24;}
	.st18{fill:#FFFFFF;stroke:#FFFFFF;stroke-width:0.8654;stroke-miterlimit:10.24;}
	.st19{fill:#D20014;stroke:#F1B517;stroke-width:0.8654;stroke-miterlimit:10.24;}
	.st20{fill:#FFFFFF;stroke:#000000;stroke-width:0.5071;}
</style>
<path class="st0" d="M0,0h800v480H0V0z"/>
<path class="st1" d="M0,0h800v240H0V0z"/>
<g>
	<path class="st2" d="M272.1,138.1H528v203.7H272.1V138.1z"/>
	<path class="st3" d="M451.6,285.3l-52.4,1.7l-51.9,0.5c0,0-26.7,9.8-37.7,12c-10.8,2.2-9.5,5.7-17.7,7.8c-6.8,1.5-7.6,1.9-11.5,2.2
		c-2.5,0-5.4,2-8.5,4.1v28.2H528v-26.9c-2.7-1.5-5.4-2.5-8.1-3.4c-3.7-1.4-6.3-2.7-13-4.2c-8.5-1.9-7.1-5.6-17.9-7.8
		C478,297.3,451.6,285.3,451.6,285.3z"/>
	<g transform="translate(-80) scale(1.6)">
		<g id="a">
			<path class="st4" d="M290.7,139h2.4l4.4,18.1l-1,5.7l-5.7-23.7L290.7,139L290.7,139z"/>
			<path class="st5" d="M288.2,126.9l1.7,14h1.7L288.2,126.9L288.2,126.9L288.2,126.9z"/>
			<path class="st4" d="M292.8,157.8l-7.3-19.4l2.7-0.2l8.5,23.7L292.8,157.8z"/>
			<path class="st5" d="M282.1,127.2l3,13.5h2.4L282.1,127.2z"/>
			<path class="st4" d="M286.3,151l-4.2-9.3l1.7-0.3l7.9,15.2L286.3,151z"/>
			<path class="st5" d="M276.4,131.1l4.9,12.8h2.4l-7.1-12.8H276.4z"/>
			<path class="st6" d="M287,152.4l-19.4-21.1c-6.1,4.7-4.9,13.5-4.9,13.5l22,17.2L287,152.4L287,152.4L287,152.4z"/>
			<path class="st7" d="M298.2,163.9l-14.4-14.5c-6.1,0.3-1.4,9.3-1,10.5l15.2,13v-9H298.2z"/>
			<path class="st4" d="M296.8,161.5l-29.6-31.8l-1.2,0.8l31.4,34.8L296.8,161.5L296.8,161.5z M265.5,127.7l-0.7-0.8v-1.5l-6.1-3.9
				l2.7,6.3l2.2,0.3l0.5,0.7L265.5,127.7L265.5,127.7z"/>
			<path class="st4" d="M262.3,129.9c1.2-1.5,2.8-2.8,4.6-3.7l1.7,2.5l-3.7,3l-2.5-1.7v-0.1H262.3z"/>
			<path class="st8" d="M259.1,135.3l1,1.7c0.7-0.2,6.8-5.9,6.8-5.9h4.6l1.2-1.5c-3.4-3.4-6.3,0.5-6.3,0.5L259.1,135.3L259.1,135.3
				L259.1,135.3z"/>
			<path class="st9" d="M262.8,138.2c0-1.7,3-5.4,3.4-5.6c2.2,0.7,4.2,2,6.6-3c-2,2.4-5.9,0-5.9,0l-1.7,1.4v0.7l-5.1,4.7l2.5,1.9
				L262.8,138.2L262.8,138.2z"/>
			<path class="st6" d="M278.6,158l-24.3-19.3c-4.2,4.2-0.7,17.2-0.7,17.2l23.7,12.8l1.2-10.8L278.6,158z"/>
			<path class="st7" d="M298.7,173.7l-20.1-16.2c-6.8,1-1.4,11-1,12.2l21.1,11.5v-7.6V173.7z"/>
			<path class="st4" d="M297.8,170.3l-43.3-32.5l-0.8,1l45.3,35.5L297.8,170.3L297.8,170.3z M252.5,136.2l-0.7-0.7l-0.3-1.4
				l-6.8-2.9l3.9,5.6h2.2l0.7,0.7L252.5,136.2L252.5,136.2z"/>
			<path class="st4" d="M249.8,138.9c1-1.7,2.3-3.2,3.9-4.4l2,2.2l-3,3.5L249.8,138.9z"/>
			<path class="st8" d="M247.6,144.3v1.9c0.7-0.3,6.3-6.3,6.3-6.3l4.2-0.8l1-1.4c-3-3.5-6.3,1.2-6.3,1.2l-5.4,5.4L247.6,144.3
				L247.6,144.3z"/>
			<path class="st9" d="M251,147.5c-0.3-1.7,2-6.4,2.4-6.8c2.7,0.8,5.1,2,5.9-3.4c-1.7,2.7-5.9,0.7-5.9,0.7l-1.4,1.7v0.8l-4.2,5.6
				L251,147.5L251,147.5z"/>
			<path class="st6" d="M276.7,169.8c-10.4-5.9-20.9-11.8-31.3-17.7c-2.2,3.9-0.2,9.3,0.8,10.1c0,2.5-1,3.9,1.2,9.3
				c0.7,3.4,2.2,6.6,4.6,8.5c2.7,10.8,13.9,11.7,18.1,2.7l6.8-12.8h-0.2V169.8z"/>
			<path class="st7" d="M297.1,181.3L276,169c-6.8,0.8,0,13.5,0.5,14.7l20.6,7.3V181.3z"/>
			<path class="st4" d="M293.6,176.7l-47.8-25.4l-0.8,1l50.7,28.2L293.6,176.7z M243.4,150l-0.8-0.5l-0.5-1.4l-6.9-1.7l4.6,4.9
				l2-0.3l1,0.5L243.4,150L243.4,150z"/>
			<path class="st4" d="M241.2,153.1c0.7-1.7,1.4-3.2,3-5.1l2.4,1.9l-2.4,4.1L241.2,153.1z"/>
			<path class="st8" d="M239.3,158.8l1,2l5.1-7.8l4.2-1.5l0.8-1.7c-3.4-3-5.9,2.4-5.9,2.4L239.3,158.8L239.3,158.8z"/>
			<path class="st9" d="M243.9,161.5c-0.3-1.7,0.8-7.1,1.2-7.3c2.5,0.8,4.7,1,5.4-4.4c-1.7,2.5-5.6,1.7-5.6,1.7l-1.2,1.7l0.2,0.7
				l-3.4,6.8L243.9,161.5L243.9,161.5z"/>
		</g>
		<g transform="matrix(-1 0 0 1 499.9 0)">
			<g id="a_1_">
				<path class="st4" d="M190.7,139v0.1l5.7,23.7l1-5.7L193,139H190.7L190.7,139z"/>
				<path class="st5" d="M188,126.9L188,126.9l3.4,14h-1.7L188,126.9L188,126.9z"/>
				<path class="st4" d="M196.5,161.9l-8.5-23.7l-2.7,0.2l7.3,19.4L196.5,161.9z"/>
				<path class="st5" d="M187.3,140.7h-2.4l-3-13.5L187.3,140.7z"/>
				<path class="st4" d="M191.6,156.6l-7.9-15.2l-1.7,0.3l4.2,9.3L191.6,156.6z"/>
				<path class="st5" d="M176.4,131.1l7.1,12.8h-2.4l-4.9-12.8H176.4z"/>
				<path class="st6" d="M186.8,152.4L186.8,152.4l-2.3,9.6l-22-17.2c0,0-1.2-8.8,4.9-13.5L186.8,152.4L186.8,152.4z"/>
				<path class="st7" d="M197.8,163.9v9l-15.2-13c-0.4-1.2-5.1-10.2,1-10.5l14.4,14.5H197.8z"/>
				<path class="st4" d="M196.6,161.5l0.6,3.8l-31.4-34.8l1.2-0.8L196.6,161.5L196.6,161.5z M165.4,127.7l-1.4,1.1l-0.5-0.7
					l-2.2-0.3l-2.7-6.3l6.1,3.9v1.5L165.4,127.7L165.4,127.7z"/>
				<path class="st4" d="M162.3,129.9v0.1l2.5,1.7l3.7-3l-1.7-2.5c-1.8,0.9-3.4,2.2-4.6,3.7H162.3z"/>
				<path class="st8" d="M158.9,135.3L158.9,135.3l7.3-5.2c0,0,2.9-3.9,6.3-0.5l-1.2,1.5h-4.6c0,0-6.1,5.7-6.8,5.9L158.9,135.3
					L158.9,135.3z"/>
				<path class="st9" d="M162.7,138.3h-0.2l-2.5-1.9l5.1-4.7V131l1.7-1.4c0,0,3.9,2.4,5.9,0c-2.4,5-4.4,3.7-6.6,3
					C165.7,132.8,162.7,136.5,162.7,138.3L162.7,138.3z"/>
				<path class="st6" d="M178.3,157.9l-1.2,10.8l-23.7-12.8c0,0-3.5-13,0.7-17.2l24.3,19.3L178.3,157.9z"/>
				<path class="st7" d="M198.5,173.6v7.6l-21.1-11.5c-0.4-1.2-5.8-11.2,1-12.2l20.1,16.2V173.6z"/>
				<path class="st4" d="M197.6,170.3l1.2,4l-45.3-35.5l0.8-1L197.6,170.3L197.6,170.3z M152.3,136.2l-0.9,1.3l-0.7-0.7h-2.3
					l-3.9-5.6l6.8,2.9l0.3,1.4L152.3,136.2L152.3,136.2z"/>
				<path class="st4" d="M152.5,140.2l3-3.5l-2-2.2c-1.6,1.2-2.9,2.7-3.9,4.4L152.5,140.2z"/>
				<path class="st8" d="M147.4,144.3h-0.2l5.4-5.4c0,0,3.3-4.7,6.3-1.2l-1,1.4l-4.2,0.8c0,0-5.6,6-6.3,6.3V144.3L147.4,144.3z"/>
				<path class="st9" d="M150.8,147.5l-3.2-1.4l4.2-5.6v-0.8l1.4-1.7c0,0,4.2,2,5.9-0.7c-0.8,5.4-3.2,4.2-5.9,3.4
					C152.8,141.1,150.5,145.8,150.8,147.5L150.8,147.5z"/>
				<path class="st6" d="M176.5,169.9h0.2l-6.8,12.8c-4.2,9-15.4,8.1-18.1-2.7c-2.4-1.9-3.9-5.1-4.6-8.5c-2.2-5.4-1.2-6.8-1.2-9.3
					c-1-0.8-3-6.2-0.8-10.1c10.4,5.9,20.9,11.8,31.3,17.7V169.9z"/>
				<path class="st7" d="M197,191l-20.6-7.3c-0.5-1.2-7.3-13.9-0.5-14.7l21.1,12.3V191z"/>
				<path class="st4" d="M195.5,180.5l-50.7-28.2l0.8-1l47.8,25.4L195.5,180.5z M143.2,150l-0.6,1.5l-1-0.5l-2,0.3l-4.6-4.9l6.9,1.7
					l0.5,1.4L143.2,150L143.2,150z"/>
				<path class="st4" d="M144,154l2.4-4.1L144,148c-1.6,1.9-2.3,3.4-3,5.1L144,154z"/>
				<path class="st8" d="M139.2,158.8l5.2-6.6c0,0,2.5-5.4,5.9-2.4l-0.8,1.7l-4.2,1.5l-5.1,7.8L139.2,158.8L139.2,158.8z"/>
				<path class="st9" d="M143.7,161.5l-3.4-0.8l3.4-6.8l-0.2-0.7l1.2-1.7c0,0,3.9,0.8,5.6-1.7c-0.7,5.4-2.9,5.2-5.4,4.4
					C144.5,154.4,143.4,159.8,143.7,161.5L143.7,161.5z"/>
			</g>
		</g>
	</g>
	<g transform="translate(-80) scale(1.6)">
		<path class="st10" d="M298,108.8l-0.8,15.2h4.9l-0.7-15.2l5.1-0.5l-0.5-6.1l-12.7,0.5v5.4L298,108.8L298,108.8z"/>
		<g id="b">
			<path class="st11" d="M299.7,102.5c-13.2-13.2-23.5-6.8-25.9-4.9c1.7,0.3,3-0.7,3.9-0.8l-1.7,2c0,0,4.2-1.7,4.7-1.7
				c-0.7,0.5-1.4,1.7-1.4,1.7c0.3,0,2.7-1.9,3-1.9c-0.7,0.7-0.8,2.5-0.8,2.5l2-0.8c0.5,0.3-0.2,1,0.2,1c3.4-0.3,7.9,2.9,8.5,3.9"/>
			<path class="st11" d="M296.5,104.9c-1.4-3-26.4-8.5-31.4,0.5c2,0.5,3.9-1.7,3.9-1.7v2l3.2-2.7l-1.2,2.7l2.5-2.2v2.2l3.4-3.4
				l-0.5,1.9l2.9-1.2l-0.3,1.7"/>
			<path class="st11" d="M295.3,105.4c-6.4-4.2-16.2-1.4-16.2-1.4c-6.4,3.4-9.8,2.9-10.5,9.5c0.5-0.2,2.2-2.4,2.2-2.4l1.4,2.5
				l0.3-3.5l1,2.9l1.7-4.7l0.3,3.2l2.4-3.2l1,1l1-2.5l1,1.7c0,0,1.7-1,2.5-0.5l1.7-2l0.5,1.5l1.7-1.7l0.5,1.2l1.5-1.4v1h5.1"/>
			<path class="st11" d="M293.9,106.1c-4.6,0-17.4,4.9-20.6,9.8c0.7-0.4,1.4-0.7,2.2-1l0.5,2l0.8-2l0.2,1.7c0.5-1.4,1-1.4,2-0.2
				l0.3-1.9l0.5,1.7l0.8-1.9c0,0,0.5,2,0.8,2c0,0,1.4-3.7,2-3.9l0.2,2.4l0.8-2.4l0.8,1.7v-2.4l1,1.7c0,0,0.3-1.7,1-2l1.4,1.2
				l5.7-4.2"/>
			<path class="st11" d="M294.8,107.3c-5.9,2.2-11.3,10.5-10.8,13.9c2.5-3.4,2-2.9,3.2,1c0,0,0.3-3.4,0.8-3.7l0.8,2.4l0.2-3.2h0.8
				l-0.2-1.9l1.2,0.8c-0.3-1.2-0.5-1.5,0.7-2.5c0,0-1.7,0.2-0.3-2.5l1.2,1c0,0-0.3-1.2,0-1.7l4.4-1.4"/>
			<path class="st11" d="M295.3,107.8l-2.2,4.4l1.2,0.3l-2.7,1.9l2.2-0.2c0,0-3.4,1.2-3.7,4.6l3.4-1.7c0,0-2.9,3-3.4,4.9l2.2-1.7
				c0,0-2,2-1.7,5.1l1.5-1.7c-0.3,3.9-0.3,4.2,1.4,7.1c0,0-0.3-4.4,0-5.1l3.9,4.1l-2-5.6c0,0,2.4,3.4,3.7,3.2l-3-4.6l3,2.4l-3.4-5.1
				l3,1c0,0-2.2-2.9-2-4.7l2.2,2.4c0,0-0.8-2.5-0.7-3.4l1.2,0.2l-2.2-2.4l1.5-0.3l-0.2-1.7l1-0.2v-1.9 M297.7,109.1
				c-3.7,5.1-1.9,12.7-4.1,16.7"/>
		</g>
		<g transform="matrix(-1 0 0 1 499.9 0)">
			<g id="b_1_">
				<path class="st11" d="M192,103.5c-0.6-1-5.1-4.2-8.5-3.9c-0.4,0,0.3-0.7-0.2-1l-2,0.8c0,0,0.1-1.8,0.8-2.5c-0.3,0-2.7,1.9-3,1.9
					c0,0,0.7-1.2,1.4-1.7c-0.5,0-4.7,1.7-4.7,1.7l1.7-2c-0.9,0.1-2.2,1.1-3.9,0.8c2.4-1.9,12.7-8.3,25.9,4.9"/>
				<path class="st11" d="M178.8,104.7l0.3-1.7l-2.9,1.2l0.5-1.9l-3.4,3.4v-2.2l-2.5,2.2l1.2-2.7l-3.2,2.7v-2c0,0-1.9,2.2-3.9,1.7
					c5-9,30-3.5,31.4-0.5"/>
				<path class="st11" d="M194.2,106.6h-5.1v-1l-1.5,1.4l-0.5-1.2l-1.7,1.7l-0.5-1.5l-1.7,2c-0.8-0.5-2.5,0.5-2.5,0.5l-1-1.7l-1,2.5
					l-1-1l-2.4,3.2l-0.3-3.2l-1.7,4.7l-1-2.9l-0.3,3.5l-1.4-2.5c0,0-1.7,2.2-2.2,2.4c0.7-6.6,4.1-6.1,10.5-9.5c0,0,9.8-2.8,16.2,1.4
					"/>
				<path class="st11" d="M194.2,108.4l-5.7,4.2l-1.4-1.2c-0.7,0.3-1,2-1,2l-1-1.7v2.4l-0.8-1.7l-0.8,2.4l-0.2-2.4
					c-0.6,0.2-2,3.9-2,3.9c-0.3,0-0.8-2-0.8-2l-0.8,1.9l-0.5-1.7l-0.3,1.9c-1-1.2-1.5-1.2-2,0.2l-0.2-1.7l-0.8,2l-0.5-2
					c-0.8,0.3-1.5,0.6-2.2,1c3.2-4.9,16-9.8,20.6-9.8"/>
				<path class="st11" d="M196.7,109.5l-4.4,1.4c-0.3,0.5,0,1.7,0,1.7l-1.2-1c-1.4,2.7,0.3,2.5,0.3,2.5c-1.2,1-1,1.3-0.7,2.5
					l-1.2-0.8l0.2,1.9h-0.9l-0.2,3.2l-0.8-2.4c-0.5,0.3-0.8,3.7-0.8,3.7c-1.2-3.9-0.7-4.4-3.2-1c-0.5-3.4,4.9-11.7,10.8-13.9"/>
				<path class="st11" d="M199.3,109.1v1.9l-1,0.2l0.2,1.7l-1.5,0.3l2.2,2.4l-1.2-0.2c-0.1,0.9,0.7,3.4,0.7,3.4l-2.2-2.4
					c-0.2,1.8,2,4.7,2,4.7l-3-1l3.4,5.1l-3-2.4l3,4.6c-1.3,0.2-3.7-3.2-3.7-3.2l2,5.6l-3.9-4.1c-0.3,0.7,0,5.1,0,5.1
					c-1.7-2.9-1.7-3.2-1.4-7.1l-1.5,1.7c-0.3-3.1,1.7-5.1,1.7-5.1l-2.2,1.7c0.5-1.9,3.4-4.9,3.4-4.9l-3.4,1.7
					c0.3-3.4,3.7-4.6,3.7-4.6l-2.2,0.2l2.7-1.9l-1.2-0.3l2.2-4.4 M193.4,125.8c2.2-4,0.4-11.6,4.1-16.7"/>
			</g>
		</g>
		<path class="st4" d="M301.7,177.9c0,0,1.9-16.9,1.9-24c0-5.7-1.4-18.3-1.4-18.3h-5.6c0,0-0.8,12.5-0.7,18.3c0,7.1,1.9,24,1.9,24
			H301.7L301.7,177.9z"/>
		<path class="st4" d="M296.1,136.5h6.8l-0.8-4.6h-4.9l-1,4.4v0.2H296.1z"/>
		<path class="st4" d="M296.6,132.8h5.9l-1.2-4.6h-3.7l-1.2,4.6H296.6z"/>
		<path class="st4" d="M297,129.2h5.1l-1-4.6h-3.2L297,129.2z"/>
		<path class="st4" d="M301.2,124.2h-3.4l-0.5,1.7h4.2L301.2,124.2z M301.9,174.4h-4.4 M302.2,171h-5.1 M302.9,167.6h-6.4
			 M303.2,164.1h-6.8 M303.2,160.3h-6.9 M303.4,157H296 M303.4,154.1h-7.8 M303.4,150.4h-7.8 M303.2,146.8h-7.6 M302.9,143.1H296
			 M302.6,139.7h-6.3"/>
		<path class="st8" d="M300,97.6c-1.4-0.5-3.9-2.2-3.2-3.2l1.2-2c1.7-3.7,0-2.4,0-3.4c-0.3-1.4,6.4-0.3,6.4,2.2
			c0,0.8-0.5,0.3-0.3,4.4l-1.4,2.5c-1,0.1-2,0-2.9-0.3L300,97.6z"/>
		<path class="st4" d="M300.7,107.8l-1.7-1.5l0.5-12l1.7,0.5l-0.5,12.8V107.8z"/>
		<path class="st9" d="M302.9,98.1c1-0.7,1.7-2.5,1-3.5c-1.7-2.2-2.9-1.4-5.7-2.4c-0.5,0.7-1.7,1.7-1.5,2.7c3.9,1.7,2.4,0.3,3.7,0.5
			c0.7,0,1,0.8,2.5,2.5V98.1z"/>
	</g>
	<g transform="translate(-80) scale(1.6)">
		<g transform="matrix(1 0 0 -1 0 320.4)">
			<path id="c" class="st12" d="M280.6,167.4c-0.3-0.8-1.7-1.5-3.4-1.5c-1.7,0-2.9,0.7-3.4,1.5c-0.1-0.2-0.1-0.5,0-0.7
				c0-1.2,1.5-2,3.4-2c2,0,3.5,0.8,3.5,2c0.1,0.2,0.1,0.5,0,0.7H280.6z"/>
		</g>
		<path class="st12" d="M280.4,170c0,2-1.5,3.9-3.2,3.9s-3-1.7-3-4.1v-2h6.3v2L280.4,170L280.4,170z"/>
		<ellipse class="st2" cx="277.2" cy="167.1" rx="3" ry="1.5"/>
		<path class="st13" d="M276.5,168.6l-0.5-5.4h2.4l-0.3,5.6h-1.5v-0.2H276.5z"/>
		<path id="c_1_" class="st12" d="M280.6,167.1c-0.3,0.8-1.7,1.5-3.4,1.5c-1.7,0-2.9-0.7-3.4-1.5c-0.1,0.2-0.1,0.5,0,0.7
			c0,1.2,1.5,2,3.4,2c2,0,3.5-0.8,3.5-2c0.1-0.2,0.1-0.5,0-0.7H280.6z"/>
		<g id="d">
			<path class="st4" d="M293.3,188.6l-11.8-3.7l-5.2-9l-18.4-0.8l0.7,6.8l15.7,2.9l1.4,2.7l18.1,5.1L293.3,188.6z"/>
			<path class="st14" d="M280.9,191.1L262,163.2l-0.8,0.8l18.6,27.7L280.9,191.1z"/>
			<path class="st5" d="M263.8,164.4l-2-3.4c-0.5-0.7-1-0.8-1.9-0.3c-0.8,0.3-0.7,1.2-0.3,1.9l1.7,3.2L263.8,164.4z"/>
			<path class="st4" d="M283.1,173.9l-38-3.9l-1,5.6l37.9,3.9L283.1,173.9L283.1,173.9z"/>
			<path class="st4" d="M244.2,168.6l-0.8,7.6h1.7l1-6.9l-1.7-0.7L244.2,168.6L244.2,168.6z M250.7,169.8l-0.3,6.9h1l0.8-5.9l-1.4-1
				H250.7z M276.5,172.8l-1,6.4h1.9l0.8-6.4H276.5z M282.1,173l-1.2,7.4l2,0.3l0.7-3.9c0,0.8,0.8,1.4,1.7,1.4c1,0,1.7-0.8,1.7-1.7
				c0-1-0.7-1.7-1.7-1.7c-0.7-0.1-1.4,0.3-1.7,1l0.5-2.7L282.1,173L282.1,173z M268.6,174.2l-5.4,5.9l0.7,0.7l6.8-4.6l-2.2-2
				L268.6,174.2L268.6,174.2z M256.1,188.9l5.2-5.9l-0.5-0.7l-6.8,4.6L256.1,188.9z M269.8,187.4l-6.3-4.9l-0.7,0.5l5.1,6.4
				L269.8,187.4L269.8,187.4z M254,176.1l6.6,4.7l0.7-0.5l-5.1-6.4L254,176.1L254,176.1z M261.1,172.2l0.7,7.8h0.8l2-7.6
				L261.1,172.2L261.1,172.2z M263.2,190.8l-0.5-7.6h-1l-1.2,7.8h2.7V190.8z M271.8,180.6l-8.1,0.7v0.8l8.1,1v-2.7V180.6z
				 M252.5,183.2l7.9-1.2v-0.7l-8.1-0.8v2.7H252.5z"/>
			<ellipse class="st4" cx="262.3" cy="181.5" rx="2.2" ry="2"/>
			<path class="st15" d="M273.7,181.5c0,5.9-5.1,11-11.3,11c-6.2,0.1-11.2-4.8-11.3-11l0,0c0-6.1,5.1-11,11.3-11
				C268.5,170.4,273.6,175.3,273.7,181.5L273.7,181.5z M271.5,181.5c-0.1,4.9-4.2,8.9-9.1,8.8l0,0c-4.9,0.1-9-3.8-9.1-8.8
				c0-0.1,0-0.1,0-0.2c0.2-4.9,4.2-8.7,9.1-8.6C267.3,172.6,271.4,176.5,271.5,181.5L271.5,181.5L271.5,181.5z"/>
			<path class="st4" d="M255.2,175.9l-1.7-1.4 M267.9,174.5l1.7-1.7 M271.3,188.4l-1.9-1.5 M255.2,190.1l1.7-1.7 M293.6,170.5
				l1.9,10.1l-1.5,0.7l-1.7-10.6h1.4L293.6,170.5z"/>
			<path class="st5" d="M292.6,169.3c-0.8-0.5-2,0.2-4.1-2.2c-3.2,2.9,0,3.4,0.3,6.3c0.8,0.3,1.5-2.4,3.9-2.5l3.9-0.3l-0.8-1.2h-3.4
				h0.2V169.3z"/>
			<path class="st5" d="M293.9,171.2l-0.3-2.9c-0.5-1.2-1.7-0.2-1.7,0.3l0.3,2.9L293.9,171.2z"/>
			<path class="st16" d="M284.5,179.4v2.7c-1,0.3-0.8,1-0.8,2v7.9c-0.2,0.7-1.2,0.7-1.7,1c-0.5,0.5-0.3,1.4,1.7,1.7l1.7,0.2
				c2.5-0.5,3-1.4,1.7-1.7c-0.5-0.3-1.5-0.7-1.7-1v-2h1.7c0.3,0,1.2-1,1.2-1.9v-4.2c0-2.4-1.7-2.7-2.4-2.5v-2.2H284.5z M287.2,184
				c0-0.7-1-1.4-1.4-1.4s-1.2,0.8-1.2,1.5v1.7c0,0.7,0.5,2.7,1.5,2.9c0.3,0,1-0.7,1-1.4V184H287.2z"/>
			<path class="st5" d="M273.5,187.7c-1.2-0.3-1.2,2-1.2,2h1.7c0.8,0.3,1.4,1.4,1,2c-0.5,0.3-3.7-0.8-3.9,0c0.5,3.2,4.9,4.4,6.4,3
				c1.5-1.5,1.9-5.1-3-6.3L273.5,187.7z M274.5,188.7l-0.5,1"/>
			<path class="st4" d="M240.9,188.9l-1.7-6.8 M242.7,188.6l-2.5-5.2 M246.9,187.2l-5.6-3 M249.5,186.5L239,182"/>
			<path class="st9" d="M232.7,177.1l-4.4,0.2c-0.3,0.2,0.8,1.5,0.7,1.9c-1,1.9-7.4,1.7-7.9,1.4c-0.8-0.8,5.9-1.4,6.1-1.7
				c0-0.7-1-2-0.8-2.9c0-1.2,2.9-1.7,2.9-1.7L232.7,177.1L232.7,177.1z"/>
			<path class="st14" d="M237.8,180.4l-8.5-7.1c0,0-0.5-0.3-0.8,0s0,0.7,0,0.7l9.1,7.4l0.2-0.8V180.4z"/>
			<path class="st4" d="M246.3,187.5l-7.1-6.1l-0.5-1.7l-1.4,1c-0.5,0.3-1,1.4-1,1.4h1.9l6.1,5.7l1.9-0.3L246.3,187.5L246.3,187.5z"
				/>
			<circle class="st4" cx="270.4" cy="195.8" r="1.2"/>
			<circle class="st4" cx="267.2" cy="193.5" r="1.2"/>
			<circle class="st4" cx="263" cy="195" r="1.2"/>
			
				<ellipse transform="matrix(0.1602 -0.9871 0.9871 0.1602 21.5641 417.9456)" class="st4" cx="256.4" cy="196.3" rx="1.9" ry="1.9"/>
			<circle class="st4" cx="253.5" cy="196.7" r="1.2"/>
			<circle class="st4" cx="250.7" cy="196.7" r="1.2"/>
			<circle class="st4" cx="248" cy="196.7" r="1.2"/>
			<circle class="st4" cx="249.3" cy="194.5" r="1.2"/>
			<circle class="st4" cx="252" cy="194.6" r="1.2"/>
			<circle class="st4" cx="254.5" cy="194.3" r="1.2"/>
			<circle class="st4" cx="253.4" cy="192.3" r="1.2"/>
			<circle class="st4" cx="250.7" cy="192.1" r="1.2"/>
			<path class="st16" d="M277.2,197.4c0-0.5-1.4-0.3-1.4-1s2,0,2.2,0.5c1.2-1,1.7-0.3,2.4,0c1-1.4,2.2-1.4,3.4-0.3
				c0.7-0.7,2.4-0.5,2.9,0.3c1.2-1,2.2-0.8,2.9,0c0.3-0.5,0.8-0.5,1.2,0c0.5-1.2,2-0.8,2.7,0c0.5-0.7,1.2-0.2,1.9,0.2
				c0.5-0.3,1.4-0.3,1.4,0c0,0.7-1,0.5-1,1c0,0.3,0.7,0,0.7,0.7c0,0.5-1,0.7-1.2,0c-0.5,0.7-1.9,0.3-2-0.3c-0.5,0.6-1.3,0.6-1.9,0.1
				l-0.1-0.1c-0.5,0.3-1.2,0.3-1.4,0c-0.8,0.8-2.4,0.7-2.9-0.3h-0.5c-0.6,0.7-1.7,0.8-2.4,0.1c-0.1,0-0.1-0.1-0.1-0.1
				c-1.5,1-2.4,0.7-3.2,0c-0.8,1.2-2.4,1.2-2.5,0c-0.7,0.5-2,0.7-2,0C276,197.7,277.2,197.9,277.2,197.4L277.2,197.4z M279.9,197.5
				c0,0.3-0.3,0.5-0.7,0.5c-0.3,0-0.7-0.2-0.7-0.5s0.2-0.3,0.7-0.3C279.7,197.2,279.9,197.4,279.9,197.5z M283.1,197.2
				c0,0.3-0.5,0.5-1,0.5s-0.8-0.2-0.8-0.5c0-0.2,0.3-0.5,0.8-0.5s0.8,0.3,0.8,0.5H283.1z M289,197.5c0,0.3-0.3,0.5-0.8,0.5
				s-0.7-0.2-0.7-0.5c0-0.2,0.3-0.5,0.7-0.5C288.5,197,289,197.2,289,197.5z M285.8,197.5c0,0.3-0.3,0.5-0.8,0.5s-0.7-0.2-0.7-0.7
				c0-0.3,0.3-0.7,0.7-0.7s0.8,0.3,0.8,0.7V197.5z M292.6,197.5c0,0.2-0.2,0.5-0.5,0.5c-0.5,0-0.8-0.3-0.8-0.7s0.3-0.5,0.8-0.5
				c0.3,0,0.7,0.2,0.7,0.5L292.6,197.5z M290.6,197.5c0,0.3,0,0.5-0.3,0.5s-0.5-0.2-0.5-0.5s0.2-0.3,0.5-0.3L290.6,197.5z
				 M294.6,197.7c0,0.3,0,0.7-0.5,0.7c-0.2,0-0.5-0.3-0.5-0.7c0-0.3,0.3-0.5,0.5-0.5C294.4,197.2,294.6,197.4,294.6,197.7z"/>
		</g>
		<g transform="matrix(-1 0 0 1 499.9 0)">
			<g id="d_1_">
				<path class="st4" d="M193.6,192.6l-18.1-5.1l-1.4-2.7l-15.7-2.9l-0.7-6.8l18.4,0.8l5.2,9l11.8,3.7L193.6,192.6z"/>
				<path class="st14" d="M179.6,191.7L161,164l0.8-0.8l18.9,27.9L179.6,191.7z"/>
				<path class="st5" d="M161.2,165.8l-1.7-3.2c-0.4-0.7-0.5-1.6,0.3-1.9c0.9-0.5,1.4-0.4,1.9,0.3l2,3.4L161.2,165.8z"/>
				<path class="st4" d="M182.9,173.9l-1.1,5.6l-37.9-3.9l1-5.6L182.9,173.9L182.9,173.9z"/>
				<path class="st4" d="M144.1,168.6h0.2l1.7,0.7l-1,6.9h-1.7L144.1,168.6L144.1,168.6z M150.6,169.8l1.4,1l-0.8,5.9h-1l0.3-6.9
					H150.6z M178.1,172.8l-0.8,6.4h-1.9l1-6.4H178.1z M181.9,173l2,0.1l-0.5,2.7c0.3-0.7,1-1.1,1.7-1c1,0,1.7,0.7,1.7,1.7
					c0,0.9-0.7,1.7-1.7,1.7c-0.9,0-1.7-0.6-1.7-1.4l-0.7,3.9l-2-0.3L181.9,173L181.9,173z M168.4,174.2h-0.1l2.2,2l-6.8,4.6
					l-0.7-0.7L168.4,174.2L168.4,174.2z M153.8,186.9l6.8-4.6l0.5,0.7l-5.2,5.9L153.8,186.9z M169.6,187.4l-1.9,2l-5.1-6.4l0.7-0.5
					L169.6,187.4L169.6,187.4z M153.9,176.1l2.2-2.2l5.1,6.4l-0.7,0.5L153.9,176.1L153.9,176.1z M161,172.2l3.5,0.2l-2,7.6h-0.8
					L161,172.2L161,172.2z M163,191h-2.7l1.2-7.8h1l0.5,7.6V191z M171.6,180.4v2.7l-8.1-1v-0.8l8.1-0.7V180.4z M152.1,183.2v-2.7
					l8.1,0.8v0.7l-7.9,1.2H152.1z"/>
				<ellipse class="st4" cx="162.2" cy="181.5" rx="2.2" ry="-2"/>
				<path class="st15" d="M173.5,181.5c-0.1-6.2-5.2-11.1-11.3-11c-6.2,0-11.3,4.9-11.3,11l0,0c0.1,6.2,5.1,11.1,11.3,11
					C168.4,192.5,173.5,187.4,173.5,181.5L173.5,181.5z M171.3,181.5L171.3,181.5c-0.1-5-4.2-8.9-9.1-8.8c-4.9-0.1-8.9,3.7-9.1,8.6
					c0,0.1,0,0.1,0,0.2c0.1,5,4.2,8.9,9.1,8.8l0,0C167.1,190.4,171.2,186.4,171.3,181.5L171.3,181.5z"/>
				<path class="st4" d="M153.4,174.5l1.7,1.4 M169.4,172.8l-1.7,1.7 M169.2,186.9l1.9,1.5 M156.8,188.4l-1.7,1.7 M193.5,170.7h-1.4
					l1.7,10.6l1.5-0.7l-1.9-10.1L193.5,170.7z"/>
				<path class="st5" d="M192.4,169.4h-0.2h3.4l0.8,1.2l-3.9,0.3c-2.4,0.1-3.1,2.8-3.9,2.5c-0.3-2.9-3.5-3.4-0.3-6.3
					c2.1,2.4,3.3,1.7,4.1,2.2V169.4z"/>
				<path class="st5" d="M192.1,171.5l-0.3-2.9c0-0.5,1.2-1.5,1.7-0.3l0.3,2.9L192.1,171.5z"/>
				<path class="st16" d="M185.7,179.4v2.2c0.7-0.2,2.4,0.1,2.4,2.5v4.2c0,0.9-0.9,1.9-1.2,1.9h-1.7v2c0.2,0.3,1.2,0.7,1.7,1
					c1.3,0.3,0.8,1.2-1.7,1.7l-1.7-0.2c-2-0.3-2.2-1.2-1.7-1.7c0.5-0.3,1.5-0.3,1.7-1v-7.9c0-1-0.2-1.7,0.8-2v-2.7H185.7z
					 M186.9,184v3.3c0,0.7-0.7,1.4-1,1.4c-1-0.2-1.5-2.2-1.5-2.9v-1.7c0-0.7,0.8-1.5,1.2-1.5s1.4,0.7,1.4,1.4H186.9z"/>
				<path class="st5" d="M174.3,188.4c4.9,1.2,4.5,4.8,3,6.3c-1.5,1.4-5.9,0.2-6.4-3c0.2-0.8,3.4,0.3,3.9,0c0.4-0.6-0.2-1.7-1-2
					h-1.7c0,0,0-2.3,1.2-2L174.3,188.4z M173.8,189.7l0.5-1"/>
				<path class="st4" d="M139,182.1l1.7,6.8 M140,183.4l2.5,5.2 M141.2,184.2l5.6,3 M138.8,181.9l10.5,4.6"/>
				<path class="st9" d="M132.6,177.1l-3.4-2.8c0,0-2.9,0.5-2.9,1.7c-0.2,0.9,0.8,2.2,0.8,2.9c-0.2,0.3-6.9,0.9-6.1,1.7
					c0.5,0.3,6.9,0.5,7.9-1.4c0.1-0.4-1-1.7-0.7-1.9L132.6,177.1L132.6,177.1z"/>
				<path class="st14" d="M137.6,180.4v0.2l-0.2,0.8l-9.1-7.4c0,0-0.3-0.4,0-0.7s0.8,0,0.8,0L137.6,180.4L137.6,180.4z"/>
				<path class="st4" d="M146.1,187.5H146l-1.9,0.3l-6.1-5.7h-1.9c0,0,0.5-1.1,1-1.4l1.4-1l0.5,1.7L146.1,187.5L146.1,187.5z"/>
				<circle class="st4" cx="170.3" cy="195.8" r="1.2"/>
				<circle class="st4" cx="167.1" cy="193.5" r="1.2"/>
				<circle class="st4" cx="162.8" cy="195" r="1.2"/>
				<circle class="st4" cx="156.2" cy="196.3" r="1.2"/>
				<circle class="st4" cx="153.4" cy="196.7" r="1.2"/>
				<circle class="st4" cx="150.5" cy="196.7" r="1.2"/>
				<circle class="st4" cx="147.8" cy="196.7" r="1.2"/>
				<circle class="st4" cx="149.1" cy="194.5" r="1.2"/>
				<circle class="st4" cx="151.8" cy="194.6" r="1.2"/>
				<circle class="st4" cx="154.4" cy="194.3" r="1.2"/>
				<circle class="st4" cx="153.2" cy="192.3" r="1.2"/>
				<circle class="st4" cx="150.5" cy="192.1" r="1.2"/>
				<path class="st16" d="M177,197.4c0,0.5-1.2,0.3-0.9,0.8c0,0.7,1.3,0.5,2,0c0.1,1.2,1.7,1.2,2.5,0c0.8,0.7,1.7,1,3.2,0
					c0,0,0,0.1,0.1,0.1c0.7,0.7,1.8,0.6,2.4-0.1h0.5c0.5,1,2.1,1.1,2.9,0.3c0.2,0.3,0.9,0.3,1.4,0l0.1,0.1c0.6,0.5,1.4,0.5,1.9-0.1
					c0.1,0.6,1.5,1,2,0.3c0.2,0.7,1.2,0.5,1.2,0c0-0.7-0.7-0.4-0.7-0.7c0-0.5,1-0.3,1-1c0-0.3-0.9-0.3-1.4,0
					c-0.7-0.4-1.4-0.9-1.9-0.2c-0.7-0.8-2.2-1.2-2.7,0c-0.4-0.5-0.9-0.5-1.2,0c-0.7-0.8-1.7-1-2.9,0c-0.5-0.8-2.2-1-2.9-0.3
					c-1.2-1.1-2.4-1.1-3.4,0.3c-0.7-0.3-1.2-1-2.4,0c-0.2-0.5-2.2-1.2-2.2-0.5S177,196.9,177,197.4L177,197.4z M179,197.2
					c-0.5,0-0.7,0-0.7,0.3s0.3,0.5,0.7,0.5s0.7-0.2,0.7-0.5C179.7,197.4,179.5,197.2,179,197.2z M182.7,197.2c0-0.2-0.3-0.5-0.8-0.5
					s-0.8,0.3-0.8,0.5c0,0.3,0.3,0.5,0.8,0.5s1-0.2,1-0.5H182.7z M188.1,197c-0.4,0-0.7,0.3-0.7,0.5c0,0.3,0.2,0.5,0.7,0.5
					s0.8-0.2,0.8-0.5S188.4,197,188.1,197z M185.6,197.3c0-0.4-0.4-0.7-0.8-0.7s-0.7,0.4-0.7,0.7c0,0.5,0.2,0.7,0.7,0.7
					s0.8-0.2,0.8-0.5V197.3z M192.6,197.3c0-0.3-0.4-0.5-0.7-0.5c-0.5,0-0.8,0.1-0.8,0.5s0.3,0.7,0.8,0.7c0.3,0,0.5-0.3,0.5-0.5
					L192.6,197.3z M190.1,197.2c-0.3,0-0.5,0-0.5,0.3s0.2,0.5,0.5,0.5s0.3-0.2,0.3-0.5L190.1,197.2z M193.9,197.2
					c-0.2,0-0.5,0.2-0.5,0.5c0,0.4,0.3,0.7,0.5,0.7c0.5,0,0.5-0.4,0.5-0.7S194.3,197.2,193.9,197.2z"/>
			</g>
		</g>
		<path class="st8" d="M299.7,176.6c-4.2,0-7.6,1.7-7.6,3.5c0,0.3,0,0.7,0.3,1c0.8,1,3.9,1.7,7.4,1.7c3.4,0,6.1-0.5,7.1-1.5
			c0.3-0.3,0.5-0.7,0.5-1.2c0-1.9-3.4-3.4-7.8-3.4L299.7,176.6z"/>
		<path class="st4" d="M307.5,180.4v11.8c0,1.5-3.4,2.5-7.6,2.5s-7.8-1-7.8-2.5v-11.8c0,1.4,3.4,2.5,7.6,2.5
			C304.1,183,307.5,181.8,307.5,180.4z"/>
		<path class="st9" d="M292.1,180.4v1.7l3.7,11.8l3-9.1l3.4,9.3l2.2-8.8l3,5.9V188l-2.7-5.7c-0.3,0.1-0.7,0.2-1,0.3L302,189
			l-2.5-6.1c-0.4,0-0.8,0-1.2,0l-2.5,6.1l-2.7-7.4C292.4,181.3,292.1,180.8,292.1,180.4L292.1,180.4z"/>
		<path class="st8" d="M307.5,190.1v2.2c0,1.5-3.4,2.5-7.6,2.5s-7.8-1-7.8-2.5v-2.2c0,1.5,3.4,2.5,7.6,2.5
			C304.1,192.6,307.5,191.6,307.5,190.1z"/>
		<path class="st4" d="M302.9,192.3l-1.9,0.3v2.2l2-0.2v-2.2L302.9,192.3z M294.8,192.1v2.2l1.9,0.3v-2.2
			C296,192.4,295.4,192.3,294.8,192.1z M292.1,190.1v2.2c0,0.5,0.3,0.8,0.8,1.2v-2.2C292.4,190.9,292.1,190.6,292.1,190.1z
			 M307.5,190.4c0,0.3-0.7,0.8-1.4,1.2v2.2c0.8-0.3,1.4-0.8,1.4-1.5v-1.7V190.4z"/>
		<path class="st17" d="M307.5,180.4v11.8c0,1.5-3.4,2.5-7.6,2.5s-7.8-1-7.8-2.5v-11.8"/>
		<path class="st18" d="M305.8,179.6c0,0.8-2.7,1.7-5.9,1.7c-3.4,0-6.1-0.8-6.1-1.7s2.7-1.5,5.9-1.5c3.4,0,6.1,0.7,6.1,1.7V179.6z"
			/>
		<path class="st4" d="M297.8,180.8l0.3,2h1.7l0.2-2H297.8z M304.8,180.3l-1.7,0.3l0.2,2l1.7-0.3v-1.9L304.8,180.3z M295.6,176.9
			l-1.2,0.5l0.2,1.7l1-0.3v-1.7V176.9z M299.7,176.4h-0.5l0.3,2h1l0.3-2C300.5,176.4,300.1,176.4,299.7,176.4z M304.2,177.1
			l-0.2,1.7l1.2,0.5v-1.7C304.9,177.4,304.6,177.2,304.2,177.1L304.2,177.1z M293.3,181.8l0.3-2.2l-1.7-0.8v2.5L293.3,181.8z
			 M307.5,181.3v-2.2l-1.4,0.5L307.5,181.3z M323.2,166.9c1.4,0,3.4,1.7,3.5,4.2c0,1.7-2.9,1.7-2.9,1.7c0,0.8-1.7,1.5-3,1.7
			c-1.4,0,0.3-2.5,0.3-2.5c-0.8-2.2,0.3-4.6,0.3-4.6L323.2,166.9L323.2,166.9z"/>
		<path class="st4" d="M321.2,172h1.4c0,0,0,0.5,0.3,0.5s0.5-0.7,0.5-0.7h2"/>
		<path class="st19" d="M323.9,168.4c1.2-0.8,0.2-2.5-0.7-2.5h-1.7c-1,0-2.4,1-2.2,1.7c0,0.8,0.7,1.2,1.4,1c0.3,0,1-1,1.4-1
			C322.5,167.6,323.7,168.6,323.9,168.4z"/>
		<path class="st16" d="M239.5,191.9c-1,0.2-1.2,1.4-0.8,2.5c-4.4,1.2-8.5,2.9-12.5,4.1c-0.2-0.8,2-3,2-3c0.5,0.2,1,1.5,1,1.5
			c0-2.7,2.7-4.4,2.7-4.4c-1.7-0.3-6.3,1.7-6.8,2.4c0,0,1.7-0.3,2,0c0,0-3.7,3.9-3.9,5.1c0.7,1.2,6.8,2.2,6.8,2.2
			c0,0.3-1.7,1.7-1.7,1.7c2.5,0.3,6.3-1.4,7.3-2.4c0,0-2.9-0.3-5.1-2.2c0,0,0.3,1.2,0,1.7c0,0-3.4-1-3.9-1.7c0,0,8.5-2,12.5-3.4
			c0.2,0.8,1,2.2,2,1.9c0.5-0.2,0.3-1.4,0-2.4c0.3,0.2,0.6,0.4,1,0.3c0.7,0,1.2-0.5,1.2-1.2s-0.5-1.2-1.2-1.2c-0.5,0-1,0.4-1.2,0.8
			c-0.2-0.8-0.7-2.4-1.4-2.2L239.5,191.9z M242.9,194.6c0,0.3-0.3,0.5-0.7,0.5c-0.3,0.1-0.6,0-0.6-0.3c0-0.1,0-0.1,0-0.2
			c0-0.3,0.3-0.7,0.7-0.7c0.3,0,0.5,0.3,0.5,0.7H242.9z"/>
		<path class="st4" d="M372.7,197.2c0.3-0.7,0-3.7,0-3.7c-0.8,0-1.7,1.2-1.7,1.2c0.8-2.7-1.4-6.8-1.4-6.8c1.5,0.2,6.6,5.1,6.8,6.1
			c0,0-2.2-0.8-2.5-0.7c0.5,2.5,2.2,3.7,2.9,5.1c0,0-2.9,0.5-2.7,3h-1.9c-0.7-0.8,0.2-2.2,0.2-2.2l-13-5.4c-0.8-0.3-2.7-1.4-2.4-2.4
			c0.2-0.8,3.4,0.5,4.1,0.8l11.8,4.9L372.7,197.2z"/>
		<path class="st4" d="M360.2,194.8l1.7-2.7c0.5-0.8-0.7-1.7-1.5-0.7l-1.7,2.5c-0.7,1.5,0.8,1.9,1.7,0.8L360.2,194.8L360.2,194.8z"
			/>
	</g>
	<g>
		<path class="st20" d="M349.7,322.2l-0.2-5.1l-5.9,0.5l-0.3,5.2L349.7,322.2L349.7,322.2z"/>
		<path class="st20" d="M306,329.1l-7.9-4.6c32.8,3,39.6-8.5,47.5-9c5.1-0.5,5.6,5.4-3.9,2.5l2.5,6.1c0,0-23.3,13.2-46.3,7.8
			L306,329.1z M449.4,322.2l0.2-5.1l7.3,0.3l0.3,5.2L449.4,322.2L449.4,322.2z"/>
		<path class="st20" d="M494.5,327.9l7.6-4.2c-37.9,1.2-29.2-6.1-48-8.1c-5.1-0.7-8.5,5.7,3.7,2.5l-2.4,6.1h5.9
			c12.8,8.5,30.1,9.3,41.6,6.6L494.5,327.9L494.5,327.9z"/>
		<path class="st20" d="M341.7,318.3v8.5c0,0,20.8,7.8,58.2,7.8c37.5,0,58.2-7.8,58.2-7.8v-8.5c0,0-15.7,7.3-58.2,7.3
			C357.6,325.6,341.7,318.3,341.7,318.3z"/>
	</g>
	<path d="M344.8,326.8l1.9-6.3l0.8,0.3l-1.7,5.4l3.4,0.8l-0.3,0.8L344.8,326.8z M350.8,324v-1.2l0.3-1.2l1,0.3l-0.3,1l-0.5,1.2
		L350.8,324L350.8,324z M359.8,323.5l0.8,0.3l-0.7,3.5l-0.7,1.7c-0.2,0.3-0.5,0.5-0.8,0.7h-1.7c-0.6-0.1-1.1-0.3-1.5-0.7
		c-0.3-0.2-0.6-0.6-0.7-1l0.2-1.7l0.8-3.7l0.8,0.2l-0.8,3.7c-0.1,0.4-0.1,0.9,0,1.4c0,0.3,0.2,0.5,0.3,0.7l0.8,0.3h1.7l0.7-1.7
		L359.8,323.5L359.8,323.5z M360.8,330.3l1-6.3h1l2.5,5.7l0.8-5.1h0.8l-1,6.6l-0.8-0.2l-2.7-5.6l-0.8,5.1L360.8,330.3L360.8,330.3z
		 M367.6,331.5l1-6.4h0.8l-0.8,6.4h-0.8H367.6z M370.3,328.6c0-1,0.5-1.9,1.2-2.4s1.5-0.8,2.4-0.7c0.7,0,1.2,0.2,1.7,0.5l0.8,1.4
		c0.3,0.5,0.3,1.2,0.2,1.7c0,0.6-0.2,1.2-0.5,1.7s-0.8,0.9-1.4,1.2c-0.5,0.2-1.1,0.3-1.7,0.2c-0.6,0-1.2-0.2-1.7-0.5
		c-0.4-0.4-0.7-0.8-0.8-1.4C370.3,329.8,370.2,329.2,370.3,328.6L370.3,328.6z M371.1,328.6c0,0.8,0,1.7,0.5,2
		c0.3,0.5,0.8,0.8,1.5,0.8s1.2,0,1.7-0.5c0.5-0.3,0.7-1,0.8-1.7c0.2-0.6,0.2-1.1,0-1.7c-0.2-0.4-0.5-0.7-0.8-0.8
		c-0.3-0.3-0.7-0.5-1.2-0.5s-1.2,0-1.7,0.5C371.6,327,371.2,327.7,371.1,328.6L371.1,328.6z M377.4,332.5l0.5-6.4h1l3,5.4l0.3-5.1
		h0.8l-0.5,6.6h-0.8l-3.2-5.4l-0.3,5.1h-0.8V332.5z M386.8,333.2l0.2-6.4l4.6,0.2v0.8l-3.5-0.2l-0.2,1.9l3.2,0.2v0.8l-3.4-0.2v3
		h-0.8v-0.1H386.8z M391.9,333.3l2.5-6.4h1l2.5,6.8h-1l-0.7-2.2h-2.9l-0.7,2h-1L391.9,333.3z M393.6,330.8h2.4l-0.7-1.7
		c-0.1-0.5-0.2-1-0.3-1.5l-0.3,1.4l-0.8,1.9L393.6,330.8L393.6,330.8z M398.9,333.5v-6.4h1v6.4H398.9z M403.1,333.5v-5.6h-2.2v-0.7
		h5.2v0.7h-2.2v5.7h-0.8V333.5z M409.8,333.5l-0.5-6.8h1l0.2,5.7h3.4v0.7l-4.2,0.2L409.8,333.5z M414.2,333.2l2-6.8h1l3.4,6.3h-1.2
		l-0.8-1.7h-2.9l-0.5,2.2H414.2z M415.9,330.3h2.4l-0.8-1.7l-0.7-1.5c0,0.5-0.1,0.9-0.2,1.4L415.9,330.3z M423.9,332.3l-0.7-6.4
		l4.4-0.5l0.2,0.8l-3.5,0.3v2l3.4-0.3v0.8l-3.2,0.3l0.3,2.9L423.9,332.3L423.9,332.3z M428.9,328.8c-0.3-0.9-0.1-1.9,0.3-2.7
		c0.6-0.7,1.3-1.1,2.2-1.2l1.7,0.2c0.7,0.2,1,0.5,1.4,1l0.7,1.7l-0.2,1.7c-0.2,0.5-0.5,1-1,1.4c-0.4,0.3-1,0.6-1.5,0.7
		c-0.6,0.1-1.2,0-1.7-0.2s-1-0.5-1.4-1s-0.6-1.1-0.7-1.7L428.9,328.8z M429.8,328.6c0,0.7,0.3,1.4,0.8,1.7c0.5,0.5,1,0.5,1.7,0.5
		s1.2-0.3,1.7-0.8c0.3-0.5,0.3-1.2,0.3-2c-0.1-0.5-0.2-0.9-0.5-1.4c-0.2-0.4-0.6-0.7-1-0.8c-0.4-0.1-0.8-0.1-1.2,0
		c-0.7,0-1.2,0.2-1.7,0.7C429.8,326.9,429.6,327.6,429.8,328.6L429.8,328.6z M436.7,330.8l-1-6.4l2.9-0.5h1.4c0.3,0,0.7,0,0.8,0.3
		l0.5,1c0,0.5,0,0.8-0.3,1.2c-0.2,0.3-0.7,0.7-1.2,0.8c0.2,0,0.3,0.1,0.5,0.2l0.8,0.8l1.7,1.5h-1.2l-1.2-1c-0.3-0.3-0.6-0.6-0.8-0.8
		c-0.2-0.1-0.3-0.3-0.5-0.3s-0.3,0-0.5,0h-0.5l-1,0.2l0.7,2.9L436.7,330.8L436.7,330.8z M437.1,327.1l1.7-0.3c0.4,0,0.7-0.2,1-0.3
		c0.4-0.2,0.6-0.6,0.5-1c0-0.3-0.1-0.5-0.3-0.7h-1.2l-2.2,0.2L437.1,327.1L437.1,327.1z M447.7,326.4h0.8c0,0.7-0.2,1.4-0.5,1.7
		c-0.5,0.5-1,0.9-1.7,1c-0.6,0.1-1.1,0.1-1.7,0c-0.5-0.2-1-0.5-1.4-1s-0.7-1.1-0.8-1.7c-0.1-0.6-0.1-1.1,0-1.7
		c0-0.7,0.5-1.2,0.8-1.5l1.5-0.7h1.7c0.7,0.3,1,0.7,1.4,1.4l-0.8,0.3c-0.2-0.4-0.5-0.7-0.8-0.8c-0.4-0.1-0.8-0.1-1.2,0
		c-0.4,0-0.9,0.2-1.2,0.5c-0.3,0.3-0.5,0.7-0.5,1.2v1.2c0.1,0.5,0.4,1,0.7,1.4c0.2,0.3,0.5,0.7,1,0.7h1.2c0.4-0.1,0.7-0.2,1-0.5
		C447.5,327.4,447.7,326.9,447.7,326.4L447.7,326.4z M450.1,328.1l-1.7-6.3l4.6-1.2l0.3,0.7l-3.9,1l0.5,1.9l3.5-0.8l0.3,0.7l-3.7,1
		l0.7,2l4.1-1v0.7L450.1,328.1L450.1,328.1z"/>
</g>
</svg>
