<?xml version="1.0" encoding="utf-8"?>
<!-- Generator: Adobe Illustrator 24.0.1, SVG Export Plug-In . SVG Version: 6.00 Build 0)  -->
<svg version="1.1" id="flag-icons-il" xmlns="http://www.w3.org/2000/svg" xmlns:xlink="http://www.w3.org/1999/xlink" x="0px"
	 y="0px" viewBox="0 0 800 480" style="enable-background:new 0 0 800 480;" xml:space="preserve">
<style type="text/css">
	.st0{fill-rule:evenodd;clip-rule:evenodd;fill:#FFFFFF;}
	.st1{fill-rule:evenodd;clip-rule:evenodd;fill:#0000CC;}
	.st2{fill:#0000CC;}
</style>
<path class="st0" d="M800,480H0V0h800V480z"/>
<g>
	<rect y="44.2" class="st1" width="800" height="63"/>
	<rect y="372.8" class="st1" width="800" height="63"/>
</g>
<path class="st2" d="M504.8,179.8l-71.5-0.3l-34.5-58.6l-33.6,58.3l-69.6-0.3l34.9,60.7l-35.3,61.4l70.4-0.3l33.5,58.3l34.5-58.5
	l70.9-0.3l-35.3-60L504.8,179.8z M479.8,192l-20.1,34.4l-18.6-34.1L479.8,192z M379.6,179.8l19.6-33.4l20.1,33.3L379.6,179.8
	L379.6,179.8L379.6,179.8L379.6,179.8z M318.4,192l38.7,0.3l-18.6,34.1L318.4,192z M318,288.4l20.4-33.8v-0.1l18.1,33.8L318,288.4z
	 M399.2,331.8l-19.6-33.4l-0.1,0h0.1l0,0l39.8,0.2L399.2,331.8z M422.4,288.7l-49.6-1.1l-27.1-47.3l26.7-48.3v-0.1l52.3-0.5
	l27.8,48.9L422.4,288.7z M480.2,288.4l-39.2-0.5l19.6-32.9L480.2,288.4z"/>
</svg>
