<?xml version="1.0" encoding="utf-8"?>
<!-- Generator: Adobe Illustrator 24.0.1, SVG Export Plug-In . SVG Version: 6.00 Build 0)  -->
<svg version="1.1" id="flag-icons-im" xmlns="http://www.w3.org/2000/svg" xmlns:xlink="http://www.w3.org/1999/xlink" x="0px"
	 y="0px" viewBox="0 0 800 480" style="enable-background:new 0 0 800 480;" xml:space="preserve">
<style type="text/css">
	.st0{fill-rule:evenodd;clip-rule:evenodd;fill:#BA0000;}
	.st1{fill-rule:evenodd;clip-rule:evenodd;fill:#FFEF00;stroke:#000000;stroke-width:2.068;stroke-miterlimit:3.76;}
	.st2{fill-rule:evenodd;clip-rule:evenodd;fill:#FFFFFF;stroke:#000000;stroke-width:2.444;stroke-miterlimit:3.76;}
	.st3{fill-rule:evenodd;clip-rule:evenodd;fill:#FFEC00;}
	.st4{fill:none;stroke:#000000;stroke-width:2.068;stroke-miterlimit:3.76;}
	.st5{fill:none;stroke:#000000;stroke-width:2.256;stroke-miterlimit:3.76;}
	.st6{fill-rule:evenodd;clip-rule:evenodd;fill:#FFE606;stroke:#000000;stroke-width:2.068;stroke-miterlimit:3.76;}
</style>
<path class="st0" d="M801.4,481.3H0V0h801.4V481.3z"/>
<g>
	<path class="st1" d="M416.9,353.4c0.2-0.6,0.6-6.4,0.4-6.4c-0.2,0-8.8-10.2-8.6-10.2s11.1,2.4,11.1,2.1c0-0.4,4.4-10.8,4.4-11
		l5.3,12.7l10.8,4.7l-7.5,6.3l1.6,12.2c0,0.3-7.5-7.1-7.5-7.1l-8.4,0.9C418.4,357.6,417.3,353.8,416.9,353.4L416.9,353.4z"/>
	<path class="st2" d="M358.4,194.5c-7.2,3.8-34.8,35.2-38.5,40.1c-3.8,8.3-9.2,15.7-15.8,22c-6.9,5.2-10.6,12.2-9.7,18.8
		c0,8.5,4.6,14.1,8.3,19.8c2.2,2.7,5.2,4.4,8.3,4.7c6.5,0.8,7.1,2.8,10.3,3.9c12.6,17.3,31.6,30.1,45.1,40.1
		c6.2,3,11.9,6.9,16.9,11.7c3.9,7.7,3.2,15,2.6,18.8l-10.1,38.2c-1.8,10.3,7.3,8.1,7.8,6c4-5.4,10.2-1.6,18.8-32.2l12-16.1
		c0,0,4.6-1.9,4.6-2.4c7-8.5,1.7-13.2-2.4-14.8l-8.6-3.2c0,0-10.2-10.2-10.6-10.2c-4.8-14-28.5-43.8-33.9-47.9
		c-3.8-4-5.6-5.6-9.2-7.9c-5.5-2.6-7.3-3.6-10.7-4.9c-2.8-1.1-0.8-4.2,0.9-5.6c18.8-10.2,33.6-21.5,51.5-33l2.8-1.9l-6.5-36.8
		l-29.9-10.5C360.9,192.3,359.7,193.5,358.4,194.5z"/>
	<path class="st3" d="M383.4,388.3c0-0.4,18.8-3.8,18.8-3.8l-2.3,7l-18.5,5.6L383.4,388.3L383.4,388.3z"/>
	<path class="st4" d="M334.8,318.2c3.9-8.9,11.2-15.8,20.3-19.2"/>
	<path class="st5" d="M382.7,388.5c1.2-0.3,6.6-1.9,8.1-2.2c1.7-0.4,3.3-0.8,4.9-1.3c1.9-0.4,3-0.8,4.9-1c1.5-0.5,3.1-1,4.7-1.3
		 M379.3,400.1c0.7-0.7,1.5-1.3,2.4-1.9c1-0.4,4.7-1.9,6.1-2.2c1.5-0.4,3-0.8,4.4-1.3l4.3-1.1c1.4-0.6,2.7-0.9,4.1-1.3"/>
	<path class="st4" d="M386.9,320.9h-0.2c0.8,0,0.3,0-0.8,1.3c-0.4,1-3.8,3.5-6.4,3.5c-1.5,0.2-2.9,0.3-4.4,0.3l-1.2-0.3 M386.7,376
		h1.3c1.4,0,2.8,0.3,3.9,0.3c1.4,0,2.7,0.4,4,0.4c1.4,0.2,3,0.1,4.4,0.4c1.5,0,2.8,0.3,4.4,0.3c1.3,0.1,2.1,0.3,3.5,0.3l-3.5-0.3
		c1.3,0.1,2.1,0.3,3.5,0.3 M377.6,408.6c0.6-0.7,1.4-1.3,2.2-1.9c0.9-0.3,4.3-1.9,5.6-2.1c1.3-0.4,2.7-0.9,3.9-1.4l4-0.9
		c1.2-0.7,2.4-1,3.8-1.4 M402.6,362.2c-0.8,2.2,0.3,2.7,0.7,3.7c1.5,1.5,3.3,2.7,5.4,3.2c1.1,0.3,1.9,0.6,3.2,1.1
		c0.8,0,1.2,0.3,1.9,0.5 M296.7,281.5h0.3c-0.8,0-0.3,0.1,1-0.9c0.9-1,1.6-1.5,2.4-2.5 M314,300.6c0.2,0,15.6-7.7,17.2-9.4l3.5-2.7
		c0.9-0.5,1.6-1,2.4-1.6c0.7-0.9,1.6-1.6,2.2-2.5c0.9-0.8,0.5-1.7,1.3-2.7l1.2-3.6 M361.4,289.5c0.1,0.6-0.2,2.3-0.2,3.6
		c0,1.5-2,6.1-4.3,7.5"/>
	<path class="st4" d="M333.8,289.3l6.3,2c4.7,1.7,14.5,7.9,15.5,8.7c0.9,0.8,2.8,1.5,3.4,2.4c1.1,0.9,1.9,2,2.7,3
		c0.9,1.1,1.9,2.2,2.4,3.2c5.1,7.1,9.4,14.9,12.6,23c0.7,0.7,0.9,1.6,1.6,2.6c0.6,1.3,1.2,1.9,1.9,2.9c0.9,0.7,2.1,1.9,3.2,2.4
		c1.2,1,2.4,1.4,3.3,2.2c1.2,0.6,15.3,9.4,16,9.9c1.3,1,5.2,5.1,2.4,8.1c-1.1,0.9-2.3,2.4-3.2,2.8c-1,1.1-2.4,1.6-3.7,2.1
		c-6.3,1.9-9.6,1.2-10.8,1.2h-1.3 M302.6,257.8c1.9,0.8,1.1,0.2,2.7,0.9c1.1,0.5,1.9,0.5,2.8,0.9c1.2,0.3,4.4,0.9,5.9,2.4
		c1.1,0.9,1.9,1.9,3.2,2.5c1.3,0.9,2.8,1.7,4.3,2.3c1.5,0.6,3.2,1.2,4.7,1.2h7.3h-3.8h3.8"/>
	<path class="st6" d="M302.3,275.7c3.9-0.3,10.6,0.9,10.8,0.9l8.8-0.2c4.7-0.4,5.6-2.2,6.4-3.5c1.8-2.6,2.9-3.6,4.3-5.6
		c2.1-1.5,5.1,2.2,5.2,2.2c7.5,7.1,1.5,15.8,1.1,16.1c-3.8,3.5-4.6,3.7-6.9,1.5c-2.3-2.7-2.9-3.9-4.8-4.9
		c-3.7-1.7-11.1-0.4-11.3-0.4l-3.9,1.5c-1.9,0.7-3,2.3-6.1,2.8c-3.3,0.2-4.3-0.1-5.9-2.7C297.9,280.1,299,276.1,302.3,275.7
		L302.3,275.7z"/>
	<path class="st1" d="M511.7,113.5c-0.6,0-5.9,2.6-5.8,2.8c0.1,0.1-4.5,12.7-4.6,12.6c-0.1-0.2-3.3-11-3.7-10.8
		c-0.3,0.2-11.6,1.5-11.7,1.6l8.5-10.8l-1.2-11.8l9.2,3.6l9.9-7.5c0.2-0.1-2.5,10.2-2.5,10.2l4.9,6.8
		C514.6,110.1,511.8,112.9,511.7,113.5z"/>
	<path class="st2" d="M401.9,242.4c6.7,4.4,47.7,13.1,53.9,13.9c9.1-0.7,18.2,0.3,26.9,3c7.8,3.4,15.8,3.2,21.1-0.9
		c7.3-3.9,10-10.7,13.2-16.9c1.4-3,1.4-6.4,0-9.4c-2.4-6-0.9-7.5-1.5-10.9c8.8-19.6,10.7-42.3,12.8-59.1c-0.2-9.9,0.8-17.4,1.9-20.4
		c3.6-5.3,8.9-9.4,15-11.5l38.3-10c10-3.6,3.5-10.3,1.4-9.8c-6.6-0.9-6.4-8.1-37.3-0.7l-19.9-2.5c0,0-3.8-3.1-4.2-2.8
		c-10.8-2-12.3,5-11.7,9.2l1.5,9.2c0,0-3.9,13.7-3.7,14.1c-9.9,11.1-24.4,46.6-25.4,53.5c-0.5,6.4-2.8,5.2-2.3,11.5
		c0,4.9-0.6,1.9,1,11.8c0.5,3-3.3,2.8-5.4,1.9c-18-11.3-35.2-18.7-54-28.7l-2.9-1.5l-29,23.7l5.5,31.2
		C398.7,241.3,400.2,241.8,401.9,242.4L401.9,242.4z"/>
	<path class="st3" d="M558.6,125.6c-4.3-4.7-8.5-9.5-12.5-14.5l7.1-1.4l13.9,13.4L558.6,125.6z"/>
	<path class="st4" d="M521.3,202.3c-9.7,1-19.3-2-26.7-8.3"/>
	<path class="st5" d="M559.1,126.1c-0.9-0.8-4.9-4.7-5.8-6c-1.1-1.2-2.3-2.4-3.6-3.6c-1.2-1.4-2.2-2.3-3.4-3.8
		c-1.2-1-2.3-2.2-3.4-3.4 M570.7,123.4c-0.3,0-1.9-0.7-2.8-1.1c-0.8-0.8-3.9-3.2-4.8-4.3c-1-1.1-2.1-2.2-3.3-3.2
		c-1.1-1.2-2-1.9-3.1-3.3c-1.1-0.9-2.2-1.8-3.2-2.8"/>
	<path class="st4" d="M498.1,155.6l0.1,0.3c-0.4-0.8-0.2-0.3,1.6,0c1.1-0.2,4.9,1.6,6.1,3.9c0.8,1,1.9,2.6,2.4,3.8
		c0.2,0.3,0.2,0.9,0.4,1.2 M546.3,128.8l-0.2-0.2l-0.6-0.9l-1.7-3.7c-0.7-1.1-0.9-2.5-1.6-3.7c-0.6-1.3-1.4-2.6-1.9-3.9
		c-0.8-1.4-1.1-2.6-1.9-4.1c-0.7-1.1-0.8-1.9-1.5-3.1l1.5,3.1c-0.7-1.1-0.8-1.9-1.5-3.1 M579.1,120.7c-0.9-0.2-1.8-0.5-2.6-0.9
		c-0.8-0.7-3.8-2.8-4.7-3.8c-1-1-2-1.9-3.1-2.8c-0.9-1.2-1.8-1.9-2.8-3.1c-1.1-0.8-2.1-1.6-3-2.5 M526.3,121.6
		c2.4-0.4,2.4-1.5,2.9-2.3c0.5-0.9,0.8-3.3,0.2-6.2l-0.6-3.3c-0.4-0.8-0.4-1.3-0.5-1.9 M507.9,253.4l-0.1-0.2
		c0.4,0.8,0.2,0.3-1.5-0.5l-3.3-0.9 M516.1,229c-0.1-0.2-14.4-9.8-16.6-10.3c-1.3-0.7-2.5-0.9-4-1.7l-2.6-1.3
		c-1.2-0.2-2.3-0.7-3.3-0.7c-1.1-0.4-1.8,0.4-3,0.2l-3.8,0.7 M483.2,193.2c0.4-0.4,2.1-0.9,3.2-1.6c1.3-0.7,6.3-1.2,8.6,0.1"/>
	<path class="st4" d="M496.6,217.3l-1.4-6.6c-0.6-5.9-0.6-11.8,0-17.7c0.2-1.2,0-3.2,0.5-4.2c0.3-1.3,0.8-2.5,1.2-3.8
		c0.6-1.4,1-2.6,1.6-3.7c0.7-3.8,11.3-18.9,12-19.6c0.6-0.9,1.2-1.7,1.9-2.5c0.3-0.9,0.9-1.7,1.5-2.8c0.9-1,1.1-1.9,1.7-3
		c0.1-1,0.6-2.7,0.6-3.9c0.3-1.6,0-2.8,0.3-3.9c-0.2-1.4,0.7-18,0.8-18.8c0.3-1.7,1.9-7,5.8-6.1c1.4,0.5,3.1,0.8,4.1,1.4
		c1.3,0.4,2.4,1.4,3.5,2.2c4.7,4.6,5.7,7.7,6.4,8.8l0.7,1.1 M484.2,259.4l-0.1-0.2c0.4,0.7,0.2,0.3-0.3-1c-0.1-1.2-0.5-2.8-0.7-3.9
		c-0.3-1.2-0.8-2.5-0.7-3.3c-0.5-1.2-0.2-2.2,0-3.4c0.3-1.5,0.5-2.5,0.5-3.9c0.2-1.9,0-3,0.1-4.7c-0.5-1.4-0.6-2.5-1.2-3.9l-1.9-3.8
		l-1.9-3.3l1.9,3.2l-1.9-3.2"/>
	<path class="st6" d="M500.1,251.5c-2.2-3.4-4.4-9.8-4.5-9.9l-4.4-7.7c-2.6-3.8-4.7-3.8-6.2-3.8c-3.2-0.3-4.6-0.9-7-1
		c-2.4-1.1-0.7-5.5-0.8-5.6c2.5-10,13.2-9,13.5-8.8c4.8,1.6,5.4,2.3,4.6,5.3c-1.2,3.3-1.9,4.5-1.9,6.6c0.3,3.9,5.2,9.9,5.2,10
		l3.2,2.6c1.5,1.3,3.5,1.5,5.5,4c1.8,2.7,2.1,3.8,0.6,6.4C506.1,253.1,502.1,254.2,500.1,251.5z"/>
	<path class="st1" d="M251.7,158.6c0.5,0.4,5.5,3.5,5.6,3.3c0.2-0.2,13.2-3.2,13-3c-0.2,0.2-7.3,8.7-7,8.9s7.5,8.8,7.7,8.9
		l-13.6-1.1l-9.2,7.3l-2.1-9.6l-11.6-4.1c-0.2-0.1,9.9-3.4,9.9-3.4l3-7.8c0,0,3.9,0.7,4.4,0.6H251.7z"/>
	<path class="st2" d="M419.8,179.8c0-8.2-15.2-47.2-17.9-52.7c-5.6-7.2-9.7-15.4-12.2-24.2c-1.4-8.5-5.9-15-12.2-17.3
		c-7.4-3.9-14.6-2.3-21.4-1.7c-3.4,0.7-6.3,2.5-7.9,5.2c-3.8,5.4-5.7,4.9-8.4,7.2c-21.2,3.3-41.2,14.2-56.4,21.6
		c-5.5,4.2-11.6,7.4-18.1,9.6c-6.5-0.1-12.7-2.3-17.9-6.2l-29.2-26.6c-8.5-6.3-10.5,2.8-8.9,4.2c2.8,6-3.3,9.7,19.9,31.6l8.7,18
		c0,0-0.5,4.9,0,5.1c4.1,10.2,10.9,7.6,14.1,4.8l6.9-6.3c0,0,13.6-4.3,13.8-4.7c14.7,2.2,52.5-5,58.7-8c5.6-3.1,5.9-0.5,10.8-4.4
		c4-2.7,1.9-0.6,9.4-7.4c2.3-1.9,4,1.2,4.5,3.5c0.4,21.3,3.6,39.7,5.5,60.9l0.4,3.3l35.7,11.3l23.1-21.6L419.8,179.8L419.8,179.8z"
		/>
	<path class="st3" d="M236.2,112.6c0.3,0.3-5.3,18.4-5.3,18.4l-5.1-5.2l3.6-19.1L236.2,112.6z"/>
	<path class="st4" d="M320.9,101.9c6.8,7.5,8.9,19.9,7.7,26.9"/>
	<path class="st5" d="M236.5,112c-0.3,1.2-1.4,6.8-1.9,8.2c-0.4,1.6-0.8,3.3-1.1,5l-1.3,4.9c-0.2,1.6-0.5,3.1-0.9,4.7 M227.7,103.7
		c0.1,0.3,0.5,1.9,0.6,2.9c-0.2,1.1-0.5,5.1-0.9,6.5c-0.3,1.5-0.6,3-0.8,4.5l-0.9,4.3c-0.1,1.5-0.4,2.9-0.8,4.3"/>
	<path class="st4" d="M294.5,146.9l0.1-0.3c-0.4,0.8,0,0.3-0.8-1.3c-0.8-0.9-1.3-5-0.2-7.3c0.6-1.4,1.2-2.7,1.9-4
		c0.1-0.3,0.6-0.7,0.8-0.9 M245.7,121.3l-0.1,0.2l-0.6,0.9c-0.6,1.3-1.5,2.4-2.1,3.5c-0.6,1.2-1.6,2.2-2.2,3.4l-2.3,3.8
		c-0.8,1.3-1.7,2.3-2.4,3.8l-1.9,3l1.9-3l-1.9,3 M220.9,98.1c0.2,0.2,0.7,1.8,0.8,2.8c-0.2,0.9-0.4,4.7-0.8,5.9l-0.7,4.1
		c-0.4,1.5-0.5,2.5-0.9,4c-0.1,1.3-0.2,2.6-0.5,3.9 M250.6,141.9c-1.6-1.8-2.5-1.1-3.6-1.2c-2.1,0.6-3.9,1.7-5.4,3.3
		c-0.8,0.8-1.4,1.5-2.4,2.3c-0.5,0.8-0.8,0.9-1.3,1.4 M370.9,85l-0.1,0.3c0.4-0.8,0.1-0.4,0.5,1.4c0.5,1.2,0.5,2.1,0.9,3.2
		 M346,91.6c0,0.2-0.3,17.4,0.5,19.6c0.2,1.4,0.6,2.5,0.8,4.3c0,0.9,0.3,1.9,0.4,2.8c0.6,1.1,0.7,2.3,1.3,3.1
		c0.3,1.2,1.2,1.3,1.8,2.3c0.7,0.8,1.9,2.3,2.6,2.8 M334,138.7c-0.6-0.2-1.9-1.3-3-1.9c-1.3-0.8-4.6-4.6-4.7-7.3"/>
	<path class="st4" d="M346.9,114.3l-4.7,4.7c-4.6,3.7-9.6,7-14.9,9.7c-1.1,0.6-2.5,1.9-3.8,2c-1.2,0.6-2.5,0.8-3.8,1
		c-8.9,1.6-18,2.1-27,1.4c-1.1,0-2.1-0.1-3.2-0.2c-0.9,0.2-1.9,0.1-3.1,0.2c-1.5-0.1-2.3,0.2-3.5,0.3c-0.9,0.6-2.5,1-3.7,1.8
		c-1.4,0.6-2.3,1.4-3.4,1.9c-0.9,0.8-15.4,9.2-16.2,9.6c-1.5,0.7-6.9,2.3-8.3-1.5c-0.4-1.5-0.9-3.1-1-4.2c-0.5-1.3-0.2-2.8-0.2-4.1
		c1.3-6.5,3.4-9,3.9-10.2l0.7-1.1 M388.7,101.5l-0.1,0.3c0.3-0.7,0.2-0.4-0.8,0.8c-0.9,0.8-2.1,1.9-2.9,2.8
		c-0.9,0.8-1.7,1.9-2.4,2.3c-0.8,0.9-1.7,1.3-2.8,1.9c-1.3,0.5-2.4,1.1-3.6,1.8c-1.6,0.8-2.5,1.6-3.9,2.4c-0.9,1.1-1.9,1.9-2.6,3.2
		c-0.8,1.2-1.5,2.3-2.2,3.7l-1.7,3.3l1.7-3.3l-1.7,3.3 M376.7,192.6l0.3-0.5c-0.5,0.9-0.4,0.7,0.1-0.8c0-1.7,0.5-3.9,0.5-5.5
		c0.3-1.7,0.6-3.5,0.6-5.2c-0.1-1.9-0.1-3.8-0.4-5.6c0-1.7-0.3-3.5-0.3-5.3c0-1.7-0.2-3.1-0.6-4.7c0-1.5-0.1-3-0.4-4.5
		c0.1-1.1-0.2-2.3-0.5-3.2l-1.1-4.8l-0.9-3.9c-0.2-1.5-0.9-3.4-1.3-4.6c-0.5-1-0.8-2.1-1-3.2c-0.5-1-1.1-2.3-1.2-3.4l-1.5-3.5
		l-1.3-3.4c-0.5-1.3-1-2.4-1.4-3.8c-0.5-0.5-0.6-0.9-0.8-1.3"/>
	<path class="st6" d="M373.6,92.6c-1.6,3.2-3.6,6.3-5.8,9.1l-3.9,7.9c-1.7,4.3-0.7,6.1,0.1,7.3c1.6,2.8,1.9,4.3,3,6.4
		c0.5,2.6-4.2,3.6-4.2,3.7c-9.8,3.4-14.8-6-14.8-6.5c-1.3-4.9-1.1-5.6,1.9-6.7c3.4-0.8,4.7-0.9,6.4-2.1c3.3-2.4,5.5-9.7,5.6-9.8
		l0.4-4.1c0.3-1.9-0.6-3.8,0.4-6.8c1.3-3,2.1-3.8,5.1-4C371.6,86.8,374.7,89.5,373.6,92.6z"/>
	<path class="st1" d="M360.8,187.7c-1.5-1.4,27.6,10.5,31.7,10.6c5.5-2,28.1-21.1,28.1-21.1c0.2,1.9,1,6.7,3.2,7.7
		c-8.7,7.1-16.6,13.9-25.4,21c0.6,11.3-1.4,23.2,4.2,35.7c0,0-6.8,0.2-6.8,0c-6-6-8.2-35-8.2-35l-28.8-12.8
		C360.4,193,361.4,190.3,360.8,187.7L360.8,187.7z"/>
	<path class="st4" d="M388.6,217.4c0.5-0.4-5.3,2.6-6.8,3.4c-26.4,14.1-40,34.8-40.9,35.5l-2.1,3.2l-2.2,2.8c-1.1,1.5-2.2,3-3.4,4.4
		c-0.2,0.6,0.4-0.3,0.2,0.2 M406.7,200.6c2,1.6,4,3,6.1,4.4c24.6,17.1,49.2,19.8,50.3,20.2c0.9,0,2.4,0.3,3.8,0.5
		c1.1,0,2.4,0.4,3.6,0.5c1.3,0.2,4.1,0.8,5.5,1.1c0.6-0.2-0.5-0.3,0-0.4"/>
</g>
</svg>
