<?xml version="1.0" encoding="utf-8"?>
<!-- Generator: Adobe Illustrator 24.0.1, SVG Export Plug-In . SVG Version: 6.00 Build 0)  -->
<svg version="1.1" id="flag-icons-in" xmlns="http://www.w3.org/2000/svg" xmlns:xlink="http://www.w3.org/1999/xlink" x="0px"
	 y="0px" viewBox="0 0 800 480" style="enable-background:new 0 0 800 480;" xml:space="preserve">
<style type="text/css">
	.st0{fill:#FF9933;}
	.st1{fill:#FFFFFF;}
	.st2{fill:#128807;}
	.st3{fill:#000088;}
</style>
<path class="st0" d="M0,0h800v160H0V0z"/>
<path class="st1" d="M0,160h800v160H0V160z"/>
<path class="st2" d="M0,320h800v160H0V320z"/>
<path class="st3" d="M400,170.8c-38.2,0-69.2,31-69.2,69.2s31,69.2,69.2,69.2s69.2-31,69.2-69.2S438.2,170.8,400,170.8z M457,247.5
	c-0.2,1.6,0.9,3.1,2.5,3.4c-0.6,3.3-1.4,6.4-2.5,9.5c-1.5-0.6-3.3,0.1-3.9,1.7c-0.6,1.5,0.1,3.3,1.6,3.9c-0.7,1.5-1.5,2.9-2.3,4.3
	l-30.4-20l-11.2-4.8c0.3-0.6,0.5-1.2,0.7-1.8l11.3,4.5l35.6,7.4l-34.5-11.4l-12.1-1.7c0.1-0.6,0.2-1.3,0.2-1.9l12.1,1.5l36.3-2.1
	l-36.3-2.1l-12.1,1.5c0-0.7-0.1-1.3-0.2-1.9l12.1-1.7l34.5-11.4l-35.6,7.4l-11.3,4.5c-0.2-0.6-0.5-1.2-0.7-1.8l11.2-4.8l30.4-20
	c0.8,1.4,1.6,2.9,2.3,4.3c-1.5,0.7-2.2,2.4-1.6,3.9c0.6,1.5,2.4,2.3,3.9,1.7c1.1,3,1.9,6.2,2.5,9.5c-1.6,0.3-2.7,1.7-2.5,3.4
	c0.2,1.6,1.7,2.8,3.3,2.6c0.1,1.6,0.2,3.2,0.2,4.9s-0.1,3.3-0.2,4.9C458.7,244.7,457.2,245.9,457,247.5z M446.1,200.8
	c-1.3,1-1.5,2.9-0.5,4.2c1,1.3,2.9,1.6,4.2,0.6c0.9,1.3,1.8,2.7,2.6,4.1l-32.5,16.4l-9.8,7.3c-0.4-0.5-0.7-1-1.2-1.5l9.6-7.6
	l24.2-27.1l-27.1,24.2l-7.6,9.6c-0.5-0.4-1-0.8-1.5-1.2l7.3-9.8l16.4-32.5c1.4,0.8,2.8,1.7,4.1,2.6c-1,1.3-0.7,3.2,0.6,4.2
	c1.3,1,3.2,0.8,4.2-0.5c1.2,1.1,2.5,2.2,3.6,3.3C444,198.4,445.1,199.6,446.1,200.8z M404.9,179.7c-0.2,1.6,1,3.1,2.6,3.3
	c1.6,0.2,3.1-0.9,3.4-2.5c3.3,0.6,6.4,1.4,9.5,2.5c-0.6,1.5,0.1,3.3,1.7,3.9c1.5,0.6,3.3-0.1,3.9-1.6c1.5,0.7,2.9,1.5,4.3,2.3
	l-20,30.4l-4.8,11.2c-0.6-0.3-1.2-0.5-1.8-0.7l4.5-11.3l7.4-35.6l-11.4,34.5l-1.7,12.1c-0.6-0.1-1.3-0.2-1.9-0.2l1.5-12.1l-2.1-36.3
	l-2.1,36.3l1.5,12.1c-0.7,0-1.3,0.1-1.9,0.2l-1.7-12.1l-11.4-34.5l7.4,35.6l4.5,11.3c-0.6,0.2-1.2,0.5-1.8,0.7l-4.8-11.2l-20-30.4
	c1.4-0.8,2.9-1.6,4.3-2.3c0.7,1.5,2.4,2.2,3.9,1.6c1.5-0.6,2.3-2.4,1.7-3.9c3-1.1,6.2-1.9,9.5-2.5c0.3,1.6,1.7,2.7,3.4,2.5
	c1.6-0.2,2.8-1.7,2.6-3.3c1.6-0.1,3.2-0.2,4.9-0.2S403.3,179.6,404.9,179.7z M346.9,262c-0.6-1.5-2.4-2.3-3.9-1.7
	c-1.1-3-1.9-6.2-2.5-9.5c1.6-0.3,2.7-1.7,2.5-3.4c-0.2-1.6-1.7-2.8-3.3-2.6c-0.1-1.6-0.2-3.2-0.2-4.9s0.1-3.3,0.2-4.9
	c1.6,0.2,3.1-1,3.3-2.6c0.2-1.6-0.9-3.1-2.5-3.4c0.6-3.3,1.4-6.4,2.5-9.5c1.5,0.6,3.3-0.1,3.9-1.7c0.6-1.5-0.1-3.3-1.6-3.9
	c0.7-1.5,1.5-2.9,2.3-4.3l30.4,20l11.2,4.8c-0.3,0.6-0.5,1.2-0.7,1.8l-11.3-4.5l-35.6-7.4l34.5,11.4l12.1,1.7
	c-0.1,0.6-0.2,1.3-0.2,1.9l-12.1-1.5l-36.3,2.1l36.3,2.1l12.1-1.5c0,0.7,0.1,1.3,0.2,1.9l-12.1,1.7l-34.5,11.4l35.6-7.4l11.3-4.5
	c0.2,0.6,0.5,1.2,0.7,1.8l-11.2,4.8l-30.4,20c-0.8-1.4-1.6-2.9-2.3-4.3C346.8,265.3,347.5,263.5,346.9,262z M360.8,193.9
	c1,1.3,2.9,1.5,4.2,0.5c1.3-1,1.6-2.9,0.6-4.2c1.3-0.9,2.7-1.8,4.1-2.6l16.4,32.5l7.3,9.8c-0.5,0.4-1,0.7-1.5,1.2l-7.6-9.6
	l-27.1-24.2l24.2,27.1l9.6,7.6c-0.4,0.5-0.8,1-1.2,1.5l-9.8-7.3l-32.5-16.4c0.8-1.4,1.7-2.8,2.6-4.1c1.3,1,3.2,0.7,4.2-0.6
	c1-1.3,0.8-3.2-0.5-4.2c1.1-1.2,2.2-2.5,3.3-3.6C358.4,196,359.6,194.9,360.8,193.9z M353.9,279.2c1.3-1,1.5-2.9,0.5-4.2
	c-1-1.3-2.9-1.6-4.2-0.6c-0.9-1.3-1.8-2.7-2.6-4.1l32.5-16.4l9.8-7.3c0.4,0.5,0.7,1,1.2,1.5l-9.6,7.6l-24.2,27.1l27.1-24.2l7.6-9.6
	c0.5,0.4,1,0.8,1.5,1.2l-7.3,9.8l-16.4,32.5c-1.4-0.8-2.8-1.7-4.1-2.6c1-1.3,0.7-3.2-0.6-4.2c-1.3-1-3.2-0.8-4.2,0.5
	c-1.2-1.1-2.5-2.2-3.6-3.3C356,281.6,354.9,280.4,353.9,279.2z M395.1,300.3c0.2-1.6-1-3.1-2.6-3.3c-1.6-0.2-3.1,0.9-3.4,2.5
	c-3.3-0.6-6.4-1.4-9.5-2.5c0.6-1.5-0.1-3.3-1.7-3.9c-1.5-0.6-3.3,0.1-3.9,1.6c-1.5-0.7-2.9-1.5-4.3-2.3l20-30.4l4.8-11.2
	c0.6,0.3,1.2,0.5,1.8,0.7l-4.5,11.3l-7.4,35.6l11.4-34.5l1.7-12.1c0.6,0.1,1.3,0.2,1.9,0.2l-1.5,12.1l2.1,36.3l2.1-36.3l-1.5-12.1
	c0.7,0,1.3-0.1,1.9-0.2l1.7,12.1l11.4,34.5l-7.4-35.6l-4.5-11.3c0.6-0.2,1.2-0.5,1.8-0.7l4.8,11.2l20,30.4c-1.4,0.8-2.9,1.6-4.3,2.3
	c-0.7-1.5-2.4-2.2-3.9-1.6c-1.5,0.6-2.3,2.4-1.7,3.9c-3,1.1-6.2,1.9-9.5,2.5c-0.3-1.6-1.7-2.7-3.4-2.5c-1.6,0.2-2.8,1.7-2.6,3.3
	c-1.6,0.1-3.2,0.2-4.9,0.2S396.7,300.4,395.1,300.3z M439.2,286.1c-1-1.3-2.9-1.5-4.2-0.5c-1.3,1-1.6,2.9-0.6,4.2
	c-1.3,0.9-2.7,1.8-4.1,2.6l-16.4-32.5l-7.3-9.8c0.5-0.4,1-0.7,1.5-1.2l7.6,9.6l27.1,24.2l-24.2-27.1l-9.6-7.6c0.4-0.5,0.8-1,1.2-1.5
	l9.8,7.3l32.5,16.4c-0.8,1.4-1.7,2.8-2.6,4.1c-1.3-1-3.2-0.7-4.2,0.6c-1,1.3-0.8,3.2,0.5,4.2c-1.1,1.2-2.2,2.5-3.3,3.6
	C441.6,284,440.4,285.1,439.2,286.1z"/>
</svg>
