<?xml version="1.0" encoding="utf-8"?>
<!-- Generator: Adobe Illustrator 24.0.1, SVG Export Plug-In . SVG Version: 6.00 Build 0)  -->
<svg version="1.1" id="flag-icons-dg" xmlns="http://www.w3.org/2000/svg" xmlns:xlink="http://www.w3.org/1999/xlink" x="0px"
	 y="0px" viewBox="0 0 800 480" style="enable-background:new 0 0 800 480;" xml:space="preserve">
<style type="text/css">
	.st0{fill-rule:evenodd;clip-rule:evenodd;fill:#000063;}
	.st1{fill-rule:evenodd;clip-rule:evenodd;fill:#A24300;stroke:#FFFFFF;stroke-width:2.1;}
	.st2{fill-rule:evenodd;clip-rule:evenodd;fill:#006D00;stroke:#FFFFFF;stroke-width:1.8;}
	.st3{fill:none;stroke:#000000;stroke-width:0.3;}
	.st4{fill-rule:evenodd;clip-rule:evenodd;fill:#006D00;stroke:#FFFFFF;stroke-width:2;}
	.st5{fill-rule:evenodd;clip-rule:evenodd;fill:#006D00;stroke:#FFFFFF;stroke-width:1.9;}
	.st6{fill-rule:evenodd;clip-rule:evenodd;fill:#CC0000;stroke:#000000;}
	.st7{fill-rule:evenodd;clip-rule:evenodd;fill:#FFF100;stroke:#000000;}
	.st8{fill-rule:evenodd;clip-rule:evenodd;fill:#FFFFFF;stroke:#000000;}
	.st9{fill-rule:evenodd;clip-rule:evenodd;fill:#FFF100;stroke:#000000;stroke-width:3;}
	.st10{fill-rule:evenodd;clip-rule:evenodd;fill:#808080;}
	.st11{fill-rule:evenodd;clip-rule:evenodd;fill:#CC0000;}
	.st12{fill-rule:evenodd;clip-rule:evenodd;}
	.st13{fill-rule:evenodd;clip-rule:evenodd;fill:#006300;}
	.st14{fill-rule:evenodd;clip-rule:evenodd;fill:#FFF100;stroke:#000000;stroke-width:2.2;}
	.st15{fill-rule:evenodd;clip-rule:evenodd;fill:#FFF100;stroke:#000000;stroke-width:3.3;}
	.st16{fill:#012169;}
	.st17{fill:#FFFFFF;}
	.st18{fill:#C8102E;}
</style>
<path id="path1225" class="st0" d="M800,416.2c-9,6.7-16.6,22-40.5,22c-47.6,0-59.5-32.5-95.3-32.5c-23.8,0-35.6,32.5-59.5,32.5
	c-47.6,0-59.5-32.5-95.2-32.5c-23.8,0-35.6,32.5-59.4,32.5c-47.8,0-59.6-32.5-95.4-32.5c-23.8,0-35.8,32.5-59.5,32.5
	c-47.6,0-59.5-32.5-95.2-32.5c-23.8,0-35.8,32.5-59.5,32.5c-47.8,0-59.6-32.5-95.2-32.5c-23.8,0-31,23.2-45.2,23.2v41.7
	c14.2,0,21.4-23,45.4-23c35.6,0,47.5,32.4,95,32.4c23.9,0,35.8-32.5,59.6-32.5c35.8,0,47.6,32.5,95.4,32.5
	c23.8,0,35.5-32.5,59.4-32.5c35.8,0,47.6,32.5,95.2,32.5c23.8,0,35.8-32.5,59.5-32.5c35.8,0,47.6,32.5,95.2,32.5
	c23.8,0,35.7-32.5,59.5-32.5c35.8,0,47.8,32.5,95.3,32.5c23.8,0,31.5-9.2,40.5-15.8V416.2z M800,335c-9,6.7-16.6,22-40.5,22
	c-47.6,0-59.5-32.5-95.3-32.5c-23.8,0-35.6,32.5-59.5,32.5c-47.6,0-59.5-32.5-95.2-32.5c-23.8,0-35.6,32.5-59.4,32.5
	c-47.8,0-59.6-32.5-95.4-32.5c-23.8,0-35.8,32.5-59.5,32.5c-47.6,0-59.5-32.5-95.2-32.5c-23.8,0-35.8,32.5-59.5,32.5
	c-47.8,0-59.6-32.5-95.2-32.5c-23.8,0-31,23.2-45.2,23.2v41.8c14.2,0,21.4-23.1,45.4-23.1c35.6,0,47.5,32.5,95,32.5
	c23.9,0,35.8-32.5,59.6-32.5c35.8,0,47.6,32.5,95.4,32.5c23.8,0,35.5-32.5,59.4-32.5c35.8,0,47.6,32.5,95.4,32.5
	c23.8,0,35.6-32.5,59.4-32.5c35.8,0,47.6,32.5,95.3,32.5c23.8,0,35.7-32.5,59.5-32.5c35.8,0,47.8,32.5,95.3,32.5
	c23.8,0,31.5-9.2,40.5-15.8V335z M800,253.9c-9,6.7-16.6,22-40.5,22c-47.6,0-59.5-32.5-95.3-32.5c-23.8,0-35.6,32.5-59.5,32.5
	c-47.6,0-59.5-32.5-95.2-32.5c-23.8,0-35.6,32.5-59.4,32.5c-47.8,0-59.6-32.5-95.4-32.5c-23.8,0-35.8,32.5-59.5,32.5
	c-47.6,0-59.5-32.5-95.2-32.5c-23.8,0-35.8,32.5-59.5,32.5c-47.8,0-59.6-32.5-95.2-32.5c-23.8,0-31,23.2-45.2,23.2v41.8
	c14.2,0,21.4-23.2,45.4-23.2c35.6,0,47.5,32.5,95,32.5c23.9,0,35.8-32.5,59.6-32.5c35.8,0,47.6,32.5,95.4,32.5
	c23.8,0,35.5-32.5,59.4-32.5c35.8,0,47.6,32.5,95.4,32.5c23.8,0,35.6-32.5,59.4-32.5c35.8,0,47.6,32.5,95.3,32.5
	c23.8,0,35.7-32.5,59.5-32.5c35.8,0,47.8,32.5,95.3,32.5c23.8,0,31.5-9.2,40.5-15.8V253.9z M800,172.8c-9,6.6-16.6,22-40.5,22
	c-47.6,0-59.5-32.5-95.3-32.5c-23.8,0-35.6,32.5-59.5,32.5c-47.6,0-59.5-32.5-95.2-32.5c-23.8,0-35.6,32.5-59.4,32.5
	c-47.8,0-59.6-32.5-95.4-32.5c-23.8,0-35.8,32.5-59.5,32.5c-47.6,0-59.5-32.5-95.2-32.5c-23.8,0-35.8,32.5-59.5,32.5
	c-47.8,0-59.6-32.5-95.2-32.5c-23.8,0-31,23.2-45.2,23.2v41.7c14.2,0,21.4-23,45.4-23c35.6,0,47.5,32.4,95,32.4
	c23.9,0,35.8-32.5,59.6-32.5c35.8,0,47.6,32.5,95.4,32.5c23.8,0,35.5-32.5,59.4-32.5c35.8,0,47.6,32.5,95.4,32.5
	c23.8,0,35.6-32.5,59.4-32.5c35.8,0,47.6,32.5,95.3,32.5c23.8,0,35.7-32.5,59.5-32.5c35.8,0,47.8,32.5,95.3,32.5
	c23.8,0,31.5-9.3,40.5-15.9V172.8z M800,91.5c-9,6.7-16.6,22.1-40.5,22.1c-47.6,0-59.5-32.5-95.3-32.5c-23.8,0-35.6,32.5-59.5,32.5
	c-47.6,0-59.5-32.5-95.2-32.5c-23.8,0-35.6,32.5-59.4,32.5c-47.8,0-59.6-32.5-95.4-32.5c-23.8,0-35.8,32.5-59.5,32.5
	c-47.6,0-59.5-32.5-95.2-32.5c-23.8,0-35.8,32.5-59.5,32.5c-47.8,0-59.6-32.5-95.2-32.5c-23.8,0.1-31,23.3-45.2,23.3v41.8
	c14.2,0,21.4-23.1,45.2-23.1c35.6,0,47.6,32.5,95.2,32.5c23.8,0,35.6-32.5,59.5-32.5c35.8,0,47.6,32.5,95.4,32.5
	c23.8,0,35.5-32.5,59.2-32.5c35.9,0,47.8,32.5,95.4,32.5c23.8,0,35.8-32.5,59.5-32.5c35.8,0,47.6,32.5,95.2,32.5
	c23.8,0,35.7-32.5,59.5-32.5c35.8,0,47.8,32.5,95.3,32.5c23.8,0,31.5-9.3,40.5-15.9v-48V91.5z M800,10.5c-9,6.6-16.6,22-40.5,22
	C711.9,32.5,700,0,664.3,0c-23.8,0-35.6,32.5-59.5,32.5C557.1,32.5,545.2,0,509.5,0c-23.8,0-35.6,32.5-59.4,32.5
	C402.4,32.5,390.5,0,354.8,0C331,0,319,32.5,295.3,32.5C247.5,32.5,235.8,0,200,0c-23.8,0-35.8,32.5-59.5,32.5
	C92.8,32.5,80.9,0,45.3,0C21.5,0,14.3,23.2,0,23.2v41.9C14.3,65,21.4,42,45.3,42c35.6,0,47.6,32.4,95.2,32.4
	c23.8,0,35.6-32.4,59.5-32.4c35.8,0,47.6,32.4,95.4,32.4c23.8,0,35.5-32.4,59.3-32.4c35.9,0,47.8,32.4,95.4,32.4
	c23.8,0,35.8-32.4,59.5-32.4c35.8,0,47.6,32.4,95.2,32.4c23.8,0,35.7-32.4,59.5-32.4c35.8,0,47.8,32.4,95.3,32.4
	c23.8,0,31.5-9.2,40.5-15.8V10.5z"/>
<g>
	<path id="path1237_1_" class="st1" d="M593.6,131.7l-3.5,329c0,17.3,15.7,17.3,17.4,0l-3.5-329L593.6,131.7z"/>
	<path id="path1239_1_" class="st2" d="M629.5,254l-11-11.9l-2.6,12.1l-4.7-17.5l-4.5,8.8l-0.8-18.6l-4.4,8.8l-0.8-18.6l-4.4,8.8
		l-2.5-21.9l-4.4,8.8l-2.6-21.8l-4.5,8.8l-2.5-21.9l-1.3-11l2.2-4.3l5.8,2.1l9.1,8.7l18.3,17.4l-11.3-4.3l18.3,17.4l-11.4-4.3
		l18.3,17.3l-11.4-4.2l16.6,14l-11.3-4.2l16.5,14l-11.3-4.2l12.6,15.2l-13.1-7.6l3,14.3L629.5,254z"/>
	<path id="path1241_1_" class="st3" d="M629.5,254l-48.7-91.4 M613.9,190.8l-26.1-15.2l-5.4,24.1"/>
	<path id="path1243_1_" class="st3" d="M621,203.8l-26.3-15.1l-5.3,24.1"/>
	<path id="path1245_1_" class="st3" d="M627.9,216.8l-26.2-15l-5.4,24"/>
	<path id="path1247_1_" class="st3" d="M633.1,226.7l-24.5-11.9l-7,21"/>
	<path id="path1249_1_" class="st3" d="M638.3,236.5l-24.5-11.9l-7,21"/>
	<path id="path1251_1_" class="st3" d="M639.6,247.4l-22.3-16.2l-1.4,23"/>
	<path id="path1253_1_" class="st4" d="M501.8,97.9l17.8,6.8l-5.2-13.5l15.6,15.3l-1.5-11l12.6,18.4l-1.5-11l12.6,18.4l-1.5-11
		l16.3,20.8l-1.5-11l16.3,20.8l-1.4-11l16.2,20.8l8.2,10.4l0.7,5.5l-6.7,0.6l-14-4.3l-28.2-8.7l13.3-1.1l-28.1-8.7l13.3-1.1
		l-28.1-8.7l13.3-1.2l-24.4-6.2l13.3-1.1l-24.4-6.2l13.3-1.2l-21.5-9.3l17.1,1.3L501.9,98L501.8,97.9z"/>
	<path id="path1255_1_" class="st3" d="M501.8,97.9l103.7,68.7 M556.6,154.2l34.1,2.6l-10.3-26.9"/>
	<path id="path1257_1_" class="st3" d="M541.8,144.4l34,2.6l-10.3-27"/>
	<path id="path1259_1_" class="st3" d="M527,134.6l34,2.6l-10.3-27"/>
	<path id="path1261_1_" class="st3" d="M515.8,127.2l30.5,0.1l-6.7-24.4"/>
	<path id="path1263_1_" class="st3" d="M504.8,119.8l30.4,0.2l-6.7-24.5"/>
	<path id="path1265_1_" class="st3" d="M496.6,109.4l31.1,5.7l-13.2-23.9"/>
	<path id="path1267_1_" class="st4" d="M708.6,120.8l-14.8,10.9l16.4,1.8l-22.9,5.4l12.2,3.6l-24.7,1.8l12.2,3.6l-24.7,1.8l12.1,3.7
		l-28.9,3.6l12.2,3.6l-28.9,3.6l12.2,3.6l-28.9,3.6l-14.5,1.8l-6-1.8l2.2-5.4l10.7-9l21.3-18.1l-4.6,10.8l21.3-18l-4.6,10.8l21.3-18
		l-4.6,10.8l17.2-16.3l-4.5,10.9l17-16.3l-4.5,10.8l19-12.6l-8.7,12.7L708.6,120.8L708.6,120.8z"/>
	<path id="path1269_1_" class="st3" d="M708.6,120.8l-117,50.6 M625.7,138.9l-17.4,25.3l32.7,3.6"/>
	<path id="path1271_1_" class="st3" d="M642.5,131.7L625,157l32.7,3.6"/>
	<path id="path1273_1_" class="st3" d="M659.2,124.4l-17.5,25.3l32.7,3.7"/>
	<path id="path1275_1_" class="st3" d="M671.8,119l-13.3,23.5l28.5,5.4"/>
	<path id="path1277_1_" class="st3" d="M684.3,113.6L671,137.1l28.5,5.4"/>
	<path id="path1279_1_" class="st3" d="M698.8,111.8l-19.4,21.7h30.7"/>
	<path id="path1281_1_" class="st4" d="M706.2,230.3l-18.4-5.3l6.6,13l-17.1-14l2.6,10.7l-14.5-17.2l2.7,10.8L653.6,211l2.6,10.8
		l-18.5-19.4l2.7,10.8l-18.5-19.4l2.7,10.8l-18.5-19.4l-9.2-9.7l-1.3-5.4l6.6-1.2l14.5,3.2l29,6.4l-13.2,2.2l29,6.4l-13.2,2.2
		l29,6.4l-13.2,2.3l25,4.2l-13.2,2.2l25,4.2l-13.1,2.4l22.3,7.5h-17l13,12L706.2,230.3z"/>
	<path id="path1283_1_" class="st3" d="M706.2,230.3l-110.6-60.2 M645.6,178.5l-34.2,0.2l13.2,26"/>
	<path id="path1285_1_" class="st3" d="M661.4,187.1l-34.2,0.2l13.2,26"/>
	<path id="path1287_1_" class="st3" d="M677.2,195.7l-34.2,0.2l13.2,26"/>
	<path id="path1289_1_" class="st3" d="M689.1,202.2l-30.3,2.3l9.3,23.8"/>
	<path id="path1291_1_" class="st3" d="M701,208.7l-30.3,2.2l9.2,23.8"/>
	<path id="path1293_1_" class="st3" d="M710.1,218.4l-31.5-3.2l15.8,22.8"/>
	<path id="path1295_1_" class="st2" d="M514,236.6l9.3-13l-14.1,2.1l17.4-9.9l-11.1-0.5l20-7l-11.1-0.6l20-7l-11.1-0.6l23-9.6
		l-11.2-0.5l23-9.7l-11.1-0.5l23-9.6l11.5-4.9l5.6,0.3l-0.4,5.3l-6.3,10.4l-12.6,20.8l0.8-10.6L566,212.3l0.7-10.7l-12.6,20.8
		l0.7-10.6l-9.6,18.2l0.7-10.6l-9.6,18.2L537,227l-12.2,15.4l3.7-13.2L514,236.6L514,236.6z"/>
	<path id="path1297_1_" class="st3" d="M514,236.6l83-71 M577.9,202.1l7.3-26.4l-28.2,4.1"/>
	<path id="path1299_1_" class="st3" d="M566,212.3l7.3-26.4l-28.2,4"/>
	<path id="path1301_1_" class="st3" d="M554.1,222.4l7.4-26.4l-28.2,4.1"/>
	<path id="path1303_1_" class="st3" d="M545.2,230l4.4-23.8l-25.2,1.5"/>
	<path id="path1305_1_" class="st3" d="M536.3,237.6l4.4-23.8l-25.2,1.5"/>
	<path id="path1307_1_" class="st3" d="M524.8,242.4l10-23.5l-25.6,6.8"/>
	<path id="path1309_1_" class="st4" d="M681.8,66.2l-17.9,12L661,65.3l-10.5,17.8l-2-8.5l-8.6,18.2l-1.2-8.4l-6.7,18.7l-3.8-9
		l-6.7,22.7l-3.8-9l-6.7,22.7l-3.9-9l-6.7,22.7l-3.3,11.4l1.9,4.5l7.2-2.4l12.4-9.2l25-18.4l-14.4,4.7l24.9-18.5l-14.4,4.8
		l24.9-18.5l-14.4,4.8l25-14.4l-17,4l26.6-13.7l-16.3,4.2l19.7-15.6l-17,8.1L681.8,66.2z"/>
	<path id="path1311_1_" class="st3" d="M674.8,72.7L649,94.9l-50,65.2"/>
	<path id="path1313_1_" class="st3" d="M638.1,132.8l-28.6,13.5l-2.4-20.8"/>
	<path id="path1315_1_" class="st3" d="M649,119.2l-29,13.4l-2.3-20.8"/>
	<path id="path1317_1_" class="st3" d="M659.3,105.5l-28.7,13.4l-2.2-20.7"/>
	<path id="path1319_1_" class="st3" d="M667.9,95.3l-26.8,9.9l-3-17"/>
	<path id="path1321_1_" class="st3" d="M677.8,85.5L649,95l-1-16.4"/>
	<path id="path1323_1_" class="st3" d="M681.6,76.2L655,89.8l5.2-20.6"/>
	<path id="path1325_1_" class="st4" d="M584.9,43.8l8,18.2l10.3-9.6l-1.7,19.8l6.8-6.4l-3.7,19.4l6-6.6l-5.5,19l8.7-6l-8,22.3l8.6-6
		l-8,22.5l8.7-6l-8,22.4l-4,11.2l-4.4,3l-4.8-5.3l-5-13.4l-10-26.9l9.4,10.5l-10.1-27l9.4,10.6l-10-27l9.2,10.5l-12.5-23.4l12,11.1
		l-14.4-23.9l11.3,11l-7.3-22.2l9.6,14.6L584.9,43.8z"/>
	<path id="path1327_1_" class="st3" d="M587,52.4l8.5,30.5l3.2,78"/>
	<path id="path1329_1_" class="st3" d="M581.8,120.2l16.2,24.3l14.7-16.7"/>
	<path id="path1331_1_" class="st3" d="M580.8,103.7l16.5,24.4l14.7-16.7"/>
	<path id="path1333_1_" class="st3" d="M580.3,87.3l16.4,24.4L611.1,95"/>
	<path id="path1335_1_" class="st3" d="M579.2,74.9L596,95.3l13-13"/>
	<path id="path1337_1_" class="st3" d="M576.8,62l18.7,21l11-13.6"/>
	<path id="path1339_1_" class="st3" d="M579.1,52.4l14.4,23.5l8.1-19.9"/>
	<path id="path1341_1_" class="st5" d="M477.8,178l23.3-16.2l-11.7-6l20.5,3.4l-7-9.3l19.8,7.5l-7-9.3l19.9,7.4l-7-9.2l24,8.1
		l-7-9.3l23.3,12.1l-7-9.3l24,8.2l11.7,6l3.5,4.6l-4.7,3.3l-12.9,1.8l-20.7,8.6l3.8-7.4l-25.7,3.6l9.3-6.4l-26.3,7.6l9.4-6.5
		l-22.2,8.3l9.9-10.4l-22.8,12.2l10-10.4l-18.8,13l10.5-14.4L477.8,178z"/>
	<path id="path1343_1_" class="st3" d="M485.1,173.6l24.2-10.5l12.9-1.8l10.7-0.2l18.5,1.2l16.7,0.7l33,3.7"/>
	<path id="path1345_1_" class="st3" d="M566,176.9l18.5-11.4l-18.8-14.7"/>
	<path id="path1347_1_" class="st3" d="M545.3,175.2L568,163l-18.7-14.8"/>
	<path id="path1349_1_" class="st3" d="M530.5,174.8l20.9-12.5l-19-13.7 M502.9,178.2l19.3-16.9l-15.6-8.5"/>
	<path id="path1351_1_" class="st3" d="M494.3,179.3l15-16.1l-12-4.5 M515.7,176.4l19-15.2l-15.2-10.4"/>
	<g id="g1473_1_" transform="matrix(.94693 0 0 .94693 115.2 18.3)">
		<path id="path1353_1_" class="st6" d="M465.8,355.7l-0.2-28.8l-8.3-13.5c-2.1-6.6-1.1-9.8,2.3-10c3.4-0.2,6.7,1.7,11.6,1.9
			c4.9,0.2,3.9-7.5,11.1-7.3c7.2,0.2,19.7,4.1,30.4,4.7c10.7,0.6,16.2-3.4,28.5-3.8c12.3-0.4,15.5,5.3,16.2,5.3s4.2-2.3,7.6-2.8
			c3.5-0.4,4.6,1.3,4.6,1.3s-0.2,7.3-1.9,11.5c-1.6,4.3-7.4,11.3-7.6,11.3s-2.1,31.4-2.1,31.6S465.8,356.4,465.8,355.7z"/>
		<g id="g1387_1_">
			<path id="path1355_1_" class="st7" d="M561.3,326.2c0,0,9.3-6.5,9.5-22.3c0.1-9.1-4.7-15.6-16.8-15.6c-16.9,0-41.1,6.7-41.1,6.7
				v2.2c0,0,19.4-6.7,41.1-6.7c9.7,0,14.5,6.5,14.5,13.2c0,11.1-9.7,22.4-9.7,22.4V344h2.4V326.2z"/>
			<path id="path1357_1_" class="st8" d="M566.3,321.6c-0.1,1.2,0.9,2.3,2.2,2.4c1.3,0.1,2.5-0.8,2.6-2.1c0-0.1,0-0.2,0-0.3
				c-0.1-1.2-1.3-2.2-2.6-2.1C567.4,319.6,566.4,320.4,566.3,321.6z"/>
			<path id="path1359_1_" class="st8" d="M568.7,316.5c-0.1,1.2,0.9,2.3,2.2,2.4c1.3,0.1,2.5-0.8,2.6-2.1c0-0.1,0-0.2,0-0.3
				c-0.1-1.2-1.3-2.2-2.6-2.1C569.8,314.5,568.8,315.3,568.7,316.5z"/>
			<path id="path1361_1_" class="st8" d="M570,311.3c-0.1,1.2,0.9,2.3,2.2,2.4c1.3,0.1,2.5-0.8,2.6-2.1c0-0.1,0-0.2,0-0.3
				c-0.1-1.2-1.3-2.2-2.6-2.1C571.1,309.3,570.1,310.1,570,311.3z"/>
			<path id="path1363_1_" class="st8" d="M570.9,305.8c-0.1,1.2,0.9,2.3,2.2,2.4c1.3,0.1,2.5-0.8,2.6-2.1c0-0.1,0-0.2,0-0.3
				c-0.1-1.2-1.3-2.2-2.6-2.1C572,303.8,571,304.6,570.9,305.8z"/>
			<path id="path1365_1_" class="st8" d="M570.7,299.8c-0.1,1.2,0.9,2.3,2.2,2.4c1.3,0.1,2.5-0.8,2.6-2.1c0-0.1,0-0.2,0-0.3
				c-0.1-1.2-1.3-2.2-2.6-2.1C571.8,297.8,570.8,298.6,570.7,299.8z"/>
			<path id="path1367_1_" class="st8" d="M562.8,326.1c-0.1,1.2,0.9,2.3,2.2,2.4c1.3,0.1,2.5-0.8,2.6-2.1c0-0.1,0-0.2,0-0.3
				c-0.1-1.2-1.3-2.2-2.6-2.1C563.9,324.1,562.9,324.9,562.8,326.1z"/>
			<path id="path1369_1_" class="st8" d="M568.6,294.1c-0.1,1.2,0.9,2.3,2.2,2.4c1.3,0.1,2.5-0.8,2.6-2.1c0-0.1,0-0.2,0-0.3
				c-0.1-1.2-1.3-2.2-2.6-2.1C569.7,292.1,568.7,292.9,568.6,294.1z"/>
			<path id="path1371_1_" class="st8" d="M564.1,289.6c-0.1,1.2,0.9,2.3,2.2,2.4c1.3,0.1,2.5-0.8,2.6-2.1c0-0.1,0-0.2,0-0.3
				c-0.1-1.2-1.3-2.2-2.6-2.1C565.2,287.6,564.2,288.4,564.1,289.6z"/>
			<path id="path1373_1_" class="st8" d="M558.1,286.6c-0.1,1.2,0.9,2.3,2.2,2.4c1.3,0.1,2.5-0.8,2.6-2.1c0-0.1,0-0.2,0-0.3
				c-0.1-1.2-1.3-2.2-2.6-2.1C559.2,284.6,558.2,285.4,558.1,286.6z"/>
			<path id="path1375_1_" class="st8" d="M552.1,286.2c-0.1,1.2,0.9,2.3,2.2,2.4c1.3,0.1,2.5-0.8,2.6-2.1c0-0.1,0-0.2,0-0.3
				c-0.1-1.2-1.3-2.2-2.6-2.1C553.2,284.2,552.2,285,552.1,286.2z"/>
			<path id="path1377_1_" class="st8" d="M545.6,286.4c-0.1,1.2,0.9,2.3,2.2,2.4c1.3,0.1,2.5-0.8,2.6-2.1c0-0.1,0-0.2,0-0.3
				c-0.1-1.2-1.3-2.2-2.6-2.1C546.7,284.4,545.7,285.2,545.6,286.4z"/>
			<path id="path1379_1_" class="st8" d="M539.1,287.3c-0.1,1.2,0.9,2.3,2.2,2.4c1.3,0.1,2.5-0.8,2.6-2.1c0-0.1,0-0.2,0-0.3
				c-0.1-1.2-1.3-2.2-2.6-2.1C540.2,285.3,539.2,286.1,539.1,287.3z"/>
			<path id="path1381_1_" class="st8" d="M532.7,288.1c-0.1,1.2,0.9,2.3,2.2,2.4c1.3,0.1,2.5-0.8,2.6-2.1c0-0.1,0-0.2,0-0.3
				c-0.1-1.2-1.3-2.2-2.6-2.1C533.8,286.1,532.8,286.9,532.7,288.1z"/>
			<path id="path1383_1_" class="st8" d="M525.7,289.1c-0.1,1.2,0.9,2.3,2.2,2.4c1.3,0.1,2.5-0.8,2.6-2.1c0-0.1,0-0.2,0-0.3
				c-0.1-1.2-1.3-2.2-2.6-2.1C526.8,287.1,525.8,287.9,525.7,289.1z"/>
			<path id="path1385_1_" class="st8" d="M519.7,290.7c-0.1,1.2,0.9,2.3,2.2,2.4c1.3,0.1,2.5-0.8,2.6-2.1c0-0.1,0-0.2,0-0.3
				c-0.1-1.2-1.3-2.2-2.6-2.1C520.8,288.7,519.8,289.5,519.7,290.7z"/>
		</g>
		<path id="path1389_1_" class="st8" d="M459.4,321.6c0.1,1.2-0.9,2.3-2.2,2.4c-1.3,0.1-2.5-0.8-2.6-2.1c0-0.1,0-0.2,0-0.3
			c0.1-1.2,1.3-2.2,2.6-2.1C458.4,319.6,459.3,320.4,459.4,321.6z"/>
		<path id="path1391_1_" class="st8" d="M456.9,316.5c0.1,1.2-0.9,2.3-2.2,2.4c-1.3,0.1-2.5-0.8-2.6-2.1c0-0.1,0-0.2,0-0.3
			c0.1-1.2,1.3-2.2,2.6-2.1C455.9,314.5,456.8,315.3,456.9,316.5z"/>
		<path id="path1393_1_" class="st8" d="M455.7,311.3c0.1,1.2-0.9,2.3-2.2,2.4c-1.3,0.1-2.5-0.8-2.6-2.1c0-0.1,0-0.2,0-0.3
			c0.1-1.2,1.3-2.2,2.6-2.1C454.7,309.3,455.6,310.1,455.7,311.3z"/>
		<path id="path1395_1_" class="st8" d="M454.8,305.8c0.1,1.2-0.9,2.3-2.2,2.4c-1.3,0.1-2.5-0.8-2.6-2.1c0-0.1,0-0.2,0-0.3
			c0.1-1.2,1.3-2.2,2.6-2.1C453.8,303.8,454.7,304.6,454.8,305.8z"/>
		<path id="path1397_1_" class="st8" d="M455,299.8c0.1,1.2-0.9,2.3-2.2,2.4c-1.3,0.1-2.5-0.8-2.6-2.1c0-0.1,0-0.2,0-0.3
			c0.1-1.2,1.3-2.2,2.6-2.1C454,297.8,454.9,298.6,455,299.8z"/>
		<path id="path1399_1_" class="st8" d="M457,294.1c0.1,1.2-0.9,2.3-2.2,2.4c-1.3,0.1-2.5-0.8-2.6-2.1c0-0.1,0-0.2,0-0.3
			c0.1-1.2,1.3-2.2,2.6-2.1C456,292.1,456.9,292.9,457,294.1z"/>
		<path id="path1401_1_" class="st8" d="M461.4,289.6c0.1,1.2-0.9,2.3-2.2,2.4c-1.3,0.1-2.5-0.8-2.6-2.1c0-0.1,0-0.2,0-0.3
			c0.1-1.2,1.3-2.2,2.6-2.1C460.4,287.6,461.3,288.4,461.4,289.6z"/>
		<path id="path1403_1_" class="st8" d="M467.5,286.6c0.1,1.2-0.9,2.3-2.2,2.4c-1.3,0.1-2.5-0.8-2.6-2.1c0-0.1,0-0.2,0-0.3
			c0.1-1.2,1.3-2.2,2.6-2.1C466.5,284.6,467.4,285.4,467.5,286.6z"/>
		<path id="path1405_1_" class="st8" d="M473.5,286.2c0.1,1.2-0.9,2.3-2.2,2.4c-1.3,0.1-2.5-0.8-2.6-2.1c0-0.1,0-0.2,0-0.3
			c0.1-1.2,1.3-2.2,2.6-2.1C472.5,284.2,473.4,285,473.5,286.2z"/>
		<path id="path1407_1_" class="st8" d="M480,286.4c0.1,1.2-0.9,2.3-2.2,2.4c-1.3,0.1-2.5-0.8-2.6-2.1c0-0.1,0-0.2,0-0.3
			c0.1-1.2,1.3-2.2,2.6-2.1C479,284.4,479.9,285.2,480,286.4z"/>
		<path id="path1409_1_" class="st8" d="M486.5,287.3c0.1,1.2-0.9,2.3-2.2,2.4c-1.3,0.1-2.5-0.8-2.6-2.1c0-0.1,0-0.2,0-0.3
			c0.1-1.2,1.3-2.2,2.6-2.1C485.5,285.3,486.4,286.1,486.5,287.3z"/>
		<path id="path1411_1_" class="st8" d="M493,288.1c0.1,1.2-0.9,2.3-2.2,2.4c-1.3,0.1-2.5-0.8-2.6-2.1c0-0.1,0-0.2,0-0.3
			c0.1-1.2,1.3-2.2,2.6-2.1C492,286.1,492.9,286.9,493,288.1z"/>
		<path id="path1413_1_" class="st8" d="M499.9,289.1c0.1,1.2-0.9,2.3-2.2,2.4c-1.3,0.1-2.5-0.8-2.6-2.1c0-0.1,0-0.2,0-0.3
			c0.1-1.2,1.3-2.2,2.6-2.1C498.9,287.1,499.8,287.9,499.9,289.1z"/>
		<path id="path1415_1_" class="st8" d="M505.9,290.7c0.1,1.2-0.9,2.3-2.2,2.4c-1.3,0.1-2.5-0.8-2.6-2.1c0-0.1,0-0.2,0-0.3
			c0.1-1.2,1.3-2.2,2.6-2.1C504.9,288.7,505.8,289.5,505.9,290.7z"/>
		<path id="path1417_1_" class="st8" d="M462.8,326.1c0.1,1.2-0.9,2.3-2.2,2.4c-1.3,0.1-2.5-0.8-2.6-2.1c0-0.1,0-0.2,0-0.3
			c0.1-1.2,1.3-2.2,2.6-2.1C461.8,324.1,462.7,324.9,462.8,326.1z"/>
		<path id="path1419_1_" class="st7" d="M464.5,326.2c0,0-9.3-6.5-9.5-22.3c-0.1-9.1,4.7-15.6,16.8-15.6c16.9,0,41.1,6.7,41.1,6.7
			v2.2c0,0-19.4-6.7-41.1-6.7c-9.7,0-14.5,6.5-14.5,13.2c0,11.1,9.7,22.4,9.7,22.4V344h-2.4L464.5,326.2z"/>
		<path id="path1421_1_" class="st9" d="M481.3,334.5c0,0,0.7-1.7,3.2-1.7c1.7,0,3.2,1.7,3.2,3.4v3.4h1.6v-3.4
			c0-1.7,1.6-3.4,3.2-3.4c2.4,0,3.2,1.7,3.2,1.7s0-5.1-3.2-5.1c-2.4,0-3.2,1.7-3.2,1.7s0.8-2.5,0.8-5.1c0-2.5-1.6-4.2-1.6-4.2
			c0,0.3-1.6,1.7-1.6,4.2c0,2.5,0.8,5.1,0.8,5.1s-0.8-1.7-3.2-1.7C481.3,329.4,481.3,334.5,481.3,334.5z"/>
		<path id="path1423_1_" class="st9" d="M529.7,334.5c0,0,0.7-1.7,3.2-1.7c1.7,0,3.2,1.7,3.2,3.4v3.4h1.6v-3.4
			c0-1.7,1.6-3.4,3.2-3.4c2.4,0,3.2,1.7,3.2,1.7s0-5.1-3.2-5.1c-2.4,0-3.2,1.7-3.2,1.7s0.8-2.5,0.8-5.1c0-2.5-1.6-4.2-1.6-4.2
			c0,0.3-1.6,1.7-1.6,4.2c0,2.5,0.8,5.1,0.8,5.1s-0.8-1.7-3.2-1.7C529.7,329.4,529.7,334.5,529.7,334.5z"/>
		<path id="path1425_1_" class="st7" d="M464.5,357.4v-20.1c0,0,4.8,6.7,12.1,6.7c5.9,0,12.1-8.9,12.1-8.9s5.7,6.7,12.1,6.7
			c5.7,0,12.1-8.6,12.1-8.6s5.9,8.6,12.1,8.6c6.2,0,12.1-6.7,12.1-6.7s6.3,8.9,14.5,8.9c7.3,0,9.7-6.7,9.7-6.7v20.1H464.5z"/>
		<path id="path1427_1_" class="st7" d="M464.5,357.4v-15.6c0,0,14.5,4.4,14.5,15.6H464.5z"/>
		<path id="path1429_1_" class="st7" d="M561.2,357.4v-15.6c0,0-14.5,4.4-14.5,15.6H561.2z"/>
		<path id="path1431_1_" class="st7" d="M474.1,357.4c0-11.2,14.5-18.2,14.5-18.2s14.5,7,14.5,18.2H474.1z"/>
		<path id="path1433_1_" class="st7" d="M522.5,357.4c0-11.2,14.5-18.2,14.5-18.2s14.5,7,14.5,18.2H522.5z"/>
		<path id="path1435_1_" class="st7" d="M495.9,357.5c0-11.1,17-20,17-20s16.9,8.9,16.9,20H495.9L495.9,357.5z"/>
		<path id="path1437_1_" class="st8" d="M563.6,357.4c-4.8-2.2-22.4-4.5-50.8-4.5c-28.4,0-47.3,2.2-52.1,4.5c-4.8,2.2-4.8,6.7,0,8.9
			c4.8,2.2,23.7,4.5,52.1,4.5c28.4,0,46-2.2,50.8-4.5C568.4,364.1,568.4,359.6,563.6,357.4z"/>
		<path id="path1439_1_" class="st10" d="M561.3,366.3c0,4.5-40.3,4.5-48.4,4.5c-8.8,0-48.4,1.2-48.4-4.5c0-4.4,39.9-4.4,48.4-4.4
			C521.3,361.9,561.3,362.8,561.3,366.3z"/>
		<path id="path1441_1_" class="st11" d="M469.3,350.3c0,1.5-1,2.7-2.4,2.7s-2.4-1.2-2.4-2.7s1-2.6,2.4-2.6
			C468.2,347.7,469.3,348.9,469.3,350.3z M561.3,350.3c0,1.5-1.1,2.7-2.5,2.7c-1.3,0-2.4-1.2-2.4-2.7s1.1-2.6,2.4-2.6
			c1.4,0,2.4,1.2,2.4,2.6H561.3z"/>
		<path id="path1443_1_" class="st12" d="M517.7,349c0,1.4-2.2,2.6-4.8,2.6c-2.6,0-4.9-1.2-4.9-2.7s2.2-2.6,4.9-2.6
			c2.7,0,4.8,1.2,4.8,2.6V349z"/>
		<path id="path1445_1_" class="st13" d="M540.9,349c0,1.4-1.6,2.6-3.6,2.6s-3.6-1.2-3.6-2.7s1.6-2.6,3.6-2.6s3.6,1.2,3.6,2.6V349z
			 M491.1,349c0,1.4-1.6,2.6-3.6,2.6s-3.7-1.2-3.7-2.7s1.6-2.6,3.7-2.6c2,0,3.6,1.2,3.6,2.6V349z"/>
		<path id="path1447_1_" class="st14" d="M503.1,333.6c0,0,2.8-3.8,5.5-3.8h2.8v2.5c0,3.8-4.1,5.1-4.1,5.1h11.1c0,0-4.2-1.3-4.2-5.1
			v-2.5h2.8c2.8,0,5.5,3.8,5.5,3.8v-10.2c0,0-2.8,3.8-5.5,3.8h-2.8v-2.6c0-3.8,4.2-5.1,4.2-5.1h-11.1c0,0,4.1,1.3,4.1,5.1v2.6h-2.8
			c-2.8,0-5.5-3.8-5.5-3.8L503.1,333.6L503.1,333.6z"/>
		<path id="path1449_1_" class="st15" d="M464.4,341.8h2.8c0,0-2.1-1.1-2.1-4.5v-2.2h1.4c1.4,0,2.8,3.3,2.8,3.3v-8.9
			c0,0-1.4,3.3-2.8,3.3h-1.4v-2.2c0-3.3,2.1-4.5,2.1-4.5h-2.8V341.8z"/>
		<path id="path1451_1_" class="st15" d="M561.2,341.8h-2.8c0,0,2.1-1.1,2.1-4.5v-2.2h-1.4c-1.4,0-2.8,3.3-2.8,3.3v-8.9
			c0,0,1.4,3.3,2.8,3.3h1.4v-2.2c0-3.3-2.1-4.5-2.1-4.5h2.8V341.8z"/>
		<path id="path1453_1_" class="st8" d="M515.3,328.4c0,1.2-1.1,2.2-2.4,2.2c-1.3,0-2.4-1-2.4-2.2s1.1-2.2,2.4-2.2
			C514.2,326.2,515.3,327.2,515.3,328.4z"/>
		<path id="path1455_1_" class="st14" d="M503.1,286.8c0,0,2.8-3.8,5.5-3.8h2.8v2.5c0,3.8-4.1,5.1-4.1,5.1h11.1c0,0-4.2-1.3-4.2-5.1
			V283h2.8c2.8,0,5.5,3.8,5.5,3.8v-10.2c0,0-2.8,3.8-5.5,3.8h-2.8v-2.6c0-3.8,4.2-5.1,4.2-5.1h-11.1c0,0,4.1,1.3,4.1,5.1v2.6h-2.8
			c-2.8,0-5.5-3.8-5.5-3.8L503.1,286.8L503.1,286.8z"/>
		<path id="path1457_1_" class="st8" d="M515.5,282c0,1.2-1.1,2.2-2.4,2.2c-1.3,0-2.4-1-2.4-2.2s1.1-2.2,2.4-2.2
			C514.4,279.8,515.5,280.8,515.5,282z"/>
		<path id="path1459_1_" class="st7" d="M508,290.6h9.7v6.7H508L508,290.6z"/>
		<path id="path1461_1_" class="st7" d="M508,294.1h9.7v25.5H508L508,294.1z"/>
		<path id="path1463_1_" class="st8" d="M515.2,315.1c0.1,1.2-0.9,2.3-2.2,2.4c-1.3,0.1-2.5-0.8-2.6-2.1c0-0.1,0-0.2,0-0.3
			c0.1-1.2,1.3-2.2,2.6-2.1C514.2,313.1,515.1,313.9,515.2,315.1z"/>
		<path id="path1465_1_" class="st8" d="M515.2,309.4c0.1,1.2-0.9,2.3-2.2,2.4c-1.3,0.1-2.5-0.8-2.6-2.1c0-0.1,0-0.2,0-0.3
			c0.1-1.2,1.3-2.2,2.6-2.1C514.2,307.4,515.1,308.2,515.2,309.4z"/>
		<path id="path1467_1_" class="st8" d="M515.2,304.1c0.1,1.2-0.9,2.3-2.2,2.4c-1.3,0.1-2.5-0.8-2.6-2.1c0-0.1,0-0.2,0-0.3
			c0.1-1.2,1.3-2.2,2.6-2.1C514.2,302.1,515.1,302.9,515.2,304.1z"/>
		<path id="path1469_1_" class="st8" d="M515.2,298.5c0.1,1.2-0.9,2.3-2.2,2.4c-1.3,0.1-2.5-0.8-2.6-2.1c0-0.1,0-0.2,0-0.3
			c0.1-1.2,1.3-2.2,2.6-2.1C514.2,296.5,515.1,297.3,515.2,298.5z"/>
		<path id="path1471_1_" class="st12" d="M518,357.5c0,1-2.2,1.8-5,1.8s-4.8-0.8-4.8-1.8s2.2-1.8,4.9-1.8
			C515.8,355.7,518,356.5,518,357.5z M562.6,361.9c-0.3,0.7-2.7,0.8-5.4,0.1c-2.7-0.6-4.6-1.6-4.4-2.3c0.3-0.7,2.7-0.8,5.4-0.1
			C560.9,360.2,562.8,361.2,562.6,361.9z M543.9,358.9c0,0.9-2.4,1.4-5.2,1.3c-2.7-0.2-4.9-1.1-4.8-2c0.1-0.9,2.5-1.4,5.2-1.2
			C541.9,357.2,544.1,358,543.9,358.9L543.9,358.9z M462.1,361.9c0.2,0.7,2.6,0.8,5.3,0.1c2.7-0.6,4.7-1.6,4.4-2.3
			c-0.3-0.7-2.7-0.8-5.4-0.1C463.8,360.2,461.8,361.2,462.1,361.9z M481.6,358.5c0.1,0.9,2.5,1.4,5.2,1.2c2.8-0.2,5-1,4.8-2
			c0-0.8-2.4-1.4-5.2-1.2C483.7,356.7,481.5,357.5,481.6,358.5z"/>
	</g>
</g>
<path id="path824" class="st16" d="M0,0h400v240H0V0z"/>
<path id="path826" class="st17" d="M46.9,0l152.5,90.5L351.2,0H400v31l-150,89.5l150,89V240h-50l-150-89.5L50.6,240H0v-30l149.4-89
	L0,32V0H46.9z"/>
<path id="path828" class="st18" d="M265,140.5L400,220v20l-169.4-99.5H265z M150,150.5l3.8,17.5l-120,72H0L150,150.5z M400,0v1.5
	l-155.6,94l1.2-22L368.8,0H400z M0,0l149.4,88h-37.5L0,21V0z"/>
<path id="path830" class="st17" d="M150.6,0v240h100V0H150.6z M0,80v80h400V80H0z"/>
<path id="path832" class="st18" d="M0,96.5v48h400v-48H0z M170.6,0v240h60V0H170.6z"/>
</svg>
