<?xml version="1.0" encoding="utf-8"?>
<!-- Generator: Adobe Illustrator 24.0.1, SVG Export Plug-In . SVG Version: 6.00 Build 0)  -->
<svg version="1.1" id="flag-icons-ir" xmlns="http://www.w3.org/2000/svg" xmlns:xlink="http://www.w3.org/1999/xlink" x="0px"
	 y="0px" viewBox="0 0 800 480" style="enable-background:new 0 0 800 480;" xml:space="preserve">
<style type="text/css">
	.st0{fill-rule:evenodd;clip-rule:evenodd;fill:#FFFFFF;}
	.st1{fill-rule:evenodd;clip-rule:evenodd;fill:#DA0000;}
	.st2{fill-rule:evenodd;clip-rule:evenodd;fill:#239F40;}
	.st3{fill-rule:evenodd;clip-rule:evenodd;fill:#D90000;}
	.st4{fill-rule:evenodd;clip-rule:evenodd;fill:#239E3F;}
	.st5{fill:#FFFFFF;}
</style>
<path class="st0" d="M0,0h800v480H0V0z"/>
<path class="st1" d="M0,322.3h800V480H0V322.3z"/>
<path class="st2" d="M0,0h800v157.7H0V0z"/>
<path class="st3" d="M95.5,318.3h5.6v9.8h-5.6V318.3z M246,318.3h5.6v9.8H246V318.3z M56.4,318.3H62v9.8h-5.6V318.3z M132.2,318.3
	h5.6v9.8h-5.6V318.3z M169.7,318.3h5.6v9.8h-5.6V318.3z M208.1,318.3h5.6v9.8h-5.6V318.3z M283.5,318.3h5.6v9.8h-5.6V318.3z
	 M473.8,318.3h5.7v9.8h-5.6L473.8,318.3z M321.8,318.3h5.6v9.8h-5.6V318.3z M359.3,318.3h5.6v9.8h-5.6V318.3z M397.3,318.3h5.6v9.8
	h-5.6V318.3z M435.2,318.3h5.6v9.8h-5.6V318.3z M738.2,318.3h5.6v9.8h-5.6V318.3z M510.6,318.3h5.6v9.8h-5.6V318.3z M548.9,318.3
	h5.6v9.8h-5.6V318.3z M587.6,318.3h5.6v9.8h-5.6V318.3z M624,318.3h5.6v9.8H624V318.3z M662.7,318.3h5.6v9.8h-5.6V318.3z
	 M700.6,318.3h5.6v9.8h-5.6V318.3z M776.4,318.3h5.6v9.8h-5.6V318.3z M18.1,318.3h5.6v9.8h-5.6V318.3z"/>
<path class="st4" d="M95.5,152.4h5.6v9.8h-5.6V152.4z M246,152.4h5.6v9.8H246V152.4z M56.4,152.4H62v9.8h-5.6V152.4z M132.2,152.4
	h5.6v9.8h-5.6V152.4z M169.7,152.4h5.6v9.8h-5.6V152.4z M208.1,152.4h5.6v9.8h-5.6V152.4z M283.5,152.4h5.6v9.8h-5.6V152.4z
	 M473.8,152.4h5.7v9.8h-5.6L473.8,152.4z M321.8,152.4h5.6v9.8h-5.6V152.4z M359.3,152.4h5.6v9.8h-5.6V152.4z M397.3,152.4h5.6v9.8
	h-5.6V152.4z M435.2,152.4h5.6v9.8h-5.6V152.4z M738.2,152.4h5.6v9.8h-5.6V152.4z M510.6,152.4h5.6v9.8h-5.6V152.4z M548.9,152.4
	h5.6v9.8h-5.6V152.4z M587.6,152.4h5.6v9.8h-5.6V152.4z M624,152.4h5.6v9.8H624V152.4z M662.7,152.4h5.6v9.8h-5.6V152.4z
	 M700.6,152.4h5.6v9.8h-5.6V152.4z M776.4,152.4h5.6v9.8h-5.6V152.4z M18.1,152.4h5.6v9.8h-5.6V152.4z"/>
<g>
	<path class="st1" d="M350.1,277.1c-19.8-32.4-9.5-74.7,22.9-94.4c-72.8,24.4-40.2,99.8-14.6,105.4
		C355.3,284.6,352.5,281,350.1,277.1z"/>
	<path class="st1" d="M427,182.6c32.4,19.7,42.7,62,23,94.4c-2.4,3.9-5.2,7.6-8.3,10.9C467.2,282.4,499.8,207,427,182.6z"/>
	<path class="st1" d="M399.8,180c0.7,3.6,20.2,8.1,17.8-10.5c-3.1,7.5-12,7.2-17.8,3.8c-7.9,4.4-15.3,3.3-18.1-4.2
		C379,183,392.5,187,399.8,180z"/>
	<path class="st1" d="M413.7,295.5c24.8-17.6,33.2-39.3,32.9-58.9c-0.2-22.9-12.4-43.1-24.4-51.4c7.9,9.7,32.2,63.2-14.5,98.4
		l0.9-93.7l-8.7-7.7l-8.7,7.3l1.5,94.6c-0.1-0.1-0.2-0.2-0.4-0.3c-47.1-35.2-22.6-88.9-14.7-98.6c-12,8.2-24.2,28.5-24.4,51.4
		c-0.2,19.7,8.3,41.5,33.3,59.2c-10.1,2.7-21.1,3.6-30.5,3.4c8.5,4.7,24.7,3.6,36.9,2.4l0,1.4l7.3,8h0l7.3-8.4l0-0.9
		c12.3,1.2,28.8,2.4,37.5-2.3C435.5,299.3,424.2,298.3,413.7,295.5z"/>
</g>
<g>
	<rect x="214.7" y="134.4" class="st5" width="45.9" height="3.2"/>
	<polygon class="st5" points="9,339.8 14.8,339.8 14.8,344.7 4.6,344.7 4.6,336.6 0,336.6 0,339.8 1.4,339.8 1.4,347.8 2.8,347.8 
		2.8,347.9 17,347.9 17,347.8 18,347.8 18,336.6 9,336.6 	"/>
	<polygon class="st5" points="214.8,153.4 217.9,153.4 217.9,145.1 228.3,145.1 228.3,153.4 244.9,153.4 244.9,142 235.9,142 
		235.9,145.1 241.8,145.1 241.8,150.2 231.5,150.2 231.5,141.9 214.7,142 214.7,145.1 214.8,145.1 	"/>
	<rect x="221.5" y="150.4" class="st5" width="3.2" height="3"/>
	<polygon class="st5" points="320.3,153.4 320.3,142 311.3,142 311.3,145.1 317.1,145.1 317.1,150.2 306.9,150.2 306.9,141.9 
		290.1,142 290.1,153.4 293.3,153.4 293.3,145.1 303.8,145.1 303.8,153.4 	"/>
	<rect x="372.6" y="150.4" class="st5" width="3.2" height="3"/>
	<rect x="365.8" y="329.1" class="st5" width="45.9" height="3.1"/>
	<rect x="297" y="150.4" class="st5" width="3.1" height="3"/>
	<polygon class="st5" points="336.1,137.6 336.1,134.4 290,134.4 290.1,137.6 	"/>
	<rect x="139.8" y="134.4" class="st5" width="45.9" height="3.2"/>
	<polygon class="st5" points="365.9,153.4 369,153.4 369,145.1 379.4,145.1 379.4,153.4 396.1,153.4 396.1,142 386.9,142 
		386.9,145.1 392.9,145.1 392.9,150.2 382.7,150.2 382.7,141.9 365.8,142 365.8,145.1 365.9,145.1 	"/>
	<rect x="64.2" y="329.1" class="st5" width="45.9" height="3.1"/>
	<polygon class="st5" points="139.8,153.4 142.9,153.4 142.9,145.1 153.4,145.1 153.4,153.4 170,153.4 170,142.8 169.9,142.8 
		169.9,142 160.9,142 160.9,145.1 166.8,145.1 166.8,150.2 156.6,150.2 156.6,141.9 139.8,142 139.8,145.1 139.8,145.1 	"/>
	<rect y="134.4" class="st5" width="33.6" height="3.2"/>
	<polygon class="st5" points="9,145.1 14.8,145.1 14.8,150.2 4.6,150.2 4.6,141.9 0,142 0,145.1 1.4,145.1 1.4,153.4 18,153.4 
		18,142 9,142 	"/>
	<polygon class="st5" points="74.2,153.4 74.2,150.4 71,150.4 70.9,153.4 	"/>
	<rect y="329.1" class="st5" width="33.6" height="3.1"/>
	<polygon class="st5" points="64.3,153.4 67.4,153.4 67.4,145.1 77.9,145.1 77.9,153.4 94.4,153.4 94.4,142 85.4,142 85.4,145.1 
		91.3,145.1 91.3,150.2 81.1,150.2 81.1,141.9 64.2,142 64.2,145.1 64.3,145.1 	"/>
	<rect x="139.8" y="329.1" class="st5" width="45.9" height="3.1"/>
	<rect x="146.6" y="150.4" class="st5" width="3.2" height="3"/>
	<rect x="64.2" y="134.4" class="st5" width="45.9" height="3.2"/>
	<rect x="214.7" y="329.1" class="st5" width="45.9" height="3.1"/>
	<polygon class="st5" points="669.5,153.4 672.6,153.4 672.6,145.1 683.1,145.1 683.1,153.4 699.7,153.4 699.7,142.8 699.6,142.8 
		699.6,142 690.6,142 690.6,145.1 696.5,145.1 696.5,150.2 686.3,150.2 686.3,142.8 686.3,142.8 686.3,141.9 669.4,142 669.4,145.1 
		669.5,145.1 	"/>
	<rect x="669.4" y="134.4" class="st5" width="45.9" height="3.2"/>
	<rect x="743.8" y="329.1" class="st5" width="45.9" height="3.1"/>
	<rect x="676.3" y="150.4" class="st5" width="3.2" height="3"/>
	<rect x="669.4" y="329.1" class="st5" width="45.9" height="3.1"/>
	<polygon class="st5" points="780.6,153.4 789.9,153.4 789.9,150.2 783.9,150.2 783.9,145.1 794.8,145.1 794.8,153.4 800,153.4 
		800,150.2 798,150.2 798,134.4 794.9,134.4 794.8,142 780.6,142 	"/>
	<rect x="743.8" y="134.4" class="st5" width="45.9" height="3.2"/>
	<rect x="593.3" y="134.4" class="st5" width="45.9" height="3.2"/>
	<rect x="750.6" y="150.4" class="st5" width="3.2" height="3"/>
	<polygon class="st5" points="743.9,153.4 747.1,153.4 747.1,145.1 757.5,145.1 757.5,153.4 774.1,153.4 774.1,142 765.1,142 
		765.1,145.1 770.9,145.1 770.9,150.2 760.7,150.2 760.7,141.9 743.8,142 743.8,145.1 743.9,145.1 	"/>
	<rect x="524.4" y="150.4" class="st5" width="3.2" height="3"/>
	<rect x="441.9" y="134.4" class="st5" width="45.9" height="3.2"/>
	<rect x="365.8" y="134.4" class="st5" width="45.9" height="3.2"/>
	<polygon class="st5" points="442,153.4 445.2,153.4 445.2,145.1 455.6,145.1 455.6,153.4 472.2,153.4 472.2,142 463.2,142 
		463.2,145.1 469,145.1 469,150.2 458.8,150.2 458.8,141.9 441.9,142 441.9,145.1 442,145.1 	"/>
	<rect x="441.9" y="329.1" class="st5" width="45.9" height="3.1"/>
	<rect x="448.8" y="150.4" class="st5" width="3.2" height="3"/>
	<rect x="600.2" y="150.4" class="st5" width="3.2" height="3"/>
	<rect x="593.3" y="329.1" class="st5" width="45.9" height="3.1"/>
	<polygon class="st5" points="596.5,145.1 607,145.1 607,153.4 623.5,153.4 623.5,142 614.5,142 614.5,145.1 620.4,145.1 
		620.4,150.2 610.2,150.2 610.2,141.9 593.3,142 593.3,153.4 596.5,153.4 	"/>
	<polygon class="st5" points="531.3,153.4 547.8,153.4 547.8,142 538.8,142 538.8,145.1 544.7,145.1 544.7,150.2 534.4,150.2 
		534.4,141.9 517.7,142 517.7,153.4 520.8,153.4 520.8,145.1 531.3,145.1 	"/>
	<rect x="517.6" y="134.4" class="st5" width="45.9" height="3.2"/>
	<rect x="297" y="344.8" class="st5" width="3.1" height="3.1"/>
	<rect x="524.4" y="344.8" class="st5" width="3.2" height="3.1"/>
	<polygon class="st5" points="538.8,339.8 544.7,339.8 544.7,344.7 534.4,344.7 534.4,336.6 517.7,336.6 517.7,347.8 520.8,347.8 
		520.8,339.8 531.3,339.8 531.3,347.8 532.8,347.8 532.8,347.9 546.9,347.9 546.9,347.8 547.8,347.8 547.8,336.6 538.8,336.6 	"/>
	<polygon class="st5" points="584.4,150.2 579.6,150.2 579.6,134.4 576.4,134.4 576.4,150.2 571.8,150.2 571.8,134.4 568.7,134.4 
		568.7,142 554.5,142 554.5,153.4 563.8,153.4 563.8,150.2 557.7,150.2 557.7,145.1 568.7,145.1 568.7,153.4 587.5,153.4 
		587.5,134.4 584.4,134.4 	"/>
	<polygon class="st5" points="584.4,344.7 579.6,344.7 579.6,329.1 576.4,329.1 576.4,344.7 571.8,344.7 571.8,329.1 568.7,329.1 
		568.7,336.6 554.5,336.6 554.5,347.9 563.8,347.9 563.8,344.8 557.7,344.8 557.7,339.8 568.7,339.8 568.7,347.8 569.5,347.8 
		569.5,347.9 586.9,347.9 586.9,347.8 587.5,347.8 587.5,329.1 584.4,329.1 	"/>
	<rect x="600.2" y="344.8" class="st5" width="3.2" height="3.1"/>
	<rect x="517.6" y="329.1" class="st5" width="45.9" height="3.1"/>
	<polygon class="st5" points="463.2,339.8 469,339.8 469,344.7 458.8,344.7 458.8,336.6 441.9,336.6 441.9,339.8 442,339.8 
		442,347.8 445.2,347.8 445.2,339.8 455.6,339.8 455.6,347.8 457,347.8 457,347.9 471.2,347.9 471.2,347.8 472.2,347.8 472.2,336.6 
		463.2,336.6 	"/>
	<rect x="448.8" y="344.8" class="st5" width="3.2" height="3.1"/>
	<polygon class="st5" points="508.8,344.7 504,344.7 504,329.1 500.8,329.1 500.8,344.7 496.1,344.7 496.1,329.1 493,329.1 
		493,336.6 478.8,336.6 478.8,347.9 488,347.9 488,344.8 482,344.8 482,339.8 493,339.8 493,347.8 493.8,347.8 493.8,347.9 
		511.3,347.9 511.3,347.8 511.8,347.8 511.8,329.1 508.8,329.1 	"/>
	<polygon class="st5" points="508.8,150.2 504,150.2 504,134.4 500.8,134.4 500.8,150.2 496.1,150.2 496.1,134.4 493,134.4 493,142 
		478.8,142 478.8,153.4 488,153.4 488,150.2 482,150.2 482,145.1 493,145.1 493,153.4 511.8,153.4 511.8,134.4 508.8,134.4 	"/>
	<polygon class="st5" points="736.2,150.2 731.4,150.2 731.4,134.4 728.3,134.4 728.3,150.2 723.6,150.2 723.6,134.4 720.4,134.4 
		720.4,142 706.3,142 706.3,145.1 706.4,145.1 706.4,153.4 715.6,153.4 715.6,150.2 709.5,150.2 709.5,145.1 720.4,145.1 
		720.4,153.4 739.4,153.4 739.4,134.4 736.2,134.4 	"/>
	<polygon class="st5" points="432.5,150.2 427.8,150.2 427.8,134.4 424.7,134.4 424.7,150.2 420,150.2 420,134.4 416.9,134.4 
		416.9,142 402.6,142 402.6,145.1 402.7,145.1 402.7,153.4 411.9,153.4 411.9,150.2 405.9,150.2 405.9,145.1 416.9,145.1 
		416.9,153.4 435.7,153.4 435.7,134.4 432.5,134.4 	"/>
	<rect x="750.6" y="344.8" class="st5" width="3.2" height="3.1"/>
	<polygon class="st5" points="765.1,339.8 770.9,339.8 770.9,344.7 760.7,344.7 760.7,336.6 743.8,336.6 743.8,339.8 743.9,339.8 
		743.9,347.8 747.1,347.8 747.1,339.8 757.5,339.8 757.5,347.8 758.9,347.8 758.9,347.9 773.1,347.9 773.1,347.8 774.1,347.8 
		774.1,336.6 765.1,336.6 	"/>
	<polygon class="st5" points="54.5,344.7 49.8,344.7 49.8,329.1 46.6,329.1 46.6,344.7 42,344.7 42,329.1 38.8,329.1 38.8,336.6 
		24.6,336.6 24.6,347.9 33.9,347.9 33.9,344.8 27.8,344.8 27.8,339.8 38.8,339.8 38.8,347.8 39.6,347.8 39.6,347.9 57.1,347.9 
		57.1,347.8 57.6,347.8 57.6,329.1 54.5,329.1 	"/>
	<polygon class="st5" points="736.2,344.7 731.4,344.7 731.4,329.1 728.3,329.1 728.3,344.7 723.6,344.7 723.6,329.1 720.4,329.1 
		720.4,336.6 706.3,336.6 706.3,339.8 706.4,339.8 706.4,347.8 706.4,347.8 706.4,347.9 715.6,347.9 715.6,344.8 709.5,344.8 
		709.5,339.8 720.4,339.8 720.4,347.8 721.4,347.8 721.4,347.9 738.8,347.9 738.8,347.8 739.4,347.8 739.4,329.1 736.2,329.1 	"/>
	<polygon class="st5" points="660.1,150.2 655.3,150.2 655.3,134.4 652.2,134.4 652.2,150.2 647.5,150.2 647.5,134.4 644.3,134.4 
		644.3,142 630.2,142 630.2,153.4 639.4,153.4 639.4,150.2 633.3,150.2 633.3,145.1 644.3,145.1 644.3,153.4 663.3,153.4 
		663.3,134.4 660.1,134.4 	"/>
	<polygon class="st5" points="660.1,344.7 655.3,344.7 655.3,329.1 652.2,329.1 652.2,344.7 647.5,344.7 647.5,329.1 644.3,329.1 
		644.3,336.6 630.2,336.6 630.2,347.9 639.4,347.9 639.4,344.8 633.3,344.8 633.3,339.8 644.3,339.8 644.3,347.8 645.3,347.8 
		645.3,347.9 662.7,347.9 662.7,347.8 663.3,347.8 663.3,329.1 660.1,329.1 	"/>
	<polygon class="st5" points="614.5,339.8 620.4,339.8 620.4,344.7 610.2,344.7 610.2,336.6 593.3,336.6 593.3,347.8 596.5,347.8 
		596.5,339.8 607,339.8 607,347.8 608.4,347.8 608.4,347.9 622.6,347.9 622.6,347.8 623.5,347.8 623.5,336.6 614.5,336.6 	"/>
	<rect x="676.3" y="344.8" class="st5" width="3.2" height="3.1"/>
	<polygon class="st5" points="699.6,336.6 690.6,336.6 690.6,339.8 696.5,339.8 696.5,344.7 686.3,344.7 686.3,337.4 686.3,337.4 
		686.3,336.6 669.4,336.6 669.4,339.8 669.5,339.8 669.5,347.8 672.6,347.8 672.6,339.8 683.1,339.8 683.1,347.8 684.5,347.8 
		684.5,347.9 698.7,347.9 698.7,347.8 699.7,347.8 699.7,337.4 699.6,337.4 	"/>
	<polygon class="st5" points="800,347.9 800,344.7 798,344.7 798,329.1 794.9,329.1 794.8,336.6 780.6,336.6 780.6,347.9 
		789.9,347.9 789.9,344.8 783.9,344.8 783.9,339.8 794.8,339.8 794.8,347.8 795.6,347.8 795.6,347.9 	"/>
	<rect x="146.6" y="344.8" class="st5" width="3.2" height="3.1"/>
	<polygon class="st5" points="130.9,150.2 126.2,150.2 126.2,134.4 123.1,134.4 123.1,150.2 118.4,150.2 118.4,134.4 115.2,134.4 
		115.2,142 101,142 101,145.1 101.1,145.1 101.1,153.4 110.3,153.4 110.3,150.2 104.2,150.2 104.2,145.1 115.2,145.1 115.2,153.4 
		134.1,153.4 134.1,134.4 130.9,134.4 	"/>
	<polygon class="st5" points="169.9,336.6 160.9,336.6 160.9,339.8 166.8,339.8 166.8,344.7 156.6,344.7 156.6,336.6 139.8,336.6 
		139.8,339.8 139.8,339.8 139.8,347.8 142.9,347.8 142.9,339.8 153.4,339.8 153.4,347.8 154.8,347.8 154.8,347.9 169,347.9 
		169,347.8 170,347.8 170,337.4 169.9,337.4 	"/>
	<rect x="221.5" y="344.8" class="st5" width="3.2" height="3.1"/>
	<polygon class="st5" points="206.5,344.7 201.7,344.7 201.7,329.1 198.6,329.1 198.6,344.7 193.9,344.7 193.9,329.1 190.8,329.1 
		190.8,336.6 176.6,336.6 176.6,339.8 176.7,339.8 176.6,342.6 176.6,347.8 176.6,347.8 176.6,347.9 185.9,347.9 185.9,344.8 
		179.7,344.7 179.7,339.8 190.8,339.8 190.8,347.8 191.7,347.8 191.7,347.9 209.1,347.9 209.1,347.8 209.7,347.8 209.7,329.1 
		206.5,329.1 	"/>
	<polygon class="st5" points="206.5,150.2 201.7,150.2 201.7,134.4 198.6,134.4 198.6,150.2 193.9,150.2 193.9,134.4 190.8,134.4 
		190.8,142 176.6,142 176.6,145.1 176.7,145.1 176.6,153.4 185.9,153.4 185.9,150.2 179.7,150.2 179.7,145.1 190.8,145.1 
		190.8,153.4 209.7,153.4 209.7,134.4 206.5,134.4 	"/>
	<polygon class="st5" points="130.9,344.7 126.2,344.7 126.2,329.1 123.1,329.1 123.1,344.7 118.4,344.7 118.4,329.1 115.2,329.1 
		115.2,336.6 101,336.6 101,339.8 101.1,339.8 101.1,347.9 110.3,347.9 110.3,344.8 104.2,344.8 104.2,339.8 115.2,339.8 
		115.2,347.8 116.1,347.8 116.1,347.9 133.6,347.9 133.6,347.8 134.1,347.8 134.1,329.1 130.9,329.1 	"/>
	<polygon class="st5" points="70.9,347.9 74.2,347.9 74.2,344.8 71,344.8 	"/>
	<polygon class="st5" points="54.5,150.2 49.8,150.2 49.8,134.4 46.6,134.4 46.6,150.2 42,150.2 42,134.4 38.8,134.4 38.8,142 
		24.6,142 24.6,153.4 33.9,153.4 33.9,150.2 27.8,150.2 27.8,145.1 38.8,145.1 38.8,153.4 57.6,153.4 57.6,134.4 54.5,134.4 	"/>
	<polygon class="st5" points="85.4,339.8 91.3,339.8 91.3,344.7 81.1,344.7 81.1,336.6 64.2,336.6 64.2,339.8 64.3,339.8 
		64.3,347.8 67.4,347.8 67.4,339.8 77.9,339.8 77.9,347.8 79.4,347.8 79.4,347.9 93.4,347.9 93.4,347.8 94.4,347.8 94.4,336.6 
		85.4,336.6 	"/>
	<polygon class="st5" points="281.4,150.2 276.7,150.2 276.7,134.4 273.5,134.4 273.5,150.2 268.9,150.2 268.9,134.4 265.8,134.4 
		265.8,142 251.5,142 251.5,145.1 251.6,145.1 251.6,153.4 260.8,153.4 260.8,150.2 254.8,150.2 254.8,145.1 265.8,145.1 
		265.8,153.4 284.6,153.4 284.6,134.4 281.4,134.4 	"/>
	<rect x="372.6" y="344.8" class="st5" width="3.2" height="3.1"/>
	<polygon class="st5" points="235.9,339.8 241.8,339.8 241.8,344.7 231.5,344.7 231.5,336.6 214.7,336.6 214.7,339.8 214.8,339.8 
		214.8,347.8 217.9,347.8 217.9,339.8 228.3,339.8 228.3,347.8 229.8,347.8 229.8,347.9 244,347.9 244,347.8 244.9,347.8 
		244.9,336.6 235.9,336.6 	"/>
	<polygon class="st5" points="386.9,339.8 392.9,339.8 392.9,344.7 382.7,344.7 382.7,336.6 365.8,336.6 365.8,339.8 365.9,339.8 
		365.9,347.8 369,347.8 369,339.8 379.4,339.8 379.4,347.8 380.9,347.8 380.9,347.9 395.1,347.9 395.1,347.8 396.1,347.8 
		396.1,336.6 386.9,336.6 	"/>
	<polygon class="st5" points="356.9,344.7 352.1,344.7 352.1,329.1 348.9,329.1 348.9,344.7 344.3,344.7 344.3,329.1 341.1,329.1 
		341.1,336.6 327,336.6 327,347.9 336.2,347.9 336.2,344.8 330.2,344.8 330.2,339.8 341.1,339.8 341.1,347.8 342.1,347.8 
		342.1,347.9 359.5,347.9 359.5,347.8 360.1,347.8 360.1,329.1 356.9,329.1 	"/>
	<polygon class="st5" points="356.9,150.2 352.1,150.2 352.1,134.4 348.9,134.4 348.9,150.2 344.3,150.2 344.3,134.4 341.1,134.4 
		341.1,142 327,142 327,153.4 336.2,153.4 336.2,150.2 330.2,150.2 330.2,145.1 341.1,145.1 341.1,153.4 360.1,153.4 360.1,134.4 
		356.9,134.4 	"/>
	<polygon class="st5" points="311.3,339.8 317.1,339.8 317.1,344.7 306.9,344.7 306.9,336.6 290.1,336.6 290.1,347.8 293.3,347.8 
		293.3,339.8 303.8,339.8 303.8,347.8 305.2,347.8 305.2,347.9 319.4,347.9 319.4,347.8 320.3,347.8 320.3,336.6 311.3,336.6 	"/>
	<polygon class="st5" points="281.4,344.7 276.7,344.7 276.7,329.1 273.5,329.1 273.5,344.7 268.9,344.7 268.9,329.1 265.8,329.1 
		265.8,336.6 251.5,336.6 251.5,339.8 251.6,339.8 251.6,347.9 260.8,347.9 260.8,344.8 254.8,344.8 254.8,339.8 265.8,339.8 
		265.8,347.8 266.6,347.8 266.6,347.9 284,347.9 284,347.8 284.6,347.8 284.6,329.1 281.4,329.1 	"/>
	<polygon class="st5" points="432.5,344.7 427.8,344.7 427.8,329.1 424.7,329.1 424.7,344.7 420,344.7 420,329.1 416.9,329.1 
		416.9,336.6 402.6,336.6 402.6,339.8 402.7,339.8 402.7,347.9 411.9,347.9 411.9,344.8 405.9,344.8 405.9,339.8 416.9,339.8 
		416.9,347.8 417.7,347.8 417.7,347.9 435.2,347.9 435.2,347.8 435.7,347.8 435.7,329.1 432.5,329.1 	"/>
	<polygon class="st5" points="336.1,332.2 336.1,329.1 290,329.1 290.1,332.2 	"/>
</g>
</svg>
