<?xml version="1.0" encoding="utf-8"?>
<!-- Generator: Adobe Illustrator 24.0.1, SVG Export Plug-In . SVG Version: 6.00 Build 0)  -->
<svg version="1.1" id="flag-icons-je" xmlns="http://www.w3.org/2000/svg" xmlns:xlink="http://www.w3.org/1999/xlink" x="0px"
	 y="0px" viewBox="0 0 800 480" style="enable-background:new 0 0 800 480;" xml:space="preserve">
<style type="text/css">
	.st0{fill:#FFFFFF;}
	.st1{fill-rule:evenodd;clip-rule:evenodd;fill:#DF112D;}
	.st2{fill:#E8112D;stroke:#000000;stroke-width:0.3258;stroke-miterlimit:13.031;}
	.st3{fill:#F9DD16;stroke:#000000;stroke-width:0.3258;stroke-miterlimit:13.031;}
	.st4{fill:none;stroke:#000000;stroke-width:0.3258;stroke-miterlimit:13.031;}
	.st5{fill:#FF0016;stroke:#000000;stroke-width:0.3258;stroke-miterlimit:13.031;}
	.st6{stroke:#000000;stroke-width:0.3258;stroke-miterlimit:13.031;}
	.st7{fill:#0051BA;}
	.st8{fill:#F9DD16;stroke:#000000;stroke-width:0.1;}
	.st9{fill:none;stroke:#000000;stroke-width:0.1;}
	.st10{fill:#FF0016;stroke:#000000;stroke-width:0.1;}
	.st11{stroke:#000000;stroke-width:0.1;}
</style>
<path class="st0" d="M0,0h800v480H0L0,0z"/>
<polygon class="st1" points="453.4,240 800,35.5 800,0 752.6,0 400,208 49,0 0,0 0,34.6 349.8,240 0,446.3 0,480 49,480 401.6,272 
	752.6,480 800,480 800,445.4 "/>
<g transform="translate(-9.7 -6) scale(.20361)">
	<path class="st2" d="M2218,384.7c49.6,204.8,22.4,457.6-206.4,598.4c-227.2-140.8-256-393.6-204.8-598.4
		C1861.2,336.7,2104.4,306.3,2218,384.7z"/>
	<path class="st3" d="M2013.2,343.1c72-1.6,144,16,206.4,51.2c10.5-69.8,37.4-136.1,78.4-193.6c-40,0-57.6,20.8-57.6,41.6
		c-9.6-27.2-48-25.6-60.8-11.2c43.2,28.8,9.6,80-28.8,70.4c-17.6-4.8-27.2-17.6-32-36.8c11.3-2.2,18.6-13.1,16.4-24.4
		c-2.2-11.3-13.1-18.6-24.4-16.4c-11.3,2.2-18.6,13.1-16.4,24.4c1.6,8.3,8.1,14.8,16.4,16.4c-11.2,16-30.4,25.6-49.6,20.8
		c-20.8-4.8-30.4-24-30.4-40c0-43.2,41.6-49.6,54.4-41.6c0-28.8-46.4-52.8-60.8-28.8c16-30.4,12.8-68.8-12.8-92.8
		c-24,24.2-29.3,61.3-12.8,91.2c-14.4-24-59.2,0-59.2,28.8c11.2-8,52.8-1.6,52.8,41.6c0,16-9.6,35.2-28.8,40
		c-19.7,4.6-40.2-3.8-51.2-20.8c3.2,0,6.4-3.2,9.6-6.4c7.9-8.4,7.5-21.5-0.9-29.4s-21.5-7.5-29.4,0.9s-7.5,21.5,0.9,29.4
		c3.2,3.1,7.4,5,11.8,5.5c-3.2,19.2-14.4,32-32,36.8c-20.6,5.2-41.5-7.2-46.7-27.7c-4.2-16.6,3.1-34,17.9-42.7
		c-12.8-16-51.2-16-60.8,11.2c0-20.8-17.6-41.6-57.6-41.6c41.6,57.3,69,123.7,80,193.6C1869,358.3,1940.7,341.2,2013.2,343.1z"/>
	<g id="b">
		<g>
			<path class="st3" d="M2186,544.7c-6.4,0-6.4,8-8,8c12.8,0,19.2-4.8,22.4-11.2v9.6c9.6-3.2,12.8-11.2,9.6-16l11.2,3.2
				c-6.4-4.8-1.6-16-12.8-22.4c3.2,0,9.6,3.2,12.8,8c-1.6-11.2-3.2-17.6-12.8-24h8c-4.3-2.8-6.7-7.7-6.4-12.8c0-6.4-3.2-6.4-9.6-4.8
				l-28.8,1.6c-16,0-32,0-44.8-9.6c20.8,9.6,48-9.6,48-24c0-16-22.4-32-64-22.4c-41.6,9.6-92.8,6.4-92.8-8s36.8-16,56-12.8
				s32,4.8,67.2-8c-8,3.2-36.8,4.8-59.2-1.6s-76.8-6.4-76.8,22.4c0,30.4,57.6,27.2,108.8,19.2c28.8-3.2,44.8,0,44.8,8
				c0,9.6-27.2,12.8-48,11.2c-22-3-44.3-1.3-65.6,4.8c-20.8,6.4-35.2,0-57.6,4.8c-11.2,0-38.4,0-51.2-22.4c-8,6.4-32,17.6-36.8,30.4
				c-4.8,9.6,0,20.8,6.4,32c9.6,12.8-4.8,11.2-16,11.2c-12.8,0-32,0-41.6-12.8c-9.6-9.6-20.8-17.6-30.4-11.2c-4.8,4.8,0,9.6,3.2,8
				l12.8,3.2c-5.2-2.4-11.3-1.8-16,1.6c-4.8,3.2,0,9.6,4.8,8c3.2-1.6,11.2-3.2,16,0c-4.8,0-11.2,0-12.8,3.2s0,6.4,4.8,6.4
				c9.6,0,11.2,6.4,20.8,4.8c-4.5,0.2-8.7,2.6-11.2,6.4c9.6-4.8,17.6,6.4,28.8,3.2c-3.2,1.6-11.2,6.4-11.2,9.6
				c6.4-8,51.2,6.4,51.2-11.2l-1.6,12.8c4.8-3.2,22.4-4.8,28.8-16c0,3.2,0,8-3.2,9.6c4.8,0,12.8-3.2,20.8-14.4
				c3.2-4.8,3.2-8,3.2-11.2c8,0,12.8-1.6,19.2-6.4c6.4-4.8,12.8,4.8,24-3.2c9.6-6.4,19.2,0,25.6-3.2c4.8-3.2,12.8,0,19.2-3.2
				c6.4-3.2,16,1.6,25.6-6.4c16,6.4,36.8,16,83.2,8c25.6-4.8,35.2,4.8,35.2,16c0,9.6-6.4,9.6-9.6,9.6c-16,1.6-20.8-4.8-27.2-3.2
				c-3.2,1.6-6.4,8,0,11.2c-4.8,1.6-4.8,6.4-1.6,8s8,0,12.8-1.6c-6.4,1.6-11.2,6.4-8,11.2c1.6,3.2,6.4,4.8,11.2,0
				C2171.6,549.5,2179.6,544.7,2186,544.7L2186,544.7z M1888.4,416.7c-12.8-4.8-16-4.8-14.4,6.4c0,4.8,4.8,11.2,8,14.4
				c0-4.8,1.6-16,6.4-19.2V416.7z"/>
			<path class="st3" d="M1931.6,418.3c12.8-6.4,17.6-6.4,14.4,4.8c0,4.8-4.8,11.2-8,14.4C1938,432.7,1938,421.5,1931.6,418.3z"/>
			<path class="st3" d="M1910.8,410.3c25.6,0,28.8,12.8,27.2,27.2c0,16-8,9.6-12.8,32c-1.6,6.4-8,8-16,8c-4.8,0-11.2,0-14.4-9.6
				c-4.8-20.8-12.8-16-12.8-32C1882,423.1,1885.2,410.3,1910.8,410.3L1910.8,410.3z"/>
			<path class="st3" d="M1845.2,469.5c-6.4-3.2-11.2,0-14.4,0c9.6,1.6,9.6,12.8,28.8,16c-4.8,0-6.4,3.2-11.2,0
				c8,6.4,16,14.4,35.2,14.4c11.2,0,3.2,4.8-3.2,1.6c6.4,8,20.8,1.6,30.4,16c0-11.2-16-27.2-8-38.4c-27.2-1.6-28.8-16-43.2-27.2
				c-12.8-9.6-14.4-19.2-19.2-36.8c-1.6-8-11.2-12.8-16-11.2c-4.8,0-8,4.8-3.2,8c3.2,3.2,9.6,3.2,9.6,11.2c-4.8-6.4-12.8-8-16-4.8
				c-1.6,3.2,0,8,3.2,8c8,0,3.2,9.6,11.2,16c-8-8-14.4-9.6-19.2-4.8c-1.6,3.2,0,8,6.4,8C1824.4,445.5,1832.4,464.7,1845.2,469.5
				L1845.2,469.5z M2053.2,543.1c-3.2,0-1.6,8-8,8c12.8,0,20.8-3.2,25.6-8l-3.2,8c6.4-4.8,24-6.4,32-4.8s9.6-1.6,12.8-6.4
				c3.2-6.4,0-9.6-4.8-12.8c-4.8-4.8-6.4-11.2-4.8-20.8c-22.4-32-64-16-64-3.2c14.4,17.6,16,16,28.8,17.6
				c11.2,3.2,19.2,3.2,11.2,9.6c-3.2,3.2-16,0-24,1.6c-20.8,0-32-14.4-36.8-6.4c-4.8,6.4,0,9.6,9.6,9.6c-6.4,0-16,0-14.4,6.4
				c3.2,11.2,12.8-1.6,17.6,1.6c-3.2,0-9.6,1.6-9.6,4.8s8,8,16,0C2041.8,544.5,2047.5,542.8,2053.2,543.1L2053.2,543.1z"/>
		</g>
		<path class="st4" d="M2070.8,496.7c-6.4-3.2-14.4-4.8-22.4-3.2 M1958.8,493.5c-6.4,12.8-3.2,19.2-1.6,25.6 M1893.2,429.5
			c3.2,3.2,6.4-3.2,12.8,3.2c-1.6-1.6-4.8,4.8-9.6,0 M1928.4,431.1c-4.8,0-8-4.8-14.4,1.6c1.6-1.6,4.8,4.8,9.6,0 M1914,432.7v4.8
			c1.6,11.2,4.8,16-4.8,16c-8,0-4.8-4.8-3.2-16v-4.8"/>
		<path class="st5" d="M1910.8,472.7c6.4,0,9.6,0,9.6-9.6c0-3.2,4.8-4.8,1.6-11.2c3.2,6.4-11.2,6.4-11.2,3.2c0,3.2-16,3.2-12.8-3.2
			c-1.6,6.4,3.2,8,1.6,11.2C1899.6,472.7,1902.8,472.7,1910.8,472.7L1910.8,472.7z"/>
		<path class="st6" d="M1902.8,453.5l-16-4.8 M1902.8,453.5h-16 M1902.8,455.1l-14.4,4.8 M1915.6,453.5l16-4.8 M1915.6,453.5h19.2
			 M1915.6,455.1l16,4.8"/>
		<path class="st7" d="M1824.4,403.9c-4.8-6.4-16,0-16,6.4c3.2-4.8,9.6,1.6,14.4,0C1824.4,410.3,1827.6,407.1,1824.4,403.9z
			 M1819.6,418.3c-4.8-6.4-17.6,0-17.6,6.4c3.2-4.8,9.6,1.6,14.4,0C1818,424.7,1821.2,419.9,1819.6,418.3z M1816.4,437.5
			c-6.4-6.4-17.6,0-16,8c3.2-4.8,9.6,0,12.8,0c3.2-1.6,4.8-6.4,1.6-8H1816.4z M1821.2,496.7c-6.4-6.4-16,1.6-16,9.6
			c3.2-6.4,11.2,0,16-3.2c0,0,3.2-4.8,0-8V496.7z M1821.2,507.9c-8-1.6-16,9.6-11.2,16c0-8,9.6-4.8,12.8-8L1821.2,507.9
			L1821.2,507.9z M1830.8,519.1c-8-3.2-16,6.4-11.2,12.8c0-4.8,9.6-3.2,11.2-6.4v-8V519.1z M2018,536.7c-8-1.6-16,8-11.2,16
			c0-8,9.6-4.8,12.8-8L2018,536.7L2018,536.7z M2027.6,546.3c-8-1.6-14.4,9.6-9.6,16c0-8,9.6-6.4,11.2-9.6c1.6-1.6,1.6-6.4,0-6.4
			H2027.6z M2021.2,523.9c-6.4-3.2-16,6.4-14.4,12.8c3.2-6.4,11.2-1.6,14.4-4.8v-6.4V523.9z M2154,539.9c-6.4-1.6-12.8,9.6-9.6,16
			c0-6.4,9.6-4.8,12.8-8C2157.2,544.7,2157.2,539.9,2154,539.9z M2154,528.7c-6.4-4.8-16,4.8-12.8,11.2c3.2-4.8,11.2-1.6,14.4-4.8
			v-8L2154,528.7z M2160.4,549.5c-8,0-14.4,11.2-9.6,16c0-6.4,9.6-4.8,11.2-8C2163.6,554.3,2162,551.1,2160.4,549.5L2160.4,549.5z
			 M1910.8,466.3c4.8,0,6.4,1.6,6.4,11.2c0,16,0,25.6-6.4,25.6c-4.8,0-4.8-8-4.8-20.8c0-6.4,0-11.2-1.6-9.6
			C1904.4,467.9,1906,466.3,1910.8,466.3z"/>
	</g>
	<g>
		<path class="st3" d="M2162,712.7c-4.8,0-4.8,6.4-6.4,6.4c11.2,0,16-3.2,19.2-9.6v8c9.6-1.6,12.8-9.6,9.6-14.4l9.6,3.2
			c-4.8-3.2,0-14.4-11.2-19.2c3.2,0,8,1.6,11.2,6.4c0-9.6-3.2-16-11.2-20.8h6.4c-3.9-3-5.8-8-4.8-12.8c0-4.8-3.2-4.8-9.6-3.2h-25.6
			c-14.4,0-28.8,0-40-8c19.2,9.6,43.2-8,43.2-20.8c0-16-20.8-28.8-57.6-20.8c-36.8,9.6-83.2,6.4-83.2-6.4s32-16,49.6-12.8
			c17.6,3.2,28.8,4.8,60.8-6.4c-6.4,3.2-32,4.8-52.8-1.6s-68.8-6.4-68.8,20.8s51.2,24,96,16c27.2-1.6,41.6,0,41.6,8
			s-24,11.2-43.2,9.6c-19.9-2.5-40-0.9-59.2,4.8c-19.2,6.4-32,0-51.2,4.8c-11.2,0-35.2,0-48-20.8c-6.4,6.4-27.2,16-32,27.2
			c-3.2,9.6,0,19.2,6.4,28.8c8,11.2-4.8,9.6-16,9.6c-9.6,0-27.2,0-36.8-11.2c-8-8-17.6-16-27.2-9.6c-3.2,4.8,0,8,3.2,6.4l11.2,3.2
			c-4.7-2.1-10.2-1.5-14.4,1.6c-3.2,3.2,0,9.6,4.8,8c3.2-1.6,9.6-3.2,14.4,0l-11.2,1.6c-1.6,1.6,0,6.4,4.8,6.4c8,0,9.6,6.4,17.6,4.8
			c-3.7,0.1-7.3,1.9-9.6,4.8c8-3.2,16,6.4,25.6,3.2c-3.2,1.6-9.6,6.4-9.6,9.6c4.8-8,46.4,4.8,46.4-11.2l-1.6,11.2
			c3.2-1.6,19.2-3.2,25.6-14.4c0,3.2,0,8-3.2,9.6c4.8,0,11.2-3.2,19.2-12.8c3.2-4.8,3.2-8,3.2-11.2c6.4,0,11.2,0,16-4.8
			c6.4-4.8,12.8,4.8,22.4-3.2c8-6.4,16,0,22.4-3.2c4.8-3.2,12.8,0,17.6-3.2s16,1.6,24-4.8c14.4,4.8,32,14.4,73.6,6.4
			c24-3.2,32,4.8,32,16c0,8-4.8,8-8,8c-16,0-19.2-4.8-25.6-3.2c-1.6,0-4.8,6.4,0,9.6c-3.2,1.6-3.2,6.4,0,8s6.4,0,11.2-1.6
			c-6.4,0-11.2,4.8-8,9.6c1.6,3.2,6.4,4.8,11.2,0C2149.2,717.5,2157.2,712.7,2162,712.7L2162,712.7z M1894.8,597.5
			c-11.2-4.8-16-4.8-12.8,4.8c0,4.8,4.8,11.2,6.4,14.4c0-4.8,1.6-16,6.4-17.6V597.5z"/>
		<path class="st3" d="M1934.8,599.1c9.6-6.4,16-6.4,11.2,3.2c0,4.8-3.2,11.2-6.4,14.4c0-4.8,0-16-6.4-17.6L1934.8,599.1z"/>
		<path class="st3" d="M1915.6,591.1c22.4,0,25.6,11.2,24,25.6c0,14.4-8,8-11.2,28.8c-1.6,4.8-8,6.4-16,6.4c-3.2,0-9.6,0-11.2-8
			c-4.8-19.2-12.8-16-12.8-28.8S1891.6,591.1,1915.6,591.1z"/>
		<path class="st3" d="M1854.8,645.5c-4.8-3.2-9.6,0-11.2,0c8,0,8,11.2,25.6,14.4H1858c8,4.8,16,12.8,32,12.8c11.2,0,3.2,3.2-3.2,0
			c6.4,8,19.2,1.6,28.8,16c0-11.2-16-25.6-8-35.2c-24-1.6-25.6-16-38.4-24c-11.2-9.6-12.8-17.6-17.6-33.6c-1.6-8-9.6-11.2-16-9.6
			c-3.2,0-6.4,3.2,0,6.4c0,3.2,8,3.2,8,9.6c-4.8-4.8-12.8-6.4-16-3.2c0,3.2,0,6.4,3.2,6.4c8,0,3.2,9.6,11.2,16
			c-8-8-12.8-9.6-17.6-4.8c-1.6,1.6,0,6.4,4.8,6.4c8,0,16,16,27.2,22.4L1854.8,645.5z M2043.6,709.5c-3.2,0-1.6,8-8,8
			c11.2,0,19.2-1.6,24-6.4l-3.2,6.4c4.8-3.2,20.8-4.8,28.8-3.2s8-1.6,11.2-6.4c3.2-4.8,0-8-4.8-11.2c-3.2-4.8-4.8-9.6-3.2-19.2
			c-20.8-28.8-57.6-14.4-57.6-3.2c12.8,16,14.4,16,25.6,16c9.6,3.2,16,3.2,9.6,9.6c-3.2,3.2-14.4,0-20.8,0
			c-19.2,0-28.8-11.2-33.6-4.8c-4.8,6.4,0,8,8,8c-4.8,0-14.4,0-12.8,6.4c3.2,9.6,11.2,0,16,0c-3.2,0-8,3.2-8,6.4
			c0,1.6,6.4,6.4,14.4,0c4.1-3.2,9.2-4.9,14.4-4.8V709.5z"/>
	</g>
	<path class="st4" d="M2059.6,669.5c-6.4-3.4-13.7-4.5-20.8-3.2 M1958.8,666.3c-6.4,11.2-3.2,16-1.6,22.4 M1899.6,608.7
		c1.6,3.2,4.8-3.2,11.2,3.2c-1.6-1.6-4.8,4.8-9.6,0 M1930,610.3c-3.2,0-6.4-4.8-12.8,0c1.6,0,4.8,6.4,9.6,0 M1917.2,610.3v6.4
		c1.6,9.6,4.8,14.4-3.2,14.4s-4.8-4.8-3.2-16v-3.2"/>
	<path class="st5" d="M1915.6,647.1c4.8,0,8,0,8-8c0-3.2,4.8-4.8,0-9.6c4.8,4.8-8,4.8-8,1.6c0,3.2-16,3.2-12.8-1.6
		c0,4.8,3.2,6.4,1.6,9.6C1904.4,647.1,1907.6,647.1,1915.6,647.1L1915.6,647.1z"/>
	<path class="st6" d="M1907.6,631.1l-14.4-4.8 M1907.6,631.1h-14.4 M1907.6,631.1l-12.8,4.8 M1918.8,631.1l16-4.8 M1918.8,631.1
		h17.6 M1920.4,631.1l12.8,4.8"/>
	<path class="st7" d="M1837.2,586.3c-4.8-6.4-16,0-16,4.8c4.8-3.2,9.6,1.6,14.4,0c0,0,4.8-3.2,0-4.8H1837.2z M1832.4,599.1
		c-3.2-6.4-16,0-16,4.8c3.2-3.2,9.6,1.6,12.8,0C1830.8,603.9,1834,600.7,1832.4,599.1z M1829.2,615.1c-4.8-4.8-16,0-14.4,8
		c3.2-4.8,9.6,0,12.8,0c1.6,0,3.2-6.4,0-6.4L1829.2,615.1z M1834,669.5c-4.8-6.4-14.4,0-14.4,8c3.2-4.8,9.6,0,16-3.2v-4.8H1834z
		 M1834,679.1c-6.4,0-14.4,9.6-9.6,16c0-8,8-6.4,11.2-8v-8H1834z M1843.6,688.7c-8-1.6-16,6.4-11.2,12.8c0-4.8,9.6-3.2,11.2-6.4
		V688.7L1843.6,688.7z M2011.6,704.7c-8,0-16,8-9.6,16c0-8,8-4.8,11.2-8L2011.6,704.7z M2019.6,714.3c-6.4-1.6-12.8,8-8,14.4
		c0-8,8-6.4,9.6-9.6v-4.8L2019.6,714.3z M2014.8,693.5c-6.4-3.2-16,6.4-12.8,11.2c1.6-4.8,9.6,0,12.8-3.2v-6.4V693.5z M2133.2,709.5
		c-4.8-3.2-11.2,8-8,12.8c0-4.8,8-4.8,11.2-6.4c0-3.2,0-8-3.2-8V709.5z M2133.2,698.3c-4.8-4.8-14.4,4.8-11.2,9.6
		c3.2-4.8,9.6,0,12.8-4.8v-6.4L2133.2,698.3z M2139.6,717.5c-8,0-12.8,9.6-8,14.4c0-6.4,8-4.8,9.6-8L2139.6,717.5z M1915.6,642.3
		c3.2,0,4.8,0,4.8,9.6c0,14.4,0,22.4-4.8,22.4s-4.8-6.4-4.8-17.6c0-6.4,0-11.2-1.6-9.6C1909.2,643.9,1909.2,642.3,1915.6,642.3
		L1915.6,642.3z"/>
	<g>
		<path class="st8" d="M2123.1,855.9c-4.3,0-4.3,6-5.4,6c8.6,0,12.9-3.6,15-8.4v7.2c6.4-2.4,8.6-8.4,6.4-12l7.5,2.4
			c-4.3-3.6-1.1-12-8.6-16.8c2.1,0,6.4,2.4,8.6,6c-1.1-8.4-2.1-13.2-8.6-18h5.4c-2.8-2.1-4.5-5.8-4.3-9.6c0-4.8-2.1-4.8-6.4-3.6
			l-19.3,1.2c-10.7,0-21.4,0-30-7.2c13.9,7.2,32.2-7.2,32.2-18c0-12-15-24-42.9-16.8c-27.9,7.2-62.2,4.8-62.2-6
			c0-10.8,24.7-12,37.5-9.6s21.4,3.6,45-6c-5.4,2.4-24.7,3.6-39.7-1.2c-15-4.8-51.5-4.8-51.5,16.8c0,22.8,38.6,20.4,72.9,14.4
			c19.3-2.4,30,0,30,6c0,7.2-18.2,9.6-32.2,8.4c-14.7-2.2-29.7-1-44,3.6c-13.9,4.8-23.6,0-38.6,3.6c-7.5,0-25.7,0-34.3-16.8
			c-5.4,4.8-21.4,13.2-24.7,22.8c-3.2,7.2,0,15.6,4.3,24c6.4,9.6-3.2,8.4-10.7,8.4c-8.6,0-21.4,0-27.9-9.6
			c-6.4-7.2-13.9-13.2-20.4-8.4c-3.2,3.6,0,7.2,2.1,6l8.6,2.4c-3.5-1.8-7.6-1.3-10.7,1.2c-3.2,2.4,0,7.2,3.2,6
			c2.1-1.2,7.5-2.4,10.7,0c-3.2,0-7.5,0-8.6,2.4c-1.1,2.4,0,4.8,3.2,4.8c6.4,0,7.5,4.8,13.9,3.6c-3,0.2-5.8,2-7.5,4.8
			c6.4-3.6,11.8,4.8,19.3,2.4c-2.1,1.2-7.5,4.8-7.5,7.2c4.3-6,34.3,4.8,34.3-8.4l-1.1,9.6c3.2-2.4,15-3.6,19.3-12c0,2.4,0,6-2.1,7.2
			c3.2,0,8.6-2.4,13.9-10.8c2.1-3.6,2.1-6,2.1-8.4c5.4,0,8.6-1.2,12.9-4.8s8.6,3.6,16.1-2.4c6.4-4.8,12.9,0,17.2-2.4
			c3.2-2.4,8.6,0,12.9-2.4c4.3-2.4,10.7,1.2,17.2-4.8c10.7,4.8,24.7,12,55.7,6c17.2-3.6,23.6,3.6,23.6,12c0,7.2-4.3,7.2-6.4,7.2
			c-10.7,1.2-13.9-3.6-18.2-2.4c-2.1,1.2-4.3,6,0,8.4c-3.2,1.2-3.2,4.8-1.1,6c2.1,1.2,5.4,0,8.6-1.2c-4.3,1.2-7.5,4.8-5.4,8.4
			c1.1,2.4,4.3,3.6,7.5,0C2113.4,859.5,2118.8,855.9,2123.1,855.9L2123.1,855.9z M1923.7,759.9c-8.6-3.6-10.7-3.6-9.6,4.8
			c0,3.6,3.2,8.4,5.4,10.8c0-3.6,1.1-12,4.3-14.4V759.9z"/>
		<path class="st8" d="M1952.6,761.1c8.6-4.8,11.8-4.8,9.6,3.6c0,3.6-3.2,8.4-5.4,10.8C1956.9,771.9,1956.9,763.5,1952.6,761.1z"/>
		<path class="st8" d="M1938.7,755.1c17.2,0,19.3,9.6,18.2,20.4c0,12-5.4,7.2-8.6,24c-1.1,4.8-5.4,6-10.7,6c-3.2,0-7.5,0-9.6-7.2
			c-3.2-15.6-8.6-12-8.6-24C1919.4,764.7,1921.6,755.1,1938.7,755.1L1938.7,755.1z"/>
		<path class="st8" d="M1894.8,799.5c-4.3-2.4-7.5,0-9.6,0c6.4,1.2,6.4,9.6,19.3,12c-3.2,0-4.3,2.4-7.5,0
			c5.4,4.8,10.7,10.8,23.6,10.8c7.5,0,2.1,3.6-2.1,1.2c4.3,6,13.9,1.2,20.4,12c0-8.4-10.7-20.4-5.4-28.8
			c-18.2-1.2-19.3-12-28.9-20.4c-8.6-7.2-9.6-14.4-12.9-27.6c-1.1-6-7.5-9.6-10.7-8.4c-3.2,0-5.4,3.6-2.1,6c2.1,2.4,6.4,2.4,6.4,8.4
			c-3.2-4.8-8.6-6-10.7-3.6c-1.1,2.4,0,6,2.1,6c5.4,0,2.1,7.2,7.5,12c-5.4-6-9.6-7.2-12.9-3.6c-1.1,2.4,0,6,4.3,6
			C1880.8,781.5,1886.2,795.9,1894.8,799.5L1894.8,799.5z M2034.1,854.7c-2.1,0-1.1,6-5.4,6c8.6,0,13.9-2.4,17.2-6l-2.1,6
			c4.3-3.6,16.1-4.8,21.4-3.6c5.4,1.2,6.4-1.2,8.6-4.8c2.1-4.8,0-7.2-3.2-9.6c-3.2-3.6-4.3-8.4-3.2-15.6c-15-24-42.9-12-42.9-2.4
			c9.6,13.2,10.7,12,19.3,13.2c7.5,2.4,12.9,2.4,7.5,7.2c-2.1,2.4-10.7,0-16.1,1.2c-13.9,0-21.4-10.8-24.7-4.8
			c-3.2,4.8,0,7.2,6.4,7.2c-4.3,0-10.7,0-9.6,4.8c2.1,8.4,8.6-1.2,11.8,1.2c-2.1,0-6.4,1.2-6.4,3.6c0,2.4,5.4,6,10.7,0
			C2026.5,855.8,2030.3,854.5,2034.1,854.7L2034.1,854.7z"/>
	</g>
	<path class="st9" d="M2045.9,819.9c-4.3-2.4-9.6-3.6-15-2.4 M1970.9,817.5c-4.3,9.6-2.1,14.4-1.1,19.2 M1926.9,769.5
		c2.1,2.4,4.3-2.4,8.6,2.4c-1.1-1.2-3.2,3.6-6.4,0 M1950.5,770.7c-3.2,0-5.4-3.6-9.6,1.2c1.1-1.2,3.2,3.6,6.4,0 M1940.9,771.9v3.6
		c1.1,8.4,3.2,12-3.2,12c-5.4,0-3.2-3.6-2.1-12v-3.6"/>
	<path class="st10" d="M1938.7,801.9c4.3,0,6.4,0,6.4-7.2c0-2.4,3.2-3.6,1.1-8.4c2.1,4.8-7.5,4.8-7.5,2.4c0,2.4-10.7,2.4-8.6-2.4
		c-1.1,4.8,2.1,6,1.1,8.4C1931.2,801.9,1933.3,801.9,1938.7,801.9L1938.7,801.9z"/>
	<path class="st11" d="M1933.3,787.5l-10.7-3.6 M1933.3,787.5h-10.7 M1933.3,788.7l-9.6,3.6 M1941.9,787.5l10.7-3.6 M1941.9,787.5
		h12.9 M1941.9,788.7l10.7,3.6"/>
	<path class="st7" d="M1880.8,750.3c-3.2-4.8-10.7,0-10.7,4.8c2.1-3.6,6.4,1.2,9.6,0C1880.8,755.1,1883,752.7,1880.8,750.3z
		 M1877.6,761.1c-3.2-4.8-11.8,0-11.8,4.8c2.1-3.6,6.4,1.2,9.6,0C1876.5,765.9,1878.7,762.3,1877.6,761.1z M1875.5,775.5
		c-4.3-4.8-11.8,0-10.7,6c2.1-3.6,6.4,0,8.6,0c2.1-1.2,3.2-4.8,1.1-6H1875.5z M1878.7,819.9c-4.3-4.8-10.7,1.2-10.7,7.2
		c2.1-4.8,7.5,0,10.7-2.4c0,0,2.1-3.6,0-6V819.9z M1878.7,828.3c-5.4-1.2-10.7,7.2-7.5,12c0-6,6.4-3.6,8.6-6L1878.7,828.3
		L1878.7,828.3z M1885.1,836.7c-5.4-2.4-10.7,4.8-7.5,9.6c0-3.6,6.4-2.4,7.5-4.8v-6V836.7z M2010.5,849.9c-5.4-1.2-10.7,6-7.5,12
		c0-6,6.4-3.6,8.6-6L2010.5,849.9L2010.5,849.9z M2017,857.1c-5.4-1.2-9.6,7.2-6.4,12c0-6,6.4-4.8,7.5-7.2c1.1-1.2,1.1-4.8,0-4.8
		H2017z M2012.7,840.3c-4.3-2.4-10.7,4.8-9.6,9.6c2.1-4.8,7.5-1.2,9.6-3.6v-4.8V840.3z M2101.7,852.3c-4.3-1.2-8.6,7.2-6.4,12
		c0-4.8,6.4-3.6,8.6-6C2103.8,855.9,2103.8,852.3,2101.7,852.3z M2101.7,843.9c-4.3-3.6-10.7,3.6-8.6,8.4c2.1-3.6,7.5-1.2,9.6-3.6
		v-6L2101.7,843.9z M2105.9,859.5c-5.4,0-9.6,8.4-6.4,12c0-4.8,6.4-3.6,7.5-6C2108.1,863.1,2107,860.7,2105.9,859.5L2105.9,859.5z
		 M1938.7,797.1c3.2,0,4.3,1.2,4.3,8.4c0,12,0,19.2-4.3,19.2c-3.2,0-3.2-6-3.2-15.6c0-4.8,0-8.4-1.1-7.2
		C1934.4,798.3,1935.5,797.1,1938.7,797.1z"/>
</g>
</svg>
