<?xml version="1.0" encoding="utf-8"?>
<!-- Generator: Adobe Illustrator 24.0.1, SVG Export Plug-In . SVG Version: 6.00 Build 0)  -->
<svg version="1.1" id="flag-icons-jo" xmlns="http://www.w3.org/2000/svg" xmlns:xlink="http://www.w3.org/1999/xlink" x="0px"
	 y="0px" viewBox="0 0 800 480" style="enable-background:new 0 0 800 480;" xml:space="preserve">
<style type="text/css">
	.st0{fill-rule:evenodd;clip-rule:evenodd;}
	.st1{fill-rule:evenodd;clip-rule:evenodd;fill:#FFFFFF;}
	.st2{fill-rule:evenodd;clip-rule:evenodd;fill:#009900;}
	.st3{fill-rule:evenodd;clip-rule:evenodd;fill:#FF0000;}
</style>
<path class="st0" d="M0.1,0H800v160H0.1L0.1,0z"/>
<path class="st1" d="M0.1,160H800V320H0.1L0.1,160z"/>
<path class="st2" d="M0.1,320H800v160H0.1L0.1,320z"/>
<path class="st3" d="M0.1,480l600-240L0.1,0L0.1,480L0.1,480z"/>
<polygon class="st1" points="227.5,251.7 200.3,238.7 219.3,215.2 192.2,228.3 185.5,198.9 178.8,228.2 151.7,215.2 170.4,238.7 
	143.3,251.7 173.4,251.7 166.7,281.1 185.5,257.5 204.2,281.1 197.5,251.7 "/>
</svg>
