<?xml version="1.0" encoding="utf-8"?>
<!-- Generator: Adobe Illustrator 24.0.1, SVG Export Plug-In . SVG Version: 6.00 Build 0)  -->
<svg version="1.1" id="flag-icons-ke" xmlns="http://www.w3.org/2000/svg" xmlns:xlink="http://www.w3.org/1999/xlink" x="0px"
	 y="0px" viewBox="0 0 800 480" style="enable-background:new 0 0 800 480;" xml:space="preserve">
<style type="text/css">
	.st0{fill:#FFFFFF;}
	.st1{fill:#006600;}
	.st2{stroke:#000000;stroke-width:9;stroke-miterlimit:90;}
	.st3{fill:#BB0000;}
</style>
<path class="st0" d="M0,0h800v480H0V0z"/>
<path d="M0,0h800v144H0V0z"/>
<path class="st1" d="M0,336h800v144H0V336z"/>
<g id="b_1_" transform="matrix(3 0 0 3 320 240)">
	<g>
		<path id="a_2_" class="st2" d="M55.3,47.5l-1.8,1l-46.7-81c-2.7-0.6-4.2-3.2-5.7-5.8c-1-1.8-5-8.7-6.7-17.7
			c4.7,4.2,8.8,9.2,11.9,14.7c1.5,2.6,3,5.2,2.3,7.9L55.3,47.5z"/>
	</g>
	<g>
		<path id="a_3_" class="st0" d="M55.3,47.5l-1.8,1l-46.7-81c-2.7-0.6-4.2-3.2-5.7-5.8c-1-1.8-5-8.7-6.7-17.7
			c4.7,4.2,8.8,9.2,11.9,14.7c1.5,2.6,3,5.2,2.3,7.9L55.3,47.5z"/>
	</g>
</g>
<g id="b_2_" transform="matrix(3 0 0 3 320 240)">
	<g>
		<path id="a_4_" class="st2" d="M44.4-33.4c-0.7-2.7,0.8-5.3,2.3-7.9c3.1-5.5,7.2-10.5,11.9-14.7c-1.7,9-5.7,15.9-6.7,17.7
			c-1.5,2.6-3,5.2-5.7,5.8l-46.7,81l-1.8-1L44.4-33.4z"/>
	</g>
	<g>
		<path id="a_1_" class="st0" d="M44.4-33.4c-0.7-2.7,0.8-5.3,2.3-7.9c3.1-5.5,7.2-10.5,11.9-14.7c-1.7,9-5.7,15.9-6.7,17.7
			c-1.5,2.6-3,5.2-5.7,5.8l-46.7,81l-1.8-1L44.4-33.4z"/>
	</g>
</g>
<path class="st3" d="M800,168H457c-9-24-39-72-57-72s-48,48-57,72H0v144h343c9,24,39,72,57,72s48-48,57-72h343V168z"/>
<path id="c" d="M457,312c9-24,15-48,15-72s-6-48-15-72c-9,24-15,48-15,72S448,288,457,312"/>
<g transform="matrix(-1 0 0 1 640 0)">
	<path id="c_1_" d="M297,312c-9-24-15-48-15-72s6-48,15-72c9,24,15,48,15,72S306,288,297,312"/>
</g>
<ellipse class="st0" cx="400.1" cy="240" rx="12" ry="18"/>
<g>
	<path class="st0" d="M403,383.4c0,0,12-24,12-63s-12-63-12-63V383.4z"/>
	<path class="st0" d="M397,222.6v-126c0,0-12,24-12,63S397,222.6,397,222.6z"/>
	<path class="st0" d="M397,383.4v-126c0,0-12,24-12,63S397,383.4,397,383.4z"/>
	<path class="st0" d="M403,96.6v126c0,0,12-24,12-63S403,96.6,403,96.6z"/>
</g>
</svg>
