<?xml version="1.0" encoding="utf-8"?>
<!-- Generator: Adobe Illustrator 24.0.1, SVG Export Plug-In . SVG Version: 6.00 Build 0)  -->
<svg version="1.1" id="flag-icons-kg" xmlns="http://www.w3.org/2000/svg" xmlns:xlink="http://www.w3.org/1999/xlink" x="0px"
	 y="0px" viewBox="0 0 800 480" style="enable-background:new 0 0 800 480;" xml:space="preserve">
<style type="text/css">
	.st0{fill-rule:evenodd;clip-rule:evenodd;fill:#FF0000;}
	.st1{fill-rule:evenodd;clip-rule:evenodd;fill:#FFFF00;}
</style>
<path class="st0" d="M0,0h800v480H0V0z"/>
<path class="st1" d="M258.5,244.8c12.8-15.6,39.3-0.4,60.9-11.5c-25.7,1.4-39.7-12.4-59.9-10.4c21-12.9,38.9,4.2,62.3-2.6
	c-31-2.6-29.7-16.6-58-18.6c25.1-10.7,37.5,11.1,62.2,6.1c-29.1-6.7-32.8-23.7-54.4-27.4c31.5-4.7,29.4,13.9,60.3,16.1
	c-31.3-13.4-23.2-25.1-49.3-35.3c29.3-0.7,27.4,19.7,57.2,24.9c-25.5-16.1-22.4-30.8-43.3-42.4c24.8,0.5,27.2,25.9,52.6,33.8
	c-22.6-17.9-16.7-33.1-36.2-49.1c24.8,5.8,21.1,27.8,46.9,41.8c-19.1-21.2-11.8-36.4-28.4-53.7c23.8,7.6,14.7,28.5,39.4,48.4
	c-14.1-23.3-5.3-38.3-19.3-57.8c22.1,11.3,11.4,32.7,31.9,53.9c-9.7-23.9,0-38.7-9.8-59.9c18.9,14.1,7.7,36.8,23,58.6
	c-5.6-30,7.3-34.9,3.3-61.1c14.3,17.6-1.7,35.2,9.4,61.2c-1.4-29.5,14.3-36.4,11.6-60c14.2,21.2-8,39.7,1.3,62.3
	c2.3-27.9,20.7-35.3,21-57c11.2,20-13.1,34.4-9.2,60.9c8-29.2,27.6-32.8,30-52.5c6.7,23.1-20.1,33.8-18.5,59.4
	c8-26,32.4-29.1,37.5-48.2c3.1,24.4-21,28.8-27.8,55.8c12.7-22,34.9-23.8,44.8-41.2c-0.8,24.2-27.9,27.4-36.3,50
	c15.7-19.2,35.3-15.9,51-32.9c-1.7,21.8-29.3,20.6-44.1,43.2c17-15.7,42.6-11,55.6-24.5c-0.7,19.3-34.6,17.8-50.6,35.2
	c19.7-10.9,44.8-4.5,59.2-14.5c-2.6,16.9-38.4,12.9-55.6,26.2c23.6-6.6,41.9,3.5,60.9-3.8c-9.3,16.4-41.8,6-59.1,16.7
	c20.6-3.5,42.4,9,61,5c-6.1,14.2-41.8-0.9-60.9,8c22.9-0.2,37.8,14.5,59.1,13.5c-11.5,12.9-42.8-4.8-61.1-1.8
	c22.3,4.7,39.4,23.1,56.3,24c-14,10.6-39.8-13.6-60.9-10.6c21.8,5.8,39.9,30.5,52.3,31c-13.4,9.2-39.8-21.1-57.9-20
	c22,9.9,32.1,35.2,46.6,38.7c-17.9,5.7-35.5-27.4-54.8-28.6c22.3,14.1,23.5,35.6,40.7,45.2c-18.1,4.4-30.9-33-50-36.2
	c18.3,13.4,21.1,42.2,33.2,51.2c-18.4,0.9-25-38.2-43.9-43.8c16.1,13.5,12.3,42.8,24.8,55.3c-19.1-4-16.7-38.1-36.7-49.6
	c14.3,18.2,7,44,16.4,58.5c-18.7-7.5-10.6-38.1-28.3-55.3c9.7,19.3-0.8,41.8,6.9,60.5c-17.1-8.3-5.6-44.4-18.7-58.8
	c6,22.3-5.1,40.8-0.6,60.8c-17.4-20.2,2.6-40.5-12.5-61c3.9,23.5-12.6,40-9.9,59.7c-13.8-16.1,7.5-41.9-3.3-62.2
	c2.2,23.2-19,43.5-17.5,58.1c-11.2-18.8,12.5-40.9,6.1-62.2c-1.3,22.1-22.9,34.1-26.9,54.3c-7.2-22.2,18.4-38.2,16.1-60.1
	c-7.3,20.7-28.1,29.1-35.4,49.2c-6-22.2,24.4-33.9,25.1-57.2c-9.4,21.8-34.2,26.6-42.5,43.3c-3.1-22,31.7-31.9,33-52.8
	c-11.2,20.1-38.4,20.9-47.8,36.8c-1.4-21.9,35.2-24.7,41-47.6c-11.2,17.1-41,14.9-53.4,28.8c2-20.3,41.6-21.6,48-39.9
	c-14.8,14.2-42.2,8.4-57.7,19.7c8.6-20.1,45.8-15.8,54.2-30.3c-16.4,8.5-45.6,0.2-60,8.8c13.1-18.9,42-7.6,58.4-20.6
	C292.9,250.5,276.9,239.9,258.5,244.8L258.5,244.8z"/>
<path class="st1" d="M493.4,240.1c0,51.4-41.7,93-93,93s-93-41.7-93-93c0-51.4,41.7-93,93-93C451.6,147.1,493.2,188.7,493.4,240.1
	L493.4,240.1z"/>
<path class="st0" d="M481.4,240.3c0,44.7-36.2,80.9-80.9,80.9c-44.7,0-80.9-36.2-80.9-80.9s36.2-80.9,80.9-80.9
	C445.1,159.4,481.4,195.6,481.4,240.3z"/>
<path class="st1" d="M470.1,240.5c0,38.4-31.1,69.5-69.5,69.5s-69.5-31.1-69.5-69.5s31.1-69.5,69.5-69.5S470.1,202.1,470.1,240.5z"
	/>
<path class="st0" d="M341.5,195c19.2-0.5,43.1,1.3,59,13.9c16.9-10.6,36.9-15.3,56.7-13.4l10.3,18.8c-16-1.5-32.2,1.2-46.9,7.7
	c21.4,15.8,33.5,41.1,32.4,67.6c-2.5,3.2-6.6,6.7-9.1,9.8c3.8-26.7-10.3-56.5-30.8-72.2c16.7,24,26.5,45.6,23.8,75.4l-9.4,6
	c4.3-26.2-1.9-57.2-21.3-75c11.2,16.4,22.3,45.9,15.4,75.9c-3,0.9-7.7,3.5-10.7,4.3c7.4-24.9,3.7-51.8-10.1-73.8
	c-12.9,18.6-17.2,46.9-9.8,73.1c-3.6-0.9-6.3-2.1-9.9-2.9c-5.3-28.1,2.1-60,14.9-76.6c-13.1,7.6-25.4,40-21.9,73.1l-8.7-4
	c-4.2-24.7,6.9-56.8,23-75.4c-18.2,11.4-33,39.7-30.5,69.9c-2.8-2.4-5.3-3.7-8.2-6.2c-3.2-26.4,12.2-53.1,30.1-69
	c-15.1-6.8-28.1-8.2-46.9-7.9C335.8,208.2,338.5,201.1,341.5,195L341.5,195z"/>
</svg>
