<?xml version="1.0" encoding="utf-8"?>
<!-- Generator: Adobe Illustrator 24.0.1, SVG Export Plug-In . SVG Version: 6.00 Build 0)  -->
<svg version="1.1" id="flag-icons-kh" xmlns="http://www.w3.org/2000/svg" xmlns:xlink="http://www.w3.org/1999/xlink" x="0px"
	 y="0px" viewBox="0 0 800 480" style="enable-background:new 0 0 800 480;" xml:space="preserve">
<style type="text/css">
	.st0{fill:#032EA1;}
	.st1{fill:#E00025;}
	.st2{fill:#FFFFFF;stroke:#000000;stroke-width:1.44;stroke-linejoin:bevel;stroke-miterlimit:5.76;}
	.st3{fill:#FFFFFF;stroke:#000000;stroke-width:1.296;stroke-linejoin:bevel;stroke-miterlimit:5.76;}
	.st4{fill:#FFFFFF;stroke:#000000;stroke-width:1.44;stroke-miterlimit:5.76;}
	.st5{fill:none;stroke:#000000;stroke-width:1.152;stroke-miterlimit:5.76;}
	.st6{fill:none;stroke:#000000;stroke-width:1.44;stroke-miterlimit:5.76;}
</style>
<path class="st0" d="M0,0h800v480H0V0z"/>
<path class="st1" d="M0,120h800v240H0V120z"/>
<g transform="matrix(1.2 0 0 1.2 85.6 -522)">
	<g>
		<path class="st2" d="M205.7,623.5h113.8v43.8H205.7V623.5z"/>
		<path class="st2" d="M313.7,647.6h3.5v16.5h-3.5V647.6z M205.7,639.5h113.8v5H205.7V639.5z M205.7,632.5h113.8v4.6H205.7V632.5z"
			/>
		<path class="st3" d="M205.7,625.7h113.8v4.3H205.7V625.7z"/>
		<path class="st2" d="M235.7,647.6h3.6v16.5h-3.6V647.6z M284.7,647.6h3.6v16.5h-3.6V647.6z M206.7,647.6h3.5v16.5h-3.5V647.6z
			 M213.7,647.6h3.5v16.5h-3.5V647.6z M221.2,647.6h3.5v16.5h-3.5V647.6z M228.7,647.6h3.5v16.5h-3.5V647.6z M291.5,647.6h3.6v16.5
			h-3.6V647.6z M299,647.6h3.6v16.5H299V647.6z M306.5,647.6h3.6v16.5h-3.6V647.6z"/>
		<path class="st4" d="M161.2,669.5c2.1-1.1,3.7-3,4.4-5.3h193.1c0.7,2.3,2.3,4.2,4.4,5.3H161.2z"/>
	</g>
	<path class="st4" d="M259.7,556.8c0,0-0.1-4.1,2.3-4.2c2.3,0,2.2,4.2,2.2,4.2H259.7z M247.2,611.3v-5.5c0-2.8-2.8-3-2.8-5
		c0,0-0.4-3,0.4-4.4c1.1,4,3,3.3,3,1.6c0-1.4-1-2.8-3.3-6.3c-0.8-1.1-0.3-4.6,0.7-5.9c0.4,3,0.9,4.5,2.2,4.5c0.8,0,1.4-0.5,1.4-2
		c0-2-1.3-3-2-4.8s-0.3-3.9,1.1-5.3c0.5,3,0.4,4.2,1.7,4.2c2.7-0.9,0-4.8-0.6-5.8c-0.6-1.1,1-3.4,1-3.4c0.8,2.7,1,2.9,2,2.6
		c1.2-0.3,1-2-0.4-3.4c-0.9-1-0.8-2.3,0.2-3.3c1,1.9,2.2,1.8,2.3,0.6l-0.8-4.4h17.4l-0.9,4.3c-0.2,1.2,1.4,1.5,2.4-0.5
		c1,1,1.1,2.4,0.2,3.3c-1.4,1.4-1.6,3.1-0.4,3.4c1,0.3,1.2,0,2-2.6c0,0,1.5,1.5,1,3.4c-0.6,1-3.3,5-0.6,5.8c1.3,0,1.2-1.2,1.7-4.2
		c1.3,1.4,1.7,3.5,1,5.3c-0.6,1.8-2,2.8-2,4.8c0,1.5,0.7,2,1.5,2c1.3,0,1.8-1.4,2.2-4.5c1,1.3,1.5,4.8,0.7,6
		c-2.3,3.4-3.4,4.8-3.4,6.2c0,1.7,2,2.4,3-1.6c0.9,1.4,0.5,4.4,0.5,4.4c0,2-2.7,2.2-2.8,5v5.5L247.2,611.3z M254.4,565.3l-0.4-3.1
		h15.9l-0.4,3.1H254.4z M255.4,562.1l-0.2-2.5h13.5l-0.3,2.5H255.4z M257.7,559.5l-0.3-2.6h9l-0.1,2.6H257.7z M290.7,669.5
		c-2-0.7-5-2.9-5-5v-24.3l2.6-3.4h-52.6l2.5,3.4v24.3c0,2.1-2,4.3-4,5H290.7z"/>
	<path class="st2" d="M244.9,647.6h3.6v16.5h-3.6V647.6z M275.3,647.6h3.6v16.5h-3.6V647.6z"/>
	<path class="st4" d="M234.7,609.2v27.6h54v-27.6c-1.3,0.5-2.2,1.5-2.6,2.8v11.8h-48.7V612C237.4,612,236.8,610,234.7,609.2
		L234.7,609.2z"/>
	<path class="st4" d="M281.3,669.5c-1.8-0.7-5.6-2.9-5.6-5v-27.2c0.4-1.5,2.4-2.4,3.7-3.4h-35.7c1.7,1,3.6,1.7,4.3,3.4v27.2
		c0,2.1-3,4.3-4.8,5H281.3z"/>
	<path class="st4" d="M286.1,634.2v-19.6h-4.9v-1.9h-38.8v2h-5v19.5H286.1z M273.7,669.5c-1.8-0.7-4.3-2.9-4.3-5v-23.2l1.4-2.1
		h-17.7l1.5,2v23.3c0,2.1-2.6,4.3-4.3,5H273.7z"/>
	<path class="st4" d="M257.4,639.2h9v30.3h-9V639.2z"/>
	<path class="st2" d="M271.1,632.5c0-2,5.8-2.1,8.8-3.8h-36c3,1.7,8.7,1.8,8.7,3.8l1.2,3.9l15,0.6L271.1,632.5z"/>
	<path class="st4" d="M278.1,611.3c0-4.9,0.2-6.7,1.7-6.7V620c-3.7,1.4-6.3,6-6.3,6h-23.2c0,0-2.6-4.6-6.3-6v-15.5
		c1.8,0,1.8,2,1.8,6.7L278.1,611.3z M279.8,609.3c0-5.6,4.9-6.2,4.9-6.2v5c-1.9-0.1-2.8,1.6-2.8,4c0,2.5,1.5,2.5,1.5,2.5v14.2h-3.6
		V609.3z"/>
	<path class="st4" d="M244,609.3c0-5.6-4.9-6.2-4.9-6.2v5c1.9-0.1,2.8,1.6,2.8,4c0,2.5-1.5,2.5-1.5,2.5v14.2h3.6L244,609.3z"/>
	<g>
		<path class="st5" d="M253.5,570.6h17.2 M251.5,576h21 M249.5,582.5h24.9 M247.4,590.4h29.5 M246.7,599.4h30.4"/>
		<path class="st6" d="M237.5,629h48.6 M252.9,629h18v6.6h-18V629z"/>
	</g>
	<path class="st4" d="M250.7,614.2c3,3.6,2.6,9.7,2.6,13.3h17.4c0-3.6-0.4-9.7,2.6-13.3H250.7z M260.4,573.2l-2.4-1.3v-3.5
		c1,0.3,2,0.4,2.2,2c0.3-2.3,1-2.1,1.9-3c1,0.9,1.5,0.7,1.9,3c0-1.6,1.2-1.7,2.1-2v3.5l-2.3,1.2L260.4,573.2z"/>
	<path class="st4" d="M260.2,578.9l-4-2.8V573c1.5,0.3,3,0.5,3.2,2.2c0.4-2.5,1.3-3.7,2.7-4.7c1.3,1,2.2,2.2,2.7,4.7
		c0.1-1.7,1.7-1.9,3-2.2v3.2l-3.9,2.7H260.2z"/>
	<path class="st4" d="M259.9,587.8l-4.5-4v-4.7c1.6,0.4,3.4,0.6,3.6,3.1c0.5-3.5,1.5-5.4,3-6.8c1.6,1.4,2.6,3.3,3.2,6.8
		c0.2-2.5,2-2.7,3.6-3.1v4.7l-4.6,4H259.9z M268.3,593.1l-4,5.7h-4.7l-4.1-5.7H268.3z M253.1,602.6c2,1.1,2.8,3.4,3,7.6h11.6
		c0.2-4.2,1-6.5,3-7.6H253.1z"/>
	<path class="st2" d="M270.9,593v-5.6c-1.8,0.4-3.2,1.6-3.8,3.3c0-2-2.5-6.3-5.2-8.5c-2.7,2.4-5.3,6.4-5.2,8.4
		c-0.5-1.5-1.8-2.7-3.8-3.2v5.7L270.9,593z"/>
	<path class="st2" d="M271.7,602.6V597c-2.1,0.6-3.5,1.7-4.1,3.3c0-2-2.7-6.3-5.7-8.5c-3,2.5-5.8,6.4-5.7,8.5
		c-0.5-1.5-2-2.7-4.1-3.3v5.7L271.7,602.6z"/>
	<path class="st2" d="M274.1,614.3v-6.6c-2.1,0.7-3.9,2-5.1,3.8c0-3.5-4-9-7.1-10.7c-3.2,1.8-7.1,7.4-7.1,10.7
		c-1.2-1.8-3.1-3.2-5.2-3.8v6.6H274.1z"/>
	<path class="st2" d="M272.7,629v-6.8c-2.4,0.9-3,3.1-3.8,4.7c0.3-6.9-3.8-14.2-7-16.1c-3.2,1.9-7.4,9.4-7,16
		c-0.8-1.4-1.5-3.7-3.8-4.6v6.7L272.7,629z"/>
	<path class="st4" d="M271.1,639.2v-6.8c-2.5,0.6-2.6,1.5-3.4,3c0.3-4.1-2.6-8.8-5.8-10.6c-3.2,1.8-6,6.5-5.8,10.6
		c-0.8-1.5-0.9-2.4-3.4-3v6.8H271.1z"/>
	<g id="a">
		<path class="st4" d="M165.7,664.2v-20.4c-0.7-2.6-3-5-4.6-5.4v-18l3.7,2l4.3,18.9v23L165.7,664.2z"/>
		<path class="st4" d="M165.7,664.3v-20.5c-0.7-2.6-3-5-4.6-5.4v-19.2c2.5,0,3.7,3.2,3.7,3.2l4.3,18.9v22.9L165.7,664.3z"/>
		<path class="st4" d="M163,669.5c1.7-0.7,4.2-2.9,4.2-5v-25.6l-1.2-2h43.7l-1.7,2v25.6c0.1,2.2,1.4,4.1,3.4,5H163z"/>
		<path class="st4" d="M202.5,669.5c-1.7-0.7-4.2-2.9-4.2-5v-24.3l3.6-3.4h-29.6l3.6,3.4v24.3c0,2.1-2.5,4.3-4.2,5H202.5z"/>
		<path class="st4" d="M198.4,669.5c-1.7-0.7-4.3-2.9-4.3-5v-22l2.4-3.3h-18.8l2.4,3.3v22c0,2.1-2.5,4.3-4.3,5H198.4z"/>
		<path class="st4" d="M182.7,639.2h8.9v30.4h-9L182.7,639.2z"/>
		<path class="st2" d="M170.4,647.6h3.6v16.5h-3.6V647.6z M201.2,647.6h3.5v16.5h-3.6L201.2,647.6z M167.3,619.8h4.4v17h-4.4V619.8z
			 M167.3,616.6h4.3v3.2h-4.3V616.6z M202.9,623.5h6.1v13h-6.1V623.5z"/>
		<path class="st4" d="M171.6,636.6v-29c1.2,0,1.4,4.3,4.2,4.3c1.5,0,1.4-1.8,0.5-3.2c-0.7-1.3-1.6-3-0.4-6.3
			c0.9,2.5,3.1,3.3,2.7,1.8c-0.7-2.7-2.8-3.2-1.2-7.3c0.5,3.4,2.7,3.3,2.2,1.3c-0.6-2.3-1.9-3.3-0.3-6.5c0.9,3.7,2,3.5,2,1.2
			c0-3.4,0-7,4.2-8.3c0,0,0.3-3,1.9-3c1.5,0,1.8,3,1.8,3c4.3,1.3,4.2,5,4.2,8.3c0,2.3,1.1,2.5,2-1.2c1.6,3.2,0.3,4.2-0.3,6.5
			c-0.5,2,1.7,2.1,2.2-1.3c1.6,4.1-0.5,4.6-1.2,7.3c-0.4,1.5,1.8,0.7,2.7-1.8c1.2,3.3,0.3,5-0.4,6.3c-0.8,1.4-1,3.2,0.5,3.2
			c2.8,0,3-4.2,4.2-4.2v28.9H171.6z M164.7,614.7v22.1h2.5v-22.1C166.3,614.2,165.5,614.2,164.7,614.7z"/>
		<path class="st4" d="M164.9,629c3.1,1.6,6.2,3.5,7,7.8h-7V629z M208.1,622.4v14.4h2v-14.4C209.5,622.1,208.6,622,208.1,622.4z"/>
		<path class="st4" d="M210.1,629c-3.1,1.5-6.2,3.3-7,7.7h7V629z M189.5,595.3l1.8-1.5v-2c-0.6,0-1,0.3-1.5,1
			c-0.4-1.3-1.3-2.4-2.5-3c-1.2,0.6-2.2,1.6-2.6,2.9c-0.5-0.7-0.8-0.8-1.5-1v2l1.8,1.6H189.5z"/>
		<path class="st4" d="M190.5,600.2l0.8-1.9v-2.5c-0.6,0-1,0.3-1.5,1c-0.4-1.3-1.3-2.4-2.5-3c-1.2,0.6-2.2,1.6-2.6,2.9
			c-0.5-0.7-0.8-0.8-1.5-0.9v2.5l0.8,1.9H190.5z"/>
		<path class="st4" d="M190.7,606.8l2.6-3.3v-3.2c-1,0-1.5,0.5-2.2,1.6c-0.7-2.3-2-2.7-3.8-3.8c-1.9,1-3.2,1.5-3.8,3.7
			c-0.8-1.1-1.3-1.4-2.3-1.5v3.2l2.7,3.3H190.7z"/>
		<path class="st4" d="M191.4,613.3c0,0,3.2-2.7,3.3-4.2v-3.5c-1.2,0.1-2.3,0.4-3.2,1.9c-0.8-2.9-2-3.7-4.2-5
			c-2.3,1.3-3.5,2.1-4.2,5c-1-1.5-2-1.8-3.3-2v3.6c0.8,1.6,2,3,3.3,4.2H191.4z"/>
		<path class="st4" d="M192.7,625.3c0,0,4.4-4.7,4.5-6.6v-5.4c-1.6,0.2-3.2,1.3-4.4,3.6c-1-4.5-2.6-7.6-5.5-9.8
			c-3,2.2-4.6,5.3-5.6,9.8c-1.2-2.3-2.7-3.4-4.3-3.6v5.4c0.3,1.9,4.4,6.6,4.4,6.6H192.7z"/>
		<path class="st4" d="M192.7,632.4c0,0,3.7-3.7,4.5-5.3v-5.4c-1.6,0.2-3.2,1.3-4.4,3.5c-0.5-3.7-2.5-7-5.5-9.2
			c-3,2.2-4.6,4.7-5.6,9.2c-1.2-2.2-2.7-3.3-4.3-3.5v5.4c1,1.6,4.4,5.3,4.4,5.3H192.7z"/>
		<path class="st4" d="M194.2,636.6c-1-4.7-2-8.2-7.1-11.7c-5.2,3.5-6.1,7-7.2,11.7H194.2z"/>
		<path class="st4" d="M196.9,639.2v-6.8c-2.4,1-4.5,2.3-5.3,3.8c-0.8-3.8-2.5-5.4-4.6-7.7c-2.1,2.3-3.5,4-4.4,7.7
			c-0.8-1.5-2.9-2.9-5.2-3.8v6.8H196.9z"/>
	</g>
	<g transform="matrix(-1 0 0 1 390.7 0)">
		<g id="a_1_">
			<path class="st4" d="M35.8,664.3v-23l-4.3-18.9l-3.7-2v18c1.6,0.4,3.9,2.8,4.6,5.4v20.4L35.8,664.3z"/>
			<path class="st4" d="M35.8,664.2v-22.9l-4.3-18.9c0,0-1.2-3.2-3.7-3.2v19.2c1.6,0.4,3.9,2.8,4.6,5.4v20.5L35.8,664.2z"/>
			<path class="st4" d="M78.1,669.5c-2-0.9-3.3-2.8-3.4-5v-25.6l1.7-2H32.7l1.2,2v25.6c0,2.1-2.5,4.3-4.2,5H78.1z"/>
			<path class="st4" d="M38.4,669.5c1.7-0.7,4.2-2.9,4.2-5v-24.3l-3.6-3.4h29.6l-3.6,3.4v24.3c0,2.1,2.5,4.3,4.2,5H38.4z"/>
			<path class="st4" d="M42.5,669.5c1.8-0.7,4.3-2.9,4.3-5v-22l-2.4-3.3h18.8l-2.4,3.3v22c0,2.1,2.6,4.3,4.3,5H42.5z"/>
			<path class="st4" d="M49.3,669.6h9v-30.4h-8.9L49.3,669.6z"/>
			<path class="st2" d="M37.1,664.1h3.6v-16.5h-3.6V664.1z M67.8,664.1h3.6v-16.5h-3.5L67.8,664.1z M34,636.8h4.4v-17H34V636.8z
				 M34,619.8h4.3v-3.2H34V619.8z M69.6,636.5h6.1v-13h-6.1V636.5z"/>
			<path class="st4" d="M69.8,636.6v-28.9c-1.2,0-1.4,4.2-4.2,4.2c-1.5,0-1.3-1.8-0.5-3.2c0.7-1.3,1.6-3,0.4-6.3
				c-0.9,2.5-3.1,3.3-2.7,1.8c0.7-2.7,2.8-3.2,1.2-7.3c-0.5,3.4-2.7,3.3-2.2,1.3c0.6-2.3,1.9-3.3,0.3-6.5c-0.9,3.7-2,3.5-2,1.2
				c0-3.3,0.1-7-4.2-8.3c0,0-0.3-3-1.8-3c-1.6,0-1.9,3-1.9,3c-4.2,1.3-4.2,4.9-4.2,8.3c0,2.3-1.1,2.5-2-1.2
				c-1.6,3.2-0.3,4.2,0.3,6.5c0.5,2-1.7,2.1-2.2-1.3c-1.6,4.1,0.5,4.6,1.2,7.3c0.4,1.5-1.8,0.7-2.7-1.8c-1.2,3.3-0.3,5,0.4,6.3
				c0.9,1.4,1,3.2-0.5,3.2c-2.8,0-3-4.3-4.2-4.3v29H69.8z M33.9,614.7v22.1h-2.5v-22.1C32.2,614.2,33,614.2,33.9,614.7z"/>
			<path class="st4" d="M31.6,636.8h7c-0.8-4.3-3.9-6.2-7-7.8V636.8z M76.8,622.4v14.4h-2v-14.4C75.3,622,76.2,622.1,76.8,622.4z"/>
			<path class="st4" d="M76.8,636.7h-7c0.8-4.4,3.9-6.2,7-7.7V636.7z M51.7,595.3l-1.8-1.6v-2c0.7,0.2,1,0.3,1.5,1
				c0.4-1.3,1.4-2.3,2.6-2.9c1.2,0.6,2.1,1.7,2.5,3c0.5-0.7,0.9-1,1.5-1v2l-1.8,1.5H51.7z"/>
			<path class="st4" d="M50.7,600.2l-0.8-1.9v-2.5c0.7,0.1,1,0.2,1.5,0.9c0.4-1.3,1.4-2.3,2.6-2.9c1.2,0.6,2.1,1.7,2.5,3
				c0.5-0.7,0.9-1,1.5-1v2.5l-0.8,1.9H50.7z"/>
			<path class="st4" d="M50.6,606.8l-2.7-3.3v-3.2c1,0.1,1.5,0.4,2.3,1.5c0.6-2.2,1.9-2.7,3.8-3.7c1.8,1.1,3.1,1.5,3.8,3.8
				c0.7-1.1,1.2-1.6,2.2-1.6v3.2l-2.6,3.3H50.6z"/>
			<path class="st4" d="M49.8,613.3c-1.3-1.2-2.5-2.6-3.3-4.2v-3.6c1.3,0.2,2.3,0.5,3.3,2c0.7-2.9,1.9-3.7,4.2-5
				c2.2,1.3,3.4,2.1,4.2,5c0.9-1.5,2-1.8,3.2-1.9v3.5c-0.1,1.5-3.3,4.2-3.3,4.2H49.8z"/>
			<path class="st4" d="M48.5,625.3c0,0-4.1-4.7-4.4-6.6v-5.4c1.6,0.2,3.1,1.3,4.3,3.6c1-4.5,2.6-7.6,5.6-9.8
				c2.9,2.2,4.5,5.3,5.5,9.8c1.2-2.3,2.8-3.4,4.4-3.6v5.4c-0.1,1.9-4.5,6.6-4.5,6.6H48.5z"/>
			<path class="st4" d="M48.5,632.4c0,0-3.4-3.7-4.4-5.3v-5.4c1.6,0.2,3.1,1.3,4.3,3.5c1-4.5,2.6-7,5.6-9.2c3,2.2,5,5.5,5.5,9.2
				c1.2-2.2,2.8-3.3,4.4-3.5v5.4c-0.8,1.6-4.5,5.3-4.5,5.3H48.5z"/>
			<path class="st4" d="M46.6,636.6c1.1-4.7,2-8.2,7.2-11.7c5.1,3.5,6.1,7,7.1,11.7H46.6z"/>
			<path class="st4" d="M44.1,639.2v-6.8c2.3,0.9,4.4,2.3,5.2,3.8c0.9-3.7,2.3-5.4,4.4-7.7c2.1,2.3,3.8,3.9,4.6,7.7
				c0.8-1.5,2.9-2.8,5.3-3.8v6.8H44.1z"/>
		</g>
	</g>
	<path class="st4" d="M139.4,694.3h245.3v12.5H139.4V694.3z M132.9,706.8h258.3v12.5H132.9V706.8z M152.3,675.5h219.4v8.1H152.3
		V675.5z"/>
	<path class="st4" d="M145.9,683.6h232.4v10.6H145.9V683.6z M156.1,669.3h212v6.2h-212V669.3z"/>
	<path class="st4" d="M179.1,669.3h16v50h-16V669.3z"/>
	<path class="st4" d="M182.7,669.3h8.9v50h-9L182.7,669.3z M253.7,669.3h16v50h-16L253.7,669.3L253.7,669.3z"/>
	<path class="st4" d="M257.4,669.3h9v50h-9V669.3z M328.9,669.3h16v50h-16V669.3z"/>
	<path class="st4" d="M332.4,669.3h9v50h-9V669.3z"/>
	<path class="st6" d="M165.7,664.2h193 M182.5,713h9.2 M182.5,706.7h9.2 M182.5,700.5h9.2 M182.5,694.2h9.2 M182.5,688h9.2
		 M182.5,681.7h9.2 M182.5,675.5h9.2 M257.5,713h8.6 M257.5,706.7h8.6 M257.5,700.5h8.6 M257.5,694.2h8.6 M257.5,688h8.6
		 M257.5,681.7h8.6 M257.5,675.5h8.6 M332.3,713h9.2 M332.3,706.7h9.2 M332.3,700.5h9.2 M332.3,694.2h9.2 M332.3,688h9.2
		 M332.3,681.7h9.2 M332.3,675.5h9.2"/>
</g>
</svg>
