<?xml version="1.0" encoding="utf-8"?>
<!-- Generator: Adobe Illustrator 24.0.1, SVG Export Plug-In . SVG Version: 6.00 Build 0)  -->
<svg version="1.1" id="flag-icons-ki" xmlns="http://www.w3.org/2000/svg" xmlns:xlink="http://www.w3.org/1999/xlink" x="0px"
	 y="0px" viewBox="0 0 800 480" style="enable-background:new 0 0 800 480;" xml:space="preserve">
<style type="text/css">
	.st0{fill-rule:evenodd;clip-rule:evenodd;fill:#E73E2D;}
	.st1{fill:#FEC74A;stroke:#D8AA3F;stroke-width:1.5938;stroke-miterlimit:3.75;}
	.st2{fill-rule:evenodd;clip-rule:evenodd;fill:#FEC74A;stroke:#D8AA3F;stroke-width:1.5938;stroke-miterlimit:3.75;}
	.st3{fill-rule:evenodd;clip-rule:evenodd;fill:#005989;}
	.st4{fill-rule:evenodd;clip-rule:evenodd;fill:#FFFFFF;}
	.st5{fill-rule:evenodd;clip-rule:evenodd;fill:#FFC84B;stroke:#D8AA3F;stroke-width:1.6875;stroke-miterlimit:3.75;}
	
		.st6{fill-rule:evenodd;clip-rule:evenodd;fill:#FFC84B;stroke:#D8AA3F;stroke-width:1.5938;stroke-linejoin:round;stroke-miterlimit:3.75;}
	.st7{fill-rule:evenodd;clip-rule:evenodd;fill:#FFC84B;stroke:#D8AA3F;stroke-width:1.5938;stroke-miterlimit:3.75;}
	.st8{fill:none;stroke:#D9A43E;stroke-width:1.6875;stroke-linecap:round;stroke-miterlimit:3.75;}
</style>
<path class="st0" d="M0,0h800v287.3H0L0,0z"/>
<g>
	<path class="st1" d="M435.2,239.1C435.2,239.1,435.3,239.1,435.2,239.1L435.2,239.1L435.2,239.1z"/>
	<path class="st1" d="M462.7,228.1c13.7-15,4.9-20.9,29-31.8c-20.8-7.4-33.5-0.3-44.5,8.9c7.3-16.8-1.5-20.2,17.6-37.1
		c-22.8-1-32.8,10.2-40.7,22.8c1.8-18.7-7.9-18.9,5-41.2c-21.5,6.1-27.7,19.5-31.2,33.6c-5.8-12.8-12.9-11.9-10.5-35.1
		c-17.4,14.6-17.2,29.6-14.5,44.2c-10.4-12.8-17.4-8-22.4-32.2c-11.1,17.7-8,31.1-2,43.2c-13.1-6.3-17.9-0.7-31.2-20.1
		c-3.9,22.6,6.2,34,17.9,43.4c-18.3-4.3-19.8,5.3-40.2-10.5c5.6,38.7,39.6,33.8,57.8,48.1l102.6-2.8c40.8-14.4,22.3-25.9,54.8-30.5
		C491.1,217.5,476.4,221.7,462.7,228.1z"/>
</g>
<polygon class="st2" points="421.3,272.4 516.8,243.4 454,244.8 501.3,204.8 444.1,226.7 474.4,171.7 429.7,213.3 439.2,153 
	410.1,205.5 400.1,143.9 389.1,204.7 359.2,152.2 369.8,211.8 324.6,173.5 354.6,224.6 297.9,205.2 344.9,244.1 282.7,243.2 
	378.2,275.1 "/>
<path class="st2" d="M456.4,261.8c1.3,31.8-23.4,58.6-55.2,59.8s-58.6-23.4-59.8-55.2c-0.1-1.5-0.1-3.1,0-4.6
	c1.3-31.8,28.1-56.5,59.8-55.2C431.2,207.8,455.2,231.8,456.4,261.8z"/>
<path class="st3" d="M0.1,284.4H800V480H0L0.1,284.4z"/>
<path class="st4" d="M0.4,425.6c14.8,6.8,36.1,23.7,58.9,23.7c38-0.3,39-25.7,77.5-24.5c38.7,0.9,31.6,27.8,83.8,27.7
	c43.1-0.2,57-32.5,94.3-28.7c27.6-1.4,38.8,30.7,81,31.1c43.9,0.9,60-35,87.4-32c29.5,0,39,28.9,80.1,29.1
	c52.4,0.3,61.7-30,94.3-28.1c23.4-0.5,41.8,22.2,76,22.8c27.2,0.5,50.1-19.9,65.6-27.2L800,385c-16.2,5.9-40.3,25.4-64.3,25.6
	c-34.8,1.3-56.2-22.5-80.3-22.2c-28.9,0.3-40.4,29.3-89.3,29.3c-44.8,0-55.1-29.3-84-29.3c-28.2,0.2-36.9,31.9-85.8,31.3
	c-39.9-0.5-55.4-30.3-83.6-30c-29.9,0-60.8,29-94.1,27.6c-45.6-1.9-55.6-27.6-85.5-27.6c-22.3,0-46.6,24-73.4,24.4
	C32.9,414.6,2.8,390.2,0,389.7L0.4,425.6L0.4,425.6z"/>
<path class="st4" d="M0.4,357.2C15.2,364,36.5,381,59.3,381c38-0.3,39-25.7,77.5-24.6c38.7,0.9,31.6,27.8,83.8,27.7
	c43.1,0,57-32.4,94.3-28.6c27.6-1.4,38.8,30.7,81,31c43.9,0.9,60-34.9,87.4-31.9c29.5,0,39,28.9,80.1,29.1
	c52.4,0.3,61.7-30,94.3-28.1c23.4-0.5,41.8,22.2,76,22.8c27.2,0.5,50.1-19.9,65.6-27.2l0.7-34.5c-16.2,5.9-40.3,25.3-64.3,25.6
	c-34.8,1.2-56.2-22.5-80.3-22.2c-28.9,0.3-40.4,29.3-89.3,29.3c-44.8,0-55.1-29.3-84-29.3c-28.2,0.2-36.9,31.9-85.8,31.3
	c-39.9-0.5-55.4-30.3-83.6-30c-29.9,0-60.8,28.9-94.1,27.5c-45.6-1.9-55.6-27.6-85.5-27.6c-22.3,0-46.6,24.1-73.4,24.5
	C32.9,346.1,2.8,321.8,0,321.4L0.4,357.2L0.4,357.2z"/>
<path class="st4" d="M0.4,289.7c14.8,6.8,36.1,23.6,58.9,23.6c38-0.2,39-25.7,77.6-24.5c38.6,0.9,31.6,27.8,83.8,27.7
	c43.1-0.1,57.1-32.5,94.2-28.6c27.6-1.4,38.8,30.7,81.1,31c43.8,0.9,59.9-35,87.5-32c29.3,0,39,28.9,80.1,29.1
	c52.3,0.3,61.5-30,94.3-28.1c23.3-0.5,41.7,22.2,75.9,22.8c27.3,0.5,50.1-19.9,65.6-27.2L800,249c-16.2,6-40.2,25.4-64.4,25.6
	c-34.6,1.3-56.1-22.4-80.3-22.2c-28.8,0.3-40.3,29.3-89.4,29.3c-44.7,0-55-29.3-83.9-29.3c-28.2,0.3-36.9,31.9-85.7,31.3
	c-39.9-0.5-55.4-30.2-83.7-30c-30,0-60.9,29-94,27.6c-45.7-1.9-55.6-27.6-85.6-27.6c-22.3,0-46.5,24-73.4,24.4
	C32.9,278.5,2.9,254.2,0,253.7L0.4,289.7L0.4,289.7z"/>
<path class="st5" d="M289.2,71.2c57.2-3.9,46.9-8.8,69.8-12.6c29.1,4,32.3,21.6,48.6,32.3c0,0-6.1,20.6-26,17.7
	c-2.7-8.2,9.6-10.9-25.8-32.4C335.3,75.1,298.4,80,289.2,71.2L289.2,71.2z M466.7,103l-41.2,1.7v10.2
	C453.3,115.9,458.3,112.1,466.7,103z"/>
<path class="st6" d="M324.9,101.2c7.2-3.7,10.8-2.2,17.1-2.3c4.2,7.8,8.2,8.4,17.6,9.4c8.4,12.5,22.4,20.1,37.4,20.4
	c28-0.8,36.9-20.3,55.8-22.5h19.9c-3.3-5.6-5.9-8.9-13.1-9.3c-14.8-0.8-33.9-0.4-50.6,3.4l-23.5,5.9c-6.9-3.4-23.7-21-34.5-20.6
	c-6.3,1.7-6.3,3.8-9.4,6.3C335.4,94.5,329.3,93.2,324.9,101.2L324.9,101.2z"/>
<path class="st7" d="M353.3,92.8c0.3,1.6-0.8,3.2-2.4,3.5c-1.6,0.3-3.2-0.8-3.5-2.4c-0.1-0.3-0.1-0.7,0-1.1c0.3-1.6,1.9-2.7,3.5-2.4
	C352.1,90.6,353.1,91.6,353.3,92.8z"/>
<path class="st5" d="M372.5,101.1c42.1-50.7,78.8-44.5,126.8-48c1.6,5.9,0.9,14.7-21.8,22.5c-31.3,4.7-87.3,37.7-87.6,37.7
	C379.5,112.7,372.2,101.8,372.5,101.1L372.5,101.1z"/>
<path class="st8" d="M459,68l31,1.4 M455.7,73.1l22.6,1.9"/>
</svg>
