<?xml version="1.0" encoding="utf-8"?>
<!-- Generator: Adobe Illustrator 24.0.1, SVG Export Plug-In . SVG Version: 6.00 Build 0)  -->
<svg version="1.1" id="flag-icons-km" xmlns="http://www.w3.org/2000/svg" xmlns:xlink="http://www.w3.org/1999/xlink" x="0px"
	 y="0px" viewBox="0 0 800 480" style="enable-background:new 0 0 800 480;" xml:space="preserve">
<style type="text/css">
	.st0{fill-rule:evenodd;clip-rule:evenodd;fill:#FFFF00;}
	.st1{fill-rule:evenodd;clip-rule:evenodd;fill:#FFFFFF;}
	.st2{fill-rule:evenodd;clip-rule:evenodd;fill:#BE0027;}
	.st3{fill-rule:evenodd;clip-rule:evenodd;fill:#3B5AA3;}
	.st4{fill-rule:evenodd;clip-rule:evenodd;fill:#239E46;}
	.st5{fill:#FFFFFF;}
</style>
<path class="st0" d="M0,0h800v120H0V0z"/>
<path class="st1" d="M0,120h800v120H0V120z"/>
<path class="st2" d="M0,240h800v120H0V240z"/>
<path class="st3" d="M0,360h800v120H0V360z"/>
<path class="st4" d="M0,0v480l447.5-239.3L0,0z"/>
<path class="st1" d="M179.2,132.6c-79.7-4-116.2,59.5-116.1,108.7c-0.2,58.1,54.9,105.9,105.8,103.1
	c-27.4-12.9-60.9-49.4-61.1-103.4C107.5,192.1,135.4,149.5,179.2,132.6L179.2,132.6z"/>
<g>
	<polygon class="st5" points="152.8,229 166.5,224.7 177.8,233.5 177.9,219.3 189.8,211.3 176.2,206.7 172.2,193 163.8,204.5 
		149.5,204 157.8,215.6 	"/>
	<polygon class="st5" points="153.1,180.3 166.8,176 178.1,184.7 178.2,170.4 190,162.5 176.5,158 172.4,144.2 164,155.7 
		149.8,155.2 158,166.8 	"/>
	<polygon class="st5" points="172.2,292 163.7,303.6 149.4,303 157.7,314.6 152.8,328.1 166.5,323.8 177.8,332.5 177.8,318.3 
		189.7,310.3 176.1,305.8 	"/>
	<polygon class="st5" points="172.4,242.3 164,253.8 149.8,253.3 158,264.9 153.1,278.3 166.7,274 178,282.8 178.2,268.6 190,260.5 
		176.5,256 	"/>
</g>
</svg>
