<?xml version="1.0" encoding="utf-8"?>
<!-- Generator: Adobe Illustrator 24.0.1, SVG Export Plug-In . SVG Version: 6.00 Build 0)  -->
<svg version="1.1" id="flag-icons-kn" xmlns="http://www.w3.org/2000/svg" xmlns:xlink="http://www.w3.org/1999/xlink" x="0px"
	 y="0px" viewBox="0 0 800 480" style="enable-background:new 0 0 800 480;" xml:space="preserve">
<style type="text/css">
	.st0{fill-rule:evenodd;clip-rule:evenodd;fill:#FFE900;}
	.st1{fill-rule:evenodd;clip-rule:evenodd;fill:#35A100;}
	.st2{fill-rule:evenodd;clip-rule:evenodd;fill:#C70000;}
	.st3{fill-rule:evenodd;clip-rule:evenodd;}
	.st4{fill-rule:evenodd;clip-rule:evenodd;fill:#FFFFFF;}
</style>
<path class="st0" d="M0,0h800v480H0V0z"/>
<path class="st1" d="M0,0v345.8L623,0H0L0,0z"/>
<path class="st2" d="M800,480V120.3L171,480H800z"/>
<path class="st3" d="M0,371.8V480h135.8L800,95.3V0H664.9L0,371.8L0,371.8z"/>
<polygon class="st4" points="537.5,141.5 531.9,93.5 565.4,127.5 610.6,105 586.2,148.6 619.9,182.6 571.1,175.5 546.8,219.1 
	541.1,171.2 492.4,164.1 "/>
<polygon class="st4" points="231.3,316.6 224.2,268.7 258.7,301.8 303.2,277.9 280,322.2 314.6,355.3 265.8,349.5 242.6,393.8 
	235.7,346 186.8,340.3 "/>
</svg>
