<?xml version="1.0" encoding="utf-8"?>
<!-- Generator: Adobe Illustrator 24.0.1, SVG Export Plug-In . SVG Version: 6.00 Build 0)  -->
<svg version="1.1" id="flag-icons-kr" xmlns="http://www.w3.org/2000/svg" xmlns:xlink="http://www.w3.org/1999/xlink" x="0px"
	 y="0px" viewBox="0 0 800 480" style="enable-background:new 0 0 800 480;" xml:space="preserve">
<style type="text/css">
	.st0{fill-rule:evenodd;clip-rule:evenodd;fill:#FFFFFF;}
	.st1{fill-rule:evenodd;clip-rule:evenodd;}
	.st2{fill-rule:evenodd;clip-rule:evenodd;fill:#0047A0;}
	.st3{fill-rule:evenodd;clip-rule:evenodd;fill:#CD2E3A;}
</style>
<path id="path526" class="st0" d="M0,0h800.1v480H0V0z"/>
<g>
	<path id="b" class="st1" d="M126,136.4l73.1-109.6L217.4,39l-73.1,109.6L126,136.4z M153.4,154.7l73.1-109.6l18.3,12.2l-73.1,109.6
		L153.4,154.7z M180.8,173l73.1-109.6l18.3,12.2l-73.1,109.6L180.8,173z"/>
	<g>
		<rect x="617.9" y="351.6" transform="matrix(0.5548 -0.832 0.832 0.5548 -13.146 700.5881)" width="60.4" height="22"/>
		<rect x="563.1" y="315.1" transform="matrix(0.5548 -0.832 0.832 0.5548 -7.1362 638.7368)" width="60.4" height="22"/>
		<rect x="590.5" y="333.3" transform="matrix(0.5548 -0.832 0.832 0.5548 -10.1414 669.6619)" width="60.4" height="22"/>
		<rect x="578.3" y="411" transform="matrix(0.5548 -0.832 0.832 0.5548 -80.1513 694.0774)" width="60.4" height="22"/>
		<rect x="550.9" y="392.7" transform="matrix(0.5548 -0.832 0.832 0.5548 -77.1466 663.1512)" width="60.4" height="22"/>
		<rect x="523.5" y="374.4" transform="matrix(0.5548 -0.832 0.832 0.5548 -74.1415 632.2261)" width="60.4" height="22"/>
	</g>
	<path class="st2" d="M491.3,221.7c-30.3-20.2-71.2-12-91.3,18.3c-20.2,30.3-61.1,38.4-91.3,18.3c-30.3-20.2-38.4-61.1-18.3-91.3
		c-40.4,60.5-24,142.3,36.5,182.7s142.3,24,182.7-36.5C529.8,282.8,521.6,241.9,491.3,221.7z"/>
	<path class="st3" d="M290.4,166.9c-20.2,30.3-12,71.2,18.3,91.3c30.3,20.2,71.2,12,91.3-18.3c20.2-30.3,61.1-38.4,91.3-18.3
		c30.3,20.2,38.4,61.1,18.3,91.3c-0.2,0.3-0.4,0.7-0.6,1c14.4-21.1,22.8-46.6,22.8-74.1c0-72.8-59-131.7-131.7-131.7
		c-46.8,0-87.9,24.4-111.3,61.2C289.3,168.6,289.9,167.7,290.4,166.9z"/>
	
		<rect x="170.8" y="322.9" transform="matrix(0.832 -0.5548 0.5548 0.832 -183.7304 165.4952)" class="st1" width="21" height="126.3"/>
	
		<rect x="223.4" y="287.9" transform="matrix(0.832 -0.5548 0.5548 0.832 -155.461 188.7572)" class="st1" width="21" height="126.3"/>
	<rect x="582.4" y="48.4" transform="matrix(0.832 -0.5548 0.5548 0.832 37.713 347.7147)" class="st1" width="21" height="126.3"/>
	<g>
		
			<rect x="178.1" y="311.1" transform="matrix(0.832 -0.5548 0.5548 0.832 -156.9954 161.8136)" class="st1" width="21" height="57.9"/>
		
			<rect x="216.1" y="368.1" transform="matrix(0.832 -0.5549 0.5549 0.832 -182.1975 192.4417)" class="st1" width="21" height="57.9"/>
	</g>
	<g>
		
			<rect x="537.1" y="71.7" transform="matrix(0.832 -0.5548 0.5548 0.832 36.1787 320.7711)" class="st1" width="21" height="57.9"/>
		
			<rect x="575.1" y="128.6" transform="matrix(0.832 -0.5548 0.5548 0.832 10.9782 351.3968)" class="st1" width="21" height="57.9"/>
	</g>
	<g>
		<rect x="589.7" y="36.7" transform="matrix(0.832 -0.5548 0.5548 0.832 64.448 344.0332)" class="st1" width="21" height="57.9"/>
		
			<rect x="627.6" y="93.6" transform="matrix(0.8319 -0.5549 0.5549 0.8319 39.2515 374.668)" class="st1" width="21" height="57.9"/>
	</g>
</g>
</svg>
