<?xml version="1.0" encoding="utf-8"?>
<!-- Generator: Adobe Illustrator 24.0.1, SVG Export Plug-In . SVG Version: 6.00 Build 0)  -->
<svg version="1.1" id="flag-icons-ky" xmlns="http://www.w3.org/2000/svg" xmlns:xlink="http://www.w3.org/1999/xlink" x="0px"
	 y="0px" viewBox="0 0 800 480" style="enable-background:new 0 0 800 480;" xml:space="preserve">
<style type="text/css">
	.st0{fill:#000066;}
	.st1{fill:#FFFFFF;}
	.st2{fill:#C8102E;}
	.st3{fill:#FFFFFF;stroke:#FFFFFF;stroke-width:8.3651;stroke-linejoin:round;stroke-miterlimit:3.4854;}
	.st4{fill:#FCEA83;stroke:#FFFFFF;stroke-width:8.3651;stroke-linejoin:round;stroke-miterlimit:3.4854;}
	.st5{fill:#C8102E;stroke:#FFFFFF;stroke-width:8.3651;stroke-linejoin:round;stroke-miterlimit:3.4854;}
	.st6{fill:#073163;stroke:#FFFFFF;stroke-width:8.3651;stroke-linejoin:round;stroke-miterlimit:3.4854;}
	.st7{fill:#059334;stroke:#FFFFFF;stroke-width:8.3651;stroke-linejoin:round;stroke-miterlimit:3.4854;}
	.st8{stroke:#FFFFFF;stroke-width:8.3651;stroke-linejoin:round;stroke-miterlimit:3.4854;}
	.st9{fill:#00493D;stroke:#FFFFFF;stroke-width:8.3651;stroke-linejoin:round;stroke-miterlimit:3.4854;}
	.st10{fill:none;stroke:#FFFFFF;stroke-width:8.3651;stroke-linejoin:round;stroke-miterlimit:3.4854;}
	.st11{fill:#FCEA83;stroke:#000000;stroke-width:1.2199;stroke-miterlimit:3.4854;}
	.st12{fill:#C8102E;stroke:#000000;stroke-width:1.2199;stroke-miterlimit:3.4854;}
	.st13{fill:#00493D;}
	.st14{fill:#FFFFFF;stroke:#000000;stroke-width:1.2199;stroke-miterlimit:3.4854;}
	.st15{fill:#073163;stroke:#000000;stroke-width:1.2199;stroke-miterlimit:3.4854;}
	.st16{fill:#F9D050;stroke:#000000;stroke-width:0.5228;stroke-miterlimit:3.4854;}
	.st17{fill:none;stroke:#000000;stroke-width:0.5228;stroke-miterlimit:3.4854;}
	.st18{fill:#059334;stroke:#000000;stroke-width:1.2199;stroke-miterlimit:3.4854;}
	.st19{stroke:#000000;stroke-width:1.2199;stroke-miterlimit:3.4854;}
	.st20{fill:#00493D;stroke:#000000;stroke-width:1.2199;stroke-miterlimit:3.4854;}
	.st21{fill:none;stroke:#000000;stroke-width:1.2199;stroke-miterlimit:3.4854;}
	.st22{fill:#0B50A0;}
	.st23{fill:#F9D050;stroke:#000000;stroke-width:1.2199;stroke-miterlimit:3.4854;}
	.st24{fill:#073163;}
	.st25{fill:#F9D050;}
	.st26{fill:#024919;}
</style>
<path id="path6183" class="st0" d="M0,0h800v480H0V0z"/>
<path id="path6352" class="st1" d="M46.9,0l152.5,90.5L351.2,0H400v31l-150,89.5l150,89V240h-50l-150-89.5L50.6,240H0v-30l149.4-89
	L0,32V0H46.9z"/>
<path id="path6354" class="st2" d="M265,140.5L400,220v20l-169.4-99.5H265z M150,150.5l3.8,17.5l-120,72H0L150,150.5z M400,0v1.5
	l-155.6,94l1.2-22L368.8,0H400z M0,0l149.4,88h-37.5L0,21V0z"/>
<path id="path6356" class="st1" d="M150.6,0v240h100V0H150.6z M0,80v80h400V80H0z"/>
<path id="path6358" class="st2" d="M0,96.5v48h400v-48H0z M170.6,0v240h60V0H170.6z"/>
<g>
	<g id="border_1_" transform="translate(-306.8 -21.2) scale(.87136)">
		<g id="use1093_1_">
			<path id="shield_3_" class="st3" d="M1126.7,233v93.4c0,81-38.3,108.8-89.6,130.8c-51.3-22-90-49.8-90-130.8v-93.5L1126.7,233
				L1126.7,233z"/>
		</g>
		<g id="use1095_1_">
			<g id="motto1_3_">
				<path id="path1108_3_" class="st4" d="M891.4,449.6c2.9,7.6,23.5,17.7,47.5,4.8c16.3-9.2,26.8-22,36.9-45
					c2.8-5.8,4.3-13-2.4-17.3c-5.3-3.9-14-8.2-17.8-12c-1.9-2-3.8-3.4-5.2-4.8c1,1,1.9,1.9,2.8,3.3c9.6,11.5-0.4,28.3-11,38.4
					c-7.7,7.2-21.5,24.9-41.7,8.1C896.2,421.3,886.1,437.1,891.4,449.6L891.4,449.6z"/>
				<path id="path1110_3_" class="st4" d="M1182.8,449.6c-3.4,7.6-24,17.7-47.5,4.8c-16.2-9.2-26.8-22-37.3-45
					c-2.4-5.8-3.9-13,2.8-17.3c5.3-3.9,14-8.2,17.8-12c1.9-2,3.3-3.4,5.2-4.8c-1,1-1.9,1.9-2.8,3.3c-9.6,11.5,0.4,28.3,10.5,38.4
					c7.7,7.2,22,24.9,42.2,8.1C1178,421.3,1187.6,437.1,1182.8,449.6L1182.8,449.6z"/>
				<path id="path1112_3_" class="st4" d="M1037.1,490.8c38.3,0,97.3-17.3,129-77.7c5.2-10,0-15.3-6.3-18.6
					c-7.1-3.6-13.6-8.3-19.2-14c7.7,7.7,6.2,13,1,21.6c-24.5,40.8-58,61.4-104.5,61.4s-80-20.6-104.5-61.4
					c-5.2-8.6-6.7-13.9,0.5-21.5c-5.5,5.8-12,10.5-19.2,13.9c-6.2,3.3-11.5,8.6-6.2,18.6C939.3,473.5,998.7,490.8,1037.1,490.8z"/>
			</g>
		</g>
		<g id="use1097_1_">
			<g id="motto2_3_">
				<path id="path1115_3_" class="st5" d="M948.4,409.8c-1-4.8-7.1-2.9-9,2.9c-2.6-3.3-4.9-6.9-6.8-10.6c-5.7-8.6-6.7-14.4,1.5-22.5
					c3.8-3.8,11.5-8.2,16.7-3.4C961.8,385.3,956.1,400.2,948.4,409.8z"/>
				<path id="path1117_3_" class="st5" d="M1125.3,409.8c1-4.8,7.7-2.9,9.6,2.9c2.4-3.4,4.8-6.7,6.7-10.6c5.7-8.6,6.7-14.4-2-22.5
					c-3.3-3.8-11-8.2-16.7-3.4C1112.3,385.3,1117.6,400.2,1125.3,409.8z"/>
				<path id="path1119_3_" class="st5" d="M891.4,449.6c-4.8-7.2-8.6-26-9.6-30.7c-1.4-4.3-1.9-8.2,3.4-10c5.3-2,10,4.7,12.4,10.5
					c2.4,5.7,6.3,14.3,10.6,24.9C897.6,438.1,889,442.3,891.4,449.6L891.4,449.6z"/>
				<path id="path1121_3_" class="st5" d="M1182.8,449.6c4.3-7.2,8.1-26,9.6-30.7c1-4.3,1.9-8.2-3.4-10c-5.3-2-10,4.7-12.4,10.5
					c-2.4,5.7-6.3,14.3-10.6,24.9C1176.6,438.1,1184.7,442.3,1182.8,449.6L1182.8,449.6z"/>
			</g>
		</g>
		<g id="use1099_1_">
			<g id="rope_3_">
				<path id="path1179_3_" class="st3" d="M1000.2,232.5c-6.2,1.4-10.5,1.9-16.3-3.4c-3.8-3.8-2.9-10.5,1-13
					c4.3-2.8,8.1-4.7,13.4-3.3c5.3,1.5,19.2,14.4,15.8,14.9C1010.7,227.7,1005.5,231,1000.2,232.5z"/>
				<path id="path1181_3_" class="st3" d="M1015,209.5c2-1.5,4.4-2.4,10.6-3c5.8-0.4,10-0.4,11.5,4c2,5.2,3.4,11.4,7.2,14.3
					c-2.4,1.4-14.4,2.9-18.7,0.5C1019.9,222.4,1018.4,211.3,1015,209.5L1015,209.5z"/>
				<path id="path1183_3_" class="st3" d="M1056.3,210c1.9-1.5,4.3-1.5,10.5-1c6.2,0.5,8.6,1,10,5.3c1.5,4.8,0,11,3,15.3
					c-3,1-12.5,1-15.9-2.4C1058.7,223.4,1059.1,212.3,1056.3,210L1056.3,210z"/>
				<path id="path1185_3_" class="st6" d="M1085,212.8c-4.3-1-7.2-1.4-9,0c2.3,2.9,0.4,14.4,5.2,18.2c3.3,2.4,12,3,13.9-2.4
					C1097.5,223.8,1097.5,216.6,1085,212.8L1085,212.8z"/>
				<path id="path1187_3_" class="st6" d="M1035.7,208c1.4-1.4,4.3-1.9,10-1.9c6.3,0,10,1,12,4.8c2,4.8,1.4,11,4.8,14.9
					c-1.4,1.9-14.4,1.9-18.2-1C1039,221.4,1038.5,210.4,1035.7,208z"/>
				<path id="path1189_3_" class="st6" d="M995,212.3c0-2.4,3.3-2.8,12-3.3c8.5-1,9-0.5,11.9,5.7c1.4,3.4,3.3,9.1,7.2,11
					c-10.6,2.5-14,3.9-19.7,0.5c-4.2-2.6-7.6-6.2-10-10.5C995.9,214.3,995.9,212.8,995,212.3L995,212.3z"/>
			</g>
		</g>
		<g id="use1101_1_">
			<g id="turtle_3_">
				<path id="path1270_3_" class="st7" d="M995.9,169.7c-3.4,0-6.2-1.4-8.2-3.8c-3.3-4.4-12.4-6.3-16.3-2.4c-1.4,1-3.3,1-4.7,1.4
					c-2.4,0-5.3,2.4-4.4,7.2c2-1.5,2.4,0,3.9,0c1-0.5,0.5,0.5,0.5,1.4c0,2.4,5.2,7.2,10,6.7c5.3,0,7.7,2,8.6,3
					c1.5,1.3,0.5,0.9,1.5,3.3c1.4,1.4,1.9,1.9-0.5,3.8c-4.1,3.4-4.7,9.5-1.2,13.7c0.4,0.4,0.8,0.9,1.2,1.2c6.2,4.7,22,12,39.8-2
					c17.2-13.4,44-5.7,46-1c2.4,4.9,3.3,7.7,3.8,10.1c0.5,2,2.9,3.9,6.3,3.4c3.3,0,7.1,1.4,9,2.9c2.5,1.4,5.8,1,4.9-3.4
					c-2-13.4-10.1-15.3-11-21.5c4.7,0.4,8,0.4,10-1.5c1.4-1.9,3.3-5.3,5.3-6.2c1.4-1,1.4-2-0.5-1.5c-2.4,0.5-3.8,1.5-8.2,1
					C1069.7,183.1,1007.9,166.3,995.9,169.7L995.9,169.7z"/>
				<path id="path1272_3_" class="st8" d="M1093.7,186c-3.7,2.6-6.8,5.8-9.2,9.6c-4.7,6.2-19.1,12.4-36.9,12.4
					c-17.2,0-27.7-2.8-35.4-9c-3.3-2.6-6.8-4.9-10.6-6.8c-5.2-2.4-6.2-7.7-4.8-12c-1.4,2.4-2.3,4.8-5.2,4.3c-2,0-5.8,0-4.8,2
					c-0.5-1-0.5-2.4-1-3l-1-0.9c1.5,1,4.9-1.9,7.3-1.9c1.9,0.5,4.3-1.9,3.8-4.8l-1.4-6.2c3.8-2,54.1,7.2,64.2,8.1
					C1068.7,178.3,1097.5,182.6,1093.7,186L1093.7,186z"/>
				<path id="path1274_3_" class="st7" d="M1002.6,167.8c4.8-4.8,10.5-7.2,16.3-5.8h1.4c3-2.4,9.6-2.9,13.5-1h1.9
					c5.7-1.9,16.7,0,20.6,3.9l1.4,1c13-1,20.6,4.7,29.7,13.9c1,1,2.4,2.8,4.8,3.3c2.9,0.5,3.4,2,1,3.4c-3.8,2.4-7.2,5.4-10,9
					c-4.4,5.8-18.3,11.6-35.6,11.6c-16.7,0-26.8-3-34.5-8.7c-4.3-3.3-7.6-5.2-10-6.7c-2.9-1-6.7-4.8-5.3-8.6c1-3.8-1.4-8.6-3.3-13.4
					c1.4-1,5.2-2.4,7.1-1.4L1002.6,167.8z"/>
				<g id="g1292_3_">
					<path id="path1276_3_" class="st9" d="M1087.4,179.8c-9-9.2-16.7-14.9-29.7-14c0,0.5,0,2-0.5,3c9.1,4.1,17.1,10.1,23.5,17.7
						C1082.7,184.5,1086,182.2,1087.4,179.8z"/>
					<path id="path1278_3_" class="st9" d="M1056.3,164.9c-3.9-3.8-14.9-5.8-20.6-3.8c0,1.9,0,4.8-1,6.7c3.4,1.4,6.2,4.8,9.1,8.1
						c2-0.5,6.7-1.9,9.1-2.4C1054.3,170.8,1055.5,167.9,1056.3,164.9z"/>
					<path id="path1280_3_" class="st9" d="M1033.8,161c-3.9-1.9-10.6-1.4-13.5,1c-1,2-1.4,5.8-1.4,7.7c2,0,4.8,1.4,5.7,2.4
						c3-1,6.8-2.9,8.2-4.3C1033.3,165.8,1034.2,163,1033.8,161L1033.8,161z"/>
					<path id="path1282_3_" class="st9" d="M1002.6,167.8c4.8-4.8,10.5-7.2,16.3-5.8c-1,1.5-1.4,4.3-1.4,7.2c-5.3-0.5-12,1-14.9,2.9
						L1002.6,167.8z"/>
					<path id="path1284_3_" class="st9" d="M1078.8,187.4c-6-7.1-13.5-12.9-22-16.8c0,0.5-1,2.4-1.5,3.9c2.9,4.3,8.6,13.9,11,19.2
						C1068.7,192.7,1075.4,189.8,1078.8,187.4L1078.8,187.4z"/>
					<path id="path1286_3_" class="st9" d="M1042.4,198c0.8-6.5,1.3-13.1,1.4-19.7c2.4-0.5,7.2-1.9,9.1-2.4
						c2.4,3.9,8.2,14,10.6,18.7C1057.7,196,1048.1,198.4,1042.4,198z"/>
					<path id="path1288_3_" class="st9" d="M1025.6,175c2.4-1,5.8-3,8.1-4.8c2,1.4,5.8,4.8,7.2,6.7c0,4.3-1.4,16.8-1.9,21
						c-3.8,0-10-0.9-13.4-2.8C1026.1,187.9,1026.6,179.8,1025.6,175L1025.6,175z"/>
					<path id="path1290_3_" class="st9" d="M1001.6,180.7c0.5-1,1-4.3,1-5.7c3.8-2.4,13.4-4.8,20.6-1c0.5,4.8,0,16.8-0.5,19.7
						C1016.3,188.5,1009.2,184.1,1001.6,180.7L1001.6,180.7z"/>
				</g>
				<g id="g1308_3_">
					<path id="path1294_3_" d="M977.7,172c-1,0-1.5-2.8-3.4-2.8c-0.5,0-1.9,0.5-2.4,0c0,1,0.5,2,1,2.4
						C973.4,173,975.8,172.1,977.7,172L977.7,172z"/>
					<path id="path1296_3_" class="st10" d="M977.7,180.2c5.7,0,6.7-7.2,9.6-7.6"/>
					<path id="path1298_3_" class="st10" d="M981,180.7c4.3,2,7.7-8.1,11-7.7"/>
					<path id="path1300_3_" class="st10" d="M972.4,168.3c1.4,0,2.4-2,4.8,0.4c1,1,2.4,1.5,3.4,1.5"/>
					<path id="path1302_3_" class="st10" d="M979.6,175.4c-2,3-5.3,4.8-7.2,3.9"/>
					<path id="path1304_3_" class="st10" d="M971.4,163.5c-1.4,1-2.3,2.8-3.3,4.3"/>
					<path id="path1306_3_" class="st10" d="M966.7,170.6v2.4"/>
				</g>
			</g>
		</g>
		<g id="use1103_1_">
			<g id="pineapple1_3_">
				<path id="path1192_3_" class="st8" d="M1018,163.5c-10.1-7.7-22.1-14.9-33.1-16.3c11.5,7.7,22.4,16.1,32.6,25.4"/>
				<path id="path1194_3_" class="st8" d="M1023.7,156.3c-12-8.2-25.9-17.3-39.3-18.2c12.5,7.3,23.7,16.7,33,27.8"/>
				<path id="path1196_3_" class="st8" d="M1039,142.9c5.4-12.3,13.4-23.3,23.5-32.2c-4.8,10.1-10,30.7-12.5,38.9"/>
				<path id="path1198_3_" class="st8" d="M1049.6,140.5c4.6-11.3,13.3-20.4,24.4-25.5c-8.3,10.4-14.5,22.3-18.2,35"/>
				<path id="path1200_3_" class="st8" d="M1053.9,150c9.2-14.1,22.3-25.1,37.8-31.6c-12,12-29.7,34-34,42.7"/>
				<path id="path1202_3_" class="st8" d="M1060.6,160.6c8.6-4.8,25.9-12.5,38.3-10c-7.6,2.8-30.6,13.3-40.7,23"/>
				<path id="path1204_3_" class="st8" d="M1058.7,157.2c8.1-8.6,23-21.5,38.8-26.8c-11.5,11-36,36-39.3,39.8"/>
				<path id="path1206_3_" class="st8" d="M1035.7,152c-5.8-17.8-14.4-34.5-27.3-39.8c10.3,14.7,17.4,31.3,21,48.9"/>
				<path id="path1208_3_" class="st8" d="M1024.6,151.5c-9.5-11.5-22.5-23-37.3-25.4c14.5,9.5,26,23,33,38.8"/>
				<path id="path1210_3_" class="st8" d="M1030,151c-12-21.6-21.2-25.4-26.4-29.7c4.3,8.1,14.8,29.7,21,38.8"/>
				<path id="path1212_3_" class="st10" d="M1006,149.6c6.8,4.3,12.7,10,17.2,16.7"/>
				<path id="path1214_3_" class="st8" d="M1006,159.6c2.8,2.4,8.1,5.3,12.9,9.6"/>
				<path id="path1216_3_" class="st8" d="M1063,166.8c4.8-3.8,15.3-10,20.6-12"/>
				<path id="path1218_3_" class="st8" d="M1059.6,163.5c4.8-6.3,14.4-14.9,17.8-17.8"/>
				<path id="path1220_3_" class="st8" d="M1073,133.7c-6.4,7.2-12.5,14.8-18.2,22.6"/>
				<path id="path1222_3_" class="st8" d="M1060.6,129.4c-4.5,6.7-8.6,13.8-12,21.1"/>
				<path id="path1224_3_" class="st8" d="M1022.7,130.4c2.9,7.7,8.2,20.6,10,25.9"/>
				<path id="path1226_3_" class="st8" d="M1018.4,138.5c2,3,5.8,9.6,7.2,14.4"/>
			</g>
		</g>
		<g id="use1105_1_">
			<g id="pineapple2_3_">
				<path id="path1229_3_" class="st8" d="M1034.7,136.1c0-4.3,2.9-9,5.8-9c3.3,0,5.7,5.7,5.7,9c0,3.9-2.9,7.2-5.7,7.2
					C1037.5,143.3,1034.7,140.5,1034.7,136.1z"/>
				<path id="path1231_3_" class="st8" d="M1028.5,140c0.5-4.8,3.8-8.6,6.7-8.2c2.9,0.5,4.3,6.3,3.8,9.6c-0.5,3.8-3.8,6.7-6.2,6.2
					C1030.4,147.6,1028,144.3,1028.5,140z"/>
				<path id="path1233_3_" class="st8" d="M1041.4,141.4c-1-4.3,1-9,3.9-9.6c2.8-0.4,5.7,4.3,6.2,8.2c1,3.8-1.5,7.6-3.9,7.6
					C1045.3,148.1,1041.9,145.7,1041.4,141.4z"/>
				<path id="path1235_3_" class="st8" d="M1034.2,145.2c0-4.7,2.9-9,5.8-9c3.3,0,5.7,5.2,5.7,9c0,3.9-2.8,7.2-5.7,7.2
					S1034.2,149.6,1034.2,145.2z"/>
				<path id="path1237_3_" class="st8" d="M1025.6,147.6c0-4.3,3.4-9,6.2-9c3,0,5.8,5.7,5.8,9c0,3.9-3.4,7.2-5.8,7.2
					C1029,154.8,1025.6,152,1025.6,147.6z"/>
				<path id="path1239_3_" class="st8" d="M1043.3,145.7c0-4.3,3-9,5.8-9c3.3,0,5.7,5.7,5.7,9c0,3.9-2.8,7.2-5.7,7.2
					S1043.3,150,1043.3,145.7z"/>
				<path id="path1241_3_" class="st8" d="M1041.4,149.6c0-4.8,3.4-9.1,6.2-9.1c3,0,5.8,5.2,5.8,9c0,3.9-2.9,7.3-5.8,7.3
					C1044.8,156.8,1041.4,153.8,1041.4,149.6z"/>
				<path id="path1243_3_" class="st8" d="M1033.8,153.9c0-4.8,2.8-9.1,5.7-9.1c3.4,0,5.8,5.7,5.8,9c0,4-3,7.3-5.8,7.3
					C1036.6,161.1,1033.7,158.1,1033.8,153.9L1033.8,153.9z"/>
				<path id="path1245_3_" class="st8" d="M1021.8,153.9c0-4.8,2.4-9.1,4.8-9.1c2.4,0,4.3,5.7,4.3,9c0,4-2.4,7.3-4.3,7.3
					C1024.2,161.1,1021.8,158.1,1021.8,153.9z"/>
				<path id="path1247_3_" class="st8" d="M1048.6,153c0-4.4,2.4-8.7,4.8-8.7c2.4,0,4.8,5.3,4.8,8.6c0,4.3-2.9,7.2-4.8,7.2
					C1051,160.1,1048.6,157.2,1048.6,153L1048.6,153z"/>
				<path id="path1249_3_" class="st8" d="M1051.5,161c1-4.7,3.8-8.6,5.7-8c2,0.4,2.4,6.1,1.5,9.5c-0.5,4.3-3.4,6.7-5.3,6.2
					C1051.4,168.3,1050.5,164.9,1051.5,161L1051.5,161z"/>
				<path id="path1251_3_" class="st8" d="M1042.4,159.6c0.5-4.3,3.3-8.6,5.7-8.1c2.9,0,4.3,5.7,3.9,9c-0.5,4.4-3,7.3-5.3,6.8
					C1044.3,167.3,1041.9,163.9,1042.4,159.6L1042.4,159.6z"/>
				<path id="path1253_3_" class="st8" d="M1029,161c-1.5-4.7-4.4-8-6.3-7.6c-1.9,0.5-2.4,6.2-1.4,9.6c1,3.8,3.8,6.2,5.7,5.7
					C1028.5,168.3,1030,164.9,1029,161L1029,161z"/>
				<path id="path1255_3_" class="st8" d="M1025.6,160.1c0-4.3,2.4-8.6,4.8-8.6c2.9,0,4.8,5.3,4.8,8.6c0,4.3-2.4,7.2-4.8,7.2
					C1028.4,167.3,1025.6,164.4,1025.6,160.1z"/>
				<path id="path1257_3_" class="st8" d="M1032.8,162c0-4.8,2.9-9,5.7-9c3.4,0,5.8,5.2,5.8,9c0,3.9-2.9,7.2-5.8,7.2
					C1035.7,169.2,1032.8,166.3,1032.8,162z"/>
				<path id="path1259_3_" class="st8" d="M1035.2,109.3c-1,3.8-4.3,7.2-2,12.5c-4.2-1.5-8-2-11.4,1.9c4.3-0.5,8.1,1,10,3.8
					c-3.8-0.5-5.7,1.5-6.7,3.9c3.4-1,6.7-2,8.2-1.5c-1.5,1.5-3.9,3.8-4.3,5.8c2.8-2.4,6.2-2,8.1-3.4c-1.4,3.4,1.4,6.7,3.8,10
					c-0.4-4.7,2.4-8,1-10.5c4.3,1,4.8,4.8,11,4.8c-2.4-1.4-3.8-6.2-6.7-6.2c1.4-0.5,7.2-1,8.2,0c-1-2-4.4-3.8-6.3-3.8
					c2-2,5.3-5.8,7.7-6.8c-3.4,0.5-8.6,1-10.5,3.9c4.7-3.9,3.8-11,9-12c-2.8-0.5-7.1,1.4-10.5,4.8c1.5-2.9,1.5-6.7,3.4-7.7
					c-3.9,1-8.2,5.8-9.6,8.2C1037.4,114.3,1036.6,111.7,1035.2,109.3L1035.2,109.3z"/>
				<path id="path1261_3_" class="st8" d="M1037.6,117c0,1.4,0,4.3-0.5,5.2"/>
				<path id="path1263_3_" class="st8" d="M1043.8,116.5c-1,1-2.9,4.3-2.9,7.2"/>
				<path id="path1265_3_" class="st10" d="M1046.7,122.2c-1.6,1-2.9,2.6-3.4,4.4"/>
			</g>
		</g>
	</g>
	<g id="motto_1_" transform="translate(-306.8 -21.2) scale(.87136)">
		<g id="motto1_2_">
			<path id="path1108_2_" class="st11" d="M891.4,449.6c2.9,7.6,23.5,17.7,47.5,4.8c16.3-9.2,26.8-22,36.9-45
				c2.8-5.8,4.3-13-2.4-17.3c-5.3-3.9-14-8.2-17.8-12c-1.9-2-3.8-3.4-5.2-4.8c1,1,1.9,1.9,2.8,3.3c9.6,11.5-0.4,28.3-11,38.4
				c-7.7,7.2-21.5,24.9-41.7,8.1C896.2,421.3,886.1,437.1,891.4,449.6L891.4,449.6z"/>
			<path id="path1110_2_" class="st11" d="M1182.8,449.6c-3.4,7.6-24,17.7-47.5,4.8c-16.2-9.2-26.8-22-37.3-45
				c-2.4-5.8-3.9-13,2.8-17.3c5.3-3.9,14-8.2,17.8-12c1.9-2,3.3-3.4,5.2-4.8c-1,1-1.9,1.9-2.8,3.3c-9.6,11.5,0.4,28.3,10.5,38.4
				c7.7,7.2,22,24.9,42.2,8.1C1178,421.3,1187.6,437.1,1182.8,449.6L1182.8,449.6z"/>
			<path id="path1112_2_" class="st11" d="M1037.1,490.8c38.3,0,97.3-17.3,129-77.7c5.2-10,0-15.3-6.3-18.6
				c-7.1-3.6-13.6-8.3-19.2-14c7.7,7.7,6.2,13,1,21.6c-24.5,40.8-58,61.4-104.5,61.4s-80-20.6-104.5-61.4
				c-5.2-8.6-6.7-13.9,0.5-21.5c-5.5,5.8-12,10.5-19.2,13.9c-6.2,3.3-11.5,8.6-6.2,18.6C939.3,473.5,998.7,490.8,1037.1,490.8z"/>
		</g>
		<g id="motto2_2_">
			<path id="path1115_2_" class="st12" d="M948.4,409.8c-1-4.8-7.1-2.9-9,2.9c-2.6-3.3-4.9-6.9-6.8-10.6c-5.7-8.6-6.7-14.4,1.5-22.5
				c3.8-3.8,11.5-8.2,16.7-3.4C961.8,385.3,956.1,400.2,948.4,409.8z"/>
			<path id="path1117_2_" class="st12" d="M1125.3,409.8c1-4.8,7.7-2.9,9.6,2.9c2.4-3.4,4.8-6.7,6.7-10.6c5.7-8.6,6.7-14.4-2-22.5
				c-3.3-3.8-11-8.2-16.7-3.4C1112.3,385.3,1117.6,400.2,1125.3,409.8z"/>
			<path id="path1119_2_" class="st12" d="M891.4,449.6c-4.8-7.2-8.6-26-9.6-30.7c-1.4-4.3-1.9-8.2,3.4-10c5.3-2,10,4.7,12.4,10.5
				c2.4,5.7,6.3,14.3,10.6,24.9C897.6,438.1,889,442.3,891.4,449.6L891.4,449.6z"/>
			<path id="path1121_2_" class="st12" d="M1182.8,449.6c4.3-7.2,8.1-26,9.6-30.7c1-4.3,1.9-8.2-3.4-10c-5.3-2-10,4.7-12.4,10.5
				c-2.4,5.7-6.3,14.3-10.6,24.9C1176.6,438.1,1184.7,442.3,1182.8,449.6L1182.8,449.6z"/>
		</g>
		<g id="g1176_1_">
			<path id="path1124_1_" class="st13" d="M919.2,406.4l-3.8,2c-1,0.4-1,1.4-1,1.9h-0.5L912,406h0.5c0,0.4,0.5,1,1.4,0.4l8.2-4.3
				c1-0.5,1-1,0.5-1.4l0.4-0.5l2.4,4.8H925c-0.5-0.5-1-1-2-0.5l-3.3,2l1.4,2.8l3.9-1.4c1-0.5,0.4-1.5,0.4-2h0.5l2,4.4
				c-0.5-0.5-1-1-2-0.5l-8.1,4.3c-1,0.5-1,1-0.5,1.4l-0.5,0.5l-2.4-4.3l0.5-0.5c0.5,0.5,1,1,2,0.5l3.8-2L919.2,406.4z"/>
			<path id="path1126_1_" class="st13" d="M927.4,412.7c1-0.5,1-1,0.4-2h0.5l4.8,7.2l-3.3,2.4v-0.4c1.9-1.5,1.9-3.4,1.4-3.9
				s-1-1-1-1.4c-0.4,0-0.4-0.5-1.4,0.5l-3.4,2.4c0.5,0.4,1,1.9,3.4,0.4h0.5l-5.3,3.9v-0.5c2.4-2,1.4-3.4,1-3.8l-3.4,2.4
				c-1,0.4-1,1-1,1.4c0.5,0,0.5,0.5,1,1c0.5,1,2,1.9,4.3,1l0.5,0.4l-3.8,1.4l-4.8-7.6h0.5c0.4,0.4,1,1,1.9,0.4L927.4,412.7z"/>
			<path id="path1128_1_" class="st13" d="M935,430.9l-3.3,2.8c-0.5,0.5-0.5,1.5,0,2h-0.5l-3.4-3.4l0.5-0.5c0.5,0.5,1,1,2,0l6.2-6.2
				c1-0.5,1-1,0.4-2l3.4,4c-0.5-0.6-1.4-0.6-2,0l-2.8,2.8l2.4,2.4l2.9-2.4c1-1,0.5-1.4,0-2l0.5-0.4l3.3,3.8h-0.5
				c-0.4,0-1-0.4-1.9,0.5l-6.2,5.8c-1,1-1,1.4-0.5,1.9v0.5l-3.3-3.9c0.4,0,1.4,0.5,1.9,0l3.3-3.3L935,430.9z"/>
			<path id="path1130_1_" class="st13" d="M942.2,441l1.5,1.4l1.9-4.3c0,0-1.5,0.4-3.9,1.9L942.2,441l-0.5,0.4l-1-1
				c-0.4,0.5-0.9,0.5-1.4,1c-1.4,1-1,1.5-0.4,2v0.4l-2.4-2.4h0.4l2-0.5l9.5-5.2l0.5,0.4c0,0-0.5,0.5-4.8,10.1c0,1-0.4,1.4,0,2.4
				l-3.8-3.3l0.5-0.5c0.5,1,1.4,1,1.9,0c0-0.5,0.5-1.5,0.5-2l-1.5-1.4l0.5-0.5V441z"/>
			<path id="path1132_1_" class="st13" d="M946,450.5l0.5-0.5c0.5,0.5,1,0.5,2,0l6.2-8.1l-0.5-0.5c-1-0.5-2.4-0.5-3.8,1v-0.5
				l1.9-2.4l7.2,5.3l-2.4,2.8h-0.5c1.4-1.4,1-3.3,0-3.8v-0.5l-6.2,8.2c-1,0.5-0.5,1.4,0,1.9h-0.5L946,450.5z"/>
			<path id="path1134_1_" class="st13" d="M958.5,452.4l-2.4,3.4c-0.5,1,0,1.4,0.5,2l-0.5,0.4l-3.8-2.9v-0.5c1,0.5,1.4,0.5,1.9-0.4
				l5.3-7.2c0.4-1,0-1.5-0.5-2l0.5-0.4l3.8,2.8v0.5c-1-0.5-1.4-0.5-2,0.5L959,452l2.9,1.9l2.4-3.4c0.4-1,0-1.4-0.5-1.9l0.5-0.5
				l3.8,2.9v0.5c-0.5-0.5-1.4-0.5-2,0.5l-4.7,7.6c-1,0.5-0.5,1,0,1.5v0.4l-4.3-2.8h0.5c0.4,0,1,0,1.4-0.5l2.4-3.8L958.5,452.4z"/>
			<path id="path1136_1_" class="st13" d="M968.1,465.9l0.5-0.5c0.5,0.5,1.4,0.5,1.9-0.5l3.8-8.1c0.5-1,0-1.5-0.5-2l8.2,3.9l-2,3.8
				l-0.4-0.5c1.4-1.9,0-3.8-0.5-4.3c-0.5,0-1-0.5-1.4-0.5c-0.5,0-0.5,0-1,1c-0.5,0.5-1.9,3.3-1.9,3.3c0.5,0.5,1.4,1.5,3.4-1h0.4
				l-2.8,5.8l-0.5-0.4c1.4-3-0.5-3.4-1-3.4l-1.9,3.8c-0.5,1,0,1.5,0.5,1.5v0.5L968.1,465.9z"/>
			<path id="path1138_1_" class="st13" d="M982,472.6c-1.4-1-1.4-3.9,0-6.7c1-3,2.9-5.3,4.8-4.4c1.4,0.5,1,3.4,0,6.3
				C985.3,471.1,983.4,473,982,472.6l-0.5,0c3.4,1.4,5.8-0.5,7.2-3.9c1.4-2.8,1-6.2-2-7.6c-2.8-1.5-5.7,0.4-7.1,3.8
				c-1.4,3.4-1,6.7,2,7.7L982,472.6z"/>
			<path id="path1140_1_" class="st13" d="M996.8,473.5l2-5.7c0.4-1,0-1.5-0.5-2l2.4,0.5v0.5c-0.5,0-1,0-1.5,1l-1.9,5.7
				c-1,2.4-2.4,4.3-5.2,3.4c-2-0.5-3.4-2.9-2.4-5.3l2.4-6.2c0.4-1,0-1.5-0.5-2V463l4.3,1.9v0.5c-0.5-0.5-1.4-0.5-1.4,0.5L992,472
				c-0.5,1.9-0.5,3.8,1,4.3c1.4,0.5,2.8-0.5,3.7-2.9L996.8,473.5z"/>
			<path id="path1142_1_" class="st13" d="M1001.2,467.3c0-0.5,0-0.5-0.5-0.5l3.3,0.5l3,9.1l1.4-5.8c0.4-1,0-1.4-0.5-1.9l2.8,0.5
				l-0.4,0.5c-0.5,0-1,0-1.5,1l-2.4,10.5h-0.4l-3.9-11.5l-2.4,7.7c0,1.4,0.5,1.4,1,1.9v0.5l-2.9-1v-0.5c0.5,0.5,1.4,0,1.4-1l2.4-8.6
				L1001.2,467.3z"/>
			<path id="path1144_1_" class="st13" d="M1017.5,476.9c-1,4.3-3,5.3-3.9,5.3h-1c0,0-0.4-0.5,0-1l1.5-9.6c0.5-0.5,0.5-1,1-0.5h1
				C1017,471.1,1017.9,473.1,1017.5,476.9l1.4,0.5c1-4.8-1-6.8-3.4-7.2c-1.9-0.5-4.8-1-4.8-1v0.5c0.5,0.5,1.5,0.5,1,2l-1.4,8.5
				c-0.5,1-1,1.5-1.5,1.5h-0.4l4.7,1c2.4,0.4,4.8,0,5.8-5.3L1017.5,476.9z"/>
			<path id="path1146_1_" class="st13" d="M1021.8,473c0-1-1-1.4-1.5-1.4v-0.5l8.7,1l-0.5,3.8c0-2.4-1.5-3.3-2.4-3.3
				c-0.5-0.5-1-0.5-1.5-0.5c-0.4,0-0.4,0-0.4,1.4l-0.5,3.9c0.5,0,1.9,0.4,2.9-2.4l-0.5,6.2h-0.5c0-2.9-1.4-2.9-2-2.9l-0.4,4.3
				c0,1,0,1,0.5,1l1,0.5c1.4,0,2.8-0.5,3.8-3.4h0.5l-1,3.8l-9.1-1c1,0,1.4-0.4,2-1.3L1021.8,473z"/>
			<path id="path1148_1_" class="st13" d="M1037.6,478.8c0,4.3-1.5,5.7-2.9,5.7c-0.5-0.4-0.5-0.4-1-0.4l-0.4-0.5l0.5-10
				c0-0.6,0-0.6,0.4-0.6h1C1036.2,473,1037.6,474.5,1037.6,478.8h1.9c0-4.8-2.4-6.2-4.8-6.2c-2-0.5-4.8-0.5-4.8-0.5v0.5
				c0.5,0,1.5,0.4,1.5,1.4l-0.5,9.1c0,1-0.5,1.4-1,1.4v0.5h4.3c2.4,0,4.8-1,5.3-6.2L1037.6,478.8L1037.6,478.8z"/>
			<path id="path1150_1_" class="st13" d="M1051.5,482.6c0,1,0.5,1,1.4,1v0.5l-5.3,0.4c0.5-0.4,1.5-1,1.5-1.9l-1-9c-0.5-1-1-1-1.9-1
				v-0.5l5.3-0.5c-0.5,0.5-1.5,1-1,2L1051.5,482.6z"/>
			<path id="path1152_1_" class="st13" d="M1056.3,483.6v-0.5c0.5,0,1-0.5,1-1.4l-2-10h-0.5c-1,0.4-1.9,1.3-1.4,3.3h-0.5l-0.5-3.4
				l8.7-1.4l0.4,3.3h-0.4c0-1.9-1.5-2.4-3-2.4h-0.4l2,10c0,1,0.4,1.5,1.4,1.5v0.5L1056.3,483.6z"/>
			<path id="path1154_1_" class="st13" d="M1076.9,474l-2-5.7c0-1-0.9-1-1.4-1v-0.5l2.4-1v0.5c-0.5,0.5-0.5,0.5-0.5,1.5l2,6.2
				c0.4,2,0.4,4.8-2.4,5.8c-2,0.4-4.3-0.5-4.8-3.4l-2-6.2c-0.4-1-0.9-1-1.4-1l-0.5-0.5l4.8-1.4v0.5c-0.4,0.5-1,1-0.4,1.9l1.4,6.2
				c0.5,2,2,2.9,3.3,2.9C1076.9,478.3,1077.4,476.4,1076.9,474L1076.9,474z"/>
			<path id="path1156_1_" class="st13" d="M1082.2,470.6c2.3-1,1.9-2.3,1.4-3.8c-0.5-1.4-1.4-2.4-2.4-1.9c-0.5,0-1,0.5-0.5,1
				L1082.2,470.6l0.4,0.5l1,3.9c0.5,1,1.4,1,2,0.4v0.5l-4.4,2l-0.5-0.5c1-0.5,1-1,1-2l-3.4-8.1c-0.5-1.4-1-1-1.9-1v-0.4l4.8-2
				c2-0.4,3.8,0,4.8,2c0.5,2.4-0.5,3.8-2.4,4.8c-0.5,0-1,0.4-1,0.4L1082.2,470.6z"/>
			<path id="path1158_1_" class="st13" d="M1094.1,472c-1.4,0.6-3.3-1.4-4.8-4.7c-1.4-2.9-1.4-5.8,0-6.2c1.5-0.5,3.4,1.4,4.8,4.3
				C1095.6,468.3,1095.6,471.1,1094.1,472c3-0.9,3.9-4.2,2.4-7.6c-1.4-2.9-4.3-4.8-7.2-3.8c-2.8,1.4-3.9,4.8-2.5,7.5
				c0,0.1,0.1,0.1,0.1,0.2C1088.4,471.6,1091.3,473.5,1094.1,472L1094.1,472z"/>
			<path id="path1160_1_" class="st13" d="M1094.6,458.7h-0.9l2.8-2l8.7,4.8l-3-5.2c-0.4-1-1.4-1-1.8-1v-0.5l2.4-1c-0.5,0.6-1,1,0,2
				l4.8,9.6l-0.5,0.5l-10.6-5.8l3.9,7.2c0.4,1,1.4,1,1.9,0.5v0.5l-2.4,1.4v-0.5c0.5-0.5,0.5-1,0-1.9l-3.8-7.7l-1.5-1V458.7z"/>
			<path id="path1162_1_" class="st13" d="M1116.2,460.1v-0.5c0-0.5,0.5-1,0-1.9l-5.8-8.1h-0.5c-1,0.4-1.4,2.4,0,3.8l-0.4,0.5
				l-2-3.4l7.2-4.8l2,3c-1.5-1.5-3-1.5-3.9-1l-0.5,0.4l5.8,8.2c0.5,1,1.4,1,2,0.5v0.4L1116.2,460.1z"/>
			<path id="path1164_1_" class="st13" d="M1121.5,448.6l2.8,3.4c0.5,0.4,1.5,0.4,2,0v0.4l-3.9,3.4v-0.5c0.5-0.5,0.5-1,0-1.9
				l-5.7-7.2c-0.5-1-1-0.5-2-0.5l3.9-3.3v0.5c0,0.4-0.5,1,0,1.9l2.4,2.8l2.8-1.9l-2.3-3.3c-0.5-1-1.5-0.5-2-0.5l3.9-3.4v0.5
				c-0.5,0.5-0.5,1,0,2l5.7,7.1c0.5,0.5,1,0.5,1.5,0l0.4,0.5l-3.8,3.4l-0.5-0.5c0.5-0.5,1-1,0.5-2l-2.9-3.3L1121.5,448.6z"/>
			<path id="path1166_1_" class="st13" d="M1125.8,438.5c-0.5-0.4-1.5-0.4-2,0v-0.4l6.3-5.8l2.9,2.9h-0.5c-1.5-2-3.4-1-4.3-0.5
				c0,0.5-0.5,0.5-1,1c0,0,0,0.4,0.5,1.4l2.9,2.9c0.4-0.5,1.9-1.5,0-3.9h0.4l3.9,4.4v0.4c-2.4-2.4-3.4-1-3.9-0.4l3,2.8
				c0.4,1,0.9,1,0.9,1l1.4-1.4c0.5-0.5,1-2,0-4.8h0.5l1.9,3.3l-6.2,6.2l-0.5-0.4c0.5-0.5,1-1,0-2L1125.8,438.5z"/>
			<path id="path1168_1_" class="st13" d="M1137.3,425.1c-0.5,0.5-0.5,1.5,0.4,2c1,0.9,2,0.9,3.9,0c1-0.5,2.8-1,4.3,0.4
				c2.4,2.4,1.4,4.3,1,5.3c-0.5,0.5-1.5,1-2,1.4c-0.5,0-0.5,0-0.5,0.5v0.5l-3.3-2.9h0.5c1.9,1,3.8,1.4,4.8,0c1-1,0-2-0.5-2.4
				c-1-1-2-1-3.4,0c-1.4,0.5-3.3,0.5-4.8-0.5c-1.9-1.9-1.9-3.3-1-4.8l2-1.4c0.5,0,0.5,0,0-1l3.4,2.4h-0.5
				C1139.2,423.6,1137.7,424.2,1137.3,425.1L1137.3,425.1z"/>
			<path id="path1170_1_" class="st13" d="M1141.6,421.3c-1-0.5-1.5,0-2,0.5h-0.4l5.3-7.7l3.3,2.4l-0.5,0.5c-1.2-1.1-3.1-1.1-4.3,0
				c0,0.5-0.5,1-0.5,1.4c-0.4,0-0.4,0.5,0.5,1c0.5,0.5,3.4,2.4,3.4,2.4c0.5-0.5,1.4-1.5-0.5-3.4v-0.5l4.8,3.9
				c-2.9-1.5-3.4,0-3.8,0.4l3.3,2.4c1,0.5,1.4,0.5,1.4,0.5c0-0.5,0.5-1,1-1.4c0.5-1,1-2.4-1-4.3l0.5-0.5l2.4,2.9l-4.8,7.2h-0.5
				c0.5-1,0.5-1.5-0.4-2.4L1141.6,421.3z"/>
			<path id="path1172_1_" class="st13" d="M1154.5,412.7l-1.4,2.4c-2-2-2.9-3.4-2.9-3.4L1154.5,412.7h1c0.5,0,1.4,0.4,1.9,0.4
				c1.4,0.5,1,1,0.5,2h0.5l2.4-4.4c-1,1-1.5,0.5-2.4,0.5c-10.1-1.9-11-2.4-11-2.4v0.5l7.6,8.6c0.5,0.5,0.5,1.5,0.5,2h0.5l1.4-2.4
				l-0.5-0.5c-0.5,1-1,1.4-1.9,0l-1-1l1.5-3.3L1154.5,412.7z"/>
			<path id="path1174_1_" class="st13" d="M1151.6,402.1c-0.4,0.5-0.4,1.5,1,2c1.4,0.4,2,0,3.4-1s2.8-2,4.7-1c3,1.5,2.4,3.9,2,4.8
				l-1.5,2v0.9l-3.8-2c2.4,0.5,4.3,0,4.8-1.4c0.5-1-0.5-1.9-1-2.4c-1-0.4-1.9,0-3.3,1c-1.5,1.4-3,2-4.8,1c-2-1-2.9-2.4-2-3.9
				c0-1,1-1.4,1.5-1.9c0-0.5,0-0.5-0.5-1v-0.4l3.9,1.9h-0.5C1153.1,400.2,1151.6,401.2,1151.6,402.1z"/>
		</g>
	</g>
	<g id="crest_1_" transform="translate(-306.8 -21.2) scale(.87136)">
		<g id="rope_2_">
			<path id="path1179_2_" class="st14" d="M1000.2,232.5c-6.2,1.4-10.5,1.9-16.3-3.4c-3.8-3.8-2.9-10.5,1-13
				c4.3-2.8,8.1-4.7,13.4-3.3c5.3,1.5,19.2,14.4,15.8,14.9C1010.7,227.7,1005.5,231,1000.2,232.5z"/>
			<path id="path1181_2_" class="st14" d="M1015,209.5c2-1.5,4.4-2.4,10.6-3c5.8-0.4,10-0.4,11.5,4c2,5.2,3.4,11.4,7.2,14.3
				c-2.4,1.4-14.4,2.9-18.7,0.5C1019.9,222.4,1018.4,211.3,1015,209.5L1015,209.5z"/>
			<path id="path1183_2_" class="st14" d="M1056.3,210c1.9-1.5,4.3-1.5,10.5-1c6.2,0.5,8.6,1,10,5.3c1.5,4.8,0,11,3,15.3
				c-3,1-12.5,1-15.9-2.4C1058.7,223.4,1059.1,212.3,1056.3,210L1056.3,210z"/>
			<path id="path1185_2_" class="st15" d="M1085,212.8c-4.3-1-7.2-1.4-9,0c2.3,2.9,0.4,14.4,5.2,18.2c3.3,2.4,12,3,13.9-2.4
				C1097.5,223.8,1097.5,216.6,1085,212.8L1085,212.8z"/>
			<path id="path1187_2_" class="st15" d="M1035.7,208c1.4-1.4,4.3-1.9,10-1.9c6.3,0,10,1,12,4.8c2,4.8,1.4,11,4.8,14.9
				c-1.4,1.9-14.4,1.9-18.2-1C1039,221.4,1038.5,210.4,1035.7,208z"/>
			<path id="path1189_2_" class="st15" d="M995,212.3c0-2.4,3.3-2.8,12-3.3c8.5-1,9-0.5,11.9,5.7c1.4,3.4,3.3,9.1,7.2,11
				c-10.6,2.5-14,3.9-19.7,0.5c-4.2-2.6-7.6-6.2-10-10.5C995.9,214.3,995.9,212.8,995,212.3L995,212.3z"/>
		</g>
		<g id="g1268_1_">
			<g id="pineapple1_2_">
				<path id="path1192_2_" class="st16" d="M1018,163.5c-10.1-7.7-22.1-14.9-33.1-16.3c11.5,7.7,22.4,16.1,32.6,25.4"/>
				<path id="path1194_2_" class="st16" d="M1023.7,156.3c-12-8.2-25.9-17.3-39.3-18.2c12.5,7.3,23.7,16.7,33,27.8"/>
				<path id="path1196_2_" class="st16" d="M1039,142.9c5.4-12.3,13.4-23.3,23.5-32.2c-4.8,10.1-10,30.7-12.5,38.9"/>
				<path id="path1198_2_" class="st16" d="M1049.6,140.5c4.6-11.3,13.3-20.4,24.4-25.5c-8.3,10.4-14.5,22.3-18.2,35"/>
				<path id="path1200_2_" class="st16" d="M1053.9,150c9.2-14.1,22.3-25.1,37.8-31.6c-12,12-29.7,34-34,42.7"/>
				<path id="path1202_2_" class="st16" d="M1060.6,160.6c8.6-4.8,25.9-12.5,38.3-10c-7.6,2.8-30.6,13.3-40.7,23"/>
				<path id="path1204_2_" class="st16" d="M1058.7,157.2c8.1-8.6,23-21.5,38.8-26.8c-11.5,11-36,36-39.3,39.8"/>
				<path id="path1206_2_" class="st16" d="M1035.7,152c-5.8-17.8-14.4-34.5-27.3-39.8c10.3,14.7,17.4,31.3,21,48.9"/>
				<path id="path1208_2_" class="st16" d="M1024.6,151.5c-9.5-11.5-22.5-23-37.3-25.4c14.5,9.5,26,23,33,38.8"/>
				<path id="path1210_2_" class="st16" d="M1030,151c-12-21.6-21.2-25.4-26.4-29.7c4.3,8.1,14.8,29.7,21,38.8"/>
				<path id="path1212_2_" class="st17" d="M1006,149.6c6.8,4.3,12.7,10,17.2,16.7"/>
				<path id="path1214_2_" class="st16" d="M1006,159.6c2.8,2.4,8.1,5.3,12.9,9.6"/>
				<path id="path1216_2_" class="st16" d="M1063,166.8c4.8-3.8,15.3-10,20.6-12"/>
				<path id="path1218_2_" class="st16" d="M1059.6,163.5c4.8-6.3,14.4-14.9,17.8-17.8"/>
				<path id="path1220_2_" class="st16" d="M1073,133.7c-6.4,7.2-12.5,14.8-18.2,22.6"/>
				<path id="path1222_2_" class="st16" d="M1060.6,129.4c-4.5,6.7-8.6,13.8-12,21.1"/>
				<path id="path1224_2_" class="st16" d="M1022.7,130.4c2.9,7.7,8.2,20.6,10,25.9"/>
				<path id="path1226_2_" class="st16" d="M1018.4,138.5c2,3,5.8,9.6,7.2,14.4"/>
			</g>
			<g id="pineapple2_2_">
				<path id="path1229_2_" class="st16" d="M1034.7,136.1c0-4.3,2.9-9,5.8-9c3.3,0,5.7,5.7,5.7,9c0,3.9-2.9,7.2-5.7,7.2
					C1037.5,143.3,1034.7,140.5,1034.7,136.1z"/>
				<path id="path1231_2_" class="st16" d="M1028.5,140c0.5-4.8,3.8-8.6,6.7-8.2c2.9,0.5,4.3,6.3,3.8,9.6c-0.5,3.8-3.8,6.7-6.2,6.2
					C1030.4,147.6,1028,144.3,1028.5,140z"/>
				<path id="path1233_2_" class="st16" d="M1041.4,141.4c-1-4.3,1-9,3.9-9.6c2.8-0.4,5.7,4.3,6.2,8.2c1,3.8-1.5,7.6-3.9,7.6
					C1045.3,148.1,1041.9,145.7,1041.4,141.4z"/>
				<path id="path1235_2_" class="st16" d="M1034.2,145.2c0-4.7,2.9-9,5.8-9c3.3,0,5.7,5.2,5.7,9c0,3.9-2.8,7.2-5.7,7.2
					S1034.2,149.6,1034.2,145.2z"/>
				<path id="path1237_2_" class="st16" d="M1025.6,147.6c0-4.3,3.4-9,6.2-9c3,0,5.8,5.7,5.8,9c0,3.9-3.4,7.2-5.8,7.2
					C1029,154.8,1025.6,152,1025.6,147.6z"/>
				<path id="path1239_2_" class="st16" d="M1043.3,145.7c0-4.3,3-9,5.8-9c3.3,0,5.7,5.7,5.7,9c0,3.9-2.8,7.2-5.7,7.2
					S1043.3,150,1043.3,145.7z"/>
				<path id="path1241_2_" class="st16" d="M1041.4,149.6c0-4.8,3.4-9.1,6.2-9.1c3,0,5.8,5.2,5.8,9c0,3.9-2.9,7.3-5.8,7.3
					C1044.8,156.8,1041.4,153.8,1041.4,149.6z"/>
				<path id="path1243_2_" class="st16" d="M1033.8,153.9c0-4.8,2.8-9.1,5.7-9.1c3.4,0,5.8,5.7,5.8,9c0,4-3,7.3-5.8,7.3
					C1036.6,161.1,1033.7,158.1,1033.8,153.9L1033.8,153.9z"/>
				<path id="path1245_2_" class="st16" d="M1021.8,153.9c0-4.8,2.4-9.1,4.8-9.1c2.4,0,4.3,5.7,4.3,9c0,4-2.4,7.3-4.3,7.3
					C1024.2,161.1,1021.8,158.1,1021.8,153.9z"/>
				<path id="path1247_2_" class="st16" d="M1048.6,153c0-4.4,2.4-8.7,4.8-8.7c2.4,0,4.8,5.3,4.8,8.6c0,4.3-2.9,7.2-4.8,7.2
					C1051,160.1,1048.6,157.2,1048.6,153L1048.6,153z"/>
				<path id="path1249_2_" class="st16" d="M1051.5,161c1-4.7,3.8-8.6,5.7-8c2,0.4,2.4,6.1,1.5,9.5c-0.5,4.3-3.4,6.7-5.3,6.2
					C1051.4,168.3,1050.5,164.9,1051.5,161L1051.5,161z"/>
				<path id="path1251_2_" class="st16" d="M1042.4,159.6c0.5-4.3,3.3-8.6,5.7-8.1c2.9,0,4.3,5.7,3.9,9c-0.5,4.4-3,7.3-5.3,6.8
					C1044.3,167.3,1041.9,163.9,1042.4,159.6L1042.4,159.6z"/>
				<path id="path1253_2_" class="st16" d="M1029,161c-1.5-4.7-4.4-8-6.3-7.6c-1.9,0.5-2.4,6.2-1.4,9.6c1,3.8,3.8,6.2,5.7,5.7
					C1028.5,168.3,1030,164.9,1029,161L1029,161z"/>
				<path id="path1255_2_" class="st16" d="M1025.6,160.1c0-4.3,2.4-8.6,4.8-8.6c2.9,0,4.8,5.3,4.8,8.6c0,4.3-2.4,7.2-4.8,7.2
					C1028.4,167.3,1025.6,164.4,1025.6,160.1z"/>
				<path id="path1257_2_" class="st16" d="M1032.8,162c0-4.8,2.9-9,5.7-9c3.4,0,5.8,5.2,5.8,9c0,3.9-2.9,7.2-5.8,7.2
					C1035.7,169.2,1032.8,166.3,1032.8,162z"/>
				<path id="path1259_2_" class="st16" d="M1035.2,109.3c-1,3.8-4.3,7.2-2,12.5c-4.2-1.5-8-2-11.4,1.9c4.3-0.5,8.1,1,10,3.8
					c-3.8-0.5-5.7,1.5-6.7,3.9c3.4-1,6.7-2,8.2-1.5c-1.5,1.5-3.9,3.8-4.3,5.8c2.8-2.4,6.2-2,8.1-3.4c-1.4,3.4,1.4,6.7,3.8,10
					c-0.4-4.7,2.4-8,1-10.5c4.3,1,4.8,4.8,11,4.8c-2.4-1.4-3.8-6.2-6.7-6.2c1.4-0.5,7.2-1,8.2,0c-1-2-4.4-3.8-6.3-3.8
					c2-2,5.3-5.8,7.7-6.8c-3.4,0.5-8.6,1-10.5,3.9c4.7-3.9,3.8-11,9-12c-2.8-0.5-7.1,1.4-10.5,4.8c1.5-2.9,1.5-6.7,3.4-7.7
					c-3.9,1-8.2,5.8-9.6,8.2C1037.4,114.3,1036.6,111.7,1035.2,109.3L1035.2,109.3z"/>
				<path id="path1261_2_" class="st16" d="M1037.6,117c0,1.4,0,4.3-0.5,5.2"/>
				<path id="path1263_2_" class="st16" d="M1043.8,116.5c-1,1-2.9,4.3-2.9,7.2"/>
				<path id="path1265_2_" class="st17" d="M1046.7,122.2c-1.6,1-2.9,2.6-3.4,4.4"/>
			</g>
		</g>
		<g id="turtle_2_">
			<path id="path1270_2_" class="st18" d="M995.9,169.7c-3.4,0-6.2-1.4-8.2-3.8c-3.3-4.4-12.4-6.3-16.3-2.4c-1.4,1-3.3,1-4.7,1.4
				c-2.4,0-5.3,2.4-4.4,7.2c2-1.5,2.4,0,3.9,0c1-0.5,0.5,0.5,0.5,1.4c0,2.4,5.2,7.2,10,6.7c5.3,0,7.7,2,8.6,3
				c1.5,1.3,0.5,0.9,1.5,3.3c1.4,1.4,1.9,1.9-0.5,3.8c-4.1,3.4-4.7,9.5-1.2,13.7c0.4,0.4,0.8,0.9,1.2,1.2c6.2,4.7,22,12,39.8-2
				c17.2-13.4,44-5.7,46-1c2.4,4.9,3.3,7.7,3.8,10.1c0.5,2,2.9,3.9,6.3,3.4c3.3,0,7.1,1.4,9,2.9c2.5,1.4,5.8,1,4.9-3.4
				c-2-13.4-10.1-15.3-11-21.5c4.7,0.4,8,0.4,10-1.5c1.4-1.9,3.3-5.3,5.3-6.2c1.4-1,1.4-2-0.5-1.5c-2.4,0.5-3.8,1.5-8.2,1
				C1069.7,183.1,1007.9,166.3,995.9,169.7L995.9,169.7z"/>
			<path id="path1272_2_" class="st19" d="M1093.7,186c-3.7,2.6-6.8,5.8-9.2,9.6c-4.7,6.2-19.1,12.4-36.9,12.4
				c-17.2,0-27.7-2.8-35.4-9c-3.3-2.6-6.8-4.9-10.6-6.8c-5.2-2.4-6.2-7.7-4.8-12c-1.4,2.4-2.3,4.8-5.2,4.3c-2,0-5.8,0-4.8,2
				c-0.5-1-0.5-2.4-1-3l-1-0.9c1.5,1,4.9-1.9,7.3-1.9c1.9,0.5,4.3-1.9,3.8-4.8l-1.4-6.2c3.8-2,54.1,7.2,64.2,8.1
				C1068.7,178.3,1097.5,182.6,1093.7,186L1093.7,186z"/>
			<path id="path1274_2_" class="st18" d="M1002.6,167.8c4.8-4.8,10.5-7.2,16.3-5.8h1.4c3-2.4,9.6-2.9,13.5-1h1.9
				c5.7-1.9,16.7,0,20.6,3.9l1.4,1c13-1,20.6,4.7,29.7,13.9c1,1,2.4,2.8,4.8,3.3c2.9,0.5,3.4,2,1,3.4c-3.8,2.4-7.2,5.4-10,9
				c-4.4,5.8-18.3,11.6-35.6,11.6c-16.7,0-26.8-3-34.5-8.7c-4.3-3.3-7.6-5.2-10-6.7c-2.9-1-6.7-4.8-5.3-8.6c1-3.8-1.4-8.6-3.3-13.4
				c1.4-1,5.2-2.4,7.1-1.4L1002.6,167.8z"/>
			<g id="g1292_2_">
				<path id="path1276_2_" class="st20" d="M1087.4,179.8c-9-9.2-16.7-14.9-29.7-14c0,0.5,0,2-0.5,3c9.1,4.1,17.1,10.1,23.5,17.7
					C1082.7,184.5,1086,182.2,1087.4,179.8z"/>
				<path id="path1278_2_" class="st20" d="M1056.3,164.9c-3.9-3.8-14.9-5.8-20.6-3.8c0,1.9,0,4.8-1,6.7c3.4,1.4,6.2,4.8,9.1,8.1
					c2-0.5,6.7-1.9,9.1-2.4C1054.3,170.8,1055.5,167.9,1056.3,164.9z"/>
				<path id="path1280_2_" class="st20" d="M1033.8,161c-3.9-1.9-10.6-1.4-13.5,1c-1,2-1.4,5.8-1.4,7.7c2,0,4.8,1.4,5.7,2.4
					c3-1,6.8-2.9,8.2-4.3C1033.3,165.8,1034.2,163,1033.8,161L1033.8,161z"/>
				<path id="path1282_2_" class="st20" d="M1002.6,167.8c4.8-4.8,10.5-7.2,16.3-5.8c-1,1.5-1.4,4.3-1.4,7.2c-5.3-0.5-12,1-14.9,2.9
					L1002.6,167.8z"/>
				<path id="path1284_2_" class="st20" d="M1078.8,187.4c-6-7.1-13.5-12.9-22-16.8c0,0.5-1,2.4-1.5,3.9c2.9,4.3,8.6,13.9,11,19.2
					C1068.7,192.7,1075.4,189.8,1078.8,187.4L1078.8,187.4z"/>
				<path id="path1286_2_" class="st20" d="M1042.4,198c0.8-6.5,1.3-13.1,1.4-19.7c2.4-0.5,7.2-1.9,9.1-2.4
					c2.4,3.9,8.2,14,10.6,18.7C1057.7,196,1048.1,198.4,1042.4,198z"/>
				<path id="path1288_2_" class="st20" d="M1025.6,175c2.4-1,5.8-3,8.1-4.8c2,1.4,5.8,4.8,7.2,6.7c0,4.3-1.4,16.8-1.9,21
					c-3.8,0-10-0.9-13.4-2.8C1026.1,187.9,1026.6,179.8,1025.6,175L1025.6,175z"/>
				<path id="path1290_2_" class="st20" d="M1001.6,180.7c0.5-1,1-4.3,1-5.7c3.8-2.4,13.4-4.8,20.6-1c0.5,4.8,0,16.8-0.5,19.7
					C1016.3,188.5,1009.2,184.1,1001.6,180.7L1001.6,180.7z"/>
			</g>
			<g id="g1308_2_">
				<path id="path1294_2_" d="M977.7,172c-1,0-1.5-2.8-3.4-2.8c-0.5,0-1.9,0.5-2.4,0c0,1,0.5,2,1,2.4
					C973.4,173,975.8,172.1,977.7,172L977.7,172z"/>
				<path id="path1296_2_" class="st21" d="M977.7,180.2c5.7,0,6.7-7.2,9.6-7.6"/>
				<path id="path1298_2_" class="st21" d="M981,180.7c4.3,2,7.7-8.1,11-7.7"/>
				<path id="path1300_2_" class="st21" d="M972.4,168.3c1.4,0,2.4-2,4.8,0.4c1,1,2.4,1.5,3.4,1.5"/>
				<path id="path1302_2_" class="st21" d="M979.6,175.4c-2,3-5.3,4.8-7.2,3.9"/>
				<path id="path1304_2_" class="st21" d="M971.4,163.5c-1.4,1-2.3,2.8-3.3,4.3"/>
				<path id="path1306_2_" class="st21" d="M966.7,170.6v2.4"/>
			</g>
		</g>
	</g>
	<g id="g1475_1_" transform="translate(-306.8 -21.2) scale(.87136)">
		<path id="shield_2_" class="st1" d="M1126.7,233v93.4c0,81-38.3,108.8-89.6,130.8c-51.3-22-90-49.8-90-130.8v-93.5L1126.7,233
			L1126.7,233z"/>
		<path id="path1313_1_" class="st2" d="M1037.1,312c4.3,0,11-3.8,16.8-9.6c6.2-6.7,16.8-9,27.8,0c11,9.1,17.7,5.3,23.5,0
			c5.7-5.2,10.5-7.2,21.5-7.2V233H947v62.3c11,0,15.8,2,21.6,7.2c5.7,5.3,12.4,9.1,23.5,0c11.5-9,21.5-6.7,28.2,0
			c5.3,5.8,12,9.6,16.8,9.6V312z"/>
		<g id="g1321_1_">
			<path id="path1315_1_" class="st22" d="M1037.1,360c5.8,0,17.3-6.3,20.1-7.7c10.6-6.3,18.2-0.5,24.5,2.4c6.7,2.8,19.1,6.2,26.8,0
				c7.7-6.3,12-5.8,17.3-5.8c1-7.2,1-14.4,1-22.5v-5.8c-6.8-1.4-10.1,0.5-17.3,6.8c-7.2,6.2-15.4,4.8-26,1c-10-4.4-20-12-30.1,0
				c-4.2,4.7-10,7.5-16.3,8c-7.2,0-13.4-4.7-16.3-8c-10.5-12-20.1-4.4-30.2,0c-10.5,3.8-19.2,5.2-26.3-1c-6.7-6.3-10.1-8.2-17.3-6.8
				v5.8c0,8.1,0.5,15.3,1.4,22.5c5.3,0,9.2-0.5,16.8,5.8c7.7,6.2,20.6,2.8,26.9,0c6.7-2.9,14.3-8.7,24.9-2.4
				c2.9,1.4,13.9,7.6,20.1,7.6V360z"/>
			<path id="path1317_1_" class="st22" d="M1037.1,380.6c8.3-0.4,16.4-2.9,23.5-7.2c9.6-5.3,16.3-3,25.9,1.9c10,4.8,18.2,3.3,24,0
				c2.8-2,5.2-5.8,11.4-4.3c-2.8,12-7.2,22.5-12.4,31.1c-8.3,2.7-17.3,2.1-25-1.9c-10-4.8-22.5-7.7-29.2-3.4
				c-5.4,3.5-11.7,5.5-18.2,5.8c-5.3,0-12-2-18.2-5.8c-6.7-4.3-19.2-1.4-29.2,3.4c-7.7,4-16.7,4.7-25,2c-5.2-8.7-9.5-19.3-12.4-31.2
				c6.2-1.5,8.6,2.4,11.5,4.3c7.3,4.1,16.2,4.1,23.5,0c10-4.8,16.7-7.2,26.3-2C1020.7,377.6,1028.8,380.1,1037.1,380.6L1037.1,380.6
				z"/>
			<path id="path1319_1_" class="st22" d="M1037.1,457.2c18.5-7.2,35.8-17.2,51.3-29.7c-3.9-1.4-6.2-0.5-9.6-2.9s-13.4-3.3-22,1.5
				c-12.1,7.1-27.2,7.1-39.3,0c-8.7-4.8-18.7-3.9-22-1.5c-3.4,2.4-5.8,1.5-9.7,3C1001.2,440.2,1018.5,450.2,1037.1,457.2z"/>
		</g>
		<g id="lion_1_">
			<path id="path1323_1_" class="st23" d="M1024.6,256.4c0.5,1-0.4,3.4,0,4.3c1,2,1,3,2.4,3.9h3.4c10.5,0,23-4.3,33.5-4.3
				c10.1,0,16.3,3.3,22,3.3c3.4,0,6.3-2.4,6.3-4.8s-3.8-3.8-12-3.8c-11.5,0-17.7,2.9-27.3,2.9c-14.4,0-16.8-5.3-16.8-7.7
				s2.4-5.7,10.1-5.7c2.4,0,4.3-0.5,5.3-1.5c0.5-1,1.9-2.9,4.8-4.3c3.3-2,10,0,13.4-2.4c0,2-2.9,4.8-5.3,5.8c4.8-1.5,10-1.5,11,2.4
				c-2.4-1.5-6.2-0.5-7.6,0c-2,0.4-2.9,1-4.8,1.4c1.9-0.5,2.9,3.3,5.7,3.3c-2.8,2.4-7.6,2.4-12.4,0.5c-1.5-0.5-5.3-1.9-7.7-1.9
				c-4.8,0-7.7,1-7.7,2.9c0,2.4,3,3.8,11.5,3.8c8.7,0,13.5-2.4,26.4-2.4c-1-1.4,0.5-2.9-1.4-4.3c4.8,0,10,1.4,12,4.8
				c-0.5-3.4,2.3-6.2,1.4-9.1c2.9,0.5,5.3,3.3,5.7,5.7c0-1.4,2-1.4,2-2.8c2.7,1.5,4.3,4.5,3.8,7.6c1.4-2.4,2.9-1.4,3.8-4.3
				c1,2,0.5,7.7-2.9,9.6c3-2,7.2-2,10.1,1.4c-2.9-0.4-4.3,1-5.7,1.5c-7,3.6-14.8,5.2-22.6,4.8c-7.6-0.5-8.6-2-13.4-2
				c2.9,0.5,8.6,6.3,14,6.3c3.3,0,5.7,0,7.1-0.5s3.8,0,5.7,1c1.5,1.4,4.4,2.8,6.3,2.4c-0.5,1.9-1.5,2.8-2.9,3.3
				c2.4,1.5,1,2.4,3.4,4.3c-1,0-2,1-3.4,0.5c1.4,1.4,1.4,3.4,2.9,4.3c-0.5,0-2,0.5-2.9,0c1.4,2,0,4.3,1.4,5.3c1.5,2-1.4,4.3-3.8,2.4
				c0.5,1.4-1,2.9-2.4,2.4s-2.4-2-2-2.4c0-0.5,0-0.5,0.6-1c-1,1.5-2.9,1.5-3.9,1c-0.4-0.5-1-1-1-1.4c-3.3,1-4.7-2-4.2-3.4
				c0.4-1.4,3.3-2,4.3-1.4c1,0.4,1.9,1,2.9,0c1-0.5,1.4-1.5,1.4-2.4c0-1.5-1.4-5.8-7.7-5.3c-7.2,0.5-18.7-1.4-24.4-3.4
				c-0.5-0.4-1-0.4-1.5-1c0,2-1.9,3-1.9,4.9c0,2.4,1,4.3,3.9,5.2c-1.5,2.4-3.9,2-4.8,0.5c0,1.5-2,2.4-2,4.3c-0.4-1-1-1.4-1.4-2.4
				c-1.4,3.4-5.3,5.3-7.2,4.4c-2.4,1.9-5.2,1.4-6.2-0.5c-1.4,1-3.4,1-4.3,0c0,1.4-1,1-1.5,2.9c0,1-1.9,1.4-2.8,1
				c-1-0.6-1.5-2.5-0.5-3.4c-1.4,1-2.9,1-3.8,0c0-1,0-2.4,1-3h0.9c-1-0.4-2.4,0-3.4-0.4c-1-1-1-2-0.5-2.9c0.5-0.5,2-1.4,3-0.5
				l0.4,0.5c0-1,0.5-1.9,1-1.9c1-0.5,2.3-0.5,3.8,1c1,1.4,1.9,1.4,4.8,1c2.4,0,6.2-2.5,9-4.9c-8-1.4-3.3-6.7-0.9-8.6
				c-1.9-0.5-4.8-0.5-6.7,0.5c-10,5.3-20.6,11.5-27.3,9.6c0.1,1,0.4,2,1,2.8c-1.5,0-4.4,0-5.3-1.4c-0.5,1-1.4,3.4-0.5,5.3
				c-1-1-3.8-2-5.3-2.4c1,1,0,2.9,0.5,4.3c-1.4-1.4-3.8-2.4-4.8-1.4s-2.9,1.4-4.3,1c-0.9,1.3-2.3,2.3-3.8,2.8c0-1,0-2.4-0.5-2.9
				c-0.5,1.5-2,3.4-3.8,4.3c0-1,0-2.4-0.5-3.3c0,1.9-3.8,2.9-4.3,4.3c0.5-1.4,0.5-2.9,0.5-3.8c-1.1,1.7-2.8,2.9-4.8,3.3
				c0.4-1,1-2,0.4-2.9c-0.4,2-3.3,3-5.7,2.4c0,1-2,2.4-4.3,1c-1.5-0.5-2.4-2-1.5-2.9c-1.9,0-3.8-1.9-2.8-3.3c0-0.5,0.4-1,0.4-1.5
				c-1.4-1-1.9-2.9-0.4-4.3c0.4-0.5,1.9-0.5,2.8-0.5c0-3.8,3.4-3.8,4.8-1c1,1.5,3.9,3.9,6.3,3.4c1,0,1.4-0.5,2.4-0.5
				c4.3-1.4,8.4-3.5,12-6.2c0.4-1.4,0.4-2.4,0.4-3.3c-1.9,1-3.8,1.9-4.8,3.3v-1.4c-1.4,0-3.8-0.5-4.8-0.5c0.5-0.5,1-2.9,2-3.4
				c-2.4,0.5-4.8,0-6.8-0.4c1-1,1-2.4,1.5-3.9c-1,0.5-3.4-0.4-5.3,0c0.5-1.4,1-3.3,2.4-3.8c-2,0.5-4.3,0-6.7-1c2,0,2.9-2.4,4.3-2.4
				c-3.8,0-4.8-1.9-6.7-2.8c1.4,0.4,2.4-1,3.8-1c-1.4-0.5-3.8-2.9-2.8-4.3c-0.5,0.5-1,1.4-2,2c-1,0.4-2.8,0-4.3-1.5
				c-1-2-0.5-4.3,1.5-4.8c-1.3-0.1-2.2-1.2-2.1-2.4c0-0.5,0.3-1.1,0.6-1.5c0.5-1,2.4-2.3,3.4-1l1.4,2c-0.5-1-0.5-2.9-0.5-4.3
				c0.5-1.4,1.5-1.4,3-2c1.3,0,2.3,1.5,2.3,3c0,1.4,0.5,2.3,1,4.3l0.4-2c0-1.9,2.4-1.4,3.9-1c1.4,0.6,1.9,3.4,0,4.9
				c-1,1-0.5,2.4,0.5,3.3c3.3,5.3,9,9.6,13.9,10.1c0-2,1-3.8,2.4-5.3c0-1,0.4-2.4,1-3.3c0.4-2.9,1.8-4.3,3.7-3.4c-0.4-0.5-1-1-1-1.4
				c-1.4-1.5-2.8-3.9-1.8-5.8c1-1.9,3.8-1.4,4.8-0.4c-0.5-3,2.8-5.3,2.8-6.8c0.5,1.5,1.5,3.4,1,4.8c0.5-1.9,3.8-4.3,6.2-5.2
				c-1,1.4,2,3.8,1.5,5.2c1-2.4,4.8-3.8,7.6-3.8c-1,1-1,2.9-1,3.8c1.5,0,4-0.4,4.9-1.9c0,2-1,3.9-2,4.8c0.5-0.5,2.4-0.5,3.9-0.5
				c-1.5,1.5-1,3-2.4,3.9c1.9-1,4.3-1,4.8,1c1,1.4-0.5,3.8-1.5,5.2C1026,255.5,1025.1,256.4,1024.6,256.4L1024.6,256.4z"/>
			<g id="g1423_1_">
				<path id="path1325_1_" class="st21" d="M995,262.2c-3.4,1.4-4.4,4.8-4.9,6.7"/>
				<path id="path1327_1_" class="st21" d="M994.5,265.5c-4.8,3-6.8,5.3-5.8,10.6"/>
				<path id="path1329_1_" class="st21" d="M996.8,280c3-1,4.8-2,7.2-6.3"/>
				<path id="path1331_1_" class="st21" d="M1002.6,275.6c-1,2,0,5.3-1.4,6.7c2.6-1.3,4.4-3.8,4.8-6.7"/>
				<path id="path1333_1_" class="st21" d="M1003.6,280.9c1.9-1,4.8-3.9,6.2-7.2c-0.5,1.4,0,3.8-1,5.3c2.4-2.4,3.4-3.9,3.9-6.3
					l0.4,2c1-1,2-2,2-3.9"/>
				<path id="path1335_1_" class="st21" d="M1015,272.2v2.4c2-1.4,2.5-3.3,2.5-5.7"/>
				<path id="path1337_1_" class="st21" d="M1017,271.8c2.9-2,3.3-4.8,3.3-9.1"/>
				<path id="path1339_1_" class="st21" d="M1020.3,267.5c2-1.5,2.4-2.4,2.4-6.8"/>
				<path id="path1341_1_" class="st21" d="M1016.5,247.8c-1,0-2,0.5-2,2c0,0.9-1.4,2.3-1.4,3.8c-0.4,1.9-1.4,2.4-2.8,1.9
					c-1.5-1-1.5-1-1.5-2.4c0-2,2.4-2.4,2.4-4.3c0.5-1,1-2.4,1.5-2.4c-2.4,1.4-5.8,0.4-6.3-2.4"/>
				<path id="path1343_1_" class="st21" d="M1020.8,249.2c-1,0.5-2-1-3.3-0.4c-0.5,0-2,0.4-2.4,0"/>
				<path id="path1345_1_" class="st21" d="M1014.1,251.6c0.5,0.5,2.9,1.5,5.3,0.5c-2,0.5-3.4-1.9-1.5-3.3"/>
				<path id="path1347_1_" class="st21" d="M1009.8,246.8c-2,0-3.4,1.5-2.9,3c0.5,1.4,2.4,1.4,3.8,0.4"/>
				<path id="path1349_1_" class="st21" d="M1006.4,270.8c0.5-0.5,1-1.4,1-2c1,0,2-0.4,2.4-0.9c1.9,0,3.3-1.4,3.8-2.8
					c1,0,1.5-2.4,2-3.4c0.4,0.5,1.4,0,1.9-2c1,0.6,2.4,0,2.8-1.4"/>
				<path id="path1351_1_" class="st21" d="M1000.7,255c0,0.5-1,1.4-2,2c0.5,0.9,0,3.3-0.9,3.7c0.5,1,0,2.4-0.5,3.4
					c0,0.5,0.5,2,0.5,2.4"/>
				<path id="path1353_1_" class="st21" d="M1002.6,245.4c-1,2.4-0.5,5.3,1.4,5.8"/>
				<path id="path1355_1_" class="st21" d="M1003.6,253c-0.5,2.5-0.5,5.8-1,7.3c-0.5,1-1.4,4.3,2.4,5.2c4.3,1,6.7,0.5,9.1-6.7"/>
				<path id="path1357_1_" class="st21" d="M1021.3,277.5c0,0.5-0.5,1.5-1.4,1.5"/>
				<path id="path1359_1_" class="st21" d="M1024.6,276.6c0,1-1,2.4-1.4,2.8"/>
				<path id="path1361_1_" class="st21" d="M1028,275.6c0,1,0,2.4-1,2.9"/>
				<path id="path1363_1_" class="st21" d="M998.8,245.9c0.4,0,1,1,1.4,1.9c-1.4-1-2.9,1.4-2,2.9"/>
				<path id="path1365_1_" class="st21" d="M997.3,254l-1.9,1.5"/>
				<path id="path1367_1_" class="st21" d="M995.9,258.3c-0.5,0-1,0.5-1.4,0.5"/>
				<path id="path1369_1_" class="st21" d="M972.9,249.7c0-0.5,0-0.5,0.5-1"/>
				<path id="path1371_1_" class="st21" d="M968.6,248.3c-0.5,0-0.5,0-1-0.5"/>
				<path id="path1373_1_" class="st21" d="M969,255h1"/>
				<path id="path1375_1_" class="st21" d="M967.1,252.1c-0.8-0.8-1.7-1.2-2.8-1.4"/>
				<path id="path1377_1_" class="st21" d="M993.5,269.9c-3.4,2.8-4.8,5.2-5.3,8.6"/>
				<path id="path1379_1_" class="st21" d="M996.8,272.2c-0.8,1.8-2.2,3.3-3.8,4.4"/>
				<path id="path1381_1_" class="st21" d="M978.2,286.6c-3.2,1-6.8,0.5-9.6-1.4c-0.5-0.5-1-0.5-1.5-1"/>
				<path id="path1383_1_" class="st21" d="M992.5,280c-0.4,1.8-1,4.2-1.9,4.7c3.9-2,7.2-4.8,7.7-9.1"/>
				<path id="path1385_1_" class="st21" d="M964.7,289c1.5-0.5,3,0.5,3.9-0.5"/>
				<path id="path1387_1_" class="st21" d="M1048.1,273.2c1,0.5,2.4,1,2.9,1.4c0.5-1,2.4-2.4,3.8-2.8"/>
				<path id="path1389_1_" class="st21" d="M1014.1,283.3c-0.5-2,0.5-4.3,3.4-5.3"/>
				<path id="path1391_1_" class="st21" d="M995.4,291.4c0.5-1,0.5-2.4,1-3.3"/>
				<path id="path1393_1_" class="st21" d="M974.3,292.9c-0.5,1-1.4,1.9-1.4,2.8"/>
				<path id="path1395_1_" class="st21" d="M967.1,293.8c0,0,0-0.5,0.5-0.5c1-0.4,2.4-1.4,2.9-2.4"/>
				<path id="path1397_1_" class="st21" d="M1032.3,287.1c-1,0.5-1.4,0-1.9-0.5"/>
				<path id="path1399_1_" class="st21" d="M1031.8,289.5c0,0-0.4,0.5-1,0.5"/>
				<path id="path1401_1_" class="st21" d="M1034.2,291.9c-0.5,0.5-1,1-1.4,1"/>
				<path id="path1403_1_" class="st21" d="M1048.1,292.9c1-0.5,1.5-1.5,2-3.4"/>
				<path id="path1405_1_" class="st21" d="M1041.9,292.4c1.4-0.5,2.4-1.5,3.8-2.9"/>
				<path id="path1407_1_" class="st21" d="M1055.3,288.5c0-1,0-1.9,0.5-2.8"/>
				<path id="path1409_1_" class="st21" d="M1090.8,292.9c-1-1-1-2.4,0.5-3.4c1-0.5,1.4-1,2.4-1.4"/>
				<path id="path1411_1_" class="st21" d="M1061.5,276c-7.6-3.3-7.1-7.6-13.4-7.1"/>
				<path id="path1413_1_" class="st21" d="M1095.6,291c0.5,0.4,0,1.9,0,2.3"/>
				<path id="path1415_1_" class="st21" d="M1099.9,291c-0.5,1.4-0.5,1.9-0.5,3.3"/>
				<path id="path1417_1_" class="st21" d="M1063,245.9h-4"/>
				<path id="path1419_1_" class="st21" d="M1022.7,262.2c0,1,1.5,2.9,5.3,2.9c-0.5,0-1-0.5-1-0.5"/>
				<path id="path1421_1_" class="st21" d="M1024.6,256.4c-0.4,0.5-1,0-1,0c-0.9-1,0.6-2.8,2-3.8c-1.4,0.5-2.4,0.5-3.4,0.5
					c-1,2.9-3.8,4.3-5.7,2.4c-0.5,1.9-2.9,4.3-4.8,3.8c-2-1-2.4-2.4-2-3.8c-2.3,2.8-5.2,1-6.1,0c-0.5-1,0-3.4,1-6.3"/>
			</g>
			<path id="path1425_1_" d="M1055.3,274.6c-1.4,1-2.9,0-4.3,1.5c-1,1,0.5,1.4,1.4,1.4c-0.4,1.5-0.4,2,2,2c-1,1.4,1.9,1.9,1.4,3.8
				c1.2-1.3,1.6-3.1,1-4.8C1056.3,277,1053.8,276.1,1055.3,274.6L1055.3,274.6z"/>
			<g id="g1461_1_">
				<path id="path1427_1_" class="st24" d="M1011.7,259.3c-2-1-2.4-2.4-2-3.8c-0.4,1-1.3,1.4-2.3,1.4c-2,4.3-4.3,8.2-7.2,8.2
					c-3.4,0.4-2.9,3.8-0.5,3.8C1005,269.9,1007.4,267.9,1011.7,259.3z"/>
				<path id="path1429_1_" class="st24" d="M964.3,247.8c1.4-1.4,0.4-2.9-0.5-3.3c-1.5-0.5-4.3,0-5.8,2.3c1.5-0.4,3-0.4,3.4,0.5
					C961.9,248.3,962.8,249.3,964.3,247.8L964.3,247.8z"/>
				<path id="path1431_1_" class="st24" d="M966.7,239.2c3.3,0,4.3,0.5,4.7,1.9c0.5,1-0.4,2.4-1.4,2.4c-1.4,0-2.9-1-2.4-1.4
					c0.5-1,0.5-2.4-1-3L966.7,239.2z"/>
				<path id="path1433_1_" class="st24" d="M976.2,246.8c2.4,0.5,3.4-1,2-2.8c-0.5-1.5-2-2.4-4.4-2
					C976.2,243.5,973.8,245.9,976.2,246.8z"/>
				<path id="path1435_1_" class="st24" d="M958.5,255c0.9,1.8,2.9,2.6,4.8,2c1.4-0.6,2-2,1.4-3c-1-1.4-2.4-1.9-2.8,0
					C960.9,256,959.5,255.5,958.5,255z"/>
				<path id="path1437_1_" class="st24" d="M965.7,284.2c-1-1.9-3.8-1.9-6.2,0c1-0.5,2.8,0,3.3,1s1.5,1,2,1
					C965.2,285.7,966.2,285.2,965.7,284.2z"/>
				<path id="path1439_1_" class="st24" d="M969.5,281.4c0-2.4-3.3-3-5.2-2c1,0,2.4,1,2.4,2c0.4,1,1.4,1.4,1.9,1.4
					c1-0.5,1.4-1,1-1.4H969.5z"/>
				<path id="path1441_1_" class="st24" d="M964.7,290c-2.8-0.5-4.3,2.9-4.3,5.2c0.5-1.4,2-2.3,3.4-1.9c1.4,0,1.9-0.4,1.9-1.4
					C966.2,290.9,965.7,290.5,964.7,290L964.7,290z"/>
				<path id="path1443_1_" class="st24" d="M965.2,298.1c1,0.5,2-0.5,2.4-1.9c0-1,2-1,2.4-0.5c1,0.5,1,2.4-0.5,3.4
					C968.5,299.6,966.2,300.1,965.2,298.1L965.2,298.1z"/>
				<path id="path1445_1_" class="st24" d="M1031.8,283.7c-1-0.4-3.3-1.4-5.2,0c1.4-0.4,2.4,0.5,2.8,1.5c0,1,1.5,1.4,2,0.5
					C1031.8,285.2,1032.4,284.2,1031.8,283.7z"/>
				<path id="path1447_1_" class="st24" d="M1027.5,287.1c-1.9-1-4.3,1.4-4.8,3.4c1-0.8,2.2-1.3,3.4-1.5c1,0.5,1.9,0,1.9-1
					C1028.5,287.6,1028.5,287.1,1027.5,287.1L1027.5,287.1z"/>
				<path id="path1449_1_" class="st24" d="M1030,291c-1.5,0-3.4,1.9-3.4,3.8c0.4-1,1.4-1.5,2.4-1c1,0,2.4-0.5,2.4-1.4
					c0-1-0.5-1.5-1.5-1.5L1030,291z"/>
				<path id="path1451_1_" class="st24" d="M1034.2,294.8c-1-0.5-2.4,0-2.4,1.4s0,2.9-0.4,3.4c1-1,1.9-1.5,2.8-2
					C1034.7,297.2,1035.2,295.7,1034.2,294.8L1034.2,294.8z"/>
				<path id="path1453_1_" class="st24" d="M1088.4,290.5c-1-1-2.4-0.5-2.9,0.4c-0.5,1-1,3.4,0,5.3c0-1,1-2.4,2-2.4
					C1088.9,293.3,1089.3,291.4,1088.4,290.5z"/>
				<path id="path1455_1_" class="st24" d="M1091.3,292.4c-2,1-2,4.3-0.5,6.2c0-1,0.5-2.4,1.4-2.9c1.5,0,2-1.9,1.5-2.8
					C1092.7,291.9,1091.7,292.4,1091.3,292.4L1091.3,292.4z"/>
				<path id="path1457_1_" class="st24" d="M1097,294.3c-1-0.5-2,0.5-2,1.4c-0.4,1.5,0.6,3.4,2,4.3c0-1,0.5-1.9,1-2.4
					C1099.4,296.6,1099,294.8,1097,294.3z"/>
				<path id="path1459_1_" class="st24" d="M1101.3,293.8c-1,0-1.9,1.4-1,2.9c0.5,1,1.5,1.4,3.4,1c-0.5,0-1.4-1.5-1-2
					C1103.2,294.7,1102.7,293.8,1101.3,293.8z"/>
			</g>
		</g>
		<g id="star_5_">
			<path id="path1464_5_" class="st25" d="M968.1,383.4l24-73.8l24,73.8l-62.9-45.5h77.8L968.1,383.4z"/>
			<path id="path1466_5_" class="st26" d="M972.9,376.7l49.8-36.4h-61.3l49.3,36.4l-18.6-58.4L972.9,376.7z"/>
		</g>
		<g id="use1469_1_">
			<g id="star_4_">
				<path id="path1464_4_" class="st25" d="M1058.2,383.4l24-73.8l24,73.8l-62.9-45.5h77.8L1058.2,383.4z"/>
				<path id="path1466_4_" class="st26" d="M1063,376.7l49.8-36.4h-61.3l49.3,36.4l-18.6-58.4L1063,376.7z"/>
			</g>
		</g>
		<g id="use1471_1_">
			<g id="star_3_">
				<path id="path1464_3_" class="st25" d="M1013.1,435.6l24-73.8l24,73.8l-62.9-45.5h77.8L1013.1,435.6z"/>
				<path id="path1466_3_" class="st26" d="M1017.9,428.9l49.8-36.4h-61.3l49.3,36.4l-18.6-58.4L1017.9,428.9z"/>
			</g>
		</g>
		<path id="path1473_1_" class="st21" d="M1126.7,233v93.4c0,81-38.3,108.8-89.6,130.8c-51.3-22-90-49.8-90-130.8v-93.5L1126.7,233
			L1126.7,233z"/>
	</g>
</g>
</svg>
