<?xml version="1.0" encoding="utf-8"?>
<!-- Generator: Adobe Illustrator 24.0.1, SVG Export Plug-In . SVG Version: 6.00 Build 0)  -->
<svg version="1.1" id="flag-icons-kz" xmlns="http://www.w3.org/2000/svg" xmlns:xlink="http://www.w3.org/1999/xlink" x="0px"
	 y="0px" viewBox="0 0 800 480" style="enable-background:new 0 0 800 480;" xml:space="preserve">
<style type="text/css">
	.st0{fill-rule:evenodd;clip-rule:evenodd;fill:#00ABC2;}
	.st1{fill-rule:evenodd;clip-rule:evenodd;fill:#FFEC2D;}
</style>
<path class="st0" d="M0,0h800v480H0V0z"/>
<g>
	<path class="st1" d="M107.8,317.8c0-5.9-28-54-29-62.7c-1-8.7,4.8-11.1,9.5-11.1c4.8,0,8.1,2.7,8.1,5.2s-2.4,3-5.7,3s1.4-1.6-1.4-3
		c-2.8-1.4-4.8,2-4.8,4.1c0,2.1,7.2,2.8,12,1.2c0.9,4.7,1.3,5-5.3,13c4.8-3,5.2-3.8,10.5-2c-5.3-4.6-1.4-13.7-1.2-16
		c0.2-2.3-1-5.2-3.1-6.6c-3.8-3.4-12.2-3.6-17.2-1.4c-4.4,2-6.3,6.3-6.6,10.1c0.1,0.9,0.1,1.8,0,2.7c0.1,1.3,0.4,2.4,0.9,3.2
		l27.2,58.5c1.5,2.4-2.3,10.4-10.9,10.7c-9,0.7-12.1-8.8-13.7-12.9l12.3,1c0,0,0.5-2,0-3.2c-4.1-0.3-8.2-0.8-12.3-1.6l-0.5-6.2h6
		l-0.4-2.8c0,0-5.1,0.4-5.6,0c-0.5-0.3-1-6.2-1-6.2s-1-0.4-2-0.4s-2,0.4-2,0.4s-0.4,5.9-0.9,6.2c-0.5,0.4-5.6,0-5.6,0l-0.5,2.8h6.1
		l-0.5,6.2c0,0-6,1.2-12.3,1.6c-0.4,1.2,0,3.1,0,3.1l12.3-0.9c-1.6,4.1-4.7,13.6-13.7,13c-8.6-0.4-12.4-8.4-11-10.8l27.2-58.5
		c0.5-0.8,0.8-1.9,0.9-3.2c-0.1-0.8-0.1-1.7,0-2.7c-0.3-3.8-2.2-8.1-6.6-10.1c-5-2.2-13.4-2-17.2,1.4c-2.1,1.4-3.3,4.2-3.1,6.5
		s4,11.5-1.2,16c5.3-1.7,5.8-1,10.5,2.1c-6.6-8-6.2-8.3-5.2-13c4.7,1.6,11.9,1,11.9-1.2c0-2-2-5.5-4.8-4.1c-2.8,1.4,2,3-1.4,3
		c-3.3,0-5.7-0.6-5.7-3c0-2.4,3.3-5.2,8-5.2s10.5,2.4,9.6,11c-1,8.7-29,57-29,62.8c0,6,5.2,13.5,19,13.5c9,0.7,12.3-8.6,15.5-11.8
		c0,0,0,0-0.1-0.1h0.1c0,0,0,0,0,0.1c3,3,5.5,11.1,12.9,11.9c-7.3,0.8-9.9,8.9-12.9,11.9c0,0,0,0,0,0.1l-0.1,0c0,0,0,0,0.1-0.1
		c-3.2-3.2-6.5-12.5-15.5-11.8c-13.8,0-19,7.5-19,13.5c0,5.8,28,54.1,29,62.8c0.9,8.6-4.9,11-9.6,11s-8-2.8-8-5.2c0-2.4,2.4-3,5.7-3
		c3.4,0-1.4,1.6,1.4,3c2.8,1.4,4.8-2.1,4.8-4.1c0-2.2-7.2-2.8-11.9-1.2c-1-4.7-1.4-5,5.2-13c-4.7,3.1-5.2,3.8-10.5,2.1
		c5.2,4.4,1.4,13.7,1.2,16s1,5.1,3.1,6.5c2.1,1.8,5.5,2.7,9,2.8c-3.5,0.1-6.9,1-9,2.9c-2.2,1.4-3.4,4.1-3.2,6.5
		c0.2,2.4,4.1,11.5-1.1,16c5.2-1.7,5.7-1,10.5,2c-6.7-7.9-6.2-8.2-5.3-13c4.8,1.6,12,1,12-1.1c0-2.1-2-5.6-4.9-4.2
		c-2.8,1.4,2,3.1-1.4,3.1c-3.3,0-5.7-0.7-5.7-3s3.3-5.3,8.1-5.3s10.5,2.4,9.5,11.1s-22,18.1-22,24c0,6,1.4,13.1,15.2,13.1
		c9,0.7,10.1-4.6,13.4-7.8v0.1c3.3,3.2,2.2,8.5,11.3,7.8c13.8,0,14.2-8.4,14.2-14.3c0-5.9-20.7-14.1-21.7-22.8c-1-8.7,4.8-11,9.6-11
		c4.7,0,8,2.7,8,5.1c0,2.4-2.2,3.2-5.6,3.2s1.5-1.7-1.4-3c-2.9-1.3-4.8,2-4.8,4c0,2.2,7.2,2.8,12,1.3c1,4.7,1.4,5-5.3,13
		c4.8-3.1,5.2-3.8,10.5-2c-5.3-4.6-1.3-13.8-1.2-16.1c0.1-2.3-1-5.1-3-6.5c-3.9-3.5-12.2-3.7-17.2-1.4c-4.5,2-6.4,6.3-6.7,10.2
		c0.1,0.8,0,1.6,0,2.3c0.1,1.5,0.4,2.7,0.9,3.5l20.2,20.4c1.4,2.4,2,9.2-6.6,9.5c-9,0.7-12.2-11.6-13.8-15.7
		c-2.1,4.5-4.5,16.8-13.6,16.1c-8.6-0.3-10.2-7-8.8-9.5l20.7-21c0.5-0.8,0.8-2,1-3.3c-0.1-0.7,0-1.5,0-2.3
		c-0.3-3.9-2.1-8.4-6.7-10.4c-2-0.9-4.5-1.4-7-1.5c2.6-0.1,5.1-0.5,7.1-1.4c4.4-2,6.2-6.4,6.6-10.2c-0.1-0.9-0.1-1.8,0-2.7
		c-0.1-1.3-0.4-2.4-0.9-3.2l-27.2-58.6c-1.4-2.4,2.4-10.4,11-10.8c9-0.6,12.1,8.9,13.7,13l-12.3-0.9c0,0-0.4,1.9,0,3.1
		c6.3,0.4,12.3,1.6,12.3,1.6l0.5,6.2h-6.1l0.5,2.8c0,0,5.1-0.4,5.6,0c0.5,0.3,0.9,6.2,0.9,6.2s1,0.4,2,0.4s2-0.4,2-0.4
		s0.5-5.9,1-6.2c0.5-0.4,5.6,0,5.6,0l0.4-2.8h-6l0.5-6.2c4.1-0.8,8.2-1.3,12.3-1.6c0.5-1.2,0-3.2,0-3.2l-12.3,1
		c1.6-4.1,4.7-13.6,13.7-12.9c8.6,0.3,12.4,8.3,10.9,10.7l-27.2,58.6c-0.5,0.8-0.8,1.9-0.9,3.2c0.1,0.8,0.1,1.7,0,2.7
		c0.3,3.8,2.2,8.1,6.6,10.2c5,2.2,13.4,2.1,17.2-1.4c2.1-1.4,3.3-4.3,3.1-6.6s-4.1-11.4,1.2-16c-5.3,1.8-5.7,1-10.5-2
		c6.6,8,6.2,8.3,5.3,13c-4.8-1.6-12-0.9-12,1.2c0,2.1,2,5.4,4.8,4.1c2.8-1.3-1.9-3,1.4-3s5.7,0.5,5.7,3s-3.3,5.2-8.1,5.2
		c-4.7,0-10.5-2.4-9.5-11.1s29-56.8,29-62.7c0-5.7-4.9-13-17.6-13.5C103,330.8,107.8,323.5,107.8,317.8z"/>
	<path class="st1" d="M90.2,148.6c12.7-0.5,17.6-7.9,17.6-13.5c0-5.9-28-54-29-62.7s4.8-11.1,9.5-11.1c4.8,0,8.1,2.8,8.1,5.2
		c0,2.4-2.4,3.1-5.7,3.1s1.4-1.7-1.4-3.1c-2.8-1.4-4.8,2-4.8,4.1s7.2,2.8,12,1.2c0.9,4.7,1.3,5-5.3,13c4.8-3,5.2-3.8,10.5-2
		c-5.3-4.5-1.4-13.7-1.2-16c0.2-2.3-1-5.2-3.1-6.6c-3.8-3.4-12.2-3.6-17.2-1.3c-4.4,2-6.3,6.3-6.6,10.1c0.1,0.9,0.1,1.8,0,2.7
		c0.1,1.3,0.4,2.4,0.9,3.2l27.2,58.6c1.5,2.4-2.3,10.4-10.9,10.8c-9,0.6-12.1-8.8-13.7-13l12.3,1c0,0,0.5-2,0-3.2
		c-4.1-0.3-8.2-0.8-12.3-1.5l-0.5-6.3h6l-0.4-2.8c0,0-5.1,0.4-5.6,0c-0.5-0.3-1-6.2-1-6.2s-1-0.4-2-0.4s-2,0.4-2,0.4
		s-0.4,5.9-0.9,6.2c-0.5,0.4-5.6,0-5.6,0l-0.5,2.8h6.1l-0.5,6.3c0,0-6,1.1-12.3,1.5c-0.4,1.3,0,3.2,0,3.2l12.3-1
		c-1.6,4.2-4.7,13.6-13.7,13c-8.6-0.4-12.4-8.4-11-10.8l27.2-58.6c0.5-0.7,0.8-1.9,0.9-3.2c-0.1-0.8-0.1-1.7,0-2.7
		c-0.3-3.8-2.2-8.2-6.6-10.2c-5-2.2-13.4-2-17.2,1.4c-2.1,1.4-3.3,4.2-3.1,6.5c0.2,2.3,4,11.6-1.2,16c5.3-1.7,5.8-1,10.5,2.1
		c-6.6-8-6.2-8.3-5.2-13c4.8,1.6,11.9,1,11.9-1.2c0-2-2-5.5-4.8-4.1c-2.8,1.4,2,3.1-1.4,3.1c-3.3,0-5.7-0.7-5.7-3.1
		c0-2.4,3.3-5.2,8-5.2s10.6,2.4,9.6,11c-1,8.7-29,57-29,62.8c0,6,5.2,13.6,19,13.6c-13.8,0-19,7.6-19,13.5c0,5.9,28,54.1,29,62.8
		c0.9,8.6-4.9,11-9.6,11s-8-2.8-8-5.2c0-2.4,2.4-3,5.7-3c3.4,0-1.4,1.7,1.4,3c2.8,1.4,4.8-2.1,4.8-4.1c0-2.1-7.2-2.8-11.9-1.2
		c-1-4.7-1.4-5,5.2-13c-4.7,3.1-5.2,3.8-10.5,2.1c5.2,4.5,1.4,13.7,1.2,16s1,5.1,3.1,6.5c3.8,3.4,12.2,3.6,17.2,1.4
		c4.4-2,6.3-6.3,6.6-10.1c-0.1-0.9-0.1-1.8,0-2.7c-0.1-1.3-0.4-2.4-0.9-3.2L45.5,164c-1.4-2.4,2.4-10.4,11-10.8
		c9-0.6,12.1,8.9,13.7,13l-12.3-0.9c0,0-0.4,1.9,0,3.1c6.3,0.4,12.3,1.6,12.3,1.6l0.5,6.2h-6.1l0.5,2.8c0,0,5.1-0.3,5.6,0
		c0.5,0.3,0.9,6.3,0.9,6.3s1,0.3,2,0.3s2-0.3,2-0.3s0.5-6,1-6.3c0.5-0.3,5.6,0,5.6,0l0.4-2.8h-6l0.5-6.2c0,0,5.9-1.2,12.3-1.6
		c0.5-1.2,0-3.2,0-3.2l-12.3,1c1.6-4.1,4.7-13.6,13.7-12.9c8.6,0.3,12.4,8.3,10.9,10.7l-27.2,58.5c-0.5,0.8-0.8,1.9-0.9,3.2
		c0.1,0.8,0.1,1.7,0,2.7c0.3,3.8,2.2,8.1,6.6,10.1c5,2.2,13.4,2.1,17.2-1.4c2.1-1.4,3.3-4.4,3.1-6.6s-4.1-11.4,1.2-16
		c-5.3,1.8-5.7,1.1-10.5-2c6.6,8,6.2,8.3,5.3,13c-4.8-1.6-12-0.8-12,1.2c0,2.1,2,5.6,4.8,4.2c2.8-1.4-1.9-3.2,1.4-3.2
		s5.7,0.8,5.7,3.2c0,2.4-3.3,5.1-8.1,5.1c-4.7,0-10.5-2.4-9.5-11c1-8.8,29-56.9,29-62.8C107.8,156.5,103,149.2,90.2,148.6z
		 M73.8,160.6c0,0,0.1,0.1,0.1,0.1L73.8,160.6C73.8,160.6,73.8,160.6,73.8,160.6c-2.9-3.1-6-11.3-13.6-11.9
		c7.6-0.6,10.7-8.9,13.7-11.9c0,0,0,0-0.1-0.1l0.1,0c0,0,0,0,0,0.1c3,3,5.5,11.1,12.8,11.9C79.4,149.6,76.8,157.7,73.8,160.6z"/>
	<path class="st1" d="M45.5,31.9c5.2,4.5,1.3,13.6,1.1,16c-0.2,2.4,1,5.1,3.2,6.5c3.8,3.5,12.1,3.7,17.1,1.4
		c4.3-1.9,6.2-6.1,6.6-9.8c-0.1-1.1-0.1-2.2,0-3.2c-0.2-1.2-0.5-2.3-0.9-3l-20.7-21c-1.4-2.5,0.2-9.2,8.8-9.5
		C69.8,8.6,72.2,21,74.3,25.5c1.6-4.1,4.8-16.4,13.8-15.7c8.6,0.3,8,7.1,6.6,9.5L74.4,39.8c-0.4,0.7-0.7,1.8-0.9,3
		c0.1,1,0.1,2,0,3.2c0.4,3.7,2.3,7.9,6.7,9.8c5,2.2,13.3,2.2,17.3-1.5c2-1.4,3.1-4.2,3-6.5c-0.1-2.3-4.1-11.5,1.2-16.1
		c-5.3,1.8-5.7,1.1-10.5-2c6.7,8,6.3,8.3,5.3,13c-4.8-1.6-12-0.9-12,1.3c0,2,1.9,5.3,4.8,4c2.9-1.3-2-3,1.4-3s5.6,0.8,5.6,3.2
		c0,2.4-3.3,5.1-8,5.1c-4.8,0-10.6-2.3-9.6-11s21.7-16.9,21.7-22.8c0-5.9-0.4-14.3-14.2-14.3c-9.1-0.7-8,4.6-11.3,7.8
		c-3.3-3.2-4.4-8.5-13.4-7.8c-13.8,0-15.2,7.1-15.2,13.1c0,5.9,21,15.3,22,24s-4.7,11.1-9.5,11.1s-8.1-3-8.1-5.3s2.4-3,5.7-3
		c3.4,0-1.4,1.7,1.4,3.1c2.9,1.4,4.9-2.1,4.9-4.2c0-2.1-7.2-2.7-12-1.1c-0.9-4.8-1.4-5.1,5.2-13C51.2,32.9,50.7,33.6,45.5,31.9z"/>
</g>
<g transform="translate(-194.7 8.3) scale(1.0673)">
	<path class="st1" d="M597.3,96.6L597.3,96.6c47,0,85.1,36.1,85.1,80.6l0,0c0,44.5-38.1,80.6-85.1,80.6l0,0
		c-47,0-85.1-36.1-85.1-80.6l0,0C512.2,132.7,550.3,96.6,597.3,96.6z"/>
	<path class="st1" d="M593.3,48.5c-0.8,0-4.6,26.8-6,32.8c-1.4,13.5,18,13,14.8-0.5l-8.8-32.4V48.5z M600.1,308.3
		c0.7,0,6.5-26.5,8.4-32.4c2.3-13.3-17.1-14-15-0.4L600.1,308.3z M464.5,176.7c0,0.7,27.9,6.3,34.1,8.1c14,2.3,15-16,0.6-14l-34.7,6
		V176.7z M736.2,179.9c0-0.7-28.2-5.3-34.5-6.9c-14.1-1.7-14.2,16.6,0,14.1L736.2,179.9L736.2,179.9z M493.1,91.7
		c-0.5,0.5,17.9,21.3,21.6,26.4c9.6,10,22.3-4,9.6-10.8L493.1,91.7L493.1,91.7z M704.2,262.7c0.5-0.5-19.7-19.7-23.9-24.4
		c-10.5-9.2-21.8,5.7-8.6,11.5l32.5,13V262.7z M535.2,62.7c-0.6,0.3,8,26.1,9.4,32.2c4.8,12.7,22.2,4.4,13.2-6.5L535.2,62.7
		L535.2,62.7z M658.3,295.1c0.7-0.3-6-26.6-6.9-32.7c-3.9-13-21.8-6-13.7,5.6l20.7,27L658.3,295.1z M688.6,80.7
		c-0.6-0.5-22.8,16.6-28.2,20c-10.7,9,3.8,21.2,11.2,9.3L688.6,80.7z M505.6,274.4c0.5,0.5,24-15,29.6-18.1
		c11.3-8.2-2.2-21.4-10.5-10l-19,28.1H505.6z M470.6,130.3c-0.3,0.6,24,14.7,29.3,18.4c12.5,6.5,19.8-10.5,5.5-13.2L470.6,130.3z
		 M724.3,228.7c0.3-0.6-23-16.3-28-20.3c-12-7.4-20.5,9.1-6.4,12.7L724.3,228.7z M643.7,55.8c-0.7-0.2-14.6,23.4-18.3,28.5
		c0,4.3,3.5,7.8,7.8,7.8c2.4,0,4.7-1.1,6.2-3.1C639.4,89,643.7,55.8,643.7,55.8z M549.8,300.1c0.7,0.3,16.3-22.4,20.3-27.3
		c7.3-11.6-10.4-19-13.7-5.6L549.8,300.1L549.8,300.1z M472.3,230.8c0.3,0.6,28-6,34.5-7c13.6-3.8,6-20.6-6-12.8L472.3,230.8z
		 M724.4,128.1c-0.2-0.6-28.3,4.1-34.8,4.7c-14,2.9-7.5,20.2,5,13.2L724.4,128.1z"/>
	<path class="st1" d="M620.9,50.2c-0.7-0.1-10.1,25.4-12.9,31c-4.1,13,15,16.2,14.7,2.4L621,50.1L620.9,50.2z M572.4,306.1
		c0.7,0.2,12-24.7,15.2-30.2c5-12.6-13.8-17-14.5-3.3L572.4,306.1L572.4,306.1z M562.7,52.7c-0.7,0.2,1.9,27.2,1.9,33.4
		c1.9,13.3,20.6,8.7,14.4-3.7C579,82.4,562.7,52.7,562.7,52.7z M630.7,304.6c0.7-0.1,0-27.2,0.5-33.4c-0.9-13.5-20-10.1-14.6,2.7
		L630.7,304.6L630.7,304.6z M514.5,75.1c-0.6,0.4,12.7,24.3,15.2,30c7.2,11.7,22.7,0.7,11.8-8.6L514.5,75.1z M679.3,283
		c0.6-0.4-11-25.2-13-31c-6.3-12.1-22.5-2.1-12.4,7.8L679.3,283z M479.3,108.7c-0.4,0.6,21.1,18.4,25.6,23
		c11.1,8.4,21.4-7.2,7.8-12.1L479.3,108.7z M713.5,248.4c0.4-0.6-19.7-19.8-23.9-24.6c-10.4-9.1-21.8,5.8-8.6,11.6L713.5,248.4z
		 M463.9,150.6c-0.2,0.7,26.3,10.8,32.1,13.7c13.4,4.5,17.7-13.4,3.1-13.8L463.9,150.6z M731.3,208.4c0.3-0.6-25.4-12.4-31-15.7
		c-13-5.4-18.7,12.2-4.2,13.6L731.3,208.4L731.3,208.4z M463,202.1c0.1,0.6,28.7,0.2,35.2,0.7c14.2-0.7,10.8-18.8-2.8-13.9
		L463,202.1z M733.2,157.1c0-0.7-28.6-2.2-35-3.1c-14.3-0.2-12.2,18.1,1.7,14l33.3-11V157.1z M487.5,255.5c0.4,0.6,26-11.6,32-13.9
		c12.4-6.5,1-21.4-8.9-11.3L487.5,255.5z M709.8,103.2c-0.4-0.6-26.7,9.9-33,11.8c-12.9,5.7-2.6,21.3,8,11.9L709.8,103.2z
		 M529.1,290.9c0.6,0.3,18.9-20.5,23.5-24.9c8.7-10.7-8-20-12.9-7L529.1,290.9z M668.8,67.1c-0.5-0.4-20.3,19.1-25.2,23.2
		c-9.4,10.1,6.6,20.5,12.4,7.9L668.8,67.1L668.8,67.1z"/>
	<g transform="matrix(2.1824 0 0 2.0629 -405 -272.6)">
		<path class="st1" d="M399.6,244.1c0.7,2.5,0.8,16.5,14.9,30c14,13.4,38,16.4,38,16.4s0.1,1.9-1.6,2c-1.7,0.2-9.9-1.5-14-2.8
			c-4-1.2-7.6-3.4-8-3.3c-0.5,0.2-1.3,1.6-2.5,1.4s-7-6.2-9.6-7.8c-5.2-4.5-9.8-9.6-13.7-15.3c-2.8-4.5-3.5-7.5-4.4-7.5
			s-4.2,2.2-4.2,2.2s-3-4.5-5.6-11.7c-2.7-7.2-2.4-11.4-1.8-11.7c0.7-0.3,0.7,5.3,2.7,10.4c2,5.2,4.8,6.8,4.8,6.8s-1.8-2.7-3.2-9.4
			s-2-13.2-1-15.2s1.9-2.6,2-2.5c0.2,0.2-1.7,3.1-0.4,10.8s4.8,14.2,5.6,13.9c0.8-0.3-0.5-1.9-1-6.4s0.5-7.3,1.6-7.7
			C398.7,236.3,399.5,241.7,399.6,244.1L399.6,244.1z M389.8,256.9c-2.7-2.5-6.9-11.2-7.8-10.8c-1,0.5,6.8,13,7,14
			c0.2,1.2,1.9,4.6,0.6,4.1s-10.6-10.3-9.5-8.4c1.1,1.9,8.1,10.5,7.7,11s-5.8-4.8-6-4.1c-0.1,0.6,5.3,5.8,5.2,6.4s-3.5-3.3-3.5-2.5
			s3.5,4.7,3.5,5.3s-3-2.8-2-1c0.9,2,3.5,3.7,3.4,4.3s-2.2-0.8-2.2-0.5s3.9,1.7,4.8,2.8c1,1.1,7.4,8.5,12.2,12.2
			s18.6,10.2,19.6,10.2c0.9,0,2.3-2,2-2.8s-13.8-5.4-17.5-8.8c-3.8-3.4-13-11.6-13.8-12c-0.7-0.5-2.8-0.3-2.8-0.8s2.7,0.3,2.5,0
			c-0.1-0.3-3.7-1.9-3.6-2.2c0.2-0.3,2.5,0.6,2.5,0.3s-4.2-2.6-4-3.1c0.1-0.5,3.1,1.4,3.1,1c0-0.2-4-3-3.9-3.5s3.1,2.2,3,1.6
			s-2.4-4-2.4-4.4c0-0.5,3.6,3.4,4,2.6c0.2-0.7-1.3-7.2-1.2-7.3s2.7,1.4,3.1,0.5C394.3,260,392,258.7,389.8,256.9L389.8,256.9z
			 M435.9,306.1c-1.9,0.3-2.8-0.4-1.7-2c1.5,0,5.5-1.3,6.9-1.9s2.9-1.4,4.1-2.5c1.2-1.3,2,0.7,1.3,1.8c-0.5,0.7-2.8,2-4.5,2.7
			C439.5,305,437.3,306.2,435.9,306.1L435.9,306.1z M448.4,301c-1.3-1.4-0.2-2.4,1.7-3.5c2.8-1.5,2-3.6,5.6-5.3
			c1.6-1,24-10,31.3-14.8s27.8-20.3,33.3-31c5.4-10.6,2.8-11.4,3.6-11.8c0.7-0.5,1.5,1.5,1.4,3.9c-0.2,2.3-2,9.3-1.4,10
			c0.6,0.7,8.2-5.5,11.4-13c3.2-7.5,5.6-15.3,7.1-15.3c1.6,0-2.6,12.8-5.3,17.8c-2.6,5-5.7,7.5-5,8.6c0.8,1,8.6-5.5,11.3-10.3
			c2.6-4.9,5.1-9.2,5.6-8.3c-0.8,5.9-3.1,11.4-6.7,16.1c-4.2,4.8-9.2,8.3-8.4,9c0.7,0.8,6.4,1.6,12.3-2.4c6-4.1,6.6-10,7.3-9.7
			c0.8,0.3-0.7,8.4-6.4,13.4c-5.7,5-13.2,5.5-13,6.6c0.4,1,16.3-4.6,16-3.3c-0.3,1.2-20.6,9.2-20.8,10c0,0.6,3.5,0.8,9-0.5
			c5.4-1.2,10.6-5.5,11.3-4.5c0.2,1.4-3.9,4.8-10.1,6.4c-6.3,1.6-9.4,3.7-9.6,4.2c-0.1,0.5,11.2-1.4,11.2-0.8s-14.8,3.5-14.9,4.3
			c-0.2,0.7,14-2.9,13.8-2c-0.4,0.7-19.3,6.3-19.1,6.6c0.1,0.4,15.8-3.4,15.5-2.8c-0.4,0.7-26.4,8-26.6,8.5
			c-0.2,0.4,23-5.2,22.8-4.7s-12,3.4-12,3.7c0,0.3,9.5-1.5,9.3-1c-0.1,0.4-24,6.5-24.5,7.4c-0.5,1,12.4-2.5,12.2-0.7
			c-0.2,1.8-27.7,11-27.8,9.3c-0.2-1.7,16.7-6,16.6-6.5c-0.2-0.5-9.7,1-9.9,0.1c-0.1-1,6.3-3,5.8-3.4c-0.5-0.5-5.3,1.4-4.9,0.3
			c0.5-1.1,9.6-5.3,9.4-5.6c-0.1-0.3-3.3,1-3,0c0.4-1.1,19.7-6.7,19.4-7.4c-0.3-0.6-8.9,1.4-9.7,1.6c-0.3-0.6,12-5.2,11.8-6
			c-0.4-0.7-6.6,2.7-7,1.8c-0.2-1,10.9-5.3,10.2-6c-0.7-0.7-5.7,1.8-6.4,1.1c-0.7-0.7,10.5-8.4,8.8-8.6c-1.7-0.1-3.8,2.4-4,0.8
			c0.2-2,8.7-5.3,6.8-6.9c-3-0.9-13.1,0.7-17.3,3.2c-4.2,2.5-18.2,16.4-21.6,18.6c-3.4,2.1-15,7-17.2,8c-3.4,1.2-4,3-7.5,4.8
			c-6.3,1.7-6.2,3.6-9.2,4.7C459.8,296,448.5,301.4,448.4,301L448.4,301z M432.6,308c-1.9,1-3.6,3.4-2.5,4.4c0.6,1.2,2.5-2.7,4-2.5
			l8,0.4c4.3,0.3,6.4-0.9,8.8-0.7s7.7-1.3,10.2-1.3s3,0.3,3.2-0.8c0.3-1-7.8-0.3-11.4-0.4c-3.6-0.2-8.1,0.7-10.8,0.7
			C439.6,307.7,435.3,306.9,432.6,308L432.6,308z"/>
		<path class="st1" d="M442.9,305.3L442.9,305.3c0.9,0,1.7,0.7,1.7,1.5l0,0c0,0.8-0.8,1.5-1.7,1.5h0c-0.9,0-1.7-0.7-1.7-1.5l0,0
			C441.2,305.9,442,305.3,442.9,305.3z"/>
		<path class="st1" d="M484.5,303.9c1.7-0.3,6.3,1.3,9.5,2c5.8,2.3,16.6,1.2,16.6,2.3s-0.7,2.4-3.2,2.6s-8.8-1-8.6-1s5,2.3,3.6,2.9
			s-5.5-1.3-6.2-0.8s3.8,1.4,3,1.7c-0.6,0.3-3.7-0.4-4.7-0.3c-1,0.2,0.8,1.3-0.4,1.7c-1.2,0.5-3.2-0.6-4-0.3c-0.9,0.3,1.8,2,0.6,2.2
			c-1.2,0.2-4-0.8-5.6-1c-1.6,0,1.5,1.6,0.5,1.8c-1,0.1-3.8-1.3-4.5-1.3s0,2-1,2s-2.2-1.7-2.8-1.7s0,2-1,2s-1.4-2.1-2.2-2
			c-1,0.2,0,2.7-1.4,2.5c-1.3-0.1-1.5-2.6-2.6-2.5c-1,0.2,0.2,2.5-0.8,2.5s-1.2-2.3-2.2-2.5c-1-0.1-0.6,2.2-1.2,2.2
			s-1.2-2.2-1.6-2.2c-0.3,0,0,2.2-1.2,2s-1.2-2.4-1.5-2.3c-0.4,0.2-0.4,1.8-1.2,1.8s-0.9-1.6-1.2-1.4c-0.4,0.1-1.6,2.1-2.4,1.8
			c-0.9-0.3,0.2-1.9-0.2-1.9s-1.4,1.1-2,1s0-1.4-0.2-1.4s-1.7,0.8-2.4,0.8s-2.6,1-3.1,0.1c-0.5-1,1.3-1,1.7-1.9
			c0.3-0.9-1-3.6,0.4-4.5c1.3-1,5.6,1.3,12-0.3C474.6,307.4,483.6,303.8,484.5,303.9L484.5,303.9z"/>
	</g>
</g>
</svg>
