<?xml version="1.0" encoding="utf-8"?>
<!-- Generator: Adobe Illustrator 24.0.1, SVG Export Plug-In . SVG Version: 6.00 Build 0)  -->
<svg version="1.1" id="flag-icons-lb" xmlns="http://www.w3.org/2000/svg" xmlns:xlink="http://www.w3.org/1999/xlink" x="0px"
	 y="0px" viewBox="0 0 800 480" style="enable-background:new 0 0 800 480;" xml:space="preserve">
<style type="text/css">
	.st0{fill-rule:evenodd;clip-rule:evenodd;fill:#FF0000;}
	.st1{fill-rule:evenodd;clip-rule:evenodd;fill:#FFFFFF;}
	.st2{fill:#007900;}
</style>
<g>
	<path class="st0" d="M0,360h800v120H0V360z M0,0h800v120H0V0z"/>
	<path class="st1" d="M0,120h800v240H0V120z"/>
</g>
<path class="st2" d="M480.6,282.7c19.6-12.2,14.6,4.9,41.5-2.4v-4.9c-19.4-14.7-26.8-26.9-53.6-26.9l41.5-4.9v-4.9
	c0,0-41-10.7-41.9-11.2c0.3-1.2,1.3-3.1,4-4.2c7.8,5.1,31.2,4.5,32.6,4.4c-0.8-6-11.9-11-21.6-15.8c0,0-41.9-25.8-42.1-28
	c0.8-6.6,17.2,1,34.7,6.1c-4.9-9.8-14.6-14.6-24.4-17.1l14.6-2.4c-9.7-21.9-34.1-19.5-48.8-29.2c-9.8-7.3-9.8-12.2-24.5-19.4l0,0.1
	c-7.3,14.5-12.2,14.5-24.4,24.4c-4.9,4.8-12.2,7.2-2.4,12.2c-9.8,4.8-14.7,7.2-19.6,17l2.4,2.4c0,0,9.4-4.5,9.8-2.4
	c1.7,2-12.2,9.4-14,10.6l-10.3,6.6c-12.3,9.7-19.7,7.2-26.9,21.8l24.4-2.4c4.9,17.1-12.2,19.5-24.4,26.8L287.8,251
	c5,17.1,19.6,7.3,31.8,2.4l2.4,2.4v4.9l-24.4,12.2c0,0-28.9,16.5-29.3,17.1c-0.2,0.9,0,4.9,0,4.9c9.8,2.4,24.4,4.9,34.2,0
	c12.2-4.9,14.6-9.8,29.2-9.8c-14.1,11-31,17.7-48.8,19.5v9.8c14.6,0,24.4,0,36.6-2.4l31.7-9.8c7.3,0,14.7,7.3,12.2,14.6
	c-7.2,26.8-36.6,21.9-46.3,43.9l39-14.7c9.8-4.9,19.5-9.7,31.7-7.2c14.6,4.9,14.6,14.6,34.1,19.5l-4.9-12.2
	c4.9,2.4,9.8,2.4,14.7,4.9c12.2,4.9,14.6,9.8,29.3,7.3c-12.2-14.6-14.6-12.2-24.4-21.9c-9.8-14.6-14.7-36.6,0-39l17.1,4.9
	c17.1,2.4,17.1-2.4,41.4,7.3c14.7,4.9,19.6,12.2,36.6,7.3C524.5,299.7,497.7,287.5,480.6,282.7z M451,217c0.1-0.4,0.4-0.7,0.8-0.9
	c4.3-2,10.5,1.2,12.8,3.6c1.1,1.2,1.1,2.1,0.9,2.7c-0.1,0.4-0.5,0.8-0.9,1c-0.4,0.2-1,0.2-1.8,0.2c-3,0-8.3-1.1-10.5-3
	C450.6,219.3,450.8,217.7,451,217z M418.4,176.9c0.1-0.4,0.4-0.8,0.8-1c0.7-0.3,7.3-3.2,9.8,0.5c1.1,1.8,0.5,2.8,0.1,3.3
	c-0.5,0.6-1.4,0.8-2.4,0.8c-3.1,0-7.5-1.9-7.6-1.9C418.5,178.3,418.2,177.6,418.4,176.9z M405.4,175.3c0-1.9,1.2-3.3,3.3-3.8
	c2.6-0.7,6.2,0.2,7.3,2.4c0,0.1,0.1,0.1,0.1,0.2c0.4,1.3-0.1,2.6-1.3,3.5c-1.1,0.8-3.1,1.3-4.9,1.3c-1.4,0-2.8-0.3-3.6-1
	C405.5,177.2,405.1,176.2,405.4,175.3z M403.3,196.8c0.1,0.1,0.3,0.3,0.3,0.5c0.5,1.2,0.7,3.5-3.5,5.5c-2.3,1.1-7,2.4-10.4,2.4
	c-1.8,0-3.2-0.4-3.8-1.3c-0.5-0.8-0.5-2.1,1.8-3.6c5.5-3.7,10.9-5.6,13.8-4.7C402.5,195.9,403,196.4,403.3,196.8z M377.8,179
	c1.6-0.3,2.5,0.2,3.1,0.8c1.7,1.7,1,5,0.8,5.7c-0.1,0.3-0.2,0.6-0.5,0.8c-4.4,4-12.1,10.2-15.8,10.2c-0.3,0-0.6-0.1-0.9-0.2
	c-0.9-0.4-1.4-1.2-1.5-2.2c0-0.1,0-0.2,0-0.3c0.9-6.1,12.8-13.6,14.1-14.5C377.3,179.1,377.6,179,377.8,179z M379.8,236.2
	c0,0.7-0.5,1.2-1.2,1.4c0,0-0.1,0-0.2,0c-1.4,0-8.1-0.5-9.6-3.2c-0.4-0.7-0.8-2.2,1-3.9c0.2-0.1,0.3-0.3,0.5-0.3
	c4.1-1.5,8.6,4.2,9.2,5.1C379.7,235.5,379.8,235.9,379.8,236.2z M362.5,173.1c0.6-2.3,6-5.4,7.1-5.9c0.4-0.1,1.2-0.5,1.9,0
	c0.3,0.2,0.6,0.5,0.7,0.9c0.5,1.7-1.1,3.4-2.5,4.6c-0.7,0.6-3,2.4-5.1,2.4c-0.4,0-0.9-0.1-1.3-0.3
	C362.7,174.5,362.3,173.8,362.5,173.1z M356.6,202.9c2.2-2.9,8.4-3.1,11-2.1c1.3,0.5,1.7,1.3,1.8,1.8c0.2,0.5,0.2,1.2,0,2.1
	c-0.7,2.3-3.2,5.9-6.4,6.5c-0.3,0.1-0.6,0.1-1,0.1c-1.3,0-2.9-0.5-4.5-2.4C355.1,205.9,355.9,203.8,356.6,202.9z M336.8,210
	c0-0.1,0.1-0.2,0.1-0.2c1.3-2.6,12.1-4.2,13.1-4.2c0.1,0,0.2,0,0.3,0c2.4,0.4,3.6,3.4,4.5,5.6c0.1,0.3,0.2,0.6,0.3,0.8
	c0.1,0.1,0.1,0.1,0.2,0.2c0.3,0.4,0.3,0.9,0.2,1.4c-0.5,1.5-7,5.7-9.4,6.8c-0.9,0.4-1.6,0.6-2.2,0.6c-0.2,0-0.5,0-0.7-0.1
	c-0.7-0.2-1.7-0.8-3.4-3.4C339.2,216.6,336.3,211.9,336.8,210z M352.5,248.4c-4.9,5.5-17.8,7.8-20.6,7.8c-0.1,0-0.2,0-0.3,0
	c-0.1,0-0.2,0-0.3-0.1c-1.8-0.6-4.9-5.5-4.9-6.5c0-0.4,0.2-1.2,1.3-1.5c1.1-0.3,6.6-1.7,12.3-2.8c10.8-2.1,12.4-1.1,13.1,0.1
	C353.4,245.9,353.8,247,352.5,248.4z M368.2,283.6l-0.2,0.7c0,0.1,0,0.2-0.1,0.3c-0.3,0.8-1,1.4-1.8,1.4c0,0,0,0-0.1,0
	c-3.2,0-8.7-8.9-10.4-12.8c-1.4-3.2-1.5-5.3-0.3-6.5c1.6-1.5,4.1-0.4,5,0C371.9,272.1,369.9,278.2,368.2,283.6z M383.4,283.3
	c-0.4,0.5-1.2,1.2-2.6,1.2c-0.2,0-0.4,0-0.7-0.1c-0.2,0-0.3-0.1-0.5-0.1c-3.3-1.7-4.2-5.8-3.6-9.1c0.4-2.5,1.6-4,3.1-4.2
	c0.1,0,0.2,0,0.3,0c1.2,0.1,2.3,1.1,3.3,3.3C383.7,276.6,385.1,281,383.4,283.3z M384,180.9c-0.1-0.4-0.1-0.8,0.1-1.1
	c2.4-4.9,9-7.2,12.7-7.2c0,0,0,0,0.1,0c0.6,0,2.3,0,3,1.3c0.8,1.5,0.5,3.1-0.8,4.6c-2.1,2.2-6.6,4-10.5,4c-1.4,0-2.7-0.2-3.8-0.7
	C384.4,181.6,384.1,181.2,384,180.9z M384.4,229.2c0.1-1,0.7-2.4,3.2-3.1c3.9-1.2,6,0.6,6.7,2.6c0.7,2.1,0.1,5.1-1.8,6
	c-0.4,0.3-0.9,0.4-1.5,0.4c-0.8,0-1.7-0.2-2.6-0.7C386.3,233.4,384.2,231.3,384.4,229.2z M398,283c-0.7,0.2-1.5,0.3-2.1,0.3
	c-3,0-5.3-1.8-6.2-5c-0.8-2.8-0.5-7.3,1.9-8.1c0.3-0.1,0.6-0.1,0.8,0c4.4-0.3,9.3,3.6,10.1,7.2C402.6,278.4,402.9,281.8,398,283z
	 M408.1,243.6c-0.2,0.3-0.5,0.5-0.8,0.7c-0.3,0.1-0.6,0.1-0.9,0.1c-2.8,0-8.1-2.5-9.6-5.6c-0.6-1.1-1.4-4,2.3-6.5
	c3.6-2.5,6.1-1.1,7.2-0.1C409,234.8,409.6,241,408.1,243.6z M419.2,200.5c-0.3,1.6-1.8,2.8-4.5,3.7c0,0-3.7,1.1-6,1.1
	c-0.8,0-1.4-0.1-1.7-0.4c-0.4-0.4-0.5-1-0.4-1.5c1-3.1,4.3-8.7,9.9-7.2c0.2,0,0.4,0.1,0.5,0.3C418.6,197.8,419.4,199.1,419.2,200.5z
	 M426.3,210.3c-3.3-1.1-5.1-2.6-5.2-4.5c-0.1-1.6,1-3,3.4-4.2c7.8-3.9,12.2,0.3,13.4,1.7c1.7,2,2.3,4.4,1.5,5.9
	c-0.1,0.2-0.2,0.4-0.3,0.6c-1,1.2-3.1,1.6-5.4,1.6C431.2,211.5,428.3,211,426.3,210.3z M460,267.4c-1.4,1.8-4.8,2.4-8.6,2.4
	c-5.3,0-11.3-1.2-13.7-2.3c-0.7-0.3-2.7-1.1-2.4-2.9c0-0.1,0-0.1,0-0.2c0.5-1.7,4.3-3.1,7.3-3.9c3.6-1,12.4-2.8,16.7,1.4
	c0.1,0.1,0.1,0.1,0.2,0.2C461.5,264.7,460.7,266.5,460,267.4z M474.9,278.9c-0.5,0-1.1,0-1.7-0.1c-4.4-0.6-9.8-3.8-11.3-9.4
	c-0.1-0.5,0-1,0.3-1.4c4.1-4.6,11.6-3.8,16.2-0.5c3.3,2.4,4.3,5.6,2.7,8.3C480,277.8,477.8,278.9,474.9,278.9z"/>
</svg>
