<?xml version="1.0" encoding="utf-8"?>
<!-- Generator: Adobe Illustrator 24.0.1, SVG Export Plug-In . SVG Version: 6.00 Build 0)  -->
<svg version="1.1" id="flag-icons-li" xmlns="http://www.w3.org/2000/svg" xmlns:xlink="http://www.w3.org/1999/xlink" x="0px"
	 y="0px" viewBox="0 0 800 480" style="enable-background:new 0 0 800 480;" xml:space="preserve">
<style type="text/css">
	.st0{fill:#002B7F;}
	.st1{fill:#CE1126;}
	.st2{fill:#FFD83D;}
	.st3{fill:#FFD83D;stroke:#000000;stroke-width:0.96;stroke-linecap:round;stroke-linejoin:round;stroke-miterlimit:2.56;}
	.st4{stroke:#000000;stroke-width:0.96;stroke-linecap:round;stroke-linejoin:round;stroke-miterlimit:2.56;}
	.st5{fill:#FFD83D;stroke:#000000;stroke-width:1.28;stroke-linecap:round;stroke-linejoin:round;stroke-miterlimit:2.56;}
	.st6{fill:none;stroke:#000000;stroke-width:0.96;stroke-linecap:round;stroke-linejoin:round;stroke-miterlimit:2.56;}
</style>
<path class="st0" d="M0,0h800v240H0V0z"/>
<path class="st1" d="M0,240h800v240H0V240z"/>
<g transform="scale(.8)">
	<g id="a">
		<path class="st2" d="M216.4,122.3l-1.9,62.5h-63.4c-7.8-15.2-14.2-28-14.2-45.5c0-14.6,11.5-26.2,28-26.2
			C182.4,113.1,201.7,119,216.4,122.3L216.4,122.3z"/>
		<g>
			<path class="st3" d="M144.5,125.2v36 M149.5,121.5v48 M154.7,119v57.2 M159.7,117.8v44.9 M164.8,117.6v45.3 M169.9,115.9v47
				 M175,115.9v47 M180.1,116.4v47 M185.2,116.9v46.9 M190.3,119.8v47 M195.3,120.3v52.9 M200.5,120.3v47 M205.5,120.3v47"/>
			<path class="st4" d="M176.4,118c10.8,1.7,34.4,12.8,31.7,27.7c-3.8,21.2-16.2,12.7-32.6,9.7l-12.4,4.1c-4.5,4.5-11,8.7-15.4,3.2
				h-7.4v28.8h81.4V122L176.4,118z"/>
		</g>
		<circle class="st5" cx="212.8" cy="113" r="4.9"/>
		<circle class="st5" cx="201.7" cy="110.3" r="4.9"/>
		<circle class="st5" cx="190.4" cy="107.5" r="4.9"/>
		<circle class="st5" cx="179.1" cy="105.6" r="4.9"/>
		<circle class="st5" cx="167.8" cy="104.5" r="4.9"/>
		<circle class="st5" cx="156.8" cy="105.1" r="4.9"/>
		<circle class="st5" cx="146.2" cy="108.7" r="4.9"/>
		<circle class="st5" cx="137.3" cy="115.3" r="4.9"/>
		<circle class="st5" cx="131" cy="124.4" r="4.9"/>
		<circle class="st5" cx="127.9" cy="135.2" r="4.9"/>
		<circle class="st5" cx="128" cy="146.3" r="4.9"/>
		<circle class="st5" cx="130.2" cy="157.2" r="4.9"/>
		<path class="st5" d="M215,119.5l-0.5,6.5c-12.3-2-29.7-8.8-46-8.8c-15,0-26.6,6-26.6,21.2c0,14.9,6.3,28.5,14.7,42.3l-8.7,4
			c-7.8-15-14.3-28-14.3-45.4c0-14.6,11.5-29,31.3-29C182.4,110.3,200.3,116.3,215,119.5L215,119.5z"/>
	</g>
	<g transform="matrix(-1 0 0 1 444 0)">
		<g id="a_1_">
			<path class="st2" d="M216,122.3c-14.7-3.3-34-9.2-51.5-9.2c-16.5,0-28,11.6-28,26.2c0,17.5,6.4,30.3,14.2,45.5h63.4L216,122.3
				L216,122.3z"/>
			<g>
				<path class="st3" d="M144.1,161.2v-36 M149.1,169.5v-48 M154.3,176.2V119 M159.3,162.7v-44.9 M164.4,162.9v-45.3 M169.5,162.9
					v-47 M174.6,162.9v-47 M179.7,163.4v-47 M184.8,163.8v-46.9 M189.9,166.8v-47 M194.9,173.2v-52.9 M200.1,167.3v-47 M205.1,167.3
					v-47"/>
				<path class="st4" d="M221.3,122v69.5h-81.4v-28.8h7.4c4.4,5.5,10.9,1.3,15.4-3.2l12.4-4.1c16.4,3,28.8,11.5,32.6-9.7
					c2.7-14.9-20.9-26-31.7-27.7L221.3,122z"/>
			</g>
			<circle class="st5" cx="212.4" cy="113" r="4.9"/>
			<circle class="st5" cx="201.3" cy="110.3" r="4.9"/>
			<circle class="st5" cx="190" cy="107.5" r="4.9"/>
			<circle class="st5" cx="178.7" cy="105.6" r="4.9"/>
			<circle class="st5" cx="167.4" cy="104.5" r="4.9"/>
			<circle class="st5" cx="156.4" cy="105.1" r="4.9"/>
			<circle class="st5" cx="145.8" cy="108.7" r="4.9"/>
			<circle class="st5" cx="136.9" cy="115.3" r="4.9"/>
			<circle class="st5" cx="130.6" cy="124.4" r="4.9"/>
			<circle class="st5" cx="127.5" cy="135.2" r="4.9"/>
			<circle class="st5" cx="127.6" cy="146.3" r="4.9"/>
			<circle class="st5" cx="129.8" cy="157.2" r="4.9"/>
			<path class="st5" d="M214.6,119.5c-14.7-3.2-32.6-9.2-50.1-9.2c-19.8,0-31.3,14.4-31.3,29c0,17.4,6.5,30.4,14.3,45.4l8.7-4
				c-8.4-13.8-14.7-27.4-14.7-42.3c0-15.2,11.6-21.2,26.6-21.2c16.3,0,33.7,6.8,46,8.8L214.6,119.5L214.6,119.5z"/>
		</g>
	</g>
	<path class="st5" d="M222,53.1l-5.2,9.7l5.2,9.6l5.1-9.6L222,53.1L222,53.1z M222,77.5l-5.2,9.6l5.2,9.7l5-9.8l-5.1-9.6L222,77.5z
		 M203.6,75l8.1,5.1l8.1-5.1l-8-5.2L203.6,75L203.6,75z M224.1,75l8.1,5.1l8.2-5.1l-8.2-5.2l-8,5.2H224.1z"/>
	<circle class="st5" cx="222" cy="75.1" r="3.9"/>
	<circle class="st5" cx="222" cy="100" r="10.5"/>
	<path class="st6" d="M219.3,89.9v6.6c-2.5,0.1-5,0.4-7.4,0.8 M232.1,97.3c-2.5-0.4-5-0.7-7.5-0.8v-6.6 M211.8,102.6
		c3.4-0.6,6.8-0.9,10.2-0.9s6.8,0.3,10,0.9"/>
	<path class="st5" d="M211.8,117.7c-1,17-3,34.5-9.7,47.1l10.8-4.4c3.8-14.3,4.6-32.8,5.7-41.6L211.8,117.7z M232.2,117.7l-6.9,1.1
		c1.2,8.8,2,27.3,5.7,41.6l10.8,4.4C235.2,152.2,233.2,134.8,232.2,117.7z"/>
	<path class="st5" d="M222,154.7c-13,0-22.5,6-23,21.6c-3.2-5.6-16.5-23-29-20.7c-7.4,1.4-14,11.7-12.8,23.4
		c-6.2-17.6-24.1-20.5-37.3-10c11.7,9.5,16.9,37.8,26.7,50h150.7c9.8-12.2,15-40.5,26.7-50c-13.1-10.5-31.1-7.6-37.2,10
		c1-11.7-5.5-22-13-23.4c-12.4-2.3-25.7,15.1-28.9,20.7c-0.5-15.5-10-21.6-23-21.6H222z"/>
	<g>
		<path class="st4" d="M297.1,219c0,5.6-33.6,11.7-75.1,11.7s-75.2-6-75.2-11.7c0-5.5,33.7-8.5,75.2-8.5
			C263.4,210.5,297.1,213.5,297.1,219z"/>
		<circle class="st3" cx="222" cy="114.4" r="3.5"/>
		<circle class="st3" cx="222" cy="122" r="3.7"/>
		<circle class="st3" cx="222" cy="130.2" r="4.1"/>
		<circle class="st3" cx="222" cy="139.3" r="4.7"/>
		<circle class="st3" cx="222" cy="149.4" r="5.1"/>
		<path d="M220,159.2c-0.6,0-1.1,0.5-1,1.4l0.6,4.3c0.2,1.5,1,1,1.3,0c0.2-1.2,0.1-2,0.2-4.1C221.1,159.7,220.5,159.2,220,159.2
			L220,159.2z M224,159.2c-0.6,0-1.1,0.5-1.1,1.6c0,2.1,0,2.9,0.2,4c0.2,1.2,1,1.6,1.3,0l0.5-4.2C225.1,159.6,224.5,159.2,224,159.2
			L224,159.2z M216.3,159.8c-0.6,0-1,0.4-1,1c0,1,0.3,2.3,0.4,3.8c0.2,1.5,1.3,1,1.4,0c0-0.8,0.2-2.2,0-3.9c0-0.6-0.2-0.9-0.6-1
			C216.4,159.7,216.4,159.7,216.3,159.8L216.3,159.8z M227.4,159.8c-0.3,0-0.6,0.3-0.7,1c-0.1,1.3,0,2.5,0.2,3.8c0,1,1.2,1.5,1.3,0
			c0-1.5,0.4-2.7,0.4-3.7c0-0.6-0.5-1-1-1.1C227.5,159.8,227.5,159.8,227.4,159.8z M212,161.5c-0.5,0.1-1,0.7-0.8,1.3
			c0.3,1.3,0.6,2.7,0.6,4c0,1.1,0.9,0.7,1,0c0.1-1.3,0.1-2.7,0.1-4C212.9,161.8,212.4,161.4,212,161.5L212,161.5z M231.6,161.5
			c-0.3,0.1-0.6,0.5-0.6,1.3l0.2,4c0,0.7,1,1.1,1,0c0-1.3,0.2-2.7,0.5-4c0.2-0.6-0.3-1.2-0.7-1.3
			C231.9,161.5,231.8,161.5,231.6,161.5L231.6,161.5z M172.6,161.7c-0.6,0-1,0.7-0.6,1.5c0.6,1.4,1.3,2.2,1.9,3.6
			c0.5,1.3,1.4,0.5,1.1-0.4l-1.4-3.7C173.3,162,172.9,161.7,172.6,161.7L172.6,161.7z M271.4,161.7c-0.4,0-0.7,0.3-1,1
			c-0.9,1.9-1.2,2.8-1.5,3.7c-0.2,1,0.6,1.7,1.2,0.4l1.8-3.6C272.3,162.4,271.9,161.7,271.4,161.7L271.4,161.7z M176.6,161.7
			c-0.5,0.2-0.7,0.7-0.5,1.3c0.6,1.2,1.3,2.5,1.8,3.8c0.4,1.1,1.4,0.8,1-0.2l-1-3.7C177.5,161.9,176.9,161.6,176.6,161.7
			L176.6,161.7z M267.1,161.7c-0.4,0.1-0.8,0.5-1,1.2c-0.7,2-0.8,2.6-1.1,3.7c-0.4,1,0.6,1.3,1,0.2l1.8-3.8c0.2-0.6,0-1.1-0.4-1.3
			C267.3,161.7,267.2,161.7,267.1,161.7L267.1,161.7z M181.6,162.7c-0.6,0.1-1,0.9-0.6,1.9c0.4,1.2,1,2.3,1.6,3.7s1.5,1.1,1.3,0.2
			c-0.3-0.9-0.5-2.3-1.2-4.5C182.4,163,182,162.6,181.6,162.7L181.6,162.7z M262.4,162.7c-0.4,0-0.9,0.3-1.2,1.3
			c-0.6,2.2-1,3.6-1.1,4.5c-0.3,1,0.7,1.2,1.2-0.2c0.6-1.4,1.2-2.5,1.6-3.7C263.3,163.6,262.9,162.8,262.4,162.7L262.4,162.7z
			 M169.2,163.4c-0.6,0-1,1-0.7,1.7c0.5,1,0.9,1.4,1.4,2.6c0.6,1.2,1.2,0.3,1-0.5c-0.3-0.8-0.6-1.7-0.8-2.8c-0.2-0.8-0.6-1-1-1
			H169.2z M274.8,163.4c-0.4,0-0.7,0.2-1,1l-0.7,2.8c-0.2,0.8,0.4,1.7,1,0.5c0.5-1.2,0.8-1.5,1.4-2.6
			C275.8,164.4,275.3,163.5,274.8,163.4L274.8,163.4z M207.8,166.2c-0.7,0-1.3,0.8-1,1.5c0.2,1.2,0.8,2.2,1.1,3.7
			c0.4,1.3,1.3,0.7,1.2-0.2c-0.1-1.3-0.2-2.7-0.5-4C208.4,166.5,208.1,166.2,207.8,166.2L207.8,166.2z M236.2,166.2
			c-0.3,0-0.7,0.3-0.8,1c-0.3,1.3-0.5,2.7-0.6,4c0,0.9,0.9,1.5,1.2,0.2l1.2-3.7C237.4,167,236.8,166.2,236.2,166.2L236.2,166.2z
			 M222,167.4c-0.8,0-0.9,1-0.9,1.7c-0.1,2.3-0.8,4.5-2,6.4c-1,1.2-2.3,0.9-3.5,0.2c-1.2-0.6-2.3-1.4-3.3-2.2
			c-1.4-1-2.4-0.4-0.8,1.9c4.6,6.6,9.6,12.2,9.6,23c0,1.3,0.3,1.7,0.9,1.7s0.8-0.4,0.8-1.8c0-10.7,5-16.3,9.6-23
			c1.6-2.2,0.6-2.8-0.7-1.8c-1,0.8-2.1,1.6-3.3,2.2c-1.3,0.7-2.6,1-3.5-0.2c-1.2-1.9-1.9-4.1-2-6.4
			C222.8,168.4,222.7,167.4,222,167.4L222,167.4z M186.7,165.8c-0.1,0-0.1,0-0.2,0c-0.3,0.1-0.4,0.4-0.3,1l1.1,3.9
			c0.3,1,1.4,0.7,1.2-0.5l-0.6-3.1C187.7,166.3,187.1,165.8,186.7,165.8L186.7,165.8z M257.3,165.8c-0.5,0-1,0.5-1.2,1.3
			c-0.4,1.4-0.4,1.8-0.6,3c-0.3,1.3,0.9,1.5,1.1,0.6l1.2-4c0-0.5-0.1-0.8-0.4-0.9c-0.1,0-0.1,0-0.2,0L257.3,165.8z M165.7,166.2
			c-0.6,0-1,0.8-0.4,1.8c0.6,1.2,1.7,2.6,2.2,3.5c0.5,0.8,1.4,0.2,0.8-0.8c-0.6-1-0.8-2.3-1.6-3.8
			C166.6,166.5,166.2,166.2,165.7,166.2z M278.2,166.2c-0.3,0-0.7,0.2-1,0.7c-0.7,1.5-1,2.7-1.5,3.8c-0.6,1,0.2,1.6,0.7,0.8
			c0.5-0.9,1.6-2.3,2.2-3.5C279.2,167,278.8,166.2,278.2,166.2L278.2,166.2z M134,169.5c-0.6,0-0.8,1.2-0.2,2c0.8,1,1.6,1.9,2.6,2.7
			c0.8,0.8,1-0.2,0.6-1l-1.8-2.7C134.7,169.8,134.3,169.5,134,169.5L134,169.5z M309.9,169.5c-0.3,0-0.7,0.3-1.1,1l-1.9,2.7
			c-0.4,0.8-0.2,1.8,0.7,1c1-0.8,1.8-1.7,2.6-2.7C310.8,170.7,310.6,169.5,309.9,169.5L309.9,169.5z M139.1,170.5
			c-0.6,0-1,0.4-0.5,1.3l1.9,3.8c0.5,1,2,1.3,1.4-0.2l-1.3-3.8c-0.3-0.7-1-1-1.5-1L139.1,170.5z M304.9,170.5
			c-0.6,0-1.3,0.4-1.6,1.1l-1.2,3.8c-0.6,1.5,0.9,1.2,1.4,0.2s1.3-2.5,1.8-3.8C305.8,170.9,305.4,170.5,304.9,170.5L304.9,170.5z
			 M129.3,170.9c-0.8,0-0.8,0.7-0.1,1.2c0.9,0.7,2,1.4,3,2.3c1.3,1,1.7,0,1-0.8c-0.6-0.8-1.2-1.6-2.9-2.5
			C129.9,170.9,129.6,170.9,129.3,170.9z M314.6,170.9c-0.2,0-0.6,0-1,0.2c-1.6,0.9-2.3,1.7-3,2.5c-0.6,0.9-0.1,1.8,1.1,0.8
			c1-0.9,2.2-1.6,3-2.3c0.8-0.5,0.7-1.2,0-1.2H314.6z M205,171.6c-0.5,0-0.8,0.5-0.7,1.2l1,3.6c0.2,1.1,1.5,1.1,1.3,0
			c-0.2-1-0.3-2.3-0.7-3.9c-0.1-0.6-0.4-0.9-0.8-1C205.1,171.5,205,171.5,205,171.6L205,171.6z M238.8,171.6c-0.3,0-0.6,0.3-0.8,1
			c-0.4,1.5-0.5,2.8-0.7,3.9c-0.2,1,1.1,1,1.3-0.1l1-3.6c0.2-0.7-0.2-1.2-0.6-1.2C238.9,171.6,238.9,171.6,238.8,171.6L238.8,171.6z
			 M174.8,169.6c-0.3,0-0.5,0.7-0.2,1.7c1.1,2.9,1.6,5.9,1.6,9c-0.3,1.2-1,1.3-1.9,1c-1-0.5-1.9-1.1-2.8-1.7
			c-0.8-0.5-1.7,0.1-0.5,1.1c6,5,10.3,10.7,12,17.6c0.2,1.4,1.1,1.6,0.9,0c-1.4-8.7-1.7-15.9,0.4-20.3c0.8-1.7,0-3.3-1.2-0.6
			c-0.9,1.8-2.2,2.5-3.3,1c-1.6-2.4-2.9-5-4-7.7c-0.2-0.7-0.5-1-0.8-1.1C175,169.6,174.9,169.6,174.8,169.6L174.8,169.6z
			 M268.9,169.6c-0.3,0-0.6,0.4-0.8,1c-0.7,2-2.9,6.2-4,7.8s-2.4,0.8-3.2-1c-1.3-2.7-2-1.1-1.3,0.6c2.1,4.4,1.8,11.6,0.5,20.3
			c-0.3,1.6,0.6,1.4,1,0c1.8-7,6-13.2,11.8-17.6c1.2-1,0.3-1.6-0.5-1c-0.9,0.6-1.8,1.1-2.8,1.5s-1.6,0.3-1.9-1
			c-0.2-1.2,0.2-3.9,1.7-9c0.2-0.8,0-1.5-0.3-1.6C269,169.6,269,169.6,268.9,169.6L268.9,169.6z M144.4,172c-0.5,0-1,0.4-0.7,1.2
			c0.4,1.4,1.2,2.8,1.5,3.6c0.3,0.9,1.2,0.5,1-0.7l-0.5-3.1C145.7,172.4,145,172,144.4,172z M299.5,172c-0.6,0-1.2,0.4-1.3,1
			l-0.4,3.1c-0.2,1.2,0.7,1.6,1,0.7c0.2-0.8,1-2.2,1.4-3.6C300.5,172.4,300.1,172,299.5,172z M163.2,170.3c-0.6-0.1-0.7,1.5-0.2,2.2
			l2.8,3.1c0.8,1,1.3,0.1,0.8-0.7l-2.6-3.8C163.7,170.6,163.4,170.3,163.2,170.3z M280.7,170.3c-0.2,0-0.5,0.3-0.8,0.8l-2.6,3.8
			c-0.5,0.8,0,1.7,0.9,0.7l2.7-3.1C281.4,171.8,281.4,170.2,280.7,170.3z M148.7,174.3c-0.4,0-0.7,0.2-0.5,1c0.2,1.2,0.5,2,0.8,3.1
			c0.3,1,1,0.9,1-0.1l-0.3-3.2C149.6,174.6,149.2,174.2,148.7,174.3L148.7,174.3z M295.2,174.3c-0.5,0-0.9,0.3-1,0.8l-0.3,3.2
			c0,1,0.8,1.2,1,0.1l0.9-3C296,174.5,295.6,174.2,295.2,174.3L295.2,174.3z M161.8,175.7c-0.6,0-1.1,0.7-0.4,1.6
			c1.1,1.5,2.4,2.5,2.9,3c0.4,0.6,1.5,0.4,0.8-0.7l-2.3-3.5C162.6,175.7,162.2,175.6,161.8,175.7L161.8,175.7z M281.8,175.7
			c-0.2,0-0.5,0.1-0.6,0.4l-2.4,3.5c-0.7,1.1,0.4,1.3,0.9,0.8c0.4-0.6,1.7-1.6,2.9-3.1c0.7-1,0.1-1.6-0.5-1.6
			C282,175.7,282,175.7,281.8,175.7L281.8,175.7z M141.1,179.8c-0.4,0-0.6,0.4,0,1.3c1.5,1.9,2.7,4.1,3.3,6.4
			c0.1,1.4-0.5,1.4-1.1,1.4c-1.9,0-2.8-1.4-4.4-1.8c-1.7-0.3-2,0.5-0.8,1.4c5.7,3.6,10.7,8.3,14.7,13.8c1,1.9,2.3,2.5,1.6,0.8
			c-1.9-3.9-2.8-8.3-2.4-12.6c0.5-2.8,1.2-4.6,1.1-6.2c0-1.5-1-1.4-1.3,0l-1,2.8c-0.4,0.5-1.8,0.8-3-0.9c-1.7-2.1-3.6-4-5.6-5.8
			c-0.3-0.3-0.7-0.5-1-0.6L141.1,179.8z M302.8,179.8c-0.3,0-0.7,0.2-1.1,0.6c-2,1.8-3.8,3.7-5.5,5.8c-1.3,1.7-2.7,1.4-3,1
			c-0.5-0.9-0.8-1.9-1-2.9c-0.4-1.4-1.3-1.5-1.4,0c0,1.6,0.6,3.4,1.1,6.2s0,7.2-2.3,12.6c-0.8,1.7,0.6,1,1.6-0.8
			c3.9-5.5,8.9-10.2,14.6-13.8c1.2-0.9,1-1.7-0.7-1.4c-1.7,0.4-2.6,1.8-4.4,1.8c-0.6,0-1.3,0-1.2-1.4c0.1-1.3,1.8-4.4,3.3-6.4
			C303.4,180.1,303.3,179.8,302.8,179.8L302.8,179.8z"/>
		<path class="st3" d="M150.1,212.7l2,6.1 M154.1,211.5l1.8,6.2 M158.5,210.7l1.2,6.4 M162.5,210l1.3,6.3 M167.6,209.5l1,6.4
			 M173.1,209.5l1.1,6.3 M178.5,207.7l0.8,6.4 M183.5,208l0.8,6.4 M188.4,207.4l0.8,6.4 M193.2,206.8l0.5,6.5 M198.5,206.8l0.4,6.5
			 M203.3,206.5l0.3,6.5 M208.5,206.2l0.3,6.4 M214.5,206l0.3,6.5 M293.8,212.7l-2,6.1 M289.8,211.5l-1.7,6.2 M285.5,210.7l-1.2,6.4
			 M281.5,210l-1.3,6.3 M276.2,209.5l-1,6.4 M270.8,209.5l-1.1,6.4 M265.5,207.7l-0.8,6.4 M260.4,208l-0.8,6.4 M255.6,207.4
			l-0.9,6.4 M250.7,206.8l-0.5,6.5 M245.4,206.8l-0.4,6.5 M240.7,206.5l-0.3,6.5 M235.4,206.2l-0.2,6.4 M229.4,206l-0.2,6.5
			 M222,205.5v7.2"/>
	</g>
</g>
</svg>
