<?xml version="1.0" encoding="utf-8"?>
<!-- Generator: Adobe Illustrator 24.0.1, SVG Export Plug-In . SVG Version: 6.00 Build 0)  -->
<svg version="1.1" id="flag-icons-lk" xmlns="http://www.w3.org/2000/svg" xmlns:xlink="http://www.w3.org/1999/xlink" x="0px"
	 y="0px" viewBox="0 0 800 480" style="enable-background:new 0 0 800 480;" xml:space="preserve">
<style type="text/css">
	.st0{fill:#FFB700;}
	.st1{fill:#FF5B00;}
	.st2{fill:#005641;}
	.st3{fill:#8D2029;}
	.st4{fill:#FFB700;stroke:#000000;stroke-width:1.6419;}
	.st5{fill:#FFB700;stroke:#000000;stroke-width:8.3164;}
	.st6{stroke:#000000;stroke-width:8.3164;}
</style>
<path class="st0" d="M0,0h800v480H0V0z"/>
<path class="st1" d="M86.7,240l56.6-213.3h116.6v426.6H143.3L86.7,240z"/>
<path class="st2" d="M26.7,26.7h116.6v426.6H26.7L26.7,26.7z"/>
<path class="st3" d="M286.6,26.7h486.7v426.6H286.6V26.7z"/>
<path id="a" class="st4" d="M713.3,381.3c0,0,5.4,10.9,11.3,15.5c9,6.6,26.9,6,34.8,13.9c9.1,9.1-0.7,21.2-0.7,22.4l0.6,6.3
	c0,0-6.3,0-9,0.4c-3.9,0.6-5.4,3.9-12.8,3.4c-18.4-1.2-17.6-17.9-18.7-32.1c-0.9-5.4-3-12.5-4.3-17.9
	C713.5,388.8,713.3,381.3,713.3,381.3L713.3,381.3z"/>
<g transform="matrix(-1 0 0 1 845.3 0)">
	<path id="a_1_" class="st4" d="M346.6,381.3c0,0-5.4,10.9-11.3,15.5c-9,6.6-26.9,6-34.8,13.9c-9.1,9.1,0.7,21.2,0.7,22.4l-0.6,6.3
		c0,0,6.3,0,9,0.4c3.9,0.6,5.4,3.9,12.8,3.4c18.4-1.2,17.6-17.9,18.7-32.1c0.9-5.4,3-12.5,4.3-17.9
		C346.5,388.8,346.6,381.3,346.6,381.3L346.6,381.3z"/>
</g>
<g transform="matrix(1 0 0 -1 0 480)">
	<path id="a_2_" class="st4" d="M713.3,98.7c0,0,5.4-10.9,11.3-15.5c9-6.6,26.9-6,34.8-13.9c9.1-9.1-0.7-21.2-0.7-22.4l0.6-6.3
		c0,0-6.3,0-9-0.4c-3.9-0.6-5.4-3.9-12.8-3.4c-18.4,1.2-17.6,17.9-18.7,32.1c-0.9,5.4-3,12.5-4.3,17.9
		C713.5,91.2,713.3,98.7,713.3,98.7L713.3,98.7z"/>
</g>
<g transform="rotate(180 422.7 240)">
	<path id="a_3_" class="st4" d="M346.6,98.7c0,0-5.4-10.9-11.3-15.5c-9-6.6-26.9-6-34.8-13.9c-9.1-9.1,0.7-21.2,0.7-22.4l-0.6-6.3
		c0,0,6.3,0,9-0.4c3.9-0.6,5.4-3.9,12.8-3.4c18.4,1.2,17.6,17.9,18.7,32.1c0.9,5.4,3,12.5,4.3,17.9
		C346.5,91.2,346.6,98.7,346.6,98.7L346.6,98.7z"/>
</g>
<g transform="translate(0 -76)">
	<g>
		<g id="b">
			<path class="st5" d="M442.1,464.2l3.4-2.1l1.5,2.1c1.9,2.7,7.4,2.5,11,0l2.8-2.2l2.4,2.1c3,2.8,8.6,2.8,12.3,0
				c2.5-1.8,3-1.9,4.5-0.4c1,0.9,4,1.8,6.5,2.2c4.8,0.6,4.8,0.6,7.4-3.6c2.4-3.4,2.7-4.8,2.2-8.2c-0.4-2.6-0.7-5.2-0.9-7.9
				c-0.3-3.9-0.1-3.9,5.3-5.9c2.7-0.8,5.4-1.8,8-3c2.2-1.3,8.5-8.6,8.5-10.1c0-0.3-2.4-0.9-5.3-1.2c-11.9-1.5-13.8-7.7-6.1-19.3
				c12.3-19.3,19.9-37.9,19.9-49.6c0-5.3,0.4-7.1,1-5.9c2.8,4.6-2.2,24.4-9.7,38.6l-3,5.6l2.8-0.6c1.5-0.4,11-4.5,20.8-8.9
				c27-12.2,36.2-14.6,53.8-13.8c14.7,0.6,20.8,3.4,31.2,14.3c5.5,5.9,10.8,10,20.5,16c20.5,12.8,21.4,14,22.4,29.1
				c1,15.3,0.4,16.2-11.1,18.7c-10,2.2-16.2,6.8-17.8,13.4c-0.9,3.3,1,3.4,5.9,0.1l3.7-2.4l1.6,2.4c2.2,3.1,6.7,3.1,10.4,0l3-2.2
				l3,2.2c4.5,3.7,10.4,2.8,12.2-1.8c0.3-0.7,1.2-0.6,3,1c3.4,3,11.9,4.2,12.8,1.8c0.3-0.9-0.3-3-1.5-4.8
				c-4.9-7.4-6.5-10.8-6.5-14.9c0-5.6,1.5-8.5,8-12.9c7.7-5.6,10.1-12.8,4.2-12.8c-3.6,0-7.3-3.3-9.7-8.5
				c-4.8-10.7-3.7-22.6,3.4-42.5c5.5-11.7,8.2-24.5,8-37.4c0-11-0.3-12.8-2.7-18.9c-1.9-4.2-4.1-8.3-6.8-12l-4.2-5.5l5.2-4.5
				c16-13.2,12.8-34.9-6.5-43.2c-5.9-2.7-7.4-2.8-17.8-2.8c-5.9,0-15.6,0.9-20.8,1.9c-7,1.1-14,1.7-21.1,1.8
				c-10.1,0-11.9-0.3-15.7-2.4c-4-2.1-4.8-3.1-5.5-8.2c-0.1-1-0.8-1.8-1.6-2.2c-1.5-0.4-7.7,5-8.6,7.4c-0.6,1.3-0.9,1.2-2.2-0.4
				c-1.3-1.6-2.3-3.4-3-5.3c-1.5-4.9,0.4-8.5,6.2-11.3l4.5-2.1l-2.7-1.6c-5.3-3.4-14.6-1-17.8,4.5c-1,1.5-2.1,3-2.4,3
				c-0.3,0-2.1-1.5-3.9-3.4c-7-6.8-4.6-16.9,4.8-19.9c4.9-1.6,9.4-0.4,10.2,3c1.5,4.9,5.6-1.6,4.9-7.7c-0.4-4-0.4-4.2,2.4-4.2
				c3.9,0,11.9,5,14.6,8.9c3,4.6,2.7,11.9-0.6,17.2l-2.5,4.2l3.4-0.6c4.8-1,9.5-4,11.9-7.7c2.5-4.8,2.8-10.5,0.6-15.4
				c-2.2-4-1.9-4.6,1.3-3.3c5.3,2.2,8.3,4.8,10.4,9.1c2.1,3.9,2.2,4.8,1.2,8.9c-0.7,2.5-1.8,4.9-3.3,7.1c-1.8,2.4-1.9,2.8-0.4,2.8
				c2.7,0,8-2.5,10-4.5c1-1.2,2.5-3.7,3.3-5.9l1.5-3.7l1.5,3c2.2,4,6.7,7.7,12,10.1c5.8,2.4,8.2,2.5,5.2,0.3
				c-2.1-1.5-5.9-12.6-4.6-13.7c6.4,3.6,12.3,8.1,17.4,13.4c8.5,7.6,13.8,10.1,21.5,10.1c10,0,15.7-8.6,11.3-16.8
				c-2.5-4.8-8.3-5.5-11.9-1.5c-1.5,1.9-1.9,3.4-1.5,5.5c0.6,2.4,0.4,2.7-1.8,2.7c-3,0-8.6-3.7-18.7-12.2
				c-14.1-12.1-30.2-21.5-47.7-27.8c-11.8-2.7-24-3.4-36.1-1.9c-9.5,1.8-20.8,7.3-27,13.1c-10.8,10.4-11,24.2-0.4,36.8l3,3.6
				l-1.9,3.3c-3,4.8-2.7,10.9,0.6,15.4c1.5,2.1,3,3.7,3.4,3.7c0.3,0,0.6-1.3,0.7-3c0.3-4,2.1-6.7,5-7.7c2.7-1,4.5-0.4,16.6,4.5
				c12.9,5,34.2,5.3,56.7,0.9c9.8-2.3,20-2.2,29.7,0.3c10.7,4.5,13.1,15.9,5.3,24.5c-3.4,3.9-6.5,5.3-17.4,8.3
				c-9.4,2.5-19.3,3.2-29,2.2c-16-0.1-21.8,0.1-28.2,1.5c-7.3,1.5-11.6,1.6-32.4,1.2l-24.2-0.6l2.7,2.1c1.4,1.3,3,2.4,4.6,3.4
				c1.9,1,1.8,1.2-0.9,2.2c-1.5,0.6-5,1-7.9,1H545l-0.6,4.2c-0.4,2-0.4,4,0,5.9c0.6,1.5,0.3,1.8-1.2,1.2c-1-0.4-3.9-1.2-6.4-1.6
				c-2.5-0.5-5-1.3-7.4-2.4c-2.8-1.5-3.1-1.5-4.2,0.4c-0.9,1.5-9.2,7.7-10.4,7.7c-0.5-3.9-1.6-7.6-3.3-11.1
				c-1.5-3.1-2.8-6.7-3.3-7.7c-0.4-1.6-0.7-1.8-1.5-0.4c-0.4,0.7-1,3-1.5,4.8c-0.5,2.4-1.4,4.7-2.7,6.8l-2.2,3.3l-1.5-2.8
				c-1.5-3-3.9-6.2-4.8-6.2c-0.3,0-0.7,0.9-1,2.2c-0.7,2.4-6.5,9.4-8,9.4c-0.4,0-0.9-1.9-0.9-4.5c0-2.2-0.4-4.3-1-4.3
				c-0.6,0-1,0.7-1,1.5c0,1.8-4.9,7.4-6.7,7.4c-0.6,0-1.8,0.6-2.5,1.5c-1.8,1.9-3.3,1.6-2.5-0.6c0.2-1.9,0-3.8-0.6-5.6l-1.5-4.8
				c-0.3-0.7-2.1-0.4-5.9,0.7c-5.9,1.9-8,1.5-4.9-0.9c1.2-0.9,3-4,3.9-6.8c1-3,2.5-5.5,3.3-5.8c1-0.3,1,0-0.3,1.8
				c-0.9,1.1-1.4,2.5-1.6,3.9c0,0.7-0.7,2.7-1.5,4.3c-0.9,1.5-1.5,3-1.3,3.1c0.1,0.1,2.5-0.7,5.2-1.9l4.8-2.4v2.1
				c0,1.2,0.6,4.2,1.3,6.7l1.3,4.5l3.3-1.5c3.3-1.5,6.4-6.8,6.4-11.1c0-2.1,1.2-1.8,1.8,0.4c0,0.6,0.9,3.1,1.5,5.5l1.5,4.2l2.2-2.7
				c1.3-1.5,2.8-4.5,3.4-6.4c1.2-3.6,3-5.2,3-2.5c0,1.8,5,8.6,5.9,8c0.6-0.3,1.5-2.8,2.2-5.6c1.5-5.9,3.7-9.8,5.2-8.9
				c0.6,0.3,0.7,0.9,0.4,1.5c-0.3,0.3,0.9,4.2,2.7,8.3c1.3,3.1,2.6,6.2,3.9,9.4c0.6,1.5,1.2,1.5,4.9-1.9c2.2-2.1,4.5-4.3,4.6-5
				c0.4-1.2,0.9-1,3,0.3c4.4,2.3,9.2,3.7,14.1,4.2c0.3-0.3,0.6-3,0.6-5.9l0.1-5.5l3,0.6c1.5,0.4,4.9,0.4,7.4,0l4.5-0.6l-4-3
				c-2.2-1.5-4.5-3.4-5-4.3c-0.4-0.9-2.5-1.8-4.8-1.9c-6.1-0.6-16.9-6.5-16.9-9.5c0-0.6,1.5,0.4,3.3,2.1c4.2,3.7,9.8,5.9,14.9,5.9
				h3.6l-2.2-3c-1.6-2.3-2.6-4.9-3-7.7c-0.3-4.5-0.7-5-5.3-8.2c-2.7-1.9-5.2-4-7.4-6.4l-2.5-2.8l-1.3,3.4c-0.7,1.9-1.5,3.4-1.9,3.4
				c-0.3,0-1.8-1.2-3-2.5c-0.8-1-1.8-1.8-3-2.4c-0.4,0-1.5,1.8-2.7,4l-2.1,4l-1.5-2.2c-1.3-1.8-2.8-3.5-4.5-5
				c-1.8-1.5-2.5-2.7-1.9-2.7c0.6,0,2.5,1.5,4.5,3.4l3.3,3.4l1.5-2.5c0.9-1.7,1.1-3.7,0.7-5.6c-0.6-2.7-0.4-2.8,0.4-1
				c1.3,1.7,2.8,3.2,4.5,4.5l3.3,2.7l2.2-4c2.2-4.2,2.2-4.2,3.1-1.6c1.5,3.1,11.1,11.1,19.3,15.7c1.5,0.7,0.9-1.6-1.5-7.4
				c-0.7-1.9-1.1-3.9-1.2-5.9c0-2.7-0.7-3.9-4.2-6.5c-4.3-2.8-7.1-7.4-7.4-12.5c-0.4-2.5-1.3-5.2-2.1-6.1c-0.9-1.5-1.2-0.6-0.9,3.9
				c0.3,3.1-0.1,7-0.9,8.6l-1.2,3l-0.9-2.5c-0.6-1.3-3-3.7-5.2-5.2c-2.2-1.5-3.9-3-3.6-3.3c0.3-0.3,2.7,1,5.2,3
				c4,3.1,4.8,3.4,5.3,2.1c0.6-1.5,0-8.3-1.2-13.1c-0.6-2.4-0.6-2.4,2.4,0.6c2.1,2.1,3.3,4.8,4.3,9.2c1.2,5.6,1.8,6.7,7,11.3
				c3.1,2.8,5.9,4.9,6.1,4.8c0.3-0.3,0.6-7.4,0.9-16c0.6-16.5,0-20.5-4-25.5l-2.1-2.7l3.3-3.4c3.7-3.5,6.1-8.1,7-13.1l0.6-4
				l-3.6,3.4c-3,2.8-4.5,3.4-7.9,3.4s-4.8-0.6-7-3c-3.5-3.3-7.7-5.8-12.3-7.1c-1.8-0.6-2.4-0.3-2.4,0.9c0,0.9-0.9,3.3-2.1,5.5
				l-2.1,3.9l-4.5-4.5c-2.8-2.5-5.9-4.8-8.5-5.3c-6.1-1.5-6.4-1.5-6.4,3.1c0,7-3,8.3-8.3,3.7c-4.2-3.6-7.4-4.5-15.3-3.4l-5.9,0.6
				l1,2.7c0.9,2.2,0.7,3.3-1.2,5.8c-3.1,4.2-7.1,5.9-13.4,5.9c-3,0-6.5,0.6-8,1.3c-1.5,0.7-5.3,1.5-8.5,1.8c-3,0.3-6.4,0.9-7.4,1.2
				c-1.5,0.6-1.5,0-1-3.3c0.7-5-3-8.9-8.5-8.9c-7.3,0-10.5,6.5-7.7,15.1c0.6,1.9,1.1,3.7,1.5,5.6c2,3.7,4.6,7,7.7,9.8
				c3.9,3.9,7.4,7.9,8,8.9c1.2,1.5,2.7,2.8,4.5,3.7l3.3,1.8l-0.4-3.6c-0.4-3.9,0.3-4.5,2.4-1.6c0.7,0.9,2.7,2.5,4.2,3.4
				c2.5,1.5,3,1.5,3,0.3c0-0.9,0.4-2.8,1-4.3l1-2.7l1.9,3.7c1,2.1,4.5,6.7,7.6,10.4c6.1,7,10,14.9,8,16.6c-0.9,0.7-3,0.7-7.4-0.1
				c-3.3-0.6-7.4-1-9.2-0.7c-3.4,0.4-3.7,0-1.5-2.7c2.2-3,1.8-3.4-2.7-3.4c-5.2,0-18.1-2.5-23.2-4.5c-4.8-1.9-5.9-1.5-7.4,3.1
				l-2.5,8.3l-1.5,4.5l5.3-0.4c2.8-0.3,5.5-0.8,8.2-1.5c1.1-0.4,2.2-0.5,3.3-0.4c0.3,0.1-0.4,1.9-1.5,4l-2.1,3.6l3.3-0.6
				c1.8-0.4,4.5-1.3,5.9-2.1c2.7-1.2,3-1.2,5,2.2c2.5,4,4.5,3.9,4.9-0.4c0.4-4.5,1.9-3.9,4.8,2.1c2.7,5.6,5.3,7.7,5.9,4.5
				c0.1-1.2,1.5-3,3.1-4.2c3.3-2.2,5.6-1.5,7,1.9c1.5,3.7-1.8,7.4-11,13.1c-17.3,9.5-29.2,26.5-32.2,46
				c-2.8,17.5,5.9,35.6,23.2,48.9c8.3,6.2,21.5,12.8,20.6,10.4c-3.6-10.8-3.4-31.2,0.1-34.6c0.6-0.6,0.4,1.5-0.4,4.6
				c-3,11.7-1.5,20.9,5.9,42.6c6.5,19.6,5.6,28.1-3.9,33.6c-3,1.8-4.9,2.1-13.1,1.9c-8.9,0-10,0-12.8,2.4c-3.4,3.5-5.6,8-6.4,12.8
				c0,1.9,2.1,1.6,5.9-0.6L442.1,464.2z"/>
			<path class="st5" d="M586.2,463.7l3.7-2.4l2.5,2.4c3.3,3.1,7.3,3,10.4-0.1c1.5-1.5,2.7-2.4,2.8-2.2l1.3,2.4
				c0.7,1.3,2.4,1.9,5.3,2.2c3.4,0.1,4.5,0,5.9-2.1l1.5-2.5l3.7,2.4c10.1,6.5,15.4-0.3,10.8-13.8c-2.2-6.8-0.9-10.7,6.4-19.3
				c3.1-3.7,5.6-7.7,5.6-8.9c0-1.6-0.6-1.9-4.8-1.8c-3.9,0-5-0.4-7.1-2.7c-3.4-3.7-3.1-8,0.6-12.8l3-3.7l-5.3-3.6
				c-4.3-3.2-8.2-6.7-11.9-10.5c-6.5-7.7-15.9-12.5-26-13.4l-7-0.7v5.3c0,6.7,3.3,13.2,11.9,24.2c9.8,12.5,10.4,14.4,10.8,30.7
				l0.4,13.8l-3,2.7c-2.5,2.4-3.6,2.8-11.9,3.3c-7.9,0.4-9.7,0.9-11.9,3c-2.6,1.9-4.4,4.7-5,7.9c-0.4,2.2-0.3,2.7,1.3,2.7
				C581.6,466.1,584.1,465.1,586.2,463.7L586.2,463.7z M375,428.1c0.9-1.3,1.4-2.9,1.5-4.5c0-1.5,0.9-2.1,4.8-2.7l4.6-0.6l-3-2.5
				c-3.7-3-4.2-5.2-0.9-5.2s8.6-3.3,9.5-5.8c0.4-1.2,0-2.7-0.6-3.4c-1.8-2.1-5.2-1.8-5.8,0.6c-0.7,2.4-1.8,2.4-4.5,0
				c-3.7-3.7-3.9-11.3,0-15.7c1.6-2.1,1.6-2.1-0.6-4.3c-2.4-2.4-4.2-6.8-3-8c0.3-0.3,2.2,0,4.2,0.7c3,0.9,4,0.9,5.2,0
				c3.4-2.8-0.3-6.4-5.9-5.5c-2.4,0.3-3.3,0-3.6-1.2c-0.3-0.9-2.2-2.1-4.5-2.7c-4-1-4-1-4,1.8c0,3-1.8,3.6-5,1.6
				c-2.7-1.5-5.2-0.3-5.2,2.5c0,2.7,2.5,3.9,7.4,3.6c3.6-0.1,3.7,2.5,0.3,6.4l-2.5,3l1.9,2.8c3,4.2,2.7,11.1-0.4,14.7l-2.5,2.7
				l-1.6-2.2c-2.4-3-5.5-2.8-6.4,0.4c-0.4,2.1,0,3,2.7,5.3c1.8,1.5,4.5,2.7,5.8,2.7c3.4,0,3.3,2.8-0.3,5.5l-3,2.2l4.5,0.6
				c2.4,0.4,4.5,1,4.5,1.5c0,1.9,3,7.7,3.9,7.7c0.6,0,1.8-1,2.7-2.2L375,428.1z"/>
			<path class="st5" d="M431.7,403.4c4-1.5,12.6-8.9,12.6-10.5c0-0.6-2.4-3.3-5.3-5.9c-5.9-5.3-12.6-14.7-14.4-20
				c-0.9-3-5.2-7.7-17.4-19.6L391,331.7l-4.6,1.2c-2.7,0.6-5.8,1.2-7,1.2c-2.2,0-2.2,0,0.7,2.4l3,2.4l4.5-2.4c4-2.4,4.2-2.4,4.6-0.4
				c0.3,1-0.3,3-1.5,4.3c-1,1.3-1.6,3-1.5,3.4c0.4,0.4-0.6,1.5-2.2,2.4c-3,1.5-5.2,6.4-2.8,6.4c2.2,0,7-5.9,6.4-7.9
				c-0.3-1,0-2.1,0.3-2.4c1.9-1,1.8,3.6,0,5.9c-1.2,1.2-1.8,2.7-1.5,3.3c0.3,0.4-0.7,1.5-2.4,2.4c-3,1.5-5.2,6.4-2.8,6.4
				s7-5.6,6.5-7.7c-0.3-1-0.3-2.2,0.1-2.5c1.3-0.6,1.9,3,0.9,4.8c-0.6,1-0.6,2.2,0,3.3c1,1.9,0,5.5-1.9,6.7c-0.7,0.4-0.3,1.5,1.8,3
				c3,2.1,3,2.4,3,11.9c0,8,0.3,10.1,1.8,11.4c1.5,1.5,1.8,1.5,1.8,0s3-3.6,5.2-3.6c0.7,0,5,3.7,9.7,8.2c4.6,4.5,9.5,8.5,10.8,8.6
				l3.3,0.6c0.4,0,2.5-0.4,4.6-1.5L431.7,403.4z M382.3,364.7c0-2.5-5.3-5.3-11.7-5.9c-5.2-0.7-5.2-0.6-5.2,1.9c0,2.1,0.7,3,4.5,4.5
				C375.4,367.7,382.3,367.4,382.3,364.7z"/>
			<path class="st5" d="M388.1,364.4c2.7-2.4,3.9-5,2.2-5c-1.8,0-6.5,4.2-6.5,5.9c0,2.4,0.9,2.2,4.5-0.9H388.1z M382.6,356.8
				c0.1-1.5-0.7-2.4-3.4-3.7c-5.9-2.5-12.8-3.9-14.4-2.5c-3.1,2.5-1,5.8,3.9,6.4c2.1,0.1,4.8,0.7,6.1,1.3
				C378.6,359.8,382.1,359,382.6,356.8L382.6,356.8z M382.6,348.9c0.3-1.9-1-2.7-11.9-6.5c-8.2-3-11.7-1.5-9.1,3.4
				c0.9,1.6,2.4,2.4,5.8,3c2.5,0.3,5.9,1,7.6,1.6c4.5,1.5,7.1,0.9,7.4-1.5H382.6z M387.9,341.7c1.6-1.6,3-3.6,3-4.5
				c0-2.2-6.4,1.9-7.3,4.9c-0.9,3.4,0.7,3.3,4.5-0.4H387.9z M382.6,341.2c0.3-2.4-3.6-4.5-11.3-6.1c-5.8-1.3-8.3-0.6-7.9,2.1
				c0.3,1.5,2.2,2.5,7.4,4.2C379.6,344,382.1,344,382.6,341.2L382.6,341.2z M390,330.2c10.1-4.5,10.8-15.6,1.5-18.6
				c-3.9-1.2-6.2-0.4-7.7,2.1c-1.2,2.1-0.4,5.6,1,5.6c0.6,0,1,0.7,1,1.5c0,4-15.1,5.6-21.4,2.5c-2.2-1-3-4-1.3-4
				c1.5,0,2.4-3,1.6-4.9c-0.9-3-3.9-3.9-7.9-2.7c-9.4,2.4-9.1,13.4,0.4,17.8C367.8,333.5,379.3,333.7,390,330.2L390,330.2z"/>
			<path class="st5" d="M383.9,321.6c0.6-0.6,0.3-1.5-0.6-2.1c-2.1-1.6-1.9-4.2,0.3-7c1.8-2.1,1.9-5.3,2.5-37.3
				c1-55.1,5.2-96.5,10.5-106.6c2.2-3.9,1.9-3.9-3.7,0c-7.4,5.2-13.4,12.1-17.4,20.2c-9.2,17.1-12.3,40.1-12.3,89.4
				c0,27.9,0.1,31.6,1.8,34.2c1.5,2.7,1.5,3.6,0.6,6.2c-0.7,1.6-1,3.4-0.7,3.7C367,324.3,381.8,323.8,383.9,321.6L383.9,321.6z
				 M467.2,269c0.4-0.4-0.3-3-1.5-5.3c-1.8-3.9-2.5-4.5-5-4.5c-11.9-1-23.5-4.3-34.2-9.5c-7.6-3.4-10.4-4.2-11.1-3.3
				c-2.4,2.2,1.5,7.4,7.4,10.2c8.7,3.2,17.9,5,27.2,5.5c4,0,4.2,0,1.8,3.4l-1.5,2.4h4.5l7.4,0.9C466.6,269.9,466.6,269.9,467.2,269z
				"/>
			<path class="st6" d="M514.1,293.8c0-1.5-4.3-5.2-8.5-7.7c-3.4-1.9-4-2.1-4-0.4c0,2.4-2.1,8.5-3,8.5c-0.4,0-1.2-1.2-1.5-2.5
				c-0.4-1.5-2.1-4.5-3.7-6.4l-3-3.7l-2.1,3.4c-2.1,3.3-5.8,6.4-7.4,6.4c-0.3,0-0.4-1.8,0-3.7c0.1-2.4,0-4.2-0.7-4.5
				c-0.6-0.4-1.2-0.3-1.2,0.3c0,1.2-5,6.8-5.9,6.8c-0.6,0-1.2-1.5-1.5-3.6l-1.2-7.1c-0.3-1.8,0.4-0.6,1.5,3l2.4,6.1l2.4-3.7
				c1.1-1.5,1.9-3.2,2.4-5c0-0.7,0.4-1,1-0.7c0.6,0.3,1.3,2.8,1.6,5.5l0.7,5l2.7-3c1.4-1.5,2.7-3.1,3.9-4.8c1-1.8,1.2-1.8,3.4,0
				c1.2,1.2,3.1,3.7,4.3,5.8c1.2,2.1,2.2,3.6,2.4,3.4l0.9-4.8l0.6-4.5c0.1-0.7,8,4.5,11,7c1.8,1.6,3.6,2.8,3.9,2.5
				c0.3-0.3,0.6-2.7,0.6-5.5c0-4.2-0.4-5.3-3-7.6c-3-2.7-3-2.7-4.2-0.7c-1.5,2.5-3.1,2.5-3.1,0c0-1.8-5.6-8.8-7-8.8
				c-0.4,0-1.6,1.5-2.7,3.4s-2.2,3.4-2.5,3.4c-1.5,0-9.4-8.9-9.4-10.4c0-1.2,0.6-0.9,1.9,1.2c1.3,2,2.9,3.7,4.6,5.3
				c3,2.7,4.2,2.1,5.3-3.1c0.4-1.5,1-2.7,1.5-2.7c1.2,0,8,7.3,8.9,9.7l1,2.4l0.7-2.7c0.9-3.3,1.9-3.3,3.4-0.3
				c0.6,1.2,3.6,3.9,6.5,5.6l5.5,3.6l1-3.6c0.6-1.9,1.5-3,1.8-2.4c0.6,0.7-0.9,6.7-1.9,7.9c0,0.1-1.9-0.9-3.9-2.2l-3.7-2.7v4.8
				c0,2.5-0.3,5.6-0.6,6.8c-0.7,2.4-2.5,3-2.5,0.9H514.1z M486.7,256.1c-6.5-5.3-7.4-6.5-7.4-9.2l0.1-2.7l0.4,2.5
				c0.3,1.5,2.1,3.9,4.2,5.6l3.9,3l2.2-2.7c1.3-1.5,2.4-3.3,2.4-3.9c0-1.8,0.3-1.6,4.8,2.2c3.9,3.4,4,3.4,4.5,1.2
				c0.4-1.2,0.3-3.6,0-5.2c-1.5-4.5-1.2-5,0.7-2.4l3.6,4.2c1.5,1.6,1.6,1.6,2.2-0.4c0.4-1.3,0.7-3.6,0.7-5v-2.8l3.4,4
				c3.4,3.9,3.7,4,4.6,2.1c0.7-1,1.2-3.6,1.2-5.5c0-2.7,0.3-3.3,0.9-2.4c1.2,1.8,0.4,6.2-1.6,10.1l-1.5,3l-1.9-3.1
				c-2.5-3.9-3.4-3.9-4.9,0.3c-1.5,4-2.5,4.3-4,1.2c-0.9-1.9-1.2-1.6-1.8,2.5l-0.7,4.5l-4.5-3.4l-4.5-3.4l-2.2,2.2
				c-1,1.3-1.9,3-1.9,3.6C489.5,257.6,488.3,257.6,486.7,256.1z M544.6,235.9c-2.2-2.1-3.9-4.2-3.6-4.5c0.4-0.4,0.7-0.6,0.9-0.3
				c1.4,1.5,2.9,3,4.5,4.5c5,5.3,4,5.5-1.6,0.3H544.6z M467.4,227.9c-2.1-3-1.9-4.8,0.7-8c1.8-2.2,2.7-2.5,5.9-2.1
				c2.2,0.1,6.8,2.1,10.2,4.2c4.9,2.9,10.6,4.5,16.3,4.5l-2.5-4.2c-3.3-4.9-3.3-5.5,0.6-2.5c3.9,3.1,8.5,4,18.9,3.7l5-0.1l-3-3
				c-4-4-2.8-4.5,1.8-0.4c4.2,3.7,4,4-5,4.9c-3.8,0.4-7.6,0.1-11.3-0.7c-5-1.5-5.3-1.3-4.3,0.3c0.6,1,1.5,1.8,1.9,1.8
				c0.6,0,1,0.6,1,1.2c0,1.9-11,0.1-16.3-2.4c-11.9-6.1-13.4-6.7-16.3-5.8c-1.6,0.6-2.9,1.8-3.6,3.4c-1.9,4.9,5,8.8,7.9,4.5
				c0.9-1.3,0.7-2.1-0.7-3.7c-2.1-2.1-1.8-2.4,0.9-1.5c1.9,0.7,2.1,5.3,0.3,7.1C473.9,230.9,469.1,230.4,467.4,227.9z"/>
			<path class="st6" d="M514.7,215.9c-1.5-1.5-0.3-1.8,6.4-1.9c8.3-0.1,13.4-1.5,19.3-5.3c4.8-3,6.1-2.4,1.5,0.7
				c-4,3-10.4,5-16.8,5.6l-7.6,1c-1.2,0.3-2.5,0.1-3-0.1L514.7,215.9z"/>
		</g>
	</g>
	<g id="b_1_">
		<path class="st0" d="M442.1,464.2l3.4-2.1l1.5,2.1c1.9,2.7,7.4,2.5,11,0l2.8-2.2l2.4,2.1c3,2.8,8.6,2.8,12.3,0
			c2.5-1.8,3-1.9,4.5-0.4c1,0.9,4,1.8,6.5,2.2c4.8,0.6,4.8,0.6,7.4-3.6c2.4-3.4,2.7-4.8,2.2-8.2c-0.4-2.6-0.7-5.2-0.9-7.9
			c-0.3-3.9-0.1-3.9,5.3-5.9c2.7-0.8,5.4-1.8,8-3c2.2-1.3,8.5-8.6,8.5-10.1c0-0.3-2.4-0.9-5.3-1.2c-11.9-1.5-13.8-7.7-6.1-19.3
			c12.3-19.3,19.9-37.9,19.9-49.6c0-5.3,0.4-7.1,1-5.9c2.8,4.6-2.2,24.4-9.7,38.6l-3,5.6l2.8-0.6c1.5-0.4,11-4.5,20.8-8.9
			c27-12.2,36.2-14.6,53.8-13.8c14.7,0.6,20.8,3.4,31.2,14.3c5.5,5.9,10.8,10,20.5,16c20.5,12.8,21.4,14,22.4,29.1
			c1,15.3,0.4,16.2-11.1,18.7c-10,2.2-16.2,6.8-17.8,13.4c-0.9,3.3,1,3.4,5.9,0.1l3.7-2.4l1.6,2.4c2.2,3.1,6.7,3.1,10.4,0l3-2.2
			l3,2.2c4.5,3.7,10.4,2.8,12.2-1.8c0.3-0.7,1.2-0.6,3,1c3.4,3,11.9,4.2,12.8,1.8c0.3-0.9-0.3-3-1.5-4.8c-4.9-7.4-6.5-10.8-6.5-14.9
			c0-5.6,1.5-8.5,8-12.9c7.7-5.6,10.1-12.8,4.2-12.8c-3.6,0-7.3-3.3-9.7-8.5c-4.8-10.7-3.7-22.6,3.4-42.5c5.5-11.7,8.2-24.5,8-37.4
			c0-11-0.3-12.8-2.7-18.9c-1.9-4.2-4.1-8.3-6.8-12l-4.2-5.5l5.2-4.5c16-13.2,12.8-34.9-6.5-43.2c-5.9-2.7-7.4-2.8-17.8-2.8
			c-5.9,0-15.6,0.9-20.8,1.9c-7,1.1-14,1.7-21.1,1.8c-10.1,0-11.9-0.3-15.7-2.4c-4-2.1-4.8-3.1-5.5-8.2c-0.1-1-0.8-1.8-1.6-2.2
			c-1.5-0.4-7.7,5-8.6,7.4c-0.6,1.3-0.9,1.2-2.2-0.4c-1.3-1.6-2.3-3.4-3-5.3c-1.5-4.9,0.4-8.5,6.2-11.3l4.5-2.1l-2.7-1.6
			c-5.3-3.4-14.6-1-17.8,4.5c-1,1.5-2.1,3-2.4,3c-0.3,0-2.1-1.5-3.9-3.4c-7-6.8-4.6-16.9,4.8-19.9c4.9-1.6,9.4-0.4,10.2,3
			c1.5,4.9,5.6-1.6,4.9-7.7c-0.4-4-0.4-4.2,2.4-4.2c3.9,0,11.9,5,14.6,8.9c3,4.6,2.7,11.9-0.6,17.2l-2.5,4.2l3.4-0.6
			c4.8-1,9.5-4,11.9-7.7c2.5-4.8,2.8-10.5,0.6-15.4c-2.2-4-1.9-4.6,1.3-3.3c5.3,2.2,8.3,4.8,10.4,9.1c2.1,3.9,2.2,4.8,1.2,8.9
			c-0.7,2.5-1.8,4.9-3.3,7.1c-1.8,2.4-1.9,2.8-0.4,2.8c2.7,0,8-2.5,10-4.5c1-1.2,2.5-3.7,3.3-5.9l1.5-3.7l1.5,3
			c2.2,4,6.7,7.7,12,10.1c5.8,2.4,8.2,2.5,5.2,0.3c-2.1-1.5-5.9-12.6-4.6-13.7c6.4,3.6,12.3,8.1,17.4,13.4
			c8.5,7.6,13.8,10.1,21.5,10.1c10,0,15.7-8.6,11.3-16.8c-2.5-4.8-8.3-5.5-11.9-1.5c-1.5,1.9-1.9,3.4-1.5,5.5
			c0.6,2.4,0.4,2.7-1.8,2.7c-3,0-8.6-3.7-18.7-12.2c-14.1-12.1-30.2-21.5-47.7-27.8c-11.8-2.7-24-3.4-36.1-1.9
			c-9.5,1.8-20.8,7.3-27,13.1c-10.8,10.4-11,24.2-0.4,36.8l3,3.6l-1.9,3.3c-3,4.8-2.7,10.9,0.6,15.4c1.5,2.1,3,3.7,3.4,3.7
			c0.3,0,0.6-1.3,0.7-3c0.3-4,2.1-6.7,5-7.7c2.7-1,4.5-0.4,16.6,4.5c12.9,5,34.2,5.3,56.7,0.9c9.8-2.3,20-2.2,29.7,0.3
			c10.7,4.5,13.1,15.9,5.3,24.5c-3.4,3.9-6.5,5.3-17.4,8.3c-9.4,2.5-19.3,3.2-29,2.2c-16-0.1-21.8,0.1-28.2,1.5
			c-7.3,1.5-11.6,1.6-32.4,1.2l-24.2-0.6l2.7,2.1c1.4,1.3,3,2.4,4.6,3.4c1.9,1,1.8,1.2-0.9,2.2c-1.5,0.6-5,1-7.9,1H545l-0.6,4.2
			c-0.4,2-0.4,4,0,5.9c0.6,1.5,0.3,1.8-1.2,1.2c-1-0.4-3.9-1.2-6.4-1.6c-2.5-0.5-5-1.3-7.4-2.4c-2.8-1.5-3.1-1.5-4.2,0.4
			c-0.9,1.5-9.2,7.7-10.4,7.7c-0.5-3.9-1.6-7.6-3.3-11.1c-1.5-3.1-2.8-6.7-3.3-7.7c-0.4-1.6-0.7-1.8-1.5-0.4c-0.4,0.7-1,3-1.5,4.8
			c-0.5,2.4-1.4,4.7-2.7,6.8l-2.2,3.3l-1.5-2.8c-1.5-3-3.9-6.2-4.8-6.2c-0.3,0-0.7,0.9-1,2.2c-0.7,2.4-6.5,9.4-8,9.4
			c-0.4,0-0.9-1.9-0.9-4.5c0-2.2-0.4-4.3-1-4.3c-0.6,0-1,0.7-1,1.5c0,1.8-4.9,7.4-6.7,7.4c-0.6,0-1.8,0.6-2.5,1.5
			c-1.8,1.9-3.3,1.6-2.5-0.6c0.2-1.9,0-3.8-0.6-5.6l-1.5-4.8c-0.3-0.7-2.1-0.4-5.9,0.7c-5.9,1.9-8,1.5-4.9-0.9c1.2-0.9,3-4,3.9-6.8
			c1-3,2.5-5.5,3.3-5.8c1-0.3,1,0-0.3,1.8c-0.9,1.1-1.4,2.5-1.6,3.9c0,0.7-0.7,2.7-1.5,4.3c-0.9,1.5-1.5,3-1.3,3.1
			c0.1,0.1,2.5-0.7,5.2-1.9l4.8-2.4v2.1c0,1.2,0.6,4.2,1.3,6.7l1.3,4.5l3.3-1.5c3.3-1.5,6.4-6.8,6.4-11.1c0-2.1,1.2-1.8,1.8,0.4
			c0,0.6,0.9,3.1,1.5,5.5l1.5,4.2l2.2-2.7c1.3-1.5,2.8-4.5,3.4-6.4c1.2-3.6,3-5.2,3-2.5c0,1.8,5,8.6,5.9,8c0.6-0.3,1.5-2.8,2.2-5.6
			c1.5-5.9,3.7-9.8,5.2-8.9c0.6,0.3,0.7,0.9,0.4,1.5c-0.3,0.3,0.9,4.2,2.7,8.3c1.3,3.1,2.6,6.2,3.9,9.4c0.6,1.5,1.2,1.5,4.9-1.9
			c2.2-2.1,4.5-4.3,4.6-5c0.4-1.2,0.9-1,3,0.3c4.4,2.3,9.2,3.7,14.1,4.2c0.3-0.3,0.6-3,0.6-5.9l0.1-5.5l3,0.6c1.5,0.4,4.9,0.4,7.4,0
			l4.5-0.6l-4-3c-2.2-1.5-4.5-3.4-5-4.3c-0.4-0.9-2.5-1.8-4.8-1.9c-6.1-0.6-16.9-6.5-16.9-9.5c0-0.6,1.5,0.4,3.3,2.1
			c4.2,3.7,9.8,5.9,14.9,5.9h3.6l-2.2-3c-1.6-2.3-2.6-4.9-3-7.7c-0.3-4.5-0.7-5-5.3-8.2c-2.7-1.9-5.2-4-7.4-6.4l-2.5-2.8l-1.3,3.4
			c-0.7,1.9-1.5,3.4-1.9,3.4c-0.3,0-1.8-1.2-3-2.5c-0.8-1-1.8-1.8-3-2.4c-0.4,0-1.5,1.8-2.7,4l-2.1,4l-1.5-2.2
			c-1.3-1.8-2.8-3.5-4.5-5c-1.8-1.5-2.5-2.7-1.9-2.7c0.6,0,2.5,1.5,4.5,3.4l3.3,3.4l1.5-2.5c0.9-1.7,1.1-3.7,0.7-5.6
			c-0.6-2.7-0.4-2.8,0.4-1c1.3,1.7,2.8,3.2,4.5,4.5l3.3,2.7l2.2-4c2.2-4.2,2.2-4.2,3.1-1.6c1.5,3.1,11.1,11.1,19.3,15.7
			c1.5,0.7,0.9-1.6-1.5-7.4c-0.7-1.9-1.1-3.9-1.2-5.9c0-2.7-0.7-3.9-4.2-6.5c-4.3-2.8-7.1-7.4-7.4-12.5c-0.4-2.5-1.3-5.2-2.1-6.1
			c-0.9-1.5-1.2-0.6-0.9,3.9c0.3,3.1-0.1,7-0.9,8.6l-1.2,3l-0.9-2.5c-0.6-1.3-3-3.7-5.2-5.2c-2.2-1.5-3.9-3-3.6-3.3
			c0.3-0.3,2.7,1,5.2,3c4,3.1,4.8,3.4,5.3,2.1c0.6-1.5,0-8.3-1.2-13.1c-0.6-2.4-0.6-2.4,2.4,0.6c2.1,2.1,3.3,4.8,4.3,9.2
			c1.2,5.6,1.8,6.7,7,11.3c3.1,2.8,5.9,4.9,6.1,4.8c0.3-0.3,0.6-7.4,0.9-16c0.6-16.5,0-20.5-4-25.5l-2.1-2.7l3.3-3.4
			c3.7-3.5,6.1-8.1,7-13.1l0.6-4l-3.6,3.4c-3,2.8-4.5,3.4-7.9,3.4s-4.8-0.6-7-3c-3.5-3.3-7.7-5.8-12.3-7.1c-1.8-0.6-2.4-0.3-2.4,0.9
			c0,0.9-0.9,3.3-2.1,5.5l-2.1,3.9l-4.5-4.5c-2.8-2.5-5.9-4.8-8.5-5.3c-6.1-1.5-6.4-1.5-6.4,3.1c0,7-3,8.3-8.3,3.7
			c-4.2-3.6-7.4-4.5-15.3-3.4l-5.9,0.6l1,2.7c0.9,2.2,0.7,3.3-1.2,5.8c-3.1,4.2-7.1,5.9-13.4,5.9c-3,0-6.5,0.6-8,1.3
			c-1.5,0.7-5.3,1.5-8.5,1.8c-3,0.3-6.4,0.9-7.4,1.2c-1.5,0.6-1.5,0-1-3.3c0.7-5-3-8.9-8.5-8.9c-7.3,0-10.5,6.5-7.7,15.1
			c0.6,1.9,1.1,3.7,1.5,5.6c2,3.7,4.6,7,7.7,9.8c3.9,3.9,7.4,7.9,8,8.9c1.2,1.5,2.7,2.8,4.5,3.7l3.3,1.8l-0.4-3.6
			c-0.4-3.9,0.3-4.5,2.4-1.6c0.7,0.9,2.7,2.5,4.2,3.4c2.5,1.5,3,1.5,3,0.3c0-0.9,0.4-2.8,1-4.3l1-2.7l1.9,3.7
			c1,2.1,4.5,6.7,7.6,10.4c6.1,7,10,14.9,8,16.6c-0.9,0.7-3,0.7-7.4-0.1c-3.3-0.6-7.4-1-9.2-0.7c-3.4,0.4-3.7,0-1.5-2.7
			c2.2-3,1.8-3.4-2.7-3.4c-5.2,0-18.1-2.5-23.2-4.5c-4.8-1.9-5.9-1.5-7.4,3.1l-2.5,8.3l-1.5,4.5l5.3-0.4c2.8-0.3,5.5-0.8,8.2-1.5
			c1.1-0.4,2.2-0.5,3.3-0.4c0.3,0.1-0.4,1.9-1.5,4l-2.1,3.6l3.3-0.6c1.8-0.4,4.5-1.3,5.9-2.1c2.7-1.2,3-1.2,5,2.2
			c2.5,4,4.5,3.9,4.9-0.4c0.4-4.5,1.9-3.9,4.8,2.1c2.7,5.6,5.3,7.7,5.9,4.5c0.1-1.2,1.5-3,3.1-4.2c3.3-2.2,5.6-1.5,7,1.9
			c1.5,3.7-1.8,7.4-11,13.1c-17.3,9.5-29.2,26.5-32.2,46c-2.8,17.5,5.9,35.6,23.2,48.9c8.3,6.2,21.5,12.8,20.6,10.4
			c-3.6-10.8-3.4-31.2,0.1-34.6c0.6-0.6,0.4,1.5-0.4,4.6c-3,11.7-1.5,20.9,5.9,42.6c6.5,19.6,5.6,28.1-3.9,33.6
			c-3,1.8-4.9,2.1-13.1,1.9c-8.9,0-10,0-12.8,2.4c-3.4,3.5-5.6,8-6.4,12.8c0,1.9,2.1,1.6,5.9-0.6L442.1,464.2z"/>
		<path class="st0" d="M586.2,463.7l3.7-2.4l2.5,2.4c3.3,3.1,7.3,3,10.4-0.1c1.5-1.5,2.7-2.4,2.8-2.2l1.3,2.4
			c0.7,1.3,2.4,1.9,5.3,2.2c3.4,0.1,4.5,0,5.9-2.1l1.5-2.5l3.7,2.4c10.1,6.5,15.4-0.3,10.8-13.8c-2.2-6.8-0.9-10.7,6.4-19.3
			c3.1-3.7,5.6-7.7,5.6-8.9c0-1.6-0.6-1.9-4.8-1.8c-3.9,0-5-0.4-7.1-2.7c-3.4-3.7-3.1-8,0.6-12.8l3-3.7l-5.3-3.6
			c-4.3-3.2-8.2-6.7-11.9-10.5c-6.5-7.7-15.9-12.5-26-13.4l-7-0.7v5.3c0,6.7,3.3,13.2,11.9,24.2c9.8,12.5,10.4,14.4,10.8,30.7
			l0.4,13.8l-3,2.7c-2.5,2.4-3.6,2.8-11.9,3.3c-7.9,0.4-9.7,0.9-11.9,3c-2.6,1.9-4.4,4.7-5,7.9c-0.4,2.2-0.3,2.7,1.3,2.7
			C581.6,466.1,584.1,465.1,586.2,463.7L586.2,463.7z M375,428.1c0.9-1.3,1.4-2.9,1.5-4.5c0-1.5,0.9-2.1,4.8-2.7l4.6-0.6l-3-2.5
			c-3.7-3-4.2-5.2-0.9-5.2s8.6-3.3,9.5-5.8c0.4-1.2,0-2.7-0.6-3.4c-1.8-2.1-5.2-1.8-5.8,0.6c-0.7,2.4-1.8,2.4-4.5,0
			c-3.7-3.7-3.9-11.3,0-15.7c1.6-2.1,1.6-2.1-0.6-4.3c-2.4-2.4-4.2-6.8-3-8c0.3-0.3,2.2,0,4.2,0.7c3,0.9,4,0.9,5.2,0
			c3.4-2.8-0.3-6.4-5.9-5.5c-2.4,0.3-3.3,0-3.6-1.2c-0.3-0.9-2.2-2.1-4.5-2.7c-4-1-4-1-4,1.8c0,3-1.8,3.6-5,1.6
			c-2.7-1.5-5.2-0.3-5.2,2.5c0,2.7,2.5,3.9,7.4,3.6c3.6-0.1,3.7,2.5,0.3,6.4l-2.5,3l1.9,2.8c3,4.2,2.7,11.1-0.4,14.7l-2.5,2.7
			l-1.6-2.2c-2.4-3-5.5-2.8-6.4,0.4c-0.4,2.1,0,3,2.7,5.3c1.8,1.5,4.5,2.7,5.8,2.7c3.4,0,3.3,2.8-0.3,5.5l-3,2.2l4.5,0.6
			c2.4,0.4,4.5,1,4.5,1.5c0,1.9,3,7.7,3.9,7.7c0.6,0,1.8-1,2.7-2.2L375,428.1z"/>
		<path class="st0" d="M431.7,403.4c4-1.5,12.6-8.9,12.6-10.5c0-0.6-2.4-3.3-5.3-5.9c-5.9-5.3-12.6-14.7-14.4-20
			c-0.9-3-5.2-7.7-17.4-19.6L391,331.7l-4.6,1.2c-2.7,0.6-5.8,1.2-7,1.2c-2.2,0-2.2,0,0.7,2.4l3,2.4l4.5-2.4c4-2.4,4.2-2.4,4.6-0.4
			c0.3,1-0.3,3-1.5,4.3c-1,1.3-1.6,3-1.5,3.4c0.4,0.4-0.6,1.5-2.2,2.4c-3,1.5-5.2,6.4-2.8,6.4c2.2,0,7-5.9,6.4-7.9
			c-0.3-1,0-2.1,0.3-2.4c1.9-1,1.8,3.6,0,5.9c-1.2,1.2-1.8,2.7-1.5,3.3c0.3,0.4-0.7,1.5-2.4,2.4c-3,1.5-5.2,6.4-2.8,6.4
			s7-5.6,6.5-7.7c-0.3-1-0.3-2.2,0.1-2.5c1.3-0.6,1.9,3,0.9,4.8c-0.6,1-0.6,2.2,0,3.3c1,1.9,0,5.5-1.9,6.7c-0.7,0.4-0.3,1.5,1.8,3
			c3,2.1,3,2.4,3,11.9c0,8,0.3,10.1,1.8,11.4c1.5,1.5,1.8,1.5,1.8,0s3-3.6,5.2-3.6c0.7,0,5,3.7,9.7,8.2c4.6,4.5,9.5,8.5,10.8,8.6
			l3.3,0.6c0.4,0,2.5-0.4,4.6-1.5L431.7,403.4z M382.3,364.7c0-2.5-5.3-5.3-11.7-5.9c-5.2-0.7-5.2-0.6-5.2,1.9c0,2.1,0.7,3,4.5,4.5
			C375.4,367.7,382.3,367.4,382.3,364.7z"/>
		<path class="st0" d="M388.1,364.4c2.7-2.4,3.9-5,2.2-5c-1.8,0-6.5,4.2-6.5,5.9c0,2.4,0.9,2.2,4.5-0.9H388.1z M382.6,356.8
			c0.1-1.5-0.7-2.4-3.4-3.7c-5.9-2.5-12.8-3.9-14.4-2.5c-3.1,2.5-1,5.8,3.9,6.4c2.1,0.1,4.8,0.7,6.1,1.3
			C378.6,359.8,382.1,359,382.6,356.8L382.6,356.8z M382.6,348.9c0.3-1.9-1-2.7-11.9-6.5c-8.2-3-11.7-1.5-9.1,3.4
			c0.9,1.6,2.4,2.4,5.8,3c2.5,0.3,5.9,1,7.6,1.6c4.5,1.5,7.1,0.9,7.4-1.5H382.6z M387.9,341.7c1.6-1.6,3-3.6,3-4.5
			c0-2.2-6.4,1.9-7.3,4.9c-0.9,3.4,0.7,3.3,4.5-0.4H387.9z M382.6,341.2c0.3-2.4-3.6-4.5-11.3-6.1c-5.8-1.3-8.3-0.6-7.9,2.1
			c0.3,1.5,2.2,2.5,7.4,4.2C379.6,344,382.1,344,382.6,341.2L382.6,341.2z M390,330.2c10.1-4.5,10.8-15.6,1.5-18.6
			c-3.9-1.2-6.2-0.4-7.7,2.1c-1.2,2.1-0.4,5.6,1,5.6c0.6,0,1,0.7,1,1.5c0,4-15.1,5.6-21.4,2.5c-2.2-1-3-4-1.3-4c1.5,0,2.4-3,1.6-4.9
			c-0.9-3-3.9-3.9-7.9-2.7c-9.4,2.4-9.1,13.4,0.4,17.8C367.8,333.5,379.3,333.7,390,330.2L390,330.2z"/>
		<path class="st0" d="M383.9,321.6c0.6-0.6,0.3-1.5-0.6-2.1c-2.1-1.6-1.9-4.2,0.3-7c1.8-2.1,1.9-5.3,2.5-37.3
			c1-55.1,5.2-96.5,10.5-106.6c2.2-3.9,1.9-3.9-3.7,0c-7.4,5.2-13.4,12.1-17.4,20.2c-9.2,17.1-12.3,40.1-12.3,89.4
			c0,27.9,0.1,31.6,1.8,34.2c1.5,2.7,1.5,3.6,0.6,6.2c-0.7,1.6-1,3.4-0.7,3.7C367,324.3,381.8,323.8,383.9,321.6L383.9,321.6z
			 M467.2,269c0.4-0.4-0.3-3-1.5-5.3c-1.8-3.9-2.5-4.5-5-4.5c-11.9-1-23.5-4.3-34.2-9.5c-7.6-3.4-10.4-4.2-11.1-3.3
			c-2.4,2.2,1.5,7.4,7.4,10.2c8.7,3.2,17.9,5,27.2,5.5c4,0,4.2,0,1.8,3.4l-1.5,2.4h4.5l7.4,0.9C466.6,269.9,466.6,269.9,467.2,269z"
			/>
		<path d="M514.1,293.8c0-1.5-4.3-5.2-8.5-7.7c-3.4-1.9-4-2.1-4-0.4c0,2.4-2.1,8.5-3,8.5c-0.4,0-1.2-1.2-1.5-2.5
			c-0.4-1.5-2.1-4.5-3.7-6.4l-3-3.7l-2.1,3.4c-2.1,3.3-5.8,6.4-7.4,6.4c-0.3,0-0.4-1.8,0-3.7c0.1-2.4,0-4.2-0.7-4.5
			c-0.6-0.4-1.2-0.3-1.2,0.3c0,1.2-5,6.8-5.9,6.8c-0.6,0-1.2-1.5-1.5-3.6l-1.2-7.1c-0.3-1.8,0.4-0.6,1.5,3l2.4,6.1l2.4-3.7
			c1.1-1.5,1.9-3.2,2.4-5c0-0.7,0.4-1,1-0.7c0.6,0.3,1.3,2.8,1.6,5.5l0.7,5l2.7-3c1.4-1.5,2.7-3.1,3.9-4.8c1-1.8,1.2-1.8,3.4,0
			c1.2,1.2,3.1,3.7,4.3,5.8c1.2,2.1,2.2,3.6,2.4,3.4l0.9-4.8l0.6-4.5c0.1-0.7,8,4.5,11,7c1.8,1.6,3.6,2.8,3.9,2.5
			c0.3-0.3,0.6-2.7,0.6-5.5c0-4.2-0.4-5.3-3-7.6c-3-2.7-3-2.7-4.2-0.7c-1.5,2.5-3.1,2.5-3.1,0c0-1.8-5.6-8.8-7-8.8
			c-0.4,0-1.6,1.5-2.7,3.4s-2.2,3.4-2.5,3.4c-1.5,0-9.4-8.9-9.4-10.4c0-1.2,0.6-0.9,1.9,1.2c1.3,2,2.9,3.7,4.6,5.3
			c3,2.7,4.2,2.1,5.3-3.1c0.4-1.5,1-2.7,1.5-2.7c1.2,0,8,7.3,8.9,9.7l1,2.4l0.7-2.7c0.9-3.3,1.9-3.3,3.4-0.3
			c0.6,1.2,3.6,3.9,6.5,5.6l5.5,3.6l1-3.6c0.6-1.9,1.5-3,1.8-2.4c0.6,0.7-0.9,6.7-1.9,7.9c0,0.1-1.9-0.9-3.9-2.2l-3.7-2.7v4.8
			c0,2.5-0.3,5.6-0.6,6.8c-0.7,2.4-2.5,3-2.5,0.9H514.1z M486.7,256.1c-6.5-5.3-7.4-6.5-7.4-9.2l0.1-2.7l0.4,2.5
			c0.3,1.5,2.1,3.9,4.2,5.6l3.9,3l2.2-2.7c1.3-1.5,2.4-3.3,2.4-3.9c0-1.8,0.3-1.6,4.8,2.2c3.9,3.4,4,3.4,4.5,1.2
			c0.4-1.2,0.3-3.6,0-5.2c-1.5-4.5-1.2-5,0.7-2.4l3.6,4.2c1.5,1.6,1.6,1.6,2.2-0.4c0.4-1.3,0.7-3.6,0.7-5v-2.8l3.4,4
			c3.4,3.9,3.7,4,4.6,2.1c0.7-1,1.2-3.6,1.2-5.5c0-2.7,0.3-3.3,0.9-2.4c1.2,1.8,0.4,6.2-1.6,10.1l-1.5,3l-1.9-3.1
			c-2.5-3.9-3.4-3.9-4.9,0.3c-1.5,4-2.5,4.3-4,1.2c-0.9-1.9-1.2-1.6-1.8,2.5l-0.7,4.5l-4.5-3.4l-4.5-3.4l-2.2,2.2
			c-1,1.3-1.9,3-1.9,3.6C489.5,257.6,488.3,257.6,486.7,256.1z M544.6,235.9c-2.2-2.1-3.9-4.2-3.6-4.5c0.4-0.4,0.7-0.6,0.9-0.3
			c1.4,1.5,2.9,3,4.5,4.5c5,5.3,4,5.5-1.6,0.3H544.6z M467.4,227.9c-2.1-3-1.9-4.8,0.7-8c1.8-2.2,2.7-2.5,5.9-2.1
			c2.2,0.1,6.8,2.1,10.2,4.2c4.9,2.9,10.6,4.5,16.3,4.5l-2.5-4.2c-3.3-4.9-3.3-5.5,0.6-2.5c3.9,3.1,8.5,4,18.9,3.7l5-0.1l-3-3
			c-4-4-2.8-4.5,1.8-0.4c4.2,3.7,4,4-5,4.9c-3.8,0.4-7.6,0.1-11.3-0.7c-5-1.5-5.3-1.3-4.3,0.3c0.6,1,1.5,1.8,1.9,1.8
			c0.6,0,1,0.6,1,1.2c0,1.9-11,0.1-16.3-2.4c-11.9-6.1-13.4-6.7-16.3-5.8c-1.6,0.6-2.9,1.8-3.6,3.4c-1.9,4.9,5,8.8,7.9,4.5
			c0.9-1.3,0.7-2.1-0.7-3.7c-2.1-2.1-1.8-2.4,0.9-1.5c1.9,0.7,2.1,5.3,0.3,7.1C473.9,230.9,469.1,230.4,467.4,227.9z"/>
		<path d="M514.7,215.9c-1.5-1.5-0.3-1.8,6.4-1.9c8.3-0.1,13.4-1.5,19.3-5.3c4.8-3,6.1-2.4,1.5,0.7c-4,3-10.4,5-16.8,5.6l-7.6,1
			c-1.2,0.3-2.5,0.1-3-0.1L514.7,215.9z"/>
	</g>
</g>
</svg>
