<?xml version="1.0" encoding="utf-8"?>
<!-- Generator: Adobe Illustrator 24.0.1, SVG Export Plug-In . SVG Version: 6.00 Build 0)  -->
<svg version="1.1" id="flag-icons-ly" xmlns="http://www.w3.org/2000/svg" xmlns:xlink="http://www.w3.org/1999/xlink" x="0px"
	 y="0px" viewBox="0 0 800 480" style="enable-background:new 0 0 800 480;" xml:space="preserve">
<style type="text/css">
	.st0{fill:#239E46;}
	.st1{fill:#E70013;}
	.st2{fill:#FFFFFF;}
</style>
<path class="st0" d="M0,0h800v480H0V0z"/>
<path d="M0,0h800v360H0V0z"/>
<path class="st1" d="M0,0h800v120H0V0z"/>
<g>
	<path class="st2" d="M381.9,282.4c-23.4-16.7-28.9-49.3-12.2-72.7c16.7-23.4,49.3-28.9,72.7-12.2c-23.4-23.4-61.4-23.4-84.8,0
		c-23.4,23.4-23.4,61.4,0,84.9c23.4,23.4,61.4,23.4,84.9,0C424.3,295.4,400,295.4,381.9,282.4z"/>
	<polygon class="st2" points="490.9,240 509.9,213.8 479.1,223.8 460,197.6 460,230 429.2,240 460,250 460,282.4 479.1,256.2 
		509.9,266.2 	"/>
</g>
</svg>
