<?xml version="1.0" encoding="utf-8"?>
<!-- Generator: Adobe Illustrator 24.0.1, SVG Export Plug-In . SVG Version: 6.00 Build 0)  -->
<svg version="1.1" id="flag-icons-md" xmlns="http://www.w3.org/2000/svg" xmlns:xlink="http://www.w3.org/1999/xlink" x="0px"
	 y="0px" viewBox="0 0 800 480" style="enable-background:new 0 0 800 480;" xml:space="preserve">
<style type="text/css">
	.st0{fill:#CC092F;}
	.st1{fill:#FFD200;}
	.st2{fill:#0046AE;}
	.st3{fill:#B07E5B;}
	.st4{fill:#007A50;}
</style>
<g>
	<rect class="st0" width="800" height="480"/>
	<rect class="st1" width="533.3" height="480"/>
	<rect class="st2" width="266.7" height="480"/>
</g>
<g>
	<g>
		<path d="M373.1,97.9c-1.5-0.1-2.9,0.3-4.1,1.1c1.4,0.4,2.4,1.8,2.4,3.3v4h-4c-1.5,0-2.8-1-3.3-2.4c-1.5,2.5-1.5,5.7,0,8.2
			c0.4-1.4,1.8-2.4,3.3-2.4h4v19.1c0,1.4-0.9,2.7-2.2,3.2c1.9,0.3,3.5,2.8,4,4.2c0.4-1.4,2.1-3.9,4-4.2c-1.4-0.5-2.3-1.8-2.3-3.2
			v-19.1h4c1.5,0,2.8,1,3.3,2.4c1.5-2.5,1.5-5.7,0-8.2c-0.4,1.4-1.8,2.4-3.3,2.4h-4v-4c0-1.5,1-2.8,2.4-3.3
			C376,98.2,374.5,97.8,373.1,97.9L373.1,97.9z"/>
		<path class="st1" d="M373.1,98.7c-0.8,0-1.6,0.1-2.4,0.4c0.9,0.8,1.5,2,1.5,3.2v4c0,0.1,0,0.1,0,0.2v0.6h-0.6c-0.1,0-0.1,0-0.2,0
			h-4c-1.2,0-2.4-0.5-3.1-1.4c-0.3,0.8-0.4,1.6-0.4,2.4c0,0.8,0.1,1.6,0.4,2.4c0.8-0.9,2-1.5,3.2-1.5h4.8c0,0.1,0,0.2,0,0.2v0.4
			c0,0.1,0,0.1,0,0.2v19.1c0,1.2-0.6,2.2-1.5,3c0.6,0.4,1.1,0.8,1.6,1.4c0.3,0.4,0.6,0.9,0.8,1.4c0.2-0.5,0.5-1,0.8-1.4
			c0.4-0.5,1-1,1.5-1.3c-0.9-0.7-1.4-1.8-1.5-3v-19.9h0.7c0.1,0,0.1,0,0.2,0h4c1.2,0,2.4,0.5,3.1,1.4c0.3-0.8,0.4-1.6,0.4-2.4
			c0-0.8-0.1-1.6-0.4-2.4c-0.8,0.9-2,1.5-3.2,1.5h-4c-0.1,0-0.1,0-0.2,0H374v-0.6c0-0.1,0-0.1,0-0.2v-4c0-1.2,0.5-2.4,1.4-3.1
			C374.7,98.9,373.9,98.7,373.1,98.7"/>
		<path d="M422.7,167.7c-2.3-1.6-4.3-3.6-5.8-5.9c-3.4-5.5-4.8-12.2-4.8-19c0-2.9,3.2-6.1,3.2-8.5c0-1.9-0.1-3.8-0.3-5.6
			c1.1,0.2,3.1,2.2,3.1,2.2s-0.1-5.8-1.9-6.9c0,0,0.7-0.8,3.4-0.8c-0.8-1.9-4.5-4.3-4.5-4.3c0.2-0.4,0.6-0.7,1-0.9
			c1-0.5,2.1-0.9,3.3-1.1c-1.2-0.3-2.5-0.6-3.7-1c-3.5-1.2-6.9-2.6-10.2-4.2c-4.2-2.1-8.9-3.2-13.7-3.2c-1.9,0-4.7,0.1-6.4,1.1
			c-1.5,1-1.4,2.3-1.9,2.8c-1.2,1.1-3.4,1-4.4,1c-6.6,0-6.9,7.1-6.9,7.1s1.7-2.6,4.7-2.6c5,0,8.8,2.7,8.8,3.7c0,0.4-0.5,0.5-0.5,0.5
			c-3.3,0-8.2-1.9-10.8-2v1.3c5.8,2,11.8,4.9,11.8,17.6c0,8-1,16.1-4.9,22.5c-1.5,2.3-3.5,4.4-5.9,5.9L399,172L422.7,167.7z"/>
		<g id="eagle_half">
			<path d="M399,162.4l-23.7,5.3c-1.1-0.3-6.2-1.9-9.7-3.9c-6.3-3.5-9.5-7-17-7.3v-5.7c0-3,1.1-5.7,1.1-8.6
				c-3.1-0.8-11.8-11.5-19.9-16.2c-11.8,7.7-21,20.2-21,26c0,0,0.4,124.2,0,167.5c0,2.5-1.5,6-1.5,6c4.3-1.8,12.2-12.6,13.9-16.8v2
				c6.5-3,11.3-10.8,13.4-14.8c0,0.6,0.1,2.1,0.1,2.1c5.8-5.1,13.2-35.3,13.2-35.3l12.4,12.1c0,0-4.5,9.1-6.2,10.7
				c0.8,0.1,1.7,0.1,2.5,0.1c-0.8,1.2-7,10.1-9,13.5c-1.8,3.2-3.1,1.8-5.9,1.8c-2.3,0-7.6,3.7-8.4,5.2c-0.9,1.5-1.5,3.3-1.6,5.1
				c0,1.7,1.8,4.1,1.8,4.1c0.1-0.4,0.3-0.8,0.5-1.1c0,0,4.8,6,5.5,6.8c0.6,0.6,3,1,3.9,0.2c2.2-2,4.3-3.4,6.2-6.2
				c1-1.5,1.1-3.2,2.2-4.7c3.8-5.3,11.4-15.4,13.2-17.7c0.1,0.6,0.2,1.2,0.3,1.8c2-4,11.5-11.6,11.5-11.6l9.9,4.6
				c0,0-18.5,42.6-35,49.1c0,0,7.2,3,15.9,7.6c1.3,0.7,2.6,1.4,3.9,2.1c1.1-1.3,2.3-2.8,3.4-4.3c5.3-7,10.4-15.2,10.4-15.2
				c0.4,2.1-2.4,8.7-7.1,16.7c-0.9,1.6-1.9,3.2-3,4.9c1.2,0.7,2.4,1.4,3.6,2.1c8.7,5.2,16.9,11.3,19.9,16.8l2.1-5.3l-2.1-5.3V169.5
				l1.1-2.7L399,162.4z"/>
			<g>
				<path class="st3" d="M399,356.4c-3.1-3.3-9.5-7.4-16.7-11.2c8.7-15.7,13-40.4,11-45.3c0,0-3.6,12.8-8,20.2
					c-4.1,6.8-9,14.4-13.9,20c-3.6-1.6-7.3-2.9-11.1-4.1c14.5-11.1,29.2-47.9,29.2-47.9l-15.3-7.1c0,0-5.7,6.7-7.6,7.9
					c0,0-0.8-3.3-1.3-4.5c0,0-2.2,1.7-3.4,1.7c0,0-0.4-2.3-0.6-3.7c-1.5,1-4,0.8-4,0.8c2.2-1,4.8-7.4,4.8-7.4l-14.6-19.4
					c0,0-5.1,24.6-11,29.7V180l4.6,4.3l7-6.5v-5l-6.2,5.8v-15c0.9-1.4,1.6-2.5,2-3.3c1,1.8,4.3,7.1,8.1,10.4c0.6-2.6,4.8-5,4.8-5
					s1.5,4,3.7,5c0.8-1.4,5.6-4.5,5.6-4.5s-4.1,0.6-5.7,2.2c-1.4-0.3-1.8-5.9-1.8-5.9s-6,2.9-7,5c-1.1-0.3-2.9-4.8-3.6-6.6
					c1.5-0.2,3-0.2,4.5-0.2c1.7,0,3.9,0.8,6.2,1.9c2.5,1.2,5.1,2.7,7.5,3.7c3,1.4,7.6,1.6,8.9,1.7c-1.6,1.1-3.3,2.1-5,3
					c0,0,7.2-0.1,12.2-2.6c1.8-1.1,3.6-2.3,5.3-3.7c-0.8,2.2-1.9,4.3-3.4,6.1c7.4-0.6,11.1-4.8,12.1-6.3c0.7,1.8,1.6,3.5,2.7,5.1
					h2.7v181.6L399,356.4z"/>
				<path class="st3" d="M344.5,142.8l0.1,3.4v10c-2.7-0.9-6.1-5.3-7.7-7.7v-1.4c0-1.1,0.5-2,1.3-2.7l-1.6-0.6
					c-0.8,0.8-1.3,1.9-1.3,3.1v0.8l-4.8,5.2l-4.7-7.2V144c0-1.2,0.9-2.5,1.7-3.4l-1.6-0.6c-0.8,1-1.6,2.4-1.6,3.7v1.4
					c-1.1,1.2-5.4,5.6-5.4,5.6s-2.2-4.7-2.8-5.9c3.3-4.6,8.7-9.7,13.8-13.4C329.9,131.4,340.8,141.5,344.5,142.8L344.5,142.8z"/>
				<path class="st3" d="M316.7,152.5v8.2l-3.8,3.6V152c0.1-1.5,0.6-2.9,1.3-4.1L316.7,152.5z"/>
				<path class="st3" d="M328.6,155.6v5.1l-4.4,4.1v-15.9L328.6,155.6z"/>
				<path class="st3" d="M322.7,164.8l-4.4-4.1v-6l4.4-4.6V164.8z"/>
				<path class="st3" d="M342.8,158.7c-1,1.4-3.7,5-6.6,6.5v-14C336.8,152.3,339.9,157.2,342.8,158.7z"/>
				<path class="st3" d="M334.6,151.9v12.9l-4.4-4.1v-4.6L334.6,151.9z"/>
				<path class="st3" d="M316.7,165.7v12.9l-3.8-3.6v-5.7L316.7,165.7z"/>
				<path class="st3" d="M322.7,169.8v4.6l-4.4,4.1v-12.8L322.7,169.8z"/>
				<path class="st3" d="M328.6,165.7v12.8l-4.4-4.1v-4.6L328.6,165.7z"/>
				<path class="st3" d="M334.6,169.8v4.6l-4.4,4.1v-12.8L334.6,169.8z"/>
				<path class="st3" d="M340.6,178.6l-4.4-4.1v-4.3c1.5-0.9,3-2.6,4.4-4.4L340.6,178.6z"/>
				<path class="st3" d="M329.4,184.2l4.6-4.3V286c0,0,0.3,5.3,0.5,8.7c-2.1,2.1-9.8,10-9.8,10V179.9L329.4,184.2z"/>
				<path class="st3" d="M322.1,300.7c0,3.4-6.2,11.4-9.2,13.2V180l4.6,4.3l4.6-4.3V300.7z"/>
			</g>
			<g>
				<path class="st0" d="M360.7,289.2l3.4-2.3c0,0,0.2,1.1,0.5,2.7c-1.5,2-9.8,13.4-13.9,18.9c-1,1.4-1.9,4.9-1.9,4.9
					s-1.5-0.7-1.5-2c0-1.3,0.2-2.8,0.2-2.8c-0.8,0.8-1.9,1.3-3.1,1.3c0-1.6,3-3.2,3.1-5.4c-2.3,1.7-4.3,0.8-6.9,1.6
					c-2.9,0.9-3.7,2.1-4.6,2.1c-0.5,0-1-0.9-0.8-1.5c0.3-1,3.9-3.6,6.4-4.1c0.6-0.1,5.3,1,6.2-0.4c3.9-6,10.2-15.8,10.8-16.7
					c0.4-0.1,0.7-0.2,1.1-0.4C359.8,285.1,359.7,288.1,360.7,289.2L360.7,289.2z"/>
				<path class="st0" d="M338.9,307.9c0.2,0.2,0.2,0.5,0,0.7l-1.5,1.3c-0.2,0.2-0.5,0.1-0.7-0.1c-0.2-0.2-0.2-0.5,0-0.7l1.5-1.3
					c0.1-0.1,0.2-0.1,0.4-0.1C338.7,307.8,338.8,307.8,338.9,307.9L338.9,307.9z"/>
				<path class="st0" d="M341.2,309.6c0.5,0.5,0.4,1.2,0,1.7l0,0l-3.7,3.3c-0.6,0.4-1.4,0.3-1.8-0.3c-0.4-0.5-0.3-1.2,0.1-1.7
					l3.7-3.2c0.2-0.2,0.4-0.3,0.7-0.3C340.6,309.1,341,309.2,341.2,309.6z"/>
				<path class="st0" d="M343.4,312.1c0.5,0.5,0.4,1.2,0,1.7l0,0l-3.7,3.3c-0.5,0.4-1.3,0.3-1.7-0.2l0,0c-0.5-0.5-0.4-1.3,0.1-1.7
					l3.7-3.2c0.2-0.2,0.4-0.3,0.6-0.3C342.7,311.6,343.1,311.8,343.4,312.1L343.4,312.1z"/>
				<path class="st0" d="M344.7,314.1c0.4,0,0.8,0.1,1.1,0.4c0.5,0.5,0.4,1.3-0.1,1.7l-3.7,3.2c-0.6,0.4-1.4,0.3-1.8-0.3
					c-0.4-0.5-0.3-1.2,0.1-1.6l3.7-3.3C344.2,314.2,344.4,314.1,344.7,314.1L344.7,314.1z"/>
			</g>
		</g>
		<g id="eagle_half-2">
			<path d="M399,162.4l23.7,5.3c1.1-0.3,6.2-1.9,9.7-3.9c6.3-3.5,9.5-7,17-7.3v-5.7c0-3-1.1-5.7-1.1-8.6
				c3.1-0.8,11.8-11.5,19.9-16.2c11.8,7.7,21,20.2,21,26c0,0-0.4,124.2,0,167.5c0,2.5,1.5,6,1.5,6c-4.3-1.8-12.2-12.6-13.9-16.8v2
				c-6.5-3-11.3-10.8-13.4-14.8c0,0.6-0.1,2.1-0.1,2.1c-5.8-5.1-13.2-35.3-13.2-35.3l-12.4,12.1c0,0,4.5,9.1,6.2,10.7
				c-0.8,0.1-1.7,0.1-2.5,0.1c0.8,1.2,7,10.1,9,13.5c1.8,3.2,3.1,1.8,5.9,1.8c2.3,0,7.6,3.7,8.4,5.2c0.9,1.5,1.5,3.3,1.6,5.1
				c0,1.7-1.8,4.1-1.8,4.1c-0.1-0.4-0.3-0.8-0.5-1.1c0,0-4.8,6-5.5,6.8c-0.6,0.6-3,1-3.9,0.2c-2.2-2-4.3-3.4-6.2-6.2
				c-1-1.5-1.1-3.2-2.2-4.7c-3.8-5.3-11.4-15.4-13.2-17.7c-0.1,0.6-0.2,1.2-0.3,1.8c-2-4-11.5-11.6-11.5-11.6l-9.9,4.6
				c0,0,18.5,42.6,35,49.1c0,0-7.2,3-15.9,7.6c-1.3,0.7-2.6,1.4-3.9,2.1c-1.1-1.3-2.3-2.8-3.4-4.3c-5.3-7-10.4-15.2-10.4-15.2
				c-0.4,2.1,2.4,8.7,7.1,16.7c0.9,1.6,1.9,3.2,3,4.9c-1.2,0.7-2.4,1.4-3.6,2.1c-8.7,5.2-16.9,11.3-19.9,16.8l-2.1-5.3l2.1-5.3
				V169.5l-1.1-2.7L399,162.4z"/>
			<g>
				<path class="st3" d="M399,356.4c3.1-3.3,9.5-7.4,16.7-11.2c-8.7-15.7-13-40.4-11-45.3c0,0,3.6,12.8,8,20.2
					c4.1,6.8,9,14.4,13.9,20c3.6-1.6,7.3-2.9,11.1-4.1c-14.5-11.1-29.2-47.9-29.2-47.9l15.3-7.1c0,0,5.7,6.7,7.6,7.9
					c0,0,0.8-3.3,1.3-4.5c0,0,2.2,1.7,3.4,1.7c0,0,0.4-2.3,0.6-3.7c1.5,1,4,0.8,4,0.8c-2.2-1-4.8-7.4-4.8-7.4l14.6-19.4
					c0,0,5.1,24.6,11,29.7V180l-4.6,4.3l-7-6.5v-5l6.2,5.8v-15c-0.9-1.4-1.6-2.5-2-3.3c-1,1.8-4.3,7.1-8.1,10.4
					c-0.6-2.6-4.8-5-4.8-5s-1.5,4-3.7,5c-0.8-1.4-5.6-4.5-5.6-4.5s4.1,0.6,5.7,2.2c1.4-0.3,1.8-5.9,1.8-5.9s6,2.9,7,5
					c1.1-0.3,2.9-4.8,3.6-6.6c-1.5-0.2-3-0.2-4.5-0.2c-1.7,0-3.9,0.8-6.2,1.9c-2.5,1.2-5.1,2.7-7.5,3.7c-3,1.4-7.6,1.6-8.9,1.7
					c1.6,1.1,3.3,2.1,5,3c0,0-7.2-0.1-12.2-2.6c-1.8-1.1-3.6-2.3-5.3-3.7c0.8,2.2,1.9,4.3,3.4,6.1c-7.4-0.6-11.1-4.8-12.1-6.3
					c-0.7,1.8-1.6,3.5-2.7,5.1h-2.7v181.6L399,356.4z"/>
				<path class="st3" d="M453.5,142.8l-0.1,3.4v10c2.7-0.9,6.1-5.3,7.7-7.7v-1.4c0-1.1-0.5-2-1.3-2.7l1.6-0.6
					c0.8,0.8,1.3,1.9,1.3,3.1v0.8l4.8,5.2l4.7-7.2V144c0-1.2-0.9-2.5-1.7-3.4l1.6-0.6c0.8,1,1.6,2.4,1.6,3.7v1.4
					c1.1,1.2,5.4,5.6,5.4,5.6s2.2-4.7,2.8-5.9c-3.3-4.6-8.7-9.7-13.8-13.4C468.1,131.4,457.2,141.5,453.5,142.8L453.5,142.8z"/>
				<path class="st3" d="M481.3,152.5v8.2l3.8,3.6V152c-0.1-1.5-0.6-2.9-1.3-4.1L481.3,152.5z"/>
				<path class="st3" d="M469.4,155.6v5.1l4.4,4.1v-15.9L469.4,155.6z"/>
				<path class="st3" d="M475.3,164.8l4.4-4.1v-6l-4.4-4.6V164.8z"/>
				<path class="st3" d="M455.2,158.7c1,1.4,3.7,5,6.6,6.5v-14C461.2,152.3,458.1,157.2,455.2,158.7z"/>
				<path class="st3" d="M463.4,151.9v12.9l4.4-4.1v-4.6L463.4,151.9z"/>
				<path class="st3" d="M481.3,165.7v12.9l3.8-3.6v-5.7L481.3,165.7z"/>
				<path class="st3" d="M475.3,169.8v4.6l4.4,4.1v-12.8L475.3,169.8z"/>
				<path class="st3" d="M469.4,165.7v12.8l4.4-4.1v-4.6L469.4,165.7z"/>
				<path class="st3" d="M463.4,169.8v4.6l4.4,4.1v-12.8L463.4,169.8z"/>
				<path class="st3" d="M457.4,178.6l4.4-4.1v-4.3c-1.5-0.9-3-2.6-4.4-4.4L457.4,178.6z"/>
				<path class="st3" d="M468.6,184.2l-4.6-4.3V286c0,0-0.3,5.3-0.5,8.7c2.1,2.1,9.8,10,9.8,10V179.9L468.6,184.2z"/>
				<path class="st3" d="M475.9,300.7c0,3.4,6.2,11.4,9.2,13.2V180l-4.6,4.3l-4.6-4.3V300.7z"/>
			</g>
			<g>
				<path class="st0" d="M437.3,289.2l-3.4-2.3c0,0-0.2,1.1-0.5,2.7c1.5,2,9.8,13.4,13.9,18.9c1,1.4,1.9,4.9,1.9,4.9s1.5-0.7,1.5-2
					c0-1.3-0.2-2.8-0.2-2.8c0.8,0.8,1.9,1.3,3.1,1.3c0-1.6-3-3.2-3.1-5.4c2.3,1.7,4.3,0.8,6.9,1.6c2.9,0.9,3.7,2.1,4.6,2.1
					c0.5,0,1-0.9,0.8-1.5c-0.3-1-3.9-3.6-6.4-4.1c-0.6-0.1-5.3,1-6.2-0.4c-3.9-6-10.2-15.8-10.8-16.7c-0.4-0.1-0.7-0.2-1.1-0.4
					C438.2,285.1,438.3,288.1,437.3,289.2L437.3,289.2z"/>
				<path class="st0" d="M459.1,307.9c-0.2,0.2-0.2,0.5,0,0.7l1.5,1.3c0.2,0.2,0.5,0.1,0.7-0.1c0.2-0.2,0.2-0.5,0-0.7l-1.5-1.3
					c-0.1-0.1-0.2-0.1-0.4-0.1C459.3,307.8,459.2,307.8,459.1,307.9L459.1,307.9z"/>
				<path class="st0" d="M456.8,309.6c-0.5,0.5-0.4,1.2,0,1.7l0,0l3.7,3.3c0.6,0.4,1.4,0.3,1.8-0.3c0.4-0.5,0.3-1.2-0.1-1.7
					l-3.7-3.2c-0.2-0.2-0.4-0.3-0.7-0.3C457.4,309.1,457,309.2,456.8,309.6z"/>
				<path class="st0" d="M454.6,312.1c-0.5,0.5-0.4,1.2,0,1.7l0,0l3.7,3.3c0.5,0.4,1.3,0.3,1.7-0.2l0,0c0.5-0.5,0.4-1.3-0.1-1.7
					l-3.7-3.2c-0.2-0.2-0.4-0.3-0.6-0.3C455.3,311.6,454.9,311.8,454.6,312.1L454.6,312.1z"/>
				<path class="st0" d="M453.3,314.1c-0.4,0-0.8,0.1-1.1,0.4c-0.5,0.5-0.4,1.3,0.1,1.7l3.7,3.2c0.6,0.4,1.4,0.3,1.8-0.3
					c0.4-0.5,0.3-1.2-0.1-1.6l-3.7-3.3C453.8,314.2,453.6,314.1,453.3,314.1L453.3,314.1z"/>
			</g>
		</g>
		<path class="st3" d="M393.5,110.4c6.1,0,10.4,2.8,16.2,5.4c1.5,0.7,2.9,1.2,4.2,1.6c-0.7,0.5-1.2,1.2-1.6,2c0,0,2.6,0.5,3.8,2.7
			c0,0-2.5,0.3-2.9,1.7c1.4,0.1,2.8,1.8,2.8,3.5l-3.5-1.1c0.5,2.7,0.8,5.4,0.8,8.2c0,2.2-3.1,4.8-3.1,8.5c0,11.6,2.9,16.1,5,19.7
			c0.8,1.4,1.5,3,2.8,4.2c-6-3.2-10.4-7.2-10.4-10.9v-14H406v14c0,2.7,0.7,3.9,0.7,3.9c0.9,3,2.8,7.6,4,9.4c-5.5-3-8.3-6.7-8.3-8.1
			v-19.3h-1.6v19.6l0.3,1.3c-0.7,1-1.5,2.2-2.1,2.6c-0.6-0.4-1.4-1.6-2.1-2.6l0.3-1.3v-19.6h-1.6v19.3c0,1.4-2.8,5.1-8.3,8.1
			c1.2-1.8,3.1-6.4,4-9.4c0,0,0.7-1.3,0.7-3.9v-14h-1.6v14c0,3.7-4.4,7.7-10.4,10.9c1.4-1.2,2-2.8,2.8-4.2c2.3-3.9,5.1-8.9,5.1-23.1
			c0-5.3-0.8-9-2.2-11.5c-0.4-0.8-1-3.1,2.2-3.1c1.7,0,5.4,2.9,5.4,2.9c-0.2-1.5-0.9-2.8-2.1-3.7c-0.5-0.4-0.8-0.9-0.8-1.6
			c0.2-0.8,0.7-1.5,1.5-2c0.4-0.2-6.5-1.4-6.5-4.6c0-0.7,0.4-1.1,1.9-1.1c1.9,0,5,2.3,7.7,2.3c2,0,2.8-0.5,4.9-0.5
			c2.5,0,7.8,4.8,9.6,4.6c-2-1.3-5.3-6.1-10.2-6.1c-1.7,0-3.3,0.4-4.9,0.4c-2.1,0-4.1-1.9-6.3-1.9c-1.5,0-3.1,0.1-3.4-0.3
			c-0.4-0.7,0-1.1,0.4-1.6c0.8-1,2.9-1.3,5-1.4c0.6,0,1.2,0,1.8,0C392.5,110.4,393.1,110.4,393.5,110.4L393.5,110.4z"/>
		<path class="st0" d="M373.6,117.9c1-1.6,2.7-2.5,4.6-2.4c1.4,0,5.9-0.1,5.9-0.1c0.6,1.6,3.3,4.2,3.3,6.9c0,0-2.8-5-10.5-5
			C375.8,117.2,374.7,117.4,373.6,117.9L373.6,117.9z"/>
		<path class="st0" d="M386.3,123.2c0,0-1.7,1.7-2,2.7c-1.6-0.6-4.5-3.6-4.5-3.6S382.2,123.7,386.3,123.2L386.3,123.2z"/>
		<path d="M383.6,118.6c0,0-1.9-0.6-1.9-1.3c0-0.8,0.9-0.8,1.5-0.2C383.5,117.6,383.6,118.1,383.6,118.6L383.6,118.6z"/>
		<ellipse cx="392.5" cy="119.6" rx="3.9" ry="3"/>
		<circle class="st1" cx="392.5" cy="119.6" r="2.7"/>
		<circle cx="392.5" cy="119.6" r="1.3"/>
	</g>
	<g>
		<g>
			<polygon points="348.3,316.2 357,320.9 354.9,330.6 346.2,325.9 			"/>
			<path d="M308,223.7l-3.1,1.4l35.2,77.1h3.7L308,223.7z M349.6,314.7l-2.5,2.6l1.6,3.5l3.1-1.4L349.6,314.7z"/>
			<path d="M319,284.5c0,0,3,6.1,5.2,7c-1.2-0.3-5,1.1-5,1.1s6.7,6,12.3,6.4c4.8,0.3,7.1-2.1,7.1-2.1l-1-5.1
				c-2.1-2.3-4.7-4.1-7.6-5.2C325.3,284.9,319,284.5,319,284.5L319,284.5z"/>
			<path d="M341.3,273.5c0,0-4.1,3.5-5.2,7.6c-1.1,4.1,0.7,8.7,0.7,8.7l3.4,6.4c0,0,4.8-2.5,6.8-6.3c2-3.8,1.3-8.9,1.3-8.9
				s-3.8,1.4-4.3,2C344.9,278.8,341.3,273.5,341.3,273.5L341.3,273.5z"/>
			<path d="M328.2,271.9c0,0-4.7,1.6-9.2,1.3c-4.3-0.3-7.9-3.9-7.9-3.9s3.6-2.4,5.3-2.1c-1.9-0.7-4.8-5.6-4.8-5.6s4-1.2,7.5,0.1
				c3.5,1.3,6.6,5.2,6.6,5.2L328.2,271.9L328.2,271.9z"/>
			<path d="M329.8,249.1c0,0,2.3,4.8,1.8,6.5c0.7-1.1,3.5-2.9,3.5-2.9s1.7,7.8,0.1,12.6c-1.6,4.8-6.4,6.7-6.4,6.7l-5.3-10.3
				c0,0-0.8-3.8,0.9-6.9C325.9,251.9,329.8,249.1,329.8,249.1L329.8,249.1z"/>
			<path d="M299.4,236.4c0,0,5-0.5,9.6,1.4c3.9,1.6,5,4.5,5,4.5l1.9,5.1c0,0-5.5,2.1-9.8,0.5c-4.3-1.6-7.5-6.8-7.5-6.8
				s3-1.1,4.2-0.7C301.2,239.6,299.4,236.4,299.4,236.4L299.4,236.4L299.4,236.4z"/>
			<path d="M315.3,226.9c0,0,2.2,2.8,2.3,6.1c0.6-1.7,3.3-3.7,3.3-3.7s2.8,6.9,2.2,11.7c-0.6,4.9-4.7,7.8-4.7,7.8l-5.1-9.7
				c0,0-1.7-4-1.2-7C312.6,229.1,315.3,226.9,315.3,226.9L315.3,226.9z"/>
			<path d="M297.8,208.4c0,0-0.9,5.3,0.6,8.3c1.4,2.7,2.3,3.3,2.3,3.3c-2.6-1.7-6.6-1.9-6.6-1.9s1.4,5.7,4.8,8.3
				c3.4,2.6,8.7,2,8.7,2s3.5-4.6,3.2-9.5c-0.2-4.9-4.2-10.3-4.2-10.3s-1.6,3.2-1.7,5.6C303.9,211.8,297.8,208.4,297.8,208.4
				L297.8,208.4z"/>
			<path d="M339,296.6l0.1,1.9c3.1,0,3.6-0.3,4.4,0.7c0.8,0.9,2,1.1,3.1,0.6c1.3-0.6,1.9-2.1,1.3-3.4c-0.6-1.3-1.8-1.6-2.9-1.3
				c-0.7,0.1-1.2,0.7-1.8,1C342.1,296.7,339,296.6,339,296.6L339,296.6z"/>
			<path d="M338.7,295.2l1.5,1.1c-1.6,2.7-2.1,2.9-1.7,4.1c0.3,1.1-0.1,2.3-1.1,3c-1.2,0.8-2.8,0.5-3.6-0.7
				c-0.8-1.2-0.4-2.3,0.4-3.2c0.5-0.5,1.2-0.6,1.8-1C337.2,297.9,338.7,295.2,338.7,295.2L338.7,295.2z"/>
			<path d="M328.1,272.7l0.1,1.9c3.1,0,3.6-0.3,4.4,0.7c0.8,0.9,2,1.1,3.1,0.6c1.3-0.6,1.9-2.1,1.3-3.4c-0.6-1.3-1.8-1.6-2.9-1.3
				c-0.7,0.1-1.2,0.7-1.8,1C331.2,272.8,328.1,272.7,328.1,272.7L328.1,272.7z"/>
			<path d="M328.7,273.4l1.3,1.3c-2,2.4-2.6,2.5-2.4,3.8c0.2,1.2-0.5,2.3-1.5,2.8c-1.3,0.6-2.8,0-3.4-1.3c-0.6-1.3,0-2.4,0.9-3.1
				c0.6-0.4,1.3-0.4,1.9-0.7C326.8,275.8,328.7,273.4,328.7,273.4L328.7,273.4z"/>
			<path d="M317.5,250.4l0.1,1.9c3.1,0,3.6-0.3,4.4,0.7c0.8,0.9,2,1.1,3.1,0.6c1.3-0.6,1.9-2.1,1.3-3.4c-0.6-1.3-1.8-1.6-2.9-1.3
				c-0.7,0.1-1.2,0.7-1.8,1C320.6,250.5,317.5,250.4,317.5,250.4L317.5,250.4z"/>
			<path d="M318.4,250l1.3,1.3c-2,2.4-2.6,2.5-2.4,3.8c0.2,1.2-0.5,2.3-1.5,2.8c-1.3,0.6-2.8,0-3.4-1.3c-0.6-1.3,0-2.4,0.9-3.1
				c0.6-0.4,1.3-0.4,1.9-0.7C316.4,252.4,318.4,250,318.4,250L318.4,250z"/>
			<path d="M306.3,226.8l0.1,1.9c3.1,0,3.6-0.3,4.4,0.7c0.8,0.9,2,1.1,3.1,0.7c1.3-0.6,1.9-2.1,1.3-3.4c-0.6-1.3-1.8-1.6-2.9-1.3
				c-0.7,0.1-1.2,0.7-1.8,1C309.3,226.9,306.2,226.8,306.3,226.8L306.3,226.8z"/>
			<path d="M307.1,226.4l1.3,1.3c-2,2.4-2.6,2.5-2.4,3.8c0.2,1.2-0.5,2.3-1.5,2.8c-1.3,0.6-2.8,0-3.4-1.3c-0.6-1.3,0-2.4,0.9-3.1
				c0.6-0.4,1.3-0.4,1.9-0.7C305.2,228.8,307.1,226.4,307.1,226.4L307.1,226.4z"/>
		</g>
		<g>
			<polygon class="st1" points="349.6,319 354.9,321.9 353.6,327.9 348.3,324.9 			"/>
			<path class="st1" d="M326.1,267.1c-1.1,0.5-2.8-4.4-4-7.1c-1.3-2.8-3.8-7-3.1-7.3c0.8-0.4,1.8,1.9,3.1,4.7
				C323.4,260.2,327.1,266.7,326.1,267.1L326.1,267.1z"/>
			<path class="st1" d="M314.5,241.4c-1.1,0.5-2.4-2.7-3.6-5.4c-1.3-2.8-2.5-4.7-1.8-5c0.8-0.4,2,2,3,4.3
				C313.2,237.4,315.6,240.9,314.5,241.4L314.5,241.4z"/>
			<path class="st1" d="M341.3,299.8c-0.9,0.2-4.7-7.8-7.9-14.7c-3.1-6.8-5.4-12.4-4.7-12.7c0.8-0.4,3.3,6.1,6.4,12.9
				C338.2,292.2,341.9,299.7,341.3,299.8L341.3,299.8z"/>
			<circle class="st1" cx="345.6" cy="297.5" r="1.4"/>
			<circle class="st1" cx="336" cy="301.3" r="1.4"/>
			<circle class="st1" cx="334.7" cy="273.6" r="1.4"/>
			<circle class="st1" cx="325.1" cy="279" r="1.4"/>
			<circle class="st1" cx="324.1" cy="251.3" r="1.4"/>
			<circle class="st1" cx="314.7" cy="255.6" r="1.4"/>
			<circle class="st1" cx="312.8" cy="227.7" r="1.4"/>
			<circle class="st1" cx="303.5" cy="232" r="1.4"/>
		</g>
		<g>
			<path class="st4" d="M299.4,211.6c0,0-0.1,3.8,1.1,6c1.3,2.2,4.1,3.1,4.1,3.1s0.1-3.8-1.1-6C302.2,212.5,299.4,211.6,299.4,211.6
				z"/>
			<path class="st4" d="M296.7,220.3c0,0,3.3,0.2,5.3,1.7c1.9,1.5,2.7,4.6,2.7,4.6c-1.5,0.1-3-0.4-4.1-1.3
				C298.6,223.8,296.7,220.3,296.7,220.3z"/>
			<path class="st4" d="M307.2,212.6c-0.7,1.7-1,3.5-1,5.3c0.1,2.7,1.7,5.8,1.7,5.8s1.4-3.3,1.3-6
				C309.2,214.9,307.6,213.4,307.2,212.6L307.2,212.6z"/>
			<path class="st4" d="M301.6,237.3c1.1,1.5,2.5,2.7,4.2,3.5c2.5,1.2,6.3,1.3,6.3,1.3c-1.2-1.5-2.7-2.8-4.4-3.7
				C305.1,237.2,301.6,237.3,301.6,237.3L301.6,237.3z"/>
			<path class="st4" d="M302.4,242.7c0,0,1.2,2.4,3.4,3.4c2.2,1,6.7,0.9,6.7,0.9c-1.1-1.3-2.4-2.4-3.9-3.2
				C306.4,242.7,302.4,242.7,302.4,242.7L302.4,242.7z"/>
			<path class="st4" d="M315.1,230.1c-0.8,1.4-1.2,3-1.2,4.6c0.1,2.4,1.7,5.1,1.7,5.1s1.1-3,1-5.5
				C316.5,232.8,316,231.3,315.1,230.1L315.1,230.1z"/>
			<path class="st4" d="M320,233.2c0,0-2.3,3.1-2.6,6.2c-0.3,3.1,1.3,6.4,1.3,6.4s2.8-2.8,3.1-5.9C322.1,236.7,320,233.2,320,233.2
				L320,233.2z"/>
			<path class="st4" d="M313.7,262.2c0.3,0.9,0.7,1.6,1.2,2.3c0.8,0.9,1.6,1.7,2.6,2.5c1.2-0.3,2.4-0.3,3.5-0.1
				c2,0.4,4.6,2.2,4.6,2.2s-2.8-4.2-5.7-5.8C318,262.3,315.9,262,313.7,262.2L313.7,262.2z"/>
			<path class="st4" d="M313.4,269.4c0,0,3.6-1.6,6.6-1.2c3,0.4,5.7,2.8,5.7,2.8s-4,1.4-7,1C316.7,271.7,314.9,270.8,313.4,269.4
				L313.4,269.4z"/>
			<path class="st4" d="M328.8,252.6c0,0-3.2,3.4-3.5,6.4c-0.3,2.9,2.6,5.7,2.6,5.7c-0.1-1.1,0-2.1,0.4-3.1c0.4-0.9,0.9-1.8,1.5-2.6
				c0.3-0.9,0.3-1.8,0.3-2.7C329.8,254.9,329.4,253.7,328.8,252.6L328.8,252.6z"/>
			<path class="st4" d="M333.4,256.5c0,0-3,3.1-3.8,6.3c-0.8,3.3,0.6,6.8,0.6,6.8s2.8-2.2,3.6-5.4
				C334.5,260.9,333.4,256.5,333.4,256.5L333.4,256.5z"/>
			<path class="st4" d="M341,276.3c0.8,1.7,1.4,3.4,1.7,5.3c0.3,2.4,0,3.2,0,3.2s-1.4,1.4-2.1,2.2c-0.8,1.1-0.9,3-0.9,3
				s-2.8-4.2-2.4-7.3C337.7,279.5,341,276.3,341,276.3L341,276.3z"/>
			<path class="st4" d="M346.9,282.9c0,0-3.6,2.4-5.1,4.9c-0.9,1.5-1.1,3.3-0.7,5c1.7-0.2,3.2-1.2,4-2.7
				C346.6,287.6,346.9,282.9,346.9,282.9L346.9,282.9z"/>
			<path class="st4" d="M323,293c0,0,5.2-0.1,8.5,0.6c3.2,0.8,4.4,2.5,4.4,2.5s-3.6,1.7-6.8,0.9C325.8,296.3,323,293,323,293
				L323,293z"/>
			<path class="st4" d="M322.1,286.8c0,0,2.4,3.7,5.4,5c4.2,1.8,9.1,0.9,9.1,0.9s-2.7-3.3-6.3-4.7
				C326.7,286.6,322.1,286.8,322.1,286.8L322.1,286.8z"/>
		</g>
		<path d="M501.8,214.7l0.7,1.4c-0.7,0.3-1.3,0.7-1.6,1.4c-0.5,1,0.3,2.4,0.3,2.4s-5.8-0.5-6.7,0.1c-0.8,0.5,0.3,4.5-0.2,7.9
			c-0.7,4.7-2.6,4.3-2.7,5.2c-0.1,0.9,0.7,2.3,0.7,2.3s-1.1,0.3-1.3,0.8c-0.4,0.7,0.3,2.1-0.2,3c-2.5,4.9-6.2,12.2-8.7,17
			c-0.3,0.7-1.3,0.9-1.7,1.8c-0.2,0.7-0.3,1.4-0.1,2.1c0,0-1.6,0.1-2.2,1.2c-0.4,0.9-0.4,1.8-0.2,2.8c-0.7,0.1-1.2,0.5-1.5,1.1
			c-0.5,1.1,0.4,1.6,0.1,2.1c-3.3,6.5-7.2,14.1-9.5,18.7c-0.9,1.7-3.9,2.1-5.7,5.5c-1,1.9-0.7,4.3,0.7,5.9c0,0-2.5,0.2-3.2,1.6
			c-0.7,1.4-0.1,3.4,1.7,4.3c1.8,0.9,3.8,0.2,4.5-1.2c0.7-1.3-0.7-3.5-0.7-3.5c2.2,0.2,4.2-0.9,5.2-2.9c1.8-3.5,0.3-6.1,1.1-7.8
			c2.4-4.6,6.3-12.3,9.5-18.7c0.2-0.5,1.2-0.1,1.8-1.1c0.3-0.6,0.3-1.3,0-1.9c0.9-0.4,1.6-1,2.1-1.8c0.6-1.1-0.3-2.5-0.3-2.5
			c0.7-0.2,1.2-0.7,1.6-1.3c0.5-0.9,0.1-1.8,0.5-2.5c2.5-4.8,6.2-12.1,8.7-17c0.5-0.9,1.9-1.2,2.3-1.9c0.2-0.5-0.1-1.5-0.1-1.5
			s1.6-0.2,2.3-0.7c0.7-0.6-0.7-1.9,2.7-5.3c2.4-2.4,6.3-3.8,6.3-4.8c-0.1-1.1-3.9-5.4-3.9-5.4s1.6-0.1,2.1-1.1
			c0.3-0.7,0.4-1.4,0.2-2.1l1.6-0.3l0-7.5L501.8,214.7z M449.4,319.5c-0.3,0.5-0.3,1.1,0,1.7c0,0-1.9-0.6-2.6-0.3
			c-0.6,0.3,0,9.3,0,9.3s7.6-4.8,7.5-5.5c-0.1-0.7-1.7-1.9-1.7-1.9c0.6-0.1,1.1-0.4,1.3-1c0.3-0.5,0.3-1.9-1.4-2.8
			c-0.5-0.3-1.1-0.4-1.7-0.4C450.3,318.6,449.7,319,449.4,319.5L449.4,319.5z"/>
		<g>
			<path class="st1" d="M503.2,215l3.6,1.8l-0.1-4.3L503.2,215z"/>
			<path class="st1" d="M501.8,217.6c-0.6,1-0.4,2.3,0.6,2.9c1,0.6,2.3,0.4,2.9-0.6c0.6-1,0.4-2.3-0.6-2.9c-0.1,0-0.1-0.1-0.2-0.1
				c-0.4-0.2-0.8-0.3-1.2-0.2C502.7,216.7,502.1,217.1,501.8,217.6L501.8,217.6z"/>
			<path class="st1" d="M495.6,221c-0.4,0.2,0.1,3.5,0,6.3c-0.1,2.6-0.9,3.3-1.4,4.2c-0.4,0.8-1.9,1.8-1.9,1.8l1.3,1.3
				c0,0,0.8-1.3,2.1-3.8c1.5-3,1.5-8.4,1.9-8.7c1.2-0.4,2.4-0.8,3.6-1c0,0-2.9-0.2-4.5-0.1C496.3,220.9,496,220.9,495.6,221z"/>
			<path class="st1" d="M496,236c0.6-1.4,1.2-2.7,1.9-4c1.8-3.5,5.5-6,5.6-6.6c0.1-0.6-1.3-3.7-1.3-3.7s-3.3,0.6-3.8,1.1
				c-0.5,0.4-0.3,5-2,8.4c-0.7,1.4-1.4,2.7-2.2,3.9L496,236z"/>
			<path class="st1" d="M504.5,225.5c0,0.5-4.4,3.7-5.9,6.6c-1.3,2.5-1.8,3.9-1.8,3.9l1.8,0.3c0,0-0.1-1.8,0.3-2.6
				c0.5-0.9,0.6-2,2.6-3.6c2.2-1.7,5.1-3.2,5.1-3.7c0-0.4-3.3-4.5-3.3-4.5C503.7,223.2,504.1,224.4,504.5,225.5L504.5,225.5z"/>
			<path class="st1" d="M491.6,245c2.6-5.2,3.4-5.5,3.8-6.2c0.4-0.7,0.3-1.6-0.9-2.2c-0.3-0.2-0.7-0.3-1.1-0.2
				c-0.5,0.1-1,0.4-1.2,0.8c-0.3,0.7-0.2,1.5-2.8,6.7l-6,11.7c-0.3,0.6-0.1,1.4,0.5,1.7c0,0,0,0,0,0l0,0c0,0,0.1,0,0.1,0
				c0.6,0.3,1.3,0.1,1.6-0.5c0,0,0-0.1,0.1-0.1L491.6,245z"/>
			<path class="st1" d="M481,258.5c-0.3,0.6,0.2,1.6,1.3,2.1c1,0.5,2.1,0.4,2.5-0.2c0.3-0.6-0.3-1.6-1.3-2.1c-0.5-0.2-1-0.4-1.5-0.3
				C481.6,258,481.2,258.2,481,258.5z"/>
			<path class="st1" d="M478.8,261.8c-0.4,0.8,0.2,2,1.5,2.7c1.2,0.6,2.6,0.5,3-0.4c0.4-0.8-0.2-2-1.5-2.7c-0.4-0.2-0.9-0.4-1.4-0.4
				C479.8,261,479.2,261.3,478.8,261.8L478.8,261.8z"/>
			<path class="st1" d="M477.4,265.6c-0.3,0.6,0.2,1.6,1.3,2.1c1,0.5,2.1,0.4,2.5-0.2c0.3-0.6-0.2-1.6-1.3-2.1
				c-0.5-0.2-1-0.4-1.5-0.3C478,265,477.6,265.2,477.4,265.6L477.4,265.6z"/>
			<path class="st1" d="M476.5,269.1c0,0-6.6,13.1-9,17.7c-0.8,1.5-3.9,2.4-5.1,4.8c-1.2,2.4-0.4,4.7,1.3,5.6c1.6,0.8,4,0.2,5.3-2.2
				c1.2-2.4,0.1-5.5,0.9-7c2.3-4.6,9-17.7,9-17.7c0.4-0.6,0.2-1.3-0.4-1.7c0,0-0.1,0-0.1-0.1c-0.2-0.1-0.5-0.2-0.8-0.1
				C477.1,268.5,476.7,268.7,476.5,269.1z"/>
			<path class="st1" d="M459.7,299.5c-0.5,1,0.1,2.3,1.3,2.9c1.2,0.6,2.6,0.3,3.1-0.7c0.5-1-0.1-2.3-1.3-2.9
				c-0.4-0.2-0.9-0.3-1.4-0.3C460.7,298.5,460,298.9,459.7,299.5L459.7,299.5z"/>
			<path class="st1" d="M450.8,319.5c-0.3,0-0.6,0.1-0.8,0.4c-0.3,0.5,0.3,1.3,1.2,1.8c0.9,0.5,1.9,0.4,2.1-0.1
				c0.3-0.5-0.3-1.3-1.2-1.8C451.7,319.6,451.3,319.5,450.8,319.5L450.8,319.5z"/>
			<path class="st1" d="M447.7,321.9v6.5l5.3-3.8C451.8,322.9,449.8,321.8,447.7,321.9L447.7,321.9z"/>
		</g>
	</g>
	<g>
		<path class="st1" d="M451,178.2c0-3.5,4.6-7,4.6-7H342.3c0,0,4.6,3.5,4.6,7v84.4c0,1.9,0.6,3.7,1.8,5.1c1.1,1.5,3.4,3.6,5.8,5.2
			c7.4,4.8,19.9,9.9,29.3,14.2c7.8,3.6,11,5,15.1,10.1c4.1-5.1,7.3-6.5,15.2-10.1c9.4-4.3,21.9-9.4,29.3-14.2
			c2.4-1.6,4.7-3.7,5.8-5.2c1.2-1.4,1.8-3.2,1.8-5.1L451,178.2z"/>
		<path class="st0" d="M349.6,226v-47.7c0-1.6-0.5-3.1-1.4-4.3h101.5c-0.9,1.3-1.4,2.8-1.4,4.3l0,47.7l-49.4,15L349.6,226z"/>
		<path class="st2" d="M448.4,226l-30.6-0.6h-37.6l-30.6,0.6v36.6c0,1.8,1.9,6.2,12.9,11.6c18.2,9.1,32.2,13.3,36.4,18.5
			c4.2-5.2,18.2-9.4,36.4-18.5c11-5.5,12.9-9.8,12.9-11.6L448.4,226z"/>
		<g>
			<path d="M417.1,224c0,0,17.6-4.4,17.6-23.3c0-14.7-17.7-22-18.2-25.5c-1.7,6.1,5.9,14.5,5.9,24.4c0,12.9-9.5,13.5-9.5,13.5
				c-2.2,0-3.1,1.6-4,1.6c-1.9-0.2-2.7-2.6-4.6-2.6c-1.7,0-3.1,2.7-5.4,2.7c-2.3,0-3.6-2.7-5.3-2.7c-1.8,0-2.7,2.4-4.6,2.6
				c-0.9,0-1.8-1.6-4-1.6c0,0-9.5-0.6-9.5-13.5c0-9.9,7.6-18.3,5.9-24.4c-0.5,3.5-18.2,10.8-18.2,25.5c0,18.9,17.6,23.3,17.6,23.3
				l-5,9.2c0,0,7.3,0.4,11.2,3.7c4.7,4,4.2,12.4,4.2,18.5c0,4.8-0.6,9.9-3.1,12c-3.3,2.8-5.6,3-5.6,6.3c0,2.8,2.1,3.3,5.6,5.1
				c4.4,2.3,4.2,5.5,10.8,5.5c6.6,0,6.4-3.1,10.8-5.5c3.5-1.8,5.6-2.4,5.6-5.1c0-3.3-2.3-3.5-5.6-6.3c-2.5-2.1-3.1-7.2-3.1-12
				c0-6.1-0.5-14.6,4.2-18.5c3.9-3.3,11.2-3.7,11.2-3.7L417.1,224z"/>
			<path d="M399,176.5l-3.1,8.7l-8.3-4l4,8.3l-8.7,3.1l8.7,3.1l-4,8.3l8.3-4l3.1,8.7l3.1-8.7l8.3,4l-4-8.3l8.7-3.1l-8.7-3.1l4-8.3
				l-8.3,4L399,176.5z"/>
			<path d="M380.2,225.4c0,0-10.9-2.7-15-8c-4.5,4-9.9,6.9-15.6,8.6c0,0,8.9,4,15.6,9.1C368.4,230.6,380.2,225.4,380.2,225.4
				L380.2,225.4z"/>
			<path d="M417.8,225.4c0,0,11.9,5.2,15,9.7c6.7-5.1,15.6-9.1,15.6-9.1c-5.8-1.7-11.1-4.7-15.6-8.6
				C428.7,222.7,417.8,225.4,417.8,225.4L417.8,225.4z"/>
			<path d="M384.7,237l-4.2,4.2l4.2,4.2l4.2-4.2L384.7,237z"/>
			<path d="M413.4,237l-4.2,4.2l4.2,4.2l4.2-4.2L413.4,237z"/>
			<path d="M383.6,261.7c0,2.7-0.1,5.5-0.5,8.2c0,0,6-1.8,7.2-7.8c0.6-2.8,1.2-13.3-1.7-15.1l-7.8-1.5
				C382.6,250.7,383.6,256.2,383.6,261.7L383.6,261.7z"/>
			<path d="M409.5,247c-2.9,1.8-2.3,12.3-1.7,15.1c1.2,6.1,7.2,7.8,7.2,7.8c-0.4-2.7-0.6-5.4-0.5-8.2c0-5.5,1-11.1,2.8-16.3
				L409.5,247z"/>
			<path d="M365.2,247.3c-2.7,0.6-4.3,3.3-3.7,6c0.1,0.4,0.3,0.9,0.5,1.3c-0.4-0.1-0.8-0.2-1.2-0.2c-0.2,0-0.3,0-0.5,0
				c-2.8,0.1-4.9,2.5-4.8,5.2c0.1,2.8,2.5,4.9,5.2,4.8c0.2,0,0.4,0,0.6-0.1c-0.2,0.3-0.4,0.7-0.6,1.1c-1,2.6,0.2,5.5,2.8,6.6
				s5.5-0.2,6.6-2.8l0,0c0.1-0.4,0.3-0.8,0.3-1.2c0.2,0.3,0.5,0.6,0.8,0.9c2.1,1.8,5.3,1.6,7.1-0.5c1.8-2.1,1.6-5.3-0.5-7.1
				c-0.3-0.3-0.7-0.5-1.1-0.7c0.4-0.1,0.8-0.3,1.1-0.5c2.3-1.5,3.1-4.6,1.6-6.9c-1-1.6-2.7-2.5-4.6-2.3c-0.8,0.1-1.6,0.3-2.4,0.8
				c-0.3,0.2-0.7,0.5-1,0.8c0-2.8-2.3-5-5.1-5C366,247.2,365.6,247.2,365.2,247.3L365.2,247.3z"/>
			<path d="M418.6,261.9c0.5,5.1,4.7,9.4,9.8,10.6c-0.9-1.4-1.5-3.1-1.6-4.7c-0.6-6.1,4.1-11,10.5-11c1,0,2,0.1,3,0.4
				c-2.4-3.9-6.6-6.2-11.2-6.3C422.6,250.9,417.9,255.8,418.6,261.9z"/>
		</g>
		<g>
			<path class="st1" d="M373,199.6c0,9.7,5.2,15.4,12.1,15.4c1.3,0,2.8,1.8,4,1.8c2,0,3.4-2.2,4.6-2.2c1.6,0,2.6,2.5,5.3,2.5
				c2.7,0,3.8-2.5,5.4-2.5c1.2,0,2.6,2.2,4.6,2.2c1.2,0,2.7-1.8,4-1.8c6.9,0,12.1-5.7,12.1-15.4c0-7.9-6.6-17.5-5.9-19.1
				c0,0,12.9,9.3,12.9,20.2c0,17.6-17.9,22-17.9,22l4,9.1c0,0-5.5,0.8-8.9,3.6c-4.5,3.6-4.6,13.5-4.6,20.1c0,7.8,0.3,11.1,3.1,13.3
				c3,2.2,5.2,2.7,5.2,5c0,2-2.3,2.8-5.3,4.1c-3.4,1.5-3.8,4.1-8.7,4.1c-5,0-5.3-2.6-8.7-4.1c-3-1.3-5.3-2.1-5.3-4.1
				c0-2.3,2.2-2.8,5.2-5c2.8-2.1,3.1-5.4,3.1-13.3c0-6.6-0.1-16.5-4.6-20.1c-3.4-2.7-8.9-3.6-8.9-3.6l4-9.1c0,0-17.9-4.4-17.9-22
				c0-10.9,12.9-20.2,12.9-20.2C379.7,182.1,373,191.7,373,199.6L373,199.6z M392.2,272.3c-3.5,0-5.7,0.7-5.7,1.8
				c0,1.1,2.2,1.8,5.7,1.8c0.9,0,2-0.5,2-1.8C394.2,273.1,393.4,272.3,392.2,272.3C392.3,272.3,392.3,272.3,392.2,272.3L392.2,272.3
				z M405.8,272.3c-1-0.1-1.9,0.7-2,1.7v0c0,0,0,0.1,0,0.1c0,1.2,1.1,1.8,2,1.8c3.5,0,5.7-0.7,5.7-1.8
				C411.5,273.1,409.3,272.3,405.8,272.3L405.8,272.3z"/>
			<path class="st1" d="M399,182.4l2,5.6l5.3-2.5l-2.5,5.3l5.5,2l-5.5,2l2.5,5.3l-5.3-2.5l-2,5.5l-2-5.5l-5.3,2.5l2.5-5.3l-5.5-2
				l5.5-2l-2.5-5.3l5.3,2.5L399,182.4L399,182.4z"/>
			<path class="st1" d="M354.8,226.1c0,0,6.7,3.4,10.1,6.3l0.2,0.2l0.1-0.1c3.2-3.7,9.1-6.8,9.1-6.8s-5.7-1.6-9.3-5.7
				C361.3,223.9,354.8,226.1,354.8,226.1z"/>
			<path class="st1" d="M443.2,226.1c0,0-6.7,3.4-10.1,6.3l-0.2,0.2l-0.1-0.1c-3.2-3.7-9.1-6.8-9.1-6.8s5.7-1.6,9.3-5.7
				C436.7,223.9,443.2,226.1,443.2,226.1z"/>
			<path class="st1" d="M384.7,239l2.2,2.2l-2.2,2.2l-2.2-2.2L384.7,239z"/>
			<path class="st1" d="M413.4,239l2.2,2.2l-2.2,2.2l-2.2-2.2L413.4,239z"/>
			<path class="st1" d="M387.7,248.7c1.5,2.1,1.3,5.6,1.3,10.4c0.1,2.7-1.3,5.3-3.6,6.7c0-11.6-1.2-14.4-1.8-18L387.7,248.7z"/>
			<path class="st1" d="M414.5,247.8c-0.6,3.5-1.8,6.3-1.8,18c-2.3-1.4-3.7-4-3.6-6.7c0-4.8-0.3-8.3,1.3-10.4L414.5,247.8
				L414.5,247.8z"/>
			<path id="leaf" class="st1" d="M370.5,252.2c0.1,0.4,0.1,0.9,0.1,1.3c0,0.3-0.1,0.7-0.2,1c-2.2-0.8-4.6-0.1-6.2,1.6
				c-0.3-0.2-0.5-0.5-0.7-0.8c-0.2-0.4-0.4-0.7-0.5-1.1c-0.5-2.1,0.8-4.2,2.8-4.7C367.8,248.9,370,250.1,370.5,252.2L370.5,252.2z"
				/>
			<path id="leaf-2" class="st1" d="M376.3,259.5c-0.4,0.2-0.8,0.4-1.2,0.5c-0.3,0.1-0.7,0.1-1,0.1c0.1-2.3-1.3-4.5-3.4-5.4
				c0.1-0.3,0.3-0.6,0.6-0.9c0.3-0.3,0.6-0.6,0.9-0.8c1.8-1.1,4.2-0.6,5.4,1.2C378.7,256,378.1,258.4,376.3,259.5L376.3,259.5z"/>
			<path id="leaf-3" class="st1" d="M371.2,267.3c-0.3-0.3-0.6-0.6-0.8-1c-0.2-0.3-0.3-0.6-0.4-0.9c2.2-0.7,3.8-2.6,4.1-4.9
				c0.4,0,0.7,0.1,1.1,0.2c0.4,0.1,0.8,0.4,1.1,0.6c1.6,1.4,1.9,3.9,0.5,5.5C375.3,268.5,372.8,268.7,371.2,267.3L371.2,267.3z"/>
			<path id="leaf-4" class="st1" d="M362.2,264.8c0.2-0.4,0.4-0.8,0.7-1.1c0.2-0.3,0.5-0.5,0.8-0.7c1.3,1.9,3.7,2.8,5.9,2.3
				c0.1,0.4,0.1,0.7,0.1,1.1c0,0.4-0.1,0.8-0.3,1.2c-0.8,2-3.1,3-5.1,2.2C362.3,269.1,361.4,266.8,362.2,264.8L362.2,264.8z"/>
			<path id="leaf-5" class="st1" d="M361.7,255.5c0.4,0,0.9,0.1,1.2,0.3c0.3,0.1,0.6,0.3,0.9,0.5c-1.4,1.8-1.6,4.4-0.4,6.4
				c-0.3,0.2-0.6,0.3-1,0.4c-0.4,0.1-0.8,0.2-1.3,0.1c-2.2-0.2-3.8-2-3.6-4.2C357.7,257,359.6,255.4,361.7,255.5L361.7,255.5z"/>
			<circle class="st1" cx="368.4" cy="259.9" r="3.8"/>
			<path class="st1" d="M434.6,254.8c-6.3,1.2-10.8,6.7-10.1,13.2c-2-1.7-3.5-3.9-3.7-6.3c-0.5-4.8,3-8.5,8.2-8.5
				C431,253.2,433,253.7,434.6,254.8L434.6,254.8z"/>
		</g>
		<path id="_136445216" d="M453.5,172H344.5c1.4,1.5,3.3,3.8,3.3,6.2v73.3h0v11.1h0c0,0.9,0.1,1.7,0.4,2.6c0.3,0.7,0.7,1.4,1.2,2
			l0,0c1.1,1.4,2.3,2.6,3.7,3.6c0.3,0.2,0.6,0.5,0.9,0.7c0.3,0.2,0.6,0.4,1,0.7l0,0c5.8,3.8,14.7,7.7,22.8,11.3c2.3,1,4.5,2,6.4,2.8
			l0,0v0l0.2,0.1h0c7.4,3.4,10.7,4.9,14.6,9.4c3.9-4.6,7.2-6.1,14.7-9.5l0,0l0.1,0c1.9-0.9,4.1-1.8,6.4-2.8
			c8.1-3.6,17-7.6,22.8-11.3l0,0c1.6-1.1,3.1-2.3,4.5-3.7c0.2-0.2,0.4-0.5,0.6-0.7c0.2-0.2,0.3-0.4,0.5-0.6l0,0l0,0l0,0
			c0.5-0.6,0.9-1.3,1.2-2c0.3-0.8,0.4-1.7,0.4-2.5h0v-11.1h0v-73.3C450.2,175.8,452,173.5,453.5,172L453.5,172z M451.9,178.2v73.3h0
			v11.1h0c0,1.1-0.2,2.1-0.5,3.1c-0.3,0.9-0.8,1.7-1.4,2.4l0,0c-0.2,0.2-0.4,0.5-0.6,0.7c-0.2,0.2-0.4,0.5-0.7,0.8
			c-1.4,1.5-3.1,2.8-4.8,3.9l0,0c-5.9,3.8-14.9,7.8-23.1,11.4c-2.1,0.9-4.2,1.9-6.3,2.8l-0.1,0h0c-7.7,3.5-10.8,4.9-14.7,9.8
			l-0.7,0.8l-0.7-0.8c-3.9-4.9-7.1-6.3-14.7-9.7l0,0l-0.2-0.1l0,0l0,0l0,0c-2.1-1-4.2-1.9-6.3-2.8c-8.2-3.6-17.2-7.6-23.1-11.4l0,0
			l0,0l0,0c-0.3-0.2-0.7-0.5-1-0.7c-0.3-0.2-0.7-0.5-1-0.8c-1.5-1.1-2.8-2.5-4-3.9h0c-0.6-0.7-1.1-1.6-1.4-2.4
			c-0.4-1-0.5-2.1-0.5-3.1h0v-11.1h0v-73.3c0-3.1-4.3-6.3-4.3-6.4v-1.5h114.4v1.5C456.2,171.9,451.9,175.1,451.9,178.2L451.9,178.2z
			 M449.3,173L449.3,173l0.4,0l1.8,0l-1.1,1.4c-0.8,1.1-1.2,2.5-1.2,3.8v73.3h0v11.1h0c0,1.5-1.1,4.4-6,8l0,0
			c-0.9,0.7-2,1.4-3.2,2.1c-1.2,0.7-2.6,1.5-4.2,2.3l0,0l0,0v0c-6.6,3.3-12.7,6-18,8.3c-9.1,4-15.6,6.8-18.2,10l0,0l0,0l-0.7,0.8
			l-0.6-0.8c-2.5-3.1-9.1-6-18.2-10c-5.3-2.3-11.4-5-18-8.3v0l0,0l0,0c-4.7-2.3-7.8-4.5-9.8-6.3c-0.4-0.4-0.8-0.7-1.1-1.1
			c-2-2.2-2.6-4-2.6-5h0v0h0v-11.1h0v-73.3c0-1.4-0.4-2.7-1.2-3.8l-1.1-1.4h3.6v0h97.7v0L449.3,173L449.3,173z M447.8,174.7
			L447.8,174.7l-97.7,0v0h-0.4c0.5,1.1,0.8,2.3,0.8,3.5v73.3h0v11.1h0v0h0c0,0.8,0.4,2.1,2.1,3.9c0.3,0.3,0.6,0.6,1,1
			c1.9,1.7,4.8,3.8,9.4,6v0l0,0l0,0c6.6,3.3,12.7,6,17.9,8.2c8.6,3.8,15,6.6,18.1,9.7c3.1-3.1,9.5-6,18.1-9.7
			c5.2-2.3,11.3-4.9,17.9-8.3l0,0l0,0v0c1.5-0.8,2.9-1.5,4.1-2.2c1.2-0.7,2.2-1.4,3.1-2h0c4.4-3.2,5.3-5.5,5.3-6.7h0v-11.1h0v-73.3
			c0-1.2,0.3-2.4,0.8-3.5L447.8,174.7L447.8,174.7z"/>
	</g>
</g>
</svg>
