<?xml version="1.0" encoding="utf-8"?>
<!-- Generator: Adobe Illustrator 24.0.1, SVG Export Plug-In . SVG Version: 6.00 Build 0)  -->
<svg version="1.1" id="flag-icons-mn" xmlns="http://www.w3.org/2000/svg" xmlns:xlink="http://www.w3.org/1999/xlink" x="0px"
	 y="0px" viewBox="0 0 800 480" style="enable-background:new 0 0 800 480;" xml:space="preserve">
<style type="text/css">
	.st0{fill:#C4272F;}
	.st1{fill:#015197;}
	.st2{fill:#F9CF02;}
	.st3{fill-rule:evenodd;clip-rule:evenodd;fill:#F9CF02;}
	.st4{fill:#F9CF02;stroke:#C4272F;stroke-width:5.1692;}
	.st5{fill:none;stroke:#C4272F;stroke-width:5.1692;}
</style>
<path class="st0" d="M0,0h800v480H0V0z"/>
<path class="st1" d="M266.6,0h266.8v480H266.6V0z"/>
<g>
	<circle class="st2" cx="133.3" cy="170.8" r="47.6"/>
	<circle class="st0" cx="133.3" cy="149.1" r="52"/>
	<path class="st3" d="M111.7,92.8c0,11.9,9.7,21.6,21.6,21.6c11.9,0,21.6-9.7,21.6-21.6c0-8.6-5.4-9.8-5.4-12.9
		c0-3.3,3.3-7.6-3.3-13.1c3.3,5.4-2.2,6.5-2.2,12c0,5.4,2.2,5.4,2.2,9.7c-0.4,2.4-2.7,3.9-5.1,3.5c-1.8-0.3-3.2-1.7-3.5-3.5
		c0-4.2,4.2-8.6,4.2-15c0-6.7-1-8.8-4.2-14.1c-3.3-5.4-8.7-9.8-4.4-14.1c-6.5,2.2-3.3,10.9-3.3,16.3s-4.4,8.6-4.4,15
		c0,6.4,3.3,7.8,3.3,12c-0.4,2.4-2.7,3.9-5.1,3.5c-1.8-0.3-3.2-1.7-3.5-3.5c0-4.2,2.2-4.2,2.2-9.7c0-5.4-5.4-6.5-2.2-12
		c-6.5,5.4-3.3,9.8-3.3,13.1C117.1,83.2,111.7,84.1,111.7,92.8z"/>
	<circle class="st2" cx="133.3" cy="157.7" r="34.6"/>
	<path class="st2" d="M38.1,227v207.7h43.3V227H38.1z M185.3,227v207.7h43.3V227H185.3z M90.1,261.6v17.3h86.5v-17.3L90.1,261.6z
		 M90.1,382.7v17.4h86.5v-17.3L90.1,382.7z M90.1,227h86.5l-43.3,26L90.1,227z M90.1,408.8h86.5l-43.3,25.7L90.1,408.8z"/>
	<circle class="st4" cx="133.3" cy="330.9" r="45.8"/>
	<path class="st5" d="M133.3,284.9c12.7,0,23,10.3,23,23c0,12.7-10.3,23-23,23c-12.7-1-23.7,8.5-24.7,21.2
		c-1,12.7,8.5,23.7,21.2,24.7c1.2,0.1,2.4,0.1,3.5,0"/>
	<circle class="st0" cx="133.3" cy="307.9" r="8.7"/>
	<circle class="st0" cx="133.3" cy="353.7" r="8.7"/>
</g>
</svg>
