<?xml version="1.0" encoding="utf-8"?>
<!-- Generator: Adobe Illustrator 24.0.1, SVG Export Plug-In . SVG Version: 6.00 Build 0)  -->
<svg version="1.1" id="flag-icons-mo" xmlns="http://www.w3.org/2000/svg" xmlns:xlink="http://www.w3.org/1999/xlink" x="0px"
	 y="0px" viewBox="0 0 800 480" style="enable-background:new 0 0 800 480;" xml:space="preserve">
<style type="text/css">
	.st0{fill:#00785E;}
	.st1{fill:#FBD116;}
	.st2{fill:#FFFFFF;}
</style>
<path class="st0" d="M0,0h800v480H0V0z"/>
<polygon class="st1" points="409.6,120 425.1,108.7 405.9,108.7 400,90.5 394.1,108.7 375,108.7 390.4,119.9 384.5,138.2 400,126.9 
	415.5,138.2 "/>
<g>
	<polygon class="st1" points="301.8,177.4 299.2,164.4 293.6,176.4 280.5,174.8 290.2,183.8 284.6,195.8 296.2,189.4 305.9,198.4 
		303.3,185.4 314.9,179 	"/>
	<polygon class="st1" points="338.8,143.2 352.1,143.4 341.5,135.4 345.8,122.8 335,130.4 324.4,122.4 328.3,135.1 317.4,142.8 
		330.7,143 334.5,155.7 	"/>
</g>
<g>
	<path class="st2" d="M306.4,339.9c2.5,2.2,5.1,4.2,7.8,6.2h171.6c2.7-2,5.3-4,7.8-6.2H306.4z"/>
	<path class="st2" d="M323.3,352.4c4.6,2.9,9.5,5.6,14.4,8h124.6c4.9-2.4,9.8-5.1,14.4-8H323.3z"/>
	<path class="st2" d="M346.9,364.4c16.9,6.7,34.9,10.1,53.1,10.1c18.2,0,36.2-3.4,53.1-10.1H346.9z"/>
	<path class="st2" d="M293.7,327.6c1.2,1.4,2.5,2.7,3.8,4h205c1.3-1.3,2.6-2.6,3.8-4H293.7z"/>
	<path class="st2" d="M509.5,275.6c-15.1,14.7-35.3,22.8-56.4,22.8c-4.9,0-9.7-0.5-14.4-1.3c36.1,3,69.8-18.3,82.6-52.2
		c-11.6-4.8-24.1-7.3-36.7-7.3c-22.3,0-43.9,7.9-61,22.2c17.9-18.7,42.7-29.4,68.6-29.4c1.7-3.3,4-6.3,6.8-8.9
		c-27.6-1.3-54.4,9.4-73.4,29.4c10-13.4,15.9-30.1,15.9-48.1c0-14-3.6-27.8-10.5-40c-1.5,4.9-4,9.3-7.5,13c5,10.5,7.8,22.3,7.8,34.7
		c0,17.9-6,35.3-17,49.5c8.9-13.3,13.7-29,13.7-45c0.1-7.8-1-15.6-3.2-23.1c-5.8-19.6-18.2-32.3-24.8-38.3c-6.6,6-19,18.7-24.8,38.3
		c-2.2,7.5-3.3,15.3-3.2,23.1c0,16,4.8,31.7,13.7,45c-11-14.2-17-31.6-17-49.5c0-12.4,2.8-24.2,7.8-34.7c-3.5-3.7-6-8.1-7.5-13
		c-6.9,12.2-10.5,26-10.5,40c0,18,5.9,34.7,15.9,48.1c-19-20-45.8-30.7-73.4-29.4c2.8,2.6,5.1,5.6,6.8,8.9
		c25.9,0,50.7,10.7,68.6,29.4c-17.1-14.3-38.7-22.2-61-22.2c-12.6,0-25.1,2.5-36.7,7.3c12.8,33.9,46.5,55.2,82.6,52.2
		c-4.7,0.8-9.5,1.3-14.4,1.3c-21.1,0-41.3-8.1-56.4-22.8h-0.1c-3.1,1.2-6.4,1.8-9.7,2c15.4,17.5,37.5,27.5,60.8,27.5
		c22.1,0,43.2-9,58.5-25c15.3,16,36.4,25,58.5,25c23.3,0,45.4-10,60.8-27.5c-3.3-0.2-6.6-0.8-9.7-2H509.5z"/>
	<path class="st2" d="M432.5,307.9c-12.2-3.7-23.3-10.2-32.5-19c-9.2,8.8-20.3,15.3-32.5,19c-7.6,2.3-15.5,3.5-23.5,3.5h-63.1
		c1.8,2.7,3.8,5.4,5.8,8h61c20,0,38.2-7.2,52.3-19.1c14.1,11.9,32.3,19.1,52.3,19.1h61c2-2.6,4-5.3,5.8-8H456
		C448,311.4,440.1,310.2,432.5,307.9z"/>
</g>
<g>
	<polygon class="st1" points="471.7,135.1 475.6,122.4 465,130.4 454.2,122.8 458.5,135.4 447.9,143.4 461.2,143.2 465.5,155.7 
		469.3,143 482.6,142.8 	"/>
	<polygon class="st1" points="509.8,183.8 519.5,174.8 506.4,176.4 500.8,164.4 498.2,177.4 485.1,179 496.7,185.4 494.1,198.4 
		503.8,189.4 515.4,195.8 	"/>
</g>
</svg>
