<?xml version="1.0" encoding="utf-8"?>
<!-- Generator: Adobe Illustrator 24.0.1, SVG Export Plug-In . SVG Version: 6.00 Build 0)  -->
<svg version="1.1" id="flag-icons-mp" xmlns="http://www.w3.org/2000/svg" xmlns:xlink="http://www.w3.org/1999/xlink" x="0px"
	 y="0px" viewBox="0 0 800 480" style="enable-background:new 0 0 800 480;" xml:space="preserve">
<style type="text/css">
	.st0{fill-rule:evenodd;clip-rule:evenodd;fill:#0071BC;}
	.st1{fill-rule:evenodd;clip-rule:evenodd;fill:#FFFFFF;stroke:#000000;stroke-width:1.9;}
	.st2{fill-rule:evenodd;clip-rule:evenodd;fill:#217900;stroke:#000000;stroke-width:1.9;stroke-linejoin:round;}
	.st3{fill-rule:evenodd;clip-rule:evenodd;fill:#FFD200;stroke:#EF8A10;stroke-width:1.9;}
	.st4{fill-rule:evenodd;clip-rule:evenodd;fill:#FFD200;stroke:#EF8A10;stroke-width:2.5;}
	.st5{fill-rule:evenodd;clip-rule:evenodd;fill:#8C8A8C;stroke:#000000;stroke-width:1.9;}
	.st6{fill:none;stroke:#000000;stroke-width:1.9;stroke-linecap:round;}
	.st7{fill:none;stroke:#000000;stroke-width:1.9;}
	.st8{fill:none;stroke:#000000;}
	.st9{fill:none;stroke:#6B18B5;stroke-width:1.9;stroke-linejoin:round;}
	.st10{fill:none;stroke:#6B18B5;stroke-linejoin:round;}
	.st11{fill-rule:evenodd;clip-rule:evenodd;fill:#DE2010;stroke:#000000;stroke-width:1.5;}
	.st12{fill-rule:evenodd;clip-rule:evenodd;fill:#FFE300;}
	.st13{fill-rule:evenodd;clip-rule:evenodd;fill:#6B18B5;}
	.st14{fill-rule:evenodd;clip-rule:evenodd;fill:#FFD200;stroke:#EF8A10;}
	.st15{fill-rule:evenodd;clip-rule:evenodd;fill:#217900;stroke:#000000;stroke-width:2.3;stroke-linejoin:round;}
	.st16{fill-rule:evenodd;clip-rule:evenodd;fill:#F7DF73;stroke:#000000;stroke-width:2.5;stroke-linejoin:round;}
	.st17{fill-rule:evenodd;clip-rule:evenodd;fill:#8C1800;}
	.st18{fill-rule:evenodd;clip-rule:evenodd;fill:#8C1800;stroke:#8C1800;stroke-width:2.5;}
	.st19{fill:none;stroke:#8C1800;stroke-width:3;stroke-linecap:round;}
	.st20{fill:none;stroke:#8C1800;stroke-width:2.8;stroke-linecap:round;}
	.st21{fill:none;stroke:#8C1800;stroke-width:2.5;stroke-linecap:round;}
	.st22{fill:none;stroke:#8C1800;stroke-width:2.3;stroke-linecap:round;}
	.st23{fill:none;stroke:#8C1800;stroke-width:1.4;stroke-linecap:round;}
	.st24{fill-rule:evenodd;clip-rule:evenodd;fill:#F7DF73;stroke:#000000;stroke-width:1.5;stroke-linejoin:round;}
	.st25{fill-rule:evenodd;clip-rule:evenodd;fill:#8C1800;stroke:#8C1800;stroke-width:1.5;}
	.st26{fill:none;stroke:#8C1800;stroke-width:1.8;stroke-linecap:round;}
	.st27{fill:none;stroke:#8C1800;stroke-width:1.7;stroke-linecap:round;}
	.st28{fill:none;stroke:#8C1800;stroke-width:1.5;stroke-linecap:round;}
	.st29{fill:none;stroke:#8C1800;stroke-width:0.8;stroke-linecap:round;}
	.st30{fill:#FFFFFF;stroke:#000000;stroke-width:1.9808;stroke-linecap:square;stroke-linejoin:round;stroke-miterlimit:4.6606;}
</style>
<path class="st0" d="M0,0h800v480H0V0z"/>
<path class="st1" d="M450,365.7c0,0,15.2-16.1,29.8-13c4.4-17,21-18.4,21-18.4s-1.7-18.7,19.5-22.8c0.6-12.7,13.5-23.3,13.5-23.3
	s-2.6-19.7,10.8-24.3c-8.2-15.6,2.8-27,2.7-27.3c-0.2-0.3-14-24.8-1.6-31.8c-13-11-8.8-23.4-8.8-23.4s-14.2-3.7-9.1-20.7
	c-11.7-2-14-20.9-14-20.9s-18,3.7-20.2-12c-12,1.9-13.2-9.8-13.4-9.8c-0.1,0-23.5,6.3-28.2-11.4c-9.1,4.7-13-3.7-13-3.7
	s-13,6.5-20.8-6c-15.5,9.7-24.2-0.4-24.2-0.4s-20.3,13.4-27,3c-12,12.2-22.8,7-22.8,7s-9,16-23.7,12c-3.3,14.9-20.2,15.2-20.2,15.2
	s1.8,13.1-18.4,16.7c-2.6,15.5-13.2,18-13.2,18s1,15.2-8.5,20c3.4,8.5-5.4,18.9-5.4,18.9s9.4,11.7-3.4,24.9
	c12.3,3.2,3.4,24.4,3.4,24.4s17,7.6,6.3,21.7c12.2,4,8.4,13.6,8.5,19.3c7.8,3.5,14.6,1.8,11.3,17.4c23.8,2.7,12.6,15.8,12.6,15.8
	s11,0.5,6.7,9.3c20.3-0.5,23.3,15.2,23.3,15.2s18.8-5,21.3,2.3s-8.2,56.7-8.2,56.7s-16,0-27.8-12.8c-27.8-0.7-21.6-19-22-19
	c-0.5,0-9.3,3.4-13.8-11.9c-18.6,3.8-18-11.8-18.2-12c-0.1-0.1-8.3-3.8-5.3-11.5c-19.1,1.7-17.7-17-17.7-17
	c-4.2-1.7-5.7-5.6-5.1-9.5c-2.5-0.9-19.5-1.2-10.7-23.6c-16.2-9.8-6.1-21-6.1-21s-22.4-11.6-5.1-25c-13-19,1-28.5,1-28.5
	s-17.9-18.1,0.3-31c-3-27.5,13.4-34.1,13.4-34.1s-8.6-22.4,14.8-31.8c1.5-22.7,17.9-23.3,17.9-23.3s0.4-18,26.2-16.2
	c5-16.1,22.5-12.9,22.5-12.9s5.4-19.5,29.3-10.1c12.1-23.7,30.2-11.6,30.2-11.6s11.4-7.4,17-5c7.3-12.5,22.8-0.6,32.7,1.9
	c3.7-1.5,16.6-11.2,26.5,1c13.2-8.5,24.5,7,24.5,7s18.1-9.2,26.6,11.8c38.5-3.5,33,21.7,33,21.7s30.2-6.9,23.6,23.3
	c27.6,1.9,24.8,20,24.8,20s17.4,13.2,9.8,25c15.5,0.8,9.8,15.7,9.8,15.7s11.9,4.6,2,23c22.7,18.1,4.4,36.2,4.3,36
	c-0.2-0.1,12.1,14.6,1,31.6c3.4,27-10.2,33.8-10.2,33.8s3.5,17.5-11.7,22.4c-0.3,20.5-19.7,23-19.7,23s5.2,9-14,18.3
	c-0.8,13.7-20.8,14.8-20.8,14.8s-1.9,25.2-27.4,18.4c-6.1,20.2-36,14.2-36.6,14c-0.5-0.3-5.7-43.4-5.7-43.5L450,365.7z"/>
<path class="st2" d="M265,124c0,0,6.4,5.6,5.2,14c-1.2,8.3-6,19.9-5,28.5c0.6,3.5,0.3,9.7,0.3,9.7s-5.7-8.2-5.8-17
	c-0.1-8.8,6.2-17.1,6.2-23.6s-1.1-11.7-1-11.5L265,124z M261.8,126.6c0,0-8.4,8-9.5,15.7c-0.8,4-1,22.7-1.2,31
	c-0.2,2.5-1.2,12.5-1.4,16.2c-0.3,3.6,6.1-6.2,6.5-14.3c-0.2-8.3-0.2-25.8,0.6-28.5c0.8-3.4,0.6-7.1,1.8-10.5L261.8,126.6
	L261.8,126.6z"/>
<g>
	<path class="st3" d="M446,100.5c0,0,10.8-5,14-14.4s-9.5-9.4-11.1-6.4c-1.7,3,1.4,10.3,0.6,12.3S444.3,98.6,446,100.5L446,100.5z"
		/>
	<path class="st4" d="M349.8,103.9c0,0,7-9.7,5.2-19.4c-1.9-9.6-12.8-3.6-12.8-0.2s6.2,8.3,6.5,10.4S347.4,103.1,349.8,103.9
		L349.8,103.9z M330.7,109.6c0,0,7-9.7,5.2-19.3c-1.8-9.7-12.8-3.7-12.8-0.3c0,3.4,6.3,8.4,6.6,10.5
		C329.9,102.5,328.4,108.8,330.7,109.6z M309.6,116.1c0,0,7-9.6,5.2-19.3c-1.9-9.7-12.8-3.7-12.8-0.3c0,3.4,6.2,8.4,6.5,10.5
		c0.3,2-1.3,8.3,1,9.1H309.6z M294.6,131c0,0,7.1-9.7,5.3-19.3c-1.8-9.7-12.8-3.7-12.8-0.3c0,3.4,6.3,8.4,6.5,10.5
		C293.9,123.9,292.3,130.2,294.6,131z M279,145.4c0,0,7-9.7,5.2-19.4c-1.8-9.7-12.8-3.6-12.8-0.2c0,3.4,6.3,8.3,6.6,10.4
		C278.2,138.3,276.7,144.6,279,145.4z"/>
	<path class="st3" d="M315,61.7c0,0-9.4,7.4-10.2,17.2c-0.8,9.8,11.3,7,12.2,3.7c1-3.3-3.7-9.7-3.4-11.8
		C313.9,68.8,317.1,63.1,315,61.7L315,61.7z M346.3,52.1c0,0-9.3,7.4-10.2,17.2c-0.8,9.8,11.3,7,12.3,3.7c0.9-3.3-3.8-9.8-3.5-11.9
		C345.2,59.1,348.4,53.4,346.3,52.1L346.3,52.1z M229.6,136.6c0,0,2,11.8,10.2,17.3c8.2,5.4,11.5-6.6,9.1-9s-10.3-1.4-12-2.6
		C235.2,141,231.9,135.5,229.6,136.6z M214,176.6c0,0,0,12,7.3,18.7c7.2,6.6,12.4-4.7,10.4-7.4s-10-3-11.4-4.5
		c-1.5-1.6-4-7.5-6.3-6.7V176.6z M250,221.4c0,0-4.2-11.2-13.3-15c-9.1-3.6-10,8.8-7.2,10.7c2.9,1.8,10.4-0.7,12.3,0.2
		c2,0.9,6.3,5.6,8.3,4L250,221.4z M242.6,202c0,0,7.2-9.5,5.6-19.1c-1.7-9.7-12.7-4-12.8-0.6c0,3.4,6,8.5,6.3,10.6
		C241.9,195,240.2,201.2,242.6,202L242.6,202z M468.2,110.1c0,0,10.8-5,14-14.3s-9.5-9.4-11.1-6.5c-1.7,3,1.4,10.4,0.6,12.3
		C470.9,103.6,466.5,108.3,468.2,110.1z M501,126.5c0,0,6.4-10.1,3.9-19.6s-13-2.8-12.8,0.6c0.2,3.3,6.8,7.9,7.2,10
		C499.7,119.5,498.6,125.9,501,126.5L501,126.5z M590.6,219.5c0,0-4.3-11.1-13.4-14.9c-9.1-3.7-10,8.8-7.2,10.6
		c2.9,1.9,10.5-0.7,12.3,0.2C584.3,216.4,588.6,221.1,590.6,219.5L590.6,219.5z M546.8,226.5c0,0,0.2-12,7.5-18.6
		c7.3-6.6,12.4,4.9,10.4,7.6c-2.1,2.7-10,2.8-11.6,4.3C551.7,221.3,549.1,227.2,546.8,226.5L546.8,226.5z M539.8,99.7
		c0,0-11.3-4.3-20,0c-9,4.4-0.2,13.4,3,12.5c3.3-1,6.4-8.3,8.4-9.1c2-0.8,8.4-1,8.5-3.4H539.8z M514,78.3c0,0-11.1-4.3-20,0
		c-8.8,4.4-0.1,13.4,3.2,12.5c3.2-1,6.4-8.3,8.3-9.1C507.5,80.9,513.9,80.7,514,78.3z M476,57.9c0,0-9.5,7.3-10.4,17
		c-1,9.8,11.2,7.1,12.2,3.9c1-3.3-3.7-9.8-3.4-11.9C474.8,64.9,478,59.3,476,57.9L476,57.9z M451.2,51.9c0,0-4.4,11.1-0.1,20
		s13.3,0.2,12.4-3c-0.9-3.3-8.2-6.5-9-8.4C453.7,58.5,453.6,52,451.2,51.9z M380.7,94.9c0,0,7.7-9.2,6.6-19
		c-1.1-9.7-12.5-4.5-12.7-1.1c-0.3,3.4,5.6,8.8,5.7,10.9C380.4,87.7,378.4,93.9,380.7,94.9L380.7,94.9z"/>
</g>
<path class="st5" d="M422.8,114.4c0,0,18.5,1.2,19.4,11.8c0.9,10.6-4.4,17.1-4.4,17.1s2.3,23-15.8,29.7c-19.4,2.3-49.9,0.5-49.9,0.5
	s-9,2.2-12.6-16.3c-2.1-10.4-3.6-21-4.6-31.6c0,0,1.8-10.4,14.9-11C382.8,113.9,422.6,114.6,422.8,114.4z"/>
<path class="st6" d="M437.7,143.2c0,0-10,12.4-9,17.5"/>
<path class="st5" d="M424.3,172.3c2.5,2.1,4.8,4.4,5.3,12l1,15.4l13,116.6l11.4,84.3l0.8,13c0,0-2.7,9.7-10.4,10.5
	c-5.5,11.6-35.7,15-38.7,14.9c-2.7-0.2-12.3-4.2-18.1-3.7c-5.9,0.5-16,4.4-20.5,3.8c-4.5-0.7-14.8-4.2-16.6-11.6
	c-12.7-4-14.7-13.7-14.7-13.7l13.7-97.5l13.3-123.4c0,0,1.6-16.4,8.2-18.9C378.9,173.4,414.4,174.7,424.3,172.3L424.3,172.3z"/>
<path class="st7" d="M354.4,341.1l-2.7,86.3 M438.2,352.5l7.6,71.2"/>
<path class="st8" d="M216.6,296.3l-0.3,1 M575,293.2l0.3,1"/>
<path class="st9" d="M207,179.8c0,0,5.6,7.9,6.7,12.4c1,4.5,2.9,13.4,5.3,17c2.5,3.7,16.6,23.9,17.4,32.3c0.1,5.6-5.9,15-14.7,15.2
	c-5.6-0.2-19.8-3.8-20.4-16c-0.6-12.3,4.3-12.5,5-20C206.8,213.3,207,180,207,179.8L207,179.8z"/>
<path class="st10" d="M304.5,72.8c0,0-6,0.4-10.4,2.9c-3.5,2.1-9.5,5.3-13.6,11c-10.6,8.2-26.5,12-31.5,19c-3,4.6-2.8,15.7,4.7,20.5
	c4.8,2.7,19,7,25.8-3.1c6.8-10.2,2.7-13,6-19.6C290.2,92.3,296.6,82,304.5,72.8z M447,58c0,0-4.4-4-9.3-5.5c-4-1-10.6-0.6-17.5-1.3
	c-13.3-1.8-27-11.4-35.3-10.2c-5.4,1-13.3,9-11.5,17.6c1.3,5.4,7.3,16.2,19.4,14.1c12-2.1,12-4.8,19-7C429.2,56,446.8,58,447,58
	L447,58z M588.4,195.4c1-2.3-0.9-6.6-2.2-11.5c-1.2-4-3.1-10-7.7-15.5c-5.4-12.2-4.5-29-10-35.4c-3.7-4-14.6-6.6-21-0.4
	c-3.9,4-11.4,16.6-3.2,25.7c8.2,9,11.8,5.7,17.4,10.5C575.2,177.8,581.7,193.8,588.4,195.4L588.4,195.4z M583.5,302
	c1.9-2.5,5.2-7.4,4.8-11.5c-0.3-3.2,1.5-13,1.7-17.3c1.2-13.3,9.5-24.2,7.2-35.7c-1.3-5.4-9.2-13-17.8-10.8c-5.2,1.6-17,8-14.3,20
	s6.6,11.7,9.1,18.7C581.5,279.9,576.9,297.1,583.5,302L583.5,302z"/>
<path class="st7" d="M485.5,386.8c0,0-2.3,4.4,6.8,8.2 M503.6,376.6c0,0,10-2.5,16.8,0 M533.6,351.2c0,0.2-1.4,4.5,6.6,10.8
	 M539.4,340c0,0,5.9,4.3,15.8,4 M479.8,352.6c0,0,0.3,11.5-5.6,16.8 M499.6,334.9c0,0,9.7,2.4,17.7-1.6 M561.9,318
	c0,0,2.1,3,12.9,2.5 M519.9,311.2c0.3,0.2,12.7,4.2,20.5,0.6 M544.6,264c0,0,0.5-0.7,4.3,12.7 M554.1,226.3c0,0-0.5,7.1-6.2,10.2
	 M590.8,197.1c0,0-8.4,6.8-6.8,9.5 M549.3,192.2c0,0,4.3,7.3-2.8,12.3 M528.2,161c0,0,7.5-0.3,10.8,6.1 M514.2,139.8h5.7
	 M543.9,113.8c0,0.1,1.5,1.5-1.4,4.5 M490.5,114.5c0,0,4,6.2,3.3,13.9 M513.6,93.3c1.8-0.2,7.7-2.8,7.7-2.8 M487.9,68.5
	c-0.1,0-2.2,7.7,1.6,10.5 M478.4,104c0,8.4,6.6,6.3,2,14.3 M462.2,97c-3.8,2.7-7.3,5.9-10.4,9.4 M435.4,92.7c0,0,4.4,4.3,3.3,10.2
	 M422.7,89.2c0,0-2.2,6.6-5.1,8.3 M399.6,87.5c-0.1,0.3-3.6,7.8-6,9.1 M368,87.6c0.2,0,3.5,7-0.8,12 M360.7,51.6
	c0.2,0.2,0.7,5.4-2.6,10 M329.4,63.5c0,0.1,1.4,5.9-7.8,7.8 M311.7,116.5c0.2,0.3,8.9,1.7,8.9,1.7 M290,136.6
	c0.2-0.2,10.6-3.3,10.6-3.3 M273.2,149.6c0.3,0,7.3,1.3,9,0.4 M268.2,156c0,0,2.3,1.3,0.4,13 M234.4,125.5l4.2,6.2 M220.1,157.7
	c0-0.2,4.2,6.2,9.8,7.4 M252.9,190.3c2.7-0.4,5.4-1.1,8-2 M250,213.8c0.2,0-0.1-4.3,5.2-7.3 M243,224.7c0,0.2,5,6.4,8.5,7.3
	 M240,236.7c0.6-0.2,6-4.9,12.2-4.5 M238.3,252.8c0,0,0.2,5.4,16.2,4 M239.9,271.8c0-0.2,4.7-10.8,14.2-14.8 M252.7,285.4
	c0,0,1.4-4.6,9.4-7.7 M261.6,303.2c0,0,5.7-4.7,7.8-5.3 M268.7,317.2c0,0,3.5,3.6,12.2-2.7 M226.9,320.1c1-0.2,13.7-3.1,18,3.5
	 M231.9,330.6c0,0,13.4-1.8,15.1-0.4 M279.7,333.3c0,0-1.8,3.7,14.7-2.4 M300.2,339.9c-3,5,0.7,9-3.2,11.3 M250,346.9
	c0.5-0.4,6-2.3,5.2-10.3 M255,358.9c0.7-0.2,9.9-4.2,11.8-2.1 M273.1,370.5c0,0,1.2-8.2,3.8-9 M286.9,382.8c0,0,7.7-0.1,11-2.6
	 M301.7,355.2c0.2,0.2,7.1,3.8,22,0.2 M307.3,388.4c0,0,2,10.6,2,13"/>
<g>
	<path class="st11" d="M574,225.4c-0.4-3.3-2.1-6.5-4.3-7.9c-2.5-1.5-5.1-1.2-6.8,0.8c-1.7,2.1-2.8,5.4-2.3,8.7
		c0.4,3.5,2.1,6.5,4.3,8.1c2.5,1.5,5.1,1.2,6.8-0.8c1.7-2.1,2.9-5.4,2.3-8.7L574,225.4z"/>
	<path class="st11" d="M572.6,207.7c-0.4-3.3-2.1-6.5-4.3-7.9c-2.5-1.5-5.1-1.2-6.8,0.8s-2.8,5.4-2.3,8.7c0.4,3.5,2.1,6.5,4.3,8.1
		c2.5,1.5,5.1,1.2,6.8-0.8s2.9-5.4,2.3-8.7L572.6,207.7z"/>
	<path class="st11" d="M568.9,188.8c-0.7-3.3-2.7-6.3-4.9-7.5c-2.6-1.3-5.1-0.8-6.7,1.4c-1.5,2.2-2.3,5.6-1.6,8.9
		c0.7,3.4,2.7,6.3,5,7.6c2.6,1.3,5.1,0.8,6.7-1.4c1.5-2.2,2.4-5.7,1.6-8.9L568.9,188.8z"/>
	<path class="st11" d="M562.5,169.2c-1.5-3-4.2-5.4-6.7-6c-2.9-0.6-5.2,0.6-6.1,3.1c-0.9,2.5-0.8,6,0.7,9c1.6,3.1,4.2,5.4,6.8,6.1
		c2.9,0.6,5.2-0.6,6.1-3.1s0.9-6.1-0.7-9L562.5,169.2z"/>
	<path class="st11" d="M555.5,153.3c-1.5-3-4.2-5.4-6.7-6c-2.9-0.6-5.2,0.6-6.1,3.1c-0.9,2.5-0.8,6,0.7,9c1.6,3.1,4.2,5.4,6.8,6.1
		c2.9,0.6,5.2-0.6,6.1-3.1s0.9-6.1-0.7-9L555.5,153.3z"/>
	<path class="st11" d="M545.6,137.5c-1.8-2.8-4.6-5-7.2-5.4c-2.9-0.4-5.1,1-5.8,3.6c-0.7,2.6-0.3,6.1,1.5,8.9c1.8,3,4.6,5,7.2,5.5
		c2.9,0.4,5.1-1,5.8-3.6c0.7-2.6,0.4-6.1-1.5-8.9L545.6,137.5z"/>
	<path class="st11" d="M534.5,122.1c-2-2.7-5.1-4.5-7.6-4.7c-2.9-0.1-5,1.5-5.4,4.1c-0.4,2.6,0.3,6,2.4,8.7c2.1,2.8,5.1,4.5,7.7,4.8
		c2.9,0.1,5-1.5,5.4-4.1c0.4-2.6-0.2-6.1-2.4-8.7L534.5,122.1z"/>
	<path class="st11" d="M521.3,107.9c-2.4-2.3-5.7-3.7-8.2-3.5c-2.9,0.3-4.7,2.2-4.8,4.9c0,2.7,1.2,5.9,3.6,8.3
		c2.5,2.5,5.7,3.7,8.4,3.6c2.9-0.3,4.7-2.2,4.8-4.9c0-2.7-1.1-6.1-3.6-8.3L521.3,107.9z"/>
	<path class="st11" d="M506.5,94.8c-2.6-2.1-6-3.2-8.5-2.7c-2.9,0.6-4.5,2.6-4.3,5.3s1.7,5.8,4.3,7.9c2.7,2.2,6,3.2,8.7,2.8
		c2.9-0.6,4.5-2.6,4.3-5.3s-1.6-5.9-4.3-7.9L506.5,94.8z"/>
	<path class="st11" d="M490.7,84.3c-2.9-1.6-6.5-2.2-8.9-1.3c-2.7,1.1-4,3.3-3.4,5.9c0.6,2.6,2.7,5.4,5.6,7.1c3.1,1.7,6.5,2.2,9,1.4
		c2.7-1.1,4-3.3,3.4-5.9c-0.6-2.6-2.6-5.6-5.6-7.1L490.7,84.3z"/>
	<path class="st11" d="M473.2,75c-3-1.4-6.6-1.6-8.9-0.5c-2.6,1.3-3.7,3.7-2.8,6.2c0.9,2.5,3.2,5.2,6.2,6.5c3.2,1.4,6.6,1.6,9.1,0.5
		c2.6-1.3,3.7-3.7,2.8-6.2c-0.9-2.5-3.1-5.3-6.2-6.5L473.2,75z"/>
	<path class="st11" d="M455.9,68c-3.1-1.2-6.7-1.1-9,0.1c-2.5,1.5-3.4,3.9-2.4,6.4c1,2.5,3.5,4.9,6.6,6.1c3.3,1.2,6.7,1.1,9.1-0.1
		c2.5-1.5,3.4-3.9,2.4-6.4c-1-2.5-3.5-5.1-6.6-6.1L455.9,68z"/>
	<path class="st11" d="M438.4,62.6c-3.2-0.9-6.8-0.6-8.9,0.8c-2.4,1.7-3.1,4.2-1.9,6.5c1.2,2.4,3.9,4.7,7.1,5.6
		c3.4,1,6.8,0.6,9.1-0.8c2.4-1.7,3.1-4.2,1.9-6.5c-1.2-2.4-3.8-4.8-7.1-5.6L438.4,62.6z"/>
	<path class="st11" d="M419.2,59.3c-3.3-0.4-6.8,0.5-8.7,2.2c-2.1,2-2.4,4.6-0.9,6.8c1.6,2.2,4.5,4,7.9,4.4c3.5,0.4,6.8-0.5,8.9-2.2
		c2.1-2,2.4-4.6,0.9-6.8c-1.6-2.2-4.5-4.2-7.9-4.4L419.2,59.3z"/>
	<path class="st11" d="M400.1,58.2c-3.3-0.1-6.7,1-8.5,2.9c-1.9,2.2-2,4.8-0.3,6.8c1.8,2,4.9,3.6,8.2,3.7c3.5,0.1,6.7-1,8.6-2.9
		c1.9-2.2,2-4.8,0.3-6.8c-1.8-2-4.9-3.8-8.2-3.7L400.1,58.2z"/>
	<path class="st11" d="M382.6,58.8c-3.3-0.1-6.7,1-8.5,2.9c-1.9,2.2-2,4.8-0.3,6.8c1.8,2,4.9,3.6,8.2,3.7c3.5,0.1,6.7-1,8.6-2.9
		c1.9-2.2,2-4.8,0.3-6.8s-4.9-3.8-8.2-3.7L382.6,58.8z"/>
	<path class="st11" d="M362.2,61.2c-3.3,0.7-6.2,2.8-7.4,5c-1.3,2.6-0.7,5.2,1.5,6.6c2.2,1.5,5.6,2.2,8.9,1.5
		c3.4-0.8,6.2-2.8,7.6-5.1c1.3-2.6,0.7-5.2-1.5-6.6c-2.2-1.5-5.7-2.4-8.9-1.5L362.2,61.2z"/>
	<path class="st11" d="M343.6,65.9c-3.2,1-6,3.3-7,5.6c-1.1,2.7-0.3,5.2,2.1,6.5c2.3,1.3,5.8,1.7,9,0.7c3.3-1.1,6-3.3,7.1-5.7
		c1.1-2.7,0.3-5.2-2.1-6.5c-2.3-1.3-5.9-1.9-9-0.7L343.6,65.9z"/>
	<path class="st11" d="M326.7,73.2c-3,1.4-5.5,3.9-6.3,6.4c-0.7,2.8,0.3,5.2,2.8,6.2c2.5,1,6,1,9-0.4c3.2-1.5,5.5-3.9,6.4-6.5
		c0.7-2.8-0.3-5.2-2.8-6.2c-2.5-1-6-1.2-9,0.4L326.7,73.2z"/>
	<path class="st11" d="M309.7,81.9c-2.9,1.6-5.2,4.4-5.7,6.9c-0.5,2.9,0.8,5.1,3.3,5.9c2.6,0.8,6,0.5,8.9-1.1c3.1-1.7,5.2-4.4,5.8-7
		c0.5-2.9-0.8-5.1-3.3-5.9c-2.6-0.8-6.1-0.7-8.9,1.1L309.7,81.9z"/>
	<path class="st11" d="M293.7,92.7c-2.7,1.9-4.7,4.9-4.9,7.5c-0.2,2.9,1.3,5,4,5.5s6.1-0.1,8.8-2.1c2.9-2,4.7-4.9,5-7.6
		c0.2-2.9-1.3-5-4-5.5c-2.6-0.5-6.2,0-8.8,2.1L293.7,92.7z"/>
	<path class="st11" d="M278.9,104c-2.5,2.2-4.2,5.3-4.3,7.9c0.1,2.9,1.8,4.9,4.4,5.2c2.7,0.3,6-0.7,8.6-2.8c2.7-2.3,4.2-5.3,4.4-8
		c-0.1-2.9-1.8-4.9-4.4-5.2c-2.7-0.3-6.1,0.5-8.6,2.8L278.9,104z"/>
	<path class="st11" d="M265.8,117.6c-2.4,2.3-3.9,5.6-3.7,8.2c0.3,2.9,2.1,4.8,4.8,4.9c2.7,0.1,6-1.1,8.3-3.4
		c2.5-2.5,3.9-5.6,3.8-8.3c-0.3-2.9-2.1-4.8-4.8-4.9c-2.7-0.1-6.1,1-8.3,3.4L265.8,117.6z"/>
	<path class="st11" d="M254.5,132.9c-2.2,2.5-3.4,5.9-3,8.4c0.5,2.9,2.5,4.6,5.2,4.4c2.7-0.1,5.8-1.6,8-4.1c2.3-2.7,3.4-5.9,3.1-8.6
		c-0.5-2.9-2.5-4.6-5.2-4.4c-2.7,0.1-6,1.5-8,4.1L254.5,132.9z"/>
	<path class="st11" d="M244.2,148.4c-1.9,2.8-2.7,6.2-2.1,8.7c0.8,2.8,3,4.3,5.6,3.9c2.6-0.4,5.6-2.2,7.5-5c2-2.9,2.7-6.2,2.2-8.9
		c-0.8-2.8-3-4.3-5.6-3.9c-2.6,0.4-5.8,2.1-7.5,5L244.2,148.4z"/>
	<path class="st11" d="M235.7,165.9c-1.4,3-1.6,6.6-0.5,8.9c1.3,2.6,3.7,3.7,6.2,2.8c2.5-0.9,5.2-3.1,6.6-6.2
		c1.5-3.2,1.6-6.6,0.6-9.1c-1.3-2.6-3.7-3.7-6.2-2.8s-5.3,3.1-6.6,6.2L235.7,165.9z"/>
	<path class="st11" d="M228.9,184.4c-1.1,3.2-1,6.7,0.3,9c1.5,2.5,4,3.4,6.4,2.3c2.4-1.1,4.9-3.6,6-6.7c1.2-3.3,1-6.7-0.2-9.1
		c-1.5-2.5-4-3.4-6.4-2.3c-2.4,1.1-5,3.5-6,6.7L228.9,184.4z"/>
	<path class="st11" d="M223,219.4c-0.3,2.7,0.7,5.4,2.5,6.9c2.1,1.6,4.7,1.8,6.8,0.5s3.9-3.7,4.2-6.4c0.3-2.8-0.7-5.4-2.4-7
		c-2.1-1.6-4.7-1.8-6.8-0.5s-4,3.7-4.2,6.4L223,219.4z"/>
	<path class="st11" d="M224.6,203.1c-0.7,3.3-0.2,6.8,1.3,8.9c1.8,2.3,4.3,2.9,6.6,1.5c2.3-1.4,4.4-4.1,5.2-7.4
		c0.8-3.4,0.2-6.8-1.3-9c-1.8-2.3-4.3-2.9-6.6-1.5c-2.3,1.4-4.6,4.1-5.2,7.4L224.6,203.1z"/>
</g>
<path class="st12" d="M560,194.7c2.2-2.3,4.2-3,6.7-2.1c-1-6.1-2.8-8.2-5.2-7.4C559.2,185.9,558.1,189,560,194.7z M563.3,212.9
	c2.3-2.1,4.3-2.6,6.8-1.6c-0.4-6-2.2-8.3-4.6-7.7C563.1,204.1,561.9,207.2,563.3,212.9L563.3,212.9z M555.5,177.9
	c1.5-2.7,3.3-3.8,6-3.7c-2.5-5.6-4.8-7.1-7-5.8c-2,1.3-2.2,4.6,1,9.6V177.9z M547.4,161.3c1.5-2.8,3.3-3.9,6-3.7
	c-2.5-5.7-4.9-7.2-7-5.9C544.4,153,544.2,156.3,547.4,161.3L547.4,161.3z M527.9,130.8c1-3,2.6-4.4,5.2-4.6
	c-3.3-5.2-5.9-6.3-7.7-4.7C523.6,123.1,523.9,126.5,527.9,130.8z M515,117.5c1-3,2.4-4.4,5-4.8c-3.4-5-6-6-7.8-4.4
	C510.4,110,510.8,113.3,515,117.5z M488.3,95c0-3.2,1-5,3.3-6.2c-4.8-3.7-7.7-3.8-8.8-1.7S483,92.2,488.3,95z M502.3,105.5
	c0.4-3.1,1.7-4.8,4.3-5.5c-4.2-4.5-6.9-5.2-8.4-3.3c-1.5,2-0.7,5.1,4,8.8H502.3z M472.3,86.2c-0.3-3.1,0.5-5,2.7-6.5
	c-5.2-3.2-8-3-9-0.8c-0.9,2.3,0.8,5.1,6.4,7.3H472.3z M456.2,79c-0.8-3-0.3-5,1.7-6.8c-5.6-2.4-8.4-1.9-9,0.5S450.4,77.6,456.2,79z
	 M438.7,73.6c-1.1-3-0.8-5,1.1-7c-5.8-1.9-8.5-1.1-9,1.3C430.5,70.3,432.8,72.7,438.7,73.6z M421.4,70.2c-1.2-2.8-1-5,0.7-7
	c-6-1.5-8.6-0.5-8.8,2C413,67.6,415.5,69.8,421.4,70.2L421.4,70.2z M403.2,68.8c-1.6-2.7-1.6-4.8,0-7c-6.1-0.9-8.7,0.4-8.6,2.8
	C394.6,67.1,397.3,69,403.2,68.8z M367.5,71.5c-2.2-2.2-2.7-4.3-1.8-6.8c-6,0.6-8.2,2.4-7.6,4.8S361.8,73.1,367.5,71.5z M385.1,69.2
	c-1.9-2.5-2.2-4.6-0.9-7c-6.1-0.2-8.5,1.3-8.2,3.8c0.3,2.4,3.2,4,9,3.2H385.1z M350.2,75.2c-2.4-1.9-3.3-3.8-2.7-6.4
	c-6,1.5-7.8,3.6-6.9,5.8C341.6,76.9,344.8,77.6,350.2,75.2z M317.2,90.4c-2.8-1.4-4-3.1-3.9-5.8c-5.6,2.6-7,5-5.6,7
	C309,93.6,312.3,93.8,317.2,90.4z M333.2,82.3c-2.7-1.7-3.6-3.6-3.2-6.2c-5.9,1.8-7.6,4-6.5,6.2C324.6,84.5,327.9,85.1,333.2,82.3
	L333.2,82.3z M287.6,111.1c-3-0.8-4.6-2.3-5-5c-5,3.8-5.8,6.4-4.1,8.1c1.8,1.7,5,1.2,9-3.1H287.6z M301.7,99.5c-3-1-4.4-2.6-4.6-5.2
	c-5.2,3.2-6.3,5.8-4.7,7.7C294,103.8,297.4,103.5,301.7,99.5z M275,123.5c-3-0.6-4.7-1.9-5.4-4.5c-4.6,4.1-5.2,6.9-3.3,8.4
	C268.2,129,271.3,128.1,275,123.5L275,123.5z M263.7,138c-3.2-0.2-5-1.3-5.8-3.8c-4.2,4.5-4.6,7.2-2.6,8.6
	C257.3,144.2,260.4,143,263.7,138L263.7,138z M254.3,153c-3.2,0.2-5-0.7-6.4-3c-3.4,5.1-3.4,8-1.2,9S251.8,158.4,254.3,153
	L254.3,153z M246,169c-3,0.6-5,0-6.7-2.2c-2.7,5.5-2.3,8.3,0,9C241.6,176.6,244.3,174.6,246,169L246,169z M239.4,185.3
	c-3,1.1-5,0.8-7-1c-1.8,5.8-1,8.5,1.5,8.9c2.4,0.3,4.7-2,5.5-8V185.3z M234.9,203.5c-2.8,1.3-4.9,1.2-7-0.5c-1.4,6-0.4,8.5,2,8.7
	C232.4,212,234.6,209.5,234.9,203.5z M233.1,218.7c-2.6,1.4-4.7,1.6-7,0.5c-0.7,4.9,0.6,6.8,3,6.6S233.4,223.4,233.1,218.7z
	 M540.1,146.5c1.1-3,2.7-4.4,5.3-4.6c-3.2-5.2-5.7-6.3-7.6-4.8C535.9,138.7,536.2,142.1,540.1,146.5L540.1,146.5z M565.3,231.5
	c2.3-2.2,4.4-2.7,6.8-1.6c-0.4-6.1-2.2-8.3-4.6-7.8C565.2,222.7,563.9,225.7,565.3,231.5L565.3,231.5z"/>
<path class="st2" d="M541.3,132c0,0-7,6.9-5.7,15.2c1.2,8.3,6.5,18.6,5.5,27.3c-1,8.6-2.5,14.3-2.5,14.3s8-9.1,8-18
	c0.2-8.7-5.4-20.3-5.4-26.7s0.3-12.2,0.1-12V132z M554,160c0,0-5.3,4-4.8,13c0.5,9.1,10,25.8,10,25.8s6.8,14,6.5,17.7
	c-0.2,3.7,1.3-3.5,0.6-11.5c-0.7-8-11-25.8-11-25.8s-2.2-3.6-2-9.7C553.5,163.5,554.1,160.1,554,160L554,160z"/>
<path class="st13" d="M393,47.4c0-1.8-2.2-3.4-4.8-3.4s-4.7,1.6-4.7,3.4s2,3.4,4.7,3.4S392.9,49.3,393,47.4L393,47.4z M395,55.4
	c0-1.8-2.2-3.3-5-3.3c-2.6,0-4.8,1.4-4.8,3.2s2.2,3.3,4.9,3.3s4.8-1.5,4.8-3.3L395,55.4z M401,46c0,0-5.6,4.1-3.3,5.8
	c2.3,1.7,8.6-3.6,8.6-3.6L401,46z M564.3,141.4c0-1.2-0.5-2.3-1.4-2.9c-0.9-0.6-2.1-0.6-3,0c-0.9,0.6-1.4,1.7-1.4,2.9
	s0.5,2.3,1.4,2.9c0.9,0.6,2.1,0.6,3,0C563.8,143.7,564.3,142.6,564.3,141.4z M562.2,133.4c0-2-1.4-3.5-3-3.5c-1.6,0-3.1,1.6-3.1,3.6
	s1.4,3.5,3,3.5s3.1-1.6,3.1-3.5V133.4z M563.7,149.6c0-1-0.6-1.8-1.2-1.8c-0.6,0-1.2,0.8-1.2,1.8s0.5,1.9,1.2,1.9
	C563.2,151.5,563.7,150.6,563.7,149.6z M568.6,135.2c0-1.2-0.6-2.1-1.2-2.1c-0.7,0-1.2,0.9-1.2,2s0.5,2.2,1.2,2.2
	C568,137.3,568.6,136.3,568.6,135.2L568.6,135.2z M555.2,136.6c0-1-0.6-1.7-1.2-1.7c-0.6,0-1.2,0.8-1.2,1.7s0.5,1.8,1.2,1.8
	C554.7,138.4,555.2,137.6,555.2,136.6z M557.3,148c0-1.5-1.1-2.7-2.5-2.7s-2.5,1.2-2.5,2.7c0,1.6,1,2.8,2.5,2.8
	S557.3,149.6,557.3,148z M550.7,143c0-1.3-1-2.4-2.1-2.4c-1.2,0-2.2,1-2.2,2.4s1,2.4,2.2,2.4C549.7,145.4,550.6,144.4,550.7,143
	L550.7,143z M549.7,136.2c0-0.7-0.4-1.3-1-1.7c-0.6-0.4-1.3-0.4-1.9,0c-0.6,0.4-0.9,1-0.9,1.7c0,0.7,0.4,1.4,1,1.8
	c0.6,0.3,1.2,0.3,1.8,0C549.3,137.6,549.7,137,549.7,136.2z M579.8,170.6c-2.7-3.6-7.1-5.1-9.8-3.4c-2.6,1.7-2.6,6,0.2,9.7
	c2.7,3.6,7,5.1,9.7,3.4c2.7-1.8,2.7-6,0-9.7H579.8z M587.6,237.3c0.5-4.5-1.6-8.4-4.8-8.8c-3.2-0.3-6.2,3-6.8,7.4
	c-0.5,4.4,1.7,8.3,4.9,8.7C584.1,245,587.1,241.6,587.6,237.3L587.6,237.3z M589.2,276.1c1-4.4-0.9-8.5-4-9.2
	c-3.2-0.6-6.5,2.4-7.4,6.8c-0.9,4.3,1,8.4,4,9c3.2,0.7,6.5-2.3,7.4-6.7V276.1z M596.7,239.7c0-1.7-1.2-3.1-2.6-3.1s-2.7,1.4-2.7,3.1
	c0,1.8,1.2,3.2,2.7,3.2S596.7,241.5,596.7,239.7z M590.2,247l-5.4,6.2c0,0-5.1,0.1-4.8,1.8c0.2,1.6,7,6.6,7,8.6
	c-0.1,2,4.4-0.5,4.4-0.5l3.7-11.1c0,0-0.2-7.7-2.2-7.6C590.9,244.6,590.4,246.9,590.2,247L590.2,247z M232.8,244.6
	c0.3-1.4-0.6-2.8-2-3.1s-2.8,0.6-3.1,2c-0.1,0.3-0.1,0.7,0,1c0.3,1.4,1.6,2.3,3.1,2C231.8,246.4,232.6,245.6,232.8,244.6z
	 M235.3,236.6c0-1.4-1.2-2.6-2.6-2.6s-2.6,1.2-2.6,2.7s1.2,2.7,2.6,2.7C234.2,239.3,235.3,238.2,235.3,236.6L235.3,236.6z
	 M214,199.2c-1-2.2-3-3.4-4.5-2.7s-2,3-1,5.2s3,3.4,4.5,2.7C214.6,203.7,215,201.4,214,199.2z M220.5,222.6
	c-1.4-2.8-4.1-4.4-6.2-3.5s-2.7,3.9-1.4,6.7s4,4.4,6.2,3.5S221.8,225.4,220.5,222.6z M227.3,239.8c0.5-3.5-1-6.8-3.2-7.2
	c-2.3-0.5-4.4,2-4.9,5.5c-0.4,3.5,1,6.7,3.3,7.2C224.7,245.8,226.9,243.3,227.3,239.8L227.3,239.8z M216.3,242.3
	c1.4-3.3,0.9-6.8-1.1-7.8s-4.8,0.7-6.2,4s-0.9,6.7,1.2,7.8S214.9,245.6,216.3,242.3z"/>
<path class="st13" d="M211.3,234.8c0-1.7-1.3-3-2.9-3s-2.9,1.4-2.9,3s1.3,3,3,3S211.3,236.5,211.3,234.8z M209,227.3
	c0-1.5-1.2-2.7-2.6-2.7c-1.5,0.1-2.7,1.3-2.6,2.8c0,0,0,0,0,0c0,1.4,1.2,2.7,2.6,2.7C207.8,230.1,209,228.8,209,227.3z M211.4,213
	c0-2.6-1.1-4.6-2.5-4.6s-2.5,2-2.5,4.6c0,2.5,1.1,4.6,2.5,4.6S211.4,215.6,211.4,213z M219.2,211.9c0.3-2.5-0.5-4.7-2-5
	c-1.3-0.1-2.7,1.8-3,4.3c-0.4,2.5,0.5,4.7,1.9,4.9c1.3,0.2,2.7-1.7,3-4.2H219.2z M274.2,101.9c1.1-3.6,0-7.2-2.3-8
	c-2.3-0.9-5,1.3-6,4.9s0,7.2,2.3,8C270.5,107.7,273.2,105.5,274.2,101.9z M263.8,117.8c3-2.7,4.4-6.3,3-8.1
	c-1.5-1.9-5.2-1.2-8.3,1.4s-4.3,6.2-2.9,8C257.1,121,260.8,120.4,263.8,117.8z M257.8,109c3-2.3,4.2-5.4,2.8-7s-5-1-8,1.2
	c-3.1,2.3-4.4,5.4-3,7S254.6,111.2,257.8,109L257.8,109z M281.3,93.5c2-1.6,2.9-3.8,2-4.9c-1-1-3.5-0.7-5.6,0.9
	c-2.1,1.6-2.9,3.7-1.9,4.8C276.8,95.4,279.2,95,281.3,93.5z"/>
<path class="st13" d="M269,108.5c1.4-2.2,1.5-4.5,0.2-5.2c-1.3-0.7-3.5,0.4-4.9,2.6c-1.4,2.2-1.5,4.5-0.2,5.2S267.6,110.6,269,108.5
	z M286.7,99.2c2.2-1.9,3-4.3,2-5.5c-1.2-1.2-4-0.6-6.2,1.2s-3,4.3-1.9,5.5C281.8,101.6,284.5,101,286.7,99.2L286.7,99.2z
	 M254.7,120.8c2,0,3.6-1.1,3.4-2.3c0-1.1-1.9-2-4-1.9c-2,0.1-3.6,1.2-3.4,2.3C250.8,120.1,252.7,120.9,254.7,120.8L254.7,120.8z
	 M293.4,87.7c1.4-2.2,1.5-4.5,0.2-5.2c-1.2-0.7-3.4,0.4-4.8,2.6s-1.5,4.5-0.2,5.2C289.9,91,292,89.9,293.4,87.7z"/>
<path class="st14" d="M526.8,153.4c0,0,6.4-10.1,4-19.7c-2.5-9.5-13-2.7-12.8,0.7c0.2,3.3,6.8,7.9,7.2,10
	C525.6,146.4,524.4,152.7,526.8,153.4L526.8,153.4z"/>
<path class="st15" d="M404.9,69.3c0,0,23,0.9,23.1,15.8c0,2.3,0,5-0.8,11.7c4.6-2.5,7.6-9.3,7-13.7C434.3,68,413.7,57.6,404.9,69.3
	L404.9,69.3z"/>
<path class="st15" d="M390.3,68.6c0,0,18.5-3.8,18.7,11c0.1,15-6,17.3-6,17.3s14.3-3,14.4-18.1C417.4,63.6,399.1,56.9,390.3,68.6z"
	/>
<path class="st16" d="M453.3,390c0,0,86.8-24.6,113-131C551,368.1,456,403,456,403L453.3,390L453.3,390z"/>
<path class="st17" d="M462.2,396.6c2.7,0,9.3-7.4,13.1-8.2c3.8-0.8,4.2-4.7-0.1-4.8c-4.4-0.2-8.2,5-8.2,5s-3.8,3.2-7.8,3.6
	S457.8,397.6,462.2,396.6z"/>
<path class="st18" d="M512.2,359.3c0,0-9,5.2-7.8,6.5c1.3,1.3,9.3-5,9.5-5C514,360.6,517.3,356.6,512.2,359.3z"/>
<path class="st17" d="M480.7,383c0,0-2.7-1,4.2-3.6c7-2.7,6.5-5.8,8.8-7.1c2.2-1.3,7-4.7,8-2.7s-5,6-6.5,6.4
	c-1.4,0.4-8.3,6.8-10.3,7.3C482.9,383.9,481.5,383.6,480.7,383L480.7,383z"/>
<path class="st19" d="M525.6,346c-6,6.7-6,6.5-6,6.5"/>
<path class="st20" d="M534.5,335.2l-5.7,6.9"/>
<path class="st21" d="M543.4,321l-6.4,10.2"/>
<path class="st22" d="M550.9,306.6l-5.3,10.5 M554.2,299.1l-1.6,3.6"/>
<path class="st23" d="M558,289l-1.4,4.4"/>
<path class="st24" d="M339.5,387.7c0,0-86.1-25-111.9-133.5c15.1,111.4,109.2,146.6,109.2,146.6L339.5,387.7L339.5,387.7z"/>
<path class="st17" d="M330.7,394.4c-2.7,0-9.2-7.5-13-8.3c-3.8-0.9-4.2-4.8,0.1-5c4.4,0,8.1,5.1,8.1,5.1s3.8,3.3,7.7,3.8
	C337.6,390.4,335,395.4,330.7,394.4L330.7,394.4z"/>
<path class="st25" d="M281.2,356.4c0,0,8.9,5.4,7.6,6.8c-1.2,1.2-9.1-5.1-9.3-5.3C279.4,357.8,276.2,353.7,281.2,356.4z"/>
<path class="st17" d="M312.4,380.6c0,0,2.6-1-4.2-3.7c-6.8-2.7-6.5-6-8.7-7.2c-2.2-1.3-7-4.7-8-2.7s5,6,6.5,6.4
	c1.4,0.5,8.2,7,10.2,7.5C310.2,381.5,311.5,381.2,312.4,380.6L312.4,380.6z"/>
<path class="st26" d="M268,343l5.8,6.6"/>
<path class="st27" d="M259,332l5.6,7"/>
<path class="st28" d="M250.2,317.5l6.3,10.4"/>
<path class="st23" d="M242.8,302.9l5.3,10.7 M239.5,295.1l1.7,3.7"/>
<path class="st29" d="M235.7,284.8l1.5,4.6"/>
<path class="st15" d="M570.4,239.3c0.5,6.7,7,13,4.4,24.7c-3.2,13.3-14.8,44.7-12.8,50.2c-3.4-4.7-2.8-9-3-15.6
	c-0.4-6.5,9.4-30.9,10.3-39.1C569.3,252.1,570,242,570.4,239.3z"/>
<path class="st15" d="M570.4,239.4c0,0,10.7,13.5,10.1,24.2c-0.5,10.7-6.5,23.2-4.5,28.7c-3.2-4-4.8-9.1-4.6-14.2
	c-0.3-6.5,5.3-13.8,4.1-20.9C574.4,250.2,570.3,239.4,570.4,239.4L570.4,239.4z M221.1,242.4c-0.4,6.7-5.4,12.7-2.8,24.3
	c3.2,13.3,15,30,13,49.2c3.5-4.7,4.5-10,4.8-16.5c0.2-6.5-13-28.5-13.8-36.8C222.3,255.2,221.5,245.1,221.1,242.4L221.1,242.4z"/>
<path class="st15" d="M221.1,242.6c0,0-10.4,13-9.8,23.7c0.1,7.1,13.2,36.8,11.2,42.4c3.5-4.7,4.4-4.1,4.3-11.2
	c-3.8-18.3-10.7-29.9-9.5-37c1.1-7.1,4-18,3.8-18V242.6z"/>
<path class="st30" d="M398.5,123l25.6,79.5H508l-67.6,49.2l25.8,79.5l-67.6-49.1l-67.6,49.1l25.6-79.5L289,202.5h83.7L398.5,123z"/>
</svg>
