<?xml version="1.0" encoding="utf-8"?>
<!-- Generator: Adobe Illustrator 24.0.1, SVG Export Plug-In . SVG Version: 6.00 Build 0)  -->
<svg version="1.1" id="flag-icons-mr" xmlns="http://www.w3.org/2000/svg" xmlns:xlink="http://www.w3.org/1999/xlink" x="0px"
	 y="0px" viewBox="0 0 800 480" style="enable-background:new 0 0 800 480;" xml:space="preserve">
<style type="text/css">
	.st0{fill:#CD2A3E;}
	.st1{fill:#006233;}
	.st2{fill:#FFC400;}
</style>
<path class="st0" d="M0,0h800v480H0V0z"/>
<path class="st1" d="M0,72h800v336H0V72z"/>
<path class="st2" d="M550,154.6c0,82.8-67.2,150-150,150s-150-67.2-150-150c-3.3,12.8-5,26-5,39.2c0,85.6,69.4,155,155,155
	s155-69.4,155-155C555,180.6,553.3,167.4,550,154.6z"/>
<polygon class="st2" points="457.2,135.3 413.6,135.3 400,93.8 386.5,135.3 343,135.3 378.3,160.9 364.8,202.3 400.1,176.7 
	435.4,202.3 421.9,160.9 "/>
</svg>
