<?xml version="1.0" encoding="utf-8"?>
<!-- Generator: Adobe Illustrator 24.0.1, SVG Export Plug-In . SVG Version: 6.00 Build 0)  -->
<svg version="1.1" id="flag-icons-ms" xmlns="http://www.w3.org/2000/svg" xmlns:xlink="http://www.w3.org/1999/xlink" x="0px"
	 y="0px" viewBox="0 0 800 480" style="enable-background:new 0 0 800 480;" xml:space="preserve">
<style type="text/css">
	.st0{fill:#012169;}
	.st1{fill:#FFFFFF;}
	.st2{fill:#00A2BD;stroke:#000000;stroke-width:1.8;}
	.st3{fill:#A53D08;}
	.st4{fill-rule:evenodd;clip-rule:evenodd;fill:#FF9A08;stroke:#000000;stroke-width:0.8;}
	.st5{fill:#FF9A08;stroke:#000000;stroke-width:0.8;}
	.st6{fill:none;stroke:#FFDF00;stroke-width:0.8;stroke-linecap:round;stroke-miterlimit:3.2;}
	.st7{fill:none;stroke:#FFDF00;stroke-width:1.44;stroke-linecap:round;stroke-miterlimit:3.2;}
	.st8{fill:#008021;stroke:#000000;stroke-width:0.3;}
	.st9{fill:#FFE1CF;stroke:#000000;stroke-width:0.32;stroke-miterlimit:3.2;}
	.st10{fill:#870F00;stroke:#000000;stroke-width:0.3;}
	.st11{fill:none;stroke:#000000;stroke-width:0.32;stroke-miterlimit:3.2;}
	.st12{fill:#C8102E;}
</style>
<path id="rect950" class="st0" d="M0,0h800v480H0V0z"/>
<g>
	<path id="path962_1_" class="st1" d="M506.8,111h205.5L712,257.3c1.7,58.7-34.9,95.2-102.3,111.7c-47.9-12-103-36.5-103.2-110
		L506.8,111L506.8,111z"/>
	<path id="path964_1_" class="st2" d="M511.3,115.4h196.4l-0.2,140.2c1.6,56.3-33.4,91.2-97.8,107c-45.8-11.4-98.5-35-98.6-105.4
		C511.1,257.2,511.3,115.4,511.3,115.4z"/>
	<path id="path966_1_" class="st3" d="M706.2,272.2c-7.2,53.7-48.6,77.2-96.5,89.7c-42.5-11.4-88.2-29.6-97-89.5L706.2,272.2z"/>
	<path id="path968_1_" d="M601.9,141.5l-0.3-17.6l14,0.1l0.1,17.5h38.2l0.1,13.7l-38.3,0.2l-0.3,161.4l-13.6,0.1l-0.2-161.7l-38,0.2
		v-14L601.9,141.5z"/>
	<path id="path970_1_" class="st4" d="M570.9,278.8l35,36.3c12.1-13.3,3.7-63-12.2-72.1c-1.9,5.9-5.1,13-8.6,15.2
		c-7.5,5.2-26.1,11.2-19.9,15c1.4-1.9,5.1-3.7,6.9,0.6c2,6.9-7.8,7.3-7.8,7.3s-6.2-0.8-7.3-7c-1-6.4,9.3-12.2,10.2-12.6
		c0.8-0.3,14.3-4,16.6-15.9c2.9-11.8,5.8-10,6.3-10.2c17.7,1.7,29.2,33.3,29.9,55.5c0.6,22.2-9,37-10.8,38c-1.7,0.9-42-47.9-42-47.9
		l3.8-2.2L570.9,278.8z"/>
	<path id="path972_1_" class="st5" d="M596.5,245l0.2,65.5"/>
	<path id="path974_1_" class="st5" d="M592.5,246.3l0.3,59.4"/>
	<path id="path976_1_" class="st5" d="M588.3,254.9l0.2,47.2"/>
	<path id="path978_1_" class="st5" d="M584.8,258.2l0.2,39.1"/>
	<path id="path980_1_" class="st5" d="M581.1,260v33"/>
	<path id="path982_1_" class="st5" d="M577.1,262.6v26.1"/>
	<path id="path984_1_" class="st5" d="M573.6,264.7v20"/>
	<g id="g994_1_" transform="matrix(.8 0 0 .8 -230.7 -7)">
		<path id="path986_1_" class="st6" d="M1001.3,362.4l45.1,51.6"/>
		<path id="path988_1_" class="st7" d="M1048.6,329.9c0,0,20.4,44.7,1.5,81.4"/>
		<path id="path990_1_" class="st7" d="M996,353c0,0,1.5-3.9,3.4-2.3"/>
		<path id="path992_1_" class="st7" d="M992.5,341.6c0,0-8.2,7.2-3.7,11.9"/>
	</g>
	<path id="path998_1_" class="st8" d="M615.9,175.4c2.3-2,3.6-3.3,5.1-3c1.5,0.2,3.5,0,5-0.4c3.9-0.9,8-1,12-0.4
		c1,0.2,2.5,0.7,4.6,2.5s5.2,5,4.2,13.6s-0.7,12.3-1.2,17.2c-0.8,8.5-2.7,15.5-6,15c4.5,8,5,15,8,20.5s4.8,16.8,3.7,29
		c-1.2,12.3-4.4,39.7,5.3,58.2c-1.6,1.1-5.5,0-9-3.7s-5-3.6-7.8-1.4c-8.8,6.7-17,14.8-29.1,6.7c-2.8-1.8-3.6-4-1.6-9.7
		c5-14,7.5-33.4,6.7-42.4V175.4H615.9z"/>
	<g id="g1010_1_" transform="matrix(.8 0 0 .8 -230.7 -7)">
		<path id="path1000_1_" class="st9" d="M1068.5,217.2c1,2.8,1,5.8-0.1,8.5c-1.3,3-1.6,6.4,0.6,10.6c3.4-5,8.3-4,11.2-6.8
			c2.9-2.9,3.5-5.6,5.6-6.2c-2.1-1.9-5.4-4-4.7-9.4c0.7-5.5,8.3-10,1.4-18.3c-3.4-4.3-9.7-5.1-14-1.7c-1.1,0.9-2,1.9-2.7,3.2
			c-0.4,1,0.2,3-0.9,4.3c-0.7,1-1.6,1.8-2.6,2.5c-0.6,0.5-1,1.1-0.3,2c0.3,0.3,0.8,0.3,1.3,0.5l-1,1.8c-0.4,0.4-0.2,0.8,0.2,1.2
			c-0.6,1.7,0.5,2-0.2,3.2c-0.7,1.1-1.5,2.5,0.8,3.8C1063.8,216.7,1066.9,217.4,1068.5,217.2L1068.5,217.2z"/>
		<path id="path1002_1_" class="st9" d="M1040.4,246c-4,1-10.5-0.8-15.4-0.2c-2.2,0.2-3.9-0.9-3.6-3c0.3-2.2,0.6-5.5,0.1-8.6
			c0.1-6.4,1.7-12.7,4.8-18.4c2.5-4.5,4.1-9.5,4.8-14.6c0-2.3,0.2-4.8,2.2-6.1c1.5-1,1.8-1.9,2.3-2.7c1.2-1.8,2.4-2.2,2.5-1.1
			c0.1,0.6-0.1,1.2-0.7,2c1.3-1,3.5-2.3,4-2.6c0.5-0.4,3-2.2,3.2-0.5c1-0.5,1.7-0.5,2,0c0.2,0.7,0,0.9-0.4,1.3
			c0.7-0.1,1.5,1.1,0,2.3c0.8-0.3,1.6,1,0.2,2.1c-1.3,1.2-3,2-3.4,3c-0.5,1-4,3.6-5.3,4.1c-1.4,0.6-1.5,1.4-1.5,3.4
			c0,22.2-2.6,20.4-2.6,25.8c0,1.4-0.3,2.7,1.1,2.3c1.5-0.5,3.6-1.1,5.7-1.1v12.5V246z"/>
		<path id="path1004_1_" class="st9" d="M1041.3,293.8c6.5-3.3,14-4.5,17.9-5.5c4.5-1.5,8.8-3.3,13-5.6c3.1-1.6,5.6-3.8,7.3-4.3
			c2.1-0.6,3.8-2.1,4.8-4c4.9-8.3,7.9-17.7,8.6-27.3c0-5-1.3-10.7-6.2-6.7c-5.1,4.4-8.9,10.1-11,16.5c-2,8-3.7,9.8-4.1,11.4
			c-0.5,1.6-2.1,1.6-4,2c-6.3,1-12.2,3.8-17,8c-5.7,4.2-11.6,8-17.8,11.5c-4.6,2.6-5.5,2.8-6.5,5c-1,2-2,3.6-2.8,4.5
			c-0.9,1-1.1,2-1,3.2c0.2,1-0.2,5.3-0.3,6.7c0,1.5,0.3,1.8,0.9,1.9c0.5,0,1.3-0.2,1.6-2c-0.3,1.8,2.1,1.2,2.2-0.1
			c0,1.9,2.5,0.8,2.6-1c0,1.3,2,0.4,2.1-0.1c0.5-1.5,0.8-3,1.4-4.2c0.8-1.7,1.7-3.9,3.4-5c1.9-1.4,1-3,4.9-5L1041.3,293.8z"/>
		<path id="path1006_1_" class="st9" d="M1088,411.9c0.4,1.6,1.2,3.4,1.5,4.5c0.3,1-0.2,1.4-0.5,2c-1.6,3.5-2.8,7.2-3.4,11
			c-0.1,1.5-1.2,3-1.7,4c-0.6,1-0.3,1.8,1,2.8c0.5,0.4,2.5-0.2,2.7-1.2c0.8,0.7,2,0.5,2.6-0.6c0.7,0.6,1.8,0.2,2.5-0.9
			c0.6,0.4,1.6-0.4,2-1c1,0.5,2-0.1,2-2c0-0.5,0.3-1.2,0.6-1.6c0.3-0.5,0.4-1.4,0.4-2.2c0-0.8,0.4-2.4,1.1-3.5s1.9-3.1,1.4-5
			c-0.5-1.7-1.2-1.6-1.9-4c-1.6-1.7-3.7-4-6-4.2C1090.1,409.9,1088.8,411.4,1088,411.9L1088,411.9z"/>
		<path id="path1008_1_" class="st9" d="M1047,424.3c2,2,6.5,2,9.7-1.3c-1.1-0.5-3.7-1.7-4.8-2.6
			C1050.3,422,1048.5,423.8,1047,424.3L1047,424.3z"/>
	</g>
	<path id="path1012_1_" class="st10" d="M623.3,149c0.6-4,3.5-4,5.3-3.5c0.8,0.1,2.6,0.3,4.4-0.2c3.4-0.9,6,0.3,5.6,3.6
		c1,0.7,2,2.3,1.7,3.7c-0.1,1.4,0.2,2,1.4,2.1c1.3,0.2,4,1.8,2.2,4c1.7,1,3,3.7,2.1,5.4c-0.9,1.8-3.6,2.1-4.8,0.5
		c-1.3,0.6-3.3,0.7-4.6-0.6c-0.9,1-3,0.9-3.5,0c-0.4-1-1-1.4-1.9-1.7c-0.9-0.3-1-2.8,0.4-3.1c-0.1-0.8,0-1.6,0.3-2s0-1.2-0.8-1.8
		c-0.8-0.7-1.5-3-0.7-4.4c-1.4,0.5-4.4-0.9-5-1.8C624.7,148.2,623.8,148.2,623.3,149z"/>
	<g id="g1088_1_" transform="matrix(.8 0 0 .8 -230.7 -7)">
		<path id="path1014_1_" class="st11" d="M1068.5,217.2c2.8-0.3,3.7-2,5.8-2"/>
		<path id="path1016_1_" class="st11" d="M1062.5,209.4l0.7,0.4c0.5,0.3,1.2,0.4,1.7,0.5"/>
		<path id="path1018_1_" class="st11" d="M1063.3,206.4l1.2,0.7"/>
		<path id="path1020_1_" class="st11" d="M1069.8,195c-1.6-1.6,2.8-4.8,7.5-0.2c1,0.9,3.1,0.9,3.8,0.7"/>
		<path id="path1022_1_" class="st11" d="M1076.3,197.5c2.2-0.5,5.4-0.5,6.4,2c1,2.4,2.8,0.8,4.3,3.7s3.9,6.1,6.2,3.9"/>
		<path id="path1024_1_" class="st11" d="M1084,213.7c-0.7-1.2-0.9-2.7-0.5-4c-0.8-1-0.5-3.1,0-4.1"/>
		<path id="path1026_1_" class="st11" d="M1077.8,207.7c0.1,0.9,1.3,2.5,3,2.8"/>
		<path id="path1028_1_" class="st11" d="M1089.8,214.5c-1-1.3-0.9-2.5-0.6-4"/>
		<path id="path1030_1_" class="st11" d="M1079.3,200.1c0,1.3,0.7,3,2,3.6c0.4,0.8,1.8,2.8,4.7,2.5"/>
		<path id="path1032_1_" class="st11" d="M1086.6,194.9c-1.9-1.6-4.2-2.7-6.6-3.1"/>
		<path id="path1034_1_" class="st11" d="M1069,236.3c-2.5,3.3-4,7.9-3,14.4c1.2,6.5,3.1,16-1.6,20.3"/>
		<path id="path1036_1_" class="st11" d="M1087.7,283.6c-3.3-0.8-8-0.8-10.7,1.1c-2.5,1.9-6.9,2-9.8,0.6"/>
		<path id="path1038_1_" class="st11" d="M1080.7,283.3c-2.9,0.5-4.2,2.6-4.2,7.9s-1.2,13.1-0.2,20.8"/>
		<path id="path1040_1_" class="st11" d="M1075.5,285.6c-2,0.5-3.9,0.5-3.5,5.6"/>
		<path id="path1042_1_" class="st11" d="M1065.7,291.3c0.1-3,1.2-6,3.2-5.4"/>
		<path id="path1044_1_" class="st11" d="M1086.5,292c0.1-7-1.4-8.9-3.4-8.8c2.7,0,4.6,0.4,5.8,11.6c0.8,8.4,2.6,11.3,4.6,17.9
			c5.2,17,2.6,43.2,5.2,52.5"/>
		<path id="path1046_1_" class="st11" d="M1082.5,294c5.5,15.8,8.4,33.4-0.5,61.6c6,16.8,12,28.9,13.2,35.8"/>
		<path id="path1048_1_" class="st11" d="M1065.3,331.4c1-3.6-2.7-4,0.5-16.7c1.4-5.5,1.6-8.8,0.7-10.5"/>
		<path id="path1050_1_" class="st11" d="M1066.5,311.7c-1.3,5.6,4.2,16.1,1.5,23.8"/>
		<path id="path1052_1_" class="st11" d="M1061.2,336.9c0,5,1.1,11.3,0.9,16.2c-0.3,4.9,1.7,7.1,4,11.8c8.4,16.7,14,28.6,13.3,44.4
			c-0.2,2.9,0.8,9-2.2,10.7"/>
		<path id="path1054_1_" class="st11" d="M1061.4,424.2c0.9,0,1.8-0.4,2.9-3c2.7-9.3,3.7-19.1,3-28.8"/>
		<path id="path1056_1_" class="st11" d="M1069.1,404.5c0.4,3.3,0.4,10.1-1.7,15.5"/>
		<path id="path1058_1_" class="st11" d="M1074.6,394.6c1.3,7,1.1,13.4,0.1,17.9"/>
		<path id="path1060_1_" class="st11" d="M1071.7,412.5c0.2,2.8,1.5,10-0.7,10.6"/>
		<path id="path1062_1_" class="st11" d="M1082.5,379c5.4,8.4,9.5,29,14,33.3"/>
		<path id="path1064_1_" class="st11" d="M1087.1,409c-0.1-2.3-0.2-5.5-1.5-7"/>
		<path id="path1066_1_" class="st11" d="M1029.5,308c0.1-1.5-0.2-3,1.6-5.5"/>
		<path id="path1068_1_" class="st11" d="M1026.9,309c0.3-5.5,0.2-6,1.8-7.6"/>
		<path id="path1070_1_" class="st11" d="M1024.7,309.1c0-4-0.4-5.3,1.2-7.8"/>
		<path id="path1072_1_" class="st11" d="M1044.6,190.2l-5.7,4.3"/>
		<path id="path1074_1_" class="st11" d="M1046.2,191.5c-0.7,0.1-2.7,1.8-6.2,4.5"/>
		<path id="path1076_1_" class="st11" d="M1046.3,193.8c-1.2,0.5-3.3,2.5-5.2,3.9"/>
		<path id="path1078_1_" class="st11" d="M1037.4,193.4l-2,2"/>
		<path id="path1080_1_" class="st11" d="M1087.6,435c-0.3-0.3-0.3-1.6,0.3-3"/>
		<path id="path1082_1_" class="st11" d="M1090.3,434.4c-0.5-0.4,0-2.2,0.3-3.3"/>
		<path id="path1084_1_" class="st11" d="M1092.7,433.5c-0.5-0.2-0.6-1.2,0-2.6"/>
		<path id="path1086_1_" class="st11" d="M1094.6,432.5c-0.3-0.1-0.4-0.7,0.1-2.2"/>
	</g>
	<g id="g1094_1_" transform="matrix(.8 0 0 .8 -230.7 -7)">
		<path id="path1090_1_" d="M1066.3,199.6c1,1.3,2.1,1.2,2.3,2c0.2,1,0.3,1,0.5,1.3c0.2,0.2-0.5,0.2-0.8,0h-1.7
			c-0.5,0-1.1-0.7-0.8-0.7c0.4-0.1,0.4-0.2,0.3-0.5c0-0.3,0.2-0.7,0.4-0.8l-0.1-0.4C1066.2,200.1,1066,199.3,1066.3,199.6
			L1066.3,199.6z"/>
		<path id="path1092_1_" d="M1066.9,198.3c1.6,0.2,3.1,0.9,4.3,2c0.8,1,0.1,0.7-0.3,0.7c-0.4,0-1.3-0.2-1.7-0.8
			c-0.7-0.7-1.5-1.1-2.4-1.4C1066.4,198.7,1066,198.2,1066.9,198.3L1066.9,198.3z"/>
	</g>
</g>
<path id="path1746" class="st0" d="M0,0h400v240H0V0z"/>
<path id="path1748" class="st1" d="M46.9,0l152.5,90.5L351.2,0H400v31l-150,89.5l150,89V240h-50l-150-89.5L50.6,240H0v-30l149.4-89
	L0,32V0H46.9z"/>
<path id="path1750" class="st12" d="M265,140.5L400,220v20l-169.4-99.5H265z M150,150.5l3.8,17.5l-120,72H0L150,150.5z M400,0v1.5
	l-155.6,94l1.2-22L368.8,0H400z M0,0l149.4,88h-37.5L0,21V0z"/>
<path id="path1752" class="st1" d="M150.6,0v240h100V0H150.6z M0,80v80h400V80H0z"/>
<path id="path1754" class="st12" d="M0,96.5v48h400v-48H0z M170.6,0v240h60V0H170.6z"/>
</svg>
