<?xml version="1.0" encoding="utf-8"?>
<!-- Generator: Adobe Illustrator 24.0.1, SVG Export Plug-In . SVG Version: 6.00 Build 0)  -->
<svg version="1.1" id="flag-icons-mt" xmlns="http://www.w3.org/2000/svg" xmlns:xlink="http://www.w3.org/1999/xlink" x="0px"
	 y="0px" viewBox="0 0 800 480" style="enable-background:new 0 0 800 480;" xml:space="preserve">
<style type="text/css">
	.st0{fill-rule:evenodd;clip-rule:evenodd;fill:#CE0000;}
	.st1{fill-rule:evenodd;clip-rule:evenodd;fill:#FFFFFF;}
	.st2{fill-rule:evenodd;clip-rule:evenodd;fill:#F1EEEE;}
	.st3{fill-rule:evenodd;clip-rule:evenodd;fill:#CC0000;}
	.st4{fill-rule:evenodd;clip-rule:evenodd;fill:#FFE600;}
	.st5{fill-rule:evenodd;clip-rule:evenodd;fill:#707070;}
	.st6{fill-rule:evenodd;clip-rule:evenodd;fill:#A0A0A0;}
	.st7{fill-rule:evenodd;clip-rule:evenodd;fill:#D0D0D0;}
	.st8{fill-rule:evenodd;clip-rule:evenodd;fill:#808080;}
	.st9{fill:none;stroke:#707070;stroke-width:1.1581;}
	.st10{fill-rule:evenodd;clip-rule:evenodd;fill:#D0D0D0;stroke:#707070;stroke-width:0.1851;stroke-miterlimit:6.3944;}
	.st11{fill-rule:evenodd;clip-rule:evenodd;fill:#A7A7A7;}
	.st12{fill-rule:evenodd;clip-rule:evenodd;fill:#D0D0D0;stroke:#707070;stroke-width:1.1581;}
	.st13{fill-rule:evenodd;clip-rule:evenodd;fill:#D0D0D0;stroke:#808080;stroke-width:0.1851;stroke-miterlimit:6.3944;}
	.st14{fill-rule:evenodd;clip-rule:evenodd;}
	.st15{fill:#D0D0D0;}
</style>
<path class="st0" d="M400,0h400v480H400V0z"/>
<path class="st1" d="M0,0h400v480H0V0z"/>
<g transform="translate(-12.4 -30.8) scale(1.5986)">
	<path class="st2" d="M128,116.9c0,1-1,1.7-2.3,1.7c-1.4,0-2.3-0.7-2.3-1.6c0-0.9,0.9-1.7,2.3-1.7c1.3,0,2.3,0.8,2.3,1.7V116.9z"/>
	<path class="st3" d="M53.8,108.8v43.1H97c0,7.2,7.2,14.4,14.4,14.4v43.1h43.2v-43.1c7.2,0,14.4-7.2,14.4-14.4H212v-43.1h-43.2
		c0-7.2-7.2-14.4-14.4-14.4V51.4h-43.1v43.1c-7.3,0-14.5,7.2-14.5,14.4L53.8,108.8L53.8,108.8z"/>
	<path class="st4" d="M55.3,110.2v40.3h43.1c0,7.2,7.2,14.4,14.4,14.4V208h40.2v-43c7.2,0,14.4-7.2,14.4-14.4h43.2v-40.3h-43.1
		c0-7.2-7.2-14.4-14.4-14.4V52.8h-40.3v43.1c-7.2,0-14.4,7.2-14.4,14.4L55.3,110.2L55.3,110.2z"/>
	<path class="st5" d="M56.7,111.7V149h43.1c0,7.2,7.2,14.4,14.4,14.4v43.1h37.4v-43.1c7.2,0,14.4-7.2,14.4-14.4H209v-37.3h-43.1
		c0-7.2-7.2-14.4-14.4-14.4V54.3h-37.4v43c-7.2,0-14.4,7.2-14.4,14.4H56.7V111.7z"/>
	<path class="st6" d="M58.2,113.1v34.5h43.1c0,7.2,7.2,14.4,14.4,14.4v43H150v-43.1c7.2,0,14.4-7.2,14.4-14.4h43.1V113h-43.1
		c0-7.2-7.2-14.4-14.4-14.4v-43h-34.4v43.1c-7.2,0-14.4,7.2-14.4,14.4H58.1L58.2,113.1z"/>
	<g>
		<path class="st7" d="M116,95.2c2.4,2.5,0.5,8.7-4.6,13.8c-5.1,5.1-11.1,6.9-13.7,4.6c-2.5-2.7-0.5-8.8,4.6-13.9
			S113.4,92.7,116,95.2z"/>
		<path class="st8" d="M112.8,98.2c2.5,2.5,1.9,7.3-1.5,10.8s-8.1,4.1-10.7,1.5c-2.5-2.5-1.9-7.3,1.5-10.7
			C105.5,96.4,110.3,95.8,112.8,98.2L112.8,98.2z"/>
		<path class="st7" d="M100.2,105.8l0.9-0.9l4.1,2l-2-4.1l1-1l4.1,8.1L100.2,105.8L100.2,105.8z M106.2,99.8l1.2-1.2l6,6.3l-1,0.9
			L106.2,99.8z"/>
	</g>
	<g>
		<path class="st7" d="M168,113.5c-2.5,2.5-8.7,0.5-13.7-4.6c-5-5.1-7.2-11.1-4.6-13.7c2.5-2.5,8.7-0.5,13.8,4.6
			c5.1,5.1,6.9,11.1,4.6,13.7H168z"/>
		<path class="st8" d="M164.9,110.5c-2.5,2.5-7.3,1.9-10.7-1.5s-4.1-8.1-1.6-10.7c2.5-2.5,7.4-1.9,10.8,1.5
			C166.8,103.2,167.5,107.9,164.9,110.5z"/>
		<path class="st7" d="M157.3,97.7l1,1l-2.1,4.1l4.1-2.1l1.2,1.2l-8.2,3.9L157.3,97.7z M163.4,103.9l0.9,0.9l-6,6.1l-1-1
			L163.4,103.9z"/>
	</g>
	<g>
		<path class="st7" d="M149.7,165.6c-2.5-2.5-0.5-8.7,4.6-13.8c5.1-5.1,11.1-7.1,13.7-4.6c2.5,2.5,0.5,8.7-4.6,13.8
			C158.2,166.1,152.2,168,149.7,165.6z"/>
		<path class="st8" d="M152.8,162.5c-2.5-2.5-1.9-7.3,1.5-10.7c3.4-3.4,8.1-4.1,10.7-1.5s1.9,7.3-1.5,10.7s-8.1,4.1-10.8,1.5H152.8z
			"/>
		<path class="st7" d="M165.4,154.8l-1,1.2l-4.1-2.1l2.1,4.1l-1,0.9l-4.1-8.1L165.4,154.8L165.4,154.8z M159.5,161l-1.2,1l-6-6.1
			l1-1L159.5,161z"/>
	</g>
	<g>
		<path class="st7" d="M97.7,147.3c2.5-2.5,8.7-0.5,13.7,4.5c5,5,7.1,11.2,4.6,13.7c-2.5,2.5-8.7,0.6-13.8-4.5
			c-5.1-5.1-6.9-11.2-4.6-13.7H97.7z"/>
		<path class="st8" d="M100.7,150.3c2.5-2.5,7.3-1.9,10.7,1.5c3.4,3.4,4.1,8.1,1.5,10.7c-2.4,2.5-7.3,1.9-10.7-1.5
			C98.8,157.6,98.1,152.8,100.7,150.3z"/>
		<path class="st7" d="M108.3,163l-1-1.2l2.1-3.9l-4.1,2l-1.2-1l8.2-4.1l-4.1,8.1V163z M102.2,156.9l-0.9-1l6-6l1,0.9L102.2,156.9z"
			/>
	</g>
	<path class="st9" d="M163.1,130.4c0,16.6-13.5,30.2-30.2,30.2s-30.1-13.5-30.1-30.2s13.5-30.2,30.2-30.2S163.1,113.7,163.1,130.4
		L163.1,130.4z"/>
	<path class="st9" d="M155.7,130.3c0,12.7-10.3,23-23,23s-23-10.3-23-23s10.3-23,23-23S155.8,117.7,155.7,130.3L155.7,130.3z"/>
	<path class="st7" d="M122.8,154.8c0,0.8-0.6,1.4-1.4,1.4c-0.8,0-1.4-0.6-1.4-1.4s0.6-1.4,1.4-1.4
		C122.1,153.4,122.8,154,122.8,154.8z M145.7,154.8c0,0.8-0.6,1.4-1.4,1.4c-0.8,0-1.4-0.6-1.4-1.4s0.6-1.4,1.4-1.4
		C145.1,153.4,145.7,154,145.7,154.8z M131.8,154.8v1.5H130c-2,0-2,1.5,0,1.5h1.9v1.4c0,1.6,1.7,1.7,1.9,0.1v-1.6h2c2,0,2-1.4,0-1.4
		h-1.9v-1.5C133.8,153.3,131.8,153.3,131.8,154.8L131.8,154.8z"/>
	<path class="st10" d="M125.7,133.5v0.9c0,0-0.5,0.6-3.4,0.8c-2.9,0.2-3.4,0-3.4,0c0.1,0.8,0.7,2.2,0.5,3.8c0.1,2-0.5,3.7-0.5,3.7
		c0,0.1-0.3,0.2-0.9,0.1c0.5-0.5,0.5-1.6,0.5-3.5c0-1.6-1.7-4.3-1.4-5C117.5,133.7,125.7,133.5,125.7,133.5z M137,130.5l7.5-0.1
		c0,0,1.2,2.3,1,3.5c0,1.2-0.5,2.3-0.9,1.7c-0.6-0.6,0.2-0.5,0.3-1.7c0-1.4-0.9-2.7-0.9-2.7s-2.1,0.8-5.1,0.7
		C136,131.7,137.4,130.5,137,130.5z"/>
	<path class="st10" d="M138,132.7c2.8-0.1,4.6,0.2,4.6,0.2s1.2,2.3,1.2,3.5c-0.1,1.2-0.5,2.3-1,1.7c-0.5-0.5,0.2-0.3,0.3-1.7
		c0-1.3-0.9-2.7-0.9-2.7s-2,0.8-5,0.7c-3-0.2-2.1-0.3-2.4-0.5c-0.3,0-0.5,0.9-5,1c-4.6,0-6.9-1-6.9-1s-0.5,0.7-3.2,0.9h-3.5
		c0.1,0.7,0.7,2.1,0.6,3.8c0,1.9-0.6,3.7-0.6,3.7h-0.8c0.5-0.3,0.3-1.6,0.5-3.4c0-1.7-1.9-4.3-1.5-5.1c0.5-0.7,2.5,0,2.9-0.3
		c0.3-0.5-1.9-3.1-1.4-5.6c0.3-2.4,2.8-1.7,5.7-1.7c2.9,0.1,9.3,0.9,10.9,0c1.6-0.8,0.9-3.9,2.3-5.9c0.9-1.1,2.3-1.8,3.8-1.7
		c1,0,2.3,3.5,2.3,4.3l-0.3,0.5h-0.5v0.3c-1.2,0.1-1.3-0.9-2-1.6c-0.2,1.2,0.9,5.1,0.9,7.6C138.9,131.9,138.1,132.8,138,132.7
		L138,132.7z"/>
	<path class="st10" d="M128.8,129c0,0.8-3.6,2.8-3.9,3.5c-0.2,0.8,0.9,1.2,0.6,1.6c-0.3,0.5-0.7,0.2-0.8,0.3l-1.4-2.9
		c0,0,3.5-1.6,3.4-2.3c-0.1-0.7-2.5-1.2-3-2.8c-0.5-1.6-0.2-5-0.6-5.7c-0.3-0.7-4.6-1.4-4.6-2.3c0-1.2,4.4-3.9,4.9-4.4
		c0.5-0.5,0.9,0.5,0.5,0.8c-0.5,0.5-3.8,3.1-3.8,3.5c0,0.5,2.8,0.9,3.7,0.9c1,0,1.5-0.5,1.5-0.9c0-0.3-1-0.3-1-1.2
		c0-0.8,0.6-1.4,1.5-1.4c0.5,0,1.4,0.6,1.4,1.3c0,0.7-0.8,0.8-0.9,1.3c-0.1,0.6,0.9,0.9,1.9,0.9s4.2,2.4,4.6,2.9
		c0.6,0.3,1,0.3,0.6,0.8s-0.2,0.9-0.7,0.5c-0.2-0.2-0.4-0.5-0.5-0.8c0-0.3-3.5-2.1-4.1-1.7c-0.5,0.5,0,5.6,0,6
		C127.9,127.7,128.9,127.7,128.8,129z"/>
	<path class="st11" d="M122.8,119.1h5.8v5.9h-5.8V119.1z"/>
	<path class="st8" d="M122.2,111.9l19,28.5c0.2,0.3,0.2,0.5,0.1,0.6l0,0c-0.1,0.1-0.3-0.1-0.5-0.4l-19-28.5
		c-0.2-0.3-0.2-0.5-0.1-0.6l0,0C121.8,111.5,122,111.7,122.2,111.9z"/>
	<path class="st12" d="M124.3,114.5c0,0.5-0.4,0.9-1,0.9c-0.5,0-1-0.4-1-0.9c0-0.5,0.4-0.9,1-0.9C123.9,113.7,124.3,114,124.3,114.5
		L124.3,114.5z"/>
	<path class="st8" d="M140.9,122.2c0,0.3-2.3,0.8-4.7,0.8c-2.5,0-4.7-0.5-4.7-0.8s2.2,0.6,4.6,0.6
		C138.7,122.7,140.9,121.8,140.9,122.2z"/>
	<path class="st11" d="M123.3,125.1h4.7v1.7h-4.6L123.3,125.1z"/>
	<path class="st8" d="M138.7,120.9c-0.5,0.9-0.8,1.5-0.9,1.4c0,0,0.2-0.9,0.7-1.7l0.9-1.4C139.5,119.3,139.1,120.1,138.7,120.9z
		 M139.8,123.2l-0.9,0.6c0.2-0.4,0.6-0.8,0.9-1c0.6-0.5,1-0.7,1-0.6l-0.9,0.9L139.8,123.2z"/>
	<path class="st8" d="M139.4,122l0.6,1.4l-0.9-1.2l-0.6-1.4L139.4,122z M138.9,125.7c0,0-1.4,0.2-3.2,0.2c-1.9,0-3.4-0.1-3.4-0.2
		l3.4-0.2C137.5,125.5,138.9,125.5,138.9,125.7z M128,125.3c0,0.1-1,0.2-2.3,0.2c-1.4,0-2.3,0-2.3-0.2c0,0,0.9-0.2,2.3-0.2
		C127,125.1,128,125.2,128,125.3z"/>
	<path class="st13" d="M117.6,140.1c0,0,0.8,1.9,4.2,1.9c3.2,0,4.4-0.6,3.1-1.5c-1.3-0.9-3.9-0.7-3.5,0.1c0.2,0.9-1,1.2-1.3,0.6
		c-0.3-0.6-1.5-2.4,0.6-2.5c2.2-0.1,6.7-0.8,7.9,0.5c1.2,1.3-1.3,2.3,0.6,2.7c1.7,0.2,2.1-0.3,5.2-0.5c3.1-0.2,4.4,0.6,5.4,0.5
		c1.2,0,0.9-2,0-2.3c-0.8-0.6-2.4-0.7-2.9-1.2c-0.3-0.6-1.5,0-1.4-0.7c0-0.6,1.6,0.3,1.6,0.1l0.2-0.2H137l0.1-0.2l-0.2,0.1l0.1-0.2
		c0,0-0.3,0.2-0.3,0h-0.2c0.2-0.2,0.1-0.2,0-0.3h-0.3v-0.3c-0.2,0-0.2,0-0.3,0.2v-0.6c0-0.1,0.2-0.2,0.6-0.2c0.8,0,1.2,0.9,1.5,0.9
		c0.2,0,0.6-0.9,1.6-0.6l1.7,0.7c0.6,0.3-0.3,0.7,0,1.2c0.3,0.5,2.4,2,1.9,3.7c-0.6,1.6-2.3,1.9-2.3,2.5c-0.2,0.7,5,0.5,6.3,0.7
		c0.9,0.2,1.7,0.7,2.2,1.4l-2.3,0.1c0,0-1.2-0.6-4.1-0.7c-2.9,0-3.9-1.2-5.1-1.4l-4.6,0.2l-3.5-0.3c-0.7-0.1-4.9,1.9-4.9,2.3H122
		c0,0,0.3-1,2-1.2c1.5-0.2,3.1-0.9,3-1.4l0.5-3c0-0.7,0.7-1.2,0.6-1.4c-0.1-0.5-2-0.8-3.7-0.8s-3.6,0.1-3.9,0.5
		c-0.2,0.5,0,1.7,0.3,1.5c0.3,0-0.1-0.9,0.2-1c0.8-0.2,1.5-0.3,2.3-0.3c0.9,0,2.4,0.8,2.4,1.2c0,0.1,0.5,0.9-0.2,1.3
		c-1.2,0.4-2.4,0.5-3.6,0.5c-1.2-0.1-2.4-0.4-3.5-0.9C117.9,141,117.6,140.2,117.6,140.1L117.6,140.1z"/>
	<path class="st14" d="M138.7,137.2c0,0.2-0.2,0.3-0.3,0.3c-0.2,0-0.3-0.2-0.3-0.3c0,0,0,0,0,0c0-0.2,0.2-0.3,0.3-0.3
		C138.5,136.9,138.7,137,138.7,137.2z"/>
	<path class="st15" d="M156.6,131.8l1.9,0.3l3.1-2.1l-0.2,1.2l-1.6,1l-0.9,0.5l0.6,0.9l1,1.6l-0.2,1.2l-2-3.4l-1.9-0.3L156.6,131.8z
		 M153.5,118.1l3.5-1.6l-0.9-2.1l0.5-0.2l2.3,5.1l-0.3,0.2l-1-2.2l-3.5,1.7L153.5,118.1L153.5,118.1z M147.9,111.4l3.2-3l0.7,0.7
		v5.1l2.5-2.3l0.6,0.7l-3.2,3l-0.7-0.7v-5.1l-2.5,2.3L147.9,111.4L147.9,111.4z M133.6,105.6l0.6-4.4h0.9l-0.6,4.1l3.5,0.3v0.6
		L133.6,105.6z M126.5,106.3l-0.8-4.4l0.9-0.2l0.7,3.9l3.5-0.7v0.6L126.5,106.3L126.5,106.3z M113.4,112.7l-0.3-0.3l2.3-1.9l1.2,1.2
		c-0.2,0.5-0.6,1-0.9,1.4c-0.3,0.4-0.7,0.8-1,1.2c-0.5,0.4-1,0.7-1.6,0.9c-0.6,0.1-1.2,0.2-1.5,0c-0.4,0-0.9-0.3-1.2-0.6
		c-0.2-0.3-0.4-0.7-0.3-1.2c0-0.5,0.1-1,0.5-1.5c0.2-0.5,0.7-0.9,1.2-1.3c0.4-0.3,0.8-0.6,1.3-0.8l1-0.2c0.2,0,0.6,0,0.8,0.2
		l-0.5,0.6c-0.2-0.1-0.5-0.1-0.7-0.1l-0.7,0.1c-0.3,0.2-0.6,0.4-0.8,0.6c-0.3,0.2-0.7,0.5-0.8,0.8c-0.2,0.2-0.4,0.4-0.5,0.7v0.6
		c0,0.3,0.1,0.7,0.3,0.9l0.8,0.6l1.2-0.1c1.1-0.5,1.9-1.3,2.4-2.3l-0.5-0.7L113.4,112.7L113.4,112.7z M113.3,144.7l-3.7,2.7
		l-2.8-3.9l0.5-0.3l2.3,3.1l1-0.8l-1.9-2.7l0.3-0.2l2,2.7l1.6-1.2L113.3,144.7L113.3,144.7z M107.9,139c0.6-0.1,0.9-0.5,1.2-1v-1.7
		c-0.2-0.6-0.5-1.1-1-1.5c-0.3-0.3-0.9-0.5-1.4-0.3c-0.4,0.1-0.7,0.3-0.9,0.6c-0.1,0.2-0.3,0.6-0.3,0.9l0.1,1.3
		c0.2,0.7,0.5,1.2,0.9,1.6C106.7,139.1,107.3,139.2,107.9,139L107.9,139z M108.2,139.9c-0.7,0.2-1.4,0-2-0.5
		c-0.6-0.6-1.1-1.3-1.3-2.1c-0.2-0.7-0.2-1.2-0.2-1.9c0-0.7,0.2-0.9,0.5-1.3c0.3-0.4,0.7-0.7,1.2-0.8c0.4-0.1,0.8,0,1.2,0.1
		c0.5,0.2,0.8,0.5,1.2,0.9c0.7,1,1,2.2,0.9,3.5c0,0.5-0.2,0.9-0.5,1.3C108.9,139.5,108.5,139.8,108.2,139.9L108.2,139.9z
		 M108.5,130.8h-4.6v-3.2l0.2-1.4l0.5-0.8c0.2-0.2,0.4-0.3,0.7-0.2c0.3,0,0.6,0.1,0.8,0.5c0.1,0.3,0.3,0.8,0.3,1.5
		c0.2-0.5,0.4-0.9,0.8-1.3l1.3-1.2v1.2l-0.9,0.8l-0.7,0.7c-0.1,0.1-0.3,0.3-0.3,0.5c0,0.2,0,0.3,0,0.5v0.5l-0.1,1.2h2.1L108.5,130.8
		L108.5,130.8z M106,129.8v-2c0-0.3,0-0.7,0-1c0-0.2-0.1-0.3-0.2-0.5c-0.1-0.1-0.2-0.2-0.3-0.2c-0.2,0-0.5,0.1-0.6,0.3l-0.2,1.2v2.3
		h1.5L106,129.8z M118.4,110.2V105l0.9-0.6l4.7,2.3l-0.9,0.6l-1.4-0.7l-2.4,1.5v1.6L118.4,110.2L118.4,110.2z M119.2,107.6l2.1-1.2
		l-1.2-0.7c-0.4-0.2-0.7-0.4-1-0.6l0.1,0.9V107.6L119.2,107.6z M140.7,106.2l4.9-2l0.8,0.6l-0.3,5.3l-0.8-0.7l0.1-1.5l-2.3-1.7
		l-1.5,0.6L140.7,106.2L140.7,106.2z M143.5,105.9l2,1.4v-1.4c0.1-0.4,0.1-0.8,0.2-1.2c-0.2,0.2-0.5,0.4-0.8,0.6L143.5,105.9z
		 M155.4,122.5l4.4-1l0.7,3.1l0.2,1.4l-0.2,0.8c-0.1,0.2-0.3,0.4-0.6,0.5c-0.3,0-0.7,0-0.9-0.2c-0.4-0.4-0.7-0.9-0.8-1.4
		c0,0.2,0,0.4,0,0.6l-0.5,0.9l-0.9,1.4l-0.2-1.2l0.7-1.2l0.5-0.7c0.2-0.3,0.2-0.6,0.2-0.9c0-0.2-0.1-0.4-0.1-0.6l-0.2-1l-2,0.5
		L155.4,122.5L155.4,122.5z M158.1,122.9l0.5,2c0,0.3,0.2,0.7,0.3,0.9c0,0.2,0.2,0.3,0.3,0.5l0.5,0.1c0.1,0,0.3-0.2,0.3-0.5
		c0.1-0.4,0.1-0.8,0-1.2l-0.6-2.2L158.1,122.9z"/>
</g>
</svg>
