<?xml version="1.0" encoding="utf-8"?>
<!-- Generator: Adobe Illustrator 24.0.1, SVG Export Plug-In . SVG Version: 6.00 Build 0)  -->
<svg version="1.1" id="flag-icons-mw" xmlns="http://www.w3.org/2000/svg" xmlns:xlink="http://www.w3.org/1999/xlink" x="0px"
	 y="0px" viewBox="0 0 800 480" style="enable-background:new 0 0 800 480;" xml:space="preserve">
<style type="text/css">
	.st0{fill-rule:evenodd;clip-rule:evenodd;fill:#F41408;}
	.st1{fill-rule:evenodd;clip-rule:evenodd;fill:#21873B;}
	.st2{fill-rule:evenodd;clip-rule:evenodd;}
	.st3{fill:#F31509;}
</style>
<path class="st0" d="M0,0h800v480H0V0z"/>
<path class="st1" d="M0,320h800v160H0V320z"/>
<path class="st2" d="M0,0h800v160H0V0z"/>
<g>
	<path class="st3" d="M489.6,95.8C509,83.7,525.9,68.4,530,64.6c0.1-0.1,0.2-0.1,0.2-0.2c1.7-1.7,1.7-4.4,0.1-6.1
		c-1.4-1.2-3.6-2.2-6.9,0.3C511.1,70,499.7,82.4,489.6,95.8z"/>
	<path class="st3" d="M506.4,45.6C506.4,45.6,506.4,45.6,506.4,45.6c1.5-2,1-4.8-1-6.2c-1.6-1-4-1.7-6.8,1.3
		c-2.8,3-16.2,22.4-25.9,41.7C489.3,67.5,502.9,50,506.4,45.6z"/>
	<path class="st3" d="M472.5,82.7c0.1-0.1,0.1-0.2,0.2-0.3c-0.1,0.1-0.2,0.2-0.3,0.2L472.5,82.7z"/>
	<path class="st3" d="M518.6,54.6c0,0,0.1-0.1,0.1-0.1c1.6-1.8,1.4-4.5-0.4-6.1c-1.5-1.2-3.9-2-6.9,0.8
		c-3.1,2.7-18.5,21.1-30.1,39.7C499.5,75.3,514.8,58.7,518.6,54.6z"/>
	<path class="st3" d="M493.2,37.6C493.2,37.6,493.2,37.6,493.2,37.6c1.3-2.2,0.6-4.9-1.5-6.1c-1.7-0.9-4.2-1.4-6.6,1.8
		c-8.7,13.9-16.1,28.6-22,43.9C478.3,61,490.2,42.2,493.2,37.6z"/>
	<path class="st3" d="M479.3,30.7c1.3-2.6-0.3-5.3-2.1-6c-1.8-0.8-4.2-1.1-6.4,2.3c-2.2,3.5-11.9,24.8-17.7,45.5
		C466.8,55.1,476.8,35.5,479.3,30.7z"/>
	<path class="st3" d="M432.2,65.5c10.1-19.3,16.2-40.2,17.8-45.3c0.7-2.8-1.3-5.1-3.3-5.6c-1.8-0.4-4.3-0.3-5.8,3.4
		S433.9,44.3,432.2,65.5L432.2,65.5z"/>
	<path class="st3" d="M465.2,24.9c1-2.6-0.9-5.2-2.7-5.8c-1.9-0.6-4.3-0.6-6.2,2.9c-1.8,3.6-9.4,25.7-13.3,46.7
		C451.7,54.8,459.2,40.2,465.2,24.9z"/>
	<path class="st3" d="M564.8,112.3c2.9-1.2,3.5-4.2,2.6-5.8c-0.8-1.6-2.5-3.3-6.6-1.9c-15.9,6.9-31.2,15-45.8,24.4
		C537.8,123.7,559.5,114.5,564.8,112.3z"/>
	<path class="st3" d="M439.3,88.5C385,68.2,322.8,91.8,300.5,141h196.8C486.1,116.2,465.1,97.2,439.3,88.5z"/>
	<path class="st3" d="M519.2,138.2c23.2-3.5,45.7-10.9,51.2-12.8c2.9-0.9,3.8-3.9,3.2-5.5c-0.7-1.7-2.2-3.5-6.4-2.5
		C550.7,123,534.6,130,519.2,138.2z"/>
	<path class="st3" d="M497.2,103.3c15.2-8,29.6-17.3,43.2-27.8c2.5-1.8,2.2-4.9,1-6.2c-1.3-1.4-3.4-2.6-7-0.3
		C521,79.3,508.5,90.8,497.2,103.3z"/>
	<path class="st3" d="M538.9,141.5h26.7c4.3-0.9,7.5-1.7,9.2-2.1c3-0.8,4.2-3.6,3.7-5.3c-0.5-1.8-1.9-3.6-6.1-3
		C561,134,549.8,137.4,538.9,141.5z"/>
	<path class="st3" d="M410.7,62c6.4-20.5,8.5-42.1,9-47.4c0.3-2.9-2.2-4.9-4.2-5c-1.9-0.2-4.3,0.3-5.1,4.2
		C408.9,29.8,409,46,410.7,62L410.7,62z"/>
	<path class="st3" d="M557.5,98.6c2.6-1.4,3-4.4,2-6c-1-1.5-2.9-3-6.9-1.3c-15.1,8.1-29.4,17.5-42.9,28
		C526.2,113.7,542.2,106.8,557.5,98.6z"/>
	<path class="st3" d="M549.4,86.6c2.5-1.6,2.6-4.7,1.4-6.1c-1.1-1.5-3.1-2.9-6.8-0.9c-14.3,9.3-27.8,19.9-40.3,31.5
		C525.1,102.2,544.6,89.6,549.4,86.6z"/>
	<path class="st3" d="M509.6,119.4C509.6,119.4,509.7,119.4,509.6,119.4C509.6,119.4,509.6,119.4,509.6,119.4L509.6,119.4z"/>
	<path class="st3" d="M434.5,16.7c0.5-2.8-1.8-5-3.8-5.3c-1.9-0.3-4.4,0-5.5,3.9c-1.1,3.7-4.3,26.7-4.1,48
		C429.3,43.3,433.5,22,434.5,16.7z"/>
	<path class="st3" d="M300.9,102.4c-0.1,0-0.1-0.1-0.2-0.1C300.8,102.4,300.8,102.4,300.9,102.4L300.9,102.4z"/>
	<path class="st3" d="M257.2,75c13.7,10.3,28.3,19.4,43.5,27.3c-11.5-12.3-24-23.6-37.4-33.8c-2.4-1.8-5.7-1.1-6.9,0.3
		C255.1,70.2,254.2,72.2,257.2,75z"/>
	<path class="st3" d="M247.7,86.8c14.7,9.2,30.2,17.2,46.2,23.8c-16.5-15.3-36-27.7-40.8-30.8c-2.6-1.6-5.8-0.6-6.9,0.9
		C245.1,82.1,244.4,84.3,247.7,86.8z"/>
	<path class="st3" d="M308.3,95.4v-0.1c-13.4-17.6-30.2-32.9-34.4-36.6c-1.9-1.7-4.8-1.8-6.9-0.3c-1.4,1.3-2.5,3.3,0.3,6.3
		C280.1,76.1,293.8,86.4,308.3,95.4z"/>
	<path class="st3" d="M226.7,125.2c16.8,5.4,34,9.5,51.4,12.2c-20.2-10.9-42.6-18.3-48.2-20.2c-2.9-0.9-5.7,0.8-6.4,2.5
		C222.9,121.3,222.7,123.6,226.7,125.2z"/>
	<path class="st3" d="M316.8,88.4c-11.5-18.6-26.9-35.3-30.7-39.3c-1.8-1.8-4.6-2.1-6.8-0.8c-1.5,1.2-2.8,3-0.4,6.2
		C290.5,66.9,303.2,78.2,316.8,88.4z"/>
	<path class="st3" d="M222.1,139.6c2.9,0.7,5.9,1.3,8.8,1.9h28.3c-16-5.6-30.5-9.1-34.8-10.2c-3.1-0.6-5.7,1.3-6.2,3
		S218,138.3,222.1,139.6z"/>
	<path class="st3" d="M239.2,99.5c3.5,2.3,26.2,12.9,48.4,19.9v0c-17.9-13.8-38.7-24.6-43.7-27.3c-2.8-1.4-5.9-0.2-6.8,1.4
		C236.2,95.1,235.6,97.3,239.2,99.5z"/>
	<path class="st3" d="M399.1,61.7c4.5-21,4.6-42.7,4.6-48c0-2.9-2.7-4.7-4.7-4.7s-4.3,0.6-4.7,4.5c-0.4,4,0.6,27,4.8,48V61.7z"/>
	<path class="st3" d="M232.2,112.4c3.8,2,27.3,10.7,50.1,16c-19.1-12.4-40.8-21.5-46.1-23.8c-2.9-1.1-5.8,0.4-6.6,2
		C228.7,108.2,228.5,110.4,232.2,112.4z"/>
	<path class="st3" d="M376.8,63.3L376.8,63.3c-0.2-16.1-1.9-32.1-5-47.9c-0.6-2.8-3.6-4.1-5.6-3.8c-1.9,0.3-4.1,1.3-3.7,5.3
		C365.8,32.8,370.5,48.3,376.8,63.3z"/>
	<path class="st3" d="M365.8,65.5c0-0.1-0.1-0.1-0.1-0.2c0,0,0,0.1,0,0.1L365.8,65.5z"/>
	<path class="st3" d="M365.7,65.3c-1.9-21.3-8.1-42.1-9.6-47.2c-0.9-2.8-4-3.8-5.9-3.4c-1.9,0.5-4,1.7-3.2,5.6
		C351.8,35.8,358.1,50.9,365.7,65.3z"/>
	<path class="st3" d="M387.9,62c2.2-21.2,0.1-42.8-0.4-48.1c-0.2-2.8-3.2-4.4-5.2-4.3c-1.9,0.2-4.2,1.1-4.2,5
		c1.7,16.1,5,31.9,9.7,47.4H387.9z"/>
	<path class="st3" d="M355.3,68.5L355.3,68.5c-3.8-21.1-12-41.5-14-46.5c-1.1-2.6-4.3-3.4-6.2-2.8c-1.8,0.6-3.7,2-2.6,5.8
		C338.7,40.2,346.4,54.7,355.3,68.5z"/>
	<path class="st3" d="M325.5,82.4v-0.1c-9.7-19.5-23.4-37.2-26.8-41.5c-1.7-2.4-5.2-2.4-6.7-1.4c-1.7,1.1-3.1,2.9-1,6.3
		C301.4,58.9,312.9,71.2,325.5,82.4z"/>
	<path class="st3" d="M334.9,77c-7.8-20.1-19.8-38.8-22.8-43.4c-1.6-2.5-4.9-2.8-6.6-1.9c-1.7,0.9-3.3,2.6-1.6,6.1
		C313,51.8,323.4,64.9,334.9,77z"/>
	<path class="st3" d="M345.2,72c-5.9-20.6-15.9-40.3-18.4-45.1c-1.4-2.6-4.6-3.2-6.4-2.4c-1.8,0.7-3.6,2.3-2.2,6
		C325.9,45.1,334.9,59,345.2,72z"/>
</g>
</svg>
