<?xml version="1.0" encoding="utf-8"?>
<!-- Generator: Adobe Illustrator 24.0.1, SVG Export Plug-In . SVG Version: 6.00 Build 0)  -->
<svg version="1.1" id="Layer_1" xmlns="http://www.w3.org/2000/svg" xmlns:xlink="http://www.w3.org/1999/xlink" x="0px" y="0px"
	 viewBox="0 0 800 480" style="enable-background:new 0 0 800 480;" xml:space="preserve">
<style type="text/css">
	.st0{fill:#FFFFFF;}
	.st1{fill:#006E44;}
	.st2{fill:#DE000C;}
	.st3{fill:#C4C27A;}
	.st4{fill:#419B0C;}
	.st5{fill:#417FA1;}
	.st6{fill:#FF9500;}
	.st7{fill:#FFB500;}
	.st8{fill:#9B4400;}
</style>
<rect y="0" class="st0" width="800" height="480"/>
<rect y="0" class="st1" width="267.2" height="480"/>
<rect x="532.8" y="0" class="st2" width="267.2" height="480"/>
<g>
	<g>
		<path class="st3" d="M363.2,195.2h-12.8c-6.4,0-12.8-4.8-12.8-12.8s4.8-12.8,12.8-12.8c1.6,0,3.2,1.6,3.2,3.2s-1.6,3.2-3.2,3.2
			c-3.2,0-6.4,3.2-6.4,6.4s3.2,6.4,6.4,6.4h12.8c1.6,0,3.2,1.6,3.2,3.2S364.8,195.2,363.2,195.2z"/>
	</g>
	<g>
		<g>
			<path class="st4" d="M494.4,254.4C492.8,254.4,492.8,254.4,494.4,254.4c-4.8,0-8-4.8-6.4-8c1.6-4.8,1.6-9.6,1.6-14.4
				c0-3.2,3.2-6.4,6.4-6.4s6.4,3.2,6.4,6.4c0,6.4,0,11.2-1.6,17.6C499.2,251.2,497.6,254.4,494.4,254.4z"/>
		</g>
		<g>
			<path class="st4" d="M385.6,332.8C385.6,332.8,384,332.8,385.6,332.8c-11.2-1.6-22.4-4.8-30.4-9.6c-3.2-1.6-4.8-6.4-3.2-9.6
				c1.6-3.2,6.4-4.8,9.6-3.2c8,4.8,17.6,6.4,25.6,8c3.2,0,6.4,4.8,6.4,8C392,329.6,388.8,332.8,385.6,332.8z M414.4,332.8
				c-3.2,0-6.4-1.6-6.4-6.4c0-3.2,1.6-6.4,6.4-8c9.6-1.6,17.6-4.8,25.6-8c3.2-1.6,8,0,9.6,3.2s0,8-3.2,9.6
				C436.8,326.4,427.2,329.6,414.4,332.8C416,331.2,416,332.8,414.4,332.8z M332.8,305.6c-1.6,0-3.2,0-4.8-1.6
				c-8-8-14.4-16-19.2-25.6c-1.6-3.2,0-8,3.2-9.6s8,0,9.6,3.2c4.8,8,9.6,16,16,22.4c3.2,3.2,3.2,6.4,0,9.6
				C337.6,305.6,334.4,305.6,332.8,305.6z M467.2,305.6c-1.6,0-3.2,0-4.8-1.6c-3.2-3.2-3.2-6.4,0-9.6c6.4-6.4,12.8-14.4,16-22.4
				c1.6-3.2,6.4-4.8,9.6-3.2c3.2,1.6,4.8,6.4,3.2,9.6C486.4,288,480,296,472,304C470.4,305.6,468.8,305.6,467.2,305.6z"/>
		</g>
		<g>
			<path class="st4" d="M305.6,254.4c-3.2,0-6.4-1.6-6.4-6.4c-1.6-6.4-1.6-11.2-1.6-17.6c0-3.2,3.2-6.4,6.4-6.4s6.4,3.2,6.4,6.4
				c0,4.8,0,9.6,1.6,14.4C313.6,249.6,310.4,252.8,305.6,254.4C307.2,254.4,307.2,254.4,305.6,254.4z"/>
		</g>
	</g>
	<g>
		<g>
			<path class="st5" d="M440,284.8c-3.2,0-4.8-1.6-6.4-4.8c0-3.2,1.6-6.4,4.8-6.4c8-1.6,12.8-3.2,12.8-3.2c3.2,0,6.4,1.6,6.4,4.8
				c0,3.2-1.6,6.4-4.8,6.4C454.4,281.6,449.6,283.2,440,284.8C441.6,284.8,440,284.8,440,284.8z"/>
		</g>
		<g>
			<path class="st5" d="M400,289.6c-1.6,0-3.2,0-4.8,0c-3.2,0-4.8-3.2-4.8-6.4s3.2-4.8,6.4-4.8c6.4,0,12.8,0,20.8-1.6
				c3.2,0,6.4,1.6,6.4,4.8c0,3.2-1.6,6.4-4.8,6.4C411.2,289.6,404.8,289.6,400,289.6z M374.4,284.8h-1.6c-8-3.2-14.4-6.4-20.8-11.2
				c-3.2-1.6-3.2-4.8-1.6-8s4.8-3.2,8-1.6c6.4,3.2,11.2,6.4,17.6,9.6c3.2,1.6,4.8,4.8,3.2,8C379.2,283.2,376,284.8,374.4,284.8z"/>
		</g>
		<g>
			<path class="st5" d="M337.6,260.8c-1.6,0-3.2,0-4.8-1.6c-3.2-3.2-6.4-8-8-12.8c-1.6-3.2,0-6.4,1.6-8c3.2-1.6,6.4,0,8,1.6
				c1.6,3.2,4.8,8,8,11.2c1.6,3.2,1.6,6.4,0,8C340.8,259.2,339.2,260.8,337.6,260.8z"/>
		</g>
	</g>
	<g>
		<rect x="380.8" y="289.6" class="st6" width="40" height="22.4"/>
	</g>
	<g>
		<path class="st7" d="M363.2,184c-9.6,8-3.2,12.8-3.2,12.8s6.4-3.2,12.8-6.4C372.8,190.4,371.2,182.4,363.2,184z"/>
	</g>
	<g>
		<path class="st8" d="M436.8,232l32,24c3.2-8,4.8-17.6,4.8-27.2c0-35.2-25.6-65.6-59.2-72c-22.4-4.8-28.8,8-22.4,9.6
			c14.4,3.2,19.2,11.2,14.4,19.2c-4.8-9.6-14.4-14.4-20.8-14.4c-9.6,0-24,6.4-22.4,16c8-1.6,9.6,6.4,9.6,6.4c4.8-3.2,8-4.8,11.2,0
			c-8,9.6-11.2,25.6-4.8,33.6c6.4,9.6,38.4,40,38.4,40c3.2-3.2,4.8-6.4,4.8-9.6l9.6,11.2l25.6-4.8l-35.2-27.2
			c-1.6-4.8-3.2-11.2-4.8-16C432,216,436.8,232,436.8,232z"/>
	</g>
	<g>
		<path class="st7" d="M404.8,275.2h-1.6c-1.6-1.6-1.6-3.2,0-3.2c6.4-6.4,17.6-8,24,0c1.6,1.6,1.6,3.2,0,3.2c-1.6,1.6-3.2,1.6-3.2,0
			c-4.8-4.8-12.8-4.8-16,0C406.4,275.2,406.4,275.2,404.8,275.2z"/>
	</g>
	<g>
		<path class="st7" d="M360,249.6h-1.6c-1.6-1.6-1.6-3.2,0-3.2l6.4-6.4c1.6-1.6,3.2-1.6,3.2,0c1.6,1.6,1.6,3.2,0,3.2l-6.4,6.4H360z"
			/>
	</g>
	<g>
		<path class="st7" d="M384,252.8C382.4,252.8,382.4,252.8,384,252.8l-12.8-4.8c-1.6,0-1.6-1.6-1.6-3.2c0-1.6,1.6-1.6,3.2-1.6
			l12.8,4.8c1.6,0,1.6,1.6,1.6,3.2C385.6,251.2,384,252.8,384,252.8z"/>
	</g>
	<g>
		<path class="st3" d="M363.2,256c-8,0-14.4-6.4-14.4-14.4V240c0-1.6-1.6-3.2-3.2-3.2c-6.4,0-11.2-4.8-11.2-11.2
			c0-3.2,1.6-4.8,3.2-8c0,0,1.6-1.6,1.6-3.2c0-1.6,0-1.6-1.6-3.2c0,0-1.6-1.6-3.2-1.6s-3.2-1.6-3.2-3.2c0-1.6,1.6-3.2,3.2-3.2
			c3.2,0,4.8,1.6,6.4,3.2c1.6,1.6,3.2,4.8,3.2,6.4c0,3.2-1.6,4.8-3.2,6.4c-1.6,1.6-1.6,1.6-1.6,3.2c0,3.2,1.6,4.8,4.8,4.8
			c4.8,0,8,3.2,8,9.6v1.6c0,4.8,3.2,8,8,8s8-3.2,8-8s-3.2-8-8-8c-3.2,0-6.4-1.6-9.6-3.2c-4.8-4.8-4.8-12.8,0-17.6l12.8-12.8
			c1.6-1.6,1.6-3.2,0-4.8s-1.6-3.2,0-4.8s3.2-1.6,4.8,0c3.2,3.2,3.2,9.6,0,12.8l-12.8,12.8c-3.2,3.2-3.2,6.4,0,9.6
			c1.6,1.6,3.2,1.6,4.8,1.6c8,0,14.4,6.4,14.4,14.4C376,251.2,369.6,256,363.2,256z"/>
	</g>
	<g>
		<path class="st7" d="M336,214.4h-6.4c-1.6,0-3.2-1.6-3.2-3.2s1.6-3.2,3.2-3.2h6.4c1.6,0,3.2,1.6,3.2,3.2S337.6,214.4,336,214.4z"
			/>
	</g>
</g>
</svg>
