<?xml version="1.0" encoding="utf-8"?>
<!-- Generator: Adobe Illustrator 24.0.1, SVG Export Plug-In . SVG Version: 6.00 Build 0)  -->
<svg version="1.1" id="flag-icons-my" xmlns="http://www.w3.org/2000/svg" xmlns:xlink="http://www.w3.org/1999/xlink" x="0px"
	 y="0px" viewBox="0 0 800 480" style="enable-background:new 0 0 800 480;" xml:space="preserve">
<style type="text/css">
	.st0{fill:#CC0000;}
	.st1{fill:#FFFFFF;}
	.st2{fill:#000066;}
	.st3{fill:#FFCC00;}
</style>
<path id="rect2186" class="st0" d="M0,0h800v480H0V0z"/>
<path id="rect2188-1" class="st1" d="M0,39.9h800v38.4H0V39.9z"/>
<path id="rect2188-1-9" class="st1" d="M0,118.6h800V157H0V118.6z"/>
<path id="rect2188-1-9-1" class="st1" d="M0,197.4h800v38.4H0V197.4z"/>
<path id="path837" class="st2" d="M0,0.5h400v280H0V0.5z"/>
<g>
	<polygon class="st3" points="274.2,140.5 312.5,125.7 271.5,128.9 299.6,98.9 264.1,119.7 276.5,80.5 253.5,114.5 247.5,73.8 
		241.5,114.5 218.5,80.4 230.9,119.7 195.4,98.9 223.5,128.9 182.5,125.7 220.8,140.5 182.4,155.3 223.4,152.1 195.4,182.1 
		230.9,161.3 218.5,200.5 241.5,166.5 247.4,207.2 253.4,166.5 276.4,200.6 264.1,161.3 299.6,182.1 271.5,152.1 312.5,155.3 	"/>
	<path class="st3" d="M156.5,205.5c-35.9-15.9-52.1-57.9-36.2-93.8c15.9-35.9,57.9-52.1,93.8-36.2c-27.9-20-65.4-20-93.3,0
		c-35.9,25.8-44.1,75.7-18.4,111.6s75.7,44.1,111.6,18.4C195.8,213.6,174.9,213.6,156.5,205.5z"/>
</g>
<path id="rect2188-1-9-1-4" class="st1" d="M0,276.2h800v38.4H0V276.2z"/>
<path id="rect2188-1-9-1-4-4" class="st1" d="M0,354.4h800v38.4H0V354.4z"/>
<path id="rect2188-1-9-1-4-4-6" class="st1" d="M0,441.6h800V480H0V441.6z"/>
</svg>
