<?xml version="1.0" encoding="utf-8"?>
<!-- Generator: Adobe Illustrator 24.0.1, SVG Export Plug-In . SVG Version: 6.00 Build 0)  -->
<svg version="1.1" id="flag-icons-mz" xmlns="http://www.w3.org/2000/svg" xmlns:xlink="http://www.w3.org/1999/xlink" x="0px"
	 y="0px" viewBox="0 0 800 480" style="enable-background:new 0 0 800 480;" xml:space="preserve">
<style type="text/css">
	.st0{fill-rule:evenodd;clip-rule:evenodd;fill:#009A00;}
	.st1{fill-rule:evenodd;clip-rule:evenodd;fill:#FFFFFF;}
	.st2{fill-rule:evenodd;clip-rule:evenodd;}
	.st3{fill-rule:evenodd;clip-rule:evenodd;fill:#FFCA00;}
	.st4{fill-rule:evenodd;clip-rule:evenodd;fill:#FF0000;}
	
		.st5{fill-rule:evenodd;clip-rule:evenodd;fill:#FFFFFF;stroke:#000000;stroke-width:1.0312;stroke-linecap:round;stroke-linejoin:round;stroke-miterlimit:3.75;}
	.st6{fill:none;stroke:#000000;stroke-width:1.0312;stroke-linecap:round;stroke-linejoin:round;stroke-miterlimit:3.75;}
	.st7{fill:none;stroke:#000000;stroke-width:1.125;stroke-miterlimit:3.75;}
	
		.st8{fill-rule:evenodd;clip-rule:evenodd;stroke:#000000;stroke-width:1.0312;stroke-linecap:round;stroke-linejoin:round;stroke-miterlimit:3.75;}
</style>
<path class="st0" d="M0,0h800v150H0V0z"/>
<path class="st1" d="M0,150h800v15H0V150z"/>
<path class="st2" d="M0,165h800v150H0V165z"/>
<path class="st1" d="M0,315h800v15H0V315z"/>
<path class="st3" d="M0,330h800v150H0V330z"/>
<path class="st4" d="M0,0v480l350-240L0,0z"/>
<g>
	<path class="st3" d="M181.4,312.2l-48-35.2l-48,35.2l18.7-56.5l-48.3-34.8l59.5,0.2l18.1-56.6l18.2,56.7l59.5-0.3l-48.3,34.8
		L181.4,312.2z"/>
	<path class="st5" d="M91.7,272.7h34.7c2.8,3.1,8.9,4.4,14.8,0c10.9-6,31.9,0,31.9,0l4.1-4.4l-10-33l-3.7-3.9c0,0-7.8-4.7-22.5-3.1
		c-14.7,1.6-19.9-0.5-19.9-0.5s-12.8,1.5-16.5,3.4l-4.1,4.1C100.5,235.3,91.7,272.7,91.7,272.7z"/>
	<path class="st6" d="M98.7,264.2c0,0,33-4.1,42.6,8.5c-5.3,3.8-10.1,4-15.2,0.3c0.8-1.4,11.8-12.9,40-9.1"/>
	<path class="st7" d="M134.1,231.2l-0.3,36.4 M163.5,231.7l6.2,29"/>
	<path class="st6" d="M105,231.2l-3.5,15"/>
	<path class="st8" d="M69.3,276.7l8.1,9.6c0.9,0.6,1.9,0.6,2.7,0l12-14.4l5.1-6.3c0.8-0.9,1-2,0.9-2.8l9.8-8.7l2.1,0.2
		c-0.9-0.2-1.6-0.7-0.9-1.7l2.2-1.7l1.7,2.2c0,0-2.4,3.2-2.7,3.2h-2.6l-5.1,4.6l2.2,1.9l3.3,9.2l4.1-2.9l-2.6-9.4l5.7-6.3l-2.2-3.4
		l1.5-1.9c0,0,20,12.6,27.8,9.2c0.2,0,0.5-9,0.5-9s-20.8-2.2-21.3-6.3c-0.5-4.1,4.7-4.7,4.7-4.7l-2.2-3l0.5-1.7l3.7,4.5l8.2-6.9
		l48.3,54.9c2.6-1,3.2-1.7,3.4-4.3l-47.3-54.3l3.6-3.8c0.8-0.8,0.9-1.1,0.9-2.4l5.6-4.8c1.5,0.5,2.7,1.5,3.6,2.8l15.4-12.8
		c0.4,0.4,1.6,0.8,2.4,0.4l25.2-24.3l-27.5,19.4l-0.9-0.7c0-0.8,0.9-0.9,0-2.4c-1.1-1.3-2.7,1.2-2.9,1.2c-0.3,0-4-1.3-4.9-3
		l-0.2,4.4l-7,6.6l-5.3-0.3l-7.7,7.5l-0.9,2.8l1.2,2.5c0,0-4.1,3.6-4.1,3.4c0-0.3-0.8-1.1-0.9-1.2l3.6-3.2l0.5-2.2l-1.1-1.9
		c-0.4,0.3-4.9,5.1-5.2,4.5l-13.1-14.5l0.8-2.7l-8.2-8.9c-3-1-7.8-1.2-8.7,5.3c-0.8,1.5-6.9,0.2-6.9,0.2l-3.4,0.8l-19.1,26.9
		l10.6,12.8l21.8-27.5l0.7-7.8l4.5,5.1c1.6,0.2,3,0.3,4.4-0.5l12.8,14.3l-2.2,2.2l1.9,2.1l2.2-1.5l0.8,1.2c-1,0.6-1.9,1.4-2.9,2
		c-1.7-1.1-3.4-2.5-3.3-4.7l-7.2,6l-0.3,1.1l-21.5,17.8l-1.9,0.3l-0.5,5.6l14-11.6v-1.7l1.4,1.2l10.9-8.7c0,0,0.8,0.9,0.5,0.9
		c-0.3,0-9.7,8.7-9.7,8.7l-0.2,0.9l-1.7,1.5l-0.9-0.7l-13.1,11.6h-1.9l-7.2,7.2c-1.9,0.2-3.5,0.4-5.1,1.4L69.3,276.7L69.3,276.7z"/>
</g>
</svg>
