<?xml version="1.0" encoding="utf-8"?>
<!-- Generator: Adobe Illustrator 24.0.1, SVG Export Plug-In . SVG Version: 6.00 Build 0)  -->
<svg version="1.1" id="flag-icons-nc" xmlns="http://www.w3.org/2000/svg" xmlns:xlink="http://www.w3.org/1999/xlink" x="0px"
	 y="0px" viewBox="0 0 800 480" style="enable-background:new 0 0 800 480;" xml:space="preserve">
<style type="text/css">
	.st0{fill:#009543;}
	.st1{fill:#ED4135;}
	.st2{fill:#0035AD;}
	.st3{fill:#FAE600;stroke:#000000;stroke-width:5.3;}
	.st4{stroke:#000000;stroke-width:6.4;}
</style>
<path class="st0" d="M0,0h800v480H0V0z"/>
<path class="st1" d="M0,0h800v320H0V0z"/>
<path class="st2" d="M0,0h800v160H0V0z"/>
<circle class="st3" cx="276.8" cy="240" r="157.3"/>
<path class="st4" d="M250.1,263.5h53.3 M250.1,224h53.3 M276.8,83.2V352"/>
<path d="M213.4,384.4c64.2,26.3,124.4,1.7,124.4,1.7s-22.7-24.6-34.3-34.2c-11.4-9.4-44.8-9-56.2,0
	C235.5,362.2,224.2,373,213.4,384.4z"/>
<ellipse cx="276.8" cy="312.5" rx="17.6" ry="25.6"/>
<ellipse cx="276.8" cy="243.7" rx="21.3" ry="13.5"/>
<ellipse transform="matrix(0.1602 -0.9871 0.9871 0.1602 53.5026 425.4847)" cx="276.8" cy="181.3" rx="21.3" ry="21.3"/>
<path d="M302.4,101.9c0,0,1.8,3-2,10c-18.6,33.5-37.3,34.2-40.8,37.1c-4,3.2-5.6,3-5.6,3c0.3-2.9,0.5-14.6,0.7-15.7
	c2.9-15.7,26.5-15.5,45-31.5C302.6,102.3,302.4,101.8,302.4,101.9L302.4,101.9z M240,173.9c0,0,4.3,12,4.8,24
	c1,19.2,19.4,19.7,32,19.7v-10.7c-9.5,0-17.7-1.4-24.5-15.4C248.7,185.3,244.6,179.4,240,173.9z M239.5,328.5c0,0,6.7-8.3,14.6-27.7
	c4-10.1,13.8-16,22.7-16v-15c-20.3,0-30,7.5-31,18.6C244.5,301.9,242.4,315.3,239.5,328.5z"/>
<path d="M313.6,173.9c0,0-4.3,12-4.8,24c-1,19.2-19.4,19.7-32,19.7V207c9.5,0,17.7-1.4,24.5-15.5C304.9,185.3,309,179.4,313.6,173.9
	z M314.1,328.6c0,0-6.7-8.4-14.6-27.8c-4-10.1-13.8-16-22.7-16V270c20.3,0,30,7.5,31,18.6C309.1,302.1,311.2,315.4,314.1,328.6
	L314.1,328.6z"/>
</svg>
