<?xml version="1.0" encoding="utf-8"?>
<!-- Generator: Adobe Illustrator 24.0.1, SVG Export Plug-In . SVG Version: 6.00 Build 0)  -->
<svg version="1.1" id="flag-icons-nf" xmlns="http://www.w3.org/2000/svg" xmlns:xlink="http://www.w3.org/1999/xlink" x="0px"
	 y="0px" viewBox="0 0 800 480" style="enable-background:new 0 0 800 480;" xml:space="preserve">
<style type="text/css">
	.st0{fill-rule:evenodd;clip-rule:evenodd;fill:#FFFFFF;}
	.st1{fill-rule:evenodd;clip-rule:evenodd;fill:#198200;}
</style>
<path class="st0" d="M243.5,0h313v480h-313V0z"/>
<path class="st1" d="M0,0h243.5v480H0V0z M556.5,0H800v480H556.5V0z"/>
<path class="st1" d="M485.6,340.8c-2,0-10.3-4-15.1,0c-4.4-3.3-24.4-5.5-24.4-5.5c-2.6-2.6,47.6,1.3,50.5-0.7
	c5.9-5.9-11-5.2-13.6-3.3c-4.3-2.6-9.7-2.8-14.2-0.6c-1.7-4.1-18-2.4-27-3.5c-3-1.7-2.5-2.7-0.5-3.8c19,0.8,37.8,3.3,56.8,2.5
	c5.1-6.7-6.5-9.3-13.6-3.5c-4.2-7-12.7-0.3-18.4-1c-5.7-0.6-3-7.6,4.2-6.5c7.2,1,20.1-0.4,22.5-3.7c2.4-3.3-1.4-6.7-13.3-3.5
	c-4-4-13,0-17.1,1.3c-5.6-3.1-18.5-0.5-22.8,0.6c-4.3-2.6,22.5-7,22.5-7c10.4-0.2,16.3-2,19.5-2.8c15.7-8.4-0.2-9.3-8.4-3.2
	c-5.1-4-10,0.3-14.6,1.8c-4.3,1.5-8.8,2.1-13.4,2c0-0.6,12.6-8.3,12.6-8.3s15.3-1.1,18.4-1.5c3-0.5,18.8-8.5-2.7-3.1
	c-7.4,0.6-11.8,0.2-14.7,0.4c-16.5-1.7,1.6-3.3,1.6-3.3s23.4-2.1,23.7-3.3c0.4-9-19.1-4.8-19.3-4.8c0-6.5-18.2,0.2-18.2,0
	c-3.5-2,2-4.1,2-4.1c4.8-1.2,12-1.6,13.9-3.1c0,0,13.6-0.1,15.2-3.7c-3.3-9.3-28.8,1.6-32.2,3.2c-4.6,0,3-7.4,3.3-7.6
	c0.2-0.3,21-1.1,30.9-14.5c0.7-8.1-11.6,4.6-11.6,4.6c-1-10.6-13.4,0.7-20.6,1.5c-7.3,1-7.5-3.3-2.5-4c5-0.6,10.8-0.1,13.6-7.8
	c2.9-7.7,11.4,0.4,13-2.4c1.5-2.9-3.1-5.3-3.1-5.3s6.4-6.6-4-6.3c-10.2,0.2-23.6-1.4-23.6-1.4s10.7-4.1,20.8-4c10,0.3,4.6-7.1-5-7.1
	c-9.7,0-14.7-3.3-14.7-3.3l16.4-6.2l-1-4.6c0,0,9.6-7.7-4-5.9l-15.2,2l-27.4,4.1c-0.2,0-7.4-2.2-0.4-4c7-1.8,31.8-6.7,35.5-5.4
	s-0.4-9.2-13.6-10.5c-13.1-1.3-21.3,3.3-21.3,3.3s-8.5-3.1-0.6-5.7c7.9-2.7,20.4,0.9,20.4,0.9s14-4.2,2.4-6
	c-11.6-1.7-15.3,1.6-20.6,1.8c-2.1-2.7,18.2-3.3,19.5-5.5c-2.2-4-14.8,0-22.2,0c-3-1.3-3.3-3.5,0.3-4.8c7.5-0.3,14.6,0.1,22.1-0.2
	c-0.2-4,0-8.7-0.2-12.8c-9.6-1.7-20.8,1.3-26.1,1c1.4-4.3,22-5.5,24.3-6.7c4.8-6-20.1,0-20.4,0c-4.3-0.6-4-3.4-1.3-5
	c6.4-0.7,20.6,1,19.6-3.4c-0.8-4-10-1.9-13.6-1c-3.8,0.9-9.3,0.2-9.3,0.2c-2.3-3.2,21.5-1.9,21.3-4.4c-0.3-2.8-15.1-0.8-20.2-0.6
	c-3.9-2.7,19-4.5,19.3-4.8c0.9-7.3-15.3,0-18.4,0c-3,0-1.5-4.6-1.5-4.6s6.3-2.9,6.1-3.3c-1.6-0.9-3.4-1.6-5.2-2c-0.5,0,0-5,0-5
	s5.2-4,4.8-5.1c-0.5-1.1-6.2,0.9-6.2,0.9v-4.4c0,0,4.2-0.4,4.6-2.4c0.5-2-5-2.2-5-2.2l-2.2-23l-2,21.5l-7.2,1c0,0,5,2.9,6,5.8
	c0.8,2.8-6.2,2-6.2,2s5.7,4.8,6.1,6.5c0.5,1.8-7.9,2.2-7.9,2.2s7,5,7.5,7.9c0.4,2.8,0,4.4,0,4.4s-11.6-10.1-19-7.3
	c-4,2,8.8,3,17.2,10.3c0,1.7-20.5-5-21.2-0.8c0.4,1.1,21.9,4.2,23.4,7c-7.8,0.3-24-1.7-23.4,0.9c-1.7,3,15.2,1.3,22.3,3.7
	c2.1,2.4,1.9,4.4-1.7,4.6c-6.9-3.3-22.1-5.7-22.2-1.5c0.1,1,15.8,0.4,21.5,4.1c-7.6,1.8-33.4-3.5-33.5-1c0.7,1.3,4.8,6.5,11.8,6.3
	c7-0.2,23.3,2.8,24.4,5c1,2.2-21.1-4.6-29.4-0.6c-8.4,4,23.9,1.5,29.1,6.3c5.3,4.9-10.5-0.4-10.5-0.4s-22-3-25.2-1.5
	c-3.3,1.5-7,5-7,5s2.2,4.4,4.4,3.5c2.2-0.9-0.7,2.7-0.7,2.7s30.7,7.4,37.5,14c6.8,6.6-39-10.3-39-10.3s-18.5,6.8,1,7.2
	c-2.2,3.3,1.2,5.3,1.2,5.3s32.4,6.8,35.7,12c3.3,5.3-22.1-5-27.9-7.9c-5.7-2.8-21.9,1.8-21.7,2.9c0.3,1,8,2.6,8.1,4.6
	c0.3,2-9.4,2.6-9.4,4.4c0,1.7,41,10.3,52,19.5s-32.2-11-32.2-11s2.4,3.3,0,4.2c-2.5,0.9-11-12.3-25-4.2c-2.6,3.4,12.2,6,16,6.4
	c-1.3,3.3-2.4,4.4,2.8,7.7c5.2,3.3-10.3-4.8-10.3-4.4l1.1,5.7c-4.8-4-10.7-5.1-16.2-1.1c0,0-0.2,4,5.5,6.4c-3.1,6.3,3.5,4.3,14,10.3
	c-15.6-4.1-16.9,3.5-5.7,5.2c11.2,1.7,41.9,2.9,49.1,12.3c7.3,9.4-10.3-3.6-12.3-4c-0.4,0.3-0.8,4.9-0.8,4.9
	c-4.7-2.7-9-5.2-14.6-6.3c-0.5,0.9-0.3,2.1-0.8,3c-5-3.7-9.5-6.2-16.9-6.6l-0.9,3.5c0,0-6.1-7.7-18.2,0c-6.7,4.9,25.5,1.8,30.7,7.5
	c5.3,5.7,1.1,6.6,1.1,6.6l-13.1-4.9c0,0-15.6-2.8-20,0.7c-4.4,3.5,64,12,66,21.5c1.4,5-16-5.4-31.1-9.9l-1.8,5c0,0-6-6-12.7-7
	c-0.2,0,1.3,6,1.3,6s-16.8-8-25.4-3.8c-8.5,4.2,29.8,6.4,33.3,10.3c3.5,4-11.6-2.6-13,0c-1.2,2.7-19.9-4.8-19.6-1.3
	c0.2,3.5,2.6,5.5,2.6,5.5s38.8,3.7,40.1,8.3c1.3,4.6-21.5-2.6-21.5-2.6s-2.2,3.3-0.4,4.8c1.7,1.6-13.2-8.7-11.8-2
	c-4.9-1.9-17.4-7.8-15.6-3.2c1.7,4.6,35.3,11.2,35.3,11.2s-14.7,1-14,4.8c-19-11.5-18.5-4.2-18-4c0.4,0.2-24.4-6.1-5.7,4
	c18.7,10.1,10,8.3,10.3,8.5c0.2,0.2,2,5,1.5,5c-0.4,0-12.7-6.5-16.9-7c-4.1-0.4-23.9,5.5-2.8,14.8c21.1,9.3,34-2.2,45.6-1
	c11.6,1.4,17,3.4,16,7c-1.1,3.8-11.9-12.1-23.2,1.7c-13-2.6-21.7-4-15,5.4c-21-7.9-34,2.4-7.4,6.6c26,0.8,42-6.4,42-6.4
	s4.5,8.1,10.8,2.4c6.4-5.7,6.6,2.2,6.8,2.2l6.2-2.6h1.5l0,0v52.6l21.3,0.2c0,0-6.8-45.8-3.1-52c3.7-6,7.2-5.2,7.2-5.2
	s13.9,4.2,15.4,3.5c1.5-0.6-0.2-5.2,7.2-4.6c2.4-0.9,1.1-5,3.3-5.2c2.2-0.3,44.5,11.8,53.7,0.4C496.1,334.6,487.8,340.5,485.6,340.8
	z"/>
</svg>
