<?xml version="1.0" encoding="utf-8"?>
<!-- Generator: Adobe Illustrator 24.0.1, SVG Export Plug-In . SVG Version: 6.00 Build 0)  -->
<svg version="1.1" id="flag-icons-ni" xmlns="http://www.w3.org/2000/svg" xmlns:xlink="http://www.w3.org/1999/xlink" x="0px"
	 y="0px" viewBox="0 0 800 480" style="enable-background:new 0 0 800 480;" xml:space="preserve">
<style type="text/css">
	.st0{fill:#0067C6;}
	.st1{fill:#FFFFFF;}
	.st2{fill:#C8A400;}
	.st3{clip-path:url(#SVGID_2_);}
	.st4{opacity:0.62;fill:#17C0EB;stroke:#17C0EB;stroke-width:0.102;enable-background:new    ;}
	.st5{fill:#FF0000;}
	.st6{fill:#FF6600;}
	.st7{fill:#FFFF00;}
	.st8{fill:#00FF00;}
	.st9{fill:#00CCFF;}
	.st10{fill:#0000FF;}
	.st11{fill:#800080;}
	.st12{fill:#510000;}
	.st13{fill:url(#SVGID_3_);}
	.st14{fill:#FF2A2A;}
	.st15{fill:url(#SVGID_4_);}
	.st16{fill:#910000;}
	.st17{fill:#FF3A3A;}
	.st18{fill:url(#h_9_);}
	.st19{fill:url(#h_10_);}
	.st20{fill:url(#h_11_);}
	.st21{fill:url(#h_12_);}
	.st22{fill:url(#h_13_);}
	.st23{fill:url(#h_14_);}
	.st24{fill:url(#h_15_);}
	.st25{fill:url(#h_16_);}
	.st26{fill:url(#h_17_);}
	.st27{fill:url(#SVGID_5_);}
	.st28{fill:url(#SVGID_6_);}
	.st29{fill:#97C924;}
	.st30{fill:#EDE71F;}
	.st31{fill:#C6CB24;}
	.st32{fill:#9ECB34;}
	.st33{fill:url(#SVGID_7_);}
	.st34{fill:url(#SVGID_8_);}
	.st35{fill:url(#SVGID_9_);}
	.st36{fill:#93BC30;}
	.st37{fill:#CCD11E;}
	.st38{fill:url(#SVGID_10_);}
	.st39{fill:url(#SVGID_11_);}
	.st40{fill:url(#m_9_);}
	.st41{fill:url(#m_10_);}
	.st42{fill:url(#m_11_);}
	.st43{fill:url(#m_12_);}
	.st44{fill:url(#m_13_);}
	.st45{fill:url(#m_14_);}
	.st46{fill:url(#m_15_);}
	.st47{fill:url(#m_16_);}
	.st48{fill:url(#m_17_);}
</style>
<path class="st0" d="M0,0h800v480H0V0z"/>
<path class="st1" d="M0,160h800v160H0V160z"/>
<g>
	<g>
		<path class="st2" d="M327.8,239.9l7.9,0.5c0-0.4,0.1-0.8,0.1-1.2l-3.1-0.2c0.1-1.3,0.2-2.5,0.2-3.8c1.1-0.8,2.2-1.6,3.3-2.4
			l0.1-1.5l-3.5,2.5c-0.1-0.8-0.6-1.7-1.4-2c-0.7-0.3-1.6-0.3-2.2,0.2c-0.8,0.6-0.9,1.6-1,2.5C328.1,236.4,328,238.1,327.8,239.9
			L327.8,239.9z M329,238.8c0.1-1.3,0.2-2.6,0.3-3.9c0.1-0.6,0.2-1.4,0.8-1.8c0.5-0.3,1.3-0.1,1.5,0.5c0.4,1,0.2,2.1,0.2,3.1
			l-0.2,2.2C330.7,238.9,329.9,238.8,329,238.8L329,238.8z M328.9,227.7l7.7,1.8l1.7-7.5l-1.1-0.3l-1.5,6.4l-2.3-0.5l1.3-5.7
			l-1.1-0.3l-1.3,5.7l-2.1-0.5l1.4-6.1l-1.1-0.3L328.9,227.7L328.9,227.7z M331.6,217.4l7.5,2.6l0.4-1.1l-2.9-1
			c0.4-1.1,0.8-2.2,1.2-3.4c0.3-0.9,0.4-2-0.1-2.9c-0.4-0.6-1.2-1-2-1c-0.9,0-1.6,0.7-1.9,1.4c-0.6,1.1-0.9,2.2-1.3,3.4L331.6,217.4
			L331.6,217.4z M333.1,216.7c0.4-1.1,0.8-2.3,1.2-3.4c0.3-0.6,0.6-1.3,1.3-1.5c0.6-0.1,1.1,0.3,1.2,0.9c0.1,1.1-0.3,2.1-0.6,3
			l-0.6,1.8L333.1,216.7z M335.8,207.8c1.4,0.8,2.8,1.7,4.2,2.5c0.8,0.4,1.8,0.7,2.6,0.2c1.1-0.6,1.9-1.8,2.4-2.9
			c0.4-1,0.8-2.1,0.2-3.1c-0.6-1-1.7-1.4-2.6-2l-2.7-1.6l-0.6,1c1.3,0.8,2.7,1.6,4,2.4c0.6,0.4,1.2,1.1,1.1,1.9
			c-0.1,0.9-0.7,1.7-1.2,2.5c-0.4,0.6-1.2,1.1-2,0.9c-0.8-0.2-1.5-0.7-2.2-1.1l-2.7-1.6L335.8,207.8L335.8,207.8z M341.5,198.5
			l6.3,4.8c1-1.3,1.9-2.5,2.9-3.8c0.6-0.8,1.1-1.9,0.7-2.8c-0.3-0.8-1.2-1.4-2-1.4c-0.4-0.1-0.9,0.2-1.1,0.4
			c0.2-0.8-0.5-1.6-1.2-1.9c-0.9-0.3-1.9,0.3-2.5,0.9c-0.7,0.8-1.3,1.7-2,2.5L341.5,198.5L341.5,198.5z M343.1,198.3
			c0.7-0.9,1.4-1.9,2.2-2.8c0.4-0.4,0.9-0.8,1.5-0.6c0.5,0.2,0.6,0.9,0.4,1.3c-0.4,0.8-1,1.5-1.5,2.2l-0.9,1.1L343.1,198.3
			L343.1,198.3z M345.6,200.3c0.8-1,1.5-2,2.3-2.9c0.4-0.4,0.9-1,1.6-0.8c0.6,0.1,1,0.7,0.8,1.3c-0.3,1-1.1,1.8-1.7,2.7l-1,1.3
			L345.6,200.3L345.6,200.3z M348.6,190.2l5.4,5.7l4.7-4.4l-0.8-0.8l-3.7,3.5l-0.1,0.1l-0.1-0.1l-4.6-4.9L348.6,190.2z M355.5,184.1
			l4.8,6.3l0.9-0.7l-4.8-6.3L355.5,184.1z M362.6,179.3c-0.8,0.5-1.4,1.1-1.9,1.7c-0.5,0.7-0.7,1.4-0.8,2.1c0,0.7,0.2,1.4,0.6,2.1
			c0.4,0.6,0.9,1.1,1.6,1.5c0.6,0.3,1.3,0.5,2.1,0.4c0.8-0.1,1.6-0.4,2.6-1c0.9-0.6,1.6-1.2,2-2c0.4-0.7,0.5-1.5,0.3-2.3l-1.1,0.4
			c0.3,1.6-0.7,2.3-1.9,3.1c-1.8,1.1-3.5,1-4.6-0.6c-1.1-1.8,0.1-3.4,1.6-4.3c1.1-0.7,2.1-1.1,3.2-0.5l0.9-0.8
			c-0.6-0.4-1.3-0.6-2-0.6C364.3,178.4,363.5,178.7,362.6,179.3L362.6,179.3z M372,174.6l-0.8,8.9l1.2-0.5l0.2-2.7l0,0l4-1.6
			l2.1,1.8l1.2-0.5l-6.7-5.8L372,174.6L372,174.6z M373,175.5l2.6,2.3l-2.9,1.2L373,175.5L373,175.5z M389.3,169.7l0.5,7.9
			c1.4-0.1,2.9-0.2,4.3-0.3c1.1-0.1,2.3-0.4,3.1-1.3c1-1.1,1.1-2.7,0.7-4.1c-0.4-1.2-1.4-2.1-2.7-2.3c-1.2-0.2-2.4,0-3.6,0
			L389.3,169.7L389.3,169.7z M390.5,170.8c1.1-0.1,2.3-0.2,3.4-0.2c0.6,0,1.3,0.2,1.8,0.6c0.8,0.5,1.3,1.5,1.2,2.5
			c-0.1,1.1-0.9,2.1-1.9,2.4c-0.6,0.2-1.2,0.2-1.9,0.3l-2.2,0.1L390.5,170.8L390.5,170.8z M400.3,169.2l-0.5,7.9l7.7,0.4l0.1-1.1
			c-2.2-0.1-4.4-0.2-6.5-0.4c0-0.8,0.1-1.6,0.1-2.4l5.9,0.3l0.1-1.1c-2-0.1-3.9-0.2-5.9-0.3l0.1-2.1c2.1,0.1,4.2,0.2,6.3,0.4
			l0.1-1.1L400.3,169.2L400.3,169.2z M421,172.5l-2.9,7.4l1,0.4l2.3-5.8l0.1-0.3l0.1,0.3l2.7,7.8l1.3,0.5l2.9-7.4l-1-0.4l-2.3,5.8
			l-0.1,0.3l-0.1-0.3l-2.7-7.8L421,172.5z M431.6,177.1l-3.6,7l-1.1-0.5l3.6-7L431.6,177.1z M437.5,180.6c-0.8-0.5-1.5-0.8-2.4-1
			c-0.8-0.2-1.5-0.1-2.2,0.2c-0.7,0.3-1.2,0.7-1.7,1.4c-0.4,0.6-0.6,1.3-0.7,2c0,0.7,0.1,1.4,0.5,2.1c0.4,0.7,1.1,1.3,2,1.9
			c0.9,0.6,1.8,0.9,2.6,1c0.8,0,1.6-0.2,2.3-0.7l-0.8-0.8c-1.3,0.9-2.4,0.3-3.6-0.4c-1.7-1.2-2.4-2.8-1.3-4.4
			c1.2-1.8,3.1-1.3,4.6-0.3c1.1,0.7,1.9,1.5,1.8,2.7l1,0.5c0.1-0.7,0-1.4-0.3-2.1C439,181.8,438.4,181.2,437.5,180.6L437.5,180.6z
			 M445.1,186.3l-8.3,3.3l1,0.9l2.6-1l0,0l3.3,2.8l-0.7,2.7l1,0.9l2.1-8.6L445.1,186.3L445.1,186.3z M444.8,187.6l-0.8,3.4l-2.4-2.1
			L444.8,187.6L444.8,187.6z M451,191.8l-6.1,5l0.7,0.9l2.4-2c0.8,1,1.6,2,2.4,2.9c-0.3,1.3-0.5,2.7-0.8,4l0.9,1.1l0.8-4.2
			c0.7,0.6,1.7,0.8,2.5,0.4c0.7-0.3,1.3-1,1.4-1.8c0.1-1.1-0.7-2-1.3-2.8C453,194.2,452,193,451,191.8z M450.9,193.4
			c0.9,1.1,1.8,2.1,2.6,3.2c0.4,0.6,0.8,1.3,0.4,2c-0.4,0.6-1.1,0.5-1.6,0.1c-1-0.7-1.6-1.7-2.4-2.5l-1-1.2L450.9,193.4L450.9,193.4
			z M460.3,204.3l-8.9,0.4l0.7,1.2l2.8-0.1l0,0l2.2,3.7l-1.5,2.3l0.7,1.2l4.8-7.5L460.3,204.3L460.3,204.3z M459.5,205.5l-1.9,2.9
			l-1.6-2.8L459.5,205.5L459.5,205.5z M465.4,214.8c-0.5-1.3-1.3-2.7-2.6-3.4c-1.5-0.7-3.4-0.4-4.5,0.9c-0.9,1.1-1,2.6-0.7,3.9
			c0.3,1.5,1,3,2,4.1l-0.6,0.2l0.4,1.1l3.7-1.3l-1.4-4l-0.9,0.3l1.1,2.9l-1.3,0.5c-1.1-1-1.7-2.4-2-3.8c-0.2-1-0.2-2.3,0.5-3.1
			c0.9-1,2.5-1.2,3.6-0.4c1.1,0.8,1.7,2.1,2,3.3c0.2,0.8,0.2,1.8-0.5,2.5c-0.2,0.1,0.1,0.3,0.2,0.5l0.3,0.5c0.7-0.5,1.1-1.3,1.1-2.2
			C465.8,216.4,465.6,215.6,465.4,214.8L465.4,214.8z M467.6,221l-4.4,0.9c-0.8,0.2-1.4,0.4-1.8,0.8c-0.4,0.3-0.7,0.8-0.8,1.5
			c-0.1,0.6-0.1,1.4,0.1,2.4c0,0,0,0,0,0c0.2,1,0.5,1.7,0.8,2.2c0.4,0.6,0.8,0.9,1.3,1.1c0.5,0.2,1.2,0.2,2,0l4.4-0.9l-0.2-1.1
			l-4.3,0.8c-1.9,0.4-2.6-0.6-2.9-2.4l0,0c-0.3-1.7-0.1-2.9,1.8-3.3l4.3-0.8L467.6,221L467.6,221z M470.1,234.4l-8.2-3.5l0.1,1.3
			l2.5,1.1v0l0.3,4.3l-2.4,1.4l0.1,1.3l7.6-4.6L470.1,234.4L470.1,234.4z M468.9,235.2l-3,1.8l-0.2-3.2L468.9,235.2L468.9,235.2z
			 M334,254.9l-1.1,0.3l1.3,4.8l1.1-0.3L334,254.9z M464.1,254.9l1.1,0.3l-1.3,4.8l-1.1-0.3L464.1,254.9z M346.2,275.2l-8.8,1
			l0.7,1.1l2.7-0.3l0,0l2.4,3.6l-1.3,2.4l0.7,1.1l4.3-7.8L346.2,275.2z M345.5,276.4l-1.7,3l-1.8-2.6L345.5,276.4z M349.6,280
			l-5.6,5.3l0.8,0.8l4.7-4.4l-2.5,6.9l0.9,0.9l6.8-2.1l-4.7,4.4l0.8,0.8l5.6-5.3l-1.1-1.2l-6.9,2.1l2.6-6.7L349.6,280z M357.8,288.4
			l-4.8,6.3l6.1,4.6l0.7-0.9l-5.2-3.9l1.4-1.9l4.7,3.5l0.7-0.9l-4.7-3.5l1.3-1.7l5,3.8l0.7-0.9L357.8,288.4L357.8,288.4z M365.5,294
			l-3.7,7c0.3,0.2,0.7,0.4,1,0.5l1.5-2.7c1.1,0.6,2.2,1.2,3.4,1.8c0.3,1.3,0.5,2.7,0.8,4l1.3,0.7l-0.9-4.2c0.8,0.3,1.9,0.1,2.5-0.6
			c0.5-0.6,0.8-1.3,0.6-2.1c-0.3-1-1.3-1.6-2.1-2.1C368.4,295.6,367,294.8,365.5,294L365.5,294z M366,295.6c1.2,0.6,2.4,1.3,3.6,1.9
			c0.5,0.4,1.2,0.9,1.2,1.6c-0.1,0.6-0.8,1-1.3,0.9c-1.2-0.2-2.1-0.9-3.2-1.4l-1.4-0.8L366,295.6L366,295.6z M374.5,298.7l-3,7.3
			l1.1,0.4l3-7.3L374.5,298.7z M381.6,301.2c-0.9-0.3-1.7-0.4-2.5-0.4c-0.8,0.1-1.5,0.3-2.1,0.7s-1,1-1.2,1.8
			c-0.2,0.7-0.3,1.4-0.1,2.1c0.1,0.7,0.5,1.3,1.1,1.9c0.6,0.5,1.4,1,2.4,1.3c1,0.3,2,0.4,2.8,0.2c0.8-0.2,1.5-0.6,2-1.2l-1-0.6
			c-1,1.2-2.3,0.9-3.6,0.5c-2-0.7-3-2.1-2.5-3.9c0.7-2,2.7-2.1,4.4-1.5c1.2,0.4,2.2,0.9,2.4,2.1l1.1,0.2c-0.1-0.7-0.3-1.3-0.9-1.9
			C383.3,301.9,382.6,301.5,381.6,301.2L381.6,301.2z M389.5,302.9l-5.2,7.2l1.3,0.2l1.6-2.2h0l4.3,0.6l0.9,2.6l1.3,0.2l-2.9-8.4
			L389.5,302.9z M390,304.3l1.1,3.3l-3.1-0.5L390,304.3L390,304.3z M408.1,303c-0.9,0.2-1.7,0.5-2.4,0.9c-0.7,0.4-1.2,1-1.5,1.7
			c-0.3,0.7-0.4,1.4-0.2,2.2c0.1,0.7,0.5,1.4,0.9,1.9c0.5,0.6,1.1,0.9,1.8,1.1c0.7,0.2,1.7,0.2,2.8,0c1.1-0.2,1.9-0.6,2.6-1.2
			c0.6-0.5,1-1.2,1.1-2.1l-1.2,0c-0.3,1.6-1.5,1.9-2.8,2.2c-2.1,0.4-3.7-0.3-4.1-2.2c-0.4-2.1,1.3-3.1,3.1-3.5
			c1.2-0.2,2.4-0.3,3.1,0.7l1.1-0.4c-0.4-0.6-1-1-1.7-1.2C410,302.8,409.1,302.8,408.1,303L408.1,303z M413.3,302.1l2.2,7.6l7.4-2.2
			l-0.3-1.1l-6.3,1.9l-0.7-2.3l5.7-1.7l-0.3-1.1l-5.7,1.7l-0.6-2l6-1.8l-0.3-1.1L413.3,302.1z M421.9,299.4l3.3,7.2l1-0.5l-2.8-6
			c2.6,1.2,5.1,2.4,7.7,3.5c0.2,0.1,0.3,0,0.5,0l1-0.5l-3.3-7.2l-1,0.5l2.8,6c-2.6-1.2-5.2-2.4-7.9-3.6L421.9,299.4L421.9,299.4z
			 M430.6,295.3l0.6,0.9l2.8-1.9l0.1-0.1l0.1,0.1l3.7,5.6l1-0.6l-3.7-5.6l-0.1-0.1l0.1-0.1l2.8-1.9l-0.6-0.9L430.6,295.3z
			 M438.5,289.9l5.4,5.8l0.8-0.8l-2.1-2.3c0.9-0.9,1.9-1.7,2.8-2.6c1.3,0.2,2.7,0.4,4,0.5l1.1-1l-4.3-0.6c0.5-0.7,0.7-1.7,0.3-2.5
			c-0.4-0.7-1-1.3-1.9-1.3c-1.1,0-1.9,0.8-2.7,1.5C440.8,287.7,439.7,288.8,438.5,289.9L438.5,289.9z M440.2,289.9
			c1-0.9,2-1.9,3-2.7c0.5-0.4,1.3-0.9,2-0.5c0.6,0.3,0.6,1.1,0.2,1.6c-0.6,1-1.6,1.7-2.4,2.5l-1.1,1L440.2,289.9z M447.7,280.6
			l3.5,8.2l0.8-1l-1.1-2.5l0,0l2.7-3.3l2.7,0.6l0.8-1l-8.7-1.8L447.7,280.6L447.7,280.6z M449.1,280.9l3.4,0.7l-2,2.5L449.1,280.9
			L449.1,280.9z M451.2,276.2l6.6,4.3l3.5-5.4l-0.9-0.6l-2.8,4.3l-0.1,0.1l-0.1-0.1l-5.6-3.6L451.2,276.2z"/>
	</g>
	<g>
		<defs>
			<polygon id="SVGID_1_" points="399,182.2 348.6,269.4 449.4,269.4 			"/>
		</defs>
		<clipPath id="SVGID_2_">
			<use xlink:href="#SVGID_1_"  style="overflow:visible;"/>
		</clipPath>
		<g class="st3">
			<path class="st1" d="M399,182.2l-24.9,43.1l-12.2,21.1h74.2l-11.6-20.1L399,182.2L399,182.2z"/>
			<g id="d">
				<g id="c">
					<path class="st4" d="M399,182.2l-1.9,3.2l1.9,43.5l1.9-43.5L399,182.2z"/>
					<path class="st1" d="M399,222.6l-0.1,0l0.1,2.5l0.1-2.5L399,222.6z"/>
				</g>
				<g transform="rotate(72 500.001 285.467)">
					<g id="c_1_">
						<path class="st4" d="M443.4,214.5l-3.6-0.8L399,228.9l41.9-11.7L443.4,214.5z"/>
						<path class="st1" d="M405,226.9l0-0.1l-2.3,0.9l2.4-0.7L405,226.9z"/>
					</g>
				</g>
				<g transform="rotate(144 500.001 285.467)">
					<g id="c_2_">
						<path class="st4" d="M426.4,266.7l-0.4-3.7L399,228.9l24,36.3L426.4,266.7z"/>
						<path class="st1" d="M402.7,234L402.7,234l-1.4-2L402.7,234L402.7,234z"/>
					</g>
				</g>
				<g transform="rotate(216 500.001 285.467)">
					<g id="c_3_">
						<path class="st4" d="M371.6,266.7l3.4-1.5l24-36.3L371.9,263L371.6,266.7z"/>
						<path class="st1" d="M395.3,234L395.3,234l1.4-2L395.3,234L395.3,234z"/>
					</g>
				</g>
				<g transform="rotate(288 500.001 285.467)">
					<g id="c_4_">
						<path class="st4" d="M354.6,214.5l2.5,2.8l41.9,11.7l-40.8-15.2L354.6,214.5z"/>
						<path class="st1" d="M393,226.9l0,0.1l2.4,0.7l-2.3-0.9L393,226.9z"/>
					</g>
				</g>
			</g>
			<g transform="rotate(8 500.001 285.467)">
				<g id="d_1_">
					<g id="c_5_">
						<path class="st4" d="M405.5,182.7l-2.3,2.9l-4.2,43.3l7.9-42.8L405.5,182.7z"/>
						<path class="st1" d="M399.9,222.6l-0.1,0l-0.2,2.5l0.4-2.4L399.9,222.6z"/>
					</g>
					<g transform="rotate(72 500.001 285.467)">
						<g id="c_6_">
							<path class="st4" d="M445,220.8l-3.5-1.3l-42.5,9.4l43.1-5.7L445,220.8z"/>
							<path class="st1" d="M405.2,227.8l0-0.1l-2.4,0.5l2.4-0.3L405.2,227.8z"/>
						</g>
					</g>
					<g transform="rotate(144 500.001 285.467)">
						<g id="c_7_">
							<path class="st4" d="M420.9,270.1l0.1-3.7L399,228.9l18.8,39.3L420.9,270.1z"/>
							<path class="st1" d="M402,234.5L402,234.5l-1.2-2.2L402,234.5L402,234.5z"/>
						</g>
					</g>
					<g transform="rotate(216 500.001 285.467)">
						<g id="c_8_">
							<path class="st4" d="M366.6,262.5l3.6-1l28.9-32.6l-31.5,30L366.6,262.5z"/>
							<path class="st1" d="M394.6,233.4L394.6,233.4l1.7-1.8L394.6,233.4L394.6,233.4z"/>
						</g>
					</g>
					<g transform="rotate(288 500.001 285.467)">
						<g id="c_9_">
							<path class="st4" d="M357,208.4l2.1,3.1l39.9,17.4l-38.3-20.7L357,208.4z"/>
							<path class="st1" d="M393.3,226.1L393.3,226.1l2.2,1.1L393.3,226.1L393.3,226.1z"/>
						</g>
					</g>
				</g>
			</g>
			<g transform="rotate(16 500.001 285.467)">
				<g id="d_2_">
					<g id="c_10_">
						<path class="st4" d="M411.9,184l-2.7,2.6L399,228.9l13.8-41.3L411.9,184z"/>
						<path class="st1" d="M400.7,222.8l-0.1,0l-0.6,2.4l0.8-2.3L400.7,222.8z"/>
					</g>
					<g transform="rotate(72 500.001 285.467)">
						<g id="c_11_">
							<path class="st4" d="M445.7,227.3l-3.3-1.7l-43.4,3.4l43.5,0.3L445.7,227.3z"/>
							<path class="st1" d="M405.3,228.7l0-0.1l-2.5,0.2l2.5,0L405.3,228.7z"/>
						</g>
					</g>
					<g transform="rotate(144 500.001 285.467)">
						<g id="c_12_">
							<path class="st4" d="M415,272.8l0.6-3.7L399,228.9l13.1,41.5L415,272.8z"/>
							<path class="st1" d="M401.2,234.8L401.2,234.8l-0.8-2.3l0.7,2.3L401.2,234.8z"/>
						</g>
					</g>
					<g transform="rotate(216 500.001 285.467)">
						<g id="c_13_">
							<path class="st4" d="M362.2,257.6l3.7-0.5l33.1-28.2l-35.4,25.3L362.2,257.6z"/>
							<path class="st1" d="M394,232.8L394,232.8l1.9-1.5L394,232.8L394,232.8z"/>
						</g>
					</g>
					<g transform="rotate(288 500.001 285.467)">
						<g id="c_14_">
							<path class="st4" d="M360.3,202.8l1.6,3.3l37.1,22.8L364,203L360.3,202.8z"/>
							<path class="st1" d="M393.8,225.4L393.8,225.4l2,1.4L393.8,225.4L393.8,225.4z"/>
						</g>
					</g>
				</g>
			</g>
			<g transform="rotate(24 500.001 285.467)">
				<g id="d_3_">
					<g id="c_15_">
						<path class="st4" d="M418,186.2l-3,2.2l-16,40.5l19.4-39L418,186.2z"/>
						<path class="st1" d="M401.6,223.1L401.6,223.1l-1,2.2L401.6,223.1L401.6,223.1z"/>
					</g>
					<g transform="rotate(72 500.001 285.467)">
						<g id="c_16_">
							<path class="st4" d="M445.4,233.8l-3-2.2l-43.4-2.7l43,6.4L445.4,233.8z"/>
							<path class="st1" d="M405.3,229.6l0-0.1l-2.5-0.2l2.4,0.4L405.3,229.6z"/>
						</g>
					</g>
					<g transform="rotate(144 500.001 285.467)">
						<g id="c_17_">
							<path class="st4" d="M408.7,274.6l1.2-3.5L399,228.9l7.2,42.9L408.7,274.6z"/>
							<path class="st1" d="M400.3,235.1l0.1,0l-0.6-2.4l0.4,2.4L400.3,235.1z"/>
						</g>
					</g>
					<g transform="rotate(216 500.001 285.467)">
						<g id="c_18_">
							<path class="st4" d="M358.6,252.2l3.7,0l36.7-23.3L360.4,249L358.6,252.2z"/>
							<path class="st1" d="M393.5,232.1L393.5,232.1l2.1-1.2L393.5,232.1L393.5,232.1z"/>
						</g>
					</g>
					<g transform="rotate(288 500.001 285.467)">
						<g id="c_19_">
							<path class="st4" d="M364.3,197.7l1.2,3.5l33.5,27.7l-31.1-30.5L364.3,197.7z"/>
							<path class="st1" d="M394.3,224.7L394.3,224.7l1.8,1.6L394.3,224.7L394.3,224.7z"/>
						</g>
					</g>
				</g>
			</g>
			<g transform="rotate(32 500.001 285.467)">
				<g id="d_4_">
					<g id="c_20_">
						<path class="st4" d="M423.7,189.3l-3.3,1.7L399,228.9l24.6-35.9L423.7,189.3z"/>
						<path class="st1" d="M402.3,223.5L402.3,223.5l-1.3,2.1L402.3,223.5L402.3,223.5z"/>
					</g>
					<g transform="rotate(72 500.001 285.467)">
						<g id="c_21_">
							<path class="st4" d="M444.3,240.2l-2.7-2.6l-42.6-8.7l41.7,12.3L444.3,240.2z"/>
							<path class="st1" d="M405.1,230.4l0-0.1l-2.4-0.5l2.4,0.7L405.1,230.4z"/>
						</g>
					</g>
					<g transform="rotate(144 500.001 285.467)">
						<g id="c_22_">
							<path class="st4" d="M402.3,275.5l1.6-3.3l-4.9-43.2l1.2,43.5L402.3,275.5z"/>
							<path class="st1" d="M399.4,235.2l0.1,0l-0.3-2.4l0.1,2.5L399.4,235.2z"/>
						</g>
					</g>
					<g transform="rotate(216 500.001 285.467)">
						<g id="c_23_">
							<path class="st4" d="M355.7,246.4l3.7,0.5l39.6-18l-41,14.6L355.7,246.4z"/>
							<path class="st1" d="M393.1,231.3L393.1,231.3l2.3-0.9L393.1,231.3L393.1,231.3z"/>
						</g>
					</g>
					<g transform="rotate(288 500.001 285.467)">
						<g id="c_24_">
							<path class="st4" d="M369,193.1l0.6,3.7l29.4,32.1l-26.5-34.5L369,193.1z"/>
							<path class="st1" d="M394.9,224.1L394.9,224.1l1.6,1.9L394.9,224.1L394.9,224.1z"/>
						</g>
					</g>
				</g>
			</g>
			<g transform="rotate(40 500.001 285.467)">
				<g id="d_5_">
					<g id="c_25_">
						<path class="st4" d="M429,193.1l-3.5,1.3L399,228.9l29.4-32.1L429,193.1z"/>
						<path class="st1" d="M403.1,224.1L403.1,224.1l-1.6,1.9L403.1,224.1L403.1,224.1z"/>
					</g>
					<g transform="rotate(72 500.001 285.467)">
						<g id="c_26_">
							<path class="st4" d="M442.3,246.4l-2.3-2.9l-41-14.6l39.6,18L442.3,246.4z"/>
							<path class="st1" d="M404.9,231.3L404.9,231.3l-2.3-0.9L404.9,231.3L404.9,231.3z"/>
						</g>
					</g>
					<g transform="rotate(144 500.001 285.467)">
						<g id="c_27_">
							<path class="st4" d="M395.7,275.5l2.1-3.1l1.2-43.5l-4.9,43.2L395.7,275.5z"/>
							<path class="st1" d="M398.6,235.2l0.1,0l0.1-2.5l-0.3,2.4L398.6,235.2z"/>
						</g>
					</g>
					<g transform="rotate(216 500.001 285.467)">
						<g id="c_28_">
							<path class="st4" d="M353.7,240.2l3.6,1l41.7-12.3l-42.6,8.7L353.7,240.2z"/>
							<path class="st1" d="M392.9,230.4l0,0.1l2.4-0.7l-2.4,0.5L392.9,230.4z"/>
						</g>
					</g>
					<g transform="rotate(288 500.001 285.467)">
						<g id="c_29_">
							<path class="st4" d="M374.3,189.3l0.1,3.7l24.6,35.9l-21.5-37.8L374.3,189.3z"/>
							<path class="st1" d="M395.7,223.5L395.7,223.5l1.3,2.1L395.7,223.5L395.7,223.5z"/>
						</g>
					</g>
				</g>
			</g>
			<g transform="rotate(48 500.001 285.467)">
				<g id="d_6_">
					<g id="c_30_">
						<path class="st4" d="M433.7,197.7l-3.6,0.8L399,228.9l33.5-27.7L433.7,197.7z"/>
						<path class="st1" d="M403.7,224.7L403.7,224.7l-1.8,1.6L403.7,224.7L403.7,224.7z"/>
					</g>
					<g transform="rotate(72 500.001 285.467)">
						<g id="c_31_">
							<path class="st4" d="M439.4,252.2l-1.9-3.2L399,228.9l36.7,23.3L439.4,252.2z"/>
							<path class="st1" d="M404.5,232.1L404.5,232.1l-2.1-1.2L404.5,232.1L404.5,232.1z"/>
						</g>
					</g>
					<g transform="rotate(144 500.001 285.467)">
						<g id="c_32_">
							<path class="st4" d="M389.3,274.6l2.5-2.8l7.2-42.9L388.1,271L389.3,274.6z"/>
							<path class="st1" d="M397.7,235.1l0.1,0l0.4-2.4l-0.6,2.4L397.7,235.1z"/>
						</g>
					</g>
					<g transform="rotate(216 500.001 285.467)">
						<g id="c_33_">
							<path class="st4" d="M352.6,233.8l3.4,1.5l43-6.4l-43.4,2.7L352.6,233.8z"/>
							<path class="st1" d="M392.7,229.6l0,0.1l2.4-0.4l-2.5,0.2L392.7,229.6z"/>
						</g>
					</g>
					<g transform="rotate(288 500.001 285.467)">
						<g id="c_34_">
							<path class="st4" d="M380,186.2l-0.4,3.7l19.4,39l-16-40.5L380,186.2z"/>
							<path class="st1" d="M396.4,223.1L396.4,223.1l1,2.2L396.4,223.1L396.4,223.1z"/>
						</g>
					</g>
				</g>
			</g>
			<g transform="rotate(56 500.001 285.467)">
				<g id="d_7_">
					<g id="c_35_">
						<path class="st4" d="M437.7,202.8L434,203l-35,25.9l37.1-22.8L437.7,202.8z"/>
						<path class="st1" d="M404.2,225.4L404.2,225.4l-2,1.4L404.2,225.4L404.2,225.4z"/>
					</g>
					<g transform="rotate(72 500.001 285.467)">
						<g id="c_36_">
							<path class="st4" d="M435.8,257.6l-1.4-3.5L399,228.9l33.1,28.2L435.8,257.6z"/>
							<path class="st1" d="M404,232.8L404,232.8l-1.9-1.5L404,232.8L404,232.8z"/>
						</g>
					</g>
					<g transform="rotate(144 500.001 285.467)">
						<g id="c_37_">
							<path class="st4" d="M383,272.8l2.9-2.4l13.1-41.5l-16.6,40.2L383,272.8z"/>
							<path class="st1" d="M396.8,234.8l0.1,0l0.7-2.3L396.8,234.8L396.8,234.8z"/>
						</g>
					</g>
					<g transform="rotate(216 500.001 285.467)">
						<g id="c_38_">
							<path class="st4" d="M352.3,227.3l3.2,2l43.5-0.3l-43.4-3.4L352.3,227.3z"/>
							<path class="st1" d="M392.7,228.7l0,0.1l2.5,0l-2.5-0.2L392.7,228.7z"/>
						</g>
					</g>
					<g transform="rotate(288 500.001 285.467)">
						<g id="c_39_">
							<path class="st4" d="M386.1,184l-0.9,3.6l13.8,41.3l-10.2-42.3L386.1,184z"/>
							<path class="st1" d="M397.3,222.8l-0.1,0l0.8,2.3l-0.6-2.4L397.3,222.8z"/>
						</g>
					</g>
				</g>
			</g>
			<g transform="rotate(64 500.001 285.467)">
				<g id="d_8_">
					<g id="c_40_">
						<path class="st4" d="M441,208.4l-3.7-0.3L399,228.9l39.9-17.4L441,208.4z"/>
						<path class="st1" d="M404.7,226.1L404.7,226.1l-2.2,1.1L404.7,226.1L404.7,226.1z"/>
					</g>
					<g transform="rotate(72 500.001 285.467)">
						<g id="c_41_">
							<path class="st4" d="M431.4,262.5l-0.9-3.6l-31.5-30l28.9,32.6L431.4,262.5z"/>
							<path class="st1" d="M403.4,233.4L403.4,233.4l-1.7-1.8L403.4,233.4L403.4,233.4z"/>
						</g>
					</g>
					<g transform="rotate(144 500.001 285.467)">
						<g id="c_42_">
							<path class="st4" d="M377.1,270.1l3.2-2l18.8-39.3l-22.1,37.5L377.1,270.1z"/>
							<path class="st1" d="M396,234.5L396,234.5l1.2-2.2L396,234.5L396,234.5z"/>
						</g>
					</g>
					<g transform="rotate(216 500.001 285.467)">
						<g id="c_43_">
							<path class="st4" d="M353,220.8l2.9,2.4l43.1,5.7l-42.5-9.4L353,220.8z"/>
							<path class="st1" d="M392.8,227.8l0,0.1l2.4,0.3l-2.4-0.5L392.8,227.8z"/>
						</g>
					</g>
					<g transform="rotate(288 500.001 285.467)">
						<g id="c_44_">
							<path class="st4" d="M392.5,182.7l-1.4,3.5l7.9,42.8l-4.2-43.3L392.5,182.7z"/>
							<path class="st1" d="M398.1,222.6l-0.1,0l0.4,2.4l-0.2-2.5L398.1,222.6z"/>
						</g>
					</g>
				</g>
			</g>
			<g>
				<path class="st5" d="M399,213.4c-8.4,0-16.5,3-22.9,8.5L364.5,242c-0.4,2.2-0.6,4.3-0.6,6.5h4c0-17.2,13.9-31.1,31.1-31.1
					c17.2,0,31.1,13.9,31.1,31.1h4c0-2.2-0.2-4.4-0.6-6.5l-11.6-20.1C415.5,216.4,407.4,213.4,399,213.4z"/>
				<path class="st6" d="M399,214c-9.3,0-17.7,3.7-23.9,9.7l-9.5,16.5c-0.7,2.7-1,5.5-1,8.3h3.4c0-17.2,13.9-31.1,31.1-31.1
					c17.2,0,31.1,13.9,31.1,31.1h3.4c0-2.9-0.4-5.7-1-8.3l-9.5-16.5C416.7,217.7,408.3,214,399,214L399,214z"/>
				<path class="st7" d="M399,214.7c-10,0-19.1,4.4-25.3,11.3l-6.9,11.9c-1.1,3.4-1.7,7-1.7,10.6h2.7c0-17.2,13.9-31.1,31.1-31.1
					c17.2,0,31.1,13.9,31.1,31.1h2.7c0-3.7-0.6-7.2-1.7-10.6l-6.9-11.9C418.1,219,409,214.7,399,214.7L399,214.7z"/>
				<path class="st8" d="M399,215.3c-11.5,0-21.6,5.9-27.6,14.7l-2.2,3.9c-2.2,4.5-3.4,9.5-3.4,14.6h2.1c0-17.2,13.9-31.1,31.1-31.1
					c17.2,0,31.1,13.9,31.1,31.1h2.1c0-5.1-1.2-10-3.4-14.6l-2.2-3.9C420.6,221.1,410.5,215.3,399,215.3L399,215.3z"/>
				<path class="st9" d="M399,215.9c-18,0-32.6,14.6-32.6,32.6h1.5c0-17.2,13.9-31.1,31.1-31.1s31.1,13.9,31.1,31.1h1.5
					C431.6,230.5,417,215.9,399,215.9z"/>
				<path class="st10" d="M399,216.5c-17.6,0-31.9,14.3-31.9,31.9h1.1c0-17,13.8-30.9,30.9-30.9c17,0,30.9,13.8,30.9,30.9h1.1
					C430.9,230.9,416.6,216.5,399,216.5z"/>
				<path class="st11" d="M399,217.2c-17.3,0-31.3,14-31.3,31.3c0,0.2,0,0.4,0,0.6h0.6c0-0.2,0-0.4,0-0.6
					c0-16.9,13.7-30.7,30.7-30.7s30.7,13.7,30.7,30.7c0,0.2,0,0.4,0,0.6h0.6c0-0.2,0-0.4,0-0.6C430.3,231.2,416.3,217.2,399,217.2z"
					/>
			</g>
			<g>
				<path class="st12" d="M399.3,231c-0.5-0.1-1-0.4-1.4-0.5c-0.6,0.6-0.7,1.2-0.6,1.6c0.2,0.1,0.2,0.3,0.7,0.7
					c0.4,0.4,0.4,0.6,0.4,1.6c0,0.4,0.1,1.2,0.5,1.3c0.4,0.1,0.7-0.3,0.9-0.9c0.1-0.6,0.3-1,0.6-1.3
					C400.5,232,400.1,231.5,399.3,231L399.3,231z"/>
				<path class="st5" d="M396.8,227.4c-0.5,0-1.2,0.8-1.5,0.4c-0.2-0.2-0.2-0.7,0-1.1c0.4-0.9,0.9-1.4,1.7-1.8
					c1.9-1.1,3.1-0.8,4,0.8c0.9,1.4,1.7,2.9,1.8,4.2c0,0.4,0.2,1.1-0.1,1.5c-1.1,1.1-3.6-1.1-5.1-0.8c-0.5,0.1-1.1,0.5-1.6,0.2
					c-0.4-0.2-0.1-0.8,0.2-1c0.5-0.4,1.2-1.9,1.1-2.5C397.1,226.9,397.1,227.4,396.8,227.4L396.8,227.4z"/>
				
					<linearGradient id="SVGID_3_" gradientUnits="userSpaceOnUse" x1="398.5726" y1="247.9619" x2="400.0653" y2="252.417" gradientTransform="matrix(1 0 0 -1 0 479.8898)">
					<stop  offset="0" style="stop-color:#510000"/>
					<stop  offset="0.3" style="stop-color:#8A0000"/>
					<stop  offset="1" style="stop-color:#AA0000"/>
				</linearGradient>
				<path class="st13" d="M396.6,226.6c-0.9,0.4-0.8,0.9-1.2,1.3c0.1,0,0.6,0.2,1.1-0.2c0.2-0.2,0.4-0.2,0.5-0.3
					c-0.2,0.2-0.4,0.4-0.5,0.5c-0.3,0.3-0.8,0.9-1.1,1.5c-0.2,0.6-0.3,1.3-0.3,1.4c0,0.1,0.3,0.6,1.2,1c1.6,0.6,1.9,1.9,3.5,1.9
					c1.3,0,1.1-0.8,2.1-0.7c0.9,0.2,1.4-0.6,0.5-1c-1.1-0.4-3.2-0.2-4.2,0c-0.3-3.2,0-2.1-0.1-3.5c-0.1-1.4-0.5-1.5,0.1-2.6
					C397.7,226.6,397.1,226.5,396.6,226.6L396.6,226.6z"/>
				<path class="st14" d="M399.7,224.4c0,0.2-0.1,0.4,0,0.5c0.1,0.3,0.1,0.5,0.2,0.8c0.1,0.3,0.1,0.5,0.2,0.7
					c0.1,0.3,0.3,0.4,0.5,0.6c0.3,0.2,0.1,0.8,0.2,0.8c0.1,0,0.4-0.8,0.4-1c0-0.2,0-0.3,0-0.5c-0.1-0.2-0.2-0.5-0.3-0.7c0,0,0,0,0,0
					c0-0.1-0.1-0.2-0.2-0.3c-0.2-0.3-0.4-0.5-0.6-0.7l0,0c-0.1-0.1-0.1-0.1-0.2-0.1C399.8,224.5,399.8,224.4,399.7,224.4
					L399.7,224.4z"/>
				
					<linearGradient id="SVGID_4_" gradientUnits="userSpaceOnUse" x1="398.4998" y1="246.9408" x2="399.6723" y2="250.0432" gradientTransform="matrix(1 0 0 -1 0 479.8898)">
					<stop  offset="0" style="stop-color:#FF2A2A"/>
					<stop  offset="1" style="stop-color:#FF0000"/>
				</linearGradient>
				<path class="st15" d="M400,230.4c-0.6-0.1-1.1-0.4-1.6-0.6c-0.9-0.3-2-0.9-2.7-0.6c-0.3,0.1-0.2,0.4-0.3,0.7
					c0,0.4-0.5,1-0.1,0.8c0.5-0.3,2,0.6,2.4,0.9c0.2,0.1,0.7,0.4,0.9,0.8c0.2,0.4,0.1,1.4,0,1.8c0,0.4,0.1,1.5,0.5,1.6
					c0.5,0.1,0.9-0.3,1-1c0.2-0.7,0.3-1.1,0.6-1.5c0.3-0.4,0.6-0.6,1-0.7c0.4-0.1,1.1,0.4,1.1-0.2c0-0.3-0.3-0.7-0.2-1.1
					c0.1-0.4-0.3-0.3-0.7-0.5C401.3,230.7,400.6,230.6,400,230.4L400,230.4z"/>
				<path class="st16" d="M397.7,231.6c-0.3-0.1-1.8-1.2-2.4-0.8c-0.2,0.1-0.3,0-0.3-0.2c0-0.2,0.1-0.5,0.1-0.7
					c0.1-0.2,0.2-0.6,0.4-0.8c0.5-0.5,1.8,0.5,2.5,0.7C398,230.1,397.7,231.6,397.7,231.6L397.7,231.6z"/>
				<path class="st17" d="M400.4,233.6c0.7-1.3,1.2-1.1,2.1-1.1c0.3,0,0.4-0.3,0.3-0.5c-0.2,0.5-1.3-0.1-1.9,0.2
					c-1.2,0.5-1,3-1.6,3.2C399.9,235.9,400.1,234,400.4,233.6L400.4,233.6z"/>
			</g>
			<g>
				<path class="st1" d="M361.9,246.4l-7.9,13.6H444l-7.9-13.6H361.9L361.9,246.4z"/>
				<g id="i">
					
						<linearGradient id="h_9_" gradientUnits="userSpaceOnUse" x1="355.1277" y1="222.0879" x2="505.2682" y2="222.0879" gradientTransform="matrix(1 0 0 -1 0 479.8898)">
						<stop  offset="0" style="stop-color:#002255"/>
						<stop  offset="0.5" style="stop-color:#0044AA"/>
						<stop  offset="1" style="stop-color:#002255"/>
					</linearGradient>
					<path id="h" class="st18" d="M359.2,257.3c-1.3,0-2.5,0.1-3.7,0.3l-0.4,0.7c1.9-0.2,3.7-0.5,5.6-0.6c2.6,0.1,5,0.7,7.7,0.7
						c1.2,0,2.4,0,3.6,0c2.8,0,5.1-0.6,7.7-0.7c2.6,0.1,5,0.7,7.8,0.7c1.2,0,2.5,0,3.6,0c2.8,0,5.1-0.6,7.7-0.7
						c2.6,0.1,5,0.7,7.7,0.7c1.2,0,2.4,0,3.6,0c2.8,0,5.1-0.6,7.7-0.7c2.6,0.1,5,0.7,7.7,0.7c1.2,0,2.4,0,3.6,0
						c2.8,0,5.1-0.6,7.7-0.7c2,0,3.9,0.4,5.9,0.6l-0.4-0.7c-1.1-0.1-2.2-0.3-3.5-0.3c-1.2,0-2.4,0-3.6,0c-2.8,0-5.1,0.6-7.7,0.7
						c-2.6-0.1-5-0.7-7.7-0.7c-1.2,0-2.4,0-3.6,0c-2.8,0-5.1,0.6-7.7,0.7c-2.6-0.1-5-0.7-7.7-0.7c-1.2,0-2.4,0-3.6,0
						c-2.8,0-5.1,0.6-7.7,0.7c-2.6-0.1-5-0.7-7.7-0.7c-1.2,0-2.4,0-3.6,0c-2.8,0-5.1,0.6-7.7,0.7c-2.6-0.1-5-0.7-7.7-0.7
						C361.6,257.3,360.4,257.3,359.2,257.3L359.2,257.3z"/>
					<g>
						
							<linearGradient id="h_10_" gradientUnits="userSpaceOnUse" x1="355.1277" y1="221.8548" x2="505.2682" y2="221.8548" gradientTransform="matrix(1 0 0 -1 0 478.7768)">
							<stop  offset="0" style="stop-color:#002255"/>
							<stop  offset="0.5" style="stop-color:#0044AA"/>
							<stop  offset="1" style="stop-color:#002255"/>
						</linearGradient>
						<path id="h_1_" class="st19" d="M359.2,256.4c-1.3,0-2.5,0.1-3.7,0.3l-0.4,0.7c1.9-0.2,3.7-0.5,5.6-0.6c2.6,0.1,5,0.7,7.7,0.7
							c1.2,0,2.4,0,3.6,0c2.8,0,5.1-0.6,7.7-0.7c2.6,0.1,5,0.7,7.8,0.7c1.2,0,2.5,0,3.6,0c2.8,0,5.1-0.6,7.7-0.7
							c2.6,0.1,5,0.7,7.7,0.7c1.2,0,2.4,0,3.6,0c2.8,0,5.1-0.6,7.7-0.7c2.6,0.1,5,0.7,7.7,0.7c1.2,0,2.4,0,3.6,0
							c2.8,0,5.1-0.6,7.7-0.7c2,0,3.9,0.4,5.9,0.6l-0.4-0.7c-1.1-0.1-2.2-0.3-3.5-0.3c-1.2,0-2.4,0-3.6,0c-2.8,0-5.1,0.6-7.7,0.7
							c-2.6-0.1-5-0.7-7.7-0.7c-1.2,0-2.4,0-3.6,0c-2.8,0-5.1,0.6-7.7,0.7c-2.6-0.1-5-0.7-7.7-0.7c-1.2,0-2.4,0-3.6,0
							c-2.8,0-5.1,0.6-7.7,0.7c-2.6-0.1-5-0.7-7.7-0.7c-1.2,0-2.4,0-3.6,0c-2.8,0-5.1,0.6-7.7,0.7c-2.6-0.1-5-0.7-7.7-0.7
							C361.6,256.4,360.4,256.4,359.2,256.4L359.2,256.4z"/>
					</g>
					<g>
						
							<linearGradient id="h_11_" gradientUnits="userSpaceOnUse" x1="355.1277" y1="221.621" x2="505.2682" y2="221.621" gradientTransform="matrix(1 0 0 -1 0 477.6598)">
							<stop  offset="0" style="stop-color:#002255"/>
							<stop  offset="0.5" style="stop-color:#0044AA"/>
							<stop  offset="1" style="stop-color:#002255"/>
						</linearGradient>
						<path id="h_2_" class="st20" d="M359.2,255.5c-1.3,0-2.5,0.1-3.7,0.3l-0.4,0.7c1.9-0.2,3.7-0.5,5.6-0.6c2.6,0.1,5,0.7,7.7,0.7
							c1.2,0,2.4,0,3.6,0c2.8,0,5.1-0.6,7.7-0.7c2.6,0.1,5,0.7,7.8,0.7c1.2,0,2.5,0,3.6,0c2.8,0,5.1-0.6,7.7-0.7
							c2.6,0.1,5,0.7,7.7,0.7c1.2,0,2.4,0,3.6,0c2.8,0,5.1-0.6,7.7-0.7c2.6,0.1,5,0.7,7.7,0.7c1.2,0,2.4,0,3.6,0
							c2.8,0,5.1-0.6,7.7-0.7c2,0,3.9,0.4,5.9,0.6l-0.4-0.7c-1.1-0.1-2.2-0.3-3.5-0.3c-1.2,0-2.4,0-3.6,0c-2.8,0-5.1,0.6-7.7,0.7
							c-2.6-0.1-5-0.7-7.7-0.7c-1.2,0-2.4,0-3.6,0c-2.8,0-5.1,0.6-7.7,0.7c-2.6-0.1-5-0.7-7.7-0.7c-1.2,0-2.4,0-3.6,0
							c-2.8,0-5.1,0.6-7.7,0.7c-2.6-0.1-5-0.7-7.7-0.7c-1.2,0-2.4,0-3.6,0c-2.8,0-5.1,0.6-7.7,0.7c-2.6-0.1-5-0.7-7.7-0.7
							C361.6,255.5,360.4,255.5,359.2,255.5L359.2,255.5z"/>
					</g>
				</g>
				<g>
					<g id="i_1_">
						
							<linearGradient id="h_12_" gradientUnits="userSpaceOnUse" x1="355.1277" y1="221.3877" x2="505.2682" y2="221.3877" gradientTransform="matrix(1 0 0 -1 0 476.5457)">
							<stop  offset="0" style="stop-color:#002255"/>
							<stop  offset="0.5" style="stop-color:#0044AA"/>
							<stop  offset="1" style="stop-color:#002255"/>
						</linearGradient>
						<path id="h_3_" class="st21" d="M359.2,254.6c-1.3,0-2.5,0.1-3.7,0.3l-0.4,0.7c1.9-0.2,3.7-0.5,5.6-0.6c2.6,0.1,5,0.7,7.7,0.7
							c1.2,0,2.4,0,3.6,0c2.8,0,5.1-0.6,7.7-0.7c2.6,0.1,5,0.7,7.8,0.7c1.2,0,2.5,0,3.6,0c2.8,0,5.1-0.6,7.7-0.7
							c2.6,0.1,5,0.7,7.7,0.7c1.2,0,2.4,0,3.6,0c2.8,0,5.1-0.6,7.7-0.7c2.6,0.1,5,0.7,7.7,0.7c1.2,0,2.4,0,3.6,0
							c2.8,0,5.1-0.6,7.7-0.7c2,0,3.9,0.4,5.9,0.6l-0.4-0.7c-1.1-0.1-2.2-0.3-3.5-0.3c-1.2,0-2.4,0-3.6,0c-2.8,0-5.1,0.6-7.7,0.7
							c-2.6-0.1-5-0.7-7.7-0.7c-1.2,0-2.4,0-3.6,0c-2.8,0-5.1,0.6-7.7,0.7c-2.6-0.1-5-0.7-7.7-0.7c-1.2,0-2.4,0-3.6,0
							c-2.8,0-5.1,0.6-7.7,0.7c-2.6-0.1-5-0.7-7.7-0.7c-1.2,0-2.4,0-3.6,0c-2.8,0-5.1,0.6-7.7,0.7c-2.6-0.1-5-0.7-7.7-0.7
							C361.6,254.6,360.4,254.7,359.2,254.6L359.2,254.6z"/>
						<g>
							
								<linearGradient id="h_13_" gradientUnits="userSpaceOnUse" x1="355.1277" y1="221.1547" x2="505.2682" y2="221.1547" gradientTransform="matrix(1 0 0 -1 0 475.4328)">
								<stop  offset="0" style="stop-color:#002255"/>
								<stop  offset="0.5" style="stop-color:#0044AA"/>
								<stop  offset="1" style="stop-color:#002255"/>
							</linearGradient>
							<path id="h_4_" class="st22" d="M359.2,253.8c-1.3,0-2.5,0.1-3.7,0.3l-0.4,0.7c1.9-0.2,3.7-0.5,5.6-0.6
								c2.6,0.1,5,0.7,7.7,0.7c1.2,0,2.4,0,3.6,0c2.8,0,5.1-0.6,7.7-0.7c2.6,0.1,5,0.7,7.8,0.7c1.2,0,2.5,0,3.6,0
								c2.8,0,5.1-0.6,7.7-0.7c2.6,0.1,5,0.7,7.7,0.7c1.2,0,2.4,0,3.6,0c2.8,0,5.1-0.6,7.7-0.7c2.6,0.1,5,0.7,7.7,0.7
								c1.2,0,2.4,0,3.6,0c2.8,0,5.1-0.6,7.7-0.7c2,0,3.9,0.4,5.9,0.6l-0.4-0.7c-1.1-0.1-2.2-0.3-3.5-0.3c-1.2,0-2.4,0-3.6,0
								c-2.8,0-5.1,0.6-7.7,0.7c-2.6-0.1-5-0.7-7.7-0.7c-1.2,0-2.4,0-3.6,0c-2.8,0-5.1,0.6-7.7,0.7c-2.6-0.1-5-0.7-7.7-0.7
								c-1.2,0-2.4,0-3.6,0c-2.8,0-5.1,0.6-7.7,0.7c-2.6-0.1-5-0.7-7.7-0.7c-1.2,0-2.4,0-3.6,0c-2.8,0-5.1,0.6-7.7,0.7
								c-2.6-0.1-5-0.7-7.7-0.7C361.6,253.7,360.4,253.8,359.2,253.8L359.2,253.8z"/>
						</g>
						<g>
							
								<linearGradient id="h_14_" gradientUnits="userSpaceOnUse" x1="355.1277" y1="220.9208" x2="505.2682" y2="220.9208" gradientTransform="matrix(1 0 0 -1 0 474.3158)">
								<stop  offset="0" style="stop-color:#002255"/>
								<stop  offset="0.5" style="stop-color:#0044AA"/>
								<stop  offset="1" style="stop-color:#002255"/>
							</linearGradient>
							<path id="h_5_" class="st23" d="M359.2,252.9c-1.3,0-2.5,0.1-3.7,0.3l-0.4,0.7c1.9-0.2,3.7-0.5,5.6-0.6
								c2.6,0.1,5,0.7,7.7,0.7c1.2,0,2.4,0,3.6,0c2.8,0,5.1-0.6,7.7-0.7c2.6,0.1,5,0.7,7.8,0.7c1.2,0,2.5,0,3.6,0
								c2.8,0,5.1-0.6,7.7-0.7c2.6,0.1,5,0.7,7.7,0.7c1.2,0,2.4,0,3.6,0c2.8,0,5.1-0.6,7.7-0.7c2.6,0.1,5,0.7,7.7,0.7
								c1.2,0,2.4,0,3.6,0c2.8,0,5.1-0.6,7.7-0.7c2,0,3.9,0.4,5.9,0.6l-0.4-0.7c-1.1-0.1-2.2-0.3-3.5-0.3c-1.2,0-2.4,0-3.6,0
								c-2.8,0-5.1,0.6-7.7,0.7c-2.6-0.1-5-0.7-7.7-0.7c-1.2,0-2.4,0-3.6,0c-2.8,0-5.1,0.6-7.7,0.7c-2.6-0.1-5-0.7-7.7-0.7
								c-1.2,0-2.4,0-3.6,0c-2.8,0-5.1,0.6-7.7,0.7c-2.6-0.1-5-0.7-7.7-0.7c-1.2,0-2.4,0-3.6,0c-2.8,0-5.1,0.6-7.7,0.7
								c-2.6-0.1-5-0.7-7.7-0.7C361.6,252.9,360.4,252.9,359.2,252.9L359.2,252.9z"/>
						</g>
					</g>
				</g>
				<g>
					<g id="i_2_">
						
							<linearGradient id="h_15_" gradientUnits="userSpaceOnUse" x1="355.1277" y1="220.6869" x2="505.2682" y2="220.6869" gradientTransform="matrix(1 0 0 -1 0 473.1988)">
							<stop  offset="0" style="stop-color:#002255"/>
							<stop  offset="0.5" style="stop-color:#0044AA"/>
							<stop  offset="1" style="stop-color:#002255"/>
						</linearGradient>
						<path id="h_6_" class="st24" d="M359.2,252c-1.3,0-2.5,0.1-3.7,0.3l-0.4,0.7c1.9-0.2,3.7-0.5,5.6-0.6c2.6,0.1,5,0.7,7.7,0.7
							c1.2,0,2.4,0,3.6,0c2.8,0,5.1-0.6,7.7-0.7c2.6,0.1,5,0.7,7.8,0.7c1.2,0,2.5,0,3.6,0c2.8,0,5.1-0.6,7.7-0.7
							c2.6,0.1,5,0.7,7.7,0.7c1.2,0,2.4,0,3.6,0c2.8,0,5.1-0.6,7.7-0.7c2.6,0.1,5,0.7,7.7,0.7c1.2,0,2.4,0,3.6,0
							c2.8,0,5.1-0.6,7.7-0.7c2,0,3.9,0.4,5.9,0.6l-0.4-0.7c-1.1-0.1-2.2-0.3-3.5-0.3c-1.2,0-2.4,0-3.6,0c-2.8,0-5.1,0.6-7.7,0.7
							c-2.6-0.1-5-0.7-7.7-0.7c-1.2,0-2.4,0-3.6,0c-2.8,0-5.1,0.6-7.7,0.7c-2.6-0.1-5-0.7-7.7-0.7c-1.2,0-2.4,0-3.6,0
							c-2.8,0-5.1,0.6-7.7,0.7c-2.6-0.1-5-0.7-7.7-0.7c-1.2,0-2.4,0-3.6,0c-2.8,0-5.1,0.6-7.7,0.7c-2.6-0.1-5-0.7-7.7-0.7
							C361.6,252,360.4,252,359.2,252L359.2,252z"/>
						<g>
							
								<linearGradient id="h_16_" gradientUnits="userSpaceOnUse" x1="355.1277" y1="220.4539" x2="505.2682" y2="220.4539" gradientTransform="matrix(1 0 0 -1 0 472.0858)">
								<stop  offset="0" style="stop-color:#002255"/>
								<stop  offset="0.5" style="stop-color:#0044AA"/>
								<stop  offset="1" style="stop-color:#002255"/>
							</linearGradient>
							<path id="h_7_" class="st25" d="M359.2,251.1c-1.3,0-2.5,0.1-3.7,0.3l-0.4,0.7c1.9-0.2,3.7-0.5,5.6-0.6
								c2.6,0.1,5,0.7,7.7,0.7c1.2,0,2.4,0,3.6,0c2.8,0,5.1-0.6,7.7-0.7c2.6,0.1,5,0.7,7.8,0.7c1.2,0,2.5,0,3.6,0
								c2.8,0,5.1-0.6,7.7-0.7c2.6,0.1,5,0.7,7.7,0.7c1.2,0,2.4,0,3.6,0c2.8,0,5.1-0.6,7.7-0.7c2.6,0.1,5,0.7,7.7,0.7
								c1.2,0,2.4,0,3.6,0c2.8,0,5.1-0.6,7.7-0.7c2,0,3.9,0.4,5.9,0.6l-0.4-0.7c-1.1-0.1-2.2-0.3-3.5-0.3c-1.2,0-2.4,0-3.6,0
								c-2.8,0-5.1,0.6-7.7,0.7c-2.6-0.1-5-0.7-7.7-0.7c-1.2,0-2.4,0-3.6,0c-2.8,0-5.1,0.6-7.7,0.7c-2.6-0.1-5-0.7-7.7-0.7
								c-1.2,0-2.4,0-3.6,0c-2.8,0-5.1,0.6-7.7,0.7c-2.6-0.1-5-0.7-7.7-0.7c-1.2,0-2.4,0-3.6,0c-2.8,0-5.1,0.6-7.7,0.7
								c-2.6-0.1-5-0.7-7.7-0.7C361.6,251.1,360.4,251.1,359.2,251.1L359.2,251.1z"/>
						</g>
						<g>
							
								<linearGradient id="h_17_" gradientUnits="userSpaceOnUse" x1="355.1277" y1="220.22" x2="505.2682" y2="220.22" gradientTransform="matrix(1 0 0 -1 0 470.9688)">
								<stop  offset="0" style="stop-color:#002255"/>
								<stop  offset="0.5" style="stop-color:#0044AA"/>
								<stop  offset="1" style="stop-color:#002255"/>
							</linearGradient>
							<path id="h_8_" class="st26" d="M359.2,250.2c-1.3,0-2.5,0.1-3.7,0.3l-0.4,0.7c1.9-0.2,3.7-0.5,5.6-0.6
								c2.6,0.1,5,0.7,7.7,0.7c1.2,0,2.4,0,3.6,0c2.8,0,5.1-0.6,7.7-0.7c2.6,0.1,5,0.7,7.8,0.7c1.2,0,2.5,0,3.6,0
								c2.8,0,5.1-0.6,7.7-0.7c2.6,0.1,5,0.7,7.7,0.7c1.2,0,2.4,0,3.6,0c2.8,0,5.1-0.6,7.7-0.7c2.6,0.1,5,0.7,7.7,0.7
								c1.2,0,2.4,0,3.6,0c2.8,0,5.1-0.6,7.7-0.7c2,0,3.9,0.4,5.9,0.6l-0.4-0.7c-1.1-0.1-2.2-0.3-3.5-0.3c-1.2,0-2.4,0-3.6,0
								c-2.8,0-5.1,0.6-7.7,0.7c-2.6-0.1-5-0.7-7.7-0.7c-1.2,0-2.4,0-3.6,0c-2.8,0-5.1,0.6-7.7,0.7c-2.6-0.1-5-0.7-7.7-0.7
								c-1.2,0-2.4,0-3.6,0c-2.8,0-5.1,0.6-7.7,0.7c-2.6-0.1-5-0.7-7.7-0.7c-1.2,0-2.4,0-3.6,0c-2.8,0-5.1,0.6-7.7,0.7
								c-2.6-0.1-5-0.7-7.7-0.7C361.6,250.2,360.4,250.3,359.2,250.2L359.2,250.2z"/>
						</g>
					</g>
				</g>
				
					<linearGradient id="SVGID_5_" gradientUnits="userSpaceOnUse" x1="355.1277" y1="231.5779" x2="505.2682" y2="231.5779" gradientTransform="matrix(1 0 0 -1 0 479.8898)">
					<stop  offset="0" style="stop-color:#002255"/>
					<stop  offset="0.5" style="stop-color:#0044AA"/>
					<stop  offset="1" style="stop-color:#002255"/>
				</linearGradient>
				<path class="st27" d="M362,246.3l-0.1,0.2h74.2l-0.1-0.2H362z M361.8,246.6l-0.1,0.2h74.5l-0.1-0.2H361.8L361.8,246.6z
					 M361.7,246.9l-0.2,0.3h74.9l-0.2-0.3H361.7L361.7,246.9z M361.4,247.3l-0.2,0.3h75.5l-0.2-0.3L361.4,247.3L361.4,247.3z
					 M361.1,247.8l-0.2,0.3h76.1l-0.2-0.3H361.1z M360.8,248.4l-0.2,0.3h76.8l-0.2-0.3H360.8z M360.5,248.9l-0.2,0.3h77.4l-0.2-0.3
					H360.5z M360.2,249.5l-0.2,0.4h78.2l-0.2-0.4H360.2L360.2,249.5z M365.3,250.1c2.7,0.5,3,0,3,0H365.3z M429.7,250.1
					c0,0,0.3,0.5,3,0H429.7z"/>
			</g>
			<g>
				<g id="k">
					
						<linearGradient id="SVGID_6_" gradientUnits="userSpaceOnUse" x1="421.5138" y1="230.2422" x2="421.5138" y2="225.5475" gradientTransform="matrix(1 0 0 -1 0 479.8898)">
						<stop  offset="0" style="stop-color:#F5F549"/>
						<stop  offset="1" style="stop-color:#97C924"/>
					</linearGradient>
					<path class="st28" d="M423.2,238.1c-1.4,0-1.8,0.7-1.8,0.7c-2.2,8.4-9.3,16.9-17.9,16.9h-6.4v8.5c0,0,0,0,0,0h48.6l-4.9-8.7
						c-7.7-1.1-13.9-9-15.9-16.7C425,238.7,424.6,238.1,423.2,238.1L423.2,238.1z"/>
					<path class="st29" d="M423.2,238.4c-0.6,0-1,0.1-1.2,0.3c-0.2,0.1-0.2,0.2-0.3,0.2c0,0,0,0,0,0c-1.1,4.2-3.4,8.4-6.6,11.6
						c-3.2,3.2-7.2,5.4-11.5,5.4h-6.1v7.8h48.1l-4.5-8c-3.7-0.5-7.1-2.5-9.8-5.3c-3.2-3.2-5.5-7.4-6.6-11.6l0,0c0,0-0.1-0.1-0.3-0.2
						C424.2,238.5,423.8,238.4,423.2,238.4L423.2,238.4z"/>
					<path class="st30" d="M423.2,238.4c0.1,0,0.2,0,0.3,0c0,2.4,0,6.4,0,8.5c0,1.9-0.7,3.3-1.6,5.1c-0.4,1.2-0.8,0.8-1.9,2.3
						c-1.4,0.5-2.5,0.7-4.1,1c-2,0.3-6.4,0.6-8.6,0.1c2.9-0.8,5.5-2.6,7.7-4.8c0.6-0.6,1.2-1.2,1.7-1.9c0.9-1.1,1.7-2.3,2.4-3.5
						c0.3-0.5,0.5-1,0.8-1.5c0.4-0.8,0.7-1.5,1-2.3c0.1-0.3,0.2-0.5,0.3-0.8c0.2-0.5,0.3-1.1,0.5-1.6c0,0,0,0,0,0c0,0,0-0.1,0.3-0.2
						c0.1-0.1,0.3-0.1,0.5-0.2h0C422.7,238.4,422.9,238.4,423.2,238.4L423.2,238.4z"/>
					<path class="st31" d="M422.7,239.5c-0.3,4.8-1.8,10.4-5.3,14.1c-1.3,1.1-2.9,2-4.5,1.8C418.3,251,421.6,244.4,422.7,239.5z"/>
					<path class="st32" d="M418.4,247.7c-0.8,2.2-3.8,5.3-7,7.9c-0.9,0-1.4,0.1-2.2,0C411.1,255.5,415.7,251.7,418.4,247.7
						L418.4,247.7z"/>
				</g>
				<g>
					<g id="k_1_">
						
							<linearGradient id="SVGID_7_" gradientUnits="userSpaceOnUse" x1="424.7258" y1="230.2422" x2="424.7258" y2="225.5475" gradientTransform="matrix(1 0 0 -1 -15.341 479.8898)">
							<stop  offset="0" style="stop-color:#F5F549"/>
							<stop  offset="1" style="stop-color:#97C924"/>
						</linearGradient>
						<path class="st33" d="M411.1,238.1c-1.4,0-1.8,0.7-1.8,0.7c-2.2,8.4-9.3,16.9-17.9,16.9h-6.4v8.5c0,0,0,0,0,0h48.6l-4.9-8.7
							c-7.7-1.1-13.9-9-15.9-16.7C412.9,238.7,412.4,238.1,411.1,238.1L411.1,238.1z"/>
						<path class="st29" d="M411.1,238.4c-0.6,0-1,0.1-1.2,0.3c-0.2,0.1-0.2,0.2-0.3,0.2c0,0,0,0,0,0c-1.1,4.2-3.4,8.4-6.6,11.6
							c-3.2,3.2-7.2,5.4-11.5,5.4h-6.1v7.8h48.1l-4.5-8c-3.7-0.5-7.1-2.5-9.8-5.3c-3.2-3.2-5.5-7.4-6.6-11.6l0,0
							c0,0-0.1-0.1-0.3-0.2C412.1,238.5,411.7,238.4,411.1,238.4L411.1,238.4z"/>
						<path class="st30" d="M411.1,238.4c0.1,0,0.2,0,0.3,0c0,2.4,0,6.4,0,8.5c0,1.9-0.7,3.3-1.6,5.1c-0.4,1.2-0.8,0.8-1.9,2.3
							c-1.4,0.5-2.5,0.7-4.1,1c-2,0.3-6.4,0.6-8.6,0.1c2.9-0.8,5.5-2.6,7.7-4.8c0.6-0.6,1.2-1.2,1.7-1.9c0.9-1.1,1.7-2.3,2.4-3.5
							c0.3-0.5,0.5-1,0.8-1.5c0.4-0.8,0.7-1.5,1-2.3c0.1-0.3,0.2-0.5,0.3-0.8c0.2-0.5,0.3-1.1,0.5-1.6c0,0,0,0,0,0
							c0,0,0-0.1,0.3-0.2c0.1-0.1,0.3-0.1,0.5-0.2h0C410.5,238.4,410.8,238.4,411.1,238.4L411.1,238.4z"/>
						<path class="st31" d="M410.5,239.5c-0.3,4.8-1.8,10.4-5.3,14.1c-1.3,1.1-2.9,2-4.5,1.8C406.2,251,409.4,244.4,410.5,239.5z"/>
						<path class="st32" d="M406.2,247.7c-0.8,2.2-3.8,5.3-7,7.9c-0.9,0-1.4,0.1-2.2,0C399,255.5,403.5,251.7,406.2,247.7
							L406.2,247.7z"/>
					</g>
				</g>
				<g>
					
						<linearGradient id="SVGID_8_" gradientUnits="userSpaceOnUse" x1="398.9807" y1="230.2422" x2="398.9807" y2="225.5475" gradientTransform="matrix(1 0 0 -1 0 479.8898)">
						<stop  offset="0" style="stop-color:#F5F549"/>
						<stop  offset="1" style="stop-color:#97C924"/>
					</linearGradient>
					<path class="st34" d="M400.8,238.7c2.2,8.4,9.3,16.9,17.9,16.9h6.4v8.5c0,0,0,0,0,0h-52c0,0,0,0,0,0v-8.5h6.4
						c8.5,0,15.7-8.5,17.9-16.9c0,0,0.4-0.7,1.8-0.7C400.3,238.1,400.8,238.7,400.8,238.7L400.8,238.7z"/>
					<path class="st29" d="M399,238.4c0.6,0,1,0.2,1.2,0.3c0.2,0.1,0.3,0.2,0.3,0.2l0,0c1.1,4.2,3.4,8.4,6.6,11.6
						c3.2,3.2,7.2,5.4,11.6,5.4h6v7.8h-51.4v-7.8h6.1c4.4,0,8.4-2.2,11.5-5.4c3.1-3.2,5.5-7.4,6.6-11.6c0,0,0,0,0,0
						c0,0,0-0.1,0.3-0.2C398,238.5,398.4,238.4,399,238.4z"/>
					<path class="st30" d="M398.4,238.4c-0.1,0-0.1,0-0.2,0h0c-0.2,0-0.3,0.1-0.5,0.2c-0.2,0.1-0.2,0.2-0.3,0.2c0,0,0,0,0,0
						c-0.1,0.5-0.3,1.1-0.5,1.6c-0.1,0.3-0.2,0.5-0.3,0.8c-0.3,0.8-0.6,1.6-1,2.3c-0.2,0.5-0.5,1-0.8,1.5c-0.7,1.2-1.5,2.4-2.4,3.5
						c-0.5,0.7-1.1,1.3-1.7,1.9c-2.2,2.3-4.8,4-7.7,4.8c2.2,0.5,3.2,0,5.2-0.4c1.5-0.2,3.3-0.4,4.8-1c1.1-1.5,0.7-1,1.1-2.3
						c0.9-1.8,2.3-3.3,2.6-5.3C398.2,244.1,398.4,239.7,398.4,238.4L398.4,238.4z"/>
					<path class="st31" d="M398.4,239.5c-0.3,4.8-1.8,10.4-5.3,14.1c-1.3,1.1-2.9,2-4.5,1.8C394.1,251,397.3,244.4,398.4,239.5z"/>
					<path class="st32" d="M394.1,247.7c-0.8,2.2-3.8,5.3-7,7.9c-0.9,0-1.4,0.1-2.2,0C386.9,255.5,391.4,251.7,394.1,247.7
						L394.1,247.7z"/>
					<path class="st30" d="M399.8,238.5L399.8,238.5c0.2,0.1,0.4,0.1,0.5,0.2c0.2,0.1,0.2,0.2,0.3,0.2c0,0,0,0,0,0
						c0.1,0.5,0.3,1.1,0.5,1.6c0.1,0.3,0.2,0.5,0.3,0.8c0.3,0.8,0.6,1.6,1,2.3c0.2,0.5,0.5,1,0.8,1.5c0.7,1.2,1.5,2.4,2.4,3.5
						c0.5,0.7,1.1,1.3,1.7,1.9c2.2,2.3,4.8,4.3,7.7,5.1c-5.7,0-8.2-0.5-10.3-3.2c-2.1-2.7-2.9-3.8-3.3-5.5
						C400.8,245.4,399.6,241.8,399.8,238.5L399.8,238.5z"/>
					<path class="st31" d="M400.2,239.5c0.3,4.8,1.8,9.5,5.2,13.1c1.3,1.1,2.9,2,4.5,1.8C404,250.5,401.3,244.4,400.2,239.5
						L400.2,239.5z"/>
				</g>
				<g id="l">
					
						<linearGradient id="SVGID_9_" gradientUnits="userSpaceOnUse" x1="383.7581" y1="230.2422" x2="383.7581" y2="225.5475" gradientTransform="matrix(1 0 0 -1 0 479.8898)">
						<stop  offset="0" style="stop-color:#F5F549"/>
						<stop  offset="1" style="stop-color:#97C924"/>
					</linearGradient>
					<path class="st35" d="M386.9,238.1c-1.4,0-1.8,0.7-1.8,0.7c-2,7.7-9.3,17.6-17,18.8l-3.8,6.6h38.8v-9
						c-7-1.9-12.6-9.2-14.4-16.4C388.7,238.7,388.3,238.1,386.9,238.1L386.9,238.1z"/>
					<path class="st29" d="M386.9,238.4c-0.6,0-1,0.2-1.2,0.3c-0.2,0.1-0.3,0.2-0.3,0.2l0,0c-1.1,4.2-3.7,8.5-6.4,11.9
						c-2.7,3.4-7.7,6.8-11.1,7.2l-3.4,5.8h38v-8.5c-2.8-0.9-5.4-2.6-7.6-4.8c-3.1-3.2-5.5-7.4-6.6-11.6c0,0,0,0,0,0
						c0,0,0-0.1-0.3-0.2C387.9,238.5,387.6,238.4,386.9,238.4L386.9,238.4z"/>
					<path class="st36" d="M385.9,239.5c-0.5,7.1-4.5,16.2-9,17.7c-1.5,0.5-4,0.7-4.9,0.8C379.9,254.3,384.5,245.5,385.9,239.5z"/>
					<path class="st30" d="M386.9,238.4c-0.1,0-0.2,0-0.3,0c0,2.4,0,6.4,0,8.5c0,1.9,0.7,3.3,1.6,5.1c0.1,0.2,0.1,0.3,0.2,0.4
						c0.3,0.9,0.6,1.2,1.8,2.1c3.9,3,8.8,3.4,11.7,3.2c-0.9-0.7-1.9-1.4-2.7-2c1.4,0,2.6-0.2,3.6-0.4c-2.9-0.8-5.5-2.6-7.7-4.8
						c-0.4-0.4-0.8-0.8-1.1-1.2c-0.2-0.2-0.4-0.6-0.5-0.6c-0.9-1.1-1.8-2.3-2.5-3.6c-0.3-0.5-0.5-1-0.8-1.5c-0.5-1-0.9-2.1-1.3-3.1
						c-0.2-0.5-0.3-1-0.5-1.6c0,0,0,0,0,0c0,0,0-0.1-0.3-0.2c-0.1-0.1-0.3-0.1-0.5-0.2h0C387.4,238.4,387.2,238.4,386.9,238.4
						L386.9,238.4z"/>
					<path class="st37" d="M387.5,239.5c0.3,4.8,1.8,10.4,5.3,14.1c1.3,1.1,2.9,2,4.5,1.8C391.9,251,388.6,244.4,387.5,239.5z"/>
					<path class="st32" d="M390.8,246.1c1.9,4.6,6.6,8.9,11.5,11.8c0.9,0,1.2,0,2,0C400.8,256,395.2,253.3,390.8,246.1z"/>
				</g>
				<g>
					<g id="l_1_">
						
							<linearGradient id="SVGID_10_" gradientUnits="userSpaceOnUse" x1="386.9888" y1="230.2422" x2="386.9888" y2="225.5475" gradientTransform="matrix(1 0 0 -1 -15.43 479.8898)">
							<stop  offset="0" style="stop-color:#F5F549"/>
							<stop  offset="1" style="stop-color:#97C924"/>
						</linearGradient>
						<path class="st38" d="M374.7,238.1c-1.4,0-1.8,0.7-1.8,0.7c-2,7.7-9.3,17.6-17,18.8l-3.8,6.6h38.8v-9
							c-7-1.9-12.6-9.2-14.4-16.4C376.5,238.7,376.1,238.1,374.7,238.1L374.7,238.1z"/>
						<path class="st29" d="M374.7,238.4c-0.6,0-1,0.2-1.2,0.3c-0.2,0.1-0.3,0.2-0.3,0.2l0,0c-1.1,4.2-3.7,8.5-6.4,11.9
							c-2.7,3.4-7.7,6.8-11.1,7.2l-3.4,5.8h38v-8.5c-2.8-0.9-5.4-2.6-7.6-4.8c-3.1-3.2-5.5-7.4-6.6-11.6c0,0,0,0,0,0
							c0,0,0-0.1-0.3-0.2C375.7,238.5,375.4,238.4,374.7,238.4L374.7,238.4z"/>
						<path class="st36" d="M373.7,239.5c-0.5,7.1-4.5,16.2-9,17.7c-1.5,0.5-4,0.7-4.9,0.8C367.7,254.3,372.3,245.5,373.7,239.5z"/>
						<path class="st30" d="M374.7,238.4c-0.1,0-0.2,0-0.3,0c0,2.4,0,6.4,0,8.5c0,1.9,0.7,3.3,1.6,5.1c0.1,0.2,0.1,0.3,0.2,0.4
							c0.3,0.9,0.6,1.2,1.8,2.1c3.9,3,8.8,3.4,11.7,3.2c-0.9-0.7-1.9-1.4-2.7-2c1.4,0,2.6-0.2,3.6-0.4c-2.9-0.8-5.5-2.6-7.7-4.8
							c-0.4-0.4-0.8-0.8-1.1-1.2c-0.2-0.2-0.4-0.6-0.5-0.6c-0.9-1.1-1.8-2.3-2.5-3.6c-0.3-0.5-0.5-1-0.8-1.5c-0.5-1-0.9-2.1-1.3-3.1
							c-0.2-0.5-0.3-1-0.5-1.6c0,0,0,0,0,0c0,0,0-0.1-0.3-0.2c-0.1-0.1-0.3-0.1-0.5-0.2h0C375.2,238.4,375,238.4,374.7,238.4
							L374.7,238.4z"/>
						<path class="st31" d="M375.3,239.5c0.3,4.8,1.8,10.4,5.3,14.1c1.3,1.1,2.9,2,4.5,1.8C379.7,251,376.4,244.4,375.3,239.5z"/>
						<path class="st32" d="M378.6,246.1c1.9,4.6,6.6,8.9,11.5,11.8c0.9,0,1.2,0,2,0C388.6,256,383,253.3,378.6,246.1z"/>
					</g>
				</g>
			</g>
			<g>
				<path class="st1" d="M443.7,259.9c-0.5,0.2-3.5-0.2-5.1,0l-1,0.3c-0.9,0-1.8,0-2.6,0c-2.8,0-5.3,0.7-8,0.7c-2.7,0-5.1-0.7-8-0.7
					c-0.9,0-1.8,0-2.6,0c-2.8,0-5.3,0.7-8,0.7c-2.7,0-5.1-0.7-8-0.7c-0.9,0-1.8,0-2.6,0c-2.8,0-5.2,0.7-8,0.7c-2.7,0-5.1-0.7-8-0.7
					c-0.2,0-0.4,0-0.6,0c-0.1,0-0.3,0-0.4,0c-0.1,0-0.2,0-0.3,0c-0.1,0-0.2,0-0.3,0c-0.1,0-0.3,0-0.4,0c-0.2,0-0.4,0-0.6,0
					c-2.9,0-5.3,0.8-8,0.7c-2.7,0-5.1-0.7-8-0.7c-0.2,0-0.4,0-0.6,0c-0.1,0-0.3,0-0.4,0c-0.1,0-0.2,0-0.3,0c-0.1,0-0.2,0-0.3,0
					c-0.1,0-0.3,0-0.4,0c-0.2,0-0.4,0-0.6,0c-2.3,0-4.9,0.5-7.1,0.7l-5,8.6l49.8,0l50.9,0L443.7,259.9z"/>
				
					<linearGradient id="SVGID_11_" gradientUnits="userSpaceOnUse" x1="100.3596" y1="640.5679" x2="101.1502" y2="640.5679" gradientTransform="matrix(116.197 0 0 -5.8491 -11309.2744 4007.6948)">
					<stop  offset="0" style="stop-color:#002255"/>
					<stop  offset="0.5" style="stop-color:#0044AA"/>
					<stop  offset="1" style="stop-color:#002255"/>
				</linearGradient>
				<path class="st39" d="M436.9,258.7c-0.2,0-0.3,0-0.5,0c-2.6,0.1-4.4,0.9-8.9,0.9c-4.5,0-4.9-0.8-9.9-0.7c-4.7,0.1-6.7,1-9.2,1
					c-2.6,0-6.7-0.6-9.9-0.2c-3.2,0.3-7,1-9.5,1c-3.1,0-6.2-0.6-9.4-0.3c-3.2,0.3-4.7,1.2-8.7,1.2c-3.4,0-7.2-0.6-10.1-0.5
					c-2.7,0-5.7,0.8-8,1.1l-0.7,1.2c1.8-0.2,6.8-1,8.5-1c1.9,0,8.5,0.4,12.1,0.3c3.7-0.1,4.1-0.9,8.4-0.9c3,0,5.3,0.3,8.4,0.3
					c1.9,0,3.7-1,6.6-1c0.7,0,1.5,0,2.2-0.1c2.5-0.4,6.6,0,9.5,0.2c2.6,0.1,4.3-0.5,7-0.6c1.2-0.1,2.4-0.1,3.5-0.1
					c2.7-0.1,5.1,0.5,7.7,0.5c2.6-0.2,5.1-0.7,7.8-0.8c1.2-0.1,2.4-0.1,3.5-0.1c1.8-0.1,4.6,0.1,6.5,0.4l-0.7-1.1
					C441.5,259.1,439.2,258.7,436.9,258.7L436.9,258.7z"/>
				<g id="n">
					
						<linearGradient id="m_9_" gradientUnits="userSpaceOnUse" x1="100.5028" y1="585.5156" x2="101.2934" y2="585.5156" gradientTransform="matrix(126.726 0 0 -1.522 -12387.418 1159.5992)">
						<stop  offset="0" style="stop-color:#002255"/>
						<stop  offset="0.5" style="stop-color:#0044AA"/>
						<stop  offset="1" style="stop-color:#002255"/>
					</linearGradient>
					<path id="m" class="st40" d="M359.7,267.9c-2.7,0-5.1,0.7-7.6,0.7c-1,0-1.9-0.1-2.8-0.3l-0.4,0.7c0.4,0,0.8,0,1.2,0
						c1.2,0,2.4,0,3.5,0c2.7,0,5-0.7,7.6-0.7c2.6,0.1,4.9,0.7,7.6,0.7c1.2,0,2.4,0,3.5,0c2.7,0,5.1-0.7,7.6-0.7
						c2.6,0.1,4.9,0.7,7.7,0.7c1.2,0,2.4,0,3.5,0c2.7,0,5.1-0.7,7.6-0.7c2.6,0.1,4.9,0.7,7.6,0.7c1.2,0,2.4,0,3.5,0
						c2.7,0,5.1-0.7,7.6-0.7c2.6,0.1,4.9,0.7,7.6,0.7c1.2,0,2.4,0,3.5,0c2.7,0,5.1-0.7,7.6-0.7c2.6,0.1,4.9,0.7,7.6,0.7
						c1.2,0,2.4,0,3.5,0c0.5,0,0.9,0,1.4-0.1l-0.4-0.6c-0.8,0.1-1.7,0.2-2.6,0.2c-2.6-0.1-4.9-0.7-7.6-0.7c-1.2,0-2.4,0-3.5,0
						c-2.7,0-5.1,0.7-7.6,0.7c-2.6-0.1-4.9-0.7-7.6-0.7c-1.2,0-2.4,0-3.5,0c-2.7,0-5.1,0.7-7.6,0.7c-2.6-0.1-4.9-0.7-7.6-0.7
						c-1.2,0-2.4,0-3.5,0c-2.7,0-5.1,0.7-7.6,0.7c-2.6-0.1-4.9-0.7-7.6-0.7c-1.2,0-2.4,0-3.5,0c-2.7,0-5.1,0.7-7.6,0.7
						c-2.6-0.1-4.9-0.7-7.6-0.7C362.1,267.8,360.9,267.9,359.7,267.9L359.7,267.9z"/>
					<g>
						
							<linearGradient id="m_10_" gradientUnits="userSpaceOnUse" x1="100.5028" y1="585.3383" x2="101.2934" y2="585.3383" gradientTransform="matrix(126.726 0 0 -1.522 -12387.418 1158.3103)">
							<stop  offset="0" style="stop-color:#002255"/>
							<stop  offset="0.5" style="stop-color:#0044AA"/>
							<stop  offset="1" style="stop-color:#002255"/>
						</linearGradient>
						<path id="m_1_" class="st41" d="M359.7,266.8c-2.7,0-5.1,0.7-7.6,0.7c-1,0-1.9-0.1-2.8-0.3l-0.4,0.7c0.4,0,0.8,0,1.2,0
							c1.2,0,2.4,0,3.5,0c2.7,0,5-0.7,7.6-0.7c2.6,0.1,4.9,0.7,7.6,0.7c1.2,0,2.4,0,3.5,0c2.7,0,5.1-0.7,7.6-0.7
							c2.6,0.1,4.9,0.7,7.7,0.7c1.2,0,2.4,0,3.5,0c2.7,0,5.1-0.7,7.6-0.7c2.6,0.1,4.9,0.7,7.6,0.7c1.2,0,2.4,0,3.5,0
							c2.7,0,5.1-0.7,7.6-0.7c2.6,0.1,4.9,0.7,7.6,0.7c1.2,0,2.4,0,3.5,0c2.7,0,5.1-0.7,7.6-0.7c2.6,0.1,4.9,0.7,7.6,0.7
							c1.2,0,2.4,0,3.5,0c0.5,0,0.9,0,1.4-0.1l-0.4-0.6c-0.8,0.1-1.7,0.2-2.6,0.2c-2.6-0.1-4.9-0.7-7.6-0.7c-1.2,0-2.4,0-3.5,0
							c-2.7,0-5.1,0.7-7.6,0.7c-2.6-0.1-4.9-0.7-7.6-0.7c-1.2,0-2.4,0-3.5,0c-2.7,0-5.1,0.7-7.6,0.7c-2.6-0.1-4.9-0.7-7.6-0.7
							c-1.2,0-2.4,0-3.5,0c-2.7,0-5.1,0.7-7.6,0.7c-2.6-0.1-4.9-0.7-7.6-0.7c-1.2,0-2.4,0-3.5,0c-2.7,0-5.1,0.7-7.6,0.7
							c-2.6-0.1-4.9-0.7-7.6-0.7C362.1,266.8,360.9,266.9,359.7,266.8L359.7,266.8z"/>
					</g>
					<g>
						
							<linearGradient id="m_11_" gradientUnits="userSpaceOnUse" x1="100.5028" y1="585.1614" x2="101.2934" y2="585.1614" gradientTransform="matrix(126.726 0 0 -1.522 -12387.418 1157.0243)">
							<stop  offset="0" style="stop-color:#002255"/>
							<stop  offset="0.5" style="stop-color:#0044AA"/>
							<stop  offset="1" style="stop-color:#002255"/>
						</linearGradient>
						<path id="m_2_" class="st42" d="M359.7,265.8c-2.7,0-5.1,0.7-7.6,0.7c-1,0-1.9-0.1-2.8-0.3l-0.4,0.7c0.4,0,0.8,0,1.2,0
							c1.2,0,2.4,0,3.5,0c2.7,0,5-0.7,7.6-0.7c2.6,0.1,4.9,0.7,7.6,0.7c1.2,0,2.4,0,3.5,0c2.7,0,5.1-0.7,7.6-0.7
							c2.6,0.1,4.9,0.7,7.7,0.7c1.2,0,2.4,0,3.5,0c2.7,0,5.1-0.7,7.6-0.7c2.6,0.1,4.9,0.7,7.6,0.7c1.2,0,2.4,0,3.5,0
							c2.7,0,5.1-0.7,7.6-0.7c2.6,0.1,4.9,0.7,7.6,0.7c1.2,0,2.4,0,3.5,0c2.7,0,5.1-0.7,7.6-0.7c2.6,0.1,4.9,0.7,7.6,0.7
							c1.2,0,2.4,0,3.5,0c0.5,0,0.9,0,1.4-0.1l-0.4-0.6c-0.8,0.1-1.7,0.2-2.6,0.2c-2.6-0.1-4.9-0.7-7.6-0.7c-1.2,0-2.4,0-3.5,0
							c-2.7,0-5.1,0.7-7.6,0.7c-2.6-0.1-4.9-0.7-7.6-0.7c-1.2,0-2.4,0-3.5,0c-2.7,0-5.1,0.7-7.6,0.7c-2.6-0.1-4.9-0.7-7.6-0.7
							c-1.2,0-2.4,0-3.5,0c-2.7,0-5.1,0.7-7.6,0.7c-2.6-0.1-4.9-0.7-7.6-0.7c-1.2,0-2.4,0-3.5,0c-2.7,0-5.1,0.7-7.6,0.7
							c-2.6-0.1-4.9-0.7-7.6-0.7C362.1,265.8,360.9,265.9,359.7,265.8L359.7,265.8z"/>
					</g>
				</g>
				<g>
					<g id="n_1_">
						
							<linearGradient id="m_12_" gradientUnits="userSpaceOnUse" x1="100.5028" y1="584.9836" x2="101.2934" y2="584.9836" gradientTransform="matrix(126.726 0 0 -1.522 -12387.418 1155.7323)">
							<stop  offset="0" style="stop-color:#002255"/>
							<stop  offset="0.5" style="stop-color:#0044AA"/>
							<stop  offset="1" style="stop-color:#002255"/>
						</linearGradient>
						<path id="m_3_" class="st43" d="M359.7,264.8c-2.7,0-5.1,0.7-7.6,0.7c-1,0-1.9-0.1-2.8-0.3l-0.4,0.7c0.4,0,0.8,0,1.2,0
							c1.2,0,2.4,0,3.5,0c2.7,0,5-0.7,7.6-0.7c2.6,0.1,4.9,0.7,7.6,0.7c1.2,0,2.4,0,3.5,0c2.7,0,5.1-0.7,7.6-0.7
							c2.6,0.1,4.9,0.7,7.7,0.7c1.2,0,2.4,0,3.5,0c2.7,0,5.1-0.7,7.6-0.7c2.6,0.1,4.9,0.7,7.6,0.7c1.2,0,2.4,0,3.5,0
							c2.7,0,5.1-0.7,7.6-0.7c2.6,0.1,4.9,0.7,7.6,0.7c1.2,0,2.4,0,3.5,0c2.7,0,5.1-0.7,7.6-0.7c2.6,0.1,4.9,0.7,7.6,0.7
							c1.2,0,2.4,0,3.5,0c0.5,0,0.9,0,1.4-0.1l-0.4-0.6c-0.8,0.1-1.7,0.2-2.6,0.2c-2.6-0.1-4.9-0.7-7.6-0.7c-1.2,0-2.4,0-3.5,0
							c-2.7,0-5.1,0.7-7.6,0.7c-2.6-0.1-4.9-0.7-7.6-0.7c-1.2,0-2.4,0-3.5,0c-2.7,0-5.1,0.7-7.6,0.7c-2.6-0.1-4.9-0.7-7.6-0.7
							c-1.2,0-2.4,0-3.5,0c-2.7,0-5.1,0.7-7.6,0.7c-2.6-0.1-4.9-0.7-7.6-0.7c-1.2,0-2.4,0-3.5,0c-2.7,0-5.1,0.7-7.6,0.7
							c-2.6-0.1-4.9-0.7-7.6-0.7C362.1,264.8,360.9,264.8,359.7,264.8L359.7,264.8z"/>
						<g>
							
								<linearGradient id="m_13_" gradientUnits="userSpaceOnUse" x1="100.5028" y1="584.8063" x2="101.2934" y2="584.8063" gradientTransform="matrix(126.726 0 0 -1.522 -12387.418 1154.4432)">
								<stop  offset="0" style="stop-color:#002255"/>
								<stop  offset="0.5" style="stop-color:#0044AA"/>
								<stop  offset="1" style="stop-color:#002255"/>
							</linearGradient>
							<path id="m_4_" class="st44" d="M359.7,263.8c-2.7,0-5.1,0.7-7.6,0.7c-1,0-1.9-0.1-2.8-0.3l-0.4,0.7c0.4,0,0.8,0,1.2,0
								c1.2,0,2.4,0,3.5,0c2.7,0,5-0.7,7.6-0.7c2.6,0.1,4.9,0.7,7.6,0.7c1.2,0,2.4,0,3.5,0c2.7,0,5.1-0.7,7.6-0.7
								c2.6,0.1,4.9,0.7,7.7,0.7c1.2,0,2.4,0,3.5,0c2.7,0,5.1-0.7,7.6-0.7c2.6,0.1,4.9,0.7,7.6,0.7c1.2,0,2.4,0,3.5,0
								c2.7,0,5.1-0.7,7.6-0.7c2.6,0.1,4.9,0.7,7.6,0.7c1.2,0,2.4,0,3.5,0c2.7,0,5.1-0.7,7.6-0.7c2.6,0.1,4.9,0.7,7.6,0.7
								c1.2,0,2.4,0,3.5,0c0.5,0,0.9,0,1.4-0.1l-0.4-0.6c-0.8,0.1-1.7,0.2-2.6,0.2c-2.6-0.1-4.9-0.7-7.6-0.7c-1.2,0-2.4,0-3.5,0
								c-2.7,0-5.1,0.7-7.6,0.7c-2.6-0.1-4.9-0.7-7.6-0.7c-1.2,0-2.4,0-3.5,0c-2.7,0-5.1,0.7-7.6,0.7c-2.6-0.1-4.9-0.7-7.6-0.7
								c-1.2,0-2.4,0-3.5,0c-2.7,0-5.1,0.7-7.6,0.7c-2.6-0.1-4.9-0.7-7.6-0.7c-1.2,0-2.4,0-3.5,0c-2.7,0-5.1,0.7-7.6,0.7
								c-2.6-0.1-4.9-0.7-7.6-0.7C362.1,263.8,360.9,263.8,359.7,263.8L359.7,263.8z"/>
						</g>
						<g>
							
								<linearGradient id="m_14_" gradientUnits="userSpaceOnUse" x1="100.5028" y1="584.6294" x2="101.2934" y2="584.6294" gradientTransform="matrix(126.726 0 0 -1.522 -12387.418 1153.1572)">
								<stop  offset="0" style="stop-color:#002255"/>
								<stop  offset="0.5" style="stop-color:#0044AA"/>
								<stop  offset="1" style="stop-color:#002255"/>
							</linearGradient>
							<path id="m_5_" class="st45" d="M359.7,262.8c-2.7,0-5.1,0.7-7.6,0.7c-1,0-1.9-0.1-2.8-0.3l-0.4,0.7c0.4,0,0.8,0,1.2,0
								c1.2,0,2.4,0,3.5,0c2.7,0,5-0.7,7.6-0.7c2.6,0.1,4.9,0.7,7.6,0.7c1.2,0,2.4,0,3.5,0c2.7,0,5.1-0.7,7.6-0.7
								c2.6,0.1,4.9,0.7,7.7,0.7c1.2,0,2.4,0,3.5,0c2.7,0,5.1-0.7,7.6-0.7c2.6,0.1,4.9,0.7,7.6,0.7c1.2,0,2.4,0,3.5,0
								c2.7,0,5.1-0.7,7.6-0.7c2.6,0.1,4.9,0.7,7.6,0.7c1.2,0,2.4,0,3.5,0c2.7,0,5.1-0.7,7.6-0.7c2.6,0.1,4.9,0.7,7.6,0.7
								c1.2,0,2.4,0,3.5,0c0.5,0,0.9,0,1.4-0.1l-0.4-0.6c-0.8,0.1-1.7,0.2-2.6,0.2c-2.6-0.1-4.9-0.7-7.6-0.7c-1.2,0-2.4,0-3.5,0
								c-2.7,0-5.1,0.7-7.6,0.7c-2.6-0.1-4.9-0.7-7.6-0.7c-1.2,0-2.4,0-3.5,0c-2.7,0-5.1,0.7-7.6,0.7c-2.6-0.1-4.9-0.7-7.6-0.7
								c-1.2,0-2.4,0-3.5,0c-2.7,0-5.1,0.7-7.6,0.7c-2.6-0.1-4.9-0.7-7.6-0.7c-1.2,0-2.4,0-3.5,0c-2.7,0-5.1,0.7-7.6,0.7
								c-2.6-0.1-4.9-0.7-7.6-0.7C362.1,262.8,360.9,262.8,359.7,262.8L359.7,262.8z"/>
						</g>
					</g>
				</g>
				<g>
					<g id="n_2_">
						
							<linearGradient id="m_15_" gradientUnits="userSpaceOnUse" x1="100.5028" y1="584.4523" x2="101.2934" y2="584.4523" gradientTransform="matrix(126.726 0 0 -1.522 -12387.418 1151.8702)">
							<stop  offset="0" style="stop-color:#002255"/>
							<stop  offset="0.5" style="stop-color:#0044AA"/>
							<stop  offset="1" style="stop-color:#002255"/>
						</linearGradient>
						<path id="m_6_" class="st46" d="M359.7,261.8c-2.7,0-5.1,0.7-7.6,0.7c-1,0-1.9-0.1-2.8-0.3l-0.4,0.7c0.4,0,0.8,0,1.2,0
							c1.2,0,2.4,0,3.5,0c2.7,0,5-0.7,7.6-0.7c2.6,0.1,4.9,0.7,7.6,0.7c1.2,0,2.4,0,3.5,0c2.7,0,5.1-0.7,7.6-0.7
							c2.6,0.1,4.9,0.7,7.7,0.7c1.2,0,2.4,0,3.5,0c2.7,0,5.1-0.7,7.6-0.7c2.6,0.1,4.9,0.7,7.6,0.7c1.2,0,2.4,0,3.5,0
							c2.7,0,5.1-0.7,7.6-0.7c2.6,0.1,4.9,0.7,7.6,0.7c1.2,0,2.4,0,3.5,0c2.7,0,5.1-0.7,7.6-0.7c2.6,0.1,4.9,0.7,7.6,0.7
							c1.2,0,2.4,0,3.5,0c0.5,0,0.9,0,1.4-0.1l-0.4-0.6c-0.8,0.1-1.7,0.2-2.6,0.2c-2.6-0.1-4.9-0.7-7.6-0.7c-1.2,0-2.4,0-3.5,0
							c-2.7,0-5.1,0.7-7.6,0.7c-2.6-0.1-4.9-0.7-7.6-0.7c-1.2,0-2.4,0-3.5,0c-2.7,0-5.1,0.7-7.6,0.7c-2.6-0.1-4.9-0.7-7.6-0.7
							c-1.2,0-2.4,0-3.5,0c-2.7,0-5.1,0.7-7.6,0.7c-2.6-0.1-4.9-0.7-7.6-0.7c-1.2,0-2.4,0-3.5,0c-2.7,0-5.1,0.7-7.6,0.7
							c-2.6-0.1-4.9-0.7-7.6-0.7C362.1,261.7,360.9,261.8,359.7,261.8L359.7,261.8z"/>
						<g>
							
								<linearGradient id="m_16_" gradientUnits="userSpaceOnUse" x1="100.5028" y1="584.275" x2="101.2934" y2="584.275" gradientTransform="matrix(126.726 0 0 -1.522 -12387.418 1150.5813)">
								<stop  offset="0" style="stop-color:#002255"/>
								<stop  offset="0.5" style="stop-color:#0044AA"/>
								<stop  offset="1" style="stop-color:#002255"/>
							</linearGradient>
							<path id="m_7_" class="st47" d="M359.7,260.7c-2.7,0-5.1,0.7-7.6,0.7c-1,0-1.9-0.1-2.8-0.3l-0.4,0.7c0.4,0,0.8,0,1.2,0
								c1.2,0,2.4,0,3.5,0c2.7,0,5-0.7,7.6-0.7c2.6,0.1,4.9,0.7,7.6,0.7c1.2,0,2.4,0,3.5,0c2.7,0,5.1-0.7,7.6-0.7
								c2.6,0.1,4.9,0.7,7.7,0.7c1.2,0,2.4,0,3.5,0c2.7,0,5.1-0.7,7.6-0.7c2.6,0.1,4.9,0.7,7.6,0.7c1.2,0,2.4,0,3.5,0
								c2.7,0,5.1-0.7,7.6-0.7c2.6,0.1,4.9,0.7,7.6,0.7c1.2,0,2.4,0,3.5,0c2.7,0,5.1-0.7,7.6-0.7c2.6,0.1,4.9,0.7,7.6,0.7
								c1.2,0,2.4,0,3.5,0c0.5,0,0.9,0,1.4-0.1l-0.4-0.6c-0.8,0.1-1.7,0.2-2.6,0.2c-2.6-0.1-4.9-0.7-7.6-0.7c-1.2,0-2.4,0-3.5,0
								c-2.7,0-5.1,0.7-7.6,0.7c-2.6-0.1-4.9-0.7-7.6-0.7c-1.2,0-2.4,0-3.5,0c-2.7,0-5.1,0.7-7.6,0.7c-2.6-0.1-4.9-0.7-7.6-0.7
								c-1.2,0-2.4,0-3.5,0c-2.7,0-5.1,0.7-7.6,0.7c-2.6-0.1-4.9-0.7-7.6-0.7c-1.2,0-2.4,0-3.5,0c-2.7,0-5.1,0.7-7.6,0.7
								c-2.6-0.1-4.9-0.7-7.6-0.7C362.1,260.7,360.9,260.8,359.7,260.7L359.7,260.7z"/>
						</g>
						<g>
							
								<linearGradient id="m_17_" gradientUnits="userSpaceOnUse" x1="100.5028" y1="584.0981" x2="101.2934" y2="584.0981" gradientTransform="matrix(126.726 0 0 -1.522 -12387.418 1149.2953)">
								<stop  offset="0" style="stop-color:#002255"/>
								<stop  offset="0.5" style="stop-color:#0044AA"/>
								<stop  offset="1" style="stop-color:#002255"/>
							</linearGradient>
							<path id="m_8_" class="st48" d="M359.7,259.7c-2.7,0-5.1,0.7-7.6,0.7c-1,0-1.9-0.1-2.8-0.3l-0.4,0.7c0.4,0,0.8,0,1.2,0
								c1.2,0,2.4,0,3.5,0c2.7,0,5-0.7,7.6-0.7c2.6,0.1,4.9,0.7,7.6,0.7c1.2,0,2.4,0,3.5,0c2.7,0,5.1-0.7,7.6-0.7
								c2.6,0.1,4.9,0.7,7.7,0.7c1.2,0,2.4,0,3.5,0c2.7,0,5.1-0.7,7.6-0.7c2.6,0.1,4.9,0.7,7.6,0.7c1.2,0,2.4,0,3.5,0
								c2.7,0,5.1-0.7,7.6-0.7c2.6,0.1,4.9,0.7,7.6,0.7c1.2,0,2.4,0,3.5,0c2.7,0,5.1-0.7,7.6-0.7c2.6,0.1,4.9,0.7,7.6,0.7
								c1.2,0,2.4,0,3.5,0c0.5,0,0.9,0,1.4-0.1l-0.4-0.6c-0.8,0.1-1.7,0.2-2.6,0.2c-2.6-0.1-4.9-0.7-7.6-0.7c-1.2,0-2.4,0-3.5,0
								c-2.7,0-5.1,0.7-7.6,0.7c-2.6-0.1-4.9-0.7-7.6-0.7c-1.2,0-2.4,0-3.5,0c-2.7,0-5.1,0.7-7.6,0.7c-2.6-0.1-4.9-0.7-7.6-0.7
								c-1.2,0-2.4,0-3.5,0c-2.7,0-5.1,0.7-7.6,0.7c-2.6-0.1-4.9-0.7-7.6-0.7c-1.2,0-2.4,0-3.5,0c-2.7,0-5.1,0.7-7.6,0.7
								c-2.6-0.1-4.9-0.7-7.6-0.7C362.1,259.7,360.9,259.7,359.7,259.7L359.7,259.7z"/>
						</g>
					</g>
				</g>
			</g>
			<path class="st29" d="M354.6,259.9l-1.9,3.3c2.2-0.4,5.6-1.3,8.4-1.3c2.9,0,6.4,0.7,9.8,0.7c4,0,5.5-0.9,8.7-1.2
				c3.2-0.3,6.3,0.4,9.4,0.4c2.5,0,6.3-0.9,9.5-1.2c3.2-0.3,6.1,0.2,10,0.3c3.8,0.1,4.5-0.9,9.2-1c5-0.1,5.5,0.7,9.9,0.7
				c3.4,0.2,6.2-0.7,9.2-0.9c3-0.2,4.4,0,6.6,0.1l-1.5-2.6c0,0,0,0-0.1,0l-80,1.8L354.6,259.9z"/>
			<path class="st1" d="M438.6,259.9c0,0,2.1,0.1,3,0.2c0.8,0.1,1.6,0.1,2.3,0.2l-0.3-0.4C443.2,260.1,440.2,259.8,438.6,259.9z"/>
		</g>
	</g>
	<path class="st2" d="M399,181l-25.4,44l-26,45l50.8,0l51.9,0L425,226L399,181z M399,183.4l24.9,43.2l24.4,42.2l-49.9,0l-48.8,0
		l25-43.2L399,183.4z"/>
</g>
</svg>
