<?xml version="1.0" encoding="utf-8"?>
<!-- Generator: Adobe Illustrator 24.0.1, SVG Export Plug-In . SVG Version: 6.00 Build 0)  -->
<svg version="1.1" id="flag-icons-np" xmlns="http://www.w3.org/2000/svg" xmlns:xlink="http://www.w3.org/1999/xlink" x="0px"
	 y="0px" viewBox="0 0 640 480" style="enable-background:new 0 0 640 480;" xml:space="preserve">
<style type="text/css">
	.st0{fill:#FFFFFF;}
	.st1{fill-rule:evenodd;clip-rule:evenodd;fill:#CE0000;}
	.st2{fill:#000063;}
	.st3{fill-rule:evenodd;clip-rule:evenodd;fill:#FFFFFF;}
</style>
<path class="st0" d="M0,0h640v480H0V0z"/>
<g>
	<polygon class="st1" points="7.9,472.2 7.9,12.2 478.7,230.6 149.6,230.4 477.9,472.2 	"/>
	<path class="st2" d="M15.7,24.4l427.6,198.4l-270-0.2l-47.5,0l38.2,28.2l290.1,213.7H15.7V24.4 M0.1,0v480h501.4L173.3,238.2
		l340.7,0.3L0.1,0L0.1,0z M0.1,480H0H0.1L0.1,480z"/>
</g>
<path class="st3" d="M182.4,348.6l-25.3,8.4l19.9,18.6l-26.7-1.7l11,24.6l-23.9-11.5l0.5,26.8l-17.6-19.6l-10,24.9l-8.6-24.7
	l-19,19.3l1.7-26l-25.2,10.7L70.8,375l-27.5,0.6l20.2-17.2l-25.6-9.8l25.3-8.4l-20-18.6l26.6,1.7l-10.9-24.6l24,11.5l-0.5-26.8
	l17.6,19.6l10-24.9l8.5,24.7l19.1-19.3l-1.8,26l25.3-10.7l-11.9,23.4l27.6-0.6l-20.2,17.2L182.4,348.6z M152,165.4l-10.6,7.9
	l5.2,4.3c12.3-8.6,22.2-20.2,28.8-33.8c1.7,20-16.6,64.7-64.4,65.2c-36.6,0.5-66.6-28.8-67-65.3c0-0.2,0-0.4,0-0.6
	c9.4,17.1,15.2,25.3,30,34.2l4.4-4.1l-9.9-8.3l12.8-3.4l-6.9-11.6l13.5,0.9l-1.7-13.5l11.8,6.9l3.8-12.7l8.4,10.1l8-9.7l4.3,13.1
	l11.1-7.7l-1.4,13.4l13.3-1.6l-6.3,12.4L152,165.4L152,165.4z"/>
</svg>
