<?xml version="1.0" encoding="utf-8"?>
<!-- Generator: Adobe Illustrator 24.0.1, SVG Export Plug-In . SVG Version: 6.00 Build 0)  -->
<svg version="1.1" id="flag-icons-nr" xmlns="http://www.w3.org/2000/svg" xmlns:xlink="http://www.w3.org/1999/xlink" x="0px"
	 y="0px" viewBox="0 0 800 480" style="enable-background:new 0 0 800 480;" xml:space="preserve">
<style type="text/css">
	.st0{fill-rule:evenodd;clip-rule:evenodd;fill:#002170;}
	.st1{fill-rule:evenodd;clip-rule:evenodd;fill:#FFB20D;}
	.st2{fill-rule:evenodd;clip-rule:evenodd;fill:#FFFFFF;}
</style>
<path class="st0" d="M0,0h800v480H0V0z"/>
<path class="st1" d="M0,219.5h800v41.2H0V219.5z"/>
<path class="st2" d="M271,410.6l-30.9-30.9l-9.8,42.6L219,380.1l-29.9,31.9l11.3-42.2l-41.7,12.7l30.9-30.9l-42.6-9.9l42.2-11.2
	l-31.9-29.8l42.2,11.2L186.8,270l30.9,30.9l9.9-42.6l11.2,42.2l29.8-31.9l-11.2,42.2l41.7-12.7l-30.9,30.9l42.6,9.8l-42.2,11.2
	l31.9,30l-42.2-11.4L271,410.6z"/>
</svg>
