<?xml version="1.0" encoding="utf-8"?>
<!-- Generator: Adobe Illustrator 24.0.1, SVG Export Plug-In . SVG Version: 6.00 Build 0)  -->
<svg version="1.1" id="flag-icons-nu" xmlns="http://www.w3.org/2000/svg" xmlns:xlink="http://www.w3.org/1999/xlink" x="0px"
	 y="0px" viewBox="0 0 800 480" style="enable-background:new 0 0 800 480;" xml:space="preserve">
<style type="text/css">
	.st0{fill-rule:evenodd;clip-rule:evenodd;fill:#FEDD00;}
	.st1{fill-rule:evenodd;clip-rule:evenodd;fill:#FFFFFF;}
	.st2{fill:#C8102E;}
	.st3{fill:#012169;}
	.st4{fill-rule:evenodd;clip-rule:evenodd;fill:#012169;}
</style>
<path class="st0" d="M0,0h800v480H0V0z"/>
<g>
	<path class="st1" d="M0,0h400v240H0V0z"/>
	<path class="st2" d="M0,0v18l95.9,59.4l36.1,1.3L0,0z"/>
	<path class="st3" d="M41,0l116.4,73.1V0H41z"/>
	<path class="st2" d="M172.9,0v93.3H0v53.2h173V240h53.1v-93.5H400V93.3H226.1V0H172.9L172.9,0z"/>
	<path class="st3" d="M241.6,0v68.8L355.4,0.6L241.6,0z"/>
	<path class="st2" d="M245.2,76.3l32-0.3L400,0.6l-31.5,0.6L245.2,76.3L245.2,76.3z"/>
	<path class="st3" d="M0,162.1v51.1l79.8-50.6L0,162.1L0,162.1z"/>
	<path class="st2" d="M307.3,164.2l-33.3-0.3L400,240v-18.2L307.3,164.2L307.3,164.2z M31.1,240l117.6-74.1l-30.8,0.3L0,240"/>
	<polygon class="st3" points="0.4,27.1 0.5,27.1 0.5,27.1 	"/>
	<polygon class="st3" points="84,78.1 0.5,27.1 0,76.8 	"/>
	<polygon class="st3" points="157.7,240 157.7,171.3 51,240 	"/>
	<polygon class="st3" points="242.1,240 356.5,240 242.1,171.4 	"/>
	<g>
		<polygon class="st3" points="400,214 400,162.5 319.7,162.5 		"/>
		<polygon class="st3" points="400,21.1 305.7,77.7 400,78.2 		"/>
	</g>
</g>
<g>
	<path class="st4" d="M236.4,121.1c1,20-14.5,37-34.4,37.9s-37-14.5-37.9-34.4c-0.1-1.2-0.1-2.3,0-3.5c1-20,18-35.4,37.9-34.4
		C220.6,87.6,235.5,102.5,236.4,121.1z"/>
	<path class="st0" d="M193.5,111.8l6.9-20.8l6.9,20.8H230l-18.3,12.9l7,20.7l-18.3-13l-18.3,12.9l7-20.7l-18.3-12.9L193.5,111.8z
		 M319.2,115.2l3.5-9.7l3.4,9.8h11.3l-9.1,5.9l3.5,9.7l-9.1-5.9l-9.1,5.9l3.5-9.7l-9.1-5.9L319.2,115.2z M196.8,187.7l3.4-9.7
		l3.5,9.7h11.2l-9.1,5.9l3.5,9.8l-9.1-6l-9.1,5.9l3.5-9.7l-9.1-6H196.8z M196.8,46.3l3.4-9.8l3.5,9.7h11.2l-9.1,6l3.5,9.7l-9.1-5.9
		l-9.1,5.9l3.5-9.7l-9.1-5.9H196.8z M73.9,115.1l3.5-9.7l3.4,9.7H92l-9.1,6l3.5,9.7l-9.1-5.9l-9.1,5.9l3.5-9.7l-9.1-5.9L73.9,115.1z
		"/>
</g>
</svg>
