<?xml version="1.0" encoding="utf-8"?>
<!-- Generator: Adobe Illustrator 24.0.1, SVG Export Plug-In . SVG Version: 6.00 Build 0)  -->
<svg version="1.1" id="flag-icons-nz" xmlns="http://www.w3.org/2000/svg" xmlns:xlink="http://www.w3.org/1999/xlink" x="0px"
	 y="0px" viewBox="0 0 800 480" style="enable-background:new 0 0 800 480;" xml:space="preserve">
<style type="text/css">
	.st0{fill-rule:evenodd;clip-rule:evenodd;fill:#00247D;}
	.st1{fill:#CC142B;stroke:#FFFFFF;stroke-width:4;stroke-miterlimit:10;}
	.st2{fill:#FFFFFF;}
	.st3{fill:#C8102E;}
</style>
<path id="path32" class="st0" d="M0,0h800v480H0V0z"/>
<g>
	<polygon class="st1" points="641.2,108.3 643.4,107.2 642.7,107.2 644,106.2 638.2,107.2 620.7,107.2 614.1,87 613.8,84.6 
		613.5,85.3 613,83.7 612.1,89.6 606.4,107.2 587.9,107.2 582,106.2 583.4,107.2 582.7,107.2 584.8,108.3 602,120.7 596.6,137.4 
		593.9,142.7 595.2,141.7 595,142.3 596.7,140.6 613,128.7 629.4,140.6 631.1,142.3 630.9,141.7 632.2,142.7 629.5,137.4 624,120.7 
			"/>
	<polygon class="st1" points="737.5,178.2 739.4,177.2 738.8,177.2 740,176.3 734.8,177.2 719.2,177.2 713.4,159.2 713,157.1 
		712.9,157.7 712.4,156.3 711.6,161.5 706.5,177.2 690,177.2 684.8,176.3 686,177.2 685.4,177.2 687.3,178.2 702.6,189.3 
		697.8,204.1 695.3,208.8 696.5,207.9 696.4,208.5 697.9,206.9 712.4,196.4 726.9,206.9 728.4,208.5 728.3,207.9 729.5,208.8 
		727,204.1 722.2,189.3 	"/>
	<polygon class="st1" points="525.5,201.5 527.6,200.4 527,200.4 528.3,199.4 522.4,200.4 504.9,200.4 498.4,180.2 498,177.8 
		497.8,178.5 497.3,176.9 496.4,182.8 490.7,200.4 472.1,200.4 466.3,199.4 467.6,200.4 467,200.4 469.1,201.5 486.3,214 
		480.9,230.6 478.1,235.9 479.5,234.9 479.3,235.6 480.9,233.8 497.3,222 513.6,233.8 515.3,235.6 515.1,234.9 516.5,235.9 
		513.7,230.6 508.3,214 	"/>
	<polygon class="st1" points="644.3,347.9 646.7,346.8 646,346.8 647.5,345.7 641,346.8 621.5,346.8 614.2,324.3 613.8,321.7 
		613.6,322.4 613,320.7 612,327.2 605.7,346.8 585.1,346.8 578.6,345.7 580.1,346.8 579.4,346.8 581.7,347.9 600.8,361.8 
		594.8,380.3 591.8,386.1 593.2,385.1 593,385.8 594.9,383.9 613,370.7 631.2,383.9 633,385.8 632.8,385.1 634.3,386.1 631.3,380.3 
		625.3,361.8 	"/>
</g>
<path id="path1594" class="st2" d="M46.9,0l152.5,90.5L351.2,0H400v31l-150,89.5l150,89V240h-50l-150-89.5L50.6,240H0v-30l149.4-89
	L0,32V0H46.9z"/>
<path id="path1596" class="st3" d="M265,140.5L400,220v20l-169.4-99.5H265z M150,150.5l3.8,17.5l-120,72H0L150,150.5z M400,0v1.5
	l-155.6,94l1.2-22L368.8,0H400z M0,0l149.4,88h-37.5L0,21V0z"/>
<path id="path1598" class="st2" d="M150.6,0v240h100V0H150.6z M0,80v80h400V80H0z"/>
<path id="path1600" class="st3" d="M0,96.5v48h400v-48H0z M170.6,0v240h60V0H170.6z"/>
</svg>
