<?xml version="1.0" encoding="utf-8"?>
<!-- Generator: Adobe Illustrator 24.0.1, SVG Export Plug-In . SVG Version: 6.00 Build 0)  -->
<svg version="1.1" id="flag-icons-om" xmlns="http://www.w3.org/2000/svg" xmlns:xlink="http://www.w3.org/1999/xlink" x="0px"
	 y="0px" viewBox="0 0 800 480" style="enable-background:new 0 0 800 480;" xml:space="preserve">
<style type="text/css">
	.st0{fill:none;}
	.st1{fill-rule:evenodd;clip-rule:evenodd;fill:#EF2D29;}
	.st2{fill-rule:evenodd;clip-rule:evenodd;fill:#009025;}
	.st3{fill-rule:evenodd;clip-rule:evenodd;fill:#FFFFFF;}
	.st4{fill:#FFFFFF;}
</style>
<rect y="0" class="st0" width="800" height="480"/>
<path class="st1" d="M0,0h218.2L800,154.6v162.7L218.2,480H0V0z"/>
<path class="st2" d="M198.2,317.3H800V480H198.2V317.3z"/>
<path class="st3" d="M198.2,0H800v154.6H198.1L198.2,0z"/>
<path class="st4" d="M152.7,138c-3.2-2.6-7.5-6.1-11.7-10.6l-0.1-0.1l-1.4,0.4c-7.3-6-17-14.3-29-26c-2.5-2.5-4.8-4.8-7-7
	c0.2-0.9,0.4-1.8,0.5-2.8l0.1-0.1l-0.1-0.1c0,0,0,0,0,0l0.1-0.1l-0.1-0.1c0.1-1,0.2-2,0.2-3.1v-3.6c2-2.4,3.8-4.7,5.4-6.9h0.5v0.6
	c0,2.3,3,4.1,6.9,4.1c3,0,5.5-1.1,6.5-2.7h3.2V82c0,1.4,1.2,2.5,2.6,2.5h24.2c1.4,0,2.6-1.1,2.6-2.5V70.6c0-1.4-1.2-2.5-2.6-2.5
	h-24.2c-1.4,0-2.6,1.1-2.6,2.5v2.2h-2.9c-0.6-1.9-3.3-3.3-6.8-3.3c-0.1,0-0.2,0-0.3,0c14.9-25.7,25.1-47.9,23.9-51.8
	c-0.1-0.3-0.3-0.5-0.5-0.6c-3.4-1.6-20.3,23.1-34.6,47.8l-0.1,0.2l1,0.5c-0.7,1-1.4,2-2.3,3.2V54.9l0,0v-2l-0.2,0
	c-1.7,0-3.3-0.6-4.4-1.6c-0.6-0.6-1-1.4-1-2.1l0.2-0.3h-0.2v0l-0.8,0v-4H97v-8h-0.8V32h0.3v-3c0.5-0.1,0.9-0.3,1.3-0.5
	c0.9-0.3,1.7-0.7,2.4-1.2l0.2-0.1l-0.1-0.1c0.7-0.5,1.2-1.1,1.6-1.8c0.2,0,0.3,0,0.5,0c1.4,0,2.5-1,2.5-2.2c0-1.2-1.1-2.2-2.5-2.2
	c-0.1,0-0.1,0-0.2,0c-0.4-0.9-1-1.7-1.9-2.4l0.1-0.1l-0.2-0.1c-0.7-0.5-1.5-0.9-2.4-1.2c-0.7-0.4-1.3-0.6-2.1-0.7
	c0-1.2-1.1-2.1-2.5-2.1c-1.4,0-2.5,1-2.5,2.1c-0.8,0.1-1.4,0.3-2.1,0.7c-0.9,0.3-1.8,0.7-2.5,1.2L86,18.5l0.1,0.1
	c-0.9,0.7-1.5,1.5-1.9,2.4c-0.1,0-0.1,0-0.2,0c-1.4,0-2.5,1-2.5,2.2c0,1.2,1.1,2.2,2.5,2.2c0.2,0,0.4,0,0.5,0
	c0.4,0.7,0.9,1.3,1.6,1.8l-0.1,0.1l0.1,0.1c0.5,0.7,1.4,1.1,2.4,1.4c0.2,0.1,0.4,0.2,0.7,0.3v3h0.3V37h-0.8v8h-0.8v4l-0.6,0h-0.4
	l0.2,0.3C87,51,85,52.9,81.7,52.9h-0.2v14.6c0,0.5,0,1,0,1.5c-0.9-1.2-1.7-2.4-2.5-3.4l1-0.5l-0.1-0.2
	C65.6,40.2,48.7,15.5,45.3,17.1c-0.2,0.1-0.4,0.3-0.5,0.6c-1.2,3.8,8.9,25.7,23.5,51.1c-3.2,0.1-5.9,1.5-6.5,3.3h-3.1v-1.5
	c0-1.4-1.2-2.5-2.6-2.5H31.9c-1.4,0-2.6,1.1-2.6,2.5V82c0,1.4,1.2,2.5,2.6,2.5h24.2c1.4,0,2.6-1.1,2.6-2.5v-2.9h3.4
	c1,1.6,3.5,2.7,6.5,2.7c3,0,5.4-1.1,6.4-2.6c0.7,0.5,1.6,0.9,2.5,0.9c0,0,0,0,0,0c1.1,1.4,2.2,2.8,3.4,4.3c0,0.1,0,0.3,0,0.4
	l-0.2,0.3l0.2,0.1c-0.2,1.6-0.5,2.5-0.9,2.9h-3.7l0,0.2c0,0.1,0,0.2-0.1,0.3c-1.6,0.1-3.6,0.2-5.8,0.2l0,0l0,0c-0.4,0-0.8,0-1.2,0
	c-0.8,0-1.6,0.1-2.4,0.1l-0.1-0.2l-0.3,0.2c-0.8,0-1.7,0.1-2.5,0.1l-0.1-0.3l-0.6,0.3c-2.9,0.1-5.7,0.3-8.3,0.4l0-0.1l-0.1,0.1
	c-0.9,0.1-1.8,0.1-2.7,0.2l-0.1-0.3l-0.6,0.3c-0.5,0-0.9,0.1-1.4,0.1c0-0.1,0-0.1,0-0.2l0.1-0.3L45,90.1l0,0.1c0,0,0,0.1,0,0.1
	c-7.1,0.9-11.9,2.3-11.9,4.6c0,2.5,5,5,11.9,7.1c0,0.1,0,0.1,0,0.2l0,0.1l4.9,1.5l-0.1-0.3c0,0,0-0.1,0-0.1c2.1,0.5,4.3,1.1,6.6,1.5
	l0.1,0.1l0.1-0.1c0.6,0.1,1.3,0.3,1.9,0.4l0.2,0.3l0.4-0.2c2.3,0.5,4.6,0.9,6.9,1.2l0.2,0.3l0.4-0.2c0.9,0.1,1.8,0.3,2.6,0.4
	c-9.3,8.8-17.1,15.4-23.2,20.4l-1.4-0.4l-0.1,0.1c-4.1,4.6-8.5,8.1-11.7,10.6c-3.4,2.7-5.6,4.6-5.5,5.9c0,0.4,0.3,0.8,0.9,1.1
	c0.6,0.3,1.4,0.5,2.4,0.5c5.5,0,16.6-4.7,26.9-14.5l0.2-0.2l-0.3-0.1c7.4-6,15.8-13.5,24.7-22.2c1,0,2-0.1,3-0.1l0.1,0.1l0.1-0.1
	c1.5-0.1,2.9-0.3,4.3-0.6l0.1,0.1l0.1-0.1c2.5-0.6,4.7-1.4,6.5-2.6l0.1,0.1l0.2-0.2c0.6-0.4,1.2-0.8,1.8-1.3c0.5,0.5,1,1,1.5,1.5
	c10.2,10.2,19.8,18.9,28.2,25.7l-0.3,0.1l0.2,0.2c10.3,9.8,21.4,14.5,26.9,14.5c1,0,1.8-0.2,2.4-0.5c0.5-0.3,0.8-0.6,0.9-1.1
	C158.3,142.5,156,140.7,152.7,138z M65.8,77.8v-4.3c0-0.6-0.2-1.1-0.5-1.3c0.7-0.9,1.9-1.5,3.3-1.5c1.3,0,2.4,0.5,3.1,1.2
	c0.2,0.3,0.4,0.6,0.6,0.9c0,0,0,0,0,0h-0.4c-0.4,0-0.5,0.9-0.5,1.1v3.4c0,0.2,0,1.1,0.5,1.1h0c-0.7,0.9-1.9,1.5-3.3,1.5
	c-1.2,0-2.3-0.5-3-1.2C65.8,78.6,65.8,78.2,65.8,77.8z M119.8,74.2v4.3c0,0.4,0.1,0.8,0.2,1c-0.7,0.7-1.8,1.1-3,1.1
	c-2.1,0-3.8-1.3-3.8-2.9v0c0.2-0.2,0.3-0.4,0.3-0.7v-2.6c0-0.3-0.1-0.5-0.2-0.7c0.3-1.3,1.9-2.4,3.8-2.4c1.4,0,2.7,0.6,3.3,1.5
	C120,73,119.8,73.6,119.8,74.2z M115.2,69.7C115.2,69.6,115.2,69.6,115.2,69.7l0.2,0C115.3,69.6,115.3,69.6,115.2,69.7z"/>
</svg>
