<?xml version="1.0" encoding="utf-8"?>
<!-- Generator: Adobe Illustrator 24.0.1, SVG Export Plug-In . SVG Version: 6.00 Build 0)  -->
<svg version="1.1" id="flag-icons-pg" xmlns="http://www.w3.org/2000/svg" xmlns:xlink="http://www.w3.org/1999/xlink" x="0px"
	 y="0px" viewBox="0 0 800 480" style="enable-background:new 0 0 800 480;" xml:space="preserve">
<style type="text/css">
	.st0{fill-rule:evenodd;clip-rule:evenodd;}
	.st1{fill-rule:evenodd;clip-rule:evenodd;fill:#FF0000;}
	.st2{fill-rule:evenodd;clip-rule:evenodd;fill:#FF0000;stroke:#FF0000;stroke-width:1.5631;}
	.st3{fill:#FFCC00;stroke:#FFCC00;stroke-width:1.1;}
	.st4{fill-rule:evenodd;clip-rule:evenodd;fill:#FFFFFF;}
</style>
<path class="st0" d="M0,0v480h800L0,0z"/>
<path class="st1" d="M800,480V0H0L800,480z"/>
<path class="st2" d="M599.4,155.7c1.4,2,17.2,8,28.8,13.3C625.1,158.8,602.1,156.6,599.4,155.7z"/>
<path class="st3" d="M503,119.4l-8.4-0.4c-2.7-6.2-10-8.4-14.7-5.8c-8.6,0-17.2-0.1-25.8-0.4l15.8,6.9c4.2,10.8,17.5,13.1,17.5,13.1
	c-1.3,19.5-19.8-2.4-35.3,8.6C441,148,441,155.7,435,168.5c-2,3.5-9.8,12.8-9.8,12.8l13.1-1.1l-4.2,5.5l15.5-2.2l-3.3,3.1
	c2.2,0.4,17.8-3.8,17.8-3.8L463,188l17.8-6.4c0,0,3.6,2.9,6.7,4.2l2.2-8.8l8.9,2.2l2.2-8.8c13.3,17.7,17.8,35.4,42.2,39.8l-2.2-8.8
	c6.5,2.8,12.9,5.8,19.3,8.8l2-3.8c10.7,7.5,19.3,7.3,25.3,8.2l-4.4-11.1l4.4,2.2l-6.7-17.7l6.7,2.2l-8.9-13.3l3.3-2.2l-1.1-6.6
	c13.3,4.4,31.1,11.1,33.3,26.5c2.2,24.3-24.4,31-42.2,28.8c13.3,11.1,37.7,6.6,48.8-4.4c4.4-4.4,6.7-11.1,8.9-17.7
	c2.2,6.6,6.7,15.5,6.7,24.3c-2.2,19.9-28.9,26.5-46.6,28.8c20,11.1,55.5-2.2,57.7-31c0-24.3-15.5-35.4-22.2-46.5l-2.2-11.9l6.7,3.1
	c0,0-4-7.3-4.4-8.8c0,0-6.9-18.8-9.3-23l4.9,0.9l-18.2-22.8l5.1-0.4c0,0-21.1-16.6-26.9-18.8l6.7-2.2c-13.3-6.6-28.9-2.2-42.2,6.6
	l2.2-6.6l-4,0.4v-7.7l4-6l-6.7-2.2l4.4-11.1l-6.7,2.2l2.2-11.1c0,0-4.9,2.2-8,2c1.3-2.5,2.5-5,3.6-7.5c-2.2-3.3,0-10,0-10
	c-15.5,2.2-17.8,4.4-26.6,17.7C496.3,84.1,500.8,95.1,503,119.4z"/>
<path class="st4" d="M215.6,399l-14.2-9l-19,9.1l4.3-16.2l-14.5-15.1l16.7-1l10-18.4l6.1,15.5l20.7,3.8l-13,10.6L215.6,399z
	 M251.8,320l-6.6-3l-6.3,3.6l1-7.2l-5.4-4.9l7.1-1.3l3-6.6l3.5,6.4l7.2,0.8l-5,5.2L251.8,320z M283.8,274.8l-14.5-7l-13.9,7.8
	l2.3-15.7l-11.8-10.8l15.7-2.8l6.6-14.4l7.6,14l15.8,1.8l-11,11.5L283.8,274.8z M218,211.8l-17-8.5l-16.5,9.1l2.8-18.6l-13.8-13
	l18.7-3l8-17l8.7,16.7l18.8,2.3l-13.3,13.4L218,211.8z M157.2,277.2l-17-10l-17,10.3l4.3-19.3l-15.1-13l19.7-1.8l7.7-18.3l7.9,18.2
	l19.8,1.6l-14.9,13L157.2,277.2z"/>
</svg>
