<?xml version="1.0" encoding="utf-8"?>
<!-- Generator: Adobe Illustrator 24.0.1, SVG Export Plug-In . SVG Version: 6.00 Build 0)  -->
<svg version="1.1" id="flag-icons-ph" xmlns="http://www.w3.org/2000/svg" xmlns:xlink="http://www.w3.org/1999/xlink" x="0px"
	 y="0px" viewBox="0 0 800 480" style="enable-background:new 0 0 800 480;" xml:space="preserve">
<style type="text/css">
	.st0{fill:#0038A8;}
	.st1{fill:#CE1126;}
	.st2{fill:#FFFFFF;}
	.st3{fill:#FCD116;}
</style>
<path class="st0" d="M0,0h800v240H0V0z"/>
<path class="st1" d="M0,240h800v240H0V240z"/>
<path class="st2" d="M519.6,240L0,480V0"/>
<polygon class="st3" points="38.5,73.4 42.8,91.9 50.9,74.7 69.9,76.3 55.9,63.3 63.3,45.8 46.7,55 32.4,42.4 36,61 19.7,71 "/>
<polygon class="st3" points="50.9,405.3 42.9,388.1 38.6,406.6 19.7,409 36,418.8 32.4,437.5 46.8,425.1 63.4,434.2 56,416.7 
	69.9,403.7 "/>
<polygon class="st3" points="430.9,233.7 430.5,214.7 419,229.9 400.8,224.4 411.6,240 400.8,255.6 419,250.1 430.5,265.2 
	430.9,246.2 448.9,240 "/>
<path class="st3" d="M233.1,236.8l-0.3-3l42.9-5.7l-5-5l-38.4,7.5c-1.2-6.1-3.6-12-7.1-17.2l32.5-21.7v-7.1l-34.3,26.3
	c-0.6-0.8-1.3-1.6-2-2.4l35.4-31v-8.9H248l-31,35.5c-0.8-0.7-1.6-1.4-2.5-2l26.4-34.3h-7.2L212,200.2c-5.1-3.4-11-5.9-17.2-7.1
	l7.6-38.3l-5-5l-5.7,42.8l-3.1-0.3l3-47l-6.2-6.2l-6.2,6.2l3.1,47l-3,0.3l-5.7-42.9l-5.1,5l7.6,38.4c-6.1,1.2-12,3.6-17.2,7.1
	l-21.7-32.4H130l26.4,34.3c-0.8,0.6-1.6,1.3-2.4,2l-31.1-35.5h-8.8v8.8l35.4,31l-2,2.5l-34.3-26.3v7.1l32.5,21.7
	c-3.4,5.2-5.9,11-7.1,17.2l-38.3-7.6l-5.1,5l42.9,5.7c-0.2,1-0.3,2.1-0.3,3.1l-47-3l-6.2,6.2l6.2,6.2l47-3.1l0.3,3.1l-42.9,5.7l5,5
	l38.4-7.6c1.2,6.1,3.6,12,7.1,17.2l-32.5,21.7v7.2l34.3-26.3c0.6,0.8,1.3,1.6,2,2.4l-35.4,31v8.8h8.9l31-35.4l2.5,2L130,312.2h7.2
	l21.7-32.5c5.1,3.4,11,5.9,17.2,7.1l-7.6,38.4l5,5l5.7-42.9c1,0.2,2,0.3,3.1,0.3l-3,47l6.1,6.2l6.3-6.2l-3.1-47l3-0.3l5.7,43
	l5.1-5.1l-7.6-38.4c6.1-1.2,12-3.6,17.2-7.1l21.7,32.5h7.2l-26.4-34.3c0.8-0.6,1.6-1.3,2.4-2l31.1,35.4h8.8v-8.8l-35.4-31l2-2.4
	l34.3,26.3v-7.2l-32.5-21.7c3.4-5.1,5.9-11,7.1-17.2l38.3,7.6l5.1-5l-42.9-5.7c0.2-1,0.3-2,0.3-3.1l47,3l6.2-6.1l-6.2-6.2
	L233.1,236.8z"/>
</svg>
