<?xml version="1.0" encoding="utf-8"?>
<!-- Generator: Adobe Illustrator 24.0.1, SVG Export Plug-In . SVG Version: 6.00 Build 0)  -->
<svg version="1.1" id="flag-icons-pk" xmlns="http://www.w3.org/2000/svg" xmlns:xlink="http://www.w3.org/1999/xlink" x="0px"
	 y="0px" viewBox="0 0 800 480" style="enable-background:new 0 0 800 480;" xml:space="preserve">
<style type="text/css">
	.st0{fill-rule:evenodd;clip-rule:evenodd;fill:#0C590B;}
	.st1{fill-rule:evenodd;clip-rule:evenodd;fill:#FFFFFF;}
</style>
<path class="st0" d="M200.4,0H800v480H200.4L86,206.9L200.4,0z"/>
<path class="st1" d="M-0.1,0h200.6v480H-0.1V0z"/>
<g>
	<path class="st1" d="M642.6,194.2l-39.3-8.3l-20.7,34.4l-4.2-39.8l-39-9l36.5-16.3l-3.4-39.9l26.9,29.7l36.9-15.6l-20,34.8
		l26.5,30.3L642.6,194.2z"/>
	<path class="st1" d="M657.4,295.8C622.3,372.4,531.7,406.1,455,371c-0.3-0.1-0.6-0.3-0.8-0.4c-77-35.7-110.6-127.1-74.9-204.1
		c17.2-38.5,49.9-67.9,89.9-81c-5.2,4.3-10.1,8.9-14.8,13.7c-52.3,57.9-47.8,147.4,10.1,199.7C519.7,348.7,604,347.4,657.4,295.8
		L657.4,295.8z"/>
</g>
</svg>
