<?xml version="1.0" encoding="utf-8"?>
<!-- Generator: Adobe Illustrator 24.0.1, SVG Export Plug-In . SVG Version: 6.00 Build 0)  -->
<svg version="1.1" id="flag-icons-pn" xmlns="http://www.w3.org/2000/svg" xmlns:xlink="http://www.w3.org/1999/xlink" x="0px"
	 y="0px" viewBox="0 0 800 480" style="enable-background:new 0 0 800 480;" xml:space="preserve">
<style type="text/css">
	.st0{fill:#00247D;}
	.st1{fill:#FFFFFF;}
	.st2{fill:#C8102E;}
	.st3{fill:#F7E017;stroke:#000000;stroke-width:0.4069;}
	.st4{fill:#337321;stroke:#000000;stroke-width:0.4069;}
	.st5{fill:#316D3A;stroke:#000000;stroke-width:0.4069;}
	.st6{fill:none;stroke:#000000;stroke-width:0.4069;}
	.st7{fill:#006EC7;stroke:#000000;stroke-width:0.4069;}
	.st8{fill:#F7E017;}
	.st9{fill:#FFFFFF;stroke:#000000;stroke-width:0.4069;}
	.st10{fill:#E5E5E5;stroke:#000000;stroke-width:0.4069;}
	.st11{fill:#96877D;stroke:#000000;stroke-width:0.4069;}
	.st12{fill:#C8102E;stroke:#000000;stroke-width:0.4069;}
</style>
<path id="path555" class="st0" d="M0,0h800v480H0V0z"/>
<path id="path798" class="st1" d="M46.9,0l152.5,90.5L351.2,0H400v31l-150,89.5l150,89V240h-50l-150-89.5L50.6,240H0v-30l149.4-89
	L0,32V0H46.9z"/>
<path id="path800" class="st2" d="M265,140.5L400,220v20l-169.4-99.5H265z M150,150.5l3.8,17.5l-120,72H0L150,150.5z M400,0v1.5
	l-155.6,94l1.2-22L368.8,0H400z M0,0l149.4,88h-37.5L0,21V0z"/>
<path id="path802" class="st1" d="M150.6,0v240h100V0H150.6z M0,80v80h400V80H0z"/>
<path id="path804" class="st2" d="M0,96.5v48h400v-48H0z M170.6,0v240h60V0H170.6z"/>
<g>
	<path id="path1184_1_" class="st3" d="M529.5,252.3c-9,7.1-15.6,16.8-19,27.8c-5.7,27.3-13.3,33.4-25,27.5
		c0,14.7,12.9,15.8,18.5,7.3c0,13.7,5,25.6,16.2,35.8c4.8,4.3,5.7,1.4,3.4-3.4c-2.2-4.7-2.2-20-6.7-28.8c7.2,5.1,17.8,2.2,17-12
		c-9.3,5.4-18.5,5.2-19.5-7.7C513.3,283.8,519.1,261.8,529.5,252.3L529.5,252.3z"/>
	<path id="path1186_1_" class="st3" d="M518.5,143.7c0.7-5.5-0.5-11-4.5-14.5c-7.6-6.7-15.1-4.5-20.7,1c-8.3-4.6-12.8,11.4-22.2,8.7
		c1.5,5.2,4,7.4,8.8,5.6c-5,4.5,0,10-5.9,15.4c10.6,3.4,16.2-2.5,15.8-12.7c3.9,3.6,10,3.3,13.6-0.6c0,0,0.1-0.1,0.1-0.1
		c-5.6-1.8-5.6-6.7-3.4-11.2C503.5,128.5,519.4,128.8,518.5,143.7L518.5,143.7z"/>
	<path id="path1188_1_" class="st4" d="M543,222.1c-12,6.4-33.8,3.7-35.9-12c-2-15.5,13.1-22.5,17.2-24.5c6.3-3.2,11.3,2.5,9.2,9
		c7-2.4,8.6-10.6,5.2-15.3c9.3,0.7,17.8-6.3,21.4-16.2c-3.2,3-12,1-19.3,0.5c2.2-2.5,2.2-7.3,1.5-9.8c-7.6,7.9-18.7,4.3-33.3,27
		c3.4-12.3,6.6-24.7,9.6-37.1c0.8-15-15-15.2-18.4-8.4c3.7,4.2,1.7,9,0.4,16.5c-1.6,8.7-5,29-7.9,35.8c-0.9-10.6-7.9-11.3-9.2-16.5
		c-2,1.4-3.2,5-2.7,7.5c-2.5-2.7-11.1,0.7-14.3-3.4c-3.3,6.7,2,13.5,7.7,16.5c-3.3,0.2-4,4.1-7.7,4.1c4.9,5.7,9.9,8,15.6,8.4
		c5.8,0.4,10,2.6,13.5,9.6C501.3,225.1,522.8,232.4,543,222.1L543,222.1z"/>
	<path id="path1190_1_" class="st3" d="M572.8,208.4c-6.8,18.7-25.3,32-33.6,34c-14.2,3.5-43.2,17.6-51,24.8
		c-1.1-0.2-2.2-0.7-3.2-1.3c-3.8-2.7-7-11.5-0.2-19c21.2-19.8,44-11.2,58.2-24.8c-12,6.3-33.8,3.6-35.8-12
		c19.8,5.1,40.7-1.1,54.5-16.2C565.8,198.4,569.5,203.2,572.8,208.4L572.8,208.4z"/>
	<path id="path1192_1_" class="st4" d="M529.5,252.3c-10.7,9-16.2,31.4-15.1,46.5c0.3,4.2,1.5,7,3.3,8.8c0.8-8.6,6.7-30.7,22-40.6
		c12.8-8.3,32.9-27,40.3-48.5c-1.4-3.9-4.2-7.2-7.9-9.2C564.7,229.5,545,239.2,529.5,252.3L529.5,252.3z"/>
	<path id="path1194_1_" class="st5" d="M565.9,199.7c-5.3,7.4-12.5,13.2-20.9,16.8c1.6-1.9,2.5-4.3,2.5-6.8
		c-13.2,3.8-27.1,3.9-40.4,0.5c19.8,5.2,40.8-1.1,54.6-16.2C563.4,195.6,564.8,197.6,565.9,199.7L565.9,199.7z"/>
	<path id="path1196_1_" class="st4" d="M484.8,247c-17.2,16-5.8,30.2,1,33.3c-1.9,11.3,8.7,10,8.5,19.4c4.3-2.4,5.4-9,4.7-14.2
		c5.5,5.9,19.2-0.7,22.1,10.2c1.9-12-7.4-24-18.9-22.8c4.8-4.3,2-11.3-2.5-13.1c-0.9,8.8-10.8,8.8-14.6,6c-3.9-2.6-7-11.4-0.3-18.9
		L484.8,247z"/>
	<path id="path1198_1_" class="st3" d="M522.1,349.6c-1.8,1-1.7,3.5-0.5,5c2.3,3.2-1.7,10.4,6,11.9c2.2,0.5,4-1,4.8-3.5
		c2.4-7.1-5.2-7.9-5.9-11.3C525.9,348.3,523.7,348.7,522.1,349.6z"/>
	<path id="path1200_1_" class="st3" d="M528.6,362.9c-2.5,1.2-4.8,2.8-3.7,11c0.4,3.3,0.2,11.4-2.8,11.5c1.8,1,5.7,2,7.3-0.2
		c1.5,2.6,5,1.8,6.3-1.3c1.8,1.4,4.3-1,4.3-3.2c1.5,1,4.7-0.4,3.9-5.3c2,0.7,4.4-0.7,5.3-1.9c-2.8-0.6-10-4.4-11.6-7.4
		C535.9,363,531.6,361.5,528.6,362.9L528.6,362.9z"/>
	<path id="path1202_1_" class="st6" d="M489.4,134.7c1.2-1.6,2.5-3.2,4-4.6"/>
	<path id="path1204_1_" class="st6" d="M532.4,164.6c2-1.1,5-1.3,8.4-1"/>
	<path id="path1206_1_" class="st6" d="M529.4,385.2c-0.8-1.1-1.1-5.8-0.6-8.7"/>
	<path id="path1208_1_" class="st6" d="M535.7,383.9c-1.3-1-3.6-4.3-4-7.1"/>
	<path id="path1210_1_" class="st6" d="M540,380.7c-2.9-2.3-5.1-5.4-6.3-8.9"/>
	<path id="path1212_1_" class="st6" d="M543.9,375.4c-1.9-0.4-7.6-4.1-10-8"/>
	<path id="path1216_1_" class="st3" d="M647.9,247.2c27.7,23.2,29.5,41.7,25.3,52.5c-2.3-10.1-13.8-25.9-25.8-30L647.9,247.2z"/>
	<path id="path1218_1_" class="st4" d="M598.3,234h51.4v61c0,51.9-28.8,82.5-58.2,98.8c-36.6-19.1-59.2-57.5-58.1-98.8v-61h36
		c0,3.2,0.4,8,4,12.7C582,245.9,591.6,239.5,598.3,234L598.3,234z"/>
	<path id="path1220_1_" class="st7" d="M649.7,234v61c0,15.6-2.6,29.4-7,41.3l-51.3-93.7l-51,93.7c-4.5-12-7.1-25.7-7.1-41.3v-61
		H649.7z"/>
	<path id="path1222_1_" class="st8" d="M644.2,331.9c-1.1,3.4-2.4,6.7-3.8,10l-49-90.9l-48.7,91c-1.3-2.8-2.9-7.3-3.8-10l52.7-97.6
		L644.2,331.9z"/>
	<path id="path1224_1_" class="st3" d="M614.7,365.3l5,2.3c2.6-6.3,3.3-13.1,2.2-19.8c-2.9,7.4-12.8,7.2-15.5,11.7
		c1.6,0.8,3.2,2,4.5,2.9c-3.4,3.4-11.3,9-15.8,10.4v-48.4c0-3.4-1.2-6.2-1.2-9v-10c0-2.3-0.4-5.6-2.4-5.6s-2.5,3.3-2.5,5.6v10
		c0,2.8-1.1,6-1.1,9v48.4c-2.5-7.2-12.2-4.8-16.7-12c1.8-0.4,3.6-0.5,5.4-0.2c-3.4-11.5-12.7-12.4-14.4-15.8c0,4.8-2,15.8,1.1,20.6
		c0.7-0.9,1.8-1.8,3-2.5c3.9,8.3,21.1,8.3,25.2,22.1C594.8,380,606.5,374,614.7,365.3L614.7,365.3z"/>
	<path id="path1226_1_" class="st3" d="M591.5,325c3.8,0,16-1.2,20.4-1.2c1.2,0,2.1-1.8,2.1-3.9c0-2-0.9-3.8-2-3.8
		c-4.5,0-16.6-1.2-20.5-1.2c-3.8,0-16,1.2-20.4,1.2c-1.2,0-2.1,1.7-2.1,3.8c0,2.1,1,3.9,2,3.9C575.5,323.8,587.7,325,591.5,325z"/>
	<path id="path1228_1_" class="st3" d="M589,305.2c-0.8-0.7-1.8-1-3-1c-2.6,0-4.7,1.8-4.7,4.1c0,2.4,2.1,4.3,4.7,4.3
		c2.5,0,4.6-2,4.6-4.3c0-1.8,2.6-1.8,2.6,0c0,3.7-3.2,6.7-7.2,6.7s-7.3-3-7.3-6.7c0-3.6,3.3-6.6,7.3-6.6c1.1,0,2.3,0.3,3.3,0.8
		C589.3,303.1,589,304.2,589,305.2z"/>
	<path id="path1230_1_" class="st3" d="M571.1,323.8c1.1,0,2-1.8,2-3.9c0-2-0.9-3.8-2-3.8"/>
	<path id="path1232_1_" class="st3" d="M572.8,323.8c1.1,0,2-1.8,2-3.9c0-2-0.9-3.8-2-3.8"/>
	<path id="path1234_1_" class="st3" d="M583.9,324.5c1.4,0,2.5-2,2.5-4.6c0-2.5-1-4.6-2.5-4.6"/>
	<path id="path1236_1_" class="st3" d="M586.5,324.7c1.5,0,2.6-2.1,2.6-4.8c0-2.7-1.1-4.8-2.6-4.8"/>
	<path id="path1238_1_" class="st3" d="M595.2,324.8c1.5,0,2.6-2.2,2.6-4.9s-1.2-4.9-2.6-4.9"/>
	<path id="path1240_1_" class="st3" d="M597.9,324.6c1.4,0,2.6-2,2.6-4.7c0-2.6-1.2-4.7-2.6-4.7"/>
	<path id="path1242_1_" class="st3" d="M610,323.8c1.2,0,2.1-1.7,2.1-3.9s-0.9-4-2-4"/>
	<path id="path1244_1_" class="st3" d="M566.4,362.9c1.3-0.9,3-1.6,4.8-2"/>
	<path id="path1246_1_" class="st3" d="M612.3,363.3l-1.4-1"/>
	<path id="path1248_1_" class="st3" d="M614.7,365.3c3.2-3.4,5.8-7.3,7.3-11.7"/>
	<path id="path1250_1_" class="st9" d="M581.2,277.2c0-1.2,0.9-1.6,2-2.4c1.2-1,1.7-1.4,2.9-1.4h14.8c1,0,1.3,0.3,1.3,1.3v20
		c0,1-0.2,1.4-1.3,1.4h-19.7v-19.2"/>
	<path id="path1252_1_" class="st10" d="M597.2,297.8c2,0,1.6,0,3-1.4c1.4-1.4,1.3-1.3,1.3-2.6v-18.4c0-1-0.3-1.2-1.3-1.2h-13.7
		c-1,0-1.5,0.4-2.7,1.3c-1,0.8-1.8,1.2-1.8,2.2v20.1H597.2z"/>
	<path id="path1254_1_" class="st9" d="M598.7,297.4c0,1-0.3,1.3-1.4,1.3h-14.8c-1.1,0-1.3-0.3-1.3-1.3v-20.1c0-1,0.2-1.3,1.3-1.3
		h14.8c1.1,0,1.4,0.3,1.4,1.3V297.4z"/>
	<path id="path1256_1_" class="st11" d="M627.4,222.3c2.8,3.2,3.8,7.5,2.2,11.8h-4.2c1.8-5.5,0.7-10.6-7-11.3
		c-11.4-1-24.8,21.2-44.9,23.9c-5.8-7-5.5-20.3,2-26.6c-3.9-10.7-9.9-20.4-17.7-28.6c-3.5-0.6-7.1-0.8-10.7-0.7
		c3-6.4,11.3-13,18.1-15.7c1.1-1.5,2.2-3,3.4-4.5c0.7-8.7,42-4.7,50.7,0.7C619.3,181.1,623.2,213.5,627.4,222.3L627.4,222.3z"/>
	<path id="path1258_1_" d="M577.4,228.2c-1-15-7.1-27.4-15.7-35.8c6.2,1.5,12.6,0.4,18-3c7.5-5,27-13.6,34-9.9c0.6,1.3,1,4,0.5,5.9
		c-1.7-4.5-20.4,2.4-25.7,4.6c-5,2.3-7.3,5.5-5.5,12.6c-3-2.5-2-4.8-5-6.6c1.2,2.9,2.2,8.2,2.6,12.5c-1.2-3-3.2-9.6-7.6-13.5
		c4.6,11,6.6,22.9,5.6,34.8c3,0,9.8-3,12.4-5c-2.3,3.3-9.2,5.7-13.5,6.6c-2.2,3.5-3.3,7.6-3.3,11.8c-0.3-4.2,1-14.3,3.1-15
		L577.4,228.2z"/>
	<path id="path1260_1_" d="M627.4,222.3c-3.8-4.2-10.7-6.4-19.6-4c2.2-1.1,4.4-1.8,6.8-2.3c-0.3-2.3-2.4-12.5-2.8-15l2.5-1
		c1.3,6.1,2.8,13.1,3.8,16c0.8,0.1,2.6,0.5,4.2,1.3c-0.7-2.4-4.5-19.4-4.4-21.2l3.4-1.8c1,9.5,3,18.9,6,28H627.4z"/>
	<path id="path1264_1_" class="st11" d="M625.4,234c1.7-5.3,0.6-10.5-7-11.2c-6-0.5-12.4,5.3-20,11.3L625.4,234z"/>
	<path id="path1266_1_" class="st11" d="M575.5,185.5c-5,0.3-10-0.2-14.8-1.5c0.2-1,0.6-2,1.1-3.2c-3.1,1.9-5.9,4.2-8.5,6.8
		C558.7,188.8,569.9,189.3,575.5,185.5L575.5,185.5z"/>
	<path id="path1268_1_" class="st6" d="M575.4,220c1.2,3.7,2,7.2,2.1,10.3"/>
	<path id="path1270_1_" class="st6" d="M565.1,175.1c-2,3-3.8,6.2-4.4,9c4.8,1.2,9.8,1.7,14.8,1.4"/>
	<path id="path1272_1_" class="st6" d="M557.8,191.5c1.4,0.3,2.8,0.5,4,0.9c4,1.1,12.3,1.1,18-3c5.6-4,21-16.7,38.3-18"/>
	<path id="path1274_1_" class="st6" d="M553.3,187.6c5.4,1.2,16.6,1.7,22.2-2.1c11.2-8.4,24.5-13.5,38.4-14.8"/>
	<path id="path1276_1_" class="st4" d="M647.9,247.2c19,13,33,25.7,37,46s11.7,25.7,21.2,20.3c-2.2,11.7-14,13-23.9,4
		c1,13.6-4.5,29.8-18.5,35.7c-0.9-8.1,4.5-14.6,3-21.2c-0.7-3-1-9.7,2.9-12.9c-7.5,2.5-19.2-2.2-20.3-13.3c8.6,4,19.6,4.7,23.9-6.1
		C677.4,288.9,675.6,270.4,647.9,247.2L647.9,247.2z"/>
	<path id="path1278_1_" class="st4" d="M671.8,141.6c5.9-15.3,21.2-13.7,26.4-7.2c15.1-8.6,17.2,10.8,30,7c-0.2,3.6-4.5,7-9.2,6.7
		c5,4.5-2,11.3,8.5,15.4c-9,4.5-21.6-0.2-25-12.7c-3,5.9-13.5,5.9-17.8,1.2c9.2-2.5,8.6-11,3.4-14.5
		C682.8,134.1,673.6,135.5,671.8,141.6L671.8,141.6z"/>
	<path id="path1280_1_" class="st4" d="M626.1,175.4c4.3,13.3,12,25.3,22.3,34.8c10.8,10,27.1,7.4,36.3-2
		c0.2,18.8-19.4,20.3-30.2,14.4c-4.8-2.6-8.7-1.3-4.1,3c7,6.2,22.3,11,40.4,14.8c31.5,6.8,20.3,31.8,11,31.6c2.7,0,4.9-2.9,1-6.3
		c-27.4-24.7-83-15-82.2-70c-5.8,14.5-30,8.8-18.7-8.3c3.6,2.9,10,3.1,11.7-1.4c1.4-3.5,0.5-9.6-5.8-14.9c1,0,3.3,0,3-2.6
		c0.3,1.6,1.7,3.8,5.3,3c1,1.7,2,2.7,3.5,2.1c0.3,0,1.1-0.5,0.8-2.1C620.6,174.5,624.2,175.6,626.1,175.4L626.1,175.4z"/>
	<path id="path1282_1_" class="st3" d="M654.4,222.6c13.1,8.5,28,8.5,41.5-7.2c4.3-5,11-9.3,15.8-9.7c4.8-0.5,4.5-5,8.1-6
		c-2.2-0.6-3.1-3.3-6.5-3c8.5-2.9,6-9.7,10.1-13c-3.4,1.3-8.6-3.7-13.5,2.7c1.3-3-0.5-6.4-1.7-7.8c0.5,3.4-6.6,4-8,12.6
		c-0.7,4.8-3.4,4.6-3.8-2.9c-0.3-5.4-3-20.5-6-28.2c-3.2-7.6-4-18.2,0.3-19.7c-0.6-1.1-1.5-2.1-2.6-2.8c-5.3-3.4-14.5-2-16.3,4
		c-5.8,15.4,10.6,24.2,9.3,40.9c-2.5-12.4-22.6-15.6-22.4-27.8c-6.5,3-5.6,8.4-3.1,12.7c-4-6.3-13.3,4-21.2-4.5
		c-1,11.3,9,15.5,17.1,16c-4,7.2,1.4,13.3,6.8,15.3c0.2-12.6,26.1-7.5,26.4,14.2C684.9,226.9,665,228.4,654.4,222.6L654.4,222.6z"/>
	<path id="path1284_1_" class="st3" d="M690.8,240.4c31.5,6.8,20.3,31.8,11,31.6c-5.9-0.2-11.5-5.1-11.8-9.4
		c-6.8,3.6-5,10.7,0.2,13.5c-14.2-1.6-20.2,7.7-20.5,18c2.6-4.8,10.4-5,13.4-4s10.5,1.5,13.5-2c-2.5,2.2,1.6,7.2-2,11
		c12-0.4,17.1-11.5,15-16.3C725,268.8,722.1,246,690.8,240.4L690.8,240.4z"/>
	<path id="path1286_1_" class="st3" d="M666.7,347.6c2,1.2,1.8,4,0.4,5.7c-2.8,3.4,1.4,11.5-7.2,13c-2.5,0.3-4.4-1.3-5.2-4.2
		c-2.4-8,6.1-8.6,7-12.3C662.7,346,665,346.5,666.7,347.6z"/>
	<path id="path1288_1_" class="st3" d="M659,362.1c2.7,1.4,5.1,3.4,3.7,12.4c-0.7,3.7-0.8,12.8,2.5,13c-2,1-6.4,1.9-8-0.5
		c-1.9,2.8-5.7,1.8-7-1.8c-2.2,1.6-4.8-1.3-4.7-3.7c-1.8,1-5.3-0.7-4.2-6c-2.2,0.6-4.9-1-5.8-2.4c3.1-0.6,11.2-4.5,13.3-7.8
		C650.8,361.9,655.8,360.5,659,362.1z"/>
	<path id="path1290_1_" class="st6" d="M657.1,387c1-1.2,1.5-6.5,1-9.7"/>
	<path id="path1292_1_" class="st6" d="M650.1,385.2c1.5-1,4.2-4.5,4.8-7.7"/>
	<path id="path1294_1_" class="st6" d="M645.4,381.5c3.3-2.5,5.9-5.8,7.4-9.7"/>
	<path id="path1296_1_" class="st6" d="M641.3,375.5c2-0.4,8.6-4.3,11.4-8.6"/>
	<path id="path1298_1_" class="st3" d="M620.6,195.8c-0.4,23,9.2,34.8,22.6,42.4c-5-3-2.8-13.1-9.5-16.4c1.6-0.1,4,2.1,8,1.2
		c-2-4.2-5-10.8-12.4-11.7c2-0.2,6,0.5,8.8-0.5C634.3,204.8,624.1,207.7,620.6,195.8L620.6,195.8z"/>
	<path id="path1300_1_" class="st3" d="M618.2,173.8c-0.8-0.3-1.5-1.1-2.1-2.2c-3.6,0.8-5-1.5-5.3-3c0.3,2.6-2,2.5-3,2.6
		c6.3,5.2,7.2,11.3,5.8,14.8c-1.8,4.5-8,4.3-11.7,1.4c-0.5,9.6,12,12.7,16.5,0.7c0,2,2.6,1.8,3.2,4.5
		C624.8,187.4,622.4,179.9,618.2,173.8z"/>
	<path id="path1302_1_" class="st4" d="M598.4,128c-5.1-5-7.9-11.8-8-18.9c0.2-5,2.2-10.3,9.5-8c-2.3,0-0.7,4.4-3,4.9
		c1.8,0.7,4.4-0.9,4.8-2c0.4,1.6,3.4,1.2,3.6,3c1.1-0.9-0.1-5.3-1.8-6.2c1.2-0.7,2-4.2,1.4-5.9c-1.2,0.2-2.9,1.8-3.2,4.1
		c0.6-1.8-0.1-6.3-3.3-7c-0.9,1.2-1.1,4.3,0.1,6c-2.9-0.7-7.2,1.2-8.2,3.7c0.2-3,0.6-7.3,2.5-10c0.6-0.8-1-2.4-2.1-0.3
		c-2.2-4.3-8-6.5-10.7-4.4c-2.6,2.2-6-1-8.2,2.4c-2.1,3.4-9.4,3.7-9,7.3c0.2,2.2-0.3,5.5-1.4,6.7c-2.6,2.9,1.3,5,2,7.6
		c-0.5-8.5,13.1-25.2,26.8-18.7c-1.7,3.6-2.6,7.6-2.7,11.6c-0.6,7.7,0.6,18.5,8,24.9L598.4,128z"/>
	<path id="path1304_1_" class="st12" d="M602.4,101.1c0-2,3.5-4.7,8.2-4.6c5.7,0,10,5.2,14.6,4.7c4.6-0.5,2.4,2,1.4,2.8
		c-1,0.6-1.5,1.6-1.2,2.9c0.3,1.2-0.2,2-2,0.9c-4.1-2.6-8.2,1-13.6-1C605.3,105.1,602.6,104.1,602.4,101.1z"/>
	<path id="path1306_1_" class="st11" d="M579.2,154.4c-3-7.1-8.3-13-15-16.7l-0.2-3.8c3.7-2.1,7.1-4.6,10.1-7.6
		c17,8,40-3.4,50.6-15.3l4,2.4l-2,2.7l-2.1-1.1c-4.7,5.1-9.8,9.9-15.2,14.2c3.9,1,9.3,1.7,10.8,1.6c9.4-6.8,16.9-12.9,20.5-13.3l3,4
		l-2.7,2l-2.1-1.3c-11.4,10.9-20.4,24.1-26.2,38.8C606.4,159.6,583.8,160.5,579.2,154.4L579.2,154.4z"/>
	<path id="path1308_1_" class="st6" d="M609.4,129.2c-1.5-0.4-2.8-0.8-3.5-1.2c-3.6,2.2-7.8,3.4-12.1,3.4"/>
	<path id="path1310_1_" class="st6" d="M580.1,151.9c-1.5-8.4,1-17.8,5.2-20.6c10.8,6.3,24.2,6.1,34.8-0.5"/>
	<path id="path1312_1_" class="st6" d="M580.1,147.5c7.2-0.2,23,1,26.7,1.5c3.9,0.6,10.3,2.2,9.4,4.1"/>
	<path id="path1314_1_" class="st6" d="M583.4,146.3l2.1-2l-2-2.1l-2.1,2L583.4,146.3z"/>
	<path id="path1316_1_" class="st4" d="M588.4,104.3c-2.6-3.6-9.8-4.8-11.3,0c-0.7,2.2-1.7,4.5-3.4,5.5c-1.7,1-1.3,4.1-0.6,5.4
		c1.8,3.3,0.2,6.5,3.7,8.6c0-2.6,3.9-5.3,7.1-6c3.3-0.6,8.3-3.6,9-6.8C593.5,107.6,594.7,105,588.4,104.3L588.4,104.3z"/>
	<path id="path1318_1_" class="st11" d="M572.1,136.8h1v6.1l0.5,0.3l5.3-3l0.5,0.7L574,144v0.6l5.4,3l-0.5,0.8l-5.4-3
		c-0.1,0.1-0.3,0.3-0.5,0.3v6.2h-0.9v-6.2c-0.2-0.1-0.3-0.2-0.5-0.3l-5.3,3.1l-0.5-0.8l5.3-3V144l-5.3-3l0.5-0.8l5.3,3l0.5-0.3
		V136.8z"/>
	<path id="path1320_1_" class="st11" d="M580.1,151.8c-4.2,4.2-10.9,4.2-15.1,0.1c-4.2-4.2-4.2-10.9-0.1-15.1
		c4.2-4.2,10.9-4.2,15.1-0.1c0.4,0.4,0.7,0.7,1,1.1c-0.6,1.8-1,3.8-1.2,5.7c-0.4-4-4-7-8-6.6c-4,0.4-7,4-6.6,8
		c0.4,3.7,3.5,6.6,7.2,6.6c3.4,0,6.3-2.3,7.2-5.4C579.7,147.5,579.7,150.7,580.1,151.8z"/>
	<path id="path1322_1_" class="st4" d="M568,162c-0.6-0.8-1.9-3-1.7-4.5c1.4,0,2.7,0.6,3.8,1.5c-0.1-1.2-0.6-3.6-0.3-4.8
		c1.2,0.5,3.8,2,4.7,3.6c-0.2-1.1-0.7-4-0.2-5.8c1.3,0.8,3.6,2.9,4,4.4c0.2-2.3,1-6,1.6-7c1,1,2.6,2,3.6,3.4c0.2-1.9,1.2-4,2.5-4.5
		c1,1,2.6,3.7,3,6.6c1-0.3,2.3-2,2.9-3c0.5,1,1.1,2.5,0.7,4.5c1.3-1.2,2.8-2.7,3-4.1c1,0.7,2.7,2.4,3.1,4.2c-0.2-1.5,0-4.1-0.5-5.6
		c1.6,1,3,2.5,3.3,4.2c0.5-1.6,1.5-4.4,2.4-5c0.9,1.8,1.8,4,1.7,5.7c0.6-1.1,1.4-3.2,2.3-3.6c0.8,1.2,0.7,4,0.5,5.4
		c0.8-1.1,2.3-2.5,3.2-3c0,0.8,0.2,2.1,0,3.1c1.4-1.5,2.5-3.3,3.2-5.2c1.6,0.8,3.2,3.5,3.3,4.9c1.2-0.5,3.4-2.5,4-3.6
		c0,0.8,0.4,3,0,4.6c0.7-0.7,1.3-2,1.7-2.6c0.4,1.1,0,3.8-0.4,5.3c0.9-0.8,2.1-1.4,3.4-1.5c-0.3,2.7-1.1,5.4-2.5,7.8
		C613.5,164.4,590.8,163.3,568,162L568,162z"/>
	<path id="path1324_1_" class="st8" d="M605.8,102.3c0-0.9,1.8-2.7,5.1-2.7c4,0,7.7,3,10.9,2.7c3.2-0.2,1.6,0.9,1,1.1
		c-0.8,0.3-1.1,0.7-1,1.2c0.3,0.6,0,0.9-1.4,0.4c-2.8-1-5.7,0.4-9.4-0.4C607.8,103.9,605.9,103.6,605.8,102.3z"/>
	<path id="path1326_1_" class="st3" d="M571.5,168.8c-3.3,4-6.7,3.4-7.4,0.8c-0.7-2.6,1.8-3.8,0.9-6.1c-0.9-2.3,1.5-3.3,2.6-2.3
		c1.1,1,4.8-2.2,6.3,1.2c1.6,3.4,2.8,5.7,2,7C574.9,170.8,572.2,170.1,571.5,168.8L571.5,168.8z"/>
	<path id="path1328_1_" class="st3" d="M586.1,162.7c-0.6-1.5,2.9-4.4,4.7-2.3c1.8,2,4.6-2.2,6.2,1c1.6,3.2,2,4.9,2.9,6.7
		c0.7,1.8-4.3,2.7-5.9,1.2c0.2,1-4.4,1.9-5.6-1.2L586.1,162.7L586.1,162.7z"/>
	<path id="path1330_1_" class="st3" d="M609.5,164.6c-0.8-1.6,3.3-3.9,5.5-1c0.5-1.2,4.6-1.4,4.9,2l0.5,6.9c0.1,1.3-2.5,2.6-4.3-0.9
		c-3.4,0.7-4.9-1.2-5.3-3.1c-0.4-2-0.8-3-1.3-4L609.5,164.6z"/>
	<path id="path1332_1_" class="st4" d="M573.7,162.3c-0.5-1.1,3-3.4,5.2-1.7c2.3,1.7,5.5-1.4,7,1.6c2.7,6.2,2.8,6.6,2,7.8
		s-4.5,0.7-5.4-1c-0.1,1.2-3.3,1-4.9,0.1C575.8,168.1,574.5,164.3,573.7,162.3L573.7,162.3z"/>
	<path id="path1334_1_" class="st4" d="M597.4,162.6c-0.7-1.8,4.6-3.3,7-0.2c1.1-1.1,3.7-1.2,5.1,2.2c1.5,3.3,1.7,5.1,0.7,6
		c-0.8,0.6-3.5,1-4.4-0.5c-1.3,0.8-5.1,0.1-6-2c-0.8-2.1-1.5-4-2.3-5.5H597.4z"/>
	<path id="path1336_1_" class="st4" d="M619.9,166c0-1.7,2.8-2.4,3.9,0c1,2.2,4.5,0.1,4.8,4c0,0.7-0.4,3.5-1.5,4.9
		c-1,1.3-6.3,0-6.7-2.9L619.9,166L619.9,166z"/>
	<path id="path1338_1_" class="st6" d="M571.5,168.8c-1.2-1.7-2.9-4.4-5-1.5"/>
	<path id="path1340_1_" class="st6" d="M582.6,169c-0.8-0.9-1.7-2.5-2-3.7"/>
	<path id="path1342_1_" class="st6" d="M594,169.3c-0.8-0.6-2-1.7-2.6-2.9"/>
	<path id="path1344_1_" class="st6" d="M593,163.4c2,0.2,3.3,2,3.9,2.9c0.6,0.8,2,2.4,3,2.5"/>
	<path id="path1346_1_" class="st6" d="M605.8,170.1c-0.7-1-1.4-2-1.5-2.8"/>
	<path id="path1348_1_" class="st6" d="M604.4,162.4c0.6,1,1.1,1.7,1.5,2.6"/>
	<path id="path1350_1_" class="st6" d="M616,171.6c-0.8-1.6-2-3-3.5-3.9"/>
	<path id="path1352_1_" class="st6" d="M615.6,165.4c0.1,3.3,4.5,3.6,4.7,6"/>
	<path id="path1354_1_" class="st6" d="M623.8,166c0.4,0.8,0.6,1.6,0.6,3"/>
</g>
</svg>
