<?xml version="1.0" encoding="utf-8"?>
<!-- Generator: Adobe Illustrator 24.0.1, SVG Export Plug-In . SVG Version: 6.00 Build 0)  -->
<svg version="1.1" id="flag-icons-pt" xmlns="http://www.w3.org/2000/svg" xmlns:xlink="http://www.w3.org/1999/xlink" x="0px"
	 y="0px" viewBox="0 0 800 480" style="enable-background:new 0 0 800 480;" xml:space="preserve">
<style type="text/css">
	.st0{fill:#FF0000;}
	.st1{fill:#006600;}
	
		.st2{fill-rule:evenodd;clip-rule:evenodd;fill:#FFFF00;stroke:#000000;stroke-width:0.7692;stroke-linecap:round;stroke-linejoin:round;}
	.st3{fill:#FFFFFF;stroke:#000000;stroke-width:0.9573;stroke-miterlimit:4.2667;}
	.st4{fill:#FF0000;stroke:#000000;stroke-width:0.6838;stroke-miterlimit:4.2667;}
	.st5{fill:#FFFF00;}
	.st6{fill:#FFFF00;stroke:#000000;stroke-width:0.6838;stroke-miterlimit:4.2667;}
	.st7{fill:#003399;}
	.st8{fill:#FFFFFF;}
</style>
<path class="st0" d="M320,0h480v480H320V0z"/>
<path class="st1" d="M0,0h320v480H0V0z"/>
<g>
	<g>
		<path class="st2" d="M427.2,324.8c-41.4-1.3-230.8-119.5-232.1-138.5l10.4-17.3c18.8,27.3,212.4,142.3,231.5,138.2L427.2,324.8"/>
		<path class="st2" d="M203.3,166.6c-3.7,10,49.5,42.8,113.3,81.8c64,38.8,119.1,62.8,123.1,59.5l1.9-3.6c-0.8,1.3-2.6,1.7-5.5,0.8
			c-17.3-5-62.3-25.6-118.1-59.5c-55.9-33.8-104.4-65-111.9-78.2c-0.6-1.2-0.9-2.6-0.8-4h-0.3l-1.5,2.8L203.3,166.6L203.3,166.6z
			 M428.1,325.3c-0.6,1.3-2.1,1.3-4.5,1c-15.4-1.7-62.3-24.5-117.8-57.7c-64.6-38.7-117.9-73.8-112.1-83.1l1.5-2.8l0.3,0.1
			c-5.1,15.6,105.3,78.7,111.8,82.8c63.8,39.5,117.7,62.7,122.4,56.7L428.1,325.3z"/>
		<path class="st2" d="M320.4,197.9c41.3-0.4,92.3-5.6,121.8-17.4l-6.4-10.3c-17.3,9.6-68.6,16-115.8,16.9
			c-55.6-0.5-95-5.8-114.7-19l-5.9,11C235.5,194.6,272.7,197.8,320.4,197.9"/>
		<path class="st2" d="M443.8,180.7c-1,1.7-20.3,8.2-48.5,13.1c-24.9,3.8-50,5.6-75.1,5.5c-24.1,0.1-48.2-1.5-72.1-4.6
			c-29.6-4.6-44.9-11-50.6-13.3l1.4-2.8c16.3,6.4,31.7,10.3,49.6,13.1c23.7,3.2,47.6,4.8,71.5,4.7c25,0,50-1.8,74.7-5.5
			c28.8-4.7,44.6-10.8,46.9-13.5l2.1,3.5V180.7z M438.2,170.3c-3.1,2.6-18.7,8.1-46.2,12.4c-23.7,3.4-47.6,5.1-71.5,5.1
			c-28.2,0-51.4-2.1-69-4.6c-27.9-3.6-42.8-10.3-48.2-12.1l1.7-2.8c4.2,2.2,18.5,7.9,46.8,11.9c22.8,3.1,45.7,4.5,68.7,4.4
			c23.8,0,47.5-1.7,71-5.1c27.6-3.8,42.4-10.8,44.7-12.6L438.2,170.3z M184.6,247.6c25.4,13.7,81.9,20.5,135.4,21
			c48.7,0.1,112.1-7.4,135.8-20l-0.6-13.7c-7.4,11.5-75.4,22.7-135.6,22.3c-60.3-0.5-116.3-9.7-135-21.8v12.2"/>
		<path class="st2" d="M457.1,245.7v3.2c-3.6,4.4-25.9,10.8-53.8,15.4c-27.8,4-55.8,5.9-83.8,5.6c-26.6,0.2-53.2-1.6-79.5-5.5
			c-19.6-2.3-38.8-7.5-56.9-15.4v-3.7c12.4,8.2,46,14.4,57.3,16.2c20.3,3.1,46.3,5.4,79.1,5.4c34.5,0,62.1-2.4,83.3-5.6
			C422.8,258.3,451.4,250.7,457.1,245.7L457.1,245.7z M457.1,234.2v3.2c-3.6,4.2-25.9,10.6-53.8,15.3c-27.8,4-55.8,6-83.8,5.8
			c-26.6,0.2-53.2-1.7-79.5-5.5c-19.6-2.3-38.8-7.5-56.9-15.4v-3.8c12.4,8.3,46.2,14.4,57.3,16.2c26.2,3.8,52.6,5.7,79.1,5.5
			c34.5,0,62.2-2.6,83.3-5.8C422.8,246.8,451.4,239.2,457.1,234.2z M319.9,322.4c-58.5-0.3-108.6-15.9-119.2-18.5l7.7,12.1
			c36,12.7,73.9,18.9,112.1,18.3c44.5-1.3,83.3-4.7,110.6-18.1l7.9-12.6c-18.6,8.8-82.1,18.7-119.2,18.7"/>
		<path class="st2" d="M434.1,313.4c-1.2,1.7-2.4,3.4-3.6,5.1c-12.8,4.6-33.3,9.5-41.8,10.8c-22.7,4.2-45.8,6.4-68.8,6.4
			c-51.8-0.8-94.2-10.9-114.1-19.6l-1.7-2.7l0.3-0.5l2.7,1.2c36.5,12.1,74.6,18.3,113.1,18.6c24.1,0,48.1-2.7,67.4-6.2
			c29.7-6,41.8-10.5,45.5-12.6l0.9-0.5L434.1,313.4z M440.9,302.1c-0.8,1.5-1.7,3-2.6,4.5c-6.9,2.6-25.6,7.9-52.9,11.8
			c-17.9,2.4-29.1,4.9-64.9,5.5c-40.9-0.4-81.5-6.5-120.8-17.9l-1.4-3.2c39.9,11,81,17,122.3,17.9c32.7-0.6,46.7-3.1,64.5-5.5
			c31.8-4.9,47.8-10.3,52.6-11.7c0-0.1,0-0.2,0-0.3l3.3-1.3L440.9,302.1z"/>
		<path class="st2" d="M441.7,236.9c0.1,38.5-19.6,73.1-35.4,88.2c-23.3,22.7-54.4,35.7-86.9,36.2c-38.8,0.6-75.4-24.6-85.3-35.8
			c-22.1-23.4-34.7-54.2-35.3-86.4c2.3-42.1,18.8-71.3,42.7-91.4c23.2-19.1,52.3-29.4,82.3-29.1c35.4,1.7,68.5,18.3,91,45.6
			C430.9,183.7,437.9,204.8,441.7,236.9L441.7,236.9z M319.6,105.3c74.7,0,135.3,60.2,135.9,134.9c0,74.8-60.7,135.5-135.5,135.5
			s-135.5-60.7-135.5-135.5C184.4,165.9,245.1,105.3,319.6,105.3"/>
		<path class="st2" d="M320,104.7c74.6,0,135.4,60.8,135.4,135.4s-60.8,135.4-135.3,135.4s-135.4-60.8-135.4-135.4
			s60.8-135.4,135.4-135.4H320z M187.6,240c0,72.8,59.9,132.4,132.4,132.4S452.4,312.8,452.4,240S392.6,107.5,320,107.5
			S187.6,167.1,187.6,240z"/>
		<path class="st2" d="M320.1,116c68.4,0.2,123.8,55.6,124,124c-0.2,68.4-55.6,123.8-124,124.1c-67.9,0-124-55.9-124-124.1
			C196.4,171.6,251.8,116.3,320.1,116L320.1,116z M199.1,240c0,66.7,54.6,121,121,121s121-54.5,121-121c0-66.7-54.6-121-121-121
			C253.4,119.2,199.4,173.2,199.1,240z"/>
		<path class="st2" d="M325.6,104.1H314v272.2h11.5L325.6,104.1z"/>
		<path class="st2" d="M324.4,102.5h2.9v275.3h-2.8V102.5H324.4z M312.8,102.5h3.1v275.3h-2.9V102.5H312.8z"/>
		<path class="st2" d="M455.5,245.3v-10l-8.2-7.7l-46.5-12.3l-66.9-6.8l-80.8,4.1l-57.4,13.6l-11.5,8.6V245l29.4-13.2l69.7-10.9
			h67.1l49.2,5.4l34.1,8.2L455.5,245.3z"/>
		<path class="st2" d="M320.1,219.2c31.9,0,62.8,2.9,87.6,7.7c25.4,5.1,43.2,11.5,49.4,18.6v3.6c-7.4-9-31.4-15.4-50-19.2
			c-24.4-4.6-55.1-7.7-87.1-7.7c-33.5,0-64.7,3.3-88.8,7.9c-19.2,3.8-45,11.5-48.2,19v-3.7c1.7-5.1,20.9-12.8,47.8-18.3
			c24.2-4.7,55.5-7.8,89.2-7.8H320.1z M320.1,207.5c29.4-0.1,58.7,2.5,87.6,7.7c25.4,5.1,43.2,11.5,49.4,18.7v3.5
			c-7.4-8.8-31.4-15.4-50-19.1c-24.4-4.7-55.1-7.7-87.1-7.7c-29.8-0.1-59.5,2.6-88.7,7.9c-18.6,3.5-45.4,11.4-48.3,18.8v-3.6
			c1.8-5.1,21.3-13.2,47.8-18.3C255.1,210.7,286.3,207.5,320.1,207.5z M319.4,148.3c50.4-0.3,94.4,7.1,114.5,17.3l7.3,12.8
			c-17.4-9.5-64.9-19.2-121.7-17.9c-46.3,0.4-95.8,5.1-120.5,18.5l8.7-14.6C228.1,153.7,276,148.3,319.4,148.3"/>
		<path class="st2" d="M320.1,158.8c26.3-0.4,52.6,1.4,78.6,5.5c20.5,3.8,40.1,9.5,42.9,12.6l2.2,3.8c-6.8-4.4-23.8-9.4-45.6-13.5
			c-21.8-4.1-49.6-5.5-78.2-5.4c-32.4-0.1-57.7,1.5-79.2,5.4c-14.8,2.1-29.3,6.5-42.7,13.2l2.2-4c7.7-3.8,19.6-8.6,39.9-12.3
			C262.6,160.1,288.1,158.9,320.1,158.8z M320.1,147.3c27.4-0.3,54.6,1.3,75.8,5.1c13.7,2,27,6.4,39.2,12.8l3.2,5.1
			c-5.4-6-25.6-11.8-43.7-14.9c-21-3.7-47.1-5.1-74.5-5.4c-25.5-0.2-51.1,1.7-76.3,5.6c-13.2,1.8-26,5.8-37.9,11.7l2.8-4.2
			c7.4-3.8,19.5-7.4,34.6-10.4c25.4-4,51.1-5.9,76.8-5.6V147.3z M387.3,296.4c-22.2-3.8-44.8-5.6-67.3-5.1
			c-84,1-111,17.3-114.4,22.2l-6.4-10.3c21.5-15.4,67.2-24.1,121.3-23.3c28.1,0.5,52.3,2.4,72.6,6.4l-5.8,10.3"/>
		<path class="st2" d="M319.6,289.8c23.3,0.4,46.2,1.3,68.3,5.4l-1.5,2.8c-20.5-3.8-42.6-5.1-66.7-5.1c-31.2-0.3-62.4,2.7-89.7,10.5
			c-8.6,2.4-22.8,7.9-24.4,12.6l-1.5-2.6c0.5-2.8,9-8.5,25.1-12.8C260.5,291.6,289.7,290,319.6,289.8L319.6,289.8z M320.6,278
			c24.6,0,49.2,2.1,73.5,6.4l-1.7,2.9c-23.7-4.3-47.7-6.4-71.8-6.3c-31,0-64,2.3-94,11c-9.6,2.8-26.4,9-26.9,13.7l-1.5-2.8
			c0.3-4.4,14.7-10.1,27.8-13.8C256.2,280.3,289.2,278.2,320.6,278z"/>
		<path class="st2" d="M439.9,304.7l-10,15.8l-29.1-25.8l-75.1-50.6l-84.9-46.5l-44-15l9.4-17.4l3.2-1.7l27.3,6.8l90.3,46.5
			l52.1,32.8l43.7,31.4l17.8,20.5L439.9,304.7z"/>
		<path class="st2" d="M195.3,182.9c7.7-5.1,64.4,20,123.8,55.9c59.1,35.9,115.8,76.4,110.6,84l-1.7,2.7l-0.8,0.6c0.1-0.1,1-1.3,0-4
			c-2.6-8.3-42.8-40.4-109.4-80.6c-65-38.6-119.1-61.9-124.4-55.3L195.3,182.9z M441.9,304.6c4.9-9.7-47.7-49.4-112.9-87.9
			c-66.7-37.8-114.9-60.1-123.7-53.5l-1.8,3.7c0,0.1,0-0.3,0.5-0.6c1.5-1.3,4.2-1.3,5.4-1.3c15.1,0.3,58.3,20.1,119,54.9
			c26.7,15.4,112.3,70.5,111.9,85.9c0,1.3,0.1,1.5-0.4,2.3l2.2-3.3L441.9,304.6z"/>
	</g>
	<g transform="translate(0 26.7) scale(1.06667)">
		<path class="st3" d="M224,214.1c0,20.1,8.1,39.4,22.4,53.5c14.1,14.4,33.4,22.5,53.6,22.6c20.2,0,39.6-8,53.8-22.3
			c14.3-14.2,22.3-33.5,22.3-53.6V112.7L224,112.4L224,214.1L224,214.1z"/>
		<path class="st4" d="M226.8,214.2c0.1,19.3,7.8,37.7,21.5,51.3c13.6,13.7,32.2,21.5,51.5,21.5c19.3,0,37.9-7.6,51.5-21.3
			c13.7-13.6,21.4-32,21.4-51.3v-98.7H227v98.5 M343.7,145.4V208l-0.1,6.5c0.1,11.6-4.5,22.7-12.8,30.8
			c-8.2,8.2-19.2,12.8-30.8,12.8c-12.1,0-22.7-5.1-30.6-13.1c-8.2-8.2-12.8-19.2-12.8-30.8v-69.2L343.7,145.4z"/>
		<g id="e">
			<g id="d">
				<path class="st5" d="M236.3,141.5c0.1-7.1,5.1-8.7,5.1-8.7c0.1,0,5.5,1.8,5.5,8.8h-10.6"/>
				<path class="st6" d="M231.9,132.9L231,141h5.4c0-6.7,5.1-7.7,5.1-7.7c0.1,0,5.1,1.4,5.3,7.7h5.4l-1-8.2h-19.2V132.9z
					 M230.6,141.1h21.8c0.4,0,0.8,0.4,0.8,0.9c0,0.6-0.4,1-0.8,1h-21.8c-0.4,0-0.8-0.4-0.8-1c0-0.5,0.4-0.9,0.9-0.9H230.6z"/>
				<path class="st6" d="M238.6,141c0-4.2,2.9-5.4,2.9-5.4s2.9,1.3,2.9,5.4H238.6 M231.1,129.5H252c0.4,0,0.8,0.5,0.8,1
					c0,0.4-0.4,0.8-0.8,0.8h-20.9c-0.4,0-0.8-0.4-0.8-0.9c0-0.4,0.4-0.8,0.8-0.8V129.5z M231.7,131.4h19.7c0.4,0,0.8,0.4,0.8,0.9
					c0,0.5-0.4,0.9-0.8,0.9h-19.9c-0.5,0-0.8-0.4-0.8-0.9c0-0.5,0.3-0.9,0.8-0.9H231.7z M238.1,117.8h1.5v1h1.2v-1h1.7v1.2h1.2v-1.3
					h1.5v2.6c0,0.5-0.3,0.8-0.6,0.8h-5.6c-0.4,0-0.8-0.3-0.8-0.6L238.1,117.8L238.1,117.8z M244,121.3l0.4,8.2h-5.5l0.4-8.3h4.7"/>
				<path id="a" class="st6" d="M237.3,125.1v4.4h-5.1v-4.4H237.3z"/>
				<g>
					<path id="a_1_" class="st6" d="M250.9,125.1v4.4h-5.1v-4.4H250.9z"/>
				</g>
				<path id="b" class="st6" d="M231.3,121.8h1.5v1.3h1.2v-1.3h1.5v1.3h1.2v-1.3h1.5v2.6c0,0.5-0.3,0.8-0.6,0.8H232
					c-0.4,0-0.8-0.3-0.8-0.8v0L231.3,121.8L231.3,121.8z"/>
				<g>
					<path id="b_1_" class="st6" d="M244.9,121.8h1.5v1.3h1.2v-1.3h1.5v1.3h1.2v-1.3h1.5v2.6c0,0.5-0.3,0.8-0.6,0.8h-5.5
						c-0.4,0-0.8-0.3-0.8-0.8v0L244.9,121.8L244.9,121.8z"/>
				</g>
				<path d="M241,123.8c0-0.8,1.2-0.8,1.2,0v2.1H241V123.8"/>
				<path id="c" d="M234.2,126.6c0-0.8,1-0.8,1,0v1.5h-1V126.6"/>
				<g>
					<path id="c_1_" d="M247.8,126.6c0-0.8,1-0.8,1,0v1.5h-1V126.6"/>
				</g>
			</g>
			<g>
				<g id="d_1_">
					<path class="st5" d="M236.3,200.9c0.1-7.1,5.1-8.7,5.1-8.7c0.1,0,5.5,1.8,5.5,8.8h-10.6"/>
					<path class="st6" d="M231.9,192.3l-0.9,8.1h5.4c0-6.7,5.1-7.7,5.1-7.7c0.1,0,5.1,1.4,5.3,7.7h5.4l-1-8.2h-19.2V192.3z
						 M230.6,200.5h21.8c0.4,0,0.8,0.4,0.8,0.9c0,0.6-0.4,1-0.8,1h-21.8c-0.4,0-0.8-0.4-0.8-1c0-0.5,0.4-0.9,0.9-0.9H230.6z"/>
					<path class="st6" d="M238.6,200.4c0-4.2,2.9-5.4,2.9-5.4s2.9,1.3,2.9,5.4H238.6 M231.1,188.8H252c0.4,0,0.8,0.5,0.8,1
						c0,0.4-0.4,0.8-0.8,0.8h-20.9c-0.4,0-0.8-0.4-0.8-0.9c0-0.4,0.4-0.8,0.8-0.8V188.8z M231.7,190.7h19.7c0.4,0,0.8,0.4,0.8,0.9
						s-0.4,0.9-0.8,0.9h-19.9c-0.5,0-0.8-0.4-0.8-0.9s0.3-0.9,0.8-0.9H231.7z M238.1,177.1h1.5v1h1.2v-1h1.7v1.2h1.2V177h1.5v2.6
						c0,0.5-0.3,0.8-0.6,0.8h-5.6c-0.4,0-0.8-0.3-0.8-0.6L238.1,177.1L238.1,177.1z M244,180.6l0.4,8.2h-5.5l0.4-8.3h4.7"/>
					<path id="a_2_" class="st6" d="M237.3,184.5v4.4h-5.1v-4.4H237.3z"/>
					<g>
						<path id="a_3_" class="st6" d="M250.9,184.5v4.4h-5.1v-4.4H250.9z"/>
					</g>
					<path id="b_2_" class="st6" d="M231.3,181.1h1.5v1.3h1.2v-1.3h1.5v1.3h1.2v-1.3h1.5v2.6c0,0.5-0.3,0.8-0.6,0.8H232
						c-0.4,0-0.8-0.3-0.8-0.8v0L231.3,181.1L231.3,181.1z"/>
					<g>
						<path id="b_3_" class="st6" d="M244.9,181.1h1.5v1.3h1.2v-1.3h1.5v1.3h1.2v-1.3h1.5v2.6c0,0.5-0.3,0.8-0.6,0.8h-5.5
							c-0.4,0-0.8-0.3-0.8-0.8v0L244.9,181.1L244.9,181.1z"/>
					</g>
					<path d="M241,183.2c0-0.8,1.2-0.8,1.2,0v2.1H241V183.2"/>
					<path id="c_2_" d="M234.2,186c0-0.8,1-0.8,1,0v1.5h-1V186"/>
					<g>
						<path id="c_3_" d="M247.8,186c0-0.8,1-0.8,1,0v1.5h-1V186"/>
					</g>
				</g>
			</g>
			<g transform="rotate(-45.2 312.8 180)">
				<g id="d_2_">
					<path class="st5" d="M259.4,262.7c-4.9-5.1-2.6-9.8-2.6-9.8c0.1-0.1,5.2-2.6,10.2,2.3L259.4,262.7"/>
					<path class="st6" d="M250.2,259.8l5.1,6.3l3.8-3.8c-4.7-4.7-1.8-9.1-1.8-9.1c0.1-0.1,4.6-2.6,9.2,1.7l3.8-3.8l-6.5-5.1
						L250.2,259.8L250.2,259.8z M255.2,266.5l15.4-15.5c0.3-0.3,0.8-0.3,1.2,0.1c0.5,0.5,0.5,1,0.2,1.3l-15.4,15.5
						c-0.3,0.3-0.8,0.3-1.3-0.2C254.9,267.3,254.9,266.7,255.2,266.5L255.2,266.5z"/>
					<path class="st6" d="M260.7,260.7c-3-3-1.7-5.9-1.7-5.9s3-1.2,5.9,1.7L260.7,260.7 M247.2,257.9l14.7-14.8
						c0.3-0.3,0.9-0.2,1.3,0.2c0.3,0.3,0.3,0.8,0,1.1l-14.7,14.8c-0.3,0.3-0.8,0.3-1.2-0.1C247.1,258.8,247.1,258.2,247.2,257.9
						L247.2,257.9z M249,258.9l13.9-14c0.3-0.3,0.8-0.3,1.2,0.1s0.4,0.9,0.1,1.2l-14,14.1c-0.4,0.4-0.8,0.3-1.2-0.1
						C248.6,259.8,248.5,259.3,249,258.9L249,258.9z M243.8,244.7l1.1-1.1l0.7,0.7l0.8-0.8l-0.7-0.7l1.2-1.2l0.8,0.8l0.8-0.8
						l-0.9-0.9l1.1-1.1l1.8,1.8c0.4,0.4,0.4,0.7,0.1,1l-4,4c-0.3,0.3-0.7,0.4-1,0.1L243.8,244.7L243.8,244.7z M250.5,243l6.1,5.5
						l-3.9,3.9l-5.6-6.1L250.5,243"/>
					<path id="a_4_" class="st6" d="M248.5,250.4l3.1,3.1l-3.6,3.6l-3.1-3.1L248.5,250.4z"/>
					<g>
						<path id="a_5_" class="st6" d="M258.1,240.8l3.1,3.1l-3.6,3.6l-3.1-3.1L258.1,240.8z"/>
					</g>
					<path id="b_4_" class="st6" d="M241.9,252.4l1.1-1.1l0.9,0.9l0.8-0.8l-0.9-0.9l1.1-1.1l0.9,0.9l0.8-0.8l-0.9-0.9l1.1-1.1
						l1.8,1.8c0.4,0.4,0.4,0.7,0.1,1l-3.9,3.9c-0.3,0.3-0.8,0.3-1.1,0l0,0L241.9,252.4L241.9,252.4z"/>
					<g>
						<path id="b_5_" class="st6" d="M251.5,242.7l1.1-1.1l0.9,0.9l0.8-0.8l-0.9-0.9l1.1-1.1l0.9,0.9l0.8-0.8l-0.9-0.9l1.1-1.1
							l1.8,1.8c0.4,0.4,0.4,0.7,0.1,1l-3.9,3.9c-0.3,0.3-0.8,0.3-1.1,0l0,0L251.5,242.7L251.5,242.7z"/>
					</g>
					<path d="M250.2,246.9c-0.5-0.5,0.3-1.4,0.8-0.8l1.5,1.4l-0.8,0.8L250.2,246.9"/>
					<path id="c_4_" d="M247.4,253.7c-0.5-0.5,0.2-1.3,0.7-0.7l1.1,1.1l-0.7,0.7L247.4,253.7"/>
					<g>
						<path id="c_5_" d="M257,244.1c-0.5-0.5,0.2-1.3,0.7-0.7l1.1,1.1l-0.7,0.7L257,244.1"/>
					</g>
				</g>
			</g>
		</g>
		<g>
			<g id="d_3_">
				<path class="st5" d="M294.9,141.5c0.1-7.1,5.1-8.7,5.1-8.7c0.1,0,5.5,1.8,5.5,8.8h-10.6"/>
				<path class="st6" d="M290.5,132.9l-0.9,8.1h5.4c0-6.7,5.1-7.7,5.1-7.7c0.1,0,5.1,1.4,5.3,7.7h5.4l-1-8.2h-19.2V132.9z
					 M289.2,141.1H311c0.4,0,0.8,0.4,0.8,0.9c0,0.6-0.4,1-0.8,1h-21.8c-0.4,0-0.8-0.4-0.8-1c0-0.5,0.4-0.9,0.9-0.9H289.2z"/>
				<path class="st6" d="M297.2,141c0-4.2,2.9-5.4,2.9-5.4s2.9,1.3,2.9,5.4H297.2 M289.7,129.5h20.9c0.4,0,0.8,0.5,0.8,1
					c0,0.4-0.4,0.8-0.8,0.8h-20.9c-0.4,0-0.8-0.4-0.8-0.9c0-0.4,0.4-0.8,0.8-0.8V129.5z M290.2,131.4H310c0.4,0,0.8,0.4,0.8,0.9
					c0,0.5-0.4,0.9-0.8,0.9h-19.9c-0.5,0-0.8-0.4-0.8-0.9c0-0.5,0.3-0.9,0.8-0.9H290.2z M296.7,117.8h1.5v1h1.2v-1h1.7v1.2h1.2v-1.3
					h1.5v2.6c0,0.5-0.3,0.8-0.6,0.8h-5.6c-0.4,0-0.8-0.3-0.8-0.6L296.7,117.8L296.7,117.8z M302.6,121.3l0.4,8.2h-5.5l0.4-8.3h4.7"
					/>
				<path id="a_6_" class="st6" d="M295.9,125.1v4.4h-5.1v-4.4H295.9z"/>
				<g>
					<path id="a_7_" class="st6" d="M309.5,125.1v4.4h-5.1v-4.4H309.5z"/>
				</g>
				<path id="b_6_" class="st6" d="M289.9,121.8h1.5v1.3h1.2v-1.3h1.5v1.3h1.2v-1.3h1.5v2.6c0,0.5-0.3,0.8-0.6,0.8h-5.5
					c-0.4,0-0.8-0.3-0.8-0.8v0L289.9,121.8L289.9,121.8z"/>
				<g>
					<path id="b_7_" class="st6" d="M303.5,121.8h1.5v1.3h1.2v-1.3h1.5v1.3h1.2v-1.3h1.5v2.6c0,0.5-0.3,0.8-0.6,0.8h-5.5
						c-0.4,0-0.8-0.3-0.8-0.8v0L303.5,121.8L303.5,121.8z"/>
				</g>
				<path d="M299.6,123.8c0-0.8,1.2-0.8,1.2,0v2.1h-1.2V123.8"/>
				<path id="c_6_" d="M292.8,126.6c0-0.8,1-0.8,1,0v1.5h-1V126.6"/>
				<g>
					<path id="c_7_" d="M306.4,126.6c0-0.8,1-0.8,1,0v1.5h-1V126.6"/>
				</g>
			</g>
		</g>
		<g transform="matrix(-1 0 0 1 479.8 0)">
			<g id="e_1_">
				<g id="d_4_">
					<path class="st5" d="M363.7,141.5c-0.1-7.1-5.1-8.7-5.1-8.7c-0.1,0-5.5,1.8-5.5,8.8h10.6"/>
					<path class="st6" d="M368.1,132.9l0.9,8.1h-5.4c0-6.7-5.1-7.7-5.1-7.7c-0.1,0-5.1,1.4-5.3,7.7h-5.4l1-8.2h19.2V132.9z
						 M369.4,141.1h-21.8c-0.4,0-0.8,0.4-0.8,0.9c0,0.6,0.4,1,0.8,1h21.8c0.4,0,0.8-0.4,0.8-1c0-0.5-0.4-0.9-0.9-0.9H369.4z"/>
					<path class="st6" d="M361.4,141c0-4.2-2.9-5.4-2.9-5.4s-2.9,1.3-2.9,5.4H361.4 M368.8,129.5h-20.9c-0.4,0-0.8,0.5-0.8,1
						c0,0.4,0.4,0.8,0.8,0.8h20.9c0.4,0,0.8-0.4,0.8-0.9c0-0.4-0.4-0.8-0.8-0.8V129.5z M368.3,131.4h-19.7c-0.4,0-0.8,0.4-0.8,0.9
						c0,0.5,0.4,0.9,0.8,0.9h19.9c0.5,0,0.8-0.4,0.8-0.9c0-0.5-0.3-0.9-0.8-0.9H368.3z M361.9,117.8h-1.5v1h-1.2v-1h-1.7v1.2h-1.2
						v-1.3h-1.5v2.6c0,0.5,0.3,0.8,0.6,0.8h5.6c0.4,0,0.8-0.3,0.8-0.6L361.9,117.8L361.9,117.8z M356,121.3l-0.4,8.2h5.5l-0.4-8.3
						H356"/>
					<path id="a_8_" class="st6" d="M362.7,125.1v4.4h5.1v-4.4H362.7z"/>
					<g>
						<path id="a_9_" class="st6" d="M349.1,125.1v4.4h5.1v-4.4H349.1z"/>
					</g>
					<path id="b_8_" class="st6" d="M368.7,121.8h-1.5v1.3H366v-1.3h-1.5v1.3h-1.2v-1.3h-1.5v2.6c0,0.5,0.3,0.8,0.6,0.8h5.5
						c0.4,0,0.8-0.3,0.8-0.8v0L368.7,121.8L368.7,121.8z"/>
					<g>
						<path id="b_9_" class="st6" d="M355.1,121.8h-1.5v1.3h-1.2v-1.3h-1.5v1.3h-1.2v-1.3h-1.5v2.6c0,0.5,0.3,0.8,0.6,0.8h5.5
							c0.4,0,0.8-0.3,0.8-0.8v0L355.1,121.8L355.1,121.8z"/>
					</g>
					<path d="M359,123.8c0-0.8-1.2-0.8-1.2,0v2.1h1.2V123.8"/>
					<path id="c_8_" d="M365.8,126.6c0-0.8-1-0.8-1,0v1.5h1V126.6"/>
					<g>
						<path id="c_9_" d="M352.2,126.6c0-0.8-1-0.8-1,0v1.5h1V126.6"/>
					</g>
				</g>
				<g>
					<g id="d_5_">
						<path class="st5" d="M363.7,200.9c-0.1-7.1-5.1-8.7-5.1-8.7c-0.1,0-5.5,1.8-5.5,8.8h10.6"/>
						<path class="st6" d="M368.1,192.3l0.9,8.1h-5.4c0-6.7-5.1-7.7-5.1-7.7c-0.1,0-5.1,1.4-5.3,7.7h-5.4l1-8.2h19.2V192.3z
							 M369.4,200.5h-21.8c-0.4,0-0.8,0.4-0.8,0.9c0,0.6,0.4,1,0.8,1h21.8c0.4,0,0.8-0.4,0.8-1c0-0.5-0.4-0.9-0.9-0.9H369.4z"/>
						<path class="st6" d="M361.4,200.4c0-4.2-2.9-5.4-2.9-5.4s-2.9,1.3-2.9,5.4H361.4 M368.8,188.8h-20.9c-0.4,0-0.8,0.5-0.8,1
							c0,0.4,0.4,0.8,0.8,0.8h20.9c0.4,0,0.8-0.4,0.8-0.9c0-0.4-0.4-0.8-0.8-0.8V188.8z M368.3,190.7h-19.7c-0.4,0-0.8,0.4-0.8,0.9
							s0.4,0.9,0.8,0.9h19.9c0.5,0,0.8-0.4,0.8-0.9s-0.3-0.9-0.8-0.9H368.3z M361.9,177.1h-1.5v1h-1.2v-1h-1.7v1.2h-1.2V177h-1.5
							v2.6c0,0.5,0.3,0.8,0.6,0.8h5.6c0.4,0,0.8-0.3,0.8-0.6L361.9,177.1L361.9,177.1z M356,180.6l-0.4,8.2h5.5l-0.4-8.3H356"/>
						<path id="a_10_" class="st6" d="M362.7,184.5v4.4h5.1v-4.4H362.7z"/>
						<g>
							<path id="a_11_" class="st6" d="M349.1,184.5v4.4h5.1v-4.4H349.1z"/>
						</g>
						<path id="b_10_" class="st6" d="M368.7,181.1h-1.5v1.3H366v-1.3h-1.5v1.3h-1.2v-1.3h-1.5v2.6c0,0.5,0.3,0.8,0.6,0.8h5.5
							c0.4,0,0.8-0.3,0.8-0.8v0L368.7,181.1L368.7,181.1z"/>
						<g>
							<path id="b_11_" class="st6" d="M355.1,181.1h-1.5v1.3h-1.2v-1.3h-1.5v1.3h-1.2v-1.3h-1.5v2.6c0,0.5,0.3,0.8,0.6,0.8h5.5
								c0.4,0,0.8-0.3,0.8-0.8v0L355.1,181.1L355.1,181.1z"/>
						</g>
						<path d="M359,183.2c0-0.8-1.2-0.8-1.2,0v2.1h1.2V183.2"/>
						<path id="c_10_" d="M365.8,186c0-0.8-1-0.8-1,0v1.5h1V186"/>
						<g>
							<path id="c_11_" d="M352.2,186c0-0.8-1-0.8-1,0v1.5h1V186"/>
						</g>
					</g>
				</g>
				<g transform="rotate(-45.2 312.8 180)">
					<g id="d_6_">
						<path class="st5" d="M340.6,262.7c4.9-5.1,2.6-9.8,2.6-9.8c-0.1-0.1-5.2-2.6-10.2,2.3L340.6,262.7"/>
						<path class="st6" d="M349.7,259.8l-5.1,6.3l-3.8-3.8c4.7-4.7,1.8-9.1,1.8-9.1c-0.1-0.1-4.6-2.6-9.2,1.7l-3.8-3.8l6.5-5.1
							L349.7,259.8L349.7,259.8z M344.8,266.5L329.5,251c-0.3-0.3-0.8-0.3-1.2,0.1c-0.5,0.5-0.5,1-0.2,1.3l15.4,15.5
							c0.3,0.3,0.8,0.3,1.3-0.2C345.1,267.3,345.1,266.7,344.8,266.5L344.8,266.5z"/>
						<path class="st6" d="M339.3,260.7c3-3,1.7-5.9,1.7-5.9s-3-1.2-5.9,1.7L339.3,260.7 M352.7,257.9L338,243.1
							c-0.3-0.3-0.9-0.2-1.3,0.2c-0.3,0.3-0.3,0.8,0,1.1l14.7,14.8c0.3,0.3,0.8,0.3,1.2-0.1C352.9,258.8,352.9,258.2,352.7,257.9
							L352.7,257.9z M351,258.9l-13.9-14c-0.3-0.3-0.8-0.3-1.2,0.1c-0.4,0.4-0.4,0.9-0.1,1.2l14,14.1c0.4,0.4,0.8,0.3,1.2-0.1
							C351.4,259.8,351.5,259.3,351,258.9L351,258.9z M356.1,244.7l-1.1-1.1l-0.7,0.7l-0.8-0.8l0.7-0.7l-1.2-1.2l-0.8,0.8l-0.8-0.8
							l0.9-0.9l-1.1-1.1l-1.8,1.8c-0.4,0.4-0.4,0.7-0.1,1l4,4c0.3,0.3,0.7,0.4,1,0.1L356.1,244.7L356.1,244.7z M349.5,243l-6.1,5.5
							l3.9,3.9l5.6-6.1L349.5,243"/>
						<path id="a_12_" class="st6" d="M351.5,250.4l-3.1,3.1l3.6,3.6l3.1-3.1L351.5,250.4z"/>
						<g>
							<path id="a_13_" class="st6" d="M341.9,240.8l-3.1,3.1l3.6,3.6l3.1-3.1L341.9,240.8z"/>
						</g>
						<path id="b_12_" class="st6" d="M358.1,252.4l-1.1-1.1l-0.9,0.9l-0.8-0.8l0.9-0.9l-1.1-1.1l-0.9,0.9l-0.8-0.8l0.9-0.9
							l-1.1-1.1l-1.8,1.8c-0.4,0.4-0.4,0.7-0.1,1l3.9,3.9c0.3,0.3,0.8,0.3,1.1,0l0,0L358.1,252.4L358.1,252.4z"/>
						<g>
							<path id="b_13_" class="st6" d="M348.5,242.7l-1.1-1.1l-0.9,0.9l-0.8-0.8l0.9-0.9l-1.1-1.1l-0.9,0.9l-0.8-0.8l0.9-0.9
								l-1.1-1.1l-1.8,1.8c-0.4,0.4-0.4,0.7-0.1,1l3.9,3.9c0.3,0.3,0.8,0.3,1.1,0l0,0L348.5,242.7L348.5,242.7z"/>
						</g>
						<path d="M349.8,246.9c0.5-0.5-0.3-1.4-0.8-0.8l-1.5,1.4l0.8,0.8L349.8,246.9"/>
						<path id="c_12_" d="M352.6,253.7c0.5-0.5-0.2-1.3-0.7-0.7l-1.1,1.1l0.7,0.7L352.6,253.7"/>
						<g>
							<path id="c_13_" d="M343,244.1c0.5-0.5-0.2-1.3-0.7-0.7l-1.1,1.1l0.7,0.7L343,244.1"/>
						</g>
					</g>
				</g>
			</g>
		</g>
		<g id="f">
			<path class="st7" d="M290.6,203c0,2.7,1,5.3,2.8,7.3c1.7,1.9,4.2,3.1,6.8,3.1c2.7,0,5.1-1.3,6.8-3.1c1.8-2,2.8-4.6,2.8-7.3v-13.8
				h-19.2V203"/>
			<circle class="st8" cx="295.1" cy="194.5" r="1.9"/>
			<circle class="st8" cx="305.8" cy="194.5" r="1.9"/>
			<circle class="st8" cx="300.4" cy="199.6" r="1.9"/>
			<circle class="st8" cx="295.1" cy="205" r="1.9"/>
			<circle class="st8" cx="305.8" cy="205" r="1.9"/>
		</g>
		<g>
			<g id="f_1_">
				<path class="st7" d="M290.6,169.7c0,2.7,1,5.3,2.8,7.3c1.7,1.9,4.2,3.1,6.8,3.1c2.7,0,5.1-1.3,6.8-3.1c1.8-2,2.8-4.6,2.8-7.3
					v-13.8h-19.2V169.7"/>
				<circle class="st8" cx="295.1" cy="161.1" r="1.9"/>
				<circle class="st8" cx="305.8" cy="161.1" r="1.9"/>
				<circle class="st8" cx="300.4" cy="166.3" r="1.9"/>
				<circle class="st8" cx="295.1" cy="171.6" r="1.9"/>
				<circle class="st8" cx="305.8" cy="171.6" r="1.9"/>
			</g>
		</g>
		<g>
			<g id="f_2_">
				<path class="st7" d="M264,203c0,2.7,1,5.3,2.8,7.3c1.7,1.9,4.2,3.1,6.8,3.1c2.7,0,5.1-1.3,6.8-3.1c1.8-2,2.8-4.6,2.8-7.3v-13.8
					H264V203"/>
				<circle class="st8" cx="268.5" cy="194.5" r="1.9"/>
				<circle class="st8" cx="279.1" cy="194.5" r="1.9"/>
				<circle class="st8" cx="273.7" cy="199.6" r="1.9"/>
				<circle class="st8" cx="268.5" cy="205" r="1.9"/>
				<circle class="st8" cx="279.1" cy="205" r="1.9"/>
			</g>
		</g>
		<g>
			<g id="f_3_">
				<path class="st7" d="M317.3,203c0,2.7,1,5.3,2.8,7.3c1.7,1.9,4.2,3.1,6.8,3.1c2.7,0,5.1-1.3,6.8-3.1c1.8-2,2.8-4.6,2.8-7.3
					v-13.8h-19.2V203"/>
				<circle class="st8" cx="321.8" cy="194.5" r="1.9"/>
				<circle class="st8" cx="332.4" cy="194.5" r="1.9"/>
				<circle class="st8" cx="327" cy="199.6" r="1.9"/>
				<circle class="st8" cx="321.8" cy="205" r="1.9"/>
				<circle class="st8" cx="332.4" cy="205" r="1.9"/>
			</g>
		</g>
		<g>
			<g id="f_4_">
				<path class="st7" d="M290.6,236.1c0,2.7,1,5.3,2.8,7.3c1.7,1.9,4.2,3.1,6.8,3.1c2.7,0,5.1-1.3,6.8-3.1c1.8-2,2.8-4.6,2.8-7.3
					v-13.8h-19.2V236.1"/>
				<circle class="st8" cx="295.1" cy="227.5" r="1.9"/>
				<circle class="st8" cx="305.8" cy="227.5" r="1.9"/>
				<circle class="st8" cx="300.4" cy="232.7" r="1.9"/>
				<circle class="st8" cx="295.1" cy="238" r="1.9"/>
				<circle class="st8" cx="305.8" cy="238" r="1.9"/>
			</g>
		</g>
	</g>
</g>
</svg>
