<?xml version="1.0" encoding="utf-8"?>
<!-- Generator: Adobe Illustrator 24.0.1, SVG Export Plug-In . SVG Version: 6.00 Build 0)  -->
<svg version="1.1" id="flag-icons-py" xmlns="http://www.w3.org/2000/svg" xmlns:xlink="http://www.w3.org/1999/xlink" x="0px"
	 y="0px" viewBox="0 0 800 480" style="enable-background:new 0 0 800 480;" xml:space="preserve">
<style type="text/css">
	.st0{fill:#0038A8;}
	.st1{fill:#FFFFFF;}
	.st2{fill:#D52B1E;}
	.st3{fill:none;stroke:#000000;stroke-width:1.6;stroke-miterlimit:5.8182;}
	.st4{fill:none;stroke:#000000;stroke-width:0.7273;stroke-miterlimit:5.8182;}
	.st5{fill:none;stroke:#000000;stroke-width:0.5818;stroke-miterlimit:5.8182;}
	.st6{fill:#009B3A;stroke:#000000;stroke-width:0.1;}
	.st7{fill:#FEDF00;stroke:#000000;stroke-width:0.4;}
</style>
<path class="st0" d="M0,319.7h800V480H0V319.7z"/>
<path class="st1" d="M0,160h800v160H0V160z"/>
<path class="st2" d="M0,0h800v160H0V0z"/>
<g transform="translate(-116.4) scale(1.45455)">
	<circle class="st3" cx="355" cy="165" r="42.2"/>
	<circle class="st4" cx="355" cy="165" r="34.7"/>
	<circle class="st5" cx="355" cy="165" r="26.6"/>
</g>
<path d="M367.3,263.7l-7.1,4.2l-2.2-3.7c-0.3-0.5-0.5-1-0.7-1.6c-0.1-0.4-0.1-0.9,0.1-1.3c0.2-0.4,0.5-0.7,1-1
	c0.4-0.2,0.7-0.3,1.1-0.3c0.4,0,0.8,0,1.1,0.2l0.8,0.6v-1.3l0.3-0.5l1.5-2.3l1.4,2.5l-1.4,2.4l-0.3,0.8l0.1,0.6l0.1,0.2l3-1.7
	L367.3,263.7z M361.8,264l-0.6-1l-0.4-0.5c-0.1-0.1-0.3-0.2-0.5-0.2c-0.2,0-0.3,0-0.5,0.1l-0.4,0.6c0,0.2,0.1,0.5,0.4,0.9l0.5,1
	L361.8,264z M355.1,258.5l-2.2-6.5l1.7-0.6l1.3,4.1l1.3-0.4l-1.3-3.8l1.6-0.5l1.3,3.7l1.5-0.5l-1.4-4.2l1.8-0.5l2.2,6.6L355.1,258.5
	z M352.2,248.8l-0.4-4.2c-0.2-1,0-1.6,0.4-2.1c0.4-0.6,1-0.9,1.8-1c0.8,0,1.5,0.1,2,0.6c0.5,0.4,0.8,1.2,1,2.2l0.1,1.4l3-0.4
	l0.4,2.6L352.2,248.8z M355.5,245.8l-0.1-0.6c0-0.5-0.2-0.8-0.4-1c-0.2-0.2-0.4-0.2-0.7-0.2c-0.2,0.1-0.5,0.2-0.6,0.4
	c-0.2,0.1-0.2,0.5-0.2,1l0.1,0.7L355.5,245.8z M352,233.3l0.3-2.6l4.8,0.6c0.5,0.1,1,0.2,1.4,0.4c0.4,0.2,0.8,0.4,1,0.8
	c0.4,0.3,0.5,0.7,0.6,1c0.2,0.6,0.2,1.2,0.1,1.9l-0.2,1.3c-0.1,0.5-0.3,0.8-0.5,1.1c-0.4,0.6-1.1,1.1-1.8,1.3h-1.4l-4.9-0.5l0.3-2.5
	l5,0.5c0.4,0,0.8,0,1-0.2c0.4-0.2,0.5-0.6,0.6-1c0-0.4-0.1-0.7-0.3-1c-0.2-0.4-0.6-0.5-1-0.6L352,233.3z M353,227.3l1.7-4.6
	c0.2-0.8,0.6-1.3,1.1-1.5c0.5-0.3,1.1-0.4,1.6-0.2c0.5,0.2,0.8,0.5,1,0.9c0.2,0.3,0.3,0.6,0.3,1c0.3-0.5,0.7-0.8,1.1-1
	c0.5-0.2,0.9-0.2,1.4,0c0.8,0.3,1.4,1,1.5,1.8v1l-0.3,1l-1.5,4.2L353,227.3z M357,225.9l0.4-1.1c0-0.4,0.1-0.7,0-0.8
	c0-0.2-0.2-0.4-0.4-0.5c-0.2-0.1-0.4-0.1-0.6,0c-0.2,0.2-0.4,0.4-0.5,0.8l-0.4,1L357,225.9z M360,226.9l0.5-1.2c0.1-0.4,0.2-0.7,0-1
	c-0.1-0.2-0.2-0.3-0.4-0.4c-0.2-0.1-0.5-0.1-0.7,0l-0.5,0.9l-0.4,1.2L360,226.9z M357,217.3l1.3-2.2l5.4,3.2l2-3.4l1.8,1l-3.4,5.6
	L357,217.3z M362,209.7l1.6-2l6.4,5.3l-1.6,2L362,209.7z M373.1,205.4l2.2-1c0.3,0.6,0.4,1.2,0.5,1.7c0,0.5-0.1,1-0.3,1.5
	c-0.3,0.6-0.7,1.1-1.2,1.5c-0.5,0.6-1.2,0.9-2,1.1c-0.7,0.2-1.3,0.2-2,0c-0.8-0.3-1.5-0.9-2-1.6c-1-1-1.4-2-1.3-3.1
	c0.1-1.1,0.7-2.2,1.6-2.9c0.6-0.6,1.4-0.9,2.3-1c0.7-0.1,1.5,0,2.3,0.5l-1.4,1.9c-0.2-0.1-0.4-0.2-0.6-0.3c-0.2-0.1-0.5-0.1-0.7,0
	c-0.2,0.1-0.4,0.2-0.6,0.4c-0.4,0.3-0.7,0.9-0.6,1.4c0,0.4,0.4,0.9,0.8,1.4c0.6,0.7,1.1,1.1,1.6,1.2c0.4,0,0.8,0,1.2-0.4
	c0.4-0.3,0.6-0.6,0.6-1S373.4,205.9,373.1,205.4L373.1,205.4z M381.9,202.2l-2.5,1.4l0.3,1.4l-2.3,1.2l-1.2-8.7l2.5-1.3l6.6,5.8
	l-2.4,1.3L381.9,202.2z M380.6,200.9l-2.2-2.2l0.6,3L380.6,200.9z M388.4,192.4l3.8-0.6c0.6-0.1,1.2-0.1,1.8,0
	c0.5,0.1,1,0.3,1.3,0.7s0.7,0.7,0.9,1.2c0.2,0.4,0.4,1,0.4,1.5c0.2,0.9,0.2,1.6,0.1,2c-0.1,0.5-0.3,1-0.6,1.4
	c-0.3,0.4-0.6,0.7-1,0.9c-0.5,0.2-1,0.4-1.5,0.5l-3.7,0.6L388.4,192.4z M391.3,193.8l0.8,4.5l0.6-0.1c0.5-0.1,0.9-0.2,1-0.4
	c0.3-0.1,0.4-0.4,0.5-0.7v-1.4c-0.2-0.9-0.5-1.4-0.8-1.7s-0.8-0.4-1.5-0.3L391.3,193.8z M399.1,191l6.8,0.3v1.8l-4.3-0.2l-0.1,1.3
	l4,0.2l-0.1,1.7l-4-0.2v1.6l4.4,0.2l-0.1,1.9l-7-0.3L399.1,191z M409.1,191.8l2.4,0.6l-1.5,6l4,1l-0.6,2l-6.3-1.6L409.1,191.8z
	 M422.3,196.2l3.7,2.2c0.8,0.4,1.3,1,1.4,1.6c0.2,0.6,0,1.3-0.3,2c-0.3,0.7-1,1.1-1.7,1.3c-0.6,0.1-1.4,0-2.3-0.6l-1.2-0.7l-1.6,2.6
	l-2.2-1.3L422.3,196.2z M422.7,200.6l0.6,0.3l1,0.3c0.3,0,0.5-0.2,0.6-0.4c0.1-0.2,0.1-0.5,0-0.7c0-0.3-0.2-0.5-0.6-0.8l-0.6-0.3
	L422.7,200.6z M429.9,210.2l-2.1-2l-1.2,0.7l-2-1.7l8-4l2,2l-3.4,8.1l-2-1.8L429.9,210.2z M430.7,208.5l1.4-2.8l-2.7,1.6
	L430.7,208.5z M431.7,214l6.9-4.7l2.3,3.5l1,1.7l-0.1,1.2c-0.2,0.5-0.6,0.9-1,1.1c-0.3,0.3-0.7,0.4-1,0.4c-0.4,0-0.8,0-1.2-0.2
	c-0.2,0-0.5-0.3-0.8-0.5l0.2,0.7l-0.2,0.6c0,0.2-0.1,0.4-0.2,0.6l-1.3,2.3l-1.6-2.3l1.3-2.6l0.3-0.7c0-0.3,0-0.5-0.2-0.7l-0.1-0.2
	l-2.8,2L431.7,214z M437.2,213.4l0.7,0.9l0.4,0.4c0.2,0.2,0.3,0.2,0.5,0.2c0.2,0,0.3,0,0.5-0.1c0.2-0.1,0.3-0.4,0.3-0.6
	c0-0.2,0-0.5-0.3-0.9l-0.7-0.9L437.2,213.4z M439.8,225.8l-1-2.8l-1.5,0.2l-1-2.5l8.9-0.1l1,2.6l-6.5,6l-1-2.6L439.8,225.8z
	 M441.3,224.6l2.4-2l-3.1,0.3L441.3,224.6z M443.4,233.6l1.7-0.2l0.6,3.9l-3.5,0.5c-0.5-0.5-1-1.1-1.3-1.8c-0.3-0.6-0.5-1.3-0.6-2
	c-0.2-0.8-0.1-1.7,0.1-2.5c0.3-0.6,0.7-1.2,1.3-1.6c0.6-0.5,1.4-0.8,2.2-0.9c0.8-0.1,1.6-0.1,2.4,0.2c0.7,0.3,1.3,0.8,1.7,1.4
	c0.4,0.6,0.6,1.3,0.8,2.2v2c-0.1,0.5-0.3,0.9-0.6,1.3c-0.3,0.4-0.7,0.6-1.2,0.9l-0.8-2.4c0.3-0.1,0.5-0.3,0.7-0.6s0.1-0.6,0-1
	c-0.1-0.5-0.3-0.9-0.7-1.2c-0.4-0.3-1-0.4-2-0.2c-0.6,0-1.2,0.3-1.7,0.7c-0.4,0.4-0.5,1-0.4,1.5c0,0.3,0.1,0.6,0.3,0.8l0.5,0.8h0.8
	L443.4,233.6z M448.8,245.6l-0.2,2.6l-5-0.4c-0.5-0.1-0.9-0.2-1.3-0.4c-0.4-0.2-0.7-0.5-1-0.8c-0.3-0.3-0.5-0.7-0.6-1.1
	c-0.2-0.6-0.2-1.2-0.2-1.8l0.2-1.3l0.5-1.2c0.2-0.3,0.5-0.6,0.8-0.8c0.3-0.2,0.6-0.3,1-0.4c0.5-0.1,0.9-0.2,1.4-0.2l5,0.5l-0.3,2.5
	l-5-0.4c-0.5,0-0.9,0-1.1,0.3c-0.3,0.2-0.5,0.6-0.5,1c0,0.4,0,0.8,0.3,1c0.2,0.3,0.5,0.5,1,0.5L448.8,245.6z M439.7,254.4l0.9-2.8
	l-1.2-0.8l0.8-2.5l7,5.6l-1,2.6l-8.8,0.4l0.9-2.5L439.7,254.4z M441.6,254.4l3,0.1l-2.5-1.8L441.6,254.4z M444.6,261.2l-1.5,2.4
	h-3.3l1.5,2.9l-1.4,2.4l-2.5-5.2l-3-1.8l1.4-2.2l3,1.8L444.6,261.2z"/>
<g>
	<path class="st6" d="M408.1,211.3c0,0,23.4,10.1,19.3,30.9c-4,20.8-17,20.6-22.2,23c-5,2.2-8.6,5.5-10.6,5c-2-0.4-4.7-2-4.7-2
		s-0.2,3.5,3.9,4c4.1,0.7,9.5-5.3,12-6c2.6-0.6,18.5-2.4,22.4-23.5C432.7,220.1,408.2,212,408.1,211.3L408.1,211.3z"/>
	<path class="st6" d="M419.9,215.8c0.2,1.6-0.1,2.2-0.7,1.5c-0.3-0.3-0.5-0.8-0.8-1.5c-0.6-1.6-0.9-3.4-0.6-4.1
		c0.2-0.7,0.9,0,1.5,1.5C419.6,214,419.8,215,419.9,215.8z"/>
	<path class="st6" d="M419.1,216c0.9,1.7,1.2,3.2,0.8,3.4c-0.4,0.1-1.4-1.1-2.2-2.9l0,0c-0.9-1.7-1.2-3.2-0.8-3.4
		C417.2,213,418.2,214.3,419.1,216z M416.8,217.5c1.6,0.5,2.8,1.3,2.5,1.7c-0.2,0.3-1.3,0.3-2.7-0.1c-1.6-0.5-2.8-1.3-2.5-1.7
		C414.3,217.1,415.4,217.1,416.8,217.5z"/>
	<path class="st6" d="M417.1,216.7c1.6,1.1,2.7,2.2,2.5,2.6c-0.2,0.4-1.6-0.2-3.2-1.3s-2.7-2.2-2.5-2.6
		C414.1,215.1,415.5,215.6,417.1,216.7z"/>
	<path class="st6" d="M418.1,216.3c1.3,1.3,2.1,2.6,1.8,2.9c-0.3,0.3-1.5-0.6-2.8-1.9c-1.3-1.3-2.1-2.6-1.8-2.9
		C415.6,214.1,416.8,215,418.1,216.3C418.1,216.3,418.1,216.3,418.1,216.3z"/>
	<path class="st6" d="M419.7,219.2l-1,0.6c-0.3,0-0.6-0.3-1.2,0s-1,0.9-1.1,1.2s0.2,0.5,0.9,0.1c0.7-0.3,0.9-0.9,1.2-1.1l1.3-0.7
		l0.8-1.3c0.3-0.4,1.2-1,1.6-1.8c0.3-0.6,0.2-1.1-0.2-0.9c-0.5,0.3-0.9,0.8-1.2,1.3c-0.2,0.4,0,1-0.3,1.4L419.7,219.2L419.7,219.2z
		 M427,221.6c0,2.9-0.4,5.1-1,5c-0.6-0.1-1.1-2.6-1.2-5.5c0-2.9,0.4-5.1,1-5S427,218.7,427,221.6L427,221.6z"/>
	<path class="st6" d="M425.8,221.5c0.6,2.9,0.6,5.3,0,5.4s-1.6-2.3-2.2-5.3c-0.6-2.8-0.6-5,0-5c0.6,0,1.5,2.2,2.1,5c0,0,0,0,0,0
		L425.8,221.5z"/>
	<path class="st6" d="M422,222.7c2.2,1.5,3.7,3.1,3.6,3.7c-0.2,0.6-2.1-0.1-4.3-1.5c-2.2-1.5-3.7-3.1-3.6-3.7
		C417.9,220.6,419.8,221.2,422,222.7z"/>
	<path class="st6" d="M422.8,221.6c1.8,2.2,3,4.4,2.6,4.8c-0.4,0.4-2.2-1-4-3.2l0,0c-1.8-2.2-2.9-4.3-2.5-4.7s2.1,1,3.9,3.2l0,0
		V221.6z"/>
	<path class="st6" d="M424.3,221.5c1.4,2.6,2.1,4.8,1.6,5.1c-0.5,0.3-2-1.6-3.4-4.1s-2.1-4.8-1.6-5.1
		C421.4,217.1,422.9,218.9,424.3,221.5C424.3,221.5,424.3,221.5,424.3,221.5z"/>
	<path class="st6" d="M425.6,226.4l-1.8,0.4c-0.3,0-0.6-0.7-1.5-0.5s-1.7,0.8-2,1.2c-0.2,0.4,0.1,0.8,1.2,0.6c1.2-0.2,1.6-1,2.2-1
		c0.5-0.2,1.4-0.4,2-0.4c0.2-0.4,1-1.2,1.5-1.6c0.5-0.5,2-1,2.7-1.8s0.7-1.6,0-1.5c-0.8,0.3-1.5,0.7-2,1.3c-0.5,0.6-0.4,1.5-0.9,2
		L425.6,226.4L425.6,226.4z M430.7,231.3c-0.5,2.8-1.3,4.8-1.8,4.5c-0.6-0.3-0.6-2.8-0.2-5.5l0,0c0.5-2.8,1.3-4.8,1.8-4.5
		C431.1,226,431.2,228.5,430.7,231.3z"/>
	<path class="st6" d="M429.6,231c0.1,2.8-0.2,5.1-0.7,5.3c-0.5,0.2-1.1-1.9-1.2-4.6c0-0.3,0-0.7,0-1c-0.1-2.8,0.2-5.1,0.7-5.3
		c0.5-0.2,1.1,1.9,1.2,4.6C429.6,230.3,429.6,230.7,429.6,231z"/>
	<path class="st6" d="M425.7,231.4c1.8,1.6,3.5,3.7,3.7,4.8s-1.1,0.6-2.9-1c-0.6-0.5-1.3-1.2-1.8-1.8c-1.8-1.6-3.5-3.7-3.7-4.8
		s1.1-0.6,2.9,1C424.5,230.1,425.1,230.8,425.7,231.4z"/>
	<path class="st6" d="M426.7,230.5c1.4,2.6,2.1,4.9,1.7,5.3s-2-1.4-3.4-4l0,0c-1.4-2.6-2.1-4.9-1.7-5.3
		C423.8,226.2,425.3,227.9,426.7,230.5C426.7,230.5,426.7,230.5,426.7,230.5z"/>
	<path class="st6" d="M428.1,230.7c0.9,2.7,1.1,5.1,0.6,5.3c-0.5,0.2-1.6-1.9-2.5-4.6c-0.9-2.8-1.2-5.3-0.6-5.5
		c0.6-0.2,1.7,2,2.6,4.8c0,0,0,0,0,0H428.1z"/>
	<path class="st6" d="M428.5,235.8h-1.7c-0.3,0-0.5-0.8-1.4-0.8c-0.8,0-1.5,0.3-2.1,0.8c-0.4,0.4-0.1,0.8,1,0.8s1.7-0.5,2.3-0.6h2
		l1.8-1.2c0.6-0.4,2.1-0.6,3-1.3c0.7-0.6,0.9-1.4,0.3-1.4c-0.8,0.1-1.6,0.4-2.3,0.9c-0.5,0.4-0.6,1.3-1.2,1.7
		c-0.4,0.2-1.6,1.1-1.7,1 M431,242.1c-1.5,2.3-3,3.8-3.4,3.4c-0.4-0.5,0.5-2.7,2-5.1s3-3.8,3.4-3.4
		C433.3,237.5,432.5,239.8,431,242.1"/>
	<path class="st6" d="M430.1,241.3c-1,2.7-2.3,4.6-2.8,4.3c-0.5-0.3-0.1-2.7,1-5.4s2.3-4.6,2.8-4.3
		C431.6,236.2,431.1,238.6,430.1,241.3L430.1,241.3 M426.4,240.1c1,2.7,1.5,5.3,1,5.7c-0.5,0.4-1.7-1.5-2.8-4.2l0,0
		c-1-2.7-1.5-5.3-1-5.7C424.1,235.5,425.4,237.4,426.4,240.1"/>
	<path class="st6" d="M427.6,239.7c0.3,2.9,0,5.3-0.5,5.4c-0.6,0.1-1.2-2.1-1.5-4.9l0,0c-0.3-2.9,0-5.3,0.5-5.4
		S427.3,236.8,427.6,239.7"/>
	<path class="st6" d="M429,240.4c-0.3,2.9-0.9,5.2-1.5,5.1c-0.6,0-0.8-2.4-0.5-5.2c0.3-2.9,0.9-5.2,1.5-5.1
		C429,235.2,429.3,237.5,429,240.4"/>
	<path class="st6" d="M427.3,245.3c0,0-1.4-0.5-1.6-0.7c-0.3-0.2-0.1-0.8-1-1.3c-0.7-0.3-1.5-0.3-2.2,0c-0.5,0-0.4,0.6,0.6,1
		c1,0.6,1.8,0.2,2.3,0.4l1.8,0.9c0.5-0.2,1.6-0.3,2.2-0.4c0.6-0.1,2.1,0.4,3.2,0c0.9-0.3,1.3-1,0.7-1.2c-0.8-0.2-1.5-0.2-2.3,0
		c-0.7,0.1-1.1,1-1.8,1C428.7,245,427.3,245.4,427.3,245.3 M428.2,253c-2.2,2.1-4.6,3.6-5.4,3.4c-0.8-0.2,0.3-2.1,2.4-4.1
		c0.6-0.6,1.2-1.1,1.9-1.6c2.1-2.1,4.6-3.7,5.6-3.7c1,0,0.1,1.8-2,3.9c-0.8,0.8-1.7,1.6-2.6,2.2"/>
	<path class="st6" d="M427.3,251.9c-2,2.5-3.9,4.1-4.3,3.6c-0.4-0.6,0.9-3,2.8-5.6c2-2.5,3.9-4.1,4.3-3.6
		C430.6,246.9,429.3,249.4,427.3,251.9L427.3,251.9"/>
	<path class="st6" d="M423.7,249.2c0.5,2.8,0.3,6-0.2,7.3c-0.6,1.2-1.4,0-1.9-2.8c-0.2-1.1-0.3-2.3-0.3-3.5c-0.5-2.8-0.3-6,0.2-7.3
		c0.6-1.2,1.4,0,1.9,2.8C423.6,246.8,423.7,248,423.7,249.2"/>
	<path class="st6" d="M425.1,249.2c-0.8,3-1.8,4.7-2.3,3.7c-0.3-0.6-0.3-2.1,0-3.9c0.4-3,1.4-6.3,2.2-7.3c0.8-1,1.2,0.7,0.8,3.7
		C425.7,246.6,425.4,247.9,425.1,249.2"/>
	<path class="st6" d="M426.3,250.4c-0.9,3-2.5,6.1-3.6,6.9c-1,0.9-1.1-0.8-0.1-3.8c0.4-1.3,1-2.7,1.6-3.9c0.9-3,2.5-6.1,3.6-6.9
		c1-0.9,1.1,0.8,0.1,3.8C427.5,247.8,426.9,249.2,426.3,250.4"/>
	<path class="st6" d="M423,255.3c-0.6-0.4-1.1-0.9-1.6-1.4c-0.2-0.3,0.1-1-0.7-1.8s-1.8-1-2.4-1c-0.6,0.1-0.6,0.7,0.3,1.6
		c1,1,2,0.8,2.4,1.2c0.6,0.4,1.4,1.1,1.7,1.6l2.6,0.4c0.7,0,2.2,1.1,3.5,1.1c1,0,1.8-0.5,1.2-1c-0.8-0.6-1.7-0.9-2.6-1
		c-0.8,0-1.5,0.8-2.2,0.6l-2.3-0.3 M420.6,262.6c-3.3,0.5-5.9,0.3-5.8-0.5c0.1-0.8,2.8-1.9,6.1-2.4c3.3-0.5,5.9-0.3,5.8,0.5
		C426.6,261,423.9,262.1,420.6,262.6"/>
	<path class="st6" d="M420.5,261c-3.3,1.3-6.1,1.7-6.2,1c-0.1-0.7,2.4-2.3,5.7-3.6c3.4-1.3,6.3-1.8,6.4-1c0.1,0.7-2.5,2.4-5.9,3.7
		l0,0"/>
	<path class="st6" d="M418.4,256.4c-1.5,2.9-3.2,4.6-3.7,3.9c-0.3-0.5,0-2.3,0.9-4.4c1.2-3,3.1-5.7,4.1-6.2s0.9,1.5-0.3,4.5
		C419.2,254.9,418.8,255.7,418.4,256.4"/>
	<path class="st6" d="M419.9,257.2c-2.5,2.8-5,4.8-5.6,4.3c-0.6-0.4,0.9-3,3.3-5.8l0,0c2.5-2.8,5-4.8,5.6-4.3
		C423.9,251.8,422.4,254.4,419.9,257.2"/>
	<path class="st6" d="M420.3,259.1c-2.7,2.2-5.7,3.9-6.6,3.7s0.5-2.1,3.3-4.4c0.6-0.5,1.2-0.9,1.8-1.4c2.9-2,5.2-3,5.1-2
		C423.8,255.8,422.4,257.4,420.3,259.1"/>
	<path class="st6" d="M414.4,261.7c-0.3-0.7-0.5-1.5-0.7-2.2c-0.1-0.4,0.6-0.8,0.3-2c-0.3-1-1-1.8-1.9-2.3c-0.5-0.3-0.9,0.2-0.5,1.6
		s1.4,1.9,1.7,2.6l0.8,2.4l2.2,1.9c0.6,0.5,1.5,2.4,2.7,3.1c1,0.7,2,0.5,1.8-0.2c-0.5-1-1.1-1.8-2-2.4c-0.7-0.6-1.8-0.3-2.5-0.8
		c-0.4-0.5-2-1.6-2-1.7"/>
	<path class="st6" d="M410.8,268c-3.3-0.2-5.3-1.1-4.5-2.1c0.5-0.7,2.3-1.2,4.5-1.4c3.3,0.2,5.3,1.1,4.5,2.1
		C414.8,267.3,413,267.8,410.8,268"/>
	<path class="st6" d="M410,262.5c-2.2,2.8-4.6,4.6-5.3,4c-0.7-0.6,0.4-3.4,2.6-6.2c2.1-2.8,4.4-4.5,5.2-3.9c0.7,0.6-0.4,3.3-2.6,6.1
		"/>
	<path class="st6" d="M410.8,265.3c-3.2,1.4-6.1,1.8-6.5,0.9c-0.3-0.9,2-2.8,5.3-4.2l0,0c3.2-1.4,6.1-1.8,6.5-0.9
		C416.4,262,414,263.9,410.8,265.3L410.8,265.3 M412.5,211.9c1.5,1.4,2.3,2.6,1.7,2.7c-0.5,0.1-1.9-0.7-3.2-1.9
		c-1.6-1.4-2.6-2.8-2.4-3.1c0.3-0.3,1.8,0.5,3.4,1.9C412.2,211.6,412.3,211.8,412.5,211.9 M410.6,213.4c2.1,0.4,3.4,1,2.9,1.4
		c-0.3,0.2-1.3,0.3-2.6,0.2c-2-0.1-4.2-0.7-4.8-1.2c-0.6-0.5,0.5-0.8,2.5-0.7C409.2,213.2,409.9,213.3,410.6,213.4"/>
	<path class="st6" d="M411.4,212.4c2.1,1.1,3.7,2.3,3.5,2.6c-0.2,0.4-2.1-0.2-4.3-1.3s-3.7-2.3-3.5-2.6
		C407.3,210.7,409.3,211.3,411.4,212.4L411.4,212.4 M383.7,262c0,0,5.1,1.1,9.6,2.7c4.5,1.7,11.3,7.2,13.1,7.6c2,0,4.9-0.7,6-3.6
		c-3.2,0.8-5,2.1-8,0.5c-1.1-0.4-4.6-3.6-8.5-5.3c-3.8-1.7-11.5-3.6-11.5-3.6L383.7,262 M389.2,215.5l5.9-3.1l-6.5,1.7l-0.8,1.1
		L389.2,215.5"/>
	<path class="st6" d="M394.8,217c-2.3-0.5-5.8-1.3-8-1.4c1.5-1.7,3.6-4.7,5-6.4c-1,1.7-2.3,4-2.8,5.5
		C390.5,215.6,393,216.3,394.8,217"/>
	<path class="st6" d="M388.1,215.9c1.8-1.4,3.5-2.8,5.3-4.1l-6.1,2.7l-0.6,1.3h1.4"/>
	<path class="st6" d="M393.7,216.9c-2.3-0.5-5.8-1.3-8-1.5c1.4-1.7,3.5-4.7,4.8-6.6c-0.8,1.8-2.2,4.1-2.7,5.8
		C389.4,215.5,391.9,216.2,393.7,216.9"/>
	<path class="st6" d="M387.3,216.2l6.1-2.6l-6.6,1.1l-0.9,1l1.3,0.5"/>
	<path class="st6" d="M393,217c-2.3-0.3-6-0.7-8.2-0.6c1.3-2,3-5.3,4.1-7.3c-0.6,1.9-1.7,4.4-2,6.1c1.7,0.8,4.3,1.2,6.1,1.7"/>
	<path class="st6" d="M386.6,216.2l4.2-5l-5.3,3.9l-0.3,1.3L386.6,216.2"/>
	<path class="st6" d="M393,217.3c-2.5,0-6.4-0.3-8.8,0c1.2-2.3,2.7-6,3.6-8.3c-0.4,2.1-1.3,5-1.4,6.9
		C388.2,216.5,391,216.9,393,217.3"/>
	<path class="st6" d="M385.8,217.4l5-4.9l-6.1,3.5l-0.4,1.4H385.8"/>
	<path class="st6" d="M391.9,217.4c-2.7,0-6.8-0.1-9.5,0.2c1.8-2.5,4.2-6.6,5.6-9.1c-1,2.3-2.4,5.4-3,7.5
		C386.9,216.7,389.8,217,391.9,217.4"/>
	<path class="st6" d="M384,217.8l6.6-5.5l-7.4,3.9l-0.8,1.6H384"/>
	<path class="st6" d="M391,217.6c-2.7,0.4-6.9,0.8-9.4,1.5c1.3-2.7,3.1-7,4.2-9.7c-0.6,2.4-1.7,5.6-2,7.8
		C385.8,217.6,388.8,217.5,391,217.6"/>
	<path class="st6" d="M383.2,218.9l5-7l-6.3,5.7l-0.3,1.7L383.2,218.9"/>
	<path class="st6" d="M389.4,218.4c-2.6,0.3-6.8,0.5-9.4,1c1.5-2.6,3.5-6.8,4.8-9.4c-0.8,2.3-2,5.5-2.4,7.7
		C384.4,218.2,387.4,218.2,389.4,218.4"/>
	<path class="st6" d="M382.3,219.6l6.4-5.5l-7.3,3.9l-0.7,1.6H382.3"/>
	<path class="st6" d="M388.7,218.7c-2.7,0.6-6.9,1.3-9.4,2.1c1.2-2.7,2.8-7.1,3.8-9.8c-0.5,2.4-1.4,5.6-1.6,7.8
		C383.5,219.1,386.5,218.8,388.7,218.7"/>
	<path class="st6" d="M381.2,220l4-7.7l-5.4,6.6l-0.1,1.7L381.2,220"/>
	<path class="st6" d="M388.7,219.1c-3,0.8-7.4,1.8-10,2.8c1-3.1,2.1-8,2.9-11.1c-0.3,2.7-0.9,6.3-0.8,8.8c2.3,0.2,5.5-0.3,7.8-0.5"
		/>
	<path class="st6" d="M380.4,221.7l5.2-7.6l-6.6,6.1l-0.3,2L380.4,221.7"/>
	<path class="st6" d="M387.5,220c-2.8,0.9-7.2,2.1-9.8,3.3c0.8-3.2,1.8-8.1,2.4-11.2c-0.1,2.7-0.5,6.3-0.3,8.7
		C382,220.9,385.2,220.2,387.5,220"/>
	<path class="st6" d="M379.4,222.8l3.9-8.4l-5.6,7.2v2L379.4,222.8"/>
	<path class="st6" d="M386.4,221.2c-2.8,0.6-7.3,1.5-10,2.4c1.1-3,2.5-8,3.4-11c-0.4,2.7-1.1,6.4-1.1,8.7c2.2,0.3,5.4-0.1,7.7-0.2"
		/>
	<path class="st6" d="M378.4,223.6l6.4-6.6l-7.5,4.9l-0.6,1.8L378.4,223.6"/>
	<path class="st6" d="M385.2,222.3c-2.9,0.4-7.3,0.8-10,1.5c1.3-3,3-7.8,4-10.8c-0.6,2.7-1.5,6.3-1.7,8.7
		C379.7,222.2,382.9,222.1,385.2,222.3"/>
	<path class="st6" d="M377.2,223l4.3-8.3l-5.9,7v1.9l1.6-0.7"/>
	<path class="st6" d="M385.5,221.3c-3,1.3-8,3-10.9,4.6c1-3.7,2-9.5,2.6-13.1c0,3.1-0.5,7.4-0.3,10.1
		C379.4,222.9,382.9,221.8,385.5,221.3"/>
	<path class="st6" d="M376.6,225.4l5.2-9.4l-6.9,8l-0.2,2.2L376.6,225.4"/>
	<path class="st6" d="M384.3,222.5c-3,1.4-7.8,3.4-10.6,5.1c0.8-3.6,1.5-9.5,2-13c0,3-0.2,7.3,0.1,10
		C378.3,224.3,381.8,223.1,384.3,222.5"/>
	<path class="st6" d="M375.5,226.8l3.8-10.1l-5.7,9l0.2,2.3L375.5,226.8"/>
	<path class="st6" d="M383,223.3c-3,1.5-7.8,3.5-10.6,5.3c0.7-3.7,1.4-9.5,1.9-13.1c0,3-0.2,7.3,0.2,10
		C377,225.2,380.5,223.9,383,223.3"/>
	<path class="st6" d="M374.7,228l5.8-8.9l-7.4,7.3l-0.3,2.2L374.7,228"/>
	<path class="st6" d="M382.7,222.8c-2.7,2.2-7,5.4-9.4,7.8c0-3.8-0.5-9.5-0.8-13c0.6,2.9,1.3,7,2.3,9.5c2.4-0.9,5.5-3,8-4.2"/>
	<path class="st6" d="M375,228.5l0.6-10.7l-2.8,10.4l0.8,2L375,228.5"/>
	<path class="st6" d="M382,223.8c-2.8,2.2-7,5.3-9.5,7.7c0-3.7-0.5-9.5-0.8-13c0.7,3,1.3,7,2.3,9.5C376.4,227.2,379.5,225,382,223.8
		"/>
	<path class="st6" d="M374.3,230.3l2.7-10.5l-4.7,9.6l0.3,2.2L374.3,230.3"/>
	<path class="st6" d="M381.6,224c-2.5,2.6-6.6,6.4-8.9,9c-0.4-3.7-1.5-9.6-2.2-13.2c1,3,2.1,7.1,3.4,9.5c2.3-1.1,5.4-3.6,7.7-5.2"/>
	<path class="st6" d="M374.3,231.6l0.5-11.1l-2.7,10.8l0.8,2L374.3,231.6"/>
	<path class="st6" d="M380.8,226c-2.7,2.2-7,5.5-9.6,8c0-3.8-0.7-9.8-1-13.5c0.7,3,1.5,7.3,2.5,9.9c2.5-1,5.7-3.1,8.1-4.5"/>
	<path class="st6" d="M373.5,232.9l3.8-10.5l-5.8,9.3l0.2,2.3L373.5,232.9"/>
	<path class="st6" d="M380.8,226c-2.5,2.5-6.3,6.4-8.5,9.1c-0.4-3.8-1.5-9.8-2.1-13.4c1,3,2,7.2,3.2,9.6
		C375.7,230.1,378.5,227.6,380.8,226"/>
	<path class="st6" d="M373.6,233.4l-0.4-11l-1.8,11l1,1.9L373.6,233.4"/>
	<path class="st6" d="M379.6,226.8c-2.4,2.6-6.1,6.5-8.2,9.3c-0.5-4-1.8-9.8-2.5-13.5c1,3,2.3,7.2,3.5,9.6
		C374.6,231,377.4,228.4,379.6,226.8"/>
	<path class="st6" d="M373,234.5l1.2-11.2l-3.3,10.6l0.7,2.2L373,234.5"/>
	<path class="st6" d="M379,227.2c-2,2.9-5.5,7-7.4,10c-0.8-3.8-2.5-9.5-3.5-13c1.3,2.8,2.8,6.8,4.2,9.1c2.1-1.4,4.7-4.2,6.8-6"/>
	<path class="st6" d="M373,235.6l-0.8-11.3l-1.4,11.2l1,2l1.1-2"/>
	<path class="st6" d="M378.9,227.9c-2,3-5.3,7.3-7,10.4c-1-3.8-3-9.5-4.2-13c1.4,2.8,3.1,6.8,4.7,9
		C374.4,232.8,376.9,229.8,378.9,227.9"/>
	<path class="st6" d="M373.6,236.6l1.2-11.3l-3.2,10.6l0.6,2.3L373.6,236.6"/>
	<path class="st6" d="M378.4,229c-1.7,3.1-4.5,8-6,11.3c-1.3-3.6-3.8-9-5.3-12.4c1.7,2.6,3.7,6.3,5.5,8.4
		C374.5,234.5,376.6,231.1,378.4,229"/>
	<path class="st6" d="M373.3,237.6l-3.2-10.8l1,11.3l1.5,1.6l0.6-2.1"/>
	<path class="st6" d="M378.4,230.2c-1.8,3.2-4.8,8-6.3,11.3c-1.3-3.6-3.8-9-5.4-12.3c1.7,2.6,3.8,6.3,5.6,8.3
		C374.3,235.7,376.5,232.4,378.4,230.2"/>
	<path class="st6" d="M373.4,239.6l-1.2-11.3l-1,11.3l1.1,2L373.4,239.6"/>
	<path class="st6" d="M378.6,231.2c-1.9,3.1-5,7.9-6.5,11.1c-1.3-3.6-3.7-9-5.2-12.4c1.7,2.6,3.7,6.4,5.5,8.4
		C374.4,236.6,376.7,233.3,378.6,231.2"/>
	<path class="st6" d="M373.3,240.5l-2.1-11l-0.1,11.2l1.3,1.8L373.3,240.5"/>
	<path class="st6" d="M377.8,232.8c-2,3-5.3,7.5-7,10.7c-1.1-3.7-3.3-9.4-4.6-12.8c1.5,2.7,3.4,6.6,5,8.8
		C373.3,237.9,375.8,234.8,377.8,232.8"/>
	<path class="st6" d="M372.3,241.7l1-11.3l-3.1,10.7l0.7,2.2L372.3,241.7"/>
	<path class="st6" d="M377.9,233c-1.7,3.3-4.6,8.3-6,11.6c-1.4-3.5-4-8.8-5.7-12c1.8,2.4,4,6,5.8,8c2-1.9,4-5.3,5.9-7.5"/>
	<path class="st6" d="M372,242.7l-3.5-10.6l1.3,11.2l1.5,1.6l0.6-2.2"/>
	<path class="st6" d="M377.4,233.9c-1.2,3.6-3.2,9-4,12.7c-2-3.2-5.5-7.8-7.6-10.7c2.1,2.1,4.9,5.2,7,6.7
		C374.4,240.3,376,236.6,377.4,233.9"/>
	<path class="st6" d="M375,243.5l-3.7-10.4l1.6,11.2l1.5,1.4L375,243.5"/>
	<path class="st6" d="M377.4,235c-1.2,3.6-3.2,9.1-4,12.7c-2-3.2-5.4-7.7-7.6-10.5c2.1,2,4.9,5,7,6.6
		C374.4,241.5,376,237.7,377.4,235"/>
	<path class="st6" d="M375,245.3l-4.8-9.7l2.8,10.8l1.7,1.2l0.4-2.3"/>
	<path class="st6" d="M377,235.9c-0.7,3.7-2,9.5-2.5,13.2c-2.3-2.9-6.3-7-8.7-9.4c2.3,1.7,5.4,4.4,7.7,5.5
		C374.8,242.7,375.9,238.7,377,235.9"/>
	<path class="st6" d="M375.4,246.8l-2.6-10.9l0.4,11.3l1.4,1.7l0.8-2"/>
	<path class="st6" d="M377,237c-0.4,3.9-1.2,9.8-1.2,13.5c-2.6-2.5-6.9-6-9.5-8.1c2.4,1.4,5.7,3.6,8.1,4.4
		C375.4,244.2,376.2,240,377,237"/>
	<path class="st6" d="M375.5,247.6l-6.9-7.8l5.2,9.5l2,0.6L375.5,247.6"/>
	<path class="st6" d="M377.2,238.4c-0.4,3.8-1.2,9.7-1.3,13.4c-2.6-2.5-6.9-6-9.5-8.2c2.5,1.4,5.8,3.7,8.1,4.5
		C375.6,245.5,376.3,241.3,377.2,238.4"/>
	<path class="st6" d="M376.3,249.4L371,240l3.3,10.7l1.7,1.1l0.3-2.3"/>
	<path class="st6" d="M377.5,240c-0.3,3.8-0.8,9.7-0.8,13.5c-3.1-2.7-6.4-5.2-9.8-7.6c2.6,1.2,6,3.3,8.3,4c1-2.7,1.6-7,2.3-10"/>
	<path class="st6" d="M377,251.2l-6.6-8.3l4.8,9.8l1.8,0.8L377,251.2"/>
	<path class="st6" d="M377.6,241.8c-0.3,3.8-0.8,9.7-0.7,13.5c-2.7-2.4-7.1-5.6-9.9-7.6c2.6,1.3,6,3.3,8.4,4c1-2.7,1.5-7,2.2-10"/>
	<path class="st6" d="M377.5,252.6l-4.5-10l2.5,11l1.6,1.3L377.5,252.6"/>
	<path class="st6" d="M377.7,242.9c0.2,3.9,0.2,9.8,0.6,13.6c-3.4-2.2-6.8-4.3-10.4-6.2c2.6,0.9,6.1,2.4,8.6,2.8
		C377.2,250.2,377.3,246,377.7,242.9"/>
	<path class="st6" d="M378.3,252.2l-8.3-5.7l7,7.8l2,0.1L378.3,252.2"/>
	<path class="st6" d="M378,243.3c0.3,3.9,0.7,9.8,1.3,13.5c-3-1.9-7.8-4.3-10.8-5.8c2.7,0.8,6.3,2.2,8.8,2.5
		C377.8,250.6,377.7,246.4,378,243.3"/>
	<path class="st6" d="M379.3,254.3l-7-8l5.3,9.6l1.9,0.7l-0.3-2.3"/>
	<path class="st6" d="M378.6,244.8c0.5,3.8,1,9.7,1.9,13.4c-3-1.7-8-3.8-11-5.1c2.7,0.6,6.4,1.8,8.8,2
		C378.7,252.1,378.5,247.9,378.6,244.8"/>
	<path class="st6" d="M380.6,255.7l-8.3-5.9l7,8l2,0.1L380.6,255.7"/>
	<path class="st6" d="M378.9,246.4c0.7,3.8,1.7,9.7,2.7,13.3c-3.1-1.5-8.2-3.1-11.3-4.1c2.8,0.3,6.5,1.2,9,1
		C379.5,253.7,379,249.6,378.9,246.4"/>
	<path class="st6" d="M381.6,256.9l-7-8.2l5.2,9.7l2,0.8L381.6,256.9"/>
	<path class="st6" d="M379.3,247.4c1.1,3.7,2.6,9.5,4,13c-3.3-1-8.4-2-11.6-2.6c2.8,0,6.5,0.3,9-0.1
		C380.7,254.7,379.7,250.6,379.3,247.4"/>
	<path class="st6" d="M382,256.9l-9.7-2l9.1,4.5l1.9-0.7l-1.4-1.8"/>
	<path class="st6" d="M380,248.6c1,3.7,2.5,9.4,3.8,12.9c-3.2-1-8.3-2-11.5-2.6c2.8,0,6.5,0.3,9,0
		C381.3,255.9,380.3,251.7,380,248.6"/>
	<path class="st6" d="M383.5,257.9l-9.2-4.5l8.2,6.7l2-0.2L383.5,257.9"/>
	<path class="st6" d="M379.5,249.2c1.8,3.4,4.5,8.7,6.5,11.7c-3.4-0.2-8.6,0-11.8,0c2.7-0.5,6.4-1,8.7-2
		C382.2,256,380.5,252.2,379.5,249.2"/>
	<path class="st6" d="M385,258.9l-9.6-2.6l9,5l1.8-0.5l-1.3-2"/>
	<path class="st6" d="M380.4,250.7c1.9,3.3,4.6,8.6,6.7,11.6c-3.4-0.2-8.6,0-11.8,0.2c2.6-0.7,6.4-1.2,8.6-2.2
		c-0.6-2.9-2.4-6.7-3.4-9.6"/>
	<path class="st6" d="M386.1,259.7l-8.9-5.3l7.8,7.4h2L386.1,259.7"/>
	<path class="st6" d="M381.2,251.5c2.1,3.1,5.3,8,7.6,10.9c-3.9,0.3-7.8,0.9-11.6,1.7c2.6-1,6.2-2,8.4-3.3
		C384.6,258,382.5,254.3,381.2,251.5"/>
	<path class="st6" d="M386.8,260.5l-9.6-0.3l9.5,2.9l1.7-1.1L386.8,260.5 M392.4,213.9l6.9-1.1l-6.9,0.1l-1.2,0.6L392.4,213.9"/>
	<path class="st6" d="M396.2,215.4c-2-0.6-5-1.6-7.1-2l7.4-3.5c-1.5,1-3.8,2.2-5,3.2C392.7,213.9,394.8,214.7,396.2,215.4"/>
	<path class="st6" d="M392,214.1l6.8-1.8l-7,0.9l-1,0.7L392,214.1"/>
	<path class="st6" d="M396.5,215.9c-2.4-0.3-6-0.7-8.3-0.7c1.8-1.6,4.2-4.1,5.7-5.7c-1,1.5-2.6,3.4-3.3,4.8
		C392.2,215,394.7,215.4,396.5,215.9"/>
	<path class="st6" d="M389.6,214.6l7-0.8l-6.8-0.2l-1.3,0.6L389.6,214.6"/>
	<path class="st6" d="M394.7,216.1l-7.5-1.3l6.9-3.8c-1.4,1-3.4,2.4-4.4,3.4C391,215,393.2,215.6,394.7,216.1"/>
	<path class="st6" d="M389,214.6l6.1-2.7l-6.7,1.8l-0.8,0.8L389,214.6"/>
	<path class="st6" d="M394.5,216.9c-1.7-0.7-4.5-2-6.2-2.5l4.4-4.8c-0.8,1.3-2,3-2.6,4.4C391.3,215,393.1,216,394.5,216.9"/>
	<path class="st6" d="M389.3,215l4.8-2l-5.2,0.6l-0.6,1L389.3,215 M385.3,259.6h-9.8l10,2.5l1.6-1L385.3,259.6"/>
	<path class="st6" d="M387.1,260.2l-10-2.3l9.6,4.7l2-0.6L387.1,260.2"/>
	<path class="st6" d="M388.8,260.9l-10-0.5l10,3l1.7-1L388.8,260.9"/>
	<path class="st6" d="M382.5,253.9c2.5,2.8,6.4,7.4,9.1,9.9c-3.3,0.5-8.3,1.8-11.4,2.7c2.4-1.2,6-2.6,8-4
		C386.8,259.9,384.2,256.5,382.5,253.9"/>
	<path class="st6" d="M390.1,261.4l-10-3.3l9.4,5.6l2-0.4L390.1,261.4"/>
	<path class="st6" d="M383.4,254.5c2.8,2.6,7,6.7,10,9c-3.2,0.9-8,2.8-11,4c2.3-1.4,5.6-3.2,7.4-5
		C388.2,260.1,385.3,257,383.4,254.5"/>
	<path class="st6" d="M391,262l-9.5,1.9l10,0.6l1.4-1.3l-2-1.2"/>
	<path class="st6" d="M389,261.4l-9.8,0.8l10.1,1.7l1.6-1.2L389,261.4"/>
	<path class="st6" d="M390.8,262l-10.2-1.7l10,4l1.8-0.7l-1.6-1.7L390.8,262z"/>
	<path class="st6" d="M392.5,262.5l-10,0.2l10.2,2.3l1.6-1.1L392.5,262.5L392.5,262.5z"/>
	<path class="st6" d="M385.7,256c2.8,2.6,7,6.8,9.9,9.2c-3.3,0.7-8.3,2.4-11.3,3.4c2.4-1.3,5.8-2.9,7.7-4.5
		C390.4,261.6,387.6,258.4,385.7,256L385.7,256z"/>
	<path class="st6" d="M393.9,262.9l-10.2-2.6l9.8,5l1.9-0.6L393.9,262.9L393.9,262.9z"/>
	<path class="st6" d="M386.6,256.5c3,2.4,7.6,6.2,10.7,8.2c-3.2,1.1-7.8,3.5-10.6,4.9c2.2-1.7,5.3-3.7,7-5.5c-1.8-2.4-5-5.3-7-7.6
		H386.6z"/>
	<path class="st6" d="M394.8,263.4l-9.3,2.6h10l1.3-1.5l-2-1V263.4z"/>
</g>
<path class="st7" d="M407.6,249.5l-7.6-5.3l-7.6,5.3l2.9-8.4l-6.7-5.2h8.6l2.8-8.4l2.8,8.4h8.6l-6.7,5.2L407.6,249.5L407.6,249.5z"
	/>
</svg>
