<?xml version="1.0" encoding="utf-8"?>
<!-- Generator: Adobe Illustrator 24.0.1, SVG Export Plug-In . SVG Version: 6.00 Build 0)  -->
<svg version="1.1" id="flag-icons-rs" xmlns="http://www.w3.org/2000/svg" xmlns:xlink="http://www.w3.org/1999/xlink" x="0px"
	 y="0px" viewBox="0 0 800 480" style="enable-background:new 0 0 800 480;" xml:space="preserve">
<style type="text/css">
	.st0{fill:#FFFFFF;}
	.st1{fill:#0C4076;}
	.st2{fill:#C6363C;}
	.st3{fill-rule:evenodd;clip-rule:evenodd;fill:#EDB92E;stroke:#21231E;stroke-width:0.57;stroke-miterlimit:23.1068;}
	.st4{fill-rule:evenodd;clip-rule:evenodd;fill:#EDB92E;stroke:#21231E;stroke-width:0.57;stroke-miterlimit:22.9253;}
	
		.st5{fill-rule:evenodd;clip-rule:evenodd;fill:#EDB92E;stroke:#21231E;stroke-width:0.57;stroke-linejoin:round;stroke-miterlimit:22.9253;}
	.st6{fill-rule:evenodd;clip-rule:evenodd;fill:#EDB92E;stroke:#21231E;stroke-width:0.57;stroke-miterlimit:22.926;}
	.st7{fill-rule:evenodd;clip-rule:evenodd;fill:#21231E;}
	.st8{fill-rule:evenodd;clip-rule:evenodd;fill:#EDB92E;stroke:#21231E;stroke-width:0.57;stroke-miterlimit:24.8269;}
	.st9{fill-rule:evenodd;clip-rule:evenodd;fill:#FFFFFF;stroke:#21231E;stroke-width:0.5699;stroke-miterlimit:22.9255;}
	.st10{fill-rule:evenodd;clip-rule:evenodd;fill:#FFFFFF;stroke:#21231E;stroke-width:0.5701;stroke-miterlimit:22.9253;}
	.st11{fill-rule:evenodd;clip-rule:evenodd;fill:#EDB92E;stroke:#21231E;stroke-width:0.5702;stroke-miterlimit:22.9255;}
	.st12{fill-rule:evenodd;clip-rule:evenodd;fill:#EDB92E;stroke:#21231E;stroke-width:0.5709;stroke-miterlimit:22.961;}
	.st13{fill-rule:evenodd;clip-rule:evenodd;fill:#FFFFFF;stroke:#21231E;stroke-width:0.57;stroke-miterlimit:22.9775;}
	.st14{fill-rule:evenodd;clip-rule:evenodd;fill:#EDB92E;stroke:#21231E;stroke-width:0.5709;stroke-miterlimit:24.0406;}
	.st15{fill-rule:evenodd;clip-rule:evenodd;fill:#FFFFFF;stroke:#21231E;stroke-width:0.57;stroke-miterlimit:24.0581;}
	.st16{fill-rule:evenodd;clip-rule:evenodd;fill:#FFFFFF;stroke:#21231E;stroke-width:0.57;stroke-miterlimit:22.9253;}
	
		.st17{fill-rule:evenodd;clip-rule:evenodd;fill:#EDB92E;stroke:#21231E;stroke-width:0.57;stroke-linejoin:round;stroke-miterlimit:22.9779;}
	.st18{fill-rule:evenodd;clip-rule:evenodd;fill:#EDB92E;stroke:#21231E;stroke-width:0.5705;stroke-miterlimit:22.926;}
	.st19{fill-rule:evenodd;clip-rule:evenodd;fill:#EDB92E;stroke:#21231E;stroke-width:0.5701;stroke-miterlimit:22.926;}
	.st20{fill-rule:evenodd;clip-rule:evenodd;fill:#FFFFFF;stroke:#21231E;stroke-width:0.5701;stroke-miterlimit:22.9255;}
	.st21{fill-rule:evenodd;clip-rule:evenodd;fill:#EDB92E;stroke:#21231E;stroke-width:0.5699;stroke-miterlimit:22.9253;}
	.st22{fill-rule:evenodd;clip-rule:evenodd;fill:#0C4076;stroke:#21231E;stroke-width:0.57;stroke-miterlimit:22.926;}
	.st23{fill-rule:evenodd;clip-rule:evenodd;fill:#EDB92E;stroke:#21231E;stroke-width:0.5699;stroke-miterlimit:22.9681;}
	.st24{fill-rule:evenodd;clip-rule:evenodd;fill:#C6363C;stroke:#21231E;stroke-width:0.5689;stroke-miterlimit:22.926;}
	.st25{fill-rule:evenodd;clip-rule:evenodd;fill:#0C4076;stroke:#21231E;stroke-width:0.57;stroke-miterlimit:22.9253;}
	.st26{fill-rule:evenodd;clip-rule:evenodd;fill:#EDB92E;stroke:#21231E;stroke-width:0.5706;stroke-miterlimit:22.926;}
	
		.st27{fill-rule:evenodd;clip-rule:evenodd;fill:#EDB92E;stroke:#21231E;stroke-width:0.5706;stroke-linejoin:round;stroke-miterlimit:22.926;}
	.st28{fill-rule:evenodd;clip-rule:evenodd;fill:#EDB92E;stroke:#21231E;stroke-width:0.5664;stroke-miterlimit:22.926;}
	.st29{fill-rule:evenodd;clip-rule:evenodd;fill:#EDB92E;stroke:#21231E;stroke-width:0.566;stroke-miterlimit:22.926;}
	.st30{fill-rule:evenodd;clip-rule:evenodd;fill:#0C4076;stroke:#21231E;stroke-width:0.57;stroke-miterlimit:23.1911;}
	.st31{fill-rule:evenodd;clip-rule:evenodd;fill:#0C4076;stroke:#21231E;stroke-width:0.5701;stroke-miterlimit:22.9255;}
	.st32{fill-rule:evenodd;clip-rule:evenodd;fill:#EDB92E;stroke:#21231E;stroke-width:0.5702;stroke-miterlimit:22.9253;}
	.st33{fill-rule:evenodd;clip-rule:evenodd;fill:#FFFFFF;stroke:#21231E;stroke-width:0.57;stroke-miterlimit:22.9255;}
	
		.st34{fill-rule:evenodd;clip-rule:evenodd;fill:#EDB92E;stroke:#21231E;stroke-width:0.57;stroke-linejoin:round;stroke-miterlimit:30.8041;}
	.st35{fill-rule:evenodd;clip-rule:evenodd;fill:#EDB92E;stroke:#21231E;stroke-width:0.5699;stroke-miterlimit:22.9255;}
	.st36{fill-rule:evenodd;clip-rule:evenodd;fill:#0C4076;stroke:#21231E;stroke-width:0.57;stroke-miterlimit:22.9255;}
	.st37{fill-rule:evenodd;clip-rule:evenodd;fill:#EDB92E;stroke:#21231E;stroke-width:0.5774;stroke-miterlimit:22.926;}
	.st38{fill-rule:evenodd;clip-rule:evenodd;fill:#EDB92E;stroke:#21231E;stroke-width:0.5422;stroke-miterlimit:22.926;}
	.st39{fill-rule:evenodd;clip-rule:evenodd;fill:#EDB92E;stroke:#21231E;stroke-width:0.5786;stroke-miterlimit:22.926;}
	.st40{fill:none;stroke:#21231E;stroke-width:0.573;stroke-linecap:round;stroke-miterlimit:22.926;}
	.st41{fill:#C6363C;stroke:#FFFFFF;stroke-width:1.14;stroke-miterlimit:22.926;}
	.st42{fill-rule:evenodd;clip-rule:evenodd;fill:#FFFFFF;stroke:#21231E;stroke-width:0.5701;stroke-miterlimit:22.926;}
	.st43{fill-rule:evenodd;clip-rule:evenodd;fill:#FFFFFF;stroke:#21231E;stroke-width:0.5478;stroke-miterlimit:22.926;}
	.st44{fill-rule:evenodd;clip-rule:evenodd;fill:#FFFFFF;stroke:#21231E;stroke-width:0.5187;stroke-miterlimit:22.926;}
	.st45{fill-rule:evenodd;clip-rule:evenodd;fill:#FFFFFF;stroke:#21231E;stroke-width:0.5696;stroke-miterlimit:23.929;}
	.st46{fill-rule:evenodd;clip-rule:evenodd;fill:#FFFFFF;stroke:#21231E;stroke-width:0.5637;stroke-miterlimit:22.926;}
	.st47{fill-rule:evenodd;clip-rule:evenodd;fill:#FFFFFF;stroke:#21231E;stroke-width:0.57;stroke-miterlimit:22.926;}
	.st48{fill-rule:evenodd;clip-rule:evenodd;fill:#FFFFFF;stroke:#21231E;stroke-width:0.5533;stroke-miterlimit:22.926;}
	.st49{fill-rule:evenodd;clip-rule:evenodd;fill:#FFFFFF;stroke:#21231E;stroke-width:0.5623;stroke-miterlimit:22.926;}
	.st50{fill-rule:evenodd;clip-rule:evenodd;fill:#FFFFFF;stroke:#21231E;stroke-width:0.5681;stroke-miterlimit:22.926;}
	
		.st51{fill-rule:evenodd;clip-rule:evenodd;fill:#EDB92E;stroke:#21231E;stroke-width:0.5658;stroke-linejoin:round;stroke-miterlimit:22.926;}
	.st52{fill-rule:evenodd;clip-rule:evenodd;fill:#EDB92E;stroke:#21231E;stroke-width:0.5698;stroke-miterlimit:23.1752;}
	.st53{fill-rule:evenodd;clip-rule:evenodd;fill:#EDB92E;stroke:#21231E;stroke-width:0.5552;stroke-miterlimit:22.926;}
	.st54{fill-rule:evenodd;clip-rule:evenodd;fill:#EDB92E;stroke:#21231E;stroke-width:0.5633;stroke-miterlimit:22.926;}
	.st55{fill-rule:evenodd;clip-rule:evenodd;fill:#EDB92E;stroke:#21231E;stroke-width:0.5245;stroke-miterlimit:22.926;}
	.st56{fill:none;stroke:#21231E;stroke-width:0.57;stroke-miterlimit:31.0327;}
	.st57{fill:none;stroke:#21231E;stroke-width:0.5758;stroke-miterlimit:22.926;}
	.st58{fill:none;stroke:#21231E;stroke-width:0.5785;stroke-miterlimit:22.926;}
	.st59{fill:none;stroke:#21231E;stroke-width:0.5718;stroke-miterlimit:22.926;}
	
		.st60{fill-rule:evenodd;clip-rule:evenodd;fill:#EDB92E;stroke:#21231E;stroke-width:0.57;stroke-linejoin:round;stroke-miterlimit:23.3586;}
	
		.st61{fill-rule:evenodd;clip-rule:evenodd;fill:#FFFFFF;stroke:#21231E;stroke-width:0.57;stroke-linejoin:round;stroke-miterlimit:22.9287;}
	
		.st62{fill-rule:evenodd;clip-rule:evenodd;fill:#FFFFFF;stroke:#21231E;stroke-width:0.57;stroke-linejoin:round;stroke-miterlimit:22.926;}
	.st63{fill:none;stroke:#21231E;stroke-width:0.57;stroke-linecap:round;stroke-miterlimit:22.9253;}
	.st64{fill-rule:evenodd;clip-rule:evenodd;fill:#FFFFFF;stroke:#21231E;stroke-width:0.5026;stroke-miterlimit:22.926;}
	.st65{fill-rule:evenodd;clip-rule:evenodd;fill:#FFFFFF;stroke:#21231E;stroke-width:0.5688;stroke-miterlimit:22.926;}
	.st66{fill-rule:evenodd;clip-rule:evenodd;fill:#FFFFFF;stroke:#21231E;stroke-width:0.5672;stroke-miterlimit:22.926;}
	.st67{fill-rule:evenodd;clip-rule:evenodd;fill:#FFFFFF;stroke:#21231E;stroke-width:0.5699;stroke-miterlimit:22.926;}
	.st68{fill-rule:evenodd;clip-rule:evenodd;fill:#FFFFFF;stroke:#21231E;stroke-width:0.5698;stroke-miterlimit:22.926;}
	
		.st69{fill-rule:evenodd;clip-rule:evenodd;fill:#FFFFFF;stroke:#21231E;stroke-width:0.5759;stroke-linecap:round;stroke-linejoin:round;stroke-miterlimit:22.926;}
	.st70{fill-rule:evenodd;clip-rule:evenodd;fill:#EDB92E;stroke:#21231E;stroke-width:0.5668;stroke-miterlimit:22.926;}
	
		.st71{fill-rule:evenodd;clip-rule:evenodd;fill:#FFFFFF;stroke:#21231E;stroke-width:0.57;stroke-linejoin:round;stroke-miterlimit:22.9253;}
	.st72{fill-rule:evenodd;clip-rule:evenodd;fill:#EDB92E;stroke:#21231E;stroke-width:0.5755;stroke-miterlimit:22.926;}
	.st73{fill:none;stroke:#21231E;stroke-width:0.5752;stroke-linecap:round;stroke-miterlimit:22.926;}
	.st74{fill:none;stroke:#21231E;stroke-width:0.7598;stroke-linecap:round;stroke-miterlimit:23.6767;}
	.st75{fill:none;stroke:#21231E;stroke-width:0.57;stroke-linecap:round;stroke-miterlimit:24.1336;}
	.st76{fill:none;stroke:#21231E;stroke-width:0.7598;stroke-miterlimit:29.5994;}
	.st77{fill:none;stroke:#21231E;stroke-width:0.57;stroke-linecap:round;stroke-linejoin:round;stroke-miterlimit:22.9253;}
	.st78{fill:none;stroke:#21231E;stroke-width:0.57;stroke-linecap:round;stroke-miterlimit:22.926;}
	
		.st79{fill-rule:evenodd;clip-rule:evenodd;fill:#EDB92E;stroke:#21231E;stroke-width:0.5755;stroke-linejoin:round;stroke-miterlimit:22.926;}
	
		.st80{fill-rule:evenodd;clip-rule:evenodd;fill:#FFFFFF;stroke:#21231E;stroke-width:0.57;stroke-linejoin:round;stroke-miterlimit:26.0503;}
	.st81{fill-rule:evenodd;clip-rule:evenodd;fill:#FFFFFF;stroke:#21231E;stroke-width:0.57;stroke-miterlimit:25.3561;}
	.st82{fill-rule:evenodd;clip-rule:evenodd;fill:#FFFFFF;stroke:#21231E;stroke-width:0.57;stroke-miterlimit:23.3678;}
	
		.st83{fill-rule:evenodd;clip-rule:evenodd;fill:#FFFFFF;stroke:#21231E;stroke-width:0.57;stroke-linejoin:round;stroke-miterlimit:23.1718;}
	.st84{fill-rule:evenodd;clip-rule:evenodd;fill:#FFFFFF;stroke:#21231E;stroke-width:0.57;stroke-miterlimit:24.7269;}
	
		.st85{fill-rule:evenodd;clip-rule:evenodd;fill:#FFFFFF;stroke:#21231E;stroke-width:0.57;stroke-linejoin:round;stroke-miterlimit:29.9683;}
	.st86{fill:#C6363C;stroke:#21231E;stroke-width:1.14;stroke-miterlimit:22.926;}
	.st87{fill:#FFFFFF;stroke:#21231E;stroke-width:0.57;stroke-miterlimit:22.926;}
	
		.st88{fill-rule:evenodd;clip-rule:evenodd;fill:#FFFFFF;stroke:#21231E;stroke-width:0.578;stroke-linejoin:round;stroke-miterlimit:22.926;}
	
		.st89{fill-rule:evenodd;clip-rule:evenodd;fill:#FFFFFF;stroke:#21231E;stroke-width:0.5738;stroke-linejoin:round;stroke-miterlimit:22.926;}
	.st90{fill:none;stroke:#21231E;stroke-width:1.14;stroke-miterlimit:22.926;}
</style>
<path class="st0" d="M0,0h800v480H0V0z"/>
<path class="st1" d="M0,0h800v320H0V0z"/>
<path class="st2" d="M0,0h800v160H0V0z"/>
<g id="g6512" transform="translate(8.5888646e-5,0.13144054)">
	<g id="g1244">
		<g id="g850">
			<path id="path834" class="st3" d="M330.7,116.2c0.9-1.9,0.2-4.7-0.1-5.3c-0.2-0.3,0.3-1,0.5-1.3c6.1-8.6,6.2-9.4,2-12.6
				c-3.8-2.9-12.4-5.7-18.5-7.6c-1.3-1-2.1-2.3-3.3-3.4c11.8,0.8,24.6,5.6,31.1,11.2c3.4,2.9-0.7,8.9-5.8,17.9
				C333.4,117.4,331.9,118.5,330.7,116.2L330.7,116.2z"/>
			<g id="g846">
				<path id="path836" class="st4" d="M332.6,116.9c0.3-0.8,0.5-1.5,0.6-2.2c0.3-1.3,0.1-2.6-0.3-3.8c1.4-2,3-4.1,4.1-6.3
					c0.8-1.5,1.4-3.2,1-5c-0.5-1.9-2.1-3.1-3.6-4.2c-1.8-1.3-4.1-2.5-6.4-3.5c-5.3-2.2-9.5-3.2-12.6-3.3l2,1.8
					c5.7,1.8,12.5,4.3,15.8,6.8c4.2,3.2,4.1,4-2,12.6c-0.2,0.3-0.6,1-0.5,1.3c0.3,0.6,0.8,3.4-0.1,5.4
					C331.1,117.3,331.8,116.8,332.6,116.9L332.6,116.9z"/>
				<path id="path838" class="st4" d="M280.9,78.6c-0.1-1.1,0-0.9,0.2,0.8c0.2-0.3,0.4-0.5,0.7-0.5c0.5,0,0.8,0.8,0.8,2.5
					c0,0.4-0.1,0.9-0.1,1.3c15.7-0.3,24.9,2,27.3,6.5c2,3.7-1.4,9.9-6.4,17c-0.6,0.9-0.6,0.8,0,1.5c0.9,1,1.8,2.7,1.1,4.2
					c3.1,1.7,6.7,2.1,9.9,0.7c0.5-1.4,1.7-2.1,2.6-2.7c0.2-0.1,0.9-0.5,0.9-0.7c1.7-5.3,3.3-10.3,4.8-14.9
					C327.3,79.9,287.1,78.6,280.9,78.6L280.9,78.6z"/>
				<g id="g844" transform="scale(0.99997,-1)">
					<path id="path840" class="st5" d="M322.3-140.7c1.5,3.1,3.2,6.1,5.3,8.8c-5.6-4.1-8.5-3.5-8.9,1.9c-0.3,0.1-0.8,0.1-1.2,0.1
						c-4.2-6.6-8.4-5.7-12.4,2.7c-5.5-8.6-10.2-8.5-13.8,0.5c-6.3-7.9-11.6-7.9-15.9-0.2v1c0.2-0.1,0.1-0.1-0.5-0.1l-0.1,0.2
						c-0.2,0-0.3-0.1-0.5-0.1c-0.1,0-0.3,0.1-0.5,0.1l-0.1-0.2c-0.6-0.1-0.7,0-0.5,0.1v-1c-4.3-7.7-9.6-7.7-15.9,0.2
						c-3.7-9-8.4-9.2-13.8-0.5c-4-8.4-8.1-9.3-12.4-2.7c-0.4,0-0.9,0-1.2-0.1c-0.4-5.4-3.3-6-8.9-1.9c2.2-2.6,3.8-5.7,5.3-8.8
						c16,0.7,32,1.5,48,2.3C290.3-139.2,306.3-140,322.3-140.7L322.3-140.7z"/>
					<path id="path842" class="st5" d="M328.9-127.8l-1.7,0.3c-3.3-8.2-6.4-8.4-6.9-0.6c0.8,0.3,0.5,1.6,1.3,1.1
						c0.4-0.3,1,0.5,0.6,0.9c-0.9,0.7-1.8,0.6-2.6-0.2c-0.4,1.2-1.3,1.8-2.5,1.3c-0.5-0.2-0.3-1.2,0.2-1.1c0.8,0.1,0.5-0.8,0.8-1.4
						c-5.9-7.7-9-6.8-8.2,3.4c-1.4,0.3-3.1,0.6-4.5,1.1c-5.5-11-9.4-11.4-12.5-1.6c0.7,0.5,0.5,1.8,1.5,1.4c0.6-0.2,1,0.8,0.5,1.2
						c-1.2,1-2.4,0.6-3.2-0.6c-0.7,1.3-1.9,1.8-3.1,1c-0.5-0.4-0.2-1.4,0.4-1.2c1.1,0.3,0.6-1.2,1.5-1.7c-2.4-9.3-14.6-9.9-12.6,3.8
						c-1.1,0-2.1-0.1-3.1-0.1c-1,0-2,0.1-3.1,0.1c2-13.7-10.2-13.1-12.6-3.8c0.8,0.5,0.3,2,1.5,1.7c0.6-0.2,0.9,0.9,0.4,1.2
						c-1.3,0.8-2.5,0.3-3.1-1c-0.8,1.2-2.1,1.6-3.2,0.6c-0.5-0.4,0-1.4,0.5-1.2c1,0.4,0.8-0.9,1.5-1.4c-3.2-9.8-7-9.4-12.5,1.6
						c-1.5-0.5-3.1-0.8-4.5-1.1c0.7-10.2-2.3-11.1-8.2-3.4c0.3,0.6-0.1,1.5,0.8,1.4c0.5-0.1,0.7,0.9,0.2,1.1
						c-1.2,0.5-2.2-0.1-2.5-1.3c-0.8,0.8-1.7,0.9-2.6,0.2c-0.4-0.4,0.2-1.2,0.6-0.9c0.8,0.5,0.6-0.8,1.3-1.1
						c-0.6-7.8-3.6-7.6-6.9,0.6l-1.7-0.3c-0.1-1.9,0.6-4,1.8-5.5c5-6.4,8.8-4.9,8.9,2.2c6.6-7.7,11.6-6.7,12.4,1.4
						c5.5-10.3,14.4-5.3,14.6,0.9c2.4-9,15.9-9,16.8,1.4c0.9-10.4,14.4-10.5,16.8-1.4c0.2-6.2,9.1-11.1,14.6-0.9
						c0.9-8.1,5.9-9.1,12.4-1.4c0.1-7.1,3.9-8.6,8.9-2.2C328.2-131.7,328.9-129.7,328.9-127.8L328.9-127.8z"/>
				</g>
			</g>
			<path id="path848" class="st6" d="M285.5,117.3c-0.7-0.5-0.9-0.3-1.1-0.6c-0.3-0.4-0.3-1-0.2-1.6c0.4-2.5-1.1-2.1-2.8-1
				c-0.8,0.5-1.7,1.8-2.4,2.5c-0.7,0.7-1.3,0.7-1.5,1c0,1,0,1.8,0,2.2v0c0,0.4,0,1.2,0,2.1c0.2,0.3,0.8,0.3,1.5,1
				c0.7,0.7,1.6,1.9,2.4,2.5c1.7,1.1,3.2,1.4,2.8-1c-0.1-0.6-0.1-1.3,0.2-1.6c0.2-0.3,0.4-0.2,1.1-0.6c0.5-0.3,0.8-0.7,1.1-1.1
				c0.2-0.4,0.1-0.8,0.1-1.2c0-0.4,0.1-0.8-0.1-1.2C286.4,118,286,117.7,285.5,117.3z"/>
		</g>
		<path id="path852" class="st7" d="M277.4,120l0.1,0.4c1.8,0.2,3.2,0.9,4.5,2C281.2,121.2,279.4,120.3,277.4,120"/>
		<path id="path854" class="st7" d="M277.4,119.3l0.1-0.4c1.8-0.2,3.2-0.9,4.5-2C281.2,118.1,279.4,119,277.4,119.3"/>
		<g id="g1042">
			<g id="g872">
				<path id="path856" class="st6" d="M284.2,113.9c-0.5,0.2-1.1,0.5-1.6,0.9c-0.8,0.7-0.3,1.9,0.7,3.1c0.3,0.4,0.5,1,0.5,1.7
					c0,0.7-0.2,1.3-0.5,1.7c-1,1.2-1.5,2.4-0.7,3.1c0.5,0.5,1.1,0.7,1.6,0.9c0.1-0.3,0-0.7,0-1.1c-0.1-0.6-0.1-1.3,0.2-1.6
					c0.2-0.3,0.4-0.2,1.1-0.6c0.5-0.3,0.8-0.7,1.1-1.1c0.2-0.4,0.1-0.8,0.1-1.2s0.1-0.8-0.1-1.2c-0.2-0.4-0.6-0.8-1.1-1.1
					c-0.7-0.5-0.9-0.3-1.1-0.6c-0.3-0.4-0.3-1-0.2-1.7C284.3,114.6,284.3,114.2,284.2,113.9L284.2,113.9z"/>
				<path id="path858" class="st3" d="M217.9,116.2c-0.9-1.9-0.2-4.7,0.1-5.3c0.1-0.3-0.3-1-0.5-1.3c-6.1-8.6-6.2-9.4-2-12.6
					c3.8-2.9,12.4-5.7,18.5-7.6c1.3-1,2.1-2.3,3.3-3.4c-11.8,0.8-24.6,5.6-31.1,11.2c-3.4,2.9,0.7,8.9,5.8,17.9
					C215.2,117.4,216.7,118.5,217.9,116.2L217.9,116.2z"/>
				<path id="path860" class="st4" d="M216,116.9c-0.3-0.8-0.5-1.5-0.6-2.2c-0.3-1.3-0.1-2.6,0.3-3.8c-1.4-2-3-4.1-4.1-6.3
					c-0.8-1.5-1.4-3.2-1-5c0.5-1.9,2.1-3.1,3.6-4.2c1.7-1.3,4.1-2.5,6.4-3.5c5.3-2.2,9.5-3.2,12.6-3.3l-2,1.8
					c-5.7,1.8-12.5,4.3-15.8,6.8c-4.2,3.2-4.1,4,2,12.6c0.2,0.3,0.6,1,0.5,1.3c-0.3,0.6-0.8,3.4,0.1,5.4
					C217.5,117.3,216.8,116.8,216,116.9L216,116.9z"/>
				<path id="path862" class="st4" d="M267.7,78.6c0.1-1.1,0-0.9-0.2,0.8c-0.2-0.3-0.4-0.5-0.7-0.5c-0.5,0-0.8,0.8-0.8,2.5
					c0,0.4,0.1,0.9,0.1,1.3c-15.7-0.3-24.9,2-27.3,6.5c-2,3.7,1.4,9.9,6.4,17c0.6,0.9,0.6,0.8,0,1.5c-0.9,1-1.8,2.7-1.1,4.2
					c-3.1,1.7-6.7,2.1-9.9,0.7c-0.5-1.4-1.7-2.1-2.6-2.7c-0.2-0.1-0.9-0.5-0.9-0.7c-1.7-5.3-3.3-10.3-4.8-14.9
					C221.3,79.9,261.5,78.6,267.7,78.6L267.7,78.6z"/>
				<path id="path864" class="st8" d="M270.4,138.3l-0.6,15.6c15.5,0.4,33.9,1.1,49.4,1.6l3.1-14.6
					C285,138.6,267.8,137.8,270.4,138.3L270.4,138.3z"/>
				<g id="g870" transform="scale(0.99997,-1)">
					<path id="path866" class="st4" d="M270.4-138.3L270.4-138.3c-8.3-0.5-23-1.3-44.1-2.6l3.1-14.6c14,0.4,30.4,1,44.9,1.4
						c14.5-0.4,30.9-1,44.9-1.4l3.1,14.6c-21.1,1.3-35.8,2.2-44.1,2.5l0,0.1c0.8,0.2-0.5,0.2-3.9,0.1
						C270.8-138.1,269.6-138.2,270.4-138.3L270.4-138.3z"/>
					<path id="path868" class="st4" d="M274.3-140.1c-0.6,0-1.1,0-1.7,0l-0.6,0h-0.3l-0.5,0l-0.3,0h-0.2l-0.4,0l-0.6,0l-0.5,0
						l-0.1,0l-0.4,0c-0.4,0-0.8,0-1.2,0h-0.1l-0.1,0l-0.5,0l-0.2,0l-0.2,0l-0.5,0h0l-0.6,0l-0.2,0l-0.4,0h-0.1l-0.4,0l-0.6,0h0
						l-0.5,0l-0.2,0l0,0c-0.7,0-1.3,0-2-0.1l-0.3,0l-0.8,0l-0.1,0l-0.7,0l-0.4,0l-0.3,0l-0.1,0l-0.7,0l0,0l-0.6,0l0,0l-0.5,0l-0.4,0
						l-0.8,0h0c-1,0-2-0.1-3-0.1l-0.1,0c-1.5-0.1-2.9-0.1-4.4-0.2l-0.1,0l-0.2,0c-2.9-0.2-5.8-0.4-8.6-0.6l-0.1,0l0,0
						c-4.2-0.3-8.4-0.7-12.5-1.1c-2.3-0.2-2.8,2.5,0,2.8c4.1,0.4,8.3,0.8,12.5,1.1l0,0c5.8,0.4,11.6,0.8,17.5,1l0.5,0h0.1l0.2,0
						l0.6,0l0,0c2.4,0.1,4.8,0.2,7.3,0.2l0.4,0l0,0l0.6,0h0.1l0,0l0.5,0l0.2,0l0.3,0l0.4,0l0.1,0l0.2,0c0.5,0,1,0,1.5,0l0.5,0h0.1
						l0.6,0c0.6,0,1.1,0,1.7,0h0l0.6,0c0.6,0,1.1,0,1.7,0c0.6,0,1.1,0,1.7,0l0.6,0h0c0.6,0,1.1,0,1.7,0l0.6,0h0.1l0.5,0
						c0.5,0,1,0,1.5,0l0.2,0l0.1,0l0.4,0l0.3,0l0.2,0l0.5,0l0,0h0.1l0.6,0l0,0l0.4,0c2.4,0,4.9-0.1,7.3-0.2l0,0l0.6,0l0.2,0h0.1
						l0.5,0c5.9-0.2,11.7-0.6,17.5-1l0,0c4.2-0.3,8.4-0.7,12.5-1.1c2.8-0.3,2.3-3,0-2.8c-4.1,0.4-8.3,0.8-12.5,1.1l0,0l-0.1,0
						c-2.9,0.2-5.7,0.4-8.6,0.6l-0.2,0l-0.1,0c-1.4,0.1-2.9,0.2-4.4,0.2l-0.1,0c-1,0-2,0.1-3,0.1h0l-0.8,0l-0.4,0l-0.5,0l0,0l-0.6,0
						l0,0l-0.7,0l-0.1,0l-0.3,0l-0.4,0l-0.7,0l-0.1,0l-0.8,0l-0.3,0c-0.7,0-1.3,0-2,0.1l0,0l-0.2,0l-0.5,0h0l-0.6,0l-0.4,0h-0.1
						l-0.4,0l-0.2,0l-0.6,0h0l-0.5,0l-0.2,0l-0.2,0l-0.5,0l-0.1,0h-0.1c-0.4,0-0.8,0-1.2,0l-0.4,0l-0.1,0l-0.5,0l-0.6,0l-0.4,0h-0.2
						l-0.3,0l-0.5,0h-0.3l-0.6,0C275.4-140.1,274.9-140.1,274.3-140.1L274.3-140.1z"/>
				</g>
			</g>
			<g id="g884">
				<path id="path874" class="st9" d="M237.7,105.9c1.7,0,3,1.3,3,3s-1.4,3-3,3c-1.7,0-3-1.3-3-3
					C234.7,107.2,236.1,105.9,237.7,105.9z"/>
				<g id="g882" transform="scale(0.99997,-1)">
					<path id="path876" class="st10" d="M212.1-112.2c1.5,0,2.8-1.3,2.8-2.8c0-1.5-1.3-2.8-2.8-2.8c-1.5,0-2.8,1.3-2.8,2.8
						C209.3-113.5,210.5-112.2,212.1-112.2z"/>
					<path id="path878" class="st10" d="M209.4-107.1c1.5,0,2.8-1.3,2.8-2.8c0-1.5-1.3-2.8-2.8-2.8c-1.5,0-2.8,1.3-2.8,2.8
						C206.6-108.3,207.8-107.1,209.4-107.1z"/>
					<path id="path880" class="st10" d="M206.9-101.9c1.5,0,2.8-1.3,2.8-2.8c0-1.5-1.3-2.8-2.8-2.8c-1.5,0-2.8,1.3-2.8,2.8
						C204.1-103.2,205.3-101.9,206.9-101.9z"/>
				</g>
			</g>
			<path id="path886" class="st11" d="M274.3,116c2,0,3.7,1.6,3.7,3.7c0,2-1.6,3.7-3.7,3.7c-2,0-3.7-1.6-3.7-3.7
				C270.6,117.6,272.3,116,274.3,116z"/>
			<path id="path888" class="st12" d="M256.4,111.5c1.6-0.1,1.2,2.8,0.9,3.4c-0.4,0.8-0.8,0.9-1.3,0.1
				C255.5,114.4,254.7,111.6,256.4,111.5L256.4,111.5z"/>
			<path id="path890" class="st13" d="M256.5,113.1c3.8-0.3,2.9,6.5,2.1,8c-1,2-1.9,2-3.1,0.2C254.5,119.9,252.7,113.3,256.5,113.1
				L256.5,113.1z"/>
			<path id="path892" class="st14" d="M225.8,115.6c1.5-0.5,1.8,2.4,1.7,3.1c-0.2,0.9-0.6,1-1.3,0.4
				C225.7,118.6,224.2,116.1,225.8,115.6L225.8,115.6z"/>
			<path id="path894" class="st15" d="M226.3,117.1c3.6-1.2,4.3,5.6,4,7.3c-0.5,2.1-1.4,2.4-3,0.9
				C226,124.2,222.6,118.2,226.3,117.1L226.3,117.1z"/>
			<g id="g904" transform="scale(0.99997,-1)">
				<path id="path896" class="st5" d="M265.8-81.2c-8.2,0.7-16.5-0.1-24.8-3.4c-7-2.8-6.3-10.8,2.2-22c-0.8-1.4-1.2-3.2-1.3-5.2
					c0.9,0.1,1.5,0,2.3,0c-0.6,1.4,0.1,3,0.9,4.2c0.5,0.8,0.6,0.6,0,1.5c-5.1,7-8.4,13.2-6.4,17c2.4,4.5,11.7,6.9,27.3,6.5
					c0,0.4-0.1,0.8-0.1,1.3C265.9-81.4,265.9-81.3,265.8-81.2L265.8-81.2z"/>
				<g id="g902">
					<path id="path898" class="st16" d="M226.2-83.5c1.6,0,2.9-1.3,2.9-2.9c0-1.6-1.3-2.9-2.9-2.9c-1.6,0-2.9,1.3-2.9,2.9
						C223.3-84.8,224.6-83.5,226.2-83.5z"/>
					<path id="path900" class="st16" d="M231.9-81.7c1.6,0,2.9-1.3,2.9-2.9c0-1.6-1.3-2.9-2.9-2.9c-1.6,0-2.9,1.3-2.9,2.9
						C229-83,230.3-81.7,231.9-81.7z"/>
				</g>
			</g>
			<g id="g914">
				<path id="path906" class="st4" d="M232.6,84.2c0.3,0.4,0.6,0.8,0.9,1.2c-4.6,2.5-6.5,5.2-6,7.8c0.1,0.5,1.5,5.4,4.6,14.8
					c2.1,1.5,3.7,2.8,4.8,4c-0.1,0.1,0.3,0.5,0.2,0.7c0.3,1.4-1.3,1.2-2.4,0.8c-0.5-1.4-2.1-2.9-3.1-3.5c-0.2-0.1-0.9-0.5-0.9-0.7
					c-1.7-5.3-3.3-10.3-4.8-14.9C224.4,89.8,227.5,86.5,232.6,84.2L232.6,84.2z"/>
				<path id="path908" class="st17" d="M214.5,118.4l-0.2,0.9c-1.3,0.3-2.5,0.4-3.4,0.2C212.5,118,213.7,117.7,214.5,118.4
					L214.5,118.4z"/>
				<path id="path910" class="st18" d="M214.4,116.3c0.8,0.2,0.9,0.3,1.3,0.4c0.5,0.1,1.1,0,1.6-0.3c1.8-1.1,1.9,0.9,1.2,2.3
					c-0.5,1.1-0.2,2.3,0.2,3.2c0.6,1.1,0.5,1.6,0.1,1.9c-0.3,0.2-0.6,0.4-0.8,0.5c-0.5,0.6-0.9,0.5-0.9-0.3c-1.8-0.7-2.4-2.5-3-4
					C213.2,117.7,210.3,117.2,214.4,116.3L214.4,116.3z"/>
				<path id="path912" class="st19" d="M215.1,116.4c1.6,0.6,1.8-0.3,2.8-0.3c-0.4,2.4-0.8,3.7-3.4,2.4c-1.4-0.7-3.2,0.3-3.5,1.1
					c-0.1,0.3-0.9-0.3-1.2-1C208.6,115.9,213,115.6,215.1,116.4L215.1,116.4z"/>
			</g>
			<g id="g936">
				<g id="g924" transform="scale(0.99998,-1)">
					<path id="path916" class="st20" d="M263.3-75c1.6,0,2.9-1.3,2.9-2.9c0-1.6-1.3-2.9-2.9-2.9c-1.6,0-2.9,1.3-2.9,2.9
						C260.4-76.3,261.7-75,263.3-75z"/>
					<path id="path918" class="st20" d="M257.3-75c1.6,0,2.9-1.3,2.9-2.9c0-1.6-1.3-2.9-2.9-2.9c-1.6,0-2.9,1.3-2.9,2.9
						C254.4-76.3,255.7-75,257.3-75z"/>
					<path id="path920" class="st20" d="M251.4-75.5c1.6,0,2.9-1.3,2.9-2.9c0-1.6-1.3-2.9-2.9-2.9s-2.9,1.3-2.9,2.9
						C248.5-76.8,249.8-75.5,251.4-75.5z"/>
					<path id="path922" class="st20" d="M245.9-76.5c1.6,0,2.9-1.3,2.9-2.9c0-1.6-1.3-2.9-2.9-2.9S243-81,243-79.4
						C243-77.8,244.3-76.5,245.9-76.5z"/>
				</g>
				<g id="g934" transform="scale(0.99997,-1)">
					<path id="path926" class="st16" d="M210-91.4c1.6,0,2.9-1.3,2.9-2.9c0-1.6-1.3-2.9-2.9-2.9c-1.6,0-2.9,1.3-2.9,2.9
						C207-92.7,208.3-91.4,210-91.4z"/>
					<path id="path928" class="st16" d="M214.9-88.3c1.6,0,2.9-1.3,2.9-2.9c0-1.6-1.3-2.9-2.9-2.9c-1.6,0-2.9,1.3-2.9,2.9
						C212-89.6,213.3-88.3,214.9-88.3z"/>
					<path id="path930" class="st16" d="M220.6-85.6c1.6,0,2.9-1.3,2.9-2.9c0-1.6-1.3-2.9-2.9-2.9c-1.6,0-2.9,1.3-2.9,2.9
						C217.7-86.9,219-85.6,220.6-85.6z"/>
					<path id="path932" class="st16" d="M206.1-96.2c1.6,0,2.9-1.3,2.9-2.9c0-1.6-1.3-2.9-2.9-2.9c-1.6,0-2.9,1.3-2.9,2.9
						C203.2-97.5,204.5-96.2,206.1-96.2z"/>
				</g>
			</g>
			<path id="path938" class="st21" d="M263.5,146.3l10.8-5.4l10.8,5.4l-10.8,5.4L263.5,146.3z"/>
			<path id="path940" class="st22" d="M274.3,143c2.7,0,4.8,1.4,4.8,3.2c0,1.8-2.2,3.2-4.8,3.2s-4.8-1.4-4.8-3.2
				C269.4,144.5,271.6,143,274.3,143z"/>
			<path id="path942" class="st23" d="M239.6,147.7l10.4-6l11.1,4.7l-10.4,6L239.6,147.7z"/>
			<path id="path944" class="st24" d="M250.1,143.7c2.7-0.2,4.9,1.1,5,2.9c0.1,1.8-2,3.4-4.6,3.5c-2.7,0.2-4.9-1.1-5-2.9
				C245.4,145.5,247.4,143.9,250.1,143.7z"/>
			<g id="g960" transform="scale(0.99997,-1)">
				<path id="path946" class="st4" d="M227-143.3l11.3-4.3l-9.3-6.2C226.6-153,224.7-144.8,227-143.3L227-143.3z"/>
				<path id="path948" class="st25" d="M227.3-145.4c2.7,0.3,5-0.9,5.2-2.7c0.2-1.8-1.8-3.4-4.5-3.7c-1.7-0.2-2.8,1.3-3,2.9
					C224.7-147.3,225.4-145.6,227.3-145.4L227.3-145.4z"/>
				<g id="g958">
					<path id="path950" class="st16" d="M262.6-148.3c0.8,0,1.5-0.7,1.5-1.5c0-0.8-0.7-1.5-1.5-1.5s-1.5,0.7-1.5,1.5
						C261.1-149,261.8-148.3,262.6-148.3z"/>
					<path id="path952" class="st16" d="M239.5-149.6c0.8,0,1.5-0.7,1.5-1.5c0-0.8-0.7-1.5-1.5-1.5c-0.8,0-1.5,0.7-1.5,1.5
						C238-150.3,238.7-149.6,239.5-149.6z"/>
					<path id="path954" class="st16" d="M238.7-142.6c0.8,0,1.5-0.7,1.5-1.5c0-0.8-0.7-1.5-1.5-1.5c-0.8,0-1.5,0.7-1.5,1.5
						C237.2-143.3,237.9-142.6,238.7-142.6z"/>
					<path id="path956" class="st16" d="M262.5-141.6c0.8,0,1.5-0.7,1.5-1.5c0-0.8-0.7-1.5-1.5-1.5s-1.5,0.7-1.5,1.5
						C261-142.3,261.7-141.6,262.5-141.6z"/>
				</g>
			</g>
			<g id="g970">
				<path id="path962" class="st26" d="M221.6,128.1c1.1-0.3,2.9,2.2,3.4,2.1c0.6-1.4-0.6-4.9-2.6-7.6c-1.4-0.5-1.5-1.3-1.8-3.4
					c-0.1-0.6-1.3-0.2-1.3,0.9c0,1.1-0.1,1.7,0.1,2.7c0.1,0.4,0,0.7-0.4,1.1C221.2,124.7,221.7,125.7,221.6,128.1L221.6,128.1z"/>
				<path id="path964" class="st27" d="M220.6,119.2c-0.2,0.5-0.3,0.9-0.3,1.6c0,0.5,0.2,1.1,0.5,1.5c0.4,0.5,0.9,0.9,1.4,1.2
					c0.4,0.2,0.8,0.8,1.1,1.4c0.3,0.6,0.5,1.3,0.6,1.9c0,1.7,0.4,3.2,1.1,3.4c0.5,0.2,0.7,0.2,1.1,0.1c-0.1-0.3-0.1-0.7-0.3-1.2
					c-0.4-0.5-0.7-1.2-0.7-1.7c0-0.4-0.2-0.7-0.1-1.5c0.1-0.5,0.5-0.7,0.4-1.2c-0.1-1-0.9-2.8-2-2.8c-1.1,0-1.6-0.1-2.2-1.6
					C221,119.7,220.8,119.5,220.6,119.2L220.6,119.2z"/>
				<path id="path966" class="st28" d="M216.4,123.2c0.3-0.2,0.7-0.4,1-0.5c0.6-0.2,1.2-0.3,1.8-0.1c2.7,0.8,3.8,5.5,0.9,6.6
					c-0.6,0.1-1.1-0.4-1.6-1.6c-0.6-1.5-1.3-2.5-1.9-3.2C216.2,124,216.1,123.5,216.4,123.2L216.4,123.2z"/>
				<path id="path968" class="st29" d="M217.8,123.5c2.6-1,4.4,3.9,2.1,4.8c-1.3,0.5-1.4-1.1-1.7-2
					C217.8,125.2,215.3,124.5,217.8,123.5L217.8,123.5z"/>
			</g>
			<path id="path972" class="st30" d="M218,124.3c1.2-0.5,3,2.4,1.4,3.1c-1.1,0.4-1.9-0.1-2.2-1C216.9,125.5,217.1,124.6,218,124.3z
				"/>
			<path id="path974" class="st23" d="M309,147.7l-10.4-6l-11.1,4.7l10.4,6L309,147.7z"/>
			<path id="path976" class="st24" d="M298.5,143.7c-2.7-0.2-4.9,1.1-5,2.9c-0.1,1.8,2,3.4,4.6,3.5c2.7,0.2,4.9-1.1,5-2.9
				C303.2,145.5,301.1,143.9,298.5,143.7L298.5,143.7z"/>
			<path id="path978" class="st4" d="M321.5,143.3l-11.3,4.3l9.3,6.2C322,153,323.9,144.8,321.5,143.3L321.5,143.3z"/>
			<path id="path980" class="st25" d="M321.3,145.4c-2.7-0.3-5,0.9-5.1,2.7c-0.2,1.8,1.8,3.4,4.5,3.7c1.7,0.2,2.8-1.3,3-2.9
				C323.9,147.3,323.2,145.6,321.3,145.4z"/>
			<g id="g1006">
				<g id="g990" transform="scale(-0.99997,-1)">
					<path id="path982" class="st16" d="M-286-148.3c0.8,0,1.5-0.7,1.5-1.5c0-0.8-0.7-1.5-1.5-1.5s-1.5,0.7-1.5,1.5
						C-287.5-149-286.8-148.3-286-148.3z"/>
					<path id="path984" class="st16" d="M-309.1-149.6c0.8,0,1.5-0.7,1.5-1.5c0-0.8-0.7-1.5-1.5-1.5c-0.8,0-1.5,0.7-1.5,1.5
						C-310.6-150.3-309.9-149.6-309.1-149.6z"/>
					<path id="path986" class="st16" d="M-309.9-142.6c0.8,0,1.5-0.7,1.5-1.5c0-0.8-0.7-1.5-1.5-1.5s-1.5,0.7-1.5,1.5
						C-311.4-143.3-310.7-142.6-309.9-142.6z"/>
					<path id="path988" class="st16" d="M-286-141.6c0.8,0,1.5-0.7,1.5-1.5c0-0.8-0.7-1.5-1.5-1.5s-1.5,0.7-1.5,1.5
						C-287.6-142.3-286.9-141.6-286-141.6z"/>
				</g>
				<path id="path992" class="st9" d="M235.4,100.9c1.7,0,3,1.4,3,3c0,1.7-1.4,3-3,3c-1.7,0-3-1.4-3-3
					C232.4,102.3,233.8,100.9,235.4,100.9z"/>
				<path id="path994" class="st9" d="M233.2,95.9c1.7,0,3,1.4,3,3c0,1.7-1.3,3-3,3c-1.7,0-3-1.3-3-3S231.6,95.9,233.2,95.9z"/>
				<path id="path996" class="st16" d="M240.4,78.3c1.6,0,2.9,1.3,2.9,2.9c0,1.6-1.3,2.9-2.9,2.9c-1.6,0-2.9-1.3-2.9-2.9
					C237.5,79.6,238.8,78.3,240.4,78.3z"/>
				<g id="g1004" transform="scale(0.99998,-1)">
					<path id="path998" class="st9" d="M235.6-80.5c1.7,0,3-1.3,3-3c0-1.7-1.4-3-3-3c-1.7,0-3,1.3-3,3
						C232.5-81.8,233.9-80.5,235.6-80.5z"/>
					<path id="path1000" class="st9" d="M232-84.8c1.7,0,3-1.4,3-3s-1.4-3-3-3c-1.7,0-3,1.3-3,3C228.9-86.1,230.3-84.8,232-84.8z"/>
					<path id="path1002" class="st9" d="M231.4-90.1c1.7,0,3-1.4,3-3c0-1.7-1.3-3-3-3c-1.7,0-3,1.4-3,3
						C228.4-91.5,229.7-90.1,231.4-90.1z"/>
				</g>
			</g>
			<path id="path1008" class="st4" d="M275.8,56.4c0.8,0,1.4-0.7,1.4-1.5s-0.6-1.5-1.4-1.5c0-0.8-0.7-1.5-1.5-1.5
				c-0.8,0-1.5,0.7-1.5,1.5c-0.8,0-1.4,0.7-1.4,1.5s0.6,1.5,1.4,1.5v3h-2.6c0-0.8-0.7-1.5-1.5-1.5c-0.8,0-1.5,0.6-1.5,1.4
				c-0.8,0-1.5,0.7-1.5,1.5c0,0.8,0.7,1.5,1.5,1.5c0,0.8,0.7,1.4,1.5,1.4c0.8,0,1.4-0.6,1.5-1.4h2.6v10h3v-10h2.6
				c0,0.8,0.7,1.4,1.5,1.4c0.8,0,1.5-0.6,1.5-1.4c0.8,0,1.5-0.7,1.5-1.5c0-0.8-0.7-1.5-1.5-1.5c0-0.8-0.7-1.4-1.5-1.4
				c-0.8,0-1.5,0.7-1.5,1.5h-2.6V56.4z"/>
			<path id="path1010" class="st31" d="M274.3,65.9c4.5,0,8.1,3.6,8.1,8.1c0,4.5-3.6,8.1-8.1,8.1s-8.1-3.6-8.1-8.1
				C266.2,69.5,269.8,65.9,274.3,65.9z"/>
			<path id="path1012" class="st32" d="M274.3,65.9c0.5,0,1,0,1.5,0.1v6.4h-3V66C273.3,65.9,273.8,65.9,274.3,65.9z"/>
			<g id="g1032">
				<path id="path1014" class="st4" d="M282.3,72.4c0.1,0.5,0.2,1.1,0.2,1.6c0,0.4,0,0.8-0.1,1.2c-2.7-0.1-5.4-0.2-8-0.2
					c-2.7,0-5.4,0.1-8,0.2c-0.1-0.4-0.1-0.8-0.1-1.2c0-0.6,0.1-1.1,0.2-1.6c2.6-0.1,5.3-0.2,8-0.2S279.6,72.3,282.3,72.4L282.3,72.4
					z"/>
				<path id="path1016" class="st5" d="M268,79.1c-1.7-1.1-2,0.6-2,2.2c0.2,6.2,1.4,12.1-0.3,19.8c-0.7,3-1.8,4.8-0.7,5.4
					c2.7,1.5,3.9,2.9,3.5,3.6c0.8,1.5,2.8,1.2,5.8,0.7c3,0.5,5,0.8,5.8-0.7c-0.4-0.7,0.8-2.1,3.5-3.6c1.1-0.6,0-2.3-0.7-5.4
					c-1.7-7.6-0.5-13.5-0.3-19.8c0-1.7-0.3-3.3-2-2.2C277.2,81.2,271.4,81.2,268,79.1L268,79.1z"/>
				<g id="g1030" transform="scale(0.99998,-1)">
					<path id="path1018" class="st33" d="M274.3-102.5c1.8,0,3.2-1.4,3.2-3.2s-1.4-3.2-3.2-3.2c-1.8,0-3.2,1.4-3.2,3.2
						S272.5-102.5,274.3-102.5z"/>
					<path id="path1020" class="st33" d="M274.3-96.9c1.8,0,3.2-1.4,3.2-3.2c0-1.8-1.4-3.2-3.2-3.2c-1.8,0-3.2,1.4-3.2,3.2
						C271.1-98.3,272.5-96.9,274.3-96.9z"/>
					<path id="path1022" class="st33" d="M274.3-91.5c1.8,0,3.2-1.4,3.2-3.2c0-1.8-1.4-3.2-3.2-3.2c-1.8,0-3.2,1.4-3.2,3.2
						C271.1-93,272.5-91.5,274.3-91.5z"/>
					<path id="path1024" class="st33" d="M274.3-76.2c1.8,0,3.2-1.4,3.2-3.2c0-1.8-1.4-3.2-3.2-3.2c-1.8,0-3.2,1.4-3.2,3.2
						C271.1-77.7,272.5-76.2,274.3-76.2z"/>
					<path id="path1026" class="st33" d="M274.3-81c1.8,0,3.2-1.4,3.2-3.2c0-1.8-1.4-3.2-3.2-3.2c-1.8,0-3.2,1.4-3.2,3.2
						C271.1-82.4,272.5-81,274.3-81z"/>
					<path id="path1028" class="st33" d="M274.3-86.1c1.8,0,3.2-1.4,3.2-3.2c0-1.8-1.4-3.2-3.2-3.2c-1.8,0-3.2,1.4-3.2,3.2
						C271.1-87.6,272.5-86.1,274.3-86.1z"/>
				</g>
			</g>
			<g id="g1040">
				<path id="path1034" class="st34" d="M270.6,109.6c-1.3-2.4-2.6-3.9-4.1-4.5c2-6.2,2.4-14.2,1.3-24c-0.1-1.5-0.5-2.1-1-2.1
					c-0.5,0-0.8,0.8-0.8,2.5c0.4,5.4,0.8,10.2,0.6,14.2c-0.2,3.6-1.1,6.6-2,9.9c-0.1,0.5,0.2,0.8,1.8,1.7c1.2,0.7,2,1.5,2.2,2.4
					c0.3-0.1,0.6-0.1,0.7-0.1C270.4,109.9,270.9,109.8,270.6,109.6L270.6,109.6z"/>
				<path id="path1036" class="st34" d="M278,109.6c1.3-2.4,2.6-3.9,4.1-4.5c-2-6.2-2.4-14.2-1.3-24c0.1-1.5,0.5-2.1,1-2.1
					c0.5,0,0.8,0.8,0.8,2.5c-0.4,5.4-0.8,10.2-0.6,14.2c0.2,3.6,1.1,6.6,2,9.9c0.1,0.5-0.2,0.8-1.8,1.7c-1.2,0.7-2,1.5-2.2,2.4
					c-0.3-0.1-0.6-0.1-0.7-0.1C278.1,109.9,277.6,109.8,278,109.6L278,109.6z"/>
				<path id="path1038" class="st6" d="M276.6,108.4c0.5,0.7,0.3,0.9,0.6,1.1c0.4,0.3,1,0.3,1.6,0.2c2.5-0.4,2.1,1.1,1,2.8
					c-0.6,0.8-1.8,1.7-2.5,2.4c-0.7,0.7-0.7,1.3-1,1.5c-1,0-1.8,0-2.2,0c-0.4,0-1.2,0-2.2,0c-0.3-0.2-0.3-0.8-1-1.5
					c-0.7-0.7-1.9-1.6-2.5-2.4c-1.1-1.7-1.4-3.2,1-2.8c0.6,0.1,1.3,0.1,1.6-0.2c0.3-0.2,0.2-0.4,0.6-1.1c0.3-0.5,0.7-0.8,1.1-1.1
					c0.4-0.2,0.8-0.1,1.2-0.1c0.4,0,0.8-0.1,1.2,0.1C275.9,107.6,276.3,107.9,276.6,108.4L276.6,108.4z"/>
			</g>
		</g>
		<path id="path1044" class="st7" d="M273.9,116.5l-0.4-0.1c-0.2-1.8-0.9-3.2-2-4.5C272.7,112.8,273.6,114.6,273.9,116.5"/>
		<path id="path1046" class="st7" d="M274.7,116.5l0.4-0.1c0.2-1.8,0.9-3.2,2-4.5C275.9,112.8,274.9,114.6,274.7,116.5"/>
		<path id="path1048" class="st4" d="M280,109.7c-0.2,0.5-0.5,1.1-0.9,1.6c-0.7,0.8-1.9,0.3-3.1-0.7c-0.4-0.3-1-0.5-1.7-0.5
			c-0.7,0-1.3,0.2-1.7,0.5c-1.2,1-2.4,1.5-3.1,0.7c-0.5-0.5-0.7-1.1-0.9-1.6c0.3-0.1,0.7,0,1.1,0c0.6,0.1,1.3,0.1,1.6-0.2
			c0.3-0.2,0.2-0.4,0.6-1.1c0.3-0.5,0.7-0.8,1.1-1.1s0.8-0.1,1.2-0.1c0.4,0,0.8-0.1,1.2,0.1c0.4,0.2,0.8,0.6,1.1,1.1
			c0.5,0.7,0.3,0.9,0.6,1.1c0.4,0.3,1,0.3,1.6,0.2C279.4,109.7,279.7,109.7,280,109.7L280,109.7z"/>
		<path id="path1050" class="st6" d="M263,117.3c0.7-0.5,0.9-0.3,1.1-0.6c0.3-0.4,0.3-1,0.2-1.6c-0.4-2.5,1.1-2.1,2.8-1
			c0.8,0.5,1.7,1.8,2.4,2.5c0.7,0.7,1.3,0.7,1.5,1c0,1,0,1.8,0,2.2v0c0,0.4,0,1.2,0,2.1c-0.2,0.3-0.8,0.3-1.5,1
			c-0.7,0.7-1.6,1.9-2.4,2.5c-1.7,1.1-3.2,1.4-2.8-1c0.1-0.6,0.1-1.3-0.2-1.6c-0.2-0.3-0.4-0.2-1.1-0.6c-0.5-0.3-0.8-0.7-1.1-1.1
			c-0.2-0.4-0.1-0.8-0.1-1.2c0-0.4-0.1-0.8,0.1-1.2C262.2,118,262.6,117.7,263,117.3z"/>
		<path id="path1052" class="st7" d="M271.2,120l-0.1,0.4c-1.8,0.2-3.2,0.9-4.5,2C267.4,121.2,269.2,120.3,271.2,120"/>
		<path id="path1054" class="st7" d="M271.2,119.3l-0.1-0.4c-1.8-0.2-3.2-0.9-4.5-2C267.4,118.1,269.2,119,271.2,119.3"/>
		<path id="path1056" class="st6" d="M264.4,113.9c0.5,0.2,1.1,0.5,1.6,0.9c0.8,0.7,0.3,1.9-0.7,3.1c-0.3,0.4-0.5,1-0.5,1.7
			c0,0.7,0.2,1.3,0.5,1.7c1,1.2,1.5,2.4,0.7,3.1c-0.5,0.5-1.1,0.7-1.6,0.9c-0.1-0.3,0-0.7,0-1.1c0.1-0.6,0.1-1.3-0.2-1.6
			c-0.2-0.3-0.4-0.2-1.1-0.6c-0.5-0.3-0.8-0.7-1.1-1.1c-0.2-0.4-0.1-0.8-0.1-1.2s-0.1-0.8,0.1-1.2c0.2-0.4,0.6-0.8,1.1-1.1
			c0.7-0.5,0.9-0.3,1.1-0.6c0.3-0.4,0.3-1,0.2-1.7C264.3,114.6,264.3,114.2,264.4,113.9L264.4,113.9z"/>
		<path id="path1058" class="st6" d="M285.5,121.9c-0.7,0.5-0.9,0.3-1.1,0.6c-0.3,0.4-0.3,1-0.2,1.6c0.4,2.5-1.1,2.1-2.8,1
			c-0.8-0.5-1.7-1.8-2.4-2.5c-0.7-0.7-1.3-0.7-1.5-1c0-1,0-1.8,0-2.2v0c0-0.4,0-1.2,0-2.1c0.2-0.3,0.8-0.3,1.5-1
			c0.7-0.7,1.6-1.9,2.4-2.5c1.7-1.1,3.2-1.4,2.8,1c-0.1,0.6-0.1,1.3,0.2,1.6c0.2,0.3,0.4,0.2,1.1,0.6c0.5,0.3,0.8,0.7,1.1,1.1
			c0.2,0.4,0.1,0.8,0.1,1.2c0,0.4,0.1,0.8-0.1,1.2C286.4,121.3,286,121.6,285.5,121.9z"/>
		<path id="path1060" class="st7" d="M277.4,119.3l0.1-0.4c1.8-0.2,3.2-0.9,4.5-2C281.2,118.1,279.4,119,277.4,119.3"/>
		<path id="path1062" class="st7" d="M277.4,120l0.1,0.4c1.8,0.2,3.2,0.9,4.5,2C281.2,121.2,279.4,120.3,277.4,120"/>
		<g id="g1076">
			<g id="g1072">
				<path id="path1064" class="st6" d="M284.2,125.4c-0.5-0.2-1.1-0.5-1.6-0.9c-0.8-0.7-0.3-1.9,0.7-3.1c0.3-0.4,0.5-1,0.5-1.7
					c0-0.7-0.2-1.3-0.5-1.7c-1-1.2-1.5-2.4-0.7-3.1c0.5-0.5,1.1-0.7,1.6-0.9c0.1,0.3,0,0.7,0,1.1c-0.1,0.6-0.1,1.3,0.2,1.7
					c0.2,0.3,0.4,0.2,1.1,0.6c0.5,0.3,0.8,0.7,1.1,1.1c0.2,0.4,0.1,0.8,0.1,1.2c0,0.4,0.1,0.8-0.1,1.2c-0.2,0.4-0.6,0.8-1.1,1.1
					c-0.7,0.5-0.9,0.3-1.1,0.6c-0.3,0.4-0.3,1-0.2,1.6C284.3,124.7,284.3,125.1,284.2,125.4L284.2,125.4z"/>
				<g id="g1070" transform="scale(0.99998,-1)">
					<path id="path1066" class="st11" d="M274.3-116c2,0,3.7-1.6,3.7-3.7c0-2-1.6-3.7-3.7-3.7c-2,0-3.7,1.6-3.7,3.7
						C270.6-117.6,272.3-116,274.3-116z"/>
					<path id="path1068" class="st35" d="M274.3-116.9c1.5,0,2.7-1.2,2.7-2.7c0-1.5-1.2-2.7-2.7-2.7s-2.7,1.2-2.7,2.7
						C271.6-118.2,272.8-116.9,274.3-116.9z"/>
				</g>
			</g>
			<path id="path1074" class="st36" d="M274.3,117.9c0.9,0,1.7,0.8,1.7,1.7c0,0.9-0.8,1.7-1.7,1.7c-0.9,0-1.7-0.8-1.7-1.7
				C272.6,118.7,273.4,117.9,274.3,117.9z"/>
		</g>
		<path id="path1078" class="st7" d="M216.9,122.8l0.3-0.1c-0.7-1-0.9-2-0.6-2.9C216,120.5,216.1,121.7,216.9,122.8"/>
		<path id="path1080" class="st4" d="M240.5,110.5c0.6,0.8,0.6,1,0.9,1.2c0.4,0.3,1.1,0.2,1.6,0c2.3-0.9,2.3,0.9,1.6,3
			c-0.3,1-1.3,2.1-1.7,3c-0.4,0.8-0.3,1.5-0.5,1.7c-0.8,0.1-1.5,0.2-1.9,0.3h0c-0.3,0.1-1,0.1-1.9,0.2c-0.3-0.2-0.5-0.7-1.2-1.4
			c-0.8-0.7-2.1-1.4-2.8-2.2c-1.4-1.6-2.2-3.2,0.1-3.1c0.6,0,1.1-0.1,1.4-0.5c0.2-0.3,0.1-0.5,0.2-1.4c0.1-0.6,0.4-1.1,0.6-1.4
			c0.3-0.4,0.7-0.3,1.1-0.3c0.4-0.1,0.8-0.3,1.2-0.1C239.6,109.6,240.1,109.9,240.5,110.5L240.5,110.5z"/>
		<path id="path1082" class="st7" d="M240.1,119.6c-0.1,0-0.2,0-0.4,0c-0.6-1.8-1.7-3.3-3-4.5C238.1,115.9,239.4,117.7,240.1,119.6"
			/>
		<path id="path1084" class="st7" d="M240.8,119.5c0.1,0,0.2-0.1,0.4-0.1c-0.2-1.9,0-3.5,0.7-5.1
			C240.9,115.4,240.6,117.5,240.8,119.5"/>
		<path id="path1086" class="st4" d="M244,111.4c-0.1,0.7-0.2,1.4-0.5,2c-0.5,1-1.7,0.6-3.1-0.3c-0.4-0.3-1.1-0.4-1.6-0.3
			c-0.6,0.1-1.1,0.4-1.4,0.8c-0.8,1.2-1.7,1.9-2.5,1.2c-0.6-0.5-0.9-1.1-1.3-1.6c0.2-0.1,0.6-0.1,1-0.1c0.6,0,1.1-0.1,1.4-0.5
			c0.2-0.3,0.1-0.5,0.2-1.4c0.1-0.6,0.4-1.1,0.6-1.4c0.3-0.4,0.7-0.3,1.1-0.3c0.4-0.1,0.8-0.3,1.2-0.1c0.4,0.2,0.9,0.6,1.3,1.1
			c0.6,0.8,0.6,1,0.9,1.2c0.4,0.3,1.1,0.2,1.6,0C243.4,111.5,243.8,111.4,244,111.4L244,111.4z"/>
		<path id="path1088" class="st37" d="M231.5,120.5c0.4-0.4,0.5-0.3,0.6-0.6c0.1-0.4-0.1-0.9-0.4-1.5c-1.1-2.2,0.1-2,1.7-1.1
			c0.4,0.2,0.9,0.6,1.3,1c0.5,0.4,0.9,0.8,1.3,1.1c0.8,0.6,1.3,0.6,1.5,0.8c0.4,0.9,0.6,1.6,0.8,2v0c0.1,0.3,0.4,1.1,0.7,2
			c-0.1,0.2-0.5,0.3-0.8,0.9c-0.3,0.6-0.6,1.7-1,2.3c-0.6,0.8-1.1,1.3-1.6,1.2c-0.4-0.1-0.7-0.7-0.8-2.1c0-0.5-0.3-1.1-0.7-1.4
			c-0.3-0.3-0.3-0.2-1-0.5c-0.4-0.2-0.8-0.6-1.1-0.9c-0.3-0.3-0.3-0.7-0.5-1.1c-0.1-0.4-0.4-0.7-0.3-1.1
			C231.1,121.1,231.2,120.7,231.5,120.5L231.5,120.5z"/>
		<path id="path1090" class="st7" d="M238.5,122.8c0,0.2,0.1,0.3,0.1,0.4c-0.7,0.2-1.3,0.4-1.7,0.8c-0.5,0.4-0.9,0.9-1.1,1.5
			c0.1-0.7,0.4-1.2,0.9-1.7C237.1,123.3,237.7,123,238.5,122.8"/>
		<path id="path1092" class="st7" d="M238.2,122c-0.1-0.1-0.1-0.3-0.2-0.4c-0.8-0.1-1.5-0.3-2.2-0.6c-0.7-0.3-1.4-0.7-2.1-1.3
			c0.5,0.6,1.3,1.1,2,1.5C236.5,121.6,237.4,121.9,238.2,122"/>
		<path id="path1094" class="st5" d="M231.3,117c0.5,0.2,0.8,0.4,1.3,0.8c0.4,0.3,0.6,0.8,0.7,1.4c0.1,0.6,0,1.2-0.1,1.8
			c-0.1,0.4,0,1.1,0.3,1.7c0.2,0.7,0.6,1.3,0.9,1.6c1.2,1.2,2,2.4,1.6,3.1c-0.2,0.5-0.4,0.6-0.7,0.8c-0.1-0.3-0.5-0.5-0.6-1
			c-0.1-0.6-0.4-1.3-0.7-1.6c-0.3-0.3-0.3-0.6-1.1-1.1c-0.5-0.3-0.8-0.2-1.2-0.5c-0.6-0.7-1.4-2.5-0.6-3.3c0.8-0.8,1-1.3,0.4-2.7
			C231.4,117.6,231.4,117.3,231.3,117L231.3,117z"/>
		<path id="path1096" class="st38" d="M251.5,122.8c-0.6,0.5-0.8,0.4-0.9,0.7c-0.2,0.4-0.1,1,0.1,1.6c0.7,2.2-0.6,2-2.3,1.2
			c-0.8-0.4-1.8-1.5-2.5-2.1c-0.7-0.5-1.3-0.5-1.5-0.8c-0.2-0.9-0.4-1.7-0.4-2l0,0c-0.1-0.4-0.2-1.1-0.4-2.1
			c0.1-0.3,0.6-0.4,1.1-1.2c0.5-0.8,1-2.2,1.7-2.9c1.4-1.4,2.7-2,2.8,0.7c0,0.7,0.1,1.3,0.5,1.7c0.3,0.3,0.4,0.1,1.2,0.5
			c0.5,0.2,0.9,0.6,1.2,0.9c0.3,0.4,0.2,0.8,0.3,1.2c0.1,0.4,0.3,0.8,0.1,1.2C252.2,122.1,251.9,122.5,251.5,122.8L251.5,122.8z"/>
		<path id="path1098" class="st7" d="M243.9,121.1c0-0.1,0-0.3,0-0.4c1.5-0.4,2.7-1.3,3.7-2.6C246.9,119.5,245.5,120.6,243.9,121.1"
			/>
		<path id="path1100" class="st7" d="M244,121.8c0,0.1,0.1,0.3,0.1,0.4c1.6,0,3,0.6,4.4,1.5C247.5,122.6,245.7,121.9,244,121.8"/>
		<g id="g1204">
			<g id="g1110">
				<path id="path1102" class="st39" d="M250.9,126.2c-0.5-0.2-1.1-0.3-1.6-0.7c-0.8-0.6-0.6-1.8,0.1-3c0.2-0.4,0.2-1,0.1-1.7
					c-0.1-0.6-0.4-1.3-0.7-1.6c-1.1-1.1-1.8-2.2-1.2-3.1c0.4-0.6,0.9-0.9,1.4-1.2c0.1,0.3,0.2,0.7,0.2,1.2c0,0.7,0.1,1.3,0.5,1.7
					c0.3,0.3,0.4,0.1,1.2,0.5c0.5,0.2,0.9,0.6,1.2,0.9c0.3,0.4,0.2,0.8,0.3,1.2c0.1,0.4,0.3,0.8,0.1,1.2c-0.2,0.4-0.4,0.8-0.8,1.1
					c-0.6,0.5-0.8,0.4-0.9,0.7c-0.2,0.4-0.1,1,0.1,1.6C250.8,125.6,250.9,125.9,250.9,126.2L250.9,126.2z"/>
				<g id="g1108" transform="scale(0.99997,-1)">
					<path id="path1104" class="st4" d="M240.4-118.2c1.9,0.1,3.7-1.6,4-3.6c0.3-2-1.1-3.6-2.9-3.6c-1.8,0-3.5,1.5-3.9,3.4
						C237.3-120.1,238.5-118.3,240.4-118.2z"/>
					<path id="path1106" class="st4" d="M240.5-119.2c1.4,0.1,2.7-1.1,2.9-2.6c0.2-1.5-0.8-2.7-2.1-2.7c-1.3,0-2.6,1.1-2.9,2.5
						C238.3-120.5,239.2-119.3,240.5-119.2L240.5-119.2z"/>
				</g>
			</g>
			<path id="path1112" class="st25" d="M240.7,120.2c0.9,0,1.7,0.7,1.8,1.6c0.1,0.9-0.5,1.7-1.3,1.7c-0.9,0-1.7-0.7-1.8-1.6
				C239.3,121.1,239.8,120.3,240.7,120.2L240.7,120.2z"/>
			<g id="g1124">
				<path id="path1114" class="st9" d="M310.8,105.9c-1.7,0-3,1.3-3,3s1.3,3,3,3c1.7,0,3-1.3,3-3
					C313.9,107.2,312.5,105.9,310.8,105.9z"/>
				<g id="g1122" transform="scale(-0.99997,-1)">
					<path id="path1116" class="st10" d="M-336.5-112.2c1.5,0,2.8-1.3,2.8-2.8c0-1.5-1.3-2.8-2.8-2.8c-1.5,0-2.8,1.3-2.8,2.8
						C-339.3-113.5-338.1-112.2-336.5-112.2z"/>
					<path id="path1118" class="st10" d="M-339.2-107.1c1.5,0,2.8-1.3,2.8-2.8c0-1.5-1.3-2.8-2.8-2.8s-2.8,1.3-2.8,2.8
						C-342-108.3-340.8-107.1-339.2-107.1z"/>
					<path id="path1120" class="st10" d="M-341.7-101.9c1.5,0,2.8-1.3,2.8-2.8c0-1.5-1.3-2.8-2.8-2.8c-1.5,0-2.8,1.3-2.8,2.8
						C-344.5-103.2-343.3-101.9-341.7-101.9z"/>
				</g>
			</g>
			<path id="path1126" class="st12" d="M292.2,111.5c-1.6-0.1-1.2,2.8-0.9,3.4c0.4,0.8,0.8,0.9,1.3,0.1
				C293.1,114.4,293.9,111.6,292.2,111.5L292.2,111.5z"/>
			<path id="path1128" class="st13" d="M292.1,113.1c-3.8-0.3-2.9,6.5-2.1,8c1,2,1.9,2,3.1,0.2C294.1,119.9,295.9,113.3,292.1,113.1
				z"/>
			<path id="path1130" class="st14" d="M322.8,115.6c-1.5-0.5-1.8,2.4-1.7,3.1c0.2,0.9,0.6,1,1.3,0.4
				C322.9,118.6,324.3,116.1,322.8,115.6L322.8,115.6z"/>
			<path id="path1132" class="st15" d="M322.3,117.1c-3.6-1.2-4.3,5.6-4,7.3c0.5,2.1,1.4,2.4,3,1C322.6,124.2,326,118.2,322.3,117.1
				L322.3,117.1z"/>
			<g id="g1142" transform="scale(-0.99997,-1)">
				<path id="path1134" class="st5" d="M-282.8-81.2c-8.2,0.7-16.5-0.1-24.8-3.4c-7-2.8-6.3-10.8,2.2-22c-0.8-1.4-1.2-3.2-1.3-5.2
					c0.9,0.1,1.5,0,2.3,0c-0.6,1.4,0.1,3,0.9,4.2c0.5,0.8,0.6,0.6,0,1.5c-5.1,7-8.4,13.2-6.4,17c2.4,4.5,11.7,6.9,27.3,6.5
					c0,0.4-0.1,0.8-0.1,1.3C-282.7-81.4-282.7-81.3-282.8-81.2L-282.8-81.2z"/>
				<g id="g1140">
					<path id="path1136" class="st16" d="M-322.4-83.5c1.6,0,2.9-1.3,2.9-2.9c0-1.6-1.3-2.9-2.9-2.9s-2.9,1.3-2.9,2.9
						C-325.3-84.8-324-83.5-322.4-83.5z"/>
					<path id="path1138" class="st16" d="M-316.7-81.7c1.6,0,2.9-1.3,2.9-2.9c0-1.6-1.3-2.9-2.9-2.9c-1.6,0-2.9,1.3-2.9,2.9
						C-319.6-83-318.3-81.7-316.7-81.7z"/>
				</g>
			</g>
			<g id="g1152">
				<path id="path1144" class="st4" d="M315.9,84.2c-0.3,0.4-0.6,0.8-0.9,1.2c4.6,2.5,6.5,5.2,6,7.8c-0.1,0.5-1.5,5.4-4.6,14.8
					c-2.1,1.5-3.7,2.8-4.8,4c0.1,0.1-0.3,0.5-0.2,0.7c-0.3,1.4,1.3,1.2,2.4,0.8c0.5-1.4,2.1-2.9,3.1-3.5c0.2-0.1,0.9-0.5,0.9-0.7
					c1.7-5.3,3.3-10.3,4.8-14.9C324.2,89.8,321.1,86.5,315.9,84.2L315.9,84.2z"/>
				<path id="path1146" class="st17" d="M334.1,118.4l0.2,0.9c1.3,0.3,2.5,0.4,3.4,0.2C336.1,118,334.9,117.7,334.1,118.4
					L334.1,118.4z"/>
				<path id="path1148" class="st18" d="M334.2,116.3c-0.8,0.2-0.9,0.3-1.3,0.4c-0.5,0.1-1.1,0-1.6-0.3c-1.8-1.1-1.9,0.9-1.2,2.3
					c0.5,1.1,0.3,2.3-0.2,3.2c-0.6,1.1-0.5,1.6,0,1.9c0.3,0.2,0.6,0.4,0.8,0.5c0.5,0.6,0.9,0.5,0.9-0.3c1.8-0.7,2.4-2.5,3-4
					C335.4,117.7,338.3,117.2,334.2,116.3L334.2,116.3z"/>
				<path id="path1150" class="st19" d="M333.5,116.4c-1.6,0.6-1.8-0.3-2.8-0.3c0.4,2.4,0.8,3.7,3.4,2.4c1.4-0.7,3.2,0.3,3.5,1.1
					c0.1,0.3,0.9-0.3,1.2-1C340,115.9,335.6,115.6,333.5,116.4L333.5,116.4z"/>
			</g>
			<g id="g1174">
				<g id="g1162" transform="scale(-0.99998,-1)">
					<path id="path1154" class="st20" d="M-285.3-75c1.6,0,2.9-1.3,2.9-2.9c0-1.6-1.3-2.9-2.9-2.9s-2.9,1.3-2.9,2.9
						C-288.2-76.3-286.9-75-285.3-75z"/>
					<path id="path1156" class="st20" d="M-291.3-75c1.6,0,2.9-1.3,2.9-2.9c0-1.6-1.3-2.9-2.9-2.9c-1.6,0-2.9,1.3-2.9,2.9
						C-294.2-76.3-292.9-75-291.3-75z"/>
					<path id="path1158" class="st20" d="M-297.2-75.5c1.6,0,2.9-1.3,2.9-2.9c0-1.6-1.3-2.9-2.9-2.9s-2.9,1.3-2.9,2.9
						C-300.1-76.8-298.8-75.5-297.2-75.5z"/>
					<path id="path1160" class="st20" d="M-302.7-76.5c1.6,0,2.9-1.3,2.9-2.9c0-1.6-1.3-2.9-2.9-2.9c-1.6,0-2.9,1.3-2.9,2.9
						C-305.6-77.8-304.3-76.5-302.7-76.5z"/>
				</g>
				<g id="g1172" transform="scale(-0.99997,-1)">
					<path id="path1164" class="st16" d="M-338.6-91.4c1.6,0,2.9-1.3,2.9-2.9c0-1.6-1.3-2.9-2.9-2.9c-1.6,0-2.9,1.3-2.9,2.9
						C-341.6-92.7-340.3-91.4-338.6-91.4z"/>
					<path id="path1166" class="st16" d="M-333.7-88.3c1.6,0,2.9-1.3,2.9-2.9c0-1.6-1.3-2.9-2.9-2.9c-1.6,0-2.9,1.3-2.9,2.9
						C-336.6-89.6-335.3-88.3-333.7-88.3z"/>
					<path id="path1168" class="st16" d="M-328-85.6c1.6,0,2.9-1.3,2.9-2.9c0-1.6-1.3-2.9-2.9-2.9c-1.6,0-2.9,1.3-2.9,2.9
						C-330.9-86.9-329.6-85.6-328-85.6z"/>
					<path id="path1170" class="st16" d="M-342.5-96.2c1.6,0,2.9-1.3,2.9-2.9c0-1.6-1.3-2.9-2.9-2.9c-1.6,0-2.9,1.3-2.9,2.9
						C-345.4-97.5-344.1-96.2-342.5-96.2z"/>
				</g>
			</g>
			<g id="g1184">
				<path id="path1176" class="st26" d="M327,128.1c-1.1-0.3-2.9,2.2-3.4,2.1c-0.6-1.4,0.6-4.9,2.6-7.6c1.4-0.5,1.5-1.3,1.8-3.4
					c0.1-0.6,1.3-0.2,1.3,0.9c0,1.1,0.1,1.7-0.1,2.7c-0.1,0.4,0,0.7,0.4,1.1C327.4,124.7,326.9,125.7,327,128.1z"/>
				<path id="path1178" class="st27" d="M328,119.2c0.2,0.5,0.3,0.9,0.3,1.6c0,0.5-0.2,1.1-0.5,1.5c-0.4,0.5-0.9,0.9-1.4,1.2
					c-0.4,0.2-0.8,0.8-1.1,1.4c-0.3,0.6-0.6,1.3-0.6,1.9c0,1.7-0.4,3.2-1.1,3.4c-0.5,0.2-0.7,0.2-1.1,0.1c0.1-0.3,0.1-0.7,0.3-1.2
					c0.4-0.5,0.7-1.2,0.7-1.7c0-0.4,0.2-0.7,0.1-1.5c-0.1-0.5-0.5-0.7-0.4-1.2c0.1-1,0.9-2.8,2-2.8c1.1,0,1.6-0.1,2.2-1.6
					C327.6,119.7,327.8,119.5,328,119.2L328,119.2z"/>
				<path id="path1180" class="st28" d="M332.2,123.2c-0.3-0.2-0.7-0.4-1-0.5c-0.6-0.2-1.2-0.3-1.8-0.1c-2.7,0.8-3.8,5.5-0.9,6.6
					c0.6,0.1,1.1-0.4,1.6-1.6c0.6-1.5,1.3-2.5,1.9-3.2C332.4,124,332.4,123.5,332.2,123.2L332.2,123.2z"/>
				<path id="path1182" class="st29" d="M330.8,123.5c-2.6-1-4.4,3.9-2,4.8c1.3,0.5,1.4-1.1,1.7-2
					C330.8,125.2,333.3,124.5,330.8,123.5z"/>
			</g>
			<path id="path1186" class="st30" d="M330.6,124.3c-1.2-0.5-3,2.4-1.4,3.1c1.1,0.4,1.9-0.1,2.2-1
				C331.7,125.5,331.4,124.6,330.6,124.3z"/>
			<g id="g1202">
				<path id="path1188" class="st9" d="M313.2,100.9c-1.7,0-3,1.4-3,3c0,1.7,1.3,3,3,3c1.7,0,3-1.4,3-3
					C316.2,102.3,314.8,100.9,313.2,100.9z"/>
				<path id="path1190" class="st9" d="M315.4,95.9c-1.7,0-3,1.4-3,3c0,1.7,1.3,3,3,3c1.7,0,3-1.3,3-3S317,95.9,315.4,95.9z"/>
				<path id="path1192" class="st16" d="M308.1,78.3c-1.6,0-2.9,1.3-2.9,2.9c0,1.6,1.3,2.9,2.9,2.9s2.9-1.3,2.9-2.9
					C311,79.6,309.7,78.3,308.1,78.3z"/>
				<g id="g1200" transform="scale(-0.99998,-1)">
					<path id="path1194" class="st9" d="M-313-80.5c1.7,0,3-1.3,3-3c0-1.7-1.3-3-3-3c-1.7,0-3,1.3-3,3
						C-316.1-81.8-314.7-80.5-313-80.5z"/>
					<path id="path1196" class="st9" d="M-316.6-84.8c1.7,0,3-1.4,3-3s-1.3-3-3-3c-1.7,0-3,1.3-3,3
						C-319.7-86.1-318.3-84.8-316.6-84.8z"/>
					<path id="path1198" class="st9" d="M-317.2-90.1c1.7,0,3-1.4,3-3c0-1.7-1.3-3-3-3c-1.7,0-3,1.4-3,3
						C-320.2-91.5-318.9-90.1-317.2-90.1z"/>
				</g>
			</g>
		</g>
		<path id="path1206" class="st7" d="M331.7,122.8l-0.3-0.1c0.7-1,0.9-2,0.6-2.9C332.6,120.5,332.4,121.7,331.7,122.8"/>
		<path id="path1208" class="st4" d="M308.1,110.5c-0.6,0.8-0.6,1-0.9,1.2c-0.4,0.3-1.1,0.2-1.6,0c-2.3-0.9-2.3,0.9-1.6,3
			c0.3,1,1.3,2.1,1.7,3c0.4,0.8,0.3,1.5,0.5,1.7c0.8,0.1,1.6,0.2,1.9,0.3h0c0.3,0.1,1,0.1,1.8,0.2c0.3-0.2,0.5-0.7,1.2-1.4
			c0.8-0.7,2.1-1.4,2.8-2.2c1.4-1.6,2.2-3.2-0.1-3.1c-0.6,0-1.1-0.1-1.4-0.5c-0.2-0.3,0-0.5-0.2-1.4c-0.1-0.6-0.4-1.1-0.6-1.4
			c-0.3-0.4-0.7-0.3-1.1-0.3c-0.4-0.1-0.8-0.3-1.2-0.1C309,109.6,308.5,109.9,308.1,110.5L308.1,110.5z"/>
		<path id="path1210" class="st7" d="M308.4,119.6c0.1,0,0.3,0,0.4,0c0.6-1.8,1.7-3.3,3-4.5C310.5,115.9,309.2,117.7,308.4,119.6"/>
		<path id="path1212" class="st7" d="M307.8,119.5c-0.1,0-0.2-0.1-0.4-0.1c0.2-1.9,0-3.5-0.7-5.1C307.6,115.4,308,117.5,307.8,119.5
			"/>
		<path id="path1214" class="st4" d="M304.5,111.4c0.1,0.7,0.2,1.4,0.5,2c0.5,1,1.7,0.6,3.1-0.3c0.4-0.3,1.1-0.4,1.6-0.3
			c0.6,0.1,1.1,0.4,1.4,0.8c0.8,1.2,1.7,1.9,2.5,1.2c0.6-0.5,0.9-1.1,1.3-1.6c-0.2-0.1-0.6-0.1-1-0.1c-0.6,0-1.1-0.1-1.4-0.5
			c-0.2-0.3,0-0.5-0.2-1.4c-0.1-0.6-0.3-1.1-0.6-1.4c-0.3-0.4-0.7-0.3-1.1-0.3c-0.4-0.1-0.8-0.3-1.2-0.1c-0.4,0.2-0.9,0.6-1.3,1.1
			c-0.6,0.8-0.6,1-0.9,1.2c-0.4,0.3-1,0.2-1.6,0C305.2,111.5,304.8,111.4,304.5,111.4L304.5,111.4z"/>
		<path id="path1216" class="st37" d="M317.1,120.5c-0.4-0.4-0.5-0.3-0.6-0.6c-0.1-0.4,0.1-0.9,0.4-1.5c1.1-2.2-0.1-2-1.7-1.1
			c-0.4,0.2-0.9,0.6-1.3,1c-0.5,0.4-0.9,0.8-1.3,1.1c-0.8,0.6-1.3,0.6-1.5,0.8c-0.4,0.9-0.6,1.6-0.8,2l0,0c-0.1,0.3-0.4,1.1-0.7,2
			c0.1,0.2,0.5,0.3,0.8,0.9c0.3,0.6,0.6,1.7,1,2.3c0.6,0.8,1.1,1.3,1.6,1.2c0.4-0.1,0.7-0.7,0.8-2.1c0-0.5,0.4-1.1,0.7-1.4
			c0.3-0.3,0.3-0.2,1-0.5c0.4-0.2,0.8-0.6,1.1-0.9c0.3-0.3,0.3-0.7,0.5-1.1c0.1-0.4,0.4-0.7,0.3-1.1
			C317.5,121.1,317.3,120.7,317.1,120.5L317.1,120.5z"/>
		<path id="path1218" class="st7" d="M310.1,122.8c0,0.2-0.1,0.3-0.1,0.4c0.7,0.2,1.3,0.4,1.7,0.8c0.5,0.4,0.9,0.9,1.1,1.5
			c-0.1-0.7-0.4-1.2-0.9-1.7C311.5,123.3,310.8,123,310.1,122.8"/>
		<path id="path1220" class="st7" d="M310.4,122c0.1-0.1,0.1-0.3,0.2-0.4c0.8-0.1,1.5-0.3,2.2-0.6c0.7-0.3,1.4-0.7,2.1-1.3
			c-0.5,0.6-1.3,1.1-2,1.5C312.1,121.6,311.2,121.9,310.4,122"/>
		<path id="path1222" class="st5" d="M317.3,117c-0.5,0.2-0.8,0.4-1.3,0.8c-0.4,0.3-0.6,0.8-0.7,1.4c-0.1,0.6,0,1.2,0.1,1.8
			c0.1,0.4,0,1.1-0.3,1.7c-0.2,0.7-0.6,1.3-0.9,1.6c-1.2,1.2-2,2.4-1.6,3.1c0.2,0.5,0.4,0.6,0.7,0.8c0.1-0.3,0.5-0.5,0.6-1
			c0.1-0.6,0.4-1.3,0.7-1.6c0.3-0.3,0.3-0.6,1.1-1.1c0.5-0.3,0.8-0.2,1.2-0.5c0.6-0.7,1.4-2.5,0.6-3.3c-0.8-0.8-1-1.3-0.4-2.7
			C317.2,117.6,317.2,117.3,317.3,117L317.3,117z"/>
		<path id="path1224" class="st38" d="M297.1,122.8c0.6,0.5,0.8,0.4,0.9,0.7c0.2,0.4,0.1,1-0.1,1.6c-0.7,2.2,0.6,2,2.3,1.2
			c0.8-0.4,1.8-1.5,2.5-2.1c0.7-0.5,1.3-0.5,1.5-0.8c0.2-0.9,0.4-1.7,0.4-2c0.1-0.4,0.2-1.1,0.4-2.1c-0.1-0.3-0.6-0.4-1.1-1.2
			c-0.5-0.8-1-2.2-1.7-2.9c-1.4-1.4-2.7-2-2.8,0.7c0,0.7-0.1,1.3-0.5,1.7c-0.3,0.3-0.4,0.1-1.2,0.5c-0.5,0.2-0.9,0.6-1.2,0.9
			c-0.3,0.4-0.2,0.8-0.3,1.2c-0.1,0.4-0.3,0.8-0.1,1.2C296.4,122.1,296.7,122.5,297.1,122.8L297.1,122.8z"/>
		<path id="path1226" class="st7" d="M304.7,121.1c0-0.1,0-0.3,0-0.4c-1.5-0.4-2.7-1.3-3.7-2.6C301.6,119.5,303.1,120.6,304.7,121.1
			"/>
		<path id="path1228" class="st7" d="M304.6,121.8c0,0.1-0.1,0.3-0.1,0.4c-1.6,0-3,0.6-4.4,1.5C301.1,122.6,302.8,121.9,304.6,121.8
			"/>
		<g id="g1242">
			<path id="path1230" class="st39" d="M297.7,126.2c0.5-0.2,1.1-0.3,1.6-0.7c0.8-0.6,0.6-1.8-0.1-3c-0.2-0.4-0.2-1-0.1-1.7
				c0.1-0.6,0.4-1.3,0.7-1.6c1.1-1.1,1.8-2.2,1.2-3.1c-0.4-0.6-0.9-0.9-1.4-1.2c-0.1,0.3-0.2,0.7-0.2,1.2c0,0.7-0.1,1.3-0.5,1.7
				c-0.3,0.3-0.4,0.1-1.2,0.5c-0.5,0.2-0.9,0.6-1.2,0.9c-0.3,0.4-0.2,0.8-0.3,1.2c-0.1,0.4-0.3,0.8-0.1,1.2c0.2,0.4,0.4,0.8,0.8,1.1
				c0.6,0.5,0.8,0.4,0.9,0.7c0.2,0.4,0.1,1-0.1,1.6C297.8,125.6,297.7,125.9,297.7,126.2L297.7,126.2z"/>
			<g id="g1240" transform="scale(0.99997,-1)">
				<path id="path1232" class="st4" d="M308.2-118.2c-1.9,0.1-3.8-1.6-4-3.6c-0.3-2,1.1-3.6,2.9-3.6c1.8,0,3.5,1.5,3.9,3.4
					C311.3-120.1,310.1-118.3,308.2-118.2L308.2-118.2z"/>
				<path id="path1234" class="st4" d="M308.1-119.2c-1.4,0.1-2.7-1.1-2.9-2.6c-0.2-1.5,0.8-2.7,2.1-2.7c1.3,0,2.6,1.1,2.9,2.5
					C310.3-120.5,309.5-119.3,308.1-119.2L308.1-119.2z"/>
				<path id="path1236" class="st25" d="M307.9-120.2c-0.9,0-1.7-0.7-1.8-1.6c-0.1-0.9,0.5-1.7,1.3-1.7c0.9,0,1.7,0.7,1.8,1.6
					C309.3-121.1,308.8-120.3,307.9-120.2L307.9-120.2z"/>
				<path id="path1238" class="st4" d="M319.2-154.5c0.9-0.1,1.4-0.7,1.4-1.3c0-0.6-0.5-1.2-1.4-1.3c-0.2-0.1-0.5-0.1-0.7-0.1
					c-28.8-2.5-59.6-2.5-88.4,0c-0.3,0-0.5,0.1-0.7,0.1c-0.9,0.1-1.4,0.7-1.4,1.3c0,0.6,0.5,1.2,1.4,1.3c0.2,0.1,0.5,0.1,0.7,0.1
					c28.8,2.5,59.6,2.5,88.4,0C318.7-154.4,319-154.4,319.2-154.5L319.2-154.5z"/>
			</g>
		</g>
	</g>
	<g id="g1472">
		<path id="path1246" class="st40" d="M241.1,156.4c3.7-0.2,7.4-0.4,11-0.6c3.7-0.2,7.4-0.3,11-0.3c3.7-0.1,7.4-0.1,11.1-0.1
			c3.7,0,7.4,0,11.1,0.1c3.7,0.1,7.4,0.2,11,0.3c3.7,0.2,7.4,0.3,11,0.6"/>
		<path id="path1248" class="st40" d="M241.1,156.5c3.7,0.2,7.4,0.4,11,0.6 M296.4,157c3.7-0.2,7.4-0.3,11-0.6"/>
		<path id="path1250" class="st41" d="M193.5,157.7v130.6c0,23.4,9.1,44.6,23.7,60c14.6,15.4,34.8,24.9,57.1,24.9h0
			c22.2,0,42.4-9.5,57.1-24.9c14.6-15.4,23.7-36.6,23.7-60V157.7L193.5,157.7z"/>
		<g id="g1470">
			<g id="g1308">
				<g id="g1294">
					<path id="path1252" class="st42" d="M275,366.4c0.7-0.1,1.9,0,2.8-0.7c1.2-0.9,0.7-4.7,0.6-7.1c-0.6-12.2-1.1-32.7-1.7-61.6
						c-1-0.1-1.8-0.1-2.5,0c-0.7-0.1-1.4-0.2-2.5,0c-0.6,28.8-1.1,49.4-1.7,61.6c-0.1,2.4-0.6,6.2,0.6,7.1c0.9,0.7,2.1,0.6,2.8,0.7
						H275z"/>
					<path id="path1254" class="st16" d="M282.7,366.1c-0.7-0.1-1.9,0.2-2.8-0.4c-1.3-0.8-1.4-4.7-1.5-7.1
						c-0.6-12.2-1.7-32.6-3.7-61.4c1-0.2,1.7-0.2,2.4-0.2c0.1,0,0.2-0.1,0.3-0.1c4.6,28.5,6.3,48.7,9.5,60.9
						c0.4,1.7,1.4,5.9-0.1,7.3c-0.8,0.8-2,0.7-2.7,0.9L282.7,366.1z"/>
					<path id="path1256" class="st16" d="M291.7,364.8c-0.7,0-1.8,0.4-2.9-0.2c-1.3-0.7-1.3-4.6-1.9-6.9
						c-3.1-12.2-4.9-32.4-9.5-60.9c1-0.3,1.7-0.4,2.4-0.4l0.1,0c7.3,27.7,9.5,47.2,15.2,59.3c0.5,1.7,2,6.1,0.6,7.7
						c-0.8,0.9-1.9,0.9-2.6,1.2L291.7,364.8z"/>
					<path id="path1258" class="st43" d="M300.7,362.2c-0.7,0.1-1.9,0.7-3,0.3c-1.4-0.6-1.6-4.7-2.6-6.8
						c-5.7-12.1-7.9-31.8-15.3-59.6c0.9-0.4,1.7-0.6,2.4-0.6c0.6-0.3,0.5-0.4,1.5-0.6c8.6,27.5,11.4,46.7,19.5,58.6
						c1.3,1.9,2.3,5.8,1.4,7c-0.7,0.9-1.8,1.1-2.5,1.4L300.7,362.2z"/>
					<path id="path1260" class="st16" d="M265.9,366.1c0.7-0.1,1.9,0.2,2.8-0.4c1.3-0.8,1.4-4.7,1.5-7.1c0.6-12.2,1.7-32.6,3.7-61.4
						c-1-0.2-1.7-0.2-2.5-0.2c-0.1,0-0.2-0.1-0.3-0.1c-4.6,28.5-6.3,48.7-9.5,60.9c-0.4,1.7-1.4,5.9,0.1,7.3c0.8,0.8,2,0.7,2.7,0.9
						L265.9,366.1z"/>
					<path id="path1262" class="st16" d="M256.9,364.8c0.7,0,1.8,0.4,2.9-0.2c1.3-0.7,1.3-4.6,1.9-6.9c3.1-12.2,4.9-32.4,9.5-60.9
						c-1-0.3-1.7-0.4-2.4-0.4l-0.1,0c-7.3,27.7-9.5,47.2-15.2,59.3c-0.5,1.7-2,6.1-0.6,7.7c0.8,0.9,1.9,0.9,2.6,1.2L256.9,364.8z"/>
					<path id="path1264" class="st43" d="M247.8,362.2c0.7,0.1,1.9,0.7,3,0.3c1.4-0.6,1.6-4.7,2.6-6.8c5.7-12.1,7.9-31.8,15.3-59.6
						c-0.9-0.4-1.7-0.6-2.4-0.6c-0.6-0.3-0.5-0.4-1.5-0.6c-8.6,27.5-11.4,46.7-19.5,58.6c-1.3,1.9-2.3,5.8-1.4,7
						c0.7,0.9,1.8,1.1,2.5,1.4L247.8,362.2z"/>
					<path id="path1266" class="st44" d="M295.9,341.4c-0.6,0-1.6,0.4-2.6-0.1c-1.3-0.6-2.2-4.4-3-6.7c-5.7-11.3-11-31.4-19.6-59.4
						c0.8-0.3,1.5-0.4,2.1-0.5c0.6-0.3,1.2-0.5,2.1-0.6c9.3,27.7,13.4,47.7,22.5,58.7c1.5,1.8,2.6,5.8,1.9,6.9
						c-0.5,0.9-1.6,1-2.2,1.2L295.9,341.4z"/>
					<path id="path1268" class="st45" d="M288.6,342.9c-0.7,0-1.7,0.3-2.6-0.3c-1.3-0.7-1.7-4.5-2.2-6.9
						c-2.3-12.1-6.6-32.3-12.7-60.7c0.9-0.3,1.5-0.3,2.2-0.3c0.6-0.2,1.2-0.4,2.2-0.4c7.2,28.2,8.8,49.4,15.6,60.2
						c1.2,2,1.9,6,1.1,7.1c-0.6,0.8-1.7,0.8-2.3,1.1L288.6,342.9z"/>
					<path id="path1270" class="st46" d="M281.2,343.7c-0.6-0.1-1.7,0.2-2.6-0.5c-1.2-0.8-1.2-4.6-1.4-7
						c-0.9-12.2-2.8-32.7-5.6-61.4c0.9-0.2,1.6-0.2,2.2-0.1c0.6-0.2,1.3-0.3,2.2-0.2c3.9,28.7,6.1,49.4,8.6,61.2
						c0.5,2.3,1.2,6.1,0.3,7.1c-0.7,0.8-1.8,0.7-2.4,0.9L281.2,343.7z"/>
					<path id="path1272" class="st44" d="M252.6,341.4c0.6,0,1.6,0.4,2.6-0.1c1.3-0.6,2.2-4.4,3-6.7c5.7-11.3,11-31.4,19.6-59.4
						c-0.8-0.4-1.5-0.4-2.1-0.5c-0.6-0.2-1.2-0.5-2.1-0.6c-9.3,27.7-13.4,47.7-22.5,58.7c-1.5,1.8-2.6,5.8-1.9,6.9
						c0.5,0.9,1.6,1,2.2,1.2L252.6,341.4z"/>
					<path id="path1274" class="st45" d="M260,342.9c0.6,0,1.7,0.3,2.6-0.3c1.3-0.7,1.7-4.5,2.2-6.9c2.3-12.1,6.6-32.3,12.7-60.7
						c-0.9-0.3-1.5-0.3-2.2-0.3c-0.6-0.2-1.2-0.4-2.2-0.4c-7.2,28.2-8.8,49.4-15.6,60.2c-1.2,2-1.9,6-1.1,7.1
						c0.6,0.8,1.7,0.8,2.3,1.1L260,342.9z"/>
					<path id="path1276" class="st46" d="M267.4,343.7c0.6-0.1,1.7,0.2,2.6-0.5c1.2-0.8,1.2-4.6,1.4-7c0.9-12.2,2.8-32.7,5.6-61.4
						c-0.9-0.2-1.6-0.2-2.2-0.1c-0.6-0.2-1.3-0.3-2.2-0.2c-3.9,28.7-6.1,49.4-8.6,61.2c-0.5,2.3-1.2,6.1-0.3,7.1
						c0.7,0.8,1.8,0.7,2.4,0.9L267.4,343.7z"/>
					<path id="path1278" class="st47" d="M275,344c0.6-0.1,1.7,0,2.5-0.7c1.1-0.9,0.6-4.7,0.6-7.1c-0.5-12.2-0.9-32.7-1.5-61.6
						c-0.9-0.1-1.6-0.1-2.2,0c-0.6-0.1-1.3-0.2-2.2,0c-0.6,28.9-1,49.4-1.5,61.6c-0.1,2.4-0.5,6.2,0.6,7.1c0.8,0.7,1.9,0.6,2.5,0.7
						H275z"/>
					<path id="path1280" class="st48" d="M290.9,324.6c-0.5,0-1.2,0.4-2-0.1c-1-0.6-1.7-4.4-2.3-6.7c-4.4-11.3-8.4-31.4-15-59.4
						c0.6-0.3,1.1-0.4,1.6-0.5c0.4-0.2,0.9-0.5,1.6-0.6c7.1,27.7,10.3,47.7,17.2,58.7c1.1,1.8,2,5.8,1.5,6.9c-0.4,0.9-1.2,1-1.7,1.2
						L290.9,324.6z"/>
					<path id="path1282" class="st49" d="M285.3,326.1c-0.5,0-1.3,0.3-2-0.3c-1-0.7-1.3-4.5-1.7-6.9c-1.8-12.1-5-32.3-9.7-60.7
						c0.7-0.3,1.2-0.3,1.7-0.3c0.5-0.2,0.9-0.4,1.7-0.4c5.5,28.2,6.8,49.4,12,60.2c0.9,2,1.5,6,0.8,7.1c-0.5,0.8-1.3,0.8-1.8,1.1
						L285.3,326.1z"/>
					<path id="path1284" class="st50" d="M279.6,326.9c-0.5-0.1-1.3,0.2-2-0.5c-0.9-0.8-0.9-4.6-1-7c-0.7-12.2-2.2-32.7-4.3-61.4
						c0.7-0.2,1.2-0.2,1.7-0.1c0.5-0.2,1-0.3,1.7-0.2c3,28.7,4.7,49.4,6.6,61.2c0.4,2.3,0.9,6.1,0.2,7.1c-0.6,0.8-1.4,0.7-1.9,0.9
						L279.6,326.9z"/>
					<path id="path1286" class="st48" d="M257.7,324.6c0.5,0,1.2,0.4,2-0.1c1-0.6,1.7-4.4,2.3-6.7c4.4-11.3,8.4-31.4,15-59.4
						c-0.6-0.4-1.1-0.4-1.6-0.5c-0.4-0.3-0.9-0.5-1.6-0.6c-7.1,27.7-10.3,47.7-17.2,58.7c-1.1,1.8-2,5.8-1.5,6.9
						c0.4,0.9,1.2,1,1.7,1.2L257.7,324.6z"/>
					<path id="path1288" class="st49" d="M263.3,326.1c0.5,0,1.3,0.3,2-0.3c1-0.7,1.3-4.5,1.7-6.9c1.8-12.1,5-32.3,9.7-60.7
						c-0.7-0.3-1.2-0.3-1.7-0.3c-0.5-0.2-0.9-0.4-1.7-0.4c-5.5,28.2-6.8,49.4-12,60.2c-0.9,2-1.5,6-0.8,7.1c0.5,0.8,1.3,0.8,1.8,1.1
						L263.3,326.1z"/>
					<path id="path1290" class="st50" d="M269,326.9c0.5-0.1,1.3,0.2,2-0.5c0.9-0.8,0.9-4.6,1-7c0.7-12.2,2.2-32.7,4.3-61.4
						c-0.7-0.2-1.2-0.2-1.7-0.1c-0.5-0.2-1-0.3-1.7-0.2c-3,28.7-4.7,49.4-6.6,61.2c-0.4,2.3-0.9,6.1-0.2,7.1
						c0.6,0.8,1.4,0.7,1.9,0.9L269,326.9z"/>
					<path id="path1292" class="st42" d="M274.8,327.2c0.5-0.1,1.3,0,1.9-0.7c0.8-0.9,0.5-4.7,0.4-7.1c-0.4-12.2-0.7-32.7-1.2-61.6
						c-0.7-0.1-1.2-0.1-1.7,0c-0.5-0.1-1-0.2-1.7,0c-0.4,28.8-0.8,49.4-1.2,61.6c-0.1,2.4-0.4,6.2,0.4,7.1c0.6,0.7,1.4,0.6,1.9,0.7
						H274.8z"/>
				</g>
				<g id="g1306">
					<path id="path1296" class="st51" d="M240.5,294.1c-1.5,0.1-3.4,0.9-9,5.7c-2.4,4.9-4.9,9.9-8.2,14.2c-1.1,0.8-2,1.3-3,1.6
						c-0.9,0.3-7.9,0.1-8.1-0.2c-2.2-2-5.5-0.6-4.4,1.5c-0.9,0.8,1,3.8,2.6,2.6c1.4-1.1,6.3-0.1,7.9-0.7c-0.6,1.5-5,2.4-8.1,2.6
						c-2.8,0.1-2.6,2.9-1.5,5.1c1.3,0.8,0.2-0.2,0.7,0.4c1.3,1.9,3.9,1.6,4-0.2c0.1-1.9,6.6-4.3,7.6-5.8c-1.2,2.9-4,5.5-5.3,8.3
						c-1.5,1.5-2.4,1.8-0.5,4.8c2.1-0.2,2.2-0.8,3.5,0.4c2.9-0.3,3.4-1.2,2.9-3.5c-0.5-2.4,1.5-6.8,2.2-8c0.6-1.1,0.8-2.3,1.4-3
						c1.1-1.2,6.1-3.7,7.3-3c2.4,1.3,4.2,0.5,4.5-1.8c-0.8-0.6-0.2-3.8-1.8-4c-1.3-0.1-2.1,0.3-3.4,1.3c-1.9,1.6-2.9,2.4-3.6,2.2
						c-1.5-0.4,2.7-2.5,6.6-7.5C240.4,300.1,240.8,296.5,240.5,294.1L240.5,294.1z"/>
					<path id="path1298" class="st52" d="M208.3,318.2c-1.9-1.1-3-1.1-3.8-0.2c-0.4,0.5-0.9,0.2-0.6-0.5c1.3-3,3.3-3.4,5.2-2
						c0.5,0.5,0.9,0.9,1.3,1.3C210,317.2,208.5,317.8,208.3,318.2L208.3,318.2z"/>
					<path id="path1300" class="st53" d="M236,315.5c2.1-1.4,4-1.7,5-0.9c0.6,0.4,1.2,0.1,0.6-0.6c-2.1-3-4.6-3.1-6.5-1.5
						c-0.5,0.6-0.9,1-1.3,1.5C234.4,314.7,235.9,315.5,236,315.5L236,315.5z"/>
					<path id="path1302" class="st54" d="M219.8,332.6c-1.3,2.5-1.9,4.2-1.4,5.5c0.3,0.8,0,1.5-0.8,0.8c-3.2-2.8-3.2-5.9-1.2-8
						c0.7-0.7,1.4-1.2,2.1-1.7C219.3,330,219.9,332.5,219.8,332.6L219.8,332.6z"/>
					<path id="path1304" class="st55" d="M211.8,326.1c-1.9,0.8-2.6,1.8-2.5,3.1c0,0.7-0.4,1-0.7,0.2c-2.3-5.4,0.1-6.4,3.6-6.2
						C212.4,324,211.9,326,211.8,326.1L211.8,326.1z"/>
				</g>
			</g>
			<g id="g1320">
				<path id="path1310" class="st56" d="M228.2,314c-1.3-0.7-1.3-1.5-1-2.1c0.7-1.2,1.4-0.6,2.7,0.5"/>
				<path id="path1312" class="st56" d="M229.8,312.3c-1.3-0.7-1.3-1.5-1-2.1c0.7-1.2,1.4-0.6,2.7,0.5"/>
				<path id="path1314" class="st57" d="M231.7,310.6c-1.4-0.9-1.5-2-1.1-2.7c0.8-1.5,1.5-0.8,3,0.6"/>
				<path id="path1316" class="st58" d="M233.6,308.5c-1.5-1.1-1.6-2.3-1.2-3.1c0.8-1.7,1.6-0.9,3.2,0.7"/>
				<path id="path1318" class="st59" d="M235.7,306.2c-1.4-1.1-1.8-2.3-1.2-3.3c1-1.6,1.6-0.9,3.2,0.7"/>
			</g>
			<g id="g1366">
				<path id="path1322" class="st60" d="M254.3,184.5c-1,0.9-4.2,0.9-8.7,1.2c-7.1,0.3-11.3-1.9-12.2-6.5c2.7,3.2,5.9,4.8,9.5,3.9
					c4.9-1.2,7.7-2.1,8.8-1.9C252.5,181.5,253.6,182.8,254.3,184.5L254.3,184.5z"/>
				<g id="g1364">
					<path id="path1324" class="st16" d="M270.8,281.9c0,2-0.1,4.3-0.1,6.7l0,0l-5.1,1.1c0,2.3,5.7,26.7,8.7,26.7
						c3,0,8.7-24.4,8.7-26.7l-5.1-1l0,0c0-2.4,0-4.7-0.1-6.7c-1.1,0.9-2.3,2.4-3.5,3.8C273,284.3,271.9,282.8,270.8,281.9
						L270.8,281.9z"/>
					<g id="g1338">
						<path id="path1326" class="st61" d="M264.9,292.2l-4.6-2.6c-1.9,1.4-3.3,6.5-0.1,10.7c4.1,5.2,5.8,9,6.8,13.2
							c3-3.8,4-7.8,2.1-11.7C266.6,296.5,264.9,293.5,264.9,292.2L264.9,292.2z"/>
						<path id="path1328" class="st61" d="M268.6,288.6L264,286c-1.9,1.4-5.9,6.3-2.7,10.5c4.1,5.2,8.4,9.2,9.4,13.4
							c3-3.8,4.3-7.8,2.4-11.7C270.5,292.9,268.6,289.9,268.6,288.6L268.6,288.6z"/>
						<path id="path1330" class="st61" d="M283.7,292.2l4.6-2.6c1.9,1.4,3.3,6.5,0.1,10.7c-4.1,5.2-5.8,9-6.8,13.2
							c-3-3.8-4-7.8-2.1-11.7C282,296.5,283.7,293.5,283.7,292.2L283.7,292.2z"/>
						<path id="path1332" class="st61" d="M280,288.6l4.6-2.6c1.9,1.4,5.9,6.3,2.7,10.5c-4.1,5.2-8.4,9.2-9.4,13.4
							c-3-3.8-4.3-7.8-2.4-11.7C278,292.9,279.9,289.9,280,288.6L280,288.6z"/>
						<path id="path1334" class="st61" d="M258.5,286.7l-4.6-2.6c-1.9,1.4-3.3,6.5-0.1,10.7c4.1,5.2,5.8,9,6.8,13.2
							c3-3.8,4-7.8,2.1-11.7C260.2,291,258.5,288,258.5,286.7L258.5,286.7z"/>
						<path id="path1336" class="st61" d="M290.1,286.7l4.6-2.6c1.9,1.4,3.3,6.5,0.1,10.7c-4.1,5.2-5.8,9-6.8,13.2
							c-3-3.8-4-7.8-2.1-11.7C288.4,291,290,288,290.1,286.7L290.1,286.7z"/>
					</g>
					<g id="g1362" transform="matrix(0,0.99513,1,0,0,0)">
						<path id="path1340" class="st47" d="M239.7,237.3c4.2,0.1,32.2-0.7,36.1-0.9c3.9-0.2,6.6-2,8.2-3.8c-2.3-1.7-5.5-2.7-9.3-3
							c-1.9-0.1-28.4,0.2-33.8,0.4C232.6,233.2,232.3,235.5,239.7,237.3L239.7,237.3z"/>
						<path id="path1342" class="st47" d="M232.8,219.2l38.5-1.2c3.4-0.4,23.7,4.1,27.7,6.5c-2.6,6-16.4,7.3-29.8,6.1
							c-13.4-1.1-25,0.2-27.4,1.1c-3,0.1-6.2-0.4-9.4-0.5C232.7,227.5,232.6,223,232.8,219.2L232.8,219.2z"/>
						<path id="path1344" class="st47" d="M239.1,212.1l38.5,0.8c3.4-0.2,23.5,5.3,27.3,7.9c-4.7,6.1-24.1,4.9-29.9,3.9
							c-11.7-1.9-25.2-1.5-27.4-0.9c-3-0.1-6.7-0.2-9.8-0.4C238.2,219.7,238.7,215.9,239.1,212.1L239.1,212.1z"/>
						<path id="path1346" class="st47" d="M248.2,206.8l-0.3,10.1c4.2-0.9,17.2-0.2,27.2,1.6c9.3,1.6,33.5,3.9,39.3-5.8
							c-12.8-6-25.2-1.4-36.2-4.5C266.5,205.9,256.6,205.4,248.2,206.8L248.2,206.8z"/>
						<path id="path1348" class="st47" d="M232.6,245.4c4.2,0,32.2-1.6,36.1-2c3.9-0.4,6.6-2.2,8-4.1c-2.4-1.6-5.6-2.5-9.4-2.7
							c-1.9-0.1-28.4,1.1-33.8,1.4C225.4,241.4,225.1,243.7,232.6,245.4L232.6,245.4z"/>
						<path id="path1350" class="st47" d="M209.8,227.5c9-0.3,28.6-0.4,30.2-0.4c3.8,0.1,8.5,1.6,10.9,3.2c-1.5,1.9-4.1,3.7-8,4.1
							c-3.2,0.3-19.1,0.4-27,0.4c-1.3-2-3-4.1-4.7-5.8C211.2,229,209.9,227.5,209.8,227.5L209.8,227.5z"/>
						<path id="path1352" class="st47" d="M215.6,234.7c9.7-0.2,25-0.1,26.3,0c3.8,0.1,7,1,9.4,2.7c-1.5,1.9-4.2,3.9-8.1,4.3
							c-2.4,0.2-12.8,0.9-20.8,0.9C221.5,239.9,217.3,236.7,215.6,234.7L215.6,234.7z"/>
						<path id="path1354" class="st47" d="M209,228.5l-9.9-6.9c4.9-1.4,40-3.1,42.9-1.1c3.8,0.1,6.9,1.5,9.3,3.1
							c-1.5,1.9-4.1,4.7-8.1,3.9C239.2,226.7,213.1,227.6,209,228.5L209,228.5z"/>
						<path id="path1356" class="st47" d="M231.1,214.4c5.4-0.3,9.1-0.5,11-0.5c3.8,0.1,7,1,9.4,2.7c-1.5,1.9-4.1,4.3-8,4.1
							c-15.2-1-29.5,0.7-43.3,2.6c-1.2-1.6-2.5-4.4-3.7-6C215,214,226.5,212.9,231.1,214.4L231.1,214.4z"/>
						<path id="path1358" class="st62" d="M241,207.5l7.1,1.9c3.8,0.1,6.9,2.4,9.3,4.1c-1.5,1.9-3.9,3.6-7.8,3.1
							c-22.5-2.8-37.3-1.8-55.7,2.9C201.2,208.9,216.5,203.9,241,207.5L241,207.5z"/>
						<path id="path1360" class="st47" d="M248,208.1l-3.2-9.7c9.8-1.2,22.1,0.7,38.3,3.3c13.9,2.3,24.9,1.1,32-0.7
							c-1.4,10.4-14.9,14.8-40.2,9.6C268.2,209.2,259.7,207.8,248,208.1L248,208.1z"/>
					</g>
				</g>
			</g>
			<path id="path1368" class="st63" d="M207.8,293.9c0.2-6.4-0.9-13.5-2.1-19.4c-1.7-8.1-2.6-15.9-2.6-24.1"/>
			<g id="g1434">
				<g id="g1386">
					<path id="path1370" class="st62" d="M207.7,189.5l6.4,1.1c-0.3,1.4-1.9,9.8-2.2,11.2c-2.4,11.7-4,25.4-2.2,40.5
						c0.7,5.6,1.9,10.2,3.6,13.7c-7-0.8-11.5-7.6-10.9-19.6c-1.2-13.9-0.7-25,1.6-33.4C204.6,200.7,206.7,191.5,207.7,189.5
						L207.7,189.5z"/>
					<path id="path1372" class="st47" d="M203.8,191.1l3.1,3.6c-0.9,0.6,0.6,3.4-0.2,8.7c-0.5,3-2.3,6.6-2.7,10.5
						c-1.2,12.8-1.2,28.8,2.6,39.1c-7-0.8-9.4-7.1-9.7-19.1c-0.2-9.9-0.2-21.5,2.3-35C199.8,195.7,201.3,193.2,203.8,191.1
						L203.8,191.1z"/>
					<path id="path1374" class="st64" d="M221.3,200.5l-6.5-0.8c-1.2,6.1-2.1,10.4-2.3,12.6c-0.4,4.3,0.9,8.2,2.3,11.1
						c2.4-1.4,3.5-4.6,4.5-9C220.4,210,220.6,205.2,221.3,200.5L221.3,200.5z"/>
					<path id="path1376" class="st65" d="M238.1,214.3l-5.7,0.1c-0.2,5.3-0.3,8.8-0.2,10.7c0.2,3.6,1.1,6.7,2.7,9
						c1.7-1.5,3.4-4,3.7-7.8C238.7,222.4,238.2,218.3,238.1,214.3L238.1,214.3z"/>
					<path id="path1378" class="st66" d="M244.3,217l-5.7,0.3c0,5.3,0,8.9,0.1,10.7c0.3,3.6,1.3,6.7,3,8.9c1.7-1.5,3.3-4.1,3.4-8
						C245.2,225.1,244.5,221,244.3,217L244.3,217z"/>
					<path id="path1380" class="st67" d="M232.3,211.3l-5.7-0.4c-0.6,5.2-1.1,8.8-1.1,10.6c-0.1,3.6,0.5,6.8,1.9,9.2
						c1.9-1.3,3.7-3.7,4.3-7.5C232.2,219.5,232,215.3,232.3,211.3L232.3,211.3z"/>
					<path id="path1382" class="st68" d="M226.9,205.1l-6.3-2.6c-1.1,4.2-2.5,18.2,0.1,24.1c2.1-1.4,4.2-4.1,4.9-8.3
						C226.3,214.1,226.5,209.6,226.9,205.1L226.9,205.1z"/>
					<path id="path1384" class="st69" d="M218.6,198.2l-10.1,0.9c-2.3,5.8-3.8,10.9-4.6,15.5c4.7-0.8,8-3.1,9.3-7.3
						C214.9,201.6,217.7,199.2,218.6,198.2L218.6,198.2z"/>
				</g>
				<g id="g1408">
					<g id="g1394">
						<path id="path1388" class="st70" d="M228.8,350.2c3.8,3.1,7.4-4,3.9-13.2c-2.5-6.9-14.8-4.2-8,5c0.3,0.4,0.8,0.2,0.7-0.3
							c-0.4-1.9,0.8-3,2.7-2.6c5.1,1,5.3,10.6-0.3,8.4C226.9,347.5,227.8,349.4,228.8,350.2L228.8,350.2z"/>
						<path id="path1390" class="st70" d="M241.4,350.2c-3.8,3.1-7.4-4-3.9-13.2c2.5-6.9,14.8-4.2,8,5c-0.3,0.4-0.8,0.2-0.7-0.3
							c0.4-1.9-0.8-3-2.7-2.6c-5.1,1-5.3,10.6,0.3,8.4C243.3,347.5,242.4,349.4,241.4,350.2L241.4,350.2z"/>
						<path id="path1392" class="st70" d="M234.7,320.4L234.7,320.4c-0.5,1.7-2.4,3.7-3.8,5.2c-2.3,2.3-1.7,5.9-0.2,7.8
							c1.7,2.1,2.5,4.4,2.8,6.2c0.3,1.1,0.7,3.6,0.4,7.5c-0.2,1.9-1.3,2.9-2.4,3.7c-0.5,0.4,0.2,1.5,2,2.8c0.2,0.1,0.7,0.5,1,1.5
							c0.1,0.2,0.9,0.2,1,0c0.3-0.9,0.8-1.3,1-1.5c1.8-1.4,2.6-2.4,2-2.8c-1.1-0.9-2.2-1.8-2.4-3.7c-0.3-3.9,0.1-6.4,0.4-7.5
							c0.3-1.8,1.1-4.1,2.8-6.2c1.6-1.9,2.1-5.4-0.2-7.8c-1.5-1.5-3.3-3.5-3.8-5.1v-0.1c0-0.3-0.2-0.5-0.4-0.5
							S234.7,320.1,234.7,320.4L234.7,320.4z"/>
					</g>
					<path id="path1396" class="st6" d="M232.3,342.7h5.5c1,0,1.7,0.8,1.7,1.7c0,0.9-0.8,1.7-1.7,1.7h-5.5c-1,0-1.7-0.8-1.7-1.7
						C230.6,343.5,231.4,342.7,232.3,342.7z"/>
					<g id="g1404">
						<path id="path1398" class="st70" d="M307.2,350.2c3.8,3.1,7.3-4,3.9-13.2c-2.5-6.9-14.8-4.2-8,5c0.3,0.4,0.8,0.2,0.7-0.3
							c-0.4-1.9,0.8-3,2.7-2.6c5.1,1,5.3,10.6-0.3,8.4C305.3,347.5,306.2,349.4,307.2,350.2L307.2,350.2z"/>
						<path id="path1400" class="st70" d="M319.8,350.2c-3.8,3.1-7.4-4-3.9-13.2c2.5-6.9,14.8-4.2,8,5c-0.3,0.4-0.8,0.2-0.7-0.3
							c0.4-1.9-0.8-3-2.7-2.6c-5.1,1-5.3,10.6,0.3,8.4C321.7,347.5,320.8,349.4,319.8,350.2L319.8,350.2z"/>
						<path id="path1402" class="st70" d="M313.1,320.4L313.1,320.4c-0.5,1.7-2.4,3.7-3.8,5.2c-2.3,2.3-1.7,5.9-0.2,7.8
							c1.7,2.1,2.5,4.4,2.8,6.2c0.3,1.1,0.7,3.6,0.4,7.5c-0.2,1.9-1.3,2.9-2.4,3.7c-0.5,0.4,0.2,1.5,2,2.8c0.2,0.1,0.7,0.5,1,1.5
							c0.1,0.2,0.9,0.2,1,0c0.3-0.9,0.8-1.3,1-1.5c1.8-1.4,2.6-2.4,2-2.8c-1.1-0.9-2.2-1.8-2.4-3.7c-0.3-3.9,0.1-6.4,0.4-7.5
							c0.3-1.8,1.1-4.1,2.8-6.2c1.6-1.9,2.1-5.4-0.2-7.8c-1.5-1.5-3.3-3.5-3.8-5.1v-0.1c0-0.3-0.2-0.5-0.4-0.5
							S313.1,320.1,313.1,320.4L313.1,320.4z"/>
					</g>
					<path id="path1406" class="st6" d="M310.7,342.7h5.5c1,0,1.7,0.8,1.7,1.7c0,0.9-0.8,1.7-1.7,1.7h-5.5c-1,0-1.7-0.8-1.7-1.7
						C309,343.5,309.8,342.7,310.7,342.7z"/>
				</g>
				<g id="g1432" transform="matrix(0,0.99513,-1,0,0,0)">
					<path id="path1410" class="st47" d="M239.7-311.3c4.2,0.1,32.2-0.7,36.1-0.9c3.9-0.2,6.6-2,8.2-3.8c-2.3-1.7-5.5-2.7-9.3-3
						c-1.9-0.1-28.4,0.2-33.8,0.4C232.6-315.4,232.3-313.1,239.7-311.3L239.7-311.3z"/>
					<path id="path1412" class="st47" d="M232.8-329.4l38.5-1.2c3.4-0.4,23.7,4.1,27.7,6.5c-2.6,6-16.4,7.3-29.8,6.1
						c-13.4-1.1-25,0.2-27.4,1.1c-3,0.1-6.2-0.4-9.4-0.5C232.7-321.1,232.6-325.6,232.8-329.4L232.8-329.4z"/>
					<path id="path1414" class="st47" d="M239.1-336.5l38.5,0.8c3.4-0.2,23.5,5.3,27.3,7.9c-4.7,6.1-24.1,4.9-29.9,3.9
						c-11.7-1.9-25.2-1.5-27.4-0.9c-3-0.1-6.7-0.2-9.8-0.3C238.2-328.9,238.7-332.7,239.1-336.5L239.1-336.5z"/>
					<path id="path1416" class="st47" d="M248.2-341.8l-0.3,10.1c4.2-0.9,17.2-0.2,27.2,1.6c9.3,1.6,33.5,3.9,39.3-5.8
						c-12.8-6-25.2-1.4-36.2-4.5C266.5-342.7,256.6-343.2,248.2-341.8L248.2-341.8z"/>
					<path id="path1418" class="st47" d="M232.6-303.2c4.2,0,32.2-1.6,36.1-2c3.9-0.4,6.6-2.2,8-4.1c-2.4-1.6-5.6-2.5-9.4-2.7
						c-1.9-0.1-28.4,1.1-33.8,1.4C225.4-307.2,225.1-304.8,232.6-303.2L232.6-303.2z"/>
					<path id="path1420" class="st47" d="M209.8-321.1c9-0.3,28.6-0.4,30.2-0.4c3.8,0.1,8.5,1.6,10.9,3.2c-1.5,1.9-4.1,3.7-8,4.1
						c-3.2,0.3-19.1,0.4-27,0.4c-1.3-2-3-4.1-4.7-5.8C211.2-319.6,209.9-321.1,209.8-321.1L209.8-321.1z"/>
					<path id="path1422" class="st47" d="M215.6-313.9c9.7-0.2,25-0.1,26.3,0c3.8,0.1,7,1,9.4,2.7c-1.5,1.9-4.2,3.9-8.1,4.3
						c-2.4,0.2-12.8,0.9-20.8,1C221.5-308.6,217.3-311.9,215.6-313.9L215.6-313.9z"/>
					<path id="path1424" class="st47" d="M209-320.1l-9.9-6.9c4.9-1.4,40-3.1,42.9-1.1c3.8,0.1,6.9,1.5,9.3,3.1
						c-1.5,1.9-4.1,4.7-8.1,3.9C239.2-321.9,213.1-321,209-320.1L209-320.1z"/>
					<path id="path1426" class="st47" d="M231.1-334.2c5.4-0.3,9.1-0.5,11-0.5c3.8,0.1,7,1,9.4,2.7c-1.5,1.9-4.1,4.3-8,4.1
						c-15.2-1-29.5,0.7-43.3,2.6c-1.2-1.6-2.5-4.4-3.7-6C215-334.5,226.5-335.6,231.1-334.2L231.1-334.2z"/>
					<path id="path1428" class="st62" d="M241-341.1l7.1,1.9c3.8,0.1,6.9,2.4,9.3,4.1c-1.5,1.9-3.9,3.6-7.8,3.1
						c-22.5-2.8-37.3-1.8-55.7,2.9C201.2-339.7,216.5-344.6,241-341.1L241-341.1z"/>
					<path id="path1430" class="st47" d="M248-340.5l-3.2-9.7c9.8-1.2,22.1,0.7,38.3,3.3c13.9,2.3,24.9,1.1,32-0.7
						c-1.4,10.4-14.9,14.8-40.2,9.6C268.2-339.4,259.7-340.8,248-340.5L248-340.5z"/>
				</g>
			</g>
			<path id="path1436" class="st63" d="M340.8,293.9c-0.2-6.4,0.9-13.5,2.1-19.4c1.7-8.1,2.6-15.9,2.6-24.1"/>
			<g id="g1466">
				<g id="g1458">
					<path id="path1438" class="st62" d="M340.9,189.5l-6.4,1.1c0.3,1.4,1.9,9.8,2.2,11.2c2.4,11.7,4,25.4,2.2,40.5
						c-0.7,5.6-1.9,10.2-3.6,13.7c7-0.8,11.5-7.6,10.9-19.6c1.2-13.9,0.7-25-1.6-33.4C344,200.7,341.9,191.5,340.9,189.5
						L340.9,189.5z"/>
					<path id="path1440" class="st47" d="M344.8,191.1l-3.1,3.6c0.9,0.6-0.6,3.4,0.2,8.7c0.5,3,2.3,6.6,2.7,10.5
						c1.2,12.8,1.2,28.8-2.6,39.1c7-0.8,9.4-7.1,9.7-19.1c0.2-9.9,0.2-21.5-2.3-35C348.8,195.7,347.3,193.2,344.8,191.1L344.8,191.1
						z"/>
					<path id="path1442" class="st64" d="M327.3,200.5l6.5-0.8c1.2,6.1,2.1,10.4,2.3,12.6c0.4,4.3-0.9,8.2-2.3,11.1
						c-2.4-1.4-3.5-4.6-4.5-9C328.2,210,327.9,205.2,327.3,200.5L327.3,200.5z"/>
					<path id="path1444" class="st65" d="M310.4,214.2l5.7,0.1c0.2,5.3,0.3,8.8,0.2,10.7c-0.2,3.6-1.1,6.7-2.7,9
						c-1.7-1.5-3.4-4-3.7-7.8C309.9,222.4,310.4,218.3,310.4,214.2L310.4,214.2z"/>
					<path id="path1446" class="st66" d="M304.3,217l5.7,0.3c0,5.3,0,8.9-0.1,10.7c-0.3,3.6-1.3,6.7-3,8.9c-1.7-1.5-3.3-4.1-3.4-8
						C303.4,225.1,304.1,221,304.3,217L304.3,217z"/>
					<path id="path1448" class="st67" d="M316.3,211.3l5.7-0.4c0.6,5.2,1.1,8.8,1.1,10.7c0.1,3.6-0.5,6.8-1.9,9.2
						c-1.9-1.3-3.7-3.7-4.3-7.5C316.4,219.5,316.6,215.3,316.3,211.3L316.3,211.3z"/>
					<path id="path1450" class="st68" d="M321.7,205.1l6.3-2.6c1.1,4.2,2.5,18.2-0.1,24.1c-2.1-1.4-4.2-4.1-4.9-8.3
						C322.3,214.1,322.1,209.6,321.7,205.1L321.7,205.1z"/>
					<g id="g1456">
						<path id="path1452" class="st69" d="M330,198.2l10,0.9c2.3,5.8,3.8,10.9,4.6,15.5c-4.7-0.8-8-3.1-9.3-7.3
							C333.7,201.6,330.8,199.2,330,198.2L330,198.2z"/>
						<path id="path1454" class="st71" d="M300.4,212.5c0.8-0.2,1.5-0.4,2.3-0.7c-3.7-2.3-6.7-5.1-10.4-10.6
							c-3.7-5.7,1.6-15.9,3.8-21.3c4.6-3.4,8.9-8.4,10.3-14.9c0.5-3.5-9.2-2.3-15.9,0.9c-8.2,3.9-9.3,2.8-12.2,3.4
							c-1,5,1.1,5.4,3.2,5.2c-4.5,7.2-6.4,14.4-7.3,24.8c-0.9-10.4-2.8-17.6-7.3-24.8c2.1,0.2,4.3-0.2,3.2-5.2
							c-2.9-0.7-4,0.4-12.2-3.4c-6.7-3.2-16.5-4.4-15.9-0.9c1.4,6.6,5.7,11.5,10.3,14.9c2.2,5.4,7.5,15.6,3.8,21.3
							c-3.6,5.6-6.7,8.3-10.4,10.6c0.8,0.3,1.6,0.5,2.3,0.7c-0.6,0.8-5.3,2.2-5.9,1.8c-3.6-2.6-7.2-8.6-10.3-12.2
							c-8.8-10-13.2-17.7-11.6-23.9c2.2-6.7,10.1-14.2-0.4-12.9c-10.4,1.3-19.1,15.6-21.9,32.8c-1,6.4-1.6,11.7-2.3,16.1
							c5.7-2,8.2-4.1,9.7-6.6c-0.7,2.4-1.2,4.6-1.5,6.8c4.7-0.8,8-3.1,9.3-7.3c0.5-1.7,1.1-3.1,1.7-4.3c1.4,0.5,3.3,0.5,5.5-0.1
							c0.9,2,7.3,9.2,10.7,14.4c3.9,5.9,9.8,10.5,11.7,10.7c1,0.1,1.3-2,1.1-5c10.2,0.1,20.4,0.1,30.3-0.2c10,0.3,20.2,0.3,30.3,0.2
							c-0.2,3,0.1,5.1,1,5c1.9-0.3,7.8-4.8,11.7-10.7c3.5-5.3,9.9-12.4,10.7-14.4c2.3,0.6,4.1,0.6,5.5,0.1c0.6,1.2,1.2,2.6,1.7,4.3
							c1.2,4.2,4.6,6.5,9.3,7.3c-0.3-2.2-0.9-4.4-1.5-6.8c1.5,2.5,4,4.5,9.7,6.6c-0.7-4.4-1.3-9.7-2.3-16.1
							c-2.8-17.2-11.4-31.5-21.9-32.8c-10.4-1.3-2.6,6.2-0.3,12.9c1.6,6.2-2.8,13.9-11.6,23.9c-3.1,3.5-6.7,9.6-10.3,12.2
							C305.8,214.7,301,213.2,300.4,212.5L300.4,212.5z"/>
					</g>
				</g>
				<g id="g1464">
					<path id="path1460" class="st60" d="M294.3,184.5c1,0.9,4.2,0.9,8.7,1.2c7.1,0.2,11.3-1.9,12.2-6.5c-2.7,3.2-5.9,4.8-9.5,3.9
						c-4.9-1.2-7.7-2.1-8.8-1.9C296.1,181.5,295,182.8,294.3,184.5L294.3,184.5z"/>
					<path id="path1462" class="st72" d="M311,165.7c8,0.9,7.6,6.1,0.1,13.5c-1.4,1.4-1.9,1.4-2.2-0.1c-0.5-2.6-3.4-4.1-4.9-2.1
						c-1,1.3-0.8,2.1-4.2,1.6c-4.3,3.6-7.8,6.1-2.2,5.9c2.5-0.1,4.4,1.3,7.6,1.2c-1,1.8-1.1,2.1-1.6,2.2c-3.1,0.6-6.4-1.3-9.5-0.8
						c-6.9,1.3,11-18.6,10.8-19.4C304.4,165.8,309.2,162.3,311,165.7L311,165.7z"/>
				</g>
			</g>
			<path id="path1468" class="st73" d="M310.9,165.6c-0.7,1.9-1.9,3.6-3.8,5.2"/>
		</g>
	</g>
	<path id="path1474" class="st7" d="M312.6,169.4c-0.1-0.4-0.4-0.6-0.8-0.6c-0.4,0-0.6,0.4-0.6,0.7c0.1,0.4,0.4,0.6,0.8,0.6
		C312.4,170.1,312.6,169.8,312.6,169.4"/>
	<g id="g1482">
		<path id="path1476" class="st74" d="M244.1,167.7c2.2-0.1,4.4,0.8,7.2,1.9c0.8,0.3,3.6,1.4,4.5,1.3"/>
		<path id="path1478" class="st75" d="M267.1,174.6c-2.3-0.4-3.6-0.7-4.7-1"/>
		<path id="path1480" class="st76" d="M245.8,167.9c0.9,1.7,2,3.9,3.9,5c1.4,0.8,3-0.5,4.2-2.6"/>
	</g>
	<path id="path1484" class="st7" d="M249,172.1l-1.1-1.1c-0.5-0.7-0.2-1.5,0.9-2.6c0.8,0.4,1.5,0.6,2.1,0.9
		C250.5,170.8,249.8,171.7,249,172.1"/>
	<path id="path1486" class="st76" d="M302.8,167.9c-0.9,1.7-2,3.9-3.9,5c-1.4,0.8-3-0.5-4.2-2.6"/>
	<path id="path1488" class="st7" d="M299.6,172.1l1.1-1.1c0.5-0.7,0.2-1.5-0.9-2.6c-0.8,0.4-1.5,0.6-2.1,0.9
		C298.1,170.8,298.8,171.7,299.6,172.1"/>
	<g id="g1528">
		<g id="g1522">
			<path id="path1490" class="st74" d="M304.5,167.7c-2.2-0.1-4.4,0.8-7.2,1.9c-0.8,0.3-3.6,1.4-4.5,1.3"/>
			<path id="path1492" class="st75" d="M281.5,174.6c2.3-0.4,3.6-0.7,4.7-1"/>
			<g id="g1514">
				<g id="g1502" transform="scale(0.99997,-1)">
					<path id="path1494" class="st77" d="M245.8-211.8c4.6-1.6,8.7-1.3,11.8,1.8c0.5,0.5,1,0.9,1.4,1.4"/>
					<path id="path1496" class="st77" d="M259.6-205.9c-0.4-3.1-1.2-5.5-2.3-8c3.2,0.8,5.8,2.3,7.3,4.5"/>
					<path id="path1498" class="st77" d="M274.2-215.3c-2.5,3.1-4.1,6.6-4.2,10.5"/>
					<path id="path1500" class="st77" d="M264-205.4c0.3-3.1,1.2-5.7,2.6-7.8c1.5,1.2,3.1,3.1,3.7,5.8"/>
				</g>
				<g id="g1512" transform="scale(-0.99997,-1)">
					<path id="path1504" class="st77" d="M-302.8-211.8c4.6-1.6,8.7-1.3,11.8,1.8c0.5,0.5,1,0.9,1.4,1.4"/>
					<path id="path1506" class="st77" d="M-289-205.9c-0.4-3.1-1.2-5.5-2.3-8c3.2,0.8,5.8,2.3,7.3,4.5"/>
					<path id="path1508" class="st77" d="M-284.6-205.4c0.3-3.1,1.2-5.7,2.6-7.8c1.6,1.2,3.1,3.1,3.7,5.8"/>
					<path id="path1510" class="st77" d="M-274.4-215.3c-2.5,3.1-4.1,6.6-4.2,10.5"/>
				</g>
			</g>
			<g id="g1520">
				<path id="path1516" class="st78" d="M214.8,187.5c-3.6,2.6-10.3,21.3-10.8,26.8c-1.2,12.7-1.1,28.4,2.7,38.5"/>
				<path id="path1518" class="st78" d="M333.8,187.5c3.6,2.6,10.3,21.3,10.8,26.8c1.2,12.7,1.1,28.4-2.7,38.5"/>
			</g>
		</g>
		<path id="path1524" class="st79" d="M237.5,165.7c-8,0.9-7.6,6.1-0.1,13.5c1.4,1.4,1.9,1.4,2.2-0.1c0.5-2.6,3.4-4.1,4.9-2.1
			c1,1.3,0.8,2.1,4.2,1.6c4.3,3.6,7.8,6.1,2.2,5.9c-2.5-0.1-4.4,1.3-7.6,1.2c1,1.8,1.1,2.1,1.6,2.2c3.1,0.6,6.4-1.3,9.5-0.8
			c6.9,1.3-11-18.6-10.8-19.4C244.2,165.8,239.3,162.3,237.5,165.7L237.5,165.7z"/>
		<path id="path1526" class="st73" d="M237.7,165.6c0.7,1.9,1.9,3.6,3.8,5.2"/>
	</g>
	<path id="path1530" class="st7" d="M236,169.4c0.1-0.4,0.4-0.6,0.8-0.6c0.4,0,0.6,0.4,0.6,0.7c-0.1,0.4-0.4,0.6-0.8,0.6
		C236.2,170.1,236,169.8,236,169.4"/>
	<g id="g1606">
		<g id="g1558">
			<g id="g1544">
				<path id="path1532" class="st80" d="M242.9,291.5l0.2-5.3c-2.1-1.1-7.3,0-9.5,4.9c-2.7,6-5.3,9.3-8.6,12.1
					c4.8,0.9,8.8-0.1,11.4-3.5C239.9,295,241.8,292.2,242.9,291.5L242.9,291.5z"/>
				<path id="path1534" class="st81" d="M246.8,292.2l-5.7-2.4c-2.3,4.7-3.9,7.9-4.6,9.7c-1.3,3.4-1.6,6.6-1,9.4
					c2.3-0.6,5-2.2,6.8-5.6C244.1,299.9,245.2,296,246.8,292.2L246.8,292.2z"/>
				<path id="path1536" class="st82" d="M248.5,292.2l-6.1-0.9c-1.1,5.2-1.9,8.7-2.1,10.5c-0.4,3.6,0,6.8,1.3,9.4
					c2.1-1.1,4.3-3.4,5.2-7.1C247.7,300.4,247.8,296.3,248.5,292.2L248.5,292.2z"/>
				<path id="path1538" class="st83" d="M249.4,283.9l3.6,0c2.1,1.1,4.4,5.9,1.8,10.5c-3.2,5.8-4.2,9.8-4.6,14.1
					c-3.6-3.3-5.2-7.1-4-11.3C247.9,291.7,249.5,285.3,249.4,283.9L249.4,283.9z"/>
				<path id="path1540" class="st84" d="M251,281.4l-5.8-2.1c-2.1,4.9-3.5,8.2-4,9.9c-1.1,3.5-1.3,6.7-0.5,9.4
					c2.3-0.7,5.1-2.2,6.8-5.7C249,289.6,249.6,285.2,251,281.4L251,281.4z"/>
				<path id="path1542" class="st85" d="M247,277.4l-1.3-7.9c-1.3-0.4-3.1,2.8-4.8,4.6c-0.4,0.4-0.9,0.8-1.2,1.3
					c-0.7,1.1-1.3,2.4-1.6,3.8c-1.5,6.5-3.6,9.8-6.2,13.3c4.8-0.1,8.6-1.8,10.4-5.8C244.8,281.4,246,278.2,247,277.4L247,277.4z"/>
			</g>
			<g id="g1556">
				<path id="path1546" class="st51" d="M308,294.1c1.5,0.1,3.4,0.9,9,5.7c2.4,4.9,4.9,9.9,8.2,14.2c1.1,0.8,2,1.3,3,1.6
					c0.9,0.3,7.9,0.1,8.1-0.2c2.2-2,5.5-0.6,4.4,1.5c0.9,0.8-1,3.8-2.6,2.6c-1.4-1.1-6.3-0.1-7.9-0.7c0.6,1.5,5,2.4,8.1,2.6
					c2.8,0.1,2.6,2.9,1.5,5.1c-1.3,0.8-0.2-0.2-0.7,0.4c-1.3,1.9-3.9,1.6-4-0.2c-0.1-1.9-6.6-4.3-7.6-5.8c1.2,2.9,4,5.5,5.3,8.3
					c1.5,1.5,2.4,1.8,0.5,4.8c-2.1-0.2-2.2-0.8-3.5,0.4c-2.9-0.3-3.4-1.2-2.9-3.5c0.5-2.4-1.5-6.8-2.2-8c-0.6-1.1-0.8-2.3-1.4-3
					c-1.1-1.2-6.1-3.7-7.3-3c-2.4,1.3-4.2,0.5-4.5-1.8c0.8-0.6,0.2-3.8,1.8-4c1.3-0.1,2.1,0.3,3.4,1.3c1.9,1.6,2.9,2.4,3.6,2.2
					c1.5-0.4-2.7-2.5-6.6-7.5C308.2,300.1,307.8,296.5,308,294.1L308,294.1z"/>
				<path id="path1548" class="st52" d="M340.3,318.2c1.9-1.1,3-1.1,3.8-0.2c0.4,0.5,0.9,0.2,0.6-0.5c-1.3-3-3.3-3.4-5.2-2
					c-0.5,0.5-0.9,0.9-1.3,1.3C338.5,317.2,340.1,317.8,340.3,318.2L340.3,318.2z"/>
				<path id="path1550" class="st53" d="M312.6,315.5c-2.1-1.4-4-1.7-5-0.9c-0.6,0.4-1.2,0.1-0.6-0.6c2.1-3,4.6-3.1,6.5-1.5
					c0.5,0.6,0.9,1,1.3,1.5C314.1,314.7,312.7,315.5,312.6,315.5L312.6,315.5z"/>
				<path id="path1552" class="st54" d="M328.8,332.6c1.3,2.5,1.9,4.2,1.4,5.5c-0.3,0.8,0,1.5,0.8,0.8c3.2-2.8,3.2-5.9,1.2-8
					c-0.7-0.7-1.4-1.2-2.1-1.7C329.3,330,328.7,332.5,328.8,332.6L328.8,332.6z"/>
				<path id="path1554" class="st55" d="M336.8,326.1c1.9,0.8,2.6,1.8,2.5,3.1c0,0.7,0.4,1,0.7,0.2c2.3-5.4-0.1-6.4-3.6-6.2
					C336.2,324,336.7,326,336.8,326.1L336.8,326.1z"/>
			</g>
		</g>
		<g id="g1570">
			<path id="path1560" class="st56" d="M320.4,314c1.3-0.7,1.3-1.5,1-2.1c-0.7-1.2-1.4-0.6-2.7,0.5"/>
			<path id="path1562" class="st56" d="M318.8,312.3c1.3-0.7,1.3-1.5,1-2.1c-0.7-1.2-1.4-0.6-2.7,0.5"/>
			<path id="path1564" class="st57" d="M316.9,310.6c1.4-0.9,1.5-2,1.1-2.7c-0.8-1.5-1.5-0.8-3,0.6"/>
			<path id="path1566" class="st58" d="M315,308.5c1.5-1.1,1.6-2.3,1.2-3.1c-0.8-1.7-1.6-0.9-3.2,0.7"/>
			<path id="path1568" class="st59" d="M312.9,306.2c1.4-1.1,1.8-2.3,1.2-3.3c-1-1.6-1.6-0.9-3.2,0.7"/>
		</g>
		<g id="g1584">
			<path id="path1572" class="st80" d="M305.6,291.5l-0.2-5.3c2.1-1.1,7.3,0,9.5,4.9c2.7,6,5.3,9.3,8.6,12.1
				c-4.8,0.9-8.8-0.1-11.4-3.5C308.7,295,306.8,292.2,305.6,291.5L305.6,291.5z"/>
			<path id="path1574" class="st81" d="M301.8,292.2l5.7-2.4c2.3,4.7,3.9,7.9,4.6,9.7c1.3,3.4,1.6,6.6,1,9.4c-2.3-0.6-5-2.2-6.8-5.6
				C304.5,299.9,303.4,296,301.8,292.2L301.8,292.2z"/>
			<path id="path1576" class="st82" d="M300.1,292.2l6.1-0.9c1.1,5.2,1.9,8.7,2.1,10.5c0.4,3.6,0,6.8-1.3,9.4
				c-2.1-1.1-4.3-3.4-5.2-7.1C300.9,300.4,300.8,296.3,300.1,292.2L300.1,292.2z"/>
			<path id="path1578" class="st83" d="M299.2,283.9l-3.6,0c-2.1,1.1-4.4,5.9-1.8,10.5c3.2,5.8,4.2,9.8,4.6,14.1
				c3.6-3.3,5.2-7.1,4-11.3C300.7,291.7,299,285.3,299.2,283.9L299.2,283.9z"/>
			<path id="path1580" class="st84" d="M297.6,281.4l5.8-2.1c2.1,4.9,3.5,8.2,4,9.9c1.1,3.5,1.3,6.7,0.5,9.4
				c-2.3-0.7-5.1-2.2-6.8-5.7C299.6,289.6,299,285.2,297.6,281.4L297.6,281.4z"/>
			<path id="path1582" class="st85" d="M301.6,277.4l1.3-7.9c1.3-0.4,3.1,2.8,4.8,4.6c0.4,0.4,0.9,0.8,1.2,1.3
				c0.7,1.1,1.3,2.4,1.6,3.8c1.5,6.5,3.6,9.8,6.2,13.3c-4.8-0.1-8.6-1.8-10.4-5.8C303.8,281.4,302.6,278.2,301.6,277.4L301.6,277.4z
				"/>
		</g>
		<path id="path1586" class="st86" d="M306.6,215.9v52.2c0,9.3-3.6,17.8-9.5,24c-5.9,6.1-13.9,10-22.8,10h0c-8.9,0-17-3.8-22.8-10
			c-5.9-6.1-9.5-14.6-9.5-24v-52.2H306.6z"/>
		<g id="g1602">
			<path id="path1588" class="st87" d="M306.6,248v13.5H281v39.9c-2.2,0.5-4.4,0.7-6.7,0.7h0c-2.3,0-4.6-0.3-6.7-0.7v-39.9H242V248
				h25.6v-32H281v32H306.6z"/>
			<g id="g1600">
				<path id="path1590" class="st88" d="M263.2,223.5v18.9c-4.1,1.1-14.2,5.1-14.7-3.7c-0.2-4.1,5-6.7,6.5-3.1
					c0.7,1.7-0.1,2.9-1.1,3.3c-1.1,0.4-2.1-0.4-1.9-1.7c-4.3,2.2,3.8,7,7.5,0.8c1.1-1.8-1.8-3.7-1.8-5c0-1.3,2.8-3.3,1.8-5
					c-3.7-6.1-11.7-1.4-7.5,0.8c-0.3-1.3,0.8-2.2,1.9-1.7c1,0.4,1.7,1.6,1.1,3.3c-1.4,3.6-6.7,0.9-6.5-3.1
					C249,218.4,259.1,222.4,263.2,223.5L263.2,223.5z"/>
				<g id="g1598">
					<path id="path1592" class="st89" d="M285.4,223.5v18.9c4.1,1.1,14.2,5.1,14.7-3.7c0.2-4.1-5-6.7-6.5-3.1
						c-0.7,1.7,0.1,2.9,1,3.3c1.1,0.4,2.1-0.4,1.9-1.7c4.3,2.2-3.8,7-7.5,0.8c-1.1-1.8,1.8-3.7,1.8-5c0-1.3-2.8-3.3-1.8-5
						c3.7-6.1,11.7-1.4,7.5,0.8c0.3-1.3-0.8-2.2-1.9-1.7c-1,0.4-1.7,1.6-1,3.3c1.4,3.6,6.7,0.9,6.5-3.1
						C299.6,218.4,289.5,222.4,285.4,223.5L285.4,223.5z"/>
					<path id="path1594" class="st89" d="M263.2,285.8v-18.9c-4.1-1.1-14.2-5.1-14.7,3.7c-0.2,4.1,5,6.7,6.5,3.1
						c0.7-1.7-0.1-2.9-1.1-3.3c-1.1-0.4-2.1,0.4-1.9,1.7c-4.3-2.2,3.8-7,7.5-0.8c1.1,1.8-1.8,3.7-1.8,5c0,1.3,2.8,3.3,1.8,5
						c-3.7,6.1-11.7,1.4-7.5-0.8c-0.3,1.3,0.8,2.2,1.9,1.7c1-0.4,1.7-1.6,1.1-3.3c-1.4-3.6-6.7-0.9-6.5,3.1
						C249,290.9,259.1,286.9,263.2,285.8L263.2,285.8z"/>
					<path id="path1596" class="st89" d="M285.4,285.8v-18.9c4.1-1.1,14.2-5.1,14.7,3.7c0.2,4.1-5,6.7-6.5,3.1
						c-0.7-1.7,0.1-2.9,1-3.3c1.1-0.4,2.1,0.4,1.9,1.7c4.3-2.2-3.8-7-7.5-0.8c-1.1,1.8,1.8,3.7,1.8,5c0,1.3-2.8,3.3-1.8,5
						c3.7,6.1,11.7,1.4,7.5-0.8c0.3,1.3-0.8,2.2-1.9,1.7c-1-0.4-1.7-1.6-1-3.3c1.4-3.6,6.7-0.9,6.5,3.1
						C299.6,290.9,289.5,286.9,285.4,285.8L285.4,285.8z"/>
				</g>
			</g>
		</g>
		<path id="path1604" class="st90" d="M306.6,215.9v52.2c0,9.3-3.6,17.8-9.5,24c-5.9,6.1-13.9,10-22.8,10h0c-8.9,0-17-3.8-22.8-10
			c-5.9-6.1-9.5-14.6-9.5-24v-52.2H306.6z"/>
	</g>
</g>
</svg>
