<?xml version="1.0" encoding="utf-8"?>
<!-- Generator: Adobe Illustrator 24.0.1, SVG Export Plug-In . SVG Version: 6.00 Build 0)  -->
<svg version="1.1" id="flag-icons-rw" xmlns="http://www.w3.org/2000/svg" xmlns:xlink="http://www.w3.org/1999/xlink" x="0px"
	 y="0px" viewBox="0 0 800 480" style="enable-background:new 0 0 800 480;" xml:space="preserve">
<style type="text/css">
	.st0{fill:#20603D;}
	.st1{fill:#FAD201;}
	.st2{fill:#00A1DE;}
	.st3{fill:#E5BE01;}
	.st4{fill:#E5BE01;stroke:#00A1DE;stroke-width:2.2667;stroke-miterlimit:2.6667;}
</style>
<path class="st0" d="M0,0h800v480H0V0z"/>
<path class="st1" d="M0,0h800v360H0V0z"/>
<path class="st2" d="M0,0h800v240H0V0z"/>
<g>
	<polygon class="st3" points="697.9,123.1 751.5,120 697.9,116.9 748.8,99.9 696.3,110.8 741.2,81.3 693.2,105.5 728.8,65.3 
		688.7,100.9 712.8,52.9 683.3,97.8 694.1,45.3 677.2,96.2 674.1,42.6 671,96.2 654.1,45.3 664.9,97.8 635.4,52.9 659.5,100.9 
		619.4,65.3 655,105.5 607,81.3 651.9,110.8 599.4,99.9 650.3,116.9 596.7,120 650.3,123.1 599.4,140.1 651.9,129.2 607,158.7 
		655,134.5 619.4,174.7 659.5,139.1 635.4,187.1 664.9,142.2 654.1,194.7 671,143.8 674.1,197.4 677.2,143.8 694.1,194.7 
		683.3,142.2 712.8,187.1 688.7,139.1 728.8,174.7 693.2,134.5 741.2,158.7 696.3,129.2 748.8,140.1 	"/>
	<circle class="st4" cx="674.1" cy="120" r="22.9"/>
</g>
</svg>
