<?xml version="1.0" encoding="utf-8"?>
<!-- Generator: Adobe Illustrator 24.0.1, SVG Export Plug-In . SVG Version: 6.00 Build 0)  -->
<svg version="1.1" id="flag-icons-sa" xmlns="http://www.w3.org/2000/svg" xmlns:xlink="http://www.w3.org/1999/xlink" x="0px"
	 y="0px" viewBox="0 0 800 480" style="enable-background:new 0 0 800 480;" xml:space="preserve">
<style type="text/css">
	.st0{fill-rule:evenodd;clip-rule:evenodd;fill:#199D00;}
	.st1{fill-rule:evenodd;clip-rule:evenodd;fill:#FFFFFF;}
	.st2{fill-rule:evenodd;clip-rule:evenodd;fill:#1BA400;}
	.st3{fill-rule:evenodd;clip-rule:evenodd;fill:#1B9D00;}
	.st4{fill-rule:evenodd;clip-rule:evenodd;fill:#259F00;}
	.st5{fill-rule:evenodd;clip-rule:evenodd;fill:#209000;}
</style>
<path class="st0" d="M0,0h800v480H0V0z"/>
<path class="st1" d="M221.4,136c-0.8,11.2-1.9,30.9,7.8,33c11.5,1.1,5.2-19.5,9.4-23.2c0.8-1.9,2.2-1.9,2.2,0.5v17.5
	c0,5.6,3.8,7.3,6.6,8.4c3-0.2,5.1,0,6.2,2.8l1.5,30.3c0,0,6.9,2.1,7.3-17c0.3-11.2-2.2-20.5-0.8-22.7c0-2.2,2.8-2.2,4.7-1.2
	c3,2.1,4.3,4.7,9,3.8c7.1-2.1,11.4-5.5,11.5-11c-0.1-5.3-1.3-10.6-3.3-15.6c0.4-0.9-1.3-3.5-0.9-4.4c1.2,2.1,3.2,1.9,3.6,0
	c-1.2-3.9-3.1-7.8-6.1-9.4c-2.5-2.2-6.3-1.9-7.5,2.8c-0.8,5.3,1.9,11.6,5.7,16.9c0.8,2,2,5.3,1.5,8.3c-2.1,1.2-4.1,0.7-5.9-1.1
	c0,0-5.6-4.2-5.6-5.2c1.5-9.6,0.3-10.7-0.6-13.4c-0.6-3.7-2.3-4.9-3.8-7.3c-1.4-1.5-3.3-1.5-4.2,0c-2.5,4.3-1.3,13.6,0.5,17.8
	c1.3,3.8,3.3,6.3,2.3,6.3c-0.8,2.2-2.3,1.6-3.6-0.9c-1.4-5.3-2-10.8-2-16.3c-0.5-4.3-1-13.5-3.9-15.9c-1.7-2.2-4.2-1.1-5.2,0.9
	c-0.2,4.2-0.2,8.4,0.3,12.6c1.9,6.9,2.5,13.1,3.5,20.2c0.3,9.5-5.4,4.1-5.2-0.7c1.2-6,1.1-12.2-0.3-18.2c-0.9-2.4-2-3-4.3-2.6
	c-1.8,0-6.4,5-7.7,13.4c0,0-1.1,4.3-1.6,8.2c-0.7,4.3-3.5,7.5-5.5-0.6C225.4,147,224.3,132.7,221.4,136L221.4,136z"/>
<path class="st1" d="M252.8,182.1l-30,14.4c0.3-6.8,14.2-19.1,23.7-19.2C252.6,177.4,251.1,179.6,252.8,182.1L252.8,182.1z"/>
<path class="st1" d="M247.5,191.4c-15.8,40.8,37,46.5,42.9,1.7c0.6-1.9,2.8-3.7,3.2-0.7c-1.2,40.6-40.9,43.3-47.6,30.6
	c-1.6-4.4-2.4-9-2.3-13.7c-0.9-8-5.2-4.9-5.8,3c-0.7,4.4-0.5,5.6-0.5,9.8c2.1,32.1,53.2,18.3,61.5-8.2c4.4-14.6-0.8-25.4,1.6-25.4
	c5.1,5.4,12.2,0.8,13.8-1.1c0.7-0.9,2.3-1.6,3.5-0.4c3.9,2.8,10.9,1.5,12.4-3.5c0.8-5,1.5-10,1.7-15.2c-3.3,0.9-5.6,1.6-5.9,3
	l-0.7,4.3c-0.3,1.4-3,1.4-3.2-0.4c-1.2-5.6-6.3-6.3-9.4,2.3c-2,1.7-5.7,2.1-6.1-0.5c0.5-5.8-1.9-6.6-6.6-3.8l-4.5-33.9
	c1.9,0,3.8,1.4,5.5-0.8c-1.9-6.1-6.1-18.5-8.4-19.4c-1-1.3-2-0.5-3.5-0.1c-2.4,0.8-4.7,2.8-3.9,6.9c2.8,17.6,4.7,31,7.6,48.7
	c0.5,2-1.2,4.7-3.5,4.4c-3.8-2.5-4.7-7.7-11.2-7.5c-4.7,0-9.9,5.2-10.6,10c-0.8,3.9-1.1,8.2,0,11.5c3.3,3.9,7.2,3.6,10.7,2.7
	c2.8-1.2,5.2-4,6.2-3.4c0.7,0.8,0.1,10.2-13.4,17.3c-8.2,3.8-14.7,4.5-18.2-2.2C250.6,203.6,252.9,187.8,247.5,191.4z"/>
<path class="st1" d="M314.7,150c3.1-1.1,18.1-18.4,18.1-18.4l-2.2-1.9c-0.8-0.7-0.8-1.4,0-2.1c3.8-2.2,2.5-6.9,0.7-9.2
	c-2.6-1.3-5.6-1.2-8.2,0.1c-2.6,2.5-3.2,6.6-1.1,9c2,0.9,3.9,3,2.6,4.1c-6.2,6.6-23,17.9-21,18.3C303.9,150.6,314.3,150.6,314.7,150
	L314.7,150z M223.8,210.9c-5.6,9-6.1,22.4-3,26.4c1.7,1.9,4.4,2.7,6.4,2.1c3.6-1.5,5.2-8.7,4.3-11.2c-1.2-1.9-2.2-2.2-3.4-0.7
	c-2.4,5.1-3.5,1.6-3.8-1.2c-0.3-4.8,0-9.5,0.8-14.2C225.7,208.1,225.1,209.2,223.8,210.9z M464.8,196.6c-5.4-11.8-13-23.4-15.4-27.8
	c-7.3-11.5-15.1-22.8-23.2-33.8c-5.8-6.9,9.6,2.9-1.9-11l-8.3-7c-1.9-1.3-6.4-3.8-7.1,0.2c-0.4,3.6-0.2,5.4,0.4,8.3
	c0.5,1.9,3.3,5.2,4.7,7c19.2,25.5,36.1,52.6,50.4,81.1C466.8,212.4,466.2,198.6,464.8,196.6z"/>
<path class="st1" d="M440.9,235.8c-1.1,1.2,2.6,6.4,7.5,6.4c8.1-0.9,15.2-5.4,21.8-17.4c2.7-4,4.4-8.5,5-13.3
	c0.8-22.8-1-45.5-5.4-67.9c-0.3-1.9,0-4.1,0.2-4.7c0.6-0.7,2.3,0,3.3-1.6c1.4-1.4-3.8-13.1-6.6-17.5c-0.9-2.1-1.4-3.4-3.1,0.2
	c-2,3.9-3,8.3-2.8,12.8c3.8,26.7,5.1,50.1,7.5,76.8c0.3,2.6-0.1,6.4-1.9,7.9C459.2,225.2,450.5,231.5,440.9,235.8L440.9,235.8z
	 M550.1,235.7c-5.8,3.4-5.8,7.2-1.1,7.3c8.1-0.9,17.6-1.6,24.2-11.5c2.3-4.7,3.7-9.8,3.9-15c1.2-22.4-0.3-44.9-4.4-66.9
	c-0.2-1.9-1-6.3-0.8-6.8c0.6-1.3,3.2,0.1,4.1-1.4c1.3-1.4-6.8-11.9-9.8-16.4c-0.9-2.1-1.3-3.4-3.1,0.2c-1.9,4-2.5,8.4-1.7,12.8
	c4.3,29.1,7.5,50.8,8.2,76.5c-0.4,2.4-0.5,3.8-1.6,6.8c-2.5,3.2-5.3,7.3-8,9.3C557.5,232.3,551.9,234.2,550.1,235.7L550.1,235.7z"/>
<path class="st1" d="M554.4,209.7c0-6.8,0.1-12.7-0.1-17.8c-0.1-4.4-1-8.7-2.8-12.7c-1.7-3.8-0.7-6.9-1.5-11.1
	c-0.8-4.1-0.6-10.3-1.7-15.1c-0.4-1.9-1.3-8-1-8.6c0.5-1.3,2.2,0,3.2-1.5c1.3-1.4-4.7-16.9-7.7-21.3c-1-2-3.1-1.3-5.4,1.9
	c-2.3,2.2-1.5,6.9-0.6,11.5c5.7,30.3,10.1,57.7,9.2,86.5C545.6,224.1,554.4,214.3,554.4,209.7L554.4,209.7z M511.6,172.2
	c-3.7-0.2-11.2-7.2-13.5-11.2c-0.7-2-0.6-4.2,0.4-6.1c1.4-0.9,3.5-1.9,5.1-0.9c0,0,1.6,2.2,1.3,2.5c1.9,0.9,2.8,0.5,3-0.4
	c0.1-1.4-0.6-2.2-0.6-3.8c0.8-4.3,5.6-5,7.5-2.2c1.3,1.7,1.9,5.2,2,7.5c0,1.2-1.9-0.2-3.1,0c-1,0.4-1.3,1.7-1.4,2.8
	C512,163.5,511.7,168.5,511.6,172.2L511.6,172.2z M444.2,217.2c0.9-9.2-0.4-25.6-0.5-31c-0.5-14-1.7-27.9-3.5-41.8
	c-1.1-7.9,3.2,0.8,2.6-3.8c-1.4-7.8-5.7-13.1-10.9-20.2c-1.6-2.3-1.6-2.8-4.1,0.6c-2.8,6.3-0.4,10.7,0.4,15.7
	c3.7,16.1,5.8,30.9,6.8,45.7c1.1,15.3,1.2,30.6,0.4,45.9C438.3,228.4,442.7,223.9,444.2,217.2L444.2,217.2z"/>
<path class="st1" d="M566.9,202.5c-6.5-10.9-16.1-22.5-18.8-26.9c-8.7-12.1-17.8-24-27.4-35.4c-8-8.4,3.8-1.4-1.5-8
	c-4.4-4.8-5.6-6.4-9.5-9.3c-1.9-1.2-3-3.6-3.8,0.5c-0.3,3.5-0.4,7-0.2,10.5c0,1.6,1.7,4.7,3.2,6.6c19.4,23.9,40.7,48.3,57.7,78.9
	C569.2,218.2,568.4,204.4,566.9,202.5L566.9,202.5z"/>
<path class="st2" d="M274.9,182.5c-0.5,0.8-1.5,1.9-1.1,2.9c0.7,0.9,1.3,1.2,2.4,1.2c1,0,2.5,0.3,2.8-0.3c0.6-0.7,0.9-1.9,0.6-3.1
	C278.5,180.5,275.5,181.6,274.9,182.5z"/>
<path class="st1" d="M492.1,339.8c8.6,0.4,14.3,0.5,21.8,1.3l9-0.9c9.9-0.9,10.3,14.2,10.3,14.2c0,8.9-3.5,9.4-7.9,10.3
	c-2.5,0.4-3.8-1.5-5.2-3.4c-2.1,0.7-4.4,0.8-6.6,0.4c-3.7-0.2-7.2-0.2-10.8-0.5c-3.8-0.3-5.8,0.5-9.7,0.1c-0.8,1.2-1.9,2.9-4.1,2.4
	c-1.9-0.3-4.2-5.6-3.6-9.8c1.4-3,0.9-2,0.9-3.3c-35.2-0.9-70.8-2.5-105.3-2.1c-27,0.1-53.6,1.2-80.3,2.3
	c-14.2-0.2-25.1-2.4-32.6-13.4c0.8,0,36.4,2,46.8,1.3c19.2-0.2,36.8-1.8,56.4-2.3c38.6,0.7,77,0.7,115.6,3.4
	c-3.8-2.5-3.8-8.4,1.9-9.9c0.5-0.4,0.7,2.9,1.6,2.8C495.1,332.4,493,338.6,492.1,339.8L492.1,339.8z M336.8,126.8
	c-5.8,16.7,3.4,35.1,9.8,33.3c4.7,1.9,7.5-6.9,9.4-16.5c1.4-2.7,2.3-3,3-1.6c-0.2,12.8,0.9,15.7,4.2,19.5c7.3,5.6,13.4,0.8,13.9,0.3
	l5.6-5.7c1.3-1.4,3-1.4,4.8-0.3c1.8,1.6,1.5,4.3,5.2,6.2c3.2,1.3,9.8,0.4,11.4-2.3c2.1-3.7,2.6-4.9,3.6-6.2c1.5-2,4-1.1,4-0.5
	c-0.3,1.1-1.8,2.2-0.8,4.2c1.9,1.3,2.2,0.5,3.3,0.2c3.8-1.9,6.6-9.9,6.6-9.9c0.1-3-1.6-2.8-2.7-2.1l-2.9,2c-1.9,0.3-5.3,1.5-7.1-1.2
	c-1.8-3.2-1.8-7.8-3.1-11.1c0-0.2-2.4-5.2-0.2-5.4c1.1,0.2,3.5,0.8,3.8-1.1c1.1-2-2.4-7.5-5-10.3c-2.2-2.3-5.2-2.6-8.1-0.2
	c-2.1,1.9-1.8,3.9-2.2,5.9c-0.7,2.9,0,5.9,1.9,8.2c2.1,3.9,5.7,9.1,4.5,16.4c0,0-2.2,3.4-5.9,2.9c-1.6-0.3-4.1-0.9-5.4-11.1
	c-1-7.5,0.2-18.2-3-23.2c-1.2-3.1-2.1-6-4.9-0.8c-0.8,2.1-4,5.2-1.7,11.4c2.2,5.7,2.9,11.8,1.9,17.8c-1.4,2.1-1.7,2.7-3.5,4.7
	c-2.4,2.8-5.2,2.1-7.2,1c-1.9-1.2-3.4-1.9-4.3-6.1c0.2-6.6,0.6-17.3-0.7-19.6c-1.8-3.6-4.7-2.2-5.9-1.1c-5.6,6.2-9.3,13.8-10.8,22
	c-1.7,5.4-3.5,3.8-4.7,1.7C340.8,145.4,340.5,123.2,336.8,126.8L336.8,126.8z"/>
<path class="st1" d="M354.4,163.2c2.7-1.9,1.5-3.2,5.4,0.8c5.1,9,8,19,8.6,29.3c-0.2,2.4,1.5,3.9,2.3,3.4
	c0.4-5.6,14.2-13.5,26.8-14.6c1.9-0.5,0.9-4.1,1.2-6c-0.8-7,3.9-13.4,10.5-13.9c9,1.3,12,6.1,12.2,13.3c-1,14.1-15.7,16.4-23.8,17.5
	c-1.2,0.5-1.8,1,0,1.7l34.3,0.2l1.8,0.9c0.2,0.9-0.6,0.2-1.9,2.4c-1.9,3.3-3.1,7-3.5,10.8c-10.2,3.4-20.8,4.7-31.5,6.1
	c-3.8,1.9-5.6,4.4-4.9,7.2c1.3,3.1,9.6,6.3,9.6,6.4c1.6,0.9,3.4,3.3-0.5,8.1c-16.7-0.8-29.7-7.9-34.2-17.9c-1.3-1-2.8,0-3.8,1.3
	c-6.6,8.4-12.9,15.9-24.1,20.1c-6.6,1.7-13.4-1-16.6-5.3c-2.2-2.5-2.1-5.3-2.8-5.8c-3.7,1.6-34.6,14.7-30.7,8.5
	c7.5-8,20.6-14,32.1-21.8c0.8-2.7,2.3-11.7,6.8-14.6c0.3,0-0.7,5.2-0.6,7.5c0,1.9-0.2,2.5,0.2,2.1c0.8-0.5,14.7-11.4,15.9-14.8
	c1.3-1.9,0.3-6.7,0.3-6.9c-2.6-6.8-6.3-7.3-7.6-10.7c-1.2-4.4-0.7-9.5,1.9-11c2.2-2,4.9-1.8,7.4,0.5c2.8,2.5,5.3,7.5,6,11.2
	c-0.5,1.4-3.8-0.9-4.7-0.3c1.8,2.1,3,4.6,3.5,7.3c1.9,7.7,1.3,10.7-0.6,15.7c-6.2,13-14.1,16.9-21,21.8c-0.2,0-0.3,3.3,2.2,5.1
	c0.9,0.9,4.6,1.4,8.8,0c9-5,16.3-12.6,20.9-21.8c0.8-7,0-14.1-2.2-20.8c-2.7-6.3-5.9-15.2-5.9-15.4
	C352.5,166.5,352.7,165.2,354.4,163.2L354.4,163.2z M264.6,127c3.9,1.9,11.4,1,11.1-5.3l-0.2-2.9c-0.8-1.9-3-1.4-3.5,0.5
	c-0.2,0.7,0.3,1.7-0.3,2c-0.4,0.4-1.6,0.2-1.6-1.6c0-0.6-0.4-1.1-0.7-1.5c-0.2-0.2-0.4-0.2-0.8-0.2c-0.6,0-0.6,0.1-0.8,0.6
	c-0.1,0.5-0.3,0.9-0.3,1.5c0,0.7-0.4,0.8-0.8,0.9c-0.6,0-0.5,0-0.9-0.2c-0.2-0.3-0.5-0.4-0.5-0.9l-0.3-1.5c-0.2-0.3-0.6-0.5-0.9-0.6
	c-2.2,0-2.3,2.5-2.2,3.5C261.8,121.4,261.7,125.8,264.6,127L264.6,127z"/>
<path class="st1" d="M380.4,176c3.9,1.9,13.4,0.8,11.1-5.2l-0.2-3c-0.8-1.9-3-1.4-3.5,0.6c-0.2,0.6,0.3,1.6-0.4,1.9
	c-0.3,0.4-1.6,0.2-1.5-1.5c0-0.6-0.4-1.2-0.7-1.6c-0.3-0.1-0.4-0.2-0.9-0.2c-0.5,0-0.5,0.2-0.8,0.7c-0.2,0.5-0.3,0.9-0.3,1.5
	c-0.1,0.6-0.4,0.8-0.8,0.9c-0.5,0-0.4,0-0.8-0.3c-0.3-0.3-0.6-0.4-0.6-0.8l-0.3-1.5c-0.2-0.3-0.6-0.5-0.9-0.6
	c-2.2,0-2.3,2.4-2.2,3.4C377.6,170.3,377.5,174.8,380.4,176L380.4,176z M447.9,155.7c3.9,1.9,11.3,1,11.1-5.2l-0.2-3
	c-0.8-1.9-3-1.4-3.5,0.5c-0.2,0.7,0.3,1.7-0.4,2.1c-0.3,0.3-1.6,0.1-1.5-1.7c0-0.6-0.4-1.1-0.7-1.5c-0.3-0.2-0.4-0.2-0.9-0.2
	c-0.5,0-0.5,0.2-0.8,0.7l-0.3,1.4c-0.1,0.7-0.4,0.9-0.8,0.9s-0.4,0-0.8-0.2c-0.3-0.3-0.6-0.4-0.6-0.8s-0.1-1.2-0.3-1.6
	c-0.2-0.3-0.6-0.4-0.9-0.5c-2.2,0-2.3,2.4-2.2,3.4C445.1,150.1,445,154.5,447.9,155.7L447.9,155.7z M482.9,206.6
	c-6.8,7.8-3.8,20.6-2.2,23.4c2.2,4.5,4,7.4,8.4,9.7c4,2.9,7.2,1.1,8.9-0.9c4-4.2,4.1-15,6-17.1c1.3-3.9,4.7-3.3,6.3-1.5
	c1.5,2.1,3.5,3.8,5.8,5c3.8,3.3,8.2,3.9,12.8,0.9c3-1.8,5-3.9,6.8-8.3c1.9-5.3,0.9-29.6,0.5-44.1l-3.9-20.2c0-0.2-0.5-9.6-0.9-11.7
	c0-0.9-0.3-1.2,0.7-1.1c1,0.9,1.1,0.9,1.9,1.2c0.9,0.2,1.9-1.6,1.2-3.1l-9.4-17.4c-0.7-0.8-1.8-1.5-3,0.2c-1.5,1.3-2.3,3.2-2.2,5.2
	c0.3,4.1,0.9,8.3,1.2,12.5l3.8,21.2c1.2,15,1.5,27.4,2.7,42.5c-0.2,6.4-2.2,11.9-4,12.8c0,0-2.8,1.6-4.7-0.2
	c-1.4-0.6-6.9-9.3-6.9-9.3c-2.8-2.5-4.7-1.9-6.7,0c-5.6,5.4-8.1,15.4-11.9,22.3c-0.9,1.6-3.8,2.8-6.8-0.1
	C479.3,217.8,483.8,202.8,482.9,206.6L482.9,206.6z M449.7,118.8c3.6,1.4,6,8.6,5.2,12.2c-0.7,4.2-2.6,8.9-3.9,8.3
	c-1.5-0.6,0.9-4.3-0.5-8.2c-0.8-2.6-5.6-7.3-5.1-8.6C444.5,119.5,447.5,118.2,449.7,118.8L449.7,118.8z"/>
<path class="st1" d="M494.3,210.9c0.7-8.6-0.6-13.9-0.7-18.9c-0.2-5.1-5.7-43.7-6.8-47.4c-1.4-7.3,5.3-0.9,4.6-5.2
	c-2.3-5.2-8.1-13-9.8-17.6c-1.1-1.9-0.7-3.8-3.1-0.5c-2.1,5.8-2.8,11.9-2.2,18c5.8,30.3,11.7,55.4,10.8,84.2
	C489.8,223.4,492.9,217.1,494.3,210.9L494.3,210.9z M554.7,131c3.3,1.6,5.2,10.6,4.8,13.1c-0.7,4.7-2.3,9.8-3.6,9.1
	c-1.4-0.6,0.3-6.9-0.4-8.9c-0.7-2.8-5.2-7.9-4.7-9.4C549.9,131.7,552.7,130.4,554.7,131L554.7,131z M315,194.6
	c3.1,1.2,5,7.8,4.7,9.7c-0.8,3.5-2.3,7.2-3.6,6.7c-1.2-0.4,0.3-5.1-0.3-6.6c-0.3-3.5-4.6-5.3-4.5-6.8
	C310.6,194.7,313.2,194.2,315,194.6L315,194.6z"/>
<path class="st3" d="M389.6,204.6c3.9,0.2,5.9,3.4,2.2,4.7c-3.8,1.2-7.2,2.2-7.3,7.5c1.4,7.5-1.9,4.9-3.8,3.9
	c-2.2-1.7-8.6-5.6-9.6-14.1c-0.1-2,1.5-3.8,4-3.8C379,203.9,384.6,204,389.6,204.6z"/>
<path class="st1" d="M232.6,116.6c4.5,1.3,4.8,8.1,4.5,10c-0.7,3.6-2.2,7.4-3.4,6.9c-1.3-0.5,0-5.3-0.7-6.8c-0.7-2.1-4.5-6-4.1-7.1
	C228.1,117.3,230.8,116.2,232.6,116.6z M322.5,148.1c-3.6,1.9-4.9,7.5-2.7,10.9c2.1,2.8,5.2,1.8,5.6,1.8c3.5,0.4,5.5-6.5,5.5-6.5
	s0.1-1.9-3.9,1.8c-1.8,0.3-1.9-0.4-2.3-1.3c-0.4-1.8-0.3-3.7,0.5-5.3C325.8,147.8,324.4,147,322.5,148.1L322.5,148.1z M348.7,114
	c-1.9,1.2-5.3,4.9-5.4,9c-0.1,2.3-0.6,2.3,0.9,3.8c1.2,1.7,2.2,1.6,4.5,0.4c1.1-0.7,1.9-1.9,2.2-3.2c0.6-2.6-2.8,1.3-3.2-1.7
	c-0.8-2.8,1.4-3.9,3.5-6.6C351.2,113.8,351.2,112.6,348.7,114L348.7,114z M369.7,117.7c-0.8,3.4-1.3,6.9-1.5,10.4
	c-0.6,2.6,2.8,3.8,4.2,0.4c2.2-6.1,2.2-8.7,2.4-11.2C374.2,113.2,371.5,113.3,369.7,117.7z M502.8,185.5
	c0.4-0.5,18.8-13.5,18.8-13.5c1.9-0.7,1.4,6.7,0.6,6.7c-5.7,5.5-12.3,10-19.4,13.4C501.8,192.8,501,187.1,502.8,185.5L502.8,185.5z
	 M519.4,185.3c3.3,1.6,4.6,11.1,4.2,13.6c0,5.1-3.1,9-4.4,8.4c-1.3-0.7,0.2-6.3-0.5-8.2c-0.8-2.8-3.5-8-3-9.5
	C514.8,186.5,517.5,184.8,519.4,185.3L519.4,185.3z M410.7,226c1.5-1.8,3.3-3.3,5.2-4.6c1.9-0.9,3.6,0.8,3.5,0.7
	c0.3,1.9-1.1,3.5-0.7,5.9c0.4,0.9,0.7,2.1,2.4,1.7c2.9-2.3,5.6-2.5,8.4-2.6c2.3,0.1,2.4,3.9,0.9,3.9c-5.3,1.1-7.7,2.6-11.5,4
	c-1.9,1.1-3.4-0.3-3.4-0.4c0-0.1-1-1-0.4-3.5c0.2-1.9-0.6-3-2.2-2.8c-1.1,0.8-2.2,1.1-2.8-0.3C409.9,227.2,409.8,226.6,410.7,226
	L410.7,226z M538.8,231.1c0.8,0.9,1.3,1.9-0.1,3.6l-3.5,3c-0.6,0.9-0.9,2.6,0.9,3.1c3.4,0.9,11.2-4.2,11.2-4.3
	c1.3-0.9,0.9-2.8,0.8-2.8c-0.8-0.8-2.4-0.3-3.6-0.5c-0.6,0-2.3-0.2-1.5-1.9c0.6-0.8,1.1-1.7,1.5-2.7c0.5-1.1,0-1.9-1.9-2.5
	c-2-0.4-2.8-0.2-5,0c-1.1,0.2-1.5,0.8-1.8,2.2C536,230.3,537.3,230.2,538.8,231.1L538.8,231.1z"/>
<path class="st4" d="M411.3,177.8c-0.5,0.9-2.2,0.9-3.8,0c-1.6-0.9-2.5-2.4-2-3.3c0.6-0.8,2.2-0.8,3.8,0
	C411,175.4,411.8,177,411.3,177.8z M327.9,127.6c-0.9,0.3-2.2-0.6-2.8-1.9s-0.3-2.4,0.7-2.7c0.9-0.3,2.2,0.7,2.8,1.9
	C329.2,126.1,328.8,127.4,327.9,127.6L327.9,127.6z"/>
<path class="st5" d="M493,351.6c8.8,0.4,17.1,0,25.8,0.5c1.6,1.4,0.5,4.7-0.6,4.5l-7.3-0.3c-0.1-2.8-7.2-2.3-7,0.1
	c-3.8,0.5-7.3-0.1-11.2-0.3C491.5,354.7,491.7,352.1,493,351.6L493,351.6z"/>
</svg>
