<?xml version="1.0" encoding="utf-8"?>
<!-- Generator: Adobe Illustrator 24.0.1, SVG Export Plug-In . SVG Version: 6.00 Build 0)  -->
<svg version="1.1" id="flag-icons-sb" xmlns="http://www.w3.org/2000/svg" xmlns:xlink="http://www.w3.org/1999/xlink" x="0px"
	 y="0px" viewBox="0 0 800 480" style="enable-background:new 0 0 800 480;" xml:space="preserve">
<style type="text/css">
	.st0{fill-rule:evenodd;clip-rule:evenodd;fill:#0000D6;}
	.st1{fill-rule:evenodd;clip-rule:evenodd;fill:#006000;}
	.st2{fill-rule:evenodd;clip-rule:evenodd;fill:#FFCC00;}
	.st3{fill:#FFFFFF;}
</style>
<path class="st0" d="M0,475.5L771.4,0H0V475.5z"/>
<path class="st1" d="M800,0L21.2,480H800V0z"/>
<path class="st2" d="M800,0h-42.9L0,455.1V480h42.9L800,25.9V0z"/>
<polygon class="st3" points="37.8,93 66.9,73.1 96.1,92.9 84.9,60.7 114.1,40.9 78,40.9 66.9,8.5 55.8,40.8 19.8,40.8 48.9,60.8 "/>
<polygon class="st3" points="216.9,93.1 246,73.1 275.3,93 264.1,60.8 293.3,40.9 257.2,40.9 246.1,8.5 234.9,40.9 198.8,40.9 
	228.1,60.8 "/>
<polygon class="st3" points="204.2,129.3 168.2,129.3 157,97.1 146,129.3 109.9,129.3 139.1,149.3 127.9,181.5 157.1,161.6 
	186.2,181.5 175.1,149.3 "/>
<polygon class="st3" points="257.2,216.3 246.1,184 235,216.2 198.9,216.2 228.2,236.2 217,268.5 246.1,248.5 275.3,268.5 
	264.1,236.2 293.3,216.3 "/>
<polygon class="st3" points="78,216.3 66.9,184 55.7,216.2 19.7,216.2 49,236.2 37.8,268.5 66.9,248.5 96.1,268.5 84.9,236.2 
	114.1,216.3 "/>
</svg>
