<?xml version="1.0" encoding="utf-8"?>
<!-- Generator: Adobe Illustrator 24.0.1, SVG Export Plug-In . SVG Version: 6.00 Build 0)  -->
<svg version="1.1" id="flag-icons-sg" xmlns="http://www.w3.org/2000/svg" xmlns:xlink="http://www.w3.org/1999/xlink" x="0px"
	 y="0px" viewBox="0 0 800 480" style="enable-background:new 0 0 800 480;" xml:space="preserve">
<style type="text/css">
	.st0{fill-rule:evenodd;clip-rule:evenodd;fill:#FFFFFF;}
	.st1{fill-rule:evenodd;clip-rule:evenodd;fill:#DF0000;}
</style>
<path class="st0" d="M0,0h800v480H0V0z"/>
<path class="st1" d="M0,0h800v240H0V0z"/>
<path class="st0" d="M166,40.2c-45.6,9.8-74.6,54.7-64.8,100.2c7,32.7,32.8,58.2,65.6,65c-45.6,13.2-93.3-13.1-106.5-58.7
	c0-0.1-0.1-0.2-0.1-0.3c-12.8-45.5,13.5-92.9,59-106c16-4.6,30.8-4.7,46.9-0.2L166,40.2z"/>
<path class="st0" d="M153,110l4.9,15l-13-9.2l-12.8,9.4l4.7-15.2l-12.8-9.3l15.9-0.2l5-15l5,15h15.8L153,110z M170.5,162l5,15.1
	l-13-9.2l-12.9,9.3l4.8-15.1l-12.8-9.4l15.9-0.1l4.9-15.1l5,15h16L170.5,162z M229,161.6l4.9,15.2l-13-9.3l-12.8,9.3l4.7-15.1
	l-12.8-9.3l15.9-0.2l5-15l5,15h15.8L229,161.6z M246.4,110l4.9,15.1l-13-9.2l-12.8,9.3l4.8-15.1l-12.9-9.4l16-0.1l4.8-15.1l5,15h16
	L246.4,110z M200.1,75.7l5,15.2l-13-9.3L179.2,91l4.8-15.2l-12.8-9.4l15.8-0.1l5-15.1l5,15h16L200.1,75.7z"/>
</svg>
