<?xml version="1.0" encoding="utf-8"?>
<!-- Generator: Adobe Illustrator 24.0.1, SVG Export Plug-In . SVG Version: 6.00 Build 0)  -->
<svg version="1.1" id="flag-icons-sh" xmlns="http://www.w3.org/2000/svg" xmlns:xlink="http://www.w3.org/1999/xlink" x="0px"
	 y="0px" viewBox="0 0 800 480" style="enable-background:new 0 0 800 480;" xml:space="preserve">
<style type="text/css">
	.st0{fill:#000066;}
	.st1{fill:#8FC5FF;stroke:#FFFFFF;stroke-width:4.3;}
	.st2{fill:#366CC9;stroke:#000000;stroke-width:4.3;}
	.st3{fill:#5D3100;stroke:#000000;stroke-width:0.4;}
	.st4{fill:#FFFF00;stroke:#FFFFFF;stroke-width:4.3;}
	.st5{fill:#CF6200;}
	.st6{fill:#00B800;}
	.st7{fill:#5D3100;}
	.st8{fill:#00D860;}
	.st9{fill:#FFFF00;stroke:#000000;stroke-width:0.4;}
	.st10{fill:#FFFFFF;stroke:#000000;stroke-width:0.4;}
	.st11{stroke:#000000;stroke-width:0.4;}
	.st12{fill:none;stroke:#000000;stroke-width:0.4;}
	.st13{fill:#EF072D;stroke:#000000;stroke-width:0.4;}
	.st14{fill:#FFFF00;}
	.st15{fill:#FFFFFF;}
	.st16{fill:none;stroke:#000000;stroke-width:1.2;}
	.st17{fill:#C8102E;}
</style>
<path id="path1430" class="st0" d="M800,480V0H0v480H800z"/>
<g>
	<path id="path1438_1_" class="st1" d="M694.9,199.7c0,63.7-10.2,132.5-93,165.3c-82.6-32.8-92.7-101.6-93.1-165.3H694.9z"/>
	<path id="path1440_1_" class="st2" d="M601.8,364.7c31.5-11,57.7-33.4,73.6-62.7h-7.8c-2.3-0.4-79.4-7.8-88.7-11.7
		c-7.9-2.8-38.4,2.7-52.4,7.8c15.5,31.2,42.5,55.1,75.4,66.5L601.8,364.7z"/>
	<path id="path1442_1_" class="st3" d="M544,325.6h4.7c1.1,0,1.1,0,1.5-1.2c0.4-1.2,1.6-0.8,2.4-0.4c0.7,0.4,2.3,0,3-0.8
		c0.9-0.8,0.9-0.8,1.7,0c0.7,0.8,1.1,0.4,2,0c0.3,0,1.9-0.8,2.3-2c0.3-1.1,1.5-1.5,2-0.7c0.3,0.8,1,0.8,1.9,0.8
		c0.7,0,0.7,0.3,0.7,1.5c0,0.8,0,1.2,2-0.4c1.6,1.6,2,0.8,2-0.8c0-1.5,0-7.8-0.8-8.2c-0.8-0.4-1.2-3.1-1.6-5c0-4,0-4-3.9-6
		c0-1-0.8-1.5-4-1.5c0.5-0.4,0-1.5-0.7-2c-0.8-0.3-0.8-0.7,0-2.3c0.8,0,2.4,0,2.7-1.2c0.8-0.7,3.2-0.7,4.7,0c1.6,0.8,3.2,0.8,5.9,0
		l4.7-2.3c2-1.2,2.3-1.6,2.3-3.1c0-4-1.1-7.8-2-9.8c-1-2-1-4-2.7-7.4c-1.5-3.2-1.5-4-3-5.9c-0.9-0.8-1.3-1.2-1.3-2.3
		c-0.1-1.5-0.8-3-2-4c-3-2.7-3.8-11.7-5.4-18.3c-0.8-4,0-13-1.5-14.5c-2.8-2-4-1.6-6-2.3c-1.5-2-1.9-5.5-3.4-9c-2,0.4-3.2,2.3-4.3,3
		c-1.2,0.9-1.6,0.9-1.6,2.8c0,1.6-1.2,4-2.7,7c-1.6,3.2-5.1,2-7.9,6.3c-5.4-6.6-5.4-8.6-5.8-10.5c0-2-1.2-2.4-4.3-5.1v-6
		c-2.8-2-4.3-1.5-5.5,0c-1.2,1.2-2,3.1-3.9,4c-0.8,1.5-4,4.6-6.3,9C512.3,262.1,520.1,297.3,544,325.6L544,325.6z"/>
	<path id="path1444_1_" class="st4" d="M694.9,199.7c0-24.3-1.2-47.8-0.8-68c-29.4-11.4-60.7-17.2-92.3-16.9
		c-20.7,0-61.4,3.1-92.2,16.8c0.7,20.3-0.8,43.8-0.8,68L694.9,199.7z"/>
	<path id="path1446_1_" class="st5" d="M513.9,227.4c1,1.6,2.9,4.3,3,6c0.8-1.6,1.4-2.2,1.5-3.1c0-1,1.3-2.7,0.8-3.7
		c-0.4-1-0.7-1.7,0.4-1c1.1,0.7,0.9,2,0.7,3.8c-0.7,5-2.7,6-3,9.3c2.9,7,0.7,9.6,4,16.6c0.5,0.2,1.8-0.3,2.2-0.2
		c1.8-1.2,3-0.9,5.5-0.3c2.4,0.5,3.7,2.2,3.7,3.8s0,1.9,0.6,2.8c0.5,0.8,1.4,2.3,1.3,3.4c-0.3,1,0.1,1.6,0.5,2
		c0.3,0.5-0.2,1.8-0.4,2.4c-0.3,0.6-0.2,1.7,1,3.2s4,7.9,4,11.6c0,3.9,0.3,5.6,1.8,6.3c1.5,0.7,2,1.3,1.8,2.9
		c-0.2,1.5,0.7,10,0.9,11.4c0.1,1.3,0.7,1,1.4,1.7c0.6,0.7,1,1.5,3,1.5c2.1,0,4-0.2,5.2,0c2,2.5,3,6,3.5,8.1c0.5,2.2,0.4,5,1,5
		c0.8,0,1.5,0,1.3-2.5c-0.2-2.6-0.4-3-1.3-4.4c-1-1.3-1.5-2-1-2.7c0.5-0.8,0.6-2,0.5-3.1c-0.2-1-0.6-2.6,1.2-0.6l2.7,3.3
		c0.5,0.6,0.7,2,0.6,3.3c-0.1,1.2,0,1.7,0.9,1c0.7-0.6,1.5,0.5,1,1.8c-0.3,1.3,0.3,2.1,1.5,2.6c1.2,0.4,1.7,0.7,2,1.6
		c0.3,0.8,1.3,1.3,1.3-0.6c-0.1-2.3-0.5-4.7-1.2-6.9c-0.5-1.2-0.9-3.8-1-5.4c-0.2-1.5-0.4-1.9-1.1-2.1c-0.7-0.3-1.4-1-1.5-1.6
		c0-0.7-0.7-1-1.1-1c-0.5,0-0.9-0.3-1.2-0.8c-0.2-0.6-0.5-0.6-1-0.6c-0.5-0.1-1.3,0.2-1.6-0.6c-0.2-0.8-0.6-2-1.1-2.6
		s-0.9-0.9-1-3.2c0-2.3,0-2.6-0.8-3.4s-2-3-2.5-3.8c-0.4-1-1-1.9-1,0c0,2,0,3,1.3,3.7c1.2,0.7,1.5,0.7,1,1.8c-0.6,1,0,1.7,0.2,2.4
		c0.3,0.7,0.6,1.4,0,2c-0.6,0.8-1.2,0.6-1.1-0.5c0-1.2-0.3-2.3-0.9-3.3c-0.4-1-0.9-1.6-1.5-1c-0.6,0.4-1.1-0.2-0.7-0.6
		c0.5-0.4,0.3-0.7,0-1c-0.2-0.2-0.4-0.6,0.1-1.2s0.5-0.9,0.2-2.3s-2.5-8.6-3.5-10.2c-1-1.7-0.9-2.8,0.3-1.3c1.3,1.6,2.5,3,2.7,4.4
		c0,1.4,0.3,2.2,0.7,2.6c0.5,0.5,0.7,0.4,1-0.8c0-1.1,1-0.7-0.4-2.8c-1.5-2.1-4.1-5.7-5.2-12.2c-1-6.4-1.4-10.5-2.4-12.2
		c-1-1.8-1.3-2.2-1.4-3.8c-0.1-1.6,0-3.3-0.7-4.5s-1.2-1.4-1.3,0.4c-0.1,1.8,0,6,0.6,6.6c0.6,0.7,0.2,2.6,0,3.5
		c-0.2,1-1.7,2.1,1.7,4.1c1.3,0.9,1,2,1,2.6c-0.3,0.8-0.5,0.7-1.2-0.4s-1.4-2.1-2.1-2.6s-0.9-1-0.7-2.5s0.3-2.5,0-3
		c-0.4-0.4-0.6-0.1-0.9,0.8c-0.2,0.8-0.3,3-0.9,3.6c-0.5,0.6-0.5,0.2-0.8-1.1c-0.4-1.3,0.1-3.4,0.8-5.7c0.7-2.2,1.2-4.8,0.6-7.8
		c-0.6-3-0.4-4-2.6-6.5c-2.4-2.6-5.1-5-6.1-8.1c-1.2-3.2-1.4-6-2.7-7.4c-1.1-1.4-2.5-2.7-4-3.7v-4.7c0-1.2-0.5-1.8-1.8-1.6
		s-2.2,1.3-3,2.8c-0.8,1.6-1.4,0.9-2.6,3.5S514,224.6,513.9,227.4L513.9,227.4z"/>
	<path id="path1448_1_" class="st5" d="M521.2,257.1c1,0.6,1.7,0.9,3,0.3c1.1-0.6,2.5-2.4,4.3-0.6c1.5,1.9,2.4,4.3,2.4,6.7
		c0,2.3,0,6.5,2.6,8.8c2.6,2.3,3.9,4.8,4,7.8c0.2,3,0.7,6,1.4,9c0.4,1.2,1,2.6,1.9,3.5c0.7,0.8,1.4,3.1,1.5,5.5
		c0.1,2.5-0.3,4.1,0,5.4c0.4,1.2,0,2.2-0.8,1.7c-1-0.5-1.2-1-1.8-2s-1-0.9-0.5,0.7s2,3,3.3,3s1.7,0.1,2.6,1c0.8,0.8,0.9,1.2,2.3,1.2
		c1.4,0,1.6,0,3,0.4c1.3,0.3,1.3,0.2,2,0c0.7-0.3,1.4,0.4,1.9,1.7c0.4,1.3,1.7,5,1.7,6s0,2,0.7,3c0.7,1.1,0.5,2-0.3,1.5
		c-0.7-0.6-0.8-0.5-1.3-0.3c-0.6,0.2-1-0.2-1.9-0.8c-0.8-0.4-0.3-0.3-1.1-1.5c-0.8-1.3-1.3-1.7-1.3-0.7s-0.2,2-0.8,1.4
		c-0.6-0.5-0.9-0.5-1.4,0c-0.5,0.6-0.7,1-1.3,0c-0.6-1-1.3-1-2-1.3c-0.5-0.1-0.5-0.1-0.8-1c-0.3-1-1.3-1.2-2-1.2
		c-0.9,0-1.3-0.4-1.4-1c0-0.6-0.6-1-1-1.3c-0.5-0.3-0.2-1-0.3-1.7c0-0.7-0.7-0.5-1.1-0.6c-0.5-0.2-0.7-0.1-0.7-1.2
		c0-1-0.5-1.3-0.7-2c-0.4-0.8,0-1.5,0.2-2.2c0.1-1,0-1.4-0.6-2c-0.6-0.8,0-1.5-1.7-3c-1.7-1.3-2.5-0.1-3-3.4
		c-0.3-3.9-1.1-7.7-2.4-11.4c-1-1-1.5-2-2.5-2.3s-1.4,0-1.5-2c-0.1-2-0.7-4.4-2-5.6l-2.3-2.2c-0.6-0.4-0.9-1.4,0-3
		c0.9-1.8,0.5-4.2,0.4-5.3c-0.1-1-0.4-2.6-0.2-3.8c0.2-1.2,0-2.7-0.2-3.5c-0.3-0.7-0.7-1-0.2-1.7H521.2z M545.7,228.3
		c-1.3,1.8-2.9,3.3-4.7,4.6c-1.9,1.4-4.3,2.4-3,4.7c1.4,2.3,2.5,2.6,2.7,4.3c0.3,1.8,0.8,3.3,2,3.7c1.5,0.4,2,0.2,2,3
		c0,2.7,0,4,1.2,5s1,2.2,1.6,4.7c0.6,2.6,0.6,8.2,2.2,12c1.5,3.7,5.3,11,4.8,12.4c-0.4,1.5-0.8,2.6,0.7,4.4c1.7,1.7,2.7,4.3,3,5.8
		c0,1.5,0.3,2,2,1.5c1.1-0.3,2.1-0.9,2.9-1.7c0.5-0.7,1.6-0.6,3.1,0.2c1.5,0.9,3.8,1.6,5.2,0.9c1.3-0.9,2-2.1,3.2-2.1
		c1.9-1.4,2.6-4.2,3-5c0.4-0.8,0.1-0.8-0.7-1.6c-0.8-0.8-0.4-2.2-0.5-3.5c-0.2-1.4-0.7-3.5-2.3-6.5c-1.6-3-2.7-6.6-3.7-7.5
		c-1-1-1.6-3.3-1.7-4.4c-0.1-1-1.4-2-2.2-2.8c-0.9-0.9-1.6-2-2.6-6.8c-1-4.7-1.6-8-1.6-9c0-0.8-0.2-0.8-1-1.2
		c-0.8-0.3-1.2-1.6-0.8-2.2c0.1-0.7-0.4-1.4-0.7-2.2c-0.2-0.8,0-2.3,0.6-3.2c0.5-0.8,0.4-3-0.1-5c-0.5-1.8-1.1-3.4-3.3-3.8
		c-2.1-0.2-2.6-0.8-3.3-2.6c-1-1.7-1.8-4.8-2-5.5s-0.7-0.8-2.3,0.6c-1.6,1.3-2.2,1.7-2.2,4.3c0,1.7,0.4,2.2,0.9,3.1
		c0.5,1,0.7,1.3,1,3.8c0.4,2.5,2.7,6.6-0.2,9c-3,2.2-2.6,2.8-2.5,4.4c0.2,1.7-0.8,2.7-1.3,0.5c-0.6-2.4,0-3.7,1.6-4.8
		c1.6-1,3.1-2.5,2-4c-1-2.1-1.5-4.3-1.7-6.6C546.9,227.6,546.7,227,545.7,228.3L545.7,228.3z"/>
	<path id="path1450_1_" class="st6" d="M521.6,262.8l0.3,3.3c0,1.1,0.4,3.5-0.5,5.2c-0.8,1.7-0.6,2.6,0,3.1h0.1
		c1.7-0.5,2-2.3,1.5-3.2c-0.4-1-0.4-2.1,0.2-3c0.5-1,0.5-1.5,0-2.2s-0.5-0.7,0-2.6C523.8,261.7,522.5,261.7,521.6,262.8L521.6,262.8
		z M539,289.1c-0.3-1.2-1.5-6-1.5-9c-0.1-3-1.5-5.5-4-7.8c-2-1.8-2.4-4.7-2.6-7c-1.5-0.9-2-0.5-1.9,1.2c0,1.8,2,2.6,1.7,5.3
		c-0.3,2.6-0.3,2,1,3.3c1.1,1.2,1.7,2.6,1,3c-0.7,0.5-0.7,1.5,0.2,1.8c1,0.4,1,1.4,0.9,2.4c-0.1,0.9,0.9,1.1,1.3,1.7
		c0.6,0.7,0.6,2.4,0,3.3c-0.4,1-0.5,2.5,0.4,1.7c1-0.9,1.4,0,2.1,1.2c0.6,1,1.2,0.7,2,0.5c-0.3-0.5-0.5-1-0.7-1.6H539z M552,312.7
		c-0.4,1.2-1.1,0.9-1.7,0.3c-0.6-0.6-1.3-0.6-1-1.8c0.2-1.1,0-1.3-0.7-1.9l-0.3-0.3h-0.8c-1.5,0-1.6-0.3-2.5-1.2
		c-0.2-0.1-0.3-0.3-0.5-0.4v0.8c0,1.1,0,0.8-1,1.2c-1,0.3-1-1.1-1.2-2c0-0.2,0-0.4-0.1-0.6c-1.5-0.3-2.6-1.4-3-2.9
		c-0.5-1.6,0-1.7,0.6-0.7c0.6,1,0.7,1.3,1.6,2c0.8,0.5,1.2-0.5,0.8-1.7c-0.1-0.4-0.1-0.9,0-1.3c-0.1-0.4-0.4-0.8-0.8-1
		c-1.8-0.7-1.2-0.8-1.2-2.2c0.2-1.3-0.1-1.3-1.2-0.6c-1,0.7-1,0-1-2.2c0-2-1.4-2-1.7-0.6c-0.3,1.5-0.9,0.5-1.4-1.5s-1.5-2.6-1.5-0.6
		c0,1.7-0.6,2-1.6,1.2l0.4,3.1c0.5,3.3,1.3,2,3,3.5c1.6,1.4,1.1,2.2,1.7,2.9c0.6,0.7,0.7,1.2,0.6,2c-0.3,0.8-0.6,1.5-0.3,2.2
		c0.3,0.8,0.8,1,0.8,2.1c0,1,0.2,0.9,0.7,1.2h0.8l0.7-1c1.3-1.2,3,0,3.7,1.7c0.6,1.5,1.3,1.9,2.3,0.6c1-1.2,0.6-1,1.6,0.1
		c1,1.2,1.4,1,1.4,1s1-0.4,1.8,0.2c0.7,0.6,1,0.5,2.4-1.4c1.3-2-0.6-1.4-1.2-0.2L552,312.7z M555.8,256.9c0.4-3,0.1-5.9,1.3-7
		c1.3-1,2.7-3.3,2.7,1.4c-0.2,4.6-0.4,4.3-1.3,5.4c-1,1.1-1.8,1.4-1,3.1c1.1,1.7,1.2,2,1.1,4.6c-0.1,2.7-0.1,3.9,0.9,5.2
		c1.1,1.4,1.4,1.4,1.7,3c0.3,1.7,1.2,3.3,2.4,4.5c1.2,1.2,2.6,4.2,2.7,6.4c0.2,2.2,2,2.7,3.8,4.3c1.8,1.5-0.4,2.5-1.7,1.8
		c-1.4-0.6-0.9,0-1.7,1c-0.8,1-1,1.1-1.7-0.6c-0.7-1.6-3-2.7-4.1-3.1c-1.1-0.4-2-2.2-3-4c-0.8-1.4-2.3-2.4-3.9-2.6
		c0.4,1.1,0.6,2,0.5,2.4c-0.4,1.5-0.8,2.6,0.7,4.4c1.7,1.7,2.7,4.3,3,5.8c0,1.5,0.3,2,2,1.5c1.1-0.3,2.1-0.9,2.9-1.7
		c0.5-0.7,1.6-0.7,3.1,0.2c1.5,0.8,3.8,1.6,5.2,0.8c1.3-0.9,2-2,3.2-2c1.9-1.4,2.6-4.3,3-5c0.4-1,0.1-1-0.7-1.7
		c-0.8-0.8-0.4-2.2-0.6-3.5c0-1.4-0.6-3.4-2.2-6.4c-1.7-3-2.7-6.6-3.7-7.5c-1-1-1.7-3.3-1.7-4.4c-0.2-1-1.4-2-2.2-2.9
		c-0.9-0.8-1.7-2-2.6-6.7c-0.7-3.7-1.4-6.6-1.5-8c-1,1.5-1.7,2-2,0.8c-0.5-1.2-0.9-1.8-1.5-1c-0.5,0.8-0.7-0.8-0.7-1.5
		s0-0.7-0.9-0.7c-0.8,0,0-1-0.3-3.2c-0.3-2-0.7-2.2-0.9,0.2c-0.3,2.4-1.7,4-1.1,4.4c0.5,0.6,0.2,1.7-0.3,3.3c-0.4,1.2-0.4,2.4,0,3.6
		c0.4,1-0.2,3.2-0.4,4.9C554,258.1,555.4,259.9,555.8,256.9L555.8,256.9z M531,232.7c-1,0-1.7,1-1.1,4c0.4,2-1,1.6-1.6,0.6
		c-0.5-1-1-3-2-4.7c-1.1-1.7-0.6,1.1-0.7,2.8c-0.2,1.7,0.9,1.7,1.8,3c1,1.4,0.2,1.9-0.8,1.9s-0.7,2.2-0.4,3.6c0.3,1.5-0.3,1.8-1,0.6
		c-1-1.3-0.3-3-0.2-5.4c0.2-2.3,0.3-1.8-1.2-2.3c-1.5-0.6-1.3-0.9-0.6-2.2c0.5-1.4,1-2,0.3-2.7c-0.6-0.7-0.5-1.1,0.6-1.2
		c1-0.2,0.6-1,1.6-1.2c1-0.3,1.4,0,1.5-1.7c0.1-1.5,0.6-2.3,1.7-1.9C529.6,228.2,530.4,231.7,531,232.7L531,232.7z M544.7,248.7
		c0,2.8,0,4,1.2,5s1,2.2,1.6,4.7c0.6,2.6,0.6,8.2,2.2,12l1.8,4c0.8-0.7,1.5-1.6,2-2.6c0.3-0.8-0.9-2.8-1.8-4.3c-1-1.8,0.1-2.3,1-4.4
		c1-1.9,0-2-1.6-2.6c-1.4-0.5-1.4-2-2.2-4.1c-0.8-2.2-0.7-3.1-0.2-4.4c0.5-1.2,0.2-2.1-0.9-2.4c-1.1-0.3-0.8-1-0.4-2.4
		c0.4-1.3,0.7-1.6-1-1.3c-1.2,0.4-1.5,0.7-1.9,1L544.7,248.7z"/>
	<path id="path1452_1_" class="st7" d="M560.3,254.3c-0.2,1.6-0.2,2.5-0.6,3c-0.4,0.5-0.1,1.3,0.3,2.2c0.5,0.8,0.6,1.8,0.3,3.4
		c-0.4,1.5,0.2,2.6,1,3s1.2,0,1,2c-0.2,1.7,0.5,3.5,1.7,4.7c1,0.8,1.7,2.1,1.5,3c0,0.8,0.7,1.5,1.7,2c1,0.4,0.8,0.5,0.8,1
		s0.4,0.6,1.4,0.9s2,0.9,3.2,2.4c1.2,1.6,3,2.3,2.7,0.7c-0.3-1.5,0-2.8-1.6-3.5c-1.7-0.8-2.9-4.7-3.5-7.4c-0.7-2.7-2.1-5.1-4-7.1
		c-0.3-2,0-2.9-1.2-3.8c-1-0.7-1.7-1.9-1.7-3.2c0-0.8-0.6-2-1.2-2.4c-0.5-0.3-0.8-0.9-0.8-1.8c0-0.8-0.8-0.7-1,1L560.3,254.3z"/>
	<path id="path1454_1_" class="st8" d="M553.1,327c3.3-0.5,6.6-1.5,9.7-2.8c1.7,1.1,4.5,2.6,5.7,2.6c-2.3,0.5-3.9,0.3-4.4-0.2
		c0.3,0.7,1,1.9,1.6,2c-2.3,0-4.8-0.6-5.6-1.4C558.1,328,554.9,328.2,553.1,327L553.1,327z M557.4,330c0.9,0.3,5.2,1,5.8,1
		c-1.4,1.2-0.2,2.4,2.1,2.2c-1,0.2-2.4,0.6-1.5,0.8c3.1,0,6.1-0.6,8.9-1.8C570.7,334.7,561.3,337,557.4,330z M561.4,336.1
		c1.8-0.4,3.6-0.3,5.3,0.3C565.3,337,562.2,337,561.4,336.1L561.4,336.1z"/>
	<path id="path1456_1_" d="M565.7,336.1c2-0.3,8,1,10-0.2c-0.7,1.9-4.3,2.2-5.7,1.7c-1.3-0.3-2.5-0.8-3.4-0.8
		C567.2,336.5,566.4,336.5,565.7,336.1L565.7,336.1z"/>
	<path id="path1458_1_" class="st8" d="M567.8,339c3,0.1,6.1-0.3,9-1.1c1.7,0.6,5.4,1.6,6.2,1.5c-1.7,1-5,0.4-6,0
		C574,340.6,570.6,340.5,567.8,339z"/>
	<path id="path1460_1_" class="st8" d="M570.4,339.9c2.3,0.5,4.3,0.2,6.5-0.5c0.7,0.2,2.3,0.6,3.9,0.6c1,0.5,2.3,1.3,3.7,1.5
		c-2.5,0.3-5.1,0.1-7.5-0.7c-2.7-0.1-5.5,0.4-8,1.5c0.1-1,0.7-1.8,1.5-2.3L570.4,339.9z"/>
	<path id="path1462_1_" d="M567.8,328.6c1.7,0.5,8.2,0.2,11.3-1.3c1.4-0.7,2.2,0.4,0.7,0.8c-5.2,2-9.5,2.6-12.5,1
		c-1.2-0.6-1.4-1.2,0.5-0.6V328.6z"/>
	<path id="path1464_1_" class="st8" d="M599,319.8c-7.9,3.7-13,4.8-23.9,1.4c-1-0.2-1.7,0-0.6,0.7c2.7,1.2,5.6,2.1,8.5,2.6
		c1.4,0.1,0.9,0.7,0,1c-0.8,0.2-1,0.8,0.1,0.4c1.1-0.5,7.8-0.7,10.5,0.7c1.1,0.7,1.4,0.5,1.3,0c-0.1-0.4,0.5-0.7,1.4-0.8
		c0.8-0.1,1.4-0.4,0.7-0.6c-0.7-0.3-0.8-0.5-0.3-0.7c0.5-0.3,0.6-0.6-0.2-0.7c-0.7-0.2-1.3-0.4-0.6-0.7c0.8-0.4,1.7-0.6,2.6-0.7
		C598.7,321.9,598.4,320.4,599,319.8L599,319.8z"/>
	<path id="path1466_1_" d="M586,320.7c6.2,0.1,12.2-2,17-6c1.6,1,3.7,2,4.9,2.2c1.1,0.2,2,1.2,0.3,1.2s-4-0.7-5.2-1.2
		c-5.1,3.1-11,4.6-17,4.3c-1.1,0-1.4-0.5,0-0.4L586,320.7z"/>
	<path id="path1468_1_" class="st8" d="M572.7,296.3c1.6,1.1,4.3,2.9,7.8,2.6c1.7,1.4,3.6,2.4,5.7,3c-2.4,0.8-5,1.7-5.6,2.4
		c-1-1-2.5-0.8-2.8-1.4c-1,1-0.9,1.3-0.2,1.8c2.3,0.7,4.6,1,7,0.9c1.2-0.4,1.7,0.7,0.6,1c-2.7,1-8,0-9.8-2.9c-2-2.9-3.5-4-8.5-1.3
		c-0.5-1.5-0.5-1.7-1.5-1.7s-2.8-1.3-1.4-1.3c1.4,0,5.4-0.6,8.7-3L572.7,296.3z"/>
	<path id="path1470_1_" class="st8" d="M574,303c-1,0.1-3.3,1.4-4.1,1.5c-0.9,0.2-2.4,1.4-0.9,1.4c1.7,0,3.7-1.7,4.8-1.7
		s1.2-1.5,0.2-1.3V303z M579,308c-0.7,0.2-3.3,0.8-4,0.8s-1.5,0-1.4,0.6c0.1,0.5,0.3,0.9-0.9,0.7c-1-0.2-1.9,0.3-2.1,0.6
		c-0.3,0.3-0.5,0.6,0.6,0.7c1,0,1.6,0.3,2.9-0.4c1.2-0.6,2.3-1.3,3.6-1.4c1.3,0,2.6-1.8,1.2-1.5L579,308z"/>
	<path id="path1472_1_" d="M575.3,311.1c1.1,0.9,6.6,2.6,8.5,2.6c2-0.1,1.7,0.7,0.2,1c-3.4,0.5-6.9-0.5-9.6-2.7
		c-1.2-1,0-1.4,0.8-0.9H575.3z"/>
	<path id="path1474_1_" class="st8" d="M601.2,314c-3.3,0.9-6.8,1-10.2,0.3c-1.7-0.6-3.3-0.6-2,0.6c1,1.1,4.8,1.8,7,1.3
		c-7.6,1.7-9.6,1.6-11.4,1.3c-2.3-0.3-4.7-0.3-7-0.2c-1.1,0.2-2.3,0-3.3-0.4c-0.7-0.5-0.9-1.1,1.1-0.9c2,0.1,2.3-0.2,0.6-0.5
		c-1.8-0.3-4.1,0.4-1.8,2c2.4,1.4,7.4-0.2,10.7,0.8c5.9,1.5,12.1,0.1,16.7-3.8c0.3-0.2,0.9-1-0.4-0.6L601.2,314z M580.6,307.7
		c0.2,0.6,0.2,1,0,1.4s-0.1,0.9,0.5,0.4c0.6-0.5,1-1.2,1.8-0.8c0.7,0.3,2.3,0.3,3,0.2c0.8,0,1-0.3,0-0.7c-0.9-0.4-1.9-0.6-2.9-0.6
		c-0.6,0.1-1.4,0-1.9-0.3S580.5,307.3,580.6,307.7z"/>
	<path id="path1476_1_" class="st8" d="M591.4,309.7c-0.8,0-2.4-0.6-3.1-1c-0.8-0.3-2-0.3-1.2,1c0.9,1.2,4.6,1.7,6,1.2
		c1.3-0.6,0.8-1.2,2-0.4c1.4,0.8,2.7,1.3,3.7,1.3s1.3,0,0.3-0.6s-1.6-0.7-1.8-1.2c-0.2-0.5-0.2-0.9,0.9-0.5c1,0.3,2,0.8,2.8,0.4
		s2.2-1.3,3.5-1.3l0.2-0.8c-1.8,0-3,0.5-3.5,0.6c-0.4,0.2-1.4,0.4-2.4,0.2s-2.2-0.3-2.5-0.5c-0.4-0.3-0.3-0.5,0.5-0.6
		c0.8-0.2,1-0.7,0-0.6c-1,0.2-4.2,0.2-5.8-0.3c-1.5-0.5-2.2-0.6-2.8-0.3c-0.7,0.2-0.6,1,0.3,1c1,0,3.2,0.3,4,1
		c0.6,0.7,0.6,0.7-0.2,0.4C591.4,308.3,589.8,308.5,591.4,309.7L591.4,309.7z"/>
	<path id="path1478_1_" class="st8" d="M604.7,307.8l-0.3,0.8c1.9,0,6.4,0.4,8,1.3c1.4-1.1,1.1-1.5,2-1.2c1,0.3,2.4,0.5,3,0.3
		c0.5-0.3,1-0.3,1.5-0.2c0.6,0,2-0.2,2.7-0.6c0.8-0.5,2.4-1,3.3-1c0.8,0,2-0.3,0.3-0.6c-1.6-0.3-4.2,0.3-5,0.6c-1,0.3-3.5,0.5-5,0.5
		s-3.6,0.7-5.3,0.3C608.1,307.6,605.7,307.8,604.7,307.8L604.7,307.8z"/>
	<path id="path1480_1_" d="M628.3,307c-3,2.2-6.8,2.7-11.1,3c-1.3,0-0.9,0.4,0.2,0.5c4.6,0.5,9.8-1.2,11.6-3
		c0.5-0.6,0.4-1.4-0.7-0.6V307z"/>
	<path id="path1482_1_" class="st8" d="M607.5,312.2c2.5,0.4,4.9,0.9,7.3,1.7c1.2-0.2,1.5-0.4,1.3-0.9c-0.3-0.4-0.4-0.8,1.7-0.6h7.5
		c0.8-0.3,2.3-1.5,3-1.5c-1.8,0-9.5,0.4-10.4,0.3c-1,0-1.5,0-2.1,0.4c-0.6,0.3-0.9,0.5-1.7,0.1c-1-0.3-2.1-0.7-3-0.1
		C610.5,312,608.8,311.6,607.5,312.2L607.5,312.2z"/>
	<path id="path1484_1_" class="st8" d="M625.3,312.4c0.7-0.3,2.3-1.5,3-1.6c1.4-0.1,2.8,0.4,3.5,0.6c0.7,0.2,1.5,0,1-0.6
		c-0.4-0.5,0-1.6,2-1.3c2.2,0.2,3.2,0.6,5.3,0.4s2.9,1.3,6.7-0.2c-0.2,1.5,0.5,1.6,1.2,1.3c0.7-0.2,1.5-0.2,2.7,0.7
		c1.3,1,8.7,1,10.4,0.7c1.8-0.3,2.6,0.6,1.3,1s-1.6,1-1.3,1.5c0.3,0.4,0.6,0.9-1,0.7c-1.7-0.2-2,0.3-2.7,0.8c-0.8,0.6-1,1-3.3,0.5
		c-2.2-0.4-2.7-0.1-3.9,0c-1.2,0.2-1.5,0.3-2.8-0.1c-1.8-0.6-3.7-0.7-5.5-0.3c-1.6,0.6-2.7,1-4.2,0.6c-1.5-0.3-1.5-0.2-0.6-1
		c0.8-1,1-1,2.8-1.1c1.8-0.2,3-0.7,1.9-1.4c-1.3-0.7-1.6-0.6-3.3,0.1c-1.6,0.8-2.4,1.4-4.3,0.4c-1.8-1-2.6-0.9-4-0.5
		C629,313.9,627,313.1,625.3,312.4L625.3,312.4z M631.4,315.4c-2.4,0.4-3-1.1-5.4-0.9c-0.8,0.2-2.2,1.2-0.3,1c1.9-0.1,4,0.9,5.8,0.8
		s1-1,0-0.9H631.4z M628.8,317.1c1.1-0.4,3.6,0.5,4.8,0.3c1.1-0.2,2,0.4,0.8,0.9c-1.2,0.4-3.7-0.7-5-0.4c-1.1,0.4-2.4-0.1-0.7-0.8
		H628.8z M604.4,323.8c1.7,0,7.8-0.3,10.2-5.3c0.2-0.4,0.3-0.6,1,0c0.7,0.5,3.6,2.1,8.8,2.6c1.5,0,3,0.8,0.1,0.7c-3-0.2-7.6-1-9.1-2
		c-2.7,4.1-7.4,4.6-11,4.5C602.3,324.3,602.8,323.7,604.4,323.8L604.4,323.8z"/>
	<path id="path1486_1_" class="st8" d="M617.5,316.8c-0.8,1.1-3.6,3-4.8,3.2c-1.3,0-5.2-0.2-6.1-0.6c-1-0.3-2.1-0.3-0.8,0.7
		c1.8,1,3.9,1.4,6,1.3c1.6-0.3,3.1-0.8,4.2,0c1,0.6,3,1.8,4.2,1.6c1.2-0.3,3.5-0.3,4.3,0c0.8,0.4,2.1,1.6,0.1,1
		c-2-0.7-3.6-0.2-4.5-0.6c1,1.4,3.3,3.7,5.2,3.7c0.5,0,0.9,0.9,0,1.3c0.8,0.4,3,0.9,4.3-0.3c-0.4,0.5-0.2,0.7,0.3,0.9
		c0.5,0.2,1.1,0.6,0.2,0.8c-1,0.2-3,0.3-3.6,0c2,1.3,7,3.4,12.3,2.3c1-0.1,1.6-0.6,0-0.5c-3.5,0-3.7,0-4.3-0.3
		c-0.6-0.4-0.4-0.7,0.6-1c1.4-0.4,2.8-0.6,4.3-0.7c1,0,2.1-0.3,0-0.3c-2,0-4.6,0-5.7-0.4c-1-0.3-1.7-0.9-0.6-1.6
		c1-0.7,2.1-0.5,2.6-1c-3.3,0-7.4-2-5.2-3.6c0.5-0.3,0.4-0.4-0.4-0.5c-1.5-0.3-3.1-0.8-4.5-1.4c-1-0.5-0.4-1.1,0.5-1.3
		c-2,0.3-6-0.7-8.6-2.6L617.5,316.8z M647.3,316.8c-1.8,1.3-5.3,2-6.8,2c-1.4,0-1.7,0.4-0.5,0.5s2.5,0.4,3,0.2s0.9-0.2,1.6,0.2
		c1.2,0.4,2.6,0.4,3.8,0c1.5-0.4,3.7-0.6,4.7-0.6c1,0.1,2,0.1,0-0.4c-1.8-0.5-5-0.2-5.8,0c-0.7,0.2-2.8,0-1.7-0.2
		c1.1-0.3,2-1,2.6-1.4L647.3,316.8L647.3,316.8z M646.3,320.8c-1.8,1.3-3.9,2.1-6.1,2.3c2,0.8,3.8,3,5.2,2.8c-0.7,0.5-1.5,1-2.3,1.2
		c1.9,0.3,3.8,0,5.4-1c3,0.8,7,0.2,8.3-1c-2,0-4.3-0.6-5.4-1.6c1,0,1.9-0.5,2.3-1.1c-2.3,0.4-6-0.7-7.3-1.8L646.3,320.8z"/>
	<path id="path1488_1_" class="st8" d="M643.1,327c0.8,0,1.7-0.6,2.3-1c-3.9,0.3-7.7-0.6-11.1-2.6c-2.2-1.9-2.2-0.4-0.7,0.9
		C636.1,326.7,639.7,327.8,643.1,327L643.1,327z M648.5,331.7c-0.9,0.5-5.3,0.9-6.7,0.5c-1.5-0.3-2-0.2-1.8,0.5
		c0.3,0.6,0.6,1-0.6,0.8c-1.4-0.1-2.7,0.1-4,0.5c-1,0.2-2,1-0.2,0.7c1.9-0.2,3.5-0.6,5-0.3c1.3,0.3,6.1,0.4,7,0c1-0.4,0.4-0.3,0-0.3
		c-0.5,0-0.7-0.3,0-0.7C647.9,333.1,648.3,332.4,648.5,331.7z M606.2,325.9c-3.1,1.1-6.3,1.9-9.6,2.5c-2,0.9-3.6,1.4-4.6,1.4
		c0.7,0.6,3.5,1.2,4.5,0.9c-0.6,0.7-2,1.3-2.5,1.7c1.7-0.3,3.5,0.2,4.4,0.3c-2.1,1.1-4.4,1.6-6.7,1.4c0.6,0.6,1.3,1.3,2.2,1.3
		c-1.8,0.5-3.7,0.6-5.5,0.2c0.6,1,1,1.6,1.8,1.8c-1.7,0.1-3.7,0.4-5.4-0.6c1.3,1.8,4.2,2.3,8.6,1.8c4.4-0.5,8-2.4,9-3.2
		c-1.8,0.2-4.3,0.3-5.4,0c3-0.8,5.9-2.1,8.6-3.7c-1,0-2-0.3-2.8-0.9c2.7,0.1,5.4-0.1,8-0.8c-1.4-0.3-2.7-1.1-3.5-2.3
		c5.5,1.6,11.4,1.8,17,0.5c0.8-0.2,0.8-1.3-0.7-1.1c-2.8,0.2-8.3-0.6-9.8-1.3c1.2,0.9,2.6,1.4,4,1.7c-2.5,0.8-6.2,1.3-11.6-1.7
		V325.9z"/>
	<path id="path1490_1_" class="st8" d="M594,332.4c0.5-0.4,2-1,2.5-1.7c-1.1,0.3-3.8-0.3-4.5-1c1,0,2.6-0.4,4.6-1.3
		c-3.6-0.1-6-0.1-7.5-0.9c-1.4-0.8-3.7-0.4-4.7-0.2c-1,0.1-0.6,1.7,3.3,1.3c-2.4,1.1-5,1.4-7.6,1c0.4,1.4,0.7,2.7,0.3,3.5
		c2.1,1.2,7.7,2.7,10.5,2.5c-2.5-0.9-3.8-1.9-1.8-2.2C591.1,333.2,592.3,332.8,594,332.4L594,332.4z"/>
	<path id="path1492_1_" d="M587.7,339c4.8-0.4,11.4-0.5,16.6-5c1.3-1,2.2-0.6,0.9,0.5c-4.6,3.6-10.2,5.7-16,6
		c-2.7,0-3.9-1.3-1.5-1.6V339z"/>
	<path id="path1494_1_" class="st8" d="M624.1,331c-1.8,0.5-3.7,0.8-5.6,0.8c-1.1-0.2-2.2-0.2-3.3,0.2c-0.8,0.5-0.9,1,0.2,1l3.3,0.2
		c-0.7,0.4-1.3,0.9-1.8,1.5c1.8-0.4,4.7,0.3,5.6,0.8c-0.7,0.1-1.4,0-2-0.4c2.7,3,10.9,3,12.2,2.4c-0.6,0.5-1.2,1-1.7,1
		c2.2,0.5,4.8,0.4,7.5-1l-4.2-0.2c0.6-0.6,1.2-1,2-1.2c-1-0.2-4.2-0.1-5,0.3c0.3-0.7,0.8-1.3,1.5-1.7c-4,0-8.9,0-10.6-1
		c2.7,0.4,5.9-1.3,7.2-1.3c-2.2,0-4.6-0.5-5.2-1.5L624.1,331z M614,333c-2,0.5-5,1.4-5.9,1.8c-0.8,0.5-1.6,0.7,0.1,0.7
		c0.2,0,0.4-0.1,0.6-0.1c-0.7,0-1.5,0-0.1-0.5c1.3-0.4,3-1.3,5.2-1.7L614,333z M610,337.9c0.7,0,3.7,0,5-1c1.2,0.8,3.7,2.2,5.2,2.2
		c1.6,0,1.4,0.4,0,0.6c-1.9-0.1-3.8-0.6-5.4-1.7c-1.8,0.7-3.3,0.1-5-0.1H610z M586.4,351.6c3.2,1.4,6.8,1.8,10.3,1.1
		c1.8,1.5,5.3,1.6,7.2,1.2c2-0.4,3.7-0.6,5.9,0c2,0.8,6.4,0.9,7.7,1.9l-4.1,0.1c-0.6,0.2-0.3,0.5,0.8,1c-4,0-7.9,1-11.3,3
		c1-2.4,3.4-3.9,6-3.8c-1.8-0.6-7.7-0.7-9.7,0.5c-0.5-0.6-0.9-1.3-1.2-2c-3.1,1.7-9.2-0.9-11.7-3L586.4,351.6z M578.4,345.8
		c2.6-0.2,5.2-1.2,7.3-2.8c0.7,0.6,3.5,1.2,6.5,0.3c-0.6,0.4-0.7,1.3-0.5,1.7c-2.4,0.2-4.8,0.8-7,1.8c-1.2,0.6-5,1.1-6.2,0.4
		c-1.2-0.6-1.2-1.2-0.2-1.4H578.4z"/>
	<path id="path1496_1_" class="st8" d="M591.7,345.1c-2.4,0.2-4.8,0.8-7,1.8l0.5,1.7c5-1.4,10.1-2,15.3-1.6
		c-1.6,0.1-4.5,1.8-6.1,1.9c4-0.3,7.8,0.5,8.8,0.8c1,0.2,1.3,1,0.5,1.8c-0.8,0.9-1.1,0.7,0.5,0.9c1.6,0,5-0.3,6.5-1.8
		c-0.7-0.6-2.2-0.3-2.7-0.9c1-0.3,1.9-0.9,2.7-1.6c-1.5,0-3.1-0.1-4.6-0.3c-0.8-0.2-1.5-0.5-0.4-1.1c0.8-0.4,1.4-0.9,2-1.5
		c-2,0.5-5.1,1-7.8-1c1,0.2,3.3,0,4.1-0.3c-0.7-0.4-1.4-0.7-2.2-0.8c2-1,6-1.9,11.3,0.1c2.4-0.2,4.8,0,7.1,0.4
		c1-0.8,2.6-2.8,3.5-3.2c-6,0.4-16.8-0.6-16.5-3.8c-2,2.6-6.5,4-8.4,3.6c-0.2,0.8,0.6,2,1.3,2.6c-2,0.4-5.5,0.8-7.1,0.4
		c1,0.9,2.6,1.7,3.6,1.7C594.6,344.9,593.4,345.3,591.7,345.1L591.7,345.1z"/>
	<path id="path1498_1_" class="st8" d="M604.1,352.3c1.8,0,5-0.2,6.6-1.7c-0.7-0.6-2.2-0.3-2.7-0.9c1-0.3,1.9-0.9,2.7-1.6
		c4.4-0.4,8.1-0.2,10-0.7c1.8-0.5,6.5-0.3,7.4-0.5c-4.1,0.7-4.9,1-5,1.7c-0.2,0.7,1.2,1.1,2.2,1.1c-1.7,0-4.1,1.9-4.4,2.7
		c-2.4-1.4-3.4,0.2-3.8,0.8c-1-0.4-4.4-0.3-6.1,1.2c-2.2-0.7-3.7-1-6-0.7c1.5-0.3,1.2-1.3-0.8-1.4H604.1z M623.6,340.3
		c1.4,0,4.4,0.2,5.5,0c-0.7,0.3-1.3,0.8-1.8,1.3c3.5-0.4,8.2-0.7,9.6-0.4c-1.8-0.3-3.5,0.9-4.4,1.4c-0.8,0.5-0.3,0.9,0.9,1
		c1.2,0.2,2.7,1,0.6,0.8c-2-0.2-6.4-0.3-7.4-0.2c-1,0.2-1.6-0.3,0-0.6c1.1-0.2,2.1-0.5,3.1-1c-1.2,0.3-3.5,0.3-4.3,0
		s-1.1-0.5-0.3-0.8c0.9-0.3,0.3-0.4-0.6-0.3c-0.9,0-3,1-4.3,2.1C621.5,342.2,622.8,341,623.6,340.3L623.6,340.3z"/>
	<path id="path1500_1_" d="M608.2,342.7c1.7,2,4.2,3.1,6.8,3c0.6,0,2,0.9,0.3,1c-4.3,0.2-6.4-0.9-8.3-3.6
		C606.6,342.5,607.3,341.7,608.2,342.7z M633.7,307.1c2.2,1,6.7,2,10.2,1.9c0.7,0,1.8,0.6,0.3,0.7c-3.7,0.5-7.5-0.2-10.8-2
		C632.5,307.2,632.8,306.7,633.7,307.1z"/>
	<path id="path1502_1_" class="st8" d="M635.9,307.1c3.5,0,6.1,0,7,0.9c2-0.5,5.7-0.9,6.4-0.7c0.8,0.2,1.8-0.3-0.1-0.7
		c-2-0.4-6.2-0.6-7.6-0.3c-1.4,0.2-5.7,0.4-7,0.2C635.1,306.5,635.5,306.7,635.9,307.1L635.9,307.1z M649.3,308.4
		c1.6-0.8,6.3,0,7.7-0.6c-1,1.2,3.3,1.3,7,0.4c-1.4,0.8-4.5,1-5.8,1.6s-2,0.1-3-0.3c-1.8-0.9-3.9-1.2-5.9-1V308.4z"/>
	<path id="path1504_1_" class="st8" d="M664,308.2c-3.7,0.8-8,0.8-7-0.4c-1.4,0.6-6-0.2-7.7,0.6c1.8-1,3-0.1,4.2-2.2
		c0.8,0.1,2.6,0.2,3.2-0.6c1,0.3,3,0.7,3.5,1.3c0.5,0.6,1.3-0.2,0.7-1c1.7-0.6,0.6,0.7,4.5-0.3c0.9-0.2,2.8-0.6,3.5-0.6
		C667.3,306.3,665.7,307.3,664,308.2L664,308.2z"/>
	<path id="path1506_1_" class="st9" d="M592,291.1l-0.7-86.8c0-3.9-2-3-2,0v86L592,291.1z M620.2,199.7l3.1,91.4l-0.4,0.8h-2
		l-1.9-92.2L620.2,199.7z M646.8,277.1l-1.6-74.3c0-2.4-2-2-2,0.4l1.6,73.9H646.8z"/>
	<path id="path1508_1_" class="st10" d="M604.6,214.9l-27.4-0.4c-1.2,5.5,5.5,5,7.8,4c3.1,1.9,5.5,1.9,7,0c2.4,1.9,5.5,1.5,6.7,0
		c3.1,2.7,6.6,0,5.9-4V214.9z M606.6,228.2h-27.5c-5,4.7,1.2,7,6.7,3.9c0.8,1.6,3.9,2.3,6.2,1.2c2.4,1.5,5.5,0.4,7-1.2
		c2.8,1.2,6.3,1.6,7.9-4L606.6,228.2z M605.7,245.8h-26.6c-0.3,4.3,5.1,3.9,7,2.7c2,3.2,6.7,2.4,8.3,0.4c2.7,2,5,1.6,6.2,0
		C603.4,251.3,606.1,248.1,605.7,245.8L605.7,245.8z M607.4,263l-30.1-0.4c-1.6,5,3.1,5.9,5,4.7c0.9,2.7,4.8,2,6,0
		c1.5,1.2,3.5,0.4,4.2-0.8c0.4,2.7,4,3.1,6.7,0.8c5.5,3.9,10.5-0.8,7.8-4.3L607.4,263z M633.6,256H609c1.1,4.6,3.5,5.8,7.4,3
		c3.1,3.2,7.8,2,9,0.5c5.5,4.3,8.2-0.8,8.2-4V256z M631.2,238.8L607,238c0.4,6.2,6.3,5.8,9.4,3.5c2,2.7,5.9,2,7.8,0
		C626.9,244.6,632,242.7,631.2,238.8L631.2,238.8z M634.4,219.6h-26c0,4.3,5.8,6.6,10.1,2.7c1.2,5.1,5.9,3.5,7.9,1.6
		c3,3.9,9.7-0.8,7.8-4L634.4,219.6z M632.8,206.6l-23.5,0.5c0,3.9,5.5,5.5,7.5,2.3c1.2,2,5,1.6,6.2,0c1.6,2.8,4,0.8,4.7,0
		c2.8,2,5.5,0.8,5.1-2.7V206.6z M659.8,215.3l-28.2-0.4c0,2.7,2.8,4,4.7,2.7c0,3.2,4,4,6.7,1.6c1.5,2.7,6.6,3.1,8.6,0
		c3.9,3.5,8.6,0.8,7.8-4L659.8,215.3z M659.4,238.3H632c0,4,4.3,5.1,7,3.2c0.5,3.1,4,3.5,6,1.6c2.7,2.7,6.6,3,9,0
		c3,1.1,5.8-1.6,5.4-4.7V238.3z M657.8,259.1h-21.9c0,3.9,4.7,3.9,6.7,2c2.3,2.7,5.5,2.7,7.4,0.7
		C652.7,264.2,657.4,263.4,657.8,259.1z"/>
	<path id="path1510_1_" class="st11" d="M622.9,292c-11.7,0-23.8,0-32-0.9c-8.2-0.7-10.6-2.3-16.4-5.8L552.4,272
		c-1.9-0.8-3.8,0.4-1.1,2l21.9,14.4c5,3.2,9.5,7.2,13.3,11.7c4.7,5.1,7.8,5.1,10.1,4.3c2.4-0.7,5.5-2,9-1.1
		c3.2,0.7,7.8,1.1,10.2,0.7c2,2,7,1.6,9.8,0.8c2.7-0.8,4.7-0.8,6.6-0.4h6.7c2,0,7-1.1,10.5-0.7c4,0.7,7.4,0,9.8,0
		c2.5-0.7,5.2-0.8,7.8-0.4c2.4-1.6,3.1-3.6,4-5.5c2.3-0.4,3-0.8,3.4-2l2.4-6.2h0.8v-2.4l-1.6-2.3l0.8-4l2-0.7l-0.8-4l-34.4,0.9
		c-1.2,1.1-2.1,2.6-2.4,4.3l-10.2,1.5c-1.1,0.4-2.3,0.4-3.5,2L622.9,292z"/>
	<path id="path1512_1_" class="st11" d="M664,276.7l5-19.2c0.8-2-1.1-2.3-1.9,0l-5,19.2H664z"/>
	<path id="path1514_1_" class="st10" d="M683.9,255.2c-4.3,2-6.6,3.1-8.6,2.3s-4.3-1.2-5.8-0.4c0,0.1,0,0.3,0,0.4
		c-1.4,5-2.8,9.9-4.3,14.9c3,1.2,8.6,1.2,9.7,0c1.6-1.6,5.1-1.2,7-1.2c1.2-1.6,1.6-3.5,1.2-4.3c-0.4-0.8,0-2.7,0-4
		C683.1,261.9,684.7,257.5,683.9,255.2L683.9,255.2z"/>
	<path id="path1516_1_" class="st12" d="M585.4,218.4c-7.6,19.8-18.1,38.2-31.3,54.8 M561.9,277.9c17.4-14,32.4-30.6,44.6-49.3
		 M579.1,245.4c-1.1,10.6-4.3,29.3-5.8,39.1 M583.4,268.9c-3.9,3.9-9,10.1-13.2,13.6 M619.8,247.7c-3.1,3.2-6.6,7-10.2,7.9
		 M621.8,248.6c2.9,3.3,6.5,5.8,10.5,7.4 M619.8,231.7c-3.4,3-7.4,5.3-11.7,6.7 M621.4,232c2.3,2.3,5,5,8.6,6.7 M608.9,219.5
		c3.9-1.2,7.5-3.2,10.5-5.9 M620.6,213.6c3,2.8,6.6,4.9,10.5,6.3 M609.6,206.9c3.7-0.6,7-2.5,9.4-5.4 M620.2,200.7
		c2.7,2.4,7.8,5.5,10.6,5.9 M643.3,209.7c-1.6,2-5.9,5.1-8.6,5.1 M645.2,209.8c1.2,1.9,4.3,5,6.3,5 M632.7,238.3
		c4.2-1.6,8-4.2,11-7.5 M645.7,231.2c1.9,2.9,4.4,5.3,7.3,7 M637,258.6c1.6,0,5.9-2.4,7-5 M646.4,252.3c2.2,2.7,4.8,5,7.8,6.7
		 M581.1,262.5c5-1.6,14.9-7.8,20-13.7 M591.7,256.2c3.9,2.8,9,6,12.5,6.7 M579.9,245.3c3.5-1.4,6.6-3.4,9.4-5.9 M591.3,239
		c1.1,1.6,9.3,6.7,12.9,6.7 M589.3,222.7c-3,2.3-6.3,4.1-9.8,5.4 M591.3,222.6c2.7,2,8.6,5.5,12,5.5 M589.4,207
		c-2.3,2.3-6.2,6.2-9.4,7.4 M591.4,207.4c1.5,2.7,6.2,6.6,9.3,7 M632,224.6c7.5,12.9,20.7,29,34,37.5 M611,210.1
		c10.9,15.6,32,49.7,52.3,62.2 M667.3,259c-5.2,7.1-11.7,13.2-19.2,18 M665.6,263.3c-6.6-11-10.1-24.6-15.6-43 M595.3,268.8
		l7.8,23.4 M593.7,268.4l7.4,23.4 M591.8,267.2l7,24.2 M591,267.6l5.4,23.8 M596.4,290.7h6.7 M602.3,288.3h-6.2 M601.5,286.3h-6.2
		 M600.7,284.4h-6.3 M599.4,282.1h-5 M594,280.1h5 M593.6,278.5h5 M593.2,276.5h4.7 M592.9,275h4.2 M592.4,273h4 M592,271.5h4
		 M591.7,270.3h3.9 M591.6,268.8h3.6 M585,268.8l-4.7,19.5 M586.2,268.8l-4,20.3 M587.4,268l-3.2,21.5 M588.9,267.5l-2.3,22.8
		 M589.3,288.7h-7.8 M589.3,286.7h-9 M589.3,284.4h-8.2 M588.9,282.4h-7.4 M589.3,280.4h-7.4 M589.3,278.1h-6.6 M589.3,276.1h-6.6
		 M588.9,274.2h-5.8 M588.9,272.2h-5 M588.9,270.3h-4.7 M588.9,269.1h-4.3 M588.6,290.7v-23.1 M613.9,259.8l-15.5,31.7 M615.2,259.5
		l-13.3,32.4 M616,259.1l-10.6,32.8 M617.2,259.9l-8.6,32 M609,290.8h-9.8 M609.7,287.6h-9.3 M610.1,285.3h-7.8 M611.7,282.9h-7.8
		 M612.1,280.6h-7.4 M612.9,278.2h-7 M613.6,275.5h-6.2 M614,273.5h-5.8 M614.8,271.2h-5.5 M615.3,269.6h-5.2 M615.6,268.1h-5.5
		 M615.2,266.5h-3.9 M615.3,265.3h-3.6 M615.6,263.8h-3.2 M616.3,262.2h-3.1 M616.2,261h-2.7 M626.8,260.6l6.7,22 M628,261l8.2,21.2
		 M629.2,261l9.8,20.8 M641.3,279.8l-11-19.2 M641.3,280.2h-7.8 M640.5,277.1h-7.8 M639.4,274.7h-7.5 M637.8,272h-6.7 M636.2,269.6
		h-5.8 M634.7,266.9h-5.1 M633.5,264.2h-4.7 M631.9,261.8H628 M640.5,262.2l-7,20.3 M642.5,261.5l-6.3,20.7 M639,281.8l4.7-19.6
		 M644.8,263l-3.9,18.4 M634.3,280.2h6.6 M635.1,277.9h6.6 M635.8,275.1h6.3 M637.1,272.8h5.8 M637.8,270h5.5 M638.6,267.7h5
		 M639.7,264.9h4.7 M640.5,262.6h4 M648,263l3,14 M649.1,262.2l4.3,14.5 M650.7,262.2l4.7,14.5 M652.6,263l5.1,13.7 M657.3,275.5
		h-6.6 M656.6,273.5h-6.3 M655.8,271.6h-5.9 M654.9,269.2h-5.8 M653.8,267.2h-5.4 M653.1,265.3h-5 M652.4,263.3h-4.7"/>
	<path id="path1518_1_" class="st6" d="M588,299.2c3.1-2,8.5-1.7,11.3,0.4c3.3-1.8,9.2-1.3,11.9,1.2c4.2-3,7.7-3.4,11.7-0.6
		c3.6-2.4,8.4-2.3,11.9,0.2c3.7-1.7,7.7-3.1,11.2,0.6c-3.5-2.4-8.1-2.1-11.3,0.7c-3.5-3.5-9.7-2.2-11.8,0.3
		c-2.9-3.1-7.8-3.3-10.9-0.4c-0.2,0.2-0.4,0.4-0.6,0.6c-3.7-3-9.1-3.2-12-1C596.1,298.8,591.9,298,588,299.2L588,299.2z"/>
	<path id="path1520_1_" class="st5" d="M643.5,294.8c-16.1,2.8-51.4,1-59-1.1c-2.7-0.6-2-1.6,0.3-1c8.9,2,27.9,2,38.3,1.4l6.2-8.5
		c1-1.3,1.4-1.4,3.5-1.7l8.7-1.5v1.2c-0.2,0.3-0.4,0.6-0.7,0.7c0,2,0.4,7.1,0.9,9l1.1-0.3C643.5,292.8,644.2,294.7,643.5,294.8z"/>
	<path id="path1522_1_" class="st5" d="M670,295.6h2.2c0.6,0,1.6-0.5,1.9-1.5l2.2-6.3l-1.7-2.5l0.9-5.3l2-0.9c0.2-0.3,0-1.6-0.4-2
		l-31.6,1c-1,0-1.4,0-1.7,1.3c-1.9,8.6,1.2,17.6,8,23.2c0.5,0.4,1.2,0,0.3-0.7c-1.7-1.7-3.1-3.6-4.3-5.7h5.2c0.4,1.7,1.7,5.2,2,5.9
		c0.2,0.7,0.8,0.7,0.4-0.3c-0.6-2-1-4.5-1.3-5.7h5.3l0.4,5.2c0,0.7,0.6,0.7,0.6-0.1V296l4.8-0.2l-0.4,5.2c-0.1,0.9,0.3,1.2,0.5,0
		l0.7-5.2l3.3-0.2c0,1.2-1.1,4.4-1.4,5.2c-0.3,1,0.2,1,0.5,0.1C669,299.2,669.6,297.5,670,295.6L670,295.6z"/>
	<path id="path1524_1_" d="M646.9,294.8c-0.5-1.1-2.3-5.1-2.4-8h7c0.2,2.1,0.8,6.8,1.2,7.9L646.9,294.8z M652.7,286.6
		c0.1,1.8,1,7.5,1.2,8h5.6l-0.4-8.1L652.7,286.6z M644.8,279.6c-0.2,2-0.3,4-0.2,6l6.7-0.3l-0.6-5.9L644.8,279.6z M652.1,279.4
		l0.4,6l6.6-0.2l-0.3-6L652.1,279.4z M660.1,279.1l0.2,6l5.7-0.1c0-1.3,0.3-5.2,0.2-6.1L660.1,279.1z M667.3,278.9l-0.2,6l6.2-0.2
		c0.3-1.3,0.9-4.7,0.9-6L667.3,278.9z M673.6,286.1l-6.6,0.2l-0.6,8l6.3-0.2c0.9-2,1.7-4,2.3-6C674.5,287.1,674.1,286.8,673.6,286.1
		z M660.3,286.5l0.2,8l4.8-0.2l0.6-8L660.3,286.5z M633.3,284.9l-2.6,0.4c-2,3-4.1,5.9-6.3,8.8l9.3-0.2l-0.3-9L633.3,284.9z
		 M634.5,284.6l0.4,9.2l5.6-0.4l-1-9.6L634.5,284.6z"/>
	<path id="path1526_1_" class="st11" d="M607.3,263h-30.1v-0.8l30,0.4L607.3,263z M630.8,238.8C631.1,238.8,631.1,238.8,630.8,238.8
		l-23.5-0.4c-0.4,0-0.4,0,0,0h23.5V238.8z M605.8,245.4c0.3,0,0.3,0.4,0,0.4h-26.7c-0.3,0,0-0.4,0-0.4H605.8z M606.5,228.2
		c0.4,0,0.4,0.4,0,0.4h-27.7c-0.4,0-0.4-0.4,0-0.4H606.5z M604.5,214.5c0.4,0,0.4,0.4,0,0.4h-27c-0.3,0,0-0.8,0-0.8l27.4,0.4
		L604.5,214.5z"/>
	<path id="path1528_1_" class="st10" d="M632.7,206.7l-23.5,0.4L632.7,206.7z"/>
	<path id="path1530_1_" class="st11" d="M633.9,220C634.3,220,634.3,220,633.9,220h-25.5c-0.4,0-0.4,0,0,0H633.9z M659.3,238v0.4
		h-27.4c-0.8,0-0.8,0,0,0h27.5L659.3,238z M659.3,214.9c0.8,0,0.8,0.4,0,0.4h-27.9c-0.4,0-0.4-0.4,0-0.4h28.2H659.3z M633.4,255.6
		c0.4,0,0.4,0.4,0,0.4h-25v-0.4H633.4z M657.6,259.1C658,259.1,658,259.1,657.6,259.1h-21.9H657.6z"/>
	<path id="path1532_1_" class="st13" d="M677.7,263c0.4-1.8,0.4-3.7,0-5.5c-0.8,0.2-1.6,0.2-2.4,0c-0.4-0.3-0.8-0.6-1.2-0.8
		c-0.1,2.6-0.6,5.1-1.5,7.5c-1.2,0-4,0-5.1-0.8l-1.2,3.9c1.9,0.4,4,0.4,5.9,0c0,2.3-0.4,4.3-1.6,5.9c2,0,4,0,4.3-1.2
		c1.2-1.6,1.2-4,1.6-5.1l2-0.4l1.9-0.8l2.7-0.4V263l0.8-1.6l-6.2,2V263z"/>
	<path id="path1534_1_" class="st11" d="M580.7,130.8c-3.1,0-10.2,0-11.7,0.8c-1.2,0.8-1.6,1.2,0.8,1.6c2.3,0.4,6.6,2,9,3.1
		c2.3,1.6,3.9,4,3.9,7.8c-1.8,9.9,2.9,19.8,11.7,24.7c0.4,0.4,0.8,0.7,0.4,2.3l-1.2,4.3c0,0.8-0.4,1.6,0.8,1.2
		c-1.2,2.1-2.6,4.2-4,6.2c-6.2-0.7-11.6,0-11.6,7c0,0.9,0,1.6,0.7,0c1.2-1.5,2.4-3,5.1-3.8c-1.5,2.7-2.3,5-2,6.6c0,1.2,0.8,2,1.6,0
		c0.4-1.6,2-3.1,3.2-4.3c0.7-0.4,0.7-0.4,0.3,0.8c-0.2,1.5,0.3,3.1,1.2,4.3c0.8,0.8,1.2,0.4,0.8-0.8c0-1.6,0-4.3,2-5
		c2.3-1.6,4.6-0.9,5.4,0.7c1.2,2,2,0,0.8-1.6c-1.2-1.5-2.3-3.5-3.9-3.5l4-6.6c0-0.8,0.7-1.2,1.5-0.8c0,0.4,0.8,0.4,1.1-0.8l2.8-5.5
		l2.3-0.7l4,5.8v2.4c0,1.5-1.6,5-2,6.2c-4.7,0-7,0-8.6,2.8c-0.8,1.1,0.4,1.5,1.5,1.1c1.2-0.7,2.6-1.1,4-1.1c0.7,0,1.1,0.7,0,1.1
		c-2.8,1.2-4.7,3.2-4.7,5.9c0,0.8,0.7,1.2,1.1,0c1.1-1.9,3-3.3,5.1-4c0,2,0.4,5.2,2,6c1.1,0.7,1.1,0,0.8-1.2c-0.8-2,0-4,1.1-5.1
		c2-2.3,6.7,0.8,7.9,1.6c0.7,0.7,1.5,1.1,0.7-1.2c-0.4-2.7-4.3-4-7.8-4.7l4.7-16.4c2,1.2,4-2,7-0.8c5.2,2.3,10.2,5.2,14.9,8.6
		c1.6,1.2,2,0.8,2.7,0c0.8-0.4,2,0,3.2,0c0.7,0.4,1.5,0.8,0.4-1.6c-2.3-4.1-5.5-7.6-9.4-10.1c3.1,0,7,0,7-0.8s-4.7-2.4-6.6-2.4
		c2.3-0.4,4.4-1.5,6.2-3c0.8-0.9,0-1.3-3.1-1.3c-8.2,0-12.5,0-16.8-2.3c-7-4-11.4-8.6-14.9-10.2c-1.5-1.1-2.7-3.5-3.9-5.4
		c-2-6-2-9-7-11C590.1,125.7,583.4,128.1,580.7,130.8L580.7,130.8z"/>
	<path id="path1536_1_" class="st10" d="M581.1,132.4h-6.6c0,0-0.8,0,0,0l5.8,1.6c1.2,0,0.8,1.1,0,0.7c-0.8-0.3-1.5,0-0.8,0.8
		c4,2.8,4.7,4,4,14.5l1.9,1.6c0.8,0,0.4,0.7,0,0.3c-0.4-0.3-2,0-0.8,0.8s2,0.8,0.8,0.8s-2.3,0.8,0,0.4c2,0,3.1,0.8,0,1.2
		c-2.3,0-1.6,0.8,0,0.8c2.7,0,2,0.7,1.2,0.7s-1.2,0.8,0.8,0.8h2.7c0.4,0,0.8,0,0,0.4c-0.8,0-0.8,0.8,0.4,0.8s2,0,0.8,0.4
		c-0.4,0-1.2,0.4,0,0.8c2.7,0,3,0.7,2.3,1.1c-0.8,0.4-1.2,0.4,0,0.4s2.4,0.4,1.2,0.8c-0.8,0-1.2,0.8,0,0.8s2,0.8,1.2,1.2
		s-1.2,0.8,0,0.8c1.1,0,1.5,0.3,0.7,0.7c-0.7,0.8-1.1,0.8-2,0c0-0.7-0.7-0.7-0.7,0l-0.8-1.1c-0.4-1.2-1.2-1.2-1.2,0
		c0,1.1-0.7,0.4-1.5,0c3.9,4.5,10.3,5.7,15.6,3c0.4,0,0.8,0,1.2,1.3l2.3,4.3c0.4,0.7,1.2,0,1.2-0.8l2.4-6.7c0-1.1,1.5-2,1.1,1.2
		c1.2-0.8,5.9-1.2,9.8,0c3.8,1.5,7.3,3.5,10.6,5.9c0.6,0.4,1.3,0.6,2,0.4c1,0,1.5,0-0.5-2s-1.1-2.7,0-2c1.2,0.8,2,0.4,0.8-0.7
		l-3.9-3.5c-0.4,0-0.4-0.8-2.3-0.8h-6c-0.7,0-1.5,0,0.9,0.8c2.3,0.7,6.6,3.9,7.8,4.6c1.2,0.8,1.6,2.4-0.4,0.8c-4.5-3-9.1-5.6-14-7.8
		c-10.6,1.2-19.2,2.4-25.5-4.3c-3.1-3.5-3.1-11,2-14c-0.8-0.9-0.8-1.6-0.4-1.6v-2.4c-0.8-0.4-1.6-1.2-1.6-2c-1.2,0-2-1.9-3.9-1.1
		c-2,0.8-2.3,0-3.1-0.4c-0.4-0.8-0.8-0.8-2-0.8s-2,0-2-0.8c0-0.7,0.8-0.7,2.4,0c2.7,1.2,5,2,7-0.7c1.6-2.4-0.7-4.3-3.9-5.1
		c-3.5-0.8-5.8,2-7.4,3.1H581.1z"/>
	<path id="path1538_1_" class="st10" d="M598.3,131.2c-1.2-1-2.5-1.8-4-2.3c-1,0-1,0.8-0.7,1.2v2.3c0.8,0.4,1.2,1.2,0,1.2
		c-0.8,0.8,0,3.5,1.2,2.7h0.8c0,0,0,1.2,0.7,1.2c0.8,0,0,0.8,0,1.2h0.8c0.8,0,0.4,1.5-0.4,2c1.2,0,1.6,0,1.6,0.7
		c0.4,0.8,1.6,1.2,1.6,2.3c0,1.2,0,1.2-1.6,0.8c-1.6-0.4-1.6,0-2,0.8c-0.3,0.8-0.7,1.2,0,1.2c0.8,0,1.6,0.4,0.4,0.8
		c-1.1,0.3-2.3,0-2.7,1.1c0,1.2,0,1.6,0.8,1.2l2.7-1.6l2,0.4c0.8,0.4,0,2-0.8,1.2s-1.6,0-2,0.4l-2,0.8c-0.7,0-1.5,0-1,2
		c0,5.4,4.2,9.3,12,9.3h13c-2.4-1.6-4-2.3-5.2-2.3h-1.1c0.4-0.4,0-1.2-0.4-1.2c-0.4,0-1.2-0.8-2,0l-3.9,2c-0.8,0-2,0-0.8-0.8
		l3.6-1.6c0.7,0,0.3-0.8,0.3-0.8s0-1.2,1.2-0.8c2.4,1.6,5.9,3.6,7,3.6c1.2,0,1.6-0.8,0.8-1.2c-0.7-0.4-1.1-1.2-1.1-1.6
		c0-0.4,0.4-0.8,2,0c1.5,1.2,3.8,2,5,2.4s2,0.4,0-0.8l-9-6.7c-1.2-1.1-1.2,0-0.8,0.8s-1.1,1.2-2,0.4c-0.7-0.8-1.1-1.2,0-1.6
		c1.2-0.3,0.9-0.7-0.3-2c-1.6-1-2-1-1.6,0c0.4,1.3,0.4,2-0.8,1.7c-1.1-0.4-2.3-1.2-1.1-1.6c0.7-0.8,2-1.2,0-2.4
		c-2-1.1-0.8,0-1.2,0.8c-0.4,0.8-1.6,0.8-2,0c-0.4-0.8-1.1-1.1-0.7-1.5c0.3-0.4,0.3-0.8,1.1,0c0.8,0.7,1.6,0,0.4-1.2s-1.5-0.8-1.2,0
		c0.4,0.8-0.7,1.6-2.3,0c-0.8-0.4-0.8-1.2,0-1.6c0.8,0,0.8-0.4,0-1.1c-2.7-4.7-1.6-8.3-4.7-11.8L598.3,131.2z"/>
	<path id="path1540_1_" class="st5" d="M598.4,132c-0.2,0.4-0.3,0.3-0.8,0.7s-0.7,1.5,0.3,1.4c0.6-0.1,1.1-0.3,1.4-0.8
		c-0.2-0.5-0.5-0.9-0.8-1.3L598.4,132z M595.4,129.4c-0.9,0.8-1,1.2-0.6,1.2c0.5,0,0.3,0,0,0.6c-0.4,0.5,0.6,0.8,1,0.3
		c0.5-0.4,0.5-0.5,0.7,0c0.1,0.5,1,0,1.3-0.3C597.1,130.5,596.1,129.9,595.4,129.4L595.4,129.4z M593.9,133.8
		c-1,0.5-0.7,3.2,0.9,2.4c0.5-0.2,0.9,0,0.9,0.3v0.7c0.6-0.3,1.2-0.7,1.7-1.2c0.9-1.2,0-1-1.4-1c-1.4,0-1.7-0.3-0.4-1.1
		c1.2-0.8,0.3-1.2-1.3-1C594.5,133.2,594.4,133.5,593.9,133.8L593.9,133.8z M599.8,139.8c-0.8-0.9-0.3-1.2,0.5-1.7
		c0.2-0.1,0.3-0.2,0.4-0.3l-0.7-2.6c-0.3,0.2-0.8,1.1-1,1.5c-0.2,0.7-0.4,1.1-1,1c-0.7-0.3-1.3,0.4-1.4,1.1h0.5
		c0.2,0.1,0.3,0.6,0.2,1c1.9,0,2.2,1.1,2.5,2c0.4,1,0.7,0.9,1,0.3C601.1,141.5,600.5,140.6,599.8,139.8z"/>
	<path id="path1542_1_" class="st14" d="M600.3,150.4c-0.4,0.8-0.4,0.7-1.5,0.7c-1,0.1-2.4,0.3-3,0.9c-0.3,0.3-2.2,0.5-2.2,1.3
		c0,0.9,0,1.5,0.8,1.6c0.8,0,1,0.2,0.7,0.8c-0.4,0.6-0.6,1.5,0.8,1.7c1.4,0,2.5-0.3,2.8,0.4c0.4,1,0,2.1,0.3,2.7
		c0.2,0.5,1.2,0.7,2.7,1.2c1,0.2,4.8,0.5,6,0.3c1-0.2,0.6-0.8-0.5-0.8c-1.2-0.2-2-0.4-2.3-1.2c-0.3-0.9-0.5-1.3,0.2-2
		c0.6-0.8,1.2-1.3,0.8-2.5c-0.3-1.1-1-2.5-2.3-2.9s-0.9-2.3-2.3-2.4C600.8,150.2,600.5,150.2,600.3,150.4z"/>
	<path id="path1544_1_" class="st5" d="M593.7,161.4c1.2,0.2,2.1,0.5,1.2,0.8c-0.9,0.3-1.5,0.8-0.3,0.9c1.2,0,2.3,0.6,1.3,0.8
		c-1,0.3-1,1,0.1,1c1.1,0,1.7,0.4,0.9,1c-0.9,0.4-1.4,0.7-2-0.1c-0.5-0.9-0.8-1-0.9-0.5c-0.2,0.6-0.5,0.2-0.9-0.7
		c-0.3-0.8-1.2-1.2-1-0.5c0.3,0.7-0.6,0.9-1.5,0.5c0.8,1,1.8,1.8,2.9,2.4c1.2-0.4,2.6,0,3,0c0.6,0,2.1,0.4,3,0.9
		c0.9,0.4,1.5-0.4,1.1-1.3c-0.4-1-0.4-0.7-0.8,0c-0.6,0.4-0.6-0.3-0.6-1.4c0-0.8-0.6-0.7-0.7-0.1c-0.2,0.5-0.7-0.4-0.5-0.9
		c0.3-0.5,0-0.8-0.4-0.6c-0.5,0.2-0.5,0-0.6-1c-0.1-1.1-0.5-1-0.6-0.5c-0.1,0.4-0.6-0.2-1.3-1c-0.5-0.6-1-0.2-2.1,0.1L593.7,161.4z"
		/>
	<path id="path1546_1_" class="st14" d="M606,167.8c-5.5,2.2-9.5,1.2-12.5-0.8c1.2-0.4,2.6,0,3.1,0s2.1,0.4,2.9,0.9
		c0.8,0.4,1.5-0.4,1.1-1.3c0.7,1,1.3,1.6,2.2,1.5L606,167.8L606,167.8z M594.2,142c-0.4-1.2-0.7-1.4-1.3-1.3c-0.6,0-0.9-0.1-1.6-0.4
		c-0.6-0.3-1.5,0-1.6,1.3c-0.2,1.3-1,1.8-2,2.6c-1,0.7-1.5,1.3-1.5,2.6c0,1.2-0.3,1.4-1,2.4l-1.1,1.3l1.2,0.7
		c0.8,0.4,0.5,0.9-0.2,0.7s-1.5,0.2-0.2,0.4c1.2,0.3,1.7,1,0.6,1c-1.3-0.3-2.6,0.8-0.3,0.5c2.3-0.2,3.1,0.9,0.5,0.9
		c-2.7,0-1.7,0.9-0.2,0.9c2.5,0,1.7,0.7,1,0.7c-0.6,0-0.9,1,0.8,0.7l0.6-1c0.3-0.8,0.5-3.1,1.5-3.8c0.9-0.6,1.4-1.7,1.4-2.3
		s1.5-3.7,2.3-4.4c1-0.7,1.4-2.3,1-3.4L594.2,142z"/>
	<path id="path1548_1_" class="st5" d="M592.2,142.2c-0.9-0.7-1.9-0.2-1.9,1c0,1-0.6,1.5-1.4,2c-0.9,0.5-1.6,1.3-1.8,2.3
		c0,1,0.2,1.5-0.4,2.3c-0.7,0.7-0.8,1.3-0.4,1.8c0.6,0.4,0.6,0.4,0.7,1c0.3,0.6,1.4,0,1.4-0.7s0.3-0.7,1-1.1c0.8-0.4,2-2.4,1.7-2.9
		c-0.2-0.5-1-1,0-1.7c1-0.8,1.8-1,1.8-1.6c0-0.8,0.2-1,0.5-1.3s-0.6-0.7-1.2-1L592.2,142.2z"/>
	<path id="path1550_1_" d="M592.2,141.2c-0.6-0.2-1,1.1-0.1,1.3c0.9,0.2,1-0.9,0-1.2L592.2,141.2z M592.1,142.9
		c-0.7,0.1-1.5,1-0.4,1c1.2-0.2,1.6-1,0.3-1H592.1z M590.7,144.6c-0.7,0.3-0.5,1.3,0.5,0.6S592.4,143.7,590.7,144.6z M589.7,146
		c-0.7,0.3-0.7,1.3,0.4,0.6C591.1,146,591.4,145.1,589.7,146z"/>
	<path id="path1552_1_" d="M588.3,146.7c-0.7,0.3-0.3,1.2,0.7,0.6S590,145.8,588.3,146.7z M589.1,147.6c-0.8,0.3-0.3,1.2,0.7,0.6
		S590.8,146.7,589.1,147.6L589.1,147.6z"/>
	<path id="path1554_1_" d="M587.8,147.9c-0.6,0.4-0.2,1.2,0.9,0.6C589.7,147.9,589.6,147,587.8,147.9z M588.7,148.9
		c-0.8,0.3-0.4,1.2,0.7,0.6C590.4,148.8,590.4,148,588.7,148.9L588.7,148.9z"/>
	<path id="path1556_1_" d="M587.4,149.5c-0.6,0.3-0.2,1.2,0.9,0.6c1-0.6,0.8-1.5-0.8-0.6H587.4z"/>
	<path id="path1558_1_" d="M587.4,150.3c-0.5,0.4-0.1,1.4,1,0.7C589.4,150.3,589.2,149.5,587.4,150.3z"/>
	<path id="path1560_1_" class="st5" d="M587,158.9c-0.7,0-1.2,1.1-0.3,1.3c0.9,0.2,1.1,0.3,1.1,0.9c0,0.6,0.3,1.7,1.2,1.7
		c1,0,1.8-1,1-1.3c-0.9-0.3-1.6-0.6-1.7-1.4C588.3,159.4,587.5,158.9,587,158.9L587,158.9z"/>
	<path id="path1562_1_" class="st14" d="M611.9,153l0.5,0.6c0.7,0.5,2,0,1.7-0.5c-0.1-0.4-0.8-2,1-0.8l9.2,6.5
		c1.9,1.4,0.6,1.6-0.2,1.1l-5-2.3c-1.5-0.9-1.7-0.5-2-0.3c0,0.3,0,0.9,0.6,1.4c-0.9,0.1-2.3,0-2.8-1c-0.5-1.2-1.7-2.6-2.6-3.7
		c-0.3-0.4-0.4-0.7-0.3-0.9L611.9,153z"/>
	<path id="path1564_1_" class="st8" d="M662.4,319.5c-1.3,0.9-3,2.4-1.9,4.5l0.4-0.1c4.9-5.9,9.2-12.3,12.9-19v-0.6
		c-1.4,1.1-2.9,2-4.5,2.7c0.6,1.7-2.3,3.8-3.7,4.4c0.6,1,0.4,2.6-1,2.9c0.3,0.8-0.7,0.8-2,1.4c-1.1,0.5-1.7,0.8-2.1,1.5
		c0.6-0.4,1.6-0.7,2-0.5s0.6,0.9-0.3,1.1c-0.8,0.3-1.4,0.7-1.8,1C661.7,318.5,663.6,318.6,662.4,319.5L662.4,319.5z"/>
	<path id="path1566_1_" class="st11" d="M602.2,151.2c-1.6-1.2-2-0.4-1.6,0c0.4,0.4,0,1.5-1.1,2h-4c-0.7,0-1.9,1.5,0,1l6.3-1
		c0.8,0,1.6-0.9,0-2H602.2z M604.9,153.5c-1.1-1.2-1.5-0.8-1.1,0c0.4,0.8-0.4,1.2-1.2,1.2l-5.5,1.5c-1.5,0-1.5,1.2,0.4,1.2
		c2,0,5.9-2,6.3-2c0.4,0,0.8-1.1,1.1-0.7C605.3,155.1,606.1,154.7,604.9,153.5L604.9,153.5z M606.1,156.6l-3.9,2c-1.2,0-2,1.2,0,1.2
		s4-2,4.7-2.4l1.6-0.8c0,0,1.5-0.4,0-1.5c-1.6-1.2-3.2,0-2.4,0.4C606.9,155.9,606.1,156.6,606.1,156.6L606.1,156.6z"/>
	<path id="path1568_1_" d="M590.1,131.2c-2.5-1.7-5.2,1.7-2.5,3.6c2.4,1.7,5-2,2.6-3.6H590.1z"/>
	<path id="path1570_1_" class="st15" d="M587,132.7h0.7c0,0.8,0.7,2,1.8,1.7C588.6,135.1,586.9,134.2,587,132.7z M596.6,169.7
		c0.8,0.3,3.4,0.5,4.4,0.5l-1.2,2.2c-0.3,0.7-0.4,0.8-0.5-0.3c0-1-0.6-1.7-1.1-0.6l-1,2c-0.3,0.4-0.7,0.5-0.6-0.6
		C596.8,171.8,596.7,170.6,596.6,169.7L596.6,169.7z"/>
	<path id="path1572_1_" class="st16" d="M694.9,199.7c0,63.7-10.2,132.5-93,165.3c-82.6-32.8-92.7-101.6-93.1-165.3H694.9z
		 M694.9,199.7c0-24.3-1.2-47.8-0.8-68c-29.4-11.4-60.7-17.2-92.3-16.9c-20.7,0-61.4,3.1-92.2,16.8c0.7,20.3-0.8,43.8-0.8,68
		L694.9,199.7z"/>
</g>
<path id="path2012" class="st15" d="M46.9,0l152.5,90.5L351.2,0H400v31l-150,89.5l150,89V240h-50l-150-89.5L50.6,240H0v-30l149.4-89
	L0,32V0H46.9z"/>
<path id="path2014" class="st17" d="M265,140.5L400,220v20l-169.4-99.5H265z M150,150.5l3.8,17.5l-120,72H0L150,150.5z M400,0v1.5
	l-155.6,94l1.2-22L368.8,0H400z M0,0l149.4,88h-37.5L0,21V0z"/>
<path id="path2016" class="st15" d="M150.6,0v240h100V0H150.6z M0,80v80h400V80H0z"/>
<path id="path2018" class="st17" d="M0,96.5v48h400v-48H0z M170.6,0v240h60V0H170.6z"/>
</svg>
