<?xml version="1.0" encoding="utf-8"?>
<!-- Generator: Adobe Illustrator 24.0.1, SVG Export Plug-In . SVG Version: 6.00 Build 0)  -->
<svg version="1.1" id="flag-icons-si" xmlns="http://www.w3.org/2000/svg" xmlns:xlink="http://www.w3.org/1999/xlink" x="0px"
	 y="0px" viewBox="0 0 800 480" style="enable-background:new 0 0 800 480;" xml:space="preserve">
<style type="text/css">
	.st0{fill-rule:evenodd;clip-rule:evenodd;fill:#FFFFFF;}
	.st1{fill-rule:evenodd;clip-rule:evenodd;fill:#D50000;}
	.st2{fill-rule:evenodd;clip-rule:evenodd;fill:#0000BF;}
	.st3{fill-rule:evenodd;clip-rule:evenodd;fill:#FFDF00;}
</style>
<g transform="translate(14.1) scale(.9375)">
	<path class="st0" d="M-15,0h853.3v512H-15V0z"/>
	<path class="st1" d="M-15,341.3h853.3V512H-15V341.3z"/>
	<path class="st2" d="M-15,170.7h853.3v170.6H-15V170.7z"/>
	<path class="st1" d="M275.4,93c-4,61.6-6.4,95.4-15.7,111c-10.2,16.8-20,29.1-59.7,44c-39.6-14.9-49.4-27.2-59.6-44
		c-9.4-15.6-11.7-49.4-15.7-111l5.8-2c11.8-3.6,20.6-6.5,27.1-7.8c9.3-2,17.3-4.2,42.3-4.7c25,0.4,33,2.8,42.3,4.8
		c6.4,1.4,15.6,4,27.3,7.7L275.4,93L275.4,93z"/>
	<path class="st2" d="M269.6,91c-3.8,61.5-7,89.7-12,103.2c-9.6,23.2-24.8,35.9-57.6,48c-32.8-12.1-48-24.8-57.7-48
		c-5-13.6-8-41.7-11.8-103.3c11.6-3.6,20.6-6.4,27.1-7.7c9.3-2,17.3-4.3,42.3-4.7c25,0.4,33,2.7,42.3,4.7c9.3,2.1,18.4,4.7,27.4,7.7
		V91z"/>
	<path class="st3" d="M200,109.8l1.5,3.7l7,1l-4.5,2.7l4.3,2.9l-6.3,1l-2,3.4l-2-3.5l-6-0.8l4-3l-4.2-2.7l6.7-1L200,109.8z"/>
	<path class="st0" d="M255.3,179.6l-3.9-3l-2.7-4.6l-5.4-4.7l-2.9-4.7l-5.4-4.9l-2.6-4.7l-3-2.3l-1.8-1.9l-5,4.3l-2.6,4.7l-3.3,3
		l-3.7-2.9l-2.7-4.8L200,134.8l-10.3,18.3l-2.7,4.8l-3.7,2.9l-3.3-3l-2.7-4.7l-4.9-4.3l-1.9,1.8l-2.9,2.4l-2.6,4.7l-5.4,4.9
		l-2.9,4.7l-5.4,4.7l-2.7,4.6l-3.9,3c2.2,13.8,8.7,26.5,18.6,36.3c10.7,9.2,23.2,16.1,36.6,20.5c13.5-4.3,26.1-11.2,36.8-20.5
		C242.5,209.9,253.3,196.6,255.3,179.6L255.3,179.6z"/>
	<path class="st3" d="M216.4,83.9l1.6,3.7l7,1l-4.6,2.7l4.4,2.9l-6.3,1l-2,3.4l-2-3.5l-6-0.8l4-3l-4.2-2.7l6.6-1l1.6-3.7H216.4z
		 M183.4,83.9l1.6,3.7l7,0.9l-4.5,2.7l4.3,2.9l-6.3,1l-2,3.4l-2-3.4l-6-0.9l4-3l-4.2-2.7l6.7-1l1.5-3.7L183.4,83.9z"/>
	<path class="st2" d="M246.7,203h-7.4l-7-0.5l-8.3-4h-9.4l-8.1,4l-6.5,0.6l-6.4-0.6l-8.1-4H176l-8.4,4l-6.9,0.6l-7.6-0.1l-3.6-6.2
		l0.1-0.2l11.2,1.9l6.9-0.5l8.3-4.1h9.4l8.2,4l6.4,0.6l6.5-0.6l8.1-4h9.4l8.4,4l6.9,0.6l10.8-2l0.2,0.4l-3.7,6.1H246.7z
		 M160.3,212.5l7.4-0.5l8.3-4h9.4l8.2,4l6.4,0.5l6.4-0.5l8.2-4h9.4l8.3,4l7.5,0.5l4.8-6h-0.1l-5.2,1.4l-6.9-0.5l-8.3-4h-9.4l-8.2,4
		l-6.4,0.6l-6.5-0.6l-8.1-4H176l-8.4,4l-6.9,0.6l-5-1.3v0.2L160.3,212.5L160.3,212.5z"/>
</g>
</svg>
