<?xml version="1.0" encoding="utf-8"?>
<!-- Generator: Adobe Illustrator 24.0.1, SVG Export Plug-In . SVG Version: 6.00 Build 0)  -->
<svg version="1.1" id="flag-icons-sk" xmlns="http://www.w3.org/2000/svg" xmlns:xlink="http://www.w3.org/1999/xlink" x="0px"
	 y="0px" viewBox="0 0 800 480" style="enable-background:new 0 0 800 480;" xml:space="preserve">
<style type="text/css">
	.st0{fill:#EE1C25;}
	.st1{fill:#0B4EA2;}
	.st2{fill:#FFFFFF;}
</style>
<path class="st0" d="M0,0h800v480H0V0z"/>
<path class="st1" d="M0,0h800v320H0V0z"/>
<path class="st2" d="M0,0h800v160H0V0z"/>
<path class="st2" d="M265,370.8c-43-20.7-104.6-61.9-104.6-143.2c0-81.4,4-118.4,4-118.4h201.3c0,0,3.9,37,3.9,118.4
	S308,350,265,370.8z"/>
<path class="st0" d="M265,360c-39.5-19-96-56.8-96-131.4s3.6-108.6,3.6-108.6h184.8c0,0,3.5,34,3.5,108.6
	C361,303.3,304.5,341,265,360z"/>
<path class="st2" d="M273.4,209c10.7,0.2,31.6,0.6,50.1-5.6c0,0-0.4,6.7-0.4,14.4s0.5,14.4,0.5,14.4c-17-5.7-38.1-5.8-50.2-5.7v41.2
	h-16.8v-41.2c-12-0.1-33.1,0-50.1,5.7c0,0,0.5-6.7,0.5-14.4c0-7.8-0.5-14.4-0.5-14.4c18.5,6.2,39.4,5.8,50,5.6v-25.9
	c-9.7,0-23.7,0.4-39.6,5.7c0,0,0.5-6.6,0.5-14.4c0-7.7-0.5-14.4-0.5-14.4c15.9,5.3,29.9,5.8,39.6,5.7c-0.5-16.4-5.3-37-5.3-37
	s9.9,0.7,13.8,0.7c4,0,13.8-0.7,13.8-0.7s-4.8,20.6-5.3,37c9.7,0.1,23.7-0.4,39.6-5.7c0,0-0.5,6.7-0.5,14.4c0,7.8,0.5,14.4,0.5,14.4
	c-12.8-4.1-26.2-6.1-39.7-5.7v26L273.4,209z"/>
<path class="st1" d="M265,263.3c-19.9,0-30.5,27.5-30.5,27.5s-6-13-22.2-13c-11,0-19,9.7-24.2,18.8c20,31.7,51.9,51.3,76.9,63.4
	c25-12,57-31.7,76.9-63.4c-5.2-9-13.2-18.8-24.2-18.8c-16.2,0-22.2,13-22.2,13S285,263.3,265,263.3z"/>
</svg>
