<?xml version="1.0" encoding="utf-8"?>
<!-- Generator: Adobe Illustrator 24.0.1, SVG Export Plug-In . SVG Version: 6.00 Build 0)  -->
<svg version="1.1" id="flag-icons-sm" xmlns="http://www.w3.org/2000/svg" xmlns:xlink="http://www.w3.org/1999/xlink" x="0px"
	 y="0px" viewBox="0 0 800 480" style="enable-background:new 0 0 800 480;" xml:space="preserve">
<style type="text/css">
	.st0{fill-rule:evenodd;clip-rule:evenodd;fill:#19B6EF;}
	.st1{fill-rule:evenodd;clip-rule:evenodd;fill:#FFFFFF;}
	.st2{fill-rule:evenodd;clip-rule:evenodd;fill:#FFDD00;stroke:#7D6C00;stroke-width:2.4;}
	.st3{fill-rule:evenodd;clip-rule:evenodd;fill:#4FD46B;stroke:#3A9D4F;stroke-width:2.4;stroke-linejoin:round;}
	.st4{fill:none;stroke:#3A9D4F;stroke-width:2.2;stroke-linecap:round;}
	.st5{fill-rule:evenodd;clip-rule:evenodd;fill:#65C7FF;stroke:#7D6C00;stroke-width:2.4;}
	.st6{fill-rule:evenodd;clip-rule:evenodd;fill:#8FC753;}
	.st7{fill-rule:evenodd;clip-rule:evenodd;fill:#FFFFFF;stroke:#000000;stroke-width:1.1;}
	.st8{fill-rule:evenodd;clip-rule:evenodd;fill:#FFDD00;stroke:#7D6C00;stroke-width:1.1;}
	.st9{fill-rule:evenodd;clip-rule:evenodd;fill:#E40000;stroke:#AC0000;stroke-width:2.4;}
	.st10{fill:none;stroke:#FFDD00;stroke-width:3.3;}
	.st11{fill-rule:evenodd;clip-rule:evenodd;fill:#C76E2E;}
	.st12{fill-rule:evenodd;clip-rule:evenodd;fill:#FFE100;stroke:#E9BF00;stroke-width:2.4;}
	.st13{fill-rule:evenodd;clip-rule:evenodd;fill:#9D4916;stroke:#68300E;stroke-width:1.1;}
	.st14{fill-rule:evenodd;clip-rule:evenodd;fill:#FFFFFF;stroke:#A9A9A9;stroke-width:1.1;}
	.st15{fill-rule:evenodd;clip-rule:evenodd;}
	.st16{fill:none;stroke:#A8A8A8;stroke-width:1.1;}
	.st17{fill-rule:evenodd;clip-rule:evenodd;fill:#B97700;}
	.st18{fill:none;stroke:#7D6C00;stroke-width:2.4;}
	.st19{fill-rule:evenodd;clip-rule:evenodd;fill:#006800;stroke:#004100;stroke-width:2.4;stroke-linejoin:round;}
	.st20{fill:none;stroke:#00A400;stroke-width:2.2;stroke-linecap:round;}
	.st21{fill-rule:evenodd;clip-rule:evenodd;fill:#006800;stroke:#004100;stroke-width:2.2;stroke-linejoin:round;}
	.st22{fill-rule:evenodd;clip-rule:evenodd;fill:#FFFFFF;stroke:#000000;stroke-width:1.1;stroke-linejoin:round;}
	.st23{font-family:'TrebuchetMS-Bold';}
	.st24{font-size:14.9913px;}
</style>
<g>
	<path class="st0" d="M0,240h800v240H0V240z"/>
	<path class="st1" d="M0,0h800v240H0V0z"/>
</g>
<path class="st2" d="M397,339.2C449.6,300,506,220,439.9,177.8c-12.3-2.4-26-1.7-32.7,3.6c-3.5-2-6.3-1.8-9.8,1.9
	c-2.5-3-5-4.4-10-2.9c-9.7-5.2-21-6.3-31.5-3C298,211.8,333.4,294,397,339.1V339.2z"/>
<g>
	<path class="st3" d="M494,250.1c0,0,6-8,6.2-8c5.9-3.4,6.5-7.9,6.5-7.9c5.9-1.8,4-6.7,4.5-7.3c1.9-1.9,2.4-4.7,1.4-7.1
		c0-0.8,2-8.4-0.8-9.4c0.1-8-4.8-7.3-8.8-2c-4.2,1.2-5.1,4.7-3.6,8.5c-5.5,0-5.7,8-4.1,12.4c-7.3-0.2-3.3,8-3.5,8.4
		c-2.4,1.2,1.9,12.8,2.3,12.4L494,250.1z M448,318.3l3.6,2.2c0.8,2.8,3.4,4.6,5.3,4.1c1,4.3,5.6,3.7,9,1.2c2.7,4,6,4,10.6,2.7
		c4,3,9.3,1.7,12.8-1.4c3.7,3,6.2,0.8,8.1-2.5c3,0.8,5.2,0.3,6.3-2.6c5.7-0.5,2.9-5.9-1.8-8.2c3.7-3.2,7.9-10,2-11
		c-1.8-1.3-5.3-1-7.9,0.2c-0.7-3-4.8-3.7-9.4-0.4c-1.5-3.3-7-1.7-9.5,0.6c-3.3-2.8-7.2-2.8-12.9,0.4L448,318.3z M448,309.6
		c0.6-3.8-2-10.6,2-11.2c-0.7-6.3,0.3-13.3,7.5-12.7c1.2-5.9,1-11.4,7.8-12.2c0,0,5.5-19.1,11.2-5.9c2.2,3.9,1.8,10.2-2.7,9
		c0.9,4.7-0.7,8.9-5.9,8.7c2.3,3.4,1.6,7.9-1,10l-19,14.3L448,309.6z M481.1,285.7l6-1.2c6-4,8.5-5.7,11.5-1.2c5.1-1,10-0.6,9.8,3.4
		c6,0.5,6,4.3,5.3,7.4c1,5.3-1.4,12.3-5,3.8c-11.9-7.2-18.6-6.2-37.3-2L481.1,285.7L481.1,285.7z M484.2,279.8
		c0.2-0.2,17.5-4.7,15.7-10c4.9-0.8,5.9-5.7,6-5.7c10.3-3.2,9.7-9.1,9.7-9.1c2.9-3.1,8-6.3,6.9-11.8c0.3-6.3,0.9-10.2-7.6-6.1
		c-6.3-0.6-8.5,3-10.3,8.5c-3-3.5-7.8,2.1-8.4,7.1c0,0-7.7,7.6-7.7,7.8l-6.5,12L484.2,279.8L484.2,279.8z"/>
	<path class="st3" d="M484.5,266.4c-4.1-3.1-6.4-6.9-5.7-10.6c-2.7-3.7-4.6-5.9-2-9.2l-2-7.5c-5.4-2-3.1-6.5-1.7-8.1
		c-2.5-3.5-2.6-7.2-0.2-10.4c0-6.5,4.6-4,8.3,0c0,0,6.4,4.5,1.7,8.5c4.7,1.7,6,5.7,3.4,7.4c4.1,1.8,4.7,5.5,2.5,8
		c4.1,3.2,2.6,7.4,3.8,11.1L484.5,266.4L484.5,266.4z"/>
	<path class="st3" d="M491.8,236c-0.2-0.1-6.9-8.7-5-9.3c-0.5-2.6-2.5-5.5-1.3-8.1c-3.3-3.4-3.4-7.3-0.8-10.4
		c-2.2-3-1.2-7.1,1.8-9.8c-1-5,2.6-6.2,5.7-7.1c2.3-8,6-6,8.2,0.2c3.2,2.8,2.7,7,1.6,10.2c3.8,2.5,1.5,5.7-0.2,7L491.8,236
		L491.8,236z"/>
	<path class="st3" d="M490.8,193.1l-5.7-5.7c1.5-3,2.7-8.3-1.6-10.8c-2.4-5.7-14.2-12.9-16.1,0.8c-1.8-4.1-5.6-8.2-8.3-3.4
		c-6.2-5.3-9.5-3.7-6.3,3c0,0-2.9,4.5,4.6,8c0.6,0.6-2.4,8.1,6.6,8.3c-1.7,2.6,1,6.2,4.6,6c-2.5,3.1,1.8,6.5,4.5,5.2
		c-1.1,3.5-1,5.2,3.9,5.7l5.5,6.3l4.5,6.1L490.8,193.1L490.8,193.1z"/>
	<path class="st4" d="M494.3,246.5c0.3-0.3,11-24.8,12.4-32.2 M495.4,203c0,0,1.8,20-3.1,34.6 M462.6,182.9c0,0,21.9,21,24,29.7
		 M477.9,180.6c0,0,1.4,17.3,7.5,34.3 M516.4,243.3c0,0-21.8,18.5-32.4,34.7 M495.8,308c0,0-28.8,4-41.4,4.3 M486.4,320.3
		c0,0-35.8-0.8-38.4-3.4 M468.5,273.9c0,0.4-18.2,30.3-18.8,40"/>
</g>
<path class="st5" d="M396.9,333.4c-37.8-35.6-76.5-102.4-38-136.2c6.8,3.8,14.9,0.4,26-4c3.4,3.7,7.7,4.6,12,1.8
	c3.6,1.8,8,0.9,10.7-2.1c11,6.3,24.9,9.6,28.2,3.3c37.8,36-0.6,103.2-39,137.3L396.9,333.4z"/>
<path class="st6" d="M397,332.4c-17.2-16.7-31.5-36.2-42.3-57.6c2-1.7,2.9-2.2,3.9-5c5.8,0.8,8.9,1,16.5-0.4
	c1.6,5.8,1.9,10.6,5.5,15.4l7.7-15c5.4,1.4,11.1,1.4,16.5,0c3.2,4.2,2,10.7,7.7,15.6c3.4-10,6.7-10.6,10.1-16c5,1.8,8.2,1,12.3-0.3
	c2,2.5,1,2.4,5,6c-10.6,21.6-25.1,41-42.8,57.3H397z"/>
<path class="st7" d="M352.6,164.3c0.3,1.9-0.9,3.6-2.8,3.9s-3.6-0.9-3.9-2.8c-0.1-0.4-0.1-0.8,0-1.2c0-1.9,1.5-3.4,3.4-3.4
	C351.2,160.9,352.7,162.4,352.6,164.3L352.6,164.3z M349.1,156.6c0.5,1.8-0.7,3.7-2.5,4.1s-3.7-0.7-4.1-2.5c-0.1-0.5-0.1-1.1,0-1.6
	c0.3-1.9,2.1-3.1,3.9-2.8c1.4,0.2,2.5,1.4,2.8,2.8H349.1z M345.1,149.5c0.3,1.9-0.9,3.6-2.8,3.9s-3.6-0.9-3.9-2.8
	c-0.1-0.4-0.1-0.8,0-1.2c0.3-1.9,2.1-3.1,3.9-2.8C343.7,147,344.9,148.1,345.1,149.5z M342.3,142.5c0.3,1.9-0.9,3.6-2.8,3.9
	c-1.9,0.3-3.6-0.9-3.9-2.8c-0.1-0.4-0.1-0.8,0-1.2c0.3-1.9,2.1-3.1,3.9-2.8C340.9,140,342.1,141.1,342.3,142.5z M342.8,134.9
	c0.3,1.9-0.9,3.6-2.8,3.9s-3.6-0.9-3.9-2.8c-0.1-0.4-0.1-0.8,0-1.2c0.3-1.9,2.1-3.1,3.9-2.8C341.4,132.4,342.6,133.5,342.8,134.9z
	 M360.4,122.4c0.3,1.9-0.9,3.6-2.8,3.9c-1.9,0.3-3.6-0.9-3.9-2.8c-0.1-0.4-0.1-0.8,0-1.2c0.3-1.9,2.1-3.1,3.9-2.8
	C359,119.9,360.2,121,360.4,122.4z"/>
<path class="st7" d="M353.8,123.6c0.3,1.9-0.9,3.6-2.8,3.9c-1.9,0.3-3.6-0.9-3.9-2.8c-0.1-0.4-0.1-0.8,0-1.2
	c0.3-1.9,2.1-3.1,3.9-2.8C352.4,121.1,353.6,122.2,353.8,123.6z M346.5,127.9c0.3,1.9-0.9,3.6-2.8,3.9s-3.6-0.9-3.9-2.8
	c-0.1-0.4-0.1-0.8,0-1.2c0.3-1.9,2.1-3.1,3.9-2.8C345.1,125.4,346.3,126.5,346.5,127.9z M368.9,122.5c0.5,1.8-0.7,3.7-2.5,4.1
	c-1.8,0.5-3.7-0.7-4.1-2.5c-0.1-0.5-0.1-1.1,0-1.6c0.5-1.8,2.3-2.9,4.1-2.5C367.6,120.3,368.6,121.3,368.9,122.5z M378.3,123.3
	c0.3,1.9-0.9,3.6-2.8,3.9c-1.9,0.3-3.6-0.9-3.9-2.8c-0.1-0.4-0.1-0.8,0-1.2c0.3-1.9,2.1-3.1,3.9-2.8
	C376.9,120.8,378.1,121.9,378.3,123.3z M386.5,122.8c0.5,1.8-0.7,3.7-2.5,4.1c-1.8,0.5-3.7-0.7-4.1-2.5c-0.1-0.5-0.1-1.1,0-1.6
	c0.3-1.9,2.1-3.1,3.9-2.8c1.4,0.2,2.5,1.4,2.8,2.8H386.5z"/>
<path class="st8" d="M405.9,117.5c0,4.7-3.9,8.6-8.6,8.6s-8.6-3.9-8.6-8.6s3.9-8.6,8.6-8.6S405.9,112.8,405.9,117.5L405.9,117.5z"/>
<path class="st7" d="M415,122.7c0,1.9-1.5,3.4-3.4,3.4c-1.9,0-3.4-1.5-3.4-3.4c0,0,0,0,0,0c0.3-1.9,2.1-3.1,3.9-2.8
	C413.5,120.2,414.7,121.3,415,122.7L415,122.7z M423.6,123.4c0.5,1.8-0.7,3.7-2.5,4.1c-1.8,0.5-3.7-0.7-4.1-2.5
	c-0.1-0.5-0.1-1.1,0-1.6c0.3-1.9,2.1-3.1,3.9-2.8c1.4,0.2,2.5,1.4,2.8,2.8H423.6z M432.1,123c0.3,1.9-0.9,3.6-2.8,3.9
	c-1.9,0.3-3.6-0.9-3.9-2.8c-0.1-0.4-0.1-0.8,0-1.2c0.3-1.9,2.1-3.1,3.9-2.8C430.7,120.5,431.9,121.6,432.1,123z M439.2,122.7
	c0.3,1.9-0.9,3.6-2.8,3.9c-1.9,0.3-3.6-0.9-3.9-2.8c-0.1-0.4-0.1-0.8,0-1.2c0.3-1.9,2.1-3.1,3.9-2.8
	C437.8,120.2,439,121.3,439.2,122.7z M448.1,123.7c0.3,1.9-0.9,3.6-2.8,3.9c-1.9,0.3-3.6-0.9-3.9-2.8c-0.1-0.4-0.1-0.8,0-1.2
	c0.3-1.9,2.1-3.1,3.9-2.8C446.7,121.2,447.9,122.3,448.1,123.7z M455.1,128.1c0.3,1.9-0.9,3.6-2.8,3.9s-3.6-0.9-3.9-2.8
	c-0.1-0.4-0.1-0.8,0-1.2c0.3-1.9,2.1-3.1,3.9-2.8C453.7,125.6,454.9,126.7,455.1,128.1z"/>
<path class="st9" d="M349.4,151.7l8.6,16.5h79.2l9.2-15.9c-5.4-3.7-9-6.5-16.7-4.8c-4.3-6.2-9-7.3-16-6.7c-2.1-2.1-4-3.4-7.6-4
	l-16.6,0.5c-4.4,0.4-7.8,3.8-8,3.8c-7-0.9-13.5-0.7-15.2,6.2C359.8,145.7,355.3,147.5,349.4,151.7z"/>
<path class="st7" d="M458,135.3c0.3,1.9-0.9,3.6-2.8,3.9s-3.6-0.9-3.9-2.8c-0.1-0.4-0.1-0.8,0-1.2c0.3-1.9,2.1-3.1,3.9-2.8
	C456.6,132.8,457.8,133.9,458,135.3z M458.6,143.3c0.3,1.9-0.9,3.6-2.8,3.9s-3.6-0.9-3.9-2.8c-0.1-0.4-0.1-0.8,0-1.2
	c0.3-1.9,2.1-3.1,3.9-2.8C457.2,140.8,458.4,141.9,458.6,143.3z M456.1,150.5c0.3,1.9-0.9,3.6-2.8,3.9s-3.6-0.9-3.9-2.8
	c-0.1-0.4-0.1-0.8,0-1.2c0.3-1.9,2.1-3.1,3.9-2.8C454.7,148,455.9,149.1,456.1,150.5z M453.1,156.5c0,1.9-1.5,3.4-3.4,3.4
	c-1.9,0-3.4-1.5-3.4-3.4c0,0,0,0,0,0c0.3-1.9,2.1-3.1,3.9-2.8C451.6,154,452.8,155.1,453.1,156.5L453.1,156.5z M449.4,164
	c0.3,1.9-0.9,3.6-2.8,3.9s-3.6-0.9-3.9-2.8c-0.1-0.4-0.1-0.8,0-1.2c0.3-1.9,2.1-3.1,3.9-2.8C448,161.5,449.2,162.6,449.4,164z
	 M402.6,154.4c0,2.8-2.2,5-5,5s-5-2.2-5-5s2.2-5,5-5S402.6,151.6,402.6,154.4z"/>
<path class="st7" d="M403.6,143c0,3.3-2.7,6-6,6s-6-2.7-6-6s2.7-6,6-6S403.6,139.7,403.6,143z"/>
<path class="st7" d="M402.7,132c0,3-2.4,5.4-5.4,5.4c-3,0-5.4-2.4-5.4-5.4c0,0,0,0,0,0c0-3,2.4-5.4,5.4-5.4
	C400.3,126.6,402.7,129,402.7,132z"/>
<path class="st8" d="M395.5,109v-4.2l-3.6-0.1l0.2-3.2h3v-2.8h4.5v2.5h3.5l-0.1,3.4h-3.6v4.5h-4L395.5,109z"/>
<path class="st10" d="M357.6,168.2c-7.1-12-17.6-28.4-11-35.5c8.9-10.1,29.9-1,43.3-6.8c1,11.4-2.2,30.4,2.9,34.3l-4.8,4.2
	c-3-3.7-8.4-8.8-15.2,0.2c-4-3.4-8.3-2.8-10.4,1.7C360.4,166.6,360.5,167.4,357.6,168.2L357.6,168.2z M437.6,167.7
	c7.2-12,17.6-28.3,11.1-35.4c-9-10.1-30-1-43.3-6.9c-1,11.5,2.2,30.5-3,34.4l4.8,4.2c4.7-6.5,10.4-6.7,15.3,0.2
	c3.9-3.4,7.9-3,10.4,1.7C434.9,166.2,434.7,166.9,437.6,167.7L437.6,167.7z"/>
<path class="st2" d="M357.3,177.1c26.4-2.4,52.9-2.4,79.3,0l3.1-9c-27.7-5-46.8-5.6-83-0.6L357.3,177.1z"/>
<path class="st11" d="M394.1,329.4l0.6-4.2c2.9,0.8,5,0.5,7.4-0.4l2.4-3.7l-1.8-2.1c-1.6,0.3-3,1.8-4,3.1c-1.6,0.1-3-0.7-4.6-1
	l-1.5-6.4c-1.5-1.8-4.7-1.7-4,1.5l0.3,2.5c0.6,1.5,0.9,3.6,1.9,4.7v2.6L394.1,329.4L394.1,329.4z M395.3,311.1c-2,1-4.6-0.8-7.3-1.9
	c-2.5-0.1-4.4,2-7.4,1.3c0.6-1.6,1.9-1.9,2.8-2.8c-0.7-4.1,1.5-5.5,2.1-5.5s3.1,0.6,3.1,0.6l2.4,0.3
	C392.5,305.8,394.5,308.1,395.3,311.1z"/>
<path class="st12" d="M380.8,366c7-11.4,56.2-34.4,102.4-84.2c-47,45.3-76.4,56.4-114.8,84L380.8,366L380.8,366z"/>
<path class="st13" d="M448.4,313.2c0,2-1.6,3.6-3.6,3.6s-3.6-1.6-3.6-3.6s1.6-3.6,3.6-3.6S448.4,311.2,448.4,313.2z M482.8,278.3
	c0,2.2-1.8,4.1-4,4.1c-2.2,0-4.1-1.8-4.1-4.1c0-2.2,1.8-4,4-4s4,1.8,4,4H482.8z M494.2,248.7c0.3,2-1,3.8-3,4.1c-2,0.3-3.8-1-4.1-3
	c-0.1-0.4-0.1-0.8,0-1.2c0.3-2,2.2-3.3,4.1-3C492.8,246,493.9,247.2,494.2,248.7z M483,210.3c0.3,2-1,3.8-3,4.1c-2,0.3-3.8-1-4.1-3
	c-0.1-0.4-0.1-0.8,0-1.2c0.3-2,2.2-3.3,4.1-3C481.6,207.6,482.7,208.8,483,210.3z"/>
<path class="st14" d="M359.1,269.6v-15.2l-1.5-1.2v-3.6l2.8-0.3l0.5-17l-1.8-1l-0.2-2.8c0,0,2,0.8,2,0.3l0.5-3.4
	c0,0-1.3-0.2-1.3-0.7s1.6-1.8,1.6-1.8s-0.8-0.8-1-1.3l-0.8-2.8l0.8-2.9l-0.5-1.5l-1.3-2.3l1.8-1.8l-0.5-2.8c0.3-1,0.8-2,1.5-2.9
	c0.3-0.2,2.3-3,2.3-3l4.4-1l5.1,0.7l2.8,1.8l0.5,4.6c0,0-0.5,2.8-0.7,2.8l-2.3,1c0,0-2.6,0.3-2.9,0s0.8,3.2,0.8,3.2v3l-0.2,3.9
	c0,0,0,1.8-0.3,2s-0.8,1-0.8,1l-0.2,4l4,1l-0.2,2.3l-2.8,0.2l0.5,15.7l4.1,0.7v4.4l-1.8,1l-0.5,15.7H359.1z M421.5,269.9v-15.2
	l-1.5-1.3v-3.6l2.8-0.2l0.5-17l-1.8-1l-0.2-2.8c0,0,2,0.7,2,0.2l0.5-3.3c0,0-1.3-0.3-1.3-0.8s1.6-1.8,1.6-1.8s-0.8-0.7-1-1.3
	l-0.8-2.8l0.8-2.8l-0.6-1.5l-1.2-2.3l1.8-1.8l-0.6-2.9c0.4-1,0.9-2,1.6-2.8l2.3-3l4.4-1.1l5.1,0.8l2.8,1.8l0.5,4.6
	c0,0-0.5,2.8-0.7,2.8l-2.3,1c0,0-2.6,0.3-2.9,0s0.8,3.1,0.8,3.1v3.1l-0.3,3.9c0,0,0,1.7-0.2,2l-0.8,1l-0.2,3.9l4,1l-0.2,2.3
	l-2.8,0.3l0.5,15.6l4.1,0.8v4.4l-1.8,1l-0.5,15.7H421.5L421.5,269.9z M389.9,270.4v-15.2l-1.5-1.2v-3.7l2.8-0.2l0.5-17l-1.8-1
	l-0.2-2.8c0,0,2,0.8,2,0.3l0.5-3.4c0,0-1.2-0.2-1.2-0.7s1.5-1.9,1.5-1.9s-0.8-0.7-1-1.2l-0.8-2.9l0.8-2.8l-0.5-1.5l-1.3-2.3l1.8-1.8
	l-0.5-2.9c0.3-1,0.8-2,1.5-2.8c0.3-0.2,2.3-3,2.3-3l4.4-1l5.1,0.7l2.8,1.8l0.6,4.6c0,0-0.6,2.8-0.8,2.8l-2.3,1c0,0-2.6,0.3-2.8,0
	s0.7,3.1,0.7,3.1v3.1l-0.2,3.9c0,0,0,1.8-0.3,2l-0.8,1l-0.2,3.9l4,1l-0.2,2.3l-2.8,0.3l0.5,15.7l4.1,0.7v4.4l-1.8,1l-0.5,15.7H390
	L389.9,270.4z"/>
<path class="st15" d="M363,269.5v-12h6.6V270l-6.7-0.5H363z M394.4,270.5l0.3-12.2h6v11.9l-6.3,0.2V270.5z M425.4,270.2l-0.4-11.5
	l6.5-0.2v12l-6-0.3H425.4z M364.6,234.2h3.8v6.1h-3.8V234.2z M394.9,234.4h5.3v6h-5.3V234.4z M425.9,234.9h4.6v5.7H426L425.9,234.9z
	"/>
<path class="st16" d="M366.6,207c4,4.6,4.3,4.6,4.3,4.6 M397.1,207c0.8,1.5,2,4.8,3.6,5.1 M430,207.7c0,0,1.3,3.6,3,4.1"/>
<path class="st17" d="M362.2,194c12-3.9-2.8-11.6-5.3,0c-3.8,0.7-4.3,3.5-12.7,2.3c-20.4,33-5.3,86.5,54.1,141.8
	c-106.4-90.6-63.2-157.6-33.7-155c16,1,8,21-2.4,11V194z"/>
<path class="st18" d="M365.6,177c0,0,9.7,2.7,9.7,6.8 M375.3,176.3c0,0,6.8,3,8.3,5.6 M428.7,177.4c0,0-8.6,1.2-10.5,3.8
	 M415.6,178.2c0,0-5,4.1-4.5,5.3 M414.5,196.2c-0.8-0.3-4.2-4.9-3.4-10.5 M381.3,193.2c0,0,2.3-2.6,2.3-7.5 M397.1,183.8l0.4,11
	 M406.9,193.2c0-0.7,3-7.9-0.4-11.3 M386.2,180.4c0,0-2.6,7.2-0.7,13.2 M405.5,186.8c0,0-4.2,1.2-6,3 M387.7,187.9
	c0-0.3,4.6-1,6,1.6"/>
<path class="st11" d="M380.6,301.9c0.2,0,3.8-0.7,3.8-2.4c1.8-1.2,0.5-4.5,0.5-4.5l-3.4-0.6l-4.6-5.2c-0.2-1.6,0.3-3.1-0.7-4.8
	c-3.2,0.8-5,3.5-6,6.5c0.7,1,0.8,2,2.3,2.9c1.5,0.2,2.5-0.7,3.9-0.4c0.7,1.3,0.5,2.4,0.8,3.6C379.1,298.3,379.5,300.2,380.6,301.9
	L380.6,301.9z M376.5,279.7v-6.2l-4.4-0.2c-0.6,1-1.6,1.4-2.2,2.2l-3.1,1.6c1.3,1.5,2.9,2.4,3.8,3.2
	C372.9,280.9,374.7,280.9,376.5,279.7L376.5,279.7z M362.7,288.8l-2.4-4c1.6-0.4,3.2-0.3,4.7,0.3c0,0,1,2.5,0.3,3.4
	C364.9,289.4,362.6,289,362.7,288.8L362.7,288.8z M399.2,292.9c1.4-0.6,2.4-1.8,2.7-3.3l-4.5-5.1l-4-0.1c-1-1-2.4-1.2-3.6-1.2
	c0,0,1.2,2,2.8,2.3C393.8,288.1,398.8,292.9,399.2,292.9L399.2,292.9z M403.5,293.5c0-0.1,4-1.4,6-1.3c-0.1-1.6,3-5.3,3-5.3l5.6,7.3
	c-1,0.8-2.8,0.6-4.2,0.8c0,0-2.7,2.6-3,2.7s-5.2,1.3-7.6-0.2C402.3,295.5,403.6,293.2,403.5,293.5z M406.7,280.7
	c0.7-2.5,0.7-5.1,0-7.6h-6.4l-4.2,2c0,0,1.3,4.2,3,3.8c0.7,2.1,2.9,1.6,4,2.4L406.7,280.7L406.7,280.7z M431.6,274.3
	c-1,2.7-1.4,5.5-0.2,8c1.2,0.3,2.6,1,3.6,0.8l5.1-9.2c-3.5-1.1-6.4-1-8.6,0.4L431.6,274.3z"/>
<path class="st17" d="M433.1,193.2c-12-3.9,2.8-11.7,5.3,0c3.9,0.6,4.4,3.5,12.8,2.3c20.3,33,5.2,86.5-54.2,141.8
	c106.5-90.6,63.2-157.6,33.7-155.1C414.7,183.2,422.7,203.2,433.1,193.2L433.1,193.2z"/>
<path class="st11" d="M434.3,284.7c-0.2,0-3,2-3,2l-4.2,1.7l-4.4,0.1l-1-3l3.4-3c-2.8-0.5-5.7,0.7-8,2.8c0,0,0,3.3,2,5
	c1.1,1.4,4.5,4,4.5,4c1.9,0.4,3.8,0.1,5.4-1L434.3,284.7L434.3,284.7z M411.1,314.8c1.4,0.4,11.3-12.7,11.3-12.7
	c-0.9-2.4-2.6-4.3-4.9-5.4c0,0-4.8,5.7-4.9,7.6c-0.8,1.7-3,8.3-2,9.2C410.5,313.7,410.1,316.4,411.1,314.8z"/>
<path class="st19" d="M346.4,317.4c-14.8-12.9-34.8-20-62.7-10.3c7.5,3.2,15.6,4.3,22.5,7.9L346.4,317.4z"/>
<path class="st20" d="M303.4,308.3c29.3,0.6,37.8,7.9,36.3,6.7"/>
<path class="st21" d="M347,319c-8.8,1.6-20.8,10-24.4,9.7c-9.5-1.1-18.5-5-27.7-8c-3.8-1.2-7.7,0-11.6,0
	C316.1,305.2,327.3,307.3,347,319L347,319z"/>
<path class="st19" d="M325.4,296c0,0-11,1.6-15.9,1.9c-4.8-0.3-12-4.8-19.8-13c-4-4.6-13.4-4-13.4-4c20.6-4.4,36.7-0.2,49,15.2
	L325.4,296z M310.4,274.8c-14.9-1-33.5-14.3-37.7-30.2c0,0.2,5.5,3.5,4.6,4.3C301.7,255.1,303.3,260.1,310.4,274.8z M335.4,300.3
	c2.1-13.5,2.7-22.4-3.6-30.4c-5.3-6-6.6-9.7-10.4-18.3C320.3,269.4,316.4,284.1,335.4,300.3z M312,263c11-16.1,13-28.3,11.2-47.5
	c-0.3,1.5-4,11-4.2,11C302.5,236.8,309.8,253,312,263z"/>
<path class="st19" d="M302.2,185c11,16.1,9.4,31.3,7.6,50.5c-0.3-1.5-4-11-4.2-11C289.1,214.2,300.1,195,302.2,185L302.2,185z"/>
<path class="st19" d="M311.3,210c26.8-13.6,16.5-30.7,21.4-44c-18.6,13.9-21,28.6-21.3,44H311.3z"/>
<path class="st20" d="M315,206.6c3.4-9.5,10-25.6,10.7-25.6 M307,226.4c-0.6-6.7-4-24.7-4.3-26.5"/>
<path class="st19" d="M308.3,256.5c-15-1-31-21.3-35.3-37.1c0,0.2,5.5,3.4,4.6,4.2C299,233.2,301.2,241.8,308.3,256.5z M303.9,242.5
	c-11-16.1-13-28.3-11.3-47.5c0.3,1.5,4,11,4.3,11C313.3,216.3,306,232.5,303.9,242.5z M313.8,214.2c27.7-12.3,19.2-25.2,27.4-38.7
	C322.6,189.3,314.1,198.9,313.8,214.2L313.8,214.2z"/>
<path class="st20" d="M315,211.4c6.3-5.9,11.4-12.9,15.2-20.7"/>
<g>
	<path class="st12" d="M413.6,366.4l13.4,0.2c-44.7-42-130.5-60.2-118.6-137.4C296.1,312.9,378.5,320.7,413.6,366.4L413.6,366.4z"/>
	<path class="st13" d="M315.4,212.7c0,2.4-1.9,4.3-4.3,4.3c-2.4,0-4.3-1.9-4.3-4.3s1.9-4.3,4.3-4.3
		C313.5,208.4,315.4,210.3,315.4,212.7z M312.8,236.3c0,2.2-1.8,4.1-4,4.1s-4.1-1.8-4.1-4.1c0-2.2,1.8-4,4-4s4,1.8,4,4H312.8z
		 M316.6,270c0,2-1.6,3.6-3.6,3.6c-2,0-3.6-1.6-3.6-3.6c0,0,0,0,0,0c0-2,1.6-3.6,3.6-3.6C315,266.4,316.6,268,316.6,270z
		 M347.9,307.2c0,2-1.6,3.6-3.6,3.6s-3.6-1.6-3.6-3.6s1.6-3.6,3.6-3.6S347.9,305.2,347.9,307.2z M352.4,317.9c0,2-1.6,3.6-3.6,3.6
		s-3.6-1.6-3.6-3.6s1.6-3.6,3.6-3.6S352.4,315.9,352.4,317.9L352.4,317.9z"/>
</g>
<g>
	<g>
		<path class="st7" d="M368.2,349c-2.1-1.5-3.7-3.5-4.8-5.8l-14-1.5l-0.2,8L368.2,349z"/>
		<path class="st22" d="M265.3,339.6c8.2,1.5,20.5-0.8,24.5,4.5c4.8,5.4-15.1,13.9-12.3,18.6c6.2,6.5,12.5,3.8,19.4,0.2
			c1.7-3.5,3-9.8,3.8-11.7c-2.5-5.7-9.3-8.6-7.5-17.3c11.3-4.2,33.2-3.9,35.6-2.2c1.8,3.6,0.1,5.2,0.5,8.1
			c-1.9,3.7-6.7,9.8-6.7,13.1c12,4.2,15-0.6,25.8-0.4c12.6,0.2,20.2,3.6,23-1.4c-2-4.4-13.5-0.8-17.8-3.6c-2.2-0.7-3.6-2.5-5.5-4.4
			s-7.2-2-8-6.9c2.2-10.2,17-8.6,19.3-10.2l38.4,2.7c7-0.2,11,12.3,1.5,16c-9.4,3.8-37.1-5.5-49.2,0.9c-0.6-2.6-9.3-6.6-9.9-6.7
			c-3.7,1-10.9,0.7-10.9,0.7c-1.7,3.2-3.8,5.6-5.5,8.9c-8-3.5-15.5,2.7-24.2,0.9l-13.6,1.5l-8.6-0.8l-13.2,3.8l9.4-8.3L265.3,339.6
			L265.3,339.6z"/>
		<path class="st7" d="M264.7,338c0,2-1.6,3.6-3.6,3.6c-2,0-3.6-1.6-3.6-3.6c0,0,0,0,0,0c0-2,1.6-3.6,3.6-3.6
			C263.1,334.4,264.7,336,264.7,338z M263.7,356c0,2-1.6,3.6-3.6,3.6c-2,0-3.6-1.6-3.6-3.6c0,0,0,0,0,0c0-2,1.6-3.6,3.6-3.6
			S263.8,354,263.7,356L263.7,356z"/>
	</g>
	<g>
		<path class="st7" d="M426.3,349.1c2.3-2.1,3.8-3.5,4.7-5.8l14-1.6l0.3,8L426.3,349.1z"/>
		<path class="st22" d="M529.1,339.6c-8.1,1.5-20.4-0.7-24.4,4.5c-4.9,5.5,15,14,12.2,18.6c-6.2,6.6-12.5,3.9-19.4,0.3
			c-1.6-3.5-2.9-9.8-3.8-11.7c2.6-5.8,9.3-8.6,7.6-17.3c-11.4-4.3-33.3-4-35.6-2.3c-1.9,3.7-0.2,5.3-0.6,8.2c2,3.6,6.8,9.8,6.8,13
			c-12,4.3-15.1-0.6-25.8-0.3c-12.6,0.2-20.3,3.5-23-1.5c1.9-4.3,13.4-0.8,17.8-3.5c2.2-0.8,3.6-2.5,5.5-4.5s7.2-2,8-6.8
			c-2.2-10.2-17-8.7-19.4-10.2l-38.4,2.6c-7-0.2-10.9,12.3-1.5,16.1c9.4,3.8,37.2-5.6,49.2,0.8c0.7-2.6,9.3-6.5,10-6.7
			c3.6,1.1,10.8,0.7,10.8,0.7c1.8,3.3,3.8,5.7,5.6,9c8-3.6,15.5,2.7,24.2,0.8l13.5,1.5l8.7-0.7l13.2,3.7l-9.4-8.2l8.2-6L529.1,339.6
			z"/>
		<path class="st7" d="M529.7,338c0,2,1.6,3.6,3.6,3.6c2,0,3.7-1.6,3.7-3.6s-1.6-3.6-3.7-3.6C531.3,334.4,529.7,336,529.7,338z
			 M530.7,356c0,2,1.6,3.6,3.6,3.6c2,0,3.6-1.6,3.6-3.6l0,0c0-2-1.6-3.6-3.6-3.6C532.3,352.4,530.7,354,530.7,356z"/>
	</g>
	<path class="st1" d="M397,329.3c-3.2-0.6-4.4-0.4-6.6-0.6l-5.1,15.8c8,0.7,15.3,0.7,15.3,0.7C395.8,344.2,396.9,329.4,397,329.3
		L397,329.3z"/>
</g>
<g>
	<text transform="matrix(1 0 0 1 362.2329 340.2003)" class="st23 st24">L</text>
	<text transform="matrix(1 0 0 1 370.561 340.6998)" class="st23 st24">I</text>
	<text transform="matrix(1 0 0 1 375.7251 341.5328)" class="st23 st24">B</text>
	<text transform="matrix(1 0 0 1 385.5527 342.1993)" class="st23 st24">E</text>
	<text transform="matrix(1 0 0 1 395.0469 342.3658)" class="st23 st24">R</text>
	<text transform="matrix(1 0 0 1 404.375 342.0323)" class="st23 st24">T</text>
	<text transform="matrix(1 0 0 1 413.3691 340.5333)" class="st23 st24">A</text>
	<text transform="matrix(1 0 0 1 423.6973 340.2003)" class="st23 st24">S</text>
</g>
<path class="st20" d="M311.3,318.6c10.1,1.2,24.1,0.3,30.2,0 M296,284.2c8.6,6.7,27.1,10.7,26.8,10.7 M333.5,296.7
	c-2.8-14-5.8-17.4-8.3-26.2 M281.7,254.7c14.3,6.4,16.5,10.6,25.6,17 M312.5,257.7c1.2-17.3,3.6-21.9,7.9-25.9 M281.7,229.8
	c5.2,5.7,22.2,23.7,22.2,23.7 M296.9,213.9c6.4,4.5,6.4,21,6.4,21"/>
</svg>
