<?xml version="1.0" encoding="utf-8"?>
<!-- Generator: Adobe Illustrator 24.0.1, SVG Export Plug-In . SVG Version: 6.00 Build 0)  -->
<svg version="1.1" id="flag-icons-st" xmlns="http://www.w3.org/2000/svg" xmlns:xlink="http://www.w3.org/1999/xlink" x="0px"
	 y="0px" viewBox="0 0 800 480" style="enable-background:new 0 0 800 480;" xml:space="preserve">
<style type="text/css">
	.st0{fill:#12AD2B;}
	.st1{fill:#FFCE00;}
	.st2{fill:#D21034;}
</style>
<path class="st0" d="M0,0h800v480H0V0z"/>
<path class="st1" d="M0,137.1h800V343H0V137.1z"/>
<path class="st2" d="M0,0v480l300-240"/>
<g>
	<polygon points="457,218.8 441.6,171.4 441.6,171.4 441.6,171.4 426.2,218.8 376.4,218.8 416.7,248.1 401.3,295.5 441.6,266.2 
		481.9,295.5 466.5,248.1 506.8,218.8 	"/>
	<polygon points="663.3,248.1 703.6,218.8 653.8,218.8 638.4,171.4 638.4,171.4 638.4,171.4 623,218.8 573.2,218.8 613.5,248.1 
		598.1,295.5 638.4,266.2 678.7,295.5 	"/>
</g>
</svg>
