<?xml version="1.0" encoding="utf-8"?>
<!-- Generator: Adobe Illustrator 24.0.1, SVG Export Plug-In . SVG Version: 6.00 Build 0)  -->
<svg version="1.1" id="flag-icons-sx" xmlns="http://www.w3.org/2000/svg" xmlns:xlink="http://www.w3.org/1999/xlink" x="0px"
	 y="0px" viewBox="0 0 800 480" style="enable-background:new 0 0 800 480;" xml:space="preserve">
<style type="text/css">
	.st0{fill-rule:evenodd;clip-rule:evenodd;fill:#ED2939;}
	.st1{fill-rule:evenodd;clip-rule:evenodd;fill:#002395;}
	.st2{fill-rule:evenodd;clip-rule:evenodd;fill:#FFFFFF;}
	.st3{fill:#FFFF00;}
	.st4{fill:none;stroke:#000000;stroke-width:0.3224;stroke-miterlimit:4.299;}
	.st5{fill:#FF0000;}
	.st6{fill:#80CFE1;}
	.st7{fill:#FFFFFF;}
	.st8{fill:none;stroke:#000000;stroke-width:1.2897;stroke-miterlimit:4.299;}
	.st9{fill:#7E7E7E;}
	.st10{fill:#009FC5;}
	.st11{fill:#BC715F;}
	.st12{fill:#008737;}
</style>
<path class="st0" d="M0,0h800v240H355.5L0,0z"/>
<path class="st1" d="M0,480h800V240H355.5L0,480z"/>
<path class="st2" d="M0,0l355.5,240L0,480V0z"/>
<g>
	<path class="st3" d="M168.5,181.1l0.1-3.8c0,0-2-3.2,0.4-6.6c0,0-5-2.6-3.8-6.7c0,0-4.5-1.1-4.2-6c0,0-4.7-0.3-5.2-4.4
		c0,0-4.8,0.8-6.9-3.2c0,0-4.7,0.9-6-2.3c0,0-4.6,1.5-7.2-2.3c0,0-4.9,2-6.8-1.7c-2,3.7-6.8,1.7-6.8,1.7c-2.6,3.8-7.2,2.2-7.2,2.2
		c-1.3,3.3-5.9,2.3-5.9,2.3c-2.2,4-6.9,3.2-6.9,3.2c-0.5,4.1-5.2,4.5-5.2,4.5c0.3,2.7-1.5,5.3-4.1,6c1.2,4-3.8,6.7-3.8,6.7
		c2.4,3.5,0.5,6.6,0.5,6.6l-0.1,3.5L168.5,181.1"/>
	<path class="st4" d="M168.6,181.1v-3.8c0,0-1.9-3.2,0.4-6.4c0,0-4.9-2.7-3.8-6.8c0,0-4.5-1.1-4.2-6c0,0-4.8-0.3-5.4-4.4
		c0,0-4.7,0.8-6.8-3.2c0,0-4.7,0.9-6-2.4c0,0-4.6,1.6-7.3-2.3c0,0-4.8,1.9-6.8-1.7c-2,3.7-6.9,1.7-6.9,1.7c-2.6,3.8-7.2,2.1-7.2,2.1
		c-1.3,3.3-5.9,2.5-5.9,2.5c-2.1,4-7,3.2-7,3.2c-0.4,4-5.3,4.3-5.3,4.3c0.4,2.7-1.3,5.3-4,6c1.1,4.1-3.8,6.7-3.8,6.7
		c2.4,3.4,0.3,6.7,0.3,6.7v3.4L168.6,181.1L168.6,181.1z"/>
	<path class="st5" d="M166.7,176.4c-12.5-1.2-26.8-4.2-37.9,2.1c-7.5-4.4-17.8-4.1-26.6-3.3c-4.8,0.9-10.4,0.9-15.5,1.7l-0.8,0.1
		c-9.1,0.7-17.3-2.1-25.3-5.6c2.6,14.2,5.3,28.8,6.7,43.7c3,22.1-10.4,40.6-5.1,62.4c3.3,10.5,14.8,16.6,25.3,17.8
		c10.2,0.6,20.2,2.1,30.2,4.2c1.8,0.4,3.5,1,5.2,1.8c2.3,1,4.5,2.5,6.2,4.4c5.6-5.9,14.1-7.6,22.2-8.4c14.8-1.8,33.1-0.8,42.2-14.2
		v-0.8c5-7.5,4.3-18.8,2.2-27.2c-0.2-2.9-0.9-5.5-1.4-8.3c-9-23.9-1.2-50.8,2.6-75c-4.9,2.4-10,4.2-15.4,5.2
		c-4.2,0.6-8.9,0.4-13.1,0.1L166.7,176.4"/>
	<path class="st6" d="M185.3,245.2c0,1.5,0.8,2.8,1.1,4.2c1.8,10.5,3.4,24.4-7.3,30.8c-12,7.5-27.6,4.3-41.3,8.3
		c-2.8,0.8-6.6,3.3-8.4,5.1c-1.3-0.8-2.5-2.1-4.1-2.8c-11.3-6-26.2-4-38.9-7.3c-6.5-2-13.1-7-14.8-13.6c-4.1-17.2,5.8-32,4.7-49.1
		c-0.8-13.1-3-25.6-6-37.9c10,4.7,21.6,5.4,32.8,3.2c8.7-1.6,17.6-0.8,25.9,2.3c4.3-1.9,9.4-2.7,14.1-3.2c8.7,0.9,18.2,2.4,27.3,2.4
		c6.1-0.4,11.6-2.1,16.9-4.4C184,203.5,177.9,224.7,185.3,245.2"/>
	<path class="st7" d="M167.3,249.2v-19.1h2.2l-29.1-18.8l-0.1-9.8h2.8l-14.6-10.3l-14.4,10.3h2.8v9.8l-29,18.8h2.3v19L167.3,249.2"
		/>
	<path class="st8" d="M167.4,249.2v-19.1h2.3l-29-18.8l-0.1-9.7h2.8l-14.6-10.5l-14.5,10.4h2.8l0.1,9.8l-29,18.8h2.4v19h77V249.2z"
		/>
	<path class="st7" d="M176.3,274.2v5.9H82.5v-6L176.3,274.2"/>
	<path class="st8" d="M176.4,274.3v5.9H82.5v-6h93.9V274.3z"/>
	<path class="st7" d="M88.7,273.8v-20.2h3.8L92.2,274l0.2-20.2l-5.4-0.1v-4.4l83.8,0.2v4.2h-5.1v20.4l-0.1-20.4h3.8l0.2,20.2"/>
	<path class="st8" d="M88.7,273.8v-20.2h3.8L92.2,274l0.2-20.2l-5.4-0.2v-4.3l83.8,0.1v4.3h-5.2l0.1,20.4l-0.2-20.4h3.9l0.1,20.2"/>
	<path class="st8" d="M106.7,268.9v-14.1H95.3v14l11.3,0.1"/>
	<path class="st8" d="M98.6,257.7v8.2h5.2v-8.2h-5.3 M161.9,268.9l-0.1-14h-11.2v14H161.9"/>
	<path class="st8" d="M153.6,257.8v8.2h5.2v-8.2H153.6 M161.8,246v-14h-11.3v14H161.8z"/>
	<path class="st8" d="M153.5,234.9v8.2h5.2v-8.2H153.5 M106.6,246v-14.1H95.3v14h11.3V246z"/>
	<path class="st8" d="M98.5,234.8v8.2h5.2v-8.2H98.5 M127.1,246v-14.1h-11.3v14h11.3"/>
	<path class="st8" d="M118.8,234.8v8.2h5.2v-8.2H118.8 M142.7,246v-14l-11.3-0.1v14L142.7,246"/>
	<path class="st8" d="M134.5,234.8v8.2h5.3v-8.2H134.5"/>
	<path class="st7" d="M145.5,241.7l0.2,32.4h-32.7l-0.1-32.4H145.5"/>
	<path class="st8" d="M145.5,241.7l0.1,32.4h-32.6l-0.1-32.4H145.5z M112.8,250.9h32.9 M116.8,274.2v-23 M141.7,274.2v-22.9
		 M157.5,227.8l-18.3-13.3h-20.7l-18.3,13.3H157.5 M120.1,203.3v8.2h17.4v-8.2H120.1"/>
	<path class="st8" d="M124.8,205.4v4.1h8v-4.1H124.8 M128.7,193.9l9.7,6.9h-19.2l9.7-6.9"/>
	<path class="st7" d="M167.7,189.4c2.7,0,3.4,11.2,3.4,16.9c2.4,0.8,7.6,4,9.9,6.9h-26.4c2.2-2.9,7.4-6.2,9.7-6.8
		C164.3,200.7,164.9,189.3,167.7,189.4"/>
	<path class="st8" d="M167.7,189.4c2.8,0,3.4,11.3,3.4,17c2.4,0.6,7.6,4,9.9,6.9h-26.4c2.3-2.9,7.5-6.2,9.8-6.9
		C164.3,200.7,165,189.4,167.7,189.4 M114.5,242.6h2.4l-0.6,1.3c0,0,1.1,1.5,0,3.2l0.6,1.1h-2.4l0.6-1.1c0,0-1.1-1.9,0-3.2
		L114.5,242.6 M119.3,242.6h2.4l-0.6,1.3c0,0,1.1,1.5,0,3.2l0.6,1.1h-2.4l0.6-1.1c0,0-1.1-1.9,0-3.2L119.3,242.6 M124.7,242.6h2.3
		l-0.6,1.3c0,0,1.1,1.5,0,3.2l0.6,1.1h-2.3l0.5-1.1c0,0-1.1-1.9,0-3.2l-0.6-1.3H124.7z M130.6,242.6h2.4l-0.8,1.4c0,0,1.2,1.4,0,3.1
		l0.6,1.1h-2.3l0.6-1.1c0,0-1.1-1.9,0-3.2l-0.6-1.2V242.6z M135.9,242.6h2.4l-0.8,1.4c0,0,1.2,1.4,0,3.1l0.6,1.1H136l0.5-1.1
		c0,0-1.1-1.9,0-3.2l-0.6-1.2 M141.1,242.7h2.4l-0.8,1.3c0,0,1.2,1.4,0,3.1l0.6,1.1h-2.1l0.5-1.1c0,0-1.1-1.9,0-3.2L141.1,242.7"/>
	<path class="st3" d="M129.3,315.7c12.2,0,27.2-2.5,34.2-6.1l15.5-1.4l0.4,18.8c-13.1,7.2-43.3,8.8-50,8.7c-6.7,0-37.2-1.5-50.4-8.7
		l0.2-18.9l15.5,1.4C105.7,313.8,117.5,315.9,129.3,315.7"/>
	<path class="st4" d="M129.4,315.7c12.3,0,27.2-2.5,34.3-6.1l15.4-1.3l0.3,18.8c-13,7.2-43.3,8.8-49.9,8.7c-6.7,0-37.3-1.5-50.5-8.8
		l0.2-18.8l15.5,1.4C101.8,313.3,117.3,315.7,129.4,315.7"/>
	<path class="st3" d="M39.2,235.3l13.6,4.3l-4.1,22l-12.8,2.1C35.9,263.7,33.7,252.1,39.2,235.3"/>
	<path class="st4" d="M39.4,235.4l13.5,4.3l-4.1,22l-12.9,2C35.9,263.7,33.8,252.1,39.4,235.4L39.4,235.4z"/>
	<path class="st9" d="M48.7,261.5l-12.8,2.2l8.2-11.6L48.7,261.5"/>
	<path class="st4" d="M48.8,261.5l-12.9,2.1l8.2-11.5L48.8,261.5"/>
	<path class="st3" d="M31.1,251.2l13.1,0.9c0.3,11.1,1.7,53.4,52.3,55.8l-1.6,15.5C33.3,324,28.7,271.4,31.1,251.2"/>
	<path class="st4" d="M31.2,251.3l13.1,0.9c0.3,11.2,1.6,53.5,52.3,55.9L95,323.5C33.3,324.1,28.7,271.5,31.2,251.3L31.2,251.3z
		 M79.3,326.6l15.5-3.3"/>
	<path class="st3" d="M218.3,235.5l-13.5,4.3l4.3,21.9l12.9,2.1C222.1,263.8,224.1,252.3,218.3,235.5"/>
	<path class="st4" d="M218.4,235.5l-13.5,4.3l4.3,22l12.9,2.1C222.1,263.9,224.2,252.3,218.4,235.5z"/>
	<path class="st9" d="M209.1,261.6l12.8,2.3l-8.2-11.6L209.1,261.6"/>
	<path class="st4" d="M209.2,261.6l12.9,2.3l-8.3-11.5L209.2,261.6"/>
	<path class="st3" d="M226.7,251.3l-13.1,0.9c-0.2,11.1-1.2,53.4-51.8,55.8l1.9,15.4C225.2,324.2,229.4,271.5,226.7,251.3"/>
	<path class="st4" d="M226.7,251.4l-13.1,0.9c-0.2,11.2-1.1,53.6-51.8,55.9l1.7,15.4c61.7,0.8,65.9-51.9,63.2-72L226.7,251.4z
		 M179.2,326.6l-15.5-3.2"/>
	<path class="st10" d="M121.2,325c-0.4,0.2-0.9,0.3-1.4,0.2l-2.4-0.1l0.2-3.1l2.4,0.2c0.5,0,0.9,0.1,1.1,0.3
		c0.5,0.2,0.7,0.7,0.7,1.3C121.7,324.4,121.5,324.8,121.2,325 M117.1,329.7l0.2-3.7l2.8,0.2c0.9,0.1,1.7-0.2,2.2-0.7
		c0.5-0.4,0.8-0.9,0.8-1.7c0.1-0.7-0.1-1.4-0.6-1.9c-0.5-0.5-1.2-0.8-1.9-0.8l-4.1-0.3l-0.6,8.8L117.1,329.7 M125.9,322.5h3l1,0.2
		c0.5,0.3,0.7,0.7,0.7,1.3c0,0.6-0.1,0.9-0.5,1.2c-0.4,0.2-0.9,0.3-1.3,0.3h-2.9L125.9,322.5 M125.9,330.2v-3.8l2.8,0.1
		c0.5,0,0.9,0,1.1,0.2c0.4,0.2,0.7,0.6,0.7,1.1v2.2l0.2,0.3h1.5v-0.2c-0.2-0.1-0.3-0.3-0.4-0.5c-0.1-0.2-0.1-0.5-0.1-0.8v-1.2
		c0-0.6-0.2-0.9-0.4-1.1c-0.2-0.3-0.4-0.5-0.8-0.6c0.4-0.2,0.8-0.5,0.9-0.7c0.2-0.4,0.4-0.8,0.4-1.3c0-0.9-0.5-1.7-1.3-2.1
		c-0.5-0.2-1.1-0.4-1.7-0.4h-4.2v8.8L125.9,330.2 M135.3,328.4c-0.6-0.7-0.9-1.5-0.9-2.4c0-1.2,0.2-2.2,0.8-2.8
		c0.6-0.6,1.4-1,2.2-0.9c0.8-0.1,1.6,0.2,2.2,0.8c0.7,0.6,0.9,1.4,1,2.4c0.1,0.9-0.1,1.8-0.6,2.6c-0.5,0.7-1.2,1.2-2.3,1.2
		C136.6,329.2,135.8,329.1,135.3,328.4 M133.8,322.9c-0.5,0.9-0.8,2-0.8,3.1c0.1,1.3,0.5,2.4,1.3,3.2c0.9,0.9,2.1,1.3,3.4,1.2
		c1.3,0,2.5-0.6,3.3-1.7c0.7-1,1-2.2,0.9-3.4c0-1.1-0.4-2.1-1.1-2.9c-0.8-0.9-2.1-1.4-3.7-1.3C135.6,321.1,134.5,321.7,133.8,322.9
		 M175,310.2c0.9-0.1,1.7-0.1,2.3,0.1c0.9,0.4,1.6,1,2.1,2.2l-1.2,0.2c-0.2-0.5-0.6-1-1.1-1.2c-0.6-0.2-1.2-0.3-1.9-0.2
		c-0.8,0.1-1.4,0.6-1.9,1.2c-0.5,0.7-0.7,1.6-0.5,2.8c0.1,0.9,0.5,1.8,1.1,2.4c0.6,0.6,1.4,0.7,2.4,0.7c0.7-0.1,1.4-0.5,1.9-1
		c0.6-0.6,0.7-1.3,0.5-2.3l-2.8,0.5l-0.1-0.9l3.9-0.7l0.8,4.7h-0.8l-0.5-0.9l-0.9,0.9c-0.5,0.5-1.1,0.7-1.9,0.8
		c-1,0.2-2.1-0.1-3-0.7c-1-0.8-1.6-1.9-1.8-3.2c-0.3-1.3-0.1-2.6,0.7-3.8C172.9,310.9,174,310.3,175,310.2 M183.9,309.6l2.8-1
		c0.4-0.2,0.8-0.2,1-0.2c0.6,0,0.9,0.4,1.1,0.9s0.2,1,0,1.4c-0.3,0.3-0.7,0.6-1.2,0.7l-2.6,0.9L183.9,309.6 M186.7,316.8l-1.3-3.5
		l2.6-0.9c0.3-0.2,0.7-0.3,1-0.3c0.5,0.1,0.8,0.4,1.1,0.9l0.6,1.3l0.3,0.7l0.2,0.3l1.4-0.6v-0.2c-0.3,0-0.5-0.1-0.6-0.4
		c-0.2-0.1-0.3-0.4-0.4-0.7l-0.5-1.1c-0.2-0.5-0.5-0.7-0.7-0.9c-0.3-0.1-0.6-0.2-0.9-0.2l0.6-1.1c0-0.4,0-0.8-0.2-1.3
		c-0.4-0.9-0.9-1.5-1.9-1.5c-0.6,0-1.2,0.1-1.8,0.3l-3.9,1.4l3.2,8.2L186.7,316.8 M197,312.5l-5-7.3l5.4-3.6l0.7,0.9l-4.5,2.8
		l1.5,2.2l4.2-2.6l0.6,0.8l-4.2,2.6l1.7,2.5l4.7-3l0.6,0.9L197,312.5 M201.4,299.5l1.4-1.6c0.8-0.8,1.4-1,2.2-0.9
		c0.8,0,1.6,0.5,2.4,1.2c0.6,0.5,1,1.1,1.3,1.9c0.2,0.6,0.1,1,0,1.5c-0.2,0.3-0.4,0.7-0.7,0.9l-1.4,1.5L201.4,299.5 M209,302.9
		c1-1.1,1.2-2.2,0.7-3.8c-0.4-0.8-0.9-1.4-1.6-2c-0.8-0.8-1.8-1.2-2.9-1.3c-1.1-0.1-2.1,0.3-2.9,1.2l-2.4,2.6l6.7,5.9L209,302.9
		 M214.3,296.2l-7.8-4.7l0.7-0.9l7.8,4.6L214.3,296.2 M217.4,290.8l-8.4-3.4l2.4-5.9l1,0.4l-2,4.9l2.5,0.9l1.9-4.4l0.9,0.4l-1.9,4.5
		l2.8,1.1l2.2-4.9l0.9,0.4L217.4,290.8 M221.1,280.5l-8.8-1.9l0.4-1.4l8.2-2.8l-7.2-1.6l0.3-1l8.8,1.9l-0.3,1.3l-8.2,2.8l7.2,1.6
		L221.1,280.5 M220.5,269.2l0.1-1.1c0.6,0,0.9,0,1.3-0.2c0.7-0.4,0.9-1,1.1-2c0.1-0.4,0-0.9-0.1-1.3c-0.2-0.7-0.6-1.1-1.2-1.1
		c-0.6-0.1-0.9,0-1.1,0.3c-0.3,0.3-0.5,0.8-0.7,1.4l-0.5,1.1c-0.2,0.7-0.5,1.3-0.8,1.6c-0.4,0.6-0.9,0.8-1.7,0.7
		c-0.7,0-1.4-0.4-1.9-0.9c-0.6-0.6-0.8-1.4-0.7-2.4c0.1-0.9,0.4-1.7,0.9-2.2c0.5-0.6,1.2-0.9,2.2-0.7l-0.1,1.1c-0.5,0-0.9,0-1.1,0.3
		c-0.6,0.3-0.8,0.9-0.9,1.8c0,0.7,0,1.1,0.4,1.5c0.3,0.4,0.6,0.6,0.9,0.6c0.5,0,0.8,0,1-0.4l0.7-1.6l0.4-1.2
		c0.2-0.6,0.5-0.9,0.8-1.3c0.5-0.5,1.1-0.7,1.9-0.7c1,0.1,1.8,0.6,2.1,1.3c0.4,0.7,0.6,1.5,0.5,2.5c-0.1,0.9-0.5,1.8-1.1,2.4
		C222.3,269.2,221.5,269.3,220.5,269.2 M37.1,268.7l0.3,1.1c-0.6,0.1-0.9,0.3-1.2,0.6c-0.5,0.5-0.7,1.2-0.5,2.2
		c0.1,0.4,0.2,0.8,0.4,1.1c0.4,0.7,0.9,0.9,1.6,0.8c0.5-0.1,0.8-0.3,0.9-0.7l0.3-1.5v-1.2c0-0.8,0.2-1.4,0.3-1.7
		c0.3-0.6,0.8-0.9,1.6-1.1c0.8-0.1,1.5,0,2.1,0.6c0.7,0.4,1,1.1,1.2,2.1c0.2,0.8,0.1,1.7-0.3,2.4c-0.4,0.7-0.9,1.1-2,1.3l-0.2-1
		c0.3-0.1,0.7-0.3,0.9-0.6c0.5-0.5,0.6-1.1,0.5-2c-0.2-0.8-0.4-1.2-0.7-1.4c-0.3-0.3-0.7-0.4-1.1-0.3c-0.4,0-0.8,0.3-0.9,0.7
		l-0.1,1.7l-0.1,1.2c0,0.5-0.1,1-0.4,1.5c-0.3,0.6-0.9,1-1.6,1.1c-0.9,0.2-1.9-0.1-2.3-0.7c-0.6-0.6-1-1.4-1.1-2.2
		c-0.2-0.9,0-1.9,0.5-2.7C35.5,269.3,36.3,268.9,37.1,268.7 M36.5,280.3l8.7-2.6l2,6.1l-1,0.4l-1.7-5l-2.6,0.7l1.6,4.7l-1,0.3
		l-1.5-4.7l-3,0.9l1.7,5.1l-0.9,0.3L36.5,280.3 M40.4,290.9l8-4.2l0.9,1.5l-5.5,5.7l8-1.3l0.8,1.4l-8,4.2l-0.6-0.9l4.7-2.5l0.8-0.4
		l1.2-0.7l-8,1.4l-0.6-1l5.4-5.8l-0.3,0.2l-0.9,0.5c-0.3,0.2-0.6,0.3-0.8,0.5l-4.7,2.4L40.4,290.9 M55.2,302.6
		c-0.4-0.1-0.8-0.4-1.1-0.8l-1.7-1.7l2.3-2.1l1.7,1.7c0.3,0.3,0.5,0.6,0.7,0.9c0.2,0.5,0,0.9-0.5,1.4
		C56,302.5,55.6,302.7,55.2,302.6 M48.8,303.4l2.8-2.5l1.9,2c0.8,0.7,1.4,0.9,2.1,0.9c0.7,0,1.4-0.3,1.9-0.7
		c0.5-0.5,0.7-1.2,0.7-1.9c0-0.6-0.3-1.2-0.8-1.8l-2.8-2.8l-6.6,6L48.8,303.4 M56.8,310.5l4.8-7.5l5.6,3.4l-0.6,0.9l-4.7-2.8
		l-1.4,2.3l4.2,2.5l-0.5,0.9l-4.3-2.6l-1.6,2.5l4.7,2.8l-0.6,0.9L56.8,310.5 M70.8,309l2.9,0.9l0.9,0.5c0.4,0.4,0.5,0.8,0.2,1.4
		c-0.2,0.6-0.4,0.9-0.8,1l-1.4-0.1l-2.7-0.9L70.8,309 M68.4,316.4l1.2-3.6l2.6,0.8c0.5,0.1,0.9,0.3,1,0.5c0.3,0.3,0.4,0.8,0.3,1.3
		l-0.5,1.4l-0.1,0.7v0.3l1.4,0.5v-0.2l-0.2-0.7l0.2-0.7l0.4-1.1c0.1-0.6,0.2-0.9,0-1.1c0-0.3-0.3-0.6-0.6-0.8c0.5,0,0.9-0.2,1.2-0.5
		c0.3-0.3,0.6-0.7,0.7-1.1c0.4-0.9,0.2-1.8-0.6-2.3c-0.4-0.4-1-0.7-1.5-0.8l-4-1.2l-2.8,8.3L68.4,316.4"/>
	<path class="st11" d="M80.6,164.6c0.9-2.5,10.6-9.4,42-6.4c0,0,5.3,3.3,8.4,2.8c1.9-0.2-0.9,0.2-3.4-1.8c-2.3-1.9-2.8-5.9,2.5-5.7
		c5.4,0.1,25.6,1.2,26,3.1c0.4,1.8-10.7,2.5-14.7,2.4c-4.1-0.1-3.8,2,0.4,1.9c12.8-0.6,26.8-5.1,41.5,5.4c1.8,1.2-4.4,1.4-9.2-0.6
		c0,0-13.1,0.7-18.8-0.3c0,0-4.2,3.6-9.9,3.2c0.8,1.9-2.1,8.6-19.7,3.5c-3,0.9-13.6,2.7-12.5-0.5c-2.8,0-7.7,0.9-8.4-0.7
		c-0.8-1.6,8.6-3.9,10.3-5.6c0,0-19.9,0.2-23.6-1.2C91.6,164.2,79.8,166.9,80.6,164.6"/>
	<path class="st12" d="M87,192.4c0.4-0.6,0.6-1.7,1.5-1.6c1.9,0.5,3.3,4.1,5.6,1.8c0.9-0.2,1.2,0.9,1.9,1.1c0.5,2,2.2-0.5,3.3-0.3
		c2.6-1.1,5.7-1.4,8.8-0.9c0,2.1-1.5,4.2-3.4,5.3c0,1.9,1.9,3.2,1.8,5.2c-0.3,0.8,0,1.9-1.1,2.2c-1.5-0.3-2.8-0.4-4-1.2
		c-0.2-0.1-0.3-0.4-0.6-0.3c-0.2,0.7,0.9,1.3,1.3,2c-0.8,1.2-1.9,0.1-2.9,0.1c-0.3,0.8,0,1.6-0.8,2.1c-1.2,0-1.5-1.4-2.2-2.1
		c-0.8,0.8,0.6,1.3,0.8,2c-0.6,2.6-0.5,5.2-3,6.8l-1.8,0.8c-0.5-1.3-0.2-3.3-0.5-4.7c-0.9,1.7-1.9,3.2-3.3,4.6
		c-1.9-0.6-2.8-2.6-3.2-4.4c-0.8-2-0.3-4.3,1.2-5.8c-0.5-0.9-2.3-0.8-2.6-2.2c-2.8-1.9-4.2,3.1-6,0.6c-0.6-2.5,0.1-5.2,1.9-7.1
		c-0.5-0.9-1.8-0.8-2.5-1.3c-1.7-1.5-4.2-3-4-5.6C77.9,187.5,83.3,188.7,87,192.4"/>
	<path class="st3" d="M89.4,192.1c-0.1,2.2,1.4,0.6,2.6,1.9c-0.9-0.4-1.6,1.6-2.5,0.5l-0.6,0.6c0.4,0.8,0.9,0.8,0.4,1.7
		c-0.9,0.4-1.2-0.9-1.7-1.4c0-0.2,0.2-0.6-0.2-0.8c-0.6,0.5-1.1,0.7-1.9,0.6c-0.2-0.4-0.7-0.9-0.2-1.3c0.8-0.9,1.9,0.4,2.4-0.3
		c0.1-0.7-0.5-1.4,0.3-1.9C88.6,191.7,89.2,191.4,89.4,192.1 M95.2,193.9c0.1,0.4-0.2,0.9,0.4,1.3c0.8-0.4,1.5-0.1,1.9,0.6
		c0,0.4,0.1,0.9-0.4,1.1l-1.1-0.3c0.1-0.2-0.3-0.3-0.4-0.6c-0.5-0.1-0.8,0.3-1.1,0.6c0.3,0.4,0.9,0.7,0.8,1.1
		c-0.7,0.7-0.9-0.6-1.7-0.2c-0.6-0.2,0.1-1.2-0.7-1.6c-0.9,0-0.3,1.5-1.5,0.9c-0.4-0.5-0.8-1.1-0.4-1.6c0.6-0.3,1.3-0.3,1.8,0.2
		C93.5,194.6,93.5,191.6,95.2,193.9 M88,197c0.5,0.8-0.2,1.7,0.5,2.4c0.9-1.9,1.9,0.4,3,0.2c0.4,0.5,0.1,1,0.2,1.5
		c-1.4,0.4-3.1,0.8-4.3-0.3l-0.4,0.4c0.8,0.7,1.4,1.5,0.8,2.6c-1,0.2-2.7,0.3-3.2-0.8c-0.3-0.9,0.7-1.5-0.4-2.2
		c-0.7,0.9-0.7,2.1-2.1,1.2c-0.8-0.5-1.2-1.5-0.8-2.3c0.9-1.5,2.6,0,3.6-0.7c0.2-1.3-0.3-2.4,0.9-3.1C86.9,195.7,87.3,196.4,88,197"
		/>
	<path class="st7" d="M91.9,197.8c-0.5,2.2-2.1-0.1-2.8-0.2C90.1,195.8,90.7,198.2,91.9,197.8 M97,200.2c-1.1,0.3-0.9-1.1-1.5-1.7
		l0.5-0.4C96.3,198.6,96.6,199.5,97,200.2"/>
	<path class="st3" d="M95.5,199.7c0.3,0.8-0.8,1.4,0.2,1.9l0.8-0.7c0.8,0.2,1.7,0.4,2.2,1.1c0.6,1.6-1,1.6-1.9,2.1h-0.9
		c0.2-0.6-0.5-0.8-0.6-0.9c-0.4-0.1-0.8,0-1,0.3c0.2,0.9,1.4,1.9,0.2,2.7c-1.1,0-2.8,0.4-2.7-1.1c-0.4-0.9,1.1-2.2-0.5-2.2
		c-0.6,1.2-1.1,2.2-2.5,1.2l0.2-1.7c1.3,0,2.9,0.3,3.5-1.2c0.4-1-0.7-2.1,0.3-2.8C94.1,197.9,94.8,198.8,95.5,199.7"/>
	<path d="M94.6,202.1c0.3,0.8-0.6,0.9-1,1.3c-0.6,0-0.9-0.2-1.3-0.6c-0.3-0.9,0.5-1.1,0.9-1.5C93.8,201.1,94.1,201.8,94.6,202.1"/>
	<path class="st7" d="M93.7,202.7c-0.1,0.2-0.4,0.1-0.6,0.2l-0.2-0.9C93.4,201.9,93.9,202,93.7,202.7"/>
</g>
</svg>
