<?xml version="1.0" encoding="utf-8"?>
<!-- Generator: Adobe Illustrator 24.0.1, SVG Export Plug-In . SVG Version: 6.00 Build 0)  -->
<svg version="1.1" id="flag-icons-sz" xmlns="http://www.w3.org/2000/svg" xmlns:xlink="http://www.w3.org/1999/xlink" x="0px"
	 y="0px" viewBox="0 0 800 480" style="enable-background:new 0 0 800 480;" xml:space="preserve">
<style type="text/css">
	.st0{fill-rule:evenodd;clip-rule:evenodd;fill:#3E5EB9;}
	.st1{fill-rule:evenodd;clip-rule:evenodd;fill:#FFD900;}
	.st2{fill-rule:evenodd;clip-rule:evenodd;fill:#B10C0C;}
	.st3{fill-rule:evenodd;clip-rule:evenodd;fill:#FFD900;stroke:#000000;stroke-width:1.4062;stroke-miterlimit:3.75;}
	.st4{fill-rule:evenodd;clip-rule:evenodd;fill:#FFFFFF;stroke:#000000;stroke-width:4.2;}
	.st5{fill-rule:evenodd;clip-rule:evenodd;fill:#FFD900;stroke:#000000;stroke-width:1.2579;stroke-miterlimit:3.8704;}
	.st6{fill:none;stroke:#000000;stroke-width:1.3063;stroke-miterlimit:1.9352;}
	.st7{fill-rule:evenodd;clip-rule:evenodd;fill:#3D5DA7;stroke:#000000;stroke-width:1.4;}
	.st8{fill-rule:evenodd;clip-rule:evenodd;fill:#A70000;}
	.st9{fill-rule:evenodd;clip-rule:evenodd;fill:#FFFFFF;stroke:#000000;stroke-width:2.1;}
	.st10{fill-rule:evenodd;clip-rule:evenodd;}
	.st11{fill-rule:evenodd;clip-rule:evenodd;fill:#FFFFFF;}
</style>
<path class="st0" d="M0,0h800v480H0V0z"/>
<path class="st1" d="M0,85.7h800v308.6H0V85.7z"/>
<path class="st2" d="M0,120h800v240H0V120z"/>
<path class="st3" d="M117.2,234.8h572c3,0,5.4,2.3,5.4,5.2l0,0c0,2.8-2.4,5.2-5.4,5.2h-572c-3,0-5.4-2.3-5.4-5.2l0,0
	C111.8,237.2,114.2,234.8,117.2,234.8z"/>
<g transform="translate(-757 -25.6) scale(1.0321)">
	<path class="st4" d="M1345.2,204.2l-28.2,10l28.2,10l28.2-10C1373.5,214.1,1345.2,204.2,1345.2,204.2z"/>
	<path class="st5" d="M918.9,210.8h407.5c2.1,0,3.8,1.5,3.8,3.3l0,0c0,1.8-1.7,3.3-3.8,3.3H918.9c-2.1,0-3.8-1.5-3.8-3.3l0,0
		C915.1,212.3,916.8,210.8,918.9,210.8z"/>
	<path class="st6" d="M1320.3,217.5c1.6,0,3.3-1.7,3.3-3.4s-1.6-3.3-3.3-3.3"/>
	<path class="st6" d="M1317,217.5c1.6,0,3.3-1.7,3.3-3.4s-1.6-3.3-3.3-3.3"/>
	<path class="st6" d="M1313.7,217.6c1.6,0,3.3-1.7,3.3-3.4s-1.6-3.3-3.3-3.3"/>
</g>
<g transform="translate(-786.3 -3.7) scale(1.0321)">
	<path class="st4" d="M1347,202.9l-28.2,10l28.2,10l28.2-10C1375.2,212.8,1347,202.9,1347,202.9z"/>
	<path class="st5" d="M920.7,209.5h407.5c2.1,0,3.8,1.5,3.8,3.3l0,0c0,1.8-1.7,3.3-3.8,3.3H920.7c-2.1,0-3.8-1.5-3.8-3.3l0,0
		C916.8,211,918.5,209.5,920.7,209.5z"/>
	<path class="st6" d="M1322.1,216.1c1.6,0,3.3-1.7,3.3-3.4s-1.6-3.3-3.3-3.3"/>
	<path class="st6" d="M1318.8,216.1c1.6,0,3.3-1.7,3.3-3.4s-1.6-3.3-3.3-3.3"/>
	<path class="st6" d="M1315.4,216.2c1.6,0,3.3-1.7,3.3-3.4c0-1.7-1.6-3.3-3.3-3.3"/>
</g>
<g>
	<path class="st7" d="M653.6,236c-5.1,9,4-3,26.5,12.1c4.1,2.7,7.7,10.1,7.7,15.3c-1-0.7-1.9-2.2-3-3.3c-1.7,1.7,1.6,9.1,2.1,12.7
		c-3.5-2-3.2-2.9-4.4-5.4c0.3,2.9-0.6,11,0.8,14c-2.8-0.7-2.6-3-4-3.5c0.9,3.5-0.9,7.3-0.4,11.3c-1.7-1.6-3.4-2.9-4.1-3.5
		c-0.1,1.9-3.1,6.8-3.2,8.6c-1.4-0.9-1.8-2.2-2-3c-1.7,2.2-7.7,10.1-8.1,12.4c-4.7-4.1-16.6-14.1-18.2-19.4c-1.4,3-3.4,4-7.3,6.3
		c-1.6-8.5-7.5-17.9-4.3-25.2c-2.1,1.3-4.2,2.8-6.2,4.3C628.4,255.8,638.6,243.6,653.6,236z"/>
	<path class="st8" d="M634.3,280.5c2.2-4.3,4.1-5.6,5.5-8.4c2.4-4.9,2.8-8.8,5-8.2c2.2,0.6,2.2,2.6-0.7,7.4
		C641.3,275.9,640,277,634.3,280.5L634.3,280.5z M648.8,290.8c-0.3-3.4,0.8-4.7,0.6-6.8c-0.3-3.8-1.9-6.3,0.1-6.5
		c2-0.2,2.9,1.1,2.9,4.9S651.8,287.1,648.8,290.8L648.8,290.8z M659.9,297.2c-0.8-4.7-0.2-6.6-0.8-9.6c-0.9-5.2-2.8-8.6-0.9-9.1
		c1.8-0.5,2.8,1.2,3.6,6.5C662.4,290.2,662,291.7,659.9,297.2L659.9,297.2z M671.4,265c-2.7-2-4.3-2.2-6-3.5
		c-3.1-2.3-4.7-4.8-5.6-3.6s-0.3,2.5,2.9,4.7C666,264.8,667,265,671.4,265L671.4,265z M669.5,280.3c-1.4-3-2.9-3.8-3.8-5.6
		c-1.7-3.4-1.7-6.3-3.4-5.5c-1.9,0.8-1.9,2.2,0,5.5C664.2,277.9,665.1,278.4,669.5,280.3L669.5,280.3z"/>
</g>
<g>
	<path class="st7" d="M137,244.6c-0.3-2.7,0.3-3-1.4-4.9c2.3,1,2.5,3.6,5.3,1.8c1.1-0.6,1.5-0.6,0.2-3.4c3,0,12.8,3.4,14.3,3.5
		c4.2,0.2,11.6-4.3,16.7,1.2c5,5,3.3,10.2,3.3,17.2c-1.9-1-1.1-1.4-3.2-3.9c1.7,6.1,0,17.1,0,23.6c-0.9-1.6-0.7-1-1.5-2.6
		c-2.1,5.9-4.7,7.2-4.7,14.1c-0.7-2.7,0-2.2-0.9-3.5c-2.1,4.4-16,8.3-10.7,12.8c-4.7-2.8-6.8-2.5-9.1-5c-1,0.6-1.7,1.8-2.6,3.3
		c-8.5-3.9-5.3-12.3-12-17.9c-1.1,2.4-0.6,2-1.9,5.8c-1.3-5.3-1.7-8.8-3.2-12.6c-1.3,2.2-1.1,1.3-3.5,4.6c-1.1-6.5-2.6-8.1-1.9-12.3
		c-2.6,1.8-0.9,1-3.4,3.2C119.3,252.9,129.6,240.7,137,244.6L137,244.6z"/>
	<path class="st8" d="M126.5,271.7c2.2-5.3,4.1-7,5.6-10.5c2.4-6,2.8-10.9,4.9-10.1c2.2,0.7,2.1,3.2-0.8,9.2
		C134.4,265,130.9,269,126.5,271.7z M134.8,285.1c0.9-4.8,2.2-6.6,2.8-9.7c0.9-5.4,0.5-9.5,2.4-9.3c1.9,0.3,2.3,2.2,1,7.7
		C139.8,279.3,138.9,280.5,134.8,285.1L134.8,285.1z M144.6,294.4c0.3-4.7,1.4-6.5,1.5-9.4c0.3-5.3-0.7-9.1,1.1-9.1
		c1.9,0,2.5,1.9,2,7.1C148.7,288.3,148,289.6,144.6,294.4L144.6,294.4z M165.9,264c-4.1-4-6.6-4.8-9.2-7.5c-4.6-4.5-6.8-8.8-8.4-7.2
		c-1.7,1.5-0.7,3.8,4.2,8.2C157.4,261.7,159.1,262.3,165.9,264z M163.4,279.6c-2.6-3.9-4.5-5.1-6.2-7.7c-3-4.6-4-8.5-5.6-7.5
		c-1.9,0.9-1.4,3,1.9,7.5C156.6,276.3,157.9,277,163.4,279.6L163.4,279.6z"/>
</g>
<g>
	<path class="st9" d="M571.4,240c-34.3,34.3-80,102.9-171.5,102.9c-80,0-137.1-68.6-171.4-102.9C262.8,205.8,320,137.2,400,137.2
		C491.4,137.2,537.1,205.7,571.4,240z"/>
	<path class="st10" d="M388,172.9c9.2,10.3,1.5,14.4,11.2,15.1c10.1,0.8,4.3,10.9,12.9,11.2c6,0.2-0.7,24.1,5.2,32.1
		c5.9,8.2,10.8,2.3,10.9,8.3c0.1,6.1-15.9,5.5-16.2,24.4c-0.5,11-13.6,11.7-14.2,18.8c-0.8,6.6,25.8,10.3,25.5,16.2
		c-0.4,5.9-28.8,5-30,11.6c-0.6,6.1,39,11.1,42.2,28.5c-5.9,1.9-22.8,3.8-35.4,3.8c-80,0-137.2-68.5-171.5-102.8
		C262.8,205.7,320,137.2,400,137.2C400,137.2,376.3,158.8,388,172.9L388,172.9z"/>
	<path class="st11" d="M292.6,203.4h8.3v27.4h-8.3V203.4z M292.6,249.2h8.3v27.4h-8.3V249.2z M309.2,203.4h8.3v27.4h-8.3V203.4z
		 M309.2,249.2h8.3v27.4h-8.3V249.2z M325.9,203.4h8.2v27.4h-8.2V203.4z M325.9,249.2h8.2v27.4h-8.2V249.2z M342.5,203.4h8.3v27.4
		h-8.3V203.4z M342.5,249.2h8.3v27.4h-8.3V249.2z M359.1,203.4h8.3v27.4h-8.3V203.4z M359.1,249.2h8.3v27.4h-8.3V249.2z
		 M375.8,203.4h8.2v27.4h-8.2V203.4z M375.8,249.2h8.2v27.4h-8.2V249.2z"/>
	<path class="st10" d="M418.3,203.4h8.3v27.4h-8.3V203.4z M418.3,249.2h8.3v27.4h-8.3V249.2z M434.9,203.4h8.3v27.4h-8.3V203.4z
		 M434.9,249.2h8.3v27.4h-8.3V249.2z M451.6,203.4h8.2v27.4h-8.2V203.4z M451.6,249.2h8.2v27.4h-8.2V249.2z M468.2,203.4h8.3v27.4
		h-8.4L468.2,203.4z M468.2,249.2h8.3v27.4h-8.4L468.2,249.2z M484.8,203.4h8.3v27.4h-8.3V203.4z M484.8,249.2h8.3v27.4h-8.3V249.2z
		 M501.4,203.4h8.2v27.4h-8.2V203.4z M501.4,249.2h8.2v27.4h-8.2V249.2z"/>
</g>
<g>
	<path class="st7" d="M344.5,155.4c-4.7,9.2,8.4-3,28.8,12.3c5.1,5.6,8.4,12.3,9.3,19.3c-4.3-0.9-12.1-5.2-12.1-5.2s9,9,9,19.5
		c-3.2-2-4.8-1.7-5.8-4.1c0,3.3,2.8,5.5,2.8,10.8c-1.9-1.6-4-3-6.2-4.2c3,5.2-5.5,15.4-1.3,18.8c-7.4-1.1-15.1-5.9-18.1-11.1
		c-1.6,1-1.7,2.7-1.9,4.6c0.3,0.1-11.3-8.6-10.2-12c-1.6,2.2-1.8,3.4-2.1,5.9c-4.5-3.8-7.8-8.6-9.6-13.9l-3.9,4.9
		c-1.4-8.6-1.4-8.3,1.4-15.7c-2,1.4-3.8,2.8-5.6,4.4C321.5,175.7,330.7,163.2,344.5,155.4z"/>
	<path class="st8" d="M332.9,200.2c0.8-6.3,2.3-8.7,2.8-12.8c0.9-7.2-0.1-12.4,2.4-12.3c2.5,0.1,3.3,2.8,2.1,9.9
		C338.9,192.3,337.8,194.1,332.9,200.2z M346.1,211.9c-0.5-5.3,0.5-7.6,0.2-11.1c-0.6-6-2.4-10.1-0.3-10.5c2.2-0.4,3.4,1.6,3.6,7.8
		C349.8,204.2,349.3,205.8,346.1,211.9z M366.8,221.2c-2.2-4.5-4.2-5.9-5.6-8.9c-2.6-5.3-3.1-9.5-5.1-8.7c-2.1,0.8-1.9,3,0.9,8.2
		C359.9,216.8,361.3,217.9,366.8,221.2L366.8,221.2z M373.9,180c-5.6-3.1-8.6-3.1-12.4-5.1c-6.5-3.4-10.3-7.2-11.6-5.2
		c-1.3,2.2,0.5,4.2,7.2,7.3C363.8,180.2,365.9,180.4,373.9,180L373.9,180z M376.1,197.2c-4.2-3.5-6.7-4-9.4-6.3
		c-4.7-3.8-7.1-7.7-8.7-6.2c-1.5,1.6-0.5,3.7,4.5,7.3C367.5,195.8,369.2,196.3,376.1,197.2z"/>
</g>
</svg>
