<?xml version="1.0" encoding="utf-8"?>
<!-- Generator: Adobe Illustrator 24.0.1, SVG Export Plug-In . SVG Version: 6.00 Build 0)  -->
<svg version="1.1" id="flag-icons-tc" xmlns="http://www.w3.org/2000/svg" xmlns:xlink="http://www.w3.org/1999/xlink" x="0px"
	 y="0px" viewBox="0 0 800 480" style="enable-background:new 0 0 800 480;" xml:space="preserve">
<style type="text/css">
	.st0{fill:#002868;}
	.st1{fill:#FCD116;stroke:#000000;stroke-width:8;stroke-miterlimit:10;}
	.st2{fill:none;stroke:#FFFFFF;stroke-width:7;stroke-miterlimit:10;}
	.st3{fill:#FCAD56;stroke:#000000;stroke-width:0.275;stroke-linecap:round;stroke-linejoin:round;stroke-miterlimit:10;}
	.st4{fill:#FFA1A1;stroke:#000000;stroke-width:0.275;stroke-linecap:round;stroke-linejoin:round;stroke-miterlimit:10;}
	.st5{fill:#F1B2DC;stroke:#000000;stroke-width:0.275;stroke-linecap:round;stroke-linejoin:round;stroke-miterlimit:10;}
	.st6{fill:none;stroke:#000000;stroke-width:0.275;stroke-linecap:round;stroke-linejoin:round;stroke-miterlimit:10;}
	.st7{fill:#9E540A;stroke:#000000;stroke-width:0.275;stroke-linecap:round;stroke-linejoin:round;stroke-miterlimit:10;}
	.st8{fill:#9E540A;stroke:#FCD116;stroke-width:1.5;stroke-linecap:round;stroke-linejoin:round;stroke-miterlimit:10;}
	.st9{fill:#9E540A;}
	.st10{fill:#009E49;stroke:#000000;stroke-width:0.275;stroke-linecap:round;stroke-linejoin:round;stroke-miterlimit:10;}
	.st11{fill:none;stroke:#009E49;stroke-width:0.275;stroke-linecap:round;stroke-linejoin:round;stroke-miterlimit:10;}
	.st12{fill:#FCD116;stroke:#000000;stroke-width:0.275;stroke-linecap:round;stroke-linejoin:round;stroke-miterlimit:10;}
	.st13{fill:#CE1126;stroke:#000000;stroke-width:0.275;stroke-linecap:round;stroke-linejoin:round;stroke-miterlimit:10;}
	.st14{stroke:#000000;stroke-width:0.275;stroke-linecap:round;stroke-linejoin:round;stroke-miterlimit:10;}
	.st15{fill:#FFFFFF;}
	.st16{fill:#C8102E;}
</style>
<path id="path314" class="st0" d="M800,480V0H0v480H800z"/>
<g id="g90_1_" transform="matrix(.125 0 0 .125 485 299.6)">
	<path id="use26_1_" class="st1" d="M1810-1000v720c0,480-240,997-840,1277C370,717,130,200,130-280v-720H1810z"/>
	<path id="use28_1_" class="st2" d="M1810-1000v720c0,480-240,997-840,1277C370,717,130,200,130-280v-720H1810z"/>
	<g id="g88_1_">
		<g id="g38_1_" transform="translate(-400 -400)">
			<path id="path30_1_" class="st3" d="M1067,193c-22,37-59,45-88,33c-30-12-57-82-87-120c-29-37-37-21-57-43c-19-21-49-37-96-59
				c-26-12-53-23-71-69c7-19,26-35,41-41c15-5,27-27,29-46c2-18,18-38,40-53c-10,2-31-2-41-9c-9-8-24-6-33,1c-9,6-20,8-36,6
				c6-5,17-16,18-26s13-15,36-15c22,0,37-26,55-26c-13,0-10-22-3-23c-32-6-28-32-15-32c-1-4-5-8-20-13c-14-5-7-18,4-26
				c-10-20-1-35,15-48c-22-1,2-32,8-49c6-16,9-18,16-8c8,9,26,30,47,36c20,6,32,17,36,34c4,18,12,27,34,35c23,7,54,26,50,69
				c18,1,31,6,42,15"/>
			<path id="path32_1_" class="st4" d="M1122-349c0,24,11,39,25,51c15,12,28,22,25,37c-3,16,3,26,16,36c14,10,24,22,20,42
				s-1,32,7,47s22,27,16,51s-3,56,5,72c7,15,0,27-14,54c-14,26-22,36-51,46c-30,9-32,27-32,58c0,32-21,48-60,42c-40,33-65-6-75-55
				S992,30,933-13c-58-44-35-118,14-148c49-29,43-115,37-168c-5-53,30-83,57-112C1077-427,1122-372,1122-349z"/>
			<path id="path34_1_" class="st5" d="M1037-8c-11-26-23-52,6-108c30-57,11-100,2-129c-9-28-11-54,0-66c12-11,17-18,18-37
				c1-18,16-12,18-3s4,24-12,51c-16,28,45,96,17,169c-19,51,6,116,16,161s16,153-50,169C1097,177,1055,34,1037-8z"/>
			<path id="path36_1_" class="st6" d="M740-16c11,2,17-4,20-11s5-11,15-12c10,0,26-3,30-11c3-8,15-1,26-21c10-21,17-45,44-54
				 M949-299c-10,0-39,1-51,27 M815-423c24,7,14,23,26,32c22,17,2,35,20,40s17,8,13,28c-6,23,16,24,8,39 M778-205c14-13,49-23,57-37
				 M777-274c21-1,49,7,53-1 M774-297c10,0,31-7,35-21 M759-329c12,0,27-1,42-12 M743-368c9-7,25,1,40-9 M758-416c7,0,22-2,22,7"/>
		</g>
		<g id="g65_1_" transform="translate(400 -400)">
			<g id="L1_3_">
				<path id="path40_3_" class="st7" d="M915-233c0,0-70-59-128-99s-128-89-128-99c11-8,70,30,151,79c82,50,128,99,128,99L915-233z
					 M910-193c0,0-68-41-135-70c-70-29-175-29-186-39c0-10,122-16,209,19c89,41,135,70,135,70L910-193z M909-125c0,0-74-34-146-50
					c-70-16-170-10-182-19c0-10,124-30,217,0c94,29,134,49,134,49L909-125z M905-56c0,0-56-38-130-46c-70-7-163,46-175,36
					c0-10,81-69,182-59c99,10,146,49,146,49L905-56z M928-274c0,0-71-65-71-109c0-39,43-99,62-99c-10,20-43,60-43,99
					c0,40,75,89,75,89L928-274z"/>
				<path id="path42_3_" class="st7" d="M928-274c0,0,14-65,14-109c0-59-42-113-38-128c15,15,57,59,57,128c0,60-10,89-10,89L928-274
					z"/>
				<g id="g47_3_">
					<g id="use44_3_">
						<path id="ant_7_" class="st8" d="M945-295c0-19-7-36-19-49c-16-19-40-25-65-21c-30,5-54,23-69,51c-20,37-22,77-23,116
							c0,135,5,190,9,323c1,39,8,119-10,182c-7,27-15,52-27,78c8-33,12-50,16-75c11-65,8-126,6-186c-4-123-11-186-15-335
							c-1-45,3-79,24-115c22-37,60-64,103-64c18,0,33,3,48,12c30,16,44,49,44,82L945-295z"/>
					</g>
					<path id="ant_6_" class="st9" d="M945-295c0-19-7-36-19-49c-16-19-40-25-65-21c-30,5-54,23-69,51c-20,37-22,77-23,116
						c0,135,5,190,9,323c1,39,8,119-10,182c-7,27-15,52-27,78c8-33,12-50,16-75c11-65,8-126,6-186c-4-123-11-186-15-335
						c-1-45,3-79,24-115c22-37,60-64,103-64c18,0,33,3,48,12c30,16,44,49,44,82L945-295z"/>
				</g>
				<path id="path49_3_" class="st7" d="M951,187c0,0-28,50-49,86s-38,44-54,33c-15-11-2-40,10-54c12-14,79-79,79-79L951,187z"/>
				<path id="path51_3_" class="st7" d="M958,191c0,0-11,57-20,98c-8,41-22,55-39,50c-18-4-15-37-8-54s49-103,49-103L958,191z"/>
				<path id="path53_3_" class="st7" d="M970,193v100c0,42-10,59-29,58c-18-1-22-33-18-52c3-18,28-111,28-111L970,193z"/>
			</g>
			<g id="use56_1_" transform="scale(-1 1)">
				<g id="L1_2_">
					<path id="path40_2_" class="st7" d="M1025-233c0,0,70-59,128-99s128-89,128-99c-11-8-70,30-151,79c-82,50-128,99-128,99
						L1025-233z M1030-193c0,0,68-41,135-70c70-29,175-29,186-39c0-10-122-16-209,19c-89,41-135,70-135,70L1030-193z M1031-125
						c0,0,74-34,146-50c70-16,170-10,182-19c0-10-124-30-217,0c-94,29-134,49-134,49L1031-125z M1035-56c0,0,56-38,130-46
						c70-7,163,46,175,36c0-10-81-69-182-59c-99,10-146,49-146,49L1035-56z M1012-274c0,0,71-65,71-109c0-39-43-99-62-99
						c10,20,43,60,43,99c0,40-75,89-75,89L1012-274z"/>
					<path id="path42_2_" class="st7" d="M1012-274c0,0-14-65-14-109c0-59,42-113,38-128c-15,15-57,59-57,128c0,60,10,89,10,89
						L1012-274z"/>
					<g id="g47_2_">
						<g id="use44_2_">
							<path id="ant_5_" class="st8" d="M995-295c0-19,7-36,19-49c16-19,40-25,65-21c30,5,54,23,69,51c20,37,22,77,23,116
								c0,135-5,190-9,323c-1,39-8,119,10,182c7,27,15,52,27,78c-8-33-12-50-16-75c-11-65-8-126-6-186c4-123,11-186,15-335
								c1-45-3-79-24-115c-22-37-60-64-103-64c-18,0-33,3-48,12c-30,16-44,49-44,82L995-295z"/>
						</g>
						<path id="ant_4_" class="st9" d="M995-295c0-19,7-36,19-49c16-19,40-25,65-21c30,5,54,23,69,51c20,37,22,77,23,116
							c0,135-5,190-9,323c-1,39-8,119,10,182c7,27,15,52,27,78c-8-33-12-50-16-75c-11-65-8-126-6-186c4-123,11-186,15-335
							c1-45-3-79-24-115c-22-37-60-64-103-64c-18,0-33,3-48,12c-30,16-44,49-44,82L995-295z"/>
					</g>
					<path id="path49_2_" class="st7" d="M989,187c0,0,28,50,49,86s38,44,54,33c15-11,2-40-10-54c-12-14-79-79-79-79L989,187z"/>
					<path id="path51_2_" class="st7" d="M982,191c0,0,11,57,20,98c8,41,22,55,39,50c18-4,15-37,8-54s-49-103-49-103L982,191z"/>
					<path id="path53_2_" class="st7" d="M970,193v100c0,42,10,59,29,58c18-1,22-33,18-52c-3-18-28-111-28-111L970,193z"/>
				</g>
			</g>
			<g id="L2_3_">
				<path id="path58_3_" class="st7" d="M970,192c-53-1-58-20-58-20s-7-24-8-39c-1-2-15-32-11-45c-5-12-17-41-6-46
					c-5-14-13-30-14-45c-4-11-14-35-6-43c0,0-19-40-10-50c0,0-9-39,0-49c0,0,0-40,10-50c0,0,0-39,9-49c0,2,28-55,94-55l-1,85h1V192z
					"/>
				<path id="path60_3_" class="st6" d="M970-26c-85-1-103-20-103-20 M970-76c-85,0-113-20-113-20 M970-125c-85-1-113-20-113-20
					 M970-175c-85-1-103-20-103-20 M969-214c1,0-64,0-74-10l-19-19 M970,152c-25,0-53-4-66-19 M970,112c-47,0-75-19-75-19s-1-2-2-5
					 M970,63c-62-1-79-14-83-21 M970,23c-85,0-94-20-94-20l-3-6"/>
			</g>
			<g id="use63_1_" transform="scale(-1 1)">
				<g id="L2_2_">
					<path id="path58_2_" class="st7" d="M970,192c53-1,58-20,58-20s7-24,8-39c1-2,15-32,11-45c5-12,17-41,6-46c5-14,13-30,14-45
						c4-11,14-35,6-43c0,0,19-40,10-50c0,0,9-39,0-49c0,0,0-40-10-50c0,0,0-39-9-49c0,2-28-55-94-55l1,85h-1V192z"/>
					<path id="path60_2_" class="st6" d="M970-26c85-1,103-20,103-20 M970-76c85,0,113-20,113-20 M970-125c85-1,113-20,113-20
						 M970-175c85-1,103-20,103-20 M971-214c-1,0,64,0,74-10l19-19 M970,152c25,0,53-4,66-19 M970,112c47,0,75-19,75-19s1-2,2-5
						 M970,63c62-1,79-14,83-21 M970,23c85,0,94-20,94-20l3-6"/>
				</g>
			</g>
		</g>
		<g id="g86_1_">
			<g id="L3_3_">
				<path id="path67_3_" class="st10" d="M970,712c-43,40-126,14-152-4c-27,9-99-19-118-50c-52,7-70-67-61-86c14-28-11-46,7-65
					c25-24-14-47,10-63c24-17-6-45,18-63c25-19-13-45,13-58s-3-47,19-60c22-13-13-46,17-61c29-15,3-41,26-52c25-13,2-40,25-49
					c26-11,7-40,29-48c19-7,7-25,19-41h148"/>
				<path id="path69_3_" class="st6" d="M871,18c-20,20,4,35-16,59c-21,25-2,38-19,60s8,33-11,58c-19,24,4,39-17,59
					c-20,21,4,39-17,61c-20,23,4,38-16,58c-21,21,3,43-17,63c-20,21,4,47-19,71c-22,24,4,43-14,61c-19,19-2,38-15,51s-15,31-10,39
					 M910,25c-18,25,10,36-7,56c-17,21,7,28-6,52s10,30-7,54s9,43-9,67c-19,24,9,37-8,61c-16,25,8,38-7,56c-15,19,11,37-8,60
					c-18,22,8,39-7,59c-15,21,6,43-7,60c-13,16,9,41-10,63c-18,22,4,37-7,52s-20,37-9,43"/>
			</g>
			<g id="use72_1_" transform="scale(-1 1)">
				<g id="L3_2_">
					<path id="path67_2_" class="st10" d="M970,712c43,40,126,14,152-4c27,9,99-19,118-50c52,7,70-67,61-86c-14-28,11-46-7-65
						c-25-24,14-47-10-63c-24-17,6-45-18-63c-25-19,13-45-13-58s3-47-19-60c-22-13,13-46-17-61c-29-15-3-41-26-52c-25-13-2-40-25-49
						c-26-11-7-40-29-48c-19-7-7-25-19-41H970"/>
					<path id="path69_2_" class="st6" d="M1069,18c20,20-4,35,16,59c21,25,2,38,19,60s-8,33,11,58c19,24-4,39,17,59
						c20,21-4,39,17,61c20,23-4,38,16,58c21,21-3,43,17,63c20,21-4,47,19,71c22,24-4,43,14,61c19,19,2,38,15,51s15,31,10,39
						 M1030,25c18,25-10,36,7,56c17,21-7,28,6,52s-10,30,7,54s-9,43,9,67c19,24-9,37,8,61c16,25-8,38,7,56c15,19-11,37,8,60
						c18,22-8,39,7,59c15,21-6,43,7,60c13,16-9,41,10,63c18,22-4,37,7,52s20,37,9,43"/>
				</g>
			</g>
			<path id="path74_1_" class="st11" d="M970,712V12"/>
			<path id="path76_1_" class="st6" d="M970,48c-9,39,13,73,0,106c-13,32,9,45,2,71c-8,26,9,45-2,73s15,50,0,87c-15,36,10,45,0,82
				c-11,42,19,64,0,94s17,37,2,71c-15,33,9,46-2,80"/>
			<path id="path78_1_" class="st12" d="M985,174c-5,11,15,37,4,57c-12,19,6,49-6,73s19,54,7,82c-13,28,6,63,0,89c-5,26,13,76,0,94
				c-13,19,13,24-2,70s-25,7-16-7c19-31-21-41-2-71s-11-52,0-94c10-37-15-46,0-82c15-37-11-59,0-87s-6-47,2-73c7-26-15-39-2-71
				C980,122,990,163,985,174z M901,206c-7,12,12,35-5,58c-12,16,8,35-9,58c-11,16,11,36-4,59c-10,13,7,38-5,57c-12,20,6,36-15,62
				c-12,14,9,49-4,60s-1,54-10,60c-8,7,0,38-22,45c11-15-11-30,7-52c19-22-3-47,10-63c13-17-8-39,7-60c15-20-11-37,7-59
				c19-23-7-41,8-60c15-18-9-31,7-56c17-24-11-37,8-61c18-24-8-43,9-67s-6-30,7-54C921,142,909,194,901,206z M851,141
				c-10,16,4,35-11,55c-15,21,0,47-15,64c-15,16,4,48-15,61s-7,52-22,65s0,50-17,69s-9,58-19,67c-9,9,13,28-3,41c-17,13-17,39-39,56
				c13-13-4-32,15-51c18-18-8-37,14-61c23-24-1-50,19-71c20-20-4-42,17-63c20-20-4-35,16-58c21-22-3-40,17-61c21-20-2-35,17-59
				c19-25-6-36,11-58c8-10,8-19,8-27C856,79,856,133,851,141z"/>
			<path id="path80_1_" class="st13" d="M831,35c0-210,29-283,139-283s139,73,139,283H831z"/>
			<path id="path82_1_" class="st14" d="M831,35c0-210,29-283,139-283c-50,0-81,39-89,65c-9,26-4,24,7,14s6,12-4,24
				c-9,12-18,47-5,36c13-12,23,1,9,21c-14,19-26,65-12,49s17,10,8,23c-8,13-7,25,0,19c8-6,7,21,0,32H831z M1022,31
				c0-31,1-104-16-128c-12-19-12-39,2-17s21,11,11-11c-12-28-28-59-24-65c5-7,8-4,18,11s12-7,1-22c-11-14-10-17,13-7
				c41,17,61,66,61,231L1022,31z"/>
			<path id="path84_1_" class="st13" d="M970,65c-44,0-92-7-124-20c-38-15-40-28-27-44c10-12,30-5,50,4c19,8,73,14,101,14
				s82-6,101-15c20-8,40-15,50-3c13,16,11,29-27,44C1062,58,1014,65,970,65z"/>
		</g>
	</g>
</g>
<path id="path221" class="st15" d="M46.9,0l152.5,90.5L351.2,0H400v31l-150,89.5l150,89V240h-50l-150-89.5L50.6,240H0v-30l149.4-89
	L0,32V0H46.9z"/>
<path id="path223" class="st16" d="M265,140.5L400,220v20l-169.4-99.5H265z M150,150.5l3.8,17.5l-120,72H0L150,150.5z M400,0v1.5
	l-155.6,94l1.2-22L368.8,0H400z M0,0l149.4,88h-37.5L0,21V0z"/>
<path id="path225" class="st15" d="M150.6,0v240h100V0H150.6z M0,80v80h400V80H0z"/>
<path id="path227" class="st16" d="M0,96.5v48h400v-48H0z M170.6,0v240h60V0H170.6z"/>
</svg>
