<?xml version="1.0" encoding="utf-8"?>
<!-- Generator: Adobe Illustrator 24.0.1, SVG Export Plug-In . SVG Version: 6.00 Build 0)  -->
<svg version="1.1" id="flag-icons-tg" xmlns="http://www.w3.org/2000/svg" xmlns:xlink="http://www.w3.org/1999/xlink" x="0px"
	 y="0px" viewBox="0 0 800 480" style="enable-background:new 0 0 800 480;" xml:space="preserve">
<style type="text/css">
	.st0{fill-rule:evenodd;clip-rule:evenodd;fill:#FFE300;}
	.st1{fill-rule:evenodd;clip-rule:evenodd;fill:#118600;}
	.st2{fill-rule:evenodd;clip-rule:evenodd;fill:#D80000;}
	.st3{fill:#FFFFFF;}
</style>
<path class="st0" d="M0,0h800v480H0V0z"/>
<path class="st1" d="M0,195.1h800v96.5H0V195.1z M0,0.2h800v96.5H0V0.2z"/>
<path class="st2" d="M0,0.3h287.3v291.2H0V0.3z"/>
<g>
	<path class="st3" d="M98,205.5c0,0,0.1,0,0.1-0.1C98,205.4,97.9,205.5,98,205.5z"/>
	<path class="st3" d="M213.2,120.5c0.2,0,0.3-0.1,0.3-0.1C213.5,120.3,213.4,120.4,213.2,120.5z"/>
	<path class="st3" d="M159.7,119.6l-15.9-48.9c0,0-17.7,48.9-17.7,49.7l-52.1,0.8l41.7,31.3c0,0-15.9,49.9-17.5,52.8
		c2.5-2.2,45.6-32,45.6-32s45.8,32.2,46.5,33.8c0.8,1.7-19.2-54.6-19.2-54.6s38.7-30.1,42.2-32.1
		C209.3,121.1,159.7,119.6,159.7,119.6z"/>
</g>
<path class="st1" d="M0,383.6h800V480H0V383.6z"/>
</svg>
