<?xml version="1.0" encoding="utf-8"?>
<!-- Generator: Adobe Illustrator 24.0.1, SVG Export Plug-In . SVG Version: 6.00 Build 0)  -->
<svg version="1.1" id="flag-icons-tj" xmlns="http://www.w3.org/2000/svg" xmlns:xlink="http://www.w3.org/1999/xlink" x="0px"
	 y="0px" viewBox="0 0 800 480" style="enable-background:new 0 0 800 480;" xml:space="preserve">
<style type="text/css">
	.st0{fill:#006600;}
	.st1{fill:#FFFFFF;}
	.st2{fill:#CC0000;}
	.st3{fill:#F8C300;}
</style>
<path class="st0" d="M0,0h800v480H0V0z"/>
<path class="st1" d="M0,0h800v342.9H0V0z"/>
<path class="st2" d="M0,0h800v137.1H0V0z"/>
<path class="st3" d="M447,274.9c-4.3,4-9.8,6.5-15.6,7c-14.3,1.2-26.9-9.3-28.2-23.6v-20.6c0.2-4.7,4.2-8.4,9-8.2
	c2.9,0.1,5.6,1.7,7,4.2c3.5-10.6-2.3-22-12.9-25.5c-10.6-3.5-22,2.3-25.5,12.9c-1.3,4.1-1.3,8.5,0,12.6v-0.1c2.4-4.1,7.7-5.5,11.8-3
	c2.5,1.5,4.1,4.1,4.2,7v20.7c-1.2,14.3-13.9,24.9-28.2,23.6c-5.9-0.5-11.4-3-15.6-7c-5.4,13.9-21.1,20.7-35,15.3
	c-2.1-0.8-4.2-1.9-6-3.3c2.5,25,40,19.9,42.8-4.4c11.7,20.7,37.5,14.7,45.2-10.5h0.1c7.6,25.2,33.5,31.2,45.2,10.5
	c2.8,24.3,40.3,29.4,42.8,4.4c-1.9,1.3-3.9,2.5-6,3.3C468.1,295.6,452.4,288.8,447,274.9z"/>
<path class="st3" d="M371.8,302.7c-0.3-0.2-3-1.6-8.2-1c-1-3.3-3.2-6.2-6.1-8.1c-2.2,2.3-3.7,6.7-2.9,9.8c-4,0.7-7.6,3.3-7.6,3.3
	C356.1,315.8,366.5,313.9,371.8,302.7z"/>
<path class="st3" d="M371.8,302.6C371.8,302.6,371.8,302.7,371.8,302.6c0,0.1,0,0.1,0,0.1L371.8,302.6z"/>
<path class="st3" d="M412.7,301.4c-0.3-0.2-2.7-2.1-7.9-2.3c-0.5-3.5-2.1-6.6-4.7-9c-2.5,1.9-4.7,6-4.5,9.2c-4.1,0-8,2-8,2
	C395.1,311.8,405.7,311.6,412.7,301.4z"/>
<path class="st3" d="M412.8,301.3C412.8,301.4,412.8,301.4,412.8,301.3C412.8,301.4,412.8,301.4,412.8,301.3L412.8,301.3z"/>
<path class="st3" d="M453,306.7c-0.3-0.3-2.3-2.5-7.4-3.5c0.1-3.5-1-6.9-3.2-9.6c-2.8,1.5-5.7,5.2-5.9,8.4c-4-0.6-8.3,0.7-8.3,0.7
	C433.9,314.1,444.3,315.7,453,306.7z"/>
<path class="st3" d="M453,306.7C453,306.7,453,306.7,453,306.7C453,306.8,453,306.8,453,306.7L453,306.7z"/>
<path class="st3" d="M331.9,322.5l3.1,10.5c42.5-12.6,87.4-12.6,129.9,0l3.1-10.5C423.5,309.3,376.5,309.3,331.9,322.5z"/>
<polygon class="st3" points="393.6,166.7 389.6,178.8 400,171.3 410.4,178.8 406.4,166.7 416.7,159.2 404,159.2 400,147 396,159.2 
	383.3,159.2 "/>
<polygon class="st3" points="345.6,179.6 341.6,191.7 352,184.2 362.4,191.7 358.4,179.6 368.7,172 356,172 352,159.9 348,172 
	335.3,172 "/>
<polygon class="st3" points="310.5,214.7 306.5,226.8 316.9,219.3 327.2,226.8 323.3,214.7 333.6,207.2 320.8,207.2 316.9,195 
	312.9,207.2 300.1,207.2 "/>
<polygon class="st3" points="304,267.3 314.4,274.8 310.4,262.7 320.8,255.2 308,255.2 304,243 300,255.2 287.3,255.2 297.6,262.7 
	293.6,274.8 "/>
<polygon class="st3" points="441.6,179.6 437.6,191.7 448,184.2 458.4,191.7 454.4,179.6 464.7,172 452,172 448,159.9 444,172 
	431.3,172 "/>
<polygon class="st3" points="476.7,214.7 472.8,226.8 483.1,219.3 493.5,226.8 489.5,214.7 499.9,207.2 487.1,207.2 483.1,195 
	479.2,207.2 466.4,207.2 "/>
<polygon class="st3" points="502.4,262.7 512.7,255.2 500,255.2 496,243 492,255.2 479.2,255.2 489.6,262.7 485.6,274.8 496,267.3 
	506.4,274.8 "/>
<g>
	<path class="st1" d="M385.4,224.7c5.8-1.2,11.6,1.4,14.6,6.5c3-5.1,8.8-7.7,14.6-6.5c-0.9-8.1-8.2-13.8-16.3-12.9
		C391.5,212.6,386.2,217.9,385.4,224.7"/>
</g>
</svg>
