<?xml version="1.0" encoding="utf-8"?>
<!-- Generator: Adobe Illustrator 24.0.1, SVG Export Plug-In . SVG Version: 6.00 Build 0)  -->
<svg version="1.1" id="flag-icons-tk" xmlns="http://www.w3.org/2000/svg" xmlns:xlink="http://www.w3.org/1999/xlink" x="0px"
	 y="0px" viewBox="0 0 800 480" style="enable-background:new 0 0 800 480;" xml:space="preserve">
<style type="text/css">
	.st0{fill:#00247D;}
	.st1{fill:#FED100;}
	.st2{fill:#FFFFFF;}
</style>
<path class="st0" d="M0,0h800v480H0V0z"/>
<path class="st1" d="M197.2,354.6c-6.7-0.1,62.8-37,120.9-84.4c76.2-62.1,240.3-161.4,288.6-177.6c5-1.7-10.3,8.6-12.3,11.9
	c-51.5,61-10.4,176,54,233.9c19.4,14.8,18.4,15.6,54.3,17v3.4L197.2,354.6L197.2,354.6z M193,361.3c0,0-4.9,3.5-4.9,6.1
	c0,2.9,5.5,6.7,5.5,6.7l498.5,5.5l9.2-6.1l-12.8-7.9L193,361.3L193,361.3z"/>
<path class="st2" d="M133.4,109.1l-4,12.2l10.4-7.5l10.3,7.5l-3.9-12.2l10.3-7.5h-12.8l-3.9-12.2l-4,12.2H123L133.4,109.1z
	 M211.5,166.5l8.6-6.3h-10.7l-3.3-10.1l-3.3,10.1h-10.6l8.6,6.3l-3.3,10.1l8.6-6.3l8.7,6.3L211.5,166.5z M66.3,179.5l-4-12.2
	l-3.9,12.2H45.6l10.3,7.5L52,199.2l10.3-7.5l10.4,7.5l-4-12.2l10.4-7.5H66.3z M144.4,301.8l-4.6-14.2l-4.6,14.2h-15l12.1,8.7
	l-4.6,14.3l12.1-8.8l12.1,8.8l-4.7-14.3l12.1-8.7H144.4z"/>
</svg>
