<?xml version="1.0" encoding="utf-8"?>
<!-- Generator: Adobe Illustrator 24.0.1, SVG Export Plug-In . SVG Version: 6.00 Build 0)  -->
<svg version="1.1" id="flag-icons-tm" xmlns="http://www.w3.org/2000/svg" xmlns:xlink="http://www.w3.org/1999/xlink" x="0px"
	 y="0px" viewBox="0 0 800 480" style="enable-background:new 0 0 800 480;" xml:space="preserve">
<style type="text/css">
	.st0{fill-rule:evenodd;clip-rule:evenodd;fill:#00843D;}
	.st1{fill-rule:evenodd;clip-rule:evenodd;fill:#FFFFFF;}
	.st2{fill-rule:evenodd;clip-rule:evenodd;fill:#CA3745;}
	.st3{fill-rule:evenodd;clip-rule:evenodd;fill:#FAAE29;}
	.st4{fill-rule:evenodd;clip-rule:evenodd;fill:#CA3745;stroke:#000000;stroke-width:0.1;}
	.st5{fill-rule:evenodd;clip-rule:evenodd;fill:#00843D;stroke:#FAAE29;stroke-width:1.4;}
	.st6{fill-rule:evenodd;clip-rule:evenodd;fill:#FAAE29;stroke:#000000;stroke-width:0.1;}
	.st7{fill-rule:evenodd;clip-rule:evenodd;fill:#CC0000;stroke:#000000;stroke-width:0.1;}
	.st8{fill-rule:evenodd;clip-rule:evenodd;fill:#990000;stroke:#000000;stroke-width:0.1;}
	.st9{fill-rule:evenodd;clip-rule:evenodd;fill:#00843D;stroke:#000000;stroke-width:0.3;}
	.st10{fill-rule:evenodd;clip-rule:evenodd;fill:#00843D;stroke:#000000;stroke-width:0.4;}
	.st11{fill-rule:evenodd;clip-rule:evenodd;fill:#FAAE29;stroke:#000000;stroke-width:0.3;}
	.st12{fill-rule:evenodd;clip-rule:evenodd;fill:#CA3745;stroke:#000000;stroke-width:0.3;}
	.st13{fill-rule:evenodd;clip-rule:evenodd;fill:#CA3745;stroke:#000000;stroke-width:0.4;}
	.st14{fill-rule:evenodd;clip-rule:evenodd;fill:#970000;stroke:#000000;stroke-width:0.3;}
	.st15{fill-rule:evenodd;clip-rule:evenodd;fill:#00843D;stroke:#000000;stroke-width:0.1;}
	.st16{fill-rule:evenodd;clip-rule:evenodd;fill:#CC0000;}
	.st17{fill-rule:evenodd;clip-rule:evenodd;fill:#FFFFFF;stroke:#000000;stroke-width:0.1;}
</style>
<path class="st0" d="M0,0h800v480H0V0z"/>
<g>
	<path class="st1" d="M315.6,180.6c37.6,18,82.2,0,98.4-25c16.7-23.4,18.7-62.6-10-98.5c44.4,36.9,54.4,78.7,32.2,113.2
		C406.6,209.7,341.2,208.5,315.6,180.6z"/>
	<path class="st1" d="M382.2,89l7.5,0.1l-5.9,4.7l2.3,7.5l-6.3-4.4l-6.1,4.4l2-7.4l-6.1-4.7l7.5-0.1l2.6-7.4L382.2,89z M345,135.8
		h7.5l-5.9,4.8l2.3,7.4l-6.3-4.4l-6.2,4.6l2.2-7.5l-6.1-4.6l7.5-0.3l2.4-7.4L345,135.8z M347.4,98.9h7.7l-6.1,4.8l2.3,7.4l-6.2-4.4
		l-6.2,4.6l2.2-7.5l-6.1-4.7l7.5-0.1l2.4-7.4L347.4,98.9z M347.4,61.9h7.7l-6.2,5l2.3,7.4L345,70l-6.2,4.4l2.2-7.4l-6.1-4.7l7.5-0.1
		l2.4-7.4L347.4,61.9z M306.1,108.8h7.5l-6.1,4.8l2.3,7.4l-6.2-4.4l-6.2,4.6l2.2-7.5l-6.1-4.6l7.5-0.3l2.4-7.4L306.1,108.8z"/>
</g>
<path class="st2" d="M84.5,0h154.3v480H84.5V0z"/>
<g>
	<path class="st3" d="M84.5,125.2v-3.5l6.4-8.5l-1.2-1.8l3.8-5.1l-1.2-1.8l-2.5,3.5l-1.3-1.7l9-12l1.3,1.7l-1.3,1.7l2.6,3.6l6.4-8.6
		l-6.5-8.3l-2.5,3.2l1.3,1.8l-1.3,1.7l-9-12l1.3-1.7l2.5,3.4l1.3-1.7l-3.8-5.2l1.2-1.7l-6.4-8.6V60l9,12l-1.3,1.7l3.8,5.2l-2.5,3.5
		l2.5,3.4l3.9-5.1l9.1,12.2l-9.1,11.8l-3.8-5.2l-2.6,3.5l2.5,3.5l-3.8,5.1l1.2,1.8L84.5,125.2L84.5,125.2z"/>
	<path class="st3" d="M84.5,82.3l1.3,3.4v5.2h3.8l2.6,1.7l-2.6,1.8h-3.8v5.1l-1.3,3.5L84.5,82.3L84.5,82.3z"/>
</g>
<g>
	<path class="st3" d="M84.5,207.5V204l6.4-8.5l-1.2-1.8l3.8-5.2l-1.2-1.7l-2.5,3.5l-1.3-1.8l9-12l1.3,1.8l-1.3,1.7l2.6,3.5l6.4-8.6
		l-6.5-8.3l-2.5,3.2l1.3,1.8l-1.3,1.7l-9-12l1.3-1.8l2.5,3.4l1.3-1.7l-3.8-5.2l1.2-1.7l-6.4-8.6v-3.4l9,12l-1.3,1.7l3.8,5.2
		l-2.5,3.4l2.5,3.5l3.8-5.2l9.1,12.2l-9.1,11.8l-3.8-5.2l-2.6,3.5l2.5,3.4l-3.8,5.2l1.2,1.8L84.5,207.5L84.5,207.5z"/>
	<path class="st3" d="M84.5,164.5l1.3,3.5v5.2h3.8l2.6,1.7l-2.6,1.7h-3.8v5.2l-1.3,3.5L84.5,164.5L84.5,164.5z"/>
</g>
<g>
	<path class="st3" d="M84.5,289.7v-3.4l6.4-8.6l-1.2-1.7l3.8-5.2l-1.2-1.7l-2.5,3.4l-1.3-1.7l9-12l1.3,1.7l-1.3,1.8l2.6,3.5l6.4-8.6
		l-6.5-8.4l-2.5,3.3l1.3,1.7l-1.3,1.7l-9-12l1.3-1.7l2.5,3.5l1.3-1.8l-3.8-5.1l1.2-1.8l-6.4-8.5v-3.5l9,12l-1.3,1.8l3.8,5.1
		l-2.5,3.5l2.5,3.5l3.9-5.2l9,12.2l-9.1,11.8l-3.8-5.2l-2.6,3.4l2.5,3.5l-3.8,5.2l1.2,1.7L84.5,289.7L84.5,289.7z"/>
	<path class="st3" d="M84.5,246.8l1.4,3.5v5.2h3.8l2.6,1.7l-2.6,1.6h-3.8v5.2l-1.3,3.5L84.5,246.8L84.5,246.8z"/>
</g>
<g>
	<path class="st3" d="M84.5,366.8v-3.5l6.4-8.5l-1.2-1.7l3.8-5.2l-1.2-1.7l-2.5,3.4l-1.3-1.7l9-12l1.3,1.7l-1.3,1.7l2.6,3.5l6.4-8.5
		l-6.5-8.4l-2.5,3.3l1.3,1.7l-1.3,1.7l-9-12l1.3-1.7l2.5,3.5l1.3-1.8l-3.8-5.2l1.2-1.7l-6.4-8.5v-3.5l9,12l-1.3,1.7l3.8,5.2
		l-2.5,3.5l2.5,3.4l3.9-5.1l9,12.2l-9.1,11.8l-3.8-5.2l-2.6,3.4l2.5,3.5l-3.8,5.2l1.2,1.7L84.5,366.8L84.5,366.8z"/>
	<path class="st3" d="M84.5,324l1.3,3.4v5.2h3.8l2.6,1.8l-2.6,1.7h-3.8v5.2l-1.3,3.4L84.5,324L84.5,324z"/>
</g>
<g>
	<path class="st3" d="M238.8,125.2v-3.5l-6.4-8.5l1.3-1.8l-3.8-5.1l1.2-1.8l2.6,3.5l1.3-1.7l-9-12l-1.3,1.7l1.3,1.7l-2.7,3.5
		l-6.3-8.6l6.4-8.3l2.6,3.2l-1.3,1.8l1.2,1.7l9-12l-1.2-1.7l-2.6,3.4l-1.2-1.7l3.8-5.2l-1.2-1.7l6.4-8.6V60l-8.9,12l1.2,1.7
		l-3.8,5.2l2.5,3.5l-2.6,3.4l-3.8-5.2l-9.1,12.2l9.1,11.8l3.8-5.2l2.6,3.5l-2.6,3.5l3.8,5.1l-1.2,1.8L238.8,125.2z"/>
	<path class="st3" d="M238.8,82.3l-1.3,3.4v5.2h-3.8l-2.6,1.7l2.5,1.8h3.8v5.1l1.3,3.5V82.3z"/>
</g>
<g>
	<path class="st3" d="M239.3,207.5V204l-6.4-8.5l1.2-1.8l-3.8-5.2l1.2-1.7l2.5,3.5l1.3-1.8l-9-12l-1.3,1.8l1.3,1.7l-2.6,3.5
		l-6.4-8.6l6.5-8.3l2.5,3.2l-1.3,1.7l1.3,1.8l9-12l-1.3-1.8l-2.5,3.5l-1.3-1.7l3.8-5.2l-1.2-1.7l6.4-8.6v-3.4l-9,12l1.3,1.7
		l-3.8,5.2l2.5,3.4l-2.5,3.5l-3.8-5.2l-9.1,12.2l9.1,11.8l3.8-5.2l2.6,3.5l-2.5,3.4l3.8,5.2l-1.2,1.7L239.3,207.5L239.3,207.5z"/>
	<path class="st3" d="M239.3,164.5L238,168v5.2h-3.9l-2.6,1.7l2.6,1.7h3.8v5.2l1.4,3.5L239.3,164.5L239.3,164.5z"/>
</g>
<g>
	<path class="st3" d="M238.8,289.7v-3.4l-6.4-8.6l1.3-1.7l-3.8-5.2l1.2-1.7l2.6,3.4l1.3-1.7l-9-12l-1.3,1.7l1.3,1.8l-2.7,3.5
		l-6.3-8.6l6.4-8.4l2.6,3.3l-1.3,1.7l1.2,1.7l9-12l-1.2-1.7l-2.6,3.5l-1.2-1.8l3.8-5.1l-1.2-1.8l6.4-8.5v-3.5l-8.9,12l1.2,1.8
		l-3.8,5.1l2.5,3.5l-2.6,3.5l-3.8-5.2l-9.1,12.2l9.1,11.8l3.8-5.2l2.6,3.4l-2.6,3.5l3.8,5.2l-1.2,1.7L238.8,289.7L238.8,289.7z"/>
	<path class="st3" d="M238.8,246.8l-1.3,3.5v5.2h-3.8l-2.6,1.7l2.5,1.7h3.8v5.2l1.3,3.5V246.8z"/>
</g>
<g>
	<path class="st3" d="M238.8,366.8v-3.5l-6.4-8.5l1.3-1.7l-3.8-5.2l1.2-1.7l2.6,3.4l1.3-1.7l-9-12l-1.3,1.7l1.3,1.7l-2.7,3.5
		l-6.3-8.5l6.4-8.4l2.6,3.3l-1.3,1.7l1.2,1.7l9-11.9l-1.2-1.7l-2.6,3.5l-1.2-1.8l3.8-5.2l-1.2-1.7l6.4-8.5v-3.5l-8.9,12l1.2,1.7
		l-3.8,5.2l2.5,3.5l-2.6,3.4l-3.8-5.1l-9.1,12.2l9.1,11.8l3.8-5.2l2.6,3.4l-2.6,3.5l3.8,5.2l-1.2,1.7L238.8,366.8L238.8,366.8z"/>
	<path class="st3" d="M238.8,324l-1.3,3.4v5.2h-3.8l-2.6,1.8l2.5,1.7h3.8v5.2l1.3,3.4V324L238.8,324z"/>
</g>
<path class="st3" d="M84.5,32.5v-3.4l6.4-8.6l-1.2-1.7l3.8-5.2L92.2,12l-2.5,3.5l-1.3-1.8l9-12l1.3,1.8l-1.3,1.7l2.6,3.5l6.4-8.6
	h2.6l-9,12l-3.9-5.2l-2.5,3.5l2.5,3.4l-3.8,5.2l1.1,1.8L84.5,32.5L84.5,32.5z M84.5,0h7.8l-2.6,1.7h-3.8v5.2l-1.5,3.5L84.5,0L84.5,0
	z M238.8,32.5v-3.4l-6.4-8.6l1.3-1.7l-3.8-5.2l1.2-1.7l2.6,3.5l1.2-1.8l-9-12l-1.2,1.8l1.2,1.7l-2.6,3.5L217,0h-2.6l9.1,12l3.8-5.2
	l2.6,3.5l-2.6,3.4l3.8,5.2l-1.2,1.7L238.8,32.5z M238.8,0h-7.7l2.5,1.7h3.8v5.2l1.3,3.5V0z"/>
<path class="st3" d="M148.8,473.2c0,0,5.6-9.8,19.5-12.7c14-3,16.4,6.5,24.4,6.5s20.6-6.6,20.6-6.6s-12.7,12.5-22.5,12.2
	c-9.7-0.3-12.9-6.6-23-5.6C157.9,467.9,148.8,473.4,148.8,473.2z"/>
<path class="st3" d="M175.8,473.2c0,0-5.5-9.8-19.4-12.7c-14.1-3-16.4,6.5-24.4,6.5s-20.6-6.6-20.6-6.6s12.7,12.5,22.4,12.2
	c9.8-0.3,13.1-6.6,23-5.6C166.8,467.9,175.8,473.4,175.8,473.2z"/>
<g>
	<path class="st3" d="M130.2,457c-1.2-2.5-4.3-13.8-2.7-15.2c2.5-0.9,9.1,10.6,8.4,20.8c-4.3,2.3-18.8-0.9-18.7-3.9
		C118.3,454.5,126.5,455.9,130.2,457z"/>
	<path class="st3" d="M121.4,447.2c-0.8-2.8-2.1-14.6-0.2-15.6c2.5-0.2,7.1,12.8,5,22.7c-4.6,1.1-18.3-6.1-17.6-9
		C110.2,441.6,117.9,445.1,121.4,447.2z"/>
	<path class="st3" d="M114.2,436.3c-0.6-3-0.8-15,1.1-15.6c2.5,0.2,6,13.9,3,23.3c-4.7,0.4-17.6-9-16.7-11.7
		C103.6,428.8,111.1,433.6,114.2,436.3z"/>
	<path class="st3" d="M108.6,424.7c-0.2-3.1,0.9-15,2.9-15.2c2.5,0.7,4.3,14.9,0.2,23.6c-4.6-0.6-16.3-12.5-15-15
		C99,415,105.8,421.3,108.6,424.7z"/>
	<path class="st3" d="M104.7,412.4c0.2-3.1,2.6-14.5,4.6-14.4c2.3,1.2,2.6,15.6-2.3,23.4c-4.5-1.5-14.9-15.5-13.4-17.8
		C96.2,401,102.2,408.6,104.7,412.4L104.7,412.4z"/>
	<path class="st3" d="M105.8,398.4c-0.3,12.2-2.5,12.4-6.6,3.4c-1.9-3.5-2.1-17.5-0.5-18.1C101.1,383.7,105.7,393.8,105.8,398.4
		L105.8,398.4z"/>
</g>
<g>
	<path class="st3" d="M193.8,458.4c1.2-2.6,4.3-13.9,2.7-15.3c-2.5-0.9-9,10.5-8.4,20.8c4.3,2.3,18.8-0.9,18.7-3.9
		C205.7,455.8,197.5,457.2,193.8,458.4L193.8,458.4z"/>
	<path class="st3" d="M202.6,448.5c0.8-2.8,2.1-14.6,0.3-15.6c-2.5-0.2-7.2,12.8-5,22.7c4.5,1.1,18.3-6.1,17.5-9
		C213.8,442.8,206,446.4,202.6,448.5z"/>
	<path class="st3" d="M209.7,437.6c0.6-3,0.8-15-1.1-15.6c-2.5,0.2-6,13.8-2.9,23.2c4.7,0.4,17.6-8.9,16.7-11.7
		C220.3,430,213,434.9,209.7,437.6L209.7,437.6z"/>
	<path class="st3" d="M215.3,425.9c0.2-3-0.9-14.9-2.9-15.1c-2.5,0.7-4.3,14.9-0.2,23.6c4.7-0.6,16.3-12.5,15.1-15
		C225,416.2,218.2,422.6,215.3,425.9z"/>
	<path class="st3" d="M219.2,413.6c-0.1-3-2.6-14.5-4.5-14.3c-2.4,1.1-2.7,15.6,2.3,23.4c4.5-1.5,14.8-15.5,13.3-17.8
		C227.7,402.3,221.7,409.9,219.2,413.6L219.2,413.6z"/>
	<path class="st3" d="M218.1,399.8c0.4,12.2,2.5,12.3,6.6,3.3c1.9-3.4,2.1-17.5,0.5-18C222.8,385,218.2,395.1,218.1,399.8z"/>
</g>
<g transform="matrix(.99985 0 0 1.26515 188.3 -77)">
	<path class="st4" d="M26.6,304.6H19v4.1h-7.4v4.1H-18l-5,4.2l2.5,2.1h12.4l2.4-2.1H-18l2.4-2.1H1.7l-7.4,6.2h-17.2l-4.9-2l-5,2
		h-17.3l-7.4-6.2h17.3l2.5,2.1h-12.4l2.5,2.1h12.4l2.4-2.1l-4.9-4.2h-27.2v-4.1h-7.4v-4.1h-7.4V286h7.4v-4.1h7.4v-4.2h27.2l4.9-4.1
		l-2.4-2.1h-12.4l-2.5,2.1h12.4l-2.5,2h-17.3l7.4-6.2h17.4l5,2.1l4.9-2.1h17.3l7.4,6.2h-17.3l-2.4-2h12.3l-2.5-2.1h-12.3l-2.7,2.1
		l5,4.1h29.6v4.2h7.4v4.1h7.5C26.6,286,26.6,304.6,26.6,304.6z"/>
	<path class="st5" d="M-77.2,288.2v14.4h7.4v4.1h7.4v4.1h24.8l9.9,6.2l9.8-6.2H9.3v-4.1l7.4-0.1v-4.1h7.5v-14.5h-7.5V284H9.4v-4.2
		h-27.2l-9.8-6.2l-9.9,6.2h-24.8v4.2h-7.4v4.1L-77.2,288.2L-77.2,288.2z"/>
	<path class="st2" d="M-42.6,281.9l-14.8,10.3v-10.3H-42.6z M-13,281.9l14.9,10.3v-10.3H-13z M-42.6,308.7l-14.8-10.3v10.3H-42.6z
		 M-13,308.7l14.9-10.3v10.3H-13z M-8,288.1l-5,4.1h9.9L-8,288.1z M-47.6,288.1l-4.9,4.1h9.8L-47.6,288.1z M-47.6,302.5l-4.9-4.1
		h9.8L-47.6,302.5z M-8,302.5l-5-4.1h9.9L-8,302.5z"/>
	<path class="st3" d="M-27.8,312.8l-5-4.1h9.9L-27.8,312.8z M-27.8,292.2l-5-4.1h9.9L-27.8,292.2z M-27.8,277.7l-5,4.2h9.9
		L-27.8,277.7z M-27.8,298.4l-5,4.1h9.9L-27.8,298.4z"/>
	<path class="st6" d="M-13,292.2h10v2h-9.9L-13,292.2z"/>
	<path class="st7" d="M-50,294.3h4.9v2.1H-50V294.3z M-10.4,294.3h4.9v2.1h-4.9V294.3z"/>
	<path class="st8" d="M-32.7,281.9h9.8v2h-9.8V281.9z M-32.7,286h9.8v2.1h-9.8V286z"/>
	<path class="st8" d="M-35.2,284h14.9v2.1h-14.9V284z M-32.7,302.6h9.8v2h-9.8V302.6z M-32.7,306.6h9.8v2h-9.8V306.6z M-35.2,304.6
		h14.9v2h-14.9V304.6z"/>
	<path class="st6" d="M-13,296.4h10v2h-9.9L-13,296.4z M-52.5,292.2h9.9v2h-9.9V292.2z M-52.5,296.3h9.9v2.1h-9.9V296.3z M-55,294.3
		h4.9v2.1H-55V294.3z M-45.1,294.3h4.9v2.1h-4.9V294.3z M-15.4,294.3h4.9v2.1h-4.9V294.3z M-5.5,294.3h4.9v2.1h-4.9V294.3z"/>
	<ellipse class="st1" cx="-33.9" cy="305.5" rx="0.6" ry="0.7"/>
	<ellipse class="st1" cx="-27.8" cy="305.5" rx="0.6" ry="0.7"/>
	<ellipse class="st1" cx="-21.6" cy="305.5" rx="0.6" ry="0.7"/>
	<ellipse class="st1" cx="-31.4" cy="303.6" rx="0.6" ry="0.7"/>
	<ellipse class="st1" cx="-24.1" cy="303.6" rx="0.6" ry="0.7"/>
	<ellipse class="st1" cx="-31.5" cy="307.6" rx="0.6" ry="0.7"/>
	<ellipse class="st1" cx="-24.1" cy="307.7" rx="0.6" ry="0.7"/>
	<ellipse class="st1" cx="-14.3" cy="295.2" rx="0.6" ry="0.7"/>
	<ellipse class="st1" cx="-8.1" cy="295.2" rx="0.6" ry="0.7"/>
	<ellipse class="st1" cx="-1.9" cy="295.2" rx="0.6" ry="0.7"/>
	<ellipse class="st1" cx="-11.7" cy="293.2" rx="0.6" ry="0.7"/>
	<ellipse class="st1" cx="-4.4" cy="293.2" rx="0.6" ry="0.7"/>
	<ellipse class="st1" cx="-11.8" cy="297.2" rx="0.6" ry="0.7"/>
	<ellipse class="st1" cx="-4.4" cy="297.3" rx="0.6" ry="0.7"/>
	<ellipse class="st1" cx="-33.9" cy="285" rx="0.6" ry="0.7"/>
	<ellipse class="st1" cx="-27.8" cy="285" rx="0.6" ry="0.7"/>
	<ellipse class="st1" cx="-21.6" cy="284.9" rx="0.6" ry="0.7"/>
	<ellipse class="st1" cx="-31.5" cy="282.9" rx="0.6" ry="0.7"/>
	<ellipse class="st1" cx="-24.1" cy="282.9" rx="0.6" ry="0.7"/>
	<ellipse class="st1" cx="-31.5" cy="287" rx="0.6" ry="0.7"/>
	<ellipse class="st1" cx="-24.1" cy="287.1" rx="0.6" ry="0.7"/>
	<ellipse class="st1" cx="-53.7" cy="295.4" rx="0.6" ry="0.7"/>
	<ellipse class="st1" cx="-47.5" cy="295.4" rx="0.6" ry="0.7"/>
	<ellipse class="st1" cx="-41.4" cy="295.3" rx="0.6" ry="0.7"/>
	<ellipse class="st1" cx="-51.2" cy="293.3" rx="0.6" ry="0.7"/>
	<ellipse class="st1" cx="-43.9" cy="293.3" rx="0.6" ry="0.7"/>
	<ellipse class="st1" cx="-51.3" cy="297.4" rx="0.6" ry="0.7"/>
	<ellipse class="st1" cx="-43.9" cy="297.5" rx="0.6" ry="0.7"/>
</g>
<path class="st1" d="M170.2,239.8l4.2-2.1l4.3,2.1H170.2z M157.5,239.8l4.2-2.1l4.3,2.1H157.5z M144.7,239.8l4.2-2.1l4.3,2.1H144.7z
	 M170.2,193.9l4.2,2.1l4.3-2L170.2,193.9L170.2,193.9z M157.5,193.9l4.2,2.1l4.3-2L157.5,193.9L157.5,193.9z M144.7,193.9l4.2,2.1
	l4.3-2L144.7,193.9L144.7,193.9z"/>
<path class="st0" d="M166.7,245.7l-5,4l-5-4l-5,4l-5-4v2.1l3.4,1.9l-1.7,2.1v2h1.7l1.6-1.9l1.7,1.9h1.7v-1.9l-1.7-2.1l3.3-2l3.4,1.9
	l-1.7,2.1v2h1.7l1.6-1.9l1.7,1.9h1.6v-1.9l-1.6-2.1l3.3-2l3.3,1.9l-1.6,2.1v2h1.6l1.7-1.9l1.7,1.9h1.6v-1.9l-1.6-2.1l3.3-2v-2.2
	l-5,4L166.7,245.7L166.7,245.7z M166.7,188l-5-4l-5,4l-5-4l-5,4v-2l3.4-2.1l-1.7-1.9V180h1.7l1.6,2l1.7-2h1.7v2l-1.7,2.1l3.3,1.9
	l3.4-1.9l-1.7-2.1v-2h1.7l1.6,2l1.7-2h1.6v2l-1.6,2.1l3.3,1.9l3.3-1.9l-1.6-2.1v-2h1.6l1.7,2l1.7-2h1.6v2l-1.6,2.1l3.3,1.9v2.1l-5-4
	L166.7,188L166.7,188z M204.2,221.2l5.4-4.3l-5.3-4.3l5.3-4.3l-5.3-4.3h2.6l2.7,2.8l2.6-1.4h2.6v1.5l-2.6,1.4l2.6,1.4v1.5h-2.6
	l-2.6-1.5l-2.7,2.9l2.7,2.8l2.6-1.3h2.6v1.4l-2.6,1.4l2.6,1.4v1.5h-2.6l-2.6-1.5l-2.7,2.9l2.7,2.8l2.6-1.4h2.6v1.5l-2.6,1.4l2.6,1.5
	v1.4h-2.6l-2.6-1.4l-2.7,2.8h-2.6l5.3-4.3L204.2,221.2L204.2,221.2z M119.2,221.2l-5.3-4.3l5.3-4.3l-5.3-4.3l5.3-4.3h-2.7l-2.6,2.8
	l-2.6-1.4h-2.8v1.5l2.8,1.3l-2.7,1.4v1.5h2.7l2.6-1.5l2.6,2.9l-2.6,2.8l-2.6-1.3h-2.8v1.4l2.7,1.4l-2.7,1.4v1.5h2.8l2.6-1.5l2.6,2.9
	l-2.6,2.9l-2.6-1.4h-2.8v1.4l2.7,1.4l-2.7,1.5v1.4h2.8l2.6-1.4l2.6,2.8h2.7l-5.3-4.3L119.2,221.2L119.2,221.2z"/>
<path class="st9" d="M206.3,235.8h2.2v1.9h-2.2V235.8z M204.1,237.8h2.2v2h-2L204.1,237.8z M193.6,247.8h2.2v2h-2.2V247.8z
	 M195.7,245.7h2v2h-2V245.7z M125.5,245.7h2.2v2h-2.3L125.5,245.7z M114.8,235.8h2.2v1.9h-2.2V235.8z M117,237.8h2.2v2H117V237.8z
	 M117,193.9h2.2v2H117V193.9z M114.8,195.9h2.2v2h-2.2V195.9z M127.7,184h2v2h-1.9L127.7,184z M125.5,186h2.2v2h-2.3L125.5,186z
	 M193.6,184h2.2v2h-2.2V184z M195.7,186h2v2h-2V186z M204.1,193.9h2.2v2h-2L204.1,193.9z M206.3,196h2.2v1.9h-2.2V196z M127.8,247.8
	h2v2h-2V247.8z"/>
<path class="st1" d="M155.2,216.8h-6.3v-3.9h4.2v-3.7h4.1v-3.4h4.2v4.2C158,210.1,155.2,212.9,155.2,216.8z"/>
<path class="st3" d="M167.8,216.8h6.3v-3.9h-4.2v-3.7h-4.2v-3.4h-4.1v4.2C165,210.1,167.8,212.9,167.8,216.8z"/>
<path class="st1" d="M167.8,216.8h6.3v3.9h-4.2v3.7h-4.2v3.4h-4.1v-4.2C165,223.6,167.8,220.8,167.8,216.8z"/>
<path class="st3" d="M155.2,216.8h-6.3v3.9h4.2v3.7h4.1v3.4h4.2v-4.2C158,223.6,155.2,220.8,155.2,216.8z"/>
<path class="st0" d="M167.8,216.8h-6.3v-6.8C165,210.1,167.8,213.2,167.8,216.8z"/>
<path class="st2" d="M167.8,216.8h-6.3v6.8C165,223.6,167.8,220.6,167.8,216.8z"/>
<path class="st0" d="M155.2,216.8h6.3v6.8C158,223.6,155.2,220.6,155.2,216.8z"/>
<path class="st2" d="M155.2,216.8h6.3v-6.8C158,210.1,155.2,213.2,155.2,216.8z"/>
<path class="st0" d="M168.1,241.8l-6.4-4l-6.4,4l-6.4-4l-6.4,4v-2l4.2-2.1l-2.1-2v-2h2.1l2.2,2l2.2-2h2.2v2l-2.2,2l4.2,2.1l4.3-2.1
	l-2.2-2v-2h2.2l2.1,2l2.2-2h2.2v2l-2.2,2l4.2,2.1l4.3-2.1l-2.2-2v-2h2.2l2.1,2l2.2-2h2.2v2l-2.2,2l4.2,2.1v1.9l-6.4-3.9L168.1,241.8
	z M168.1,192l-6.4,3.9l-6.4-3.9l-6.4,3.9l-6.4-3.9v1.9l4.2,2.1l-2.1,2v2.1h2.1l2.2-2.1l2.2,2.1h2.2v-2.2l-2.2-1.9l4.2-2.1l4.3,2
	l-2.2,2v2.1h2.2l2.1-2.1l2.2,2.1h2.2v-2.1l-2.2-1.9l4.2-2.1l4.3,2l-2.2,2v2.1h2.2l2.1-2.1l2.2,2.1h2.2v-2.1l-2.2-1.9l4.2-2.1v-2
	l-6.4,3.9L168.1,192L168.1,192z M191.5,221.8l-3.2-5l3.2-5l-3.2-5l3.2-5h-1.6l-1.6,3.3l-1.6-1.7h-1.6v1.7l1.6,1.7l-1.6,1.7v1.6h1.6
	l1.6-1.6l1.6,3.3l-1.6,3.3l-1.6-1.6h-1.6v1.6l1.6,1.7l-1.6,1.7v1.7h1.6l1.6-1.7l1.6,3.3l-1.6,3.4l-1.6-1.7h-1.6v1.7l1.6,1.6
	l-1.6,1.7v1.7h1.6l1.6-1.7l1.6,3.4h1.6l-3.2-5.1L191.5,221.8L191.5,221.8z"/>
<path class="st10" d="M142.6,194l-8.4,7.9v29.9l8.4,8H181l8.4-7.9V202l-8.5-8H142.6z M140.4,187.9l-21.2,20v18l21.4,19.8H183
	l21.2-19.9v-18L183,187.9h-42.5L140.4,187.9z"/>
<path class="st11" d="M151.4,241.7l3.4,4l3.5-4H151.4L151.4,241.7z"/>
<path class="st11" d="M151.4,192l3.4-4l3.5,4H151.4L151.4,192z"/>
<path class="st11" d="M165.1,192l3.4-4l3.5,4H165.1L165.1,192z"/>
<path class="st11" d="M165.1,241.7l3.4,4l3.5-4H165.1L165.1,241.7z"/>
<path class="st12" d="M144.7,192l3.4-4l3.5,4H144.7L144.7,192z"/>
<path class="st12" d="M158.3,192l3.4-4l3.5,4H158.3L158.3,192z"/>
<path class="st12" d="M171.9,192l3.4-4l3.5,4H171.9L171.9,192z"/>
<path class="st12" d="M136.3,235.8l6.3,5.9h-6.3V235.8z"/>
<path class="st0" d="M131.9,221.8l3.3-5l-3.3-5l3.2-5l-3.2-5h1.6l1.6,3.3l1.6-1.7h1.6v1.7l-1.6,1.7l1.6,1.7v1.6h-1.6l-1.6-1.6
	l-1.6,3.3l1.6,3.3l1.6-1.6h1.6v1.6l-1.6,1.7l1.6,1.7v1.7h-1.6l-1.6-1.7l-1.6,3.3l1.6,3.4l1.6-1.7h1.6v1.7l-1.6,1.6l1.6,1.7v1.7h-1.6
	l-1.6-1.7l-1.6,3.4h-1.6l3.2-5.1L131.9,221.8L131.9,221.8z"/>
<path class="st12" d="M193.5,211.5h8.5l2.2,1.8l-2.2,1.8h-8.4v-3.7L193.5,211.5z"/>
<path class="st13" d="M136.2,198l-4.3,4v29.8l4.3,4h-6.4V198L136.2,198L136.2,198z"/>
<path class="st12" d="M144.7,241.7l3.4,4l3.5-4H144.7L144.7,241.7z"/>
<path class="st12" d="M158.3,241.7l3.4,4l3.5-4H158.3L158.3,241.7z"/>
<path class="st12" d="M171.9,241.7l3.4,4l3.5-4H171.9L171.9,241.7z"/>
<path class="st13" d="M187.1,198l4.3,4v29.8l-4.3,4h6.4V198L187.1,198L187.1,198z"/>
<path class="st12" d="M187.2,235.8l-6.3,5.9h6.3V235.8z"/>
<path class="st12" d="M187.2,197.9l-6.3-5.9h6.3V197.9z"/>
<path class="st12" d="M136.3,197.9l6.3-5.9h-6.3V197.9z"/>
<path class="st10" d="M142.6,194l-8.4,7.9v29.9l8.4,8H181l8.4-7.9V202l-8.5-8H142.6z M142.6,192l-10.6,9.9v29.9l10.6,10H181l10.6-10
	v-29.9l-10.7-9.9H142.6z"/>
<path class="st11" d="M193.5,215h8.5l2.2,1.8l-2.2,1.8h-8.4v-3.7L193.5,215z"/>
<path class="st12" d="M193.5,218.6h8.5l2.2,1.8l-2.2,1.8h-8.4v-3.7L193.5,218.6z"/>
<path class="st11" d="M193.5,222.2h8.5l2.2,1.8l-2.2,1.8h-8.4v-3.7L193.5,222.2z"/>
<path class="st11" d="M193.5,207.8h8.5l2.2,1.8l-2.2,1.8h-8.4v-3.7L193.5,207.8z"/>
<path class="st12" d="M129.8,211.5h-8.5l-2.2,1.8l2.2,1.8h8.4v-3.7L129.8,211.5z"/>
<path class="st11" d="M129.8,215h-8.5l-2.2,1.8l2.2,1.8h8.4v-3.7L129.8,215z"/>
<path class="st12" d="M129.8,218.6h-8.5l-2.2,1.8l2.2,1.8h8.4v-3.7L129.8,218.6z"/>
<path class="st11" d="M129.8,222.2h-8.5l-2.2,1.8l2.2,1.8h8.4v-3.7L129.8,222.2z"/>
<path class="st11" d="M129.8,207.8h-8.5l-2.2,1.8l2.2,1.8h8.4v-3.7L129.8,207.8z"/>
<path class="st14" d="M117,196v41.6h10.7v10h68v-10h10.6V196h-10.6v-9.9h-68v9.9H117z M119.2,198v37.9h10.6v9.9h63.8v-9.9h10.7V198
	h-10.7v-9.8h-63.8v9.9h-10.6V198z"/>
<path class="st12" d="M214.8,40.3l-6.4-7.7v-5.7l-6.4-5.7h-12.7l-10.7-5.7h-34l-10.7,5.7h-12.7l-6.4,5.7v5.7l-6.4,7.6v15.5l6.4,7.6
	v5.8l6.4,5.7h12.7l10.7,5.7h34l10.7-5.7h12.7l6.5-5.7v-5.7l6.4-7.7V40.2L214.8,40.3z"/>
<path class="st3" d="M110.7,48v5.7l6.4,7.7v5.7l6.4,5.8h12.7l10.7,5.6h14.8V48.1L110.7,48L110.7,48z"/>
<path class="st2" d="M143.8,61.4l-7.8,5h-4.7l1.6,1.6l-3.1,3.3l1.6,1.7l4.7-1.7l1.5,1.7l0.7-4.4l8.6-5.2L143.8,61.4L143.8,61.4z"/>
<path class="st2" d="M135.2,57.6l-7.8,5h-4.6l1.5,1.6l-3,3.3l1.5,1.7l4.7-1.7l1.5,1.7l0.8-4.4l8.5-5.2L135.2,57.6L135.2,57.6z
	 M131,49.9l-7.8,5h-4.7l1.6,1.7l-3.1,3.3l1.6,1.6l4.7-1.7l1.5,1.7l0.7-4.4l8.6-5.2L131,49.9L131,49.9z"/>
<path class="st3" d="M212.7,48v-5.7l-6.4-7.7v-5.7l-6.4-5.8h-12.7l-10.6-5.7h-14.9V48L212.7,48L212.7,48z"/>
<path class="st2" d="M161.7,78.7h-3.9l-4.5-3.8h-7.3l-3.9-1.9l2-1.9l3.9,1.9h3.9l3.9-5.8l5.9,1.9v3.9h-5.9L161.7,78.7L161.7,78.7z"
	/>
<path class="st1" d="M110.7,48v-5.7l6.4-7.7v-5.7l6.4-5.8h12.7l10.7-5.7h14.8V48C161.7,48,110.7,48,110.7,48z"/>
<path class="st2" d="M161.7,17.3h-3.9l-4.5,3.8h-7.3l-3.9,2l2,1.9l3.9-1.9h3.9l3.9,5.8l5.9-1.9v-3.9h-5.9L161.7,17.3L161.7,17.3z"/>
<path class="st2" d="M161.7,17.3h3.9l4.6,3.8h7.2l3.9,2l-1.9,1.9l-4-1.9h-3.9l-3.9,5.8l-5.9-1.9v-3.9h5.9L161.7,17.3L161.7,17.3z"/>
<path class="st1" d="M212.7,48v5.7l-6.4,7.7v5.7l-6.4,5.8h-12.7l-10.6,5.6h-14.9V48.1L212.7,48L212.7,48z"/>
<path class="st2" d="M161.7,78.7h3.9l4.6-3.8h7.2l3.9-1.9l-1.9-1.9l-4,1.9h-3.9l-3.9-5.8l-5.9,1.9v3.9h5.9L161.7,78.7L161.7,78.7z
	 M135.2,38.3l-7.8-4.9h-4.6l1.5-1.6l-3-3.3l1.5-1.7l4.7,1.7l1.5-1.7l0.8,4.4l8.5,5.2C138.3,36.5,135.2,38.3,135.2,38.3z M179.7,34.6
	l7.7-5h4.7l-1.6-1.6l3.1-3.3l-1.5-1.7l-4.7,1.7l-1.5-1.7l-0.8,4.4l-8.5,5.2L179.7,34.6L179.7,34.6z"/>
<path class="st2" d="M143.8,34.6l-7.8-5h-4.7l1.6-1.6l-3.1-3.3l1.6-1.7l4.7,1.7l1.5-1.7l0.7,4.4l8.6,5.2L143.8,34.6L143.8,34.6z
	 M130.9,46.1l-7.8-5h-4.7l1.6-1.7l-3.1-3.3l1.8-1.5l4.7,1.7l1.5-1.7l0.7,4.4l8.6,5.2l-3.1,1.9H130.9z"/>
<path class="st1" d="M114.5,48h1.9l2,1.9l2-1.9h41.3v26.8h-1.9l1.9,1.9v2.1l-5.9-5.7v-1.9h2V73h2v-1.9l-15.9-8.4h-13.5v-8.4
	l-5.9-4.2h-3.9l-2,1.9l1.9,1.9h-1.9l-3.9-5.6L114.5,48z"/>
<path class="st3" d="M114.5,48h1.9l2-1.9l2,1.9h41.3V21.2h-1.9l1.9-1.9v-2l-5.9,5.7v1.9h2v-1.9h2v1.9l-15.9,8.5h-13.5v8.3l-5.9,4.3
	h-3.9l-2-1.9l1.9-2h-1.9C118.5,42.3,114.5,48,114.5,48z"/>
<path class="st0" d="M123.4,48h38.2v23l-17-9.6H132v-7.7L123.4,48L123.4,48z"/>
<path class="st2" d="M188.1,38.4l7.8-5h4.7l-1.6-1.6l3.1-3.3l-1.5-1.7l-4.7,1.7l-1.5-1.7l-0.8,4.4l-8.5,5.2L188.1,38.4L188.1,38.4z
	 M192.4,46.1l7.8-5h4.6l-1.6-1.7l3.1-3.3l-1.5-1.6l-4.7,1.7l-1.5-1.7l-0.8,4.4l-8.5,5.2L192.4,46.1L192.4,46.1z"/>
<path class="st1" d="M208.9,48h-2l-2-1.9l-2,1.9h-41.3V21.2h2l-2-1.9v-2l5.9,5.7v1.9h-2v-1.9h-2v1.9l15.9,8.5h13.5v8.3l6,4.3h3.9
	l1.9-1.9l-1.9-2h1.9L208.9,48L208.9,48z"/>
<path class="st0" d="M199.9,48h-38.2V25l17.1,9.6h12.8v7.7L199.9,48L199.9,48z"/>
<path class="st2" d="M179.7,61.4l7.7,5h4.7l-1.6,1.6l3.1,3.3l-1.5,1.7l-4.7-1.7l-1.5,1.7l-0.8-4.4l-8.5-5.2L179.7,61.4L179.7,61.4z"
	/>
<path class="st2" d="M188.1,57.6l7.8,5h4.7l-1.6,1.6l3.1,3.3l-1.5,1.7l-4.7-1.7l-1.5,1.7l-0.8-4.4l-8.5-5.2L188.1,57.6L188.1,57.6z
	 M192.4,49.9l7.8,5h4.6l-1.6,1.6l3.1,3.3l-1.5,1.7l-4.7-1.7l-1.5,1.7l-0.8-4.4l-8.5-5.2L192.4,49.9L192.4,49.9z"/>
<path class="st3" d="M208.9,48h-2l-2,1.9l-2-1.9h-41.3v26.8h2l-2,1.9v2.1l5.9-5.7v-1.9h-2V73h-2v-1.9l15.9-8.4h13.5v-8.4l6-4.2h3.9
	l1.9,1.9l-1.9,1.9h1.9l4-5.6L208.9,48z"/>
<path class="st2" d="M199.9,48h-38.2v23l17.1-9.6h12.8v-7.7L199.9,48L199.9,48z M123.4,48h38.2V25l-17,9.6H132v7.7L123.4,48
	L123.4,48z"/>
<path class="st2" d="M165.9,48l10.7-5.7h6.4l-2.2-1.9l4.3-3.9l-2.2-1.9l-6.4,1.9l-2.2-1.9l-0.9,5.2l-11.8,6L165.9,48L165.9,48z
	 M157.5,48l-10.6,5.7h-6.4l2.1,1.9l-4.2,3.9l2.2,1.9l6.4-1.9l2.1,1.9l0.9-5.2l11.8-6C161.7,50.2,157.5,48,157.5,48z"/>
<path class="st0" d="M157.5,48l-10.6-5.7h-6.4l2.2-1.9l-4.2-3.9l2.2-1.9l6.4,1.9l2.1-1.9l0.9,5.2l11.8,6L157.5,48L157.5,48z
	 M165.9,48l10.7,5.7h6.4l-2.2,1.9l4.3,3.9l-2.2,1.9l-6.4-1.9l-2.2,1.9l-0.9-5.2l-11.8-6L165.9,48L165.9,48z"/>
<path class="st1" d="M148.9,48l12.8-9.6l12.8,9.6l-12.8,9.6C161.7,57.6,148.9,48,148.9,48z"/>
<path class="st2" d="M120.3,51.8l2,1.9l-1.9,1.9h-2.1l-5.9-7.6h2l3.9,5.7h2l-1.9-1.9l1.9-1.9h4v1.9L120.3,51.8L120.3,51.8z"/>
<path class="st2" d="M120.3,44.2l2-1.9l-1.9-1.9h-2.1l-5.9,7.6h2l3.9-5.7h2l-1.9,1.9l1.9,1.9h4v-1.9H120.3L120.3,44.2z M203,51.8
	l-1.9,1.9l1.9,1.9h2l5.9-7.6H209l-4,5.7h-1.9l1.9-1.9l-1.9-1.9h-4v1.9C199.1,51.8,203,51.8,203,51.8z"/>
<path class="st2" d="M203.1,44.2l-2.1-1.9l2-1.9h2l5.9,7.6H209l-4-5.7h-1.9l1.9,1.9l-1.9,1.9h-4v-1.9H203.1L203.1,44.2z M159.7,40.4
	h3.9v15.3h-3.9V40.4z"/>
<path class="st2" d="M153.8,44.2h15.8v7.7h-15.8V44.2z"/>
<path class="st15" d="M143.7,339.2l-35.3,19.5v31.7l35.7,19.5h35.3l35.3-19.5v-31.7l-35.3-19.1H144L143.7,339.2z"/>
<path class="st16" d="M121.8,371.5h2.1v-4h4.3v3.9h2.2v-9.2h-2.2v3.9h-4.2v-3.9h-2.2V371.5L121.8,371.5z M176,402.1h2.2v-3.9h4.2
	v3.9h2.2v-9.3h-2.1v3.9h-4.3v-3.9h-2.1L176,402.1L176,402.1z M141.7,356.2h2.2v-3.8h4.3v3.9h2.1v-9.2h-2.1v3.9h-4.3v-3.9h-2.2V356.2
	L141.7,356.2z M173.1,356.2h2.2v-3.8h4.3v3.9h2.2v-9.2h-2.2v3.9h-4.3v-3.9h-2.2V356.2L173.1,356.2z M193.2,371.5h2.1v-4h4.3v3.9h2.2
	v-9.2h-2.2v3.9h-4.3v-3.9h-2.1V371.5L193.2,371.5z M193.2,386.8h2.1v-3.9h4.3v3.9h2.2v-9.2h-2.2v3.9h-4.3v-3.9h-2.1V386.8z"/>
<path class="st3" d="M161.7,408.2v-33.7h51.5v15.3l-34.4,18.4H161.7L161.7,408.2z M161.7,341v33.6h-51.4v-15.3l34.2-18.3H161.7z"/>
<path class="st1" d="M161.7,341v33.6h51.5v-15.3L178.8,341H161.7L161.7,341z M161.7,408.2v-33.7h-51.4v15.3l34.2,18.4H161.7z"/>
<path class="st6" d="M189.2,360.9h20.6l-20.6-9.1V360.9z M213.2,359.3v15.3h-32.5v-12.2h-6.9l-8.6-4.6v-10.7l5.2-4.7h-6.9v15.4h-1.7
	V341h17.1L213.2,359.3L213.2,359.3z"/>
<path class="st2" d="M144.5,363.8v21.5h5.2l12,6.2l12-6.2h5.2v-21.4h-5.2l-12-6.1l-12,6.1L144.5,363.8L144.5,363.8z"/>
<path class="st6" d="M134.3,388.3h-20.6l20.6,9.1V388.3z M110.3,389.8v-15.3h32.5v12.2h6.9l8.6,4.6V402l-5.2,4.7h6.9v-15.4h1.7v16.8
	h-17.1L110.3,389.8L110.3,389.8z"/>
<path class="st17" d="M134.3,360.9h-20.6l20.6-9.1V360.9z M110.3,359.3v15.3h32.5v-12.2h6.9l8.6-4.6v-10.7l-5.2-4.7h6.9v15.4h1.7
	V341h-17.1L110.3,359.3L110.3,359.3z"/>
<path class="st17" d="M189.2,388.3h20.6l-20.6,9.1V388.3z M213.2,389.8v-15.3h-32.5v12.2h-6.9l-8.6,4.6V402l5.2,4.7h-6.9v-15.4h-1.7
	v16.8h17.1L213.2,389.8L213.2,389.8z"/>
<path class="st2" d="M120.6,386.8h2.1v-4.7h4.3v4.7h2.2v-10.7H127v4.6h-4.3V376h-2.1V386.8z M141.2,402.1h2.2v-4.7h4.2v4.7h2.2
	v-10.7h-2.2v4.6h-4.2v-4.7h-2.2V402.1L141.2,402.1z M120.5,362.3h2.2v4.6h4.3v-4.7h2.2v10.9H127v-4.7h-4.3v4.6h-2.1L120.5,362.3
	L120.5,362.3z M141.2,347.1h2.2v4.6h4.2V347h2.2v10.8h-2.2v-4.6h-4.2v4.7h-2.2V347.1z M173.7,402.1h2.2v-4.7h4.3v4.7h2.2v-10.7h-2.2
	v4.6h-4.3v-4.7h-2.2V402.1L173.7,402.1z M194.3,373h2.2v-4.6h4.2v4.7h2.2v-10.8h-2.2v4.6h-4.1v-4.7h-2.2L194.3,373L194.3,373z"/>
<path class="st2" d="M173.7,402.1h2.2v-4.7h4.3v4.7h2.2v-10.7h-2.2v4.6h-4.3v-4.7h-2.2V402.1L173.7,402.1z"/>
<path class="st2" d="M173.7,402.1h2.2v-4.7h4.3v4.7h2.2v-10.7h-2.2v4.6h-4.3v-4.7h-2.2V402.1L173.7,402.1z M194.3,386.8h2.2v-4.7
	h4.2v4.7h2.2v-10.7h-2.2v4.5h-4.1V376h-2.2L194.3,386.8L194.3,386.8z M173.7,357.8h2.2v-4.6h4.3v4.7h2.2v-10.8h-2.2v4.6h-4.3V347
	h-2.2V357.8z"/>
<path class="st1" d="M163.5,374.5l6.8-5.6h3.4v2.8h-3.4v1.4h5.2v-5.5h-5.2v-4.2h-6.8v4.2h1.7v-2.8h3.4v2.8l-6.8,5.6l-6.8-5.6v-2.8
	h3.5v2.8h1.7v-4.2h-6.8v4.2H148v5.6h5.2v-1.4h-3.5V369h3.5l6.8,5.6l-6.8,5.5h-3.5v-2.8h3.5v-1.4H148v5.6h5.2v4.1h6.8v-4.1h-1.7v2.8
	h-3.5v-2.8l6.8-5.6l6.8,5.6v2.8h-3.4v-2.8h-1.7v4.1h6.8v-4.1h5.2v-5.6h-5.2v1.4h3.4v2.8h-3.4L163.5,374.5z"/>
<g transform="matrix(1.0321 0 0 .95838 204.8 18.2)">
	<path class="st2" d="M-88.3,124.7l3.2-3.6h19.3l14.4-15.7h19.3l14.4,15.8H1.7l3.2,3.5l-3.2,3.5h-19.4l-14.4,15.8h-19.3l-14.3-15.8
		h-19.4L-88.3,124.7L-88.3,124.7z"/>
	<path class="st12" d="M-86.7,125l1.7-1.7H-65l14.9-16.5h16.6l15,16.6H1.4l1.7,1.7l-1.7,1.6h-19.9l-13.4,14.9h-19.9L-65,126.7h-20
		L-86.7,125z"/>
	<path class="st3" d="M-33.6,126.5l6.4,6.9l-3.2,3.5l-1.7-1.7h-1.5v1.7l1.6,1.8h3.3l3.2-3.5v-3.6l-6.5-6.9l6.5-7v-3.5l-3.2-3.5h-3.3
		l-1.6,1.7v1.8h1.6l1.7-1.8l3.2,3.6l-6.5,6.9L-40,116l6.4-7v-1.8h-1.6l-6.4,7l-6.5-7h-1.6v1.8l6.4,7l-6.4,6.9l-6.5-6.9l3.3-3.6
		l1.6,1.8h1.6v-1.8l-1.6-1.7h-3.3l-3.2,3.5v3.5l6.5,7l-6.5,6.9v3.6l3.2,3.5h3.3l1.6-1.8v-1.7h-1.8l-1.6,1.7l-3.3-3.5l6.5-6.9
		l6.4,6.9l-6.4,7v1.7h1.6l6.5-6.9l6.4,6.9h1.6v-1.7l-6.4-7l6.4-6.9H-33.6z M-41.7,117.7l-6.5,7l6.5,6.9l6.4-6.9
		C-35.3,124.7-41.7,117.7-41.7,117.7z M-51.4,143.9V158l1.6-1.9l1.6,1.9l1.6-1.9l1.6,1.9l1.7-1.9l1.6,1.9l1.6-1.9l1.6,1.9l1.6-1.9
		l1.6,1.9l1.6-1.9l1.7,1.9v-14.1H-51.4L-51.4,143.9z M-32.1,105.5V91.4l-1.7,1.9l-1.6-1.9l-1.6,1.9l-1.6-1.9l-1.6,1.9l-1.6-1.9
		l-1.7,1.9l-1.6-1.9l-1.6,1.9l-1.6-1.9l-1.6,1.9l-1.6-1.9v14.1H-32.1L-32.1,105.5z M-4.9,121.3v-14.1l-1.5,1.9l-1.6-1.9l-1.6,1.9
		l-1.7-1.9l-1.6,1.9l-1.6-1.9l-1.6,1.9l-1.6-1.9v14.1H-4.9L-4.9,121.3z M-65.8,121.3v-14.1l-1.7,1.9l-1.6-1.9l-1.6,1.9l-1.6-1.9
		l-1.6,1.9l-1.6-1.9l-1.7,1.9l-1.6-1.9v14.1H-65.8L-65.8,121.3z M-4.8,128.2v14.1l-1.6-1.9l-1.6,1.9l-1.6-1.9l-1.7,1.9l-1.6-1.9
		l-1.6,1.9l-1.6-1.9l-1.6,1.9v-14.1C-17.6,128.2-4.8,128.2-4.8,128.2z M-65.9,128.2v14.1l-1.6-1.9l-1.6,1.9l-1.6-1.9l-1.6,1.9
		l-1.6-1.9l-1.6,1.9l-1.7-1.9l-1.6,1.9v-14.1H-65.9L-65.9,128.2z"/>
	<path class="st0" d="M-32.1,143.9v8.7l1.7-1.8l1.6,1.9l1.6-1.9l1.6,1.9l1.6-1.9l1.6,1.9l1.7-1.9l1.6,1.9l1.6-1.9v-22.7
		C-17.6,128.2-32.1,143.9-32.1,143.9z M-51.4,143.9v8.7l-1.7-1.8l-1.6,1.9l-1.6-1.9l-1.6,1.9l-1.6-1.9l-1.6,1.9l-1.6-1.9l-1.6,1.9
		l-1.7-1.9v-22.7L-51.4,143.9L-51.4,143.9z M-51.4,105.5v-8.7l-1.7,1.7l-1.6-1.7l-1.6,1.7l-1.6-1.7l-1.6,1.7l-1.6-1.7l-1.6,1.7
		l-1.6-1.7l-1.7,1.7v22.8L-51.4,105.5L-51.4,105.5z M-32.1,105.5v-8.7l1.7,1.7l1.6-1.7l1.6,1.7l1.6-1.7l1.6,1.7l1.6-1.7l1.6,1.7
		l1.7-1.7l1.6,1.7v22.8C-17.6,121.3-32.1,105.5-32.1,105.5z M-78.7,138.7l-1.6-1.8l-1.6,1.9l-1.6-1.9l-1.6,1.9l-1.6-1.9l-1.7,1.9
		l-1.6-1.9l-1.6,1.9v-28.1l1.6,1.9l1.6-1.9l1.7,1.9l1.6-1.9l1.6,1.9l1.6-1.9l1.6,1.9l1.6-1.9v10.6h-6.4l-3.3,3.5l3.3,3.5h6.4V138.7z
		 M-4.8,138.7l1.6-1.8l1.6,1.9l1.6-1.9l1.7,1.9l1.6-1.9l1.6,1.9l1.6-1.9l1.6,1.9v-28.1l-1.6,1.9l-1.6-1.9l-1.6,1.9l-1.6-1.9L0,112.5
		l-1.6-1.9l-1.6,1.9l-1.6-1.9v10.6h6.5l3.2,3.5l-3.2,3.5h-6.5V138.7z"/>
	<path class="st1" d="M-59.3,145.1c0,0-1.3,1.3-1.3,2.1c0,0.7,1.4,2.1,2.1,2.1c0.8,0,2-1.4,2-2.1c0-0.7-1.3-2.1-1.3-2.1v-2.8
		c0,0,2.8,4.8,2.8,2.7c0-1.5-2.8-4-2.8-4h-1.4c0,0-2.8,3-2.8,4c0,2.1,2.8-2.7,2.8-2.7S-59.3,145.1-59.3,145.1z"/>
	<path class="st2" d="M-42.6,150.4c0,0-1.6,1.9-1.6,2.8s1.7,3,2.4,3c0.9,0,2.3-2,2.3-2.9s-1.6-2.9-1.6-2.9v-3.9c0,0,2.8,6.4,2.8,3.5
		c0-1.9-2.8-5.3-2.8-5.3h-1.6c0,0-3.3,4.3-2.8,5.3c0,2.9,2.8-3.5,2.8-3.5L-42.6,150.4L-42.6,150.4z"/>
	<ellipse class="st0" cx="-59.5" cy="124.6" rx="3.2" ry="1.8"/>
	<ellipse class="st0" cx="-41.7" cy="124.6" rx="3.2" ry="1.8"/>
	<ellipse class="st0" cx="-24.1" cy="124.6" rx="3.2" ry="1.8"/>
	<path class="st1" d="M-59.6,104.6c0,0-1.3-1.4-1.3-2.1c0-0.7,1.4-2.2,2-2.2c0.8,0,2,1.4,2,2.1c0,0.8-1.3,2.2-1.3,2.2v2.8
		c0,0,2.9-4.9,2.9-2.8c0,1.5-2.8,4.1-2.8,4.1h-1.4c0,0-2.9-3-2.9-4c0-2.1,2.8,2.6,2.8,2.6L-59.6,104.6L-59.6,104.6z"/>
	<path class="st2" d="M-42.9,99.1c0,0-1.6-1.9-1.6-2.8s1.8-2.9,2.4-2.9c0.9,0,2.4,1.9,2.4,2.8s-1.6,3-1.6,3v3.8c0,0,2.8-6.3,2.8-3.4
		c0,1.9-2.8,5.4-2.8,5.4H-43c0,0-3.3-4.4-2.8-5.4c0-2.8,2.8,3.5,2.8,3.5L-42.9,99.1L-42.9,99.1z"/>
	<path class="st1" d="M-25.1,145.1c0,0-1.3,1.3-1.3,2.1c0,0.7,1.4,2.1,2.1,2.1c0.8,0,2-1.4,2-2.1c0-0.7-1.3-2.1-1.3-2.1v-2.8
		c0,0,2.8,4.8,2.8,2.7c0-1.5-2.8-4-2.8-4h-1.5c0,0-2.8,3-2.8,4c0,2.1,2.8-2.7,2.8-2.7L-25.1,145.1L-25.1,145.1z M-25.4,104.6
		c0,0-1.3-1.4-1.3-2.2c0-0.6,1.4-2.1,2-2.1c0.7,0,2,1.4,2,2.1c0,0.8-1.3,2.2-1.3,2.2v2.8c0,0,2.9-4.9,2.9-2.8c0,1.5-2.8,4.1-2.8,4.1
		h-1.4c0,0-2.9-3-2.9-4c0-2.1,2.8,2.6,2.8,2.6L-25.4,104.6L-25.4,104.6z"/>
	<path class="st2" d="M-73.3,135.3c0,0-1.8,1.3-1.8,1.9c0,0.7,1.9,2.1,2.7,2c0.9,0,2.6-1.2,2.6-1.9c0-0.7-1.8-2-1.8-2v-2.6
		c0,0,3.2,4.2,3.2,2.3c0-1.3-3.2-3.7-3.2-3.7h-1.8c0,0-3.7,3-3.1,3.7c0,1.9,3.1-2.3,3.1-2.3V135.3z M-73.7,115.5c0,0-1.8-1.3-1.8-2
		c0-0.7,1.9-2,2.7-1.9c0.9,0,2.6,1.2,2.6,1.9c0,0.7-1.8,1.9-1.8,1.9v2.6c0,0,3.2-4.2,3.2-2.2c0,1.2-3.2,3.6-3.2,3.6h-1.8
		c0,0-3.7-2.9-3.1-3.6c0-1.9,3.1,2.2,3.1,2.2V115.5z M-11.5,134.8c0,0-1.9,1.3-1.9,2c0,0.7,2,2,2.8,2c0.9,0,2.6-1.3,2.6-1.9
		c0-0.8-1.9-2.1-1.9-2.1v-2.5c0,0,3.2,4.2,3.2,2.2c0-1.2-3.1-3.6-3.1-3.6h-1.9c0,0-3.6,2.9-3.1,3.6c0,2,3.2-2.2,3.2-2.2L-11.5,134.8
		L-11.5,134.8z M-11.9,115.2c0,0-1.9-1.3-1.9-2c0-0.7,2-2,2.8-2c0.9,0,2.6,1.3,2.6,1.9c0,0.8-1.9,2-1.9,2v2.6c0,0,3.2-4.2,3.2-2.3
		c0,1.3-3.1,3.7-3.1,3.7H-12c0,0-3.6-2.9-3.1-3.6c0-2,3.2,2.2,3.2,2.2L-11.9,115.2L-11.9,115.2z"/>
	<path class="st1" d="M-86.4,135.1c-0.6-1.2-0.4-1.8-0.4-2.4c0-0.7,1.6-1.9,2.2-1.9c0.8,0,2,1.3,2,2.1c0,0.7,0,1.2-0.3,2.4l-0.8-2
		c-1,2.8-1.1,2.8-1.7-0.1L-86.4,135.1L-86.4,135.1z M-86.4,115c-0.5,1.2-0.4,1.8-0.4,2.4c0,0.7,1.6,1.9,2.2,1.9c0.8,0,2-1.3,2-2.1
		c0-0.7,0-1.2-0.3-2.4l-0.8,2c-0.9-2.8-1-2.8-1.7,0.1L-86.4,115L-86.4,115z M0.3,134.8c-0.6-1.2-0.5-1.8-0.5-2.4
		c0-0.7,1.7-1.9,2.2-1.9c0.7,0,2,1.4,2,2.1c0,0.7,0,1.3-0.3,2.4l-0.8-2c-0.9,2.8-1,2.9-1.7,0L0.3,134.8L0.3,134.8z M0.3,114.8
		c-0.6,1.1-0.4,1.7-0.4,2.4c0,0.6,1.6,1.9,2.2,1.9c0.7,0,2.1-1.4,2.1-2.1c0-0.8,0-1.3-0.3-2.5l-0.9,2.1c-0.9-2.9-0.9-3-1.6,0
		L0.3,114.8L0.3,114.8z"/>
	<path class="st4" d="M-51.6,158.4v-5.1h-15v-9.9H-80v-3.3h-11.6v-30H-80v-3.3h13.3v-9.9h15v-5h19.9v5h15v9.9h13.2v3.4H8.2v29.9
		H-3.5v3.3h-13.2v9.9h-15v5L-51.6,158.4L-51.6,158.4z M-53.3,160v-5h-15v-9.9h-13.2v-3.4h-11.6v-33.2h11.6v-3.3h13.2v-10h15v-5h23.2
		v5h15v10h13.2v3.3H9.8v33.2H-1.9v3.4h-13.3v9.9h-15v5L-53.3,160L-53.3,160z"/>
</g>
</svg>
