<?xml version="1.0" encoding="utf-8"?>
<!-- Generator: Adobe Illustrator 24.0.1, SVG Export Plug-In . SVG Version: 6.00 Build 0)  -->
<svg version="1.1" id="flag-icons-tn" xmlns="http://www.w3.org/2000/svg" xmlns:xlink="http://www.w3.org/1999/xlink" x="0px"
	 y="0px" viewBox="0 0 800 480" style="enable-background:new 0 0 800 480;" xml:space="preserve">
<style type="text/css">
	.st0{fill-rule:evenodd;clip-rule:evenodd;fill:#E70013;}
	.st1{fill-rule:evenodd;clip-rule:evenodd;fill:#FFFFFF;}
</style>
<path class="st0" d="M0,0h800v480H0V0z"/>
<path class="st1" d="M521.7,239.8c0,66.8-54.2,121-121,121.1c-66.8,0-121-54.2-121.1-121c0,0,0,0,0-0.1c0-66.8,54.2-121,121.1-121
	C467.5,118.8,521.7,173,521.7,239.8z"/>
<path class="st0" d="M359.3,240.5c0-20.1,14.9-69.9,73.6-72.1c-8.5-6.3-21.2-8.9-32.2-8.9c-42.2,1.4-76.1,35.3-77.6,77.6
	c-1.5,44.3,33.2,81.5,77.6,83c11.1,0,24.9-3.5,32.2-8.2C368.8,305.2,359.3,260.5,359.3,240.5z"/>
<polygon class="st0" points="473.8,210.8 436.5,221.1 414.7,188.9 413.1,227.6 375.8,238.3 412.2,251.9 410.8,290.6 434.9,260.2 
	471.3,273.6 449.9,241.2 "/>
</svg>
