<?xml version="1.0" encoding="utf-8"?>
<!-- Generator: Adobe Illustrator 24.0.1, SVG Export Plug-In . SVG Version: 6.00 Build 0)  -->
<svg version="1.1" id="flag-icons-tv" xmlns="http://www.w3.org/2000/svg" xmlns:xlink="http://www.w3.org/1999/xlink" x="0px"
	 y="0px" viewBox="0 0 800 480" style="enable-background:new 0 0 800 480;" xml:space="preserve">
<style type="text/css">
	.st0{fill:#009FCA;}
	.st1{fill:#FFF40D;}
	.st2{fill:#012169;}
	.st3{fill:#FFFFFF;}
	.st4{fill:#C8102E;}
</style>
<path id="rect891" class="st0" d="M0,0h800v480H0V0z"/>
<g>
	<polygon class="st1" points="548.7,228.7 557.1,253.4 565.6,228.7 593.1,228.7 570.8,213.5 579.4,188.8 557.1,204.1 534.8,188.8 
		543.3,213.5 521,228.7 	"/>
	<polygon class="st1" points="467.4,341.2 475.9,365.8 484.4,341.2 511.9,341.2 489.6,325.9 498.2,301.3 475.9,316.5 453.6,301.3 
		462.1,325.9 439.8,341.2 	"/>
	<polygon class="st1" points="671.7,162.6 693.9,147.3 716.2,162.6 707.7,137.9 730,122.7 702.3,122.7 693.9,98 685.4,122.7 
		657.9,122.7 680.2,137.9 	"/>
	<polygon class="st1" points="617,205.4 625.5,230 634,205.4 661.6,205.4 639.2,190.1 647.8,165.5 625.5,180.7 603.2,165.5 
		611.8,190.1 589.4,205.4 	"/>
	<polygon class="st1" points="579.6,360 557.3,375.2 535,360 543.3,384.8 521,400 548.7,400 557.3,424.6 565.8,399.9 593.3,399.9 
		571,384.7 	"/>
	<polygon class="st1" points="702.3,274.9 693.9,250.2 685.4,274.9 657.9,274.9 680.2,290.1 671.7,314.8 693.9,299.5 716.2,314.8 
		707.7,290.1 730,274.9 	"/>
	<polygon class="st1" points="633.1,319.5 624.5,294.8 616,319.5 588.6,319.5 610.9,334.7 602.3,359.4 624.6,344.1 646.9,359.4 
		638.4,334.7 660.7,319.5 	"/>
	<polygon class="st1" points="404.8,417.7 396.3,392.9 387.8,417.5 360.2,417.5 382.6,432.8 374,457.4 396.3,442.2 418.6,457.4 
		410,432.8 432.4,417.7 	"/>
	<polygon class="st1" points="498.2,380 475.9,395.2 453.6,380 462.1,404.7 439.8,419.9 467.4,419.9 476,444.7 484.5,420 512,420 
		489.6,404.6 	"/>
</g>
<g id="g1551" transform="scale(.5)">
	<path id="path1529" class="st2" d="M0,0h800v480H0V0z"/>
	<path id="path1531" class="st3" d="M93.8,0l305,181L702.5,0H800v62L500,241l300,178v61H700L400,301L101.2,480H0v-60l298.8-178L0,64
		V0H93.8z"/>
	<path id="path1533" class="st4" d="M530,281l270,159v40L461.2,281H530z M300,301l7.5,35l-240,144H0L300,301z M800,0v3L488.8,191
		l2.5-44L737.5,0H800z M0,0l298.8,176h-75L0,42V0z"/>
	<path id="path1535" class="st3" d="M301.2,0v480h200V0H301.2z M0,160v160h800V160H0z"/>
	<path id="path1537" class="st4" d="M0,193v96h800v-96H0z M341.2,0v480h120V0H341.2z"/>
</g>
</svg>
