<?xml version="1.0" encoding="utf-8"?>
<!-- Generator: Adobe Illustrator 24.0.1, SVG Export Plug-In . SVG Version: 6.00 Build 0)  -->
<svg version="1.1" id="flag-icons-ug" xmlns="http://www.w3.org/2000/svg" xmlns:xlink="http://www.w3.org/1999/xlink" x="0px"
	 y="0px" viewBox="0 0 800 480" style="enable-background:new 0 0 800 480;" xml:space="preserve">
<style type="text/css">
	.st0{fill-rule:evenodd;clip-rule:evenodd;fill:#FFE700;}
	.st1{fill-rule:evenodd;clip-rule:evenodd;}
	.st2{fill-rule:evenodd;clip-rule:evenodd;fill:#DE3908;}
	.st3{fill-rule:evenodd;clip-rule:evenodd;fill:#FFFDFF;stroke:#000000;stroke-width:0.9375;stroke-miterlimit:3.75;}
	.st4{fill-rule:evenodd;clip-rule:evenodd;fill:#DE3108;stroke:#000000;stroke-width:0.9375;stroke-miterlimit:3.75;}
	.st5{fill-rule:evenodd;clip-rule:evenodd;fill:#FFE700;stroke:#000000;stroke-width:0.9375;stroke-miterlimit:3.75;}
	
		.st6{fill-rule:evenodd;clip-rule:evenodd;stroke:#000000;stroke-width:0.8438;stroke-linecap:round;stroke-linejoin:round;stroke-miterlimit:3.75;}
	
		.st7{fill-rule:evenodd;clip-rule:evenodd;fill:#9CA69C;stroke:#9CA69C;stroke-width:0.8438;stroke-linecap:round;stroke-linejoin:round;stroke-miterlimit:3.75;}
	.st8{fill-rule:evenodd;clip-rule:evenodd;fill:#9CA69C;stroke:#9CA69C;stroke-width:0.9375;stroke-miterlimit:3.75;}
	.st9{fill-rule:evenodd;clip-rule:evenodd;fill:#FFFFFF;}
	
		.st10{fill-rule:evenodd;clip-rule:evenodd;fill:#FFFFFF;stroke:#FFFFFF;stroke-width:0.8438;stroke-linecap:round;stroke-linejoin:round;stroke-miterlimit:3.75;}
	.st11{fill-rule:evenodd;clip-rule:evenodd;fill:#9CA69C;stroke:#000000;stroke-width:0.9375;stroke-miterlimit:3.75;}
	
		.st12{fill-rule:evenodd;clip-rule:evenodd;fill:#DE3108;stroke:#000000;stroke-width:0.8438;stroke-linejoin:round;stroke-miterlimit:3.75;}
	
		.st13{fill-rule:evenodd;clip-rule:evenodd;fill:#FFFFFF;stroke:#000000;stroke-width:0.8438;stroke-linecap:round;stroke-linejoin:round;stroke-miterlimit:3.75;}
	.st14{fill:none;stroke:#FFFFFF;stroke-width:0.8438;stroke-linecap:round;stroke-miterlimit:3.75;}
</style>
<path class="st0" d="M0,320.1h800v80H0V320.1z"/>
<path class="st1" d="M0,240h800v80H0V240z"/>
<path class="st2" d="M0,160h800v80H0V160z"/>
<path class="st0" d="M0,80.1h800v80H0V80.1z"/>
<path class="st1" d="M0,0h800v80H0V0z"/>
<path class="st3" d="M474.7,240c0,41.3-33.5,74.7-74.7,74.7s-74.7-33.5-74.7-74.7s33.5-74.7,74.7-74.7S474.7,198.7,474.7,240z"/>
<path class="st4" d="M386.9,182.7l-4.9-8.9c1.9-1.9,5-3.4,10-3.4l-0.6,9.8L386.9,182.7L386.9,182.7z"/>
<path class="st5" d="M391.6,180.3l0.7-9.8c0,0,10-0.6,15.5,6l-5.3,7.7L391.6,180.3L391.6,180.3z"/>
<path class="st4" d="M402.4,184l5-7.7c3.3,3.5,4.7,5.9,5.2,9.7c0.1,0.1-7.8,2-7.8,1.9L402.4,184z"/>
<path class="st6" d="M389.3,310.4c0,0,9.3-10.6,27.3-8.3c-2.7-4.4-11.5-3.8-11.5-3.8s-2.6-20.6-0.6-21.8c2.1-1.1,11.2,0.1,11.2,0.1
	c1.1,0,3.2-3.2,1.5-5.2c-1.6-2.1-6.4-9.8-4.4-11.4c2-1.5,12.6,0.9,12.6,0.9l-30-38.4c0,0-3.1-14.5,3.1-21.6
	c7.4-6.1,6.6-12.8,6.4-12.7c-1-6.7-11.2-11.5-18.2-5.3c-4,4.9-1.3,8.6-1.3,8.6s-10.8,2.9-11.2,4.8c-0.5,1.9,12.1-0.3,12.1-0.3
	l-1.2,8.5c0,0-24.4,22.1-5.6,41.2l0.6-0.7c0,0,6.6,8.1,13.4,9.8c6.6,6.6,5.9,5.6,5.9,5.6s1.2,10.4,0,12.5
	c-1.6-0.5-18.1-1.1-20.5-0.2c-2.2,0.7-10.7,0.3-8.6,14.2l3.1-7c0,0-0.3,5,1.8,6.8c-0.4-5.2,2-8.8,2-8.8s0.4,5.8,1.7,6.6
	c1.3,0.9,1.3-9.4,8.4-8.4c6.9,0.8,12.1,0.6,12.1,0.6s2.3,20.1,1.6,21.9c-5.1-1.2-17.2,0.5-18,3.6c7.1-0.5,10.4,0.4,10.4,0.4
	S387.5,307.5,389.3,310.4L389.3,310.4z"/>
<path class="st7" d="M392.1,201.4c0,0-17.7,19.5-10,34.4c0.4-2.1,0.2-3.4,0.5-3.3c-0.5-0.3,2.2,1.8,2,1.4c0-1.1-0.8-3.5-0.8-3.5
	l2.3,0.7l-1.4-2.6l3.5,0.4c0,0-1.2-3.2-0.8-3.2l2.8,0.2C385.1,216.8,389.9,209.3,392.1,201.4L392.1,201.4z"/>
<path class="st8" d="M398.3,184.6c0,0,0.9,6.8-2.8,8.6c-0.5,0.5-2.8,1.2-2.4,2.6c0.4,1.9,1.4,1.5,2.8,1.1
	C399.7,196.3,404.2,188.2,398.3,184.6z"/>
<path class="st9" d="M391.8,190.3c0,0.8-0.6,1.4-1.4,1.4s-1.4-0.6-1.4-1.4c0-0.8,0.6-1.4,1.4-1.4S391.8,189.5,391.8,190.3z"/>
<path class="st4" d="M386,195.9c-0.9,0.8-5.8,5.9-0.9,7.8c5-1.3,3.6-2.2,4.7-3.4C389.8,198,387.3,197.4,386,195.9L386,195.9z"/>
<path class="st7" d="M396.8,244.2c-0.3,1.1-1.4,5.2,0.1,8.4c4.3-1.9,6.3-1.3,7.7-0.4C401.1,249.5,399.7,248.3,396.8,244.2
	L396.8,244.2z"/>
<path class="st10" d="M404.1,263.5l0.2,9.6c0,0,3.4,0.6,4.9,0C410.7,272.5,409.2,266.5,404.1,263.5L404.1,263.5z"/>
<path class="st11" d="M428.1,264.8c0,0-6.1-14.8-21.8-18.6c-15.7-3.8-13.6-20.4-12.4-21.5c0.8-1.4,1.2-3.7,5.7-1.5
	s25.3,12.6,28.3,13.1C431,236.9,428.4,265.1,428.1,264.8L428.1,264.8z"/>
<path class="st12" d="M413.3,246.1c-0.3,0.2,20.9,12.6,14.5,23.2c6-4,4.1-11,4.1-11s4.9,12.8-7.1,19.1c1.3,1.1,2.2,0.9,2.2,0.9
	l-2.1,2c0,0-0.9,1.6,7.1-2.3c-2.2,1.8-2.3,3.1-2.3,3.1s0.6,1.7,5.8-2.9c-4.2,4.6-5.2,6.9-5.2,6.8c11.5-0.9,36.6-38.4-7.9-49.4l2,2.1
	L413.3,246.1L413.3,246.1z"/>
<path class="st13" d="M414.2,242.4c2.8,2.1,3.8,2.8,4.2,3.8c-2.6-0.6-5-0.4-5-0.4s-5.7-5.4-6.8-5.9c-0.7,0-5.2-2.8-5.2-2.8
	c-2.2-1.1-4.2-8.7,3.9-6.6c3.1,1.6,6.4,3.1,9.7,4.3l10,3.2l5.8,6.5c0,0-10.3-5.1-11.6-5.2c2.8,2.2,4.4,5.4,4.4,5.4
	C420.4,243.8,417.6,242.9,414.2,242.4L414.2,242.4z"/>
<path class="st14" d="M374.1,196.8c0,0,9.8-2.4,11.1-2.1"/>
<path class="st2" d="M0,400h800v80H0V400z"/>
</svg>
