<?xml version="1.0" encoding="utf-8"?>
<!-- Generator: Adobe Illustrator 24.0.1, SVG Export Plug-In . SVG Version: 6.00 Build 0)  -->
<svg version="1.1" id="flag-icons-um" xmlns="http://www.w3.org/2000/svg" xmlns:xlink="http://www.w3.org/1999/xlink" x="0px"
	 y="0px" viewBox="0 0 800 480" style="enable-background:new 0 0 800 480;" xml:space="preserve">
<style type="text/css">
	.st0{fill-rule:evenodd;clip-rule:evenodd;fill:#BD3D44;}
	.st1{fill-rule:evenodd;clip-rule:evenodd;fill:#FFFFFF;}
	.st2{fill-rule:evenodd;clip-rule:evenodd;fill:#192F5D;}
</style>
<g>
	<path class="st0" d="M-0.3,0H800v36.9H-0.3V0z M-0.3,73.9H800v36.9H-0.3V73.9z M-0.3,147.7H800v37H-0.3V147.7z M-0.3,221.5H800
		v36.9H-0.3V221.5z M-0.3,295.4H800v36.9H-0.3V295.4z M-0.3,369.2H800v36.9H-0.3V369.2z M-0.3,443.1H800V480H-0.3V443.1z"/>
	<path class="st1" d="M-0.3,36.9H800v36.9H-0.3V36.9z M-0.3,110.8H800v36.8H-0.3V110.8z M-0.3,184.6H800v36.9H-0.3V184.6z
		 M-0.3,258.5H800v36.9H-0.3V258.5z M-0.3,332.3H800v36.9H-0.3V332.3z M-0.3,406.1H800v36.9H-0.3V406.1z"/>
</g>
<path class="st2" d="M-0.3,0h364.8v258.5H-0.3V0z"/>
<path class="st1" d="M30.1,11.1l3.4,10.2h10.7l-8.6,6.3l3.3,10.3l-8.7-6.4l-8.6,6.3l3.3-10.2l-8.7-6.3h10.9L30.1,11.1z M91,11.1
	l3.3,10.2H105l-8.7,6.3l3.3,10.3L91,31.5l-8.7,6.3l3.3-10.2l-8.6-6.3h10.7L91,11.1z M151.7,11.1l3.4,10.2h10.6l-8.6,6.3l3.3,10.3
	l-8.7-6.4l-8.6,6.3l3.3-10.2l-8.7-6.3h10.8L151.7,11.1z M212.6,11.1l3.3,10.2h10.8l-8.7,6.3l3.4,10.3l-8.7-6.4l-8.7,6.3l3.4-10.2
	l-8.7-6.3h10.7L212.6,11.1z M273.3,11.1l3.4,10.2h10.7l-8.6,6.3l3.3,10.3l-8.7-6.4l-8.6,6.3l3.3-10.2l-8.6-6.3H270L273.3,11.1z
	 M334.2,11.1l3.3,10.2h10.8l-8.7,6.3l3.4,10.3l-8.7-6.4l-8.7,6.3l3.4-10.2l-8.7-6.3h10.8L334.2,11.1z M60.6,36.9l3.3,10.2h10.8
	l-8.7,6.3l3.2,10.2l-8.4-6.3L52,63.7l3.1-10.2l-8.4-6.3h10.7L60.6,36.9z M121.3,36.9l3.4,10.2h10.7l-8.7,6.3l3.4,10.2l-8.7-6.3
	l-8.7,6.3l3.4-10.2l-8.7-6.3h10.8L121.3,36.9z M182.2,36.9l3.3,10.2h10.8l-8.7,6.3l3.3,10.2l-8.6-6.3l-8.7,6.3l3.3-10.2l-8.6-6.3
	h10.7L182.2,36.9z M242.9,36.9l3.4,10.2H257l-8.7,6.3l3.4,10.2l-8.7-6.3l-8.6,6.3l3.3-10.2l-8.7-6.3h10.9L242.9,36.9z M303.8,36.9
	l3.3,10.2h10.8l-8.7,6.3l3.3,10.2l-8.6-6.3l-8.7,6.3l3.3-10.2l-8.6-6.3h10.7L303.8,36.9z M30.1,62.7l3.4,10.4h10.7l-8.6,6.3
	l3.3,10.2l-8.7-6.4l-8.6,6.4l3.3-10.3L16.1,73h10.9L30.1,62.7z M91,62.7L94.2,73H105l-8.7,6.3l3.3,10.2L91,83.2l-8.7,6.4l3.3-10.3
	l-8.6-6.3h10.7L91,62.7z M151.7,62.7l3.4,10.3h10.6l-8.6,6.3l3.3,10.2l-8.7-6.4l-8.6,6.4l3.3-10.3l-8.7-6.3h10.8L151.7,62.7z
	 M212.6,62.7l3.3,10.3h10.8l-8.7,6.3l3.4,10.2l-8.7-6.4l-8.7,6.4l3.4-10.3l-8.7-6.3h10.7L212.6,62.7z M273.3,62.7l3.4,10.3h10.7
	l-8.6,6.3l3.3,10.2l-8.7-6.4l-8.6,6.4l3.3-10.3l-8.6-6.3H270L273.3,62.7z M334.2,62.7l3.3,10.3h10.8l-8.7,6.3l3.4,10.2l-8.7-6.4
	l-8.7,6.4l3.4-10.3l-8.7-6.3h10.8L334.2,62.7z M60.6,88.6l3.3,10.2h10.8l-8.7,6.3l3.3,10.3l-8.6-6.4l-8.7,6.3l3.3-10.2l-8.6-6.3
	h10.7L60.6,88.6z M121.3,88.6l3.4,10.2h10.7l-8.7,6.3l3.4,10.3l-8.7-6.4l-8.7,6.3l3.4-10.2l-8.7-6.3h10.8L121.3,88.6z M182.2,88.6
	l3.3,10.2h10.8l-8.7,6.3l3.3,10.3l-8.6-6.4l-8.7,6.3l3.3-10.2l-8.6-6.3h10.7L182.2,88.6z M242.9,88.6l3.4,10.2H257l-8.6,6.3
	l3.3,10.3l-8.7-6.4l-8.6,6.3l3.3-10.2l-8.7-6.3h10.9L242.9,88.6z M303.8,88.6l3.3,10.2h10.8l-8.7,6.3l3.3,10.3l-8.6-6.4l-8.7,6.3
	l3.3-10.2l-8.6-6.3h10.7L303.8,88.6z M30.1,114.5l3.4,10.2h10.7l-8.6,6.3l3.3,10.3l-8.7-6.4l-8.6,6.3l3.3-10.2l-8.7-6.3h10.9
	L30.1,114.5z M91,114.5l3.3,10.2H105l-8.7,6.3l3.3,10.2l-8.6-6.3l-8.7,6.3l3.3-10.2l-8.6-6.3h10.7L91,114.5z M151.7,114.5l3.4,10.2
	h10.6l-8.6,6.3l3.3,10.3l-8.7-6.4l-8.6,6.3l3.3-10.2l-8.7-6.3h10.8L151.7,114.5z M212.6,114.5l3.3,10.2h10.8l-8.7,6.3l3.4,10.3
	l-8.7-6.4l-8.7,6.3l3.4-10.2l-8.7-6.3h10.7L212.6,114.5z M273.3,114.5l3.4,10.2h10.7l-8.6,6.3l3.3,10.3l-8.7-6.4l-8.6,6.3L268,131
	l-8.6-6.3H270L273.3,114.5z M334.2,114.5l3.3,10.2h10.8l-8.7,6.3l3.4,10.3l-8.7-6.4l-8.7,6.3l3.4-10.2l-8.7-6.3h10.8L334.2,114.5z
	 M60.6,140.3l3.3,10.2h10.8l-8.7,6.3l3.3,10.2l-8.6-6.4l-8.7,6.4l3.3-10.3l-8.6-6.3h10.7L60.6,140.3z M121.3,140.3l3.4,10.2h10.7
	l-8.7,6.3l3.4,10.2l-8.7-6.4l-8.7,6.4l3.4-10.3l-8.7-6.3h10.8L121.3,140.3z M182.2,140.3l3.3,10.2h10.8l-8.7,6.3l3.3,10.2l-8.6-6.4
	l-8.7,6.4l3.3-10.3l-8.6-6.3h10.7L182.2,140.3z M242.9,140.3l3.4,10.2H257l-8.6,6.3l3.3,10.2l-8.7-6.4l-8.6,6.4l3.3-10.3l-8.7-6.3
	h10.9L242.9,140.3z M303.8,140.3l3.3,10.2h10.8l-8.7,6.3l3.3,10.2l-8.6-6.4l-8.7,6.4l3.3-10.3l-8.6-6.3h10.7L303.8,140.3z
	 M30.1,166.1l3.4,10.3h10.7l-8.6,6.3l3.3,10.1l-8.7-6.3l-8.6,6.3l3.3-10.2l-8.7-6.3h10.9L30.1,166.1z M91,166.1l3.3,10.3H105
	l-8.7,6.3l3.4,10.1l-8.7-6.3l-8.7,6.3l3.4-10.2l-8.7-6.3h10.7L91,166.1z M151.7,166.1l3.4,10.3h10.6l-8.6,6.3l3.3,10.1l-8.7-6.3
	l-8.6,6.3l3.3-10.2l-8.7-6.3h10.8L151.7,166.1z M212.6,166.1l3.3,10.3h10.8l-8.7,6.3l3.4,10.1l-8.7-6.3l-8.7,6.3l3.4-10.2l-8.7-6.3
	h10.7L212.6,166.1z M273.3,166.1l3.4,10.3h10.7l-8.6,6.3l3.3,10.1l-8.7-6.3l-8.6,6.3l3.3-10.2l-8.6-6.3H270L273.3,166.1z
	 M334.2,166.1l3.3,10.3h10.8l-8.7,6.3l3.4,10.1l-8.7-6.3l-8.7,6.3l3.4-10.2l-8.7-6.3h10.8L334.2,166.1z M60.6,192l3.3,10.2h10.8
	l-8.7,6.3l3.3,10.3l-8.6-6.4l-8.7,6.3l3.3-10.2l-8.6-6.3h10.7L60.6,192z M121.3,192l3.4,10.2h10.7l-8.7,6.3l3.4,10.3l-8.7-6.4
	l-8.7,6.3l3.4-10.2l-8.7-6.3h10.8L121.3,192z M182.2,192l3.3,10.2h10.8l-8.7,6.3l3.3,10.3l-8.6-6.4l-8.7,6.3l3.3-10.2l-8.6-6.3h10.7
	L182.2,192z M242.9,192l3.4,10.2H257l-8.6,6.3l3.3,10.3l-8.7-6.4l-8.6,6.3l3.3-10.2l-8.7-6.3h10.9L242.9,192z M303.8,192l3.3,10.2
	h10.8l-8.7,6.3l3.3,10.3l-8.6-6.4l-8.7,6.3l3.3-10.2l-8.6-6.3h10.7L303.8,192z M30.1,217.9l3.4,10.2h10.7l-8.6,6.3l3.3,10.2
	l-8.7-6.3l-8.6,6.3l3.3-10.3l-8.7-6.3h10.9L30.1,217.9z M91,217.9l3.3,10.2H105l-8.7,6.3l3.4,10.2l-8.7-6.3l-8.7,6.3l3.4-10.3
	l-8.7-6.3h10.7L91,217.9z M151.7,217.9l3.4,10.2h10.6l-8.4,6.3l3.3,10.2l-8.7-6.3l-8.6,6.3l3.3-10.3l-8.7-6.3h10.8L151.7,217.9z
	 M212.6,217.9l3.3,10.2h10.8l-8.7,6.3l3.4,10.2l-8.7-6.3l-8.7,6.3l3.4-10.3l-8.7-6.3h10.7L212.6,217.9z M273.3,217.9l3.4,10.2h10.7
	l-8.6,6.3l3.3,10.2l-8.7-6.3l-8.6,6.3l3.3-10.3l-8.6-6.3H270L273.3,217.9z M334.2,217.9l3.3,10.2h10.8l-8.7,6.3l3.4,10.2l-8.7-6.3
	l-8.7,6.3l3.4-10.3l-8.7-6.3h10.8L334.2,217.9z"/>
</svg>
