<?xml version="1.0" encoding="utf-8"?>
<!-- Generator: Adobe Illustrator 24.0.1, SVG Export Plug-In . SVG Version: 6.00 Build 0)  -->
<svg version="1.1" id="flag-icons-un" xmlns="http://www.w3.org/2000/svg" xmlns:xlink="http://www.w3.org/1999/xlink" x="0px"
	 y="0px" viewBox="0 0 800 480" style="enable-background:new 0 0 800 480;" xml:space="preserve">
<style type="text/css">
	.st0{fill-rule:evenodd;clip-rule:evenodd;fill:#4B92DB;}
	.st1{fill:#FFFFFF;}
</style>
<path class="st0" d="M0,0h800v480H0V0z"/>
<g>
	<g transform="matrix(.6 0 0 .6 -40.6 0)">
		<path id="a" class="st1" d="M797.1,587c-2.9,3.1-6.1,6-9.5,8.6c-21.2-22-46.2-46.2-69.9-46.2c-14.7,0-25.2,11.2-37.6,19
			c-17.1,11-40.6,17.2-60.7,9.1c-11.4-3.9-21.5-10.8-29.2-20c17.3,10.8,38.6,12.6,57.5,5c19.7-8.2,39.9-19.1,62.4-19.1
			C743.3,543.4,774.9,565.9,797.1,587L797.1,587z M551.5,518c22,25,57.9,17,87.2,23.2c4.1,1,8,2.3,12.4,1.6c-3.5-2.2-8.2-2.5-12.2-4
			c-22.8-8.6-26.3-33-38.8-49.7c16,10.6,29.1,25,44,38.7c10.5,8.7,23.2,14.3,36.7,16.2c-3.2,1.2-7.4,1-11,1.8
			c-24,6-50.6,15.4-76.2,7C575.8,546.8,560.8,534.4,551.5,518L551.5,518z M516.3,460c13.7,31.1,48.2,33.6,71,52.6
			c4.1,3.6,8.6,6.7,13.5,9.2l0.3-0.2c-5.6-4.9-10.7-10.4-15.1-16.5c-13.1-19-8.8-45-18.9-65.2c9.4,10.4,17.2,22.2,23.1,34.9
			c8.5,20.2,11.4,43.3,30.5,58.7c-20.7-6.8-44.5-5.5-63-17.6C538.1,503.1,520,482.9,516.3,460L516.3,460z M501.6,397.2
			c2,27.4,31,42,45,64.5c3,4.8,6,9.8,10.3,13.6c-0.7-2.9-3-5.5-4.4-8.3c-4.6-10.1-6.4-21.3-5.3-32.3c1.3-14,7.1-27,4.9-41.7
			c12,25.9,8.1,58.2,15,86.1c1.6,6.2,5.3,11.6,7.6,17.5c-11.7-9-27.1-17-40-27c-12.9-9.2-22.9-21.9-29-36.5
			C501.8,421.6,500.4,409.3,501.6,397.2L501.6,397.2z M502.4,346.8c1.4-6.1,2.5-12.4,5.1-18c-5,25.8,12.2,44.4,18,66.8
			c2.2,8.4,3,17.3,6.4,25.2c0.3,0.1,0.6-0.2,0.8-0.4c-8.5-23.8,4-45.8,16-64.5c2.9-5.1,5-10.7,6.2-16.5c1.3,10.8-1,23.2-3,34.3
			c-2.5,14.3-7.4,27.7-11.3,41.5c-2.1,9-2.3,18.3-0.5,27.4l-1.3-1c-9-16.6-26.8-29.6-32.1-47.8C501.7,378.7,500.2,362.6,502.4,346.8
			L502.4,346.8z M511.9,319c0.3-18.4,7-36,19-50c0.3-0.2,0.6-0.5,1-0.4c-12.6,19-1.1,43.2-2.8,64.9l-1.6,22.2
			c0.2,0.2,0.2,0.9,0.8,0.6c0.8-2.5,1-5.1,1.4-7.7c3-18,18.8-30.4,32.1-43c3.1-2.9,5.5-6.5,7-10.4c-1.1,9-3.6,18.1-7.6,26.2
			c-10.3,20.8-30.1,37.6-33.7,61.3C525.8,360,511.9,343.1,511.9,319L511.9,319z M544.9,253.1c5.7-6.9,13.4-12,22-14.6
			c-16.5,11.3-15.6,31.4-20.6,48.2c-1.8,6.1-4.5,11.9-6,18.2l0.5,0.4c2.9-7.6,7.6-14.4,13.5-19.9c11.5-10.8,28.8-17.4,34.5-33.3
			c-0.3,22.1-19.1,38.9-36.3,51.9c-7.7,5.8-13.9,13.2-18.2,21.8c0.6-6,1-11.2,0.4-17.1C532.9,289.4,531.7,267.7,544.9,253.1
			L544.9,253.1z M611.4,216c-12.1,10.7-20.2,24.4-29.6,36.7c-7.7,10.3-18.4,16.6-27.5,25.2c5-10.2,5.8-22,12.1-31.9
			C577.1,229,594.9,222.4,611.4,216z"/>
		<g transform="matrix(-1 0 0 1 1202.2 0)">
			<path id="a_1_" class="st1" d="M671.5,587c2.9,3.1,6.1,6,9.5,8.6c21.2-22,46.2-46.2,69.9-46.2c14.7,0,25.2,11.2,37.6,19
				c17.1,11,40.6,17.2,60.7,9.1c11.4-3.9,21.5-10.8,29.2-20c-17.3,10.8-38.6,12.6-57.5,5c-19.7-8.2-39.9-19.1-62.4-19.1
				C725.3,543.4,693.7,565.9,671.5,587L671.5,587z M917.1,518c-22,25-57.9,17-87.2,23.2c-4.1,1-8,2.3-12.4,1.6
				c3.5-2.2,8.2-2.5,12.2-4c22.8-8.6,26.3-33,38.8-49.7c-16,10.6-29.1,25-44,38.7c-10.5,8.7-23.2,14.3-36.7,16.2
				c3.2,1.2,7.4,1,11,1.8c24,6,50.6,15.4,76.2,7c17.9-6,32.8-18.4,42-34.8H917.1z M952.3,460c-13.7,31.1-48.2,33.6-71,52.6
				c-4.1,3.6-8.6,6.7-13.5,9.2l-0.3-0.2c5.6-4.9,10.7-10.4,15.1-16.5c13.1-19,8.8-45,18.9-65.2c-9.4,10.4-17.2,22.2-23.1,34.9
				c-8.5,20.2-11.4,43.3-30.5,58.7c20.7-6.8,44.5-5.5,63-17.6C930.5,503.1,948.6,482.9,952.3,460L952.3,460z M967,397.2
				c-2,27.4-31,42-45,64.5c-3,4.8-6,9.8-10.3,13.6c0.7-2.9,3-5.5,4.4-8.3c4.6-10.1,6.4-21.3,5.3-32.3c-1.3-14-7.1-27-4.9-41.7
				c-12,25.9-8.1,58.2-15,86.1c-1.6,6.2-5.3,11.6-7.6,17.5c11.7-9,27.1-17,40-27c12.9-9.2,22.9-21.9,29-36.5
				C966.9,421.6,968.3,409.3,967,397.2L967,397.2z M966.2,346.8c-1.4-6.1-2.5-12.4-5.1-18c5,25.8-12.2,44.4-18,66.8
				c-2.2,8.4-3,17.3-6.4,25.2c-0.3,0.1-0.6-0.2-0.8-0.4c8.5-23.8-4-45.8-16-64.5c-2.9-5.1-5-10.7-6.2-16.5c-1.3,10.8,1,23.2,3,34.3
				c2.5,14.3,7.4,27.7,11.3,41.5c2.1,9,2.3,18.3,0.5,27.4l1.3-1c9-16.6,26.8-29.6,32.1-47.8C967,378.7,968.5,362.6,966.2,346.8
				L966.2,346.8z M956.7,319c-0.3-18.4-7-36-19-50c-0.3-0.2-0.6-0.5-1-0.4c12.6,19,1.1,43.2,2.8,64.9l1.6,22.2
				c-0.2,0.2-0.2,0.9-0.8,0.6c-0.8-2.5-1-5.1-1.4-7.7c-3-18-18.8-30.4-32.1-43c-3.1-2.9-5.5-6.5-7-10.4c1.1,9,3.6,18.1,7.6,26.2
				c10.3,20.8,30.1,37.6,33.7,61.3C942.8,360,956.7,343.1,956.7,319L956.7,319z M923.7,253.1c-5.7-6.9-13.4-12-22-14.6
				c16.5,11.3,15.6,31.4,20.6,48.2c1.8,6.1,4.5,11.9,6,18.2l-0.5,0.4c-2.9-7.6-7.6-14.4-13.5-19.9c-11.5-10.8-28.8-17.4-34.5-33.3
				c0.3,22.1,19.1,38.9,36.3,51.9c7.7,5.8,13.9,13.2,18.2,21.8c-0.6-6-1-11.2-0.4-17.1C935.7,289.4,936.9,267.7,923.7,253.1
				L923.7,253.1z M857.2,216c12.1,10.7,20.2,24.4,29.6,36.7c7.7,10.3,18.4,16.6,27.5,25.2c-5-10.2-5.8-22-12.1-31.9
				C891.5,229,873.7,222.4,857.2,216z"/>
		</g>
	</g>
	<path class="st1" d="M488.9,262l-2.1-1.2c-4.6,9.4-10.6,18-17.9,25.4l-12.5-12.6c6-6.2,11-13.4,14.7-21.3l-2.1-1.2
		c-3.6,7.7-8.5,14.7-14.4,20.8l-11.4-11.4c4.8-5,8.8-10.8,11.6-17.1l-2.1-1.2c-2.7,6.1-6.5,11.8-11.2,16.6L429,246.3
		c3.4-3.7,6.2-7.9,8-12.6l-2.1-1.2c-1.7,4.4-4.3,8.5-7.6,12l-11.5-11.4c3.2-3.6,5.1-8.2,5.4-13h16.2c-0.1,4.2-1,8.4-2.5,12.4
		l2.1,1.2c1.7-4.3,2.7-8.9,2.8-13.6h17.8c-0.2,7.6-1.9,15.1-5,22.1l2.2,1.2c3.3-7.3,5-15.3,5.2-23.3h16.2c-0.2,10.7-2.6,21.3-7.2,31
		l2.1,1.2c4.7-10.1,7.3-21.1,7.4-32.2h17.9c-0.2,14.1-3.4,28-9.6,40.7L488.9,262c6.5-13.4,10-28.1,10-43c0-12.7-2.4-25.3-7.2-37.1
		l-2.2,1c4.5,11.1,6.9,22.9,7,34.9h-17.9c-0.1-9.6-2-19.1-5.5-28l-2.2,1c3.4,8.6,5.3,17.7,5.4,27h-16.4c-0.1-7-1.5-14-4-20.6l-2.2,1
		c2.4,6.3,3.7,12.9,3.8,19.6h-17.6c-0.1-4.3-0.9-8.6-2.4-12.6l-2.2,1c1.3,3.7,2.1,7.6,2.2,11.6h-16.2c-0.3-4.8-2.2-9.4-5.4-13
		l11.5-11.5c3.5,3.7,6.2,8,7.9,12.8l2.2-0.9c-1.8-5.1-4.7-9.7-8.4-13.6l12.6-12.6c5.3,5.5,9.5,12.1,12.2,19.2l2.2-1
		c-2.9-7.4-7.3-14.2-12.8-19.9l11.5-11.4c7,7.2,12.4,15.7,16.1,25l2.2-1c-3.8-9.6-9.5-18.3-16.7-25.7l12.6-12.6
		c8.8,9,15.8,19.6,20.5,31.3l2.2-1c-5-12.3-12.4-23.4-21.8-32.8c-9.4-9.5-20.6-16.9-33-21.9l-0.8,2.3c11.7,4.7,22.3,11.6,31.3,20.4
		l-12.6,12.6c-7.3-7-15.8-12.6-25.2-16.4l-1,2.2c9.1,3.7,17.4,9.1,24.5,16l-11.4,11.4c-5.5-5.3-11.9-9.5-19-12.4l-0.8,2.2
		c6.7,2.8,12.8,6.8,18,11.8l-12.5,12.6c-3.5-3.3-7.6-5.9-12-7.8l-0.9,2.3c4.1,1.7,7.9,4.1,11.2,7.2L414.1,203
		c-3.6-3.2-8.2-5.1-13-5.4v-16.2c4.6,0.1,9.1,1.1,13.3,2.9l0.9-2.2c-4.5-1.9-9.3-2.9-14.2-3.1v-17.8c7.1,0.1,14.1,1.5,20.7,4.2
		l0.9-2.2c-6.9-2.8-14.2-4.3-21.6-4.4v-16.2c9.4,0.1,18.8,2,27.5,5.6l0.8-2.2c-9-3.6-18.6-5.6-28.3-5.7v-17.9
		c12,0.1,23.8,2.5,34.9,7l0.8-2.3c-11.7-4.7-24.3-7-36.9-7c-15.3,0-30.5,3.5-44.2,10.4l1,2c13.1-6.5,27.4-9.9,42-10v17.8
		c-11.7,0.1-23.2,2.9-33.7,8.1l1.1,2c10.1-5,21.3-7.7,32.6-7.8v16.2c-8.7,0.2-17.2,2.2-25,6l1,2.1c7.5-3.6,15.7-5.6,24-5.7V179
		c-5.4,0.2-10.8,1.5-15.7,3.8l1,2c4.6-2.1,9.6-3.3,14.7-3.4v16.2c-2.4,0.1-4.8,0.7-7,1.6l1,2c2.3-0.9,4.7-1.3,7.2-1.3
		c5,0,9.8,2,13.4,5.5c3.6,3.6,5.6,8.5,5.6,13.6c0,10.5-8.5,19-19,19l0,0c-5,0-9.9-2-13.4-5.6c-3.6-3.5-5.6-8.4-5.6-13.4
		c0-5.1,2-9.9,5.6-13.5c1.8-1.8,3.9-3.2,6.2-4.1l-1.1-2.1c-2.2,0.9-4.2,2.2-6,3.8l-11.4-11.5c2.9-2.7,6.3-5,9.9-6.7l-1.1-2
		c-3.8,1.8-7.4,4.1-10.5,7l-12.6-12.6c4.4-4.2,9.4-7.7,14.8-10.3l-1-2c-5.7,2.7-10.9,6.4-15.4,10.7L346.8,164
		c5.7-5.5,12.2-10.1,19.3-13.6l-1-2c-7.4,3.6-14.1,8.3-20,14l-12.6-12.7c7.2-7,15.4-12.8,24.3-17.2l-1.1-2.1
		c-19.3,9.7-34.9,25.4-44.5,44.8l2,1c4.5-9.1,10.5-17.5,17.6-24.8l12.7,12.7c-5.9,6.1-10.8,13.1-14.5,20.7l2,1.1
		c3.6-7.5,8.3-14.3,14.1-20.2l11.5,11.4c-4.7,4.8-8.5,10.4-11.3,16.5l2,1.1c2.7-5.9,6.5-11.3,11-15.9l12.6,12.6
		c-3.3,3.4-5.9,7.4-7.8,11.8l2.1,1.2c1.7-4.2,4.2-8,7.3-11.3l11.5,11.4c-3.2,3.6-5.1,8.2-5.4,13.1h-16.2c0.1-4.5,1.1-9,2.8-13.2
		l-2-1.2c-2,4.6-3,9.4-3.2,14.4h-17.8c0.1-7.9,1.9-15.7,5.2-22.9l-2-1c-3.5,7.5-5.4,15.6-5.6,23.9h-16.2c0.2-11,2.7-21.8,7.5-31.7
		l-2.1-1.1c-4.9,10.2-7.6,21.4-7.7,32.8h-17.9c0.2-14.3,3.6-28.4,9.9-41.3l-2.1-1.1c-6.7,13.6-10.2,28.5-10.2,43.6
		c0,9.4,1.3,18.8,4,27.9l2.3-0.6c-2.5-8.5-3.8-17.3-3.9-26.1h17.9c0.1,7.4,1.2,14.7,3.3,21.7l2.3-0.6c-2.1-6.8-3.2-13.9-3.3-21.1
		h16.3c0.1,5.8,1,11.6,2.8,17.2l2.4-0.6c-1.7-5.4-2.7-11-2.8-16.6h17.6c0.1,4.2,0.9,8.3,2.3,12.2l2.3-0.6c-1.3-3.7-2.1-7.6-2.2-11.6
		h16.2c0.3,4.8,2.2,9.4,5.4,13l-11.5,11.5c-3.5-3.7-6.2-8.1-7.9-12.9l-2.3,0.6c1.9,5.2,4.8,10,8.6,14l-12.7,12.6
		c-6-6.3-10.5-13.9-13.2-22.2l-2.4,0.6c2.8,8.7,7.6,16.7,14,23.3L345.1,272c-8.4-8.7-14.6-19.2-18.1-30.8l-2.3,0.6
		c3.6,12,10,22.9,18.7,31.9l-12.5,12.6c-11-11.2-19.1-25-23.5-40.1l-2.4,0.6c4.7,15.9,13.3,30.3,25,42c7.9,8,17.2,14.5,27.3,19.4
		l1.2-2.1c-9.6-4.6-18.4-10.7-26-18.1l12.6-12.6c6.5,6.2,13.9,11.3,22.1,15l1.2-2c-8-3.6-15.3-8.6-21.6-14.7l11.4-11.4
		c5.3,5.1,11.5,9.1,18.2,12l1.2-2.1c-6.6-2.7-12.6-6.7-17.7-11.6l12.6-12.6c4,3.8,8.8,6.7,14,8.5l1.1-2.1c-5-1.7-9.6-4.5-13.4-8.1
		l11.5-11.5c3.6,3.2,8.2,5.1,13,5.4v16.2c-3.7-0.1-7.5-0.8-11-2l-1.3,2c3.9,1.4,8.1,2.3,12.3,2.4v17.8c-7.2-0.1-14.4-1.6-21.1-4.4
		l-1.2,2c7.1,3,14.6,4.6,22.3,4.8v16.2c-10.5-0.2-20.8-2.5-30.3-6.8l-1.2,2c9.9,4.6,20.6,7,31.5,7.2v17.8
		c-13.9-0.1-27.6-3.3-40.2-9.3l-1.2,2c13.3,6.4,27.9,9.7,42.6,9.7c15.8,0,31-3.7,44.6-10.6l-1.2-2.2c-13.1,6.7-27.5,10.2-42.2,10.4
		v-17.9c11.8-0.2,23.4-3,34-8.3l-1-2.1c-10.3,5.1-21.5,7.9-33,8v-16c8.9-0.2,17.6-2.4,25.6-6.4l-1.1-2.1c-7.6,3.8-16,5.8-24.5,6
		v-17.8c5.7-0.2,11.2-1.5,16.3-4l-1-2.2c-4.8,2.3-10,3.6-15.3,3.8v-16.2c4.8-0.3,9.4-2.2,13-5.4l11.5,11.5c-2.8,2.6-5.9,4.7-9.3,6.3
		l1.1,2.2c3.6-1.8,7-4,9.9-6.8l12.6,12.5c-4.2,4.1-9,7.5-14.3,10.1l1,2.1c5.5-2.7,10.6-6.3,15-10.5l11.4,11.4
		c-5.6,5.4-12,10-19,13.5l1.2,2.1c7.2-3.6,13.7-8.3,19.5-13.9l12.5,12.6c-7.1,6.9-15.1,12.6-23.9,17.1l1.2,2.2
		c9.4-4.8,17.9-11,25.3-18.4C477.7,281,484.1,271.9,488.9,262z"/>
	<path class="st1" d="M405.6,196H405v0.7h0.6V196z M404.1,195h0.8v0.6h-0.8V195z M402.7,194.8l0.6,0.1l0.1-0.6h-0.7V194.8z
		 M402.1,194.6h-0.7v-0.7l0.8,0.1L402.1,194.6z M396.3,193.8h0.8v0.6h-0.8V193.8z M394.6,195l0.7,0.1v-0.6h-0.6L394.6,195z
		 M394.6,196l-0.7-0.3v-0.6l0.9,0.3L394.6,196z M393.2,196.7v-0.6l0.5-0.1l0.1,0.6L393.2,196.7z M314.6,258.3v-0.5h-0.5v1h0.8v1.3
		h0.6v-1.5L314.6,258.3z M322.1,267.3l-1-1l-0.9-1.1l-0.4-1l-0.7-1.8l1.5,0.8l0.5,1.4l0.7,0.5l0.7,1.5L322.1,267.3z M342.8,294.4
		l-0.1-0.9l-0.9-1.2l1.3,0.2l1.2,1.1l0.6,1.3l-0.8,0.4l-0.3-0.6L342.8,294.4z M396.8,202.5h-1l-0.3-2.2l0.6-0.4v-1.1h-3.5v-1.1
		l0.4-0.3l-0.8-0.3l-0.6,0.8l-0.2,0.9l-1,0.2v0.5h-0.7v1.3l-2.8,2.3l-5.6-0.2c-0.3,1-1.3,0-1.3,0c-0.3-0.7-1.6,0-1.6,0
		c0,1-2-0.6-2-0.6l-3.4-2.5c-2-1.8-5,0.5-5.1,1c0,1.4-2.3,0.3-2.3,0.3s-2-0.6-2.3,0.2s-1.6,0.6-1.6,0.6l-0.2,0.4l-1,0.2l-0.2,0.6
		l-1.2,0.2h3c0.8-0.2-0.3,1.7-0.8,1.6h-1.4l-0.5,0.6h-1.3l-0.6,0.8l-1.9-0.1c0,0-1,0.9-1,1.2c0.1,0.3-0.2,1.2-0.5,1.2
		s-0.9,1-0.7,1.2c0.2,0.3-0.6,1.3-0.6,1.3l-0.2,1l-0.6,0.3v2.7l-1.2,0.8v1.2l-1.8,2l0.2,1.5l-1.5,1.7l0.2,1.6l-0.9,0.3l-0.2,0.7
		l-0.4,2.1l1,0.1c0.5-0.2,0.4,1.3,0,1.6c-0.4,0.2-1.5,0.6-0.9,1s-1.6,0.3-1.6-0.3c0-0.7-1.2-1.2-1.5-1s-0.8-0.9-0.8-0.9
		c-1-1-4.4,0.1-4.4,0.1l-0.5,1.7c-1.1,0.1-1.8,2-1.8,2c-1,0.3-1.6,1.4-1.3,1.7c0.3,0.3-0.5,0.4-0.5,0.4v2.2l-0.5,0.7v2.5
		c0.7,0,0.6,1,0.6,1c-1,0.2-0.8,1.5-0.8,1.5l-2.1,0.7l-0.4,0.6h-2.6l-0.7,0.6l-0.7-0.7h-5l-0.2-0.5l-1-0.2v-1.1h-1.6l-0.3,0.7
		l-1.6,0.1c0.1,1-1.6,2.5-1.8,2.1c-0.2-0.4-1.3-1.5-0.8-1.7c0.6-0.2,1.2-0.3,1.8-0.4v-0.7l-3.7-0.1l-0.4,0.6l-1.5,0.1v1.6l-0.7,0.2
		c-0.5,0.3,0.1,1.4,0.1,1.4c0.7,0.7,0,1.9,0,1.9c-0.7,0.6,0.4,1.7,0.4,1.7c0.8,0.2-0.5,0.8-0.5,0.8c0.2,1,0.8,1.3,0.8,1.3
		c-0.6,1,0.4,1.5,0.4,1.5l0.1,1.7l0.7,0.4v1.2l0.4,0.7h1.6v-2.6c-1.5-1.6,1.1-2,1.2-1.4s1.2,1,1.2,1c0.2,1.5,2,2.4,2.4,0.8
		c0.5-1.5,1-0.6,1.2,0.1c0.3,0.8,2.2,2.5,2.2,2.5h1.5l0.2,1.4c1.7-0.1,2.2,0,2.9,2.4c0.3,1.4,1.3,2.5,2.6,3l1.4-0.1
		c0-1.3,1.4,0.2,1.4,0.8c0,0.6,2.7,2.9,2.7,2.9l2.7,0.6l2.5,2l1.9-0.2h0.8c0.5-1.7,2.9,0.1,3,0.7c0.2,0.6,1.8,1.7,2,1.2
		s1.3-0.2,1.5,1.3s1,1.2,1,1.2l5.6-0.1l2-1.7l5.1-0.1c2.6-0.1,1-3.7,0.5-3.7c-0.9-0.7,0.3-3.6,0.3-3.6l-7.3-6.8
		c-1.7,0-0.2-2.4-0.2-2.4c1.3-0.8-0.3-2.2-0.3-2.2c0.2-1.2-0.7-2.6-0.7-2.6c-1.8-1.2-1.3-3.5-1.3-3.5V245c-1.5-1.4,0.6-1.6,0.6-1.6
		c0.7-1.2-0.5-2.1-0.5-2.1V240l-1.7-0.2l-0.2-4.8l-3.6-5.1c-0.7-0.2-0.2-1.5-0.2-1.5c1-0.5-0.2-1.7-0.2-1.7v-2.2l2-0.2l0.5-0.8h1
		v-2.6c0.4-1.4,1.6-0.7,1.6-0.7l1.4,0.1l0.8-1.5l0.2-1.2h-1c-1.3-0.8-0.7-3.4-0.7-3.4c2-2.9,4.1-1.2,4.1-1.2l1.4-0.1
		c2.1,1.4,0.2,4,0.2,4c-0.4,0.6-0.2,2.5-0.2,2.5l0.5,3.3l-1.3,1c-1,0.7-1,2.1,0.1,2.4c0.8,0.1,0.5,2-0.7,0.7c-1.8,0,1,1.6,0.2,1.2
		c1.8,1,1.4-0.8,1.4-0.8l2.4-1.9c1-0.7,2.5,1.5,2.5,1.8s4,0.1,4,0.1c1,0.7,1.5,2.6,1.5,2.6c1-1.5,3.4-0.1,1.7,0.7
		c1.6,1,1.6,1.9,1.6,1.9c1.3-0.4,1.3,0.6,1.3,0.9l0.4-1.5c-1.5-1.1,2-1.5,1,0.5l-0.6,0.9l1,0.8v2.3c2.3-0.2,1.7-2.9,1.7-2.9l1-0.2
		c0-1,0.7-0.4,0.7-0.4c-0.7-3.4,1.6-4,1.6-4c1.3-0.4,1.4-3.1,1.4-3.1c-1-0.4-0.4-1.8,0.6-0.6s-0.6-2.4-0.6-2.4l-0.8-0.7l-1.1-0.1
		l-0.1-1.1h-1.8l-0.3,1.4l-0.7,0.2L378,222l-0.3,1h-1.8l-0.1-1.1l1-0.3l0.5-0.6l0.3-1.7h1.3l1.7-0.5c0-1.7,1-1.3,1-1.3l0.6,0.5
		l0.9,0.7v0.6l-0.5,0.3l-0.1,0.8l0.3,1.2h0.7c0.3-1.7,2.4-1.7,3-0.6l0.6-1.5c-1.4-0.7,0-1.8,0.4-1.3s1.3-1.3,1.3-1.3s0.7,1,0-0.3
		c-0.7-1.2,0.5-1.8,0.5-1.8c-0.2-1.2,1.3-1,1.3-1l0.1-1.7h-1.4c-0.3,1.4-1.5,0.1-0.9-0.2s1.2-0.9,1.2-0.9v-1l0.6-0.2l0.1-1h1.5
		l1.3-0.6l0.3-0.5l1.4-0.1l2-1.8l-0.2-0.8c-1.2,0,0-1,0-1L396.8,202.5L396.8,202.5z"/>
	<path class="st1" d="M356.6,222.6l-1.8-0.2l0.1,0.7h0.5c0.8,1.4,0.1,4.8,0.1,4.8s-1.2,0.1-1.4-0.5c-0.2-0.6-0.7,1.3-0.3,1.7
		c0.4,0.3,1.8,0,2,1c0,1.2,0.8-0.6,0.8-0.6v-7L356.6,222.6z"/>
	<path class="st1" d="M356.6,231.2l0.6-0.1l0.1-0.7l-1.5,1l-1-0.6v2.4l1.6,2.1l0.6-1.4l0.2-0.9l-0.7-0.3L356.6,231.2z M357.4,237.6
		v-1h-0.7v0.9L357.4,237.6z M356.5,242.4v-0.7l-0.8,0.1v0.7L356.5,242.4z M357.7,239.3c0.2,0,0.4-0.2,0.4-0.4s-0.2-0.4-0.4-0.4
		c-0.2,0-0.4,0.2-0.4,0.4c0,0,0,0.1,0,0.1C357.3,239.1,357.5,239.3,357.7,239.3z"/>
	<circle class="st1" cx="358.4" cy="241" r="0.4"/>
	<circle class="st1" cx="358.4" cy="229.4" r="0.4"/>
	<path class="st1" d="M392.3,214.5l-1-0.1l-0.3,0.5h-0.5v0.8h0.5l0.1,0.6l-0.4,0.4l-0.2,0.5l-0.8,0.2l-1.8,1.7v0.8l-0.6,0.7
		l-0.6,1.6h-2l-0.5,1.9l0.3,1.5l1.8,0.7l0.2-1l0.6-0.3l0.1-1l0.4-0.7l0.6-0.7l0.2-0.8l1-0.6l1.2-0.3l0.5-0.6l0.2-1.2v-0.9l0.5-0.6
		l1.2-0.5v-2h-0.6L392.3,214.5z M395.1,221.4v-1.5l-0.2-1.3l-1.5-0.7l-1,1l-0.3,1.4v1l-1,0.2l-0.2,2.7l-0.8,0.3l0.1,1l-1,0.3
		l-1.2,0.3l-0.2,1.3l-0.8,0.5l-0.4,1.3l-0.5,2.9c0,0,1,1.7,1.4,0.9c0.5-0.8,1.3-1,1.3-1l0.3-0.6h2.7c0.2-1,1.5-0.6,1.5-0.1s1,0,1,0
		l0.7-1h1.1l0.1-1.3l0.5-0.3V227c1.6-0.5,1.4-2,1.4-2l0.4-0.5l-0.2-0.7c-0.8-0.3-0.4-1,0.1-0.8s-0.7-1-0.7-1c-0.6,0.6-1-0.5-1-0.5
		h-1.6L395.1,221.4z M396.7,233.6c0,1.2-1.6,1.6-1.6,1.6l-1-0.3l-0.7-0.5V233l0.8-0.1l0.2,0.6L396.7,233.6L396.7,233.6z
		 M402.1,227.1c0.2,1,0.2-1.4,0.6-1.3c0.4,0.1,0.1-1.4,0.1-1.4l-1.8,1.3C401.9,225.8,402,226.7,402.1,227.1L402.1,227.1z
		 M407.4,221.9c0.4,0.9,0.3,2.2,1.8,3.2c0.5,0.3-0.3,1-0.8,0.7c-0.8-0.8-1.4-1.6-2-2.5V222C406.8,221.2,407.2,221.5,407.4,221.9z
		 M407.7,252.9l0.3,0.5l0.7-1l-0.6-0.3l-0.7,0.5L407.7,252.9z M404.9,251v1.2 M419.3,249.6l0.8-0.5l-0.3-0.6L419,249L419.3,249.6z
		 M448.2,270.6l0.9,0.5v1.7c1.3,1.2,5.2,0.2,5.2-0.1l-0.2-3.8l-0.5-0.5l-0.1-2.5c0.4-1.3-2-3.2-2.1-2.8c-0.2,0.4-1.5,0-1.5,0.5
		c0,0.4-0.8,2.4-0.4,3.1s-0.3,0.7-0.4,1.4c-0.1,0.7-1.1,2-1,2.6L448.2,270.6z M446,266.6c-0.2,0.8-1,1.2-1.3,1
		c-0.4-0.4,0.5,0.4,0.7,0.8s0.8,0.4,1,0s0-1.3,0.3-1.7C446.9,266.3,446.1,266.2,446,266.6L446,266.6z M441.3,248h0.7v2h-0.7V248z
		 M451.7,228.6c-0.5-0.6,2-1.7,2.4-0.4c0.4,1.2,0,1-0.4,0.9S452.3,229.4,451.7,228.6z M453.8,215v0.6l1,0.2l0.1-0.6L453.8,215z
		 M449.3,216.6l0.8,0.5h0.3l0.6-0.4v0.2l0.6-0.2l-0.2-0.5v-0.3L451,216l-0.7,0.5l-0.7-0.5L449.3,216.6z M454.9,192h-1.5
		c0,0,0.5,0.2-1-1.1c-1.3-1.3-2.2,0.3-2.2,0.3l-1.6,0.2v1.6l-0.8,0.3v1h1.2c0,0,0,1.1,0.3,0.6s2.8,0.1,2.6,1.4
		c-0.1,0.5,2.5,1.8,2.2,3.4c1.3,0.2,1,1.5,1,1.5l1.7,0.2l0.5-1l0.5,0.1v-0.6l-1.1-0.3l-0.2-3.3l-0.7-0.5l0.2-0.8l-0.8-0.3l0.4-1.3
		L454.9,192L454.9,192z M459.2,202.3h-0.8l-1.8,0.2l-1,2c0,0,0.5,0.3,1,1c0.3,0.7,0.5,4.8-0.7,5.5s0.1,0.3,0.1,0.3l-0.2,2.3
		c0.3,1,0.8,0.5,1.1,0c0.3-0.5,0.6-0.6,1-1.1s1-1.5,1.1-2.2s0.6-1.8,0.3-2.1c-0.3-0.3,0.3-1.7,0.3-1.7s0.4-0.8,0-1.6
		s0.1-1.8,0.4-2.2L459.2,202.3z M460.4,206.5l0.1-0.8h0.6v0.8H460.4z M460.4,209.3l-0.5-0.3l0.3-0.6l0.5,0.3L460.4,209.3z
		 M459.5,201.3l-0.4-1c0,0,0-0.8,0.2-1.2s-0.4-0.8-0.7-1c-0.3,0-0.2-0.8-0.3-1.2c0-0.4-0.8-0.7-0.8-0.7l-0.2-1.9
		c0-0.3-0.9-0.7-0.6-1l0.8-0.9c0.3-0.2-0.3-1.6,0.2-1.3s0.5,0.8,0.7,1.2s0,1.8,0.4,2.1c0.5,0.3,0,1.4,0.7,1.4c0.8,0,0.3,1.9,0.3,1.9
		s-0.2,1.4,0.3,1.5s0.2,2.5,0.2,2.5L459.5,201.3L459.5,201.3z M453.1,184.8c0.3,0.4,0.9,0.7,0.9,1.1c0,0.4-0.2,0.7,0.4,0.8
		s1,0,1.2,0.4c0.2,0.5,0.2,1.4,0,1.8c0,0.4,0.2,1,0.7,1s0.6,0,0.6,0.4c0,0.3,0.6-1.1,0.6-1.1c-0.5-0.4-1-1.3-1-1.3l-0.4-1.7
		c0-0.2-0.7-0.4-1-0.5c-0.3,0-0.8-1-0.8-1L453.1,184.8L453.1,184.8z M454.1,183.9c-0.3-0.4-0.6-0.7-1-0.9s-0.7-0.4-1.1-0.4
		c-0.4,0-0.7-0.3-0.7-0.7c0-0.1,0-0.2,0.1-0.3c0.2-0.4-0.3-0.6-0.3-1s0.3-0.4,0.8-0.1c0.5,0.3,0.4,0.4,0.8,0.9s0.6,1,1,0.9
		s0.7,0.9,1,0.6c0.5-0.3,0.4,0.7,0.4,0.7L454.1,183.9L454.1,183.9z M442.4,195.3c0.5,0.6-3,0.4-3,0s0.3-1.8,1.2-1.5
		c0.9,0.3,1-1.8,1-1.8s-0.8,0.1-0.1-0.3c0.7-0.4,0-1-0.3-1.3l-0.6-0.8h1.4c0.6-0.4,0.8-2.3,0.8-2.3c1.2,0.4,1.8-0.5,1.8-0.5l0.6,1.2
		c0.4,0.5-1,0.7-0.5,1s0.7,1.2,0.5,1.5s-1.3,0-1.3-0.3s-0.4,0.5,0,1s-0.5,1.2-0.7,1.2s-1.5,0.2-0.4,0.8c1,0.6,2.3,0.3,2.3,0.3
		s0.9,0,1.2,0.4c0.3,0.5-0.1,0.6-0.6,0.6l-3-0.2C442.7,194.3,442.1,195,442.4,195.3L442.4,195.3z M436,196.3c0.5-0.1,1.7-0.2,2,0
		c0.1,0.4-0.8,0.8-0.8,0.8l-1.2,0.2C435.6,196.8,435.5,196.3,436,196.3z M448.9,187.8c0.8-0.4,2.5-0.4,2.4-1c-0.1-0.7,1-0.9,1-0.9
		l0.3,1.2l0.9,0.7v1l-0.7,0.2c-1.1,0.3-0.4,0.8-0.4,0.8h-2.5l-0.3-1L448.9,187.8L448.9,187.8z M444.9,182.3c0.7,0-0.1,2.3,1.5,2.1
		s0,0.7,1.3,0.8c1.2,0.1,0.9-0.9,1.3-1.6c0.4-0.7,0.2-1.1-0.5-1.3s-0.7-0.2-1-1c-0.1-0.8-1-1-1-1l-0.2-1.2l-1.3,0.8l-1.3,1.7
		C443.7,182.9,444.4,182.3,444.9,182.3L444.9,182.3z M447.6,190.8l0.3-0.6l0.6,0.3l-0.3,0.6L447.6,190.8z M446.6,189.8h0.6v0.8h-0.6
		V189.8z M447.1,176.4v0.9h-0.5l-0.1-0.8L447.1,176.4z M445.4,185.8h0.6v0.5h-0.6V185.8z M443.8,185.8v-0.6h1v0.5L443.8,185.8z
		 M435.6,195.6l-0.6-0.3l0.3-0.7l0.6,0.3L435.6,195.6z M432.4,193.7v-0.6h1v0.5L432.4,193.7z M415.1,193.5l-2.2,0.1v0.6h2.3
		L415.1,193.5z M411.5,194.4l-0.2-0.9l0.6-0.1l0.2,0.9L411.5,194.4z M411.1,195l-0.2-0.5l0.3-0.1l0.2,0.5L411.1,195z M416.1,193.3
		L416,194l1,0.1c0,0,0.5,0.4,0.5,0.7s0.7,0.6,1.1,0.6s1.5-0.8,1.5-0.8s0.5-1.4,0.1-1.3c-0.4,0.1-1.2,0.7-1.3,0.1
		c0-0.6-1.3-0.3-1.3-0.3L416.1,193.3L416.1,193.3z M421.1,192.3c0,0.2-0.3,0.6,0.3,0.7c0.6,0.1,1.7-0.4,1.8,0.2c0.1,0.6,0.1,1,1,1.3
		c0.6,0.2,1.2,0.4,1.8,0.4l2-0.2c0,0,1.3,0.3,1.6,0.5c1.1,1.2,1.8,1.5,2.1,1c0.3-0.5,0-1.7-0.2-2c0-0.5-1.5-2.4-2-2s-0.6,0-1.5,0.3
		s-2.8,0.1-2.9-0.3c0-0.4-1.5-0.6-1.5-1s-1-1-0.9-0.3c0.1,0.6-0.7,0.9-0.9,0.7c-0.2-0.2-0.8,0.6-0.8,0.6L421.1,192.3z M444,179.3
		l0.7-2.3c-1-0.2-0.8-1.3-0.8-1.3c-0.1-1-1.5-2-2-1.6c-0.5,0.3-0.3-2.1-0.3-2.1s0.9-0.6,1.3-0.3s-3.4-5.1-4.2-4.6
		c-0.8,0.5-2.6-0.5-2.5-1.4c0.1-1-3.6-4-3.6-4s-1.2-0.8-1.4-0.2c-0.2,0.6-0.6,1,0,1.4c0.6,0.3,0.5-0.5,1.2,0.2s2,1.6,1.5,2.2
		c-0.5,0.6-1,0.8-1,0.8l0.6,0.8h1.1l0.2,1.7c0,0,1.2,0.6,1.5,1.3s0.3,1.1,0,1.6c-0.3,0.4-0.9,1-0.8,1.8c0.1,0.7,1,1,1,1h0.7l0.6,0.4
		v1.3c0.8-0.2,2.1,1,2,1.6c0,0.7,0.2,0.3,1.2,1s0.7,0.8,1.4,1.4c0.7,0.5,1.3,0.2,1.6-0.8L444,179.3z"/>
	<path class="st1" d="M427.4,165.6c0-0.4-0.3-1.8,0.3-1.7c0.6,0,0.2,0,1,0.3s0.7-0.5,0.7-0.5h1.1l1.4,1l-0.2,1h-1
		c-0.5-0.7-1.5-0.4-1.3,0.3s-0.5,2-0.9,2.1s-1.7,0.1-1.6-0.5L427.4,165.6L427.4,165.6z M426.6,162.9V162c0,0,0-0.8-0.6-0.8
		s-1.4-0.6-1.2-1c0.2-0.4-1.7-0.8-1.7-0.8s-1.7-1.6-1-1.4c0.5,0.2,0.2-0.7,0.2-0.7s-1.2,0.2-1.5,0c-0.3,0-0.2-1-0.2-1
		s-1.2-0.2-1.2,0s0.4,0.4,0.6,1s0.1,1.6,1,1.8c1,0.2,1.1,0.4,1.2,0.8c0.1,0.4,1.2,0.5,1.2,0.5l0.8,0.4L426.6,162.9L426.6,162.9z
		 M415.9,152.5l-0.3-0.8l-0.8-0.2v1H415.9z M415.6,148.3c-1-0.8,1.4,0.6,1.4,0.6c0.8,0,1.3,0.6,1.3,0.9c0,0.3,1,0.2,1,0.2l0.1-0.7
		l-0.8-1l-0.7-0.5c0,0-1-0.1-1-0.4c0-0.3-1,1.2-1.4,0.9H415.6z M433.9,148.9c-0.3,0.9-0.4,2.1-0.9,2.1s-0.3,1.3-0.3,1.3l1.7,0.1
		c0.4,0.1,0.4,1.1,0.4,1.1c1.5,0,2.1,2,2,2.5c-0.3,0.5,0.5,0.5,0.5,0.5s0,1.6-0.2,2s1.3,0.7,1.7,1.3c0.4,0.6-0.2,2.6-0.5,2.7
		c-0.3,0.2,0.8,0.5,0.7,1c-0.1,0.5,0.3,0,0.4,0.8l0.3,2.5l1.4,0.1c0.2-1.3,2.8-1.4,3.2-1.2c1.7,0.6,3,3.2,3,3.8s-1.1,0.7-1.1,0.7
		l0.2,3c1.7,0.5,3,3,2.9,3.3c-0.2,0.4,1.2,0.3,1.2,0.3c0.2-1.8,1.9-1.2,2-0.6c0,0.6,0.4,2,0.4,2l0.5,0.8l0.7,0.7h1l0.4,0.6l1.2,0.2
		c0,0,1.1,1.2,1.2,1.5s1.6,0.2,2,0.3c0.4,0,1,0.4,1.1,0.9s0.7,1.3,0.7,1.3s1.2,0.3,1.3,0.7l0.6,1.3l1,0.8l0.1,1h1.1l0.3,1.3l1.8-0.1
		l1-0.7c0.9-0.5,1.7-1.1,2.3-2c0.1-0.5,0.3-2,1.3-1.7s0.3-2.2,0.3-2.2s-1.4-1-1.3-1.5s-1.4-1.5-1.3-2c0.1-0.3-1.3-1.2-1.2-1.6
		c0.1-0.4-0.7-1.5-0.7-1.5l-1.4-1.3l-0.2-1h-1.2l-2.4-3l0.1-0.8h-0.7V169l-0.7-0.4h-1l-2.3-2.5l-0.2-1.1h-1l0.2-2.1
		c0.7-1,0.3-2.7,0.3-2.7s-1.4,0.7-2.1,0.4s0.3-1,0.3-1v-0.8l-0.6-0.6c0,0-1.7,0.2-1.8-0.1l-0.4-1.6l-0.1-1.7l-0.7-0.3l-0.1-0.7
		l-1.1,0.1v-1.2l-0.6-0.2l-0.6-0.3l-0.1-1.2l-2.2-0.1l-0.7-1l-0.8-1.2l-2.5-0.2l-0.6-0.6l-1-0.2l-0.7-0.3l-0.3,0.5h-2v0.7
		c-1,0.5-5,0-5,0.4L433.9,148.9z M444.4,146.2c-0.2-0.7,2-1.5,2.5-0.9s1.9,0.7,2,3.8c0.1,1-1.7-1.1-1.7-1.1l-1.5-0.5
		c-0.8-0.2-1.2-0.7-1.3-1.2V146.2z M415.1,147.5l-0.5-0.3l0.4-0.9l0.5,0.3L415.1,147.5z M410,137.5l-1.3-1.3v-1l-0.4-0.5l-0.4-1.4
		l-1.3-0.4l-1.3,0.5l-1.4,0.9l-1.5,0.2l-0.8,1l3.2,0.2l0.6,1l2.3,0.2l1.5,1.5C410.5,138.9,410.8,138.2,410,137.5L410,137.5z
		 M409.8,132.5c-0.2-0.8-1.5,1.2-0.2,1.6c1.3,0.4,2.6,0,2.6,0l0.3-0.6l5,0.1c0.4-0.4,0.6-1,0.6-1s1.2-0.4,1.7-0.2s0-1.4-0.4-1.2
		c-0.5,0.2-1.5,0-1.5,0h-1.8c-0.1-0.6-1.7-0.3-1.8,0c-0.1,0.5-0.7,0.6-0.7,0.6l-2.3,0.2c-0.2,0.6-1.4,1-1.5,0.6L409.8,132.5z
		 M399.9,149.7c1.5,0.5,2.1,0,2.2-0.3c0.1-0.4,0.2-0.5,0.8-0.6c0.6-0.1-0.1-1.3-0.7-1.2c-0.6,0-1.2-0.2-1.3-0.7
		c-0.1-0.6-1.1-1.9-1.2-0.9s-0.7,1-0.6,1.8C399.2,148.5,399.5,149.5,399.9,149.7L399.9,149.7z M388.4,150.8c0-0.4,2-0.4,2.3-0.1
		c0.3,0.3,0.1,0.8,1,0.8s0.5,0.6,0.4,1c0,0.2-1,0.1-1.2-0.2c0-0.3-1.6-0.4-1.6-0.4S388.5,151.3,388.4,150.8L388.4,150.8z
		 M422.4,129.1l-0.8,0.6l-0.5-0.5l-0.5,0.5l0.7,0.7l0.2,0.2l0.2-0.2l1-0.8L422.4,129.1z M416.9,127.3l-0.7-0.4l-0.3,0.5l0.8,0.5h0.3
		l1.1-0.7l-0.3-0.5L416.9,127.3z M413.6,148.1h-0.1l-1-0.1v0.6h0.8l0.6,1l0.5-0.3l-0.7-1L413.6,148.1z M380.6,176.3l0.1,1.1h1.5
		c0.6,0-0.5-0.7-0.5-0.7s-1.2,0.1-1-0.4L380.6,176.3z M382.6,176.3l0.3-0.4l0.6,0.5l-0.4,0.4L382.6,176.3z M364.4,157.4l0.4-0.4
		l0.6,0.6L365,158L364.4,157.4z M393.4,287.7l-1-0.5l-0.3,0.5l0.6,0.3l-0.2,0.2l0.4,0.5l0.5-0.5l0.3-0.3L393.4,287.7z M385.6,280.4
		l-0.4-0.5l-0.6,0.5l-0.3,0.3l0.4,0.2l0.7,0.5l0.3-0.5l-0.4-0.3L385.6,280.4z M459.8,261.2c-0.1-0.5-0.7-0.7-0.8-0.8l-0.2,0.6
		l0.2,0.1l0.1,0.5l-0.1,0.2l0.4,0.4C459.8,261.9,459.9,261.5,459.8,261.2L459.8,261.2z M460.8,259.2h-1v-0.9l1,0.2V259.2z
		 M483.8,251.4c0.5-0.3,1-0.8,1,0.4c-0.1,1.1-0.6,0.7-1,1.1C483.5,253.3,483.2,251.8,483.8,251.4z M488.9,247.1c0,0,0-0.1,0-0.1
		c0-0.2-0.1-0.5-0.2-0.7l-0.5,0.3l0.1,0.4c0,0.2,0,0.4,0.2,0.5c0.1,0.1,0.2,0.1,0.4,0l-0.1-0.5L488.9,247.1z M487.6,247.6l0.4,1.2
		l0.5-0.2c-0.1-0.4-0.2-0.8-0.3-1.2L487.6,247.6z M485.4,250h-0.6c0,0.4,0,1,0.5,1l0.2-0.5L485.4,250z M482.8,238
		c0-0.2-0.2-0.4-0.4-0.5c-0.4-0.2-1.1,0.1-1.5,0.4l0.3,0.5c0.4-0.3,0.9-0.4,1-0.4l0.6-0.1V238z M455.1,205.6
		c-0.4,0.4-1.3,0.6-1.3,0.6l-0.3,1l-0.4,0.5v1c0,0.7-1,1.1-1,1.1l-0.4,0.5H449c-1-0.4-0.3-1.6,0.3-1.5c0.6,0.1-0.1-1.7-0.1-1.7
		l0.8-0.1c0,0,0-1.8,0.4-1.8c0.3,0-0.1-0.6-0.5-1c-0.4-0.3-1-1.3-1.3-1.2h-2l-0.3,0.6l-1.1,0.2l-0.1,1c-0.6,0.8-3,2.3-2-0.2l0.4-0.7
		V203h-1.8c0,0-1-0.4-1-0.8v-0.9l-2.1-2.3l-2.5-0.3l-0.2-0.5l-1.5-0.2c-1.8-1-3.4-0.1-3,1.4c0.2,1.5,0.7,2.1-0.3,2.1
		s-1.2-0.8-1.2-0.8s-0.8-0.3-0.8,0.1s-0.3,1.2,0,1.6c0.3,0.4-0.4,1-0.7,0.7c-0.3-0.3-1-1.2-0.9-1.5c0.2-0.3-1.4-2.2,0.2-2.5
		s0-1.2,0.5-1.4l0.8-0.4h0.8l0.5-0.4l-1.3-0.2l-0.8-0.1l-1.5-0.1c-0.8,0.5-1.5,1.3-1.8,2.2c-0.8,1.5-2.7-0.6-2-1.4
		c0.7-0.8-2.2-0.1-2.7,0.3s-2,0.2-2,0.2c-0.3,0.9-1.7-0.1-1.3-0.7c0.4-0.6,0.4-1,0.4-1l-0.5-0.2l-0.6,1.2c-1.3,0-1.7,0.8-1.5,1.3
		c0.3,0.5-0.4-0.1-0.6,0.6c-0.1,0.7,0.2,0.7,0.7,1c0.6,0.3-0.3,0.3,0.1,0.8s1.6,0,1,0.7c-0.8,0.7-2.1,0.4-2.1,0.4
		c-0.1,1-2,0.7-2.2,0.4l-1.7-2.1l-2-0.1c-0.1-1.4,1-0.7,1.4-1.8s0.6-3,0.6-3s-1.6,0-1.7,0.4c-0.1,0.5-1.1,0.9-1.1,0.9
		s-0.8,0.3-0.5,0.7s-0.6,0.6-0.6,0.6s0.1,0.6-0.1,0.9c-0.8,0.8-2.8,0-3.1-0.2l-1.2-0.5l-1.2-0.8l-1.4,0.6l-0.4,0.4h-1.5l-0.1,1.2
		l2.7,0.3l0.2,2.5l-1.1-0.4h-0.7l-0.3-0.6h-0.6v2.1l0.6,0.5l0.5,0.5l1,0.1l0.2,1.3h2.5l0.3,0.6h1.5l2.9,3l-0.2,1l-0.5,0.2
		c0.2,0.7-1.3,0.3-1.3,0.3v0.6l0.7,0.1l0.7,0.4l1-1.7c1-0.7,1.6,0.3,1.7,1c0,0.5-0.5,0.4-0.5,0.4v1.5l0.6,0.2c1,1.2-0.4,1.9-0.4,1.9
		l-0.3,1c-0.3,0.9-1.4,0.7-1.4,0.7l-0.4,0.6l-1.2,0.3l2.4,0.3c0.2-0.8,0.8-1,1-0.6c0.4,0.4,0.4,1.1,0.4,1.1l0.6,0.1l-0.1,1.1
		l0.6,0.2v3.3l0.7,0.8c1.2-0.5,1.2,0.3,0.6,0.7s-0.2,2.2-0.2,2.2l-0.5,0.5v0.8l-0.6,0.4v1.2c-1-0.5-2.2-0.3-2.5,0
		c-1-0.6-2.8-0.4-2.8,0c0.6,0.9-0.7,1-0.7,1l-0.7,0.9c0.5,1-0.5,1.1-0.5,1.1v2l-1.2,1v2.7c0,0.7,1.6,0.8,1.9,0.4
		c0.3-0.4,1.5,0.8,1.5,0.8h0.9l0.2-1.8l-0.6-0.3v-3l1-1c1.2-0.5,0.8,2.5,0.8,2.8c0,1.2,0.6,1,1,0.8c1-0.4,0.3,1.2-0.5,1
		c-0.8,0-0.3,1-0.3,1l0.5,0.3l-1,0.7l-0.7,0.9l-1-0.3l-1.2-0.1l-0.4-0.7l-0.7-0.1l-0.1,1.4l-0.5,0.6l-1.2,1.2c1.6,0-0.2,1.1-0.6,1.1
		c0.9,0.3-0.1,1.2-2.4,0.5v0.7l-0.8,0.1l0.7,0.9h0.8l-0.3,1.8c0,1.3-3.3,0.4-3.6,0v2h-0.7l0.1,1.2v1.7l1-0.2v0.7l2.7,0.1l3.9-4.1
		l2.3-0.5c0.2-1,1.2,0.2,1.2,0.2c1-0.1,1.2,0.6,1.2,0.6l1.3,0.2c1,0.3,0.4,0.4,0.5,0.8c0,0.6,0.6,0.4,0.6,0.4l0.2-1.3l0.6,0.1
		l-0.6-0.7l-1.1-0.5l-1.2-0.5c-0.8-1.1,0.2-1,1-0.8h1.3c0,0,1.5,2,1.5,2.5s0.7,0.6,0.7,0.6h0.9l0.3,0.6h0.9l0.3,0.6h1.8v-0.9
		l-1.6-0.3l-0.1-1l-1.2-0.3c-0.4-1.7,0.3-2.2,0.8-1.4h0.6l-0.2-1.4l0.7-0.2l-0.2-2.2l-0.6-0.2v-0.7l2.5,0.1c-0.2-1.3,0-1.9,0-1.9
		h0.8v0.5l3.1,0.3l2.2-2.5c-0.1-0.2,0.2-0.3,0-0.5c-0.4-0.3-0.8,0-1.3-0.3s0-2,0-2.5c-0.2-0.4,1.6-1,1.3,0c-0.3,0.8,0,1.3,0,1.3
		c1.3-1.3,2.4,0,2.3,0.4c0,0.3,0.7,0.6,1.2,0.3s1.1,0.9,1,1.5c-0.3,0.6-2,0.5-2.2-0.1c0-0.6-0.4-0.4-0.6-0.1c-0.2,0.3-1,0.5-1.6,0.2
		c0-0.1-0.1-0.1-0.1-0.2l-2.2,2.5h0.1c1.2,0.7,0.6,1.6,0.2,1.8s-1,0.2-1,0.2l-0.3,0.4l-2.6,0.2l-0.2,1c-1.2-0.1-1.7,1.3-1.4,2
		c0.3,0.7,0,1.3,0,1.3l1,0.5l1.5-0.4c0.2-1,1-1.2,1.8-1.8s2.1,1,1.7,1.9c-0.4,0.8-0.4,1.1-0.4,1.1l0.1,1l-1,0.3l-0.8,0.4v0.5h-2.8
		l-0.4,0.5l-1.3,0.1l-0.4,0.7h-1c0,0-1.4,0.8-0.8,1.6s-2.5,0.7-3.2-0.4c-0.2,1-1.3,0-1.3,0l-1.1-0.2l-0.1-1.5c-0.2-1-2.1-1-2-0.3
		c0,0.7-3.6,0.3-3.6,0.3l-1.2,0.5l-1.1,0.7l-0.1,0.5l-1.8,0.2l-0.8,0.4l-0.3-0.6H395l-0.8,1c-2,0.2-4,1.4-3.9,2c0.2,0.4-0.8,1-0.8,1
		l-0.9,0.2l-0.6,1l-1.2,0.3l-0.2,2.2l-0.6,0.4v0.9l-0.7,0.2v0.5h-1l0.6,1.6l0.8,0.4c1.4,0.2,0.8,2,0.8,2h0.8l0.4,1.1l0.8,1.7
		c0.3,1.2,1.2,0.9,1.6,0.8s0.8,1.2,0.8,1.2l4,0.1c0,0-0.2,0.4,0.5,0.6s5.3,0.4,5.5,0.1c-0.2-0.9,2.5-1.1,3.6-0.3
		c1,0.8,2.6,0.3,2.6,0.3l1.5,1.8l1,2.3l1.7,0.5l1.2,0.3l0.4,1.7h0.9l0.3,1.2c1,0.8-0.3,2.5-0.3,2.5v2.3l0.8,0.4l-0.1,0.8l1.3,1.3
		h1.5l3.7,4.1l3,1l0.5,1.6l0.8-0.1l0.6-0.5l2.4-0.1l1.2-1.2l1.3-0.2l11-9.4l-1-0.6v-2.2c1.9-1.3,2-3.7,0.3-3.9
		c-1.3-0.1-0.7-1.5,0.5-1.7l0.7-0.3v-0.9l2.3-2.1v-1.6l-5-4.2c-2.2-0.8,0-5.7,1.5-5.6s-0.1-7.4-0.1-7.4l-0.8-0.4l0.2-2.5h-1.1
		l-1.8,2.4l-0.5,1.6c-0.2,2.1-6.4,1.7-6.7,1.4c-0.3-0.3-2.4-1.2-2.4-1.2s-1.6-1.3-1.9-1c-0.3,0.5-1.7-0.4-1.7-0.1
		c0,0.3-1.3-0.8-1.3-0.8l-2-0.7l1.5-0.3l-0.3-1.2l2.6,1.3c0.3,0.4,1.6,0.3,1.6,0.3l0.4,0.5c0,0,0.8,0,1.3,0.5
		c0.5,0.7,3.1,0.2,3.1,0.2l0.7,0.6l1.1,0.4h3.1l0.1-1.9l0.6-0.6v-1.2l0.6-0.6v-1l0.6-0.2l0.1-2.2l0.5-0.1v-4.9l-1.5-1.4
		c-0.1,0.5-1.7,0.5-1.7,0.5s-0.4,0.7-0.7,0.7c-0.3,0,0.4,1,0.2,1.5c-0.2,0.6-1,0.6-1,0.6l-1.5,0.4l-0.4,0.5h-1.6l-0.2-1.3l1.8-0.5
		l1-0.5l0.5-1c0.1-1,1.3-0.9,1.3-0.9s2.3-2,2.4-2.8c0.1-1,0.9-3.5,2.3-3.5h2.6c1-0.4,0.7-1.7,0.7-1.7l1.3-0.2l0.2,0.7
		c0,0,1.8,0.2,2,0c0.2-0.4,0.6-1,1-0.8c0.6,0.3,2.2-0.7,2.2-0.7c0-0.7,2.6-0.4,2.6-0.4l0.3-1c0,0-1.7-2.3-2-2.3s-2-1.4-2.1-0.9
		c-1.6-0.4-1.5-2.6-1.5-2.6l-0.6-1.4c0-0.8-1.5-2.5-1.8-2.3c-0.7-0.4-1-1.3-0.6-2c0.1-0.2,0.3-0.4,0.6-0.6c0.4,0,1.4-1.5,1.4-1.5
		l0.5-1.4l1.7-0.5l0.2-1.3l-1-0.1c0,0,1-1.9,1.6-1.9s3.8,0,4-0.2c0.4-0.2,1-1.8,1-2c0-0.4,0.8-0.5,1-0.6c0.4,0,1-0.9,1.3-1.3
		C456.3,207.7,455.6,205.1,455.1,205.6L455.1,205.6z"/>
	<path class="st1" d="M399.9,242c0.1,0,0.3,0.5,0.6,0.4c0.3,0,0.5,0.6,0.1,0.6c-0.2,0-0.2,0.3-0.2,0.5c0,0.1,0,0.5-0.3,0.8
		c-0.2,0.2-0.4,0-0.7-0.1c-0.3-0.2-0.5-0.2-0.9-0.2c-0.3,0,0,0.6,0,0.6s-1.6,0-1.3-0.3c0.3-0.2,0.6-0.3,0.4-0.4
		c-0.2-0.2,0-0.3,0-0.6s0.7-0.2,0.5-0.4s0-1.1,0.4-0.6l0.2-0.5c-0.2-0.3,0-0.3-0.5-0.5s-0.1-1-0.1-1v-0.7c0.2-0.7,1.7-0.8,1.8-0.1
		v1.1l0.5,0.2c0,0-0.1,0.4-0.5,0.4s0,0.2-0.2,0.5L399.9,242L399.9,242z M394.9,242.8c0.3-0.4,0.8-2.4,1.4-1.8c0.6,0.6,1,0,1,0
		s0.3,0.3,0.1,1c-0.1,0.5-0.3,1.1-0.6,1.2c-0.4,0-0.7,0.3-1.2,0.4C395.2,243.6,395,242.8,394.9,242.8L394.9,242.8z"/>
</g>
</svg>
