<?xml version="1.0" encoding="utf-8"?>
<!-- Generator: Adobe Illustrator 24.0.1, SVG Export Plug-In . SVG Version: 6.00 Build 0)  -->
<svg version="1.1" id="Layer_1" xmlns="http://www.w3.org/2000/svg" xmlns:xlink="http://www.w3.org/1999/xlink" x="0px" y="0px"
	 viewBox="0 0 800 480" style="enable-background:new 0 0 800 480;" xml:space="preserve">
<style type="text/css">
	.st0{fill:#FFFFFF;}
	.st1{fill:#CB001C;}
	.st2{fill:#2A3560;}
</style>
<rect class="st0" width="800" height="480"/>
<rect y="443.2" class="st1" width="800" height="36.8"/>
<rect y="369.6" class="st1" width="800" height="36.8"/>
<rect y="296" class="st1" width="800" height="36.8"/>
<rect x="364.8" y="220.8" class="st1" width="435.2" height="36.8"/>
<rect x="364.8" y="147.2" class="st1" width="435.2" height="36.8"/>
<rect x="364.8" y="73.6" class="st1" width="435.2" height="36.8"/>
<rect x="364.8" class="st1" width="435.2" height="36.8"/>
<rect class="st2" width="364.8" height="259.2"/>
<polygon class="st0" points="33.6,28.8 36.8,38.4 46.4,38.4 38.4,44.8 41.6,54.4 33.6,48 25.6,54.4 28.8,44.8 19.2,38.4 30.4,38.4 
	"/>
<polygon class="st0" points="33.6,72 36.8,81.6 46.4,81.6 38.4,88 41.6,97.6 33.6,91.2 25.6,97.6 28.8,88 19.2,81.6 30.4,81.6 "/>
<polygon class="st0" points="33.6,115.2 36.8,124.8 46.4,124.8 38.4,131.2 41.6,140.8 33.6,134.4 25.6,140.8 28.8,131.2 19.2,124.8 
	30.4,124.8 "/>
<polygon class="st0" points="33.6,158.4 36.8,168 46.4,168 38.4,174.4 41.6,184 33.6,177.6 25.6,184 28.8,174.4 19.2,168 30.4,168 
	"/>
<polygon class="st0" points="33.6,201.6 36.8,211.2 46.4,211.2 38.4,217.6 41.6,227.2 33.6,220.8 25.6,227.2 28.8,217.6 19.2,211.2 
	30.4,211.2 "/>
<polygon class="st0" points="62.4,51.2 65.6,60.8 75.2,60.8 67.2,67.2 70.4,76.8 62.4,70.4 54.4,76.8 57.6,67.2 49.6,60.8 
	59.2,60.8 "/>
<polygon class="st0" points="62.4,94.4 65.6,104 75.2,104 67.2,110.4 70.4,120 62.4,113.6 54.4,120 57.6,110.4 49.6,104 59.2,104 
	"/>
<polygon class="st0" points="62.4,137.6 65.6,147.2 75.2,147.2 67.2,153.6 70.4,163.2 62.4,156.8 54.4,163.2 57.6,153.6 49.6,147.2 
	59.2,147.2 "/>
<polygon class="st0" points="62.4,180.8 65.6,190.4 75.2,190.4 67.2,196.8 70.4,206.4 62.4,200 54.4,206.4 57.6,196.8 49.6,190.4 
	59.2,190.4 "/>
<polygon class="st0" points="91.2,28.8 94.4,38.4 105.6,38.4 96,44.8 99.2,54.4 91.2,48 83.2,54.4 86.4,44.8 78.4,38.4 88,38.4 "/>
<polygon class="st0" points="91.2,72 94.4,81.6 105.6,81.6 96,88 99.2,97.6 91.2,91.2 83.2,97.6 86.4,88 78.4,81.6 88,81.6 "/>
<polygon class="st0" points="91.2,115.2 94.4,124.8 105.6,124.8 96,131.2 99.2,140.8 91.2,134.4 83.2,140.8 86.4,131.2 78.4,124.8 
	88,124.8 "/>
<polygon class="st0" points="91.2,158.4 94.4,168 105.6,168 96,174.4 99.2,184 91.2,177.6 83.2,184 86.4,174.4 78.4,168 88,168 "/>
<polygon class="st0" points="91.2,201.6 94.4,211.2 105.6,211.2 96,217.6 99.2,227.2 91.2,220.8 83.2,227.2 86.4,217.6 78.4,211.2 
	88,211.2 "/>
<polygon class="st0" points="121.6,51.2 124.8,60.8 134.4,60.8 126.4,67.2 129.6,76.8 121.6,70.4 113.6,76.8 116.8,67.2 107.2,60.8 
	118.4,60.8 "/>
<polygon class="st0" points="121.6,94.4 124.8,104 134.4,104 126.4,110.4 129.6,120 121.6,113.6 113.6,120 116.8,110.4 107.2,104 
	118.4,104 "/>
<polygon class="st0" points="121.6,137.6 124.8,147.2 134.4,147.2 126.4,153.6 129.6,163.2 121.6,156.8 113.6,163.2 116.8,153.6 
	107.2,147.2 118.4,147.2 "/>
<polygon class="st0" points="121.6,180.8 124.8,190.4 134.4,190.4 126.4,196.8 129.6,206.4 121.6,200 113.6,206.4 116.8,196.8 
	107.2,190.4 118.4,190.4 "/>
<polygon class="st0" points="150.4,28.8 153.6,38.4 163.2,38.4 155.2,44.8 158.4,54.4 150.4,48 142.4,54.4 145.6,44.8 137.6,38.4 
	147.2,38.4 "/>
<polygon class="st0" points="150.4,72 153.6,81.6 163.2,81.6 155.2,88 158.4,97.6 150.4,91.2 142.4,97.6 145.6,88 137.6,81.6 
	147.2,81.6 "/>
<polygon class="st0" points="150.4,115.2 153.6,124.8 163.2,124.8 155.2,131.2 158.4,140.8 150.4,134.4 142.4,140.8 145.6,131.2 
	137.6,124.8 147.2,124.8 "/>
<polygon class="st0" points="150.4,158.4 153.6,168 163.2,168 155.2,174.4 158.4,184 150.4,177.6 142.4,184 145.6,174.4 137.6,168 
	147.2,168 "/>
<polygon class="st0" points="150.4,201.6 153.6,211.2 163.2,211.2 155.2,217.6 158.4,227.2 150.4,220.8 142.4,227.2 145.6,217.6 
	137.6,211.2 147.2,211.2 "/>
<polygon class="st0" points="179.2,51.2 182.4,60.8 193.6,60.8 185.6,67.2 187.2,76.8 179.2,70.4 171.2,76.8 174.4,67.2 166.4,60.8 
	176,60.8 "/>
<polygon class="st0" points="179.2,94.4 182.4,104 193.6,104 185.6,110.4 187.2,120 179.2,113.6 171.2,120 174.4,110.4 166.4,104 
	176,104 "/>
<polygon class="st0" points="179.2,137.6 182.4,147.2 193.6,147.2 185.6,153.6 187.2,163.2 179.2,156.8 171.2,163.2 174.4,153.6 
	166.4,147.2 176,147.2 "/>
<polygon class="st0" points="179.2,180.8 182.4,190.4 193.6,190.4 185.6,196.8 187.2,206.4 179.2,200 171.2,206.4 174.4,196.8 
	166.4,190.4 176,190.4 "/>
<polygon class="st0" points="209.6,28.8 212.8,38.4 222.4,38.4 214.4,44.8 217.6,54.4 209.6,48 201.6,54.4 204.8,44.8 196.8,38.4 
	206.4,38.4 "/>
<polygon class="st0" points="209.6,72 212.8,81.6 222.4,81.6 214.4,88 217.6,97.6 209.6,91.2 201.6,97.6 204.8,88 196.8,81.6 
	206.4,81.6 "/>
<polygon class="st0" points="209.6,115.2 212.8,124.8 222.4,124.8 214.4,131.2 217.6,140.8 209.6,134.4 201.6,140.8 204.8,131.2 
	196.8,124.8 206.4,124.8 "/>
<polygon class="st0" points="209.6,158.4 212.8,168 222.4,168 214.4,174.4 217.6,184 209.6,177.6 201.6,184 204.8,174.4 196.8,168 
	206.4,168 "/>
<polygon class="st0" points="209.6,201.6 212.8,211.2 222.4,211.2 214.4,217.6 217.6,227.2 209.6,220.8 201.6,227.2 204.8,217.6 
	196.8,211.2 206.4,211.2 "/>
<polygon class="st0" points="238.4,51.2 241.6,60.8 251.2,60.8 243.2,67.2 246.4,76.8 238.4,70.4 230.4,76.8 233.6,67.2 225.6,60.8 
	235.2,60.8 "/>
<polygon class="st0" points="238.4,94.4 241.6,104 251.2,104 243.2,110.4 246.4,120 238.4,113.6 230.4,120 233.6,110.4 225.6,104 
	235.2,104 "/>
<polygon class="st0" points="238.4,137.6 241.6,147.2 251.2,147.2 243.2,153.6 246.4,163.2 238.4,156.8 230.4,163.2 233.6,153.6 
	225.6,147.2 235.2,147.2 "/>
<polygon class="st0" points="238.4,180.8 241.6,190.4 251.2,190.4 243.2,196.8 246.4,206.4 238.4,200 230.4,206.4 233.6,196.8 
	225.6,190.4 235.2,190.4 "/>
<polygon class="st0" points="268.8,28.8 272,38.4 281.6,38.4 273.6,44.8 276.8,54.4 268.8,48 260.8,54.4 264,44.8 254.4,38.4 
	265.6,38.4 "/>
<polygon class="st0" points="268.8,72 272,81.6 281.6,81.6 273.6,88 276.8,97.6 268.8,91.2 260.8,97.6 264,88 254.4,81.6 
	265.6,81.6 "/>
<polygon class="st0" points="268.8,115.2 272,124.8 281.6,124.8 273.6,131.2 276.8,140.8 268.8,134.4 260.8,140.8 264,131.2 
	254.4,124.8 265.6,124.8 "/>
<polygon class="st0" points="268.8,158.4 272,168 281.6,168 273.6,174.4 276.8,184 268.8,177.6 260.8,184 264,174.4 254.4,168 
	265.6,168 "/>
<polygon class="st0" points="268.8,201.6 272,211.2 281.6,211.2 273.6,217.6 276.8,227.2 268.8,220.8 260.8,227.2 264,217.6 
	254.4,211.2 265.6,211.2 "/>
<polygon class="st0" points="297.6,51.2 300.8,60.8 310.4,60.8 302.4,67.2 305.6,76.8 297.6,70.4 289.6,76.8 292.8,67.2 284.8,60.8 
	294.4,60.8 "/>
<polygon class="st0" points="297.6,94.4 300.8,104 310.4,104 302.4,110.4 305.6,120 297.6,113.6 289.6,120 292.8,110.4 284.8,104 
	294.4,104 "/>
<polygon class="st0" points="297.6,137.6 300.8,147.2 310.4,147.2 302.4,153.6 305.6,163.2 297.6,156.8 289.6,163.2 292.8,153.6 
	284.8,147.2 294.4,147.2 "/>
<polygon class="st0" points="297.6,180.8 300.8,190.4 310.4,190.4 302.4,196.8 305.6,206.4 297.6,200 289.6,206.4 292.8,196.8 
	284.8,190.4 294.4,190.4 "/>
<polygon class="st0" points="326.4,28.8 329.6,38.4 340.8,38.4 331.2,44.8 334.4,54.4 326.4,48 318.4,54.4 321.6,44.8 313.6,38.4 
	323.2,38.4 "/>
<polygon class="st0" points="326.4,72 329.6,81.6 340.8,81.6 331.2,88 334.4,97.6 326.4,91.2 318.4,97.6 321.6,88 313.6,81.6 
	323.2,81.6 "/>
<polygon class="st0" points="326.4,115.2 329.6,124.8 340.8,124.8 331.2,131.2 334.4,140.8 326.4,134.4 318.4,140.8 321.6,131.2 
	313.6,124.8 323.2,124.8 "/>
<polygon class="st0" points="326.4,158.4 329.6,168 340.8,168 331.2,174.4 334.4,184 326.4,177.6 318.4,184 321.6,174.4 313.6,168 
	323.2,168 "/>
<polygon class="st0" points="326.4,201.6 329.6,211.2 340.8,211.2 331.2,217.6 334.4,227.2 326.4,220.8 318.4,227.2 321.6,217.6 
	313.6,211.2 323.2,211.2 "/>
</svg>
