<?xml version="1.0" encoding="utf-8"?>
<!-- Generator: Adobe Illustrator 24.0.1, SVG Export Plug-In . SVG Version: 6.00 Build 0)  -->
<svg version="1.1" id="flag-icons-uy" xmlns="http://www.w3.org/2000/svg" xmlns:xlink="http://www.w3.org/1999/xlink" x="0px"
	 y="0px" viewBox="0 0 800 480" style="enable-background:new 0 0 800 480;" xml:space="preserve">
<style type="text/css">
	.st0{fill:#FFFFFF;}
	.st1{fill:#0038A8;}
	.st2{fill:#FCD116;stroke:#7B3F00;stroke-width:1.864;stroke-linecap:square;stroke-miterlimit:75.5906;}
	.st3{fill:#FCD116;stroke:#7B3F00;stroke-width:1.8646;stroke-linecap:square;stroke-miterlimit:77;}
	.st4{fill:#7B3F00;stroke:#7B3F00;stroke-width:0.8484;stroke-linecap:square;stroke-miterlimit:77;}
	.st5{fill:none;stroke:#7B3F00;stroke-width:1.8646;stroke-miterlimit:77;}
	.st6{fill:#FCD116;stroke:#7B3F00;stroke-width:1.864;stroke-miterlimit:75.5906;}
	.st7{fill:#FCD116;stroke:#7B3F00;stroke-width:1.8646;stroke-miterlimit:77;}
	.st8{fill:#7B3F00;}
	.st9{fill:#7B3F00;stroke:#7B3F00;stroke-width:0.8481;stroke-linecap:square;stroke-miterlimit:75.5906;}
	.st10{fill:none;stroke:#7B3F00;stroke-width:1.864;stroke-miterlimit:75.5906;}
</style>
<path class="st0" d="M0,0h800v480H0V0z"/>
<path class="st1" d="M266,53.3h534v53.4H266V53.3z M266,160h534v53.3H266V160z M0,266.7h800V320H0V266.7z M0,373.3h800v53.4H0V373.3
	z"/>
<g transform="matrix(3.7795276 0 0 3.7795276 234.28536 -392.51935)">
	<g>
		<g>
			<path class="st2" d="M-28.4,146.4l2.5,3.7c-10.2,7.4-4,11.7-11.2,14.1c4.5-4.4-0.6-5,3.2-14.2"/>
			<g transform="matrix(.38981887 .941106 -.941106 .38981887 -17.008929 148.83334)">
				<path class="st3" d="M-11.2,12.4l3.6,2.4c-6.5,10.5,0.8,12.1-4.8,17c2.4-5.7-2.4-4.5-2.4-14.2"/>
				<path class="st4" d="M-11.2,12.4l-1.1,1.6l0.1,0c-0.8,5.2,0.1,8.6,0.8,11.2c0.3,1.3,0.6,2.4,0.6,3.5c0,0.7-0.2,1.4-0.6,2
					c3.8-4.2-2.1-6.2,3.9-16L-11.2,12.4z"/>
				<path class="st5" d="M-12.5,14c-1.6,10.5,3.6,13.7,0,17.8"/>
			</g>
			<path class="st6" d="M-26.7,139.1l-3.5-3.5l-15.7,22.7l22.7-15.7L-26.7,139.1l-19.2,19.2"/>
			<g>
				<g transform="matrix(0 1.0186458 -1.0186458 0 -17.008929 148.83334)">
					<g transform="matrix(.92387953 .38268343 -.38268343 .92387953 0 0)">
						<path class="st3" d="M-3.9,19.7l3.6,2.4c-6.5,10.5,0.8,12.1-4.8,17c2.4-5.7-2.4-4.4-2.4-14.1"/>
						<path class="st4" d="M-3.9,19.7L-5,21.4l0.1,0c-0.8,5.2,0.1,8.6,0.8,11.2c0.3,1.3,0.6,2.4,0.6,3.5c0,0.7-0.2,1.4-0.6,2
							c3.8-4.2-2.1-6.2,3.9-16L-3.9,19.7z"/>
						<path class="st5" d="M-5.2,21.3c-1.6,10.5,3.6,13.7,0,17.8"/>
					</g>
					<path class="st7" d="M-9.5,9.5h-4.8l4.8,26.6l4.8-26.6H-9.5v26.6"/>
					<path class="st8" d="M-9.5,9.5h4.8H-9.5v26.6l4.8-26.6"/>
				</g>
				<g transform="matrix(-.72029135 .72029135 -.72029135 -.72029135 -17.008929 148.83334)">
					<g transform="matrix(.92387953 .38268343 -.38268343 .92387953 0 0)">
						<path class="st3" d="M6.4,19.7l3.6,2.4c-6.5,10.5,0.8,12.1-4.8,17c2.4-5.7-2.4-5-2.4-14.7"/>
						<path class="st4" d="M6.4,19.7l-1.1,1.6l0.1,0C4.6,26.6,5.5,30,6.2,32.6c0.3,1.3,0.6,2.4,0.6,3.5c0,0.7-0.2,1.4-0.6,2
							C9.9,34,4,31.9,10,22.1L6.4,19.7z"/>
						<path class="st5" d="M5.2,21.3c-1.6,10.5,3.6,13.7,0,17.8"/>
					</g>
					<path class="st7" d="M0,13.5h-4.8L0,40.1l4.8-26.6H0v26.6"/>
					<path class="st8" d="M0,13.5h4.8H0v26.6l4.8-26.6"/>
				</g>
				<g transform="matrix(-1.0186458 0 0 -1.0186458 -17.008929 148.83334)">
					<g transform="matrix(.92387953 .38268343 -.38268343 .92387953 0 0)">
						<path class="st3" d="M13.7,12.4l3.6,2.4c-6.5,10.5,0.8,12.1-4.8,17c2.4-5.7-2.4-4.4-2.4-14.1"/>
						<path class="st4" d="M13.7,12.4l-1.1,1.6l0.1,0c-0.8,5.2,0.1,8.6,0.8,11.2c0.3,1.3,0.6,2.4,0.6,3.5c0,0.7-0.2,1.4-0.6,2
							c3.8-4.2-2.1-6.2,3.9-16L13.7,12.4z"/>
						<path class="st5" d="M12.5,14c-1.6,10.5,3.6,13.7,0,17.8"/>
					</g>
					<path class="st7" d="M9.5,9.5H4.7l4.8,26.6l4.8-26.6H9.5v26.6"/>
					<path class="st8" d="M9.5,9.5h4.8H9.5v26.6l4.8-26.6"/>
					<g transform="matrix(.70710678 .70710678 -.70710678 .70710678 0 0)">
						<g transform="matrix(.92387953 .38268343 -.38268343 .92387953 0 0)">
							<path class="st3" d="M13.7,2.1l3.6,2.4c-6.5,10.5,0.8,12.1-4.8,17c2.4-5.7-2.4-4.7-2.4-14.4"/>
							<path class="st4" d="M13.7,2.1l-1.1,1.6l0.1,0C11.9,9,12.8,12.3,13.4,15c0.3,1.3,0.6,2.4,0.6,3.5c0,0.7-0.2,1.4-0.6,2
								c3.8-4.2-2.1-6.2,3.9-16L13.7,2.1z"/>
							<path class="st5" d="M12.5,3.7c-1.6,10.5,3.6,13.7,0,17.8"/>
						</g>
						<path class="st7" d="M13.5,0H8.6l4.8,26.6L18.3,0H13.5v26.6"/>
						<path class="st8" d="M13.5,0h4.8H13.5v26.6L18.3,0"/>
					</g>
				</g>
				<g transform="matrix(0 -1.0186458 1.0186458 0 -17.008929 148.83334)">
					<g transform="matrix(.92387953 .38268343 -.38268343 .92387953 0 0)">
						<path class="st3" d="M6.4-5.2L10-2.8c-6.5,10.5,0.8,12.1-4.8,17C7.6,8.5,2.7,9.7,2.7,0"/>
						<path class="st4" d="M6.4-5.2L5.3-3.6l0.1,0C4.6,1.7,5.5,5,6.2,7.7c0.3,1.3,0.6,2.4,0.6,3.5c0,0.7-0.2,1.4-0.6,2
							C9.9,9.1,4,7,10-2.8L6.4-5.2z"/>
						<path class="st5" d="M5.2-3.6c-1.6,10.5,3.6,13.7,0,17.8"/>
					</g>
					<path class="st7" d="M9.5-9.5H4.7l4.8,26.6l4.8-26.6H9.5v26.6"/>
					<path class="st8" d="M9.5-9.5h4.8H9.5v26.6l4.8-26.6"/>
				</g>
				<g transform="matrix(.72029135 -.72029135 .72029135 .72029135 -17.008929 148.83334)">
					<g transform="matrix(.92387953 .38268343 -.38268343 .92387953 0 0)">
						<path class="st3" d="M-3.9-5.2l3.6,2.4c-6.5,10.5,0.8,12.1-4.8,17c2.4-5.7-2.4-4.6-2.4-14.3"/>
						<path class="st4" d="M-3.9-5.2L-5-3.6l0.1,0C-5.7,1.7-4.8,5-4.2,7.7c0.3,1.3,0.6,2.4,0.6,3.5c0,0.7-0.2,1.4-0.6,2
							c3.8-4.2-2.1-6.2,3.9-16L-3.9-5.2z"/>
						<path class="st5" d="M-5.2-3.6c-1.6,10.5,3.6,13.7,0,17.8"/>
					</g>
					<path class="st7" d="M0-13.5h-4.8L0,13.2l4.8-26.6H0v26.6"/>
					<path class="st8" d="M0-13.5h4.8H0v26.6l4.8-26.6"/>
				</g>
			</g>
		</g>
		<path class="st9" d="M-28.4,146.4l-1.6,1.1l0.1,0c-2.8,4.6-3.3,8.1-3.7,10.8c-0.2,1.4-0.4,2.5-0.9,3.5c-0.3,0.7-0.8,1.2-1.3,1.7
			c5.2-2.5,0.4-6.7,9.9-13.6L-28.4,146.4z"/>
		<g>
			<path class="st10" d="M-30.2,147.5c-5.6,9.2-1.9,14.3-6.9,16.7"/>
			<path class="st6" d="M-26.7,139.1h-4.9l4.9,27.1l4.9-27.1H-26.7v27.1"/>
		</g>
	</g>
	<path class="st8" d="M-26.7,139.1h4.9H-26.7v27.1l4.9-27.1"/>
	<path class="st8" d="M-26.7,139.1l3.5,3.5L-26.7,139.1l-19.2,19.2l22.7-15.7"/>
	<circle class="st6" cx="-26.7" cy="139.1" r="9"/>
	<g>
		<path class="st8" d="M-20.1,135.5c-0.6,0.7-0.9-0.5-3-0.5s-2.4,1.2-2.7,1c-0.3-0.2,1.7-1.7,2.4-1.8
			C-22.7,134.1-20.8,134.8-20.1,135.5 M-22.4,136.2c0.6,0.5,0.1,1.6-0.5,1.6c-0.6,0-1.6-1-1.2-1.6"/>
		<path class="st8" d="M-25.2,137c0.1-1,0.9-1.2,2.2-1.2c1.3,0,1.9,1,2.4,1.2c-0.6,0-1.1-0.8-2.4-0.8S-24.3,136.2-25.2,137
			 M-24.9,137.2c0.3-0.5,0.7,0.5,1.6,0.5c0.9,0,1.4-0.2,2-0.7c0.6-0.4-0.8,1-1.7,1C-23.9,138.1-25.2,137.6-24.9,137.2"/>
		<path class="st8" d="M-31.3,136.2c-0.4,0.2-1.1,1,0,1.6C-32.1,137.1-31.5,136.3-31.3,136.2z"/>
		<path class="st8" d="M-22.1,136.2c0.2,0.2,0.8,1,0,1.6C-21,137.1-21.7,136.3-22.1,136.2z"/>
		<path class="st8" d="M-28,139.7c-0.7,0.2-0.5,1.2-1.2,1.3c-0.7,0.1-1,0.8-0.9,0.7c0.4-0.3,1.3-0.6,2-0.6s0.8,0.4,1.4,0.4
			s0.7-0.4,1.4-0.4c0.7,0,1.6,0.2,2,0.6c0.1,0.1-0.2-0.7-0.9-0.7c-0.7-0.1-0.4-1.2-1.2-1.3c0,0.3,0.2,0.2,0.3,0.7
			c0,0.4-0.7,0.4-0.9,0c0.2,0.7-0.3,0.7-0.7,0.7s-0.9,0-0.7-0.7c-0.2,0.4-0.9,0.4-0.9,0C-28.3,139.9-28,140-28,139.7z"/>
		<path class="st8" d="M-30.6,142.5c-0.7,0.5-0.8,0.7-0.9,1.3c0.2-0.3,0.3-0.5,0.4-0.7c0,0-0.1,0-0.1-0.1c0,0,0.1,0,0.1,0
			C-30.9,143-30.8,142.8-30.6,142.5L-30.6,142.5z"/>
		<path class="st8" d="M-31,143.1C-31,143.1-31,143.1-31,143.1c0.1,0,0.2,0,0.3,0C-30.8,143.1-30.9,143.1-31,143.1L-31,143.1z"/>
		<path class="st8" d="M-30.7,143.1c0.5,0.1,0.9,0.2,1.3,0.3c0.5,0,1.1-0.2,2.7-0.2s2.2,0.1,2.7,0.2c0.4-0.1,0.8-0.2,1.3-0.3
			c-0.9,0-2.1-0.6-2.7-0.6c-0.7,0-0.8,0.2-1.3,0.2s-0.7-0.2-1.3-0.2C-28.6,142.5-29.8,143.1-30.7,143.1z"/>
		<path class="st8" d="M-22.7,143.1c0.1,0,0.2,0,0.3,0c0,0,0,0,0,0C-22.5,143.1-22.6,143.1-22.7,143.1L-22.7,143.1z"/>
		<path class="st8" d="M-22.4,143.1c0,0,0.1,0,0.1,0C-22.3,143.1-22.4,143.1-22.4,143.1c0.2,0.2,0.3,0.4,0.5,0.7
			c-0.1-0.6-0.2-0.8-0.9-1.3C-22.6,142.8-22.5,143-22.4,143.1L-22.4,143.1z"/>
		<path class="st8" d="M-22.4,143.1C-22.4,143.1-22.4,143.1-22.4,143.1c-0.9,0.3-1.2,0.4-1.6,0.3c-0.8,0.3-1.4,0.5-2.7,0.5
			c-1.3,0-1.9-0.3-2.7-0.5c-0.5,0-0.8,0-1.6-0.4c0,0,0,0,0,0c2.6,1.1,2.3,1.5,4.3,1.5S-25,144.2-22.4,143.1L-22.4,143.1z"/>
		<path class="st8" d="M-31,143.1C-31,143.1-31,143.1-31,143.1c0,0-0.1,0-0.1,0C-31.1,143.1-31.1,143.1-31,143.1z"/>
		<path class="st8" d="M-22.4,143.1c0,0,0.1,0,0.1,0C-22.3,143.1-22.4,143.1-22.4,143.1C-22.4,143.1-22.4,143.1-22.4,143.1
			L-22.4,143.1z"/>
		<g transform="matrix(-.10186458 0 0 .10186458 -17.008929 148.83334)">
			<path class="st8" d="M160.7-130.8c-5.7,6.5-8.9-4.8-29.1-4.8s-23.4,12.1-26.6,9.7c-3.2-2.4,17-17,23.4-17.8
				C134.9-144.6,153.4-138.1,160.7-130.8 M137.3-123.6c5.7,4.8,0.8,15.3-4.8,15.3s-16.1-9.7-11.3-16.1"/>
			<path class="st8" d="M110.7-116.3c0.8-9.7,8.9-11.3,21.8-11.3s18.6,9.7,23.4,12.1c-5.7,0-10.5-8.1-23.4-8.1s-12.9,0-21.8,8.1
				 M113.1-113.9c3.2-4.8,7.3,4.8,16.1,4.8s13.7-2.4,19.4-6.5c5.7-4-8.1,9.7-17,9.7S110.7-110.7,113.1-113.9"/>
		</g>
		<path class="st8" d="M-26.7,145.4c-0.4,0-1.5,0.2,0,0.2S-26.3,145.4-26.7,145.4"/>
	</g>
</g>
</svg>
