<?xml version="1.0" encoding="utf-8"?>
<!-- Generator: Adobe Illustrator 24.0.1, SVG Export Plug-In . SVG Version: 6.00 Build 0)  -->
<svg version="1.1" id="flag-icons-uz" xmlns="http://www.w3.org/2000/svg" xmlns:xlink="http://www.w3.org/1999/xlink" x="0px"
	 y="0px" viewBox="0 0 800 480" style="enable-background:new 0 0 800 480;" xml:space="preserve">
<style type="text/css">
	.st0{fill:#1EB53A;}
	.st1{fill:#0099B5;}
	.st2{fill:#CE1126;}
	.st3{fill:#FFFFFF;}
</style>
<path class="st0" d="M0,320h800v160H0V320z"/>
<path class="st1" d="M0,0h800v160H0V0z"/>
<path class="st2" d="M0,153.6h800v172.8H0V153.6z"/>
<path class="st3" d="M0,163.2h800v153.6H0V163.2z"/>
<circle class="st3" cx="111.4" cy="76.8" r="57.6"/>
<circle class="st1" cx="130.6" cy="76.8" r="57.6"/>
<polygon class="st3" points="240.7,119.3 238.1,111.4 235.5,119.3 227.1,119.3 233.8,124.3 231.3,132.2 238.1,127.4 244.9,132.2 
	242.4,124.3 249.1,119.3 "/>
<polygon class="st3" points="238.1,65.3 235.5,73.2 227.1,73.3 233.8,78.2 231.3,86.1 238.1,81.3 244.9,86.1 242.4,78.2 249.1,73.3 
	240.7,73.2 "/>
<polygon class="st3" points="238.1,19.2 235.5,27.1 227.1,27.2 233.8,32.1 231.3,40.1 238.1,35.2 244.9,40.1 242.4,32.1 249.1,27.2 
	240.7,27.1 "/>
<polygon class="st3" points="286.8,119.3 284.2,111.4 281.5,119.3 273.2,119.3 279.9,124.3 277.4,132.2 284.2,127.4 291,132.2 
	288.4,124.3 295.1,119.3 "/>
<polygon class="st3" points="284.2,65.3 281.5,73.2 273.2,73.3 279.9,78.2 277.4,86.1 284.2,81.3 291,86.1 288.4,78.2 295.1,73.3 
	286.8,73.2 "/>
<polygon class="st3" points="284.2,19.2 281.5,27.1 273.2,27.2 279.9,32.1 277.4,40.1 284.2,35.2 291,40.1 288.4,32.1 295.1,27.2 
	286.8,27.1 "/>
<polygon class="st3" points="332.9,119.3 330.3,111.4 327.6,119.3 319.3,119.3 326,124.3 323.5,132.2 330.3,127.4 337,132.2 
	334.5,124.3 341.2,119.3 "/>
<polygon class="st3" points="330.3,65.3 327.6,73.2 319.3,73.3 326,78.2 323.5,86.1 330.3,81.3 337,86.1 334.5,78.2 341.2,73.3 
	332.9,73.2 "/>
<polygon class="st3" points="326,32.1 323.5,40.1 330.3,35.2 337,40.1 334.5,32.1 341.2,27.2 332.9,27.1 330.3,19.2 327.6,27.1 
	319.3,27.2 "/>
<polygon class="st3" points="148.6,119.3 145.9,111.4 143.3,119.3 135,119.3 141.7,124.3 139.2,132.2 145.9,127.4 152.7,132.2 
	150.2,124.3 156.9,119.3 "/>
<polygon class="st3" points="194.7,119.3 192,111.4 189.4,119.3 181.1,119.3 187.8,124.3 185.2,132.2 192,127.4 198.8,132.2 
	196.3,124.3 203,119.3 "/>
<polygon class="st3" points="192,65.3 189.4,73.2 181.1,73.3 187.8,78.2 185.2,86.1 192,81.3 198.8,86.1 196.3,78.2 203,73.3 
	194.7,73.2 "/>
</svg>
