<?xml version="1.0" encoding="utf-8"?>
<!-- Generator: Adobe Illustrator 24.0.1, SVG Export Plug-In . SVG Version: 6.00 Build 0)  -->
<svg version="1.1" id="flag-icons-va" xmlns="http://www.w3.org/2000/svg" xmlns:xlink="http://www.w3.org/1999/xlink" x="0px"
	 y="0px" viewBox="0 0 800 480" style="enable-background:new 0 0 800 480;" xml:space="preserve">
<style type="text/css">
	.st0{fill-rule:evenodd;clip-rule:evenodd;fill:#FFFFFF;}
	.st1{fill-rule:evenodd;clip-rule:evenodd;fill:#FFFFFF;stroke:#000000;stroke-width:1.5769;}
	.st2{fill-rule:evenodd;clip-rule:evenodd;fill:#FFF133;stroke:#000000;stroke-width:1.5769;}
	.st3{fill-rule:evenodd;clip-rule:evenodd;fill:#BB0000;stroke:#000000;stroke-width:1.3141;}
	.st4{fill-rule:evenodd;clip-rule:evenodd;fill:#C0C0C0;}
	.st5{fill-rule:evenodd;clip-rule:evenodd;fill:#C0C0C0;stroke:#000000;stroke-width:1.5769;}
	.st6{fill-rule:evenodd;clip-rule:evenodd;fill:#C0C0C0;stroke:#000000;stroke-width:0.7884;}
	.st7{fill-rule:evenodd;clip-rule:evenodd;fill:#C0C0C0;stroke:#000000;stroke-width:1.4455;}
	.st8{fill-rule:evenodd;clip-rule:evenodd;fill:#FFF133;stroke:#000000;stroke-width:0.3949;stroke-miterlimit:1.0018;}
	.st9{fill-rule:evenodd;clip-rule:evenodd;fill:#FFF133;}
	.st10{fill-rule:evenodd;clip-rule:evenodd;fill:#C0C0C0;stroke:#000000;stroke-width:0.3949;stroke-miterlimit:1.0018;}
	.st11{fill-rule:evenodd;clip-rule:evenodd;fill:#FFF133;stroke:#000000;stroke-width:0.7884;}
	.st12{fill-rule:evenodd;clip-rule:evenodd;fill:#FFF133;stroke:#000000;stroke-width:1.4455;}
	.st13{fill-rule:evenodd;clip-rule:evenodd;fill:#BB0000;stroke:#000000;stroke-width:1.3141;stroke-miterlimit:10;}
	.st14{fill-rule:evenodd;clip-rule:evenodd;fill:#B90000;}
	.st15{fill-rule:evenodd;clip-rule:evenodd;fill:#FFF133;stroke:#000000;stroke-width:0.1117;stroke-miterlimit:10;}
	.st16{fill-rule:evenodd;clip-rule:evenodd;fill:#FFE000;}
</style>
<path class="st0" d="M400,0h400v480H400V0z"/>
<g>
	<path class="st1" d="M608.2,171.7c0,0.2-17.7,58.3-37.3,78.6c-21.9,22.8-35.7,22.9-35.7,22.9l-22.4-4.7c0,0,13.1,0.5,39.1-27.3
		c26.3-28.2,34.5-74.8,34.1-74L608.2,171.7L608.2,171.7z"/>
	<path class="st1" d="M587.3,176.1c-0.5-2.5,10.7,57.8,44.2,85.6c16.7,13.9,27.9,13.9,27.9,13.9l27.9-4.6c0,0-16.3,1-42.3-26.8
		c-26.3-28.2-34.2-68.9-34.1-69C611.1,175.1,587.3,176.1,587.3,176.1z"/>
	<path class="st1" d="M586.5,174.1c0,0.2,17.7,58.3,37.3,78.6c21.9,22.8,35.7,22.9,35.7,22.9l22.4-4.7c0,0-13.1,0.5-39.1-27.3
		c-26.3-28.2-34.5-74.8-34.1-74L586.5,174.1L586.5,174.1z"/>
	<path class="st1" d="M607.4,173.7c0.5-2.5-10.7,57.8-44.2,85.6c-16.7,13.9-27.9,13.9-27.9,13.9l-27.9-4.6c0,0,16.3,1,42.3-26.8
		c26.3-28.2,34.2-68.9,34.1-69C583.6,172.7,607.4,173.7,607.4,173.7z"/>
	<path class="st2" d="M607.6,220.4l2.8,5.8c0,0,0.5-2.5,2.8-3l2.2-0.4c0,0,8.2,13,9.8,15.4c1.6,2.3-1.2,4.4-0.7,4.4
		c0.6,0,8.4-2.9,8.4-2.9s-3.3,0.2-4.7-1.7c-1.3-1.9-10.6-15.9-10.6-15.9s1.9-0.6,3.6-1.3c1.7-0.7,3.3,2.2,3.3,2.2l-4-7
		c0,0-0.1,2.3-1.5,2.7s-2.5,0.9-2.5,0.9s-1.1-1.6-2.4-3.5c-1.3-1.9,1.5-3.7,1.5-3.7l-7.3,2.9c0,0,2.5,1.2,3.3,2.4l1.6,2.3
		c0,0-1,0.5-2.6,0.9C609.4,221.4,608.2,220.9,607.6,220.4L607.6,220.4z"/>
	<g>
		<path class="st3" d="M534.5,365.5c-0.8-0.1-1.2-0.8-0.7-1.3s1.8-1,2.6-0.8l4.5,0.7c0.8,0.1,1.2,0.8,0.7,1.3
			c-0.5,0.6-1.8,1-2.6,0.8L534.5,365.5L534.5,365.5z"/>
		<path class="st3" d="M532.2,367.4c-0.8-0.1-1.1-0.8-0.6-1.4c0.5-0.5,1.8-0.9,2.6-0.8l4.4,0.8c0.8,0.1,1.1,0.8,0.6,1.4
			s-1.8,0.9-2.6,0.8L532.2,367.4L532.2,367.4z"/>
		<path class="st3" d="M529.7,369.4c-0.8-0.1-1.2-0.8-0.7-1.3s1.8-1,2.6-0.8l4.5,0.7c0.8,0.1,1.2,0.8,0.7,1.3
			c-0.5,0.6-1.8,1-2.6,0.8L529.7,369.4L529.7,369.4z"/>
		<path class="st3" d="M561.2,342.8c-0.8,0.1-1.4-0.5-1.1-1.1s1.4-1.3,2.3-1.4l4.6-0.3c0.8-0.1,1.4,0.5,1.1,1.1
			c-0.3,0.7-1.4,1.3-2.3,1.4L561.2,342.8L561.2,342.8z"/>
		<path class="st3" d="M559.4,345c-0.8,0-1.3-0.6-1-1.2s1.5-1.3,2.3-1.3l4.5-0.1c0.8,0,1.3,0.6,1,1.2s-1.5,1.3-2.3,1.3L559.4,345
			L559.4,345z"/>
		<path class="st3" d="M557.5,347.3c-0.8,0-1.4-0.5-1.1-1.2c0.3-0.6,1.5-1.3,2.3-1.3l4.6-0.2c0.8,0,1.4,0.5,1.1,1.2
			c-0.3,0.6-1.4,1.3-2.3,1.3L557.5,347.3L557.5,347.3z"/>
		<path class="st3" d="M555.4,348.3c-0.8,0-1.3-0.7-0.9-1.3s1.6-1.2,2.4-1.2l4.5,0.1c0.8,0,1.3,0.7,0.9,1.3
			c-0.4,0.6-1.6,1.2-2.4,1.1H555.4L555.4,348.3z"/>
		<path class="st3" d="M568,334.1c-0.8,0.1-1.4-0.4-1.2-1s1.2-1.4,2.1-1.5l4.5-0.7c0.8-0.1,1.4,0.4,1.2,1c-0.2,0.7-1.2,1.4-2.1,1.5
			L568,334.1L568,334.1z"/>
		<path class="st3" d="M566.6,336.5c-0.8,0.1-1.4-0.4-1.2-1.1c0.2-0.6,1.3-1.4,2.1-1.5l4.5-0.6c0.8-0.1,1.4,0.4,1.2,1.1
			s-1.3,1.4-2.1,1.5L566.6,336.5L566.6,336.5z"/>
		<path class="st3" d="M565.1,339.1c-0.8,0.1-1.4-0.4-1.2-1s1.2-1.4,2.1-1.5l4.5-0.7c0.8-0.1,1.4,0.4,1.2,1
			c-0.2,0.7-1.2,1.4-2.1,1.5L565.1,339.1L565.1,339.1z"/>
		<path class="st3" d="M563.2,341.3c-0.8,0.1-1.4-0.5-1.2-1.1s1.3-1.4,2.1-1.5l4.5-0.5c0.8-0.1,1.4,0.5,1.2,1.1
			c-0.2,0.7-1.3,1.4-2.1,1.5L563.2,341.3L563.2,341.3z"/>
		<path class="st3" d="M544.5,358.1c-0.8-0.1-1.2-0.7-0.8-1.3c0.4-0.6,1.7-1.1,2.5-1l4.6,0.4c0.8,0.1,1.2,0.7,0.8,1.3
			c-0.4,0.6-1.7,1.1-2.5,1L544.5,358.1L544.5,358.1z"/>
		<path class="st3" d="M542.2,360.1c-0.8-0.1-1.2-0.8-0.8-1.3s1.7-1.1,2.5-1l4.5,0.5c0.8,0.1,1.2,0.8,0.8,1.3c-0.4,0.6-1.7,1-2.5,1
			L542.2,360.1L542.2,360.1z"/>
		<path class="st3" d="M539.9,362.2c-0.8-0.1-1.2-0.7-0.8-1.3c0.4-0.6,1.7-1.1,2.5-1l4.6,0.4c0.8,0.1,1.2,0.7,0.8,1.3
			c-0.4,0.6-1.7,1.1-2.5,1L539.9,362.2L539.9,362.2z"/>
		<path class="st3" d="M537.1,363.4c-0.8-0.1-1.1-0.8-0.6-1.4s1.8-0.9,2.6-0.8l4.4,0.8c0.8,0.1,1.1,0.8,0.6,1.4s-1.8,0.9-2.6,0.8
			L537.1,363.4L537.1,363.4z"/>
		<path class="st3" d="M553.2,350.7c-0.8,0-1.3-0.6-1-1.2c0.4-0.6,1.5-1.2,2.4-1.2h4.6c0.8,0,1.3,0.6,1,1.2
			c-0.4,0.6-1.5,1.2-2.4,1.2H553.2L553.2,350.7z"/>
		<path class="st3" d="M551.3,352.7c-0.8,0-1.3-0.7-0.9-1.3s1.6-1.2,2.4-1.2l4.5,0.1c0.8,0,1.3,0.7,0.9,1.3
			c-0.4,0.6-1.6,1.2-2.4,1.1H551.3L551.3,352.7z"/>
		<path class="st3" d="M549,353.9c-0.8-0.1-1.2-0.7-0.8-1.3c0.4-0.6,1.7-1.1,2.5-1l4.6,0.4c0.8,0.1,1.2,0.7,0.8,1.3
			c-0.4,0.6-1.7,1.1-2.5,1L549,353.9L549,353.9z"/>
		<path class="st3" d="M546.8,355.9c-0.8-0.1-1.2-0.8-0.8-1.3c0.4-0.6,1.7-1.1,2.5-1l4.5,0.5c0.8,0.1,1.2,0.8,0.8,1.3
			c-0.4,0.6-1.7,1-2.5,1L546.8,355.9L546.8,355.9z"/>
		<path class="st3" d="M582.4,305.1c-0.8,0.3-1.5-0.2-1.4-0.8c0.1-0.7,0.9-1.6,1.7-1.9l4.3-1.4c0.8-0.3,1.5,0.2,1.4,0.8
			c-0.1,0.7-0.9,1.6-1.7,1.9L582.4,305.1L582.4,305.1z"/>
		<path class="st3" d="M581.6,306.3c-0.8,0.2-1.5-0.3-1.3-1c0.1-0.7,1.1-1.5,1.8-1.7l4.4-1c0.8-0.2,1.5,0.3,1.3,1
			c-0.1,0.7-1.1,1.5-1.9,1.7L581.6,306.3L581.6,306.3z"/>
		<path class="st3" d="M580.6,309c-0.8,0.2-1.5-0.3-1.4-0.9s1-1.5,1.8-1.7l4.4-1.1c0.8-0.2,1.5,0.3,1.4,0.9c-0.1,0.7-1,1.5-1.8,1.7
			L580.6,309L580.6,309z"/>
		<path class="st3" d="M579.5,311.7c-0.8,0.2-1.5-0.3-1.3-1c0.1-0.7,1.1-1.5,1.8-1.7l4.4-1c0.8-0.2,1.5,0.3,1.3,1
			c-0.1,0.7-1.1,1.5-1.9,1.7L579.5,311.7L579.5,311.7z"/>
		<path class="st3" d="M585.1,296.9c-0.8,0.2-1.5-0.2-1.4-0.9s0.9-1.6,1.7-1.8l4.3-1.3c0.8-0.2,1.5,0.2,1.4,0.9
			c-0.1,0.7-0.9,1.6-1.7,1.8L585.1,296.9L585.1,296.9z"/>
		<path class="st3" d="M584.3,299.6c-0.8,0.3-1.5-0.2-1.4-0.8c0.1-0.7,0.9-1.6,1.7-1.9l4.3-1.4c0.8-0.3,1.5,0.2,1.4,0.8
			c-0.1,0.7-0.9,1.6-1.7,1.9L584.3,299.6L584.3,299.6z"/>
		<path class="st3" d="M583.4,302.4c-0.8,0.2-1.5-0.2-1.4-0.9s0.9-1.6,1.7-1.8l4.3-1.3c0.8-0.2,1.5,0.2,1.4,0.9
			c-0.1,0.7-0.9,1.6-1.7,1.8L583.4,302.4L583.4,302.4z"/>
		<path class="st3" d="M573.7,324.1c-0.8,0.2-1.4-0.4-1.3-1c0.2-0.7,1.2-1.5,2-1.6l4.5-0.8c0.8-0.2,1.4,0.4,1.3,1
			c-0.2,0.7-1.2,1.5-2,1.6L573.7,324.1L573.7,324.1z"/>
		<path class="st3" d="M572.4,326.5c-0.8,0.1-1.4-0.4-1.2-1.1s1.2-1.4,2-1.6l4.5-0.7c0.8-0.1,1.4,0.4,1.2,1.1s-1.2,1.4-2,1.6
			L572.4,326.5L572.4,326.5z"/>
		<path class="st3" d="M571.1,329.2c-0.8,0.2-1.4-0.4-1.3-1c0.2-0.7,1.2-1.5,2-1.6l4.5-0.8c0.8-0.2,1.4,0.4,1.3,1
			c-0.2,0.7-1.2,1.5-2,1.6L571.1,329.2L571.1,329.2z"/>
		<path class="st3" d="M569.5,331.5c-0.8,0.1-1.4-0.4-1.2-1.1c0.2-0.6,1.3-1.4,2.1-1.5l4.5-0.6c0.8-0.1,1.4,0.4,1.2,1.1
			s-1.3,1.4-2.1,1.5L569.5,331.5L569.5,331.5z"/>
		<path class="st3" d="M578.3,314.4c-0.8,0.2-1.5-0.3-1.4-0.9c0.1-0.7,1-1.5,1.8-1.7l4.4-1.1c0.8-0.2,1.5,0.3,1.4,0.9
			c-0.1,0.7-1,1.5-1.8,1.7L578.3,314.4L578.3,314.4z"/>
		<path class="st3" d="M577.9,316.2c-0.8,0.1-1.4-0.4-1.2-1.1s1.2-1.4,2-1.6l4.5-0.7c0.8-0.1,1.4,0.4,1.2,1.1s-1.2,1.4-2,1.6
			L577.9,316.2L577.9,316.2z"/>
		<path class="st3" d="M576.5,319c-0.8,0.2-1.4-0.4-1.3-1s1.2-1.5,2-1.6l4.5-0.8c0.8-0.2,1.4,0.4,1.3,1c-0.2,0.7-1.2,1.5-2,1.6
			L576.5,319L576.5,319z"/>
		<path class="st3" d="M575.1,321.3c-0.8,0.1-1.4-0.4-1.2-1c0.2-0.7,1.2-1.4,2-1.6l4.5-0.7c0.8-0.1,1.4,0.4,1.2,1.1s-1.2,1.4-2,1.6
			L575.1,321.3L575.1,321.3z"/>
		<path class="st3" d="M590.7,281.2c-0.7,0.4-1.5,0-1.6-0.6c-0.1-0.7,0.6-1.7,1.3-2.1l3.9-2c0.7-0.4,1.5,0,1.6,0.6
			c0.1,0.7-0.6,1.7-1.3,2.1L590.7,281.2L590.7,281.2z"/>
		<path class="st3" d="M589.6,283.8c-0.8,0.3-1.5-0.1-1.5-0.8c0-0.7,0.9-1.6,1.6-1.9l4.2-1.5c0.8-0.3,1.5,0.1,1.5,0.8
			c0,0.7-0.9,1.6-1.6,1.9L589.6,283.8L589.6,283.8z"/>
		<path class="st3" d="M588.8,286.4c-0.8,0.2-1.5-0.2-1.4-0.9c0.1-0.7,0.9-1.6,1.6-1.8l4.2-1.4c0.8-0.2,1.5,0.2,1.4,0.9
			c-0.1,0.7-0.9,1.6-1.6,1.8L588.8,286.4L588.8,286.4z"/>
		<path class="st3" d="M591.5,272.8c-0.7,0.3-1.5,0-1.6-0.7s0.6-1.7,1.3-2l4-1.8c0.7-0.3,1.5,0,1.6,0.7s-0.6,1.7-1.3,2L591.5,272.8
			L591.5,272.8z"/>
		<path class="st3" d="M591.3,275.7c-0.7,0.4-1.5,0-1.6-0.6c-0.1-0.7,0.6-1.7,1.3-2.1l3.9-2c0.7-0.4,1.5,0,1.6,0.6
			c0.1,0.7-0.6,1.7-1.3,2.1L591.3,275.7L591.3,275.7z"/>
		<path class="st3" d="M590.9,278.3c-0.7,0.3-1.5,0-1.6-0.7s0.6-1.7,1.3-2l4-1.8c0.7-0.3,1.5,0,1.6,0.7s-0.6,1.7-1.3,2L590.9,278.3
			L590.9,278.3z"/>
		<path class="st3" d="M588,289.3c-0.8,0.3-1.5-0.1-1.5-0.8c0-0.7,0.9-1.6,1.6-1.9l4.2-1.5c0.8-0.3,1.5,0.1,1.5,0.8
			c0,0.7-0.9,1.6-1.6,1.9L588,289.3L588,289.3z"/>
		<path class="st3" d="M586.8,291.2c-0.8,0.2-1.5-0.2-1.4-0.9s0.9-1.6,1.7-1.8l4.3-1.3c0.8-0.2,1.5,0.2,1.4,0.9
			c-0.1,0.7-0.9,1.6-1.7,1.8L586.8,291.2L586.8,291.2z"/>
		<path class="st3" d="M586,294.1c-0.8,0.3-1.5-0.2-1.4-0.8c0.1-0.7,0.9-1.6,1.7-1.9l4.3-1.4c0.8-0.3,1.5,0.2,1.4,0.8
			c-0.1,0.7-0.9,1.6-1.7,1.9L586,294.1L586,294.1z"/>
	</g>
	<g>
		<path class="st3" d="M657.3,358.1c0.8-0.1,1.2-0.7,0.8-1.3c-0.4-0.6-1.7-1-2.5-1l-4.6,0.5c-0.8,0.1-1.2,0.7-0.8,1.3
			c0.4,0.6,1.7,1,2.5,1L657.3,358.1L657.3,358.1z"/>
		<path class="st3" d="M659.5,360.1c0.8-0.1,1.2-0.8,0.8-1.3s-1.7-1-2.5-0.9l-4.5,0.6c-0.8,0.1-1.2,0.8-0.8,1.3
			c0.5,0.6,1.7,1,2.5,0.9L659.5,360.1L659.5,360.1z"/>
		<path class="st3" d="M661.8,362.2c0.8-0.1,1.2-0.7,0.8-1.3c-0.4-0.6-1.7-1-2.5-1l-4.6,0.5c-0.8,0.1-1.2,0.7-0.8,1.3
			c0.4,0.6,1.7,1,2.5,1L661.8,362.2L661.8,362.2z"/>
		<path class="st3" d="M632.4,334c0.8,0.1,1.4-0.4,1.2-1.1c-0.2-0.6-1.3-1.4-2.1-1.5l-4.5-0.5c-0.8-0.1-1.4,0.4-1.2,1.1
			c0.3,0.7,1.3,1.4,2.1,1.5L632.4,334L632.4,334z"/>
		<path class="st3" d="M634.2,336.2c0.8,0.1,1.4-0.5,1.1-1.1c-0.3-0.6-1.4-1.3-2.2-1.4l-4.5-0.3c-0.8-0.1-1.4,0.5-1.1,1.1
			c0.3,0.7,1.4,1.3,2.2,1.4L634.2,336.2L634.2,336.2z"/>
		<path class="st3" d="M635.8,338.8c0.8,0.1,1.4-0.5,1.1-1.1c-0.3-0.6-1.3-1.4-2.2-1.4l-4.6-0.5c-0.8-0.1-1.4,0.5-1.1,1.1
			c0.3,0.7,1.3,1.4,2.2,1.4L635.8,338.8L635.8,338.8z"/>
		<path class="st3" d="M637.9,339.8c0.8,0,1.3-0.6,1-1.2s-1.5-1.3-2.3-1.3l-4.5-0.1c-0.8,0-1.3,0.6-1,1.2s1.5,1.3,2.3,1.3
			L637.9,339.8L637.9,339.8z"/>
		<path class="st3" d="M626.4,324.9c0.8,0.2,1.5-0.3,1.3-1s-1.1-1.5-1.9-1.7l-4.5-0.9c-0.8-0.2-1.5,0.3-1.3,1s1.1,1.5,1.9,1.7
			L626.4,324.9L626.4,324.9z"/>
		<path class="st3" d="M627.6,327.5c0.8,0.1,1.4-0.4,1.3-1c-0.2-0.7-1.1-1.5-2-1.6l-4.4-0.8c-0.8-0.1-1.4,0.4-1.3,1
			c0.2,0.7,1.1,1.5,2,1.6L627.6,327.5L627.6,327.5z"/>
		<path class="st3" d="M628.9,330.2c0.8,0.2,1.5-0.3,1.3-1s-1.1-1.5-1.9-1.7l-4.5-0.9c-0.8-0.2-1.5,0.3-1.3,1s1.1,1.5,1.9,1.7
			L628.9,330.2L628.9,330.2z"/>
		<path class="st3" d="M630.7,332.5c0.8,0.1,1.4-0.4,1.2-1c-0.2-0.7-1.2-1.4-2-1.6l-4.4-0.7c-0.8-0.1-1.4,0.4-1.2,1
			c0.2,0.7,1.2,1.4,2,1.6L630.7,332.5L630.7,332.5z"/>
		<path class="st3" d="M648.1,350.3c0.8,0,1.3-0.6,0.9-1.2c-0.4-0.6-1.6-1.2-2.4-1.1l-4.6,0c-0.8,0-1.3,0.6-0.9,1.2
			c0.4,0.6,1.6,1.2,2.4,1.1L648.1,350.3L648.1,350.3z"/>
		<path class="st3" d="M650.1,352.2c0.8,0,1.3-0.7,0.9-1.3c-0.4-0.6-1.6-1.1-2.4-1.1l-4.5,0.3c-0.8,0-1.3,0.7-0.9,1.3
			c0.4,0.6,1.6,1.1,2.4,1.1L650.1,352.2L650.1,352.2z"/>
		<path class="st3" d="M652.3,354.6c0.8,0,1.3-0.6,0.9-1.2c-0.4-0.6-1.6-1.2-2.4-1.1l-4.6,0.1c-0.8,0-1.3,0.6-0.9,1.2
			c0.4,0.6,1.6,1.2,2.4,1.1L652.3,354.6L652.3,354.6z"/>
		<path class="st3" d="M654.9,356c0.8-0.1,1.2-0.8,0.8-1.3s-1.7-1-2.5-0.9l-4.5,0.6c-0.8,0.1-1.2,0.8-0.8,1.3c0.5,0.6,1.7,1,2.5,0.9
			L654.9,356L654.9,356z"/>
		<path class="st3" d="M639.7,342.3c0.8,0,1.4-0.5,1.1-1.2s-1.4-1.3-2.3-1.3l-4.6-0.2c-0.8,0-1.4,0.5-1.1,1.2
			c0.3,0.6,1.4,1.3,2.3,1.3L639.7,342.3L639.7,342.3z"/>
		<path class="st3" d="M641.6,344.4c0.8,0,1.3-0.6,1-1.2s-1.5-1.3-2.3-1.3l-4.5-0.1c-0.8,0-1.3,0.6-1,1.2s1.5,1.3,2.3,1.3
			L641.6,344.4L641.6,344.4z"/>
		<path class="st3" d="M643.8,345.8c0.8,0,1.3-0.6,0.9-1.2s-1.6-1.2-2.4-1.1l-4.6,0.1c-0.8,0-1.3,0.6-0.9,1.2
			c0.4,0.6,1.6,1.2,2.4,1.1L643.8,345.8L643.8,345.8z"/>
		<path class="st3" d="M646,347.9c0.8,0,1.3-0.7,0.9-1.3c-0.4-0.6-1.6-1.1-2.4-1.1l-4.5,0.3c-0.8,0-1.3,0.7-0.9,1.3
			c0.4,0.6,1.6,1.1,2.4,1.1L646,347.9L646,347.9z"/>
		<path class="st3" d="M614.2,295.3c0.8,0.3,1.5-0.1,1.5-0.7s-0.8-1.6-1.5-1.9l-4.2-1.6c-0.8-0.3-1.5,0.1-1.5,0.7
			c0,0.7,0.8,1.6,1.5,1.9L614.2,295.3L614.2,295.3z"/>
		<path class="st3" d="M614.9,296.5c0.8,0.2,1.5-0.2,1.4-0.9c-0.1-0.7-0.9-1.6-1.7-1.8l-4.3-1.2c-0.8-0.2-1.5,0.2-1.4,0.9
			c0.1,0.7,0.9,1.6,1.7,1.8L614.9,296.5L614.9,296.5z"/>
		<path class="st3" d="M615.9,299.4c0.8,0.2,1.5-0.2,1.4-0.8s-0.9-1.6-1.7-1.8l-4.3-1.4c-0.8-0.2-1.5,0.2-1.4,0.8
			c0.1,0.7,0.9,1.6,1.7,1.8L615.9,299.4L615.9,299.4z"/>
		<path class="st3" d="M616.7,301.9c0.8,0.2,1.5-0.2,1.4-0.9c-0.1-0.7-0.9-1.6-1.7-1.8l-4.3-1.2c-0.8-0.2-1.5,0.2-1.4,0.9
			c0.1,0.7,0.9,1.6,1.7,1.8L616.7,301.9L616.7,301.9z"/>
		<path class="st3" d="M612.2,286.9c0.8,0.3,1.5-0.1,1.5-0.8s-0.8-1.6-1.5-1.9l-4.1-1.5c-0.8-0.3-1.5,0.1-1.5,0.8
			c0,0.7,0.8,1.6,1.5,1.9L612.2,286.9L612.2,286.9z"/>
		<path class="st3" d="M612.9,289.8c0.8,0.3,1.5-0.1,1.5-0.7c0-0.7-0.8-1.6-1.5-1.9l-4.2-1.6c-0.8-0.3-1.5,0.1-1.5,0.7
			c0,0.7,0.8,1.6,1.5,1.9L612.9,289.8L612.9,289.8z"/>
		<path class="st3" d="M613.6,292.4c0.8,0.3,1.5-0.1,1.5-0.8c0-0.7-0.8-1.6-1.5-1.9l-4.1-1.5c-0.8-0.3-1.5,0.1-1.5,0.8
			c0,0.7,0.8,1.6,1.5,1.9L613.6,292.4L613.6,292.4z"/>
		<path class="st3" d="M621.4,314.6c0.8,0.2,1.5-0.3,1.3-0.9c-0.1-0.7-1.1-1.5-1.9-1.7l-4.4-1.1c-0.8-0.2-1.5,0.3-1.3,0.9
			c0.1,0.7,1.1,1.5,1.9,1.7L621.4,314.6L621.4,314.6z"/>
		<path class="st3" d="M622.6,317.1c0.8,0.2,1.5-0.3,1.3-1c-0.1-0.7-1.1-1.5-1.9-1.7l-4.4-1c-0.8-0.2-1.5,0.3-1.3,1
			c0.1,0.7,1.1,1.5,1.9,1.7L622.6,317.1L622.6,317.1z"/>
		<path class="st3" d="M623.7,320c0.8,0.2,1.5-0.3,1.3-0.9c-0.1-0.7-1.1-1.5-1.9-1.7l-4.4-1.1c-0.8-0.2-1.5,0.3-1.3,0.9
			c0.1,0.7,1.1,1.5,1.9,1.7L623.7,320L623.7,320z"/>
		<path class="st3" d="M625.1,322.2c0.8,0.1,1.4-0.4,1.3-1s-1.1-1.5-2-1.6l-4.4-0.8c-0.8-0.1-1.4,0.4-1.3,1c0.2,0.7,1.1,1.5,2,1.6
			L625.1,322.2L625.1,322.2z"/>
		<path class="st3" d="M617.7,304.8c0.8,0.2,1.5-0.2,1.4-0.8c-0.1-0.7-0.9-1.6-1.7-1.8l-4.3-1.4c-0.8-0.2-1.5,0.2-1.4,0.8
			c0.1,0.7,0.9,1.6,1.7,1.8L617.7,304.8L617.7,304.8z"/>
		<path class="st3" d="M618,306.6c0.8,0.2,1.5-0.3,1.3-1s-1.1-1.5-1.9-1.7l-4.4-1c-0.8-0.2-1.5,0.3-1.3,1c0.1,0.7,1.1,1.5,1.9,1.7
			L618,306.6L618,306.6z"/>
		<path class="st3" d="M619.1,309.3c0.8,0.2,1.5-0.3,1.3-0.9c-0.1-0.7-1.1-1.5-1.9-1.7l-4.4-1.1c-0.8-0.2-1.5,0.3-1.3,0.9
			c0.1,0.7,1.1,1.5,1.9,1.7L619.1,309.3L619.1,309.3z"/>
		<path class="st3" d="M620.2,311.9c0.8,0.2,1.5-0.3,1.3-1c-0.1-0.7-1.1-1.5-1.9-1.7l-4.4-1c-0.8-0.2-1.5,0.3-1.3,1
			c0.1,0.7,1.1,1.5,1.9,1.7L620.2,311.9L620.2,311.9z"/>
		<path class="st3" d="M608,271.1c0.7,0.4,1.5,0.1,1.6-0.5c0.1-0.7-0.4-1.7-1.1-2.1l-3.8-2.2c-0.7-0.4-1.5-0.1-1.6,0.5
			c-0.1,0.7,0.4,1.7,1.1,2.1L608,271.1L608,271.1z"/>
		<path class="st3" d="M608.8,273.5c0.7,0.3,1.5,0,1.5-0.7s-0.7-1.7-1.5-2l-4.1-1.7c-0.7-0.3-1.5,0-1.5,0.7s0.7,1.7,1.5,2
			L608.8,273.5L608.8,273.5z"/>
		<path class="st3" d="M609.5,276.2c0.7,0.3,1.5-0.1,1.5-0.8c0-0.7-0.7-1.6-1.5-1.9l-4.1-1.6c-0.7-0.3-1.5,0.1-1.5,0.8
			c0,0.7,0.7,1.6,1.5,1.9L609.5,276.2L609.5,276.2z"/>
		<path class="st3" d="M607.6,262.5c0.7,0.4,1.5,0.1,1.6-0.6s-0.5-1.7-1.2-2.1l-3.8-2.1c-0.7-0.4-1.5-0.1-1.6,0.6s0.5,1.7,1.2,2.1
			L607.6,262.5L607.6,262.5z"/>
		<path class="st3" d="M607.7,265.3c0.7,0.4,1.5,0.1,1.6-0.5c0.1-0.7-0.4-1.7-1.1-2.1l-3.8-2.2c-0.7-0.4-1.5-0.1-1.6,0.5
			c-0.1,0.7,0.4,1.7,1.1,2.1L607.7,265.3L607.7,265.3z"/>
		<path class="st3" d="M608,268c0.7,0.4,1.5,0.1,1.6-0.6s-0.5-1.7-1.2-2.1l-3.8-2.1c-0.7-0.4-1.5-0.1-1.6,0.6s0.5,1.7,1.2,2.1
			L608,268L608,268z"/>
		<path class="st3" d="M609.9,279.2c0.7,0.3,1.5,0,1.5-0.7s-0.7-1.7-1.5-2l-4.1-1.7c-0.7-0.3-1.5,0-1.5,0.7s0.7,1.7,1.5,2
			L609.9,279.2L609.9,279.2z"/>
		<path class="st3" d="M610.9,281.1c0.8,0.3,1.5-0.1,1.5-0.8s-0.8-1.6-1.5-1.9l-4.1-1.5c-0.8-0.3-1.5,0.1-1.5,0.8
			c0,0.7,0.8,1.6,1.5,1.9L610.9,281.1L610.9,281.1z"/>
		<path class="st3" d="M611.6,284.1c0.8,0.3,1.5-0.1,1.5-0.7c0-0.7-0.8-1.6-1.5-1.9l-4.2-1.6c-0.8-0.3-1.5,0.1-1.5,0.7
			c0,0.7,0.8,1.6,1.5,1.9L611.6,284.1L611.6,284.1z"/>
	</g>
	<path class="st2" d="M587.3,218l-2.8,5.8c0,0-0.5-2.5-2.8-3l-2.2-0.4c0,0-8.2,13-9.8,15.4c-1.6,2.3,1.2,4.4,0.7,4.4
		s-8.4-2.9-8.4-2.9s3.3,0.2,4.7-1.7c1.3-1.9,10.6-15.9,10.6-15.9s-1.9-0.6-3.6-1.3c-1.7-0.7-3.3,2.2-3.3,2.2l4-7
		c0,0,0.1,2.3,1.5,2.7s2.5,0.9,2.5,0.9s1.1-1.6,2.4-3.5c1.3-1.9-1.5-3.7-1.5-3.7l7.3,2.9c0,0-2.5,1.2-3.3,2.4l-1.6,2.3
		c0,0,1,0.5,2.6,0.9C585.4,219,586.7,218.5,587.3,218L587.3,218z"/>
	<g transform="matrix(.14437 0 0 .12085 423.6 295.3)">
		<path class="st4" d="M1317.5-191.8l-66,65.8L1482,104.6l65.8-65.7L1317.5-191.8z"/>
		<ellipse class="st2" cx="329.7" cy="-1113.6" rx="6.7" ry="5.6"/>
		<path class="st5" d="M362.7-1113.7l49.3,49.5l-32.9,32.9l-49.4-49.4c-16.4-16.4,16.4-49.3,32.9-32.9L362.7-1113.7z"/>
		<path class="st2" d="M435.5-1073.6l-65.8,65.7c-18.1,0-32.9-14.7-32.9-32.9l0,0c14.2-33.9,32.9-50.5,65.7-65.7
			c17.6,1.2,31.6,15.2,32.9,32.9L435.5-1073.6L435.5-1073.6z"/>
		<path class="st5" d="M428.4-1080.7l49.5,49.4l-66,65.8l-49.3-49.3c6.6-26.3,39.4-59.3,65.7-65.8v-0.1H428.4z"/>
		<path class="st2" d="M484.9-1024.3L419-958.5c-18.1-0.1-32.8-14.7-32.9-32.9c14.2-34,32.9-50.5,65.7-65.8
			c17.6,1.2,31.6,15.2,32.9,32.9H484.9z"/>
		<path class="st5" d="M477.8-1031.3l450.5,450.5L862.5-515L411.9-965.5c6.6-26.3,39.6-59.1,65.8-65.7L477.8-1031.3L477.8-1031.3z"
			/>
		<path class="st2" d="M955.3-553.9l-66,65.8c-18.1-0.1-32.8-14.7-32.9-32.9c14.2-34,32.9-50.6,65.7-65.8
			C939.9-585.7,954.1-571.6,955.3-553.9z"/>
		<path class="st5" d="M955.3-553.9l296.2,296.3l-65.7,65.8L889.2-488.1c6.6-26.3,39.6-59.1,65.8-65.7L955.3-553.9z"/>
		<path class="st5" d="M1136.2-405.7l-98.7,98.7c-18.1-0.1-32.8-14.7-32.9-32.9c0,0,0-32.9,32.9-65.8c32.9-33,65.7-32.9,65.7-32.9
			C1118.6-436.6,1131.5-422.2,1136.2-405.7z"/>
		<path class="st5" d="M1136.2-405.7l66,98.7l-65.8,65.8l-98.8-65.7c-3.7-3.3,0-33,32.9-66C1103.3-405.8,1134.8-404.9,1136.2-405.7z
			"/>
		<path class="st5" d="M1185.8-290.5c-26.9-26.9-65.8-65.8-115.2-82.3c16.5,49.4,55.5,88.4,82.3,115.2L1185.8-290.5z"/>
		<path class="st5" d="M1136.4-241.1l16.4-16.4l-32.9-32.9c-32.9-32.9-82.3-16.5-82.3-16.5L1136.4-241.1z"/>
		<path class="st5" d="M1202.3-306.9l-16.4,16.4l-32.9-32.9c-32.9-32.9-16.5-82.3-16.5-82.3L1202.3-306.9z"/>
		<path class="st2" d="M477.8-1031.3l49.4,49.4c32.9,32.9,148.2,181.1,148.2,181.1s154.1,121.3,187,154.1l49.5,49.4
			C879-630.2,675.4-767.9,675.4-767.9s121.3,187,170.7,236.3L796.7-581c-32.9-32.9-154.1-187-154.1-187s-131.8-98.7-164.8-131.7
			l-65.7-65.7c32.9,32.9,230.4,164.5,230.4,164.5S510.8-998.3,477.8-1031.3z"/>
		<path class="st5" d="M1284.5-158.8c43.3,65.1,92.9,125.7,148.1,181.1c17.5,18.2,40.7,29.9,65.8,32.9c0,0,0-32.9-32.9-65.7
			C1410.2-65.8,1349.6-115.5,1284.5-158.8z M1202.2-307c115.1,115.2,246.9,181.1,329.2,263.5c65.8,65.7,20.2,116.2,1.8,132.2
			c-18.4,15.9-68.3,66.1-133.5-0.5c-82.4-82.3-148.2-214.1-263.5-329.3c0-32.9,33-65.7,65.8-65.7L1202.2-307z"/>
		<path class="st5" d="M1604.4,47.8l-37.7-43l-130.4,126.4l37.7,43L1604.4,47.8z"/>
		<g>
			<path class="st6" d="M456.6-964.1l-53.4,52.2l53.4,52.2L430-833.8L376.6-886l-107,104.7l53.4,52.2l-26.5,25.9l-53.4-52.2
				l-53.7,52.2l160.4,156.9l106.7-104.4l-53.4-52.5L376.3-677l-26.5-26.2l106.7-104.4l26.8,26.2l-26.8,25.9l53.4,52.2l53.4-52.2
				l-26.5-25.9l26.5-26.2l107,104.4L643.5-677L617-703.1l-53.7,52.5l53.7,52.2l26.5-26.2l26.8,26.2L563.3-494l-26.5-26.2l26.5-25.9
				l-53.4-52.2L403.2-494.1l160.1,156.6l53.7-52.2l-53.7-52.2l27.1-25.9l53.1,52.2l107-104.7l-53.7-52.2l26.8-25.9l53.4,52.2
				l53.4-52.2L456.6-964.1L456.6-964.1z"/>
			<path class="st7" d="M616.8-389.7v52.2L483.3-206.9v-104.4l26.7-26.2h53.5L616.8-389.7L616.8-389.7z"/>
			<path class="st7" d="M750.4-519.1L644.3-415.3l-1.2,51.9l107.3-105.1C750.4-468.5,750.4-519.1,750.4-519.1z"/>
			<path class="st7" d="M643.5-363.6l-53.4-52.2V-468l53.4,52.2V-363.6z"/>
			<path class="st7" d="M777.2-494.2l-53.4-52.2v-52.2l53.4,52.2V-494.2z"/>
			<path class="st7" d="M723.7-598.6v52.2l-26.8-26.1C696.9-572.5,723.7-598.6,723.7-598.6z"/>
			<path class="st7" d="M590.2-468v52.2l-26.8-26.1L590.2-468z"/>
			<path class="st7" d="M831.1-598.6l-54,52.2v52.2l54-53.8C831.1-548,831.1-598.6,831.1-598.6z"/>
			<path class="st7" d="M510-650.8L456.6-703v-52.2L510-703V-650.8z"/>
			<path class="st7" d="M616.8-546.4l-53.4-52.2v-52.2l53.4,52.2V-546.4z"/>
			<path class="st7" d="M643.5-677l-80.1-78.3v-52.2l106.9,104.4l-26.8,26.2C643.5-676.9,643.5-677,643.5-677z"/>
			<path class="st7" d="M563.5-807.5v52.2l-26.8-26.1C536.7-781.4,563.5-807.5,563.5-807.5z"/>
			<path class="st7" d="M510-650.8l53.4-52V-755L510-702.9V-650.8L510-650.8z"/>
			<path class="st7" d="M376.4-677l80.2-78.1v-52.2L349.7-703l26.7,26.2L376.4-677z"/>
			<path class="st7" d="M456.6-650.9L349.7-546.2h-53.4l-26.7,25.9v104.5l186.9-183.4v-51.6v-0.1H456.6z"/>
			<path class="st7" d="M563.5-337.5L403.2-494.2h-53.5L510-337.5H563.5z M483.3-311.2L323-468l26.7-26.1L510-337.5l-26.7,26.1
				V-311.2z"/>
			<path class="st7" d="M483.3-311.2v104.4L323-363.6V-468L483.3-311.2z"/>
			<path class="st7" d="M349.8-546.4L189.5-703.1H136l160.3,156.7C296.3-546.4,349.8-546.4,349.8-546.4z M269.6-520.2L109.3-676.9
				L136-703l160.3,156.6l-26.7,26.1C269.6-520.3,269.6-520.2,269.6-520.2z"/>
			<path class="st7" d="M269.6-520.2v104.4L109.3-572.5v-104.4L269.6-520.2z"/>
			<path class="st7" d="M296.3-703.1l-26.7-26.1v-52.2l53.4,52.2C323-729.2,296.3-703.1,296.3-703.1z"/>
			<path class="st7" d="M429.8-833.7l-26.7-26.1V-912l53.4,52.2C456.5-859.8,429.8-833.7,429.8-833.7z"/>
			<path class="st7" d="M563.4-494.1v-52.2l-26.7,26.1L563.4-494.1z"/>
			<path class="st7" d="M616.8-546.4l53.4-52l-26.7-26.1l-26.7,26.1v52.2V-546.4z"/>
			<path class="st7" d="M456.5-755.3l26.7-26.1l-26.7-26.1V-755.3z"/>
		</g>
		<path class="st2" d="M1645.5,81.9l-41.4-47l-143.5,138.6l41.4,47L1645.5,81.9z"/>
		<path class="st5" d="M1583.2,421.8c0,36.4-88.3,88-88.3-43.9h88.3V421.8z"/>
		<path class="st5" d="M1819,70.5c366.9,0,282.3,407.1,250.6,307.4c-23.5-73.1-88.6-175.5-162.2-198.8
			c-100.3-31.7-66.6,23.3-103.1,23.3c-36.7,0-3-55-103.3-23.3c-73.6,23.3-138.8,125.7-162.2,198.8
			C1507.1,477.8,1406.5,70.5,1819,70.5z"/>
		<path class="st5" d="M1450.4,421.8c5.2,194.1,167.8,347.2,363.2,342.1c188.1-5,339.4-155.2,344.4-342.1v-43.9
			c0-71.9-88.3,307.4-353.6,307.4s-353.9-309.1-353.9-307.4C1450.4,377.9,1450.4,421.8,1450.4,421.8z"/>
		<path class="st5" d="M2025.3,424.5c0,36.4,88.3,88,88.3-43.9h-88.3V424.5z"/>
		<path class="st5" d="M1450.4,377.9c0,194.1,158.4,351.5,353.9,351.5s353.9-157.4,353.9-351.5S1999.8,26.4,1804.3,26.4
			S1450.4,183.8,1450.4,377.9z M1583.2,377.9c0,36.4-56.9,7.4-23.5,106.6c20.1,66.7,73.6,118.3,141.3,136.3
			c100.3,31.5,66.6-23.3,103.3-23.3c36.4,0,2.7,54.8,103.1,23.3c68.9-18.4,122.7-71.9,141.3-140.3c31.9-99.7-23.2-66.2-23.2-102.6
			s54.9-2.7,23.2-102.4c-18.5-68.4-72.4-121.9-141.3-140.3c-100.3-31.7-66.6,23.1-103.1,23.1c-36.7,0-3-54.5-103.3-23.1
			c-68.9,18.5-122.7,71.9-141.3,140.3C1528,375.2,1583.2,341.5,1583.2,377.9z"/>
		<path class="st5" d="M2069.6,378c44.1,0,4.1,156.4,19.7,119.6c32.2-76.1,32.2-163.1,0-239.2C2073.8,221.3,2113.7,378,2069.6,378z"
			/>
		<path class="st5" d="M1494.9,378.1c-1.9,41.5,6.4,82.7,24.2,119.6c20,36.6-24.5-119.6,20-119.6c-44.2,0-4.2-156.4-20-119.6
			c-16.1,37.5-24.4,78.3-24.5,119.6H1494.9z"/>
		<path class="st5" d="M1683.8,661c77,32.4,163.9,32.4,240.8,0c37.2-15.4-120.3,24.3-120.3-19.6c0,43.9-157.5,4.2-120.5,19.8V661z
			 M1804.3,114.6c0-43.9,157.2-4.2,120.3-19.8c-76.9-32.6-163.9-32.6-240.8,0C1646.8,110.4,1804.3,70.8,1804.3,114.6z"/>
		
			<ellipse transform="matrix(0.9995 -3.132649e-02 3.132649e-02 0.9995 -2.3678 66.1495)" class="st8" cx="2109.9" cy="108.6" rx="48.5" ry="47.2"/>
		<path class="st8" d="M2009.9,91.7c39.1,27.7,72.1,63,97,103.7l15.3-9.1c-26.2-42.8-60.9-79.9-101.9-109L2009.9,91.7z"/>
		<path class="st8" d="M1502.4,560.6c24.9,40.7,57.9,76,97,103.7l-10.2,14.5c-41.1-29.1-75.7-66.1-101.9-109L1502.4,560.6z"/>
		<path class="st8" d="M1479.5,611.9c12.2,19.9,32.5,38.4,49.1,56.2c16.5,17.6,37.7,30.5,56.8,44l3.9-33.4
			c-41.1-29.1-75.7-66.2-101.9-109l-8.1,42.3L1479.5,611.9z"/>
		<path class="st2" d="M1987.6,679.5c41-24.8,76.5-57.5,104.4-96.4l14.6,10.2c-29.3,40.8-66.6,75.2-109.7,101.3L1987.6,679.5z"/>
		
			<ellipse transform="matrix(0.9995 -3.132476e-02 3.132476e-02 0.9995 -20.5502 47.1386)" class="st8" cx="1494.2" cy="679.4" rx="48.5" ry="47.2"/>
		<path class="st2" d="M1997.7,692.4c20-12.1,36.4-23.4,54.3-39.9s40.7-40.3,54.5-59.4l4.2,39.4c-29.3,40.8-66.6,75.2-109.7,101.3
			L1997.7,692.4z"/>
		<path class="st2" d="M1989,682.8l2.2,36.7l8,11.2l-2.5-37.2l-7.5-10.7H1989z M1598.4,667.5l-9,10.4l-2.5,33.7l7.2-7.4
			C1594.2,704.1,1598.4,667.5,1598.4,667.5z"/>
		
			<ellipse transform="matrix(0.9995 -3.132496e-02 3.132496e-02 0.9995 -20.9002 65.6122)" class="st8" cx="2083.6" cy="699.8" rx="48.5" ry="47.2"/>
	</g>
	<path class="st1" d="M535.3,157.3l-11.2-4.6l-11.2,4.6c0,0,23.1,9.3,23.1,41.7c0,23.2-39.5,27.8-39.5,55.6
		c0,11.9,10.8,23.2,22,23.2s27.9-4.6,44.7-18.5c-11.2,4.6-24,9.8-33.5,9.4c-6.2-0.1-17.3-4.6-17.3-13.9c0-18.6,38.7-28,38.7-55.8
		C551.1,166.6,535.3,157.4,535.3,157.3L535.3,157.3z"/>
	<path class="st1" d="M533.2,157.3l-14.7-4.6l-3.2,4.6c0,0,22.3,9.3,22.3,41.7c0,23.2-39.7,27.8-39.7,55.6
		c0,11.9,8.4,22.9,20.6,23.2c23.1,0.6,28.5-6.3,44.7-18.5c-13.6,8.5-33.1,12.2-40.7,8.9c-9.3-4-11-9.4-11-14.1
		c0-18.5,38.1-27.3,38.1-55.1C549.6,166.6,533.2,157.4,533.2,157.3L533.2,157.3z"/>
	<path class="st1" d="M535.4,157.5c-2.2-0.6-11.4-4.8-22.5,4.5c-5.6,4.6-5.6,13.9-5.6,18.5l-16.7-13.9c0,0,9.1-22.7,33.9-14
		C528.2,154,531.9,155.7,535.4,157.5L535.4,157.5z"/>
	<path class="st1" d="M532.1,155.8c-2.8-0.7-11.6-1.6-20.4,4.9c-5.6,4.6-6,11.2-6,15.9l-12.8-9.9c-1.1-0.8,7.8-21.2,31.3-14.1
		C527,153.4,529.6,154.5,532.1,155.8L532.1,155.8z"/>
	<path class="st2" d="M537.1,222.6l-4.3,4.8c0,0,0.5-2.2-1.2-2.8L530,224c0,0-11.3,10.5-13.4,12.3c-2.1,1.9-0.5,3.9-1,3.9
		s-5.8-3.3-5.8-3.3s2.6,0.5,4.4-1c1.8-1.5,14.2-12.7,14.2-12.7s-1.3-0.8-2.5-1.5c-1.1-0.8-3.4,1.5-3.4,1.5l5.7-5.7
		c0,0-0.8,2,0.2,2.5s1.7,1,1.7,1s1.4-1.3,3.2-2.8c1.7-1.5,0.1-3.3,0.1-3.3l4.9,3.2c0,0-2.4,0.8-3.5,1.7l-2.1,1.9c0,0,0.7,0.5,1.8,1
		C535.2,223.2,536.5,222.9,537.1,222.6L537.1,222.6z"/>
	<path class="st2" d="M494.9,164.6l2.2-3.6c0,0,0.3,1.7,1.9,2.3l1.6,0.5c0,0,6.5-7.7,7.8-9.1c1.3-1.4-0.8-3-0.4-3s6.1,2.8,6.1,2.8
		s-2.5-0.5-3.5,0.6c-1.1,1.1-8.4,9.4-8.4,9.4s1.4,0.6,2.6,1.3c1.2,0.6,2.5-1.1,2.5-1.1l-3.2,4.2c0,0,0-1.6-1-2
		c-1-0.5-1.9-0.9-1.9-0.9s-0.8,1-1.9,2.1s1,2.6,1,2.6L495,168c0,0,1.9-0.5,2.5-1.2l1.3-1.4c0,0-0.7-0.4-1.9-0.9
		C496.3,164.1,495.3,164.3,494.9,164.6z"/>
	<g transform="matrix(.14437 0 0 .12085 423.6 295.3)">
		<g transform="rotate(45 478.1 -504.6)">
			
				<ellipse transform="matrix(0.3014 0.9535 -0.9535 0.3014 -1153.4556 -2609.7063)" class="st5" cx="1204.2" cy="-2092" rx="5.4" ry="7"/>
			<path class="st2" d="M1180.9-2068.7v69.9h46.6v-69.9C1227.6-2092,1180.9-2092,1180.9-2068.7z"/>
			<path class="st5" d="M1157.8-1988.8h93c12.9-12.9,12.9-33.8,0-46.6l0,0c-34.2-13.9-59-12.5-93.2,0c-11.6,13.3-11.6,33.2,0,46.5
				L1157.8-1988.8z"/>
			<path class="st2" d="M1157.8-1998.8v69.8h93v-69.8c-23.3-13.9-69.9-13.9-93.2,0H1157.8z"/>
			<path class="st5" d="M1157.8-1919.2h93c12.8-12.9,12.8-33.7,0-46.5c-34.2-13.9-59-12.5-93.2,0c-11.7,13.4-11.7,33.3,0,46.6
				L1157.8-1919.2z"/>
			<path class="st9" d="M1157.8-741.7h93l0,326h-93.2L1157.8-741.7z"/>
			<path class="st2" d="M1157.8-1929v637.1h93V-1929c-23.3-13.9-69.9-13.9-93.2,0H1157.8z"/>
			<path class="st5" d="M1157.8-1253.8h93c12.8-12.9,12.8-33.7,0-46.5c-34.2-13.9-59-12.5-93.2,0c-11.6,13.3-11.6,33.2,0,46.5
				H1157.8z"/>
			<path class="st2" d="M1157.8-1253.8v419.1h93v-419.1c-23.3-13.9-69.9-13.9-93.2,0H1157.8z"/>
			<path class="st2" d="M1134.4-1021h139.7c12.9-12.8,13-33.6,0.2-46.5c-0.1-0.1-0.1-0.1-0.2-0.2c0,0-23.3-23.3-69.9-23.3
				s-69.8,23.3-69.8,23.3C1125.1-1055.3,1126.1-1036.1,1134.4-1021z"/>
			<path class="st2" d="M1134.4-1021l23.3,116.4h93.2l23.3-116.4c0.4-5-23.3-23.3-69.9-23.3C1157.5-1044.2,1136-1021.5,1134.4-1021z
				"/>
			<path class="st2" d="M1180.9-904.7c0-38,0-93.1,23.3-139.7c23.3,46.6,23.3,101.8,23.3,139.7H1180.9z"/>
			<path class="st2" d="M1250.8-904.7h-23.3v-46.5c0-46.5,46.5-69.9,46.5-69.9L1250.8-904.7z"/>
			<path class="st2" d="M1157.7-904.7h23.3v-46.5c0-46.5-46.5-69.9-46.5-69.9L1157.7-904.7z"/>
			<path class="st2" d="M1204.2-741.7c15.4,76.7,23.2,154.7,23.4,232.9c0.6,25.3-7.7,50-23.4,69.9c0,0-23.3-23.3-23.3-69.9
				c0-23.3,0-116.4,23.3-232.7V-741.7z M1157.8-904.7c0,162.9-46.5,302.8-46.5,419.2c0,93,67.8,96.5,92,94.7
				c24.4-1.7,95.1-1.6,94.2-94.9c0-116.3-46.5-256-46.5-419.1C1227.7-928,1181-928,1157.8-904.7z"/>
			<path class="st5" d="M1157.8-1929v69.9c0,46.5,23.1,232.7,23.1,232.7s-23.1,194.7-23.1,241.3v69.9c0-46.5,46.5-287.8,46.5-287.8
				s46.6,218,46.6,287.8v-69.9c0-46.5-23.3-241.3-23.3-241.3s23.3-162.9,23.3-209.5v-93.2c0,46.5-46.5,279.4-46.5,279.4
				S1157.8-1882.5,1157.8-1929z"/>
		</g>
		<path class="st2" d="M839.2,47.8l37.7-43l130.4,126.4l-37.7,43L839.2,47.8z"/>
		<path class="st2" d="M860.4,421.8c0,36.4,88.3,88,88.3-43.9h-88.3V421.8z"/>
		<path class="st2" d="M624.5,70.5c-366.9,0-282.3,407.1-250.6,307.4c23.5-73.1,88.6-175.5,162.2-198.8
			c100.3-31.7,66.6,23.3,103.1,23.3c36.7,0,3-55,103.3-23.3c73.6,23.3,138.8,125.7,162.2,198.8C936.5,477.8,1037.1,70.5,624.5,70.5z
			"/>
		<path class="st2" d="M993.2,421.8C988,615.9,825.4,769,630,763.9c-188.1-5-339.4-155.2-344.4-342.1v-43.9
			c0-71.9,88.3,307.4,353.6,307.4s353.9-309.1,353.9-307.4C993.2,377.9,993.2,421.8,993.2,421.8z"/>
		
			<ellipse transform="matrix(-0.2532 0.9674 -0.9674 -0.2532 523.5211 -186.8105)" class="st10" cx="333.9" cy="108.7" rx="39.1" ry="58.5"/>
		<path class="st5" d="M798.1,81.9l41.4-47L983,173.5l-41.4,47L798.1,81.9z"/>
		<path class="st2" d="M418.4,424.5c0,36.4-88.3,88-88.3-43.9h88.3C418.4,380.6,418.4,424.5,418.4,424.5z"/>
		<path class="st2" d="M993.2,377.9c0,194.1-158.4,351.5-353.9,351.5S285.4,572.1,285.4,377.9S443.8,26.4,639.3,26.4
			S993.2,183.8,993.2,377.9z M860.4,377.9c0,36.4,56.9,7.4,23.5,106.6c-20.1,66.7-73.6,118.3-141.3,136.3
			c-100.3,31.5-66.6-23.3-103.3-23.3c-36.4,0-2.7,54.8-103.1,23.3c-68.9-18.4-122.7-71.9-141.3-140.3
			c-31.9-99.7,23.2-66.2,23.2-102.6s-54.9-2.7-23.2-102.4c18.5-68.4,72.4-121.9,141.3-140.3c100.3-31.7,66.6,23.1,103.1,23.1
			c36.7,0,3-54.5,103.3-23.1c68.9,18.5,122.7,71.9,141.3,140.3C915.5,375.2,860.4,341.5,860.4,377.9z"/>
		<path class="st2" d="M374,378c-44.1,0-4.1,156.4-19.7,119.6c-32.2-76.1-32.2-163.1,0-239.2C369.8,221.3,329.9,378,374,378z"/>
		<path class="st2" d="M948.7,378.1c1.9,41.5-6.4,82.7-24.2,119.6c-20,36.6,24.5-119.6-20-119.6c44.2,0,4.2-156.4,20-119.6
			C940.6,296,949,336.8,949,378.1H948.7z"/>
		<path class="st2" d="M759.8,661c-77,32.4-163.9,32.4-240.8,0c-37.2-15.4,120.3,24.3,120.3-19.6c0,43.9,157.5,4.2,120.5,19.8V661z
			 M639.3,114.6c0-43.9-157.2-4.2-120.3-19.8c76.9-32.6,163.9-32.6,240.8,0C796.7,110.4,639.3,70.8,639.3,114.6z"/>
		<path class="st10" d="M433.8,91.7c-39.1,27.7-72.1,63-97,103.7l-15.3-9.1c26.2-42.8,60.9-79.9,101.9-109L433.8,91.7z"/>
		<path class="st10" d="M941.2,560.6c-24.9,40.7-57.9,76-97,103.7l10.2,14.5c41.1-29.1,75.7-66.1,101.9-109L941.2,560.6z"/>
		<path class="st10" d="M964.1,611.9c-12.2,19.9-32.5,38.4-49.1,56.2c-16.5,17.6-37.7,30.5-56.8,44l-3.9-33.4
			c41.1-29.1,75.7-66.2,101.9-109l8.1,42.3L964.1,611.9z"/>
		<path class="st5" d="M456,679.5c-41-24.8-76.5-57.5-104.4-96.4L337,593.3c29.3,40.8,66.6,75.2,109.7,101.3L456,679.5z"/>
		
			<ellipse transform="matrix(-0.2532 0.9674 -0.9674 -0.2532 1847.1633 -66.8667)" class="st10" cx="949.4" cy="679.5" rx="39.1" ry="58.5"/>
		<path class="st5" d="M445.9,692.4c-20-12.1-36.4-23.4-54.3-39.9s-40.7-40.3-54.5-59.4l-4.2,39.4c29.3,40.8,66.6,75.2,109.7,101.3
			C442.6,733.8,445.9,692.4,445.9,692.4z"/>
		<path class="st5" d="M454.6,682.8l-2.2,36.7l-8,11.2l2.5-37.2l7.5-10.7H454.6z M845.2,667.5l9,10.4l2.5,33.7l-7.2-7.4
			C849.4,704.1,845.2,667.5,845.2,667.5z"/>
		
			<ellipse transform="matrix(-0.2532 0.9674 -0.9674 -0.2532 1128.3219 528.5735)" class="st10" cx="360.2" cy="699.8" rx="39.1" ry="58.5"/>
		<g>
			<path class="st11" d="M1987.2-964.1l53.4,52.2l-53.4,52.2l26.5,25.9l53.4-52.2l107,104.7l-53.4,52.2l26.5,25.9l53.4-52.2
				l53.7,52.2l-160.4,156.9l-106.7-104.4l53.4-52.5l26.8,26.2l26.5-26.2l-106.7-104.4l-26.8,26.2l26.8,25.9l-53.4,52.2l-53.4-52.2
				l26.5-25.9l-26.5-26.2l-107,104.4l26.8,26.2l26.5-26.2l53.7,52.5l-53.7,52.2l-26.5-26.2l-26.8,26.2l107,104.4l26.5-26.2
				l-26.5-25.9l53.4-52.2L2040.5-494l-160.1,156.6l-53.7-52.2l53.7-52.2l-27.1-25.9l-53.1,52.2l-107-104.7l53.7-52.2l-26.8-25.9
				l-53.4,52.2l-53.4-52.2L1987.2-964.1L1987.2-964.1z"/>
			<path class="st12" d="M1826.9-389.7v52.2l133.6,130.6v-104.4l-26.7-26.2h-53.5l-53.2-52.2H1826.9z"/>
			<path class="st12" d="M1693.3-519.1l106.1,103.8l1.2,51.9l-107.3-105.1C1693.3-468.5,1693.3-519.1,1693.3-519.1z"/>
			<path class="st12" d="M1800.2-363.6l53.4-52.2V-468l-53.4,52.2V-363.6z"/>
			<path class="st12" d="M1666.6-494.2l53.4-52.2v-52.2l-53.4,52.2V-494.2z"/>
			<path class="st12" d="M1720-598.6v52.2l26.8-26.1C1746.8-572.5,1720-598.6,1720-598.6z"/>
			<path class="st12" d="M1853.5-468v52.2l26.8-26.1L1853.5-468z"/>
			<path class="st12" d="M1612.6-598.6l54,52.2v52.2l-54-53.8C1612.6-548,1612.6-598.6,1612.6-598.6z"/>
			<path class="st12" d="M1933.7-650.8l53.4-52.2v-52.2l-53.4,52.2V-650.8z"/>
			<path class="st12" d="M1826.9-546.4l53.4-52.2v-52.2l-53.4,52.2V-546.4z"/>
			<path class="st12" d="M1800.2-677l80.1-78.3v-52.2l-106.9,104.4l26.8,26.2V-677z"/>
			<path class="st12" d="M1880.2-807.5v52.2l26.8-26.1C1907-781.4,1880.2-807.5,1880.2-807.5z"/>
			<path class="st12" d="M1933.7-650.8l-53.4-52V-755l53.4,52.2v52.2V-650.8z"/>
			<path class="st12" d="M2067.3-677l-80.2-78.1v-52.2L2094-703l-26.7,26.2V-677z"/>
			<path class="st12" d="M1987-650.9l106.9,104.7h53.4l26.7,25.9v104.5l-187-183.4v-51.6V-650.9z"/>
			<path class="st12" d="M1880.3-337.5l160.3-156.7h53.5l-160.3,156.7H1880.3z M1960.5-311.2L2120.7-468l-26.7-26l-160.3,156.6
				l26.7,26.1v0.1H1960.5z"/>
			<path class="st12" d="M1960.5-311.2v104.4l160.3-156.7V-468L1960.5-311.2z"/>
			<path class="st12" d="M2093.9-546.4l160.3-156.7h53.5l-160.3,156.7H2093.9z M2174.1-520.2l160.3-156.7l-26.7-26.1l-160.3,156.6
				l26.7,26.1V-520.2z"/>
			<path class="st12" d="M2174.1-520.2v104.4l160.3-156.7v-104.4L2174.1-520.2z"/>
			<path class="st12" d="M2147.4-703.1l26.7-26.1v-52.2l-53.4,52.2C2120.7-729.2,2147.4-703.1,2147.4-703.1z"/>
			<path class="st12" d="M2013.8-833.7l26.7-26.1V-912l-53.4,52.2L2013.8-833.7z"/>
			<path class="st12" d="M1880.3-494.1v-52.2l26.7,26.1L1880.3-494.1z"/>
			<path class="st12" d="M1826.9-546.4l-53.4-52l26.7-26.1l26.7,26.1v52.2L1826.9-546.4L1826.9-546.4z"/>
			<path class="st12" d="M1987.1-755.3l-26.7-26.1l26.7-26.1V-755.3z"/>
		</g>
	</g>
	<g>
		<path class="st3" d="M595.5,285.8c-0.7-0.4-1.5-0.2-1.6,0.5c-0.2,0.7,0.4,1.7,1,2.2l3.7,2.3c0.7,0.4,1.5,0.2,1.6-0.5
			c0.2-0.7-0.4-1.7-1-2.2L595.5,285.8L595.5,285.8z"/>
		<path class="st3" d="M595.6,283.1c-0.7-0.4-1.5-0.1-1.6,0.5c-0.1,0.7,0.4,1.7,1.1,2.1l3.7,2.2c0.7,0.4,1.5,0.1,1.6-0.5
			c0.2-0.7-0.4-1.7-1.1-2.1L595.6,283.1L595.6,283.1z"/>
		<path class="st3" d="M595.7,280.1c-0.7-0.4-1.5-0.2-1.6,0.5c-0.2,0.7,0.4,1.7,1,2.2l3.7,2.3c0.7,0.4,1.5,0.2,1.6-0.5
			c0.2-0.7-0.4-1.7-1-2.2L595.7,280.1L595.7,280.1z"/>
		<path class="st3" d="M595.6,277.4c-0.7-0.4-1.5-0.1-1.6,0.5c-0.1,0.7,0.4,1.7,1.1,2.1l3.7,2.2c0.7,0.4,1.5,0.1,1.6-0.5
			c0.2-0.7-0.4-1.7-1.1-2.1L595.6,277.4L595.6,277.4z"/>
		<path class="st3" d="M595.5,296.9c-0.7-0.4-1.5-0.2-1.6,0.5c-0.2,0.7,0.4,1.7,1,2.2l3.7,2.3c0.7,0.4,1.5,0.2,1.6-0.5
			c0.2-0.7-0.4-1.7-1-2.2L595.5,296.9L595.5,296.9z"/>
		<path class="st3" d="M595.5,294.4c-0.7-0.4-1.5-0.1-1.6,0.5c-0.1,0.7,0.4,1.7,1.1,2.1l3.7,2.2c0.7,0.4,1.5,0.1,1.6-0.5
			c0.2-0.7-0.4-1.7-1.1-2.1L595.5,294.4L595.5,294.4z"/>
		<path class="st3" d="M595.5,291.4c-0.7-0.4-1.5-0.2-1.6,0.5c-0.2,0.7,0.4,1.7,1,2.2l3.7,2.3c0.7,0.4,1.5,0.2,1.6-0.5
			c0.2-0.7-0.4-1.7-1-2.2L595.5,291.4L595.5,291.4z"/>
		<path class="st3" d="M595.5,288.7c-0.7-0.4-1.5-0.1-1.6,0.5c-0.1,0.7,0.4,1.7,1.1,2.1l3.7,2.2c0.7,0.4,1.5,0.1,1.6-0.5
			c0.2-0.7-0.4-1.7-1.1-2.1L595.5,288.7L595.5,288.7z"/>
		<path class="st3" d="M595.9,263.2c-0.7-0.4-1.5-0.2-1.6,0.5c-0.2,0.7,0.4,1.7,1,2.2l3.7,2.3c0.7,0.4,1.5,0.2,1.6-0.5
			c0.2-0.7-0.4-1.7-1-2.2L595.9,263.2L595.9,263.2z"/>
		<path class="st3" d="M595.9,260.6c-0.7-0.4-1.5-0.1-1.6,0.5c-0.1,0.7,0.4,1.7,1.1,2.1l3.7,2.2c0.7,0.4,1.5,0.1,1.6-0.5
			c0.2-0.7-0.4-1.7-1.1-2.1L595.9,260.6L595.9,260.6z"/>
		<path class="st3" d="M595.9,257.6c-0.7-0.4-1.5-0.2-1.6,0.5c-0.2,0.7,0.4,1.7,1,2.2l3.7,2.3c0.7,0.4,1.5,0.2,1.6-0.5
			c0.2-0.7-0.4-1.7-1-2.2L595.9,257.6L595.9,257.6z"/>
		<path class="st3" d="M595.9,254.9c-0.7-0.4-1.5-0.1-1.6,0.5c-0.1,0.7,0.4,1.7,1.1,2.1l3.7,2.2c0.7,0.4,1.5,0.1,1.6-0.5
			c0.2-0.7-0.4-1.7-1.1-2.1L595.9,254.9L595.9,254.9z"/>
		<path class="st3" d="M595.8,274.5c-0.7-0.4-1.5-0.2-1.6,0.5c-0.2,0.7,0.4,1.7,1,2.2l3.7,2.3c0.7,0.4,1.5,0.2,1.6-0.5
			c0.2-0.7-0.4-1.7-1-2.2L595.8,274.5L595.8,274.5z"/>
		<path class="st3" d="M595.7,271.8c-0.7-0.4-1.5-0.1-1.6,0.5c-0.1,0.7,0.4,1.7,1.1,2.1l3.7,2.2c0.7,0.4,1.5,0.1,1.6-0.5
			c0.2-0.7-0.4-1.7-1.1-2.1L595.7,271.8L595.7,271.8z"/>
		<path class="st3" d="M595.8,268.8c-0.7-0.4-1.5-0.2-1.6,0.5c-0.2,0.7,0.4,1.7,1,2.2l3.7,2.3c0.7,0.4,1.5,0.2,1.6-0.5
			c0.2-0.7-0.4-1.7-1-2.2L595.8,268.8L595.8,268.8z"/>
		<path class="st3" d="M595.7,266.1c-0.7-0.4-1.5-0.1-1.6,0.5c-0.1,0.7,0.4,1.7,1.1,2.1l3.7,2.2c0.7,0.4,1.5,0.1,1.6-0.5
			c0.2-0.7-0.4-1.7-1.1-2.1L595.7,266.1L595.7,266.1z"/>
		<path class="st3" d="M595.2,330.7c-0.7-0.4-1.5-0.2-1.6,0.5c-0.2,0.7,0.4,1.7,1,2.2l3.7,2.3c0.7,0.4,1.5,0.2,1.6-0.5
			c0.2-0.7-0.4-1.7-1-2.2L595.2,330.7L595.2,330.7z"/>
		<path class="st3" d="M595.2,328c-0.7-0.4-1.5-0.1-1.6,0.5c-0.1,0.7,0.4,1.7,1.1,2.1l3.7,2.2c0.7,0.4,1.5,0.1,1.6-0.5
			c0.2-0.7-0.4-1.7-1.1-2.1L595.2,328L595.2,328z"/>
		<path class="st3" d="M595.3,325.2c-0.7-0.4-1.5-0.2-1.6,0.5c-0.2,0.7,0.4,1.7,1,2.2l3.7,2.3c0.7,0.4,1.5,0.2,1.6-0.5
			c0.2-0.7-0.4-1.7-1-2.2L595.3,325.2L595.3,325.2z"/>
		<path class="st3" d="M595.2,322.5c-0.7-0.4-1.5-0.1-1.6,0.5c-0.1,0.7,0.4,1.7,1.1,2.1l3.7,2.2c0.7,0.4,1.5,0.1,1.6-0.5
			c0.2-0.7-0.4-1.7-1.1-2.1L595.2,322.5L595.2,322.5z"/>
		<path class="st3" d="M595,342c-0.7-0.4-1.5-0.2-1.6,0.5s0.4,1.7,1,2.2l3.7,2.3c0.7,0.4,1.5,0.2,1.6-0.5c0.2-0.7-0.4-1.7-1-2.2
			L595,342L595,342z"/>
		<path class="st3" d="M595.1,339.3c-0.7-0.4-1.5-0.1-1.6,0.5s0.4,1.7,1.1,2.1l3.7,2.2c0.7,0.4,1.5,0.1,1.6-0.5
			c0.2-0.7-0.4-1.7-1.1-2.1L595.1,339.3L595.1,339.3z"/>
		<path class="st3" d="M595.2,336.3c-0.7-0.4-1.5-0.2-1.6,0.5c-0.2,0.7,0.4,1.7,1,2.2l3.7,2.3c0.7,0.4,1.5,0.2,1.6-0.5
			c0.2-0.7-0.4-1.7-1-2.2L595.2,336.3L595.2,336.3z"/>
		<path class="st3" d="M595.1,333.8c-0.7-0.4-1.5-0.1-1.6,0.5s0.4,1.7,1.1,2.1l3.7,2.2c0.7,0.4,1.5,0.1,1.6-0.5
			c0.2-0.7-0.4-1.7-1.1-2.1L595.1,333.8L595.1,333.8z"/>
		<path class="st3" d="M595.4,308.2c-0.7-0.4-1.5-0.2-1.6,0.5c-0.2,0.7,0.4,1.7,1,2.2l3.7,2.3c0.7,0.4,1.5,0.2,1.6-0.5
			c0.2-0.7-0.4-1.7-1-2.2L595.4,308.2L595.4,308.2z"/>
		<path class="st3" d="M595.5,305.5c-0.7-0.4-1.5-0.1-1.6,0.5c-0.1,0.7,0.4,1.7,1.1,2.1l3.7,2.2c0.7,0.4,1.5,0.1,1.6-0.5
			c0.2-0.7-0.4-1.7-1.1-2.1L595.5,305.5L595.5,305.5z"/>
		<path class="st3" d="M595.5,302.6c-0.7-0.4-1.5-0.2-1.6,0.5s0.4,1.7,1,2.2l3.7,2.3c0.7,0.4,1.5,0.2,1.6-0.5c0.2-0.7-0.4-1.7-1-2.2
			L595.5,302.6L595.5,302.6z"/>
		<path class="st3" d="M595.5,299.9c-0.7-0.4-1.5-0.1-1.6,0.5c-0.1,0.7,0.4,1.7,1.1,2.1l3.7,2.2c0.7,0.4,1.5,0.1,1.6-0.5
			c0.2-0.7-0.4-1.7-1.1-2.1L595.5,299.9L595.5,299.9z"/>
		<path class="st3" d="M595.3,319.5c-0.7-0.4-1.5-0.2-1.6,0.5c-0.2,0.7,0.4,1.7,1,2.2l3.7,2.3c0.7,0.4,1.5,0.2,1.6-0.5
			c0.2-0.7-0.4-1.7-1-2.2L595.3,319.5L595.3,319.5z"/>
		<path class="st3" d="M595.2,316.7c-0.7-0.4-1.5-0.1-1.6,0.5c-0.1,0.7,0.4,1.7,1.1,2.1l3.7,2.2c0.7,0.4,1.5,0.1,1.6-0.5
			c0.2-0.7-0.4-1.7-1.1-2.1L595.2,316.7L595.2,316.7z"/>
		<path class="st3" d="M595.4,313.9c-0.7-0.4-1.5-0.2-1.6,0.5c-0.2,0.7,0.4,1.7,1,2.2l3.7,2.3c0.7,0.4,1.5,0.2,1.6-0.5
			c0.2-0.7-0.4-1.7-1-2.2L595.4,313.9L595.4,313.9z"/>
		<path class="st3" d="M595.3,311.2c-0.7-0.4-1.5-0.1-1.6,0.5c-0.1,0.7,0.4,1.7,1.1,2.1l3.7,2.2c0.7,0.4,1.5,0.1,1.6-0.5
			c0.2-0.7-0.4-1.7-1.1-2.1L595.3,311.2L595.3,311.2z"/>
		<path class="st3" d="M594.8,375.8c-0.7-0.4-1.5-0.2-1.6,0.5c-0.2,0.7,0.4,1.7,1,2.2l3.7,2.3c0.7,0.4,1.5,0.2,1.6-0.5
			c0.2-0.7-0.4-1.7-1-2.2L594.8,375.8L594.8,375.8z"/>
		<path class="st3" d="M594.7,373.1c-0.7-0.4-1.5-0.1-1.6,0.5c-0.1,0.7,0.4,1.7,1.1,2.1l3.7,2.2c0.7,0.4,1.5,0.1,1.6-0.5
			c0.2-0.7-0.4-1.7-1.1-2.1L594.7,373.1L594.7,373.1z"/>
		<path class="st3" d="M594.8,370.1c-0.7-0.4-1.5-0.2-1.6,0.5c-0.2,0.7,0.4,1.7,1,2.2l3.7,2.3c0.7,0.4,1.5,0.2,1.6-0.5
			c0.2-0.7-0.4-1.7-1-2.2L594.8,370.1L594.8,370.1z"/>
		<path class="st3" d="M594.7,367.4c-0.7-0.4-1.5-0.1-1.6,0.5c-0.1,0.7,0.4,1.7,1.1,2.1l3.7,2.2c0.7,0.4,1.5,0.1,1.6-0.5
			c0.2-0.7-0.4-1.7-1.1-2.1L594.7,367.4L594.7,367.4z"/>
		<path class="st3" d="M594.6,384.3c-0.7-0.4-1.5-0.1-1.6,0.5c-0.1,0.7,0.4,1.7,1.1,2.1l3.7,2.2c0.7,0.4,1.5,0.1,1.6-0.5
			c0.2-0.7-0.4-1.7-1.1-2.1L594.6,384.3L594.6,384.3z"/>
		<path class="st3" d="M594.6,381.3c-0.7-0.4-1.5-0.2-1.6,0.5c-0.2,0.7,0.4,1.7,1,2.2l3.7,2.3c0.7,0.4,1.5,0.2,1.6-0.5
			c0.2-0.7-0.4-1.7-1-2.2L594.6,381.3L594.6,381.3z"/>
		<path class="st3" d="M594.7,378.7c-0.7-0.4-1.5-0.1-1.6,0.5c-0.1,0.7,0.4,1.7,1.1,2.1l3.7,2.2c0.7,0.4,1.5,0.1,1.6-0.5
			c0.2-0.7-0.4-1.7-1.1-2.1L594.7,378.7L594.7,378.7z"/>
		<path class="st3" d="M594.9,353.3c-0.7-0.4-1.5-0.2-1.6,0.5c-0.2,0.7,0.4,1.7,1,2.2l3.7,2.3c0.7,0.4,1.5,0.2,1.6-0.5
			c0.2-0.7-0.4-1.7-1-2.2L594.9,353.3L594.9,353.3z"/>
		<path class="st3" d="M594.9,350.6c-0.7-0.4-1.5-0.1-1.6,0.5s0.4,1.7,1.1,2.1l3.7,2.2c0.7,0.4,1.5,0.1,1.6-0.5
			c0.2-0.7-0.4-1.7-1.1-2.1L594.9,350.6L594.9,350.6z"/>
		<path class="st3" d="M595,347.6c-0.7-0.4-1.5-0.2-1.6,0.5c-0.2,0.7,0.4,1.7,1,2.2l3.7,2.3c0.7,0.4,1.5,0.2,1.6-0.5
			c0.2-0.7-0.4-1.7-1-2.2L595,347.6L595,347.6z"/>
		<path class="st3" d="M594.9,345c-0.7-0.4-1.5-0.1-1.6,0.5s0.4,1.7,1.1,2.1l3.7,2.2c0.7,0.4,1.5,0.1,1.6-0.5
			c0.2-0.7-0.4-1.7-1.1-2.1L594.9,345L594.9,345z"/>
		<path class="st3" d="M594.8,364.5c-0.7-0.4-1.5-0.2-1.6,0.5c-0.2,0.7,0.4,1.7,1,2.2l3.7,2.3c0.7,0.4,1.5,0.2,1.6-0.5
			c0.2-0.7-0.4-1.7-1-2.2L594.8,364.5L594.8,364.5z"/>
		<path class="st3" d="M594.8,361.8c-0.7-0.4-1.5-0.1-1.6,0.5c-0.1,0.7,0.4,1.7,1.1,2.1l3.7,2.2c0.7,0.4,1.5,0.1,1.6-0.5
			c0.2-0.7-0.4-1.7-1.1-2.1L594.8,361.8L594.8,361.8z"/>
		<path class="st3" d="M594.9,358.9c-0.7-0.4-1.5-0.2-1.6,0.5c-0.2,0.7,0.4,1.7,1,2.2l3.7,2.3c0.7,0.4,1.5,0.2,1.6-0.5
			c0.2-0.7-0.4-1.7-1-2.2L594.9,358.9L594.9,358.9z"/>
		<path class="st3" d="M594.8,356.1c-0.7-0.4-1.5-0.1-1.6,0.5c-0.1,0.7,0.4,1.7,1.1,2.1l3.7,2.2c0.7,0.4,1.5,0.1,1.6-0.5
			c0.2-0.7-0.4-1.7-1.1-2.1L594.8,356.1L594.8,356.1z"/>
		<path class="st3" d="M594.4,404c-0.7-0.4-1.5-0.2-1.6,0.5c-0.2,0.7,0.4,1.7,1,2.2l3.7,2.3c0.7,0.4,1.5,0.2,1.6-0.5
			c0.2-0.7-0.4-1.7-1-2.2L594.4,404L594.4,404z"/>
		<path class="st3" d="M594.4,401.3c-0.7-0.4-1.5-0.1-1.6,0.5s0.4,1.7,1.1,2.1l3.7,2.2c0.7,0.4,1.5,0.1,1.6-0.5
			c0.2-0.7-0.4-1.7-1.1-2.1L594.4,401.3L594.4,401.3z"/>
		<path class="st3" d="M594.5,398.4c-0.7-0.4-1.5-0.2-1.6,0.5c-0.2,0.7,0.4,1.7,1,2.2l3.7,2.3c0.7,0.4,1.5,0.2,1.6-0.5
			c0.2-0.7-0.4-1.7-1-2.2L594.5,398.4L594.5,398.4z"/>
		<path class="st3" d="M594.4,395.7c-0.7-0.4-1.5-0.1-1.6,0.5s0.4,1.7,1.1,2.1l3.7,2.2c0.7,0.4,1.5,0.1,1.6-0.5
			c0.2-0.7-0.4-1.7-1.1-2.1L594.4,395.7L594.4,395.7z"/>
		<path class="st3" d="M594.2,412.6c-0.7-0.4-1.5-0.1-1.6,0.5s0.4,1.7,1.1,2.1l3.7,2.2c0.7,0.4,1.5,0.1,1.6-0.5
			c0.2-0.7-0.4-1.7-1.1-2.1L594.2,412.6L594.2,412.6z"/>
		<path class="st3" d="M594.4,409.7c-0.7-0.4-1.5-0.2-1.6,0.5c-0.2,0.7,0.4,1.7,1,2.2l3.7,2.3c0.7,0.4,1.5,0.2,1.6-0.5
			c0.2-0.7-0.4-1.7-1-2.2L594.4,409.7L594.4,409.7z"/>
		<path class="st3" d="M594.3,407c-0.7-0.4-1.5-0.1-1.6,0.5s0.4,1.7,1.1,2.1l3.7,2.2c0.7,0.4,1.5,0.1,1.6-0.5
			c0.2-0.7-0.4-1.7-1.1-2.1L594.3,407L594.3,407z"/>
		<path class="st3" d="M594.5,392.9c-0.7-0.4-1.5-0.2-1.6,0.5c-0.2,0.7,0.4,1.7,1,2.2l3.7,2.3c0.7,0.4,1.5,0.2,1.6-0.5
			c0.2-0.7-0.4-1.7-1-2.2L594.5,392.9L594.5,392.9z"/>
		<path class="st3" d="M594.6,390c-0.7-0.4-1.5-0.1-1.6,0.5c-0.1,0.7,0.4,1.7,1.1,2.1l3.7,2.2c0.7,0.4,1.5,0.1,1.6-0.5
			c0.2-0.7-0.4-1.7-1.1-2.1L594.6,390L594.6,390z"/>
		<path class="st3" d="M594.6,387.2c-0.7-0.4-1.5-0.2-1.6,0.5c-0.2,0.7,0.4,1.7,1,2.2l3.7,2.3c0.7,0.4,1.5,0.2,1.6-0.5
			c0.2-0.7-0.4-1.7-1-2.2L594.6,387.2L594.6,387.2z"/>
	</g>
	<g>
		<path class="st3" d="M599.4,286.1c-0.7-0.4-1.5-0.2-1.6,0.5s0.4,1.7,1.1,2.1l3.7,2.3c0.7,0.4,1.5,0.2,1.6-0.5
			c0.2-0.7-0.4-1.7-1.1-2.1L599.4,286.1L599.4,286.1z"/>
		<path class="st3" d="M599.3,283.3c-0.7-0.4-1.5-0.1-1.6,0.5c-0.1,0.7,0.4,1.7,1.1,2.1l3.7,2.2c0.7,0.4,1.5,0.1,1.6-0.5
			c0.1-0.7-0.4-1.7-1.1-2.1L599.3,283.3L599.3,283.3z"/>
		<path class="st3" d="M599.4,280.4c-0.7-0.4-1.5-0.2-1.6,0.5s0.4,1.7,1.1,2.1l3.7,2.3c0.7,0.4,1.5,0.2,1.6-0.5
			c0.2-0.7-0.4-1.7-1.1-2.1L599.4,280.4L599.4,280.4z"/>
		<path class="st3" d="M599.3,277.8c-0.7-0.4-1.5-0.1-1.6,0.5c-0.1,0.7,0.4,1.7,1.1,2.1l3.7,2.2c0.7,0.4,1.5,0.1,1.6-0.5
			c0.1-0.7-0.4-1.7-1.1-2.1L599.3,277.8L599.3,277.8z"/>
		<path class="st3" d="M599.4,297.3c-0.7-0.4-1.5-0.2-1.6,0.5s0.4,1.7,1.1,2.1l3.7,2.3c0.7,0.4,1.5,0.2,1.6-0.5
			c0.2-0.7-0.4-1.7-1.1-2.1L599.4,297.3L599.4,297.3z"/>
		<path class="st3" d="M599.3,294.6c-0.7-0.4-1.5-0.1-1.6,0.5c-0.1,0.7,0.4,1.7,1.1,2.1l3.7,2.2c0.7,0.4,1.5,0.1,1.6-0.5
			c0.1-0.7-0.4-1.7-1.1-2.1L599.3,294.6L599.3,294.6z"/>
		<path class="st3" d="M599.4,291.6c-0.7-0.4-1.5-0.2-1.6,0.5s0.4,1.7,1.1,2.1l3.7,2.3c0.7,0.4,1.5,0.2,1.6-0.5
			c0.2-0.7-0.4-1.7-1.1-2.1L599.4,291.6L599.4,291.6z"/>
		<path class="st3" d="M599.3,289.1c-0.7-0.4-1.5-0.1-1.6,0.5c-0.1,0.7,0.4,1.7,1.1,2.1l3.7,2.2c0.7,0.4,1.5,0.1,1.6-0.5
			c0.1-0.7-0.4-1.7-1.1-2.1L599.3,289.1L599.3,289.1z"/>
		<path class="st3" d="M599.4,263.5c-0.7-0.4-1.5-0.2-1.6,0.5s0.4,1.7,1.1,2.1l3.7,2.3c0.7,0.4,1.5,0.2,1.6-0.5
			c0.2-0.7-0.4-1.7-1.1-2.1L599.4,263.5L599.4,263.5z"/>
		<path class="st3" d="M599.3,260.8c-0.7-0.4-1.5-0.1-1.6,0.5c-0.1,0.7,0.4,1.7,1.1,2.1l3.7,2.2c0.7,0.4,1.5,0.1,1.6-0.5
			c0.1-0.7-0.4-1.7-1.1-2.1L599.3,260.8L599.3,260.8z"/>
		<path class="st3" d="M599.4,257.8c-0.7-0.4-1.5-0.2-1.6,0.5s0.4,1.7,1.1,2.1l3.7,2.3c0.7,0.4,1.5,0.2,1.6-0.5
			c0.2-0.7-0.4-1.7-1.1-2.1L599.4,257.8L599.4,257.8z"/>
		<path class="st3" d="M599.3,255.2c-0.7-0.4-1.5-0.1-1.6,0.5c-0.1,0.7,0.4,1.7,1.1,2.1l3.7,2.2c0.7,0.4,1.5,0.1,1.6-0.5
			c0.1-0.7-0.4-1.7-1.1-2.1L599.3,255.2L599.3,255.2z"/>
		<path class="st3" d="M599.4,274.8c-0.7-0.4-1.5-0.2-1.6,0.5s0.4,1.7,1.1,2.1l3.7,2.3c0.7,0.4,1.5,0.2,1.6-0.5
			c0.2-0.7-0.4-1.7-1.1-2.1L599.4,274.8L599.4,274.8z"/>
		<path class="st3" d="M599.3,272c-0.7-0.4-1.5-0.1-1.6,0.5c-0.1,0.7,0.4,1.7,1.1,2.1l3.7,2.2c0.7,0.4,1.5,0.1,1.6-0.5
			c0.1-0.7-0.4-1.7-1.1-2.1L599.3,272L599.3,272z"/>
		<path class="st3" d="M599.4,269.1c-0.7-0.4-1.5-0.2-1.6,0.5s0.4,1.7,1.1,2.1l3.7,2.3c0.7,0.4,1.5,0.2,1.6-0.5
			c0.2-0.7-0.4-1.7-1.1-2.1L599.4,269.1L599.4,269.1z"/>
		<path class="st3" d="M599.3,266.5c-0.7-0.4-1.5-0.1-1.6,0.5c-0.1,0.7,0.4,1.7,1.1,2.1l3.7,2.2c0.7,0.4,1.5,0.1,1.6-0.5
			c0.1-0.7-0.4-1.7-1.1-2.1L599.3,266.5L599.3,266.5z"/>
		<path class="st3" d="M599.5,331c-0.7-0.4-1.5-0.2-1.6,0.5s0.4,1.7,1.1,2.1l3.7,2.3c0.7,0.4,1.5,0.2,1.6-0.5
			c0.2-0.7-0.4-1.7-1.1-2.1L599.5,331L599.5,331z"/>
		<path class="st3" d="M599.5,328.5c-0.7-0.4-1.5-0.1-1.6,0.5c-0.1,0.7,0.4,1.7,1.1,2.1l3.7,2.2c0.7,0.4,1.5,0.1,1.6-0.5
			c0.1-0.7-0.4-1.7-1.1-2.1L599.5,328.5L599.5,328.5z"/>
		<path class="st3" d="M599.5,325.4c-0.7-0.4-1.5-0.2-1.6,0.5s0.4,1.7,1.1,2.1l3.7,2.3c0.7,0.4,1.5,0.2,1.6-0.5
			c0.2-0.7-0.4-1.7-1.1-2.1L599.5,325.4L599.5,325.4z"/>
		<path class="st3" d="M599.5,322.7c-0.7-0.4-1.5-0.1-1.6,0.5c-0.1,0.7,0.4,1.7,1.1,2.1l3.7,2.2c0.7,0.4,1.5,0.1,1.6-0.5
			c0.1-0.7-0.4-1.7-1.1-2.1L599.5,322.7L599.5,322.7z"/>
		<path class="st3" d="M599.5,342.3c-0.7-0.4-1.5-0.2-1.6,0.5s0.4,1.7,1.1,2.1l3.7,2.3c0.7,0.4,1.5,0.2,1.6-0.5
			c0.2-0.7-0.4-1.7-1.1-2.1L599.5,342.3L599.5,342.3z"/>
		<path class="st3" d="M599.5,339.6c-0.7-0.4-1.5-0.1-1.6,0.5c-0.1,0.7,0.4,1.7,1.1,2.1l3.7,2.2c0.7,0.4,1.5,0.1,1.6-0.5
			c0.1-0.7-0.4-1.7-1.1-2.1L599.5,339.6L599.5,339.6z"/>
		<path class="st3" d="M599.5,336.7c-0.7-0.4-1.5-0.2-1.6,0.5s0.4,1.7,1.1,2.1l3.7,2.3c0.7,0.4,1.5,0.2,1.6-0.5
			c0.2-0.7-0.4-1.7-1.1-2.1L599.5,336.7L599.5,336.7z"/>
		<path class="st3" d="M599.5,334c-0.7-0.4-1.5-0.1-1.6,0.5c-0.1,0.7,0.4,1.7,1.1,2.1l3.7,2.2c0.7,0.4,1.5,0.1,1.6-0.5
			c0.1-0.7-0.4-1.7-1.1-2.1L599.5,334L599.5,334z"/>
		<path class="st3" d="M599.4,308.6c-0.7-0.4-1.5-0.2-1.6,0.5s0.4,1.7,1.1,2.1l3.7,2.3c0.7,0.4,1.5,0.2,1.6-0.5
			c0.2-0.7-0.4-1.7-1.1-2.1L599.4,308.6L599.4,308.6z"/>
		<path class="st3" d="M599.3,305.9c-0.7-0.4-1.5-0.1-1.6,0.5c-0.1,0.7,0.4,1.7,1.1,2.1l3.7,2.2c0.7,0.4,1.5,0.1,1.6-0.5
			c0.1-0.7-0.4-1.7-1.1-2.1L599.3,305.9L599.3,305.9z"/>
		<path class="st3" d="M599.4,302.9c-0.7-0.4-1.5-0.2-1.6,0.5s0.4,1.7,1.1,2.1l3.7,2.3c0.7,0.4,1.5,0.2,1.6-0.5
			c0.2-0.7-0.4-1.7-1.1-2.1L599.4,302.9L599.4,302.9z"/>
		<path class="st3" d="M599.3,300.2c-0.7-0.4-1.5-0.1-1.6,0.5c-0.1,0.7,0.4,1.7,1.1,2.1l3.7,2.2c0.7,0.4,1.5,0.1,1.6-0.5
			c0.1-0.7-0.4-1.7-1.1-2.1L599.3,300.2L599.3,300.2z"/>
		<path class="st3" d="M599.4,319.9c-0.7-0.4-1.5-0.2-1.6,0.5s0.4,1.7,1.1,2.1l3.7,2.3c0.7,0.4,1.5,0.2,1.6-0.5
			c0.2-0.7-0.4-1.7-1.1-2.1L599.4,319.9L599.4,319.9z"/>
		<path class="st3" d="M599.5,317.2c-0.7-0.4-1.5-0.1-1.6,0.5c-0.1,0.7,0.4,1.7,1.1,2.1l3.7,2.2c0.7,0.4,1.5,0.1,1.6-0.5
			c0.1-0.7-0.4-1.7-1.1-2.1L599.5,317.2L599.5,317.2z"/>
		<path class="st3" d="M599.4,314.2c-0.7-0.4-1.5-0.2-1.6,0.5s0.4,1.7,1.1,2.1l3.7,2.3c0.7,0.4,1.5,0.2,1.6-0.5
			c0.2-0.7-0.4-1.7-1.1-2.1L599.4,314.2L599.4,314.2z"/>
		<path class="st3" d="M599.3,311.4c-0.7-0.4-1.5-0.1-1.6,0.5c-0.1,0.7,0.4,1.7,1.1,2.1l3.7,2.2c0.7,0.4,1.5,0.1,1.6-0.5
			c0.1-0.7-0.4-1.7-1.1-2.1L599.3,311.4L599.3,311.4z"/>
		<path class="st3" d="M599.7,376c-0.7-0.4-1.5-0.2-1.6,0.5s0.4,1.7,1.1,2.1l3.7,2.3c0.7,0.4,1.5,0.2,1.6-0.5
			c0.2-0.7-0.4-1.7-1.1-2.1L599.7,376L599.7,376z"/>
		<path class="st3" d="M599.6,373.4c-0.7-0.4-1.5-0.1-1.6,0.5c-0.1,0.7,0.4,1.7,1.1,2.1l3.7,2.2c0.7,0.4,1.5,0.1,1.6-0.5
			c0.1-0.7-0.4-1.7-1.1-2.1L599.6,373.4L599.6,373.4z"/>
		<path class="st3" d="M599.7,370.5c-0.7-0.4-1.5-0.2-1.6,0.5s0.4,1.7,1.1,2.1l3.7,2.3c0.7,0.4,1.5,0.2,1.6-0.5
			c0.2-0.7-0.4-1.7-1.1-2.1L599.7,370.5L599.7,370.5z"/>
		<path class="st3" d="M599.6,367.8c-0.7-0.4-1.5-0.1-1.6,0.5c-0.1,0.7,0.4,1.7,1.1,2.1l3.7,2.2c0.7,0.4,1.5,0.1,1.6-0.5
			c0.1-0.7-0.4-1.7-1.1-2.1L599.6,367.8L599.6,367.8z"/>
		<path class="st3" d="M599.7,384.6c-0.7-0.4-1.5-0.1-1.6,0.5c-0.1,0.7,0.4,1.7,1.1,2.1l3.7,2.2c0.7,0.4,1.5,0.1,1.6-0.5
			c0.1-0.7-0.4-1.7-1.1-2.1L599.7,384.6L599.7,384.6z"/>
		<path class="st3" d="M599.7,381.8c-0.7-0.4-1.5-0.2-1.6,0.5s0.4,1.7,1.1,2.1l3.7,2.3c0.7,0.4,1.5,0.2,1.6-0.5
			c0.2-0.7-0.4-1.7-1.1-2.1L599.7,381.8L599.7,381.8z"/>
		<path class="st3" d="M599.7,378.9c-0.7-0.4-1.5-0.1-1.6,0.5c-0.1,0.7,0.4,1.7,1.1,2.1l3.7,2.2c0.7,0.4,1.5,0.1,1.6-0.5
			c0.1-0.7-0.4-1.7-1.1-2.1L599.7,378.9L599.7,378.9z"/>
		<path class="st3" d="M599.7,353.6c-0.7-0.4-1.5-0.2-1.6,0.5s0.4,1.7,1.1,2.1l3.7,2.3c0.7,0.4,1.5,0.2,1.6-0.5
			c0.2-0.7-0.4-1.7-1.1-2.1L599.7,353.6L599.7,353.6z"/>
		<path class="st3" d="M599.6,350.8c-0.7-0.4-1.5-0.1-1.6,0.5c-0.1,0.7,0.4,1.7,1.1,2.1l3.7,2.2c0.7,0.4,1.5,0.1,1.6-0.5
			c0.1-0.7-0.4-1.7-1.1-2.1L599.6,350.8L599.6,350.8z"/>
		<path class="st3" d="M599.5,348c-0.7-0.4-1.5-0.2-1.6,0.5s0.4,1.7,1.1,2.1l3.7,2.3c0.7,0.4,1.5,0.2,1.6-0.5
			c0.2-0.7-0.4-1.7-1.1-2.1L599.5,348L599.5,348z"/>
		<path class="st3" d="M599.6,345.3c-0.7-0.4-1.5-0.1-1.6,0.5c-0.1,0.7,0.4,1.7,1.1,2.1l3.7,2.2c0.7,0.4,1.5,0.1,1.6-0.5
			c0.1-0.7-0.4-1.7-1.1-2.1L599.6,345.3L599.6,345.3z"/>
		<path class="st3" d="M599.7,364.8c-0.7-0.4-1.5-0.2-1.6,0.5s0.4,1.7,1.1,2.1l3.7,2.3c0.7,0.4,1.5,0.2,1.6-0.5
			c0.2-0.7-0.4-1.7-1.1-2.1L599.7,364.8L599.7,364.8z"/>
		<path class="st3" d="M599.6,362.1c-0.7-0.4-1.5-0.1-1.6,0.5c-0.1,0.7,0.4,1.7,1.1,2.1l3.7,2.2c0.7,0.4,1.5,0.1,1.6-0.5
			c0.1-0.7-0.4-1.7-1.1-2.1L599.6,362.1L599.6,362.1z"/>
		<path class="st3" d="M599.7,359.2c-0.7-0.4-1.5-0.2-1.6,0.5s0.4,1.7,1.1,2.1l3.7,2.3c0.7,0.4,1.5,0.2,1.6-0.5
			c0.2-0.7-0.4-1.7-1.1-2.1L599.7,359.2L599.7,359.2z"/>
		<path class="st3" d="M599.6,356.5c-0.7-0.4-1.5-0.1-1.6,0.5c-0.1,0.7,0.4,1.7,1.1,2.1l3.7,2.2c0.7,0.4,1.5,0.1,1.6-0.5
			c0.1-0.7-0.4-1.7-1.1-2.1L599.6,356.5L599.6,356.5z"/>
		<path class="st3" d="M599.8,404.4c-0.7-0.4-1.5-0.2-1.6,0.5s0.4,1.7,1.1,2.1l3.7,2.3c0.7,0.4,1.5,0.2,1.6-0.5
			c0.2-0.7-0.4-1.7-1.1-2.1L599.8,404.4L599.8,404.4z"/>
		<path class="st3" d="M599.7,401.7c-0.7-0.4-1.5-0.1-1.6,0.5c-0.1,0.7,0.4,1.7,1.1,2.1l3.7,2.2c0.7,0.4,1.5,0.1,1.6-0.5
			c0.1-0.7-0.4-1.7-1.1-2.1L599.7,401.7L599.7,401.7z"/>
		<path class="st3" d="M599.8,398.7c-0.7-0.4-1.5-0.2-1.6,0.5s0.4,1.7,1.1,2.1l3.7,2.3c0.7,0.4,1.5,0.2,1.6-0.5
			c0.2-0.7-0.4-1.7-1.1-2.1L599.8,398.7L599.8,398.7z"/>
		<path class="st3" d="M599.7,396c-0.7-0.4-1.5-0.1-1.6,0.5c-0.1,0.7,0.4,1.7,1.1,2.1l3.7,2.2c0.7,0.4,1.5,0.1,1.6-0.5
			c0.1-0.7-0.4-1.7-1.1-2.1L599.7,396L599.7,396z"/>
		<path class="st3" d="M599.7,413c-0.7-0.4-1.5-0.1-1.6,0.5c-0.1,0.7,0.4,1.7,1.1,2.1l3.7,2.2c0.7,0.4,1.5,0.1,1.6-0.5
			c0.1-0.7-0.4-1.7-1.1-2.1L599.7,413L599.7,413z"/>
		<path class="st3" d="M599.8,410c-0.7-0.4-1.5-0.2-1.6,0.5s0.4,1.7,1.1,2.1l3.7,2.3c0.7,0.4,1.5,0.2,1.6-0.5
			c0.2-0.7-0.4-1.7-1.1-2.1L599.8,410L599.8,410z"/>
		<path class="st3" d="M599.7,407.3c-0.7-0.4-1.5-0.1-1.6,0.5c-0.1,0.7,0.4,1.7,1.1,2.1l3.7,2.2c0.7,0.4,1.5,0.1,1.6-0.5
			c0.1-0.7-0.4-1.7-1.1-2.1L599.7,407.3L599.7,407.3z"/>
		<path class="st3" d="M599.8,393.1c-0.7-0.4-1.5-0.2-1.6,0.5s0.4,1.7,1.1,2.1l3.7,2.3c0.7,0.4,1.5,0.2,1.6-0.5
			c0.2-0.7-0.4-1.7-1.1-2.1L599.8,393.1L599.8,393.1z"/>
		<path class="st3" d="M599.7,390.4c-0.7-0.4-1.5-0.1-1.6,0.5c-0.1,0.7,0.4,1.7,1.1,2.1l3.7,2.2c0.7,0.4,1.5,0.1,1.6-0.5
			c0.1-0.7-0.4-1.7-1.1-2.1L599.7,390.4L599.7,390.4z"/>
		<path class="st3" d="M599.8,387.5c-0.7-0.4-1.5-0.2-1.6,0.5s0.4,1.7,1.1,2.1l3.7,2.3c0.7,0.4,1.5,0.2,1.6-0.5
			c0.2-0.7-0.4-1.7-1.1-2.1L599.8,387.5L599.8,387.5z"/>
	</g>
	<g>
		<path class="st3" d="M612.4,267.5c-0.8-0.2-1.6,0.2-1.4,0.9c0.1,0.7,1.1,1.5,1.9,1.7l4.6,1.2c0.8,0.2,1.6-0.2,1.4-0.9
			c-0.1-0.7-1.1-1.5-1.9-1.7L612.4,267.5L612.4,267.5z"/>
		<path class="st13" d="M613.6,268.3c-0.2-0.7-1.1-0.9-1.7-0.5c-0.6,0.4-1,1.6-0.8,2.2l1.3,3.7c0.2,0.7,1.1,0.9,1.7,0.5
			c0.7-0.5,1-1.6,0.8-2.2L613.6,268.3L613.6,268.3z"/>
		<path class="st3" d="M613.3,267.8c-0.6-0.5-1.5-0.4-1.8,0.3c-0.3,0.6,0,1.8,0.6,2.3l3.4,2.8c0.6,0.5,1.5,0.4,1.8-0.3
			c0.3-0.7,0-1.8-0.6-2.3L613.3,267.8L613.3,267.8z"/>
		<path class="st3" d="M611.2,270c0.5-0.6,0.2-1.3-0.6-1.4s-2.2,0.3-2.7,0.9l-2.8,3.1c-0.5,0.6-0.2,1.3,0.6,1.4
			c0.9,0.1,2.2-0.3,2.7-0.9L611.2,270L611.2,270z"/>
		<path class="st13" d="M614.6,269.9c0.5-0.6,0.1-1.3-0.7-1.4s-2.2,0.4-2.6,0.9l-2.7,3.2c-0.5,0.6-0.1,1.3,0.7,1.4
			c0.9,0.1,2.2-0.4,2.6-0.9L614.6,269.9L614.6,269.9z"/>
		<path class="st3" d="M597.2,270.1c0.5-0.6,0.3-1.2-0.6-1.4s-2.2,0.3-2.7,0.8l-3,3c-0.5,0.6-0.3,1.2,0.6,1.4
			c0.9,0.1,2.2-0.3,2.7-0.8L597.2,270.1L597.2,270.1z"/>
		<path class="st3" d="M600.5,270.2c0.5-0.6,0.2-1.2-0.6-1.4c-0.8-0.1-2.2,0.3-2.7,0.8l-2.8,3.1c-0.5,0.6-0.2,1.2,0.6,1.4
			c0.9,0.1,2.2-0.3,2.7-0.9L600.5,270.2L600.5,270.2z"/>
		<path class="st3" d="M604.3,270.2c0.5-0.6,0.3-1.2-0.6-1.4s-2.2,0.3-2.7,0.8l-3,3c-0.5,0.6-0.3,1.2,0.6,1.4
			c0.9,0.1,2.2-0.3,2.7-0.8L604.3,270.2L604.3,270.2z"/>
		<path class="st13" d="M607.5,270.1c0.5-0.6,0.1-1.3-0.7-1.4s-2.2,0.4-2.6,0.9l-2.7,3.2c-0.5,0.6-0.1,1.3,0.7,1.4
			c0.9,0.1,2.2-0.4,2.6-0.9L607.5,270.1L607.5,270.1z"/>
		<path class="st3" d="M592.6,268.9c0.5-0.6,0.3-1.2-0.6-1.4s-2.2,0.3-2.7,0.8l-3,3c-0.5,0.6-0.3,1.2,0.6,1.4
			c0.9,0.1,2.2-0.3,2.7-0.8L592.6,268.9L592.6,268.9z"/>
		<path class="st3" d="M594.2,270.1c0.6-0.5,0.4-1.2-0.4-1.4c-0.8-0.2-2.2,0.1-2.8,0.6l-3.2,2.8c-0.6,0.5-0.4,1.2,0.4,1.4
			c0.8,0.2,2.2-0.1,2.8-0.6L594.2,270.1L594.2,270.1z"/>
		<path class="st3" d="M590.2,269.4c0.8-0.3,0.9-1,0.2-1.5c-0.7-0.4-2.1-0.5-2.9-0.2l-4.3,1.8c-0.8,0.3-0.9,1-0.2,1.5
			c0.7,0.4,2.1,0.5,2.9,0.2L590.2,269.4L590.2,269.4z"/>
	</g>
	<g>
		<path class="st3" d="M658.7,386.1c0.7,0.4,0.7,1.1,0,1.5c-0.7,0.3-2.1,0.2-2.8-0.2l-3.7-2.2c-0.7-0.4-0.7-1.1,0.1-1.5
			c0.7-0.3,2.1-0.2,2.8,0.2L658.7,386.1L658.7,386.1z"/>
		<path class="st3" d="M661.7,385.4c0.7,0.4,0.6,1.2-0.1,1.5c-0.7,0.3-2.1,0.2-2.7-0.2l-3.6-2.3c-0.7-0.4-0.6-1.2,0.1-1.5
			c0.7-0.3,2.1-0.2,2.7,0.2L661.7,385.4L661.7,385.4z"/>
		<path class="st3" d="M665.2,384.6c0.7,0.4,0.7,1.1,0,1.5c-0.7,0.3-2.1,0.2-2.8-0.2l-3.7-2.2c-0.7-0.4-0.7-1.1,0.1-1.5
			c0.7-0.3,2.1-0.2,2.8,0.2L665.2,384.6L665.2,384.6z"/>
		<path class="st3" d="M668.3,383.7c0.7,0.4,0.6,1.2-0.1,1.5c-0.7,0.3-2.1,0.2-2.7-0.2l-3.6-2.3c-0.7-0.4-0.6-1.2,0.1-1.5
			c0.7-0.3,2.1-0.2,2.7,0.2L668.3,383.7L668.3,383.7z"/>
		<path class="st3" d="M681.7,373.6c0.8-0.1,1.4,0.4,1.2,1s-1.2,1.4-2,1.6l-4.4,0.7c-0.8,0.1-1.4-0.4-1.2-1c0.2-0.7,1.2-1.4,2-1.6
			L681.7,373.6L681.7,373.6z"/>
		<path class="st3" d="M679.3,368.6c0.5-0.5,1.4-0.5,1.7,0.1s0.1,1.8-0.4,2.3l-2.9,3c-0.5,0.5-1.4,0.5-1.7-0.1s-0.1-1.8,0.4-2.3
			L679.3,368.6L679.3,368.6z"/>
		<path class="st3" d="M683,370.8c0.8-0.2,1.5,0.3,1.3,1s-1.2,1.5-2,1.6l-4.5,0.8c-0.8,0.2-1.5-0.3-1.3-1s1.2-1.5,2-1.6L683,370.8
			L683,370.8z"/>
		<path class="st3" d="M646.1,389.3c0.6,0.5,0.5,1.2-0.2,1.5s-2.1,0.1-2.7-0.4l-3.5-2.5c-0.6-0.5-0.5-1.2,0.2-1.5
			c0.8-0.3,2.1-0.1,2.7,0.4L646.1,389.3L646.1,389.3z"/>
		<path class="st3" d="M649.2,388.6c0.6,0.5,0.5,1.2-0.3,1.5c-0.7,0.3-2.1,0.1-2.7-0.4l-3.4-2.6c-0.6-0.5-0.5-1.2,0.3-1.5
			s2.1-0.1,2.7,0.4L649.2,388.6L649.2,388.6z"/>
		<path class="st3" d="M652.5,387.3c0.7,0.4,0.7,1.1,0,1.5s-2.1,0.3-2.8-0.1l-3.8-2.1c-0.7-0.4-0.7-1.1,0-1.5s2.1-0.3,2.8,0.1
			L652.5,387.3L652.5,387.3z"/>
		<path class="st3" d="M655.2,387.3c0.6,0.5,0.4,1.2-0.3,1.4s-2.1,0-2.7-0.5l-3.2-2.7c-0.6-0.5-0.4-1.2,0.3-1.4
			c0.8-0.2,2.1,0,2.7,0.5L655.2,387.3L655.2,387.3z"/>
		<path class="st3" d="M671.5,382.7c0.7,0.4,0.7,1.1,0,1.5c-0.7,0.3-2.1,0.2-2.8-0.2l-3.7-2.2c-0.7-0.4-0.7-1.1,0.1-1.5
			c0.7-0.3,2.1-0.2,2.8,0.2L671.5,382.7L671.5,382.7z"/>
		<path class="st3" d="M674.6,381.9c0.7,0.4,0.6,1.2-0.1,1.5c-0.7,0.3-2.1,0.2-2.7-0.2l-3.6-2.3c-0.7-0.4-0.6-1.2,0.1-1.5
			c0.7-0.3,2.1-0.2,2.7,0.2L674.6,381.9L674.6,381.9z"/>
		<path class="st3" d="M605.3,392.6c0.5,0.6,0.2,1.2-0.5,1.4s-2.1-0.3-2.6-0.8l-2.8-3c-0.5-0.6-0.2-1.2,0.5-1.4
			c0.8-0.1,2.1,0.3,2.6,0.8L605.3,392.6L605.3,392.6z"/>
		<path class="st3" d="M608.6,392.6c0.5,0.6,0.2,1.2-0.6,1.4c-0.8,0.1-2.1-0.3-2.5-0.8l-2.7-3.1c-0.5-0.6-0.2-1.2,0.6-1.4
			c0.8-0.1,2.1,0.3,2.5,0.9L608.6,392.6L608.6,392.6z"/>
		<path class="st3" d="M612,392.6c0.5,0.6,0.2,1.2-0.5,1.4s-2.1-0.3-2.6-0.8l-2.8-3c-0.5-0.6-0.2-1.2,0.5-1.4
			c0.8-0.1,2.1,0.3,2.6,0.8L612,392.6L612,392.6z"/>
		<path class="st3" d="M615.3,392.6c0.5,0.6,0.2,1.2-0.6,1.4c-0.8,0.1-2.1-0.3-2.5-0.8l-2.7-3.1c-0.5-0.6-0.2-1.2,0.6-1.4
			c0.8-0.1,2.1,0.3,2.5,0.9L615.3,392.6L615.3,392.6z"/>
		<path class="st3" d="M591.9,393c0.5,0.6,0.2,1.2-0.5,1.4c-0.8,0.1-2.1-0.3-2.6-0.8l-2.8-3c-0.5-0.6-0.2-1.2,0.5-1.4
			c0.8-0.1,2.1,0.3,2.6,0.8L591.9,393L591.9,393z"/>
		<path class="st3" d="M595.2,392.9c0.5,0.6,0.2,1.2-0.6,1.4c-0.8,0.1-2.1-0.3-2.5-0.8l-2.7-3.1c-0.5-0.6-0.2-1.2,0.6-1.4
			c0.8-0.1,2.1,0.3,2.5,0.9L595.2,392.9L595.2,392.9z"/>
		<path class="st3" d="M598.6,392.9c0.5,0.6,0.2,1.2-0.5,1.4c-0.8,0.1-2.1-0.3-2.6-0.8l-2.8-3c-0.5-0.6-0.2-1.2,0.5-1.4
			c0.8-0.1,2.1,0.3,2.6,0.8L598.6,392.9L598.6,392.9z"/>
		<path class="st3" d="M601.9,392.8c0.5,0.6,0.2,1.2-0.6,1.4c-0.8,0.1-2.1-0.3-2.5-0.8l-2.7-3.1c-0.5-0.6-0.2-1.2,0.6-1.4
			c0.8-0.1,2.1,0.3,2.5,0.9L601.9,392.8L601.9,392.8z"/>
		<path class="st3" d="M632.6,391.5c0.6,0.5,0.4,1.2-0.4,1.4c-0.8,0.2-2.1-0.1-2.7-0.6l-3.2-2.8c-0.6-0.5-0.4-1.2,0.4-1.4
			c0.8-0.2,2.1,0.1,2.7,0.6L632.6,391.5L632.6,391.5z"/>
		<path class="st3" d="M635.9,390.9c0.6,0.5,0.4,1.2-0.4,1.4c-0.8,0.2-2.1,0-2.7-0.5l-3.2-2.7c-0.6-0.5-0.4-1.2,0.4-1.4
			c0.8-0.2,2.1,0,2.7,0.5L635.9,390.9L635.9,390.9z"/>
		<path class="st3" d="M639.3,390.5c0.6,0.5,0.4,1.2-0.3,1.4c-0.8,0.2-2.1,0-2.7-0.5l-3.3-2.7c-0.6-0.5-0.4-1.2,0.3-1.4
			c0.8-0.2,2.1,0,2.7,0.5L639.3,390.5L639.3,390.5z"/>
		<path class="st3" d="M642.7,390c0.6,0.5,0.5,1.2-0.3,1.5s-2.1,0.1-2.7-0.4l-3.4-2.6c-0.6-0.5-0.5-1.2,0.3-1.5s2.1-0.1,2.7,0.4
			L642.7,390L642.7,390z"/>
		<path class="st3" d="M618.8,392.5c0.5,0.6,0.2,1.2-0.5,1.4s-2.1-0.3-2.6-0.8l-2.8-3c-0.5-0.6-0.2-1.2,0.5-1.4
			c0.8-0.1,2.1,0.3,2.6,0.8L618.8,392.5L618.8,392.5z"/>
		<path class="st3" d="M622.1,392.1c0.5,0.5,0.3,1.2-0.5,1.4s-2.1-0.2-2.6-0.7l-2.9-2.9c-0.5-0.5-0.3-1.2,0.5-1.4
			c0.8-0.2,2.1,0.2,2.6,0.7L622.1,392.1L622.1,392.1z"/>
		<path class="st3" d="M625.7,391.7c0.6,0.5,0.4,1.2-0.4,1.4s-2.1-0.1-2.7-0.6l-3.2-2.8c-0.6-0.5-0.4-1.2,0.4-1.4
			c0.8-0.2,2.1,0.1,2.7,0.6L625.7,391.7L625.7,391.7z"/>
		<path class="st3" d="M628.8,391.6c0.5,0.5,0.3,1.2-0.5,1.4c-0.8,0.2-2.1-0.2-2.6-0.7l-2.8-3c-0.5-0.5-0.3-1.2,0.5-1.4
			c0.8-0.2,2.1,0.2,2.6,0.8L628.8,391.6L628.8,391.6z"/>
		<path class="st13" d="M551.1,391.4c0.4,0.6,0,1.3-0.8,1.3s-2-0.6-2.4-1.2l-2.1-3.4c-0.4-0.6,0-1.3,0.8-1.3s2,0.6,2.4,1.2
			L551.1,391.4L551.1,391.4z"/>
		<path class="st13" d="M554.3,391.7c0.4,0.6-0.1,1.3-0.9,1.3c-0.8,0-2-0.6-2.3-1.2l-2-3.4c-0.4-0.6,0.1-1.3,0.9-1.3
			c0.8,0,2,0.6,2.3,1.2L554.3,391.7L554.3,391.7z"/>
		<path class="st3" d="M558.1,392c0.5,0.6,0.1,1.3-0.7,1.3s-2-0.4-2.5-1l-2.5-3.2c-0.5-0.6-0.1-1.3,0.7-1.3c0.8-0.1,2,0.4,2.5,1
			L558.1,392L558.1,392z"/>
		<path class="st13" d="M561.2,392.2c0.4,0.6,0.1,1.3-0.7,1.3c-0.8,0.1-2-0.4-2.5-1l-2.4-3.2c-0.4-0.6-0.1-1.3,0.7-1.3
			c0.8-0.1,2,0.4,2.5,1L561.2,392.2L561.2,392.2z"/>
		<path class="st13" d="M540.9,390c0.4,0.6-0.1,1.3-0.9,1.3s-2-0.6-2.3-1.2l-2-3.4c-0.4-0.6,0.1-1.3,0.9-1.3c0.8,0,2,0.6,2.3,1.2
			L540.9,390L540.9,390z"/>
		<path class="st13" d="M544.4,390.4c0.4,0.6,0,1.3-0.8,1.3s-2-0.6-2.4-1.2l-2.1-3.4c-0.4-0.6,0-1.3,0.8-1.3s2,0.6,2.4,1.2
			L544.4,390.4L544.4,390.4z"/>
		<path class="st13" d="M547.6,390.9c0.4,0.6-0.1,1.3-0.9,1.3c-0.8,0-2-0.6-2.3-1.2l-2-3.4c-0.4-0.6,0.1-1.3,0.9-1.3
			c0.8,0,2,0.6,2.3,1.2L547.6,390.9L547.6,390.9z"/>
		<path class="st3" d="M578.2,392.9c0.5,0.6,0.1,1.3-0.7,1.3c-0.8,0.1-2-0.4-2.5-1l-2.5-3.2c-0.5-0.6-0.1-1.3,0.7-1.3
			c0.8-0.1,2,0.4,2.5,1L578.2,392.9L578.2,392.9z"/>
		<path class="st13" d="M581.4,393.1c0.4,0.6,0.1,1.3-0.7,1.3s-2-0.4-2.5-1l-2.4-3.2c-0.4-0.6-0.1-1.3,0.7-1.3c0.8-0.1,2,0.4,2.5,1
			L581.4,393.1L581.4,393.1z"/>
		<path class="st3" d="M585.2,393.1c0.5,0.6,0.2,1.2-0.5,1.4s-2.1-0.3-2.6-0.8l-2.8-3c-0.5-0.6-0.2-1.2,0.5-1.4
			c0.8-0.1,2.1,0.3,2.6,0.8L585.2,393.1L585.2,393.1z"/>
		<path class="st3" d="M588.5,393c0.5,0.6,0.2,1.2-0.6,1.4c-0.8,0.1-2.1-0.3-2.5-0.8l-2.7-3.1c-0.5-0.6-0.2-1.2,0.6-1.4
			c0.8-0.1,2.1,0.3,2.5,0.9L588.5,393L588.5,393z"/>
		<path class="st3" d="M564.8,392.3c0.5,0.6,0.1,1.3-0.7,1.3c-0.8,0.1-2-0.4-2.5-1l-2.5-3.2c-0.5-0.6-0.1-1.3,0.7-1.3
			c0.8-0.1,2,0.4,2.5,1L564.8,392.3L564.8,392.3z"/>
		<path class="st13" d="M568,392.5c0.4,0.6,0.1,1.3-0.7,1.3c-0.8,0.1-2-0.4-2.5-1l-2.4-3.2c-0.4-0.6-0.1-1.3,0.7-1.3
			c0.8-0.1,2,0.4,2.5,1L568,392.5L568,392.5z"/>
		<path class="st3" d="M571.5,392.7c0.5,0.6,0.1,1.3-0.7,1.3c-0.8,0.1-2-0.4-2.5-1l-2.5-3.2c-0.5-0.6-0.1-1.3,0.7-1.3
			c0.8-0.1,2,0.4,2.5,1L571.5,392.7L571.5,392.7z"/>
		<path class="st13" d="M574.7,392.9c0.4,0.6,0.1,1.3-0.7,1.3c-0.8,0.1-2-0.4-2.5-1l-2.4-3.2c-0.4-0.6-0.1-1.3,0.7-1.3
			c0.8-0.1,2,0.4,2.5,1L574.7,392.9L574.7,392.9z"/>
		<path class="st3" d="M523,377.2c-0.8,0.1-1.4-0.4-1.2-1.1c0.2-0.6,1.3-1.4,2.1-1.5l4.5-0.6c0.8-0.1,1.4,0.4,1.2,1.1
			s-1.3,1.4-2.1,1.5L523,377.2L523,377.2z"/>
		<path class="st3" d="M523.6,380.8c-0.7,0.4-1.5,0.2-1.7-0.5s0.3-1.7,1-2.2l3.6-2.3c0.7-0.4,1.5-0.2,1.7,0.5s-0.3,1.7-1,2.1
			L523.6,380.8L523.6,380.8z"/>
		<path class="st3" d="M525.4,384c-0.4,0.6-1.3,0.6-1.7,0.1c-0.4-0.6-0.4-1.7,0-2.3l2.4-3.3c0.4-0.6,1.3-0.6,1.7-0.1
			c0.4,0.6,0.4,1.7,0,2.3L525.4,384L525.4,384z"/>
		<path class="st13" d="M527.5,386c-0.2,0.7-1,0.9-1.6,0.5s-1.1-1.5-0.9-2.2l1-3.7c0.2-0.7,1-0.9,1.6-0.5c0.7,0.4,1.1,1.5,0.9,2.2
			L527.5,386L527.5,386z"/>
		<path class="st3" d="M528.4,370.1c-0.8,0-1.3-0.7-0.9-1.3s1.6-1.1,2.4-1.1l4.5,0.2c0.8,0,1.3,0.7,0.9,1.3
			c-0.4,0.6-1.6,1.1-2.4,1.1L528.4,370.1L528.4,370.1z"/>
		<path class="st3" d="M526.3,372.3c-0.8,0-1.3-0.6-0.9-1.2s1.6-1.2,2.4-1.1l4.6,0.1c0.8,0,1.3,0.6,0.9,1.2
			c-0.4,0.6-1.6,1.2-2.4,1.1L526.3,372.3L526.3,372.3z"/>
		<path class="st3" d="M524.6,374.5c-0.8,0.1-1.4-0.5-1.2-1.1s1.3-1.4,2.1-1.5l4.5-0.5c0.8-0.1,1.4,0.5,1.1,1.1
			c-0.3,0.7-1.3,1.4-2.1,1.5L524.6,374.5L524.6,374.5z"/>
		<path class="st13" d="M530,388.3c0,0.7-0.6,1.1-1.4,0.9c-0.7-0.3-1.5-1.2-1.6-1.9l-0.3-3.8c0-0.7,0.6-1.1,1.4-0.9
			c0.8,0.3,1.5,1.2,1.6,1.9L530,388.3L530,388.3z"/>
		<path class="st13" d="M533.7,389.2c0.2,0.7-0.4,1.2-1.2,1.1s-1.8-0.9-2-1.6l-1.1-3.7c-0.2-0.7,0.4-1.2,1.2-1.1s1.8,0.9,2,1.6
			L533.7,389.2L533.7,389.2z"/>
		<path class="st13" d="M537.7,389.5c0.4,0.6,0,1.3-0.8,1.3s-2-0.6-2.4-1.2l-2.1-3.4c-0.4-0.6,0-1.3,0.8-1.3s2,0.6,2.4,1.2
			L537.7,389.5L537.7,389.5z"/>
		<path class="st3" d="M676.2,379.2c0.8,0.2,1.1,0.9,0.6,1.4s-1.8,0.9-2.6,0.7l-4.5-0.9c-0.8-0.2-1.1-0.9-0.6-1.4s1.8-0.9,2.6-0.7
			L676.2,379.2L676.2,379.2z"/>
		<path class="st3" d="M677.2,379.7c0.8,0.2,1,0.9,0.5,1.4s-1.9,0.8-2.7,0.5l-4.3-1.2c-0.8-0.2-1-0.9-0.5-1.4
			c0.6-0.5,1.9-0.8,2.7-0.5L677.2,379.7L677.2,379.7z"/>
		<path class="st3" d="M682.2,376.1c0.8,0.1,1.2,0.8,0.7,1.3s-1.8,1-2.6,0.8l-4.5-0.7c-0.8-0.1-1.2-0.8-0.7-1.3
			c0.5-0.6,1.8-1,2.6-0.8L682.2,376.1L682.2,376.1z"/>
		<path class="st3" d="M679.6,378.3c0.8,0.2,1,0.9,0.4,1.4s-1.9,0.7-2.7,0.5l-4.3-1.3c-0.8-0.2-1-0.9-0.4-1.4s1.9-0.7,2.7-0.5
			L679.6,378.3L679.6,378.3z"/>
		<path class="st3" d="M664.4,365.5c-0.8,0.3-0.9,1-0.3,1.4s2,0.6,2.8,0.3l4.2-1.6c0.8-0.3,0.9-1,0.3-1.4c-0.6-0.5-2-0.6-2.8-0.3
			L664.4,365.5L664.4,365.5z"/>
		<path class="st3" d="M661.7,364.1c-0.7,0.3-0.9,1-0.2,1.5c0.6,0.4,2,0.6,2.7,0.3l4.1-1.7c0.7-0.3,0.9-1,0.2-1.5
			c-0.6-0.4-2-0.6-2.7-0.2L661.7,364.1L661.7,364.1z"/>
		<path class="st3" d="M658.4,362.5c-0.8,0.2-1,0.9-0.4,1.4s1.9,0.7,2.7,0.5l4.3-1.3c0.8-0.2,1-0.9,0.4-1.4s-1.9-0.7-2.7-0.5
			L658.4,362.5L658.4,362.5z"/>
		<path class="st3" d="M673.4,369.8c-0.7,0.3-0.9,1-0.2,1.5c0.6,0.4,2,0.6,2.7,0.3l4.1-1.7c0.7-0.3,0.9-1,0.2-1.5
			c-0.6-0.4-2-0.6-2.7-0.2L673.4,369.8L673.4,369.8z"/>
		<path class="st3" d="M670.4,368.2c-0.8,0.3-0.9,1-0.3,1.4s2,0.6,2.8,0.3l4.2-1.6c0.8-0.3,0.9-1,0.3-1.4c-0.6-0.5-2-0.6-2.8-0.3
			L670.4,368.2L670.4,368.2z"/>
		<path class="st3" d="M667.5,367c-0.7,0.3-0.9,1-0.2,1.5s2,0.6,2.7,0.3l4.1-1.7c0.7-0.3,0.9-1,0.2-1.5c-0.6-0.4-2-0.6-2.7-0.2
			L667.5,367L667.5,367z"/>
	</g>
	<g transform="matrix(.08053 0 0 .0956 438.4 288)">
		<path class="st2" d="M1934.3-2463.7v69.9h-69.8v46.6h69.8v139.7h46.5v-139.7h69.9v-46.6h-69.9v-69.8L1934.3-2463.7
			C1934.3-2463.6,1934.3-2463.7,1934.3-2463.7z"/>
		
			<ellipse transform="matrix(-0.8994 0.4371 -0.4371 -0.8994 2753.7009 -5048.5762)" class="st2" cx="1957.7" cy="-2207.5" rx="53.9" ry="40.2"/>
		<path class="st1" d="M2484.5-1334.4c0,120.6-14.6,256.4-40.7,360.8c-166.8-46.5-372.5-69.9-471.1-69.9
			c-121.7,0-342.2,23.4-479.9,46.6c-27.8-109.1-42.1-223-42.4-337.6c0-481.9,146.2-686.8,510.7-873
			C2285.3-2021.2,2484.5-1816.3,2484.5-1334.4z"/>
		
			<ellipse transform="matrix(-0.1309 0.9914 -0.9914 -0.1309 1266.3593 -3048.5325)" class="st14" cx="1969.4" cy="-969.2" rx="77.6" ry="358.1"/>
		<path class="st2" d="M2484.7-1319.6c0-43.1-232.3-78-518.3-78s-518.2,34.9-518.2,78v26c0-43.1,232.1-69.4,518.2-69.4
			s518.3,43.6,518.3,86.7V-1319.6z"/>
		<g>
			<path class="st2" d="M1966.4-1657.6l-81.8,52.1l54.5,34.6l-27.3,17.3l-54.7-34.6l-81.8,52l81.8,52.1l54.9-34.8l27.3,17.4v52h54.4
				v-52l27.3-17.4l54.7,34.7l81.8-52.1l-81.8-52l-54.5,34.6l-27.4-17.2l54.7-34.7L1966.4-1657.6z"/>
			<path class="st2" d="M1416.4-1603l8,52.5l13.7,33.5l-19.6,21.1l-13.7-33.5l-5.9,54.6l46.9,46.1l-13.7-33.7l33.3,12.5l20.5,50.3
				l26.4-4.3l-20.5-50.3l19.5-21.2l13.7,33.6l6-54.8l-47-45.9l13.7,33.5l-33.2-12.3l-13.7-33.5
				C1450.8-1554.8,1416.4-1603,1416.4-1603z"/>
			<path class="st2" d="M2516-1602.2l-31.3,48.8l-12.4,33.7l-32.8,12.9l12.4-33.7l-45.2,46.6l7.9,54.6l12.5-33.9l20.3,20.9
				l-18.7,50.6l26.6,4l18.7-50.6l32.8-13l-12.5,33.8l45.4-46.7l-8-54.6l-12.4,33.7l-20.4-20.7l12.4-33.7
				C2511.3-1549.5,2516-1602.2,2516-1602.2z"/>
			<path class="st2" d="M1614.2-1531.4c-3.1-18.5,11.7-35,34.5-38.6c21.5-2.2,47.4,12.7,51.8,29.8s-12.8,36.4-12.8,36.4l103.6,59.6
				l-43.1,4.4l-77.7-44.7l-51.7,57.9l-43.1,4.4l68.8-77.3C1644.5-1499.4,1618.5-1514.3,1614.2-1531.4z"/>
			<path class="st2" d="M2231.7-1540c6.1-18.2,28.1-31,51.6-30c21.6,2.1,39,21.3,34.8,38.5c-4.2,17.1-29.9,32.1-29.9,32.1l69.6,77
				l-43.1-4.2l-52.2-57.7l-77.3,45l-43.1-4.2l103.1-60.1C2245-1503.7,2227.5-1522.9,2231.7-1540z"/>
			<path class="st2" d="M2485.1-1371.6c0-43.1-232.5-78-518.8-78s-518.6,34.9-518.6,78v26c0-43.1,232.3-69.4,518.6-69.4
				s518.8,43.6,518.8,86.7V-1371.6z"/>
		</g>
		<path class="st2" d="M2442.5-993.7c0-43.1-212.9-78-475-78s-474.8,34.9-474.8,78v26c0-43.1,212.7-69.4,474.8-69.4
			s475,43.6,475,86.7V-993.7z"/>
		<g>
			<path class="st2" d="M1972.1-1331.7l-77,52.1l51.4,34.6l-25.7,17.3l-51.5-34.6l-77,52l77,52.1l51.7-34.8l25.7,17.4v52h51.2v-52
				l25.7-17.4l51.5,34.7l77-52.1l-77-52l-51.4,34.6l-25.8-17.2l51.5-34.7L1972.1-1331.7z"/>
			<path class="st2" d="M1454.3-1277.1l7.5,52.5l12.9,33.5l-18.4,21.1l-12.9-33.5l-5.6,54.6l44.2,46.1l-12.9-33.7l31.3,12.5
				l19.3,50.3l24.9-4.3l-19.3-50.3l18.4-21.2l12.9,33.6l5.7-54.8l-44.3-45.9l12.9,33.5l-31.3-12.3l-12.9-33.5
				C1486.7-1229,1454.3-1277.1,1454.3-1277.1z"/>
			<path class="st2" d="M2489.8-1276.3l-29.5,48.8l-11.7,33.7l-30.9,12.9l11.7-33.7l-42.6,46.6l7.4,54.6l11.8-33.9l19.1,20.9
				l-17.6,50.6l25,4l17.6-50.6l30.9-13l-11.8,33.8l42.8-46.7l-7.6-54.6l-11.7,33.7l-19.2-20.7l11.7-33.7
				C2485.3-1223.6,2489.8-1276.3,2489.8-1276.3z"/>
			<path class="st15" d="M1640.6-1205.5c-2.9-18.5,11-35,32.5-38.6c20.3-2.2,44.7,12.7,48.8,29.8s-12.1,36.4-12.1,36.4l97.6,59.6
				l-40.6,4.4l-73.1-44.7l-48.7,57.9l-40.6,4.4l64.8-77.3C1669.2-1173.5,1644.7-1188.4,1640.6-1205.5z"/>
			<path class="st15" d="M2222.1-1214.1c5.7-18.2,26.5-31,48.6-30c20.3,2.1,36.7,21.3,32.8,38.5c-3.9,17.1-28.2,32.1-28.2,32.1
				l65.5,77l-40.6-4.2l-49.1-57.7l-72.8,45l-40.6-4.2l97-60.1C2234.7-1177.8,2218.2-1197,2222.1-1214.1z"/>
			<path class="st2" d="M2460.7-1045.6c0-43.1-219-78-488.6-78s-488.4,34.9-488.4,78v26c0-43.1,218.8-69.4,488.4-69.4
				s488.6,43.6,488.6,86.7V-1045.6z"/>
		</g>
		<path class="st2" d="M2457.1-1622.2c0-43.1-219.1-78-488.9-78s-488.8,34.9-488.8,78v26c0-43.1,219-69.4,488.8-69.4
			s488.9,43.6,488.9,86.7V-1622.2z"/>
		<g>
			<path class="st2" d="M1973.6-1959.3l-75.4,49.1l50.2,32.7l-25.1,16.3l-50.4-32.7l-75.4,49l75.4,49.1l50.5-32.9l25.1,16.4v49h50.1
				v-49l25.1-16.4l50.4,32.8l75.4-49.1l-75.4-49l-50.2,32.7l-25.3-16.2l50.4-32.8L1973.6-1959.3z"/>
			<path class="st2" d="M1467-1907.9l7.4,49.5l12.6,31.6l-18,19.9l-12.6-31.6l-5.5,51.5l43.2,43.4l-12.6-31.8l30.6,11.8l18.9,47.4
				l24.3-4.1l-18.9-47.4l18-20l12.6,31.7l5.6-51.7l-43.3-43.3l12.6,31.6l-30.6-11.6l-12.6-31.6
				C1498.7-1862.5,1467-1907.9,1467-1907.9z"/>
			<path class="st2" d="M2479.9-1907.2l-28.8,46l-11.5,31.8l-30.2,12.2l11.5-31.8l-41.6,44l7.2,51.5l11.5-32l18.7,19.7l-17.2,47.7
				l24.5,3.7l17.2-47.7l30.2-12.3l-11.5,31.9l41.8-44.1l-7.4-51.5l-11.5,31.8l-18.8-19.5l11.5-31.8
				C2475.6-1857.4,2479.9-1907.2,2479.9-1907.2z"/>
			<path class="st2" d="M1649.3-1840.3c-2.8-17.5,10.7-33.1,31.8-36.4c19.8-2.1,43.7,12,47.7,28.1s-11.8,34.3-11.8,34.3l95.4,56.3
				l-39.7,4.2l-71.5-42.1l-47.6,54.7l-39.7,4.2l63.4-73C1677.3-1810.1,1653.3-1824.2,1649.3-1840.3z"/>
			<path class="st2" d="M2218.1-1848.6c5.6-17.2,25.9-29.3,47.5-28.3c19.9,2,35.9,20.1,32,36.3c-3.8,16.1-27.5,30.3-27.5,30.3
				l64.1,72.7l-39.7-4l-48.1-54.4l-71.2,42.4l-39.7-4l94.9-56.7C2230.4-1814.3,2214.3-1832.4,2218.1-1848.6z"/>
			<path class="st2" d="M2451.4-1689.5c0-40.6-214.1-73.6-477.8-73.6s-477.7,33-477.7,73.6v24.6c0-40.6,214-65.4,477.7-65.4
				s477.8,41.2,477.8,81.8V-1689.5z"/>
		</g>
	</g>
	<path class="st1" d="M659.5,159.7l11.2-4.6l11.2,4.6c0,0-23.1,9.3-23.1,41.7c0,23.2,39.5,27.8,39.5,55.6c0,11.9-10.8,23.2-22,23.2
		s-27.9-4.6-44.7-18.5c11.2,4.6,24,9.8,33.5,9.4c6.2-0.1,17.3-4.6,17.3-13.9c0-18.6-38.7-28-38.7-55.8
		C643.7,169,659.4,159.7,659.5,159.7L659.5,159.7z"/>
	<path class="st3" d="M592.8,415.5c-1,0.1-1.5,1.2-1,2.2s1.8,2,2.8,1.9l5.3-0.4c1-0.1,1.5-1.2,1-2.2c-0.5-1.1-1.8-2-2.8-1.9
		L592.8,415.5L592.8,415.5z"/>
	<path class="st1" d="M661.5,159.7l14.7-4.6l3.2,4.6c0,0-22.3,9.3-22.3,41.7c0,23.2,39.7,27.8,39.7,55.6c0,11.9-8.4,22.9-20.6,23.2
		c-23.1,0.6-28.5-6.3-44.7-18.5c13.6,8.5,33.1,12.2,40.7,8.9c9.3-4,11-9.4,11-14.1c0-18.5-38.1-27.3-38.1-55.1
		C645.1,169,661.5,159.7,661.5,159.7L661.5,159.7z"/>
	<path class="st1" d="M659.3,159.8c2.2-0.6,11.4-4.8,22.5,4.5c5.6,4.6,5.6,13.9,5.6,18.5l16.7-13.9c0,0-9.1-22.7-33.9-14
		C666.5,156.4,662.8,158,659.3,159.8L659.3,159.8z"/>
	<path class="st1" d="M662.6,158.2c2.8-0.7,11.6-1.6,20.4,4.9c5.6,4.6,6,11.2,6,15.9l12.8-9.9c1.1-0.8-7.8-21.2-31.3-14.1
		C667.8,155.7,665.1,156.9,662.6,158.2L662.6,158.2z"/>
	<path class="st2" d="M657.8,225.1l4.3,4.8c0,0-0.5-2.2,1.2-2.8l1.6-0.6c0,0,11.3,10.5,13.4,12.3c2.1,1.9,0.5,3.9,1,3.9
		s5.8-3.3,5.8-3.3s-2.6,0.5-4.4-1s-14.2-12.7-14.2-12.7s1.3-0.8,2.5-1.5c1.1-0.8,3.4,1.5,3.4,1.5l-5.7-5.7c0,0,0.8,2-0.2,2.5
		s-1.7,1-1.7,1s-1.4-1.3-3.2-2.8c-1.7-1.5-0.1-3.3-0.1-3.3l-4.9,3.2c0,0,2.4,0.8,3.5,1.7l2.1,1.9c0,0-0.7,0.5-1.8,1
		C659.6,225.7,658.4,225.4,657.8,225.1L657.8,225.1z"/>
	<path class="st2" d="M699.9,166.9l-2.2-3.6c0,0-0.3,1.7-1.9,2.3l-1.6,0.5c0,0-6.5-7.7-7.8-9.1c-1.3-1.4,0.8-3,0.4-3
		c-0.4,0.1-6.1,2.8-6.1,2.8s2.5-0.5,3.5,0.6c1.1,1.1,8.4,9.4,8.4,9.4s-1.4,0.6-2.6,1.3c-1.2,0.6-2.5-1.1-2.5-1.1l3.2,4.2
		c0,0,0-1.6,1-2c1-0.5,1.9-0.9,1.9-0.9s0.8,1,1.9,2.1c1.1,1.1-1,2.6-1,2.6l5.3-2.7c0,0-1.9-0.5-2.5-1.2l-1.3-1.4
		c0,0,0.7-0.4,1.9-0.9C698.5,166.5,699.5,166.7,699.9,166.9z"/>
	<path class="st3" d="M597.4,415.2c-1,0.1-1.5,1.2-1,2.2s1.8,2,2.8,1.9l5.3-0.4c1-0.1,1.5-1.2,1-2.2c-0.5-1.1-1.8-2-2.8-1.9
		L597.4,415.2L597.4,415.2z"/>
	<path class="st3" d="M590.7,419c-1.6,0.1-2.5,1.2-1.8,2.2s3.1,2,4.7,1.9l8.9-0.4c1.6-0.1,2.5-1.2,1.8-2.2c-0.8-1.1-3.1-2-4.7-1.9
		L590.7,419L590.7,419z"/>
	<path class="st3" d="M595,418.8c-1.6,0.1-2.5,1.2-1.8,2.2s3.1,2,4.7,1.9l8.9-0.4c1.6-0.1,2.5-1.2,1.8-2.2c-0.8-1.1-3.1-2-4.7-1.9
		L595,418.8L595,418.8z"/>
	<path class="st3" d="M589,423.2c-2,0.1-3.1,1.2-2.2,2.2s3.9,2,5.9,1.9l11.1-0.4c2-0.1,3.1-1.2,2.2-2.2c-1-1.1-3.9-2-5.9-1.9
		L589,423.2L589,423.2z"/>
	<path class="st3" d="M594.3,422.9c-2,0.1-3.1,1.2-2.2,2.2c0.9,1,3.9,2,5.9,1.9l11.1-0.4c2-0.1,3.1-1.2,2.2-2.2
		c-1-1.1-3.9-2-5.9-1.9L594.3,422.9L594.3,422.9z"/>
</g>
<path class="st16" d="M0,0h400v480H0V0z"/>
</svg>
