<?xml version="1.0" encoding="utf-8"?>
<!-- Generator: Adobe Illustrator 24.0.1, SVG Export Plug-In . SVG Version: 6.00 Build 0)  -->
<svg version="1.1" id="flag-icons-ve" xmlns="http://www.w3.org/2000/svg" xmlns:xlink="http://www.w3.org/1999/xlink" x="0px"
	 y="0px" viewBox="0 0 800 480" style="enable-background:new 0 0 800 480;" xml:space="preserve">
<style type="text/css">
	.st0{fill:#CF142B;}
	.st1{fill:#00247D;}
	.st2{fill:#FFCC00;}
	.st3{fill:#FFFFFF;}
</style>
<path class="st0" d="M0,0h800v480H0V0z"/>
<path class="st1" d="M0,0h800v320H0V0z"/>
<path class="st2" d="M0,0h800v160H0V0z"/>
<g>
	<polygon class="st3" points="430.4,189 428.5,174.5 421.7,187.5 407.3,184.8 417.6,195.2 410.6,208.1 423.7,201.5 433.8,212.2 
		431.6,197.7 444.8,191.4 	"/>
	<polygon class="st3" points="477,216.8 491.6,215.5 478.8,208.3 482,194 471.2,203.9 458.6,196.4 464.7,209.7 453.7,219.4 
		468.3,217.7 474.1,231.2 	"/>
	<polygon class="st3" points="513.1,250.3 527.3,254 517.7,242.9 525.6,230.6 512.1,236.2 502.8,224.9 504,239.5 490.4,244.8 
		504.6,248.2 505.5,262.8 	"/>
	<polygon class="st3" points="542.5,288.8 554.1,279.9 539.5,280.6 534.6,266.8 530.7,280.9 516.1,281.2 528.3,289.3 524.1,303.3 
		535.6,294.2 547.6,302.5 	"/>
	<polygon class="st3" points="269.3,280.9 265.4,266.8 260.5,280.6 245.9,279.9 257.5,288.8 252.4,302.5 264.4,294.2 275.9,303.3 
		271.7,289.3 283.9,281.2 	"/>
	<polygon class="st3" points="296,239.5 297.2,224.9 287.9,236.2 274.4,230.6 282.3,242.9 272.7,254 286.9,250.3 294.5,262.8 
		295.4,248.2 309.6,244.8 	"/>
	<polygon class="st3" points="335.3,209.7 341.4,196.4 328.8,203.9 318,194 321.2,208.3 308.4,215.5 323,216.8 325.9,231.2 
		331.7,217.7 346.3,219.4 	"/>
	<polygon class="st3" points="378.3,187.5 371.5,174.5 369.6,189 355.2,191.4 368.4,197.7 366.2,212.2 376.3,201.5 389.4,208.1 
		382.4,195.2 392.7,184.8 	"/>
</g>
</svg>
