<?xml version="1.0" encoding="utf-8"?>
<!-- Generator: Adobe Illustrator 24.0.1, SVG Export Plug-In . SVG Version: 6.00 Build 0)  -->
<svg version="1.1" id="flag-icons-vg" xmlns="http://www.w3.org/2000/svg" xmlns:xlink="http://www.w3.org/1999/xlink" x="0px"
	 y="0px" viewBox="0 0 800 480" style="enable-background:new 0 0 800 480;" xml:space="preserve">
<style type="text/css">
	.st0{fill:#000066;}
	.st1{fill:#FFFFFF;}
	.st2{fill:#C8102E;}
	.st3{fill:#006129;stroke:#000000;stroke-width:1.4724;stroke-miterlimit:3.0999;}
	.st4{fill:none;stroke:#FFC72C;stroke-width:1.4724;stroke-miterlimit:3.0999;}
	.st5{fill:#FFC72C;stroke:#000000;stroke-width:0.6975;stroke-miterlimit:3.0999;}
	.st6{fill:url(#path869_1_);stroke:#000000;stroke-width:0.6975;stroke-miterlimit:3.0999;}
	.st7{fill:url(#path869_2_);stroke:#000000;stroke-width:0.6975;stroke-miterlimit:3.0999;}
	.st8{fill:url(#path869_3_);stroke:#000000;stroke-width:0.6975;stroke-miterlimit:3.0999;}
	.st9{fill:url(#path869_4_);stroke:#000000;stroke-width:0.6975;stroke-miterlimit:3.0999;}
	.st10{fill:url(#path869_5_);stroke:#000000;stroke-width:0.6975;stroke-miterlimit:3.0999;}
	.st11{fill:url(#path869_6_);stroke:#000000;stroke-width:0.6975;stroke-miterlimit:3.0999;}
	.st12{fill:url(#path869_7_);stroke:#000000;stroke-width:0.6975;stroke-miterlimit:3.0999;}
	.st13{fill:url(#path869_8_);stroke:#000000;stroke-width:0.6975;stroke-miterlimit:3.0999;}
	.st14{fill:url(#path869_9_);stroke:#000000;stroke-width:0.6975;stroke-miterlimit:3.0999;}
	.st15{fill:url(#path869_10_);stroke:#000000;stroke-width:0.6975;stroke-miterlimit:3.0999;}
	.st16{fill:url(#path869_11_);stroke:#000000;stroke-width:0.6975;stroke-miterlimit:3.0999;}
	.st17{fill:url(#path869_24_);stroke:#000000;stroke-width:0.6975;stroke-miterlimit:3.0999;}
	.st18{fill:#FFC6B5;stroke:#000000;stroke-width:0.6975;stroke-miterlimit:3.0999;}
	.st19{fill:#FFFFFF;stroke:#000000;stroke-width:0.6975;stroke-miterlimit:3.0999;}
	.st20{fill:#9C5100;stroke:#000000;stroke-width:0.6975;stroke-miterlimit:3.0999;}
	.st21{fill:none;stroke:#000000;stroke-width:0.6975;stroke-miterlimit:3.0999;}
	.st22{fill:none;stroke:#000000;stroke-width:0.6975;stroke-linejoin:round;stroke-miterlimit:3.0999;}
	.st23{fill:none;stroke:#000000;stroke-width:1.3174;stroke-linejoin:round;stroke-miterlimit:3.0999;}
	.st24{fill:#FFC72C;stroke:#000000;stroke-width:1.4724;stroke-miterlimit:3.0999;}
	.st25{fill:none;stroke:#000000;stroke-width:1.4724;stroke-miterlimit:3.0999;}
</style>
<path id="path1707" class="st0" d="M0,0h800v480H0V0z"/>
<path id="path2611" class="st1" d="M46.9,0l152.5,90.5L351.2,0H400v31l-150,89.5l150,89V240h-50l-150-89.5L50.6,240H0v-30l149.4-89
	L0,32V0H46.9z"/>
<path id="path2613" class="st2" d="M265,140.5L400,220v20l-169.4-99.5H265z M150,150.5l3.8,17.5l-120,72H0L150,150.5z M400,0v1.5
	l-155.6,94l1.2-22L368.8,0H400z M0,0l149.4,88h-37.5L0,21V0z"/>
<path id="path2615" class="st1" d="M150.6,0v240h100V0H150.6z M0,80v80h400V80H0z"/>
<path id="path2617" class="st2" d="M0,96.5v48h400v-48H0z M170.6,0v240h60V0H170.6z"/>
<g id="g1028_1_" transform="translate(-217.5 -9.4) scale(.77497)">
	<path id="path855_1_" class="st1" d="M931.5,144l250.4-0.9l-0.5,223c0,0,8.8,34-105,85.5c40.9-4.2,85.5-47.8,85.5-47.8
		s18.1-23.3,27-10.3c8.8,13,17.1,19.6,23.6,24.7c6.5,5,11.6,19,1.9,29.2c-9.8,10.3-25.1,11.6-29.3-0.9
		c-6.5,3.3-46.4,51.6-128.2,53.9C973.7,499,928.2,446,928.2,446s-11.1,17.7-27,3.8c-15.3-18.2-3.7-29.8-3.7-29.8s13-7.4,16.8-12.5
		c6-7,7.9-16.3,18-16.3c12.2,1,16.8,10.7,16.8,10.7s41.8,44.1,86.9,49.7c-101.7-48.8-105.5-79-105-86.4l0.5-221.1V144z"/>
	<path id="path857_1_" class="st3" d="M937.5,150.1l238.8-1.4v214.6c0.5,28-46.5,56.3-119.9,92.5c-75.7-39-119.4-62.7-119.8-93
		L937.5,150.1L937.5,150.1z"/>
	<g id="lamp_23_">
		<path id="path859_23_" class="st4" d="M970,181.8l14-20.7l14.3,20.8"/>
		<path id="path861_23_" class="st5" d="M986.9,174c0,1.5-1.2,2.8-2.8,2.8c-1.5,0-2.8-1.2-2.8-2.8c0,0,0,0,0,0
			c0-1.5,1.3-2.8,2.8-2.8C985.6,171.2,986.9,172.5,986.9,174z"/>
		<path id="path863_23_" class="st5" d="M972.6,197.1h21.9c0,0,0.3-2.8-2.3-4.5c11.5-1.6,8.5-11.6,18-12.2c2,0.3-5,4.3-5,4.3
			s-5.7,4-3,6.1c2,1.7,3-1,3.2-3c0.3-2,9.3-3.3,8-9c-2.1-4.7-14.7,3.2-14.7,3.2l-9-0.1c-0.6-1-3-5-5.6-5c-3,0-5.2,5-5.2,5h-20.3
			c0,0-0.7,5.3,9.6,6.3c2.3,3,4.1,3.8,6.2,4.6C973,193.9,972.6,195.3,972.6,197.1L972.6,197.1z"/>
		<path id="path865_23_" class="st5" d="M974.2,192.7h18.2"/>
		<path id="path867_23_" class="st5" d="M965.9,182c0,0,1.4,8.5,8.2,10.5"/>
		
			<linearGradient id="path869_1_" gradientUnits="userSpaceOnUse" x1="576.6511" y1="590.0005" x2="566.1511" y2="593.5005" gradientTransform="matrix(0.772 0 0 -1.7457 517.1512 1201.3037)">
			<stop  offset="0" style="stop-color:#FF0000"/>
			<stop  offset="1" style="stop-color:#FFFF00"/>
		</linearGradient>
		<path id="path869_23_" class="st6" d="M964.8,181.8c0.6-3.2,1.9-3.8,3.2-8c0.2-4-3.2-3.5-2.2-6c1.8-2.9,0.9-5.6-2.5-7.7
			c0.7,3.7-4.4,7.2-4.4,10.2s2.6,2.4,2.3,7c0.2,2.6-0.7,2-1,4.5H964.8L964.8,181.8z"/>
		<path id="path871_23_" class="st5" d="M986.7,161.7c0,1.4-1.2,2.6-2.6,2.6c-1.4,0-2.6-1.2-2.6-2.6s1.2-2.6,2.6-2.6
			C985.5,159.1,986.7,160.3,986.7,161.7z"/>
	</g>
	<g id="use874_1_">
		<g id="lamp_22_">
			<path id="path859_22_" class="st4" d="M969.2,223.1l14-20.7l14.3,20.8"/>
			<path id="path861_22_" class="st5" d="M986.1,215.3c0,1.5-1.2,2.8-2.8,2.8c-1.5,0-2.8-1.2-2.8-2.8c0,0,0,0,0,0
				c0-1.5,1.3-2.8,2.8-2.8C984.8,212.5,986.1,213.8,986.1,215.3z"/>
			<path id="path863_22_" class="st5" d="M971.8,238.4h21.9c0,0,0.3-2.8-2.3-4.5c11.5-1.6,8.5-11.6,18-12.2c2,0.3-5,4.3-5,4.3
				s-5.7,4-3,6.1c2,1.7,3-1,3.2-3c0.3-2,9.3-3.3,8-9c-2.1-4.7-14.7,3.2-14.7,3.2l-9-0.1c-0.6-1-3-5-5.6-5c-3,0-5.2,5-5.2,5h-20.3
				c0,0-0.7,5.3,9.6,6.3c2.3,3,4.1,3.8,6.2,4.6C972.2,235.2,971.8,236.6,971.8,238.4L971.8,238.4z"/>
			<path id="path865_22_" class="st5" d="M973.4,234h18.2"/>
			<path id="path867_22_" class="st5" d="M965.1,223.3c0,0,1.4,8.5,8.2,10.5"/>
			
				<linearGradient id="path869_2_" gradientUnits="userSpaceOnUse" x1="576.6511" y1="590.0005" x2="566.1511" y2="593.5005" gradientTransform="matrix(0.772 0 0 -1.7457 516.3513 1242.6036)">
				<stop  offset="0" style="stop-color:#FF0000"/>
				<stop  offset="1" style="stop-color:#FFFF00"/>
			</linearGradient>
			<path id="path869_22_" class="st7" d="M964,223.1c0.6-3.2,1.9-3.8,3.2-8c0.2-4-3.2-3.5-2.2-6c1.8-2.9,0.9-5.6-2.5-7.7
				c0.7,3.7-4.4,7.2-4.4,10.2s2.6,2.4,2.3,7c0.2,2.6-0.7,2-1,4.5H964L964,223.1z"/>
			<path id="path871_22_" class="st5" d="M985.9,203c0,1.4-1.2,2.6-2.6,2.6c-1.4,0-2.6-1.2-2.6-2.6s1.2-2.6,2.6-2.6
				C984.7,200.4,985.9,201.6,985.9,203z"/>
		</g>
	</g>
	<g id="use876_1_">
		<g id="lamp_21_">
			<path id="path859_21_" class="st4" d="M968.9,263.8l14-20.7l14.3,20.8"/>
			<path id="path861_21_" class="st5" d="M985.8,256c0,1.5-1.2,2.8-2.8,2.8s-2.8-1.2-2.8-2.8c0,0,0,0,0,0c0-1.5,1.3-2.8,2.8-2.8
				C984.5,253.2,985.8,254.5,985.8,256z"/>
			<path id="path863_21_" class="st5" d="M971.5,279.1h21.9c0,0,0.3-2.8-2.3-4.5c11.5-1.6,8.5-11.6,18-12.2c2,0.3-5,4.3-5,4.3
				s-5.7,4-3,6.1c2,1.7,3-1,3.2-3c0.3-2,9.3-3.3,8-9c-2.1-4.7-14.7,3.2-14.7,3.2l-9-0.1c-0.6-1-3-5-5.6-5c-3,0-5.2,5-5.2,5h-20.3
				c0,0-0.7,5.3,9.6,6.3c2.3,3,4.1,3.8,6.2,4.6C971.9,275.9,971.5,277.3,971.5,279.1L971.5,279.1z"/>
			<path id="path865_21_" class="st5" d="M973.1,274.7h18.2"/>
			<path id="path867_21_" class="st5" d="M964.8,264c0,0,1.4,8.5,8.2,10.5"/>
			
				<linearGradient id="path869_3_" gradientUnits="userSpaceOnUse" x1="576.6511" y1="590.0005" x2="566.1511" y2="593.5005" gradientTransform="matrix(0.772 0 0 -1.7457 516.0513 1283.3037)">
				<stop  offset="0" style="stop-color:#FF0000"/>
				<stop  offset="1" style="stop-color:#FFFF00"/>
			</linearGradient>
			<path id="path869_21_" class="st8" d="M963.7,263.8c0.6-3.2,1.9-3.8,3.2-8c0.2-4-3.2-3.5-2.2-6c1.8-2.9,0.9-5.6-2.5-7.7
				c0.7,3.7-4.4,7.2-4.4,10.2s2.6,2.4,2.3,7c0.2,2.6-0.7,2-1,4.5H963.7L963.7,263.8z"/>
			<path id="path871_21_" class="st5" d="M985.6,243.7c0,1.4-1.2,2.6-2.6,2.6c-1.4,0-2.6-1.2-2.6-2.6s1.2-2.6,2.6-2.6
				C984.4,241.1,985.6,242.3,985.6,243.7z"/>
		</g>
	</g>
	<g id="use878_1_">
		<g id="lamp_20_">
			<path id="path859_20_" class="st4" d="M995.6,307.9l14-20.7l14.3,20.8"/>
			<path id="path861_20_" class="st5" d="M1012.5,300.1c0,1.5-1.2,2.8-2.8,2.8c-1.5,0-2.8-1.2-2.8-2.8c0,0,0,0,0,0
				c0-1.5,1.3-2.8,2.8-2.8C1011.2,297.3,1012.5,298.6,1012.5,300.1z"/>
			<path id="path863_20_" class="st5" d="M998.2,323.2h21.9c0,0,0.3-2.8-2.3-4.5c11.5-1.6,8.5-11.6,18-12.2c2,0.3-5,4.3-5,4.3
				s-5.7,4-3,6.1c2,1.7,3-1,3.2-3c0.3-2,9.3-3.3,8-9c-2.1-4.7-14.7,3.2-14.7,3.2l-9-0.1c-0.6-1-3-5-5.6-5c-3,0-5.2,5-5.2,5h-20.3
				c0,0-0.7,5.3,9.6,6.3c2.3,3,4.1,3.8,6.2,4.6C998.6,320,998.2,321.4,998.2,323.2L998.2,323.2z"/>
			<path id="path865_20_" class="st5" d="M999.8,318.8h18.2"/>
			<path id="path867_20_" class="st5" d="M991.5,308.1c0,0,1.4,8.5,8.2,10.5"/>
			
				<linearGradient id="path869_4_" gradientUnits="userSpaceOnUse" x1="576.6511" y1="590.0005" x2="566.1511" y2="593.5005" gradientTransform="matrix(0.772 0 0 -1.7457 542.7513 1327.4037)">
				<stop  offset="0" style="stop-color:#FF0000"/>
				<stop  offset="1" style="stop-color:#FFFF00"/>
			</linearGradient>
			<path id="path869_20_" class="st9" d="M990.4,307.9c0.6-3.2,1.9-3.8,3.2-8c0.2-4-3.2-3.5-2.2-6c1.8-2.9,0.9-5.6-2.5-7.7
				c0.7,3.7-4.4,7.2-4.4,10.2s2.6,2.4,2.3,7c0.2,2.6-0.7,2-1,4.5H990.4L990.4,307.9z"/>
			<path id="path871_20_" class="st5" d="M1012.3,287.8c0,1.4-1.2,2.6-2.6,2.6c-1.4,0-2.6-1.2-2.6-2.6s1.2-2.6,2.6-2.6
				C1011.1,285.2,1012.3,286.4,1012.3,287.8z"/>
		</g>
	</g>
	<g id="use880_1_">
		<g id="lamp_19_">
			<path id="path859_19_" class="st4" d="M965.4,344l14-20.7l14.3,20.8"/>
			<path id="path861_19_" class="st5" d="M982.3,336.2c0,1.5-1.2,2.8-2.8,2.8c-1.5,0-2.8-1.2-2.8-2.8c0,0,0,0,0,0
				c0-1.5,1.3-2.8,2.8-2.8C981,333.4,982.3,334.7,982.3,336.2z"/>
			<path id="path863_19_" class="st5" d="M968,359.3h21.9c0,0,0.3-2.8-2.3-4.5c11.5-1.6,8.5-11.6,18-12.2c2,0.3-5,4.3-5,4.3
				s-5.7,4-3,6.1c2,1.7,3-1,3.2-3c0.3-2,9.3-3.3,8-9c-2.1-4.7-14.7,3.2-14.7,3.2l-9-0.1c-0.6-1-3-5-5.6-5c-3,0-5.2,5-5.2,5H954
				c0,0-0.7,5.3,9.6,6.3c2.3,3,4.1,3.8,6.2,4.6C968.4,356.1,968,357.5,968,359.3L968,359.3z"/>
			<path id="path865_19_" class="st5" d="M969.6,354.9h18.2"/>
			<path id="path867_19_" class="st5" d="M961.3,344.2c0,0,1.4,8.5,8.2,10.5"/>
			
				<linearGradient id="path869_5_" gradientUnits="userSpaceOnUse" x1="576.6511" y1="590.0005" x2="566.1511" y2="593.5005" gradientTransform="matrix(0.772 0 0 -1.7457 512.5513 1363.5037)">
				<stop  offset="0" style="stop-color:#FF0000"/>
				<stop  offset="1" style="stop-color:#FFFF00"/>
			</linearGradient>
			<path id="path869_19_" class="st10" d="M960.2,344c0.6-3.2,1.9-3.8,3.2-8c0.2-4-3.2-3.5-2.2-6c1.8-2.9,0.9-5.6-2.5-7.7
				c0.7,3.7-4.4,7.2-4.4,10.2s2.6,2.4,2.3,7c0.2,2.6-0.7,2-1,4.5H960.2L960.2,344z"/>
			<path id="path871_19_" class="st5" d="M982.1,323.9c0,1.4-1.2,2.6-2.6,2.6c-1.4,0-2.6-1.2-2.6-2.6s1.2-2.6,2.6-2.6
				C980.9,321.3,982.1,322.5,982.1,323.9z"/>
		</g>
	</g>
	<g id="use882_1_">
		<g id="lamp_18_">
			<path id="path859_18_" class="st4" d="M966.2,386.6l14-20.7l14.3,20.8"/>
			<path id="path861_18_" class="st5" d="M983.1,378.8c0,1.5-1.2,2.8-2.8,2.8c-1.5,0-2.8-1.2-2.8-2.8c0,0,0,0,0,0
				c0-1.5,1.3-2.8,2.8-2.8C981.8,376,983.1,377.3,983.1,378.8z"/>
			<path id="path863_18_" class="st5" d="M968.8,401.9h21.9c0,0,0.3-2.8-2.3-4.5c11.5-1.6,8.5-11.6,18-12.2c2,0.3-5,4.3-5,4.3
				s-5.7,4-3,6.1c2,1.7,3-1,3.2-3c0.3-2,9.3-3.3,8-9c-2.1-4.7-14.7,3.2-14.7,3.2l-9-0.1c-0.6-1-3-5-5.6-5c-3,0-5.2,5-5.2,5h-20.3
				c0,0-0.7,5.3,9.6,6.3c2.3,3,4.1,3.8,6.2,4.6C969.2,398.7,968.8,400.1,968.8,401.9L968.8,401.9z"/>
			<path id="path865_18_" class="st5" d="M970.4,397.5h18.2"/>
			<path id="path867_18_" class="st5" d="M962.1,386.8c0,0,1.4,8.5,8.2,10.5"/>
			
				<linearGradient id="path869_6_" gradientUnits="userSpaceOnUse" x1="576.6511" y1="590.0005" x2="566.1511" y2="593.5005" gradientTransform="matrix(0.772 0 0 -1.7457 513.3513 1406.1036)">
				<stop  offset="0" style="stop-color:#FF0000"/>
				<stop  offset="1" style="stop-color:#FFFF00"/>
			</linearGradient>
			<path id="path869_18_" class="st11" d="M961,386.6c0.6-3.2,1.9-3.8,3.2-8c0.2-4-3.2-3.5-2.2-6c1.8-2.9,0.9-5.6-2.5-7.7
				c0.7,3.7-4.4,7.2-4.4,10.2s2.6,2.4,2.3,7c0.2,2.6-0.7,2-1,4.5H961L961,386.6z"/>
			<path id="path871_18_" class="st5" d="M982.9,366.5c0,1.4-1.2,2.6-2.6,2.6c-1.4,0-2.6-1.2-2.6-2.6s1.2-2.6,2.6-2.6
				C981.7,363.9,982.9,365.1,982.9,366.5z"/>
		</g>
	</g>
	<g id="use884_1_">
		<g id="lamp_17_">
			<path id="path859_17_" class="st4" d="M1116.3,182.5l14-20.7l14.3,20.8"/>
			<path id="path861_17_" class="st5" d="M1133.2,174.7c0,1.5-1.2,2.8-2.8,2.8c-1.5,0-2.8-1.2-2.8-2.8c0,0,0,0,0,0
				c0-1.5,1.3-2.8,2.8-2.8C1131.9,171.9,1133.2,173.2,1133.2,174.7z"/>
			<path id="path863_17_" class="st5" d="M1118.9,197.8h21.9c0,0,0.3-2.8-2.3-4.5c11.5-1.6,8.5-11.6,18-12.2c2,0.3-5,4.3-5,4.3
				s-5.7,4-3,6.1c2,1.7,3-1,3.2-3c0.3-2,9.3-3.3,8-9c-2.1-4.7-14.7,3.2-14.7,3.2l-9-0.1c-0.6-1-3-5-5.6-5c-3,0-5.2,5-5.2,5h-20.3
				c0,0-0.7,5.3,9.6,6.3c2.3,3,4.1,3.8,6.2,4.6C1119.3,194.6,1118.9,196,1118.9,197.8L1118.9,197.8z"/>
			<path id="path865_17_" class="st5" d="M1120.5,193.4h18.2"/>
			<path id="path867_17_" class="st5" d="M1112.2,182.7c0,0,1.4,8.5,8.2,10.5"/>
			
				<linearGradient id="path869_7_" gradientUnits="userSpaceOnUse" x1="576.6511" y1="590.0005" x2="566.1511" y2="593.5005" gradientTransform="matrix(0.772 0 0 -1.7457 663.4512 1202.0037)">
				<stop  offset="0" style="stop-color:#FF0000"/>
				<stop  offset="1" style="stop-color:#FFFF00"/>
			</linearGradient>
			<path id="path869_17_" class="st12" d="M1111.1,182.5c0.6-3.2,1.9-3.8,3.2-8c0.2-4-3.2-3.5-2.2-6c1.8-2.9,0.9-5.6-2.5-7.7
				c0.7,3.7-4.4,7.2-4.4,10.2s2.6,2.4,2.3,7c0.2,2.6-0.7,2-1,4.5H1111.1L1111.1,182.5z"/>
			<path id="path871_17_" class="st5" d="M1133,162.4c0,1.4-1.2,2.6-2.6,2.6c-1.4,0-2.6-1.2-2.6-2.6s1.2-2.6,2.6-2.6
				C1131.8,159.8,1133,161,1133,162.4z"/>
		</g>
	</g>
	<g id="use886_1_">
		<g id="lamp_16_">
			<path id="path859_16_" class="st4" d="M1114.9,223l14-20.7l14.3,20.8"/>
			<path id="path861_16_" class="st5" d="M1131.8,215.2c0,1.5-1.2,2.8-2.8,2.8c-1.5,0-2.8-1.2-2.8-2.8c0,0,0,0,0,0
				c0-1.5,1.3-2.8,2.8-2.8C1130.5,212.4,1131.8,213.7,1131.8,215.2z"/>
			<path id="path863_16_" class="st5" d="M1117.5,238.3h21.9c0,0,0.3-2.8-2.3-4.5c11.5-1.6,8.5-11.6,18-12.2c2,0.3-5,4.3-5,4.3
				s-5.7,4-3,6.1c2,1.7,3-1,3.2-3c0.3-2,9.3-3.3,8-9c-2.1-4.7-14.7,3.2-14.7,3.2l-9-0.1c-0.6-1-3-5-5.6-5c-3,0-5.2,5-5.2,5h-20.3
				c0,0-0.7,5.3,9.6,6.3c2.3,3,4.1,3.8,6.2,4.6C1117.9,235.1,1117.5,236.5,1117.5,238.3L1117.5,238.3z"/>
			<path id="path865_16_" class="st5" d="M1119.1,233.9h18.2"/>
			<path id="path867_16_" class="st5" d="M1110.8,223.2c0,0,1.4,8.5,8.2,10.5"/>
			
				<linearGradient id="path869_8_" gradientUnits="userSpaceOnUse" x1="576.6511" y1="590.0005" x2="566.1511" y2="593.5005" gradientTransform="matrix(0.772 0 0 -1.7457 662.0513 1242.5037)">
				<stop  offset="0" style="stop-color:#FF0000"/>
				<stop  offset="1" style="stop-color:#FFFF00"/>
			</linearGradient>
			<path id="path869_16_" class="st13" d="M1109.7,223c0.6-3.2,1.9-3.8,3.2-8c0.2-4-3.2-3.5-2.2-6c1.8-2.9,0.9-5.6-2.5-7.7
				c0.7,3.7-4.4,7.2-4.4,10.2s2.6,2.4,2.3,7c0.2,2.6-0.7,2-1,4.5H1109.7L1109.7,223z"/>
			<path id="path871_16_" class="st5" d="M1131.6,202.9c0,1.4-1.2,2.6-2.6,2.6c-1.4,0-2.6-1.2-2.6-2.6s1.2-2.6,2.6-2.6
				C1130.4,200.3,1131.6,201.5,1131.6,202.9z"/>
		</g>
	</g>
	<g id="use888_1_">
		<g id="lamp_15_">
			<path id="path859_15_" class="st4" d="M1113.1,264.5l14-20.7l14.3,20.8"/>
			<path id="path861_15_" class="st5" d="M1130,256.7c0,1.5-1.2,2.8-2.8,2.8c-1.5,0-2.8-1.2-2.8-2.8c0,0,0,0,0,0
				c0-1.5,1.3-2.8,2.8-2.8C1128.7,253.9,1130,255.2,1130,256.7z"/>
			<path id="path863_15_" class="st5" d="M1115.7,279.8h21.9c0,0,0.3-2.8-2.3-4.5c11.5-1.6,8.5-11.6,18-12.2c2,0.3-5,4.3-5,4.3
				s-5.7,4-3,6.1c2,1.7,3-1,3.2-3c0.3-2,9.3-3.3,8-9c-2.1-4.7-14.7,3.2-14.7,3.2l-9-0.1c-0.6-1-3-5-5.6-5c-3,0-5.2,5-5.2,5h-20.3
				c0,0-0.7,5.3,9.6,6.3c2.3,3,4.1,3.8,6.2,4.6C1116.1,276.6,1115.7,278,1115.7,279.8L1115.7,279.8z"/>
			<path id="path865_15_" class="st5" d="M1117.3,275.4h18.2"/>
			<path id="path867_15_" class="st5" d="M1109,264.7c0,0,1.4,8.5,8.2,10.5"/>
			
				<linearGradient id="path869_9_" gradientUnits="userSpaceOnUse" x1="576.6511" y1="590.0005" x2="566.1511" y2="593.5005" gradientTransform="matrix(0.772 0 0 -1.7457 660.2513 1284.0037)">
				<stop  offset="0" style="stop-color:#FF0000"/>
				<stop  offset="1" style="stop-color:#FFFF00"/>
			</linearGradient>
			<path id="path869_15_" class="st14" d="M1107.9,264.5c0.6-3.2,1.9-3.8,3.2-8c0.2-4-3.2-3.5-2.2-6c1.8-2.9,0.9-5.6-2.5-7.7
				c0.7,3.7-4.4,7.2-4.4,10.2s2.6,2.4,2.3,7c0.2,2.6-0.7,2-1,4.5H1107.9L1107.9,264.5z"/>
			<path id="path871_15_" class="st5" d="M1129.8,244.4c0,1.4-1.2,2.6-2.6,2.6s-2.6-1.2-2.6-2.6s1.2-2.6,2.6-2.6
				S1129.8,243,1129.8,244.4z"/>
		</g>
	</g>
	<g id="use890_1_">
		<g id="lamp_14_">
			<path id="path859_14_" class="st4" d="M1115.2,305.2l14-20.7l14.3,20.8"/>
			<path id="path861_14_" class="st5" d="M1132.1,297.4c0,1.5-1.2,2.8-2.8,2.8s-2.8-1.2-2.8-2.8c0,0,0,0,0,0c0-1.5,1.3-2.8,2.8-2.8
				C1130.8,294.6,1132.1,295.9,1132.1,297.4z"/>
			<path id="path863_14_" class="st5" d="M1117.8,320.5h21.9c0,0,0.3-2.8-2.3-4.5c11.5-1.6,8.5-11.6,18-12.2c2,0.3-5,4.3-5,4.3
				s-5.7,4-3,6.1c2,1.7,3-1,3.2-3c0.3-2,9.3-3.3,8-9c-2.1-4.7-14.7,3.2-14.7,3.2l-9-0.1c-0.6-1-3-5-5.6-5c-3,0-5.2,5-5.2,5h-20.3
				c0,0-0.7,5.3,9.6,6.3c2.3,3,4.1,3.8,6.2,4.6C1118.2,317.3,1117.8,318.7,1117.8,320.5L1117.8,320.5z"/>
			<path id="path865_14_" class="st5" d="M1119.4,316.1h18.2"/>
			<path id="path867_14_" class="st5" d="M1111.1,305.4c0,0,1.4,8.5,8.2,10.5"/>
			
				<linearGradient id="path869_10_" gradientUnits="userSpaceOnUse" x1="576.6511" y1="590.0005" x2="566.1511" y2="593.5005" gradientTransform="matrix(0.772 0 0 -1.7457 662.3513 1324.7037)">
				<stop  offset="0" style="stop-color:#FF0000"/>
				<stop  offset="1" style="stop-color:#FFFF00"/>
			</linearGradient>
			<path id="path869_14_" class="st15" d="M1110,305.2c0.6-3.2,1.9-3.8,3.2-8c0.2-4-3.2-3.5-2.2-6c1.8-2.9,0.9-5.6-2.5-7.7
				c0.7,3.7-4.4,7.2-4.4,10.2s2.6,2.4,2.3,7c0.2,2.6-0.7,2-1,4.5H1110L1110,305.2z"/>
			<path id="path871_14_" class="st5" d="M1131.9,285.1c0,1.4-1.2,2.6-2.6,2.6s-2.6-1.2-2.6-2.6s1.2-2.6,2.6-2.6
				S1131.9,283.7,1131.9,285.1z"/>
		</g>
	</g>
	<g id="use892_1_">
		<g id="lamp_13_">
			<path id="path859_13_" class="st4" d="M1114.7,346l14-20.7l14.3,20.8"/>
			<path id="path861_13_" class="st5" d="M1131.6,338.2c0,1.5-1.2,2.8-2.8,2.8c-1.5,0-2.8-1.2-2.8-2.8c0,0,0,0,0,0
				c0-1.5,1.3-2.8,2.8-2.8C1130.3,335.4,1131.6,336.7,1131.6,338.2z"/>
			<path id="path863_13_" class="st5" d="M1117.3,361.3h21.9c0,0,0.3-2.8-2.3-4.5c11.5-1.6,8.5-11.6,18-12.2c2,0.3-5,4.3-5,4.3
				s-5.7,4-3,6.1c2,1.7,3-1,3.2-3c0.3-2,9.3-3.3,8-9c-2.1-4.7-14.7,3.2-14.7,3.2l-9-0.1c-0.6-1-3-5-5.6-5c-3,0-5.2,5-5.2,5h-20.3
				c0,0-0.7,5.3,9.6,6.3c2.3,3,4.1,3.8,6.2,4.6C1117.7,358.1,1117.3,359.5,1117.3,361.3L1117.3,361.3z"/>
			<path id="path865_13_" class="st5" d="M1118.9,356.9h18.2"/>
			<path id="path867_13_" class="st5" d="M1110.6,346.2c0,0,1.4,8.5,8.2,10.5"/>
			
				<linearGradient id="path869_11_" gradientUnits="userSpaceOnUse" x1="576.6511" y1="590.0005" x2="566.1511" y2="593.5005" gradientTransform="matrix(0.772 0 0 -1.7457 661.8513 1365.5037)">
				<stop  offset="0" style="stop-color:#FF0000"/>
				<stop  offset="1" style="stop-color:#FFFF00"/>
			</linearGradient>
			<path id="path869_13_" class="st16" d="M1109.5,346c0.6-3.2,1.9-3.8,3.2-8c0.2-4-3.2-3.5-2.2-6c1.8-2.9,0.9-5.6-2.5-7.7
				c0.7,3.7-4.4,7.2-4.4,10.2s2.6,2.4,2.3,7c0.2,2.6-0.7,2-1,4.5H1109.5L1109.5,346z"/>
			<path id="path871_13_" class="st5" d="M1131.4,325.9c0,1.4-1.2,2.6-2.6,2.6s-2.6-1.2-2.6-2.6s1.2-2.6,2.6-2.6
				S1131.4,324.5,1131.4,325.9z"/>
		</g>
	</g>
	<g id="use894_1_">
		<g id="lamp_12_">
			<path id="path859_12_" class="st4" d="M1114.9,387l14-20.7l14.3,20.8"/>
			<path id="path861_12_" class="st5" d="M1131.8,379.2c0,1.5-1.2,2.8-2.8,2.8c-1.5,0-2.8-1.2-2.8-2.8c0,0,0,0,0,0
				c0-1.5,1.3-2.8,2.8-2.8C1130.5,376.4,1131.8,377.7,1131.8,379.2z"/>
			<path id="path863_12_" class="st5" d="M1117.5,402.3h21.9c0,0,0.3-2.8-2.3-4.5c11.5-1.6,8.5-11.6,18-12.2c2,0.3-5,4.3-5,4.3
				s-5.7,4-3,6.1c2,1.7,3-1,3.2-3c0.3-2,9.3-3.3,8-9c-2.1-4.7-14.7,3.2-14.7,3.2l-9-0.1c-0.6-1-3-5-5.6-5c-3,0-5.2,5-5.2,5h-20.3
				c0,0-0.7,5.3,9.6,6.3c2.3,3,4.1,3.8,6.2,4.6C1117.9,399.1,1117.5,400.5,1117.5,402.3L1117.5,402.3z"/>
			<path id="path865_12_" class="st5" d="M1119.1,397.9h18.2"/>
			<path id="path867_12_" class="st5" d="M1110.8,387.2c0,0,1.4,8.5,8.2,10.5"/>
			
				<linearGradient id="path869_24_" gradientUnits="userSpaceOnUse" x1="576.6511" y1="590.0005" x2="566.1511" y2="593.5005" gradientTransform="matrix(0.772 0 0 -1.7457 662.0513 1406.5037)">
				<stop  offset="0" style="stop-color:#FF0000"/>
				<stop  offset="1" style="stop-color:#FFFF00"/>
			</linearGradient>
			<path id="path869_12_" class="st17" d="M1109.7,387c0.6-3.2,1.9-3.8,3.2-8c0.2-4-3.2-3.5-2.2-6c1.8-2.9,0.9-5.6-2.5-7.7
				c0.7,3.7-4.4,7.2-4.4,10.2s2.6,2.4,2.3,7c0.2,2.6-0.7,2-1,4.5H1109.7L1109.7,387z"/>
			<path id="path871_12_" class="st5" d="M1131.6,366.9c0,1.4-1.2,2.6-2.6,2.6c-1.4,0-2.6-1.2-2.6-2.6s1.2-2.6,2.6-2.6
				C1130.4,364.3,1131.6,365.5,1131.6,366.9z"/>
		</g>
	</g>
	<g id="g996_1_">
		<path id="path896_1_" class="st5" d="M1071,406.3c0,0,5.7,13.2,12.2,5c6.5-8,4.2-11.5,4.2-11.5l-14.6-7.9l-4.3,9L1071,406.3
			L1071,406.3z"/>
		<path id="path898_1_" class="st18" d="M1083.6,404.6c0,0,1,0.1,1.7-1.3c0.8-1.4-1.7-2-2.9-3.6l-1.2,2.5L1083.6,404.6z"/>
		<path id="path900_1_" class="st18" d="M1050.6,401l-12.8,7c0,0-6.4,1.3-6.8,0c-0.5-1.2,0.1-2.3,3.5-2.5c3.3-0.1,12.3-8.4,12.3-8.4
			l3.8,4V401z"/>
		<path id="path902_1_" class="st18" d="M1050.8,173.1l0.4,4.6c0.2,1.6-2.5,5-2.6,4.8c-0.2-0.2-1.5,0.2-1.3,1.1c0.1,1,2,1.3,2,1.3
			s-0.7,3.3,0,3.5c0.8,0.1-2,4.2,0,5.3c2.1,1.1,5.6,2.6,7.2,2.3c1.6-0.4,0,6.1,0,6.1l-4.5,9.5l24.4-2.5l-5-8c0,0-2.4-1.7-1.8-6.3
			c0.7-4.5-0.3-25.3-0.3-25.3l-17.4-2.4L1050.8,173.1L1050.8,173.1z"/>
		<path id="path904_1_" class="st18" d="M1046.3,209.3c0,0-7.9,3.6-7.6,13.4c-2,9.5-3.1,19-3.1,19s-9.4,10.6-12.2,14.5
			c-2.9,3.8-7.2,11.5-8.7,13.6c-1.6,2-7.8,8.8-7.7,11.4c0.2,2.5-1.4,13.8,4.8,15c1.6,0.7,6.7-13,6.7-13s0.3-5.8-1.5-7
			c-1.7-1,3.8-4.8,3.8-4.8l13-9.7c2.4-2,8.9-9.2,8.9-9.2L1046.3,209.3L1046.3,209.3z"/>
		<path id="path906_1_" class="st19" d="M1055.4,201.8c0,0,2,5.6,6.6,4.6s10-5.2,10-5.2s4.3-0.2,4.9,0.5
			c0.6,0.6,11.6,11.2,11.2,14.5c-0.3,3.4-5,2.4-6.8,4.6c-1.7,2.2-4.6,7.8-3.8,12c0.8,4,3.2,9.4,2.9,11.5c-0.3,2-2,2.7-2,3.8
			c0,1,1.4,3,1.4,5c0,2.1-2,5.1-1.6,7.2c0.3,2,0.4,8,0.4,8l-0.4,28c0,0,1.6,0.9,1.7,2.5c0.2,1.5,10.8,47.6,10.8,47.6
			s-0.5,1.5-1.6,1.3s4.3,7.1,4.4,9.2c0.2,2,5.6,18.2,5.4,20.4c-0.1,2.2-1,7.2-1.4,7.3c-0.5,0.2,3.5,10.2,2.8,11.7
			c-0.6,1.6-7,1.5-7,1.5l-1.8-0.4c0,0,0.1,2.1-1.1,2.3c-1.3,0.1-10.6-0.5-10.6-0.5s-2.7,4.1-4.3,4c-1.6-0.2-3.7-3-4.1-2.6
			c-0.5,0.5,1.4,3.2,1,4c-0.6,0.8-8.6,2.5-10.2-1.3c-1.6-3.8,1-2.8,0.4-3.6c-0.4-0.8-4-2.9-5.2-2.3c-1,0.7,2.9,1.6,2.7,3.2
			c-0.1,1.6-3.5,4-4.7,4c-1.3,0-4.3-5.9-8.8-5.3c-4.4,0.7-7.2,1.8-7.2,1.8s-5.3,2.2-7.5,1.7c-2.2-0.4-3.2-2.2-3.2-3.1
			c0-1,1.6-5.1,1.5-6.4c-0.2-1.2-1.5-2.5-1.5-4.4c0-2,3.7-8.4,3.7-8.4l-0.2-29.2c0,0-3.3,0-3.5-2c-0.1-2,5.1-46.1,6-49l2.8-13
			c0,0-2.4,1.2-2.6,0c-0.1-1,7.2-26.2,7.2-26.2s1.2-12.6,1.2-15.9c0-3.3-0.6-7.9-0.6-7.9s-6.5-2.8-6.7-7c-0.6-6.7,6.2-10.4,7-12.6
			l3.2-9C1046.2,208.7,1049.7,202.7,1055.4,201.8L1055.4,201.8z"/>
		<path id="path908_1_" class="st5" d="M1053,403c0,0-15.4,8-17.6,8.7c-2.2,0.6-3.6-2.7-1.4-3.3c2.2-0.7,5.7-1,5.7-1s-5.2-4.1-5-4.3
			l7.2-2.6c0.2,0,2.2,4,3.6,3.8c2-1,3.9-2.1,5.6-3.5L1053,403L1053,403z"/>
		<path id="path910_1_" class="st18" d="M1074.6,407.4c1.5,1.9,2,5.1,5.4,3.2c3.3-1.9-1.7-5.4-1.7-5.4L1074.6,407.4z"/>
		<path id="path912_1_" class="st18" d="M1080.7,407.1c0,0,1.6,1.3,3-0.2c1.4-1.4-2.8-4.4-2.8-4.4l-2.1,2.4L1080.7,407.1z"/>
		<path id="path914_1_" class="st18" d="M1087.5,217c0.2,0,5.2,15.6,5.9,19.6c0.6,4,2.7,19.8,1.9,22c-0.8,2.2-8.9,12.8-9.8,15.5
			c-1,2.7-6.7,13-6.7,13s-1.4,10.2-2,10.6c-0.7,0.5,1.6,3,1.4,3.8c-0.3,1-4.6,5.4-6.5,5c-2-0.5-5-2.7-5-4.8c-0.3-2,0-8.9,1.5-10.6
			c1.4-1.8,8.9-19.3,9.3-20.4c0.5-1.2,6.8-15,7-17.3c0.2-2.4-2-7.9-4.2-9.9C1075.3,228.8,1077.3,220,1087.5,217L1087.5,217z"/>
		<path id="path916_1_" class="st20" d="M1050.2,172.2c0,0,3.6,0.5,5.5-0.6s4.1-1.6,5.7,0.6c1.6,2.2,2.7,2,2.7,2s-2.4,6,0,6.6
			c2.3,0.6,3.5,0.6,3.6,1.4c0.2,0.8-2,2.5-1.4,3.3s1.7,1.7,1.9,2.4c0.1,0.6-1.4,3.3-1,4c0.5,0.6,2,3.1,2.9,3.1c1,0,0.3,4,3.2,3
			c2.8-1,2.7-3.5,2.7-3.5s3-0.4,3.8-3.1c0.7-2.7,2.6-3.4,2.6-3.4s3.8-2-1.2-5.2c0-22.2-14.6-19.8-14.6-19.8s-1.7-4-4.6-3.5
			c-2.8,0.5-3,3.8-5,3.5c-2.1-0.3-2.6-1.7-2.7-1.6c-0.2,0.2-2,3.4-2,4.1c0,0.8-5.5-1-5,3c0.5,4.2,3.2,4,3,3.7H1050.2z"/>
		<g id="g994_1_">
			<path id="path918_1_" class="st21" d="M1076,208c0,0-14.1,9-13.8,12.2"/>
			<path id="path920_1_" class="st21" d="M1079.2,209.6c0,0-3.2,3.5-3.4,3.5"/>
			<path id="path922_1_" class="st21" d="M1083.4,213.4c0,0-7,5.7-5.9,9.3"/>
			<path id="path924_1_" class="st21" d="M1050.5,207.2c0,0-2.1,4.3-1.6,5.7c0.4,1.4,4,6.8,4.4,10.1c0.5,3.4,0,5.7,0,5.7"/>
			<path id="path926_1_" class="st21" d="M1046.8,215.1c0,0,0.6,5,1.6,6s3.5,5.3,3.8,7"/>
			<path id="path928_1_" class="st21" d="M1045.5,236.2c0,0,4.2,2,8-5.9"/>
			<path id="path930_1_" class="st21" d="M1059.6,224.8c-0.1,0-3,7.7,2.1,10.6c5,2.9,8.9,2.5,11,1.7c2.3-0.7,4.7-2.2,4.7-2.2"/>
			<path id="path932_1_" class="st21" d="M1057.4,234.3c0,0,0.3,10.4,15.7,20.7"/>
			<path id="path934_1_" class="st21" d="M1058.1,244.1c0,0-0.2,9.2,5.8,13.3"/>
			<path id="path936_1_" class="st21" d="M1054.9,233.3c0,0-4.6,13.7-8.3,15"/>
			<path id="path938_1_" class="st21" d="M1053.5,243.3c0,0-0.2,9.8-1.5,13.3"/>
			<path id="path940_1_" class="st21" d="M1050.8,259c0,0,3.1,4,6.6,3.6c3.5-0.3,5-4.4,7.3-3.8c2.4,0.7,4.6,2.6,10.1,2.1"/>
			<path id="path942_1_" class="st21" d="M1066.9,265c0,0,0,8.1,1.5,8.9c1.4,0.8,0.7,8.2,0.7,8.2"/>
			<path id="path944_1_" class="st21" d="M1047.6,261.2c0,0-0.2,7.6-1.1,10.3c-1,2.7-2.9,7.3-2.5,11.3"/>
			<path id="path946_1_" class="st21" d="M1037.9,287.2c0.8-0.3,3.5-2.7,3.5-2.7"/>
			<path id="path948_1_" class="st21" d="M1042.8,286.2c0,0-6.8,29.2-4.9,46.6"/>
			<path id="path950_1_" class="st21" d="M1044.4,287.7c0,0-3.5,21.8-1.9,26"/>
			<path id="path952_1_" class="st21" d="M1042.7,287l13.3,1"/>
			<path id="path954_1_" class="st21" d="M1057.9,286.2c0,0,3.6,2,8.7,1.6"/>
			<path id="path956_1_" class="st21" d="M1056.3,296.9c0,0-0.6,37.3-1.6,45.6"/>
			<path id="path958_1_" class="st21" d="M1075.8,305.4c0,0,4.1,32.8,6.5,35.8"/>
			<path id="path960_1_" class="st21" d="M1067.9,309.5c0,0,2.5,29,4,31.6"/>
			<path id="path962_1_" class="st21" d="M1031.9,351.2c0,0,5-1.6,9.4-6.3c5,6.8,12.8,0.3,12.8,0.3s12,8.2,17.4-1
				c8.3,5.4,12.4-0.8,12.4-0.8s3,4.6,5.2,4.1"/>
			<path id="path964_1_" class="st21" d="M1076,350.7c0,0,6.1,29,15.3,37.2"/>
			<path id="path966_1_" class="st21" d="M1044.2,347.7c0,0,0.7,24.2,2.1,41.3"/>
			<path id="path968_1_" class="st21" d="M1043,375.1c0,0-0.8,15.8-1.7,17"/>
			<path id="path970_1_" class="st21" d="M1033.7,393.6c0,0,1.7,6.9,10.4,0.5c8.7-6.3,8.9,2.4,9.2,3.3c0.3,1,1.7,7.8,5,2.1"/>
			<path id="path972_1_" class="st21" d="M1065.3,390.2c0,0-1.4,14,11.1,3.8c12.5-10.3,14.6-0.2,15,3"/>
			<path id="path974_1_" class="st21" d="M1065.5,166.8c0,0-1.1,7,6.3,6.3c-1,3.9,2,5.1,2,5.1"/>
			<path id="path976_1_" class="st21" d="M1079.2,182.5c0.2,0,3.4,2,0,4.6"/>
			<path id="path978_1_" class="st21" d="M1068.5,188c0,0,1.6,2,3.3,1.5c1.8-0.5,4.6,1.7,4.6,1.7s2.4,0.8,2.7,0.3"/>
			<path id="path980_1_" class="st21" d="M1058.8,194c0,0,5.4,2.1,9-6.4"/>
			<path id="path982_1_" class="st21" d="M1048.9,185l3.1,0.2"/>
			<path id="path984_1_" class="st21" d="M1013.7,285l0.3,6.9"/>
			<path id="path986_1_" class="st21" d="M1007.2,284.4c0,0,4.5,7.5,4,11.4"/>
			<path id="path988_1_" class="st22" d="M1049.3,188.2h2.9l-2.5,1.1"/>
			<path id="path990_1_" class="st22" d="M1066.9,300c0,0,3.3-0.4,3.2,5.2c2.1-7,6.4-7.1,6.4-7.1"/>
			<path id="path992_1_" class="st23" d="M1053.3,179.3c0.5,0,2.2-0.6,2.5-0.1C1056.2,179.6,1053.9,180,1053.3,179.3z"/>
		</g>
	</g>
	<g id="g1008_1_">
		<path id="path998_1_" class="st24" d="M1055.5,458.6c41.7-2,81.1-20.2,109.6-50.7c-0.4-0.4,8.9-13.4,16.3-11.6
			c7.4,1.9,18.1,23.7,31.1,28.4c6.5,10.2-1.8,19.5-4.6,21.3c-2.8,1.9-15.4,7-17.2-0.4c-1.9-7.5-5.6-6-5.6-6s-59.5,58-128.2,55.7
			c-71,0.4-129.6-55.8-129.6-55.8l-5.1,5.6c0,0-5.6,6-8.4,5.6c-2.8-0.5-14.9-8.4-15.8-16.3c-1-7.9,7.4-13,7.4-13
			s20.5-15.8,22.8-24.1c4.7-4.7,13.5,3.2,13.5,3.2S995.6,462.3,1055.5,458.6L1055.5,458.6z"/>
		<path id="path1000_1_" class="st25" d="M904.1,422.6c0,0,5.5-1.4,7.5,0.9s16,16,16,16"/>
		<path id="path1002_1_" class="st25" d="M916.7,429.1l-5.6,4.1c0,0,14,2.8,10.8,12"/>
		<path id="path1004_1_" class="st25" d="M1207.5,422.2c0,0-2.7-1.5-7,1.7c-4.4,3.3-15.3,15.5-15.3,15.5"/>
		<path id="path1006_1_" class="st25" d="M1195.1,428.7l6,4.6c0,0-12.5,0.9-9.8,12.7"/>
	</g>
	<g id="g1026_1_">
		<path id="path1010_1_" d="M974.9,437.4c-0.4,1-1.4,0-2.2,0.2c-2,0-3.8,1.4-5.6,2.4l-18.4,10.7c-0.6-0.2-0.5-0.7-0.3-1.2l5-23
			c0.2-1.3,0.6-3-0.7-4c-0.5-0.4,0.3-1.1,0.7-0.4l9.4,6.7c-0.3,0.9-0.9,0.2-1.4-0.1c-1.3-1.3-2.9-0.1-2.8,1.5l-3.4,15.1
			c4.2-2.4,8.4-4.8,12.6-7.4c1.4-0.6,2.5-2.6,1-3.8c-0.6-0.4-1.6-1.3-0.6-1.5L974.9,437.4L974.9,437.4z"/>
		<path id="path1012_1_" d="M981.5,469.4c-0.2,0.6-0.5,0.7-1,0.3l-11-6c0.1-0.7,0.4-0.8,0.9-0.4c1,0.7,2.6,1,3.4-0.2l4-7.3l5.6-10.2
			c0.8-1.3-0.1-2.8-1.3-3.3c-0.4-0.2-1-0.4-0.5-0.8c0.2-0.3,0.8,0.3,1.1,0.4l10.6,5.8c-0.1,0.6-0.4,0.7-0.9,0.3
			c-1-0.7-2.6-1-3.4,0.2l-4,7.3l-5.6,10.2c-0.8,1.2,0.1,2.8,1.3,3.3L981.5,469.4L981.5,469.4z"/>
		<path id="path1014_1_" d="M1024.1,459.4l-3,8.4c-1.3-0.1-0.4-1.7-0.8-2.5c-0.4-3.9-3.2-7.2-7-8.2c-3-0.8-6,0.7-7.8,3.1
			c-2.6,3.6-4.1,7.8-4.4,12.2c-0.2,2.6,1,5,3.2,6.4c1.8,1.1,3.8,1.6,5.9,1.5l2.1-6.3c0.3-1.4-1.2-2.3-2.3-2.6
			c-0.2-0.4,0.2-1,0.7-0.5l11,4c0,1.3-1.6-0.2-2.5,0.4c-1.3,0.5-1.4,2.1-2,3.3l-1.3,3.8c-5,0.3-10-0.7-14.4-3.2
			c-4.1-2.6-7-7.7-6.1-12.7c0.6-4.3,3.3-8.3,7.2-10.2c3.6-2,8-1.9,11.8-0.4c2,0.7,3.8,2,5.4,3.4c1,1.3,2.8,1.3,3.6-0.1L1024.1,459.4
			"/>
		<path id="path1016_1_" d="M1042,488.2c0,0.4,0,0.9-0.6,0.6l-12.6-1.9c0-0.5,0-0.9,0.6-0.6c1,0.2,2.6,0.2,3-1
			c0.6-1.7,0.7-3.5,1-5.2l2.2-14.6c0.3-1,0-2.2-1.1-2.6c-0.7-0.3-1.3-0.3-2-0.5c0-0.4,0-0.8,0.6-0.6l12.6,2c0,0.4,0,0.8-0.6,0.6
			c-1-0.3-2.5-0.2-3,1c-0.6,1.6-0.7,3.4-1,5.1l-2.2,14.6c-0.3,1,0,2.3,1.2,2.7L1042,488.2L1042,488.2z"/>
		<path id="path1018_1_" d="M1076.2,480l-0.5,8.9l-22.6,1.1c-0.1-0.5,0-0.8,0.6-0.7c1.1,0,2.6-0.5,2.8-1.8l-0.3-6.6l-0.7-13.4
			c0.1-1.3-1-2.3-2.3-2.2c-0.4-0.2-1.5,0.4-1.4-0.3c-0.2-0.6,0.7-0.3,1-0.4l12.6-0.7c0,0.6,0,0.9-0.7,0.8c-1.1,0-2.6,0.2-3,1.6
			c-0.1,1.9,0.1,3.8,0.2,5.7l0.7,14c0,1.1,1,2.2,2.2,2c1.8-0.1,3.7,0,5.5-0.5c2.5-0.7,3.8-3.2,4.5-5.5c0.5-0.6,0-2.2,1-2H1076.2"/>
		<path id="path1020_1_" d="M1093.7,458.2c-0.6,0-0.3,0.8-0.5,1.2c-1,7.5-1.9,15-3,22.4c-0.2,1.7-0.6,3.6-2.2,4.4
			c-0.6,0.3-0.1,1.2,0.5,0.7l7.5-2.3c-0.1-1.2-1.6,0-2.4-0.3c-1.7,0-2-2.1-1.7-3.4c0-1,0.2-1.8,0.3-2.7l8.6-2.6
			c1.1,1.4,2.3,2.7,3.3,4.2c0.8,1.4-1,2-2,2.3c-0.6,0-0.2,1,0.3,0.6l11.3-3.4c0-1.3-1.6,0-2.3-1c-2.2-1.5-3.7-3.7-5.4-5.7
			L1093.7,458.2L1093.7,458.2z M1093.7,467.2l6,7.3l-7.3,2.2L1093.7,467.2z"/>
		<path id="path1022_1_" d="M1132.3,441.4l3.3,6c-1,1-1.6-1.1-2.5-1.4c-1.5-1.3-3.8-1.5-5.5-0.5l-2,1.1l9.8,18.3
			c0.5,1.5,2.4,1.8,3.7,1c0.4-0.4,0.9-0.6,1,0.1c-1.6,1-3.5,1.9-5.2,2.8l-6.5,3.5c-0.5-0.5-0.2-0.8,0.4-1c1.2-0.5,1.9-1.8,1.4-3.1
			c-0.1-0.2-0.2-0.4-0.3-0.6l-9.7-18c-1.8,1-4,1.8-4.5,4c-0.5,1.5,0.2,3.2,0.2,4.4c-0.5,0.6-0.7-0.2-1-0.6l-2.7-5.2L1132.3,441.4
			L1132.3,441.4z"/>
		<path id="path1024_1_" d="M1147.6,432.3l6.2,8.3c1.4-1,2.6-2.6,2.2-4.4c0.2-1.4-1.8-3-1.1-4c0.4-0.2,0.7,0.8,1,1.1l7.2,9.5
			c-1,1-1.6-1.1-2.6-1.4c-1.4-1-3.3-1.5-4.8-0.4c-1.1,0.4-1,1-0.3,1.7c1.6,2.1,3.2,4.4,5,6.5c1,1,2.4,0,3.3-0.8
			c2.4-1.6,4.5-4.2,4.4-7.2c0.2-1.4-0.7-2.8-0.7-4c0.6-0.7,0.7,0.4,1,0.8l3.4,6l-17.6,13.3c-0.7-0.5,0-0.9,0.5-1.2
			c1.6-1,1.1-3.1,0-4.2l-11.4-14.9c-1-1.3-2.8-0.6-3.7,0.3c-0.5,0.6-1-0.5-0.3-0.6l16.5-12.5l4.5,6c-1,1-2-1.3-3.1-1.4
			c-2.2-1.2-4.8-0.3-6.6,1.2L1147.6,432.3"/>
	</g>
</g>
</svg>
