<?xml version="1.0" encoding="utf-8"?>
<!-- Generator: Adobe Illustrator 24.0.1, SVG Export Plug-In . SVG Version: 6.00 Build 0)  -->
<svg version="1.1" id="flag-icons-vu" xmlns="http://www.w3.org/2000/svg" xmlns:xlink="http://www.w3.org/1999/xlink" x="0px"
	 y="0px" viewBox="0 0 800 480" style="enable-background:new 0 0 800 480;" xml:space="preserve">
<style type="text/css">
	.st0{fill-rule:evenodd;clip-rule:evenodd;}
	.st1{fill-rule:evenodd;clip-rule:evenodd;fill:#FFFF00;}
	.st2{fill-rule:evenodd;clip-rule:evenodd;fill:#40AA40;}
	.st3{fill-rule:evenodd;clip-rule:evenodd;fill:#CE0000;}
</style>
<g>
	<path class="st0" d="M0,0l325.7,205.7H800v68.6H325.7L0,480V0z"/>
	<path class="st1" d="M0,462.8l332.5-212.5H800v-20.6H332.5L0,17.2V48l312,192L0,432V462.8L0,462.8z"/>
	<path class="st2" d="M0,480l332.5-212.5H800V480H0z"/>
	<path class="st3" d="M0,0l332.5,212.5H800V0H0z"/>
	<path class="st1" d="M89.8,249.9c1.1,0.3,1.5,0.6,2.6-1c0.2-0.9,0.9-2.1,1.6-3.1c0.8-1.4,1.1-1.9,1.9-0.9c0.6,0.7,2.6-0.5,3.4,0.1
		c1.3,0.9,0.6,0.7,1.6-0.2c0.8-1.7,0.1-1.5-0.9-2.2c-0.9-0.6-2.9,0.6-3.8,0c0.3-1.7,0.8-1.9,1.9-2.2c0.8,0.5,2.9-0.4,3.6-0.4
		c0.9,0.2,1.9,0.3,2.2-1.1c0.5-0.9,0.3-0.3-0.2-0.9c-0.8-0.7-2.8,0.5-3.7,0c-0.9-0.8-0.8-1.1-0.2-2.4c0.8-0.5,1.4-0.3,2.4,0.4
		c0.9,0.8,2.6-0.7,3.6-0.8c0.8-0.9,1.8-1.2,1.1-2.3c-0.3-0.9-0.6-0.9-1.7-1.2c-1.1-0.8-2.6,0.7-3.1-0.5c0.9-1.3,1.2-1,2.3-0.3
		c0.8,0.2,2.8-1,3.6-1.1c1-0.3,0.6,0.9,1.3-1.7c-0.3-1.1-2.2,0.7-3.2,0.4c-0.9,0.2-1.9-0.2-1.9-1.3c0-1.4,0.8-1.5,1.8-1.3
		c0.9,0.2,2.9-0.9,3.8-0.9c0.9,0.6,1.4,0.4,2.2-0.9c0.6-1.6-0.1-0.9-1.2-1.9c-0.8-0.5-2.8,0.7-3.7,0.1c0.2-0.6,0.5-1.3,0.9-1.6
		c0.8,0.2,1.5,0.2,2.5,0.8c0.9,0.5,2.6-1.4,3.5-2.1c-0.2-0.9-1.9,0.4-2.8-0.3c-0.6-0.5-1.4-0.9-1.6-1.4c0.6-1.6,0.3-1.5,1.9-0.9
		c0.8-0.3,2.2-0.3,1.2-1.8c-0.2-0.2-0.9-0.2-1.7-0.5c-0.8-0.6-1.6-1.2-2.5-1.4c-0.7-0.1-1.6-0.4-2.1-0.2c0,0.9,0.2,1.5,0.1,2.6
		c0.5,0.7,1.2,0.7,1.4,0.9c-0.8,0.8-1.3,0.4-2.2,0.4c-1.1-0.7-0.5-2.9-1.8-2.4c0.3,0.7,0.2,3.2,0.8,3.8c0.6,0.4,1.3,0.8,1.4,1.2
		c-0.9,1.4-1.2,1.3-2.3,0.7c-0.9-0.6-0.6-2.6-1.4-2.5c-0.9,0.8-0.9,0.7-0.8,1.7c0,1.3-0.5,3.2,0.7,3.9c1.2,0.9,1.4,0.8,0.4,2.5
		c-0.7,0.8-1,0.7-1.9,0.3c-0.8-0.6-0.7-2.8-1.3-3.5c-1.3-0.8-0.6-0.8-1.6,0.2c-0.3,1.2,0,1.5,0.5,2.5c0.4,0.7,0.4,2.8,1.1,3
		c1.1,0.7,1.2,0.6-0.2,1.9c-0.9,0-1.5,0.3-2.2-0.7c-0.9-0.8-0.4-3-1.6-3c-1.1,0.1-1.4,0.1-1.3,1.7c0.3,1.4-0.3,3.6,0.8,4.4
		c1,0.5,1.7,0.4,2.1,1c-0.4,0.3-0.9,1.2-1.3,1.4c-0.8,0-1.5-0.5-2.3-0.7c-0.9-0.5-0.5-1.3-1.3-1.9c-0.9,0.3-0.9-0.9-1.4,0.3
		c0.2,1.1-0.2,2.4,0.9,3.2c0.8,0.5,1.4,1.6,2.3,2.2c0.9,1.1,0.6,1.3,0,2.8c-0.8,0.1-1.7-0.5-2.5-0.9c-0.8-0.7-0.7-2.8-1.5-3.3
		c-0.7-0.8-0.5-1.3-1.6,0.2c0,0.9,0.1,1.1,0.4,1.9c0,0.9-0.2,3,0.8,3.7c0.9,0.2,2.1,0.7,2.8,0.9c0.8,0.9,0.1,0.7-0.8,2.1
		c-0.5,1.3-0.5,1.6-1.3,2.2C89.4,248.3,89.3,248.7,89.8,249.9L89.8,249.9z"/>
	<path class="st1" d="M113.4,251.2c0.7-1.1,1-1.3,0-3.2c-0.8-0.7-1.5-1.9-2.2-2.9c-0.9-1.5-1.2-2.1,0-2.5c0.8-0.3,0.6-2.8,1.4-3.5
		c1.3-1,0.9-0.3,0.5-1.8c-1.3-1.6-1.4-0.8-2.5,0.2c-0.9,0.7-0.7,3.3-1.4,3.9c-1.5-0.9-1.5-1.7-1.4-2.8c0.8-0.7,0.8-3.4,1.1-4
		c0.6-0.9,0.9-1.9-0.2-2.7c-0.8-0.9-0.2-0.4-0.9-0.3c-0.9,0.7-0.7,3.3-1.5,3.9c-1.1,0.8-1.3,0.5-2.2-0.8c-0.1-0.9,0.3-1.6,1.3-2.4
		c1-0.8,0.5-3.1,0.8-4c-0.6-1.3-0.5-2.4-1.7-2.2c-0.9,0-1.1,0.3-1.9,1.4c-1.1,0.9-0.4,3-1.7,3c-0.8-1.5-0.4-1.7,0.8-2.6
		c0.5-0.7,0.2-3.5,0.4-4.2c0.2-1.1,0.9-0.2-1-1.9c-1.1-0.3-0.2,2.4-0.9,3.4c-0.3,1.1-0.9,1.9-1.9,1.5c-1.4-0.6-1.1-1.4-0.6-2.3
		s0.3-3.6,0.7-4.4c0.9-0.9,0.9-1.3,0-2.8c-1.2-1.3-0.9-0.3-2.1,0.6c-0.9,0.7-0.7,3.3-1.5,3.9c-0.5-0.5-0.9-0.9-1-1.7
		c0.5-0.8,0.7-1.5,1.7-2.3c0.8-0.8-0.4-3.3-0.6-4.5c-0.9-0.2-0.4,2.1-1.4,2.8c-0.7,0.5-1.3,1.1-1.9,1.1c-1.2-1.2-1.3-0.9-0.2-2.3
		c0.1-0.9,0.7-2.3-1.1-1.9c-0.3,0-0.5,0.9-1,1.5c-0.9,0.7-1.8,1.2-2.3,2.1c-0.4,0.7-0.9,1.6-0.9,2.2c0.8,0.5,1.4,0.5,2.4,0.9
		c0.8-0.2,1.1-0.9,1.4-1c0.3,1.1-0.2,1.5-0.5,2.4c-1.1,0.9-3-0.7-3,0.9c0.8-0.1,3,0.9,3.8,0.7c0.6-0.5,1.2-1.1,1.7-0.9
		c0.9,1.4,0.8,1.8-0.3,2.6c-0.9,0.8-2.8-0.4-2.9,0.5c0.3,1.3,0.2,1.3,1.2,1.5c1.2,0.5,2.7,1.8,3.8,0.9c1.4-0.9,1.4-1.2,2.5,0.6
		c0.6,1,0.3,1.4-0.5,2.1c-0.8,0.8-2.8-0.4-3.8,0c-1.1,1.1-0.8,0.4-0.4,1.9c0.9,0.8,1.3,0.7,2.5,0.5c0.8-0.2,2.8,0.8,3.2,0
		c1-0.9,0.9-1,1.6,0.9c-0.4,1.1-0.3,1.7-1.5,2.2c-1,0.8-2.8-0.8-3.4,0.5c-0.4,1.3-0.5,1.6,1,2.1c1.4,0.3,3.2,1.7,4.4,0.9
		c0.8-0.9,0.9-1.7,1.8-1.9c0.1,0.6,0.7,1.5,0.7,2c-0.2,0.8-0.9,1.4-1.5,2.3c-0.8,0.8-1.4,0-2.2,0.7c-0.1,1-1.3,0.6-0.3,1.6
		c0.9,0.2,2.2,1.1,3.2,0.4c0.8-0.7,2.2-0.9,2.9-1.6c1.4-0.6,1.4,0,2.6,1.1c-0.3,0.9-1.1,1.6-1.9,2.2c-0.9,0.7-2.8-0.4-3.7,0.3
		c-0.9,0.5-1.3,0-0.5,1.8c0.9,0.5,1.1,0.3,1.9,0.3c0.9,0.5,2.6,1.5,3.7,0.7c0.6-0.9,1.5-1.9,2.1-2.6c1-0.4,0.7,0.2,1.5,1.6
		c1,1.1,1.3,1.2,1.6,2.3C111.7,250.8,112,251.3,113.4,251.2L113.4,251.2z"/>
	<path class="st1" d="M91.9,294.8c0-5-0.8-9.9,0-9.9c43.9,0,54.8-30,54.8-49.9s-15.2-40-43.9-40C70,195,59,214.5,59,234.9
		c-0.2,18.6,14.3,34,32.9,35c21.9,0,27.5-5,43.9-24.9c-5.4,24.9-32.8,34.9-43.9,34.9c-21.9,0-43.9-15-43.9-44.8
		c0-24.9,16.4-49.9,54.8-49.9c32.9,0,54.8,24.9,54.8,49.9C157.7,269.9,130.3,294.8,91.9,294.8z"/>
</g>
</svg>
