<?xml version="1.0" encoding="utf-8"?>
<!-- Generator: Adobe Illustrator 24.0.1, SVG Export Plug-In . SVG Version: 6.00 Build 0)  -->
<svg version="1.1" id="flag-icons-ws" xmlns="http://www.w3.org/2000/svg" xmlns:xlink="http://www.w3.org/1999/xlink" x="0px"
	 y="0px" viewBox="0 0 800 480" style="enable-background:new 0 0 800 480;" xml:space="preserve">
<style type="text/css">
	.st0{fill-rule:evenodd;clip-rule:evenodd;fill:#CE1126;}
	.st1{fill-rule:evenodd;clip-rule:evenodd;fill:#002B7F;}
	.st2{fill:#FFFFFF;}
</style>
<path class="st0" d="M0,0h800v480H0V0z"/>
<path class="st1" d="M0,0h400v240H0V0z"/>
<g>
	<polygon class="st2" points="183.7,63.4 199.7,53 216.4,63.7 211.9,44.3 226.6,30.9 207.5,29.2 200.1,10.5 192.9,29.1 173.5,30.7 
		188.1,43.4 	"/>
	<polygon class="st2" points="133.7,89.9 126.9,71 119.9,90 100.7,91 115.9,103.8 110.6,123.2 127.4,112.2 143.4,123.2 138.4,103.5 
		153.4,91 	"/>
	<polygon class="st2" points="208.3,188.2 199.4,164.2 191.4,187.8 166.9,189.3 185.9,204.5 179.4,229.4 199.2,215.3 219.9,229.3 
		213.3,205.2 232.3,188.9 	"/>
	<polygon class="st2" points="299.3,79.6 281.6,78.6 274.6,61.2 268.2,78.4 249.9,79.9 263.9,91.7 259.6,110 274.6,100 289.9,110 
		285.6,91.9 	"/>
	<polygon class="st2" points="241.2,132 236.4,120.4 231.7,132 219.7,133 228.9,141.3 226.2,153.6 236.5,147 246.9,153.4 244,141.3 
		253.1,133 	"/>
</g>
</svg>
