<?xml version="1.0" encoding="utf-8"?>
<!-- Generator: Adobe Illustrator 24.0.1, SVG Export Plug-In . SVG Version: 6.00 Build 0)  -->
<svg version="1.1" id="flag-icons-xk" xmlns="http://www.w3.org/2000/svg" xmlns:xlink="http://www.w3.org/1999/xlink" x="0px"
	 y="0px" viewBox="0 0 800 480" style="enable-background:new 0 0 800 480;" xml:space="preserve">
<style type="text/css">
	.st0{fill:#244AA5;}
	.st1{fill:#D0A650;}
	.st2{fill:#FFFFFF;}
</style>
<path class="st0" d="M0,0h800v480H0V0z"/>
<path class="st1" d="M333,224.8c0,0,1.2-0.8,1.6-0.9c0.5,0,2-0.6,2-0.6s1-0.5,1.5-0.5c0.6,0,1.6,0.6,2,1.1c0.3,0.5,2,1.4,2,1.4
	s1.2,0.4,1.5,0c0.2-0.4,0.7-0.7,1.3-0.7c0.5,0,0.6-0.5,0.6-0.9s0.2-0.9,0.6-1.4c0.5-0.5,1.3-0.8,1.3-0.8s1.2-0.5,1.3-1.2
	c0.2-0.7,1.3-1.2,2-1.3c0.7,0,0-0.4,1.8-0.2c1.7,0.2,2-0.4,2-0.9c0.1-0.5,0-1,1.1-1c1.1,0.2,1.6,0.2,1.6-0.4c0-0.6,1-1-0.7-1.4
	c-1.8-0.5-1.6-0.1-1.8-1c0-0.7,0-0.6-1.1-0.7c-1.2-0.1-0.6-0.7-0.7-1.3s-0.4-1-0.6-1.3c-0.3-0.4-0.9-0.4-0.9-1s-0.1-1-0.7-1
	c-0.7,0-1,0-1-0.5c0-0.6,0.2-1,0.8-1c0.7,0,1-0.6,1-1.2c-0.2-0.6-0.2-1.9-0.2-1.9l0.9-1c0,0,2.6-2.1,2.8-2.5
	c0.2-0.4,1.1-0.7,1.5,0.1s0.6,1,1,1.4c0.3,0.4,1.3,0.1,1.5-0.3c0.2-0.4,0.3-1.9,0.9-2.7c0.6-0.7,1-1.1,1.1-1.8s0.5-1.2,1.2-1.2
	c0.6,0,1-0.9,1-1.4s0.4-1,1.2-1.2c0.8-0.1,1.3-0.6,1.6,0.2s0.6,0.7,1.1,1c0.6,0.3,1.4,0.6,1.8,0.3c0.5-0.4,0.7-1,1.3-0.7
	c0.6,0.4,1,0,1.2-0.7l0.3-1.9c0,0,0.1-0.5,1.1-0.5s0.3-0.6,0.8-1c0.6-0.4,0.6-0.8,1.3-0.6c0.7,0.3,1.8-0.3,1.3-1
	c-0.6-0.6-1.8-1.6-1.1-2.4c0.7-0.8,1-2,0.3-2.2c-0.7-0.1-1.8,0.1-1.9-0.6c-0.1-0.8-0.4-1.4,0.5-1.5c0.8-0.1,2.2-0.1,2.7-0.5
	c0.4-0.4,1.8-0.7,1.8-1.8c0-1.2,0.4-1.3,0.6-2c0.1-0.6,0.1-2-0.5-2.6c-0.6-0.7-1.4-1.6-1.5-2c-0.2-0.4-0.7-1-1.6-1.3
	c-0.8-0.2-1.6-0.4-1.6-1c0-0.7,0.6,0.1,0.6-1.6c0-1.7-1.1-2-1.1-2l-1.7-1c0,0-3-0.8-3.8-0.8s-1.8-0.8-0.9-1.4c1-0.5,1.2-1.5,0.9-2.2
	c-0.4-0.7-0.6-1.3-1.9-1.6s-1.6-0.6-1-1.4c0.5-0.7,0.7-1.3,1.4-0.7c0.6,0.5,1.8,0.7,2.7,0.3c1-0.4,1.3-0.8,1.8-0.3
	c0.4,0.4,1,0.8,1.7,0.2c0.7-0.7,2-0.8,2.6-0.5c0.5,0.4,2,0.3,2.4,0c0.4-0.2,1.4-1,1.4-1.3s0.6-1.2,1.1-1.5c0.6-0.4,1.3-1.4,1.9-1.4
	s0.8-0.7,0.8-1c0-0.5,0.5-1.4,0.6-1.7c0-0.3,1.2-0.8,2,0c0.9,0.5,2,0.8,2,0.8s1,0.2,1.7,0c0.6-0.4,1.5-0.4,2.1,0
	c0.9,0.6,2,0.6,2,0.6l0.3-1.3c0-0.4,0.2-1.2-0.3-1.5c-0.4-0.3-1-0.7-0.1-1.4c1-0.6,1-0.5,1.9-0.5l2.2,0.1c0.7,0,1.8,0.7,1.8,1.3
	s0.5,1,1,1.4c0.6,0.3,1.3,0.6,1,1.2c-0.1,0.5-0.1,1,0.6,0.8c0.7-0.1,0.9,0.3,0.9,0.9c0,0.5,0.2,0.8,1,1c0.6,0.2,1,0.7,1,1.2
	s-0.2,0.9,0,1.4l1,1.4c0,0,1.3,1.5-0.4,0.7c-1.6-0.7-2-1-2.5-1l-1,0.5l-1.3,0.2c-0.6,0-1.2,1.2-0.2,1.4c0.9,0.2,1.2,0.4,1.2,1.2
	s-0.3,0.5-0.8,1c-0.4,0.6-0.8,0.2-1.6,0.2s-1,0.7-1,1.3s0.3,0.6,0.6,1c0.4,0.6,1,0.7,1.6,0.2c0.5-0.5,1-0.9,1.3,0.1
	c0.4,1,0.9,1,1.5,1c0.7,0,1,0,1.6-0.4c0.5-0.3,1.2,0,1.3,0.9c0.2,0.8,0.7,1,1.3,1.3c0.6,0.3,1,0.5,1,1c0.2,0.6,0.5,0.8,1.1,0.5
	c0.6-0.4,1.5-0.6,1.9-0.1l0.9,1.2v1.1l2.3,0.8l0.2,1c0,0.3,0.4,0.6,1,0.4h1.6c0,0,0.8-0.3,0.8-1c0-0.6,0.3-0.8,1-0.8
	c0.5,0,1.8,0.5,2.1-0.2c0.4-0.6,1.4-0.8,2.2-0.5l3,1.2c0,0-0.3,0,0.4,1.1s2,1.1,2,1.1s0,1,0.3,1.4c0.2,0.4,1.3,0.6,1.8,0.2
	c0.6-0.4,1.4-1,2.1-1s1.2,0,1.2-0.4s-0.7-0.7-0.7-1.4s0.7-0.6,0.8-1.3c0.1-0.6,0.8,0,1.3,0.4s1,0.8,1,1.2c0,0.5,1,2,1.5,2.2
	c0.6,0.2,2.1,0.3,2.6-0.2c0.4-0.6,1.6-0.8,1.5,0.5s-0.4,1.4,0.4,1.8c0.8,0.4,1,2,0.3,2.4s-1,0.5-1,1.2s-0.2,1.6,0.4,2
	c0.6,0.5,1,0.8,1,1.2c0,0.5,0.6,2.4,0.6,2.4s0.4,1.9,0.2,2.3c0,0.5-0.3,1.2,0.7,1.1c1-0.1,1.3-0.1,1.3,0.7s0.4,1.2-0.2,1.5
	c-0.6,0.4-1,1.4-0.4,1.6c0.6,0.2,1,0.6,1.2,1c0.1,0.4,1,1.2,1.6,0.7c0.6-0.4,0.7-0.6,1.2-0.7c0.4-0.1,0.8-0.4,0.3-1
	c-0.4-0.5-0.6-1-0.1-1.4c0.5-0.3,0.7-1.3,0.7-1.3s0.7-1,1.5,0s1,0.6,1.5,0.6s0.8,0.5,0.8,1c0,0.6,1.2,0.5,1.2,1.3l0.2,3
	c0,0,0,1.1,0.7,1.5c0.7,0.5,0.6,0.6,0.2,1c-0.3,0.6-0.2,1.5-0.2,2s0.2,0.5-0.3,1c-0.6,0.4-0.9,1-0.5,1.6c0.3,0.6,0.2,1,1.1,1.8
	c1,0.7,0.9,1,0.9,1.6c0,0.5,0.9,1.3,0.9,1.8s0.7,1.2,1.3,1.3s1.2,1,1.2,1.6l0.1,1.9c0,0,0,0.3,0.6,0.3c0.7,0,1.2,0.8,1.4,0
	c0.2-1,1-1,1.4-1.3s1.4-0.6,1.9-0.3s1,0.3,1.5,0.3l2.6,0.1c0,0,0.6,0,1,0.8c0.3,0.8,1.3,1.8,0.8,2.2c-0.6,0.5-0.6,1.3,0,1.3
	s1.5,0,1.5,0.5c0,0.6,0,1,0.7,0.7c0.5-0.3,0.9-0.4,1.1,0c0.3,0.4,0.7,0.4,1.3,0.7c0.6,0.4,0.8,0.1,1.2-0.3c0.3-0.4,1.7-0.8,1.7-0.8
	s1.8-0.5,2.5-0.3l1.7,0.7c0,0,0.4,1,0.2,1.7c-0.2,0.6-0.5,0.5-0.2,1.5c0.2,1-0.3,1-0.7,1c-0.5-0.2-1-0.2-1,0.7c0,0.8-0.4,1-0.4,1.8
	s0,0.6-0.5,1c-0.4,0.3-0.6,0.8,0.1,1c0.7,0,0.5,0.8,0.5,1.2l-0.1,1.4c0,0,0,0.5-0.7,0.5s-1.5,0-1.6,0.5c-0.2,0.5-1,1.3-0.3,1.9
	c0.8,0.5,0.6,0.8,0.1,1c-0.4,0.3-0.8,1.3,0.2,1.6c0.9,0.4,0.8,0.7,0.2,1.1c-0.6,0.4-1.7,0.8-1.7,1.4s-0.3,0.6-1,0.7
	c-0.7,0.1-1,1-0.2,2c0.8,1.1,1,1,1.6,1s0.6-1,0.6-1l2.5,0.2c0.6,0,1.4,0,1.9-0.3c0.5-0.4,1.7-0.9,1.7,0c0,1,0.3,1,0.8,1.3
	c0.6,0.5,0.7,0.1,1.2,0.8c0.5,0.6,0.6,0,1-0.7c0.3-0.7,1-1.4,1.6-0.6c0.5,0.9,0.5,0.6,1.2,0.6s1,0.4,1,0.9s0.6,0.5,1.5,0.4
	c0.8,0,0.9,0.5,1.2,1s0.5,0.4,1,0.4c0.4,0,0.9,0,1.2-0.4c0.4-0.4,0.8-1,1.3-0.3c0.5,0.6,1.4,0.5,1.6-0.2c0.3-0.8,1.3-1.4,1.9-0.6
	c0.6,0.9,1,0.9,1.6,1c0.6,0,1.4,0,1.7,0.6c0.4,0.6,1.5,1.4,0.7,2c-0.8,0.7-1.7,1.5-1,1.8c0.6,0.2,1.2,0.5,1.6,1
	c0.5,0.4,2,0.7,2.7,0.8c0.7,0,1.2,0.2,2-0.5c0.9-0.6,1.7-0.6,1.6,0.3c-0.1,0.8,0.3,1.8,0.3,1.8s0.6,1.4,0.6,1.9s-0.1,0.6,1,1.3
	c1,0.6,0.8,1,1.7,0.4c0.8-0.6,1-1,1-1.5v-1.7c0,0,1.2-0.2,1.6-0.5c0.5-0.4,2.3-1.3,2.8-0.9s1,0.3,1.5,0.1s1.4-0.2,1.9-0.2
	c0.4,0,1.2,0.1,2.2-0.6c0.9-0.8,0.9-0.6,1.5,0c0.5,0.5,0.5,1.1,0.2,1.6c-0.4,0.4,0,1.3,0.8,1.3s1,0.5,1,1l0.3,1.7c0,0.4,0,0.7,1.4,1
	c1.2,0.3,1,1,1.2,1.6c0.3,0.5,0.3,1-0.4,1s-1,0.3-1,0.8c-0.2,0.5-1.2,0.7-1.2,0.7l-1-0.2c0,0-0.8,0-1.1,0.4c-0.4,0.5-1,1.3-0.6,2
	c0.5,0.8,0.5,1.2,0,1.6c-0.4,0.3-0.7,1.9-1.1,1.6c-0.5-0.4-1,0-1.5,0.3c-0.5,0.2-0.4,1.7,0.5,2.2c1,0.6,1.2,1.3,1.2,1.3l1,1.6
	c0,0-0.3,0.3-0.5,0.9c-0.3,0.5-1,1.6-0.3,1.8c0.7,0.2,0.4,1.4-0.3,1.4c-0.7,0-1.5-0.4-1.6,0.5s-0.5,0.6-1.2,0.5
	c-0.7,0-2.4-0.5-2.9,0.3c-0.5,0.9-0.6,1.2-1.4,1.1c-0.8,0-0.5,1.3-0.2,1.8l1,1.3c0,0,0.7,0.5,0.7,1.6c0,1-0.5,1-1,0.2
	c-0.4-0.7-1.3-0.6-1.4,0.2c-0.1,0.9-0.3,2.2-1,2.2c-0.9,0-1.2,0.2-1.6,0.6c-0.3,0.4-0.9,1.2-0.9,1.6s-0.1,0.9-0.7,1
	c-0.6,0.1-0.7,1.2-0.7,1.2s-1.4,0.3-1.5,0.8c-0.1,0.5,0.1,1.4-1,1.5c-0.9,0.1-1.7,0.6-2.2,1.4c-0.4,0.5-0.5,1,0,1.5s0.8,2.2,1.4,2.5
	c0.5,0.3,1,0.5,0.9,1.3c-0.1,0.9-0.8,1.5,0.1,1.5c1,0,1.5,0.2,1.2,1c-0.4,0.7-0.4,0.8-1,1.1c-0.8,0.4-1.1,0.4-1.1,1.2
	s0.2,0.9-0.4,1.2s-0.6,0.7-0.6,1.4s-0.2,0.4-0.9,1.1c-0.7,0.8-1.6,0.8-2.2,0.6s-0.7-0.2-0.8-0.9c-0.1-0.6-1.1-0.6-1.7-0.5
	c-0.6,0-1.4,0.7-1.4,0.7s-1,0.7-0.6,1.2c0.5,0.5,0.2,1.4-0.6,1.3c-0.8-0.1-2.6,0.8-3.2-0.1c-0.6-1-2.2-1.6-2.5-0.3
	c-0.2,1.2,0.7,1.1,0.6,2.4c0,1.3-0.3,1.3-0.8,1.7c-0.4,0.4-0.4,0.8-0.6,1.3c0,0.5-0.2,1.7,0.6,2.1c0.8,0.5,1.2,1.6,1.2,2.3
	c0,0.6,0,1.3,0.8,1.3s1.5-0.2,1.6-0.9c0.1-0.7,1.7-1.2,1.9,0.3c0,1.5,0,2.3,0.7,2.9c0.5,0.6,1,1.5,1.5,1.8c0.4,0.3,1.2,3,1.2,3
	c-1.1,0.3-1.4,1.8-2.1,2c-0.4,0.2-0.9,0-1.3,0.3c-0.2,0.3-0.2,0.7-0.6,0.8c-0.9,0.4-0.7-0.9-1.8-0.4c-0.9,0.4-1,1.5-2.3,1
	c-0.7-0.2-1.1-3-1.3-3.6l-1.1-1.8c-0.8-1.2-2.3,0-2.8-0.4c-0.8-0.5-0.5-1.4-1.7-1.5c-2.4-0.2-0.7,1.5-1.7,1.8c-2,0.7-2-1.8-3.4-0.6
	c-0.5,0.4,1,0.7,0.6,1.4c-0.3,0.6-1.7,1.6-1.7,2.3c0.2,1,1.2,1.3,1.5,2c1,2.3-0.5,3.8-2.7,2c-1.2-0.9-1.5-2.7-3.3-2.5
	c-0.5,0-0.6,0.4-1,0.5c-0.5,0-0.8-0.4-1.3-0.3c-0.7,0.3,0,0.8-0.2,1.2c0,0-1,0.7-1,1c-0.6,0.6-0.4,1.2-1.2,1.8
	c-0.6,0.5-1.1,0.2-1.8,1c-0.7,0.7-0.8,1.9-1.7,2.6c-0.5,0.4-0.8-1.1-1.4-0.1l-0.2,0.4c-0.2,0.3-0.2,0.4,0,0.7
	c1.2,2.4-1.4,3.2-2.2,4.9c-0.3,0.7,0.6,1.3,0.3,1.9l-1.5,1.7c0,0.2-0.2,0.8-0.4,1c-0.2,0.2-1,0-1,0.4s0.8,0.7,1,0.9
	c0.2,0.3-0.2,0.7,0,0.8c1.2,1.3,0.5,0.9,1.1,2c0.1,0.2,0.5-0.1,0.7,0.3c0.1,0.4-0.4,0.4-0.2,0.8c0,0.2,1,1.4,1,1.4
	c0,0.4-1.8,1.2-2.2,1.2c-1.1,0,1-2.2-0.8-2.2c-0.8,0-0.9,1.7-1,2h-1c-1.2,0-2,1.4-2.4,1.5c-0.3,0.1-1-0.2-1.5,0
	c-0.4,0-1,0.5-1.4,0.5c-0.3,0-0.4-0.2-0.7-0.4c-0.5-0.3-1.5-0.4-2-0.6c-0.4,0-1,0.4-1.2,0.3c-0.3-0.2,0.3-1-0.6-1.4l-0.7-1.7
	c0.3-1,0.6-2,0.5-3.1c-0.2-1.1-2-2-2.4-3c-0.3-0.6-0.6-2.4-1.3-2.8c-0.8-0.6-1.4-1.3-1.8-2.2c0-0.2,0.3-0.6,0-1
	c-0.3-0.3-0.8-0.5-1-1c-0.1-0.4,0-1.8-0.5-2.1c-0.5-0.3-4-0.8-5-0.9c-0.4,0-0.7,0-1-0.3l-0.6-0.7l-1,0.2c-0.3,0-0.8-0.2-1,0
	c-1.1,0.7-1.4,1.7-2.5,2.6c-1.1,0.8-2.3,0.8-3.4,1.7c-0.7,0.6-1.2,2.1-1.9,2.8c-0.3,0.3-0.7,0-0.8,0.1c-0.6,0.7-1.4,1.2-2,1.8
	c-0.1,0.2,0,0.4-0.2,0.5l-1.3,0.4h-1.2c-0.5,0.2-0.5,0.8-2.5,1.2l-0.5,0.3l-0.6,0.5h-0.9c-0.5,0-0.8,0.5-1.2,0.5
	c-1,0.2-2.8-0.5-3.6-0.1c-0.5,0.1-1.8,1.7-2.3,1.8c-0.3,0.1-0.6,0-1-0.1l-0.6,2.2l-2.4,2.1c-0.3,0.3-0.4,0.7-0.8,1
	c-0.2,0.3-0.6,0.5-1,0.5s-1.1-0.4-1.6-0.4c-0.8-0.2-3.3-0.3-4-0.1c-0.9,0.1-0.6,2.4-2.6,2.6l-3.3,0.4c-0.1,0-0.8-0.4-1.5-0.3
	c-0.3,0.1-1.1,1-1.1,1.2v0.5l0.2,0.4c-0.4,0.5-1.4,1.3-1.7,2l-0.4,0.4c-0.2,0.2-1.6,0.7-1.7,0.9c-0.3,0.8,1,1.6,0.8,1.9
	c-0.3,1-1.7,2-2.2,3c-0.1,0.4,0.5,1.7,0.5,2.1c-0.2,1.3-0.6,2.9-0.5,4.1l0.2,1.7l0.7,0.5l1.8,3.6c0.3,2.2-3,1.4-1,3.6
	c0.2,0.4,0.4,0.7,0.8,1l2.8,2.3c0,0.4-2,0.7-2.3,1c-1,1-1.7,2.6-2.6,3.6c-0.6,0.5-1-0.1-1.8,1.3c-0.2,0.5,0,1.6-0.3,2
	c-0.5,0.4-0.8-0.2-1.3,0c-0.2,0-0.3,0.7-0.5,0.8c-0.5,0.5-5.2,3-5.6,2.7c-0.2-0.1-0.5-0.9-0.5-1.1c0-0.3-0.4-0.9-0.6-1
	c-1.2-1-3-1.3-4.2,0c-0.3,0.3-0.3,0.8-0.7,1l-2,1.6L370,402c-0.5,0-1.6-1.3-2-1.7c-0.4-0.6-2-2-2.1-2.7c0-2.4-1.9-4.9-2.6-7.2h1.1
	c1.3-0.9,1-3,3.3-2.2c0.3-0.4,0.3-0.8,0.8-1c0.2-0.2,0.6-0.3,0.7-0.5c0.8-1.2,1.7-5.8,0.9-7c-0.7-1-1.5-1-2-2.7c-0.2-0.5,0-1,0-1.6
	l-1-3.1c-0.2-0.3-0.7-0.5-0.7-0.7l-0.2-3.1c-0.7-2.2-3.4-3.5-3.5-3.8l-1-1.7c-0.4-0.7-0.4-1-0.6-1.6c-0.1-0.3-0.6-0.6-0.6-0.9
	c0-0.6,1.6-1.7,1.5-2.7c0-0.3-1-1.3-0.8-1.8c0.2-0.6,1.2-1.8,1.2-2.5c0-0.8-1.6-2.6-1.8-3.4c-0.1-0.5,0.6-0.8,0.4-1.1
	c-0.2-0.4-1.8-1.9-2-2.3c-0.3-0.3,0.5-0.7,0-1.3c-0.6-0.5-0.1-0.4-0.3-0.8c-0.2-0.5-0.7-1-1-1.5c-0.2-0.5-1.6-5.5-1.5-5.8
	c-0.3-0.3-0.7-0.6-0.9-1l-0.4-1.2c0,0-1.6-0.5-1.9-1c-0.2-0.3-0.3-1.6-0.7-2.2c-0.2-0.3-0.5-0.2-0.7-0.4c-0.2-0.2-0.2-0.5-0.3-0.7
	c-0.5-0.6-1.4,0-2-2.4c-1-0.6-1.7-1-2.4-1.8l-0.4-0.4c-0.6-0.2-1.5-0.3-2-0.7c-0.3,0-1.8,0-2-0.2l-0.4-0.8c-0.8-0.1-2.2,0-2.9-0.6
	c-0.5-0.5-0.6-2.8-1.6-2.5c-0.1,0-0.3,0-0.4,0c-0.7-1-2.9-1-3.8-1.6c-0.2-0.1-1,0-1-0.2l0.1-1.3l-1.1-1.4c-0.9-0.2-0.6-0.3-1-0.6
	c-1.5,0-1.7,0.2-2.6,1c-0.2,0.2-0.7,0.3-1,0.4c-0.5,0.3-0.6,1.2-1.3,0.8l-0.6-0.5c-0.4-0.4-0.6-0.2-0.8-0.8c-1.2-0.7-4.5,1.5-5.2,0
	c-0.6-0.3-1,0-1.5-0.4c-0.2-0.2,0.7-3-1.7-4l1.6-1.1c0.2-0.3,0-0.8,0-1c0-0.5,0.3-1.4,0.2-1.7c0-0.3-0.4-0.6-0.5-1
	c-0.2-0.3,0-0.8-0.2-1.2l-0.8-0.4c-0.6-0.5-1.2-0.8-1.7-1.4l-0.4-0.5c-0.4-0.3-1.8-0.8-1.8-1.4c0-0.2,0.4-0.3,0.4-0.5
	c0.1-0.3,0-0.6,0.3-0.8c0.6-1,2.1-0.5,1.9-2.2c-0.1-0.8-0.7-1.4-0.8-2.2c-0.3-0.2-0.3-0.5-0.5-0.7c-1.5-0.1-1.3-1.6-1.8-2
	c-1.5-1-2.7-0.4-1-2.4c0.2-0.7-1.5-1.8-1.8-2.1c-0.6-0.6-0.3-1.9-0.6-2.5c0-0.3-1.1-0.9-1.4-1.3l-0.5-1v-0.1c0.3-0.3,0.2-0.8,0-1
	c-0.1-0.3-0.6-0.2-0.7-0.4c-1.4-1.2-3-1.8-4.9-2.5c-0.5-0.2-0.3-0.6-0.8-0.8l-3-1.2c-0.2,0-0.4-1.1-0.6-1.5l-0.9-1
	c0-1-0.6-1-1.4-1.6v-0.6l0.6-2.1c0.1-0.4,0.6-0.8,0.5-1.2l-0.4-2.3c-0.8-2-1.7-1.8-1.2-4.5c0-0.6-0.1-0.9,0.3-1.4l0.2-0.3l1.2-0.9
	c0.4-0.6,0.7-1.9,1.2-2.3l1.8-1.2c0.2-0.2,0.4-0.9,0.3-1.2c-0.4-0.2-0.8-0.1-1.2-0.2c-0.2,0-0.7-0.4-1.1-0.4
	c-0.1-0.2-0.3-0.3-0.3-0.5l-0.2-0.2c-0.5,0-1-0.3-1.4-0.5c-0.5-0.2-1.2-0.2-1.7-0.5c-1-0.5-2-2-2.9-2.2c-1.2-0.3-2,0.1-3.2,0.2
	c-0.7,0-0.7-0.4-1.3-0.6c-0.8-0.3-0.2,0.4-2-0.2c-0.3-0.2,0-0.8,0-1h-1c-1.4-0.4-0.9-1.8-1.3-2.7c-0.1-0.2-0.8-0.2-1-0.2
	s-0.2-0.2-0.2-0.2l0.2-0.1c0.2-0.4-0.7-1.4-0.7-1.6c0.1-0.3,2-0.6,2.2-0.6c0.1-0.3-0.1-0.5-0.2-0.7c0-0.5,0.3-1.2,0.5-1.7v-0.2
	c-0.6-0.3-0.7-0.7-1.2-1c0-0.3,0.3-0.4,0.4-0.7c0.9-2.5,2.3-0.5,3.5-2.8c0.1-0.2,0.5-0.7,0.6-1.1h0.2c0.2,0,0.6,0.2,0.8,0
	s0.5-0.2,0.8-0.3h0.5c2.2-0.4,1.7-1.2,3-2.1c0.4-0.3,1.4-0.4,1.8-0.6c0.5,0.3,1.2,1,2.1,1.4c0.7,0.2,3,0.7,3.4,1
	c0.5,0.2,0.6,0.8,1,1c1.3,0.8,0.5-0.4,1.8-0.2c1.3,0.3,2.3,1.4,3.5,1.9l1-0.1c0.3-0.1,2.3-0.5,2.5-0.4l0.8,0.3
	c0.3,0.1,0.5-0.5,0.8-0.5c0.8,0.2,0.8,0.5,2,0.4c0,0,0.6-3.3,1.2-3.4c0.3-0.1,1.2,0.7,1.4,0.8c0.4,0.1,0-0.7,0-0.7
	c-0.2-0.3-0.8-2.3-0.7-2.5c0,0,0.5,0.2,0.8,0.1c0.6-0.2,1.5-0.4,2-0.9l1-1.5c0.1-0.2-0.2-0.8,0-1l0.9-0.6c0.4-0.4,0.4-1,1-1.3
	c2-0.2,2.7-1.8,4.6-2h0.6l0.4,0.6c0,0.1,1.3,0.9,1.5,0.8c0.2,0,0.3-0.3,0.5-0.4c0.3,0.1,1.4-0.5,1.5-0.9c0,0-0.2-0.3-0.1-0.6
	c0.5-0.4,1-0.8,1.6-1.2h1.4c0.2,0.2,0.2,0.6,0.5,0.6h1.2C332.5,225.3,332.6,224.8,333,224.8L333,224.8z"/>
<g>
	<polygon class="st2" points="438,92.3 431.9,73.4 431.8,73.4 425.7,92.3 405.8,92.3 421.9,104 415.8,123 431.9,111.3 448,123 
		441.8,104 458,92.3 	"/>
	<path class="st2" d="M500.8,103.4l-6.1-18.9c0,0-3.3,10-6.2,18.9h-19.9l16.1,11.7c-2.9,9-6.2,19-6.2,19l16.1-11.7l16.1,11.7
		l-6.1-19l16.1-11.7H500.8z"/>
	<polygon class="st2" points="564.5,137 580.6,125.2 560.7,125.2 554.6,106.3 554.6,106.4 548.5,125.2 528.5,125.2 544.6,137 
		538.4,156 554.6,144.2 570.6,155.9 	"/>
	<polygon class="st2" points="374.3,92.3 368.2,73.4 368.1,73.4 362,92.3 342,92.3 358.2,104 352,123 368.1,111.3 384.2,123 
		378.1,104 394.2,92.3 	"/>
	<polygon class="st2" points="311.5,103.4 305.3,84.5 299.2,103.4 279.3,103.4 295.4,115.1 289.3,134.1 305.4,122.4 321.5,134.1 
		315.3,115.1 331.4,103.4 	"/>
	<path class="st2" d="M251.9,125.2l-6.2-18.9c0,0-3.2,10-6.1,18.9h-19.9l16.1,11.7c-2.9,9-6.2,19-6.2,19l16.2-11.7l16.2,11.7
		l-6.2-19l16.1-11.7H251.9z"/>
</g>
</svg>
