<?xml version="1.0" encoding="utf-8"?>
<!-- Generator: Adobe Illustrator 24.0.1, SVG Export Plug-In . SVG Version: 6.00 Build 0)  -->
<svg version="1.1" id="flag-icons-za" xmlns="http://www.w3.org/2000/svg" xmlns:xlink="http://www.w3.org/1999/xlink" x="0px"
	 y="0px" viewBox="0 0 800 480" style="enable-background:new 0 0 800 480;" xml:space="preserve">
<style type="text/css">
	.st0{fill-rule:evenodd;clip-rule:evenodd;}
	.st1{fill-rule:evenodd;clip-rule:evenodd;fill:#0000CC;}
	.st2{fill-rule:evenodd;clip-rule:evenodd;fill:#FF0000;}
	.st3{fill-rule:evenodd;clip-rule:evenodd;fill:#FFCC00;}
	.st4{fill-rule:evenodd;clip-rule:evenodd;fill:#009933;}
	.st5{fill-rule:evenodd;clip-rule:evenodd;fill:#FFFFFF;}
</style>
<g transform="translate(67.4) scale(.93748)">
	<g>
		<path class="st0" d="M-71.8,407.8V104.4l251,151.7L-71.9,407.8H-71.8z"/>
		<path class="st1" d="M99.4,512.1l281.7-170.6h400.2V512H99.4V512.1z"/>
		<path class="st2" d="M81.4,0h699.9v170.8H381.1C381.1,170.8,85.1-1.7,81.4,0z"/>
		<path class="st3" d="M-71.8,64v40.4l251,151.6L-71.9,407.8v40.3l316.1-192L-71.9,64H-71.8z"/>
		<path class="st4" d="M-71.8,64V0H33.8l334.6,204h413.1v104.2H368.4L33.6,512H-71.8v-63.9l316-192L-71.7,64H-71.8z"/>
		<path class="st5" d="M33.6,0h65.8l281.7,170.7h400.2V204h-413L33.6,0L33.6,0z M33.6,512.1h65.8l281.7-170.6h400.2v-33.2h-413
			L33.6,512V512.1z"/>
	</g>
</g>
</svg>
