<?xml version="1.0" encoding="utf-8"?>
<!-- Generator: Adobe Illustrator 24.0.1, SVG Export Plug-In . SVG Version: 6.00 Build 0)  -->
<svg version="1.1" id="flag-icons-zm" xmlns="http://www.w3.org/2000/svg" xmlns:xlink="http://www.w3.org/1999/xlink" x="0px"
	 y="0px" viewBox="0 0 800 480" style="enable-background:new 0 0 800 480;" xml:space="preserve">
<style type="text/css">
	.st0{fill-rule:evenodd;clip-rule:evenodd;fill:#198A00;}
	.st1{fill-rule:evenodd;clip-rule:evenodd;fill:#EF7D00;}
	.st2{fill-rule:evenodd;clip-rule:evenodd;}
	.st3{fill-rule:evenodd;clip-rule:evenodd;fill:#DE2010;}
	
		.st4{fill-rule:evenodd;clip-rule:evenodd;fill:#EF7D00;stroke:#000000;stroke-width:1.038;stroke-linejoin:round;stroke-miterlimit:3.75;}
	
		.st5{fill-rule:evenodd;clip-rule:evenodd;fill:#EF7D00;stroke:#000000;stroke-width:1.038;stroke-linecap:round;stroke-linejoin:round;stroke-miterlimit:3.75;}
	
		.st6{fill-rule:evenodd;clip-rule:evenodd;fill:#EF7D00;stroke:#000000;stroke-width:1.1418;stroke-linecap:round;stroke-linejoin:round;stroke-miterlimit:3.75;}
	
		.st7{fill-rule:evenodd;clip-rule:evenodd;fill:#EF7D00;stroke:#000000;stroke-width:1.1418;stroke-linecap:round;stroke-miterlimit:3.75;}
	.st8{fill-rule:evenodd;clip-rule:evenodd;fill:#EF7D00;stroke:#000000;stroke-width:1.1418;stroke-miterlimit:3.75;}
	
		.st9{fill-rule:evenodd;clip-rule:evenodd;fill:#EF7D00;stroke:#000000;stroke-width:1.1418;stroke-linejoin:round;stroke-miterlimit:3.75;}
</style>
<path class="st0" d="M0,0h800v480H0V0z"/>
<path class="st1" d="M706.1,172.5H800V480h-93.9V172.5z"/>
<path class="st2" d="M612.4,172.3h93.7v307.5h-93.7V172.3z"/>
<path class="st3" d="M516.6,172.5h95.7V480h-95.8L516.6,172.5z"/>
<g>
	<path class="st4" d="M737.6,52.3c0,0,35.3-15.1,38.6-18.2c1.6,1.9-14.1,20.8-44.5,27.7c27.6-6.4,51.2-27,56.1-26.4
		c1.3,0.3,1,20-62.3,37.2c43.8-11.4,69.2-32.6,68.9-30.3c0.3,0.5-4.4,16.6-42.7,29.2c10.7-2.5,39.8-20.1,39.4-16.7
		c0.9,1.3-28,38.6-80.5,26.5c41.9,10.9,69-15.4,72.9-14.8c0.8,0.1-7.7,22.8-60.4,24.3c25.2-2.6,18-0.1,18-0.1s-14.8,11.6-32.9,3.7
		c14.1,3.8,15.7,4,16,5.2c-0.9,1.7-12.5,3.9-23.8-2.1c9,3.7,17.1,4.4,17.2,5.7c-0.1,0.4-5.8,3.7-11,1.3
		c-5.1-2.3-52.2-31.2-52.2-31.2l80.3-22.1l2.9,1L737.6,52.3z M643.1,130.8c-7.1,0-7.3,6.2-7.3,6.2s-0.5,0.5-0.2,3.5l1.8-2.7
		c0.8,0.1,4,1,9.1-2.9c-4.7,4.9-1.9,6.6-1.9,6.6s-1,3.8,2.5,4.6c-1-1.6-0.4-2.9-0.4-2.9s5-0.5,4.7-6.5c0.1,5.5,3.1,6.9,3.1,6.9
		s0,3,3.2,3.3c-1.7-1.6-1.3-3.9-1.3-3.9s4.2-3.1,0.7-8.3c2.1-1.2,3.8-4.7,3.8-4.7s-2.9-1.2-4.3-2.3c-0.6-1.3,0-8.8,0-8.8l-1.9-9.7
		l-5,15.1C650.1,122.2,650.2,130.8,643.1,130.8L643.1,130.8z"/>
	<path class="st4" d="M678,109.1c0.2,0.1,5.3,5.8,10.3,5.5c1.9-1.6-3.8-4.9-3.8-5.7c2.1,1.9,10.5,9.1,16,6.5
		c2.1-3.1-3.9-2.6-10.6-11c4.7,3.1,16.3,9.9,21.8,7.3c2.2-2.5-12.1-10.3-17-16.3l-12.5-6.3l-16.8,13.8l12.8,6.2L678,109.1z"/>
	<path class="st5" d="M659,61.9c0,0,5.7-3.3,28.6-1.7c2.5,0.3,15.6-4.5,19.8-5.9c6.6-1.2,28-5.8,33.6-10.2c4.2-0.5-1,7.4-6.2,9.3
		c-5.4,2.4-25,9.2-32.1,8.3c8.4,0.1,3.7,7-10.2,3.7c6.6,3.7,4.2,4.4,4.2,4.4s-11.7,0.6-14.8-2.1c7.9,3,4.6,4.2,4.6,4.2
		s-8,0.7-11.7-1c5.7,1.8,2.8,2.8,2.8,2.8s-4.7,0.8-8.5-0.6C665.1,71.8,659.3,62,659,62V61.9z"/>
	<path class="st4" d="M668.2,112.3l0.8,15.2l-0.8,1.2c-0.3,0.4-10.7-1.7-9.3,6.2c0,3.3,0,4.2,2.3,5.9c-0.5-2.1-0.4-3.6-0.4-3.6
		s3,1.8,5.8-3.1c-2,4.8-0.6,6.5-0.1,6.6c0.4,0.8-0.8,4.7,3.1,4.6c-1.6-1.5-0.8-3.5-0.8-3.5s4.2-0.6,2.7-8c1.5-1.5,2.1,0,2.1,0
		s0.4,4.4,4,3.4c1.6,0.9-0.3,3.3-0.3,3.3s2.6,0,3.4-2.1c0.7-2.3,1.7-6.2-2.6-7.9c-0.5-1.6,1.7-1.7,1.7-1.7s2.7,0.9,3.5,2.3
		c0.8,1.3,0.5-3.5-2.9-4.2c-4.2,0-4.4-0.9-4.4-1l-1-14.2L668.2,112.3L668.2,112.3z"/>
	<path class="st6" d="M682.6,125.2c0-0.7-7.1-10.3-5.2-11.4c1.8,0.3,4.7,4.7,7.2,3.2c-0.7-1.7-2.9-0.7-5.3-5.1
		c-2.5-5-2.8-12.4-11.4-20.3c5.6,8.5,18.1,13.5,18.7,11S675.4,90.8,676,88.5c2.3,4.6,13.9,14.9,22.4,14.1c0.6-2.1-7-6-8.9-9.8
		c-5.5-3.7-20.1-16.3-20.3-19.2c-2.6-4.4-6.1-8.1-10.3-11c-0.4-0.5-0.7-1.1-0.8-1.8c-3.3-7.8,1-10.4,3.6-10.7c2.1-0.3,2.7,0,4.2-0.7
		l-5.3-2.1c2.4,1.8,8.3,0.2,7.1,5.2c2.6-1,8.2-7.7-6.3-9.1c-4.8-5.4-24.2-8.5-29.1,15.2c0.4,0.3,0.6,0.6,1.9,1.5
		c-6.2-2.9-22.7-5.2-28.6-6.2C589.3,49.2,572.6,38,571,39.4c-2.1,1,9.8,12,9.1,12.2c-9.2-5.3-18.8-10-28.5-14.1
		c-6.2-2.3-12.4-7.7-13-6.6c-2.3,4.7,9.9,16.5,12.1,17.9s20,9.7,19.7,9.8c-26.8-12.1-31.1-14.4-32.6-15.8c-2.4-0.5-8.1-8.3-9.7-7.8
		c-0.9,0.8,0.8,13.1,13.6,18.7c2.1,1.5,27.4,10.5,27.2,11.2c0,0.2-29.1-11.9-30.1-12.5c-5.6-2.1-12.5-9.8-13.7-8.9s3.1,9.1,8.7,11.7
		c3,1.2,14.3,6.9,24.5,10.4c0.6,0.3-18.4-7.2-27.5-10.9c-4.2-2.3-6-5.2-6.6-4.6c-1,0.6,1.5,12.9,30.8,19.7c0.7,0.4,10.4-2.2,9.9-1.9
		c-5.4,1.4-10.9,2.3-16.4,2.9c-0.3,0.8,1.9,5.2,17,4.4c1.9-0.1,12.5-3.8,11.5-3.1c-5,1.9-10.2,3.6-15.4,5.1c-0.9,0-5.8,0.6-6,1
		c-0.2,0.8,3.6,3.9,11.7,4.4c7.3,0.4,21-4.4,20.8-4c-0.4,0.3-13.3,4.8-13.6,5c-0.5,0.3-5.2,0.5-5.4,0.9c-0.4,0.9,6.9,7.7,28.1,0.4
		c-2.1,2.9-12.5,4.9-12.5,5.4c0,0.4,2.3,2.6,5.9,3.4c1.8,0.4,4.3,0.3,6.5,0c4.2-0.8,8.3-2.4,13.8-7.5c0.6,1.6-13.6,8.8-13,9.4
		c3.1,2.9,13.4-0.3,14-0.7c0.7-0.3,19.7-11.1,19.7-12.5c0.3,1.7-24.6,15.3-24.3,15.8c1.6,2.5,10.1-0.1,10.4-0.4l11.2-6
		c0.3-0.1-12.2,7.3-11.2,8.5c-0.5,4.9,19.7-3.3,21.3-4.4c0.7-0.5-9.8,4.6-9.8,7c3.4,5.7,14.2,3.9,15.9,2.7c0.8-0.6-1,4.2-0.4,3.7
		c1.3-1.3,2.3-2.8,3.1-4.5c-0.2,1.7-1.5,4.2-2.1,7.1c-0.7,2.8-0.9,6.1-1.9,9.5c-0.2,1.5,6.6-3,5.6-13.7c0.6,5.6-2.1,16-1.3,16.6
		c1.3,1,5.4-5.2,5.8-9.4c1.1,2.1,3.6,6.5,5.8,7.6c-0.2-3.2,0-3.1-1-6.2c0.6-4.3,0.7-10.1,0.8-16.7c5.8,11.1,8.2,15.9,6.5,24.4
		c1.8,0.7,4.5-6,4.3-9.3C672,120.3,676.8,124.6,682.6,125.2L682.6,125.2z"/>
	<path class="st6" d="M585.8,54.5c0,0-4,3-8.9,2.8c1.2,5,11.4,1.1,11.4,1.1s-4.9,5.5-8.4,6.3c2.1,1.8,11,1.1,12.5,0.3
		c1.5-0.9,4.2-4.4,4.2-4.4s-9.1,10.6-10.4,10.5c-0.3,1.2,9.4,0.8,11.4-1c2.1-1.9,7.3-4.6,7.3-4.6s-13.5,9.3-14,9.3
		c5,1.2,15.1-1.7,21.5-5.6c-9.5,6.3-10.4,7.5-15.3,9.7c4.4,0.9,6.5,3.8,21.1-2.5c8.3-3.9,13.1-11.2,13.1-11.2
		c-6.3,7.5-13.9,13.8-22.4,18.7c-0.5,1,9.8,5.4,22.7-8.2"/>
	<path class="st7" d="M656.4,83.9c0,0,0.9,4.2,4.5,7.3c3.5,3.1,3.7,6.2,3.7,6.2 M654.8,56.9c0,0,1.1,3.8,4.8,6.2
		c3.7,2.3,9.3,9.8,9.7,11.1c0.4,1.6,2.6,13.1,2.4,14.3 M632.3,62.6c0.2,1.6-5.2,8.6,2.3,17c-6.9,8.3-6.9,9.3-6.9,9.3
		s3.8,2.1,10.6-3.7c11.2,13.7,7.5,19.9,7.5,19.9"/>
	<path class="st6" d="M644.9,95.5c0,0-1-1.5,0.8-7c1.7,2.1,3.5,2.4,4.3,3.1c0.8,0.9,9.3,2.1,9.8,7.8"/>
	<path class="st8" d="M654.9,43.9c0-0.4-1.8-4.2-8.1,0.4C650.2,44.6,653.5,46.5,654.9,43.9z"/>
	<path class="st9" d="M715.3,60.5c0.3,0.2,18.9,4.2,25.1,2.2c-7.9,10.6-23.8,3.4-23.8,3.4c7.8,2.3,8.1,2.1,10.6,4.4
		c0.8,2.1-14.3,1-19.2-1.8c13.8,4.4,14.1,4.2,14.5,5.7c0.6,2.4-22.6-0.6-24.6-3.6c6.2,4.8,9.5,5.7,13,7.9
		c-4.2,1.9-11.9,3.7-26.2-6.3c18.7,17,35.6,16,38.3,19c-6.5,9.7-31.9-5.7-43.5-13.5c-11.6-7.8,25.4,18.8,28.9,18.4
		c-1.7,2.6-13.9,0.3-14.7-1"/>
	<path class="st7" d="M720.1,78.4c-2.1,0.3-8.6,0.3-9.5,0.1"/>
	<path class="st6" d="M580.3,51.7c0,0,14.1,7.5,20.1,7c-1.1,1-2.5,1.7-3.9,2.1c1.5,0.6,5.6,2.8,11.8,1.5l-3.4,3.1
		c0,0,5.4,2.1,11.4-1c-1,1.2-2,2.5-2.9,3.8l4.3,0.3"/>
</g>
</svg>
