<?xml version="1.0" encoding="utf-8"?>
<!-- Generator: Adobe Illustrator 24.0.1, SVG Export Plug-In . SVG Version: 6.00 Build 0)  -->
<svg version="1.1" id="flag-icons-zw" xmlns="http://www.w3.org/2000/svg" xmlns:xlink="http://www.w3.org/1999/xlink" x="0px"
	 y="0px" viewBox="0 0 800 480" style="enable-background:new 0 0 800 480;" xml:space="preserve">
<style type="text/css">
	.st0{fill:#006400;}
	.st1{fill:#FFD200;}
	.st2{fill:#D40000;}
	.st3{fill:#FFFFFF;}
	.st4{fill:#FFCC00;}
</style>
<path class="st0" d="M0-0.1h800v479.9H0V-0.1z"/>
<path class="st1" d="M0,68.5h800v342.8H0V68.5z"/>
<path class="st2" d="M0,137h800v205.7H0V137z"/>
<path d="M0,205.6h800v68.6H0V205.6z"/>
<polygon points="0,479.8 18.2,479.8 370,239.8 18.2,-0.1 0,-0.1 "/>
<path class="st3" d="M0,0.1v479.9L351.8,240L0,0.1z"/>
<polygon class="st2" points="165,239.7 230.1,193.7 149.7,193.7 124.8,119.2 100,193.7 19.7,193.7 84.6,239.7 59.8,314.2 
	124.9,268.2 189.9,314.2 "/>
<path class="st4" d="M97.1,289.8l11.5-2.1l21.2-0.8l7.9,0.7l17.6,2.9l1.3-1.7v-12.3l2.1-10.6l3.5-10.7l3.9-8.6l4.9-8.9l8,1.9h2.1
	l0.2-1.5L164.3,224l-17.6-13.1l-25.4-18.5l-2.3-0.6l-2.7-19.4l-2-5.8l-2.7-2.3l-5-1.6l-5.6,0.2l-2.6,1.4l-5.4,1.1l-2.8,0.5l-1.9,2.2
	l-0.2,2.7l7.9,0.2l2,0.8l-0.2,0.8l-4.5,0.6l-2.1,0.7l2.5,1.8l2.6,0.9l3.3,1.1l0.7,2.3l0.2,29.5l-1.8,4.6l-0.6,8.6l2.6,10.3l-6.6,7.3
	l-3.8,6.5l-0.7,4l-2,4l-0.2,2.5l1.3,2.7l5,16.2l2.6,13.4L97.1,289.8z"/>
<path d="M103.2,162.1c-2.1,0-3,0.2-5,1.3c-1.7,0.9-3.5,1.5-5.4,1.6c-2.9,0-5.3,2.1-5.3,4.7v1.7l4.2-0.1c12.4,0.3,1.2,1.5,0.2,1.6
	c-3,0.6,0.7,3,4.3,4.2c3.9,1.1,3.6,0.5,3.6,17.1c0,13.6,0,15.5-1.2,18.6c-1.5,4.6-1.5,11.4,0,16c0.7,1.8,1.2,3.4,1.2,3.8
	c0,0.2-1.9,2.4-4.1,4.9c-4.1,4.6-6.6,9.3-6.6,12.6c-0.1,1.1-0.5,2.1-1.2,3c-1.5,1.9-1.5,5.3-0.1,6.5c1.5,1.4,7.7,24.9,7.9,29.4
	c0,1.6,0.2,1.6,9.7-0.2c7.7-1.5,25.9-1.8,35.2-0.7c4.2,0.6,9.1,1.5,10.9,1.8c5.6,1.5,5.4,1.7,5.4-4.9c0-10.4,2.1-20.8,6-30.5
	c2.2-5.5,4.9-10.9,8.1-16c0,0,2.1,0.2,4.7,0.9c4.8,1.1,6.2,1,6.2-1.1c0-1.1-5-5.3-29.8-24c-10-8-20.3-15.5-30.8-22.7
	c-0.7,0-1.4-0.3-1.5-0.8l-1.8-10.9c-0.8-5.6-2-11.1-2.5-12.2c-1.6-3.4-4.8-5.1-10.1-5.5C104.7,162.1,103.9,162.1,103.2,162.1
	L103.2,162.1z M103.3,163.3h2.3c7.7,0.5,9.1,2.5,11.3,16c0.6,3.6,1,7.1,1.4,10.7c0,0.9-1.1,2.1-3.8,3.8c-4.4,3-8.4,6.7-11.7,10.9
	l-1.5,2.1l-0.4-4.8v-13.5c0.4-9.9,0-10.9-3.3-12c-2.7-0.9-6.2-1.8-5.3-2.4c1.2-0.7,2.3-0.2,5.2-1c1.2-0.2,1.1-0.1,0.8-1
	c-0.2-1.5-1.9-2.3-6.2-2.1c-3.5,0.2-3.9,0.1-3.6-0.8c0.5-1.8,2.3-3,5.3-3.3c1.8-0.2,3.5-0.7,5.2-1.5c1.3-0.8,2.8-1.2,4.3-1.1
	L103.3,163.3z M120.7,192.8h0.5c2,0.3,59.5,44.2,59.5,45.5c0,0.5-0.5,0.8-1.2,0.8c-0.5,0-15.1-4-32.5-8.9
	c-27.7-8-31.6-9.1-32.8-10.6c-1.7-2.1-1.7-5-0.1-7.1c0.6-0.7,1-1.4,1.2-2.3c0-1.4-2.9,2.1-3.5,4c-0.6,2.3,0.6,6.2,2.3,7.4
	c0.7,0.6,6,2.3,11.7,4c9.8,2.7,10.5,3.1,11,4.7c1.2,3.8-2.9,8.2-8.8,9.5c-2.2,0.5-4.3,1.4-6.1,2.7c-6.1,4.9-12.9,8.9-20.2,11.9
	c-0.5,0.3-1.1,2.2-1.4,3.9c-0.7,3.8-0.9,4.3-2.1,4.3c-0.6,0-0.7-0.3-0.2-1.6c0.8-2.3,0.7-5-0.1-5c-0.6,0-0.8,0.8-0.8,2.1
	c0,1.1-0.4,2.5-0.8,2.9c-0.6,0.7-0.7,0.2-0.5-2.6c0.2-1.9,0.1-3.4-0.1-3.4c-0.6,0-1.6,2.9-2,5.4c-0.2,1.5-0.2,1.5-0.7-0.3
	c-0.4-1.4-0.2-2.3,0.8-4c0.7-1.2,1.1-2.6,1.2-4c0-1.5,1.2-3,6.7-8.3c3.5-3.5,7.9-8,9.4-9.9c2.7-3.2,2.8-3.4,2.7-6.7
	c0-1.8-0.2-3.5-0.5-3.8c-0.7-0.7-1.6,3-1.2,4.9c0.2,1.8,0,2.4-3.9,6.9c-2.8,3.1-5.7,6.1-8.8,8.9c-4.6,4.1-6.2,6.4-6.2,8.5
	c0,0.7-0.5,2.3-1.2,3.8c-0.7,1.5-0.9,3-0.7,3.3c0.2,0.3,0,0.3-0.4,0c-0.6-0.6-0.6-1.5-0.1-3.4c0.3-1,0.3-2,0.2-3
	c-0.6-1.1-1.4,0.2-1.8,3.1c-0.2,1.6-0.6,2.9-0.9,2.6c-0.8-0.5-0.6-3.4,0.5-5c0.6-0.8,1.2-2.6,1.5-4.1c0.8-4.2,2.7-7.7,6.8-12.2
	c1.3-1.4,2.6-2.8,3.8-4.3l-1.2-3.8c-1.6-5.1-1.7-10.5-0.2-15.7c1.5-4.3,4.6-8.7,9.4-13.4C113.7,195.6,118.3,192.9,120.7,192.8
	L120.7,192.8z M138.3,229.6c0.6,0,1.1,0.2,1.2,0.6c0,0,0,0.1,0,0.1c-0.2,0.4-0.8,0.5-1.3,0.4c-0.3-0.1-0.5-0.2-0.6-0.4
	C137.5,229.9,137.8,229.6,138.3,229.6z M141.3,229.9c0.6,0,1.1,0.2,1.2,0.6c0,0,0,0.1,0,0.1c-0.2,0.4-0.8,0.5-1.3,0.4
	c-0.3-0.1-0.5-0.2-0.6-0.4C140.4,230.3,140.8,230,141.3,229.9z M144.3,230.5c0.6,0,1.1,0.2,1.2,0.6c0,0,0,0.1,0,0.1
	c-0.2,0.4-0.8,0.5-1.3,0.4c-0.3-0.1-0.5-0.2-0.6-0.4C143.5,230.8,143.8,230.5,144.3,230.5z M147.1,231c0.6,0,1.1,0.2,1.2,0.6
	c0,0,0,0.1,0,0.1c-0.2,0.4-0.8,0.5-1.3,0.4c-0.3-0.1-0.5-0.2-0.6-0.4C146.3,231.4,146.6,231.1,147.1,231z M139.7,231.7
	c0.6,0,1.1,0.2,1.2,0.6c0,0,0,0.1,0,0.1c-0.2,0.4-0.8,0.5-1.3,0.4c-0.3-0.1-0.5-0.2-0.6-0.4C138.9,232.1,139.2,231.8,139.7,231.7z
	 M142.5,232.2c0.6,0,1.1,0.2,1.2,0.6c0,0,0,0.1,0,0.1c-0.2,0.4-0.8,0.5-1.3,0.4c-0.3-0.1-0.5-0.2-0.6-0.4
	C141.7,232.5,142,232.3,142.5,232.2z M148.6,232.4c0.6,0,1.1,0.2,1.2,0.6c0,0,0,0.1,0,0.1c-0.2,0.4-0.8,0.5-1.3,0.4
	c-0.3-0.1-0.5-0.2-0.6-0.4C147.8,232.8,148.1,232.5,148.6,232.4z M145.5,232.4c0.6,0,1.1,0.2,1.2,0.6c0,0,0,0.1,0,0.1
	c-0.2,0.4-0.8,0.5-1.3,0.4c-0.3-0.1-0.5-0.2-0.6-0.4C144.6,232.8,145,232.5,145.5,232.4z M151.3,233.1c0.1,0,4.3,0.9,9.4,2.3
	l9.3,2.6l-1.8,3.1c-1,1.7-1.9,3.3-2.8,5c-1.2,2.3-1.4,2.3-7,1c-6.1-1.4-15.7-2.6-25.6-3.4l-9.4-0.8l3.5-1.3c2.1-0.8,4.2-1.7,6.2-2.7
	c2.3-1.3,3.3-1.5,6.9-1.1c5.3,0.3,8.8-0.7,10.2-2.7l1.2-1.9H151.3z M141,233.8c0.6,0,1.1,0.2,1.2,0.6c0,0,0,0.1,0,0.1
	c-0.2,0.4-0.8,0.5-1.3,0.4c-0.3-0.1-0.5-0.2-0.6-0.4C140.2,234.1,140.5,233.9,141,233.8z M147.6,233.8c0.6,0,1.1,0.2,1.2,0.6
	c0,0,0,0.1,0,0.1c-0.3,0.3-0.9,0.5-1.4,0.3c-0.2-0.1-0.4-0.2-0.5-0.3c0-0.3,0.3-0.6,0.8-0.7H147.6z M138.2,233.8
	c0.6,0,1.1,0.2,1.2,0.6c0,0,0,0.1,0,0.1c-0.2,0.4-0.8,0.5-1.3,0.4c-0.3-0.1-0.5-0.2-0.6-0.4c0.1-0.3,0.4-0.5,0.8-0.6V233.8z
	 M144.4,234c0.6,0,1.1,0.2,1.2,0.6c-0.2,0.4-0.8,0.5-1.3,0.4c-0.3-0.1-0.5-0.2-0.6-0.4C143.7,234.3,144,234.1,144.4,234z
	 M136.7,235.3c0.6,0,1.1,0.2,1.2,0.6c0,0,0,0.1,0,0.1c-0.2,0.4-0.8,0.5-1.3,0.4c-0.3-0.1-0.5-0.2-0.6-0.4
	C135.8,235.6,136.2,235.3,136.7,235.3z M139.6,235.3c0.6,0,1.1,0.2,1.2,0.6c0,0.1,0,0.1,0,0.2c-0.2,0.4-0.8,0.5-1.3,0.4
	c-0.3-0.1-0.5-0.2-0.6-0.4c0-0.3,0.3-0.6,0.8-0.7V235.3z M142.7,235.5c0.6,0,1.1,0.2,1.2,0.6c-0.2,0.4-0.8,0.5-1.3,0.4
	c-0.3-0.1-0.5-0.2-0.6-0.4C141.9,235.8,142.2,235.6,142.7,235.5z M145.9,235.5c0.6,0,1.1,0.2,1.2,0.6c0,0,0,0.1,0,0.1
	c-0.2,0.4-0.8,0.5-1.3,0.4c-0.3-0.1-0.5-0.2-0.6-0.4C145.1,235.9,145.4,235.6,145.9,235.5z M122.1,244.8c13.8,0.4,27.6,2,41.1,4.8
	c0.1,0.1-0.7,2.9-2,6.2l-2.3,6.9c-0.1,0.6-0.9,0.6-2.9,0.3c-9.7-1.5-37.9-1.4-48.6,0.2c-6.2,0.9-7,0.8-6.6-0.5l1.2-4l0.7-3.1
	l6.3-3.2c4.2-2.1,8.2-4.6,12-7.4h1.1L122.1,244.8z M90.5,261c0.4,0,1.1,0.3,1.9,0.9c1.2,0.7,2.6,1.3,3.2,1.3c3,0,4.7,4.2,7.3,18.3
	l0.9,5c0.2,1.1,0,1.4-2.7,1.9c-3.3,0.7-4.1,0.8-4.1,0.3c0-1.1-3.3-15.7-4.7-20.8c-0.7-2.3-1.3-4.6-1.9-6.9c0,0,0.1,0,0.1,0L90.5,261
	z M124,263.3h3.4l-1.2,1.1c-2,2.3-2.9,2.4-4.3,0.9c-0.5-0.5-0.9-1.1-1.2-1.7c0-0.2,1.5-0.5,3.3-0.5L124,263.3z M131.2,263.3h6.3
	l-1.4,1.4c-1.6,1.8-1.8,1.8-3.5,0l-1.4-1.5V263.3z M140.8,263.3h1.5c0.8,0,2.3,0,3.3,0.2l1.8,0.3l-1.6,1.5c-0.9,0.8-1.8,1.5-1.9,1.4
	l-1.6-1.8l-1.4-1.7L140.8,263.3z M150.7,263.6l1.4,0.3c0.8,0.2,2.6,0.3,3.9,0.5h2.3l-1.8,1.5c-0.6,0.6-1.3,1.1-2.1,1.5
	c-0.1,0-1.2-0.9-2-1.9L150.7,263.6z M115.3,263.7h0.2c0.1,0.2-0.4,1.1-1.2,1.9l-1.2,1.6l-1.8-1.4l-1.8-1.5l2.8-0.3L115.3,263.7
	L115.3,263.7z M118,264l1.9,1.6l1.9,1.7l-3.5,0.2l-3.5,0.1l1.6-1.7L118,264z M139.1,264c0.4,0,0.6,0.1,0.9,0.3
	c0.6,0.6,1.1,1.2,1.5,1.9c0.5,0.9,0.4,1.1-1.2,1.1l-2.9-0.6l-1.4-0.3l1.5-1.5c0.7-0.7,1.2-1.1,1.6-1.1L139.1,264z M129.4,264
	c0.6,0,1.2,0.3,1.9,1.5c0.8,1.3,0.8,1.3-2.3,1.3h-3.2l1.6-1.5c0.8-0.8,1.5-1.1,2-1.1V264z M149.3,264.2l1.4,1.4
	c1.6,1.5,1.9,2.4,0.7,2.3l-3.3-0.3l-2.6-0.2l1.9-1.5L149.3,264.2z M108.1,265c0.2,0,1.2,0.6,1.9,1.4l1.4,1.5l-2.9,0.5l-4.1,0.6
	c-0.8,0.2-0.6-0.3,1.2-1.8C106.7,265.9,107.8,265,108.1,265L108.1,265z M103.7,265h0.5c0.9,0.2,0.9,0.5-0.7,2.1l-1.8,1.7l-0.6-1.5
	c-0.5-1.1-0.4-1.5,0.7-1.9C102.5,265.1,103.1,265,103.7,265z M157.7,267c0.2,0,0.2,0.2,0,0.7c-0.2,0.9-1.3,1.1-1.3,0.2
	c0-0.2,0.4-0.6,0.8-0.8h0.4L157.7,267z M132.6,268.9c9,0,18.2,0.2,20.4,0.5c3.6,0.5,4,0.6,4,1.9c0,1.6-0.5,1.7-5.4,0.9
	c-1.4-0.3-7.4-0.8-13.1-1.3c-11.1-0.7-22.3-0.3-33.4,1.1c-2.2,0.2-2.8,0-2.8-0.7C102.2,269.9,114.2,268.9,132.6,268.9L132.6,268.9z
	 M120.5,272.2h6.3l-1.4,1.5c-1.8,1.8-1.9,1.8-3.5,0C121.9,273.7,120.5,272.2,120.5,272.2z M128.7,272.2l1.6,1.6l1.6,1.8l-3.4,0.1
	h-3.4l1.8-1.8l1.6-1.7H128.7z M131.2,272.2h6.3l-1.4,1.5c-1.6,1.8-1.8,1.8-3.5,0C132.6,273.7,131.2,272.2,131.2,272.2z M116.2,272.2
	c0.2,0,0,0.6-0.8,1.7c-0.8,1-1.6,1.8-1.8,1.8c-0.2,0-1.1-0.7-1.8-1.5l-1.4-1.5h2.1c1.1,0,2.1-0.1,3.2-0.5c0.2,0,0.3,0,0.5,0
	L116.2,272.2z M118.5,272.8l1.5,1.4l1.8,1.5l-3,0.2l-3.4,0.2l1.6-1.7C117,274.4,118.5,272.8,118.5,272.8z M138.9,272.8l1.6,1.8
	c1.9,1.9,1.8,2.1-2.5,1.3l-2-0.3l1.4-1.4L138.9,272.8L138.9,272.8z M141.3,272.8h2.8c3,0,3.4,0.5,1.6,2.1c-1.4,1.1-1.4,1.1-3-0.6
	C142.7,274.2,141.3,272.8,141.3,272.8z M105.4,273.3c1.4,0,1.3,0.1-0.5,1.8c-1.3,1.3-1.4,1.3-1.9,0.3
	C102.7,274.4,103.7,273.4,105.4,273.3L105.4,273.3z M150.9,273.6c0.5,0,1.4,0,2.3,0.2l2.7,0.5l-1.5,1.4L153,277l-1.3-1.6l-1.2-1.8
	L150.9,273.6L150.9,273.6z M108.7,274.1c0.4,0,0.7,0.2,1.3,0.8c1.2,1.1,1.2,1.1,0.2,1.6c-0.9,0.3-1.9,0.4-2.8,0.5h-1.9l1.5-1.6
	c0.8-0.8,1.2-1.1,1.5-1.3L108.7,274.1z M148.6,274.5c0.5,0,0.8,0.2,1.4,1.1l1.1,1.4h-2.5c-1.6,0-2.3-0.2-2.3-0.7
	c0.2-0.5,0.8-1.1,1.5-1.5L148.6,274.5L148.6,274.5z M156.1,276c0.2,0,0.2,0.2,0.2,0.6c0,1.1-1.1,1.9-1.5,1.1
	c-0.1-0.3,0.1-0.9,0.6-1.3L156.1,276z M125.8,277.3c10.2,0,21.5,0.7,28.1,1.8l1.9,0.3v5c0,3.8-0.2,5-0.8,5l-5.9-1.1
	c-13.6-2.2-27.4-2.6-41-1.1l-2.7,0.3l-0.7-4.2c-0.3-1.4-0.4-2.9-0.5-4.3c0,0,2.7-0.6,5.9-0.9C113.9,277.6,119.7,277.3,125.8,277.3
	L125.8,277.3z"/>
<path id="b" d="M146.3,248.8c-3.5,0-6,2.4-6,5.9c0,5.5,6.3,8.2,10.1,4.3S151.6,248.8,146.3,248.8z M146.3,250.1c2.6,0,4.7,2,4.7,4.6
	c0,3.4-3.9,5.7-7,4.2c-3.2-1.7-2.9-7,0.5-8.3c0.6-0.3,1.1-0.4,1.8-0.5H146.3z"/>
<g>
	<path id="b_1_" d="M122.7,248.1c-3.5,0-6,2.4-6,5.9c0,5.5,6.3,8.2,10.1,4.3C130.6,254.5,128,248.1,122.7,248.1z M122.7,249.4
		c2.6,0,4.7,2,4.7,4.6c0,3.4-3.9,5.7-7,4.2c-3.2-1.7-2.9-7,0.5-8.3c0.6-0.3,1.1-0.4,1.8-0.5H122.7z"/>
</g>
<path d="M103.2,165.9c-1,0.1-1.8,0.9-1.9,1.9c0,1.2,0.9,2.1,2.1,2.1c1.1,0,2.1-0.9,2.1-2.1l0,0c-0.1-1.1-1-2-2.1-2
	C103.2,165.9,103.2,165.9,103.2,165.9z M103.3,166.6c0.8,0,1.4,0.6,1.4,1.3l0,0c0,0.7-0.6,1.3-1.4,1.3c-0.8,0-1.4-0.6-1.4-1.3
	C101.9,167.2,102.5,166.6,103.3,166.6C103.3,166.6,103.3,166.6,103.3,166.6z"/>
</svg>
