<svg width="800" height="800" viewBox="0 0 800 800" fill="none" xmlns="http://www.w3.org/2000/svg">
<g clip-path="url(#clip0_1035_7)">
<path d="M683.333 566.667H116.667C94.5707 566.649 73.3848 557.864 57.7606 542.239C42.1364 526.615 33.351 505.429 33.3333 483.333V350C33.351 327.904 42.1364 306.718 57.7606 291.094C73.3848 275.47 94.5707 266.684 116.667 266.667H683.333C705.429 266.684 726.615 275.47 742.239 291.094C757.864 306.718 766.649 327.904 766.667 350V483.333C766.649 505.429 757.864 526.615 742.239 542.239C726.615 557.864 705.429 566.649 683.333 566.667ZM116.667 300C103.411 300.018 90.7038 305.291 81.3308 314.664C71.9578 324.037 66.6843 336.745 66.6667 350V483.333C66.6843 496.589 71.9578 509.296 81.3308 518.669C90.7038 528.042 103.411 533.316 116.667 533.333H683.333C696.589 533.316 709.296 528.042 718.669 518.669C728.042 509.296 733.316 496.589 733.333 483.333V350C733.316 336.745 728.042 324.037 718.669 314.664C709.296 305.291 696.589 300.018 683.333 300H116.667ZM566.667 400H233.333V433.333H566.667V400Z" fill="#09244B"/>
</g>
<defs>
<clipPath id="clip0_1035_7">
<rect width="800" height="800" fill="white"/>
</clipPath>
</defs>
</svg>
