<svg width="800" height="800" viewBox="0 0 800 800" fill="none" xmlns="http://www.w3.org/2000/svg">
<g clip-path="url(#clip0_1035_10)">
<path d="M233.333 233.333V100C233.333 91.1595 236.845 82.681 243.096 76.4298C249.348 70.1786 257.826 66.6667 266.667 66.6667H700C708.84 66.6667 717.319 70.1786 723.57 76.4298C729.821 82.681 733.333 91.1595 733.333 100V533.333C733.333 542.174 729.821 550.652 723.57 556.904C717.319 563.155 708.84 566.667 700 566.667H566.667V699.767C566.667 718.3 551.7 733.333 533.1 733.333H100.233C95.824 733.338 91.4572 732.472 87.3827 730.787C83.3082 729.102 79.6061 726.629 76.4883 723.512C73.3705 720.394 70.8981 716.692 69.2128 712.617C67.5275 708.543 66.6623 704.176 66.6666 699.767L66.7666 266.9C66.7666 248.367 81.7333 233.333 100.333 233.333H233.333ZM300 233.333H533.1C551.633 233.333 566.667 248.3 566.667 266.9V500H666.667V133.333H300V233.333ZM283.433 600L471.967 411.433L424.833 364.3L283.433 505.733L212.667 435L165.533 482.133L283.433 600Z" fill="#09244B"/>
</g>
<defs>
<clipPath id="clip0_1035_10">
<rect width="800" height="800" fill="white"/>
</clipPath>
</defs>
</svg>
