<svg width="383" height="256" viewBox="0 0 383 256" fill="none" xmlns="http://www.w3.org/2000/svg">
<g clip-path="url(#clip0_551_7376)">
<path d="M108 45.5H76.4004V212.5H108V45.5Z" fill="#EF2929"/>
<path d="M160.7 68.5996H129.5V211.8H160.7V68.5996Z" fill="#F57900"/>
<path d="M213.6 163.801H182.4V211.101H213.6V163.801Z" fill="#FCE94F"/>
<path d="M266.6 92.5H235.4V210.3H266.6V92.5Z" fill="#73D216"/>
<path d="M319.5 20.6992H288.3V212.199H319.5V20.6992Z" fill="#729FCF"/>
<path d="M372.7 187.199H341.1V210.299H372.7V187.199Z" fill="#5C3566"/>
<path d="M382.4 210.301H53.5V213.201H382.4V210.301Z" fill="#2E3436"/>
<path d="M56.4004 210.6L56.4004 10.9004H53.5004L53.5004 210.6H56.4004Z" fill="#2E3436"/>
<path d="M46.7002 163.6H54.4002" stroke="black" stroke-width="1.3"/>
<path d="M46.7002 140H54.4002" stroke="black" stroke-width="1.3"/>
<path d="M46.7002 116.301H54.4002" stroke="black" stroke-width="1.3"/>
<path d="M46.7002 92.5996H54.4002" stroke="black" stroke-width="1.3"/>
<path d="M46.7002 68.9004H54.4002" stroke="black" stroke-width="1.3"/>
<path d="M46.7002 45.1992H54.4002" stroke="black" stroke-width="1.3"/>
<path d="M46.7002 21.5H54.4002" stroke="black" stroke-width="1.3"/>
<path d="M43.121 186.638C43.4927 186.931 43.7996 187.308 44.0418 187.77C44.2896 188.232 44.4135 188.809 44.4135 189.501C44.4135 190.712 43.9996 191.712 43.1717 192.5C42.3439 193.289 41.2936 193.683 40.0209 193.683C39.0354 193.683 38.2019 193.449 37.5205 192.982C36.8391 192.514 36.4984 191.971 36.4984 191.351C36.4984 191.064 36.5688 190.814 36.7096 190.6C36.8504 190.386 37.0672 190.279 37.36 190.279C37.6979 190.279 37.9541 190.369 38.1287 190.549C38.3089 190.724 38.399 190.915 38.399 191.123C38.399 191.304 38.3681 191.529 38.3061 191.799C38.2442 192.069 38.1963 192.269 38.1625 192.399C38.2076 192.438 38.2808 192.492 38.3821 192.559C38.4835 192.627 38.6046 192.692 38.7454 192.754C38.8918 192.816 39.0692 192.869 39.2775 192.914C39.4915 192.965 39.7393 192.99 40.0209 192.99C40.3813 192.99 40.722 192.917 41.043 192.771C41.364 192.624 41.6343 192.407 41.854 192.12C42.0961 191.805 42.2763 191.444 42.3946 191.039C42.5185 190.639 42.5804 190.129 42.5804 189.51C42.5804 188.716 42.358 188.06 41.9131 187.542C41.4738 187.018 40.8938 186.756 40.1729 186.756C39.7224 186.756 39.3001 186.841 38.9059 187.01C38.5173 187.178 38.1681 187.46 37.8584 187.854L37.2924 187.635L38.0104 181.536H44.0587V183.039H38.6947L38.2554 186.621C38.5088 186.441 38.8411 186.263 39.2522 186.089C39.6689 185.909 40.1251 185.818 40.6207 185.818C41.0318 185.818 41.4569 185.883 41.8962 186.013C42.3411 186.137 42.7494 186.345 43.121 186.638Z" fill="black"/>
<path d="M34.1336 167.1H28.4402V166.5C28.6091 166.489 28.871 166.466 29.2258 166.432C29.5862 166.393 29.834 166.353 29.9691 166.314C30.1437 166.258 30.2761 166.168 30.3662 166.044C30.4619 165.914 30.5098 165.723 30.5098 165.469V159.539H28.4064V158.83H28.871C29.4792 158.83 30.0226 158.717 30.5013 158.492C30.9856 158.267 31.332 158.024 31.5403 157.765H32.2415C32.2246 158.131 32.2077 158.559 32.1908 159.049C32.1739 159.539 32.1654 159.979 32.1654 160.367V165.376C32.1654 165.573 32.2077 165.751 32.2921 165.909C32.3822 166.061 32.509 166.173 32.6723 166.246C32.8187 166.308 33.058 166.365 33.3903 166.415C33.7225 166.466 33.9703 166.494 34.1336 166.5V167.1ZM43.4087 159.21C43.7692 159.643 44.0367 160.153 44.2112 160.739C44.3914 161.319 44.4815 161.927 44.4815 162.563C44.4815 163.329 44.3717 164.016 44.1521 164.625C43.9325 165.227 43.6312 165.728 43.2482 166.128C42.854 166.539 42.3866 166.849 41.846 167.057C41.3054 167.266 40.7028 167.37 40.0383 167.37C39.3118 167.37 38.6642 167.249 38.0954 167.007C37.5266 166.765 37.0648 166.432 36.7101 166.01C36.3384 165.571 36.0596 165.058 35.8738 164.473C35.6936 163.881 35.6035 163.245 35.6035 162.563C35.6035 161.893 35.6908 161.277 35.8653 160.713C36.0455 160.15 36.3243 159.641 36.7016 159.185C37.062 158.745 37.5266 158.399 38.0954 158.146C38.6642 157.892 39.3146 157.765 40.0467 157.765C40.8182 157.765 41.4799 157.895 42.0318 158.154C42.5837 158.413 43.0427 158.765 43.4087 159.21ZM42.6147 162.563C42.6147 161.223 42.3838 160.184 41.922 159.446C41.4659 158.709 40.8436 158.34 40.0552 158.34C39.2555 158.34 38.6248 158.709 38.163 159.446C37.7012 160.184 37.4703 161.223 37.4703 162.563C37.4703 163.836 37.6899 164.861 38.1292 165.638C38.5741 166.41 39.2104 166.796 40.0383 166.796C40.8661 166.796 41.5025 166.41 41.9474 165.638C42.3923 164.861 42.6147 163.836 42.6147 162.563Z" fill="black"/>
<path d="M33.8338 143.199H28.1404V142.599C28.3093 142.588 28.5712 142.566 28.926 142.532C29.2864 142.492 29.5342 142.453 29.6693 142.414C29.8439 142.357 29.9763 142.267 30.0664 142.143C30.1621 142.014 30.21 141.822 30.21 141.569V135.639H28.1066V134.929H28.5712C29.1794 134.929 29.7228 134.817 30.2015 134.591C30.6858 134.366 31.0322 134.124 31.2405 133.865H31.9417C31.9248 134.231 31.9079 134.659 31.891 135.149C31.8741 135.639 31.8656 136.078 31.8656 136.467V141.476C31.8656 141.673 31.9079 141.85 31.9923 142.008C32.0824 142.16 32.2091 142.273 32.3725 142.346C32.5189 142.408 32.7582 142.464 33.0905 142.515C33.4227 142.566 33.6705 142.594 33.8338 142.599V143.199ZM41.5546 139.237C41.9263 139.53 42.2332 139.908 42.4754 140.369C42.7232 140.831 42.8471 141.408 42.8471 142.101C42.8471 143.312 42.4332 144.311 41.6053 145.1C40.7775 145.888 39.7272 146.282 38.4545 146.282C37.469 146.282 36.6355 146.049 35.9541 145.581C35.2727 145.114 34.932 144.57 34.932 143.951C34.932 143.664 35.0024 143.413 35.1432 143.199C35.284 142.985 35.5008 142.878 35.7936 142.878C36.1315 142.878 36.3877 142.968 36.5623 143.149C36.7425 143.323 36.8326 143.515 36.8326 143.723C36.8326 143.903 36.8016 144.128 36.7397 144.399C36.6778 144.669 36.6299 144.869 36.5961 144.998C36.6411 145.038 36.7144 145.091 36.8157 145.159C36.9171 145.227 37.0382 145.291 37.179 145.353C37.3254 145.415 37.5028 145.469 37.7111 145.514C37.9251 145.564 38.1729 145.59 38.4545 145.59C38.8149 145.59 39.1556 145.517 39.4766 145.37C39.7976 145.224 40.0679 145.007 40.2875 144.72C40.5297 144.404 40.7099 144.044 40.8282 143.638C40.9521 143.239 41.014 142.729 41.014 142.11C41.014 141.315 40.7916 140.659 40.3467 140.141C39.9074 139.618 39.3274 139.356 38.6065 139.356C38.156 139.356 37.7337 139.44 37.3395 139.609C36.9509 139.778 36.6017 140.06 36.292 140.454L35.726 140.234L36.444 134.135H42.4923V135.639H37.1283L36.689 139.221C36.9424 139.04 37.2747 138.863 37.6858 138.688C38.1025 138.508 38.5587 138.418 39.0542 138.418C39.4653 138.418 39.8905 138.483 40.3298 138.612C40.7747 138.736 41.183 138.945 41.5546 139.237Z" fill="black"/>
<path d="M32.9439 119.6H25.0288V118.451C25.1809 118.276 25.392 118.082 25.6624 117.868C25.9327 117.648 26.2537 117.412 26.6253 117.158C26.8506 117.006 27.1209 116.84 27.4363 116.66C27.7516 116.48 28.1092 116.283 28.5091 116.069C28.954 115.832 29.2947 115.624 29.5312 115.444C29.7734 115.263 29.993 115.041 30.1901 114.776C30.3196 114.602 30.4238 114.385 30.5026 114.126C30.5815 113.861 30.6209 113.487 30.6209 113.002C30.6209 112.298 30.4322 111.783 30.0549 111.456C29.6776 111.124 29.1933 110.958 28.602 110.958C28.236 110.958 27.8896 111.031 27.563 111.178C27.2364 111.318 26.9914 111.516 26.8281 111.769C26.8675 111.949 26.9154 112.163 26.9717 112.411C27.0336 112.659 27.0646 112.901 27.0646 113.137C27.0646 113.351 26.9745 113.543 26.7943 113.712C26.6197 113.875 26.3578 113.957 26.0087 113.957C25.7271 113.957 25.5103 113.861 25.3583 113.67C25.2062 113.473 25.1302 113.211 25.1302 112.884C25.1302 112.58 25.2146 112.276 25.3836 111.972C25.5525 111.662 25.7947 111.378 26.1101 111.119C26.4198 110.865 26.8027 110.66 27.2589 110.502C27.715 110.344 28.2078 110.265 28.7372 110.265C29.8916 110.265 30.8067 110.524 31.4825 111.043C32.1639 111.555 32.5046 112.242 32.5046 113.104C32.5046 113.515 32.4427 113.889 32.3188 114.227C32.2005 114.565 32.0062 114.864 31.7359 115.123C31.4375 115.41 31.0883 115.658 30.6885 115.866C30.2886 116.069 29.6776 116.353 28.8554 116.719C28.3655 116.939 27.9093 117.17 27.487 117.412C27.0646 117.648 26.7183 117.879 26.4479 118.104H32.9439V119.6ZM42.4386 111.71C42.799 112.143 43.0665 112.653 43.2411 113.239C43.4213 113.819 43.5114 114.427 43.5114 115.063C43.5114 115.829 43.4016 116.516 43.182 117.125C42.9624 117.727 42.6611 118.228 42.2781 118.628C41.8839 119.039 41.4165 119.349 40.8759 119.557C40.3353 119.766 39.7327 119.87 39.0682 119.87C38.3417 119.87 37.6941 119.749 37.1253 119.507C36.5565 119.265 36.0947 118.932 35.7399 118.51C35.3683 118.071 35.0895 117.558 34.9037 116.973C34.7235 116.381 34.6333 115.745 34.6333 115.063C34.6333 114.393 34.7206 113.777 34.8952 113.213C35.0754 112.65 35.3542 112.141 35.7315 111.685C36.0919 111.245 36.5565 110.899 37.1253 110.646C37.6941 110.392 38.3445 110.265 39.0766 110.265C39.8481 110.265 40.5098 110.395 41.0617 110.654C41.6136 110.913 42.0726 111.265 42.4386 111.71ZM41.6446 115.063C41.6446 113.723 41.4137 112.684 40.9519 111.946C40.4958 111.209 39.8735 110.84 39.0851 110.84C38.2854 110.84 37.6547 111.209 37.1929 111.946C36.7311 112.684 36.5002 113.723 36.5002 115.063C36.5002 116.336 36.7198 117.361 37.1591 118.138C37.604 118.91 38.2403 119.296 39.0682 119.296C39.896 119.296 40.5324 118.91 40.9772 118.138C41.4221 117.361 41.6446 116.336 41.6446 115.063Z" fill="black"/>
<path d="M32.6441 95.5996H24.729V94.4508C24.8811 94.2762 25.0922 94.0819 25.3625 93.8679C25.6329 93.6483 25.9539 93.4118 26.3255 93.1583C26.5508 93.0063 26.8211 92.8402 27.1365 92.66C27.4518 92.4798 27.8094 92.2826 28.2093 92.0687C28.6542 91.8321 28.9949 91.6238 29.2314 91.4436C29.4736 91.2633 29.6932 91.0409 29.8903 90.7762C30.0198 90.6016 30.124 90.3848 30.2028 90.1258C30.2817 89.8611 30.3211 89.4866 30.3211 89.0023C30.3211 88.2984 30.1324 87.7831 29.7551 87.4564C29.3778 87.1242 28.8935 86.9581 28.3022 86.9581C27.9361 86.9581 27.5898 87.0313 27.2632 87.1777C26.9366 87.3185 26.6916 87.5156 26.5283 87.769C26.5677 87.9492 26.6156 88.1632 26.6719 88.411C26.7338 88.6588 26.7648 88.9009 26.7648 89.1375C26.7648 89.3514 26.6747 89.5429 26.4945 89.7119C26.3199 89.8752 26.058 89.9568 25.7089 89.9568C25.4273 89.9568 25.2105 89.8611 25.0584 89.6696C24.9064 89.4725 24.8304 89.2107 24.8304 88.884C24.8304 88.5799 24.9148 88.2758 25.0838 87.9717C25.2527 87.662 25.4949 87.3776 25.8103 87.1186C26.12 86.8651 26.5029 86.6596 26.9591 86.5019C27.4152 86.3442 27.908 86.2654 28.4374 86.2654C29.5918 86.2654 30.5069 86.5244 31.1827 87.0425C31.8641 87.555 32.2048 88.242 32.2048 89.1037C32.2048 89.5148 32.1429 89.8893 32.019 90.2271C31.9007 90.565 31.7064 90.8635 31.4361 91.1226C31.1377 91.4098 30.7885 91.6576 30.3887 91.8659C29.9888 92.0687 29.3778 92.353 28.5556 92.7191C28.0657 92.9387 27.6095 93.1696 27.1872 93.4118C26.7648 93.6483 26.4185 93.8792 26.1481 94.1044H32.6441V95.5996ZM40.5845 91.6378C40.9562 91.9307 41.2631 92.308 41.5053 92.7698C41.7531 93.2316 41.877 93.8088 41.877 94.5015C41.877 95.7122 41.463 96.7118 40.6352 97.5002C39.8074 98.2887 38.7571 98.6829 37.4844 98.6829C36.4989 98.6829 35.6654 98.4492 34.984 97.9817C34.3026 97.5143 33.9619 96.9709 33.9619 96.3514C33.9619 96.0642 34.0323 95.8136 34.173 95.5996C34.3138 95.3856 34.5306 95.2786 34.8235 95.2786C35.1614 95.2786 35.4176 95.3687 35.5922 95.5489C35.7724 95.7235 35.8625 95.915 35.8625 96.1233C35.8625 96.3035 35.8315 96.5288 35.7696 96.7991C35.7076 97.0694 35.6598 97.2694 35.626 97.3989C35.671 97.4383 35.7442 97.4918 35.8456 97.5594C35.947 97.627 36.068 97.6917 36.2088 97.7537C36.3553 97.8156 36.5326 97.8691 36.741 97.9142C36.955 97.9648 37.2028 97.9902 37.4844 97.9902C37.8448 97.9902 38.1855 97.917 38.5065 97.7706C38.8275 97.6241 39.0978 97.4073 39.3174 97.1201C39.5596 96.8048 39.7398 96.4443 39.8581 96.0389C39.9819 95.639 40.0439 95.1294 40.0439 94.5099C40.0439 93.7159 39.8215 93.0598 39.3766 92.5417C38.9373 92.018 38.3573 91.7561 37.6364 91.7561C37.1859 91.7561 36.7635 91.8406 36.3693 92.0095C35.9808 92.1785 35.6316 92.46 35.3219 92.8542L34.7559 92.6346L35.4739 86.5357H41.5222V88.0393H36.1582L35.7189 91.6209C35.9723 91.4407 36.3046 91.2633 36.7157 91.0888C37.1324 90.9086 37.5886 90.8185 38.0841 90.8185C38.4952 90.8185 38.9204 90.8832 39.3597 91.0127C39.8046 91.1366 40.2128 91.345 40.5845 91.6378Z" fill="black"/>
<path d="M28.2134 75.0833C27.6841 75.0833 27.1998 75.0157 26.7605 74.8805C26.3212 74.751 25.9439 74.5736 25.6286 74.3483C25.3132 74.1231 25.0682 73.864 24.8937 73.5712C24.7247 73.2784 24.6402 72.9771 24.6402 72.6673C24.6402 72.3914 24.7078 72.1436 24.843 71.924C24.9781 71.6987 25.1949 71.5861 25.4934 71.5861C25.8313 71.5861 26.0875 71.6706 26.2621 71.8395C26.4423 72.0028 26.5324 72.1915 26.5324 72.4055C26.5324 72.5857 26.5014 72.8138 26.4395 73.0897C26.3832 73.3656 26.3381 73.5627 26.3043 73.681C26.3438 73.7317 26.4142 73.7993 26.5155 73.8837C26.6225 73.9682 26.7521 74.0442 26.9041 74.1118C27.0843 74.1963 27.273 74.2639 27.4701 74.3146C27.6672 74.3652 27.9459 74.3906 28.3063 74.3906C28.6442 74.3906 28.968 74.3343 29.2778 74.2216C29.5931 74.109 29.8691 73.9288 30.1056 73.681C30.3534 73.422 30.5449 73.1179 30.68 72.7687C30.8208 72.4252 30.8912 71.9718 30.8912 71.4087C30.8912 71.1046 30.8574 70.8033 30.7898 70.5048C30.7279 70.2064 30.6096 69.9473 30.4351 69.7277C30.2605 69.5081 30.0211 69.3391 29.717 69.2208C29.4186 69.097 29.0384 69.035 28.5767 69.035H27.4701V68.0636H28.205C28.9821 68.0636 29.5425 67.8496 29.886 67.4216C30.2295 66.9936 30.4013 66.3488 30.4013 65.4872C30.4013 64.7832 30.2351 64.2539 29.9029 63.8991C29.5706 63.5387 29.1004 63.3584 28.4922 63.3584C28.1993 63.3584 27.9572 63.3951 27.7657 63.4683C27.5799 63.5358 27.4278 63.6034 27.3096 63.671C27.1688 63.7498 27.0533 63.8371 26.9632 63.9329C26.8731 64.0286 26.8056 64.099 26.7605 64.144C26.7999 64.3243 26.8478 64.5467 26.9041 64.8114C26.9604 65.0704 26.9886 65.3182 26.9886 65.5547C26.9886 65.7631 26.8985 65.9518 26.7183 66.1207C26.5437 66.284 26.2846 66.3657 25.9411 66.3657C25.6426 66.3657 25.423 66.2587 25.2822 66.0447C25.1471 65.8307 25.0795 65.5829 25.0795 65.3013C25.0795 65.0085 25.1611 64.71 25.3245 64.4059C25.4878 64.1018 25.7299 63.8174 26.0509 63.5527C26.3719 63.2881 26.7633 63.0741 27.2251 62.9107C27.6869 62.7474 28.2191 62.6658 28.8216 62.6658C29.5143 62.6658 30.0859 62.77 30.5364 62.9783C30.9926 63.1811 31.3502 63.4288 31.6092 63.7217C31.8626 64.0089 32.0372 64.3102 32.133 64.6255C32.2287 64.9409 32.2766 65.2112 32.2766 65.4365C32.2766 65.7181 32.2371 66.0024 32.1583 66.2896C32.0795 66.5712 31.9499 66.8331 31.7697 67.0752C31.5726 67.3399 31.3108 67.5821 30.9841 67.8017C30.6631 68.0157 30.2577 68.1903 29.7677 68.3254V68.4606C30.0831 68.4888 30.4182 68.5591 30.7729 68.6718C31.1334 68.7844 31.4572 68.9505 31.7444 69.1702C32.0429 69.4011 32.2878 69.6995 32.4793 70.0656C32.6708 70.426 32.7665 70.885 32.7665 71.4425C32.7665 72.5237 32.3329 73.3994 31.4656 74.0696C30.5984 74.7454 29.5143 75.0833 28.2134 75.0833ZM42.3204 64.1103C42.6808 64.5439 42.9483 65.0535 43.1229 65.6392C43.3031 66.2193 43.3932 66.8275 43.3932 67.4638C43.3932 68.2297 43.2833 68.9167 43.0637 69.525C42.8441 70.1275 42.5428 70.6287 42.1599 71.0286C41.7657 71.4397 41.2982 71.7494 40.7576 71.9578C40.217 72.1661 39.6144 72.2703 38.9499 72.2703C38.2234 72.2703 37.5758 72.1492 37.007 71.9071C36.4382 71.6649 35.9765 71.3327 35.6217 70.9103C35.25 70.471 34.9712 69.9586 34.7854 69.3729C34.6052 68.7816 34.5151 68.1452 34.5151 67.4638C34.5151 66.7937 34.6024 66.177 34.777 65.6139C34.9572 65.0507 35.2359 64.5411 35.6132 64.0849C35.9736 63.6457 36.4382 63.2993 37.007 63.0459C37.5758 62.7925 38.2263 62.6658 38.9583 62.6658C39.7299 62.6658 40.3916 62.7953 40.9435 63.0543C41.4953 63.3134 41.9543 63.6654 42.3204 64.1103ZM41.5263 67.4638C41.5263 66.1235 41.2954 65.0845 40.8336 64.3468C40.3775 63.609 39.7552 63.2402 38.9668 63.2402C38.1671 63.2402 37.5364 63.609 37.0746 64.3468C36.6128 65.0845 36.3819 66.1235 36.3819 67.4638C36.3819 68.7365 36.6016 69.7615 37.0408 70.5386C37.4857 71.3101 38.1221 71.6959 38.9499 71.6959C39.7777 71.6959 40.4141 71.3101 40.859 70.5386C41.3039 69.7615 41.5263 68.7365 41.5263 67.4638Z" fill="black"/>
<path d="M27.9136 51.2825C27.3843 51.2825 26.9 51.2149 26.4607 51.0797C26.0214 50.9502 25.6441 50.7728 25.3288 50.5476C25.0134 50.3223 24.7684 50.0632 24.5938 49.7704C24.4249 49.4776 24.3404 49.1763 24.3404 48.8666C24.3404 48.5906 24.408 48.3428 24.5432 48.1232C24.6783 47.8979 24.8951 47.7853 25.1936 47.7853C25.5315 47.7853 25.7877 47.8698 25.9623 48.0387C26.1425 48.202 26.2326 48.3907 26.2326 48.6047C26.2326 48.7849 26.2016 49.013 26.1397 49.2889C26.0834 49.5649 26.0383 49.762 26.0045 49.8802C26.044 49.9309 26.1144 49.9985 26.2157 50.083C26.3227 50.1674 26.4522 50.2435 26.6043 50.311C26.7845 50.3955 26.9732 50.4631 27.1703 50.5138C27.3674 50.5645 27.6461 50.5898 28.0065 50.5898C28.3444 50.5898 28.6682 50.5335 28.978 50.4208C29.2933 50.3082 29.5693 50.128 29.8058 49.8802C30.0536 49.6212 30.2451 49.3171 30.3802 48.9679C30.521 48.6244 30.5914 48.1711 30.5914 47.6079C30.5914 47.3038 30.5576 47.0025 30.49 46.7041C30.4281 46.4056 30.3098 46.1465 30.1353 45.9269C29.9607 45.7073 29.7213 45.5383 29.4172 45.4201C29.1188 45.2962 28.7386 45.2342 28.2769 45.2342H27.1703V44.2628H27.9052C28.6823 44.2628 29.2427 44.0488 29.5862 43.6208C29.9297 43.1928 30.1015 42.548 30.1015 41.6864C30.1015 40.9824 29.9353 40.4531 29.6031 40.0983C29.2708 39.7379 28.8006 39.5577 28.1924 39.5577C27.8995 39.5577 27.6574 39.5943 27.4659 39.6675C27.2801 39.7351 27.128 39.8026 27.0098 39.8702C26.869 39.9491 26.7535 40.0363 26.6634 40.1321C26.5733 40.2278 26.5057 40.2982 26.4607 40.3433C26.5001 40.5235 26.548 40.7459 26.6043 41.0106C26.6606 41.2696 26.6888 41.5174 26.6888 41.754C26.6888 41.9623 26.5987 42.151 26.4185 42.3199C26.2439 42.4832 25.9848 42.5649 25.6413 42.5649C25.3428 42.5649 25.1232 42.4579 24.9824 42.2439C24.8473 42.0299 24.7797 41.7821 24.7797 41.5005C24.7797 41.2077 24.8613 40.9092 25.0247 40.6051C25.188 40.301 25.4301 40.0166 25.7511 39.752C26.0721 39.4873 26.4635 39.2733 26.9253 39.11C27.3871 38.9466 27.9193 38.865 28.5218 38.865C29.2145 38.865 29.7861 38.9692 30.2366 39.1775C30.6928 39.3803 31.0504 39.6281 31.3094 39.9209C31.5628 40.2081 31.7374 40.5094 31.8332 40.8248C31.9289 41.1401 31.9768 41.4104 31.9768 41.6357C31.9768 41.9173 31.9373 42.2017 31.8585 42.4889C31.7797 42.7704 31.6501 43.0323 31.4699 43.2745C31.2728 43.5391 31.011 43.7813 30.6843 44.0009C30.3633 44.2149 29.9579 44.3895 29.4679 44.5247V44.6598C29.7833 44.688 30.1184 44.7584 30.4731 44.871C30.8336 44.9836 31.1574 45.1498 31.4446 45.3694C31.743 45.6003 31.988 45.8987 32.1795 46.2648C32.371 46.6252 32.4667 47.0842 32.4667 47.6417C32.4667 48.7229 32.0331 49.5986 31.1658 50.2688C30.2986 50.9446 29.2145 51.2825 27.9136 51.2825ZM40.4663 44.2375C40.8379 44.5303 41.1449 44.9076 41.387 45.3694C41.6348 45.8312 41.7587 46.4084 41.7587 47.1011C41.7587 48.3118 41.3448 49.3114 40.5169 50.0999C39.6891 50.8883 38.6388 51.2825 37.3661 51.2825C36.3806 51.2825 35.5471 51.0488 34.8657 50.5813C34.1843 50.1139 33.8436 49.5705 33.8436 48.951C33.8436 48.6638 33.914 48.4132 34.0548 48.1992C34.1956 47.9852 34.4124 47.8782 34.7052 47.8782C35.0431 47.8782 35.2993 47.9683 35.4739 48.1485C35.6541 48.3231 35.7442 48.5146 35.7442 48.7229C35.7442 48.9032 35.7133 49.1284 35.6513 49.3987C35.5894 49.669 35.5415 49.869 35.5077 49.9985C35.5528 50.0379 35.626 50.0914 35.7273 50.159C35.8287 50.2266 35.9498 50.2913 36.0906 50.3533C36.237 50.4152 36.4144 50.4687 36.6228 50.5138C36.8368 50.5645 37.0845 50.5898 37.3661 50.5898C37.7265 50.5898 38.0672 50.5166 38.3882 50.3702C38.7092 50.2237 38.9795 50.0069 39.1992 49.7197C39.4413 49.4044 39.6215 49.0439 39.7398 48.6385C39.8637 48.2386 39.9256 47.729 39.9256 47.1095C39.9256 46.3155 39.7032 45.6594 39.2583 45.1413C38.819 44.6176 38.239 44.3557 37.5182 44.3557C37.0676 44.3557 36.6453 44.4402 36.2511 44.6091C35.8625 44.7781 35.5133 45.0597 35.2036 45.4539L34.6376 45.2342L35.3557 39.1353H41.4039V40.6389H36.0399L35.6006 44.2206C35.8541 44.0403 36.1863 43.863 36.5974 43.6884C37.0141 43.5082 37.4703 43.4181 37.9659 43.4181C38.377 43.4181 38.8021 43.4828 39.2414 43.6124C39.6863 43.7362 40.0946 43.9446 40.4663 44.2375Z" fill="black"/>
<path d="M33.2564 23.8394H31.5417V27.6829H29.9198V23.8394H24.5135V22.5385L30.4351 15.3161H31.5417V22.7328H33.2564V23.8394ZM29.9198 22.7328V17.1998L25.3583 22.7328H29.9198ZM42.5569 16.7099C42.9173 17.1435 43.1848 17.6531 43.3594 18.2388C43.5396 18.8189 43.6297 19.4271 43.6297 20.0634C43.6297 20.8293 43.5199 21.5164 43.3002 22.1246C43.0806 22.7271 42.7793 23.2283 42.3964 23.6282C42.0022 24.0393 41.5348 24.349 40.9941 24.5574C40.4535 24.7657 39.8509 24.8699 39.1864 24.8699C38.46 24.8699 37.8123 24.7488 37.2436 24.5067C36.6748 24.2645 36.213 23.9323 35.8582 23.5099C35.4865 23.0707 35.2078 22.5582 35.0219 21.9725C34.8417 21.3812 34.7516 20.7448 34.7516 20.0634C34.7516 19.3933 34.8389 18.7766 35.0135 18.2135C35.1937 17.6503 35.4724 17.1407 35.8498 16.6845C36.2102 16.2453 36.6748 15.8989 37.2436 15.6455C37.8123 15.3921 38.4628 15.2654 39.1949 15.2654C39.9664 15.2654 40.6281 15.3949 41.18 15.654C41.7319 15.913 42.1908 16.265 42.5569 16.7099ZM41.7628 20.0634C41.7628 18.7231 41.5319 17.6841 41.0702 16.9464C40.614 16.2087 39.9917 15.8398 39.2033 15.8398C38.4036 15.8398 37.7729 16.2087 37.3111 16.9464C36.8493 17.6841 36.6185 18.7231 36.6185 20.0634C36.6185 21.3361 36.8381 22.3611 37.2773 23.1382C37.7222 23.9097 38.3586 24.2955 39.1864 24.2955C40.0143 24.2955 40.6506 23.9097 41.0955 23.1382C41.5404 22.3611 41.7628 21.3361 41.7628 20.0634Z" fill="black"/>
<path d="M50.1848 212.204C50.1848 213.065 50.0282 213.896 49.7151 214.697C49.408 215.498 48.9864 216.194 48.4504 216.784C47.8844 217.404 47.24 217.895 46.5173 218.256C45.7947 218.611 44.9696 218.789 44.0422 218.789C42.8378 218.789 41.8953 218.443 41.2148 217.75C40.5343 217.058 40.1941 216.191 40.1941 215.149C40.1941 214.239 40.3507 213.387 40.6638 212.592C40.983 211.791 41.4226 211.084 41.9827 210.469C42.5307 209.867 43.1811 209.392 43.9338 209.042C44.6926 208.693 45.4936 208.518 46.3367 208.518C47.5712 208.518 48.5197 208.877 49.1821 209.593C49.8506 210.304 50.1848 211.174 50.1848 212.204ZM48.2607 211.797C48.2607 210.942 48.0771 210.295 47.7097 209.855C47.3484 209.416 46.8486 209.196 46.2102 209.196C45.5478 209.196 44.9516 209.401 44.4216 209.81C43.8917 210.214 43.446 210.78 43.0847 211.508C42.7716 212.141 42.5307 212.821 42.3621 213.55C42.1995 214.278 42.1182 214.941 42.1182 215.537C42.1182 216.344 42.2928 216.976 42.6421 217.434C42.9914 217.886 43.5063 218.112 44.1868 218.112C44.8131 218.112 45.3882 217.928 45.9121 217.561C46.436 217.187 46.8967 216.603 47.2942 215.808C47.6314 215.14 47.8753 214.447 48.0259 213.73C48.1825 213.014 48.2607 212.369 48.2607 211.797Z" fill="black"/>
</g>
<defs>
<clipPath id="clip0_551_7376">
<rect width="382.4" height="255.2" fill="white"/>
</clipPath>
</defs>
</svg>
