<svg width="800" height="800" viewBox="0 0 800 800" fill="none" xmlns="http://www.w3.org/2000/svg">
<g clip-path="url(#clip0_1035_31)">
<path d="M333.333 500H733.333V533.333H333.333V500ZM200 400H266.667V333.333H200V400ZM333.333 366.667H733.333V333.333H333.333V366.667ZM200 566.667H266.667V500H200V566.667ZM333.333 700H733.333V666.667H333.333V700ZM200 733.333H266.667V666.667H200V733.333ZM766.667 100V200C766.658 208.838 763.143 217.311 756.894 223.56C750.645 229.81 742.171 233.325 733.333 233.333H66.6667C57.8289 233.325 49.3555 229.81 43.1062 223.56C36.8569 217.311 33.3422 208.838 33.3334 200V100C33.3422 91.1622 36.8569 82.6888 43.1062 76.4395C49.3555 70.1902 57.8289 66.6755 66.6667 66.6667H733.333C742.171 66.6755 750.645 70.1902 756.894 76.4395C763.143 82.6888 766.658 91.1622 766.667 100ZM733.367 200L733.333 100H66.6667V200H733.367Z" fill="#09244B"/>
</g>
<defs>
<clipPath id="clip0_1035_31">
<rect width="800" height="800" fill="white"/>
</clipPath>
</defs>
</svg>
