<svg width="801" height="252" viewBox="0 0 801 252" fill="none" xmlns="http://www.w3.org/2000/svg">
<path d="M784.65 219.014H239.523C235.187 219.014 231.028 220.737 227.962 223.803C224.896 226.869 223.173 231.028 223.173 235.364C223.173 239.7 224.896 243.859 227.962 246.925C231.028 249.991 235.187 251.714 239.523 251.714H784.65C788.986 251.714 793.145 249.991 796.211 246.925C799.277 243.859 801 239.7 801 235.364C801 231.028 799.277 226.869 796.211 223.803C793.145 220.737 788.986 219.014 784.65 219.014Z" fill="#141414"/>
<path d="M169.96 37.1493C166.894 34.0842 162.736 32.3623 158.4 32.3623C154.065 32.3623 149.907 34.0842 146.841 37.1493L87.8724 96.118L28.9038 37.1493C25.8201 34.1711 21.6903 32.5233 17.4034 32.5606C13.1165 32.5978 9.01565 34.3172 5.98425 37.3486C2.95284 40.38 1.23315 44.4809 1.1959 48.7677C1.15865 53.0546 2.80673 57.1845 5.78499 60.2681L64.7536 119.237L5.78499 178.194C4.22341 179.703 2.97785 181.507 2.12097 183.502C1.26409 185.496 0.812939 187.642 0.794074 189.813C0.775209 191.984 1.18911 194.137 2.0112 196.146C2.83329 198.155 4.04728 199.981 5.58242 201.516C7.11755 203.051 8.94287 204.265 10.9522 205.087C12.9616 205.909 15.1147 206.323 17.2857 206.304C19.4566 206.285 21.6021 205.834 23.5968 204.977C25.5916 204.12 27.3955 202.875 28.9038 201.313L87.8724 142.355L146.841 201.313C149.925 204.291 154.054 205.939 158.341 205.902C162.628 205.865 166.729 204.145 169.761 201.114C172.792 198.082 174.511 193.982 174.549 189.695C174.586 185.408 172.938 181.278 169.96 178.194L110.991 119.237L169.96 60.2681C173.025 57.202 174.747 53.0443 174.747 48.7089C174.747 44.3735 173.025 40.2154 169.96 37.1493Z" fill="#141414"/>
<path d="M287.81 186.729C291.306 186.727 294.71 185.604 297.522 183.525C323.55 162.942 348.251 140.735 371.478 117.035C412.559 76.9777 463.647 27.0779 490.461 33.5089C491.677 33.7095 492.838 34.1585 493.873 34.8278C497.644 41.7165 481.97 72.1381 475.277 85.1308C462.884 109.209 453.085 128.229 458.928 143.5C460.129 146.665 461.993 149.537 464.393 151.924C466.793 154.311 469.676 156.158 472.847 157.343C493.35 165.223 515.662 150.105 539.271 134.071C557.256 121.842 581.868 105.089 592.026 111.487C595.58 113.721 596.702 123.542 597.607 131.423C599.122 144.743 601.204 162.967 617.859 170.554C635.299 178.478 660.979 173.126 735.328 122.016C738.902 119.559 741.355 115.783 742.145 111.517C742.935 107.252 741.998 102.848 739.541 99.2737C737.084 95.6991 733.307 93.2469 729.042 92.4569C724.777 91.6668 720.373 92.6036 716.798 95.0608C656.216 136.72 637.349 140.84 632.313 140.84H632.247C631.155 136.549 630.426 132.174 630.067 127.761C628.465 113.678 626.274 94.4176 609.357 83.8229C581.094 66.0887 549.092 87.856 520.85 107.051C511.789 113.498 502.323 119.356 492.51 124.589C495.551 117.22 500.576 107.454 504.337 100.129C518.757 72.1273 533.679 43.1663 523.586 21.2139C521.166 16.1777 517.587 11.7867 513.142 8.40093C508.697 5.01517 503.513 2.73089 498.015 1.7355C453.772 -8.90283 402.695 40.9754 348.686 93.6547C326.501 116.308 302.926 137.556 278.098 157.277C275.33 159.325 273.279 162.193 272.237 165.475C271.195 168.756 271.215 172.283 272.295 175.552C273.375 178.821 275.46 181.665 278.251 183.68C281.043 185.695 284.4 186.777 287.842 186.773L287.81 186.729Z" fill="#141414"/>
</svg>
